<svg xmlns="http://www.w3.org/2000/svg" viewBox="0 0 752.984 333.58"><defs><style>.cls-1{fill:none;}.cls-2{fill:#fff;}.cls-3{fill:#2c8ac8;}</style></defs><g id="レイヤー_2" data-name="レイヤー 2"><g id="レイヤー_1-2" data-name="レイヤー 1"><polygon class="cls-1" points="13.96 60.02 6.95 55.97 6.95 55.99 27.63 67.91 20.99 64.08 13.96 60.02"/><path class="cls-1" d="M48.65,63.86l-.33.19h0l.35-.2L55.34,60Z"/><polygon class="cls-1" points="62.34 40 62.34 55.96 62.33 55.97 62.34 47.89 62.34 40"/><polygon class="cls-1" points="48.31 15.93 48.31 15.93 55.33 19.98 48.31 15.93"/><polygon class="cls-1" points="55.31 28.07 55.33 28.09 55.33 28.08 55.31 28.07"/><rect class="cls-1" x="20.48" y="22.11" width="7.67" height="0.01"/><line class="cls-1" x1="55.33" y1="19.98" x2="55.33" y2="19.99"/><polygon class="cls-2" points="48.31 64.05 48.65 63.86 48.31 63.66 48.31 64.05"/><polygon points="48.31 32.13 48.31 47.86 34.63 55.76 20.99 47.89 20.99 32.13 34.65 24.24 48.31 32.13"/><polygon class="cls-2" points="69.29 28.05 69.29 59.97 62.32 64 62.33 55.97 62.34 55.96 62.34 32.13 62.34 32.13 55.33 28.09 55.33 28.08 55.31 28.07 55.33 28.09 55.33 43.81 48.31 47.86 48.31 24.03 34.68 16.16 34.65 16.15 34.64 16.14 41.66 12.09 41.66 12.09 69.29 28.05"/><polygon class="cls-3" points="62.34 32.13 62.32 64 34.66 80 27.67 75.97 27.68 75.95 55.33 60.01 55.33 51.91 55.32 51.91 41.64 59.81 34.63 55.76 55.33 43.81 55.33 28.09 62.34 32.13 62.34 32.13"/><polygon class="cls-3" points="41.62 4.03 13.97 19.97 13.98 19.98 13.98 28.07 27.63 20.19 27.63 20.19 34.65 24.24 48.31 32.13 48.31 24.03 34.68 16.16 34.65 16.15 34.64 16.14 41.66 12.09 41.66 12.09 69.29 28.05 69.29 20 41.62 4.03"/><polygon class="cls-2" points="13.98 51.94 13.98 36.18 20.99 32.13 34.65 24.24 27.63 20.19 13.98 28.07 13.98 19.98 13.97 19.97 41.62 4.03 34.64 0 6.98 15.97 6.96 47.9 13.98 51.94"/><polygon class="cls-3" points="27.63 67.91 27.64 67.9 34.63 63.86 20.99 55.99 20.99 47.89 20.99 32.13 13.98 36.18 13.98 51.94 6.96 47.9 6.98 15.97 0 20 0 51.94 27.63 67.91"/><line class="cls-1" x1="6.96" y1="47.9" x2="6.98" y2="15.97"/><polygon class="cls-2" points="55.33 51.91 55.33 60.01 27.68 75.95 27.67 75.97 0 60.01 0 51.94 27.63 67.91 27.64 67.9 34.63 63.86 20.99 55.99 20.99 47.89 34.63 55.76 41.64 59.81 55.32 51.91 55.33 51.91"/><path class="cls-2" d="M121.31,58.36a28.5,28.5,0,0,0,5.7-9.08,27.992,27.992,0,0,0,1.94-8.09,2.14,2.14,0,0,0-.61-1.79,31.063,31.063,0,0,0-7.94,2.28,3.267,3.267,0,0,1-1.64.5c-.94,0-2.09-.84-3.34-2.51a3.82,3.82,0,0,1-1.06-2.39,2.986,2.986,0,0,1,.15-.76,4.21,4.21,0,0,0,3.65,2.09c1.17,0,1.52,0,7.18-.92,3.42-.53,5.09-.75,11.55-1.48a9.627,9.627,0,0,0,3.3-.8,2.409,2.409,0,0,1,1.11-.3,5.75,5.75,0,0,1,2.43.8c1.44.72,2.16,1.52,2.16,2.28s-.6,1.29-1.59,1.29a3.142,3.142,0,0,1-.69-.08,45.94,45.94,0,0,0-12.65-.3c2.17,1.25,2.58,1.71,2.58,2.7,0,1.67-1.59,5.77-3.34,8.62a23.5,23.5,0,0,1-8.55,8.23Zm-.53-30.89a6,6,0,0,0,4.63,2.09,19.582,19.582,0,0,0,5.29-.87,11.9,11.9,0,0,0,3.34-1.44,2.264,2.264,0,0,1,1.21-.35,3.645,3.645,0,0,1,2,.8c.95.61,1.4,1.22,1.4,1.86s-.53,1.11-2.2,1.49a52.469,52.469,0,0,1-9.42,1.14c-3,0-4.94-1.33-6.61-4.45Zm18.27-2.43c3.88,1.37,6.31,3.5,6.31,5.51,0,1-.49,1.56-1.21,1.56s-.73-.11-1.68-1.9a17.087,17.087,0,0,0-3.82-4.56Zm3.92-2.62a13.508,13.508,0,0,1,4.37,1.9c1.4,1,2,1.9,2,3,0,.88-.46,1.48-1.14,1.48-.46,0-.68-.19-1.25-1.1a16.372,16.372,0,0,0-4.33-4.71Z"/><path class="cls-2" d="M165.58,58.21a17.578,17.578,0,0,0,7.22-8c1.33-3.11,1.94-6.87,2-12.38a45.12,45.12,0,0,0-7.67,1v2.05c0,1.21,0,4.33.08,5.39v.27c0,1.9-.5,2.81-1.56,2.81-.65,0-1.29-.49-1.94-1.41a4.729,4.729,0,0,1-.84-2.24,3.042,3.042,0,0,1,.27-1.06,14.738,14.738,0,0,0,.65-5.05,13.706,13.706,0,0,0-4,1.44,3.718,3.718,0,0,1-1.52.46c-.95,0-2.39-1.26-3.42-3a4.619,4.619,0,0,1-.68-2,2.471,2.471,0,0,1,.07-.46,4.367,4.367,0,0,0,3.69,1.94,37.961,37.961,0,0,0,5.85-.84c0-5.69-.46-6.72-3.12-8a1.931,1.931,0,0,1,1.26-.38,10.09,10.09,0,0,1,4.63,1.63c1,.65,1.33,1.14,1.33,1.79a3.084,3.084,0,0,1-.26,1.17,13.845,13.845,0,0,0-.46,3.27c1.75-.27,4.29-.61,7.67-1v-3c0-2.7-.19-3.84-.76-4.52a4.587,4.587,0,0,0-2.77-1.48,2.6,2.6,0,0,1,1.82-.53,11.349,11.349,0,0,1,4.79,1.14c1.14.53,1.63,1.1,1.63,1.86a2,2,0,0,1-.22.91c-.57,1.29-.65,1.86-.84,5.17a10.236,10.236,0,0,0,4.22-.84,2.071,2.071,0,0,1,1-.26,5.665,5.665,0,0,1,2.66,1c1,.61,1.41,1.18,1.41,1.79a1.129,1.129,0,0,1-1.116,1.143.9.9,0,0,1-.1,0,4.006,4.006,0,0,1-.6,0q-3.139-.327-6.3-.34h-1.22c-.19,8.06-.83,11.17-3,14.21a18.723,18.723,0,0,1-9.57,6.65Zm15-33.85a10.208,10.208,0,0,1,3.5,2.13,4.692,4.692,0,0,1,1.7,3.3c0,1-.45,1.56-1.17,1.56-.5,0-.8-.34-1.18-1.41a14.9,14.9,0,0,0-3.38-5.13Zm4-1.83a10.922,10.922,0,0,1,3.53,1.87,4.271,4.271,0,0,1,1.9,3.26c0,.92-.42,1.49-1.1,1.49-.53,0-.72-.23-1.22-1.3a13.376,13.376,0,0,0-3.64-4.82Z"/><path class="cls-2" d="M195.87,47.65a70.789,70.789,0,0,0,14.17-11.29c4.06-4.1,6.38-7.14,6.38-8.39,0-.8-.87-1.79-2.28-2.51a4.292,4.292,0,0,1,1.22-.15,7.609,7.609,0,0,1,3.84,1.29c1.74,1,2.77,2.16,2.77,3,0,.68-.19.91-1.52,1.86-.15.11-.15.11-2.47,2.32-2.66,2.47-2.66,2.47-5.36,4.78a9.558,9.558,0,0,1,2.63,2.25c.34.53.37.91.41,3.72,0,1.75,0,2.24.27,9.46v1.44c0,1.56-.5,2.32-1.56,2.32-1.41,0-3.5-2.32-3.5-3.91a3.353,3.353,0,0,1,.23-1.22c.5-1.56.84-5.7.84-9.8,0-1.94-.12-2.47-.65-3.19a62.448,62.448,0,0,1-8.13,5.39,47.734,47.734,0,0,1-7.14,3Z"/><path class="cls-2" d="M240.1,29.53c4.25.68,6.53,1.33,8.32,2.47a3.572,3.572,0,0,1,1.86,3.26c0,1.79-.87,3.16-2.05,3.16-.65,0-1-.31-1.6-1.3a17.89,17.89,0,0,0-6.72-7.18Zm28.87,2.2a40.766,40.766,0,0,1-8.54,11.78,61.527,61.527,0,0,1-11,8.66,8.771,8.771,0,0,0-2.05,1.67,2.089,2.089,0,0,1-1.6.95c-1,0-2.39-1.06-3.72-2.77a7.242,7.242,0,0,1-1.83-4.22,3.047,3.047,0,0,1,.19-1c1,1.75,2.28,2.82,3.31,2.82,1.59,0,6.57-2.62,11.09-5.85a75.015,75.015,0,0,0,13.72-12.24Z"/><path class="cls-2" d="M304.2,32a44.024,44.024,0,0,1-2.05,6.42,28.121,28.121,0,0,1-5.58,8.93,30.236,30.236,0,0,0,6.42,3.6,29.135,29.135,0,0,0,9,2.32v.38a5.271,5.271,0,0,0-3.23,3,6.456,6.456,0,0,0-.49,1.41.46.46,0,0,1-.42.42,23.363,23.363,0,0,1-4.9-2,32.019,32.019,0,0,1-8.78-6.68,30.77,30.77,0,0,1-8.32,5.81,47.585,47.585,0,0,1-9.57,3.27l-.12-.42a41.579,41.579,0,0,0,10.91-6.58,37.631,37.631,0,0,0,4.75-4.78,32.186,32.186,0,0,1-6.73-15.12h-5.7a21.075,21.075,0,0,0-2.85.22l-.26-1.4a18.234,18.234,0,0,0,3.08.38h11.81V26.92a25.568,25.568,0,0,0-.15-3l2.77.23c2.51.19,3.54.45,3.54.91s-.46.61-1.75,1.06v5.06h7.79c1.37-1.6,1.78-2,3.15-3.57,2,1.55,2.66,2,4.68,3.8.18.11.26.22.26.34a.25.25,0,0,1-.26.23Zm-18.43,0a22.777,22.777,0,0,0,2.89,6.8,33.226,33.226,0,0,0,4.94,6.08A31.634,31.634,0,0,0,299.49,32Z"/><path class="cls-2" d="M316.56,43.51a54.4,54.4,0,0,0,5.77-9.84c2.13-4.64,3.08-7.45,3.42-10l2.81.76c2.43.6,3.19.91,3.19,1.33s-.41.57-1.71.79a44.784,44.784,0,0,1-5,8.89c2.54.42,2.92.54,2.92.92s-.41.61-1.4,1V57.49a1.056,1.056,0,0,1-.23.8,4,4,0,0,1-2.47.5c-1.52,0-1.75-.16-1.75-1,.15-2.55.3-7.49.3-9.81V38.65a28.343,28.343,0,0,1-5.58,5.13Zm21.23-2.7a51.033,51.033,0,0,0,4.91-5.47,24.7,24.7,0,0,0,3.61-5.85c4.18,2.51,5.39,3.38,5.39,3.8s-.34.49-.91.49h-1.14a50.232,50.232,0,0,1-11.86,8.25V53.24c0,.57,0,.72.27.83a19.918,19.918,0,0,0,4.37.23,18.407,18.407,0,0,0,3.8-.3c.8-.31,1.25-1.41,4-9.54h.38l-.5,7.63v.5a.711.711,0,0,0,.57.76c1,.34,1.07.38,1.26.64a1.816,1.816,0,0,1,.34,1.18c0,2.24-2,2.78-9.95,2.78-5.29,0-6.61-.16-7.68-.84-.76-.49-1.06-1.25-1.1-2.81V28.16a35.658,35.658,0,0,0-.19-3.88c1.25.12,2.2.23,2.85.31,2.54.22,3.15.38,3.15.87s-.42.61-1.6,1Z"/><path class="cls-2" d="M357.94,30.97a13.169,13.169,0,0,0,2.92.34h7.56c1.11-1.29,1.45-1.67,2.59-2.89,1.75,1.33,2.28,1.71,3.91,3.12.15.15.23.27.23.34s-.15.23-.46.23H360.65a13.194,13.194,0,0,0-2.47.19Zm1.37,4.9a12.071,12.071,0,0,0,2.66.27h5.05c1-1.14,1.33-1.52,2.39-2.66,1.64,1.25,2.13,1.63,3.65,2.92a.6.6,0,0,1,.19.31c0,.11-.19.23-.42.23H361.89a11.45,11.45,0,0,0-2.36.18Zm.07,5a12.728,12.728,0,0,0,2.59.26h5.05c1-1.21,1.37-1.59,2.39-2.73a46.739,46.739,0,0,1,3.73,3c.15.15.19.23.19.34s-.19.23-.46.23h-10.9a12.783,12.783,0,0,0-2.36.19Zm0-14.86a9.573,9.573,0,0,0,2.55.3h5.12c1.11-1.29,1.49-1.67,2.63-2.92,1.74,1.29,2.28,1.71,4,3.08.15.19.22.3.22.38s-.19.26-.41.26H361.97a12.613,12.613,0,0,0-2.32.19Zm4.37,31.69c0,.83-.57,1.06-2.55,1.06-1.29,0-1.55-.15-1.59-.8.11-3.53.15-5,.15-7.67s0-3.91-.19-6.38a41,41,0,0,1,4.6,2.39h3.64c.88-1,1.14-1.29,2.09-2.32,1.37,1,1.79,1.29,3,2.28.27.23.38.42.38.57,0,.38-.34.72-1.21,1.29,0,4.49,0,4.68.15,9.12,0,.42-.08.65-.34.76a5.758,5.758,0,0,1-2.43.38c-1.14,0-1.37-.11-1.41-.68V56.22h-4.33Zm0-2.28h4.33V47.1h-4.33Zm23-18.32c1.26-1.48,1.64-1.93,3-3.42,1.71,1.49,2.24,1.94,3.95,3.5.15.23.23.34.23.42a.505.505,0,0,1-.5.3h-8.89c0,10,0,14,.27,19.57a1,1,0,0,1-.34.87,7.093,7.093,0,0,1-2.82.38c-1.36,0-1.63-.11-1.63-.83.19-5.66.27-10.26.27-17.29V37.9h-4.11a13.1,13.1,0,0,0-2.46.23l-.23-1.33a10.925,10.925,0,0,0,2.69.3h4.11c0-10.82,0-11.05-.34-12.88,5.66.42,6.3.54,6.3,1.11,0,.34-.41.6-1.63,1V37.08Z"/><path class="cls-2" d="M410.76,51.18v1.47c0,.83-.5,1-2.63,1-.91,0-1.1-.15-1.1-.8.08-5.85.08-6.68.08-12.19,0-6.46,0-7.79-.15-10,1.86.88,2.43,1.18,4.18,2.09h3V26.94H402.7a23.14,23.14,0,0,0-3.49.19l-.19-1.33a17.619,17.619,0,0,0,3.68.34h23.48c1.29-1.44,1.71-1.9,3.08-3.3,2,1.44,2.58,1.9,4.56,3.45.15.19.23.27.23.38s-.19.27-.42.27H417.94v5.81h3.23c.76-.91,1-1.17,1.86-2.09,1.29,1,1.67,1.22,2.85,2.17.26.23.38.38.38.53s-.31.5-1.1,1v7.6c0,3.23,0,4.56.07,10.33,0,.42,0,.57-.19.73a5.863,5.863,0,0,1-2.58.41c-.84,0-1-.15-1.07-.76V51.19Zm-6.31,6.47c0,.88-.57,1.1-2.77,1.1-1.18,0-1.49-.19-1.49-.91v-.11c.16-5.17.19-8.66.19-17a85.655,85.655,0,0,0-.22-9.12c4.86.61,5.43.72,5.43,1.21,0,.27-.27.46-1.14.91V55.62h23.44V35.34a30.421,30.421,0,0,0-.19-3.76c1.14.15,2.09.23,2.66.3,2.36.23,3,.42,3,.84s-.42.64-1.36,1V44.06c0,6.38,0,8.47.18,13.49v.1c0,.84-.79,1.14-3,1.14-1.06,0-1.33-.19-1.33-.87V56.4h-23.4Zm9.69-24h-3.38v7.52h3.38Zm0,8.32h-3.38v8.47h3.38Zm7.25-8.32h-3.45v7.52h3.45Zm0,8.32h-3.45v8.47h3.45Z"/><path class="cls-2" d="M448.65,27.7a32.472,32.472,0,0,1-3.42,10l.31.31h3.11c.84-.95,1.1-1.26,2.05-2.25,1.14,1,1.49,1.22,2.55,2.17.26.27.38.42.38.57s-.19.38-1,.84v5.43c0,4.82,0,4.82.15,9a.79.79,0,0,1-.68.84,7.385,7.385,0,0,1-2,.27c-.91,0-1.14-.16-1.14-.76V52.79h-3.08v3.57a.7.7,0,0,1-.57.76,10.892,10.892,0,0,1-2.24.26c-.8,0-1.1-.19-1.1-.72.12-5.51.19-8.4.19-8.7V42.34a28.679,28.679,0,0,1-3.49,3.84l-.27-.31a46.578,46.578,0,0,0,5.74-18.2H441.9a9.494,9.494,0,0,0-2.21.23l-.23-1.33a9.171,9.171,0,0,0,2.44.3h6.07c1.07-1.29,1.37-1.67,2.47-2.85,1.56,1.3,2,1.71,3.54,3.12.15.15.19.23.19.34s-.15.19-.42.19Zm-2.7,24.32h3.08V38.83h-3.08Zm24.13-13h.38c.88-1.22,1.18-1.56,2.13-2.74,1.33,1.25,1.71,1.67,3,3,.15.15.19.23.19.34s-.15.19-.38.19h-5.32v4.72c0,4.74,0,5.2.19,13.18a.74.74,0,0,1-.592.863l-.048.007a13.262,13.262,0,0,1-2.66.23c-1,0-1.26-.15-1.26-.8.19-8.13.19-8.7.19-13.48V39.81h-4.6c-.3,6.73-1,9.73-3.07,12.81s-4.45,4.79-8.78,6.61l-.23-.38a17.411,17.411,0,0,0,7.6-13.18c.19-1.41.31-3.39.38-5.86h-1.15a12.775,12.775,0,0,0-2,.19l-.23-1.25a9.163,9.163,0,0,0,2.35.27h1.07v-12h-.19a15.714,15.714,0,0,0-2.47.19l-.23-1.33a10.341,10.341,0,0,0,2.74.34H468.6c.91-1,1.82-1.94,2.66-2.81,1.59,1.22,2,1.63,3.61,3,.19.16.26.27.26.38s-.22.27-.49.27h-4.56Zm-8.62-12c0,6.61,0,9.57-.12,12h4.56v-12Z"/><path class="cls-2" d="M492.8,44.31a24.667,24.667,0,0,0,.34-4.07,11.726,11.726,0,0,0-.11-1.9c1.29.11,2.28.19,2.92.27h.15c2.28.19,3.19.45,3.19.83s-.53.69-1.74,1c-.23,2-.34,2.7-.54,3.8l4.75-.08,2.17-2.24,1.71,1.18c.34.27.84.61,1.52,1.06.38.31.53.5.53.69s-.26.49-.68.76a6.613,6.613,0,0,0-.8.49v7.64c0,.68.11.8,1.1.8a11.365,11.365,0,0,0,3.19-.27c.61-.19,1.1-1.1,1.71-3.12.38-1.32.42-1.44,1.33-4.52l.46.08-.23,6a.379.379,0,0,1,0,.15c0,.76.07.92.61,1.14a1.789,1.789,0,0,1,1.33,1.79c0,1.29-1,2-2.89,2.09-1.71.15-4.26.23-6.08.23a8.834,8.834,0,0,1-3.72-.5,2.271,2.271,0,0,1-1-2.16L502.13,45l-5.28.08c-.87,4.14-2.39,6.83-5.2,9.19a18.991,18.991,0,0,1-6.42,3.46c-1.14.34-1.71.49-4.52,1.18l-.16-.35c7.45-3.34,10.64-6.91,12.05-13.41l-6.8.08a19.033,19.033,0,0,0-2.17.22l-.38-1.29a14.784,14.784,0,0,0,2.51.23h.19Zm3-14.44a12.774,12.774,0,0,1-.91,4c-1.75,4.44-6.54,7.33-13.64,8.2l-.19-.41c4.25-1.49,6.46-2.93,8.32-5.4a10.6,10.6,0,0,0,2.17-6.38h-5.17v.64a8,8,0,0,1-.65,3.54,3.65,3.65,0,0,1-3,2.24c-1.14,0-2-1.1-2-2.66a1.69,1.69,0,0,1,1.21-1.86c2.13-1.07,2.93-2.21,3.5-5.06h.41a12.357,12.357,0,0,1,.42,2.36h9.24V26.65a16.863,16.863,0,0,0-.16-2.47c4.79.46,5.13.49,5.59.65s.57.26.57.45c0,.38-.53.69-1.6,1v2.81h8.36c.95-1,1.26-1.33,2.28-2.32,1.79,1.37,2.32,1.83,4.07,3.31.34.34.45.45.45.64,0,.38-.45.61-1.25.61a12.48,12.48,0,0,1-1.44-.07c-1.87,1.14-4,2.35-5.13,2.92l-.35-.19a30.007,30.007,0,0,0,1.68-4.1h-5.33v5.76c0,.6.19.72,1.21.79h3.38c1.75,0,2.36-.15,2.78-.68a22.551,22.551,0,0,0,1.78-3.57h.38l-.15,2.59v.26c0,.72,0,.72,1,1.14a1.261,1.261,0,0,1,.91,1.22c0,1.14-.72,1.71-2.58,1.94-.54.07-3.65.19-4.72.19h-.53c-.45,0-1.71,0-3.61-.08-2.92,0-3.76-.61-3.76-2.43V29.84Z"/><path class="cls-2" d="M538.93,34.58a50.719,50.719,0,0,1-5.47,6c4.37-.08,5.13-.08,13-.57a29.472,29.472,0,0,0-4.1-4l.19-.27a36.548,36.548,0,0,1,6.76,2.47c2.32,1.22,3.19,2.25,3.19,3.73s-.87,3.11-1.82,3.11c-.46,0-.8-.34-1.6-1.67a20.066,20.066,0,0,0-1.82-2.47c-5.43,1.26-5.43,1.26-7.83,1.67-2.85.5-9,1.41-11.89,1.75-.15,1.06-.38,1.52-.8,1.52s-.83-1-1.74-5.51a55.739,55.739,0,0,0,6.65.31,32.782,32.782,0,0,0,2.06-6h-3.46a13.567,13.567,0,0,0-2.51.27l-.3-1.33a15.669,15.669,0,0,0,2.81.26H545.9c1-1.18,1.37-1.52,2.43-2.62l1.18.84a15.761,15.761,0,0,0,.53-2.59h-22.7a9.668,9.668,0,0,1-.72,4.33,3.309,3.309,0,0,1-2.7,2.17,2.491,2.491,0,0,1-2.274-2.689l0-.041a1.579,1.579,0,0,1,.57-1.37c.15-.11.15-.11,1.06-.68a6.561,6.561,0,0,0,2.36-2.28,7.859,7.859,0,0,0,.72-2.74h.46a8,8,0,0,1,.45,2.43h9.16V26.49a20.276,20.276,0,0,0-.11-2.82c5.16.35,6.19.54,6.19,1.07,0,.38-.53.68-1.79,1v2.91h9c.91-1,1.22-1.29,2.17-2.28,1.9,1.3,2.46,1.71,4.25,3.08.3.27.42.42.42.65a.56.56,0,0,1-.31.42,3.709,3.709,0,0,1-1,.19h-1.37c-.45.27-.91.5-1.14.61-1.78.95-1.82.95-2.39,1.25l2,1.52c.15.08.23.19.23.27a.24.24,0,0,1-.23.19Zm7.72,14.59c1.45-1.56,1.45-1.56,2.77-3,1.83,1.32,2.4,1.74,4.26,3.26.12.12.15.19.15.27a.332.332,0,0,1-.3.23H540.75v6.72h8.48c1.25-1.4,1.63-1.82,2.92-3.15,1.83,1.33,2.43,1.79,4.41,3.38.15.15.27.27.27.38s-.12.19-.27.19H525.44a21.322,21.322,0,0,0-3.11.27l-.31-1.37a19.025,19.025,0,0,0,3.46.3h11.06V49.97h-8.29a15.564,15.564,0,0,0-2.81.22l-.3-1.29a20.255,20.255,0,0,0,3.11.27h8.29v-1.6a32.889,32.889,0,0,0-.19-3.83c1.14.11,2.12.22,2.65.3,2.82.27,3.31.38,3.31.8s-.23.49-1.56.95v3.38Z"/><path class="cls-2" d="M5.65,150.5V134.87h8v1.86h-6V150.5Z"/><path class="cls-2" d="M38.38,142.04a27.4,27.4,0,0,1-1.83,4.92,25.017,25.017,0,0,1-4.41,6.42,26.506,26.506,0,0,0,5.43,3.87,27.821,27.821,0,0,0,7,2.73,5.73,5.73,0,0,0-1.32,2,31.2,31.2,0,0,1-12.45-7.2,32.257,32.257,0,0,1-12.57,7.17,5.81,5.81,0,0,0-1.26-1.86,29.519,29.519,0,0,0,12.45-6.66,26.366,26.366,0,0,1-3.63-4.92A26.768,26.768,0,0,1,23,142.06H20.74a24.06,24.06,0,0,0-3.33.18v-2.13a20.754,20.754,0,0,0,3.36.21h8.61v-2.34a13.2,13.2,0,0,0-.21-2.58h2.4a12.678,12.678,0,0,0-.21,2.55v2.37h9.36a20.92,20.92,0,0,0,3.42-.21v2.13a22.733,22.733,0,0,0-3.36-.18Zm-13.35,0a22.573,22.573,0,0,0,2.46,5.73,25.434,25.434,0,0,0,3.27,4.29,23.356,23.356,0,0,0,5.43-10Z"/><path class="cls-2" d="M54.34,149.15c0-1.68,0-2.07.06-3.66a24.147,24.147,0,0,1-3.81,5,10.9,10.9,0,0,0-1.29-1.74,28.079,28.079,0,0,0,6.78-10.1,13.366,13.366,0,0,0,1-3.6l2.22.63c-.12.3-.12.3-.63,1.68-.27.69-1.29,3.09-2.4,5.58v15.71c0,1.17.06,2.4.18,3.63H54.13a35.554,35.554,0,0,0,.21-3.72Zm10.11,9.06c0,1.05.45,1.2,3.93,1.2s4.56-.18,5-.72.78-2.25,1-5.49a6.846,6.846,0,0,0,2,.93c-.36,3.3-.78,5-1.41,5.88s-2.22,1.26-6.72,1.26c-5,0-5.79-.36-5.79-2.7V138.65a28.3,28.3,0,0,0-.18-3.24h2.37a23.4,23.4,0,0,0-.18,3.24v8.49a40.808,40.808,0,0,0,5.25-3.45,21.169,21.169,0,0,0,4.29-4.17l1.74,1.59c-.42.36-.42.36-1.83,1.65a47.859,47.859,0,0,1-9.45,6.57Z"/><path class="cls-2" d="M103.96,144.65v2H83.47v-2Zm0,6.12v2.07H83.47v-2.07Z"/><path class="cls-2" d="M116.8,143.3a28.409,28.409,0,0,1-4.11,6.42,5.891,5.891,0,0,0-1.71-1.26,24.573,24.573,0,0,0,5.37-9.21,8.987,8.987,0,0,0,.66-2.82l2.25.6a12.155,12.155,0,0,0-.61,1.62c-.09.27-.45,1.26-1.08,2.91h6.3v-3.21a21.687,21.687,0,0,0-.21-3.18h2.43a20.14,20.14,0,0,0-.21,3.18v3.18h7.38a28.309,28.309,0,0,0,3.42-.18v2.13a29.307,29.307,0,0,0-3.39-.18h-7.41v6.45h6.06a21.008,21.008,0,0,0,3.21-.18v2.08a22.657,22.657,0,0,0-3.21-.18h-6.06v7.86h8.37a23.025,23.025,0,0,0,3.54-.21v2.19a24.225,24.225,0,0,0-3.51-.21H115a24.354,24.354,0,0,0-3.54.21v-2.19a23.143,23.143,0,0,0,3.51.21h8.91v-7.86h-5.49a22.237,22.237,0,0,0-3.18.18v-2.1a20.872,20.872,0,0,0,3.18.18h5.49v-6.45Z"/><path class="cls-2" d="M144.1,143.12a26.517,26.517,0,0,1,5.52,3.45l-1.05,1.74a24.124,24.124,0,0,0-5.52-3.72Zm5.82,9.69a56.04,56.04,0,0,1-5,8.94l-1.71-1.56a8,8,0,0,0,.93-1,30.261,30.261,0,0,0,4.23-7.56Zm-4.5-17.25a35.54,35.54,0,0,1,5.16,4l-1.17,1.59a31.482,31.482,0,0,0-5.22-4.2Zm13.86,3.78a59.992,59.992,0,0,1-6.87.75,5.873,5.873,0,0,0-.78-1.83,54.458,54.458,0,0,0,12.69-1.71,14.025,14.025,0,0,0,3.45-1.2l1.38,1.8-1,.27c-1.74.51-4.08,1.05-7,1.59v5.19H167a20.6,20.6,0,0,0,3.06-.18v2.13a22.048,22.048,0,0,0-3.06-.18h-5.85v5.1h4.8a14.39,14.39,0,0,0,2.31-.12,19.756,19.756,0,0,0-.12,2.73v5.7a23.193,23.193,0,0,0,.15,2.91h-2v-1.71H154.65v1.71h-2a20.064,20.064,0,0,0,.15-2.94v-5.76a22.815,22.815,0,0,0-.12-2.64,14.446,14.446,0,0,0,2.19.12h4.41v-5.1h-5.7a22.126,22.126,0,0,0-3,.18v-2.13a20.2,20.2,0,0,0,3,.18h5.7Zm-4.63,19.47h11.61v-6H154.65Z"/><path class="cls-2" d="M181.84,146.9v15.63h-7.95v-1.88h5.91V146.9Z"/><path class="cls-2" d="M208.87,150.5V134.87h8v1.86h-5.91V150.5Z"/><path class="cls-2" d="M235.48,147.02c-.36,7.77-2.88,11.43-9.66,14.07a5.252,5.252,0,0,0-1.41-2c6.21-2.07,8.55-5.28,8.79-12.12h-8.13a23.672,23.672,0,0,0-3.45.15v-2.17a19.851,19.851,0,0,0,3.48.18h17.55a19.659,19.659,0,0,0,3.48-.18v2.22a23.672,23.672,0,0,0-3.45-.15Zm-10.83-9.51a15.577,15.577,0,0,0,3.45.21h9.06a27.231,27.231,0,0,0,3.45-.15v2.16q-.581,0-3.42-.09h-9.12a20.905,20.905,0,0,0-3.42.15Zm17.58-2.52a23.339,23.339,0,0,1,2.94,4.74l-1.53.84a22.866,22.866,0,0,0-2.91-4.86Zm3.69-1.14a24.96,24.96,0,0,1,2.94,4.74l-1.53.84a23.521,23.521,0,0,0-2.91-4.83Z"/><path class="cls-2" d="M270.52,142.7v-2.94a21.123,21.123,0,0,0-.09-3.06h2.34a22.987,22.987,0,0,0-.12,2.85v3.15h2.58a20.5,20.5,0,0,0,3.51-.18v2.28a24.084,24.084,0,0,0-3.48-.15h-2.61c0,5.79-.36,8-1.47,10.17-1.62,3-4.32,5.1-8.37,6.48a5.379,5.379,0,0,0-1.35-1.89c3.93-1,7-3.33,8.16-6.36.66-1.8.84-3.6.9-8.4H261.4v5a15.665,15.665,0,0,0,.12,2.43h-2.43a14.347,14.347,0,0,0,.12-2.52v-4.91h-2.56a24.084,24.084,0,0,0-3.48.15v-2.28a20.5,20.5,0,0,0,3.51.18h2.49v-3.48a14.642,14.642,0,0,0-.12-2.52h2.43a15.917,15.917,0,0,0-.12,2.43v3.57Zm5-7.89a23.843,23.843,0,0,1,2.13,4.92l-1.59.54a23.116,23.116,0,0,0-2.13-5Zm3.45-1a23.269,23.269,0,0,1,2.13,4.89l-1.56.54a24,24,0,0,0-2.1-4.92Z"/><path class="cls-2" d="M309.04,137.75a6.8,6.8,0,0,0-1.32,1.26,52.809,52.809,0,0,1-7,6v12.78a19.882,19.882,0,0,0,.15,3.18h-2.61a15.665,15.665,0,0,0,.18-3.12v-11.4a46.884,46.884,0,0,1-11.58,5.25,7,7,0,0,0-1.17-2,42.225,42.225,0,0,0,15.57-7.77,25.189,25.189,0,0,0,5.73-5.67Z"/><path class="cls-2" d="M319.96,157.49a26.114,26.114,0,0,0,8.73-2.31c5.79-2.58,9.81-7,12.24-13.35a5.989,5.989,0,0,0,1.83,1.77c-2.4,5.22-5.19,8.73-9.15,11.46-3.09,2.1-6.18,3.33-11.19,4.47a15.753,15.753,0,0,0-1.8.48Zm1.92-18.6a39.087,39.087,0,0,1,7.23,5.64l-1.56,1.86a33.149,33.149,0,0,0-7.14-5.88Z"/><path class="cls-2" d="M371.71,144.65v2H351.22v-2Zm0,6.12v2.07H351.22v-2.07Z"/><path class="cls-2" d="M384.55,143.3a28.409,28.409,0,0,1-4.11,6.42,5.891,5.891,0,0,0-1.71-1.26,24.559,24.559,0,0,0,5.37-9.21,8.987,8.987,0,0,0,.66-2.82l2.25.6a12.182,12.182,0,0,0-.6,1.59c-.09.27-.45,1.26-1.08,2.91h6.32v-3.18a21.687,21.687,0,0,0-.21-3.18h2.43a20.14,20.14,0,0,0-.21,3.18v3.18h7.38a28.309,28.309,0,0,0,3.42-.18v2.13a29.307,29.307,0,0,0-3.39-.18h-7.42v6.45h6.06a21.008,21.008,0,0,0,3.21-.18v2.08a22.657,22.657,0,0,0-3.21-.18h-6.06v7.86h8.37a23.025,23.025,0,0,0,3.54-.21v2.19a24.225,24.225,0,0,0-3.51-.21h-19.3a24.354,24.354,0,0,0-3.54.21v-2.19a23.143,23.143,0,0,0,3.51.21h8.93v-7.86h-5.49a22.237,22.237,0,0,0-3.18.18v-2.1a20.872,20.872,0,0,0,3.18.18h5.49v-6.45Z"/><path class="cls-2" d="M411.85,143.12a26.517,26.517,0,0,1,5.52,3.45l-1.05,1.74a24.124,24.124,0,0,0-5.52-3.72Zm5.82,9.69a56.04,56.04,0,0,1-5,8.94l-1.71-1.56a8,8,0,0,0,.93-1,30.261,30.261,0,0,0,4.23-7.56Zm-4.5-17.25a35.54,35.54,0,0,1,5.16,4l-1.17,1.59a31.482,31.482,0,0,0-5.22-4.2Zm13.86,3.78a59.992,59.992,0,0,1-6.87.75,5.873,5.873,0,0,0-.78-1.83,54.458,54.458,0,0,0,12.69-1.71,14.025,14.025,0,0,0,3.45-1.2l1.38,1.8-1,.27c-1.74.51-4.08,1.05-7,1.59v5.19h5.85a20.6,20.6,0,0,0,3.06-.18v2.13a22.048,22.048,0,0,0-3.06-.18h-5.8v5.1h4.8a14.39,14.39,0,0,0,2.31-.12,19.756,19.756,0,0,0-.12,2.73v5.7a23.193,23.193,0,0,0,.15,2.91h-2v-1.71H422.44v1.71h-2a20.064,20.064,0,0,0,.15-2.94v-5.76a22.815,22.815,0,0,0-.12-2.64,14.446,14.446,0,0,0,2.19.12h4.41v-5.1h-5.7a22.126,22.126,0,0,0-3,.18v-2.13a20.2,20.2,0,0,0,3,.18h5.7Zm-4.59,19.47h11.61v-6H422.44Z"/><path class="cls-2" d="M444.07,143.03a6.646,6.646,0,0,0,1.14-.12l1.44-.26c.21-.06,1.44-.33,3.69-.84a40.113,40.113,0,0,1,8.7-1.11c5.49,0,9,2.91,9,7.5,0,3.75-2.22,6.9-6.24,8.85-2.76,1.32-5.28,1.92-9.93,2.31a5.651,5.651,0,0,0-.93-2.25,26,26,0,0,0,8.34-1.38c4.11-1.5,6.42-4.2,6.42-7.56s-2.49-5.4-6.57-5.4a47.672,47.672,0,0,0-12.24,2.13,13.16,13.16,0,0,0-2.16.72Zm21-7.26a22.736,22.736,0,0,1,3.09,4.65l-1.53.9a22.965,22.965,0,0,0-2.98-4.77Zm3.36-1.62a22.926,22.926,0,0,1,3.12,4.65l-1.5.87a24.245,24.245,0,0,0-3.06-4.71Z"/><path class="cls-2" d="M494.65,137.48c-.33.27-.57.48-3.69,3.48a87.485,87.485,0,0,1-6.9,5.67c-1.11.84-1.32,1.08-1.32,1.5s.24.75,2.67,2.64a88.461,88.461,0,0,1,9.6,8.19,7.664,7.664,0,0,0,.84.75l-1.89,1.86a28.348,28.348,0,0,0-3.87-4.11c-2-1.86-3.21-2.85-7.59-6.27-1.68-1.32-2.16-2-2.16-3a2.9,2.9,0,0,1,.87-2,23.114,23.114,0,0,1,2.55-2c4-3.06,7.74-6.57,8.79-8.22Z"/><path class="cls-2" d="M516.55,136.04a16.936,16.936,0,0,0-.69,3.09c-.48,3-.9,6.3-1,7.83h.12l.21-.87a13.387,13.387,0,0,1,1.83-4.47c1.68-2.58,3.66-3.87,6-3.87a5.651,5.651,0,0,1,4.8,2.67c1.26,1.86,1.8,4.08,1.8,7.29,0,5.43-2.43,9.54-6.93,11.79a22.689,22.689,0,0,1-5.34,1.77,6.2,6.2,0,0,0-1.2-2,15.852,15.852,0,0,0,6.09-1.89c3.51-2,5.16-5.16,5.16-10s-1.68-7.62-4.56-7.62c-2.28,0-4.2,1.71-5.91,5.22a15.662,15.662,0,0,0-1.62,6.69v.72l-2.16.09v-.87l-.06-3.12v-.69a75.787,75.787,0,0,1,1-11.07,5.987,5.987,0,0,0,.09-1Z"/><path class="cls-2" d="M546.34,146.9v15.63h-8v-1.88h5.91V146.9Z"/><path class="cls-2" d="M579.4,136.1a52.224,52.224,0,0,0,2.25,9.93c1.77-.72,2.61-1,7.26-2.67a16.213,16.213,0,0,0,1.92-.78l.9,2.28a68.966,68.966,0,0,0-9,2.91c-5.13,2-7.35,4-7.35,6.51,0,2.73,2.31,3.78,8.19,3.78a29.815,29.815,0,0,0,8.58-1l.24,2.49a15.576,15.576,0,0,0-2.22.18,60.191,60.191,0,0,1-6.63.39,20.4,20.4,0,0,1-6.66-.81c-2.46-.9-3.72-2.55-3.72-4.92a6.492,6.492,0,0,1,2.67-5.1,18.721,18.721,0,0,1,3.93-2.43,61.139,61.139,0,0,1-2.19-8.4,10.055,10.055,0,0,0-.51-1.89Z"/><path class="cls-2" d="M604.33,142.97a19.1,19.1,0,0,0-2.46.18v-2a14.864,14.864,0,0,0,2.43.18h1.74v-2.88a20.752,20.752,0,0,0-.18-3h2.25a19.3,19.3,0,0,0-.18,3v2.91h1.05a11.868,11.868,0,0,0,2.13-.15v2a12.593,12.593,0,0,0-2.16-.15h-1v5.82c1.53-.69,1.92-.87,3.33-1.62v1.86c-1.68.87-2.22,1.14-3.33,1.65v9.48c0,1.68-.66,2.13-3,2.13-.75,0-1.62,0-2.4-.06a4.69,4.69,0,0,0-.42-1.89,26.148,26.148,0,0,0,2.88.18c.84,0,1.08-.18,1.08-.78v-8.28c-1.17.51-1.53.69-2.13.9-.78.33-1.29.54-1.68.75l-.57-2a20.572,20.572,0,0,0,4.38-1.56v-6.63Zm10.77,3.15a24.064,24.064,0,0,0-2.79.12,18.867,18.867,0,0,0,.12-2.4v-5.13a15.907,15.907,0,0,0-.12-2.16,20.383,20.383,0,0,0,2.88.15h8.46a18.077,18.077,0,0,0,2.79-.15,14.206,14.206,0,0,0-.12,2.22v5.07a16.593,16.593,0,0,0,.12,2.4,23.043,23.043,0,0,0-2.73-.12h-3.36v4.86h4.3a17.085,17.085,0,0,0,2.73-.18v2a14.33,14.33,0,0,0-2.73-.15h-4.3v6.48a20.3,20.3,0,0,0,4.5.42,34.628,34.628,0,0,0,4-.18,7.144,7.144,0,0,0-.57,2c-1.38.06-1.89.09-2.55.09-6.63,0-9.78-1.47-12-5.55a20.405,20.405,0,0,1-3.57,6.3,5.793,5.793,0,0,0-1.53-1.32,14.2,14.2,0,0,0,3.45-5.76,23.074,23.074,0,0,0,1.23-6.24v-.39l2.07.36a8.894,8.894,0,0,0-.33,1.59,29.967,29.967,0,0,1-.69,3.42,8.921,8.921,0,0,0,4.2,4.62V146.12Zm-.81-1.65h10.2v-6.06h-10.2Z"/><path class="cls-2" d="M638.26,143.65c.75.06,1.14.06,1.8.06a102.4,102.4,0,0,0,10.53-.72,5.7,5.7,0,0,0,1.44-.33l1.32,1.65a27.572,27.572,0,0,0-2.67,2.49,66.6,66.6,0,0,1-5.94,5.4c1.68-.81,2.19-1,3-1a2.782,2.782,0,0,1,2,.78c.6.6.81,1.29.93,3,.12,1.89.21,2.34.54,2.82s1.11.81,2.49.81a16.166,16.166,0,0,0,6.06-1.11l.33,2.31a15.508,15.508,0,0,0-2.43.36,23.806,23.806,0,0,1-4.11.39c-2.25,0-3.57-.54-4.2-1.71a7.588,7.588,0,0,1-.66-3.3,5.185,5.185,0,0,0-.33-2.07,1.47,1.47,0,0,0-1.38-.72c-1.56,0-3,.84-5.52,3.15-1.47,1.35-3.45,3.39-4.5,4.59l-1.64-1.85a21.655,21.655,0,0,0,3.24-2.76c2.16-2,4.65-4.41,7.08-6.81.87-.87,2.4-2.37,4.56-4.44a57.6,57.6,0,0,1-8.94,1c-1.44.09-2.07.15-2.85.24Zm3.48-7.38a36.691,36.691,0,0,0,10.91,1.9l-.42,2a42.719,42.719,0,0,1-11.19-2Z"/><path class="cls-2" d="M665.92,154.13a30.583,30.583,0,0,1,6,6.36l-1.68,1.59a29.952,29.952,0,0,0-5.91-6.54Z"/><path class="cls-2" d="M701.05,137.72a23.4,23.4,0,0,0,2.7.12c2.7,0,7-.18,9.15-.42a5.858,5.858,0,0,0,1.68-.36l1.26,1.59a9.7,9.7,0,0,0-1.47,1.26,58.3,58.3,0,0,1-9.84,7.65,69.607,69.607,0,0,1,7.2-.81c1.23-.09,3.06-.27,5.34-.48,1.23-.09,2.13-.18,2.73-.24a3.99,3.99,0,0,0,.87-.12l.21,2.1h-.66a19.936,19.936,0,0,0-8.25,1.62,10.61,10.61,0,0,0-3.75,2.85,3.791,3.791,0,0,0-1,2.49c0,2.46,2.58,3.87,7.14,3.87a10.728,10.728,0,0,0,2-.18l.09,2.31c-.51,0-.51,0-2-.06-3.51-.06-6.12-.72-7.56-2a4.879,4.879,0,0,1-1.77-3.78c0-2.67,2.22-5,6.54-6.93l-1.65.27c-.51.06-3.18.42-4.89.63a77.038,77.038,0,0,0-8.85,1.35l-.24-2.28h.21a39.725,39.725,0,0,0,5.25-.6,63.576,63.576,0,0,0,10-7.74,10.012,10.012,0,0,1,1-.84,72.682,72.682,0,0,1-9.39.72c-1.14.06-1.26.06-1.86.12Z"/><path class="cls-2" d="M739.65,152.12c-1.74,4-3.51,5.76-5.67,5.76-2.85,0-5-3.12-5-7.32a12.179,12.179,0,0,1,12.072-12.287q.384,0,.768.017a11.611,11.611,0,0,1,8.25,3,10,10,0,0,1,2.91,7.32,10.921,10.921,0,0,1-6.87,10.35,23.212,23.212,0,0,1-4.56,1.38,4.766,4.766,0,0,0-1-2,18.022,18.022,0,0,0,5-1.41,9.058,9.058,0,0,0,5.31-8.4,7.91,7.91,0,0,0-4.77-7.53,8.622,8.622,0,0,0-3.48-.75A45.02,45.02,0,0,1,739.65,152.12Zm-3.68-10.47a10.369,10.369,0,0,0-4.89,8.94c0,2.88,1.26,5.1,2.88,5.1,1.26,0,2.46-1.41,3.75-4.35a41.217,41.217,0,0,0,2.73-11.1A9.469,9.469,0,0,0,735.97,141.65Z"/><path class="cls-2" d="M7.65,195.38a17.112,17.112,0,0,0-.18-3H9.69a22.11,22.11,0,0,0-.15,3v2h2.85a18.2,18.2,0,0,0,2.76-.18v2a21.09,21.09,0,0,0-2.73-.12,28.775,28.775,0,0,1-2.13,9.45,58.609,58.609,0,0,1,4.36,6.32l-1.5,1.44a55.841,55.841,0,0,0-3.66-5.88,24.412,24.412,0,0,1-6.66,8,5.3,5.3,0,0,0-1.5-1.44,21,21,0,0,0,6.93-8.19,52.158,52.158,0,0,0-5.46-6.13l1.41-1.2a68.52,68.52,0,0,1,4.83,5.43,27.549,27.549,0,0,0,1.47-7.8H4.27a15.787,15.787,0,0,0-2.67.15v-2a18.2,18.2,0,0,0,2.76.18H7.65Zm8.7,8a34.087,34.087,0,0,1,4.44,6.69l-1.65,1.14a26.34,26.34,0,0,0-4.32-6.9Zm1.89-2.49a18.474,18.474,0,0,0-2.82.18v-2a17.294,17.294,0,0,0,2.85.15h4.68v-3.36a17.212,17.212,0,0,0-.21-3.27h2.31a20.313,20.313,0,0,0-.18,3.27v3.36h.78a18.637,18.637,0,0,0,2.91-.18v2.07a18.07,18.07,0,0,0-2.94-.18H24.9v15.45c0,2-.6,2.43-3.3,2.43-1.35,0-2.1,0-3.42-.09a7.2,7.2,0,0,0-.63-2,28.711,28.711,0,0,0,3.84.33c1.35,0,1.59-.12,1.59-.75V200.93Z"/><path class="cls-2" d="M49.24,204.65a16.864,16.864,0,0,0,1.89,4.41,16.523,16.523,0,0,0,4.74-3.75l1.59,1.34c-.39.27-.66.45-1.92,1.44a27.666,27.666,0,0,1-3.45,2.34,26.288,26.288,0,0,0,2.16,2.46,14,14,0,0,0,5.37,3.42,7.239,7.239,0,0,0-1.35,1.83,18.254,18.254,0,0,1-5.7-4.14,22.515,22.515,0,0,1-5.16-9.35h-.63a14.951,14.951,0,0,1-2,1.29,12.7,12.7,0,0,1,3.6,8.91c0,2.37-.66,3.78-2,4.26a8.4,8.4,0,0,1-2.7.3,15.712,15.712,0,0,1-2-.09,5.51,5.51,0,0,0-.51-2,14.889,14.889,0,0,0,2.88.27c1.17,0,1.59-.12,1.92-.57a4.51,4.51,0,0,0,.51-2.52,13.332,13.332,0,0,0-.09-1.44,41.391,41.391,0,0,1-12.51,5.4,8.258,8.258,0,0,0-1.08-1.65,38,38,0,0,0,13.23-5.37,12.78,12.78,0,0,0-.72-1.83,37.945,37.945,0,0,1-11,4.35,5.685,5.685,0,0,0-1-1.65,31.67,31.67,0,0,0,11.34-4.09,8.678,8.678,0,0,0-1.29-1.57,33.683,33.683,0,0,1-9.18,3,5.144,5.144,0,0,0-1-1.59,31.646,31.646,0,0,0,10.9-3.41h-5c-1.32,0-2.34,0-3.27.09a14.249,14.249,0,0,0,.12-2.46v-2.7c-1,.66-1.41.9-2.58,1.59a5.562,5.562,0,0,0-1.12-1.52,22.327,22.327,0,0,0,7.17-5.22,10.634,10.634,0,0,0,2.16-2.88l2.07.63c-.24.27-.24.27-.63.75-.21.24-.33.39-.87,1h5.52a16.754,16.754,0,0,0,2.76-.15l1,1.05c-.48.51-.48.51-1.14,1.26a28.536,28.536,0,0,1-2.13,2.13h5.51a30.892,30.892,0,0,0,3.36-.12,18.723,18.723,0,0,0-.12,2.46v1.68a17.734,17.734,0,0,0,.12,2.46q-1.309-.09-3.24-.09Zm-3.36-6.39a16,16,0,0,0,2.77-2.82H40.78a29.174,29.174,0,0,1-3.13,2.79Zm-.63,4.83v-3.24h-7.5v3.24Zm9.84,0v-3.24H47.02v3.24Z"/><path class="cls-2" d="M72.37,196.91a12.705,12.705,0,0,0,1.44-4.11l2.4.42a6.372,6.372,0,0,0-.78,1.62,14.053,14.053,0,0,1-.93,2,5.093,5.093,0,0,1,.63,0c4.8-.24,7.8-.6,9.45-1.14l.18,2a9.3,9.3,0,0,0-1.2.15,97.012,97.012,0,0,1-9.9.78,22.157,22.157,0,0,1-2.7,4.26c-.3.36-.9,1.05-1,1.14s-.36.27-.39.3h0a.237.237,0,0,0,.06.09,8.3,8.3,0,0,1,1.38-1,8.007,8.007,0,0,1,4.53-1.47,3.641,3.641,0,0,1,3.993,3.249c0,.027,0,.054.007.081,2.19-.87,3.9-1.5,5.22-2a6.6,6.6,0,0,0,2-.87l1,2.1a49.9,49.9,0,0,0-8,2.64c.06.78.06,1.08.06,1.83v3a6.5,6.5,0,0,0,.06,1.08h-2q.2-2.154.18-4.32a7.948,7.948,0,0,0,0-.9c-4.08,1.92-5.64,3.33-5.64,5.13,0,2,1.86,2.85,6.09,2.85a25.147,25.147,0,0,0,8-1.17l.27,2.31c-.4.03-.8.08-1.2.15a46.476,46.476,0,0,1-7.29.6c-5.37,0-8-1.53-8-4.62,0-1.65,1-3.21,3.06-4.74a23.314,23.314,0,0,1,4.47-2.4c-.24-1.65-1-2.37-2.37-2.37-1.89,0-4.26,1.11-6.69,3.18a9.936,9.936,0,0,0-2.31,2.49l-1.88-1.6a29.83,29.83,0,0,0,6.72-8.58l.27-.45a3.413,3.413,0,0,1-.57.06l-4.41-.09H66.1a5.191,5.191,0,0,0-.66,0v-2.07a42,42,0,0,0,6.42.33Z"/><path class="cls-2" d="M107.17,194.24a7.334,7.334,0,0,0-.18-1.92h2.31a7.156,7.156,0,0,0-.18,2v1.74h8.13a20.9,20.9,0,0,0,3.24-.18v2.1a20.4,20.4,0,0,0-3.24-.15H98.65c0,7-.3,10.74-1,14.19a21,21,0,0,1-2.67,7,7.366,7.366,0,0,0-1.65-1.44,17.9,17.9,0,0,0,2.31-5.46,58.4,58.4,0,0,0,1.01-12.47,36.665,36.665,0,0,0-.12-3.75,22.786,22.786,0,0,0,3,.15h7.65Zm-9,21.54a5,5,0,0,0,1,.06,22.5,22.5,0,0,0,2.37-.09c2.58-5,5.1-12.3,5.7-16.44l2.37.6c-.21.57-.33.93-.6,1.83a88.09,88.09,0,0,1-5.36,13.91c3.24-.3,5.34-.51,6.36-.63,2.58-.3,3.78-.48,5.82-.87a50.926,50.926,0,0,0-4.71-6.51l1.65-1a61.187,61.187,0,0,1,7.5,11.46l-1.77,1.17a36.088,36.088,0,0,0-1.74-3.57,126.994,126.994,0,0,1-16.86,2.16,7.993,7.993,0,0,0-1.29.15Z"/><path class="cls-2" d="M143.65,194.48c-.33.27-.57.48-3.69,3.48a87.485,87.485,0,0,1-6.9,5.67c-1.11.84-1.32,1.08-1.32,1.5s.24.75,2.67,2.64a88.461,88.461,0,0,1,9.6,8.19,7.664,7.664,0,0,0,.84.75l-1.89,1.86a28.348,28.348,0,0,0-3.87-4.11c-2-1.86-3.21-2.85-7.59-6.27-1.68-1.32-2.16-2-2.16-3a2.9,2.9,0,0,1,.87-2,23.114,23.114,0,0,1,2.55-2c4-3.06,7.74-6.57,8.79-8.22Z"/><path class="cls-2" d="M156.65,211.13a30.583,30.583,0,0,1,6,6.36l-1.68,1.59a29.952,29.952,0,0,0-5.91-6.54Z"/><path class="cls-2" d="M179.95,216.44a19.4,19.4,0,0,0,.18,2.94h-2.22a20.334,20.334,0,0,0,.18-3v-9.33a30.762,30.762,0,0,1-4.14,3.6,5.633,5.633,0,0,0-1.11-1.68,25.854,25.854,0,0,0,5.4-4.44,20.346,20.346,0,0,0,3.72-5.58h-5.61a20.908,20.908,0,0,0-2.4.12v-2a19.879,19.879,0,0,0,2.34.12h1.77V194.4a17.166,17.166,0,0,0-.15-2.31h2.25a12.74,12.74,0,0,0-.18,2.34v2.76h1.74a11.006,11.006,0,0,0,1.74-.09l.93,1c-.21.33-.39.66-.72,1.29a25.827,25.827,0,0,1-3.3,5.1,18.178,18.178,0,0,0,4.83,4.08,7.217,7.217,0,0,0-1,1.65,19.5,19.5,0,0,1-4.23-3.78Zm10.41-21.54a17.822,17.822,0,0,0-.21-2.73h2.37a14.187,14.187,0,0,0-.21,2.73v6.48h3.93a19.4,19.4,0,0,0,2.94-.18v2.1c-.93-.09-1.89-.15-2.94-.15h-3.93v12.81h4.74a20.9,20.9,0,0,0,3.24-.18v2.25a20.42,20.42,0,0,0-3.24-.21h-10.8a19.817,19.817,0,0,0-3.21.21v-2.25a20.9,20.9,0,0,0,3.24.18h4.08V203.15h-3c-1,0-2,.06-2.94.15v-2.1a19.022,19.022,0,0,0,2.94.18h3Z"/><path class="cls-2" d="M218.5,192.29a20.155,20.155,0,0,0,5,5.37,32.4,32.4,0,0,0,8.28,4.8,6.361,6.361,0,0,0-1.17,1.92,41.24,41.24,0,0,1-8.34-5.22,24.942,24.942,0,0,1-4.8-5.13,26.018,26.018,0,0,1-4.5,4.92,33,33,0,0,1-8.1,5.28,6.02,6.02,0,0,0-1.26-1.71,31.464,31.464,0,0,0,8.04-4.87,22.064,22.064,0,0,0,4.77-5.34Zm-10.14,16.74a25.714,25.714,0,0,0-3.42.18v-2.16a25.714,25.714,0,0,0,3.42.18h18.48a25.382,25.382,0,0,0,3.42-.18v2.16a26.055,26.055,0,0,0-3.42-.18H216.07a45.167,45.167,0,0,1-3.75,7.08c4.14-.27,7.26-.57,11.7-1.11a45.174,45.174,0,0,0-3.66-3.72l1.56-1a64.907,64.907,0,0,1,7.26,7.92l-1.65,1.23c-1.17-1.65-1.56-2.16-2.19-2.94-5.34.72-9.87,1.2-14.55,1.56a35.942,35.942,0,0,0-5.07.54l-.36-2.28a13.973,13.973,0,0,0,1.53.09c.48,0,.48,0,3.18-.18a45.175,45.175,0,0,0,3.81-7.23Zm1.92-7.47a15.9,15.9,0,0,0,2.37.09h9.69a18.287,18.287,0,0,0,2.52-.12v2a18.606,18.606,0,0,0-2.52-.12h-9.69a17.257,17.257,0,0,0-2.34.12Z"/><path class="cls-2" d="M243.19,205.7a2.46,2.46,0,1,1-2.46-2.46A2.46,2.46,0,0,1,243.19,205.7Z"/><path class="cls-2" d="M254.26,195.83a24.544,24.544,0,0,0-.18-3.33h2.22a24.987,24.987,0,0,0-.18,3.36v4.47h.84a11.347,11.347,0,0,0,2.4-.15v2a18.613,18.613,0,0,0-2.43-.12h-.81v9.42c1.29-.6,1.83-.87,3.39-1.74l.18,1.83a57.883,57.883,0,0,1-7.74,3.66c-.42.15-.87.36-1.2.51l-.51-2.07a16.915,16.915,0,0,0,4-1.35V202.01h-1.09a11.385,11.385,0,0,0-2.52.18v-2a11.088,11.088,0,0,0,2.52.18h1.11Zm9.18,19.44c0,.72.18,1,.9,1.14a21.823,21.823,0,0,0,4.83.27c4.23,0,5.49-.18,6-.87.39-.54.6-1.92.63-4a5.505,5.505,0,0,0,1.92.78c-.36,5.55-.9,5.91-8.7,5.91-6.21,0-7.44-.45-7.44-2.79V204.65l-.66.21a16.534,16.534,0,0,0-2.49,1l-.54-2a11.579,11.579,0,0,0,2.61-.6l1.08-.36v-4.71a21.744,21.744,0,0,0-.18-3.06h2.25a21.2,21.2,0,0,0-.18,3v4.2l4.29-1.44v-5.55a18.866,18.866,0,0,0-.18-2.79h2.22a20,20,0,0,0-.18,2.82v4.92l4.62-1.53a21.606,21.606,0,0,0,2.37-.93c-.12,3-.24,5.1-.48,8-.21,2.67-.6,3.93-1.38,4.38a4.1,4.1,0,0,1-2.16.42,8.99,8.99,0,0,1-1.32-.09,6.988,6.988,0,0,0-.45-1.89,10.751,10.751,0,0,0,2.31.27c.69,0,.84-.15,1-1a60.556,60.556,0,0,0,.48-7.59l-5,1.71v8.28a19.672,19.672,0,0,0,.18,2.88h-2.24a19.531,19.531,0,0,0,.18-2.91v-7.62l-4.29,1.44Z"/><path class="cls-2" d="M284.65,195.77a24.592,24.592,0,0,0-.18-3.3h2.18a20.686,20.686,0,0,0-.18,3.3v4.59h.57a18.49,18.49,0,0,0,2.49-.12v1.92a18.49,18.49,0,0,0-2.49-.12h-.57v8.88a28.5,28.5,0,0,0,3.21-1.83l.15,1.89a78.15,78.15,0,0,1-7.44,3.84,6.151,6.151,0,0,0-1,.51l-.6-2a24.028,24.028,0,0,0,3.84-1.5v-9.75h-.87a21.654,21.654,0,0,0-2.52.15v-2a16.61,16.61,0,0,0,2.58.15h.83Zm14.34,16.88c-2.67.87-4.53,1.38-8.25,2.28-.66.18-1.47.39-1.86.51l-.48-2c1.65,0,6.45-1.11,10.56-2.43Zm-6.48-13.74a31.267,31.267,0,0,0-3.18.15v-2a21.53,21.53,0,0,0,3.21.18h7.32a33.966,33.966,0,0,0-.24-5h2.22a16.222,16.222,0,0,0-.18,3.09v1.89h3.06a20.6,20.6,0,0,0,3.12-.18v2a31.716,31.716,0,0,0-3.18-.15h-2.94a51.992,51.992,0,0,0,1.17,9.78,22.019,22.019,0,0,0,2.34-6.6l1.95.66c-.3.72-.39.93-.66,1.74a34.03,34.03,0,0,1-3,6.51c1,3,2.16,5.28,2.94,5.55.48-.42.81-1.92.87-4.14a5.409,5.409,0,0,0,1.59,1.14,12.308,12.308,0,0,1-1,4.26c-.39.72-.87,1.08-1.38,1.08-1.41,0-3.15-2.37-4.38-5.94a23.066,23.066,0,0,1-6.78,6.06,5.091,5.091,0,0,0-1.47-1.41,20.137,20.137,0,0,0,7.65-6.69,49.736,49.736,0,0,1-1.68-12Zm-1.77,4.38c0-.66-.06-1.35-.09-1.86a15.535,15.535,0,0,0,2,.09h3.54a19.082,19.082,0,0,0,2-.09,10.566,10.566,0,0,0-.06,1.53v5a13.075,13.075,0,0,0,.06,1.77c-.63-.06-1.29-.09-2.13-.09h-3.41a15.183,15.183,0,0,0-2,.09,16.453,16.453,0,0,0,.09-1.83Zm1.71,4.8h4.05v-5h-4.05Zm13.68-11.49a14.191,14.191,0,0,0-3.48-3l1.17-1a19.917,19.917,0,0,1,3.54,2.79Z"/><path class="cls-2" d="M324.16,209.12c-1.74,4-3.51,5.76-5.67,5.76-2.85,0-5-3.12-5-7.32a12.179,12.179,0,0,1,12.072-12.287q.384,0,.768.017a11.611,11.611,0,0,1,8.25,3,10,10,0,0,1,2.91,7.32,10.92,10.92,0,0,1-6.84,10.32,23.212,23.212,0,0,1-4.56,1.38,4.774,4.774,0,0,0-1.05-2,18.022,18.022,0,0,0,5-1.41,9.058,9.058,0,0,0,5.31-8.4,7.91,7.91,0,0,0-4.77-7.53,8.622,8.622,0,0,0-3.48-.75A45.024,45.024,0,0,1,324.16,209.12Zm-3.69-10.47a10.369,10.369,0,0,0-4.89,8.94c0,2.88,1.26,5.1,2.88,5.1,1.26,0,2.46-1.41,3.75-4.35a41.217,41.217,0,0,0,2.73-11.1A9.469,9.469,0,0,0,320.47,198.65Z"/><path class="cls-2" d="M357.4,192.53a20.545,20.545,0,0,0-.15,2.67,38.971,38.971,0,0,0,.66,6.51,24.639,24.639,0,0,0,8.31,13.14,22.043,22.043,0,0,0,3.48,2.34,6.83,6.83,0,0,0-1.56,1.89,27.472,27.472,0,0,1-7.95-7.68,25.883,25.883,0,0,1-3.9-9.54,25.43,25.43,0,0,1-2.07,6.69,20.17,20.17,0,0,1-4.29,6.15,25.507,25.507,0,0,1-5.52,4.38,5.724,5.724,0,0,0-1.62-1.77,21.191,21.191,0,0,0,6.12-4.53c4.17-4.47,6.21-10.23,6.21-17.61a20.423,20.423,0,0,0-.12-2.64Z"/><path class="cls-2" d="M383.71,200.3a37.849,37.849,0,0,1-7.77,10,8.61,8.61,0,0,0-1.86-1.35,32.4,32.4,0,0,0,7.44-8.88c1.68-3,2.64-5.52,2.73-7.26l2.46.72a18.123,18.123,0,0,0-1.14,2.82c-.27.66-.48,1.2-.93,2.16h7.11a24.084,24.084,0,0,0,3.48-.15l1.2,1.35c-.15.3-.15.3-.39.84-.36.81-1.35,2.79-1.92,3.78a41.7,41.7,0,0,1-4.89,7.29,52.643,52.643,0,0,1,4.47,4.53l-1.59,1.41a43.711,43.711,0,0,0-4.77-4.89,45.288,45.288,0,0,0-5.55-4.26l1.47-1.35a46.379,46.379,0,0,1,4.41,3.21,34.348,34.348,0,0,0,6.15-9.93Z"/><path class="cls-2" d="M416.41,209.12c-1.74,4-3.51,5.76-5.67,5.76-2.85,0-5-3.12-5-7.32a12.179,12.179,0,0,1,12.068-12.291q.422,0,.842.021a11.611,11.611,0,0,1,8.25,3,10,10,0,0,1,2.91,7.32,10.92,10.92,0,0,1-6.87,10.35,23.212,23.212,0,0,1-4.56,1.38,4.774,4.774,0,0,0-1.05-2,18.022,18.022,0,0,0,5-1.41,9.058,9.058,0,0,0,5.31-8.4,7.91,7.91,0,0,0-4.77-7.53,8.622,8.622,0,0,0-3.48-.75A45,45,0,0,1,416.41,209.12Zm-3.69-10.47a10.369,10.369,0,0,0-4.89,8.94c0,2.88,1.26,5.1,2.88,5.1,1.26,0,2.46-1.41,3.75-4.35a41.217,41.217,0,0,0,2.73-11.1A9.469,9.469,0,0,0,412.72,198.65Z"/><path class="cls-2" d="M440.8,200.3a28.409,28.409,0,0,1-4.11,6.42,5.891,5.891,0,0,0-1.71-1.26,24.559,24.559,0,0,0,5.37-9.21,8.987,8.987,0,0,0,.66-2.82l2.25.6a12.294,12.294,0,0,0-.61,1.62c-.09.27-.45,1.26-1.08,2.91h6.3v-3.21a21.687,21.687,0,0,0-.21-3.18h2.43a20.14,20.14,0,0,0-.21,3.18v3.18h7.38a28.309,28.309,0,0,0,3.42-.18v2.13a29.307,29.307,0,0,0-3.39-.18h-7.41v6.45h6.06a21.008,21.008,0,0,0,3.21-.18v2.08a22.657,22.657,0,0,0-3.21-.18h-6.06v7.86h8.37a23.025,23.025,0,0,0,3.54-.21v2.19a24.225,24.225,0,0,0-3.51-.21H439a24.354,24.354,0,0,0-3.54.21v-2.19a23.143,23.143,0,0,0,3.51.21h8.91v-7.86h-5.49a22.237,22.237,0,0,0-3.18.18v-2.1a20.872,20.872,0,0,0,3.18.18h5.49v-6.45Z"/><path class="cls-2" d="M466.65,200.12a26.517,26.517,0,0,1,5.52,3.45l-1.05,1.74a24.124,24.124,0,0,0-5.52-3.72Zm5.82,9.69a56.04,56.04,0,0,1-5,8.94l-1.71-1.56a8,8,0,0,0,.93-1,30.261,30.261,0,0,0,4.23-7.56Zm-4.5-17.25a35.54,35.54,0,0,1,5.16,4l-1.17,1.59a31.482,31.482,0,0,0-5.22-4.2Zm13.86,3.78a59.992,59.992,0,0,1-6.87.75,5.873,5.873,0,0,0-.78-1.83,54.458,54.458,0,0,0,12.69-1.71,14.025,14.025,0,0,0,3.45-1.2l1.38,1.8-1,.27c-1.74.51-4.08,1.05-7,1.59v5.19h5.85a20.6,20.6,0,0,0,3.06-.18v2.13a22.048,22.048,0,0,0-3.06-.18H483.7v5.1h4.8a14.39,14.39,0,0,0,2.31-.12,19.648,19.648,0,0,0-.16,2.7v5.7a23.193,23.193,0,0,0,.15,2.91h-2v-1.71H477.19v1.71h-2a20.064,20.064,0,0,0,.15-2.94v-5.76a22.815,22.815,0,0,0-.12-2.64,14.446,14.446,0,0,0,2.19.12h4.41v-5.1h-5.7a22.126,22.126,0,0,0-3,.18v-2.13a20.2,20.2,0,0,0,3,.18h5.7Zm-4.59,19.47h11.61v-6H477.19Z"/><path class="cls-2" d="M510.97,192.56a23.387,23.387,0,0,0,5.85,6.09,30.865,30.865,0,0,0,7.41,4.2,8.024,8.024,0,0,0-1.29,2,42.51,42.51,0,0,1-7.62-4.83,26.258,26.258,0,0,1-5.49-5.76,24.625,24.625,0,0,1-4.8,5.4,37.381,37.381,0,0,1-7.71,5.1,5.872,5.872,0,0,0-1.32-1.8,32.621,32.621,0,0,0,7.53-4.59,23.473,23.473,0,0,0,5.07-5.79Zm-6.78,12.09a17.824,17.824,0,0,0-2.79.15v-2a16.812,16.812,0,0,0,2.7.15h11.55a16.579,16.579,0,0,0,2.7-.15v2a17.444,17.444,0,0,0-2.76-.15h-4.86v4.56h5.58a16.976,16.976,0,0,0,2.76-.15v2a17.2,17.2,0,0,0-2.76-.15h-5.58v5.37h9.06a24.266,24.266,0,0,0,3.3-.18v2.19a22.209,22.209,0,0,0-3.27-.21H500.2a22.746,22.746,0,0,0-3.33.21V216.1a24.823,24.823,0,0,0,3.36.18h8.52v-5.37h-5a17.585,17.585,0,0,0-2.79.15v-2a17.119,17.119,0,0,0,2.79.15h5v-4.56Z"/><path class="cls-2" d="M530.71,206.12c0-1.35,0-2.19.09-3.66a22.366,22.366,0,0,1-3.09,4.38,7.1,7.1,0,0,0-1.2-1.71,28.649,28.649,0,0,0,5.82-9.15,18.109,18.109,0,0,0,1.14-3.93l2.1.63c-.27.63-.42,1-.81,2.07a43.077,43.077,0,0,1-2.16,5v16a29.386,29.386,0,0,0,.15,3.51h-2.22a29.646,29.646,0,0,0,.18-3.6Zm9.84,7.17a13.535,13.535,0,0,0-2.43.15v-2a13.5,13.5,0,0,0,2.46.15h2.49v-6.3c0-1.38,0-2.4.06-3.69a29.714,29.714,0,0,1-8.67,11.85,5.326,5.326,0,0,0-1.44-1.59,25.213,25.213,0,0,0,6.24-6.36,24.652,24.652,0,0,0,3-5.25h-4.71a22.454,22.454,0,0,0-3,.18v-2.1a20.334,20.334,0,0,0,3,.18h5.46v-3.3a23.709,23.709,0,0,0-.21-2.94h2.25a15.661,15.661,0,0,0-.24,2.94v3.3h6.39a22.009,22.009,0,0,0,3.09-.18v2.1a22.684,22.684,0,0,0-3.06-.18h-5.58a34.127,34.127,0,0,0,4.23,6.6,25.027,25.027,0,0,0,5.43,5,6.861,6.861,0,0,0-1.47,1.68,31.626,31.626,0,0,1-9-12c.06,1.74.09,2.55.09,3.75v6.37h2.72a13.535,13.535,0,0,0,2.43-.15v2a13.721,13.721,0,0,0-2.43-.15h-2.73v2.94a25.736,25.736,0,0,0,.18,3.09h-2.19a25.755,25.755,0,0,0,.21-3.09v-2.94Z"/><path class="cls-2" d="M564.65,194.06a42.5,42.5,0,0,0-1.26,4.8,44.326,44.326,0,0,0-.9,9.39c0,2.34.06,4.11.18,5.7a27.872,27.872,0,0,1,2-5.85l1.44.69c-1.35,3-2.43,6.57-2.43,8.25v.45l-2.16.18c-.06-.48-.09-.63-.18-1.2a42.96,42.96,0,0,1-.78-8.49,49.654,49.654,0,0,1,1.35-11.88,16.693,16.693,0,0,0,.42-2.4Zm7.65,12.06c-1.5,1.65-2.25,3.09-2.25,4.41,0,2.22,1.89,3.3,5.76,3.3a19.734,19.734,0,0,0,6.9-1l.3,2.31a5.15,5.15,0,0,0-1,.15,31.048,31.048,0,0,1-6.15.6c-3.42,0-5.58-.72-6.87-2.28a4.244,4.244,0,0,1-.9-2.76c0-1.83.75-3.45,2.61-5.58Zm-3.81-8.88a20.368,20.368,0,0,0,5.1.45,32.224,32.224,0,0,0,8-.81l.15,2.13-2.07.27a50.762,50.762,0,0,1-6.45.39,40.114,40.114,0,0,1-4.8-.3Z"/><path class="cls-2" d="M598.51,196.82a20.872,20.872,0,0,0,1.83-5l2.25.36c-.15.33-.33.75-.75,1.77-.51,1.32-.87,2.1-1.23,2.85h11.1a18.49,18.49,0,0,0,2.49-.12,22.815,22.815,0,0,0-.12,2.64v16.8c0,1.86-.66,2.34-3.21,2.34a35.528,35.528,0,0,1-3.69-.18,5.848,5.848,0,0,0-.51-2,35.518,35.518,0,0,0,4.26.33c1.05,0,1.23-.12,1.23-.87V198.59h-19.8v17.22a15.007,15.007,0,0,0,.21,2.94h-2.34a14.467,14.467,0,0,0,.18-2.94V199.4a26.37,26.37,0,0,0-.09-2.7,17.613,17.613,0,0,0,2.43.12Zm9,12.48a13.215,13.215,0,0,0,.18,2.4c-.66-.06-1.95-.09-2.7-.09h-6.48v2.28h-2a18.756,18.756,0,0,0,.18-2.55v-6.69a13.521,13.521,0,0,0-.15-2.22,13.647,13.647,0,0,0,2,.12h7a14.045,14.045,0,0,0,2.07-.12,12.836,12.836,0,0,0-.15,2.25Zm-9,.63h7.14V204.2h-7.14Z"/><path class="cls-2" d="M626.17,193.97a51.856,51.856,0,0,0-1.83,13.08c0,1.65.12,3.87.24,4.89a10.5,10.5,0,0,1,.18,1.62,32.816,32.816,0,0,1,2.52-6.36l1.53.72q-1.24,2.568-2.22,5.25a11.713,11.713,0,0,0-.84,3.81l-2.07.18a7.994,7.994,0,0,0-.24-1,34.148,34.148,0,0,1-1.11-8.88,61.72,61.72,0,0,1,1.2-11.55,15.347,15.347,0,0,0,.27-2.07Zm3.06,6.06a24.291,24.291,0,0,0,5.1.39c1.2,0,2.31-.06,3.81-.18a57.85,57.85,0,0,0-.36-7h2.31a6.986,6.986,0,0,0-.09,1v.9c0,.54,0,.69.18,4.86a15.816,15.816,0,0,0,4.77-1.26l.15,2.16a15.164,15.164,0,0,0-1.59.36,28.53,28.53,0,0,1-3.27.6v2.16c0,5.7-.54,8.16-2.31,10.56a14.511,14.511,0,0,1-4.71,3.87,6.921,6.921,0,0,0-1.62-1.62,12.3,12.3,0,0,0,4.59-3.45c1.53-2,2-4.14,2-8.94,0-.84,0-1.5-.06-2.37-1.32.12-3.06.18-4.38.18-.84,0-2.55-.06-3.63-.12a4.422,4.422,0,0,0-.54,0,3.072,3.072,0,0,0-.45,0Z"/><path class="cls-2" d="M651.65,197.3h1.08a14.725,14.725,0,0,0,1.71-.09c3.57-.27,13.17-.81,17-1a20.17,20.17,0,0,0,3.57-.33l.18,2.25a13.927,13.927,0,0,0-3.36.39,15.222,15.222,0,0,0-5.76,3,9.17,9.17,0,0,0-3.69,6.93c0,2.52,1.53,4.53,4.2,5.55a15.381,15.381,0,0,0,4.5,1h.3l-.39,2.43-.93-.18a15.131,15.131,0,0,1-6.48-2.31,7.3,7.3,0,0,1-3.33-6.12c0-3.48,2-6.81,5.61-9.21a19.664,19.664,0,0,1,2.85-1.59,58.187,58.187,0,0,1-6.6.66,87.991,87.991,0,0,0-10.35,1Z"/><path class="cls-2" d="M686.08,195.86a21.746,21.746,0,0,0-.21,3.57,51.374,51.374,0,0,0,.78,9.33c.66,3.06,1.89,5.13,3,5.13.54,0,1.05-.51,1.5-1.5a21.6,21.6,0,0,0,1.56-5.13,9.588,9.588,0,0,0,1.77,1.71c-1.47,5.25-2.85,7.26-5,7.26-1.68,0-3.24-1.68-4.26-4.56s-1.42-6.69-1.57-14.02a16.354,16.354,0,0,0-.09-1.77Zm14.49,1.59a26.022,26.022,0,0,1,4.29,6.84,28.721,28.721,0,0,1,2.25,8l-2.13.87a26.5,26.5,0,0,0-6.24-14.79Z"/><path class="cls-2" d="M717.34,194.75a13.867,13.867,0,0,0,2.82.18c2.49,0,6.48-.18,9.18-.39a3.062,3.062,0,0,0,1.44-.33l1.26,1.65a5.532,5.532,0,0,0-1.53,1.26,76.981,76.981,0,0,1-9.86,8.53l.06.09a15.2,15.2,0,0,1,7.35-1.86c5,0,8.22,2.46,8.22,6.3,0,4.68-4.35,7.77-11,7.77-4.23,0-6.66-1.56-6.66-4.32,0-2,1.86-3.51,4.35-3.51a6,6,0,0,1,5,2.46,8.586,8.586,0,0,1,1.38,2.88c3.15-.87,4.8-2.7,4.8-5.25,0-2.88-2.4-4.59-6.45-4.59a19.25,19.25,0,0,0-12.63,5.13l-1.42-1.93a33.41,33.41,0,0,0,4.2-3.06c3.21-2.55,7.95-6.72,10-8.76l.42-.42.12-.12.12-.12-.06-.06h-.27c-1,.18-4.56.39-9.12.54a14.666,14.666,0,0,0-1.62.15Zm5.64,17.07c-1.5,0-2.43.72-2.43,1.86a2,2,0,0,0,1.2,1.83,7.661,7.661,0,0,0,3.36.69,10.809,10.809,0,0,0,2.19-.21C726.65,213.26,725.14,211.82,722.98,211.82Z"/><path class="cls-2" d="M751.65,214.55a4.49,4.49,0,1,1,0-.02Zm-7.29,0a2.79,2.79,0,1,0,2.79-2.79h0a2.8,2.8,0,0,0-2.81,2.79h.02Z"/><path class="cls-2" d="M1.65,274.13a12.356,12.356,0,0,0,2-2.7,14.55,14.55,0,0,0,1.44-3.6l1.71.63a17.746,17.746,0,0,1-3.54,6.78Zm21-18a15.034,15.034,0,0,0,2.07-.09,15.329,15.329,0,0,0-.09,1.74v6.75a14.957,14.957,0,0,0,.09,1.77c-.78-.06-1.35-.09-2-.09H8.02a17.993,17.993,0,0,0-2.52.15V264.5a18.937,18.937,0,0,0,2.52.12H22.87v-2.76H8.5a17.4,17.4,0,0,0-2.52.15v-1.83a18.937,18.937,0,0,0,2.52.12H22.87v-2.55H9.65a19.436,19.436,0,0,0-2.4.12v-1.38a26.73,26.73,0,0,1-4.08,3.21,5.845,5.845,0,0,0-1.32-1.38,24.54,24.54,0,0,0,5.88-4.74,17,17,0,0,0,3.17-4.93l2.16.54c-.36.54-.36.54-1.35,2h5.34a13.773,13.773,0,0,0,2.55-.15l.93,1.08c-.24.27-1,1.32-1.41,1.86a22.185,22.185,0,0,1-1.68,2.16Zm-7.44,0a19.691,19.691,0,0,0,2.64-3.39h-7.2a22.819,22.819,0,0,1-2.91,3.3,18.054,18.054,0,0,0,2,.09Zm-4.1,16.52c0,.75.15,1,.72,1.14a15.9,15.9,0,0,0,3.09.18c3.87,0,4.74-.12,5.13-.66s.51-1.26.63-3a5.591,5.591,0,0,0,1.89.72c-.66,4.38-1.05,4.62-7.71,4.62a15.141,15.141,0,0,1-4.5-.39c-.84-.33-1.11-.87-1.11-2.28v-3.09a17.013,17.013,0,0,0-.18-2.61h2.22a12.142,12.142,0,0,0-.18,2.61Zm6.18-.9A20.117,20.117,0,0,0,13.03,268l1.35-1.08a23.089,23.089,0,0,1,4.2,3.54Zm6.63-4.23a39.22,39.22,0,0,1,4.56,6l-1.65,1.26a24.648,24.648,0,0,0-4.44-6.24Z"/><path class="cls-2" d="M33.37,261.05a12.151,12.151,0,0,0,2.31.15h1.47a13.732,13.732,0,0,0,2.31-.15,22.829,22.829,0,0,0-.15,3.18v5.85c1.44,2.79,3.42,3.63,8.37,3.63a106.3,106.3,0,0,0,13.11-.6,7.569,7.569,0,0,0-.7,2.22c-3.09.12-6.38.18-9.77.18-5.22,0-6.87-.18-8.58-.9a7.184,7.184,0,0,1-3.42-3,27.84,27.84,0,0,1-3.54,3.12,13.154,13.154,0,0,0-1.17,1l-1-2a19.246,19.246,0,0,0,4.83-3.6v-7.26H35.56a11.81,11.81,0,0,0-2.19.15Zm1.77-11.25a40.394,40.394,0,0,1,4.8,5.34l-1.53,1.35A31.891,31.891,0,0,0,33.76,251Zm8.51,4.26a13.069,13.069,0,0,0-2.73.18v-2a14.167,14.167,0,0,0,2.88.18h5.28v-1a11.736,11.736,0,0,0-.18-2.19h2.13a10.568,10.568,0,0,0-.18,2.13v1.05h6.27a12.935,12.935,0,0,0,2.73-.18v2a11.844,11.844,0,0,0-2.55-.18H50.86v2.52h4.79a19.836,19.836,0,0,0,2.82-.15,21.739,21.739,0,0,0-.12,2.7v1.95a22.894,22.894,0,0,0,.12,2.82,22.7,22.7,0,0,0-2.88-.12h-4a21.78,21.78,0,0,0,2.78,2.43,22.13,22.13,0,0,0,6.18,3.24,6.158,6.158,0,0,0-1,1.77,24.312,24.312,0,0,1-5.37-3.12,18.128,18.128,0,0,1-3.36-3.27c.06.69.09,1.65.09,2.64v2.58a13.826,13.826,0,0,0,.18,2.43H48.91a14.539,14.539,0,0,0,.18-2.43v-2.61a19.847,19.847,0,0,1,.12-2.58,16.45,16.45,0,0,1-3,3,22.816,22.816,0,0,1-4.62,2.94,6.176,6.176,0,0,0-1.2-1.56,22.988,22.988,0,0,0,6-3.54,17.958,17.958,0,0,0,2-1.89H44.92a23.876,23.876,0,0,0-2.88.12,24.931,24.931,0,0,0,.12-2.76V259.3a26.59,26.59,0,0,0-.12-2.85,20.808,20.808,0,0,0,2.91.15h4.14v-2.52Zm.3,4.11v4h5.13v-4Zm6.9,4h5.67v-4H50.86Z"/><path class="cls-2" d="M75.54,250.1a9.4,9.4,0,0,0-.48,1.92c-.21,1-.39,1.74-.81,3.27a25.017,25.017,0,0,0,5.37-1l.09,2.07-1,.18a36.213,36.213,0,0,1-4.92.63,55.955,55.955,0,0,1-3.33,8.76c-.72,1.44-1,2-2.13,3.93-.27.42-.45.78-.6,1l-2-1.2a26.448,26.448,0,0,0,2.88-4.68,44.968,44.968,0,0,0,3.12-7.74c-.75,0-1.77.06-2.22.06H66.46v-2.07a18.967,18.967,0,0,0,3.57.24h2.16a30.92,30.92,0,0,0,1-5.64Zm14.25,23.28a17.169,17.169,0,0,0-5.25-4.08,6.2,6.2,0,0,1,.06,1c0,3.09-2,4.8-5.7,4.8s-5.85-1.68-5.85-4.35a4.25,4.25,0,0,1,2.79-3.81,8.783,8.783,0,0,1,3.54-.66,9.909,9.909,0,0,1,3,.45c-.15-1.95-.21-3.36-.21-4.11a12.121,12.121,0,0,1,.3-2.91l2,.21a9.219,9.219,0,0,0-.39,2.79,35.845,35.845,0,0,0,.33,4.56,21.557,21.557,0,0,1,5.88,3.63,3.008,3.008,0,0,0,.54.48Zm-10.56-5.37c-2.55,0-4.17,1-4.17,2.7s1.44,2.46,3.81,2.46c2.58,0,3.75-1,3.75-3.27,0-.36-.06-1.29-.06-1.29a8.9,8.9,0,0,0-3.33-.6Zm10.53-8.16a32.559,32.559,0,0,0-8-4.08l1.11-1.68a41.355,41.355,0,0,1,7.92,4Z"/><path class="cls-2" d="M109.13,250.46a5.227,5.227,0,0,0-.66,1.23,23.228,23.228,0,0,1-1.38,2.64,4.261,4.261,0,0,1,1.08-.09l7.26-.12a3.322,3.322,0,0,0,1.56-.21l1.8,1.89a2.882,2.882,0,0,0-.51,1.17c-2.76,8.82-8,14.7-16.32,18.42a4.746,4.746,0,0,0-1.5-1.77,25.813,25.813,0,0,0,15.75-17.61l-10.11.15a29.007,29.007,0,0,1-7.17,7.8,4.4,4.4,0,0,0-1.68-1.53,23,23,0,0,0,7.53-8.25,13.279,13.279,0,0,0,1.89-4.35Zm9.27-1a20.791,20.791,0,0,1,3.06,4.53l-1.5.9a20.955,20.955,0,0,0-3.06-4.62Zm3.36-1.68a24.42,24.42,0,0,1,3.09,4.56l-1.5.87a21.086,21.086,0,0,0-3.06-4.59Z"/><path class="cls-2" d="M133.51,271.65v2.13h-2.3a17.264,17.264,0,0,0,.12-2.25v-16.3a16.939,16.939,0,0,0-.12-2.34,21.568,21.568,0,0,0,2.33.09h16a15.5,15.5,0,0,0,2.34-.09,16.331,16.331,0,0,0-.09,2.34v16.23a17.622,17.622,0,0,0,.09,2.31H149.6v-2.12Zm16.08-16.68H133.51v14.68h16.08Z"/><path class="cls-2" d="M160.81,261.35a21.223,21.223,0,0,0,3.72.18h17.43a23.668,23.668,0,0,0,3.63-.15v2.43a34.393,34.393,0,0,0-3.66-.12h-17.4a32.762,32.762,0,0,0-3.72.12Z"/><path class="cls-2" d="M201.42,252.74a10.9,10.9,0,0,0-.39,2c-1.26,8.55-3.69,14.31-7.92,18.72a6.567,6.567,0,0,0-1.92-1.56,19.28,19.28,0,0,0,4.35-5.94,34.736,34.736,0,0,0,3.11-10.37,23.821,23.821,0,0,0,.3-2.82,3.2,3.2,0,0,0,0-.48Zm8.31-.45a36.284,36.284,0,0,0,1.38,7.2c1.44,5.28,3.9,9.72,6.81,12.39a6.5,6.5,0,0,0-1.86,1.68c-4-4.23-7-11.16-8.16-18.84a12.946,12.946,0,0,0-.39-2Zm3.18-1.59a22.233,22.233,0,0,1,3,4.71l-1.53.87a22.616,22.616,0,0,0-3-4.83Zm3.42-1.56a23.013,23.013,0,0,1,3,4.74l-1.5.81a23.475,23.475,0,0,0-3-4.77Z"/><path class="cls-2" d="M232.04,251.39a14.951,14.951,0,0,0-.18,2.58c-.24,8.13-.48,10.35-1.62,13.38a18.334,18.334,0,0,1-5.19,7.41,5.545,5.545,0,0,0-1.8-1.62,14.841,14.841,0,0,0,5.07-6.9c.93-2.61,1.35-6.54,1.35-12.87a13.311,13.311,0,0,0-.12-2.13Zm7.44-.33a11.622,11.622,0,0,0-.18,2.64l-.18,18.12a13.866,13.866,0,0,0,5.58-3.48,14.841,14.841,0,0,0,3.54-6,8.4,8.4,0,0,0,1.68,1.74,17.006,17.006,0,0,1-6,7.71,19.746,19.746,0,0,1-4.29,2.19l-1,.36a5.019,5.019,0,0,0-.69.33l-1.2-1.38a5.053,5.053,0,0,0,.21-2l.18-17.55a11.99,11.99,0,0,0-.12-2.67Z"/><path class="cls-2" d="M259.49,263.15c0-1.68,0-2.07.06-3.66a24.147,24.147,0,0,1-3.81,5,10.9,10.9,0,0,0-1.29-1.74,28.079,28.079,0,0,0,6.78-10.1,13.366,13.366,0,0,0,1-3.6l2.22.63c-.12.3-.12.3-.63,1.68-.27.69-1.29,3.09-2.4,5.58v15.71c0,1.17.06,2.4.18,3.63h-2.34a35.554,35.554,0,0,0,.21-3.72Zm10.16,9.06c0,1.05.45,1.2,3.93,1.2s4.55-.18,5-.72.78-2.25,1-5.49a6.846,6.846,0,0,0,2,.93c-.37,3.3-.79,5-1.41,5.88s-2.22,1.26-6.72,1.26c-5,0-5.79-.36-5.79-2.7V252.65a28.3,28.3,0,0,0-.18-3.24h2.34a23.387,23.387,0,0,0-.17,3.24v8.49a41.484,41.484,0,0,0,5.25-3.45,21.407,21.407,0,0,0,4.29-4.17l1.74,1.59c-.42.36-.42.36-1.83,1.65a47.859,47.859,0,0,1-9.45,6.57Z"/><path class="cls-2" d="M287.05,257.65a61.525,61.525,0,0,0,6.63-.78,37.075,37.075,0,0,0,.9-6.36v-.39l2.4.27a18.434,18.434,0,0,0-.57,2.88c-.12.75-.39,2.13-.63,3.42a17.439,17.439,0,0,1,1.77-.09c2.13,0,3.39.36,4.32,1.26s1.47,2.37,1.47,4.83c0,4.59-.78,8.58-2,10.32a3.129,3.129,0,0,1-2.94,1.41,11.285,11.285,0,0,1-4.53-1.17,6.726,6.726,0,0,0,.06-1.08,5.6,5.6,0,0,0-.09-1.17,11.206,11.206,0,0,0,4.47,1.38q1.129,0,1.71-1.44a23.2,23.2,0,0,0,1.26-8.34c0-3.18-.9-4.2-3.69-4.2a17.342,17.342,0,0,0-2.16.15,58.258,58.258,0,0,1-6.48,16.32l-2-1.2c2.49-3.27,5.07-9.27,6.42-14.94a39.022,39.022,0,0,0-6,1.08Zm19.71-2.76a27.471,27.471,0,0,1,6.27,10.62l-1.92,1.08a25.327,25.327,0,0,0-6.12-10.77Zm1.35-5.1a22.736,22.736,0,0,1,3.09,4.65l-1.5.9a23.014,23.014,0,0,0-3.05-4.79Zm3.39-1.62a24.08,24.08,0,0,1,3.09,4.65l-1.5.87a21.743,21.743,0,0,0-3.06-4.71Z"/><path class="cls-2" d="M318.09,260.96a12.151,12.151,0,0,0,2.31.15h1.56a17.849,17.849,0,0,0,2.31-.15,22.526,22.526,0,0,0-.15,3.18v5.82a4.72,4.72,0,0,0,2.67,2.79c1.5.63,3.3.87,6.87.87a84.175,84.175,0,0,0,11.94-.6,7.559,7.559,0,0,0-.69,2.22c-2.85.12-6.6.18-9.78.18-5.34,0-7.11-.21-8.88-1a7.391,7.391,0,0,1-3.12-2.85,28.526,28.526,0,0,1-3.63,3.21,9.489,9.489,0,0,0-1.08.9l-1-2a19.525,19.525,0,0,0,4.83-3.63v-7.23h-2a11.389,11.389,0,0,0-2.19.15Zm2.1-11.1a41.241,41.241,0,0,1,4.8,5.31l-1.53,1.35a28.4,28.4,0,0,0-4.68-5.43Zm17.1,19.11h4.36a16.854,16.854,0,0,0,2.91-.15v1.92a26.69,26.69,0,0,0-2.91-.15H330.3a15.8,15.8,0,0,0-2.43.15,21.853,21.853,0,0,0,.15-3.09v-7.83c0-.93.06-1.83.12-2.7a18.214,18.214,0,0,1-2.7,3.24,3.546,3.546,0,0,0-1.29-1.29,19.991,19.991,0,0,0,4.23-5.07,15.4,15.4,0,0,0,2-4.8l1.92.45a11.708,11.708,0,0,0-.66,1.5,24.332,24.332,0,0,1-1.32,2.67h5.13a18.194,18.194,0,0,0,2-4.47l1.95.51a13.178,13.178,0,0,0-.87,1.65c-.39.78-.81,1.59-1.26,2.31h4.05a17.267,17.267,0,0,0,2.82-.15v1.89a22.044,22.044,0,0,0-2.67-.12h-4.23v3.3h3.06a21.866,21.866,0,0,0,2.94-.12v1.8a24.675,24.675,0,0,0-2.94-.12h-3.06v3.35h3.06a21.866,21.866,0,0,0,2.94-.12v1.8a24.675,24.675,0,0,0-2.94-.12h-3.06Zm-1.74-13.53h-5.7v3.3h5.7Zm0,4.86h-5.7v3.35h5.7Zm-5.7,4.92v3.75h5.7v-3.75Z"/><path class="cls-2" d="M353.65,266.65a22.06,22.06,0,0,1-3.24,9.81,6.134,6.134,0,0,0-1.59-1.5,15.251,15.251,0,0,0,2.61-6.3,77.559,77.559,0,0,0,1-14.22,38.284,38.284,0,0,0-.14-4.23c1,.09,2,.12,3.62.12h15.63a26.8,26.8,0,0,0,3.18-.12c-.06.72-.09,1.38-.09,2.31v2.13a20.53,20.53,0,0,0,.09,2.19c-1.26-.06-2-.09-3-.09H354.24c-.07,4-.13,5.4-.4,8.31h5.94v-3.54h-1.86a23.242,23.242,0,0,0-2.69.12v-1.86a15.276,15.276,0,0,0,2.72.15h1.83v-.39a19.425,19.425,0,0,0-.12-2.13h2.07a10.138,10.138,0,0,0-.15,2.13v.39h5.76v-.39a12.981,12.981,0,0,0-.15-2.13h2.13a9.873,9.873,0,0,0-.15,2.13v.39h2.58a15.832,15.832,0,0,0,2.82-.15v1.87a23.382,23.382,0,0,0-2.85-.12h-2.55v3.54h3.48a21.664,21.664,0,0,0,3.24-.18v2a25.133,25.133,0,0,0-3.21-.18h-8.03a9.786,9.786,0,0,0,3,3.78,18.354,18.354,0,0,0,4.17-3.57l1.68,1.11a38.274,38.274,0,0,1-4.5,3.45,19.766,19.766,0,0,0,7.77,3.12,5.4,5.4,0,0,0-1.2,1.83,22.7,22.7,0,0,1-9.12-4.68,12.534,12.534,0,0,1-3.69-5h-3v6.78c2.52-.48,3.54-.72,6.24-1.44v1.74c-3.21.87-4.47,1.14-10.61,2.34a7.387,7.387,0,0,0-1.06.24l-.47-2.07h.26a26.416,26.416,0,0,0,3.78-.48v-7.21Zm19.14-11.52v-3.15H354.26v3.15Zm-5.46,6.36h-5.76v3.54h5.76Z"/><path class="cls-2" d="M396.23,251.75a10.134,10.134,0,0,0-.12-1.74h2.25a24.724,24.724,0,0,0-.15,3.75v.33c5.67,0,8-.09,9-.21v2.13a53.187,53.187,0,0,0-5.73-.15c-.45,0-.78,0-3.21.06v5.94a8.6,8.6,0,0,1,.72,3.54,9.658,9.658,0,0,1-4,7.83,19.059,19.059,0,0,1-4.74,2.43,6.594,6.594,0,0,0-1.32-1.89,15.392,15.392,0,0,0,4.86-2.25,7.772,7.772,0,0,0,3.36-6.33,4.206,4.206,0,0,1-.81,1.47,4.923,4.923,0,1,1-3.66-8.08c.09,0,.18,0,.27.01a4.608,4.608,0,0,1,3.48,1.35v-3.99c-6,.12-12.09.42-14.1.75l-.09-2.19h1.2c.87,0,.87,0,5.7-.18,2.88-.12,5.22-.18,7.26-.24Zm-1.29,9a3.838,3.838,0,0,0-2-.48,3.17,3.17,0,0,0-3.288,3.048c0,.044,0,.088,0,.132a2.9,2.9,0,0,0,2.792,3,2.694,2.694,0,0,0,.3,0,3.359,3.359,0,0,0,3.511-3.2,3.2,3.2,0,0,0,0-.339,2.171,2.171,0,0,0-1.31-2.13Z"/><path class="cls-2" d="M418.45,251.75a13.867,13.867,0,0,0,2.82.18c2.49,0,6.48-.18,9.18-.39a3.062,3.062,0,0,0,1.44-.33l1.26,1.65a5.532,5.532,0,0,0-1.53,1.26,77.07,77.07,0,0,1-9.87,8.53l.06.09a15.2,15.2,0,0,1,7.35-1.86c5,0,8.22,2.46,8.22,6.3,0,4.68-4.35,7.77-11,7.77-4.23,0-6.66-1.56-6.66-4.32,0-2,1.86-3.51,4.35-3.51a6,6,0,0,1,4.95,2.46,8.586,8.586,0,0,1,1.38,2.88c3.15-.87,4.8-2.7,4.8-5.25,0-2.88-2.4-4.59-6.45-4.59a19.25,19.25,0,0,0-12.63,5.13l-1.35-1.92a33.311,33.311,0,0,0,4.2-3.06c3.21-2.55,7.95-6.72,10-8.76l.42-.42.12-.12.12-.12-.06-.06h-.27c-1,.18-4.56.39-9.12.54a14.666,14.666,0,0,0-1.62.15Zm5.64,17.07c-1.5,0-2.43.72-2.43,1.86a2,2,0,0,0,1.2,1.83,7.661,7.661,0,0,0,3.36.69,10.809,10.809,0,0,0,2.19-.21C427.75,270.26,426.25,268.82,424.09,268.82Z"/><path class="cls-2" d="M458.88,249.08a22.367,22.367,0,0,0,6.15,6.39,28.35,28.35,0,0,0,7,4,6.01,6.01,0,0,0-1.23,1.92,40.335,40.335,0,0,1-7.23-4.5,27,27,0,0,1-5.82-6,31.378,31.378,0,0,1-6,6.24,33.539,33.539,0,0,1-6.72,4.17,6.843,6.843,0,0,0-1.26-1.74,31.457,31.457,0,0,0,8.4-5.37,21.732,21.732,0,0,0,4.38-5.07Zm9.93,16.05a17.861,17.861,0,0,0-1.23,1.35l-6,7.32a32.045,32.045,0,0,0-2,2.7l-2.13-1.26a20.712,20.712,0,0,0,2.37-2.46l5.88-7.08H450.87c-1.14,0-2.22.06-3.48.18v-2.23a31.612,31.612,0,0,0,3.48.18h13.35a19.557,19.557,0,0,0,3.36-.15Zm-17.28-7a15.909,15.909,0,0,0,2.37.12h7.89a18.606,18.606,0,0,0,2.52-.12v2.07a20.214,20.214,0,0,0-2.58-.12h-7.8a16.882,16.882,0,0,0-2.4.12Z"/><path class="cls-2" d="M479.88,253.65a20.932,20.932,0,0,0-.15-2.94,24.591,24.591,0,0,0,3.21.15h13.5a21.853,21.853,0,0,0,3.09-.15,18.865,18.865,0,0,0-.15,2.76V272.7a22.957,22.957,0,0,0,.18,3.21h-2.19v-1.95H481.89v1.95H479.7a23.154,23.154,0,0,0,.18-3.18Zm2,7.44h15.48v-8.4H481.89Zm0,11h15.48v-9.21H481.89Z"/><path class="cls-2" d="M514.46,251.06a42.5,42.5,0,0,0-1.26,4.8,44.326,44.326,0,0,0-.9,9.39c0,2.34.06,4.11.18,5.7a27.92,27.92,0,0,1,1.95-5.85l1.44.69c-1.35,3-2.43,6.57-2.43,8.25v.45l-2.16.18c-.06-.48-.09-.63-.18-1.2a42.96,42.96,0,0,1-.78-8.49,49.647,49.647,0,0,1,1.33-11.88,16.693,16.693,0,0,0,.42-2.4Zm7.65,12.06c-1.5,1.65-2.25,3.09-2.25,4.41,0,2.22,1.89,3.3,5.76,3.3a19.734,19.734,0,0,0,6.9-1l.3,2.31a5.15,5.15,0,0,0-1,.15,31.048,31.048,0,0,1-6.15.6c-3.42,0-5.58-.72-6.87-2.28a4.244,4.244,0,0,1-.9-2.76c0-1.83.75-3.45,2.61-5.58Zm-3.81-8.88a20.368,20.368,0,0,0,5.1.45,32.224,32.224,0,0,0,8-.81l.15,2.13-2.07.27a50.762,50.762,0,0,1-6.45.39,40.114,40.114,0,0,1-4.8-.3Z"/><path class="cls-2" d="M542.08,253.65a20.986,20.986,0,0,0,5.61.48h.75a16.406,16.406,0,0,1,.15-2.25c0-.33.09-1.5.09-1.71a3.072,3.072,0,0,0,0-.45l2.34.15a20.016,20.016,0,0,0-.63,4.2,46.079,46.079,0,0,0,11.43-1.68l.12,2.1-1,.15a83.974,83.974,0,0,1-10.62,1.2c-.18,2.55-.18,2.55-.21,4a15.866,15.866,0,0,1,4.44-.6,12,12,0,0,1,1.74.09,11.28,11.28,0,0,0,.72-2.7l2.07.63c-.09.18-.42,1-.93,2.4,4.14,1,6.45,3.51,6.45,7,0,2.94-1.62,5.31-4.71,6.93a16.5,16.5,0,0,1-6.12,1.71,6.181,6.181,0,0,0-1-2,13.977,13.977,0,0,0,4.5-.81c3.27-1.14,5.16-3.33,5.16-6s-1.71-4.38-5-5.22a26.992,26.992,0,0,1-5.7,9c-2.31,2.4-4.59,3.63-6.69,3.63s-3.87-1.89-3.87-4.56c0-3.69,2.61-7.05,7-8.94a38.125,38.125,0,0,1,.18-4.53h-1.2c-.3,0-1.65-.06-4.05-.15a4.864,4.864,0,0,0-.54,0,3.2,3.2,0,0,0-.48,0Zm2.88,11.1a7.093,7.093,0,0,0-1.83,4.47c0,1.65.87,2.73,2.16,2.73a5.419,5.419,0,0,0,3.45-1.53,42.5,42.5,0,0,1-.6-8.13,10.736,10.736,0,0,0-3.18,2.48Zm5.49,4.44a3.238,3.238,0,0,1,.57-.78,27.086,27.086,0,0,0,4.59-7.5c-1-.06-1.11-.06-1.44-.06a13.465,13.465,0,0,0-4.17.69,50.541,50.541,0,0,0,.33,6.87,1.966,1.966,0,0,1,0,.42v.33Z"/><path class="cls-2" d="M574.48,261.92a14.171,14.171,0,0,0,2.76-.54,38.632,38.632,0,0,1,9.14-1.32c3.09,0,5.22.93,6.36,2.79a6.555,6.555,0,0,1,.93,3.42c0,3.36-2.7,6.42-6.87,7.74a28.391,28.391,0,0,1-6.15,1.14,6.357,6.357,0,0,0-.78-2.07,2.266,2.266,0,0,0,.42,0,20.466,20.466,0,0,0,5.91-.93c3.42-1.11,5.49-3.39,5.49-6.06s-1.92-4.2-5.55-4.2a34.864,34.864,0,0,0-7.89,1.2,13.379,13.379,0,0,0-3.21,1Z"/><path class="cls-2" d="M604.14,254.3h1.08a14.725,14.725,0,0,0,1.71-.09c3.57-.27,13.17-.81,17-1a20.17,20.17,0,0,0,3.57-.33l.18,2.25a13.927,13.927,0,0,0-3.36.39,15.222,15.222,0,0,0-5.76,3,9.17,9.17,0,0,0-3.69,6.93c0,2.52,1.53,4.53,4.2,5.55a15.381,15.381,0,0,0,4.5,1h.3l-.39,2.43-.93-.18a15.131,15.131,0,0,1-6.48-2.31,7.3,7.3,0,0,1-3.33-6.12c0-3.48,2-6.81,5.61-9.21a19.664,19.664,0,0,1,2.85-1.59,58.187,58.187,0,0,1-6.6.66,87.991,87.991,0,0,0-10.35,1Z"/><path class="cls-2" d="M634.89,268.13a30.583,30.583,0,0,1,6,6.36l-1.68,1.59a29.952,29.952,0,0,0-5.91-6.54Z"/><path class="cls-2" d="M667.98,252.83a24.544,24.544,0,0,0-.18-3.33h2.22a25.152,25.152,0,0,0-.18,3.36v4.47h.81a11.347,11.347,0,0,0,2.4-.15v2a18.6,18.6,0,0,0-2.43-.12h-.81v9.42c1.29-.6,1.83-.87,3.39-1.74l.18,1.83a57.883,57.883,0,0,1-7.74,3.66c-.42.15-.87.36-1.2.51l-.51-2.07a16.915,16.915,0,0,0,4-1.35V259.01h-1.11a11.385,11.385,0,0,0-2.52.18v-2a11.088,11.088,0,0,0,2.52.18h1.11Zm9.18,19.44c0,.72.18,1,.9,1.14a21.823,21.823,0,0,0,4.83.27c4.23,0,5.49-.18,6-.87.39-.54.6-1.92.63-4a5.505,5.505,0,0,0,1.92.78c-.36,5.55-.9,5.91-8.7,5.91-6.21,0-7.44-.45-7.44-2.79V261.65l-.66.21a16.534,16.534,0,0,0-2.49,1l-.54-2a11.579,11.579,0,0,0,2.61-.6l1.08-.36v-4.71a21.744,21.744,0,0,0-.18-3.06h2.25a21.345,21.345,0,0,0-.18,3v4.2l4.29-1.44v-5.55a18.866,18.866,0,0,0-.18-2.79h2.22a20,20,0,0,0-.18,2.82v4.92l4.62-1.53a21.606,21.606,0,0,0,2.37-.93c-.12,3-.24,5.1-.48,8-.21,2.67-.6,3.93-1.38,4.38a4.1,4.1,0,0,1-2.16.42,8.99,8.99,0,0,1-1.32-.09,6.988,6.988,0,0,0-.45-1.89,10.759,10.759,0,0,0,2.31.27c.69,0,.84-.15,1-1a60.367,60.367,0,0,0,.48-7.59l-5,1.71v8.28a19.672,19.672,0,0,0,.18,2.88h-2.22a19.531,19.531,0,0,0,.18-2.91v-7.62l-4.29,1.44Z"/><path class="cls-2" d="M699.26,252.77a24.592,24.592,0,0,0-.18-3.3h2.19a20.686,20.686,0,0,0-.18,3.3v4.59h.56a18.49,18.49,0,0,0,2.49-.12v1.92a18.49,18.49,0,0,0-2.49-.12h-.57v8.88a28.407,28.407,0,0,0,3.21-1.83l.15,1.89a78.15,78.15,0,0,1-7.44,3.84,6.151,6.151,0,0,0-1,.51l-.6-2a24.028,24.028,0,0,0,3.84-1.5v-9.75h-.87a21.654,21.654,0,0,0-2.52.15v-2a16.61,16.61,0,0,0,2.58.15h.81Zm14.39,16.88c-2.67.87-4.53,1.38-8.25,2.28-.66.18-1.47.39-1.86.51l-.48-2c1.65,0,6.45-1.11,10.56-2.43Zm-6.48-13.74a31.267,31.267,0,0,0-3.18.15v-2a21.53,21.53,0,0,0,3.21.18h7.32a33.966,33.966,0,0,0-.24-5h2.22a16.222,16.222,0,0,0-.18,3.09v1.89h3.06a20.6,20.6,0,0,0,3.12-.18v2a31.716,31.716,0,0,0-3.18-.15h-2.94a51.992,51.992,0,0,0,1.17,9.78,22.019,22.019,0,0,0,2.34-6.6l1.95.66c-.3.72-.39.93-.66,1.74a34.03,34.03,0,0,1-3,6.51c1,3,2.16,5.28,2.94,5.55.48-.42.81-1.92.87-4.14a5.422,5.422,0,0,0,1.59,1.14,12.308,12.308,0,0,1-1,4.26c-.39.72-.87,1.08-1.38,1.08-1.41,0-3.15-2.37-4.38-5.94a23.054,23.054,0,0,1-6.78,6.06,5.091,5.091,0,0,0-1.47-1.41,20.137,20.137,0,0,0,7.65-6.69,49.736,49.736,0,0,1-1.68-12Zm-1.77,4.38c0-.66-.06-1.35-.09-1.86a15.535,15.535,0,0,0,2,.09h3.54a19.082,19.082,0,0,0,2-.09,10.566,10.566,0,0,0-.06,1.53v5a12.914,12.914,0,0,0,.06,1.77c-.63-.06-1.29-.09-2.13-.09h-3.48a15.183,15.183,0,0,0-2,.09,16.453,16.453,0,0,0,.09-1.83Zm1.71,4.8h4.05v-5h-4.05Zm13.68-11.49a14.191,14.191,0,0,0-3.48-3l1.17-1a19.917,19.917,0,0,1,3.54,2.79Z"/><path class="cls-2" d="M739.65,266.12c-1.74,4-3.51,5.76-5.67,5.76-2.85,0-5-3.12-5-7.32a12.179,12.179,0,0,1,12.072-12.287q.384,0,.768.017a11.611,11.611,0,0,1,8.25,3,10,10,0,0,1,2.91,7.32,10.921,10.921,0,0,1-6.87,10.35,23.212,23.212,0,0,1-4.56,1.38,4.766,4.766,0,0,0-1-2,18.022,18.022,0,0,0,5-1.41,9.058,9.058,0,0,0,5.31-8.4,7.91,7.91,0,0,0-4.77-7.53,8.622,8.622,0,0,0-3.48-.75A45.02,45.02,0,0,1,739.65,266.12Zm-3.68-10.47a10.369,10.369,0,0,0-4.89,8.94c0,2.88,1.26,5.1,2.88,5.1,1.26,0,2.46-1.41,3.75-4.35a41.217,41.217,0,0,0,2.73-11.1A9.469,9.469,0,0,0,735.97,255.65Z"/><path class="cls-2" d="M10.65,331.04a12.669,12.669,0,0,0-1.62-2.25l1.71-.66a16.971,16.971,0,0,1,1.77,2.91h5.31a11.6,11.6,0,0,0,1.62-2.91l1.77.69a15.844,15.844,0,0,1-1.44,2.22h5.46a22.408,22.408,0,0,0,3.15-.18v2a18.552,18.552,0,0,0-3.15-.21H5.02a20.017,20.017,0,0,0-3.3.21v-2a24.927,24.927,0,0,0,3.3.18Zm17.4-10.17a24.626,24.626,0,0,0-3.4-.22H5.29a22.957,22.957,0,0,0-3.21.18v-2a17.777,17.777,0,0,0,3.21.21H24.65a18.935,18.935,0,0,0,3.33-.21Zm-5.22-12.75a25.158,25.158,0,0,0,3.27-.15,15.909,15.909,0,0,0-.12,2.37v4.68a15.646,15.646,0,0,0,.12,2.37c-1.057-.093-2.119-.133-3.18-.12H7.36a25.979,25.979,0,0,0-3.18.12,15.909,15.909,0,0,0,.12-2.37v-4.68a16.609,16.609,0,0,0-.12-2.37,25.051,25.051,0,0,0,3.24.15h3.39a10.819,10.819,0,0,0-.16-2.47h2.13a10.332,10.332,0,0,0-.21,2.28v.15h4.77a10.822,10.822,0,0,0-.18-2.43h2.13a11.452,11.452,0,0,0-.21,2.43ZM5.65,324.38a10.7,10.7,0,0,0-.15-2.1,28.888,28.888,0,0,0,3.48.15H21.04a27.9,27.9,0,0,0,3.42-.15,10.406,10.406,0,0,0-.15,2.1v1.65a10.8,10.8,0,0,0,.15,2.07c-1-.09-2-.12-3.36-.12H8.89a32,32,0,0,0-3.42.12,11.043,11.043,0,0,0,.15-2.07Zm.48-14.79v2.31h4.71v-2.31Zm0,3.69v2.58h4.71v-2.58Zm1.44,13.23H22.42V323.9H7.54Zm5-14.61h4.77v-2.31H12.55Zm0,4h4.77v-2.58H12.55Zm6.51-4h5.07v-2.31H19.06Zm0,4h5.07v-2.58H19.06Z"/><path class="cls-2" d="M33.4,314.51a63.178,63.178,0,0,0,6.63-.78,36.685,36.685,0,0,0,.9-6.36v-.39l2.4.27a18.434,18.434,0,0,0-.57,2.88c-.15.87-.36,2-.63,3.42a17.439,17.439,0,0,1,1.77-.09c2.13,0,3.39.36,4.32,1.26s1.47,2.37,1.47,4.83c0,4.59-.78,8.58-2,10.32a3.128,3.128,0,0,1-2.94,1.41,11.3,11.3,0,0,1-4.53-1.17,6.432,6.432,0,0,0,.06-1,5.816,5.816,0,0,0-.09-1.2,11.222,11.222,0,0,0,4.47,1.38q1.13,0,1.71-1.44a23.2,23.2,0,0,0,1.26-8.34c0-3.18-.9-4.2-3.69-4.2a17.342,17.342,0,0,0-2.16.15,56.6,56.6,0,0,1-4.53,12.72c-.39.72-1,1.92-2,3.6l-2-1.2a28.781,28.781,0,0,0,3.12-5.43,49.529,49.529,0,0,0,3.3-9.51c-2.58.39-4,.63-4.29.69a17.2,17.2,0,0,0-1.73.32Zm19.71-2.76a27.129,27.129,0,0,1,6.27,10.62l-1.92,1.11a24.554,24.554,0,0,0-6.12-10.77Z"/><path class="cls-2" d="M73.75,307.1a9.4,9.4,0,0,0-.48,1.92c-.21,1-.39,1.74-.81,3.27a25.017,25.017,0,0,0,5.37-1l.09,2.07-1,.18a36.213,36.213,0,0,1-4.92.63,55.955,55.955,0,0,1-3.33,8.76c-.72,1.44-1,2-2.13,3.93-.27.42-.45.78-.6,1l-2-1.2a26.448,26.448,0,0,0,2.88-4.68,44.936,44.936,0,0,0,3.12-7.74c-.75,0-1.77.06-2.22.06H64.65v-2.07a18.967,18.967,0,0,0,3.57.24h2.16a30.92,30.92,0,0,0,1-5.64ZM88,330.38a17.169,17.169,0,0,0-5.25-4.08,6.2,6.2,0,0,1,.06,1c0,3.09-2,4.8-5.7,4.8s-5.85-1.68-5.85-4.35a4.25,4.25,0,0,1,2.79-3.81,8.783,8.783,0,0,1,3.54-.66,9.909,9.909,0,0,1,3,.45c-.15-2-.21-3.36-.21-4.11a12.115,12.115,0,0,1,.3-2.91l2,.21a9.215,9.215,0,0,0-.39,2.79,35.858,35.858,0,0,0,.33,4.56,21.557,21.557,0,0,1,5.88,3.63,3.008,3.008,0,0,0,.54.48Zm-10.56-5.37c-2.55,0-4.17,1.05-4.17,2.7s1.44,2.46,3.81,2.46c2.58,0,3.75-1,3.75-3.27,0-.36-.06-1.29-.06-1.29A8.9,8.9,0,0,0,77.44,325.01Zm10.53-8.16a32.551,32.551,0,0,0-7.95-4.08l1.11-1.68a41.3,41.3,0,0,1,7.92,4Z"/><path class="cls-2" d="M98.56,329.87a30.7,30.7,0,0,0,.15,3.51H96.52a29.85,29.85,0,0,0,.18-3.6v-10c0-1.47,0-1.95.09-3.63a17.007,17.007,0,0,1-2.82,4.26,6.523,6.523,0,0,0-1.2-1.65,24.4,24.4,0,0,0,5.07-8.49,17.179,17.179,0,0,0,1.23-4.47l2,.66c-.21.54-.3.78-.57,1.62a46.833,46.833,0,0,1-2,5.13Zm3.12-19a28.137,28.137,0,0,0-.12-3.18c.84.06,1.59.09,2.58.09h12.6a24.808,24.808,0,0,0,2.91-.13,27.139,27.139,0,0,0-.12,3.3v18.48a26.394,26.394,0,0,0,.15,3.6h-2v-1.47h-14.2v1.47h-2a25.408,25.408,0,0,0,.18-3.51Zm1.8,19H117.7V309.5H103.48Zm8.79-10.41a25.4,25.4,0,0,0,2.73-.12,14.776,14.776,0,0,0-.09,2.37v3.3a13.9,13.9,0,0,0,.12,2.43c-.917-.086-1.839-.126-2.76-.12h-3.62a23.7,23.7,0,0,0-2.73.12,13.663,13.663,0,0,0,.12-2.34v-3.45a13.517,13.517,0,0,0-.12-2.31,22.626,22.626,0,0,0,2.73.12h1v-3.72h-2.64a13.09,13.09,0,0,0-2.34.15V314a13.09,13.09,0,0,0,2.34.15h2.64v-.93a14.852,14.852,0,0,0-.18-2.73h2a15.976,15.976,0,0,0-.15,2.73v.93h2.82a14.5,14.5,0,0,0,2.49-.15v1.89a14.158,14.158,0,0,0-2.46-.15h-2.85v3.72Zm-4.56,6.27h5.55v-4.71h-5.55Z"/><path class="cls-2" d="M124.09,319.76a26.083,26.083,0,0,0,1.47-7.86l1.59.27a33.036,33.036,0,0,1-1.5,8.22Zm3.87,13.68a24.87,24.87,0,0,0,.21-3.45V309.08a19.81,19.81,0,0,0-.21-3h2.34a19.064,19.064,0,0,0-.21,3v21a22.074,22.074,0,0,0,.21,3.33Zm4.17-17.07a15.456,15.456,0,0,0-1.26-4.62l1.38-.54a23.953,23.953,0,0,1,1.38,4.59Zm4.5-1.92a22.537,22.537,0,0,1-2.7,5.61,11.8,11.8,0,0,0-1.68-.93,20.762,20.762,0,0,0,3.57-8.55,13.947,13.947,0,0,0,.27-2.34l2.07.42a11.536,11.536,0,0,0-.48,2c-.15.75-.3,1.29-.51,2.1h3.87v-3.6a19.555,19.555,0,0,0-.21-3h2.31a18.712,18.712,0,0,0-.21,3v3.6h4.65a18.149,18.149,0,0,0,3.09-.18v2.07a26.973,26.973,0,0,0-3.06-.18h-4.68v6.18h4.08a19.932,19.932,0,0,0,3-.18v2a21.151,21.151,0,0,0-3.06-.18H142.9v7.89H148a23.828,23.828,0,0,0,3.27-.18v2.13a21.544,21.544,0,0,0-3.27-.21H135.7a21.544,21.544,0,0,0-3.27.21V330a23.828,23.828,0,0,0,3.27.18h5.34v-7.89h-3.3a21.439,21.439,0,0,0-3.06.18v-2a18.637,18.637,0,0,0,2.91.18h3.45v-6.24Z"/><path class="cls-2" d="M156.01,314.65a61.525,61.525,0,0,0,6.63-.78,36.977,36.977,0,0,0,.9-6.36v-.39l2.4.27a18.434,18.434,0,0,0-.57,2.88c-.12.75-.39,2.13-.63,3.42a17.439,17.439,0,0,1,1.77-.09c2.13,0,3.39.36,4.32,1.26s1.47,2.37,1.47,4.83c0,4.59-.78,8.58-2,10.32a3.128,3.128,0,0,1-2.94,1.41,11.3,11.3,0,0,1-4.53-1.17,6.726,6.726,0,0,0,.06-1.08,5.6,5.6,0,0,0-.09-1.17,11.222,11.222,0,0,0,4.47,1.38q1.129,0,1.71-1.44a23.2,23.2,0,0,0,1.26-8.34c0-3.18-.9-4.2-3.69-4.2a17.342,17.342,0,0,0-2.16.15,58.258,58.258,0,0,1-6.48,16.32l-2-1.2c2.49-3.27,5.07-9.27,6.42-14.94a39.022,39.022,0,0,0-6,1.08Zm19.71-2.76a27.471,27.471,0,0,1,6.27,10.62l-1.92,1.08a25.327,25.327,0,0,0-6.12-10.77Zm1.35-5.1a22.736,22.736,0,0,1,3.09,4.65l-1.5.9a23,23,0,0,0-3.09-4.77Zm3.39-1.62a24.08,24.08,0,0,1,3.09,4.65l-1.5.87a21.743,21.743,0,0,0-3.06-4.71Z"/><path class="cls-2" d="M186.07,331.01a16.5,16.5,0,0,0,3.63-6.09l1.65.69a20.852,20.852,0,0,1-3.66,6.54Zm10.8-22.11a12.17,12.17,0,0,0,1.41-3.12l2.07.48a18.507,18.507,0,0,1-1.47,2.64h6.54a34.253,34.253,0,0,0,3.48-.12,29.856,29.856,0,0,0-.12,3.33v7.77a26.156,26.156,0,0,0,.12,3.24,33.054,33.054,0,0,0-3.36-.12H193.36a32.508,32.508,0,0,0-3.39.12,25.039,25.039,0,0,0,.12-3.24v-7.77a29.856,29.856,0,0,0-.12-3.33,34.253,34.253,0,0,0,3.48.12Zm-5,4.11h15.09v-2.52H191.89Zm0,4.17h15.09v-2.61H191.89Zm0,4.26h15.09v-2.73H191.89Zm3.6,8.34c0,1.23.27,1.32,4.08,1.32,3.18,0,4.44-.15,4.86-.6s.57-1.32.66-3.15a5.309,5.309,0,0,0,1.86.72c-.24,2.19-.51,3.18-1.05,3.72-.69.72-2.46,1-6.48,1-5.07,0-5.82-.36-5.82-2.67v-3a13.648,13.648,0,0,0-.18-2.64h2.25a12.967,12.967,0,0,0-.18,2.64Zm5.91-1.08a22.938,22.938,0,0,0-3.9-4.08l1.38-1a29.588,29.588,0,0,1,3.93,3.84Zm9.81,3.3a30.535,30.535,0,0,0-4-6.57l1.5-.81a39,39,0,0,1,4.2,6.3Z"/><path class="cls-2" d="M217.57,314.03a6.646,6.646,0,0,0,1.14-.12l1.41-.3c.21-.06,1.44-.33,3.69-.84a40.113,40.113,0,0,1,8.7-1.11c5.49,0,9,2.91,9,7.5,0,3.75-2.22,6.9-6.24,8.85-2.76,1.32-5.28,1.92-9.93,2.31a5.651,5.651,0,0,0-.93-2.25,26,26,0,0,0,8.34-1.38c4.11-1.5,6.42-4.2,6.42-7.56s-2.49-5.4-6.57-5.4a47.672,47.672,0,0,0-12.24,2.13,13.16,13.16,0,0,0-2.16.72Zm21-7.26a22.736,22.736,0,0,1,3.09,4.65l-1.53.9a22.978,22.978,0,0,0-3.06-4.77Zm3.36-1.62a22.926,22.926,0,0,1,3.12,4.65l-1.5.87a24.245,24.245,0,0,0-3.06-4.71Z"/><path class="cls-2" d="M266.65,308.48c-.33.27-.57.48-3.69,3.48a87.485,87.485,0,0,1-6.9,5.67c-1.11.84-1.32,1.08-1.32,1.5s.24.75,2.67,2.64a88.461,88.461,0,0,1,9.6,8.19,7.664,7.664,0,0,0,.84.75l-1.89,1.86a28.3,28.3,0,0,0-3.87-4.11c-2-1.86-3.21-2.85-7.59-6.27-1.68-1.32-2.16-2-2.16-3a2.9,2.9,0,0,1,.87-2,23.114,23.114,0,0,1,2.55-2c4-3.06,7.74-6.57,8.79-8.22Z"/><path class="cls-2" d="M282.34,309.56a21.967,21.967,0,0,0-.21-3.18h2.4a19.675,19.675,0,0,0-.21,3.18v3.63h6v-3.75a20.218,20.218,0,0,0-.21-3.09h2.34a19.829,19.829,0,0,0-.21,3.06v3.78h6.41v-3.78a19.829,19.829,0,0,0-.21-3.06h2.31a20.34,20.34,0,0,0-.21,3.06v3.78h1.92a20.471,20.471,0,0,0,3-.18v2.1a21.5,21.5,0,0,0-3-.18h-1.92v7.08a20.3,20.3,0,0,0,.12,2.49,17.493,17.493,0,0,0-2.4-.12h-5.61a18.262,18.262,0,0,0-2.43.12,18.613,18.613,0,0,0,.12-2.43v-7.14h-6v14.88h16.59a24.6,24.6,0,0,0,3.21-.18v2.19a24.252,24.252,0,0,0-3.21-.18H284.32v1.89h-2.16a28.545,28.545,0,0,0,.18-3.72V314.93h-1.41a21.5,21.5,0,0,0-3,.18v-2.1a20.9,20.9,0,0,0,3,.18h1.41Zm9.9,5.37v7.72h6.41v-7.74Z"/><path class="cls-2" d="M314.65,319.01a20.323,20.323,0,0,0-2.79.15,24.358,24.358,0,0,0,.12-2.82V310.1a25.773,25.773,0,0,0-.12-2.94,19.962,19.962,0,0,0,2.85.15h15.6a20.41,20.41,0,0,0,2.85-.15,24.675,24.675,0,0,0-.12,2.94v6.24a23.294,23.294,0,0,0,.12,2.82,20.443,20.443,0,0,0-2.82-.15h-3.78c2.31,2.61,5.43,4.38,9.84,5.52a5.915,5.915,0,0,0-1,1.83,24.7,24.7,0,0,1-7.35-3.75,12.385,12.385,0,0,0-.12,2v5.64a21.735,21.735,0,0,0,.18,3.06h-2.28a19.574,19.574,0,0,0,.18-3.06v-5.49a10.9,10.9,0,0,0-.15-2.31h2a17.238,17.238,0,0,1-3.45-3.48h-3.9a16.06,16.06,0,0,1-3.72,3.81,25.559,25.559,0,0,1-6.93,3.63,5.907,5.907,0,0,0-1.14-1.71c4.59-1.35,7.44-3.06,9.6-5.73Zm5.1,3.57a7.993,7.993,0,0,0-.15,1.29c-.18,3.06-.72,4.74-2,6.18a11.49,11.49,0,0,1-2.49,2,20.542,20.542,0,0,1-3.54,1.53,7.693,7.693,0,0,0-1.32-1.71,14.307,14.307,0,0,0,5.46-2.49,6.588,6.588,0,0,0,2-5.16,11.669,11.669,0,0,0-.09-1.65Zm-5.91-10.17h7.62V308.9h-7.62Zm0,5.07h7.62v-3.51h-7.62Zm9.39-5.07h7.95V308.9h-7.95Zm0,5.07h7.95v-3.51h-7.95Z"/><path class="cls-2" d="M351.91,323.12c-1.74,4-3.51,5.76-5.67,5.76-2.85,0-5-3.12-5-7.32a12.179,12.179,0,0,1,12.072-12.287q.384,0,.768.017a11.611,11.611,0,0,1,8.25,3,10,10,0,0,1,2.91,7.32,10.921,10.921,0,0,1-6.87,10.35,23.212,23.212,0,0,1-4.56,1.38,4.774,4.774,0,0,0-1.05-2,18.022,18.022,0,0,0,5-1.41,9.059,9.059,0,0,0,5.31-8.4A7.91,7.91,0,0,0,358.3,312a8.622,8.622,0,0,0-3.48-.75A45.02,45.02,0,0,1,351.91,323.12Zm-3.69-10.47a10.369,10.369,0,0,0-4.89,8.94c0,2.88,1.26,5.1,2.88,5.1,1.26,0,2.46-1.41,3.75-4.35a41.217,41.217,0,0,0,2.73-11.1A9.469,9.469,0,0,0,348.22,312.65Z"/><path class="cls-2" d="M379.75,306.35a12.3,12.3,0,0,0,2.19,2.34,21.521,21.521,0,0,0,4.35,3,7.017,7.017,0,0,0-1,1.65,23.6,23.6,0,0,1-6.48-5.49,19.836,19.836,0,0,1-3.06,3.75,30.17,30.17,0,0,1-4.56,3.69,5.408,5.408,0,0,0-1.26-1.5,25.641,25.641,0,0,0,5.82-4.74,14,14,0,0,0,1.95-2.7Zm-5.31,17a21.739,21.739,0,0,1-2.94,8.88,7.009,7.009,0,0,0-1.53-1.35c2.19-3.39,3-7,3-13.14a23.708,23.708,0,0,0-.12-2.82,27.45,27.45,0,0,0,2.91.12h6.72a19.458,19.458,0,0,0,2.34-.12,16.386,16.386,0,0,0-.12,2.28v4a15.382,15.382,0,0,0,.12,2.25c-.72-.06-1.2-.09-2.16-.09Zm1.86,8.46v1.47h-1.89a20.319,20.319,0,0,0,.15-2.49v-3.3a17.193,17.193,0,0,0-.09-2.37,20.125,20.125,0,0,0,2.25.09h6.3a16.134,16.134,0,0,0,2.13-.12,15.666,15.666,0,0,0-.12,2.25v3a14.779,14.779,0,0,0,.15,2.46h-1.89v-1Zm-1.59-12a16.813,16.813,0,0,1-.15,2.07h8.49v-2.07Zm8.34-1.44v-1.86h-8.31v1.86Zm-7.26-6.69a9.519,9.519,0,0,0,1.8.12h3.06a9.2,9.2,0,0,0,1.77-.12v1.68a8.292,8.292,0,0,0-1.65-.12H377.5a8.894,8.894,0,0,0-1.74.12Zm.54,18.63h6.93v-3.66h-6.93Zm13.77-21.93a17.04,17.04,0,0,0-.18,3.27v11.46a20.289,20.289,0,0,0,.15,3.36h-2.19a21.2,21.2,0,0,0,.15-3.36V311.65a21.281,21.281,0,0,0-.18-3.27Zm6.36-1.95a21.4,21.4,0,0,0-.21,3.63v19.92c0,2.19-.6,2.64-3.54,2.64a27,27,0,0,1-2.76-.12,5.8,5.8,0,0,0-.54-1.92,22.189,22.189,0,0,0,3.63.3c1.05,0,1.29-.18,1.29-.9V310.09a21.961,21.961,0,0,0-.21-3.66Z"/><path class="cls-2" d="M413.53,309.02a12.133,12.133,0,0,0-.21-2.73h2.43a13.577,13.577,0,0,0-.21,2.73v7.63h7.89v-5.67a16.36,16.36,0,0,0-.12-2.19h2.25a14.737,14.737,0,0,0-.15,2.28v6a12.463,12.463,0,0,0,.06,1.53c-.6,0-1.29-.06-1.86-.06h-8.07v11h8.94v-5.7a15.9,15.9,0,0,0-.15-2.58h2.32a16.677,16.677,0,0,0-.15,2.67v6.72a14.965,14.965,0,0,0,.18,2.52h-2.16v-1.8h-19.5v1.8h-2.16a15.859,15.859,0,0,0,.18-2.52v-6.6a16.671,16.671,0,0,0-.15-2.67h2.28a15.1,15.1,0,0,0-.15,2.55v5.55h8.55v-11h-7.5c-.54,0-1.23,0-1.86.06,0-.57.06-1,.06-1.53v-5.94a21.243,21.243,0,0,0-.15-2.31h2.25a15.394,15.394,0,0,0-.12,2.22v5.67h7.32Z"/><path class="cls-2" d="M441.37,310.91a12.705,12.705,0,0,0,1.44-4.11l2.4.42a6.372,6.372,0,0,0-.78,1.62,14.053,14.053,0,0,1-.93,2,5.093,5.093,0,0,1,.63,0c4.8-.24,7.8-.6,9.45-1.14l.18,2a9.3,9.3,0,0,0-1.2.15,97.012,97.012,0,0,1-9.9.78,22.157,22.157,0,0,1-2.7,4.26c-.3.36-.9,1-1,1.14a1.759,1.759,0,0,1-.39.3h0a.237.237,0,0,0,.06.09c1.08-.84,1.08-.84,1.38-1.05a8.007,8.007,0,0,1,4.53-1.47,3.641,3.641,0,0,1,3.993,3.249c0,.027,0,.054.007.081,2.19-.87,3.9-1.5,5.22-2a6.6,6.6,0,0,0,2-.87l1,2.1a49.8,49.8,0,0,0-8,2.64c.06.78.06,1.08.06,1.83v3a6.5,6.5,0,0,0,.06,1.08h-2q.2-2.154.18-4.32a7.948,7.948,0,0,0,0-.9c-4.08,1.92-5.64,3.33-5.64,5.13,0,2,1.86,2.85,6.09,2.85a25.147,25.147,0,0,0,8-1.17l.27,2.31a11.811,11.811,0,0,0-1.2.15,46.607,46.607,0,0,1-7.29.6c-5.37,0-8-1.53-8-4.62,0-1.65,1-3.21,3.06-4.74a23.259,23.259,0,0,1,4.47-2.4c-.24-1.65-1-2.37-2.37-2.37-1.89,0-4.26,1.11-6.69,3.18a9.919,9.919,0,0,0-2.31,2.49l-1.68-1.68a29.865,29.865,0,0,0,6.72-8.58l.27-.45a3.413,3.413,0,0,1-.57.06l-4.41-.09h-.48a5.191,5.191,0,0,0-.66,0v-2.07a42,42,0,0,0,6.42.33Z"/><path class="cls-2" d="M482.95,307.7a21.978,21.978,0,0,0,3.12-.15,19,19,0,0,0-.15,2.76V329.9a22.532,22.532,0,0,0,.18,3.18h-2.19v-2H468.46v2h-2.19a21.151,21.151,0,0,0,.18-3.06v-19.5a21.181,21.181,0,0,0-.15-3,24.591,24.591,0,0,0,3.21.15Zm1,7v-5.16H468.46v5.16Zm-15.45,7.17h15.45V316.5H468.46Zm0,7.38h15.45v-5.6H468.46Z"/><path class="cls-2" d="M498.1,309.14a18.881,18.881,0,0,0-.21-3.06h2.31a18.145,18.145,0,0,0-.21,3v3h1.08a15.311,15.311,0,0,0,2.43-.15v2a16.318,16.318,0,0,0-2.46-.15h-1v6.12c1.11-.33,1.77-.57,3.54-1.26v1.74c-1.5.63-2,.81-3.57,1.38v9.18c0,1.62-.72,2.07-3.27,2.07a19.587,19.587,0,0,1-2.22-.09,5.191,5.191,0,0,0-.42-2,15.822,15.822,0,0,0,3,.3c.81,0,1-.18,1-.81v-8l-2.1.69a14.365,14.365,0,0,0-1.92.63l-.48-2.1a22.77,22.77,0,0,0,4.5-1.11V313.8h-1.8a16.45,16.45,0,0,0-2.46.15v-2a14.864,14.864,0,0,0,2.43.18h1.83Zm8.61,1c4.89-.69,9.15-1.89,10.86-3.06l1.5,1.68a51.074,51.074,0,0,1-12.36,3v2c0,1.17.51,1.29,5.4,1.29,5.79,0,5.85,0,6.12-3.81a6.465,6.465,0,0,0,1.83.81c-.3,2.43-.69,3.45-1.59,4s-2.19.69-6.81.69c-5.82,0-6.81-.39-6.81-2.61v-5.16a16.922,16.922,0,0,0-.18-3h2.22a18.5,18.5,0,0,0-.18,2.88Zm-1.83,11.55a16.632,16.632,0,0,0-.12-2.34,20.064,20.064,0,0,0,2.64.12h8.46a19.561,19.561,0,0,0,2.64-.12,16.182,16.182,0,0,0-.12,2.37v8.46a17.4,17.4,0,0,0,.15,3h-2v-1.65h-9.81v1.68h-2a18.567,18.567,0,0,0,.15-3Zm1.83,2.82h9.81v-3.39h-9.81Zm0,5.37h9.81v-3.75h-9.81Z"/><path class="cls-2" d="M539.26,308.75a10.134,10.134,0,0,0-.12-1.74h2.25a24.724,24.724,0,0,0-.15,3.75v.33c5.67,0,8-.09,9-.21v2.13a53.187,53.187,0,0,0-5.73-.15c-.45,0-.78,0-3.21.06v5.94a8.6,8.6,0,0,1,.72,3.54,9.661,9.661,0,0,1-4,7.83,19.059,19.059,0,0,1-4.74,2.43,6.594,6.594,0,0,0-1.32-1.89,15.392,15.392,0,0,0,4.86-2.25,7.772,7.772,0,0,0,3.36-6.33,4.2,4.2,0,0,1-.81,1.47,4.936,4.936,0,1,1-3.71-8.13c.107,0,.214,0,.32.01a4.608,4.608,0,0,1,3.48,1.35V312.9c-6,.12-12.09.42-14.1.75l-.09-2.19h1.2c.87,0,.87,0,5.7-.18,2.88-.12,5.22-.18,7.26-.24Zm-1.29,9a3.838,3.838,0,0,0-2-.48,3.169,3.169,0,0,0-3.326,3.006c0,.048,0,.1,0,.144a2.9,2.9,0,0,0,2.792,3,2.694,2.694,0,0,0,.3,0,3.359,3.359,0,0,0,3.511-3.2,3.2,3.2,0,0,0,0-.339,2.169,2.169,0,0,0-1.27-2.1Z"/><path class="cls-2" d="M564.13,328.55a4.49,4.49,0,1,1,0-.02Zm-7.29,0a2.79,2.79,0,1,0,2.79-2.79A2.79,2.79,0,0,0,556.84,328.55Z"/></g></g></svg>