<svg xmlns="http://www.w3.org/2000/svg" viewBox="0 0 171.3 68.57"><defs><style>.cls-1{fill:#fff;}</style></defs><g id="レイヤー_2" data-name="レイヤー 2"><g id="文字"><path class="cls-1" d="M4.9,3.89H7.27l.6-.68.88.73A.12.12,0,0,1,8.8,4a.08.08,0,0,1-.07.08H4.9V5.83c0,.92,0,1.58,0,2.39,0,.14-.12.18-.44.19H4.38c-.13,0-.19-.06-.2-.17,0-.49,0-1.13,0-2.41V4.1H1.76a9,9,0,0,0-1.15,0L.55,3.79a8.83,8.83,0,0,0,1.21.1H4.22V1.7a18.79,18.79,0,0,1-3,.36l0-.14A27.66,27.66,0,0,0,4.92,1,7,7,0,0,0,6.69.31c.6.43.82.61.82.67S7.46,1,7.4,1A1.63,1.63,0,0,1,7,1a16.27,16.27,0,0,1-2.1.6Z"/><path class="cls-1" d="M13.2,5.77a4,4,0,0,0,0-.62c.81.1.95.13.95.23s-.06.1-.33.18V6h2.45c.23-.26.31-.33.56-.58.36.28.47.37.81.66,0,0,0,.06,0,.08s0,0-.09,0H13.89a4.57,4.57,0,0,0,.88.6,7.51,7.51,0,0,0,3.16.79v.14c-.37.09-.49.21-.68.64a7.69,7.69,0,0,1-2.17-1,4.12,4.12,0,0,1-1.3-1.14V7c0,.47,0,.47,0,1.35,0,.14-.08.17-.43.17-.19,0-.22,0-.22-.13,0-.93,0-.93,0-1.34V6.46a7.85,7.85,0,0,1-1.74,1.22,9.13,9.13,0,0,1-2,.74L9.42,8.3a10.54,10.54,0,0,0,2.22-1.2,7.85,7.85,0,0,0,1.1-.94H10.49a5.25,5.25,0,0,0-.79.06l0-.34a3.38,3.38,0,0,0,.83.07H13.2Zm0-3c0-.4,0-.51,0-.83.86.13.91.14.91.23s0,.08-.32.16v.44h1.49c0-.33,0-.46,0-.83a3.31,3.31,0,0,1,.85.15q.09,0,.09.09c0,.06-.07.1-.35.16v.43h.6l.48-.54c.34.26.44.34.78.63a.13.13,0,0,1,0,.07s0,.05-.08.05H15.84c0,.69,0,.69,0,1.17v0c0,.09-.09.11-.39.11s-.19,0-.19-.07h0V4H13.78v.21c0,.1-.06.12-.4.12-.17,0-.19,0-.19-.1,0-.41,0-.41,0-1.25H11.71V4.75H16l.54-.53a7.51,7.51,0,0,1,.76.61.15.15,0,0,1,.05.08s0,0-.09,0H11.71v.11c0,.12-.05.13-.39.13s-.21,0-.21-.1c0-1,0-1,0-1.77V3h-.84a5.46,5.46,0,0,0-.73,0l-.05-.35a3.35,3.35,0,0,0,.81.09h.81c0-.45,0-.53,0-.83l.71.11c.18,0,.22.06.22.11s-.08.12-.33.17v.44ZM12.07.69a4.54,4.54,0,0,0,0-.49c.95.12.95.12.95.21s-.07.11-.36.19v.48h1.8V.74a4.87,4.87,0,0,0,0-.55c.9.12,1,.14,1,.23s-.11.13-.39.19v.47h1.24c.25-.28.33-.36.57-.6.37.28.48.37.84.68,0,0,.05.05.05.07s0,.06-.1.06H15v.12c0,.09,0,.21,0,.37s0,.12-.44.12c-.12,0-.14,0-.14-.1,0-.24,0-.32,0-.51h-1.8v.54c0,.1-.08.11-.37.11s-.22,0-.22-.09,0-.32,0-.56H10.49a5.21,5.21,0,0,0-.83.05L9.6,1a4.45,4.45,0,0,0,.89.07h1.58ZM13.78,3v.82h1.49V3Z"/><path class="cls-1" d="M22.78,3.06a7.29,7.29,0,0,0,1.06,2.32,6.42,6.42,0,0,0,1.9,1.77,4.36,4.36,0,0,0,1.18.5l0,.13a.79.79,0,0,0-.82.6,6.11,6.11,0,0,1-1.54-1.27A7.69,7.69,0,0,1,23.1,4.75a9.12,9.12,0,0,1-.45-1.52,5.86,5.86,0,0,1-1.27,3.18,6.73,6.73,0,0,1-1.82,1.5,7.07,7.07,0,0,1-1.17.53l-.08-.12A8.49,8.49,0,0,0,20,7.17,6.07,6.07,0,0,0,22,3.06H19.42a4.37,4.37,0,0,0-.84.06l0-.34a4.86,4.86,0,0,0,.93.07H22c.05-.53.07-1.22.07-1.77a3.44,3.44,0,0,0,0-.62c1,.1,1.12.11,1.12.21s-.12.17-.39.26c0,1-.06,1.39-.1,1.92h2.53c.22-.31.29-.41.52-.71a10.8,10.8,0,0,1,.89.76s.06.06.06.08a.1.1,0,0,1-.1.08Z"/><path class="cls-1" d="M34.28,5.38l.58-.69c.36.31.47.41.82.75a.14.14,0,0,1,0,.09s0,.06-.1.06h-3.7v1c0,.39,0,.65,0,1.22a.5.5,0,0,1-.33.51,1.86,1.86,0,0,1-.78.2c-.1-.49-.16-.51-1.42-.71V7.72c.69.06.75.06,1.71.1.11,0,.14,0,.14-.12V5.59h-3a5.74,5.74,0,0,0-.73,0l-.06-.32a3.38,3.38,0,0,0,.78.07h3V5.23c0-.18,0-.23,0-.74.18,0,.41.06.69.12a6,6,0,0,0,.95-1.08H29.7a4.82,4.82,0,0,0-.65,0L29,3.26a4.29,4.29,0,0,0,.69.06h3.23l.4-.4.63.47c.08.07.12.11.12.16s-.11.11-.46.14a9.6,9.6,0,0,1-1.47,1c.08,0,.12.06.12.1s-.09.11-.35.16v.46Zm.14-3.17c.19-.21.24-.27.44-.46.32.21.42.28.74.52.09.06.12.11.12.15s-.15.16-.55.17l-.46.5-.35.38-.09,0a6,6,0,0,0,.25-1H28.64a2,2,0,0,1-.4,1.2.64.64,0,0,1-.39.28.2.2,0,0,1-.17-.14,1.21,1.21,0,0,1-.1-.37c0-.13.05-.19.28-.36a1.83,1.83,0,0,0,.63-1.33h.17c0,.27,0,.33,0,.52h4.07a8.32,8.32,0,0,0,1-1.8c.85.34.94.38.94.46s-.1.14-.25.14h-.2a10.26,10.26,0,0,1-1.24,1.21ZM29.14.51a5.82,5.82,0,0,1,.86.64.53.53,0,0,1,.21.38A1,1,0,0,1,30,2a.19.19,0,0,1-.14.08c-.09,0-.13-.06-.22-.31A4.31,4.31,0,0,0,29.05.58ZM31,.31c.77.56,1.1.9,1.1,1.13a1.19,1.19,0,0,1-.17.5.23.23,0,0,1-.19.11c-.11,0-.14,0-.23-.37A3.35,3.35,0,0,0,30.88.39Z"/><path class="cls-1" d="M40.8,7.38h2.38c.25-.33.33-.43.6-.74.41.35.53.45.93.81a.92.92,0,0,1,0,.09s0,0-.11,0h-7l-1.11,0-.05-.35a5.45,5.45,0,0,0,1.16.09h2.49V1.62H38a6.44,6.44,0,0,0-.87,0l-.07-.34a5,5,0,0,0,.94.08h4.72c.26-.29.34-.37.58-.65a10.19,10.19,0,0,1,.85.77.06.06,0,0,1,0,.05s0,0-.09,0H40.8Z"/><path class="cls-1" d="M52.28,5.38l.58-.69c.36.31.47.41.82.75a.14.14,0,0,1,0,.09s0,.06-.1.06h-3.7v1c0,.39,0,.65,0,1.22a.5.5,0,0,1-.33.51,1.86,1.86,0,0,1-.78.2c-.1-.49-.16-.51-1.42-.71V7.72c.69.06.75.06,1.71.1.11,0,.14,0,.14-.12V5.59h-3a5.74,5.74,0,0,0-.73,0l-.06-.32a3.38,3.38,0,0,0,.78.07h3V5.23c0-.18,0-.23,0-.74.18,0,.41.06.69.12a6,6,0,0,0,1-1.08H47.7a4.82,4.82,0,0,0-.65,0l0-.31a4.29,4.29,0,0,0,.69.06h3.23l.4-.4.63.47c.08.07.12.11.12.16s-.11.11-.46.14a9.6,9.6,0,0,1-1.47,1c.08,0,.12.06.12.1s-.09.11-.35.16v.46Zm.14-3.17c.19-.21.24-.27.44-.46.32.21.42.28.74.52.09.06.12.11.12.15s-.15.16-.55.17l-.46.5-.35.38-.09,0a6,6,0,0,0,.25-1H46.64a2,2,0,0,1-.4,1.2.64.64,0,0,1-.39.28.2.2,0,0,1-.17-.14,1.21,1.21,0,0,1-.1-.37c0-.13.05-.19.28-.36a1.83,1.83,0,0,0,.63-1.33h.17c0,.27,0,.33,0,.52h4.07a8.32,8.32,0,0,0,1-1.8c.85.34.94.38.94.46s-.1.14-.25.14h-.2a10.26,10.26,0,0,1-1.24,1.21ZM47.14.51a5.82,5.82,0,0,1,.86.64.53.53,0,0,1,.21.38A1,1,0,0,1,48,2a.19.19,0,0,1-.14.08c-.09,0-.13-.06-.22-.31A4.31,4.31,0,0,0,47.05.58ZM49,.31c.77.56,1.1.9,1.1,1.13a1.19,1.19,0,0,1-.17.5.23.23,0,0,1-.19.11c-.11,0-.14,0-.23-.37A3.35,3.35,0,0,0,48.88.39Z"/><path class="cls-1" d="M58.37,3.94c.19-.25.26-.33.45-.56.32.27.41.35.72.63a.31.31,0,0,1,0,.09s0,.05-.09.05H55.13a3.85,3.85,0,0,0-.63,0l-.06-.33a3.68,3.68,0,0,0,.7.07h2a9.5,9.5,0,0,0,.64-2c.86.23.94.27.94.35s-.12.12-.4.14a10.68,10.68,0,0,1-1,1.51Zm-.16-2.43c.22-.23.28-.3.49-.54a6.57,6.57,0,0,1,.67.61.28.28,0,0,1,.05.09s0,.05-.11.05H55.46a4.9,4.9,0,0,0-.7,0l-.06-.32a4.06,4.06,0,0,0,.76.07h1.17V1a5.64,5.64,0,0,0,0-.66c.85.07,1,.1,1,.19s-.1.14-.34.21v.8ZM55.86,8.18c0,.13-.09.16-.44.16-.17,0-.21,0-.21-.12,0-.75,0-1.4,0-2.36,0-.32,0-.32,0-1.12a7.65,7.65,0,0,1,.67.43H58c.12-.17.17-.23.3-.39l.53.4a.16.16,0,0,1,.07.11c0,.07-.07.12-.26.19v1.8c0,.18,0,.44,0,.8,0,.12-.11.16-.44.16-.16,0-.18,0-.18-.11V7.71H55.86Zm-.52-6.24c.72.54,1.07.94,1.07,1.21s-.26.6-.42.6-.08,0-.09-.12A3.84,3.84,0,0,0,55.26,2Zm.52,5.56H58V5.37H55.86Zm4.38-.68c0,.08,0,.32,0,.67v.88a.12.12,0,0,1-.06.12,1.31,1.31,0,0,1-.42,0c-.14,0-.17,0-.18-.11,0-1.41.07-3.91.07-5.83,0-1.08,0-1.39,0-2l.67.39h1.4L62,.53c.28.22.37.28.63.5.06.05.08.09.08.12s-.1.13-.32.17A14.78,14.78,0,0,1,61,3.66a4,4,0,0,1,1,.93A2.13,2.13,0,0,1,62.52,6a1.46,1.46,0,0,1-.37,1.11,1.47,1.47,0,0,1-.87.39c0-.37-.2-.5-.86-.69V6.68l.4,0c.37,0,.53,0,.62,0a.37.37,0,0,0,.3-.09,1.24,1.24,0,0,0,.15-.77,2.08,2.08,0,0,0-.25-1.11,3.77,3.77,0,0,0-.86-1.08,14.52,14.52,0,0,0,.88-2.54H60.24Z"/><path class="cls-1" d="M63.42,8.08a11,11,0,0,0,.38-2.89c.79.09.81.1.81.18s0,.09-.25.16a7.17,7.17,0,0,1-.8,2.62Zm.11-6.47a3.76,3.76,0,0,1,.59.39A6.88,6.88,0,0,0,64.85.3c.85.27.92.3.92.37s-.12.14-.4.14A9.23,9.23,0,0,1,64.3,2.12c.32.25.43.41.43.63s-.14.49-.26.49-.1,0-.15-.17a5.55,5.55,0,0,0-.85-1.36Zm1.32,2.84c-.42.1-.56.12-1,.2,0,.2-.09.29-.17.29s-.11-.1-.22-.82h.28l.55,0A10.9,10.9,0,0,0,65,3a10.74,10.74,0,0,0,.81-1.63l.47.19.27.1q.15.06.15.12c0,.09-.11.13-.41.13h0a13.39,13.39,0,0,1-1.73,2.17L66,4a5.6,5.6,0,0,0-.33-.75l.09-.07c.54.52.84.95.84,1.21s-.16.5-.31.5-.09,0-.11-.14a4.09,4.09,0,0,0-.12-.56l-.65.16V6.36c0,.64,0,.92,0,2v0c0,.12-.08.15-.39.15s-.22,0-.22-.1v0c0-1.1,0-1.27,0-2Zm.93.44a2.48,2.48,0,0,1,.63,1.25c0,.29-.19.64-.34.64S66,6.69,66,6.48a7.06,7.06,0,0,0-.27-1.55Zm1.27.9a3.47,3.47,0,0,1-.3,1.69c-.15.27-.3.43-.42.43s-.24-.19-.24-.49,0-.21.25-.44a2.07,2.07,0,0,0,.55-1.21Zm-.72-2.37a10.61,10.61,0,0,0,1-1.81A5.43,5.43,0,0,0,67.6.47c.71.24.81.29.81.37s0,.08-.3.12a7.6,7.6,0,0,1-1.68,2.58Zm3-.58a14.3,14.3,0,0,1,1.12.92.72.72,0,0,1,.26.54c0,.3-.16.6-.3.6s-.12-.06-.15-.18-.14-.36-.26-.61l-.83.18-1.33.24-.54.1c0,.16-.1.25-.17.25s-.07,0-.25-.81a4.89,4.89,0,0,0,.51,0h.3a11.23,11.23,0,0,0,.78-2.31c.76.17.88.22.88.3s-.11.13-.39.14a9.13,9.13,0,0,1-1,1.86c.71,0,1.24-.07,2-.15a10,10,0,0,0-.66-1ZM67.55,6.21a5.89,5.89,0,0,0,0-.85l.46.06c.37,0,.47.08.47.16s-.1.13-.33.18V7.54c0,.08,0,.11,0,.13s.05,0,.81,0,.79,0,.87-.14a6.44,6.44,0,0,0,.36-1.21h.14l0,1v0c0,.17,0,.19.21.25a.19.19,0,0,1,.16.2c0,.15-.09.25-.27.31A8.36,8.36,0,0,1,69,8.22c-1.41,0-1.42,0-1.43-.46V6.21Zm.73-1.41a7.45,7.45,0,0,1,1,.61.53.53,0,0,1,.25.41c0,.26-.14.54-.26.54s-.1,0-.16-.18a4.23,4.23,0,0,0-.92-1.29ZM69.63.36a.72.72,0,0,0,0,.13,2.91,2.91,0,0,0,.55,1.17,3.61,3.61,0,0,0,1.67,1.22V3a.71.71,0,0,0-.55.61A4.29,4.29,0,0,1,70.18,2.4,7.35,7.35,0,0,1,69.46.85a1,1,0,0,0-.2-.39Zm.8,5.22c.85.67,1.28,1.18,1.28,1.56a1.09,1.09,0,0,1-.2.62.2.2,0,0,1-.15.06c-.1,0-.1,0-.19-.33a5.28,5.28,0,0,0-.86-1.81Z"/><path class="cls-1" d="M72.34,4.67a11.06,11.06,0,0,0,2.54-2.4,9.48,9.48,0,0,0,1-1.49A2.64,2.64,0,0,0,76,.34l.46.09c.5.1.61.14.61.22s-.11.12-.36.17a6.59,6.59,0,0,0,1.86,2,7,7,0,0,0,2.33,1.12l0,.12c-.37,0-.52.18-.71.6a6.47,6.47,0,0,1-2-1.47A8.62,8.62,0,0,1,76.61.91a10.63,10.63,0,0,1-2,2.44,9.17,9.17,0,0,1-2.13,1.46Zm2.23,3.55c0,.08,0,.11-.06.12A1.73,1.73,0,0,1,74,8.4c-.1,0-.12,0-.12-.13,0-1.4,0-1.84,0-2.21,0-.71,0-1,0-1.39a6.34,6.34,0,0,1,.72.46h3.64a4.82,4.82,0,0,1,.36-.46,6.51,6.51,0,0,1,.58.46c.07.06.09.09.09.13s-.08.11-.3.19c0,1.31,0,1.31,0,2.71v0c0,.07,0,.1-.08.12a2.14,2.14,0,0,1-.46.06c-.09,0-.14,0-.14-.11V7.84h-3.8Zm0-4.69a4.51,4.51,0,0,0,.66.07H77.1c.21-.22.28-.31.48-.54.33.25.43.32.76.59a.3.3,0,0,1,.07.11s0,.05-.12.05H75.22a3.84,3.84,0,0,0-.59,0Zm0,4.1h3.8V5.34h-3.8Z"/><path class="cls-1" d="M85.8,7.38h2.38c.25-.33.33-.43.6-.74.41.35.53.45.93.81a.92.92,0,0,1,0,.09s0,0-.11,0h-7l-1.11,0,0-.35a5.45,5.45,0,0,0,1.16.09h2.49V1.62H83a6.44,6.44,0,0,0-.87,0l-.07-.34a5,5,0,0,0,.94.08h4.72c.26-.29.34-.37.58-.65a10.19,10.19,0,0,1,.85.77.06.06,0,0,1,0,.05s0,0-.09,0H85.8Z"/><path class="cls-1" d="M97.28,5.38l.58-.69c.36.31.47.41.82.75a.14.14,0,0,1,0,.09s0,.06-.1.06h-3.7v1c0,.39,0,.65,0,1.22a.5.5,0,0,1-.33.51,1.86,1.86,0,0,1-.78.2c-.1-.49-.16-.51-1.42-.71V7.72c.69.06.75.06,1.71.1.11,0,.14,0,.14-.12V5.59h-3a5.74,5.74,0,0,0-.73,0l-.06-.32a3.38,3.38,0,0,0,.78.07h3V5.23c0-.18,0-.23,0-.74.18,0,.41.06.69.12a6,6,0,0,0,1-1.08H92.7a4.82,4.82,0,0,0-.65,0l0-.31a4.29,4.29,0,0,0,.69.06h3.23l.4-.4.63.47c.08.07.12.11.12.16s-.11.11-.46.14a9.6,9.6,0,0,1-1.47,1c.08,0,.12.06.12.1s-.09.11-.35.16v.46Zm.14-3.17c.19-.21.24-.27.44-.46.32.21.42.28.74.52.09.06.12.11.12.15s-.15.16-.55.17l-.46.5-.35.38-.09,0a6,6,0,0,0,.25-1H91.64a2,2,0,0,1-.4,1.2.64.64,0,0,1-.39.28.2.2,0,0,1-.17-.14,1.21,1.21,0,0,1-.1-.37c0-.13,0-.19.28-.36a1.83,1.83,0,0,0,.63-1.33h.17c0,.27,0,.33,0,.52h4.07a8.32,8.32,0,0,0,1-1.8c.85.34.94.38.94.46s-.1.14-.25.14h-.2a10.26,10.26,0,0,1-1.24,1.21ZM92.14.51a5.82,5.82,0,0,1,.86.64.53.53,0,0,1,.21.38A1,1,0,0,1,93,2a.19.19,0,0,1-.14.08c-.09,0-.13-.06-.22-.31A4.31,4.31,0,0,0,92.05.58ZM94,.31c.77.56,1.1.9,1.1,1.13a1.19,1.19,0,0,1-.17.5.23.23,0,0,1-.19.11c-.11,0-.14,0-.23-.37A3.35,3.35,0,0,0,93.88.39Z"/><path class="cls-1" d="M101.75,2.9h.3c.2-.23.25-.29.44-.49a5.63,5.63,0,0,1,.64.53.3.3,0,0,1,.06.09c0,.05,0,.08-.11.08h-1.33v.56a4.81,4.81,0,0,1,.81.48c.31.23.4.36.4.57s-.14.57-.3.57-.1,0-.21-.3a2.62,2.62,0,0,0-.7-1.11V5.57c0,.72,0,.74,0,2.77,0,.07,0,.1-.1.12a2,2,0,0,1-.42,0c-.1,0-.13,0-.13-.12,0-1.21,0-1.21.08-2.81L101.25,4A8.77,8.77,0,0,1,99.62,6.6l-.09-.07a12.37,12.37,0,0,0,1-1.88,8.33,8.33,0,0,0,.55-1.54h-.8a2.49,2.49,0,0,0-.59.05l-.07-.35a2.63,2.63,0,0,0,.7.09h.85V1.37a9.16,9.16,0,0,1-1.33.21l0-.13a7.81,7.81,0,0,0,1.61-.6,4.23,4.23,0,0,0,.92-.53c.52.34.79.53.79.61S103,1,103,1a2,2,0,0,1-.39-.08c-.41.15-.56.19-.85.28Zm4.94,2.39c.18-.31.23-.4.41-.68a7,7,0,0,1,.76.48s.08.08.08.1,0,0-.07.06l-1.42.29c0,1.79,0,1.79,0,2.77,0,.07,0,.1-.1.13a1.91,1.91,0,0,1-.42.05c-.13,0-.17,0-.17-.1,0-.94,0-1.06,0-2.12V5.68l-2.74.59a2,2,0,0,0-.53.17l-.13-.35h.09a2.62,2.62,0,0,0,.52,0l2.79-.58V3.34c0-2,0-2.44,0-2.88.9.1,1,.12,1,.21s-.11.12-.38.18V5.34Zm-3.46-1.83a8.75,8.75,0,0,1,1.24.55c.29.17.39.31.39.54s-.09.54-.22.54-.1,0-.18-.15a7.69,7.69,0,0,0-1.27-1.38Zm.28-2.14a5.16,5.16,0,0,1,1.23.57c.3.2.38.3.38.51s-.11.54-.23.54-.1,0-.19-.17-.22-.29-.41-.53a5.79,5.79,0,0,0-.83-.81Z"/><path class="cls-1" d="M110.7,8.22A6.66,6.66,0,0,0,112,6.09a6.13,6.13,0,0,0,.43-1.83.45.45,0,0,0-.24-.44,7.24,7.24,0,0,0-2,.56.51.51,0,0,1-.28.09.82.82,0,0,1-.57-.34.85.85,0,0,1-.31-.54.49.49,0,0,1,0-.17.84.84,0,0,0,.74.41,9.42,9.42,0,0,0,1.54-.23c.73-.12,1.09-.16,2.77-.33a3.87,3.87,0,0,0,.7-.16.6.6,0,0,1,.23,0,1,1,0,0,1,.47.14c.26.11.43.28.43.41s-.1.18-.26.18a.77.77,0,0,1-.22,0A8.65,8.65,0,0,0,114,3.65a10,10,0,0,0-1.48.1c.42.22.6.41.6.62a5.43,5.43,0,0,1-.58,1.76,5.24,5.24,0,0,1-1.78,2.19Zm-.17-7a1.47,1.47,0,0,0,1.08.48,4.81,4.81,0,0,0,1.89-.44.57.57,0,0,1,.27-.07c.23,0,.61.29.61.47s-.1.16-.47.24a12.2,12.2,0,0,1-2.06.24,1.55,1.55,0,0,1-1.46-.83Zm4.12-.61a3.72,3.72,0,0,1,.8.55c.33.29.45.5.45.72s-.12.37-.28.37-.11,0-.4-.58a4,4,0,0,0-.68-.95Zm.93-.53a3.94,3.94,0,0,1,.86.52c.35.26.46.44.46.69s-.09.37-.22.37-.14,0-.21-.17a4.45,4.45,0,0,0-1-1.29Z"/><path class="cls-1" d="M120.23,8.21A4.65,4.65,0,0,0,122,6.37a6.83,6.83,0,0,0,.51-2.89,13.29,13.29,0,0,0-2,.28c0,.24,0,.68,0,1.34,0,0,0,.14,0,.33a2,2,0,0,1,0,.23c0,.32-.08.5-.23.5s-.47-.45-.47-.72a.38.38,0,0,1,0-.19A4.08,4.08,0,0,0,120,3.86a4.69,4.69,0,0,0-1.16.34.79.79,0,0,1-.3.09c-.29,0-.84-.61-.84-.93a.51.51,0,0,1,0-.09,1,1,0,0,0,.75.42,7.25,7.25,0,0,0,1-.13l.52-.09c0-1.27-.11-1.48-.67-1.78a.22.22,0,0,1,.2-.07,1.78,1.78,0,0,1,.76.28c.22.13.32.27.32.41a.63.63,0,0,1,0,.2,3.79,3.79,0,0,0-.08.88l1-.12,1-.12V2.57c0-.71,0-1-.14-1.15a1.08,1.08,0,0,0-.58-.33A.53.53,0,0,1,122,1a2.06,2.06,0,0,1,.85.22c.24.12.33.21.33.34a.34.34,0,0,1,0,.16A3.8,3.8,0,0,0,123,3.1a3.31,3.31,0,0,0,1.09-.18.47.47,0,0,1,.24-.07c.29,0,.83.35.83.53a.17.17,0,0,1-.19.16h-.17a8.71,8.71,0,0,0-1.26-.07H123a6.23,6.23,0,0,1-.62,3.16,4.65,4.65,0,0,1-2.08,1.71ZM123.55.52a4.56,4.56,0,0,1,.81.56c.32.3.44.5.44.72s-.12.38-.27.38-.12,0-.41-.59a3.77,3.77,0,0,0-.68-.94Zm.93-.52a4.37,4.37,0,0,1,.86.52c.35.26.46.44.46.69s-.09.37-.22.37-.14,0-.21-.18a4.38,4.38,0,0,0-1-1.27Z"/><path class="cls-1" d="M126.92,5.72a15.62,15.62,0,0,0,3.38-2.56,5.31,5.31,0,0,0,1.47-1.86c0-.18-.14-.32-.5-.52a.45.45,0,0,1,.18,0,1.33,1.33,0,0,1,.77.27c.31.2.47.41.47.58s0,.1-.36.4c-.09.07-.09.07-.73.68a12.48,12.48,0,0,1-1.07,1c.35.27.5.4.55.51a9.23,9.23,0,0,1,.06,1.32c0,.63,0,1.21.05,1.72v.51c0,.32-.06.46-.2.46s-.61-.5-.61-.76a.7.7,0,0,1,.05-.24A12.33,12.33,0,0,0,130.59,5a5,5,0,0,0-.05-.86c0-.09-.07-.13-.2-.27a17.9,17.9,0,0,1-1.73,1.23,10.36,10.36,0,0,1-1.62.78Z"/><path class="cls-1" d="M136.67,1.83a5,5,0,0,1,1.73.67.69.69,0,0,1,.31.61c0,.3-.1.51-.25.51s-.15-.05-.39-.36a4.61,4.61,0,0,0-1.47-1.32Zm6.4.51a9.25,9.25,0,0,1-1.89,2.42,18.09,18.09,0,0,1-2.53,2.05c-.43.3-.47.34-.53.42s-.2.22-.32.22c-.37,0-1.05-.87-1.05-1.33a.54.54,0,0,1,0-.18,1.36,1.36,0,0,0,.33.4.6.6,0,0,0,.36.19,2.28,2.28,0,0,0,.87-.38,13.07,13.07,0,0,0,2.15-1.49,14.11,14.11,0,0,0,2.42-2.4Z"/><path class="cls-1" d="M146.48,2.6a.74.74,0,0,0,.51.15,4,4,0,0,0,.63,0,11.93,11.93,0,0,0,2.66-.38.71.71,0,0,1,.18,0,1.22,1.22,0,0,1,.52.33c.21.19.32.33.32.43s0,.1-.09.17-.2.3-.65,2.69l.08.06c.25.21.32.31.32.43s-.07.15-.2.15l-.23,0a4.92,4.92,0,0,0-.8-.06,8.58,8.58,0,0,0-2.89.46l-.18,0c-.3,0-.84-.68-.84-1.05a.41.41,0,0,1,0-.16c.29.39.52.54.84.54l.47,0,1.28-.13C149.23,6,149.24,6,150,6c.09-.44.14-.8.24-1.65.05-.37.13-1.24.13-1.36s-.07-.16-.26-.16-.83.06-1.2.11a10.18,10.18,0,0,0-1.86.42.47.47,0,0,1-.17,0c-.18,0-.38-.17-.59-.49a1.19,1.19,0,0,1-.23-.55.29.29,0,0,1,0-.15A1.16,1.16,0,0,0,146.48,2.6Z"/><path class="cls-1" d="M154.34,3.93a1.21,1.21,0,0,0,.87.22l1.11,0,3.51,0a3.68,3.68,0,0,1,1.17.08c.09,0,.13.1.13.18a.25.25,0,0,1-.21.24,8.7,8.7,0,0,1-2.16.11c-.84,0-2.9.06-3.21.08s-.51,0-.65.12l-.14,0c-.13,0-.27-.1-.43-.3a1.58,1.58,0,0,1-.34-.83c0-.13,0-.14.07-.21A.78.78,0,0,0,154.34,3.93Z"/><path class="cls-1" d="M162.94,7.52a13,13,0,0,0,2.42-2,15.41,15.41,0,0,0,1.72-2.24,5.65,5.65,0,0,0,.61-1.16,10,10,0,0,0-1.9.4,5,5,0,0,0-.76.24.37.37,0,0,1-.15,0c-.2,0-.39-.16-.59-.52a1.11,1.11,0,0,1-.18-.54.29.29,0,0,1,.06-.17c.26.46.45.6.85.6a15.45,15.45,0,0,0,1.89-.25,2.24,2.24,0,0,0,.84-.26.4.4,0,0,1,.21-.08c.19,0,.7.46.7.63s0,.12-.12.17-.18.13-.51.62c-.43.64-.43.64-1.13,1.56a9.08,9.08,0,0,1,2.33,1.52,1.24,1.24,0,0,1,.34.9c0,.28-.09.46-.24.46a.28.28,0,0,1-.21-.14A2.68,2.68,0,0,1,168.9,7a7.54,7.54,0,0,0-2.14-2.21,9.44,9.44,0,0,1-2.18,2,7.59,7.59,0,0,1-1.57.88Z"/><path class="cls-1" d="M57.71,25.55l.53-.68c.39.3.51.39.87.7,0,.05.06.08.06.11s-.06.08-.12.08H55.2c0,1.24,0,1.74,0,2.56,0,.13-.09.18-.31.18h-.22c-.12,0-.16,0-.18-.09,0-.86.05-1.42.05-2.2,0-.09,0-.27,0-.46H51.88a8.89,8.89,0,0,0-.91.08l-.08-.38c.27,0,.8.09,1,.09h2.67V25.3c0-.18,0-.37,0-.78l.52.07a5.72,5.72,0,0,0,.76-1.25,6.78,6.78,0,0,0,.51-1.4c1,.27,1,.27,1,.35s-.1.13-.41.18a6.73,6.73,0,0,1-.48.75c.35.16,1,.5,1.25.65.39.24.46.32.46.5s-.11.56-.27.56-.11,0-.18-.15a6.36,6.36,0,0,0-1.36-1.4,5.4,5.4,0,0,1-1.15,1.23l.29,0c.07,0,.11.06.11.1s0,.09-.36.21v.59Zm-.23-4.11.54-.68.85.67c.06.06.11.11.11.14s0,.08-.11.08H52a6.58,6.58,0,0,0-.87.08L51,21.35c.25,0,.82.09,1,.09h2.51V20.9a5.83,5.83,0,0,0,0-.63c.9.1,1.12.15,1.12.26s0,.07-.45.24v.67Zm-6.23,3.75a6.94,6.94,0,0,0,1.36-2.1A4.77,4.77,0,0,0,53,21.91l.42.12c.5.12.61.17.61.26s-.1.11-.42.15c-.19.4-.27.55-.42.81a5.2,5.2,0,0,1,1,.63c.28.22.31.25.31.47a1.39,1.39,0,0,1-.13.46.2.2,0,0,1-.12.06c-.08,0-.13,0-.19-.17a5.36,5.36,0,0,0-.93-1.32,5.84,5.84,0,0,1-1.74,1.88Z"/><path class="cls-1" d="M64.1,24.45h1.65c.2-.22.25-.29.46-.5l.71.6a.09.09,0,0,1,0,.06s0,0-.09,0H64.1v.82h2.42l.53-.55c.34.27.44.36.78.62a.92.92,0,0,1,0,.09s0,.05-.1.05H64.23a5.74,5.74,0,0,0,1.06.83,6.83,6.83,0,0,0,1.8.71,6.56,6.56,0,0,0,1,.15v.14c-.31.09-.4.17-.62.56a7.73,7.73,0,0,1-2-1,7.53,7.53,0,0,1-1.33-1.28v.89c0,.17,0,.74,0,1.68,0,.14-.07.16-.52.16-.09,0-.11,0-.11-.11v0c0-.43,0-1.41,0-1.75v-.74a8.22,8.22,0,0,1-1.82,1.44,9.39,9.39,0,0,1-1.89.78L59.75,28A9.3,9.3,0,0,0,62,26.66a5.5,5.5,0,0,0,1-1H61a7,7,0,0,0-.94.07L60,25.38a3.8,3.8,0,0,0,1,.09h2.49v-.82H61.91a7,7,0,0,0-.88.06L61,24.35a4.49,4.49,0,0,0,.94.1h1.61v-.83H61.4a8.26,8.26,0,0,0-.84,0l-.06-.35a3.5,3.5,0,0,0,.9.1h1.4a1.41,1.41,0,0,1-.1-.21,3.34,3.34,0,0,0-.51-1l.08-.11H60.9a5.19,5.19,0,0,0-.89.05L60,21.8a3.43,3.43,0,0,0,.95.12h1.93v-.83c0-.29,0-.46,0-.81.79.06.93.09.93.19s-.07.11-.34.19v1.26h.91v-.83c0-.39,0-.5,0-.8a3,3,0,0,1,.84.11c.07,0,.09,0,.09.09s0,.09-.35.18v1.25h.53a6.24,6.24,0,0,0,.8-1.54c.27.11.63.26.79.35s.08.05.08.09-.07.1-.39.11c-.64.64-.68.67-1,1h1.14l.51-.57a10.15,10.15,0,0,1,.81.66s0,0,0,.07,0,0-.09,0H65.19l.69.4c.08.05.13.09.13.13s-.07.09-.2.09h-.2l-.25.2a4.72,4.72,0,0,1-.59.48h1.54c.22-.21.28-.29.51-.49a8.73,8.73,0,0,1,.77.59.11.11,0,0,1,0,.06s0,.05-.1.05H64.1Zm-3-4.06c.78.36,1.1.62,1.1.9s-.17.5-.29.5-.13-.06-.22-.28a3.62,3.62,0,0,0-.67-1Zm1.26,1.73c.74.54.92.72.92.92a.53.53,0,0,1-.21.37h1.52a4.24,4.24,0,0,0,.6-1.29Z"/><path class="cls-1" d="M70.72,21.21a7.66,7.66,0,0,1-.79,2.38h1.21a3.76,3.76,0,0,1,.35-.34,2.74,2.74,0,0,1,.43.39c0,.05.08.08.08.1s0,.08-.23.18c0,2.52,0,2.68,0,3.39,0,.12-.06.15-.28.15l-.19,0h0c-.07,0-.08,0-.1-.08v-.24H70.15V28c0,.12-.11.15-.45.15-.09,0-.14,0-.14-.11,0-.52,0-1.82,0-2.24v-1.6a7.1,7.1,0,0,1-.93,1.34l-.08-.09a12.05,12.05,0,0,0,1.15-2.6,8.34,8.34,0,0,0,.37-1.67h-.53a2.78,2.78,0,0,0-.6.05l0-.33a2.81,2.81,0,0,0,.65.07H71l.49-.55c.32.26.41.35.72.63,0,0,.05.05.05.07s0,.06-.12.06ZM70.15,27h1.06V23.81H70.15Zm5.66-1.82q0,.44,0,3.15c0,.12-.11.14-.39.14s-.28,0-.32-.1c0-1.81,0-2.88,0-3.19V24H73.83a5.47,5.47,0,0,1-.59,2.64A4.06,4.06,0,0,1,72,28.11a5.15,5.15,0,0,1-.75.42l-.07-.13a4.26,4.26,0,0,0,1.64-1.83A6.26,6.26,0,0,0,73.21,24h-.49a5.5,5.5,0,0,0-.58.05l-.06-.33a2.57,2.57,0,0,0,.69.07h.45V21H73a5.63,5.63,0,0,0-.71,0l-.07-.33a3.28,3.28,0,0,0,.78.08h2.77c.23-.25.31-.32.55-.57.33.27.44.35.76.63a.17.17,0,0,1,.07.09s0,.06-.14.06H75.81v2.8H76c.22-.27.29-.35.53-.62.35.3.46.39.81.71a.12.12,0,0,1,0,.08s0,0-.09,0H75.81Zm-.64-1.32V21H73.85v1.1c0,1.14,0,1.21,0,1.7Z"/><path class="cls-1" d="M80.88,25A7.94,7.94,0,0,0,81,23.78c0-.06,0-.15,0-.26l.56.06c.42.05.56.08.56.17s-.12.13-.44.21a9.44,9.44,0,0,1-.17,1l1.34,0a4.83,4.83,0,0,0,.37-.42c.26.19.34.24.57.42.06,0,.09.08.09.12a.12.12,0,0,1,0,.07.36.36,0,0,1-.12.08l-.14.1v2.13c0,.19,0,.2.59.2s.7,0,.77-.13a8,8,0,0,0,.53-1.9h.13l0,1.6v.07c0,.19,0,.21.18.28a.27.27,0,0,1,.2.26c0,.13-.09.23-.26.26a10.55,10.55,0,0,1-1.53.08c-1.09,0-1.18,0-1.18-.46V25.13l-1.48,0a3.8,3.8,0,0,1-.85,1.7,4.58,4.58,0,0,1-2.77,1.48l0-.1a4.78,4.78,0,0,0,2.36-1.6,3.62,3.62,0,0,0,.67-1.47l-1.65,0a2.59,2.59,0,0,0-.59.07l-.12-.34a4.29,4.29,0,0,0,.69.06h.08Zm.35-3.42a4.63,4.63,0,0,1-.13.64A2.8,2.8,0,0,1,79.38,24a4.52,4.52,0,0,1-1.47.39l0-.14a3.39,3.39,0,0,0,2.24-1.39,2.92,2.92,0,0,0,.45-1.37H79a2.25,2.25,0,0,1-.4,1,.63.63,0,0,1-.41.28c-.15,0-.28-.23-.28-.52,0-.12,0-.17.18-.26a1.83,1.83,0,0,0,.48-.48,2.79,2.79,0,0,0,.28-.86H79a3.94,3.94,0,0,1,0,.4c0,.05,0,.1,0,.19h2.48v-.59a3.85,3.85,0,0,0,0-.54c.86.08,1,.12,1,.22s-.09.13-.37.23v.68h2.26l.41-.47c.32.24.42.32.74.58.06.06.09.1.09.13s-.06.08-.15.11l-.49.06a5.26,5.26,0,0,0-.41.35l-.37.3-.09-.07a4.14,4.14,0,0,0,.35-.78h-1.6V23c0,.1,0,.14.09.16a7.7,7.7,0,0,0,.9,0c1,0,1,0,1-.13A8.28,8.28,0,0,0,85.34,22l.13,0-.09.89v0c0,.2,0,.24.18.26a.17.17,0,0,1,.19.17.23.23,0,0,1-.16.21,5.52,5.52,0,0,1-1.56.12,12.94,12.94,0,0,1-1.41-.05.35.35,0,0,1-.34-.39V21.53Z"/><path class="cls-1" d="M90.69,24.41a.83.83,0,1,1-.82-.82A.83.83,0,0,1,90.69,24.41Z"/><path class="cls-1" d="M95.24,27.73v0a.15.15,0,0,1-.13.14l-.33,0c-.09,0-.15,0-.15-.11v0c0-.92,0-.92,0-2.79,0-.37,0-.48,0-.79l.68.38h1V23.47H94.71a3.71,3.71,0,0,0-.61.06L94,23.19a6.18,6.18,0,0,0,.71.08h1.57v-1.2H95a4.62,4.62,0,0,1-.9,1L94,23a6.68,6.68,0,0,0,.9-1.64,4.37,4.37,0,0,0,.31-1c.81.28.9.31.9.4s-.08.11-.43.17a6.34,6.34,0,0,1-.55.93h1.21a13.47,13.47,0,0,0,0-1.58c1,.13,1,.13,1,.22s0,.09-.4.24v1.12h1c.19-.25.26-.32.46-.55.3.27.4.36.69.64a.2.2,0,0,1,0,.08s0,0-.1,0H96.89v1.2H98.1a6.87,6.87,0,0,1,.52-.57c.29.26.37.35.65.64a.78.78,0,0,1,0,.07s0,.06-.09.06H96.89v1.11H98a2.55,2.55,0,0,1,.29-.38l.52.33c.09.06.13.1.13.13s-.09.15-.28.29v1.4c0,.23,0,.41,0,.78s0,.32-.21.42a1.33,1.33,0,0,1-.57.22c-.07-.36-.21-.46-.7-.54v-.12c.3,0,.4,0,.7.05h0a.14.14,0,0,0,.15-.15V24.79H96.89c0,2.62,0,2.62,0,3.5,0,.09,0,.13-.1.15a1.32,1.32,0,0,1-.39,0c-.12,0-.17,0-.17-.12v0c0-2.18,0-2.18,0-3.55H95.24Zm5.29-6.63c0,.06,0,.06-.38.27,0,1.46,0,1.46,0,1.72s0,1.63,0,3.35c0,.11-.06.14-.33.15h-.18c-.1,0-.14,0-.14-.12v0c0-1.07,0-1.47,0-2.36,0-1.2,0-2.81,0-3.22C100.32,21,100.53,21,100.53,21.1Zm.64.1a6.9,6.9,0,0,0,0-.92c.82.1,1,.14,1,.22s-.06.13-.33.26v4.82c0,.32,0,.35,0,2v.06c0,.42-.23.56-1.1.69a.52.52,0,0,0-.2-.44,1.55,1.55,0,0,0-.8-.25v-.15l1.28.09h.06c.07,0,.1,0,.1-.15Z"/><path class="cls-1" d="M103,24.68a13.33,13.33,0,0,0,1.6-2.61,6.46,6.46,0,0,0,.67-1.84c.42.14.9.31,1,.35s.07,0,.07.08a.12.12,0,0,1,0,.08l-.36.08a12.78,12.78,0,0,1-1.37,2.29,4.44,4.44,0,0,1,.57.09c.09,0,.11,0,.11.09s0,.09-.26.2V26c0,.12,0,.36,0,.7s0,.64,0,.9,0,.42,0,.73c0,0,0,0,0,.06s0,.07-.08.09a1.75,1.75,0,0,1-.43.05c-.15,0-.19,0-.19-.1v0c0-.75.06-1.44.06-2.41V23.38a8.47,8.47,0,0,1-1.23,1.38Zm5.34-.91h1.45c.22-.28.28-.36.5-.61.35.29.46.39.78.7a.18.18,0,0,1,.05.07s0,.05-.08.05h-2.7v1.68h1.43c.22-.28.29-.36.52-.62.35.3.45.4.78.71a.27.27,0,0,1,0,.07s0,.05-.08.05h-2.69v.39c0,.11,0,.32,0,.58,0,.62,0,.62,0,1.53v0c0,.13-.13.17-.5.17-.15,0-.19,0-.19-.13,0-.53,0-.53,0-1.21s0-.78,0-.95V22.21h-.49a10.17,10.17,0,0,1-1.82,2.34l-.1-.09a10.81,10.81,0,0,0,1.35-2.31,6.52,6.52,0,0,0,.62-1.85c1,.3,1.08.34,1.08.42a.12.12,0,0,1,0,.08.77.77,0,0,1-.2.07l-.24.06a6.72,6.72,0,0,1-.54,1.07h2.52c.22-.31.29-.4.52-.69l.89.81a.08.08,0,0,1,0,0s0,.05-.07.05h-2.88Z"/><path class="cls-1" d="M118.41,25.21c.59.28.77.39.77.47s-.13.12-.44.13a6.49,6.49,0,0,1-1.39.67,6.49,6.49,0,0,0,1.07.61,4.34,4.34,0,0,0,1.93.45v.11c-.38.09-.51.24-.66.67a5.51,5.51,0,0,1-1.66-.78,4.63,4.63,0,0,1-1.93-2.33h-.91v2.22a16.61,16.61,0,0,0,2-.26l0,.12a25.25,25.25,0,0,1-3.51.92c0,.23-.09.32-.16.32s-.12-.09-.34-1l.24,0c.14,0,.74,0,1.14-.08V25.21h-1.23a9.13,9.13,0,0,1-.4,1.6,4.41,4.41,0,0,1-1,1.6l-.09-.08a5.45,5.45,0,0,0,.62-1.63,25.86,25.86,0,0,0,.31-5.69c0-.28,0-.43,0-.76a7.68,7.68,0,0,1,.78.47h5.1l.32-.4c.27.17.34.22.58.39,0,.05.07.08.07.12s-.07.12-.32.29c0,.55,0,.55,0,1.35a.13.13,0,0,1-.09.1,1.41,1.41,0,0,1-.4.06c-.1,0-.13,0-.14-.13v-.22H113.5V23a14.51,14.51,0,0,1-.12,2h1.68V23.69h-.52a6.14,6.14,0,0,0-.83,0l0-.34a3.65,3.65,0,0,0,.88.08h.52v-.33a3.34,3.34,0,0,0,0-.66c.81.08,1,.1,1,.2s0,.07-.3.18v.61h1.4v-.39a3.91,3.91,0,0,0,0-.61c.82.09.93.11.93.2s-.06.1-.29.18v.62h.68c.17-.24.23-.31.41-.55.37.26.48.35.85.63a.2.2,0,0,1,0,.08s0,.05-.1.05h-1.88V25h1c.18-.26.25-.34.45-.6.39.27.51.36.91.67a.15.15,0,0,1,0,.08s0,.06-.09.06Zm.33-4.28h-5.22c0,.25,0,.25,0,1.14h5.24ZM115.65,25h1.4V23.69h-1.4Zm.67.21a2.43,2.43,0,0,0,.88,1.16,3.76,3.76,0,0,0,1.21-1.16Z"/><path class="cls-1" d="M29.76,47.54a3.73,3.73,0,0,1,.67-1.76A8.76,8.76,0,0,1,32.31,44a2.81,2.81,0,0,0,.68-.7,1.47,1.47,0,0,0,.2-.76A1.19,1.19,0,0,0,32,41.25a1,1,0,0,0-1.07.7,2.72,2.72,0,0,0-.09.66c0,.31-.11.39-.43.39s-.46-.11-.46-.37c0-.93.9-1.62,2.11-1.62a2.16,2.16,0,0,1,1.73.67,1.45,1.45,0,0,1,.29,1c0,.74-.34,1.2-1.34,1.82a8.06,8.06,0,0,0-1.76,1.26,2.45,2.45,0,0,0-.74,1.14h2.6c.65,0,.88-.2,1.06-1l.26.06-.24,1.57Z"/><path class="cls-1" d="M35.5,42A2,2,0,0,1,39,42a5.58,5.58,0,0,1,0,4.66,2,2,0,0,1-3.49,0,5.58,5.58,0,0,1,0-4.66Zm1.75,5.43c1,0,1.38-.95,1.38-3.1s-.42-3.1-1.38-3.1-1.39,1-1.39,3.11S36.29,47.44,37.25,47.44Z"/><path class="cls-1" d="M40.34,47.54A3.73,3.73,0,0,1,41,45.78,9,9,0,0,1,42.89,44a3.11,3.11,0,0,0,.69-.7,1.56,1.56,0,0,0,.19-.76,1.18,1.18,0,0,0-1.22-1.27,1,1,0,0,0-1.07.7,2.3,2.3,0,0,0-.09.66c0,.31-.12.39-.43.39s-.46-.11-.46-.37c0-.93.9-1.62,2.1-1.62a2.16,2.16,0,0,1,1.73.67,1.45,1.45,0,0,1,.29,1c0,.74-.33,1.2-1.33,1.82a8.21,8.21,0,0,0-1.77,1.26,2.62,2.62,0,0,0-.74,1.14h2.61c.64,0,.87-.2,1-1l.27.06-.24,1.57Z"/><path class="cls-1" d="M45.63,47.54a3.73,3.73,0,0,1,.67-1.76A9,9,0,0,1,48.18,44a3.11,3.11,0,0,0,.69-.7,1.57,1.57,0,0,0,.2-.76,1.19,1.19,0,0,0-1.23-1.27,1,1,0,0,0-1.07.7,2.3,2.3,0,0,0-.09.66c0,.31-.12.39-.43.39s-.46-.11-.46-.37c0-.93.9-1.62,2.1-1.62a2.16,2.16,0,0,1,1.73.67,1.45,1.45,0,0,1,.29,1c0,.74-.33,1.2-1.33,1.82a8.21,8.21,0,0,0-1.77,1.26,2.51,2.51,0,0,0-.73,1.14h2.6c.65,0,.87-.2,1-1L50,46l-.24,1.57Z"/><path class="cls-1" d="M52.52,47a.64.64,0,1,1-.63-.63A.62.62,0,0,1,52.52,47Z"/><path class="cls-1" d="M56.21,44.19a2.34,2.34,0,0,1,1,.25A1.51,1.51,0,0,1,58,45.83c0,1.11-.89,1.85-2.23,1.85-1.17,0-2-.56-2-1.31,0-.28.17-.42.52-.42s.36.09.37.34a1.19,1.19,0,0,0,.23.81,1.12,1.12,0,0,0,.89.34c.89,0,1.41-.6,1.41-1.62a1.37,1.37,0,0,0-.6-1.3,2.29,2.29,0,0,0-1-.22h-.4V44h.4a1.84,1.84,0,0,0,1-.26A1.34,1.34,0,0,0,57,42.6a1.79,1.79,0,0,0-.22-.9,1,1,0,0,0-.94-.45c-.68,0-1,.35-1.06,1.07,0,.34-.1.43-.42.43s-.47-.09-.47-.34c0-.76.89-1.4,2-1.4s2,.66,2,1.57a1.42,1.42,0,0,1-.74,1.23,3.07,3.07,0,0,1-.9.29Z"/><path class="cls-1" d="M60.64,47a.64.64,0,1,1-.63-.63A.62.62,0,0,1,60.64,47Z"/><path class="cls-1" d="M62.83,47.27a1.4,1.4,0,0,0,.6-.09c.2-.09.24-.28.24-.92V42.47c0-.79,0-.79-.09-.85s-.18-.08-.4-.08h-.35v-.26A10.46,10.46,0,0,0,64.54,41c0,.71-.07,1.48-.07,2.54v2.68c0,.6,0,.78.16.89s.15.1.66.12v.27H62.83Z"/><path class="cls-1" d="M71.57,45.91c0,1.09-.87,1.77-2.25,1.77S67.15,47,67.15,46a1.68,1.68,0,0,1,.67-1.3,3.46,3.46,0,0,1,.87-.44,4.74,4.74,0,0,1-.81-.48,1.29,1.29,0,0,1-.47-1.09,1.62,1.62,0,0,1,.34-1A2.19,2.19,0,0,1,69.41,41a2,2,0,0,1,1.65.73,1.44,1.44,0,0,1,.25.87,1.24,1.24,0,0,1-.52,1,2,2,0,0,1-.82.41C71.06,44.5,71.57,45.1,71.57,45.91Zm-3.23-1.13A1.52,1.52,0,0,0,67.82,46a1.45,1.45,0,0,0,1.57,1.49,1.33,1.33,0,0,0,1.46-1.34A1.23,1.23,0,0,0,70.19,45a6.11,6.11,0,0,0-.83-.45L69,44.42A1.65,1.65,0,0,0,68.34,44.78Zm2.33-2.15a1.25,1.25,0,0,0-1.35-1.38,1.14,1.14,0,0,0-1.24,1.2c0,.48.2.76.75,1.08l.64.3.26.13A1.35,1.35,0,0,0,70.67,42.63Z"/><path class="cls-1" d="M76.43,41a6.73,6.73,0,0,0-1.16,4,6.8,6.8,0,0,0,1.16,4.07l-.18.14a5.57,5.57,0,0,1-1-1.44A6.47,6.47,0,0,1,74.55,45a6.73,6.73,0,0,1,.79-3,6.11,6.11,0,0,1,.91-1.22Z"/><path class="cls-1" d="M79.3,46.39c0,.83.06.9.77.92v.23H77.82v-.23c.63,0,.68-.09.68-.92V42.15c0-.57,0-.58,0-.66s-.23-.27-.64-.27V41h4.57l.11,1.6-.29,0c-.2-1.1-.53-1.35-1.73-1.35H79.3v2.77h1c1,0,1.16-.13,1.26-.91h.25v2.11h-.25c-.13-.81-.28-.93-1.26-.93h-1Z"/><path class="cls-1" d="M84.46,42.89c0,.45,0,.57,0,.76v.28a1.53,1.53,0,0,1,1.31-1.07.63.63,0,0,1,.69.56c0,.23-.19.37-.48.37s-.28,0-.33-.23-.11-.25-.25-.25a.88.88,0,0,0-.68.54A2.4,2.4,0,0,0,84.51,45v1.41c0,.85,0,.91.65.93v.2H83.09v-.2c.61,0,.66-.09.66-.93V44c0-.68-.11-.81-.62-.81V43Z"/><path class="cls-1" d="M88.26,42.89c0,.52-.05,1.31-.05,1.68v1.84c0,.84,0,.91.64.93v.2h-2v-.2c.62,0,.67-.09.67-.93V44c0-.45,0-.66-.14-.74s-.21-.08-.53-.08V43ZM87.81,41a.51.51,0,1,1-.51.51A.5.5,0,0,1,87.81,41Z"/><path class="cls-1" d="M90.18,49.07A6.78,6.78,0,0,0,91.34,45a6.73,6.73,0,0,0-1.16-4l.18-.14a5.57,5.57,0,0,1,1,1.44A6.46,6.46,0,0,1,92.06,45a6.67,6.67,0,0,1-.79,3,6.15,6.15,0,0,1-.91,1.23Z"/><path class="cls-1" d="M94.57,44.73h2v.49h-2Z"/><path class="cls-1" d="M101.21,44.19a2.34,2.34,0,0,1,1,.25,1.51,1.51,0,0,1,.81,1.39c0,1.11-.89,1.85-2.23,1.85-1.17,0-2-.56-2-1.31,0-.28.17-.42.52-.42s.36.09.37.34a1.19,1.19,0,0,0,.23.81,1.12,1.12,0,0,0,.89.34c.89,0,1.41-.6,1.41-1.62a1.37,1.37,0,0,0-.6-1.3,2.29,2.29,0,0,0-1-.22h-.4V44h.4a1.84,1.84,0,0,0,1-.26A1.34,1.34,0,0,0,102,42.6a1.79,1.79,0,0,0-.22-.9,1,1,0,0,0-.94-.45c-.68,0-1,.35-1.06,1.07,0,.34-.1.43-.42.43s-.47-.09-.47-.34c0-.76.89-1.4,2-1.4s2,.66,2,1.57a1.42,1.42,0,0,1-.74,1.23,3.07,3.07,0,0,1-.9.29Z"/><path class="cls-1" d="M105.64,47a.64.64,0,1,1-.63-.63A.62.62,0,0,1,105.64,47Z"/><path class="cls-1" d="M106.87,47.54a3.73,3.73,0,0,1,.67-1.76,9,9,0,0,1,1.88-1.8,2.81,2.81,0,0,0,.68-.7,1.47,1.47,0,0,0,.2-.76,1.18,1.18,0,0,0-1.22-1.27A1,1,0,0,0,108,42a2,2,0,0,0-.09.66c0,.31-.12.39-.44.39s-.46-.11-.46-.37c0-.93.9-1.62,2.11-1.62a2.16,2.16,0,0,1,1.73.67,1.45,1.45,0,0,1,.29,1c0,.74-.34,1.2-1.33,1.82a8.21,8.21,0,0,0-1.77,1.26,2.45,2.45,0,0,0-.74,1.14h2.6c.65,0,.88-.2,1.06-1l.27.06L111,47.54Z"/><path class="cls-1" d="M112.61,42a2,2,0,0,1,3.49,0,5.58,5.58,0,0,1,0,4.66,1.92,1.92,0,0,1-1.74,1,1.94,1.94,0,0,1-1.75-1,5.58,5.58,0,0,1,0-4.66Zm1.75,5.43c1,0,1.39-.95,1.39-3.1s-.43-3.1-1.39-3.1-1.39,1-1.39,3.11S113.4,47.44,114.36,47.44Z"/><path class="cls-1" d="M121.43,41a6.73,6.73,0,0,0-1.16,4,6.8,6.8,0,0,0,1.16,4.07l-.18.14a5.57,5.57,0,0,1-1-1.44,6.47,6.47,0,0,1-.69-2.77,6.73,6.73,0,0,1,.79-3,6.11,6.11,0,0,1,.91-1.22Z"/><path class="cls-1" d="M123.05,45.73h.3a1.78,1.78,0,0,0,.37,1.14,1.74,1.74,0,0,0,1.35.51c.82,0,1.31-.43,1.31-1.17s-.34-1.05-1.68-1.7a4,4,0,0,1-1.29-.81,1.46,1.46,0,0,1-.4-1.06,1.7,1.7,0,0,1,.57-1.31,1.85,1.85,0,0,1,1.28-.43,3.88,3.88,0,0,1,1.07.15,1.56,1.56,0,0,0,.33.05,1.7,1.7,0,0,0,.54-.14l0,1.78h-.3a2.13,2.13,0,0,0-.25-1,1.47,1.47,0,0,0-1.3-.64,1.16,1.16,0,0,0-1,.38,1.25,1.25,0,0,0-.27.78c0,.6.29.9,1.36,1.4s1.55.83,1.8,1.22a1.72,1.72,0,0,1,.26,1,1.49,1.49,0,0,1-.52,1.23,2.13,2.13,0,0,1-1.46.49,5,5,0,0,1-1.21-.15l-.3,0a3.72,3.72,0,0,0-.62.09Z"/><path class="cls-1" d="M131.31,47.6a6.72,6.72,0,0,1-.05-.93,1.83,1.83,0,0,1-1.6,1,1.21,1.21,0,0,1-1.2-.75,4.53,4.53,0,0,1-.12-1.4V44c0-.47,0-.66-.14-.74s-.13-.07-.3-.08h-.17V43l1.4-.09c0,.84,0,1.05,0,1.67v.79a4.13,4.13,0,0,0,.12,1.46.7.7,0,0,0,.73.51,1.3,1.3,0,0,0,1.17-.87,2.2,2.2,0,0,0,.16-1.07V44c0-.48,0-.65-.13-.73a.46.46,0,0,0-.31-.09h-.16V43l1.39-.09c0,.67,0,1.27,0,1.67v1.7c0,.9.08,1.07.55,1.07h.06v.2Z"/><path class="cls-1" d="M134.55,43.82a1.6,1.6,0,0,1,1.58-1,1.24,1.24,0,0,1,1.18.56,2,2,0,0,1,.23,1.13v1.86c0,.85.05.91.66.93v.2h-2v-.2c.3,0,.46-.05.53-.14a.51.51,0,0,0,.09-.3c0-.09,0-.43,0-.49V44.6a2.3,2.3,0,0,0-.15-1,.79.79,0,0,0-.79-.48,1.17,1.17,0,0,0-1,.6,2.19,2.19,0,0,0-.3,1.1v1.56c0,.85,0,.91.65.93v.2h-2v-.2c.6,0,.66-.09.66-.93V44c0-.68-.11-.81-.62-.81V43l1.36-.1Z"/><path class="cls-1" d="M139.26,49.07A6.71,6.71,0,0,0,140.42,45a6.67,6.67,0,0,0-1.16-4l.18-.14a5.39,5.39,0,0,1,1,1.44,6,6,0,0,1-.11,5.73,5.46,5.46,0,0,1-.91,1.23Z"/><path class="cls-1" d="M4.35,63.89H6.72l.6-.68.88.73a.16.16,0,0,1,.06.08.09.09,0,0,1-.08.08H4.35v1.73c0,.92,0,1.58,0,2.39,0,.14-.12.18-.44.19h-.1c-.14,0-.2-.06-.21-.17,0-.49,0-1.13,0-2.41V64.1H1.21a9,9,0,0,0-1.15,0L0,63.79a8.83,8.83,0,0,0,1.21.1H3.67V61.7a18.65,18.65,0,0,1-3,.36l0-.14A27.66,27.66,0,0,0,4.37,61a7,7,0,0,0,1.77-.73c.6.43.82.61.82.67s0,.06-.11.06A1.53,1.53,0,0,1,6.46,61a16.93,16.93,0,0,1-2.11.6Z"/><path class="cls-1" d="M12.65,65.77a4,4,0,0,0,0-.62c.81.1,1,.13,1,.23s-.06.1-.33.18V66h2.45c.23-.26.31-.33.56-.58.36.28.47.37.81.66,0,0,0,.06,0,.08s0,0-.09,0H13.34a4.57,4.57,0,0,0,.88.6,7.51,7.51,0,0,0,3.16.79v.14c-.37.09-.49.21-.68.64a7.69,7.69,0,0,1-2.17-1,4.12,4.12,0,0,1-1.3-1.14V67c0,.47,0,.47,0,1.35,0,.14-.08.17-.43.17-.18,0-.22,0-.22-.13,0-.93,0-.93,0-1.34v-.58a7.63,7.63,0,0,1-1.74,1.22,9.13,9.13,0,0,1-2,.74l-.05-.12a10.54,10.54,0,0,0,2.22-1.2,7.85,7.85,0,0,0,1.1-.94H10a5.29,5.29,0,0,0-.8.06l0-.34A3.42,3.42,0,0,0,10,66h2.7Zm0-3c0-.4,0-.51,0-.83.86.13.91.14.91.23s0,.08-.32.16v.44h1.49c0-.33,0-.46,0-.83a3.31,3.31,0,0,1,.85.15q.09,0,.09.09c0,.06-.07.1-.35.16v.43h.6l.48-.54c.34.26.44.34.78.63a.13.13,0,0,1,0,.07s0,.05-.08.05H15.29c0,.69,0,.69,0,1.17v0c0,.09-.09.11-.39.11-.15,0-.19,0-.19-.07h0V64H13.23v.21c0,.1-.06.12-.4.12-.17,0-.19,0-.19-.1,0-.41,0-.41,0-1.25h-1.5v1.76h4.33l.54-.53a7.51,7.51,0,0,1,.76.61.15.15,0,0,1,.05.08s0,0-.09,0H11.16v.11c0,.12-.05.13-.39.13-.19,0-.21,0-.21-.1,0-1,0-1,0-1.77V63H9.74A5.46,5.46,0,0,0,9,63l0-.35a3.35,3.35,0,0,0,.81.09h.81c0-.45,0-.53,0-.83l.71.11c.18,0,.22.06.22.11s-.08.12-.33.17v.44Zm-1.14-2.09a4.54,4.54,0,0,0,0-.49c.95.12.95.12.95.21s-.07.11-.36.19v.48h1.8v-.34a4.87,4.87,0,0,0,0-.55c.9.12,1,.14,1,.23s-.11.13-.38.19v.47h1.23c.25-.28.33-.36.58-.6.36.28.47.37.83.68,0,0,0,.05,0,.07s0,.06-.1.06H14.46v.49c0,.1-.05.12-.44.12-.12,0-.14,0-.14-.1,0-.24,0-.32,0-.51h-1.8v.54c0,.1-.07.11-.37.11s-.22,0-.22-.09,0-.32,0-.56H10a5.27,5.27,0,0,0-.84.05L9.05,61a4.49,4.49,0,0,0,.9.07h1.57ZM13.23,63v.82h1.49V63Z"/><path class="cls-1" d="M22.23,63.06a7.29,7.29,0,0,0,1.06,2.32,6.42,6.42,0,0,0,1.9,1.77,4.5,4.5,0,0,0,1.18.5l0,.13c-.5.06-.63.16-.81.6A5.77,5.77,0,0,1,24,67.11a7.53,7.53,0,0,1-1.45-2.36,9.21,9.21,0,0,1-.44-1.52,5.94,5.94,0,0,1-1.28,3.18,6.93,6.93,0,0,1-3,2l-.07-.12a8.38,8.38,0,0,0,1.66-1.15,6.07,6.07,0,0,0,2.05-4.11H18.87a4.2,4.2,0,0,0-.83.06L18,62.78a4.86,4.86,0,0,0,.93.07h2.58c.05-.53.08-1.22.08-1.77a3.52,3.52,0,0,0-.05-.62c1,.1,1.12.11,1.12.21s-.12.17-.39.26c0,1-.05,1.39-.1,1.92h2.53c.22-.31.29-.41.52-.71a10.8,10.8,0,0,1,.89.76s.06.06.06.08a.1.1,0,0,1-.1.08Z"/><path class="cls-1" d="M33.73,65.38l.58-.69c.36.31.47.41.82.75a.15.15,0,0,1,0,.09s-.05.06-.11.06h-3.7v1c0,.39,0,.65,0,1.22a.5.5,0,0,1-.33.51,1.86,1.86,0,0,1-.78.2c-.1-.49-.15-.51-1.41-.71v-.14c.68.06.74.06,1.7.1.11,0,.14,0,.14-.12V65.59h-3a5.8,5.8,0,0,0-.74,0l-.06-.32a3.38,3.38,0,0,0,.78.07h3v-.15c0-.18,0-.23,0-.74.18,0,.41.06.69.12a5.59,5.59,0,0,0,1-1.08H29.15a4.82,4.82,0,0,0-.65,0l-.05-.31a4.29,4.29,0,0,0,.69.06h3.24l.39-.4.63.47c.08.07.12.11.12.16s-.11.11-.46.14a8.7,8.7,0,0,1-1.47,1c.08,0,.12.06.12.1s-.09.11-.35.16v.46Zm.14-3.17c.19-.21.24-.27.44-.46.32.21.42.28.74.52.09.06.12.11.12.15s-.15.16-.55.17c-.18.19-.18.19-.45.5s-.17.19-.36.38l-.09,0a6,6,0,0,0,.25-1H28.09a2,2,0,0,1-.4,1.2.61.61,0,0,1-.39.28.2.2,0,0,1-.17-.14,1.17,1.17,0,0,1-.09-.37c0-.13,0-.19.27-.36a1.79,1.79,0,0,0,.63-1.33h.17c0,.27,0,.33,0,.52h4.07a7.91,7.91,0,0,0,1-1.8c.86.34,1,.38,1,.46S34,61,33.83,61h-.2a10.26,10.26,0,0,1-1.24,1.21Zm-5.28-1.7a5.82,5.82,0,0,1,.86.64.55.55,0,0,1,.22.38.94.94,0,0,1-.19.51.17.17,0,0,1-.14.08c-.09,0-.13-.06-.22-.31a4.31,4.31,0,0,0-.62-1.23Zm1.84-.2c.78.56,1.1.9,1.1,1.13a1.19,1.19,0,0,1-.17.5.23.23,0,0,1-.19.11c-.11,0-.14,0-.23-.37a3.35,3.35,0,0,0-.61-1.29Z"/><path class="cls-1" d="M37.84,67a3.49,3.49,0,0,0-.7.06l0-.33a3.92,3.92,0,0,0,.75.06h1.83v-.41c0-.19,0-.35,0-.73.74.08,1,.12,1,.22s-.1.13-.36.19v.73h1.85c.24-.25.3-.33.51-.57.34.28.44.37.76.66,0,0,0,0,0,0a.09.09,0,0,1-.08.07H40.24v1h2.67l.59-.66c.37.29.49.39.84.7,0,0,.06.06.06.09s0,.07-.08.07H36.9a4.94,4.94,0,0,0-.87.07L36,67.89a4.11,4.11,0,0,0,.94.1h2.77V67Zm2.37-3.34h2l.5-.51c.29.24.38.33.67.58,0,0,0,.06,0,.08s0,.05-.09.05H40.21v.77h2.66l.53-.55a9.24,9.24,0,0,1,.79.61c.05,0,.07.06.07.08s-.07.07-.13.07H36.89a3.4,3.4,0,0,0-.73.08l-.07-.37a3.66,3.66,0,0,0,.8.08h2.78v-.77h-2a2.39,2.39,0,0,0-.68.07l-.07-.36a2.26,2.26,0,0,0,.75.09h2v-.78h-2v.2c0,.12-.09.14-.44.14-.1,0-.13,0-.14-.1,0-.54,0-.81,0-1.27s0-1.06,0-1.51l.64.37h4.45c.17-.18.17-.18.33-.37.21.17.29.21.49.37s.11.1.11.13-.08.12-.31.24v.33c0,.28,0,.41,0,1.52,0,.07,0,.1-.07.12a1.93,1.93,0,0,1-.41,0c-.06,0-.08,0-.1-.08v-.13h-2Zm-2.65,1.44a2.13,2.13,0,0,1-.49,1.13,1,1,0,0,1-.61.4c-.13,0-.21-.16-.21-.38a.32.32,0,0,1,.28-.37,1.41,1.41,0,0,0,.92-.81Zm2.11-4.18h-2v.76h2Zm0,1h-2v.79h2ZM38.61,65a1.75,1.75,0,0,1,.58.93c0,.22-.22.53-.38.53s-.1-.06-.1-.17A4.44,4.44,0,0,0,38.52,65Zm3.65-3.31v-.76h-2v.76Zm-2,1h2v-.79h-2Zm.48,2.27c.54.49.76.78.76,1s-.24.49-.38.49-.13-.06-.15-.34A2.87,2.87,0,0,0,40.59,65Zm1.73.07c1,.53,1.38.79,1.38,1.09s-.17.53-.29.53-.12-.05-.26-.35a4.76,4.76,0,0,0-.92-1.18Z"/><path class="cls-1" d="M46.16,68.13c0,.08,0,.11-.09.13a1.66,1.66,0,0,1-.37,0c-.12,0-.16,0-.16-.14,0-.77,0-2.58,0-4.77,0-1,0-2.24,0-2.61a4.55,4.55,0,0,1,.76.39h5.38a5.76,5.76,0,0,1,.41-.44l.59.44a.16.16,0,0,1,.07.13c0,.07,0,.1-.34.26v1.86c0,1.83,0,3.42.08,4.68,0,.13-.15.17-.47.17-.16,0-.21,0-.22-.13v-.69H46.16Zm2.5-4.1V61.38h-2.5V64Zm0,.22h-2.5v3h2.5Zm3.11-2.87H49.25V64h2.52Zm-2.52,2.87v3h2.52v-3Z"/><path class="cls-1" d="M56.73,68.11a4.72,4.72,0,0,0,1.73-1.84,6.89,6.89,0,0,0,.5-2.89,16.05,16.05,0,0,0-2,.27V64s0,.39,0,1c0,0,0,.15,0,.34a1.94,1.94,0,0,1,0,.22c0,.33-.08.5-.24.5s-.45-.45-.45-.72a.35.35,0,0,1,0-.18,1.6,1.6,0,0,0,.1-.43c0-.09,0-.42,0-1a4.6,4.6,0,0,0-1.17.35.79.79,0,0,1-.33.1c-.28,0-.81-.62-.81-1a.2.2,0,0,1,0-.08,1,1,0,0,0,.74.42,5.84,5.84,0,0,0,.63-.07l.59-.1.3-.05a6,6,0,0,0-.13-1.22.84.84,0,0,0-.29-.41l-.26-.15a.23.23,0,0,1,.2-.07,1.77,1.77,0,0,1,.77.28c.21.13.31.26.31.41a1,1,0,0,1,0,.2,3.39,3.39,0,0,0-.09.88l2-.24c0-.22,0-.26,0-.57,0-.72,0-1-.15-1.15a1.07,1.07,0,0,0-.61-.33.64.64,0,0,1,.35-.1,2.25,2.25,0,0,1,.85.21c.21.09.32.21.32.35a.38.38,0,0,1,0,.16A4.66,4.66,0,0,0,59.51,63a3.16,3.16,0,0,0,1.09-.19.43.43,0,0,1,.25-.06c.3,0,.81.34.81.53a.17.17,0,0,1-.19.16h-.16a8.5,8.5,0,0,0-1.05-.07H59.5a6.18,6.18,0,0,1-.62,3.17,4.62,4.62,0,0,1-2.07,1.7Z"/><path class="cls-1" d="M65,68.13A6.54,6.54,0,0,0,66.3,66a5.9,5.9,0,0,0,.44-1.83.45.45,0,0,0-.23-.44,7.42,7.42,0,0,0-2,.56.5.5,0,0,1-.29.09,1.1,1.1,0,0,1-.7-.51.92.92,0,0,1-.18-.4.61.61,0,0,1,0-.17.84.84,0,0,0,.75.44,8.66,8.66,0,0,0,1.54-.23c.55-.09,1.57-.22,2.78-.33a3.7,3.7,0,0,0,.7-.16.56.56,0,0,1,.22,0,1.12,1.12,0,0,1,.48.13c.24.12.42.29.42.42s-.09.18-.25.18a.7.7,0,0,1-.22,0,8.75,8.75,0,0,0-1.45-.12,11.1,11.1,0,0,0-1.48.09c.42.24.59.42.59.63a6.42,6.42,0,0,1-2.35,4Zm-.17-6.95a1.39,1.39,0,0,0,1.07.49,4.65,4.65,0,0,0,1.9-.45.57.57,0,0,1,.27-.07c.23,0,.61.3.61.48s-.11.16-.47.24a13.34,13.34,0,0,1-2,.24,1.52,1.52,0,0,1-1.46-.84Z"/><path class="cls-1" d="M73.93,68a10.32,10.32,0,0,0,2-2,8.59,8.59,0,0,0,1.51-2.74,14.94,14.94,0,0,0-2.62.41,3.88,3.88,0,0,0-.93.28.52.52,0,0,1-.27.08c-.32,0-.83-.65-.83-1a.25.25,0,0,1,0-.16.86.86,0,0,0,.78.52c.36,0,1.88-.18,3-.38a1.67,1.67,0,0,0,.74-.21.24.24,0,0,1,.14,0q.12,0,.42.27c.26.23.36.37.36.49a.32.32,0,0,1-.13.23c-.13.09-.18.17-.33.47a8.92,8.92,0,0,1-3.91,4Zm-.12-7a1.19,1.19,0,0,0,1,.49,5.76,5.76,0,0,0,2-.44.41.41,0,0,1,.19,0c.25,0,.7.32.7.5s-.08.16-.34.19a15.78,15.78,0,0,1-2.3.24c-.67,0-.94-.17-1.38-.85Z"/><path class="cls-1" d="M80.83,65.72a15.38,15.38,0,0,0,3.38-2.56,5.18,5.18,0,0,0,1.47-1.86c0-.18-.14-.32-.5-.52a.45.45,0,0,1,.18,0,1.33,1.33,0,0,1,.77.27c.31.2.47.41.47.58s0,.1-.36.4c-.09.07-.09.07-.73.68a12.48,12.48,0,0,1-1.07,1c.35.27.5.4.55.51a9.23,9.23,0,0,1,.06,1.32c0,.63,0,1.21,0,1.72,0,.2,0,.46,0,.51,0,.32-.07.46-.21.46s-.61-.5-.61-.76a.7.7,0,0,1,0-.24A12.33,12.33,0,0,0,84.5,65a5,5,0,0,0,0-.86c0-.09-.07-.13-.2-.27a17.9,17.9,0,0,1-1.73,1.23,10.36,10.36,0,0,1-1.62.78Z"/><path class="cls-1" d="M91.82,60.73a1.7,1.7,0,0,1,.66.15c.38.15.6.33.6.5s0,.06,0,.2a6.56,6.56,0,0,0-.17,2A8.18,8.18,0,0,1,95,64c.41.19.56.37.56.7s-.08.41-.22.41-.1,0-.33-.22a5.23,5.23,0,0,0-2.12-1.17c0,.57,0,.85,0,1.12v1.31c0,.27,0,.27,0,1,0,.19,0,.34,0,.48a.63.63,0,0,1,0,.3.2.2,0,0,1-.17.08c-.21,0-.57-.48-.57-.78a.81.81,0,0,1,0-.25,19.26,19.26,0,0,0,.19-3.9c0-.65,0-1.3-.06-1.55a.93.93,0,0,0-.69-.8A.4.4,0,0,1,91.82,60.73Z"/><path class="cls-1" d="M99.09,62.75a1.53,1.53,0,0,0,.93.31,5.53,5.53,0,0,0,1.55-.34,4.69,4.69,0,0,0-.46-1.39c-.15-.21-.3-.28-.73-.31a.59.59,0,0,1,.52-.17,3,3,0,0,1,.73.09c.22.06.35.17.35.31a.34.34,0,0,1,0,.09,1,1,0,0,0,0,.28,5.39,5.39,0,0,0,.1,1A5.05,5.05,0,0,0,103.4,62c.12-.1.15-.1.23-.1a1.1,1.1,0,0,1,.42.09c.14.05.2.12.2.2s-.12.21-.5.34c-1,.33-1.11.36-1.63.51.09.46.19,1,.31,1.43.49-.13,1.09-.31,1.38-.42a2.77,2.77,0,0,0,.57-.26.27.27,0,0,1,.18-.07c.36,0,.81.22.81.39a.15.15,0,0,1-.1.14,2.87,2.87,0,0,1-.63.09,16.48,16.48,0,0,0-2.12.48c.3,1.2.51,2,.65,2.52a2,2,0,0,1,.1.53c0,.21-.07.31-.21.31s-.67-.5-.67-.74a1.13,1.13,0,0,1,0-.13c0-.05,0-.18,0-.22a12.79,12.79,0,0,0-.34-2.12,9.87,9.87,0,0,0-1.86.73.91.91,0,0,1-.4.16c-.33,0-.95-.54-.95-.82a.52.52,0,0,1,0-.11,1,1,0,0,0,.68.33,5.51,5.51,0,0,0,1.66-.42l.77-.24c-.11-.48-.25-1.13-.33-1.44a5,5,0,0,1-1.49.31A1.6,1.6,0,0,1,99,62.86Z"/><path class="cls-1" d="M111.71,65.43a7.55,7.55,0,0,0,1.23-1.6s0,0,0,0a14,14,0,0,0-2.22.61c.2.84.65,2.56.83,3.17a.81.81,0,0,1,.06.33c0,.15-.06.23-.18.23a.76.76,0,0,1-.35-.24.57.57,0,0,1-.25-.44.34.34,0,0,1,0-.09v-.09a20.11,20.11,0,0,0-.5-2.75l-.47.17a5.46,5.46,0,0,0-.72.33.64.64,0,0,1-.27.1c-.16,0-.37-.16-.57-.43a.94.94,0,0,1-.21-.44.2.2,0,0,1,0-.13.81.81,0,0,0,.66.39,7.77,7.77,0,0,0,1.44-.35c-.33-1.3-.42-1.43-1-1.57.07-.11.14-.12.38-.12a1.94,1.94,0,0,1,.81.2.27.27,0,0,1,.13.22s0,0,0,.12a.88.88,0,0,0,0,.17,4.8,4.8,0,0,0,.12.87l.62-.18.92-.27a2,2,0,0,0,.72-.29.47.47,0,0,1,.16,0c.11,0,.3.12.58.36s.26.26.26.36,0,.13-.28.21-.09,0-1,.72c-.28.22-.49.37-.84.61Z"/><path class="cls-1" d="M116.86,61.83a5,5,0,0,1,1.73.67.69.69,0,0,1,.31.61c0,.3-.1.51-.25.51s-.15,0-.39-.36a4.5,4.5,0,0,0-1.47-1.32Zm6.4.51a9.25,9.25,0,0,1-1.89,2.42,18.09,18.09,0,0,1-2.53,2c-.43.3-.47.34-.53.42s-.2.22-.32.22c-.37,0-1-.87-1-1.33a.54.54,0,0,1,0-.18,1.36,1.36,0,0,0,.33.4.6.6,0,0,0,.36.19,2.28,2.28,0,0,0,.87-.38,13.07,13.07,0,0,0,2.15-1.49,14.11,14.11,0,0,0,2.42-2.4Z"/><path class="cls-1" d="M124.43,66.77a9.48,9.48,0,0,0,2.21-2.49,1.94,1.94,0,0,0,.37-.9c0-.14-.13-.28-.45-.51a.54.54,0,0,1,.2,0,1.72,1.72,0,0,1,.74.3c.3.21.43.34.43.49s0,.12-.11.2a1.73,1.73,0,0,0-.38.41,8.7,8.7,0,0,1-1.89,2,5.1,5.1,0,0,1-1,.66Zm4.82-3.95a8.09,8.09,0,0,1,2.37,2.1,1.46,1.46,0,0,1,.38,1c0,.37-.15.66-.35.66s-.16-.06-.29-.42a8,8,0,0,0-2.21-3.19Zm3-.89a1,1,0,0,1-1,1,1,1,0,0,1-1-1,1,1,0,0,1,2,0Zm-1.68,0a.71.71,0,0,0,.7.69.69.69,0,0,0,0-1.38A.69.69,0,0,0,130.57,61.93Z"/><path class="cls-1" d="M133.77,67.52a13,13,0,0,0,2.42-2,15.41,15.41,0,0,0,1.72-2.24,5.65,5.65,0,0,0,.61-1.16,10,10,0,0,0-1.9.4,4.45,4.45,0,0,0-.75.24.41.41,0,0,1-.16,0c-.2,0-.39-.16-.58-.52a1,1,0,0,1-.19-.54.38.38,0,0,1,.06-.17c.26.46.45.6.85.6a15.45,15.45,0,0,0,1.89-.25,2.24,2.24,0,0,0,.84-.26.4.4,0,0,1,.21-.08c.19,0,.7.46.7.63a.19.19,0,0,1-.11.17c-.19.13-.19.13-.52.62-.43.64-.43.64-1.13,1.56a9.08,9.08,0,0,1,2.33,1.52,1.24,1.24,0,0,1,.34.9c0,.28-.09.46-.24.46a.28.28,0,0,1-.21-.14l-.21-.36a7.71,7.71,0,0,0-2.15-2.21,9.44,9.44,0,0,1-2.18,2,7.59,7.59,0,0,1-1.57.88Z"/><path class="cls-1" d="M143.58,67.32a.77.77,0,0,0,.56-.14c.1-.1.1-.11.12-.79V62.15a3.41,3.41,0,0,0,0-.66c-.07-.19-.23-.27-.64-.27V61H146a4.33,4.33,0,0,1,1.65.26,1.28,1.28,0,0,1,.78,1.25c0,.86-.55,1.33-1.69,1.48v.06a2.35,2.35,0,0,1,1,.24,1.66,1.66,0,0,1-.31,3.07,6,6,0,0,1-1.52.17h-2.41ZM146,63.9c1.08,0,1.64-.46,1.64-1.34s-.56-1.28-1.72-1.28h-.83V63.9Zm0,3.36a2.15,2.15,0,0,0,1.41-.36,1.52,1.52,0,0,0,.45-1.2,1.36,1.36,0,0,0-.67-1.29,2.88,2.88,0,0,0-1.19-.21h-.88v3.06Z"/><path class="cls-1" d="M151.52,67.27a1.38,1.38,0,0,0,.59-.09c.2-.09.24-.28.24-.92V62.47c0-.79,0-.79-.09-.85s-.18-.08-.4-.08h-.34v-.26a10.62,10.62,0,0,0,1.71-.24c0,.71-.08,1.48-.08,2.54v2.68c0,.6,0,.78.17.89s.14.1.65.12v.27h-2.45Z"/><path class="cls-1" d="M158.55,64.41a.82.82,0,0,1-.81.83.83.83,0,1,1,0-1.65A.82.82,0,0,1,158.55,64.41Z"/><path class="cls-1" d="M161.49,67.27a1.34,1.34,0,0,0,.59-.09c.2-.09.24-.28.24-.92V62.47c0-.79,0-.79-.09-.85s-.18-.08-.4-.08h-.34v-.26A10.62,10.62,0,0,0,163.2,61c0,.71-.07,1.48-.07,2.54v2.68c0,.6,0,.78.16.89s.14.1.66.12v.27h-2.46Z"/><path class="cls-1" d="M168.1,66.39c0,.83.06.9.77.92v.23h-2.25v-.23c.63,0,.68-.09.68-.92V62.15a3.41,3.41,0,0,0,0-.66c-.07-.19-.23-.27-.64-.27V61h4.57l.11,1.6-.29,0c-.21-1.1-.53-1.35-1.74-1.35H168.1v2.77h1c1,0,1.16-.13,1.26-.91h.25v2.11h-.25c-.13-.81-.28-.93-1.26-.93h-1Z"/></g></g></svg>