<svg xmlns="http://www.w3.org/2000/svg" viewBox="0 0 563.98 107.04"><defs><style>.cls-1{fill:#fff;}</style></defs><g id="レイヤー_2" data-name="レイヤー 2"><g id="文字"><path class="cls-1" d="M9.66,8.64h5.28l1.32-1.52c.56.48,1.22,1,2,1.64a.28.28,0,0,1,.12.18.17.17,0,0,1-.16.16H9.66V13c0,2,0,3.5.08,5.3-.06.32-.28.4-1,.42H8.52c-.3,0-.44-.12-.46-.38.08-1.08.1-2.5.1-5.34V9.1H2.68a21.18,21.18,0,0,0-2.54.1L0,8.42a18.58,18.58,0,0,0,2.68.22H8.16V3.78a43.28,43.28,0,0,1-6.7.8L1.4,4.26a58.57,58.57,0,0,0,8.3-2A14.21,14.21,0,0,0,13.64.68c1.34,1,1.82,1.36,1.82,1.5s-.1.14-.24.14a4.83,4.83,0,0,1-.88-.14A36,36,0,0,1,9.66,3.5Z"/><path class="cls-1" d="M29.26,12.82a10.05,10.05,0,0,0-.08-1.38c1.8.22,2.12.3,2.12.52s-.14.22-.74.4v.86H36c.52-.58.68-.74,1.24-1.28.8.62,1,.82,1.8,1.46a.41.41,0,0,1,.1.18c0,.06-.08.1-.2.1H30.8a10.33,10.33,0,0,0,2,1.34c2,1,3.38,1.38,7,1.76v.3c-.82.2-1.1.46-1.52,1.42a17.72,17.72,0,0,1-4.82-2.1,9.14,9.14,0,0,1-2.88-2.54v1.66c0,1.06,0,1.06.08,3,0,.32-.18.38-.94.38-.42,0-.5,0-.5-.28.06-2.08.06-2.08.06-3v-1.3a16.35,16.35,0,0,1-3.86,2.72A19.13,19.13,0,0,1,21,18.7l-.1-.26a23.63,23.63,0,0,0,4.92-2.66,16.81,16.81,0,0,0,2.44-2.1h-5a10.28,10.28,0,0,0-1.76.14l-.1-.76a7.32,7.32,0,0,0,1.86.16h6Zm0-6.64c0-.9,0-1.14-.06-1.84,1.92.28,2,.3,2,.5s-.08.18-.7.36v1h3.3c0-.74,0-1,0-1.84a8.8,8.8,0,0,1,1.9.32c.12.06.2.12.2.2s-.16.22-.78.36v1h1.32c.46-.52.6-.68,1.08-1.2.76.58,1,.76,1.72,1.4a.21.21,0,0,1,.08.16c0,.06-.06.1-.18.1h-4c0,1.54,0,1.54,0,2.6V9.3c0,.2-.2.26-.88.26-.32,0-.42,0-.42-.16V8.92h-3.3v.46c0,.22-.14.26-.9.26-.36,0-.42,0-.42-.22,0-.92,0-.92,0-2.78H26v3.92h9.62c.52-.52.68-.68,1.2-1.18a19,19,0,0,1,1.68,1.34q.12.12.12.18c0,.08-.08.12-.2.12H26v.24c0,.26-.12.3-.86.3-.44,0-.48,0-.48-.22.06-2.2.06-2.2.06-3.94V6.64H22.8a10.27,10.27,0,0,0-1.62.12L21.08,6a7.1,7.1,0,0,0,1.8.2h1.8c0-1,0-1.18-.06-1.84.54.08,1.14.16,1.58.24s.5.12.5.24-.18.26-.74.38v1ZM26.76,1.54c0-.38,0-.58,0-1.1,2.1.28,2.1.28,2.1.48s-.16.24-.8.42V2.4h4V1.64A12,12,0,0,0,32,.42c2,.28,2.16.32,2.16.52s-.24.28-.86.42v1H36c.56-.62.74-.8,1.28-1.34.82.64,1.06.84,1.86,1.52.08.08.1.12.1.16s-.08.12-.22.12H33.28v.28c0,.2,0,.46,0,.82s-.12.26-1,.26C32,4.22,32,4.18,32,4c0-.54,0-.72,0-1.14H28v1.2c0,.22-.16.26-.82.26-.42,0-.48,0-.48-.22s0-.7,0-1.24h-3.5A10.5,10.5,0,0,0,21.4,3l-.12-.74a9.34,9.34,0,0,0,2,.16h3.5Zm3.8,5.1V8.46h3.3V6.64Z"/><path class="cls-1" d="M51.72,6.8A15.93,15.93,0,0,0,54.08,12a14.12,14.12,0,0,0,4.22,3.92A9.45,9.45,0,0,0,60.92,17l0,.28c-1.12.14-1.4.36-1.82,1.34a13.07,13.07,0,0,1-3.42-2.82,17.41,17.41,0,0,1-3.22-5.24,21.42,21.42,0,0,1-1-3.38,13,13,0,0,1-2.84,7.06,15.15,15.15,0,0,1-4,3.34A15.86,15.86,0,0,1,42,18.76l-.16-.28a19.13,19.13,0,0,0,3.7-2.54A13.59,13.59,0,0,0,50.06,6.8h-5.8a8.91,8.91,0,0,0-1.86.14l-.12-.76a10.22,10.22,0,0,0,2.06.16h5.74c.1-1.18.16-2.72.16-3.94A8.62,8.62,0,0,0,50.14,1c2.32.22,2.48.24,2.48.48s-.26.36-.86.56c-.08,2.32-.12,3.1-.22,4.28h5.62c.48-.7.64-.92,1.16-1.58a22.54,22.54,0,0,1,2,1.68q.12.12.12.18a.2.2,0,0,1-.22.18Z"/><path class="cls-1" d="M78.44,12c.52-.66.7-.88,1.28-1.54.8.7,1,.92,1.82,1.66a.42.42,0,0,1,.08.2c0,.08-.1.14-.24.14H73.16v2.34c0,.86,0,1.44,0,2.7a1.14,1.14,0,0,1-.72,1.14,4.44,4.44,0,0,1-1.74.44c-.22-1.08-.34-1.14-3.14-1.58v-.3c1.52.12,1.66.12,3.78.22.26,0,.32-.06.32-.28V12.42H65a14.53,14.53,0,0,0-1.64.08l-.12-.7a8.22,8.22,0,0,0,1.72.16h6.74v-.34c0-.4,0-.52,0-1.64.4.06.9.14,1.52.26a12.54,12.54,0,0,0,2.12-2.4h-7a8.87,8.87,0,0,0-1.44.1l-.12-.7a8.47,8.47,0,0,0,1.54.14h7.18c.38-.4.5-.52.88-.9.62.46.82.6,1.4,1.06.18.14.26.24.26.34s-.24.26-1,.32a22.12,22.12,0,0,1-3.26,2.16c.18.06.26.12.26.22s-.2.24-.78.36v1Zm.3-7.06c.42-.46.54-.6,1-1,.72.48.94.62,1.64,1.16.2.14.28.24.28.34s-.34.36-1.24.38c-.4.42-.4.42-1,1.1-.38.42-.38.42-.8.84l-.2-.08A11.8,11.8,0,0,0,79,5.36H65.9A4.54,4.54,0,0,1,65,8a1.41,1.41,0,0,1-.88.62c-.14,0-.28-.1-.36-.32a2.4,2.4,0,0,1-.22-.82c0-.28.1-.42.6-.8a4,4,0,0,0,1.4-2.94h.38c0,.6,0,.72,0,1.14h9a17.55,17.55,0,0,0,2.16-4c1.9.74,2.1.84,2.1,1s-.24.3-.56.3l-.44,0A23.27,23.27,0,0,1,75.46,4.9ZM67,1.14a13,13,0,0,1,1.9,1.42,1.16,1.16,0,0,1,.48.84A2.15,2.15,0,0,1,69,4.54a.38.38,0,0,1-.3.16c-.2,0-.28-.12-.48-.68A9.69,9.69,0,0,0,66.82,1.3ZM71.1.68c1.72,1.26,2.44,2,2.44,2.52a2.59,2.59,0,0,1-.38,1.1.5.5,0,0,1-.42.26c-.24,0-.3-.1-.5-.82A7.53,7.53,0,0,0,70.88.86Z"/><path class="cls-1" d="M94.08,16.4h5.3a17.53,17.53,0,0,1,1.32-1.64c.92.76,1.18,1,2.06,1.8a.62.62,0,0,1,.08.18q0,.12-.24.12l-15.46,0c-1.84,0-1.84,0-2.48.1l-.1-.78a11.83,11.83,0,0,0,2.58.2h5.52V3.6h-4.8a12.53,12.53,0,0,0-1.92.12L85.78,3a12,12,0,0,0,2.08.18h10.5c.56-.66.74-.84,1.28-1.44a21.22,21.22,0,0,1,1.88,1.7.18.18,0,0,1,.06.1c0,.06-.08.1-.2.1h-7.3Z"/><path class="cls-1" d="M120.76,12c.52-.66.7-.88,1.28-1.54.8.7,1,.92,1.82,1.66a.42.42,0,0,1,.08.2c0,.08-.1.14-.24.14h-8.22v2.34c0,.86,0,1.44,0,2.7a1.14,1.14,0,0,1-.72,1.14A4.44,4.44,0,0,1,113,19c-.22-1.08-.34-1.14-3.14-1.58v-.3c1.52.12,1.66.12,3.78.22.26,0,.32-.06.32-.28V12.42h-6.7a14.53,14.53,0,0,0-1.64.08l-.12-.7a8.22,8.22,0,0,0,1.72.16H114v-.34c0-.4,0-.52,0-1.64.4.06.9.14,1.52.26a12.54,12.54,0,0,0,2.12-2.4h-7a8.87,8.87,0,0,0-1.44.1l-.12-.7a8.47,8.47,0,0,0,1.54.14h7.18c.38-.4.5-.52.88-.9.62.46.82.6,1.4,1.06.18.14.26.24.26.34s-.24.26-1,.32A22.12,22.12,0,0,1,116,10.36c.18.06.26.12.26.22s-.2.24-.78.36v1Zm.3-7.06c.42-.46.54-.6,1-1,.72.48.94.62,1.64,1.16.2.14.28.24.28.34s-.34.36-1.24.38c-.4.42-.4.42-1,1.1-.38.42-.38.42-.8.84l-.2-.08a11.8,11.8,0,0,0,.56-2.26H108.22A4.54,4.54,0,0,1,107.34,8a1.41,1.41,0,0,1-.88.62c-.14,0-.28-.1-.36-.32a2.4,2.4,0,0,1-.22-.82c0-.28.1-.42.6-.8a4,4,0,0,0,1.4-2.94h.38c0,.6,0,.72,0,1.14h9a17.55,17.55,0,0,0,2.16-4c1.9.74,2.1.84,2.1,1s-.24.3-.56.3l-.44,0a23.27,23.27,0,0,1-2.76,2.68ZM109.34,1.14a13,13,0,0,1,1.9,1.42,1.16,1.16,0,0,1,.48.84,2.15,2.15,0,0,1-.42,1.14.38.38,0,0,1-.3.16c-.2,0-.28-.12-.48-.68a9.69,9.69,0,0,0-1.38-2.72Zm4.08-.46c1.72,1.26,2.44,2,2.44,2.52a2.59,2.59,0,0,1-.38,1.1.5.5,0,0,1-.42.26c-.24,0-.3-.1-.5-.82A7.53,7.53,0,0,0,113.2.86Z"/><path class="cls-1" d="M135.44,8.76l1-1.26c.72.6.92.78,1.6,1.42a.41.41,0,0,1,.1.18c0,.06-.08.12-.2.12h-9.68a9.36,9.36,0,0,0-1.4.1l-.14-.72a7.51,7.51,0,0,0,1.56.16h4.54a20.78,20.78,0,0,0,1.42-4.44c1.92.5,2.1.58,2.1.76s-.28.28-.9.32a23.88,23.88,0,0,1-2.18,3.36Zm-.34-5.4c.48-.52.62-.68,1.08-1.2a19.4,19.4,0,0,1,1.48,1.34.57.57,0,0,1,.12.2q0,.12-.24.12H129a9.3,9.3,0,0,0-1.56.1l-.12-.72a9.93,9.93,0,0,0,1.68.16h2.6V2.16A14.19,14.19,0,0,0,131.5.68c1.88.16,2.14.22,2.14.44s-.22.3-.74.46V3.36Zm-5.22,14.82c0,.28-.2.34-1,.34-.38,0-.46,0-.46-.26.08-1.66.1-3.1.1-5.24,0-.7,0-.7-.06-2.5.66.4.86.52,1.48,1h4.64c.28-.38.38-.5.66-.86l1.18.88a.34.34,0,0,1,.16.26c0,.14-.16.26-.58.42v4c0,.4,0,1,0,1.78,0,.26-.24.34-1,.34-.34,0-.4,0-.4-.24v-.94h-4.78ZM128.72,4.3c1.6,1.22,2.38,2.1,2.38,2.7s-.58,1.34-.94,1.34c-.1,0-.18-.1-.2-.28a8.48,8.48,0,0,0-1.42-3.58Zm1.16,12.36h4.78V11.94h-4.78Zm9.72-1.5c0,.16,0,.7,0,1.48v2a.28.28,0,0,1-.12.26,3.13,3.13,0,0,1-.94.12c-.32,0-.38,0-.4-.26.1-3.12.16-8.68.16-12.94,0-2.4,0-3.1-.1-4.48.66.36.86.48,1.5.86h3.1l.72-1c.62.48.82.62,1.4,1.1.12.12.18.2.18.28s-.22.28-.72.38a32.58,32.58,0,0,1-3.06,5.2,9.15,9.15,0,0,1,2.24,2.06,4.69,4.69,0,0,1,1.08,3.14,3.24,3.24,0,0,1-.82,2.46,3.24,3.24,0,0,1-1.92.86c-.08-.82-.46-1.12-1.92-1.52l0-.3.9.1c.82.08,1.18.1,1.38.1a.81.81,0,0,0,.66-.2,2.81,2.81,0,0,0,.32-1.72,4.62,4.62,0,0,0-.54-2.46,8.49,8.49,0,0,0-1.92-2.4,32.75,32.75,0,0,0,2-5.64H139.6Z"/><path class="cls-1" d="M147.84,18a25.15,25.15,0,0,0,.84-6.44c1.76.22,1.8.24,1.8.42s-.12.18-.56.34a15.86,15.86,0,0,1-1.78,5.82Zm.24-14.38a11.74,11.74,0,0,1,1.32.86A16.46,16.46,0,0,0,151,.66c1.88.6,2,.68,2,.84s-.28.3-.9.3a19.63,19.63,0,0,1-2.38,2.92c.72.54,1,.9,1,1.38s-.3,1.1-.58,1.1c-.12,0-.22-.1-.32-.38a12.58,12.58,0,0,0-1.9-3ZM151,9.88c-.94.22-1.26.28-2.2.46-.12.44-.22.64-.38.64s-.24-.22-.5-1.82h.62c.36,0,.76,0,1.24,0a26.9,26.9,0,0,0,1.6-2.44,21.65,21.65,0,0,0,1.8-3.62l1.06.42.6.24c.22.08.32.16.32.26s-.24.28-.9.28h-.08a28.21,28.21,0,0,1-3.84,4.82c1.64-.12,1.84-.14,3.2-.28a11.84,11.84,0,0,0-.72-1.66L153,7c1.2,1.16,1.86,2.1,1.86,2.68s-.36,1.12-.7,1.12c-.12,0-.2-.1-.24-.32a10.72,10.72,0,0,0-.26-1.24l-1.44.36v4.56c0,1.4,0,2,0,4.36v.08c0,.26-.18.32-.88.32-.38,0-.48,0-.48-.22v0c.08-2.44.08-2.82.08-4.38Zm2.06,1a5.53,5.53,0,0,1,1.4,2.78c0,.64-.42,1.42-.76,1.42-.16,0-.24-.2-.26-.66a15.26,15.26,0,0,0-.6-3.44Zm2.82,2c-.08,2.14-.2,2.84-.68,3.76-.32.6-.66,1-.92,1s-.54-.42-.54-1.1c0-.42,0-.46.56-1a4.54,4.54,0,0,0,1.22-2.68ZM154.3,7.6a21.72,21.72,0,0,0,2.12-4,11.78,11.78,0,0,0,.7-2.54c1.58.54,1.8.64,1.8.82s-.1.18-.66.28a16.64,16.64,0,0,1-3.74,5.72Zm6.64-1.3a28,28,0,0,1,2.48,2.06,1.53,1.53,0,0,1,.58,1.2c0,.66-.34,1.32-.66,1.32-.16,0-.26-.12-.34-.4a9.05,9.05,0,0,0-.58-1.34c-.72.16-1,.22-1.84.38l-2.94.54-1.2.22c-.1.36-.24.56-.38.56s-.16,0-.56-1.8c.52,0,.74,0,1.12,0s.4,0,.68,0A23.74,23.74,0,0,0,159,3.94c1.7.38,2,.48,2,.66s-.24.28-.86.32A20.53,20.53,0,0,1,157.8,9c1.58-.08,2.76-.16,4.4-.32a21.26,21.26,0,0,0-1.46-2.22ZM157,13.8a14.73,14.73,0,0,0-.1-1.9c.46.06.8.12,1,.14.82.1,1,.18,1,.36s-.22.28-.74.4v4c0,.16,0,.24.08.28s.1.08,1.8.08,1.76,0,1.94-.3a16.56,16.56,0,0,0,.8-2.7l.3,0L163,16.32v.1c0,.38,0,.42.48.56a.43.43,0,0,1,.36.44c0,.34-.2.56-.6.68a17.24,17.24,0,0,1-3.1.16c-3.12,0-3.16,0-3.18-1l0-2Zm1.62-3.14A16.81,16.81,0,0,1,160.88,12a1.23,1.23,0,0,1,.54.92c0,.56-.3,1.2-.56,1.2s-.24-.1-.36-.4a9.41,9.41,0,0,0-2-2.88Zm3-9.86a.9.9,0,0,0,0,.28,6.24,6.24,0,0,0,1.24,2.6,7.82,7.82,0,0,0,3.7,2.72v.28A1.56,1.56,0,0,0,165.32,8a9,9,0,0,1-2.46-2.7,16.5,16.5,0,0,1-1.6-3.44A2.3,2.3,0,0,0,160.8,1Zm1.76,11.6c1.9,1.48,2.84,2.62,2.84,3.46a2.41,2.41,0,0,1-.44,1.38.47.47,0,0,1-.32.14c-.22,0-.24,0-.42-.74a11.62,11.62,0,0,0-1.92-4Z"/><path class="cls-1" d="M168.82,10.38A24.92,24.92,0,0,0,174.46,5a20.78,20.78,0,0,0,2.2-3.3,6.52,6.52,0,0,0,.36-1c.46.08.8.16,1,.2,1.1.22,1.34.3,1.34.48s-.24.28-.78.38a14.54,14.54,0,0,0,4.12,4.34,15.43,15.43,0,0,0,5.18,2.48l0,.28c-.84.1-1.16.38-1.58,1.32A14.66,14.66,0,0,1,181.88,7a19.38,19.38,0,0,1-3.58-5,23.61,23.61,0,0,1-4.52,5.42A20.14,20.14,0,0,1,169,10.68Zm4.94,7.88c0,.18,0,.24-.12.28a4.22,4.22,0,0,1-1,.12c-.22,0-.28-.06-.28-.28,0-3.12.06-4.1.06-4.92,0-1.58,0-2.32-.06-3.08a13.73,13.73,0,0,1,1.6,1H182a12.21,12.21,0,0,1,.82-1c.56.42.74.56,1.28,1,.16.14.2.2.2.28s-.18.26-.66.42c0,2.92,0,2.92.08,6v.08c0,.16,0,.22-.18.26a5,5,0,0,1-1,.14q-.3,0-.3-.24v-.94h-8.46Zm0-10.42a8.93,8.93,0,0,0,1.48.16h4.18c.46-.5.6-.68,1.06-1.2.72.56,1,.72,1.68,1.32.1.1.16.18.16.24s0,.1-.26.1h-6.82a7.54,7.54,0,0,0-1.32.12Zm0,9.12h8.46v-5.1h-8.46Z"/><path class="cls-1" d="M199.88,16.4h5.3a17.53,17.53,0,0,1,1.32-1.64c.92.76,1.18,1,2.06,1.8a.62.62,0,0,1,.08.18q0,.12-.24.12l-15.46,0c-1.84,0-1.84,0-2.48.1l-.1-.78a11.83,11.83,0,0,0,2.58.2h5.52V3.6h-4.8a12.53,12.53,0,0,0-1.92.12L191.58,3a12,12,0,0,0,2.08.18h10.5c.56-.66.74-.84,1.28-1.44a21.22,21.22,0,0,1,1.88,1.7.18.18,0,0,1,.06.1c0,.06-.08.1-.2.1h-7.3Z"/><path class="cls-1" d="M226.56,12c.52-.66.7-.88,1.28-1.54.8.7,1,.92,1.82,1.66a.42.42,0,0,1,.08.2c0,.08-.1.14-.24.14h-8.22v2.34c0,.86,0,1.44,0,2.7a1.14,1.14,0,0,1-.72,1.14,4.44,4.44,0,0,1-1.74.44c-.22-1.08-.34-1.14-3.14-1.58v-.3c1.52.12,1.66.12,3.78.22.26,0,.32-.06.32-.28V12.42h-6.7a14.53,14.53,0,0,0-1.64.08l-.12-.7a8.22,8.22,0,0,0,1.72.16h6.74v-.34c0-.4,0-.52,0-1.64.4.06.9.14,1.52.26a12.54,12.54,0,0,0,2.12-2.4h-7a8.87,8.87,0,0,0-1.44.1l-.12-.7a8.47,8.47,0,0,0,1.54.14h7.18c.38-.4.5-.52.88-.9.62.46.82.6,1.4,1.06.18.14.26.24.26.34s-.24.26-1,.32a22.12,22.12,0,0,1-3.26,2.16c.18.06.26.12.26.22s-.2.24-.78.36v1Zm.3-7.06c.42-.46.54-.6,1-1,.72.48.94.62,1.64,1.16.2.14.28.24.28.34s-.34.36-1.24.38c-.4.42-.4.42-1,1.1-.38.42-.38.42-.8.84l-.2-.08a11.8,11.8,0,0,0,.56-2.26H214A4.54,4.54,0,0,1,213.14,8a1.41,1.41,0,0,1-.88.62c-.14,0-.28-.1-.36-.32a2.4,2.4,0,0,1-.22-.82c0-.28.1-.42.6-.8a4,4,0,0,0,1.4-2.94h.38c0,.6,0,.72,0,1.14h9a17.55,17.55,0,0,0,2.16-4c1.9.74,2.1.84,2.1,1s-.24.3-.56.3l-.44,0a23.27,23.27,0,0,1-2.76,2.68ZM215.14,1.14A13,13,0,0,1,217,2.56a1.16,1.16,0,0,1,.48.84,2.15,2.15,0,0,1-.42,1.14.38.38,0,0,1-.3.16c-.2,0-.28-.12-.48-.68a9.69,9.69,0,0,0-1.38-2.72Zm4.08-.46c1.72,1.26,2.44,2,2.44,2.52a2.59,2.59,0,0,1-.38,1.1.5.5,0,0,1-.42.26c-.24,0-.3-.1-.5-.82A7.53,7.53,0,0,0,219,.86Z"/><path class="cls-1" d="M237.64,6.44h.68c.44-.5.56-.64,1-1.08a11.7,11.7,0,0,1,1.42,1.18c.08.1.12.16.12.2s-.1.16-.24.16h-3V8.16a9.5,9.5,0,0,1,1.8,1.06c.7.52.9.8.9,1.26,0,.68-.32,1.28-.66,1.28-.18,0-.22-.06-.48-.68a5.79,5.79,0,0,0-1.56-2.46v3.76c0,1.6,0,1.64,0,6.14,0,.16-.06.22-.22.28a5.11,5.11,0,0,1-.94.08c-.22,0-.3-.08-.3-.26.1-2.7.1-2.7.18-6.24l.14-3.4a19.18,19.18,0,0,1-3.62,5.68l-.2-.16a25.89,25.89,0,0,0,2.18-4.18,19.43,19.43,0,0,0,1.22-3.42h-1.78A6.06,6.06,0,0,0,233,7l-.14-.78a5.41,5.41,0,0,0,1.54.2h1.9V3a19.8,19.8,0,0,1-3,.48l-.08-.3a17.32,17.32,0,0,0,3.56-1.32A9.92,9.92,0,0,0,238.9.72c1.16.74,1.74,1.18,1.74,1.34s-.12.18-.24.18a4,4,0,0,1-.86-.18c-.92.34-1.24.44-1.9.64Zm11,5.32c.4-.7.52-.9.92-1.52a15.09,15.09,0,0,1,1.68,1.06q.18.15.18.24s-.06.1-.16.12l-3.14.66c0,4,0,4,.1,6.14,0,.16-.06.22-.22.28a3.46,3.46,0,0,1-.94.12c-.28,0-.36,0-.36-.22,0-2.08,0-2.36,0-4.72v-1.3l-6.1,1.3a4.9,4.9,0,0,0-1.16.38l-.3-.76h.2a6.43,6.43,0,0,0,1.16-.1l6.2-1.28V7.42c0-4.52,0-5.42,0-6.4,2,.22,2.26.28,2.26.48s-.24.26-.86.4l0,10Zm-7.68-4.08a21.68,21.68,0,0,1,2.76,1.24c.64.36.86.68.86,1.2,0,.72-.2,1.18-.48,1.18-.12,0-.24-.08-.4-.32a18.24,18.24,0,0,0-2.84-3.08Zm.62-4.74A12.08,12.08,0,0,1,244.3,4.2c.66.44.84.66.84,1.14,0,.64-.24,1.2-.52,1.2-.12,0-.22-.1-.42-.38A12.6,12.6,0,0,0,243.28,5a11.21,11.21,0,0,0-1.84-1.8Z"/><path class="cls-1" d="M258.7,18.26a14.33,14.33,0,0,0,2.9-4.72,13.65,13.65,0,0,0,1-4.08,1,1,0,0,0-.52-1,16.44,16.44,0,0,0-4.44,1.26,1.26,1.26,0,0,1-.62.2,1.85,1.85,0,0,1-1.26-.76A2,2,0,0,1,255,8a1.16,1.16,0,0,1,.08-.38,1.89,1.89,0,0,0,1.64.92A20.7,20.7,0,0,0,260.18,8c1.62-.26,2.44-.36,6.16-.74a9.78,9.78,0,0,0,1.56-.34,1.13,1.13,0,0,1,.5-.1,2.53,2.53,0,0,1,1.06.3c.56.26.94.64.94.92s-.22.4-.56.4a1.89,1.89,0,0,1-.5-.06,18.9,18.9,0,0,0-3.22-.26,24.49,24.49,0,0,0-3.28.2c.92.5,1.32.92,1.32,1.38a12.26,12.26,0,0,1-1.28,3.92,11.8,11.8,0,0,1-4,4.86Zm-.38-15.44a3.26,3.26,0,0,0,2.4,1.08,11,11,0,0,0,4.2-1,1.18,1.18,0,0,1,.6-.16c.52,0,1.36.64,1.36,1s-.24.36-1,.54a28.19,28.19,0,0,1-4.58.52A3.41,3.41,0,0,1,258,3Zm9.16-1.36a8.42,8.42,0,0,1,1.78,1.24c.72.64,1,1.1,1,1.58s-.28.84-.62.84-.26,0-.9-1.3a8.8,8.8,0,0,0-1.52-2.1ZM269.54.3a8.26,8.26,0,0,1,1.9,1.14c.78.58,1,1,1,1.54s-.2.82-.5.82-.3-.1-.46-.38a10.24,10.24,0,0,0-2.2-2.86Z"/><path class="cls-1" d="M281,18.24a10.47,10.47,0,0,0,3.82-4.08c.7-1.32,1-3.38,1.12-6.42a27.76,27.76,0,0,0-4.46.62c0,.52,0,1.5,0,3,0,0,0,.32,0,.74a5.07,5.07,0,0,1,0,.52c0,.7-.18,1.1-.52,1.1s-1-1-1-1.6a1,1,0,0,1,.1-.42c.24-.64.26-1,.3-3.08a10.12,10.12,0,0,0-2.58.76,2.08,2.08,0,0,1-.66.2c-.64,0-1.88-1.36-1.88-2.08a.65.65,0,0,1,.06-.2,2.16,2.16,0,0,0,1.66.94,16.87,16.87,0,0,0,2.2-.3l1.16-.18c-.08-2.84-.26-3.3-1.5-4a.47.47,0,0,1,.44-.16,3.86,3.86,0,0,1,1.7.62c.48.3.7.6.7.92a1.57,1.57,0,0,1-.08.44,8.83,8.83,0,0,0-.18,2c1.08-.14,1.54-.2,2.28-.28L286,7V5.72c0-1.58-.08-2.24-.32-2.56a2.33,2.33,0,0,0-1.28-.74,1.12,1.12,0,0,1,.66-.2,4.48,4.48,0,0,1,1.88.5c.54.26.74.46.74.74a.84.84,0,0,1-.08.36,7.85,7.85,0,0,0-.4,3.06,7,7,0,0,0,2.42-.4,1.06,1.06,0,0,1,.52-.14c.64,0,1.84.76,1.84,1.18a.39.39,0,0,1-.42.34l-.36,0a21.7,21.7,0,0,0-2.8-.16c-.38,0-.72,0-1.22,0-.14,3.84-.48,5.62-1.38,7a10.28,10.28,0,0,1-4.6,3.78Zm7.38-17.08A10.2,10.2,0,0,1,290.2,2.4c.72.66,1,1.12,1,1.6s-.28.84-.62.84-.26,0-.9-1.3a8.42,8.42,0,0,0-1.52-2.1ZM290.48,0a9.11,9.11,0,0,1,1.9,1.16c.78.58,1,1,1,1.54s-.2.82-.5.82-.3-.1-.46-.4a10.16,10.16,0,0,0-2.2-2.84Z"/><path class="cls-1" d="M296.66,12.7A33.82,33.82,0,0,0,304.18,7c2-1.94,3.26-3.56,3.26-4.14,0-.38-.32-.7-1.12-1.14a.87.87,0,0,1,.4-.08,3,3,0,0,1,1.72.6c.68.46,1,.92,1,1.3,0,.18,0,.22-.8.88-.2.16-.2.16-1.62,1.52s-1.52,1.44-2.38,2.16c.78.58,1.12.88,1.22,1.12a17.76,17.76,0,0,1,.14,2.94c0,1.4.06,2.68.1,3.82,0,.44,0,1,0,1.14,0,.7-.14,1-.46,1s-1.36-1.1-1.36-1.68a1.32,1.32,0,0,1,.12-.52,27.23,27.23,0,0,0,.36-4.92,9.31,9.31,0,0,0-.12-1.9c-.06-.2-.14-.3-.44-.62a38.5,38.5,0,0,1-3.84,2.74,24.53,24.53,0,0,1-3.6,1.74Z"/><path class="cls-1" d="M319.08,4.06a11.41,11.41,0,0,1,3.86,1.5,1.54,1.54,0,0,1,.68,1.36c0,.66-.22,1.12-.56,1.12s-.32-.1-.86-.8a10.36,10.36,0,0,0-3.26-2.94ZM333.3,5.2a20.8,20.8,0,0,1-4.2,5.38,39.54,39.54,0,0,1-5.62,4.56c-.94.66-1,.74-1.18.92-.32.38-.44.48-.7.48-.82,0-2.34-1.92-2.34-2.94a1,1,0,0,1,.1-.4,3,3,0,0,0,.72.88,1.3,1.3,0,0,0,.8.42,5,5,0,0,0,1.94-.84,29,29,0,0,0,4.78-3.3A31.64,31.64,0,0,0,333,5Z"/><path class="cls-1" d="M341.64,5.78a1.72,1.72,0,0,0,1.14.32,9.91,9.91,0,0,0,1.4-.1c5.46-.64,5.46-.64,5.92-.84a1.1,1.1,0,0,1,.38-.12,2.63,2.63,0,0,1,1.16.74q.72.63.72,1c0,.14-.06.22-.2.36-.36.36-.44.68-1.44,6,.08.06.14.12.18.14.54.46.7.68.7,1s-.16.32-.44.32a2.77,2.77,0,0,1-.52-.06,9.51,9.51,0,0,0-1.76-.14,19.57,19.57,0,0,0-6.44,1,1.07,1.07,0,0,1-.4.1c-.66,0-1.86-1.52-1.86-2.34a.81.81,0,0,1,.1-.36c.64.88,1.14,1.22,1.86,1.22.2,0,.68,0,1-.08l2.84-.28c1.74-.18,1.76-.18,3.42-.28.2-1,.32-1.78.54-3.66.1-.82.28-2.76.28-3s-.14-.36-.56-.36-1.86.14-2.68.24a23.13,23.13,0,0,0-4.12.94,1.16,1.16,0,0,1-.38.06q-.6,0-1.32-1.08a2.74,2.74,0,0,1-.5-1.22.75.75,0,0,1,.1-.34A2.89,2.89,0,0,0,341.64,5.78Z"/><path class="cls-1" d="M359.88,8.74a2.67,2.67,0,0,0,1.94.48l2.46-.06c.78,0,7.14-.12,7.8-.12a7.94,7.94,0,0,1,2.6.18.42.42,0,0,1,.28.4.59.59,0,0,1-.46.54c-.54.18-1,.2-4.8.24-1.86,0-6.44.14-7.14.18-.94.06-1.12.08-1.44.26a1.59,1.59,0,0,1-.3.06q-.45,0-1-.66a3.59,3.59,0,0,1-.76-1.84c0-.28,0-.32.16-.46A1.79,1.79,0,0,0,359.88,8.74Z"/><path class="cls-1" d="M379.74,16.7a28.9,28.9,0,0,0,5.38-4.38,35.56,35.56,0,0,0,3.82-5,13.43,13.43,0,0,0,1.36-2.58,21.35,21.35,0,0,0-4.22.88,10.44,10.44,0,0,0-1.68.54.93.93,0,0,1-.34.06c-.44,0-.86-.36-1.3-1.14a2.47,2.47,0,0,1-.42-1.2.8.8,0,0,1,.14-.4c.58,1,1,1.34,1.88,1.34a31.8,31.8,0,0,0,4.2-.56,5.18,5.18,0,0,0,1.88-.56.79.79,0,0,1,.46-.18c.42,0,1.56,1,1.56,1.4a.46.46,0,0,1-.26.38c-.42.28-.42.28-1.14,1.36-1,1.44-1,1.44-2.52,3.48,2.82,1.48,4.4,2.5,5.18,3.38a2.65,2.65,0,0,1,.76,2c0,.64-.2,1-.54,1a.63.63,0,0,1-.46-.32,6,6,0,0,1-.48-.8,17.14,17.14,0,0,0-4.76-4.9A21.75,21.75,0,0,1,383.4,15a17.76,17.76,0,0,1-3.5,2Z"/><path class="cls-1" d="M415.06,12.34c.48-.64.64-.86,1.18-1.52.86.66,1.12.86,1.92,1.56a.38.38,0,0,1,.14.24c0,.1-.12.18-.26.18h-8.56c0,2.74,0,3.86.06,5.68,0,.3-.2.4-.7.4l-.4,0h-.08c-.28,0-.36,0-.4-.2.08-1.9.1-3.16.1-4.88,0-.2,0-.6,0-1h-5.92a17.31,17.31,0,0,0-2,.18l-.18-.86a19.76,19.76,0,0,0,2.22.22H408v-.56c0-.4,0-.82-.12-1.74.56.06.82.1,1.16.16a12.79,12.79,0,0,0,1.7-2.78A14.59,14.59,0,0,0,411.9,4.3c2.24.6,2.24.6,2.24.78s-.22.3-.9.4a15.17,15.17,0,0,1-1.06,1.68,29,29,0,0,1,2.76,1.44c.88.54,1,.7,1,1.1,0,.74-.24,1.26-.58,1.26-.14,0-.26-.1-.42-.34a14.06,14.06,0,0,0-3-3.12,12.43,12.43,0,0,1-2.56,2.74l.64.1c.16.06.24.12.24.22s-.08.2-.8.46v1.32Zm-.5-9.14,1.18-1.52c.82.64,1.08.84,1.9,1.5.14.12.24.24.24.3s-.12.18-.24.18H402.38a13.52,13.52,0,0,0-1.94.18l-.2-.84c.56.08,1.82.2,2.14.2H408V2a10.51,10.51,0,0,0-.1-1.4c2,.22,2.48.34,2.48.58s0,.16-1,.54V3.2Zm-13.84,8.32a15.27,15.27,0,0,0,3-4.66,10.79,10.79,0,0,0,.82-2.62l.92.26c1.12.28,1.36.38,1.36.58s-.22.26-.94.34c-.42.88-.6,1.22-.92,1.8a12.41,12.41,0,0,1,2.18,1.4c.62.48.68.56.68,1a2.83,2.83,0,0,1-.3,1,.34.34,0,0,1-.26.14c-.18,0-.28-.1-.42-.38a11.47,11.47,0,0,0-2.06-2.92,12.9,12.9,0,0,1-3.86,4.16Z"/><path class="cls-1" d="M430.42,9.88h3.66c.44-.48.56-.64,1-1.1.68.56.9.74,1.58,1.32.06.06.08.1.08.14s-.06.1-.2.1h-6.14v1.82h5.38c.5-.54.66-.7,1.18-1.22.76.58,1,.78,1.72,1.38a.62.62,0,0,1,.08.18c0,.08-.08.12-.22.12h-7.84a11.76,11.76,0,0,0,2.34,1.84,15.75,15.75,0,0,0,4,1.58,15.18,15.18,0,0,0,2.12.34v.3c-.7.2-.9.38-1.38,1.24a16.62,16.62,0,0,1-4.42-2.24,16.27,16.27,0,0,1-3-2.84v2c0,.38,0,1.64,0,3.74,0,.3-.16.34-1.16.34-.2,0-.24-.06-.24-.24v0c0-1,.1-3.14.1-3.88V13.08a18.39,18.39,0,0,1-4.06,3.2A19.14,19.14,0,0,1,420.9,18l-.14-.32a20.62,20.62,0,0,0,5-2.9A12.14,12.14,0,0,0,428,12.62H423.6a13.72,13.72,0,0,0-2.08.16L421.4,12a9.27,9.27,0,0,0,2.2.2h5.54V10.34h-3.58a17.42,17.42,0,0,0-2,.12l-.12-.8a9.57,9.57,0,0,0,2.08.22h3.58V8h-4.72a15.3,15.3,0,0,0-1.86.1l-.14-.78a7.67,7.67,0,0,0,2,.22h3.12a1.82,1.82,0,0,1-.22-.48A7.36,7.36,0,0,0,426.18,5l.18-.24h-3a12.82,12.82,0,0,0-2,.1L421.2,4a7.74,7.74,0,0,0,2.12.26h4.28V2.42c0-.64,0-1-.06-1.8,1.74.14,2.06.2,2.06.42s-.16.24-.76.42v2.8h2V2.42c0-.86,0-1.1,0-1.78a8.23,8.23,0,0,1,1.88.24c.14,0,.2.1.2.2s-.12.22-.78.42V4.26h1.16A13.16,13.16,0,0,0,435.06.84c.6.24,1.4.58,1.76.78.14.08.18.12.18.2s-.16.22-.86.24c-1.44,1.42-1.52,1.5-2.32,2.2h2.54L437.48,3c.8.6,1,.8,1.8,1.46.08.08.1.12.1.16s-.06.1-.2.1h-6.34l1.54.88c.18.1.28.2.28.28s-.16.2-.44.2c0,0-.28,0-.44,0l-.56.46a16.28,16.28,0,0,1-1.3,1.06h3.42c.48-.48.62-.64,1.12-1.1.76.54,1,.72,1.72,1.32a.22.22,0,0,1,.06.14c0,.06-.06.1-.22.1h-7.6Zm-6.78-9c1.74.8,2.46,1.38,2.46,2S425.72,4,425.44,4s-.28-.14-.48-.62A7.82,7.82,0,0,0,423.46,1Zm2.8,3.86c1.66,1.18,2.06,1.58,2.06,2a1.15,1.15,0,0,1-.48.82h3.38a9.59,9.59,0,0,0,1.34-2.86Z"/><path class="cls-1" d="M446.3,2.68A17.75,17.75,0,0,1,444.54,8l0,0h2.66c.32-.34.44-.44.78-.76a8.3,8.3,0,0,1,1,.86c.12.12.18.18.18.24s-.1.18-.52.4c0,5.58,0,5.94.08,7.52,0,.26-.14.34-.62.34l-.42,0h-.06c-.14,0-.18,0-.22-.18v-.52H445v1.9c0,.26-.24.34-1,.34-.2,0-.3-.08-.3-.26,0-1.14.06-4,.06-5V9.4a16.08,16.08,0,0,1-2.06,3l-.18-.2A27.09,27.09,0,0,0,444.1,6.4a18.79,18.79,0,0,0,.82-3.72h-1.18a7.16,7.16,0,0,0-1.34.12l-.1-.74a5.78,5.78,0,0,0,1.44.16h3.18c.46-.54.62-.7,1.08-1.22.72.58.92.78,1.6,1.4.08.08.12.12.12.16s-.1.12-.26.12ZM445,15.48h2.36v-7H445Zm12.58-4c0,.64,0,3,.06,7-.1.26-.24.3-.86.3s-.62,0-.7-.22c.06-4,.08-6.38.08-7.08V9h-3c-.16,3-.46,4.28-1.3,5.86A9.24,9.24,0,0,1,449,18a10.37,10.37,0,0,1-1.66.94l-.16-.3a9.36,9.36,0,0,0,3.64-4.06,13.45,13.45,0,0,0,1-5.62h-1.08c-.26,0-.46,0-1.3.1l-.12-.72a6.22,6.22,0,0,0,1.52.16h1c0-.66,0-.66,0-6.24h-.4a10.74,10.74,0,0,0-1.6.1l-.14-.74a6.82,6.82,0,0,0,1.74.18h6.14c.52-.56.68-.72,1.22-1.26.74.6,1,.78,1.7,1.4a.31.31,0,0,1,.14.2c0,.08-.08.12-.3.12H457.6V8.52H458c.48-.6.64-.78,1.18-1.38.78.66,1,.86,1.8,1.56a.33.33,0,0,1,.1.18c0,.06-.06.1-.2.1H457.6Zm-1.42-2.92V2.28h-2.94V4.74c0,2.52,0,2.68,0,3.78Z"/><path class="cls-1" d="M470,11a17.1,17.1,0,0,0,.32-2.6c0-.14,0-.34,0-.58.54.06,1,.12,1.24.14.94.1,1.26.18,1.26.36s-.28.3-1,.48c-.14,1.1-.22,1.5-.36,2.18l3,0c.36-.4.48-.52.82-.94.56.42.74.54,1.26.94.14.1.2.18.2.26a.28.28,0,0,1-.12.16,1,1,0,0,1-.26.18,3.48,3.48,0,0,0-.3.22v4.72c0,.42.08.44,1.3.44s1.56-.06,1.7-.28.2-.32,1.2-4.22h.28L480.4,16v.16c0,.42,0,.46.4.6a.62.62,0,0,1,.46.58.61.61,0,0,1-.58.58,22.22,22.22,0,0,1-3.4.18c-2.42,0-2.64-.08-2.64-1V11.4l-3.28.06a8.33,8.33,0,0,1-1.88,3.78c-1.44,1.68-3.2,2.64-6.16,3.3l-.1-.24c3-1.3,4.12-2,5.24-3.54a8.37,8.37,0,0,0,1.48-3.28l-3.66,0a9.06,9.06,0,0,0-1.32.16l-.26-.74a10.59,10.59,0,0,0,1.54.12h.16Zm.78-7.6a9.71,9.71,0,0,1-.3,1.42A6.26,6.26,0,0,1,466.7,9a10.38,10.38,0,0,1-3.26.86l-.1-.3c2.56-.68,4-1.58,5-3.1a6.44,6.44,0,0,0,1-3h-3.48a4.91,4.91,0,0,1-.9,2.32,1.44,1.44,0,0,1-.9.62c-.34,0-.62-.52-.62-1.16,0-.28.06-.38.38-.58a3.64,3.64,0,0,0,1.08-1.06,6.16,6.16,0,0,0,.62-1.92h.34c0,.44.06.64.06.9,0,.1,0,.22,0,.42h5.5V1.62a9.5,9.5,0,0,0-.06-1.2c1.9.18,2.32.26,2.32.48s-.22.3-.84.52V2.94h5c.38-.46.52-.6.92-1,.72.52.94.7,1.64,1.28.14.14.2.22.2.28s-.12.18-.32.24a11,11,0,0,1-1.1.14c-.4.34-.6.48-.92.78a9.12,9.12,0,0,1-.82.66l-.2-.14A8.75,8.75,0,0,0,478,3.4h-3.54V6.72c0,.22,0,.3.2.34a18.74,18.74,0,0,0,2,.06c2.12,0,2.12,0,2.28-.28a17.26,17.26,0,0,0,1-2.4l.28,0-.18,2v.1c0,.44,0,.52.38.56s.44.18.44.38a.55.55,0,0,1-.36.48,12.39,12.39,0,0,1-3.48.26c-1.48,0-2.74,0-3.12-.1a.79.79,0,0,1-.76-.88V3.4Z"/><path class="cls-1" d="M494.18,9.8A1.83,1.83,0,1,1,492.36,8,1.83,1.83,0,0,1,494.18,9.8Z"/><path class="cls-1" d="M505.86,17.18v.06c0,.16-.1.26-.28.3a4.48,4.48,0,0,1-.74.08c-.2,0-.32-.08-.32-.24v-.1c0-2,0-2,0-6.2,0-.82,0-1.06-.06-1.76.68.36.88.48,1.52.86h2.24V7.72h-3.58a9,9,0,0,0-1.34.12l-.14-.76a12,12,0,0,0,1.58.18h3.48l0-2.66h-3a10.33,10.33,0,0,1-2,2.18l-.2-.2a15,15,0,0,0,2-3.64,11,11,0,0,0,.7-2.14c1.78.62,2,.7,2,.88s-.18.26-1,.38a16.79,16.79,0,0,1-1.22,2.08h2.68a33.25,33.25,0,0,0-.08-3.52c2.26.3,2.26.3,2.26.5s-.1.2-.9.52v2.5h2.24a12.2,12.2,0,0,1,1-1.22c.66.6.88.78,1.52,1.42a.57.57,0,0,1,.08.16c0,.06-.08.1-.22.1h-4.64V7.26h2.7A13.51,13.51,0,0,1,513.38,6c.64.58.82.78,1.44,1.42a1.09,1.09,0,0,1,.08.16c0,.08-.1.14-.2.14h-5.18l0,2.46h2.36a6.56,6.56,0,0,1,.66-.86l1.14.74c.2.14.3.22.3.3s-.2.32-.62.64v3.1c0,.52,0,.92,0,1.74a1,1,0,0,1-.46.94,3.23,3.23,0,0,1-1.28.48c-.16-.8-.46-1-1.56-1.2V15.8c.68.06.9.08,1.56.1h.1a.29.29,0,0,0,.32-.32V10.64h-2.56c.06,5.82.06,5.82.1,7.78a.3.3,0,0,1-.22.34,3.33,3.33,0,0,1-.88.1c-.26,0-.36-.08-.36-.26v-.08c.06-4.84.06-4.84.06-7.88h-2.38ZM517.62,2.44c0,.14,0,.14-.84.6,0,3.24,0,3.24,0,3.82,0,.92,0,3.62.06,7.44,0,.26-.14.32-.74.34l-.34,0h-.06c-.22,0-.3-.08-.3-.26v-.1c.08-2.36.1-3.26.1-5.24,0-2.66,0-6.24-.08-7.14C517.14,2.1,517.62,2.2,517.62,2.44Zm1.42.22a13.64,13.64,0,0,0-.12-2c1.82.22,2.28.32,2.28.5s-.14.28-.74.56V9.2l0,3.2c0,.7,0,.78,0,4.52v.14c0,.94-.5,1.24-2.44,1.54a1.15,1.15,0,0,0-.44-1,3.6,3.6,0,0,0-1.78-.56l0-.34c1.9.16,1.9.16,2.84.22h.14c.16,0,.22-.1.22-.34Z"/><path class="cls-1" d="M524.28,10.4a30.21,30.21,0,0,0,3.54-5.8,14.26,14.26,0,0,0,1.5-4.08c.92.3,2,.68,2.18.76s.14.1.14.18a.24.24,0,0,1-.1.18l-.8.18a27.57,27.57,0,0,1-3.06,5.08l1.28.2c.2,0,.24.06.24.2s-.08.22-.58.46v5.6c0,.26,0,.8,0,1.54s0,1.42,0,2c0,.34,0,.94,0,1.64,0,0,0,.08,0,.12s0,.16-.18.2a4,4,0,0,1-.94.12c-.34,0-.42,0-.42-.22V18.7c.08-1.66.12-3.2.12-5.34V7.5a19.32,19.32,0,0,1-2.72,3.08Zm11.86-2h3.22c.48-.62.62-.8,1.1-1.36a21.5,21.5,0,0,1,1.74,1.56.29.29,0,0,1,.1.16c0,.06-.08.1-.18.1h-6v3.74h3.16c.5-.62.66-.8,1.16-1.38.78.66,1,.88,1.74,1.58a.55.55,0,0,1,.08.14c0,.08-.08.12-.18.12h-6v.86c0,.26,0,.72,0,1.3,0,1.38,0,1.38.06,3.4v0c0,.28-.28.38-1.12.38-.32,0-.42-.06-.42-.3,0-1.18,0-1.18,0-2.68s0-1.74,0-2.12v-9h-1.1a21.73,21.73,0,0,1-4,5.2l-.22-.18a24.67,24.67,0,0,0,3-5.14A14.52,14.52,0,0,0,533.78.66c2.16.68,2.4.76,2.4.94a.24.24,0,0,1-.1.18,1.57,1.57,0,0,1-.44.16l-.52.12a19,19,0,0,1-1.2,2.38h5.58c.5-.68.66-.88,1.16-1.52.86.76,1.12,1,2,1.78a.34.34,0,0,1,0,.1c0,.06-.06.1-.16.1h-6.38Z"/><path class="cls-1" d="M559.66,11.58c1.32.62,1.72.86,1.72,1s-.28.26-1,.28a14.43,14.43,0,0,1-3.08,1.5,13.48,13.48,0,0,0,2.36,1.36,10,10,0,0,0,4.3,1l0,.24c-.84.2-1.14.52-1.48,1.48a12.19,12.19,0,0,1-3.68-1.72,10.23,10.23,0,0,1-4.28-5.18h-2V16.5a36.21,36.21,0,0,0,4.44-.56l0,.26a54.79,54.79,0,0,1-7.8,2c-.1.5-.2.7-.36.7s-.26-.18-.74-2.18l.52,0c.32,0,1.66-.1,2.54-.18v-5H548.4a19.49,19.49,0,0,1-.88,3.54,9.64,9.64,0,0,1-2.12,3.56l-.2-.18a11.52,11.52,0,0,0,1.38-3.62c.58-2.64.7-4.94.7-12.64,0-.62,0-.94-.06-1.68a19,19,0,0,1,1.74,1h11.32c.3-.38.4-.5.72-.88a13,13,0,0,1,1.28.86c.12.12.16.18.16.26s-.14.28-.7.66c0,1.2,0,1.2.06,3a.31.31,0,0,1-.2.24,3.46,3.46,0,0,1-.88.12c-.22,0-.3-.08-.32-.28v-.5H548.76l0,1.56a32,32,0,0,1-.28,4.5h3.74V8.2H551a15.19,15.19,0,0,0-1.84.1l-.1-.74a8.75,8.75,0,0,0,1.94.18h1.16V7a8.1,8.1,0,0,0-.1-1.46c1.8.16,2.1.22,2.1.44s-.06.16-.66.4V7.74h3.1V6.86a9.76,9.76,0,0,0-.08-1.36c1.82.2,2.06.26,2.06.46s-.12.22-.64.4V7.74h1.5c.4-.54.52-.7.92-1.22.82.56,1.08.76,1.9,1.4a.39.39,0,0,1,.08.16c0,.08-.08.12-.22.12H558v2.92h2.32c.4-.58.54-.76,1-1.34.86.6,1.12.8,2,1.48a.41.41,0,0,1,.1.18c0,.08-.1.14-.2.14Zm.74-9.52H548.8c0,.56,0,.56,0,2.54H560.4Zm-6.86,9.06h3.1V8.2h-3.1Zm1.48.46a5.46,5.46,0,0,0,2,2.58,8.32,8.32,0,0,0,2.68-2.58Z"/><path class="cls-1" d="M150.84,60.74a8.26,8.26,0,0,1,1.48-3.9c.78-1.12,1.62-1.92,4.18-4A6.24,6.24,0,0,0,158,51.28a3.3,3.3,0,0,0,.44-1.68,2.63,2.63,0,0,0-2.72-2.82,2.32,2.32,0,0,0-2.38,1.56,5.37,5.37,0,0,0-.2,1.46c0,.68-.26.86-1,.86s-1-.24-1-.82c0-2.06,2-3.6,4.68-3.6a4.8,4.8,0,0,1,3.84,1.5,3.23,3.23,0,0,1,.64,2.12c0,1.66-.74,2.68-3,4a18.59,18.59,0,0,0-3.92,2.8,5.69,5.69,0,0,0-1.64,2.54h5.78c1.44,0,1.94-.44,2.34-2.12l.6.14L160,60.74Z"/><path class="cls-1" d="M164.76,48.46a4.48,4.48,0,0,1,7.74,0,11.07,11.07,0,0,1,1.14,5.18,11.13,11.13,0,0,1-1.14,5.18A4.24,4.24,0,0,1,168.64,61a4.29,4.29,0,0,1-3.88-2.22,12.34,12.34,0,0,1,0-10.36Zm3.88,12.06c2.14,0,3.08-2.1,3.08-6.88s-.94-6.88-3.08-6.88-3.08,2.12-3.08,6.9S166.5,60.52,168.64,60.52Z"/><path class="cls-1" d="M176.68,60.74a8.26,8.26,0,0,1,1.48-3.9c.78-1.12,1.62-1.92,4.18-4a6.24,6.24,0,0,0,1.52-1.56,3.3,3.3,0,0,0,.44-1.68,2.63,2.63,0,0,0-2.72-2.82,2.32,2.32,0,0,0-2.38,1.56,5.37,5.37,0,0,0-.2,1.46c0,.68-.26.86-1,.86s-1-.24-1-.82c0-2.06,2-3.6,4.68-3.6a4.8,4.8,0,0,1,3.84,1.5,3.23,3.23,0,0,1,.64,2.12c0,1.66-.74,2.68-3,4a18.59,18.59,0,0,0-3.92,2.8,5.69,5.69,0,0,0-1.64,2.54h5.78c1.44,0,1.94-.44,2.34-2.12l.6.14-.54,3.48Z"/><path class="cls-1" d="M189.6,60.74a8.26,8.26,0,0,1,1.48-3.9c.78-1.12,1.62-1.92,4.18-4a6.24,6.24,0,0,0,1.52-1.56,3.3,3.3,0,0,0,.44-1.68,2.63,2.63,0,0,0-2.72-2.82,2.32,2.32,0,0,0-2.38,1.56,5.37,5.37,0,0,0-.2,1.46c0,.68-.26.86-1,.86s-1-.24-1-.82c0-2.06,2-3.6,4.68-3.6a4.8,4.8,0,0,1,3.84,1.5,3.23,3.23,0,0,1,.64,2.12c0,1.66-.74,2.68-3,4a18.59,18.59,0,0,0-3.92,2.8,5.69,5.69,0,0,0-1.64,2.54h5.78c1.44,0,1.94-.44,2.34-2.12l.6.14-.54,3.48Z"/><path class="cls-1" d="M206.06,59.58a1.41,1.41,0,1,1-1.4-1.4A1.37,1.37,0,0,1,206.06,59.58Z"/><path class="cls-1" d="M215.42,53.3a5.56,5.56,0,0,1,2.24.56,3.37,3.37,0,0,1,1.8,3.1c0,2.46-2,4.1-5,4.1-2.6,0-4.54-1.24-4.54-2.9,0-.64.36-.94,1.14-.94.58,0,.8.2.84.76a2.58,2.58,0,0,0,.5,1.8,2.51,2.51,0,0,0,2,.74c2,0,3.14-1.32,3.14-3.58a3.08,3.08,0,0,0-1.34-2.9,5.25,5.25,0,0,0-2.32-.48H213v-.64h.88a4.09,4.09,0,0,0,2.18-.6,2.92,2.92,0,0,0,1.14-2.54,3.85,3.85,0,0,0-.5-2,2.21,2.21,0,0,0-2.08-1c-1.5,0-2.26.78-2.36,2.38,0,.76-.22,1-.92,1s-1.06-.22-1.06-.76c0-1.7,2-3.12,4.36-3.12,2.54,0,4.4,1.48,4.4,3.5a3.16,3.16,0,0,1-1.64,2.72,6.68,6.68,0,0,1-2,.66Z"/><path class="cls-1" d="M226.42,59.58a1.41,1.41,0,1,1-1.4-1.4A1.37,1.37,0,0,1,226.42,59.58Z"/><path class="cls-1" d="M232.46,60.16a3.59,3.59,0,0,0,1.32-.2c.44-.2.54-.62.54-2.06V49.48c0-1.74,0-1.74-.2-1.88s-.4-.18-.9-.18h-.76v-.58a22.94,22.94,0,0,0,3.8-.52c-.1,1.58-.16,3.28-.16,5.64V57.9c0,1.34.08,1.74.36,2s.32.22,1.46.28v.58h-5.46Z"/><path class="cls-1" d="M253,57.14c0,2.4-1.94,3.92-5,3.92s-4.84-1.44-4.84-3.7a3.74,3.74,0,0,1,1.5-2.9,8.37,8.37,0,0,1,1.92-1,9.77,9.77,0,0,1-1.78-1.06A2.86,2.86,0,0,1,243.78,50a3.71,3.71,0,0,1,.76-2.32,4.91,4.91,0,0,1,3.7-1.44,4.39,4.39,0,0,1,3.66,1.62,3.22,3.22,0,0,1,.56,1.94,2.78,2.78,0,0,1-1.16,2.34,4.71,4.71,0,0,1-1.82.9C251.9,54,253,55.32,253,57.14Zm-7.18-2.52a3.37,3.37,0,0,0-1.16,2.6,3.21,3.21,0,0,0,3.48,3.3,3,3,0,0,0,3.26-3A2.74,2.74,0,0,0,250,55.18a12.47,12.47,0,0,0-1.84-1l-.8-.36A3.48,3.48,0,0,0,245.86,54.62ZM251,49.84a2.77,2.77,0,0,0-3-3.06,2.54,2.54,0,0,0-2.76,2.66c0,1.06.44,1.7,1.66,2.4.26.14.26.14,1.42.66.14.08.34.16.58.3A3,3,0,0,0,251,49.84Z"/><path class="cls-1" d="M261.94,46.12a14.88,14.88,0,0,0-2.58,9,15,15,0,0,0,2.58,9l-.4.32a12.23,12.23,0,0,1-2.26-3.2,14.62,14.62,0,0,1-1.52-6.14,14.75,14.75,0,0,1,1.76-6.6,12.7,12.7,0,0,1,2-2.72Z"/><path class="cls-1" d="M268.68,58.2c0,1.84.12,2,1.7,2v.5h-5v-.5c1.4,0,1.52-.2,1.52-2V48.78a5.43,5.43,0,0,0-.1-1.48c-.14-.42-.5-.58-1.42-.58v-.48h10.16l.24,3.56-.64,0c-.46-2.44-1.18-3-3.86-3h-2.6V53h2.14c2.2,0,2.58-.28,2.8-2h.56v4.68h-.56c-.28-1.8-.62-2.06-2.8-2.06h-2.14Z"/><path class="cls-1" d="M281.3,50.42c0,1,.06,1.26.06,1.68v.64a3.39,3.39,0,0,1,2.92-2.38,1.38,1.38,0,0,1,1.52,1.24c0,.5-.42.82-1.06.82-.44,0-.62-.12-.74-.5s-.24-.56-.56-.56a2,2,0,0,0-1.5,1.2,5.2,5.2,0,0,0-.54,2.54v3.14c0,1.88.1,2,1.44,2.06v.44h-4.58V60.3c1.34,0,1.46-.2,1.46-2.06V52.88c0-1.5-.24-1.8-1.38-1.8v-.44Z"/><path class="cls-1" d="M290.9,50.42c-.06,1.16-.12,2.9-.12,3.74v4.08c0,1.86.1,2,1.44,2.06v.44h-4.56V60.3c1.38,0,1.48-.2,1.48-2.06V52.9c0-1-.08-1.46-.3-1.64s-.48-.18-1.18-.18v-.44Zm-1-4.24a1.13,1.13,0,1,1-1.14,1.12A1.12,1.12,0,0,1,289.9,46.18Z"/><path class="cls-1" d="M295.52,64.14a14.94,14.94,0,0,0,2.58-9,14.88,14.88,0,0,0-2.58-9l.4-.32a12.23,12.23,0,0,1,2.26,3.2,14.61,14.61,0,0,1,1.52,6.12,14.62,14.62,0,0,1-1.76,6.6,12.77,12.77,0,0,1-2,2.74Z"/><path class="cls-1" d="M304.18,54.5h4.42v1.1h-4.42Z"/><path class="cls-1" d="M318.1,53.3a5.56,5.56,0,0,1,2.24.56,3.37,3.37,0,0,1,1.8,3.1c0,2.46-2,4.1-5,4.1-2.6,0-4.54-1.24-4.54-2.9,0-.64.36-.94,1.14-.94.58,0,.8.2.84.76a2.58,2.58,0,0,0,.5,1.8,2.51,2.51,0,0,0,2,.74c2,0,3.14-1.32,3.14-3.58A3.08,3.08,0,0,0,318.9,54a5.25,5.25,0,0,0-2.32-.48h-.88v-.64h.88a4.09,4.09,0,0,0,2.18-.6,2.92,2.92,0,0,0,1.14-2.54,3.85,3.85,0,0,0-.5-2,2.21,2.21,0,0,0-2.08-1c-1.5,0-2.26.78-2.36,2.38,0,.76-.22,1-.92,1S313,49.9,313,49.36c0-1.7,2-3.12,4.36-3.12,2.54,0,4.4,1.48,4.4,3.5a3.16,3.16,0,0,1-1.64,2.72,6.68,6.68,0,0,1-2,.66Z"/><path class="cls-1" d="M329.1,59.58a1.41,1.41,0,1,1-1.4-1.4A1.37,1.37,0,0,1,329.1,59.58Z"/><path class="cls-1" d="M333,60.74a8.26,8.26,0,0,1,1.48-3.9c.78-1.12,1.62-1.92,4.18-4a6.24,6.24,0,0,0,1.52-1.56,3.3,3.3,0,0,0,.44-1.68,2.63,2.63,0,0,0-2.72-2.82,2.32,2.32,0,0,0-2.38,1.56,5.37,5.37,0,0,0-.2,1.46c0,.68-.26.86-1,.86s-1-.24-1-.82c0-2.06,2-3.6,4.68-3.6a4.8,4.8,0,0,1,3.84,1.5,3.23,3.23,0,0,1,.64,2.12c0,1.66-.74,2.68-3,4a18.59,18.59,0,0,0-3.92,2.8A5.69,5.69,0,0,0,334,59.24h5.78c1.44,0,1.94-.44,2.34-2.12l.6.14-.54,3.48Z"/><path class="cls-1" d="M346.92,48.46a4.48,4.48,0,0,1,7.74,0,11.07,11.07,0,0,1,1.14,5.18,11.13,11.13,0,0,1-1.14,5.18A4.24,4.24,0,0,1,350.8,61a4.29,4.29,0,0,1-3.88-2.22,12.34,12.34,0,0,1,0-10.36Zm3.88,12.06c2.14,0,3.08-2.1,3.08-6.88s-.94-6.88-3.08-6.88-3.08,2.12-3.08,6.9S348.66,60.52,350.8,60.52Z"/><path class="cls-1" d="M364.62,46.12a14.88,14.88,0,0,0-2.58,9,15,15,0,0,0,2.58,9l-.4.32a12.23,12.23,0,0,1-2.26-3.2,14.62,14.62,0,0,1-1.52-6.14,14.75,14.75,0,0,1,1.76-6.6,12.7,12.7,0,0,1,2-2.72Z"/><path class="cls-1" d="M368.58,56.74h.66a3.4,3.4,0,0,0,3.82,3.66c1.82,0,2.9-1,2.9-2.6s-.74-2.34-3.72-3.78a8.77,8.77,0,0,1-2.88-1.8,3.31,3.31,0,0,1-.88-2.36,3.74,3.74,0,0,1,1.26-2.9,4.1,4.1,0,0,1,2.86-1,8.2,8.2,0,0,1,2.36.34,4,4,0,0,0,.74.1,3.67,3.67,0,0,0,1.2-.3l-.12,3.94h-.66a4.56,4.56,0,0,0-.56-2.1,3.19,3.19,0,0,0-2.88-1.42,2.6,2.6,0,0,0-2.12.84,2.84,2.84,0,0,0-.58,1.74c0,1.32.64,2,3,3.1s3.44,1.84,4,2.72a3.79,3.79,0,0,1,.56,2.2,3.35,3.35,0,0,1-1.14,2.72,4.77,4.77,0,0,1-3.26,1.1,11.82,11.82,0,0,1-2.68-.34,4,4,0,0,0-.66-.06,7.38,7.38,0,0,0-1.38.2Z"/><path class="cls-1" d="M388.08,60.88a16.31,16.31,0,0,1-.1-2.06A4.07,4.07,0,0,1,384.42,61a2.67,2.67,0,0,1-2.66-1.68,9.74,9.74,0,0,1-.28-3.1V52.9c0-1-.08-1.46-.3-1.64s-.3-.16-.68-.18h-.36v-.44l3.1-.2c-.1,1.86-.12,2.34-.12,3.72V55.9a9.32,9.32,0,0,0,.28,3.26A1.55,1.55,0,0,0,385,60.28a2.89,2.89,0,0,0,2.6-1.94A4.93,4.93,0,0,0,388,56V52.9c0-1.06-.06-1.44-.3-1.62a1,1,0,0,0-.68-.2h-.36v-.44l3.1-.2c-.06,1.5-.1,2.82-.1,3.72v3.78c0,2,.18,2.36,1.22,2.36H391v.44Z"/><path class="cls-1" d="M396.44,52.48A3.59,3.59,0,0,1,400,50.36a2.77,2.77,0,0,1,2.62,1.24,4.31,4.31,0,0,1,.52,2.5v4.14c0,1.88.1,2,1.46,2.06v.44H400V60.3c.66,0,1-.1,1.18-.3a1.07,1.07,0,0,0,.2-.66c0-.22.06-1,.06-1.1v-4a5.26,5.26,0,0,0-.32-2.16A1.78,1.78,0,0,0,399.38,51a2.56,2.56,0,0,0-2.26,1.34,4.86,4.86,0,0,0-.68,2.44v3.46c0,1.88.1,2,1.46,2.06v.44h-4.56V60.3c1.34,0,1.46-.2,1.46-2.06V52.88c0-1.5-.24-1.8-1.38-1.8v-.44l3-.22Z"/><path class="cls-1" d="M408.08,64.14a14.94,14.94,0,0,0,2.58-9,14.88,14.88,0,0,0-2.58-9l.4-.32a12.23,12.23,0,0,1,2.26,3.2,14.61,14.61,0,0,1,1.52,6.12,14.62,14.62,0,0,1-1.76,6.6,12.77,12.77,0,0,1-2,2.74Z"/><path class="cls-1" d="M92.92,96.64H98.2l1.32-1.52c.56.48,1.22,1,2,1.64a.28.28,0,0,1,.12.18.17.17,0,0,1-.16.16H92.92V101c0,2,0,3.5.08,5.3-.06.32-.28.4-1,.42h-.24c-.3,0-.44-.12-.46-.38.08-1.08.1-2.5.1-5.34V97.1H85.94a21.18,21.18,0,0,0-2.54.1l-.14-.78a18.58,18.58,0,0,0,2.68.22h5.48V91.78a43.28,43.28,0,0,1-6.7.8l-.06-.32a58.57,58.57,0,0,0,8.3-2,14.21,14.21,0,0,0,3.94-1.62c1.34,1,1.82,1.36,1.82,1.5s-.1.14-.24.14a4.83,4.83,0,0,1-.88-.14,36,36,0,0,1-4.68,1.32Z"/><path class="cls-1" d="M112.52,100.82a10.05,10.05,0,0,0-.08-1.38c1.8.22,2.12.3,2.12.52s-.14.22-.74.4v.86h5.44c.52-.58.68-.74,1.24-1.28.8.62,1,.82,1.8,1.46a.41.41,0,0,1,.1.18c0,.06-.08.1-.2.1h-8.14a10.33,10.33,0,0,0,2,1.34c2,1,3.38,1.38,7,1.76v.3c-.82.2-1.1.46-1.52,1.42a17.72,17.72,0,0,1-4.82-2.1,9.14,9.14,0,0,1-2.88-2.54v1.66c0,1.06,0,1.06.08,3,0,.32-.18.38-.94.38-.42,0-.5,0-.5-.28.06-2.08.06-2.08.06-3v-1.3a16.35,16.35,0,0,1-3.86,2.72,19.13,19.13,0,0,1-4.42,1.64l-.1-.26a23.63,23.63,0,0,0,4.92-2.66,16.81,16.81,0,0,0,2.44-2.1h-5a10.28,10.28,0,0,0-1.76.14l-.1-.76a7.32,7.32,0,0,0,1.86.16h6Zm0-6.64c0-.9,0-1.14-.06-1.84,1.92.28,2,.3,2,.5s-.08.18-.7.36v1h3.3c0-.74,0-1,0-1.84a8.8,8.8,0,0,1,1.9.32c.12.06.2.12.2.2s-.16.22-.78.36v1h1.32c.46-.52.6-.68,1.08-1.2.76.58,1,.76,1.72,1.4a.21.21,0,0,1,.08.16c0,.06-.06.1-.18.1h-4c0,1.54,0,1.54,0,2.6v.06c0,.2-.2.26-.88.26-.32,0-.42,0-.42-.16v-.48h-3.3v.46c0,.22-.14.26-.9.26-.36,0-.42,0-.42-.22,0-.92,0-.92,0-2.78h-3.32v3.92h9.62c.52-.52.68-.68,1.2-1.18a19,19,0,0,1,1.68,1.34q.12.12.12.18c0,.08-.08.12-.2.12H109.22v.24c0,.26-.12.3-.86.3-.44,0-.48,0-.48-.22.06-2.2.06-2.2.06-3.94v-.76h-1.88a10.27,10.27,0,0,0-1.62.12l-.1-.78a7.1,7.1,0,0,0,1.8.2h1.8c0-1,0-1.18-.06-1.84.54.08,1.14.16,1.58.24s.5.12.5.24-.18.26-.74.38v1ZM110,89.54c0-.38,0-.58,0-1.1,2.1.28,2.1.28,2.1.48s-.16.24-.8.42V90.4h4v-.76a12,12,0,0,0,0-1.22c2,.28,2.16.32,2.16.52s-.24.28-.86.42v1h2.74c.56-.62.74-.8,1.28-1.34.82.64,1.06.84,1.86,1.52.08.08.1.12.1.16s-.08.12-.22.12h-5.76v.28c0,.2,0,.46,0,.82s-.12.26-1,.26c-.28,0-.32,0-.32-.22,0-.54,0-.72,0-1.14h-4v1.2c0,.22-.16.26-.82.26-.42,0-.48,0-.48-.22s0-.7,0-1.24h-3.5a10.5,10.5,0,0,0-1.86.12l-.12-.74a9.34,9.34,0,0,0,2,.16H110Zm3.8,5.1v1.82h3.3V94.64Z"/><path class="cls-1" d="M135,94.8a15.93,15.93,0,0,0,2.36,5.16,14.12,14.12,0,0,0,4.22,3.92,9.45,9.45,0,0,0,2.62,1.12l0,.28c-1.12.14-1.4.36-1.82,1.34a13.07,13.07,0,0,1-3.42-2.82,17.41,17.41,0,0,1-3.22-5.24,21.42,21.42,0,0,1-1-3.38,13,13,0,0,1-2.84,7.06,15.15,15.15,0,0,1-4,3.34,15.86,15.86,0,0,1-2.6,1.18l-.16-.28a19.13,19.13,0,0,0,3.7-2.54,13.59,13.59,0,0,0,4.56-9.14h-5.8a8.91,8.91,0,0,0-1.86.14l-.12-.76a10.22,10.22,0,0,0,2.06.16h5.74c.1-1.18.16-2.72.16-3.94a8.62,8.62,0,0,0-.1-1.38c2.32.22,2.48.24,2.48.48s-.26.36-.86.56c-.08,2.32-.12,3.1-.22,4.28h5.62c.48-.7.64-.92,1.16-1.58a22.54,22.54,0,0,1,2,1.68q.12.12.12.18a.2.2,0,0,1-.22.18Z"/><path class="cls-1" d="M161.7,100c.52-.66.7-.88,1.28-1.54.8.7,1,.92,1.82,1.66a.42.42,0,0,1,.08.2c0,.08-.1.14-.24.14h-8.22v2.34c0,.86,0,1.44,0,2.7a1.14,1.14,0,0,1-.72,1.14A4.44,4.44,0,0,1,154,107c-.22-1.08-.34-1.14-3.14-1.58v-.3c1.52.12,1.66.12,3.78.22.26,0,.32-.06.32-.28v-4.68h-6.7a14.53,14.53,0,0,0-1.64.08l-.12-.7a8.22,8.22,0,0,0,1.72.16h6.74v-.34c0-.4,0-.52,0-1.64.4.06.9.14,1.52.26a12.54,12.54,0,0,0,2.12-2.4h-7a8.87,8.87,0,0,0-1.44.1l-.12-.7a8.47,8.47,0,0,0,1.54.14h7.18c.38-.4.5-.52.88-.9.62.46.82.6,1.4,1.06.18.14.26.24.26.34s-.24.26-1,.32a22.12,22.12,0,0,1-3.26,2.16c.18.06.26.12.26.22s-.2.24-.78.36v1Zm.3-7.06c.42-.46.54-.6,1-1,.72.48.94.62,1.64,1.16.2.14.28.24.28.34s-.34.36-1.24.38c-.4.42-.4.42-1,1.1-.38.42-.38.42-.8.84l-.2-.08a11.8,11.8,0,0,0,.56-2.26H149.16a4.54,4.54,0,0,1-.88,2.66,1.41,1.41,0,0,1-.88.62c-.14,0-.28-.1-.36-.32a2.4,2.4,0,0,1-.22-.82c0-.28.1-.42.6-.8a4,4,0,0,0,1.4-2.94h.38c0,.6,0,.72,0,1.14h9a17.55,17.55,0,0,0,2.16-4c1.9.74,2.1.84,2.1,1s-.24.3-.56.3l-.44,0a23.27,23.27,0,0,1-2.76,2.68Zm-11.72-3.76a13,13,0,0,1,1.9,1.42,1.16,1.16,0,0,1,.48.84,2.15,2.15,0,0,1-.42,1.14.38.38,0,0,1-.3.16c-.2,0-.28-.12-.48-.68a9.69,9.69,0,0,0-1.38-2.72Zm4.08-.46c1.72,1.26,2.44,2,2.44,2.52a2.59,2.59,0,0,1-.38,1.1.5.5,0,0,1-.42.26c-.24,0-.3-.1-.5-.82a7.53,7.53,0,0,0-1.36-2.88Z"/><path class="cls-1" d="M172,103.52a7,7,0,0,0-1.54.14l-.12-.74a8.09,8.09,0,0,0,1.66.14h4.08v-.9c0-.42,0-.78-.08-1.62,1.66.16,2.14.26,2.14.48s-.22.28-.8.42v1.62h4.1c.54-.56.68-.74,1.14-1.26.76.62,1,.82,1.7,1.46.06.06.08.1.08.12s-.1.14-.18.14h-6.84v2.22h5.92c.58-.66.76-.86,1.32-1.46.82.66,1.08.88,1.86,1.56.1.08.14.14.14.2a.22.22,0,0,1-.18.16H169.9a10.3,10.3,0,0,0-1.94.16l-.16-.84a9,9,0,0,0,2.1.22h6.16v-2.22Zm5.26-7.42h4.46c.5-.5.66-.66,1.1-1.12.66.54.84.72,1.5,1.28a.55.55,0,0,1,.1.18c0,.06-.1.12-.2.12h-7v1.7h5.92L184.34,97c.78.56,1,.74,1.76,1.36.1.06.14.12.14.18s-.14.14-.28.14H169.88a8.2,8.2,0,0,0-1.62.18l-.16-.82a7.63,7.63,0,0,0,1.78.18h6.18v-1.7h-4.54a6,6,0,0,0-1.52.14l-.14-.78a5.52,5.52,0,0,0,1.66.18h4.54V94.38h-4.42v.44c0,.26-.2.32-1,.32-.22,0-.3-.06-.32-.24.08-1.2.1-1.78.1-2.82,0-1.32,0-2.34-.1-3.34l1.42.82h9.9c.36-.4.36-.4.72-.82.48.36.64.46,1.1.82.16.14.24.22.24.28s-.18.26-.7.54v.72c0,.64,0,.92.08,3.38a.31.31,0,0,1-.16.28,4.69,4.69,0,0,1-.92.08c-.12,0-.18,0-.22-.18v-.28h-4.56Zm-5.88,3.2a4.67,4.67,0,0,1-1.08,2.52,2.19,2.19,0,0,1-1.36.88c-.28,0-.46-.34-.46-.84a.71.71,0,0,1,.62-.82,3.11,3.11,0,0,0,2-1.8Zm4.7-9.28h-4.42V91.7h4.42Zm0,2.14h-4.42v1.76h4.42Zm-2.36,6.9a4,4,0,0,1,1.28,2.06c0,.5-.48,1.18-.84,1.18-.14,0-.22-.12-.22-.38a10,10,0,0,0-.42-2.74Zm8.1-7.36V90h-4.56V91.7Zm-4.56,2.22h4.56V92.16h-4.56Zm1.08,5c1.2,1.08,1.68,1.72,1.68,2.22s-.52,1.08-.84,1.08-.28-.14-.34-.76a6.26,6.26,0,0,0-.72-2.42Zm3.84.14c2.32,1.18,3.06,1.76,3.06,2.44,0,.5-.36,1.16-.64,1.16s-.26-.1-.58-.78a10.4,10.4,0,0,0-2-2.62Z"/><path class="cls-1" d="M191.64,106.06c0,.18,0,.24-.2.3a4.18,4.18,0,0,1-.82.08c-.28,0-.36-.06-.36-.32,0-1.7.06-5.72.06-10.58,0-2.26,0-5-.1-5.8a10.26,10.26,0,0,1,1.68.86h12c.38-.44.5-.58.9-1,.58.42.76.56,1.32,1a.35.35,0,0,1,.16.28c0,.16-.1.24-.76.58l0,4.14c0,4.06.06,7.6.16,10.4-.06.28-.32.38-1,.38-.34,0-.46-.06-.48-.3v-1.52H191.64ZM197.2,97v-5.9h-5.56V97Zm0,.48h-5.56v6.66h5.56Zm6.9-6.38h-5.6V97h5.6Zm-5.6,6.38v6.66h5.6V97.44Z"/><path class="cls-1" d="M216.28,106a10.46,10.46,0,0,0,3.84-4.08c.72-1.52,1-3.22,1.12-6.42a31.28,31.28,0,0,0-4.46.6v.68c0,.08,0,.86,0,2.28,0,.06,0,.34,0,.76a4.9,4.9,0,0,1,0,.5c0,.72-.18,1.1-.52,1.1s-1-1-1-1.6a.89.89,0,0,1,.1-.4,3.8,3.8,0,0,0,.22-1c0-.2.06-.92.08-2.14a10,10,0,0,0-2.58.78,2.07,2.07,0,0,1-.74.22c-.62,0-1.8-1.38-1.8-2.12a.46.46,0,0,1,.06-.18,2.16,2.16,0,0,0,1.64.94c.22,0,.82-.08,1.4-.16s.54-.08,1.32-.22l.66-.12a13,13,0,0,0-.28-2.7,1.88,1.88,0,0,0-.66-.92l-.56-.32a.47.47,0,0,1,.44-.16,3.77,3.77,0,0,1,1.7.62c.48.28.7.58.7.92a1.57,1.57,0,0,1-.08.44,8.22,8.22,0,0,0-.18,2c1.7-.24,1.7-.24,4.48-.54,0-.5,0-.58,0-1.28,0-1.58-.08-2.2-.34-2.54a2.32,2.32,0,0,0-1.36-.74,1.45,1.45,0,0,1,.78-.22,5.15,5.15,0,0,1,1.9.46c.46.2.7.48.7.78a.88.88,0,0,1-.1.36,10.3,10.3,0,0,0-.38,3.06,6.76,6.76,0,0,0,2.42-.42,1.1,1.1,0,0,1,.56-.14c.66,0,1.8.76,1.8,1.18a.39.39,0,0,1-.42.36,2.57,2.57,0,0,1-.36,0,21.54,21.54,0,0,0-2.34-.16h-.74l-.94,0c-.12,3.76-.48,5.54-1.38,7a10.21,10.21,0,0,1-4.6,3.78Z"/><path class="cls-1" d="M235.44,106.06a14.48,14.48,0,0,0,2.88-4.72,13.65,13.65,0,0,0,1-4.08,1,1,0,0,0-.5-1,16,16,0,0,0-4.44,1.26,1.26,1.26,0,0,1-.64.2,2.44,2.44,0,0,1-1.56-1.14,2.09,2.09,0,0,1-.4-.88,1.39,1.39,0,0,1,.08-.38,1.89,1.89,0,0,0,1.68,1,19.68,19.68,0,0,0,3.42-.5c1.22-.2,3.48-.48,6.16-.74a9.11,9.11,0,0,0,1.56-.34,1.18,1.18,0,0,1,.5-.1,2.53,2.53,0,0,1,1.06.3c.54.26.94.64.94.92s-.22.4-.56.4a1.81,1.81,0,0,1-.5-.06,18.9,18.9,0,0,0-3.22-.26,23.48,23.48,0,0,0-3.28.2c.92.52,1.3.92,1.3,1.38a12.12,12.12,0,0,1-1.26,3.92,11.84,11.84,0,0,1-4,4.88Zm-.38-15.44a3.12,3.12,0,0,0,2.38,1.08,10.54,10.54,0,0,0,4.22-1,1.18,1.18,0,0,1,.6-.16c.52,0,1.36.66,1.36,1.06,0,.24-.24.36-1,.54a30.65,30.65,0,0,1-4.56.52,3.38,3.38,0,0,1-3.24-1.86Z"/><path class="cls-1" d="M256,105.86a23.05,23.05,0,0,0,4.56-4.46,19.08,19.08,0,0,0,3.36-6.1,34.72,34.72,0,0,0-5.82.92,10,10,0,0,0-2.08.62,1.08,1.08,0,0,1-.6.18c-.7,0-1.84-1.44-1.84-2.32a.48.48,0,0,1,.12-.34,1.92,1.92,0,0,0,1.74,1.16c.78,0,4.16-.42,6.76-.86a3.74,3.74,0,0,0,1.64-.46.71.71,0,0,1,.32-.12c.18,0,.48.2.94.6s.8.84.8,1.1a.72.72,0,0,1-.3.5c-.28.2-.4.38-.74,1-2.16,4.08-5.38,7.32-8.68,8.78Zm-.26-15.48a2.6,2.6,0,0,0,2.14,1.08,13,13,0,0,0,4.52-1,.84.84,0,0,1,.42-.12c.56,0,1.56.7,1.56,1.1,0,.24-.18.36-.76.44a37.29,37.29,0,0,1-5.1.52c-1.5,0-2.1-.38-3.06-1.88Z"/><path class="cls-1" d="M272.12,100.7A33.82,33.82,0,0,0,279.64,95c2-1.94,3.26-3.56,3.26-4.14,0-.38-.32-.7-1.12-1.14a.87.87,0,0,1,.4-.08,3,3,0,0,1,1.72.6c.68.46,1,.92,1,1.3,0,.18,0,.22-.8.88-.2.16-.2.16-1.62,1.52s-1.52,1.44-2.38,2.16c.78.58,1.12.88,1.22,1.12a17.76,17.76,0,0,1,.14,2.94c0,1.4.06,2.68.1,3.82,0,.44,0,1,0,1.14,0,.7-.14,1-.46,1s-1.36-1.1-1.36-1.68a1.32,1.32,0,0,1,.12-.52,27.23,27.23,0,0,0,.36-4.92,9.31,9.31,0,0,0-.12-1.9c-.06-.2-.14-.3-.44-.62a38.5,38.5,0,0,1-3.84,2.74,24.53,24.53,0,0,1-3.6,1.74Z"/><path class="cls-1" d="M297.3,89.62a4,4,0,0,1,1.48.34c.84.32,1.32.72,1.32,1.1,0,.14,0,.14-.12.44a15.13,15.13,0,0,0-.36,4.36A18.08,18.08,0,0,1,304.28,97c.9.42,1.24.82,1.24,1.54s-.18.92-.48.92-.22,0-.74-.48a11.51,11.51,0,0,0-4.7-2.6c0,1.26,0,1.88,0,2.48v2.92c0,.6,0,.6,0,2.28,0,.42,0,.76,0,1.06a1.27,1.27,0,0,1-.1.68.45.45,0,0,1-.36.18c-.48,0-1.28-1.08-1.28-1.74a1.51,1.51,0,0,1,.1-.56c.3-1,.42-3.56.42-8.66a32.64,32.64,0,0,0-.14-3.44,2,2,0,0,0-1.52-1.78A.8.8,0,0,1,297.3,89.62Z"/><path class="cls-1" d="M314.22,94.12a3.47,3.47,0,0,0,2.06.68,12.42,12.42,0,0,0,3.44-.76,9.94,9.94,0,0,0-1-3.08c-.32-.46-.66-.62-1.62-.7a1.37,1.37,0,0,1,1.16-.38,7.18,7.18,0,0,1,1.62.2c.5.14.78.38.78.7a.83.83,0,0,1,0,.2,2.62,2.62,0,0,0-.08.62,12,12,0,0,0,.24,2.1,11.34,11.34,0,0,0,3-1.36c.26-.22.32-.24.5-.24a2.74,2.74,0,0,1,.94.2c.3.12.44.28.44.46s-.26.46-1.12.74c-2.26.74-2.46.8-3.6,1.14.18,1,.42,2.14.68,3.18a30.74,30.74,0,0,0,3.06-.94A6.28,6.28,0,0,0,326,96.3a.64.64,0,0,1,.4-.14c.8,0,1.78.48,1.78.86a.34.34,0,0,1-.22.32,7.71,7.71,0,0,1-1.4.2,33.76,33.76,0,0,0-4.7,1.06c.66,2.66,1.14,4.52,1.44,5.6a4.21,4.21,0,0,1,.22,1.18c0,.46-.16.68-.46.68-.48,0-1.48-1.1-1.48-1.64a2.76,2.76,0,0,1,0-.28c0-.12,0-.4,0-.5a28.59,28.59,0,0,0-.76-4.72,23.12,23.12,0,0,0-4.14,1.64,2,2,0,0,1-.88.34c-.74,0-2.12-1.2-2.12-1.82a.69.69,0,0,1,.06-.24,2.15,2.15,0,0,0,1.5.74c.62,0,.94-.08,3.7-.94.18-.06.54-.18,1.7-.52-.24-1.08-.56-2.52-.74-3.2a11.5,11.5,0,0,1-3.3.68,3.56,3.56,0,0,1-2.58-1.24Z"/><path class="cls-1" d="M343,100.06a17.07,17.07,0,0,0,2.74-3.54c0-.06,0-.08-.1-.08a32,32,0,0,0-4.92,1.36c.44,1.86,1.44,5.68,1.84,7a2.17,2.17,0,0,1,.14.74c0,.32-.14.5-.4.5a1.65,1.65,0,0,1-.78-.52,1.3,1.3,0,0,1-.56-1,.75.75,0,0,1,0-.2v-.2a43.6,43.6,0,0,0-1.12-6.12c-.24.1-.24.1-1,.38a13.45,13.45,0,0,0-1.6.74,1.29,1.29,0,0,1-.6.22c-.36,0-.82-.36-1.26-1a2,2,0,0,1-.46-1,.44.44,0,0,1,.1-.28,1.84,1.84,0,0,0,1.46.86,17.14,17.14,0,0,0,3.2-.78c-.72-2.88-.92-3.18-2.2-3.48.16-.24.32-.28.86-.28a4.43,4.43,0,0,1,1.8.46.56.56,0,0,1,.28.48.73.73,0,0,1-.06.28,2,2,0,0,0,0,.36,10.34,10.34,0,0,0,.26,1.94c.36-.12.36-.12,1.38-.4l2-.6a4.79,4.79,0,0,0,1.6-.64.83.83,0,0,1,.36-.12c.24,0,.66.28,1.28.8.42.38.58.58.58.8s-.08.3-.62.48c-.2.06-.2.06-2.14,1.6-.62.48-1.08.82-1.86,1.34Z"/><path class="cls-1" d="M355.22,92.06a11.41,11.41,0,0,1,3.86,1.5,1.54,1.54,0,0,1,.68,1.36c0,.66-.22,1.12-.56,1.12s-.32-.1-.86-.8a10.36,10.36,0,0,0-3.26-2.94Zm14.22,1.14a20.8,20.8,0,0,1-4.2,5.38,39.54,39.54,0,0,1-5.62,4.56c-.94.66-1,.74-1.18.92-.32.38-.44.48-.7.48-.82,0-2.34-1.92-2.34-2.94a1,1,0,0,1,.1-.4,3,3,0,0,0,.72.88,1.3,1.3,0,0,0,.8.42,5,5,0,0,0,1.94-.84,29,29,0,0,0,4.78-3.3A31.64,31.64,0,0,0,369.12,93Z"/><path class="cls-1" d="M372.8,103a20.83,20.83,0,0,0,4.92-5.54,4.27,4.27,0,0,0,.82-2c0-.32-.28-.64-1-1.14a1.47,1.47,0,0,1,.44-.08,3.74,3.74,0,0,1,1.64.68c.68.46,1,.76,1,1.08a.55.55,0,0,1-.24.44,3.92,3.92,0,0,0-.84.92,19.15,19.15,0,0,1-4.2,4.38,12.17,12.17,0,0,1-2.34,1.46Zm10.72-8.78a18.41,18.41,0,0,1,5.26,4.66,3.33,3.33,0,0,1,.84,2.14c0,.82-.32,1.46-.76,1.46-.28,0-.36-.12-.66-.92a17.54,17.54,0,0,0-4.9-7.08Zm6.66-2a2.19,2.19,0,0,1-2.18,2.2,2.22,2.22,0,0,1-2.2-2.2,2.19,2.19,0,0,1,4.38,0Zm-3.72,0A1.55,1.55,0,0,0,388,93.82a1.53,1.53,0,1,0-1.54-1.54Z"/><path class="cls-1" d="M394.32,104.7a28.9,28.9,0,0,0,5.38-4.38,35.56,35.56,0,0,0,3.82-5,13.43,13.43,0,0,0,1.36-2.58,21.35,21.35,0,0,0-4.22.88,10.44,10.44,0,0,0-1.68.54.93.93,0,0,1-.34.06c-.44,0-.86-.36-1.3-1.14a2.47,2.47,0,0,1-.42-1.2.8.8,0,0,1,.14-.4c.58,1,1,1.34,1.88,1.34a31.8,31.8,0,0,0,4.2-.56,5.18,5.18,0,0,0,1.88-.56.79.79,0,0,1,.46-.18c.42,0,1.56,1,1.56,1.4a.46.46,0,0,1-.26.38c-.42.28-.42.28-1.14,1.36-1,1.44-1,1.44-2.52,3.48,2.82,1.48,4.4,2.5,5.18,3.38a2.65,2.65,0,0,1,.76,2c0,.64-.2,1-.54,1a.63.63,0,0,1-.46-.32,6,6,0,0,1-.48-.8,17.14,17.14,0,0,0-4.76-4.9A21.75,21.75,0,0,1,398,103a17.76,17.76,0,0,1-3.5,2Z"/><path class="cls-1" d="M416.48,104.26c.68,0,1.08-.1,1.26-.3s.22-.26.26-1.76V92.78a5.43,5.43,0,0,0-.1-1.48c-.14-.42-.5-.58-1.42-.58v-.48h5.46a9.59,9.59,0,0,1,3.68.58,2.83,2.83,0,0,1,1.72,2.78c0,1.9-1.22,3-3.74,3.28V97a5,5,0,0,1,2.3.54,3.37,3.37,0,0,1,2,3.26,3.43,3.43,0,0,1-2.68,3.56,13.48,13.48,0,0,1-3.38.36h-5.36Zm5.32-7.6c2.4,0,3.64-1,3.64-3s-1.24-2.84-3.82-2.84h-1.84v5.82Zm-.08,7.48a4.73,4.73,0,0,0,3.14-.82,3.36,3.36,0,0,0,1-2.66,3,3,0,0,0-1.48-2.86,6.26,6.26,0,0,0-2.66-.48h-1.94v6.82Z"/><path class="cls-1" d="M433.28,104.16a3.59,3.59,0,0,0,1.32-.2c.44-.2.54-.62.54-2.06V93.48c0-1.74,0-1.74-.2-1.88s-.4-.18-.9-.18h-.76v-.58a22.94,22.94,0,0,0,3.8-.52c-.1,1.58-.16,3.28-.16,5.64v5.94c0,1.34.08,1.74.36,2s.32.22,1.46.28v.58h-5.46Z"/><path class="cls-1" d="M451.28,97.8A1.83,1.83,0,1,1,449.46,96,1.83,1.83,0,0,1,451.28,97.8Z"/><path class="cls-1" d="M459.76,104.16a3.59,3.59,0,0,0,1.32-.2c.44-.2.54-.62.54-2.06V93.48c0-1.74,0-1.74-.2-1.88s-.4-.18-.9-.18h-.76v-.58a22.94,22.94,0,0,0,3.8-.52c-.1,1.58-.16,3.28-.16,5.64v5.94c0,1.34.08,1.74.36,2s.32.22,1.46.28v.58h-5.46Z"/><path class="cls-1" d="M473.62,102.2c0,1.84.12,2,1.7,2v.5h-5v-.5c1.4,0,1.52-.2,1.52-2V92.78a5.43,5.43,0,0,0-.1-1.48c-.14-.42-.5-.58-1.42-.58v-.48h10.16l.24,3.56-.64,0c-.46-2.44-1.18-3-3.86-3h-2.6V97h2.14c2.2,0,2.58-.28,2.8-2h.56v4.68h-.56c-.28-1.8-.62-2.06-2.8-2.06h-2.14Z"/></g></g></svg>