<svg xmlns="http://www.w3.org/2000/svg" viewBox="0 0 755.28 333.5"><defs><style>.cls-1{fill:#2b89c7;}.cls-2{fill:#fff;}</style></defs><g id="レイヤー_2" data-name="レイヤー 2"><g id="レイヤー_1-2" data-name="レイヤー 1"><path class="cls-1" d="M51.17,30.45,34.64,40h0L18.1,30.45a19.07,19.07,0,0,1,33.06,0Z"/><path class="cls-2" d="M69.28,20,34.64,0,0,20V30.8l3.29,1.9L0,34.65v10.8l3.29,1.9L0,49.25v10.8l34.64,20,34.64-20V49.25l-3.3-1.9,3.3-1.9V34.65l-3.3-1.9,3.3-1.9ZM34.64,69.2,9.35,54.65l3.29-1.9,22,12.7,22-12.7,3.29,1.9Zm22-27.29-2.89-1.68a18.124,18.124,0,0,1-.38,3.56h0l-6.07,3.5L34.64,54.65l-12.65-7.3-6.06-3.5h0a18.2,18.2,0,0,1-.37-3.56l-2.92,1.62L9.34,40l3.29-1.9,2.91,1.67,9.73,5.63,9.36,5.4,9.35-5.4,9.74-5.63,2.9-1.67L59.91,40Zm0-14.61-5.45,3.15L47.3,32.7,44,34.6,34.64,40h0l-9.35-5.35h0L22,32.75h0l-3.89-2.24a19.07,19.07,0,0,1,33.06,0l5.47-3.21-22-12.65-22,12.7-3.29-1.9L34.64,10.79,59.92,25.4Z"/><path class="cls-1" d="M53.73,40v.23a18.124,18.124,0,0,1-.38,3.56h0l-6.07,3.5-3.29-1.9,9.74-5.63Z"/><path class="cls-1" d="M47.28,47.3,34.64,54.65,15.93,43.85h0a18.2,18.2,0,0,1-.37-3.56,1.765,1.765,0,0,1,0-.23,1.765,1.765,0,0,1,0-.23l9.73,5.63,9.36,5.4L44,45.46Z"/><path class="cls-2" d="M138.82,27.74c1.21-1.41,1.59-1.79,2.81-3.08,1.9,1.37,2.47,1.79,4.33,3.23.15.15.23.23.23.38s-.16.27-.38.27H135.47c.95.26.95.26,4,1.25.5.19.69.31.69.57s-.42.53-1.75.65c-.38.26-.72.53-.91.64-2.28,1.71-2.4,1.79-3.23,2.36h6.49l2.78-3.08,4.4,3.27c.16.15.23.23.23.3a.33.33,0,0,1-.3.31h-32.5a20.292,20.292,0,0,0-2.24.26l-.34-1.33a21.884,21.884,0,0,0,2.58.27h8.13c-.38-.27-.49-.46-.68-1.18a9.432,9.432,0,0,0-2.05-4.22l.07-.07h-3.38a17.932,17.932,0,0,0-2.47.23l-.34-1.33a19.232,19.232,0,0,0,2.77.3H127.8v-1.9a11.162,11.162,0,0,0-.16-2.19c5.62.31,6.08.38,6.08,1,0,.34-.31.53-1.52,1v2.09ZM118.95,48.83c.07.83.11,1.17.11,1.71,0,4.14-1.82,7.22-4.22,7.22-1.18,0-1.9-1.07-1.9-2.7,0-1.22.27-1.56,1.6-2,2.24-.76,3.19-1.82,3.87-4.25Zm18.54-11.51,2-1.91c1.29.8,1.71,1,3,1.83.38.26.57.45.57.64s-.19.42-1.17,1.07v1.94c0,1.74,0,3.45.19,5.66,0,1-.46,1.1-3.23,1.1-.76,0-.92-.12-1-.72v-.8H122.64v.52a.8.8,0,0,1-.64.84,12.277,12.277,0,0,1-2.51.19c-.84,0-1-.19-1-.95.08-3.61.12-5,.12-6.88,0-1.6,0-1.86-.19-4.52,2.05.8,2.66,1.06,4.67,2ZM121.76,50.8a21.863,21.863,0,0,0-.27-2.69c1.1.07,2,.15,2.55.18,2.43.19,3.07.35,3.07.77s-.41.56-1.33.94v3.73c0,.45.08.72.27.8a18.244,18.244,0,0,0,3.61.19c1.41,0,4.56,0,4.94-.08,1-.08,1.25-.23,1.78-1.18,0-.07.69-1.52,1.9-4.33h.42l-.26,3.57a6.651,6.651,0,0,0,0,.72c0,.34.15.53.72.72,1,.35,1.44.8,1.44,1.68s-.72,1.63-2,1.9a44.665,44.665,0,0,1-6.54.3h-6.19c-1.86,0-2.62-.11-3.27-.61s-.83-1.06-.83-2.47Zm.15-22.26,1.18.45c2.73.95,3.76,1.79,3.76,3.12a2,2,0,0,1-1.41,1.9h7.11a30.506,30.506,0,0,0,1.86-5.47Zm16,9.57H122.64v3.16h15.28Zm-15.27,3.95v3.27h15.28V42.06Zm4.83,4.83,3.53.84c2.47.6,3.54,1.48,3.54,2.88s-1.15,2.74-2.13,2.74c-.42,0-.72-.27-1.07-1a13.386,13.386,0,0,0-4.1-5.17Zm12.35,1.59c5.43,2.06,7.59,3.69,7.59,5.74,0,1.52-1.33,3.16-2.54,3.16-.61,0-1-.42-1.33-1.52-1.18-3.65-2-5.06-3.95-7.07Z"/><path class="cls-2" d="M160.1,57.76c-.08.6-.23.79-.91.95a14.992,14.992,0,0,1-2.24.15c-1,0-1.33-.19-1.33-.84v-.19c.19-4.75.26-10.6.26-20.21,0-6.12,0-8.36-.26-13.64,2.12,1,2.81,1.37,5,2.47h20.14c1.18-1.33,1.52-1.71,2.77-2.93,1.79,1.29,2.36,1.71,4.22,3.12.15.15.23.26.23.38s-.16.23-.38.23H160.1V55.36h21.2l3-3.27c1.86,1.45,2.43,1.9,4.33,3.42a.648.648,0,0,1,.15.31.38.38,0,0,1-.41.34H160.1Zm18.77-12.11c0,2.62,0,2.62.11,7.07,0,.61-.15.84-.64.95a11.274,11.274,0,0,1-2.47.27c-1,0-1.3-.23-1.3-.95.08-2,.12-4.37.12-7.22V38.65h-6.27a27.191,27.191,0,0,1-.87,6.54,15.528,15.528,0,0,1-6.08,8.58l-.31-.22c2.59-4.49,3.19-7.64,3.19-16.84a59.21,59.21,0,0,0-.19-6.34,40.176,40.176,0,0,1,4.53,2.32,46.228,46.228,0,0,0,7.82-2.51,15.707,15.707,0,0,0,3.8-2c3.84,2.28,4.83,3,4.83,3.38,0,.19-.38.38-.84.38a6.988,6.988,0,0,1-1.66-.29,93.872,93.872,0,0,1-14.13,2V37.9h12.12a25.985,25.985,0,0,1,2.62-2.85c1.75,1.3,2.28,1.71,3.95,3.12a.7.7,0,0,1,.19.27c0,.15-.19.26-.38.26h-8.09Z"/><path class="cls-2" d="M210.64,38.23h.8c.95-1.22,1.25-1.64,2.31-2.93,1.52,1.33,2,1.75,3.42,3.12a.629.629,0,0,1,.19.3.321.321,0,0,1-.3.3h-6.42V43.7c0,3,.07,9,.15,13.41,0,.53-.11.76-.42.87a13.946,13.946,0,0,1-2.92.23c-.8,0-1-.19-1-.87.11-4.14.15-6.54.15-13.64V39.02h-3.86c-.23,5.32-.54,7.6-1.41,10.26-1.14,3.46-3,6-6.65,9.24l-.3-.31a23.348,23.348,0,0,0,3.61-9.31,72.421,72.421,0,0,0,.72-9.88h-2.36a15.564,15.564,0,0,0-2.24.19l-.27-1.25a18.88,18.88,0,0,0,2.51.27h2.36c.07-2.62.07-4.41.07-8.48V27.28h-1.63a14.74,14.74,0,0,0-2.13.16l-.3-1.22a12.108,12.108,0,0,0,2.43.27h12.42c1-1.3,1.33-1.71,2.47-3,1.75,1.33,2.28,1.79,4,3.16.15.15.23.26.23.34a.25.25,0,0,1-.23.26h-5.4Zm-7.75-11v1.79c0,3,0,7.1-.12,9.16h3.8v-11Zm9,30.55a34.564,34.564,0,0,0,9-8.36,28.633,28.633,0,0,0,4.06-6.65c1.18.57,2.09,1,2.7,1.26,2.09.91,2.85,1.4,2.85,1.86,0,.3-.42.49-1.06.49l-.88-.07a36.927,36.927,0,0,1-7.6,7.37,31.094,31.094,0,0,1-8.89,4.48Zm1.14-12.13a37.561,37.561,0,0,0,7.61-7,27.1,27.1,0,0,0,3.68-5.63c1.22.65,2.17,1.11,2.78,1.41,1.9.91,2.69,1.44,2.69,1.86,0,.27-.26.46-.68.46h-1.29c-4.33,4-5,4.48-7,5.81a33.01,33.01,0,0,1-7.6,3.57Zm1.29-10.67c3.65-3.19,7.3-7.94,8.44-11.06,5.66,2.77,5.66,2.77,5.66,3.12s-.34.49-.87.49l-1.22-.08a34.332,34.332,0,0,1-11.69,7.89Z"/><path class="cls-2" d="M241.08,49.06a17.2,17.2,0,0,1,.23,2.69c0,3.42-1.87,6.35-4,6.35-1.14,0-2-1.26-2-2.89a1.74,1.74,0,0,1,.61-1.37,5.161,5.161,0,0,1,.95-.38,6.458,6.458,0,0,0,2.51-1.71,5.2,5.2,0,0,0,1.33-2.73Zm-3.44-16.53c-.27.83-.42,1.14-.72,1.14s-.34-.15-.46-.5-.57-2.28-.91-3.87a24.653,24.653,0,0,0,3.5.15,21.136,21.136,0,0,0,1.89-5.62l2.51.57c2.7.6,3,.72,3,1.1s-.42.49-1.78.64a41.293,41.293,0,0,1-4.15,3.31c2.28,0,3.65,0,8.21-.23a10.218,10.218,0,0,0-2.35-2.54l.3-.35c4.41,1.14,6.08,2.21,6.08,3.77,0,1.21-.88,2.47-1.71,2.47-.5,0-.68-.19-1.18-1.3a9.344,9.344,0,0,0-.53-1,106.6,106.6,0,0,1-10.64,2.09c1.06.49,1.6.72,3.12,1.52h5.2c.72-.76,1-1,1.67-1.75l2.82,1.86c.34.3.45.42.45.57s-.26.49-1.1.84v8.89c0,2-.46,2.58-2.32,3.11a9.093,9.093,0,0,1-1.86.31c-.34,0-.42-.12-.46-.5-.15-1.48-.76-1.93-3.45-2.69V44.1c1.71.15,2.32.19,4,.26.38,0,.46-.11.46-.49V41.36h-5.89v5.66c0,.8-.34.91-2.47.91-1,0-1.18-.15-1.18-.87.12-3.65.16-5.39.16-7.52,0-2.74,0-5.55-.12-7Zm9.65,2.12H241.4v2.51h5.89Zm0,3.31H241.4v2.58h5.89ZM244.4,51.18a23.669,23.669,0,0,0-.15-2.58c4.29.42,4.48.46,4.86.61s.46.23.46.41-.31.5-1.33.88v3.27c0,.53,0,.68.23.79.38.19.79.23,4.18.23,5.09,0,5.32,0,5.92-.68a16.372,16.372,0,0,0,2.21-4.29l.42.07-.16,3.19v.23c0,.53.12.72.65.91,1,.38,1.37.8,1.37,1.64,0,1-.65,1.67-1.94,2a31.7,31.7,0,0,1-6.08.3c-6.61,0-8,0-8.93-.19a2.382,2.382,0,0,1-1.52-1,4.36,4.36,0,0,1-.23-1.26V53.36Zm5.63-3.27c5.43.73,6.8,1.33,6.8,3.12,0,1.25-.91,2.43-1.87,2.43-.45,0-.79-.26-1.1-.87a11.076,11.076,0,0,0-4-4.33Zm7.52-18.8a22.259,22.259,0,0,0,7-4.56c3.38,2,4.25,2.58,4.25,2.92s-.26.42-.64.42a7.284,7.284,0,0,1-1.26-.11,59.364,59.364,0,0,1-9.34,2.2v1.45c0,.68,0,.76.49.83.23,0,2.13.08,4.87.08,2.24,0,2.62-.08,3.07-.53s.53-.54,1.75-3.2h.3v2.21c0,.64,0,.79.5,1a1.58,1.58,0,0,1,1,1.52c0,.72-.57,1.33-1.52,1.63s-2.88.38-6.68.38c-4.75,0-5.78-.07-6.46-.38s-1-1-1.06-2.27V26.88a19.14,19.14,0,0,0-.19-2.85c4.22.42,4.45.46,4.94.65.27.15.42.3.42.45,0,.35-.34.54-1.48.92Zm0,11.93a21.279,21.279,0,0,0,7.26-4.37c2.88,1.78,3.87,2.54,3.87,2.89s-.23.41-.61.41a7.126,7.126,0,0,1-1.21-.11,50.887,50.887,0,0,1-9.31,2v1.79c0,.53,0,.72.19.8a15.344,15.344,0,0,0,3.84.19c3.15,0,3.91-.12,4.44-.57.38-.35.72-1,1.9-3.61h.34l-.07,2.36v.34c0,.61,0,.61.87,1.07a1.5,1.5,0,0,1,.76,1.29,1.93,1.93,0,0,1-1.48,1.82c-.87.31-2.21.42-5.47.42a56.453,56.453,0,0,1-7.23-.11c-1.29-.23-1.75-.91-1.78-2.58v-5.7a22.2,22.2,0,0,0-.19-3.35c1.07.12,1.86.19,2.4.23,2.16.23,2.81.38,2.81.84,0,.3-.34.53-1.33.87Zm5.09,8.09c5.36,2,7.26,3.34,7.26,5.21,0,1.63-1.26,3.34-2.51,3.34-.5,0-.76-.27-1-1.25a15.307,15.307,0,0,0-4-7Z"/><path class="cls-2" d="M303.77,45.41l3-3.38c1.93,1.48,2.5,1.93,4.33,3.45a.912.912,0,0,1,.22.42c0,.19-.18.31-.53.31h-15v9.11a2.746,2.746,0,0,1-1.44,2.85,9.838,9.838,0,0,1-4.11,1c-.49,0-.6-.11-.68-.72a2.869,2.869,0,0,0-1.06-2c-.73-.61-1.3-.8-5.21-1.71v-.5c5.28.34,5.28.34,7.49.42h.11c.38,0,.53-.15.53-.57V46.23h-12a18.837,18.837,0,0,0-3,.22l-.22-1.33a14.761,14.761,0,0,0,3.22.31h12v-.61a26.363,26.363,0,0,0-.19-3.8c1.94.23,1.94.23,4,.57a26.4,26.4,0,0,0,3.49-4.14H285.99a14.786,14.786,0,0,0-2.73.23l-.23-1.3a16.064,16.064,0,0,0,2.92.27h13c.87-.91,1.14-1.18,2-2.05,1.52,1,2,1.37,2.89,2.05a21.934,21.934,0,0,0,1.1-3.8H281.47v.34a15.539,15.539,0,0,1-.57,4.18,3.091,3.091,0,0,1-2.66,2.24c-1.1,0-2-1.33-2-2.88a1.448,1.448,0,0,1,.53-1.3c.11-.11.11-.11,1-.6,1.82-1,2.58-2.47,2.89-5.36h.49a20.906,20.906,0,0,1,.3,2.58h16.38a32.146,32.146,0,0,0,3.46-7.94c2.69.84,4.86,1.56,5.47,1.86.34.16.49.35.49.54,0,.41-.53.6-1.56.6h-.34a49.111,49.111,0,0,1-6,4.94h5.28c1-1,1.33-1.33,2.4-2.28,1.7,1.26,2.24,1.68,3.87,2.93.42.34.57.57.57.8,0,.49-.65.68-2.35.68a37.673,37.673,0,0,1-3.84,2.51c-.15.07-.38.23-.73.45l.5.38c.38.35.57.57.57.76,0,.38-.46.57-1.44.57h-.57a47.707,47.707,0,0,1-6.77,3c.34.11.46.26.46.45,0,.38-.34.57-1.41.91v2.21Zm-21.65-20.9c4.52,1.71,6.27,2.93,6.27,4.48s-1.26,3-2.44,3c-.6,0-.95-.38-1.29-1.52a13.213,13.213,0,0,0-2.77-5.63Zm7.86-.61c4.14,1.41,6.27,2.93,6.27,4.45s-1.41,3.23-2.73,3.23c-.65,0-.88-.31-1.3-1.94a12.322,12.322,0,0,0-2.54-5.4Z"/><path class="cls-2" d="M326.08,27.7a32.472,32.472,0,0,1-3.42,10l.31.31h3.11c.84-.95,1.1-1.26,2.05-2.25,1.14,1,1.49,1.22,2.55,2.17.27.27.38.42.38.57s-.19.38-.95.84v5.43c0,4.82,0,4.82.15,9a.79.79,0,0,1-.68.84,7.385,7.385,0,0,1-2,.27c-.91,0-1.14-.16-1.14-.76V52.79h-3.07v3.57a.719.719,0,0,1-.57.76,10.988,10.988,0,0,1-2.25.26c-.79,0-1.1-.19-1.1-.72.12-5.51.19-8.4.19-8.7V42.34a28.679,28.679,0,0,1-3.49,3.84l-.27-.31a46.578,46.578,0,0,0,5.74-18.2h-2.24a9.494,9.494,0,0,0-2.21.23l-.23-1.33a9.171,9.171,0,0,0,2.44.3h6.07c1.07-1.29,1.37-1.67,2.47-2.85,1.56,1.3,2,1.71,3.54,3.12.15.15.19.23.19.34s-.15.19-.42.19Zm-2.69,24.32h3.07V38.83h-3.07Zm24.12-13h.38c.88-1.22,1.18-1.56,2.13-2.74,1.33,1.25,1.71,1.67,3,3,.15.15.19.23.19.34s-.15.19-.38.19h-5.32v4.72c0,4.74,0,5.2.19,13.18a.74.74,0,0,1-.592.863l-.048.007a13.262,13.262,0,0,1-2.66.23c-1,0-1.26-.15-1.26-.8.19-8.13.19-8.7.19-13.48V39.81h-4.59c-.31,6.73-1,9.73-3.08,12.81s-4.45,4.79-8.78,6.61l-.23-.38a18.987,18.987,0,0,0,4.3-4.14,18.712,18.712,0,0,0,3.3-9c.19-1.41.31-3.39.38-5.86h-1.14a12.775,12.775,0,0,0-2,.19l-.23-1.25a9.156,9.156,0,0,0,2.36.27h1.02v-12h-.19a15.714,15.714,0,0,0-2.47.19l-.23-1.33a10.341,10.341,0,0,0,2.74.34H346c.91-1,1.82-1.94,2.66-2.81,1.59,1.22,2.05,1.63,3.61,3,.19.16.27.27.27.38s-.23.27-.5.27h-4.56Zm-8.62-12c0,6.61,0,9.57-.12,12h4.56v-12Z"/><path class="cls-2" d="M370.24,44.31a24.667,24.667,0,0,0,.34-4.07,11.726,11.726,0,0,0-.11-1.9c1.29.11,2.28.19,2.92.27h.15c2.28.19,3.2.45,3.2.83s-.54.69-1.75,1c-.23,2-.34,2.7-.53,3.8l4.74-.08,2.17-2.24,1.71,1.18c.34.27.84.61,1.52,1.06.38.31.53.5.53.69s-.26.49-.68.76a6.613,6.613,0,0,0-.8.49v7.64c0,.68.11.8,1.1.8a11.365,11.365,0,0,0,3.19-.27c.61-.19,1.11-1.1,1.71-3.12.38-1.32.42-1.44,1.33-4.52l.46.08-.23,6a.379.379,0,0,1,0,.15c0,.76.07.92.61,1.14a1.79,1.79,0,0,1,1.33,1.79c0,1.29-.95,2-2.89,2.09-1.71.15-4.26.23-6.08.23a8.832,8.832,0,0,1-3.72-.5,2.271,2.271,0,0,1-1-2.16L379.57,45l-5.28.08c-.87,4.14-2.39,6.83-5.2,9.19a19.01,19.01,0,0,1-6.42,3.46c-1.14.34-1.71.49-4.52,1.18l-.16-.35c7.45-3.34,10.64-6.91,12.05-13.41l-6.8.08a19.239,19.239,0,0,0-2.17.22l-.38-1.29a14.775,14.775,0,0,0,2.51.23h.19Zm3-14.44a12.774,12.774,0,0,1-.91,4c-1.75,4.44-6.54,7.33-13.64,8.2l-.19-.41c4.26-1.49,6.46-2.93,8.32-5.4a10.6,10.6,0,0,0,2.17-6.38h-5.17v.64a8,8,0,0,1-.65,3.54,3.65,3.65,0,0,1-3,2.24c-1.14,0-2-1.1-2-2.66a1.69,1.69,0,0,1,1.21-1.86c2.13-1.07,2.93-2.21,3.5-5.06h.41a12.357,12.357,0,0,1,.42,2.36h9.24V26.65a16.863,16.863,0,0,0-.16-2.47c4.79.46,5.13.49,5.59.65s.57.26.57.45c0,.38-.53.69-1.6,1v2.81h8.36c.95-1,1.26-1.33,2.28-2.32,1.79,1.37,2.32,1.83,4.07,3.31.34.34.45.45.45.64,0,.38-.45.61-1.25.61a12.57,12.57,0,0,1-1.44-.07c-1.87,1.14-4,2.35-5.13,2.92l-.35-.19a30.007,30.007,0,0,0,1.68-4.1H380.7v5.76c0,.6.19.72,1.21.79h3.38c1.75,0,2.36-.15,2.78-.68a22.551,22.551,0,0,0,1.78-3.57h.38l-.15,2.59v.26c0,.72,0,.72,1,1.14a1.261,1.261,0,0,1,.91,1.22c0,1.14-.72,1.71-2.59,1.94-.53.07-3.64.19-4.71.19h-.53c-.45,0-1.71,0-3.61-.08-2.92,0-3.76-.61-3.76-2.43V29.84Z"/><path class="cls-2" d="M416.37,34.58a50.719,50.719,0,0,1-5.47,6c4.37-.08,5.13-.08,13-.57a29.472,29.472,0,0,0-4.1-4l.19-.27a36.548,36.548,0,0,1,6.76,2.47c2.32,1.22,3.19,2.25,3.19,3.73s-.87,3.11-1.82,3.11c-.46,0-.8-.34-1.6-1.67a20.066,20.066,0,0,0-1.82-2.47c-5.43,1.26-5.43,1.26-7.83,1.67-2.85.5-9,1.41-11.89,1.75-.15,1.06-.38,1.52-.8,1.52s-.83-1-1.74-5.51a55.753,55.753,0,0,0,6.64.23,32.782,32.782,0,0,0,2.06-6h-3.5a13.567,13.567,0,0,0-2.51.27l-.3-1.33a15.669,15.669,0,0,0,2.81.26h15.65c1-1.18,1.37-1.52,2.43-2.62l1.18.84a15.761,15.761,0,0,0,.53-2.59H404.78a9.668,9.668,0,0,1-.72,4.33,3.309,3.309,0,0,1-2.7,2.17,2.489,2.489,0,0,1-2.24-2.66,1.578,1.578,0,0,1,.57-1.37c.15-.11.15-.11,1.06-.68a6.561,6.561,0,0,0,2.36-2.28,7.859,7.859,0,0,0,.72-2.74h.46a8,8,0,0,1,.45,2.43h9.16V26.48a20.276,20.276,0,0,0-.11-2.82c5.16.35,6.19.54,6.19,1.07,0,.38-.53.68-1.79,1v2.92h9c.91-1,1.22-1.29,2.16-2.28,1.91,1.3,2.48,1.71,4.26,3.08.31.27.42.42.42.65a.538.538,0,0,1-.3.42,3.878,3.878,0,0,1-1,.19h-1.37c-.45.27-.91.5-1.14.61-1.78.95-1.82.95-2.39,1.25l2,1.52c.15.08.23.19.23.27a.239.239,0,0,1-.23.19Zm7.71,14.59c1.45-1.56,1.45-1.56,2.78-3,1.82,1.32,2.39,1.74,4.25,3.26.12.12.15.19.15.27a.332.332,0,0,1-.3.23H418.19v6.72h8.45c1.25-1.4,1.63-1.82,2.92-3.15,1.82,1.33,2.43,1.79,4.41,3.38.15.15.26.27.26.38s-.11.19-.26.19H402.88a21.322,21.322,0,0,0-3.11.27l-.31-1.37a19.025,19.025,0,0,0,3.46.3h11.06V49.97h-8.29a15.748,15.748,0,0,0-2.81.22l-.3-1.29a20.255,20.255,0,0,0,3.11.27h8.29v-1.6a32.671,32.671,0,0,0-.19-3.83c1.14.11,2.12.22,2.66.3,2.81.27,3.3.38,3.3.8s-.23.49-1.56.95v3.38Z"/><path class="cls-2" d="M1.56,160.58a13,13,0,0,0,3.6-5.46l1.71.78a17.822,17.822,0,0,1-3.69,5.85ZM13.8,136.82a12.2,12.2,0,0,0-.18-2h2.31a11.46,11.46,0,0,0-.18,2v.57h7.38a19.234,19.234,0,0,0,3.09-.18v1.86a30.655,30.655,0,0,0-3.12-.12H21.33a26.733,26.733,0,0,1-1.5,2.94h4.92a19.807,19.807,0,0,0,3.51-.18v1.94a24.772,24.772,0,0,0-3.54-.15H5.34a24.919,24.919,0,0,0-3.54.15v-1.92a25.472,25.472,0,0,0,3.6.18H9.9a28.122,28.122,0,0,0-1.26-2.96H6.84a27.227,27.227,0,0,0-2.94.12v-1.86a17.507,17.507,0,0,0,3,.18h6.93Zm-5,17.16c-1.44,0-2.31,0-3.3.09a17.136,17.136,0,0,0,.12-2.46v-3.78a20.415,20.415,0,0,0-.12-2.64,31.338,31.338,0,0,0,3.3.12H21.03a30.449,30.449,0,0,0,3.39-.12,18.652,18.652,0,0,0-.12,2.61v3.75a18.937,18.937,0,0,0,.12,2.52c-.75-.06-2.13-.09-3.21-.09Zm-1.41-5.13H22.53v-2H7.35Zm0,3.63H22.53v-2.19H7.35Zm3.39,6.9c0,.39.12.54.6.66a17.624,17.624,0,0,0,3.27.18c4.11,0,5.1-.09,5.58-.57.27-.24.42-1.29.42-2.82a2.959,2.959,0,0,0,0-.48,4.509,4.509,0,0,0,1.86.69c-.18,4.68-.42,4.83-7.23,4.83-5.52,0-6.33-.24-6.33-1.92v-2.49a12.8,12.8,0,0,0-.18-2.28h2.22a9.691,9.691,0,0,0-.18,2.28Zm7.11-17.49a20.682,20.682,0,0,0,1.47-2.94H10.64a28.2,28.2,0,0,1,1.23,2.94Zm-1.35,17a16.234,16.234,0,0,0-3.6-3.57l1.29-.93a19.728,19.728,0,0,1,3.81,3.39Zm10.41,2.34a29.88,29.88,0,0,0-4.38-5.46l1.53-.87a37.393,37.393,0,0,1,4.41,5.19Z"/><path class="cls-2" d="M59.27,161.15a16.449,16.449,0,0,0-2.94-.21H35.78v1.38H33.64a21.94,21.94,0,0,0,.21-3.24V139.34a24.865,24.865,0,0,0-.12-3.12,23.343,23.343,0,0,0,3.15.15H55.73a18.087,18.087,0,0,0,2.94-.21v2.16a21.133,21.133,0,0,0-2.91-.18h-20v21H56.3a20.9,20.9,0,0,0,3-.18Zm-17-13a24.848,24.848,0,0,1-.69,4.8,12.2,12.2,0,0,1-2.64,5.19,7.818,7.818,0,0,0-1.53-1.41,10.178,10.178,0,0,0,2.23-3.92,26,26,0,0,0,.84-7.62,26.952,26.952,0,0,0-.18-3.57h.48c1.38,0,5.4-.3,7.56-.57,3.42-.45,5.76-1,6.72-1.53l1.35,1.77a73.747,73.747,0,0,1-14.07,2v3.21h13.3a12.964,12.964,0,0,0,2.58-.18v2a15.247,15.247,0,0,0-2.58-.15H50.87v7.48a9.761,9.761,0,0,0,.18,2.43H48.77a11.922,11.922,0,0,0,.18-2.43v-7.5Z"/><path class="cls-2" d="M66.88,138.29a15.043,15.043,0,0,0-2.58.15v-2.07a18.6,18.6,0,0,0,2.73.18h9.42a17.933,17.933,0,0,0,2.7-.18v2.07a14.5,14.5,0,0,0-2.55-.15h-.66v7.44h.93a15.138,15.138,0,0,0,2.64-.15v2.07a15.335,15.335,0,0,0-2.64-.15h-.93v11.25a21,21,0,0,0,.18,3.12H73.9a18.928,18.928,0,0,0,.18-3.12V147.53H69.55a35.329,35.329,0,0,1-.51,5.49,17.411,17.411,0,0,1-4.47,9,6.006,6.006,0,0,0-1.59-1.35c3.27-3.15,4.59-6.87,4.71-13.17H66.46a17.563,17.563,0,0,0-2.73.18v-2.13a16.743,16.743,0,0,0,2.73.18h1.23v-7.44Zm2.67,7.44h4.53v-7.44H69.55Zm21.63,6.3a23.95,23.95,0,0,0-2.07,2.25,32.027,32.027,0,0,1-5.1,4.59,30.974,30.974,0,0,1-5.31,3.12,9.316,9.316,0,0,0-1.17-1.74,27.6,27.6,0,0,0,9.81-6.81,15.2,15.2,0,0,0,2.13-2.85Zm-2.1-15.38c-.36.3-.6.54-1.56,1.44a31.517,31.517,0,0,1-7.95,5.79,6.539,6.539,0,0,0-1.2-1.71,23.156,23.156,0,0,0,6.93-4.62,12.445,12.445,0,0,0,2-2.22Zm1.08,7.59a10.184,10.184,0,0,0-1.26,1.17,33.774,33.774,0,0,1-9.24,6.93,8.22,8.22,0,0,0-1.17-1.77,24.437,24.437,0,0,0,7.71-5.1,13.843,13.843,0,0,0,2.28-2.64Z"/><path class="cls-2" d="M94.44,139.58c.48,0,.84.06,1.5.06h1a17.22,17.22,0,0,0,2.43-4.71l2,.54c-1.14,2-1.65,2.88-2.49,4.11,2.67-.09,3.48-.15,6.06-.39a16.71,16.71,0,0,0-2-2.22l1.38-.81a38.859,38.859,0,0,1,4,4.92l-1.47.93c-.48-.75-.63-1-1-1.56-4.14.51-4.83.57-9.69.84a13.155,13.155,0,0,0-1.56.15Zm.12,21.06a13.461,13.461,0,0,0,3.21-5.31l1.68.78a17.423,17.423,0,0,1-3.24,5.67Zm3.54-9.15a21.638,21.638,0,0,0,.12,2.88h-2a20.065,20.065,0,0,0,.15-3.06v-6.48a23.489,23.489,0,0,0-.09-2.46c.66.06,1.44.09,2.67.09h5a19.4,19.4,0,0,0,2.64-.12,23.481,23.481,0,0,0-.12,3v6.51c0,1-.27,1.65-.78,1.86a6.252,6.252,0,0,1-2.31.33c-.45,0-1.11,0-1.83-.06a3.907,3.907,0,0,0-.39-1.62,19.081,19.081,0,0,0,2.58.24c.9,0,1.05-.12,1.05-.78v-1.56H98.04Zm6.75-5.79v-1.8H98.1v1.8Zm0,3.18v-1.8H98.1v1.8Zm-1.11,6.27a8.3,8.3,0,0,0-.18,2v2.34c0,.66.6.78,3.87.78,4,0,5-.12,5.37-.66a5.46,5.46,0,0,0,.51-2.76,5.843,5.843,0,0,0,1.86.72c-.21,2.19-.57,3.21-1.29,3.75s-2,.63-5.64.63c-5.79,0-6.48-.21-6.48-2v-2.64a9.995,9.995,0,0,0-.18-2.19Zm6,3.42a15.757,15.757,0,0,0-4-3.06l1.26-1.05a18.954,18.954,0,0,1,4,2.88Zm1.11-10.47c3.24-.63,6.12-1.62,7.44-2.58l1.35,1.47c-.36.12-.45.15-1.2.45a41,41,0,0,1-7.59,2.16v1.71c0,.78.54.93,3.69.93,2.67,0,3.51-.09,3.9-.39s.51-1,.6-2.94a5.055,5.055,0,0,0,1.71.75c-.24,2.25-.45,2.88-1.05,3.42s-1.95.75-5.28.75c-4.35,0-5.34-.39-5.34-2.07v-4.41a9.452,9.452,0,0,0-.18-2.22h2.13a8.656,8.656,0,0,0-.18,2.16Zm.09-9.39a23.127,23.127,0,0,0,7.7-2.76l1.44,1.47c-.9.39-2.94,1.14-4,1.5a49.212,49.212,0,0,1-5.13,1.29v1.44c0,.45.09.6.51.75a20.28,20.28,0,0,0,3.75.21c3.54,0,3.6,0,3.75-3.36a6.057,6.057,0,0,0,1.71.75c-.21,2.22-.48,3-1.2,3.51s-1.68.63-5.16.63c-4.17,0-5.13-.39-5.13-2.1v-4.59a9.452,9.452,0,0,0-.18-2.22h2.13a8.9,8.9,0,0,0-.18,2.16Zm8.46,22.83a24.517,24.517,0,0,0-3.78-5.61l1.5-.78a28.7,28.7,0,0,1,3.93,5.37Z"/><path class="cls-2" d="M139.82,159.83c0,1.86-.57,2.22-3.36,2.22-.84,0-2.4-.06-3.45-.18a9,9,0,0,0-.63-1.92,31.153,31.153,0,0,0,3.93.33c1.38,0,1.59-.09,1.59-.72v-6h-9a23.035,23.035,0,0,0-3.15.18v-2.09a22.293,22.293,0,0,0,3.12.18h9v-.51a11.863,11.863,0,0,0-.09-1.77h1.26a25.193,25.193,0,0,0,5.37-3.39h-11a26.605,26.605,0,0,0-2.85.15v-1.96a27.2,27.2,0,0,0,2.91.15H144.3a12.977,12.977,0,0,0,2.22-.12l1.14,1.2a9.515,9.515,0,0,0-1,.87,34.143,34.143,0,0,1-6.84,4.44v.93h8.91a21.965,21.965,0,0,0,3.15-.18v2.07a22.843,22.843,0,0,0-3.18-.18h-8.88ZM131.72,140a20.071,20.071,0,0,0-2.82-3.9l1.8-.57a28.565,28.565,0,0,1,3.06,4.44h4.38a17.744,17.744,0,0,0-2.19-4.32l1.86-.51a25.651,25.651,0,0,1,2.28,4.83h3.3a17.888,17.888,0,0,0,3.09-4.83l1.89.81a28.031,28.031,0,0,1-2.88,4h2.34a34.245,34.245,0,0,0,3.45-.12,19.541,19.541,0,0,0-.12,2.49v2.22a16.4,16.4,0,0,0,.15,2.1h-2v-5H128.15v5h-2a15.7,15.7,0,0,0,.15-2.1v-2.22a19.541,19.541,0,0,0-.12-2.49,26.76,26.76,0,0,0,3.42.15Z"/><path class="cls-2" d="M159.13,138.14a12.816,12.816,0,0,0-2.58.18v-2a16.052,16.052,0,0,0,2.7.18h4.89a11.7,11.7,0,0,0,2.52-.18v2a19.725,19.725,0,0,0-2.43-.12h-1.86a29.363,29.363,0,0,1-2.07,7.62h3.75a13.761,13.761,0,0,0,1.86-.09,22.36,22.36,0,0,0-.09,2.4v9.27a19.644,19.644,0,0,0,.12,2.52h-1.89v-1.5h-3.72v3.18h-2a18.163,18.163,0,0,0,.18-2.91v-6.66c0-1.08,0-2,.09-3.36a13.719,13.719,0,0,1-2.25,3.66,5.009,5.009,0,0,0-1.08-1.8,20.406,20.406,0,0,0,4.14-7.62,21.006,21.006,0,0,0,1-4.71Zm1.2,18.6h3.72v-9.39h-3.72Zm10.41-18.6a19.531,19.531,0,0,0-2.91.18v-2.07a18.355,18.355,0,0,0,3,.18h9.48a20.064,20.064,0,0,0,3-.18v2.07a15.746,15.746,0,0,0-2.91-.18h-.72v8.31h1a15.856,15.856,0,0,0,3-.18v2.13a19.546,19.546,0,0,0-3-.18h-1v10.77a22.673,22.673,0,0,0,.21,3.21h-2.25a22.381,22.381,0,0,0,.21-3.21V148.22h-5c-.3,6.69-1.59,10.32-5,14.28a5.445,5.445,0,0,0-1.74-1.35c3.15-3,4.56-6.75,4.83-12.93h-.84a16.735,16.735,0,0,0-3,.18v-2.1a19.538,19.538,0,0,0,3,.15h.9v-8.31Zm2.19,7.29v1h4.89v-8.31h-4.89Z"/><path class="cls-2" d="M203.43,150.11a26.557,26.557,0,0,0,3.36-.15c-.06.66-.09,1.29-.12,2.64l-.12,6.09c0,.9.33,1,2.67,1,2.1,0,2.7-.15,2.91-.69a17.522,17.522,0,0,0,.48-4.5,7.379,7.379,0,0,0,2,.78c-.48,6-.66,6.18-5.49,6.18-3.66,0-4.44-.39-4.44-2.4v-.15l.12-7h-5.58a11.5,11.5,0,0,1-2.34,4.95,13.234,13.234,0,0,1-3.21,2.88,20.2,20.2,0,0,1-5,2.46,4.628,4.628,0,0,0-1.32-1.71,18.726,18.726,0,0,0,5.76-2.7,9.8,9.8,0,0,0,4.17-5.88h-4.74a21.4,21.4,0,0,0-3.24.18v-2.13a20.251,20.251,0,0,0,3.18.18h5.16a21.266,21.266,0,0,0,.21-2.52,9.989,9.989,0,0,0-.12-1.62h2.28a9.116,9.116,0,0,0-.24,1.89c-.06.72-.12,1.47-.24,2.22Zm-4-12.69a9.275,9.275,0,0,0-.21-2.16h2.34a8.765,8.765,0,0,0-.21,2.16v.93h8.91a25.477,25.477,0,0,0,3-.15,13.518,13.518,0,0,0-.12,2.07v1.53a13.911,13.911,0,0,0,.12,2.1h-2v-3.84h-7.47v4.35c0,.36.06.51.21.6a5.9,5.9,0,0,0,1.92.21,5.541,5.541,0,0,0,2.43-.33c.33-.24.48-1,.51-2.43a6.266,6.266,0,0,0,1.8.57c-.15,1.89-.39,2.73-.9,3.18s-1.74.66-3.87.66c-3.15,0-3.9-.33-3.9-1.65v-5.16H198.3a8.236,8.236,0,0,1-1.05,3.33,8.451,8.451,0,0,1-4.74,3.81,27.718,27.718,0,0,1-2.79.87,8.181,8.181,0,0,0-1.14-1.65c3.21-.6,4.71-1.2,6-2.4a5.673,5.673,0,0,0,1.83-4h-6.39v3.81h-2a14.453,14.453,0,0,0,.12-2.1v-1.5a13.518,13.518,0,0,0-.12-2.07,25.477,25.477,0,0,0,3,.15h8.31Z"/><path class="cls-2" d="M238.73,153.47a21.663,21.663,0,0,0,3.18-.15v2a22.231,22.231,0,0,0-3.18-.15h-6.36v4.23h8.82a22.826,22.826,0,0,0,3.75-.21v2.1a32.483,32.483,0,0,0-3.87-.18H222.35a32.7,32.7,0,0,0-3.87.18v-2.1a23.191,23.191,0,0,0,3.78.21h8.22v-4.25h-5.76a22.073,22.073,0,0,0-3.21.15v-2a21.259,21.259,0,0,0,3.21.15h5.76V153a14.931,14.931,0,0,0-.18-2.37h2.25a14.358,14.358,0,0,0-.18,2.37v.45Zm-8.34-16.44a11.758,11.758,0,0,0-.18-2h2.31a10.735,10.735,0,0,0-.18,2v.78h7.83a34.393,34.393,0,0,0,4-.12,13.547,13.547,0,0,0-.12,2.13v1.5a13.115,13.115,0,0,0,.12,2h-2v-3.87h-21v3.87h-2v-.36a13.964,13.964,0,0,0,.09-1.71v-1.59a15.188,15.188,0,0,0-.12-2q1.856.153,3.72.12h7.47Zm-4.44,7a24.213,24.213,0,0,0-3.51.15v-1.92a22.991,22.991,0,0,0,3.42.15H237.5a23.813,23.813,0,0,0,3.45-.15v1.92a23.828,23.828,0,0,0-3.42-.15h-7.71a29.466,29.466,0,0,1-2.43,4.17c3.33-.09,5.85-.24,10-.54a29.428,29.428,0,0,0-2.75-2.11l1.44-.93a52.245,52.245,0,0,1,6.36,5.37L241,151.22a24.2,24.2,0,0,0-2.07-2.13c-5.34.45-11.49.81-17.07,1a7.032,7.032,0,0,0-1.14.12l-.3-1.92q.927.092,1.86.09c1,0,1.68,0,3.12-.06a28.146,28.146,0,0,0,2.46-4.26Z"/><path class="cls-2" d="M255.64,136.94c-1.29,3-2.31,9.15-2.31,14.07,0,1,.06,2.82.12,4.2v1.44h.12a26.628,26.628,0,0,1,1.77-5.28,4.037,4.037,0,0,0,.24-.6l1.47.69c-1.41,2.94-2.58,6.75-2.58,8.52a3.272,3.272,0,0,0,.06.6l-2.13.21a7.551,7.551,0,0,0-.18-1.11,47.736,47.736,0,0,1-.84-8.91,50.869,50.869,0,0,1,1.56-12.33,13.762,13.762,0,0,0,.33-1.89Zm3,5.58a20.763,20.763,0,0,0,5.4.48c1.17,0,2,0,3.21-.09v-5.1a6.665,6.665,0,0,0-.09-1.23h2.25a30.631,30.631,0,0,0-.21,4.71v1.47a20.44,20.44,0,0,0,5.19-1.11l.09,2c-.06,0-.06,0-2.1.42a28.668,28.668,0,0,1-3.18.48c0,3,.09,4.5.33,8.49a21.721,21.721,0,0,1,5,2.94c.36.24.42.3.75.51l-.93,2.1a16.2,16.2,0,0,0-4.26-3.12,1.938,1.938,0,0,1-.3-.18l-.27-.18a4.251,4.251,0,0,1,.06.78,5.18,5.18,0,0,1-.36,2c-.72,1.59-2.55,2.52-5,2.52-3.48,0-5.67-1.65-5.67-4.26s2.37-4.26,5.7-4.26a8.468,8.468,0,0,1,3.33.6c-.09-.63-.21-3.45-.3-7.83-1.35.06-2.28.09-3.42.09s-2.34,0-3.39-.09a7.965,7.965,0,0,0-1-.06,4.339,4.339,0,0,0-.51,0,1.368,1.368,0,0,0-.3,0h-.12Zm5.76,11.25c-2.34,0-3.87,1-3.87,2.49s1.38,2.43,3.48,2.43a4.13,4.13,0,0,0,3.06-1,3.5,3.5,0,0,0,.57-2.34v-.9A7.761,7.761,0,0,0,264.4,153.77Z"/><path class="cls-2" d="M281.26,154.13a30.583,30.583,0,0,1,6,6.36l-1.62,1.59a29.952,29.952,0,0,0-5.91-6.54Z"/><path class="cls-2" d="M313.24,139.65a20.986,20.986,0,0,0,5.61.48h.75a16.406,16.406,0,0,1,.15-2.25c0-.33.09-1.5.09-1.71a3.072,3.072,0,0,0,0-.45l2.34.15a20.016,20.016,0,0,0-.63,4.2,46.086,46.086,0,0,0,11.43-1.68l.12,2.1-1.05.15a83.974,83.974,0,0,1-10.62,1.2c-.18,2.55-.18,2.55-.21,4a15.866,15.866,0,0,1,4.44-.6,12,12,0,0,1,1.74.09,11.28,11.28,0,0,0,.72-2.7l2.07.63c-.09.18-.42,1-.93,2.4,4.14,1,6.45,3.51,6.45,7,0,2.94-1.62,5.31-4.71,6.93a16.5,16.5,0,0,1-6.12,1.71,6.181,6.181,0,0,0-1-2,13.977,13.977,0,0,0,4.5-.81c3.27-1.14,5.16-3.33,5.16-6s-1.71-4.38-5-5.22a26.992,26.992,0,0,1-5.7,9c-2.31,2.4-4.59,3.63-6.69,3.63s-3.87-1.89-3.87-4.56c0-3.69,2.61-7.05,7-8.94a38.125,38.125,0,0,1,.18-4.53h-1.2c-.3,0-1.65-.06-4.05-.15a4.864,4.864,0,0,0-.54,0,3.2,3.2,0,0,0-.48,0Zm2.88,11.1a7.093,7.093,0,0,0-1.83,4.47c0,1.65.87,2.73,2.16,2.73a5.419,5.419,0,0,0,3.45-1.53,42.5,42.5,0,0,1-.6-8.13,10.736,10.736,0,0,0-3.18,2.48Zm5.49,4.44a3.238,3.238,0,0,1,.57-.78,27.11,27.11,0,0,0,4.59-7.5c-1-.06-1.11-.06-1.44-.06a13.465,13.465,0,0,0-4.17.69,50.541,50.541,0,0,0,.33,6.87,1.966,1.966,0,0,1,0,.42v.33Z"/><path class="cls-2" d="M349.35,141.74a25.084,25.084,0,0,0-.69,3.3c-.72,4.35-.78,4.56-.87,5.25a3.678,3.678,0,0,1-.12.69h.06a8.413,8.413,0,0,1,.93-.9,14.844,14.844,0,0,1,8.67-2.58c4.89,0,8,2.28,8,5.79a6.412,6.412,0,0,1-2.7,5.16,12.45,12.45,0,0,1-7.47,2,24.966,24.966,0,0,1-5.25-.54l-2.4-.6a4.927,4.927,0,0,0,0-.57,6.939,6.939,0,0,0-.21-1.86,21.3,21.3,0,0,0,7.65,1.5c4.95,0,8.1-2,8.1-5,0-2.46-2.16-3.9-5.82-3.9a14.529,14.529,0,0,0-8.4,2.61,5.21,5.21,0,0,0-1.2,1.23l-2.34-.06c.09-.54.12-.81.24-1.77.3-2.28.84-5.76,1.26-8.28a10.137,10.137,0,0,0,.21-1.59Zm1.32-5.22a36.189,36.189,0,0,0,10.17,3.33l-.84,2.1a46.3,46.3,0,0,1-5.85-1.71,33.351,33.351,0,0,1-4.59-1.89Z"/><path class="cls-2" d="M377.96,138.71a17.63,17.63,0,0,0-.69,3,53.624,53.624,0,0,0-.81,6.66,4.617,4.617,0,0,1-.09.9c0,.27-.06.45-.09.78h.12l.24-.81a11.48,11.48,0,0,1,2.79-4.65,12.653,12.653,0,0,1,7.74-4.11,23.959,23.959,0,0,0-.42-4.35l2.25-.06a3.753,3.753,0,0,0,0,.45,3.2,3.2,0,0,0,0,.48c0,.42.15,2.43.18,3.3,5.31.09,8.82,3.3,8.82,8.1s-4,8.4-9.33,8.4a8.538,8.538,0,0,1-1.41-.12,14.99,14.99,0,0,1-5.58,5.13,6.694,6.694,0,0,0-1.62-1.53,12.407,12.407,0,0,0,5-4l.18-.24a2.291,2.291,0,0,1-.69-.27,9.789,9.789,0,0,1-4.65-4.8,5.407,5.407,0,0,0,1.17-1.65c1.26,2.79,2.7,4.23,5,5.07.81-1.71,1.23-4.56,1.23-8.4,0-1,0-1.77-.06-3.63a12.219,12.219,0,0,0-7.68,4.74,11.887,11.887,0,0,0-2.76,7.11,6.083,6.083,0,0,0,.15,1.41l-2.13.18a6,6,0,0,0-.06-1c-.15-2-.21-3.54-.21-5.07a53.168,53.168,0,0,1,.84-9.21,10.048,10.048,0,0,0,.24-2Zm11.37,6.84c0,4.41-.48,7.77-1.35,9.27h.24a3.246,3.246,0,0,0,.54,0,7.417,7.417,0,0,0,3.15-.66,6.408,6.408,0,0,0,4-6,5.58,5.58,0,0,0-3.15-5.19,7.706,7.706,0,0,0-3.54-.81C389.3,143.54,389.33,144.26,389.33,145.55Z"/><path class="cls-2" d="M409.03,137.75a13.867,13.867,0,0,0,2.82.18c2.49,0,6.48-.18,9.18-.39a3.062,3.062,0,0,0,1.44-.33l1.26,1.65a5.532,5.532,0,0,0-1.53,1.26,76.993,76.993,0,0,1-9.87,8.52l.06.09a15.2,15.2,0,0,1,7.35-1.86c5,0,8.22,2.46,8.22,6.3,0,4.68-4.35,7.77-11,7.77-4.23,0-6.66-1.56-6.66-4.32,0-2,1.86-3.51,4.35-3.51a6,6,0,0,1,4.95,2.46,8.586,8.586,0,0,1,1.38,2.88c3.15-.87,4.8-2.7,4.8-5.25,0-2.88-2.4-4.59-6.45-4.59a19.25,19.25,0,0,0-12.63,5.13l-1.35-1.92a33.311,33.311,0,0,0,4.2-3.06c3.21-2.55,8-6.72,10-8.76l.42-.42.12-.12.12-.12-.06-.06h-.27c-1,.18-4.56.39-9.12.54a14.666,14.666,0,0,0-1.62.15Zm5.61,17.07c-1.5,0-2.43.72-2.43,1.86a2,2,0,0,0,1.2,1.83,7.661,7.661,0,0,0,3.36.69,10.809,10.809,0,0,0,2.19-.21C418.33,156.26,416.83,154.82,414.64,154.82Z"/><path class="cls-2" d="M453.31,150.5V134.87h7.95v1.86h-5.91V150.5Z"/><path class="cls-2" d="M467.5,142.97a23.689,23.689,0,0,1-1.41,4.8,6.846,6.846,0,0,0-1.65-.93,20.9,20.9,0,0,0,1.89-8.67,7.248,7.248,0,0,0,0-.78l1.92.3c-.06.51-.09.75-.18,1.59s-.15,1.32-.24,2h2.16v-3.75a12.451,12.451,0,0,0-.21-2.49h2.25a12.222,12.222,0,0,0-.18,2.49v3.75h1.38a7.4,7.4,0,0,0,1.86-.15v1.95a11.813,11.813,0,0,0-1.86-.12h-1.38v6.69c1.35-.54,1.86-.75,3.39-1.47v1.8c-1.53.72-2,.93-3.39,1.5v7.77a27.177,27.177,0,0,0,.18,3.15h-2.25a19.764,19.764,0,0,0,.21-3.15V152.2q-4.1,1.5-4.5,1.68l-.6-2.13a24.572,24.572,0,0,0,5.1-1.41v-7.35Zm15.63-1.26a25.051,25.051,0,0,1-2.58,6.63,20.811,20.811,0,0,1-5.49,6.21,5.465,5.465,0,0,0-1.41-1.47,16.737,16.737,0,0,0,5.46-5.79,19.668,19.668,0,0,0,2.22-5.58h-2.69a24.245,24.245,0,0,1-3.24,4.89,5.312,5.312,0,0,0-1.53-1.2,20.775,20.775,0,0,0,5.16-10.26l2.1.45c-.21.48-.21.48-.81,2.16-.27.75-.51,1.38-.9,2.31h9.22a16.717,16.717,0,0,0,2.55-.12,30.982,30.982,0,0,0-.21,4.23c-.12,4.53-.36,8.73-.69,11.55-.57,4.95-1.32,6-4.26,6a23.785,23.785,0,0,1-3.39-.33,6.761,6.761,0,0,0-.54-2.1,15.988,15.988,0,0,0,3.93.6c1.29,0,1.74-.57,2.1-2.7a110.388,110.388,0,0,0,1-15.48h-1.32a38.114,38.114,0,0,1-1.53,5.91,29.322,29.322,0,0,1-4.68,8.61,26.311,26.311,0,0,1-5.82,5.4,5.119,5.119,0,0,0-1.53-1.47,24.2,24.2,0,0,0,8.61-9.18,29.583,29.583,0,0,0,3.18-9.27Z"/><path class="cls-2" d="M503.53,146.9v15.63h-7.95v-1.88h5.91V146.9Z"/><path class="cls-2" d="M530.56,150.5V134.87h8v1.86h-5.92V150.5Z"/><path class="cls-2" d="M554.5,149.78h-7.05a18.991,18.991,0,0,0-2.82.15v-1.86a17.548,17.548,0,0,0,2.88.15h7v-2h-6.27a19.065,19.065,0,0,0-2.46.12,14.224,14.224,0,0,0,.12-2v-1.32a14.862,14.862,0,0,0-.12-2,19.915,19.915,0,0,0,2.49.12h6.24v-2h-8.7a25.838,25.838,0,0,0-3.36.18v-2a22.218,22.218,0,0,0,3.42.18h8.64a12.092,12.092,0,0,0-.18-2.7h2.19a9.759,9.759,0,0,0-.21,2.7h9.18a22.608,22.608,0,0,0,3.45-.18v2a26.849,26.849,0,0,0-3.39-.18h-9.24v2h6.9a19.074,19.074,0,0,0,2.46-.12,14.532,14.532,0,0,0-.12,2v1.32a14.224,14.224,0,0,0,.12,2,18.613,18.613,0,0,0-2.43-.12h-6.93v2h6.54a29.447,29.447,0,0,0,3.36-.12,23.519,23.519,0,0,0-.09,2.49v1.26a15.252,15.252,0,0,0,3.18-.18v1.89a20.365,20.365,0,0,0-3.18-.15v2a17.712,17.712,0,0,0,.18,3h-1.96v-1.23h-8v2.47c0,2.07-.6,2.49-3.51,2.49-.63,0-1.17,0-2.85-.12a5,5,0,0,0-.51-1.89,26.025,26.025,0,0,0,3.72.3c1.08,0,1.35-.15,1.35-.81v-2.46h-7.23a20.064,20.064,0,0,0-2.94.15v-1.86a18.007,18.007,0,0,0,2.88.15h7.29v-2.16h-9a21.79,21.79,0,0,0-3.27.15v-1.94a19.436,19.436,0,0,0,3.27.18h9Zm-6.81-7.13v2.22h6.81v-2.22Zm8.61,2.22h7.44v-2.22H556.3Zm8,7V149.8h-8v2.07Zm-8,3.72h8v-2.16h-8Z"/><path class="cls-2" d="M580.78,146.9v15.63h-7.95v-1.88h5.91V146.9Z"/><path class="cls-2" d="M610.36,137.06a42.5,42.5,0,0,0-1.26,4.8,44.326,44.326,0,0,0-.9,9.39c0,2.34.06,4.11.18,5.7a27.872,27.872,0,0,1,2-5.85l1.44.69c-1.35,3-2.43,6.57-2.43,8.25v.45l-2.16.18c-.06-.48-.09-.63-.18-1.2a42.96,42.96,0,0,1-.78-8.49,49.654,49.654,0,0,1,1.35-11.88,16.693,16.693,0,0,0,.42-2.4Zm7.65,12.06c-1.5,1.65-2.25,3.09-2.25,4.41,0,2.22,1.89,3.3,5.76,3.3a19.734,19.734,0,0,0,6.9-1l.3,2.31a6.172,6.172,0,0,0-1.05.15,31.048,31.048,0,0,1-6.15.6c-3.42,0-5.58-.72-6.87-2.28a4.244,4.244,0,0,1-.9-2.76c0-1.83.75-3.45,2.61-5.58Zm-3.81-8.88a20.368,20.368,0,0,0,5.1.45,32.224,32.224,0,0,0,8-.81l.15,2.13-2.07.27a50.762,50.762,0,0,1-6.45.39,40.114,40.114,0,0,1-4.8-.3Z"/><path class="cls-2" d="M635.73,142.82c.9-.06.9-.06,6.24-1.26a40.113,40.113,0,0,1,8.7-1.11c5.49,0,9,2.91,9,7.5,0,3.75-2.22,6.9-6.24,8.85-2.76,1.32-5.28,1.89-9.93,2.28a5.292,5.292,0,0,0-.93-2.22,26.841,26.841,0,0,0,8.34-1.38c4.11-1.5,6.42-4.2,6.42-7.56s-2.49-5.4-6.57-5.4a47.626,47.626,0,0,0-12.27,2.13,13.16,13.16,0,0,0-2.16.72Z"/><path class="cls-2" d="M670.64,138.86a21.746,21.746,0,0,0-.21,3.57,51.374,51.374,0,0,0,.78,9.33c.66,3.06,1.89,5.13,3,5.13.54,0,1-.51,1.5-1.5a21.6,21.6,0,0,0,1.56-5.13,9.588,9.588,0,0,0,1.77,1.71c-1.47,5.25-2.85,7.26-5,7.26-1.68,0-3.24-1.68-4.26-4.56s-1.47-6.69-1.62-14.07a16.354,16.354,0,0,0-.09-1.77Zm14.49,1.59a26.022,26.022,0,0,1,4.29,6.84,28.721,28.721,0,0,1,2.25,8l-2.13.87a26.5,26.5,0,0,0-6.24-14.79Z"/><path class="cls-2" d="M697.96,140.3h1.08a14.725,14.725,0,0,0,1.71-.09c3.57-.27,13.17-.81,17-1a20.17,20.17,0,0,0,3.57-.33l.18,2.25a13.927,13.927,0,0,0-3.36.39,15.222,15.222,0,0,0-5.76,3,9.17,9.17,0,0,0-3.69,6.93c0,2.52,1.53,4.53,4.2,5.55a15.381,15.381,0,0,0,4.5,1h.3l-.39,2.43-.93-.18a15.131,15.131,0,0,1-6.48-2.31,7.3,7.3,0,0,1-3.33-6.12c0-3.48,2-6.81,5.61-9.21a19.664,19.664,0,0,1,2.85-1.59,58.187,58.187,0,0,1-6.6.66,87.991,87.991,0,0,0-10.35,1Z"/><path class="cls-2" d="M730.98,138.29a15.043,15.043,0,0,0-2.58.15v-2.07a18.6,18.6,0,0,0,2.73.18h9.42a17.933,17.933,0,0,0,2.7-.18v2.07a14.5,14.5,0,0,0-2.55-.15h-.66v7.44h.93a15.138,15.138,0,0,0,2.64-.15v2.07a15.335,15.335,0,0,0-2.64-.15h-.93v11.25a21,21,0,0,0,.18,3.12H738a18.928,18.928,0,0,0,.18-3.12V147.53h-4.54a35.329,35.329,0,0,1-.51,5.49,17.411,17.411,0,0,1-4.47,9,6.006,6.006,0,0,0-1.59-1.35c3.27-3.15,4.59-6.87,4.71-13.17h-1.23a17.563,17.563,0,0,0-2.73.18v-2.13a16.743,16.743,0,0,0,2.73.18h1.23v-7.44Zm2.67,7.44h4.53v-7.44h-4.54Zm21.63,6.3a23.95,23.95,0,0,0-2.07,2.25,32.027,32.027,0,0,1-5.1,4.59,30.974,30.974,0,0,1-5.31,3.12,9.3,9.3,0,0,0-1.16-1.74,27.61,27.61,0,0,0,9.81-6.81,15.2,15.2,0,0,0,2.13-2.85Zm-2.1-15.38c-.36.3-.6.54-1.56,1.44a31.544,31.544,0,0,1-8,5.79,6.539,6.539,0,0,0-1.2-1.71,23.156,23.156,0,0,0,6.93-4.62,12.445,12.445,0,0,0,2-2.22Zm1.08,7.59a10.184,10.184,0,0,0-1.26,1.17,33.774,33.774,0,0,1-9.24,6.93,8.22,8.22,0,0,0-1.17-1.77,24.437,24.437,0,0,0,7.71-5.1,13.843,13.843,0,0,0,2.28-2.64Z"/><path class="cls-2" d="M1.64,196.58c.48,0,.84.06,1.5.06h1a17.22,17.22,0,0,0,2.43-4.71l2,.54c-1.14,2-1.65,2.88-2.49,4.11,2.67-.09,3.48-.15,6.06-.39a16.728,16.728,0,0,0-1.95-2.22l1.38-.81a38.859,38.859,0,0,1,4,4.92l-1.47.93c-.48-.75-.63-1-1-1.56-4.14.51-4.83.57-9.69.84a13.155,13.155,0,0,0-1.56.15Zm.07,21.07a13.461,13.461,0,0,0,3.21-5.31l1.68.78a17.423,17.423,0,0,1-3.24,5.67Zm3.54-9.15a21.638,21.638,0,0,0,.12,2.88h-2a20.065,20.065,0,0,0,.15-3.06v-6.48a23.489,23.489,0,0,0-.09-2.46c.66.06,1.44.09,2.67.09h5a19.4,19.4,0,0,0,2.64-.12,23.481,23.481,0,0,0-.12,3v6.51c0,1-.27,1.65-.78,1.86a6.252,6.252,0,0,1-2.31.33c-.45,0-1.11,0-1.83-.06a3.907,3.907,0,0,0-.39-1.62,19.081,19.081,0,0,0,2.58.24c.9,0,1-.12,1-.78v-1.56H5.25ZM12,202.71v-1.8H5.25v1.8Zm0,3.18v-1.8H5.25v1.8Zm-1.11,6.27a8.3,8.3,0,0,0-.18,2v2.34c0,.66.6.78,3.87.78,4,0,5-.12,5.37-.66a5.46,5.46,0,0,0,.51-2.76,5.843,5.843,0,0,0,1.86.72c-.21,2.19-.57,3.21-1.29,3.75s-2,.63-5.64.63c-5.79,0-6.48-.21-6.48-2v-2.64a9.995,9.995,0,0,0-.18-2.19Zm6,3.42a15.757,15.757,0,0,0-4-3.06l1.26-1.05a18.954,18.954,0,0,1,4,2.88ZM18,205.11c3.24-.63,6.12-1.62,7.44-2.58L26.79,204c-.36.12-.45.15-1.2.45a40.975,40.975,0,0,1-7.59,2.2v1.71c0,.78.54.93,3.69.93,2.67,0,3.51-.09,3.9-.39s.51-1,.6-2.94a5.055,5.055,0,0,0,1.71.75c-.24,2.25-.45,2.88-1.05,3.42s-1.95.75-5.28.75c-4.35,0-5.34-.39-5.34-2.07v-4.46a9.452,9.452,0,0,0-.18-2.22h2.13a8.656,8.656,0,0,0-.18,2.16Zm.09-9.39a23.128,23.128,0,0,0,7.71-2.76l1.44,1.47c-.9.39-2.94,1.14-4,1.5a49.212,49.212,0,0,1-5.13,1.29v1.43c0,.45.09.6.51.75a20.28,20.28,0,0,0,3.75.21c3.54,0,3.6,0,3.75-3.36a6.057,6.057,0,0,0,1.71.75c-.21,2.22-.48,3-1.2,3.51s-1.68.63-5.16.63c-4.17,0-5.13-.39-5.13-2.1v-4.59a9.452,9.452,0,0,0-.18-2.22h2.13a8.9,8.9,0,0,0-.18,2.16Zm8.46,22.83a24.517,24.517,0,0,0-3.78-5.61l1.5-.78a28.7,28.7,0,0,1,3.93,5.37Z"/><path class="cls-2" d="M47.64,216.83c0,1.86-.57,2.22-3.36,2.22-.84,0-2.4-.06-3.45-.18a9,9,0,0,0-.63-1.92,31.153,31.153,0,0,0,3.93.33c1.38,0,1.59-.09,1.59-.72v-6H36.64a23.035,23.035,0,0,0-3.15.18v-2.09a22.293,22.293,0,0,0,3.12.18h9v-.51a11.863,11.863,0,0,0-.09-1.77h1.32a25.193,25.193,0,0,0,5.37-3.39h-11a26.605,26.605,0,0,0-2.85.15v-1.96a27.2,27.2,0,0,0,2.91.15H52.12a12.977,12.977,0,0,0,2.22-.12l1.14,1.2a9.515,9.515,0,0,0-1,.87,34.115,34.115,0,0,1-6.84,4.44v.93h8.91a22.01,22.01,0,0,0,3.09-.17v2.07a22.835,22.835,0,0,0-3.18-.18H47.64ZM39.54,197a20.071,20.071,0,0,0-2.82-3.9l1.8-.57a28.565,28.565,0,0,1,3.06,4.44h4.38a17.767,17.767,0,0,0-2.24-4.32l1.86-.51a25.68,25.68,0,0,1,2.28,4.83h3.3a17.888,17.888,0,0,0,3.09-4.83l1.89.81a28.031,28.031,0,0,1-2.88,4h2.38a34.245,34.245,0,0,0,3.45-.12,19.541,19.541,0,0,0-.12,2.49v2.22a16.4,16.4,0,0,0,.15,2.1h-2v-5H35.92v5h-2a15.692,15.692,0,0,0,.15-2.1v-2.22a19.541,19.541,0,0,0-.12-2.49,26.76,26.76,0,0,0,3.42.15Z"/><path class="cls-2" d="M68.95,196.79a21.17,21.17,0,0,0,1.29-4.53l2.13.39c-.57,1.71-1,2.82-1.53,4.14h2l2.64-.09c-.06.78-.09,1.56-.09,2.64v15.31a25.721,25.721,0,0,0,.15,3.09h-2v-1.92h-5.9v2.64h-2a26.79,26.79,0,0,0,.15-3.66V199.55a22.236,22.236,0,0,0-.12-2.85,16.911,16.911,0,0,0,1.8.09h1.48Zm-1.31,8.34h5.85v-6.69H67.64Zm0,9h5.85v-7.32H67.64ZM80.3,198.56a28.552,28.552,0,0,1-3.45,5.46,6.118,6.118,0,0,0-1.44-1.35,21.789,21.789,0,0,0,4.41-7.56,13.326,13.326,0,0,0,.78-2.91l2.07.39a10.517,10.517,0,0,0-.42,1.14c-.42,1.2-.69,1.89-1.14,3.06h7.26a19.4,19.4,0,0,0,2.64-.12,11.952,11.952,0,0,0-.12,1.89c-.27,11.88-.66,15.9-1.74,18.3-.6,1.38-1.56,1.92-3.33,1.92-1.11,0-1.92-.06-3.84-.21a5.548,5.548,0,0,0-.51-2.13,22.537,22.537,0,0,0,4.26.51c1.11,0,1.53-.27,1.89-1.23a34.086,34.086,0,0,0,1.11-8.28c.15-2.4.18-4.47.21-8.88Zm3.3,12.36a31.5,31.5,0,0,0-4.56-7.59l1.53-.93a34.729,34.729,0,0,1,4.74,7.47Z"/><path class="cls-2" d="M102.29,216.14a18.857,18.857,0,0,0,.18,3.15h-2.16c.09-.93.15-1.95.15-3.15v-9.15a35.827,35.827,0,0,1-4,3.81,7.308,7.308,0,0,0-1.05-1.71,24.533,24.533,0,0,0,4.95-4.41,23.806,23.806,0,0,0,3.81-5.82H98.8a20.72,20.72,0,0,0-2.31.12v-2a18.385,18.385,0,0,0,2.25.12h1.74v-2.79a20.407,20.407,0,0,0-.15-2.37h2.22a12.866,12.866,0,0,0-.18,2.4v2.76h1.83a6.661,6.661,0,0,0,1.41-.09l.87,1.08a9.348,9.348,0,0,0-.57,1.08,28.987,28.987,0,0,1-3.27,5.25,24.6,24.6,0,0,0,4.38,3.66,7.366,7.366,0,0,0-.9,1.74,32,32,0,0,1-3.78-3.45Zm8.43-6.66a25.167,25.167,0,0,0-2.91.09c.06-.72.09-1.77.09-3V196.28a27.914,27.914,0,0,0-.12-3.06,22.2,22.2,0,0,0,2.94.12h8a21.638,21.638,0,0,0,2.88-.12,26.5,26.5,0,0,0-.12,3.06v10.26a28.093,28.093,0,0,0,.16,3.11,26.676,26.676,0,0,0-2.91-.12h-1.09v7c0,.51.33.6,1.92.6s1.92-.12,2.07-.63a16.416,16.416,0,0,0,.33-3.6,5.857,5.857,0,0,0,1.68.75c-.15,2.61-.42,3.93-.93,4.5s-1.41.69-3.57.69c-2.85,0-3.42-.3-3.42-1.74v-7.59h-2.61a10.913,10.913,0,0,1-1.14,4.38c-1.2,2.4-3.09,4-6.27,5.4a7.544,7.544,0,0,0-1.35-1.68c4.29-1.41,6.72-4.23,6.93-8.1Zm-1-11.28h10v-3.24h-10Zm0,4.71h10v-3.15h-10Zm0,5h10v-3.39h-10Z"/><path class="cls-2" d="M127.74,218.12a12.752,12.752,0,0,0,2.33-2.82,13.339,13.339,0,0,0,1.62-3.54l1.77.78a20.879,20.879,0,0,1-4,6.66Zm13.9-16.47h5.79a23.7,23.7,0,0,0,3.39-.15,16.265,16.265,0,0,0-.12,2.25v4.8a15.591,15.591,0,0,0,.12,2.16,30.646,30.646,0,0,0-3.09-.12H134.81a30.646,30.646,0,0,0-3.09.12,16.59,16.59,0,0,0,.12-2.16v-4.8a18.188,18.188,0,0,0-.12-2.25c.9.09,2,.15,3.39.15h4.59v-6.51a17.931,17.931,0,0,0-.21-3h2.37a16.005,16.005,0,0,0-.21,2.85v1h8.46a20.61,20.61,0,0,0,3-.18v2.07a24.649,24.649,0,0,0-3-.18h-8.47Zm-7.89,1.74v5.43h15v-5.43Zm3.48,15.84a29.873,29.873,0,0,0-.66-6.6l1.71-.3a36.992,36.992,0,0,1,.93,6.48Zm7.47,0a27.853,27.853,0,0,0-2.37-6.6l1.65-.54a45.608,45.608,0,0,1,2.66,6.36Zm7.65-.06a34.194,34.194,0,0,0-4-6.78l1.65-.75a50.206,50.206,0,0,1,4.11,6.45Z"/><path class="cls-2" d="M160.47,200.51a63.178,63.178,0,0,0,6.63-.78,36.685,36.685,0,0,0,.9-6.36v-.39l2.4.27a18.434,18.434,0,0,0-.57,2.88c-.15.87-.36,2-.63,3.42a17.439,17.439,0,0,1,1.77-.09c2.13,0,3.39.36,4.32,1.26s1.47,2.37,1.47,4.83c0,4.59-.78,8.58-2,10.32a3.128,3.128,0,0,1-2.94,1.41,11.285,11.285,0,0,1-4.53-1.17,6.585,6.585,0,0,0,.06-1.05,5.816,5.816,0,0,0-.09-1.2,11.222,11.222,0,0,0,4.47,1.38q1.13,0,1.71-1.44a23.2,23.2,0,0,0,1.26-8.34c0-3.18-.9-4.2-3.69-4.2a17.342,17.342,0,0,0-2.16.15,56.6,56.6,0,0,1-4.53,12.72c-.39.72-1,1.92-1.95,3.6l-2-1.2a28.781,28.781,0,0,0,3.12-5.43,49.529,49.529,0,0,0,3.3-9.51c-2.58.39-4,.63-4.29.69a17.276,17.276,0,0,0-1.74.39Zm19.71-2.76a27.129,27.129,0,0,1,6.27,10.62l-1.92,1.11a24.554,24.554,0,0,0-6.12-10.77Z"/><path class="cls-2" d="M198.69,198.74a25.084,25.084,0,0,0-.69,3.3c-.72,4.35-.77,4.56-.87,5.25a3.678,3.678,0,0,1-.12.69h.06a8.413,8.413,0,0,1,.93-.9,14.844,14.844,0,0,1,8.67-2.58c4.89,0,8,2.28,8,5.79a6.412,6.412,0,0,1-2.7,5.16,12.45,12.45,0,0,1-7.47,2,24.966,24.966,0,0,1-5.25-.54l-2.39-.6v-.57a6.554,6.554,0,0,0-.21-1.86,21.3,21.3,0,0,0,7.65,1.5c4.95,0,8.1-2,8.1-5,0-2.46-2.16-3.9-5.82-3.9a14.529,14.529,0,0,0-8.4,2.61,5.21,5.21,0,0,0-1.2,1.23l-2.34-.06c.09-.54.12-.81.24-1.77.3-2.28.84-5.76,1.26-8.28a10.137,10.137,0,0,0,.21-1.59Zm1.32-5.22a36.189,36.189,0,0,0,10.17,3.33l-.84,2.1a46.3,46.3,0,0,1-5.85-1.71,33.351,33.351,0,0,1-4.59-1.89Z"/><path class="cls-2" d="M233.71,193.07a8.217,8.217,0,0,0-.84,1.53,29.785,29.785,0,0,1-9.45,11.25,6.594,6.594,0,0,0-1.47-1.62,24.724,24.724,0,0,0,8.22-8.79,9.655,9.655,0,0,0,1.29-3.15Zm-2.91,11.67a24.174,24.174,0,0,0-3.09.18v-2.13a22.917,22.917,0,0,0,3.12.18h9.87a22.707,22.707,0,0,0,3.15-.15,13.311,13.311,0,0,0-.12,2.13c0,5.82-.57,10.89-1.35,12.3-.51.9-1.23,1.2-3,1.2-1,0-2-.06-3.93-.24a8.327,8.327,0,0,0-.48-2.13,23.061,23.061,0,0,0,4.23.51c1,0,1.29-.18,1.5-.75.63-1.83,1-5.91,1-11.1h-7a17.083,17.083,0,0,1-2.34,7.89c-1.56,2.61-3.9,4.65-7.56,6.54a6.275,6.275,0,0,0-1.32-1.68c3.84-1.86,6.12-3.84,7.56-6.57a14.528,14.528,0,0,0,1.62-6.18Zm9.33-12.39a12.137,12.137,0,0,0,1.14,2.52,25,25,0,0,0,8.85,9.33,7.384,7.384,0,0,0-1.41,1.83,30.4,30.4,0,0,1-10.07-12.06c-.15-.27-.33-.6-.48-.84Z"/><path class="cls-2" d="M259.03,194.75a12.9,12.9,0,0,0-.17-2.49h2.21a12.3,12.3,0,0,0-.17,2.52v3.39h2.18a9.579,9.579,0,0,0,2-.15v2a10.154,10.154,0,0,0-2-.15h-2a15.476,15.476,0,0,0,3.88,5.7,6.806,6.806,0,0,0-1.14,1.68,18.113,18.113,0,0,1-3-5.1c.05,1.71.12,3.63.12,5.55v8.88a14.705,14.705,0,0,0,.17,2.82h-2.18a18.086,18.086,0,0,0,.18-2.79v-8.46c0-1.8,0-3.42.12-5.4-1.47,4.68-2.37,6.63-4.36,9.33a5,5,0,0,0-1.34-1.53,28.083,28.083,0,0,0,5.25-10.68h-2.41a8.089,8.089,0,0,0-1.85.15v-2a9.311,9.311,0,0,0,2,.15h2.54Zm18.42,7a28.092,28.092,0,0,0,3.48-.18v2.19a28.891,28.891,0,0,0-3.48-.18h-1.41v12.36a29.075,29.075,0,0,0,.18,3.39h-2.31a29.776,29.776,0,0,0,.21-3.39V203.65h-5.81c-.28,8-1.27,11.82-4.11,15.6a6.813,6.813,0,0,0-1.6-1.41,12.25,12.25,0,0,0,2.58-4.74c.9-2.94,1.3-7,1.3-13.5a33.877,33.877,0,0,0-.19-4.32h.54a30.011,30.011,0,0,0,11.64-2.94l1.44,1.71c-.48.18-.48.18-3.51,1.2a36.624,36.624,0,0,1-8,1.74v4.83Z"/><path class="cls-2" d="M289.91,196.79a21.17,21.17,0,0,0,1.29-4.53l2.13.39c-.57,1.71-1,2.82-1.53,4.14h1.95l2.64-.09c-.06.78-.09,1.56-.09,2.64v15.31a25.929,25.929,0,0,0,.15,3.09h-2v-1.92h-5.81v2.64h-2a26.79,26.79,0,0,0,.15-3.66V199.55a22.236,22.236,0,0,0-.12-2.85,16.911,16.911,0,0,0,1.8.09h1.44Zm-1.27,8.34h5.85v-6.69h-5.85Zm0,9h5.85v-7.32h-5.85Zm12.66-15.57a28.552,28.552,0,0,1-3.45,5.46,6.118,6.118,0,0,0-1.44-1.35,21.789,21.789,0,0,0,4.41-7.56,13.326,13.326,0,0,0,.78-2.91l2.07.39a10.517,10.517,0,0,0-.42,1.14c-.42,1.2-.69,1.89-1.14,3.06h7.26a19.4,19.4,0,0,0,2.64-.12,11.952,11.952,0,0,0-.12,1.89c-.27,11.88-.66,15.9-1.74,18.3-.6,1.38-1.56,1.92-3.33,1.92-1.11,0-1.92-.06-3.84-.21a5.548,5.548,0,0,0-.51-2.13,22.537,22.537,0,0,0,4.26.51c1.11,0,1.53-.27,1.89-1.23a34.086,34.086,0,0,0,1.11-8.28c.15-2.4.18-4.47.21-8.88Zm3.3,12.36a31.5,31.5,0,0,0-4.56-7.59l1.53-.93a34.729,34.729,0,0,1,4.74,7.47Z"/><path class="cls-2" d="M333.32,199.34l-.9.18a52.214,52.214,0,0,1-5.3.9v5.23a21.236,21.236,0,0,1,6.45-1.08,10.118,10.118,0,0,1,5.3,1.26,6.17,6.17,0,0,1-3,11.52,4.421,4.421,0,0,1-4.61-3.39,10.924,10.924,0,0,1-.37-3.39,6.4,6.4,0,0,0,2-.78,8.793,8.793,0,0,0-.06,1.17c0,3.12.9,4.41,3.09,4.41a4,4,0,0,0,4.007-3.993c0-.079,0-.158-.007-.237,0-2.94-2.5-4.77-6.42-4.77a20.263,20.263,0,0,0-6.36,1.17v7.5c0,1.62-.72,2.4-2.19,2.4a7.9,7.9,0,0,1-5-1.92,3.621,3.621,0,0,1-1.31-2.87c0-1.32.75-2.61,2.37-4a15.912,15.912,0,0,1,4.23-2.46v-5.67l-1.21.09H319.3v-2a17.041,17.041,0,0,0,3.06.21c.81,0,2,0,2.88-.09v-3a21.547,21.547,0,0,0-.15-2.85h2.22a17.125,17.125,0,0,0-.15,2.79v2.98a30.453,30.453,0,0,0,6.12-1.29Zm-8.12,8.85c-3,1.44-4.65,3.06-4.65,4.5,0,.63.42,1.23,1.29,1.8a5.609,5.609,0,0,0,2.67.87c.6,0,.69-.18.69-1.47Zm16.44-5.64a24.388,24.388,0,0,0-6-5.9l1.56-1.17a25.2,25.2,0,0,1,6.06,5.7Z"/><path class="cls-2" d="M363.03,192.92a21.574,21.574,0,0,0-.18,4c0,.66,0,1,.06,3.12a29.881,29.881,0,0,0,8.79-1.14l.27,2.22a16.507,16.507,0,0,0-1.8.21,51.827,51.827,0,0,1-7.23.66c.09,2.91.24,5.82.39,7.74a25.918,25.918,0,0,1,8,4.26,13.766,13.766,0,0,0,1.38.93l-1.41,2.1a13.292,13.292,0,0,0-3.12-2.61,30.113,30.113,0,0,0-4.05-2.31,5.923,5.923,0,0,1-.72-.33,8.455,8.455,0,0,1,.12,1.29,5.364,5.364,0,0,1-.75,3c-.93,1.32-2.85,2.07-5.34,2.07-3.87,0-6.24-1.68-6.24-4.44s2.79-4.74,7.05-4.74a12.933,12.933,0,0,1,2.61.27c.15,0,.15.06.27.06s.06,0,.15.06a.816.816,0,0,0,0-.27v-.18c-.24-3.45-.45-9.24-.48-13.53a13.721,13.721,0,0,0-.15-2.43Zm-4.8,17.91c-3.06,0-4.92,1.08-4.92,2.82a2,2,0,0,0,.45,1.29,4.841,4.841,0,0,0,3.6,1.2,5.07,5.07,0,0,0,3.33-1,2.78,2.78,0,0,0,.72-2.25,16.241,16.241,0,0,0-.09-1.65,10.22,10.22,0,0,0-3.09-.41Z"/><path class="cls-2" d="M382.3,195.71a9.772,9.772,0,0,0,1.41.09c3.33,0,6.81-.42,7.92-1l1.26,1.89a13.9,13.9,0,0,0-3.51,3.24c-2.73,3.3-4.11,6.57-4.11,9.63a5.871,5.871,0,0,0,5.583,6.144q.163.007.327.006a6.821,6.821,0,0,0,6.18-4.11,15.412,15.412,0,0,0,1.08-6.24,24.547,24.547,0,0,0-1.87-9.66l2.17-.72a23.89,23.89,0,0,0,2.82,5.46,18.307,18.307,0,0,0,5.43,5.4l-1.15,2.07-.51-.45-.15-.12-.57-.51a21.923,21.923,0,0,1-5.42-7.2,19.491,19.491,0,0,1,1.2,6.84,15.639,15.639,0,0,1-1.17,6.12,8.608,8.608,0,0,1-8,5.22c-4.71,0-8-3.42-8-8.34a16.167,16.167,0,0,1,4-10,15.1,15.1,0,0,1,2.7-2.67,26.723,26.723,0,0,1-6.69.93,5.419,5.419,0,0,1-.57,0h-.3Zm19.47-3a23.659,23.659,0,0,1,3.09,4.65l-1.54.9a21.793,21.793,0,0,0-3.05-4.77Zm3.36-1.62a23.3,23.3,0,0,1,3.11,4.65l-1.5.87a24.635,24.635,0,0,0-3.05-4.71Z"/><path class="cls-2" d="M425.14,194.72a21.462,21.462,0,0,0,.36-2.79l2.07.21c-.09.39-.15.63-.33,1.53-.06.36-.09.45-.24,1.05h8.49a19.01,19.01,0,0,0,3.18-.21v2.14a23.154,23.154,0,0,0-3.18-.18h-8.85c-.33,1.26-.39,1.56-.75,2.67h6.18a34.245,34.245,0,0,0,3.45-.12,28.925,28.925,0,0,0-.12,3.33v8a27.82,27.82,0,0,0,.12,3.24,34.245,34.245,0,0,0-3.45-.12h-8.85c-1.141-.017-2.283.023-3.42.12a28.729,28.729,0,0,0,.12-3.24v-8a29.856,29.856,0,0,0-.12-3.33,34.245,34.245,0,0,0,3.45.12h.78c.33-1.08.51-1.65.75-2.67h-9a25.653,25.653,0,0,0-3.06.18v-2.1a18.794,18.794,0,0,0,3.09.21Zm10.62,21.27a20.673,20.673,0,0,0,2.91-.18v2.16a17.318,17.318,0,0,0-3-.21H416.23v1.38h-2.19a24.1,24.1,0,0,0,.21-3.48V203a21.54,21.54,0,0,0-.18-3.15h2.31a30.126,30.126,0,0,0-.15,3.15v13ZM421.64,203.3h12v-2.65h-12Zm0,4.2h12v-2.64h-12Zm0,4.35h12v-2.79h-12Z"/><path class="cls-2" d="M467.74,199.19c-.17.36-.2.42-.8,1.62a21.95,21.95,0,0,1-2.79,4.71c1.2,2,2.58,3.24,3.45,3.24.56,0,1-1.14,1.31-3.66a5.315,5.315,0,0,0,1.5,1.2c-.62,3.12-1.37,4.26-2.78,4.26s-3.18-1.38-4.62-3.63a20.721,20.721,0,0,1-4.23,3.63,5.827,5.827,0,0,0-1.32-1.26,17.408,17.408,0,0,0,4.68-3.87c-1.14-2.28-1.74-4.59-2.25-8.67H447.64c0,8.67-.54,11.55-2.55,14.64a4.4,4.4,0,0,0-1.68-1.2c1.92-2.76,2.4-5.16,2.4-12.3a27.733,27.733,0,0,0-.15-2.91c1,.09,2.1.15,3.54.15h10.47l-.18-1.92a5.8,5.8,0,0,0-.18-1.2h2.13a10.076,10.076,0,0,0-.09,1.41,13.682,13.682,0,0,0,.09,1.71h4.86a18.259,18.259,0,0,0-3.48-2.28l1.23-1a23.987,23.987,0,0,1,3.54,2.25l-1.11,1a17.533,17.533,0,0,0,3.38-.18v2a24.663,24.663,0,0,0-3.35-.15h-4.87a24.259,24.259,0,0,0,1.69,7.17,17.1,17.1,0,0,0,2.64-5.43Zm-19,12.81a17,17,0,0,1-3.51,6.45l-1.59-1.14a12.609,12.609,0,0,0,3.48-6.12Zm10.23-11.46a16.819,16.819,0,0,0-2.31-.12h-5.73a18.116,18.116,0,0,0-2.34.12v-1.77a16.632,16.632,0,0,0,2.34.12h5.71a16.509,16.509,0,0,0,2.31-.12Zm-9.6,3.48a13.875,13.875,0,0,0-.09-1.68,18.554,18.554,0,0,0,2,.09h4.83a19.336,19.336,0,0,0,2.07-.09,12.636,12.636,0,0,0-.09,1.65v2.73c0,.69,0,.84.06,1.71a18.542,18.542,0,0,0-2-.06h-4.89a16.289,16.289,0,0,0-2,.09,12.412,12.412,0,0,0,.09-1.68Zm3.36,12.39c0,.69.42.78,4.35.78,3.24,0,4.41-.18,4.83-.69a4.871,4.871,0,0,0,.48-2.58,5.733,5.733,0,0,0,1.83.75c-.42,4-.81,4.2-7.8,4.2-4.71,0-5.52-.3-5.52-2.07v-3.42a11.637,11.637,0,0,0-.18-2.22h2.16a10.632,10.632,0,0,0-.15,2Zm-1.71-9.51h5.46v-3h-5.46Zm8.1,8a22.083,22.083,0,0,0-4.86-3.54l1.17-1.11a24.593,24.593,0,0,1,4.92,3.36Zm6.75-3.42a32.97,32.97,0,0,1,4.08,5.64l-1.62,1a27.1,27.1,0,0,0-4-5.88Z"/><path class="cls-2" d="M479.3,196.79a21.17,21.17,0,0,0,1.29-4.53l2.13.39c-.57,1.71-1,2.82-1.53,4.14h2l2.64-.09c-.06.78-.09,1.56-.09,2.64v15.31a25.721,25.721,0,0,0,.15,3.09h-2v-1.92h-5.85v2.64h-2a26.79,26.79,0,0,0,.15-3.66V199.55a22.236,22.236,0,0,0-.12-2.85,16.911,16.911,0,0,0,1.8.09h1.43Zm-1.29,8.34h5.85v-6.69h-5.85Zm0,9h5.85v-7.32h-5.85Zm12.63-15.6a28.521,28.521,0,0,1-3.45,5.46,6.118,6.118,0,0,0-1.44-1.35,21.789,21.789,0,0,0,4.41-7.56,13.311,13.311,0,0,0,.78-2.91l2.07.39a10.517,10.517,0,0,0-.42,1.14c-.42,1.2-.69,1.89-1.14,3.06h7.26a19.4,19.4,0,0,0,2.64-.12,11.952,11.952,0,0,0-.12,1.89c-.27,11.88-.66,15.9-1.74,18.3-.6,1.38-1.56,1.92-3.33,1.92-1.11,0-1.92-.06-3.84-.21a5.548,5.548,0,0,0-.51-2.13,22.527,22.527,0,0,0,4.26.51c1.11,0,1.53-.27,1.89-1.23a34.086,34.086,0,0,0,1.11-8.28c.15-2.4.18-4.47.21-8.88Zm3.3,12.36a31.5,31.5,0,0,0-4.56-7.59l1.53-.93a34.729,34.729,0,0,1,4.74,7.47Z"/><path class="cls-2" d="M520.53,200.18a10.855,10.855,0,0,0-.12,2.1c-.09,5-.93,8-3,10.56-1.83,2.31-4,3.81-7.68,5.19a5.851,5.851,0,0,0-1.38-2,14.1,14.1,0,0,0,5.49-2.76c3.18-2.55,4.35-5.61,4.35-11.46a7.919,7.919,0,0,0-.12-1.62Zm11.85-3.78a5.379,5.379,0,0,0-.74,1.25,18,18,0,0,1-8.76,8.55,5.883,5.883,0,0,0-1.47-1.71,13,13,0,0,0,4.74-2.85,15.9,15.9,0,0,0,3.36-4.47h-17a29.062,29.062,0,0,0-3.54.15v-2.31a21.969,21.969,0,0,0,3.57.21h16.1c2,0,2,0,2.55-.21Z"/><path class="cls-2" d="M559.47,196.13a3.2,3.2,0,0,1-.12-.87,3.41,3.41,0,1,1,3.43,3.39h-.04a3.551,3.551,0,0,1-1.05-.15l-.05.15c-1.47,5.34-3.39,9.09-6.12,11.94a27.842,27.842,0,0,1-10.88,7.14,5.944,5.944,0,0,0-1.47-2.07,22.5,22.5,0,0,0,16.23-17.49H544.08a22.2,22.2,0,0,0-3.36.18v-2.4a21.343,21.343,0,0,0,3.39.18Zm1.14-.9a2.15,2.15,0,1,0,2.17-2.13h-.01a2.15,2.15,0,0,0-2.13,2.13Z"/><path class="cls-2" d="M575.11,214.65v2.13H572.8a15.666,15.666,0,0,0,.12-2.25v-16.3a15.511,15.511,0,0,0-.12-2.34,21.763,21.763,0,0,0,2.34.09h16a15.5,15.5,0,0,0,2.34-.09,16.331,16.331,0,0,0-.09,2.34v16.23a17.622,17.622,0,0,0,.09,2.31H591.2v-2.12Zm16.08-16.68H575.11v14.68h16.08Z"/><path class="cls-2" d="M602.32,204.35a21.223,21.223,0,0,0,3.72.18h17.43a23.668,23.668,0,0,0,3.63-.15v2.43a34.393,34.393,0,0,0-3.66-.12h-17.4a32.762,32.762,0,0,0-3.72.12Z"/><path class="cls-2" d="M655.73,195.32a6.222,6.222,0,0,0-.93.3,46.465,46.465,0,0,1-6.6,1.86c0,2.88-.06,4.83-.09,6h7.2a14.269,14.269,0,0,0,3.15-.21v2.28a23.343,23.343,0,0,0-3.15-.15h-7.35a14.292,14.292,0,0,1-2,6.63c-1.56,2.61-3.81,4.5-7.47,6.27a5.677,5.677,0,0,0-1.62-1.86,14,14,0,0,0,7-5.16,11.276,11.276,0,0,0,1.83-5.88h-8.36a23.343,23.343,0,0,0-3.15.15v-2.28a14.208,14.208,0,0,0,3.15.21h8.61c.06-1.32.09-3,.09-5.64a56.866,56.866,0,0,1-8.88.84,7.83,7.83,0,0,0-.72-2c.84.06,1.29.06,1.74.06a48.206,48.206,0,0,0,12.6-1.89,12.544,12.544,0,0,0,3.42-1.44Z"/><path class="cls-2" d="M673.73,196.91a12.705,12.705,0,0,0,1.44-4.11l2.4.42a6.372,6.372,0,0,0-.78,1.62,14.053,14.053,0,0,1-.93,2,5.093,5.093,0,0,1,.63,0c4.8-.24,7.8-.6,9.45-1.14l.18,2a9.3,9.3,0,0,0-1.2.15,97.012,97.012,0,0,1-9.9.78,22.157,22.157,0,0,1-2.7,4.26c-.3.36-.9,1.05-1,1.14s-.36.27-.39.3h0a.237.237,0,0,0,.06.09,8.3,8.3,0,0,1,1.38-1,8.007,8.007,0,0,1,4.53-1.47,3.641,3.641,0,0,1,3.993,3.249c0,.027,0,.054.007.081,2.19-.87,3.9-1.5,5.22-2a6.6,6.6,0,0,0,2-.87l1,2.1a49.9,49.9,0,0,0-8,2.64c.06.78.06,1.08.06,1.83v3a6.5,6.5,0,0,0,.06,1.08h-2q.2-2.154.18-4.32a7.948,7.948,0,0,0,0-.9c-4.08,1.92-5.64,3.33-5.64,5.13,0,2,1.86,2.85,6.09,2.85a25.147,25.147,0,0,0,8-1.17l.27,2.31c-.4.03-.8.08-1.2.15a46.476,46.476,0,0,1-7.29.6c-5.37,0-8-1.53-8-4.62,0-1.65,1-3.21,3.06-4.74a23.314,23.314,0,0,1,4.47-2.4c-.24-1.65-1-2.37-2.37-2.37-1.89,0-4.26,1.11-6.69,3.18a9.936,9.936,0,0,0-2.31,2.49l-1.88-1.6a29.848,29.848,0,0,0,6.72-8.58l.27-.45a3.413,3.413,0,0,1-.57.06l-4.41-.03h-.48a5.191,5.191,0,0,0-.66,0v-2.07a42,42,0,0,0,6.42.33Z"/><path class="cls-2" d="M698.7,208.79a33.709,33.709,0,0,1-1.59,8.67l-1.59-.72a26.709,26.709,0,0,0,1.56-8.25Zm-3.06-3.6a10.223,10.223,0,0,0,1.26.09h.63c1.32-1.74,1.32-1.74,2.13-2.91a35.837,35.837,0,0,0-3.93-4.77l1-1.29c.54.6.75.84,1.14,1.29a20.4,20.4,0,0,0,2.55-5.4l1.89.87a13.526,13.526,0,0,0-1.29,2.34c-.48.9-1.47,2.55-2.07,3.45.87,1.05,1.11,1.38,1.62,2.07,2.13-3.27,2.7-4.29,3.09-5.49l1.77,1a10.116,10.116,0,0,0-.9,1.38,72.836,72.836,0,0,1-5.13,7.38c1.77-.09,3.12-.21,4.17-.33a20.828,20.828,0,0,0-1.17-2.67l1.32-.54a30.94,30.94,0,0,1,2.28,5.7l-1.5.6c-.21-.87-.24-1-.45-1.71l-.63.09-1.56.18v9.54a19.323,19.323,0,0,0,.18,3.45h-2.07a22.866,22.866,0,0,0,.18-3.45v-9.41l-2.61.24a8.359,8.359,0,0,0-1.71.24Zm8.76,3.21a57.846,57.846,0,0,1,1.23,6l-1.53.48a34,34,0,0,0-1.11-6.12Zm8.88.12a11.921,11.921,0,0,0-.09-1.71c-.54,0-1.14-.06-1.89-.06h-3a15.9,15.9,0,0,0-2,.09,18.542,18.542,0,0,0,.09-2v-2.1a12.385,12.385,0,0,0-.12-2,14.068,14.068,0,0,0,2.19.12h2.76a18.04,18.04,0,0,0,2.13-.09c-.06.72-.06,1.17-.06,1.92v3.99h1.68v-5.96a16.7,16.7,0,0,0,2,.09h3.54a12.848,12.848,0,0,0,1.86-.09,14.152,14.152,0,0,0-.09,1.77v2.49a14.241,14.241,0,0,0,.09,1.8,12.865,12.865,0,0,0-2-.12h-3.39a12.465,12.465,0,0,0-1.83.09,10.988,10.988,0,0,0-.09,1.71v.42h5.19a17.172,17.172,0,0,0,2.91-.18v1.95a28.87,28.87,0,0,0-2.94-.15h-4.26a13.229,13.229,0,0,0,2.13,2.16,18.361,18.361,0,0,0,5.85,3.24,6.464,6.464,0,0,0-1,1.77,18.348,18.348,0,0,1-5-3.12,12.929,12.929,0,0,1-3-3.33c.09,1.05.12,2.07.12,3v2.22a17.632,17.632,0,0,0,.18,2.94h-2a24.645,24.645,0,0,0,.15-3v-2.19c0-1,0-1.83.09-2.91a13.682,13.682,0,0,1-2.4,3,22.454,22.454,0,0,1-4.92,3.75,5.464,5.464,0,0,0-1.26-1.47,20,20,0,0,0,5.82-4,15.543,15.543,0,0,0,1.74-2h-3.82a19.265,19.265,0,0,0-2.94.15v-1.86a17.114,17.114,0,0,0,2.94.18h4.62Zm-5.43-3.15h3.9v-3.12h-3.9Zm.69-10.38a14.453,14.453,0,0,0-.12-2.1,19.4,19.4,0,0,0,2.55.12h6.18a21.076,21.076,0,0,0,2.82-.12,11.945,11.945,0,0,0-.12,2v2.49a18.043,18.043,0,0,0,.09,2c-.72-.06-1.5-.09-2.61-.09h-6.45a22.947,22.947,0,0,0-2.46.06,12.161,12.161,0,0,0,.12-2Zm1.71,2.85h7.86v-3.36h-7.86Zm6.24,7.53h4.2v-3.12h-4.2Z"/><path class="cls-2" d="M736.29,193.04a16.936,16.936,0,0,0-.69,3.09c-.48,3-.9,6.3-1,7.83h.12l.21-.87a13.387,13.387,0,0,1,1.83-4.47c1.68-2.58,3.66-3.87,6-3.87a5.651,5.651,0,0,1,4.8,2.67c1.26,1.86,1.8,4.08,1.8,7.29,0,5.43-2.43,9.54-6.93,11.79a22.689,22.689,0,0,1-5.34,1.77,6.2,6.2,0,0,0-1.2-2,15.852,15.852,0,0,0,6.09-1.89c3.51-2,5.16-5.16,5.16-10s-1.68-7.62-4.56-7.62c-2.28,0-4.2,1.71-5.91,5.22a15.662,15.662,0,0,0-1.62,6.69v.72l-2.16.09v-.87l-.06-3.12v-.69a75.787,75.787,0,0,1,1-11.07,5.987,5.987,0,0,0,.09-1Z"/><path class="cls-2" d="M1.64,261.05a12.151,12.151,0,0,0,2.31.15H5.51a14.171,14.171,0,0,0,2.31-.15,22.4,22.4,0,0,0-.15,3.15v5.91a4.83,4.83,0,0,0,2.67,2.76c1.47.66,3.18.87,6.72.87a85.993,85.993,0,0,0,12.09-.6,8.345,8.345,0,0,0-.69,2.19c-2.94.12-6.45.21-8.85.21-5,0-7-.15-8.58-.6a7.25,7.25,0,0,1-4.31-3.29,28.821,28.821,0,0,1-3.63,3.21,11.947,11.947,0,0,0-1.08.93l-1-2a19.094,19.094,0,0,0,4.83-3.66v-7.28h-2a11.81,11.81,0,0,0-2.19.15Zm2.1-11a39.054,39.054,0,0,1,4.9,5.27l-1.56,1.33a29.322,29.322,0,0,0-4.68-5.43Zm9.9,8.48a36.948,36.948,0,0,1-1.2,8.49,16,16,0,0,1-2,4.53,6.467,6.467,0,0,0-1.47-1.38c2.16-2.94,3-7.62,3-16.47a26.649,26.649,0,0,0-.12-3.27,19.538,19.538,0,0,0,3,.15H24.96a21.28,21.28,0,0,0,3.09-.18v2.07a21.965,21.965,0,0,0-3-.18H13.8c0,2.07,0,2.79-.09,4.59h9.51a15.991,15.991,0,0,0,2.55-.15l1.05,1.08a17.143,17.143,0,0,0-.81,1.65,23.225,23.225,0,0,1-4.17,6.57,21.384,21.384,0,0,0,6.87,3.93,7.449,7.449,0,0,0-1,1.77,24.584,24.584,0,0,1-7.08-4.44,23.689,23.689,0,0,1-6.72,4.62,5.857,5.857,0,0,0-1.32-1.5,21.782,21.782,0,0,0,6.78-4.35,18.922,18.922,0,0,1-4.56-7.53Zm2.94,0a16.626,16.626,0,0,0,4,6.27,19.731,19.731,0,0,0,3.9-6.27Z"/><path class="cls-2" d="M40.49,250.7a46.206,46.206,0,0,0-.39,6.33c-.12,3.6-.21,7.68-.21,9,0,.36,0,1.11.06,1.8a4.721,4.721,0,0,0,1.41,3.6,5.659,5.659,0,0,0,3.75,1.22,8.619,8.619,0,0,0,8-5.22,17.784,17.784,0,0,0,1.53-4.73,8.469,8.469,0,0,0,2.16,1.44c-1.14,3.51-2,5.28-3.33,6.81a10.5,10.5,0,0,1-8.46,3.75c-2.55,0-4.44-.72-5.64-2.1s-1.65-3-1.65-6.15c0-2,0-2.76.27-12.21v-2a9.21,9.21,0,0,0-.12-1.59Z"/><path class="cls-2" d="M64.64,268.13a30.583,30.583,0,0,1,6,6.36l-1.68,1.59a29.952,29.952,0,0,0-5.91-6.54Z"/><path class="cls-2" d="M99.74,251.72a23.4,23.4,0,0,0,2.7.12c2.7,0,7-.18,9.15-.42a5.858,5.858,0,0,0,1.68-.36l1.26,1.59a9.7,9.7,0,0,0-1.47,1.26,58.3,58.3,0,0,1-9.84,7.65,69.607,69.607,0,0,1,7.2-.81c1.23-.09,3.06-.27,5.34-.48,1.23-.09,2.13-.18,2.73-.24a4,4,0,0,0,.87-.12l.21,2.1h-.66a19.938,19.938,0,0,0-8.27,1.64,10.61,10.61,0,0,0-3.75,2.85,3.791,3.791,0,0,0-1,2.49c0,2.46,2.58,3.87,7.14,3.87a10.735,10.735,0,0,0,2-.18l.09,2.31c-.51,0-.51,0-2-.06-3.51-.06-6.12-.72-7.56-2a4.88,4.88,0,0,1-1.77-3.78c0-2.67,2.22-5,6.54-6.93l-1.65.27c-.51.06-3.18.42-4.89.63a77.038,77.038,0,0,0-8.85,1.35l-.24-2.28h.21a39.744,39.744,0,0,0,5.25-.6,63.636,63.636,0,0,0,10-7.74,10.012,10.012,0,0,1,1-.84,72.682,72.682,0,0,1-9.39.72c-1.14.06-1.26.06-1.86.12Z"/><path class="cls-2" d="M137.05,266.12c-1.74,4-3.51,5.76-5.67,5.76-2.85,0-5-3.12-5-7.32a12.179,12.179,0,0,1,12.072-12.287q.384,0,.768.017a11.611,11.611,0,0,1,8.25,3,10,10,0,0,1,2.91,7.32,10.921,10.921,0,0,1-6.87,10.35,23.212,23.212,0,0,1-4.56,1.38,4.774,4.774,0,0,0-1.05-2,18.022,18.022,0,0,0,5-1.41,9.058,9.058,0,0,0,5.31-8.4,7.91,7.91,0,0,0-4.77-7.53,8.622,8.622,0,0,0-3.48-.75A45.02,45.02,0,0,1,137.05,266.12Zm-3.69-10.47a10.369,10.369,0,0,0-4.89,8.94c0,2.88,1.26,5.1,2.88,5.1,1.26,0,2.46-1.41,3.75-4.35a41.217,41.217,0,0,0,2.73-11.1A9.469,9.469,0,0,0,133.36,255.65Z"/><path class="cls-2" d="M158.34,261.98a19.99,19.99,0,0,0,5.37,1.2c.15-1.47.45-3.81.69-5.4a39.841,39.841,0,0,1-4.47-.81l-.93-.21.27-2a19.372,19.372,0,0,0,5.4,1.17,47.132,47.132,0,0,0,.72-5.64v-.24l2.4.27a15.4,15.4,0,0,0-.48,2,10.659,10.659,0,0,1-.3,1.92c-.09.66-.15,1-.3,1.8h1.74a24.394,24.394,0,0,0,5.49-.51l-.09,2.07-2.1.18c-.93.09-1.83.12-2.7.12-.48,0-1,0-2.64-.06-.48,3.45-.51,3.75-.69,5.43h2a26.281,26.281,0,0,0,5.52-.48l-.06,2-.81.06a34.761,34.761,0,0,1-4.23.24c-.75,0-1.23,0-2.58-.06a5.459,5.459,0,0,1,0,.6c-.06.72-.12,1.71-.12,2.22a4.431,4.431,0,0,0,1.38,3.6,6.313,6.313,0,0,0,4.23,1.29c4,0,6.63-2.07,6.63-5.25,0-1.89-.93-3.57-2.85-5.22a5.934,5.934,0,0,0,2.19-.6c2.13,2.31,2.82,3.78,2.82,6,0,4.23-3.54,7.08-8.79,7.08-3.15,0-5.55-1.08-6.72-3a8.129,8.129,0,0,1-.93-4.14,15.906,15.906,0,0,1,.12-2,2.267,2.267,0,0,1,.06-.72,31.707,31.707,0,0,1-4.53-.75,3.112,3.112,0,0,0-.93-.18Z"/><path class="cls-2" d="M198.95,266.12c-1.74,4-3.51,5.76-5.67,5.76-2.85,0-5-3.12-5-7.32a12.179,12.179,0,0,1,12.072-12.287q.384,0,.768.017a11.611,11.611,0,0,1,8.25,3,10,10,0,0,1,2.91,7.32,10.921,10.921,0,0,1-6.87,10.35,23.212,23.212,0,0,1-4.56,1.38,4.766,4.766,0,0,0-1-2,18.022,18.022,0,0,0,5-1.41,9.058,9.058,0,0,0,5.31-8.4,7.91,7.91,0,0,0-4.77-7.53,8.622,8.622,0,0,0-3.48-.75A45.02,45.02,0,0,1,198.95,266.12Zm-3.69-10.47a10.367,10.367,0,0,0-4.89,8.94c0,2.88,1.26,5.1,2.88,5.1,1.26,0,2.46-1.41,3.75-4.35a41.217,41.217,0,0,0,2.73-11.1A9.469,9.469,0,0,0,195.26,255.65Z"/><path class="cls-2" d="M229.9,266.12c-1.74,4-3.51,5.76-5.67,5.76-2.85,0-5-3.12-5-7.32A12.179,12.179,0,0,1,231.3,252.273q.384,0,.768.017a11.611,11.611,0,0,1,8.25,3,10,10,0,0,1,2.91,7.32,10.921,10.921,0,0,1-6.87,10.35,23.212,23.212,0,0,1-4.56,1.38,4.774,4.774,0,0,0-1.05-2,18.022,18.022,0,0,0,5-1.41,9.058,9.058,0,0,0,5.31-8.4,7.91,7.91,0,0,0-4.77-7.53,8.622,8.622,0,0,0-3.48-.75A45.02,45.02,0,0,1,229.9,266.12Zm-3.69-10.47a10.369,10.369,0,0,0-4.89,8.94c0,2.88,1.26,5.1,2.88,5.1,1.26,0,2.46-1.41,3.75-4.35a41.217,41.217,0,0,0,2.73-11.1A9.469,9.469,0,0,0,226.21,255.65Z"/><path class="cls-2" d="M267.64,264.5V248.87h7.95v1.86h-5.95V264.5Z"/><path class="cls-2" d="M294.25,251.75a10.134,10.134,0,0,0-.12-1.74h2.25a24.724,24.724,0,0,0-.15,3.75v.33c5.67,0,8-.09,9-.21v2.13a53.187,53.187,0,0,0-5.73-.15c-.45,0-.78,0-3.21.06v5.94a8.6,8.6,0,0,1,.72,3.54,9.658,9.658,0,0,1-4,7.83,19.059,19.059,0,0,1-4.74,2.43,6.594,6.594,0,0,0-1.32-1.89,15.392,15.392,0,0,0,4.86-2.25,7.772,7.772,0,0,0,3.36-6.33,4.206,4.206,0,0,1-.81,1.47,4.923,4.923,0,1,1-3.66-8.08c.09,0,.18,0,.27.01a4.608,4.608,0,0,1,3.48,1.35v-3.99c-6,.12-12.09.42-14.1.75l-.09-2.19h1.2c.87,0,.87,0,5.7-.18,2.88-.12,5.22-.18,7.26-.24Zm-1.29,9a3.838,3.838,0,0,0-2-.48,3.169,3.169,0,0,0-3.316,3.016c0,.055,0,.109,0,.164a2.9,2.9,0,0,0,2.792,3,2.694,2.694,0,0,0,.3,0,3.359,3.359,0,0,0,3.511-3.2,3.2,3.2,0,0,0,0-.339,2.171,2.171,0,0,0-1.28-2.13Z"/><path class="cls-2" d="M310.95,257.65a61.525,61.525,0,0,0,6.63-.78,37.075,37.075,0,0,0,.9-6.36v-.39l2.4.27a18.434,18.434,0,0,0-.57,2.88c-.12.75-.39,2.13-.63,3.42a17.439,17.439,0,0,1,1.77-.09c2.13,0,3.39.36,4.32,1.26s1.47,2.37,1.47,4.83c0,4.59-.78,8.58-2,10.32a3.129,3.129,0,0,1-2.94,1.41,11.285,11.285,0,0,1-4.53-1.17,6.726,6.726,0,0,0,.06-1.08,5.6,5.6,0,0,0-.09-1.17,11.206,11.206,0,0,0,4.47,1.38q1.13,0,1.71-1.44a23.2,23.2,0,0,0,1.26-8.34c0-3.18-.9-4.2-3.69-4.2a17.342,17.342,0,0,0-2.16.15,58.258,58.258,0,0,1-6.48,16.32l-2-1.2c2.49-3.27,5.07-9.27,6.42-14.94a39.022,39.022,0,0,0-6,1.08Zm19.69-2.78a27.471,27.471,0,0,1,6.27,10.62l-1.92,1.08a25.327,25.327,0,0,0-6.12-10.77Zm1.35-5.1a22.736,22.736,0,0,1,3.09,4.65l-1.5.9a23,23,0,0,0-3.09-4.77Zm3.39-1.62a24.08,24.08,0,0,1,3.09,4.65l-1.5.87a21.743,21.743,0,0,0-3.06-4.71Z"/><path class="cls-2" d="M342.95,255.26a20.652,20.652,0,0,0,3.75.27c.6,0,.93,0,1.8-.06a29.373,29.373,0,0,0,.66-5.52l2.37.24a28.115,28.115,0,0,0-.54,2.85c-.15,1-.24,1.38-.39,2.28a24.72,24.72,0,0,0,5.4-1l.15,2.07a2.574,2.574,0,0,0-.84.15,43.75,43.75,0,0,1-5.07.72c-.45,2.37-1.29,5.76-2.1,8.49a79.015,79.015,0,0,1-3.45,9.15l-2.19-.93c2.22-3.87,4.53-10.71,5.64-16.59h-2.07c-1.07,0-1.32,0-2.49-.06h-.12a4.339,4.339,0,0,0-.51,0Zm13.41,10.89a10.086,10.086,0,0,0-.9,1.14,3.615,3.615,0,0,0-.75,2.13c0,1.8,1.83,2.76,5.25,2.76a22.276,22.276,0,0,0,6.63-1l.21,2.25-1.32.21a29.988,29.988,0,0,1-5.34.51c-4.92,0-7.47-1.53-7.47-4.5,0-1.35.42-2.28,2-4.32Zm9.27-5.19a30.134,30.134,0,0,0-3.54-.21,26.087,26.087,0,0,0-7.5,1l-.21-2a33.983,33.983,0,0,1,7.95-1c.57,0,1,0,3.27.09Z"/><path class="cls-2" d="M379.73,260.9v15.63h-7.95v-1.88h5.91V260.9Z"/><path class="cls-2" d="M406.76,264.5V248.87h7.95v1.86H408.8V264.5Z"/><path class="cls-2" d="M419.54,257.51a63.178,63.178,0,0,0,6.63-.78,36.685,36.685,0,0,0,.9-6.36v-.39l2.4.27a18.434,18.434,0,0,0-.57,2.88c-.15.87-.36,2-.63,3.42a17.439,17.439,0,0,1,1.77-.09c2.13,0,3.39.36,4.32,1.26s1.47,2.37,1.47,4.83c0,4.59-.78,8.58-2,10.32a3.129,3.129,0,0,1-2.94,1.41,11.285,11.285,0,0,1-4.53-1.17,6.585,6.585,0,0,0,.06-1.05,5.816,5.816,0,0,0-.09-1.2,11.222,11.222,0,0,0,4.47,1.38q1.129,0,1.71-1.44a23.2,23.2,0,0,0,1.26-8.34c0-3.18-.9-4.2-3.69-4.2a17.342,17.342,0,0,0-2.16.15,56.6,56.6,0,0,1-4.53,12.72c-.39.72-1,1.92-1.95,3.6l-2-1.2a28.781,28.781,0,0,0,3.12-5.43,49.529,49.529,0,0,0,3.3-9.51c-2.58.39-4,.63-4.29.69a17.276,17.276,0,0,0-1.74.39Zm19.71-2.76a27.129,27.129,0,0,1,6.27,10.62l-1.88,1.11a24.554,24.554,0,0,0-6.12-10.77Z"/><path class="cls-2" d="M451.15,255.26a20.652,20.652,0,0,0,3.75.27c.6,0,.93,0,1.8-.06a29.373,29.373,0,0,0,.66-5.52l2.37.24a28.394,28.394,0,0,0-.54,2.85c-.15,1-.24,1.38-.39,2.28a24.72,24.72,0,0,0,5.4-1l.15,2.07a2.574,2.574,0,0,0-.84.15,43.75,43.75,0,0,1-5.07.72c-.45,2.37-1.29,5.76-2.1,8.49a79.015,79.015,0,0,1-3.45,9.15l-2.19-.93c2.22-3.87,4.53-10.71,5.64-16.59h-2.07c-1.07,0-1.32,0-2.49-.06h-.14a4.339,4.339,0,0,0-.51,0Zm13.41,10.89a10.086,10.086,0,0,0-.9,1.14,3.615,3.615,0,0,0-.75,2.13c0,1.8,1.83,2.76,5.25,2.76a22.276,22.276,0,0,0,6.63-1l.21,2.25-1.36.22a29.988,29.988,0,0,1-5.34.51c-4.92,0-7.47-1.53-7.47-4.5,0-1.35.42-2.28,2-4.32Zm9.27-5.19a30.134,30.134,0,0,0-3.54-.21,26.087,26.087,0,0,0-7.5,1l-.21-2a33.983,33.983,0,0,1,7.95-1c.57,0,1,0,3.27.09Z"/><path class="cls-2" d="M482.4,254.65a27.462,27.462,0,0,0,6.48.51,23.362,23.362,0,0,0,1-5.37l2.4.24a15.266,15.266,0,0,0-.48,1.92c-.42,1.74-.51,2.1-.81,3.18,5.88-.21,9.87-.63,11.82-1.29l.15,2.16c-.51.06-.69.06-1.32.15a100.369,100.369,0,0,1-11.13.87,40.519,40.519,0,0,1-3,7.71v.06a15.393,15.393,0,0,1,8.73-2.52c4.74,0,7.77,2.16,7.77,5.52,0,4.08-4,6.75-10.05,6.75a22.43,22.43,0,0,1-7.41-1.17,3.2,3.2,0,0,0,0-.48v-.24c0-.15-.06-.69-.15-1.65a18.31,18.31,0,0,0,7.5,1.5c4.74,0,7.86-1.89,7.86-4.77,0-2.28-2.16-3.66-5.76-3.66a16.334,16.334,0,0,0-7,1.62,6.42,6.42,0,0,0-2.46,1.96l-2.16-.87a45.231,45.231,0,0,0,4-9.78c-1.92,0-3.24-.09-5-.21H482.3Z"/><path class="cls-2" d="M518.88,260.9v15.63h-8v-1.88h5.91V260.9Z"/><path class="cls-2" d="M553.95,266.12c-1.74,4-3.51,5.76-5.67,5.76-2.85,0-5-3.12-5-7.32a12.179,12.179,0,0,1,12.072-12.287q.384,0,.768.017a11.611,11.611,0,0,1,8.25,3,10,10,0,0,1,2.91,7.32,10.921,10.921,0,0,1-6.87,10.35,23.212,23.212,0,0,1-4.56,1.38,4.774,4.774,0,0,0-1.05-2,18.022,18.022,0,0,0,5-1.41,9.058,9.058,0,0,0,5.31-8.4,7.91,7.91,0,0,0-4.77-7.53,8.622,8.622,0,0,0-3.48-.75A45.02,45.02,0,0,1,553.95,266.12Zm-3.69-10.47a10.367,10.367,0,0,0-4.89,8.94c0,2.88,1.26,5.1,2.88,5.1,1.26,0,2.46-1.41,3.75-4.35a41.217,41.217,0,0,0,2.73-11.1A9.469,9.469,0,0,0,550.26,255.65Z"/><path class="cls-2" d="M572.81,274.58a13,13,0,0,0,3.6-5.46l1.71.78a17.822,17.822,0,0,1-3.69,5.85Zm12.24-23.76a12.2,12.2,0,0,0-.18-2h2.31a11.46,11.46,0,0,0-.18,2v.57h7.38a19.234,19.234,0,0,0,3.09-.18v1.86a30.655,30.655,0,0,0-3.12-.12h-1.77a26.733,26.733,0,0,1-1.5,2.94H596a19.807,19.807,0,0,0,3.51-.18v1.94a24.772,24.772,0,0,0-3.54-.15H576.64a24.919,24.919,0,0,0-3.54.15v-1.92a25.472,25.472,0,0,0,3.6.18h4.5a28.2,28.2,0,0,0-1.23-2.94h-1.83a27.227,27.227,0,0,0-2.94.12v-1.86a17.507,17.507,0,0,0,3,.18h6.93Zm-5,17.16c-1.44,0-2.31,0-3.3.09a17.136,17.136,0,0,0,.12-2.46v-3.78a20.415,20.415,0,0,0-.12-2.64,31.338,31.338,0,0,0,3.3.12h12.27a30.449,30.449,0,0,0,3.39-.12,18.652,18.652,0,0,0-.12,2.61v3.75a18.937,18.937,0,0,0,.12,2.52c-.75-.06-2.13-.09-3.21-.09Zm-1.41-5.13h15.18v-2H578.64Zm0,3.63h15.18v-2.19H578.64Zm3.39,6.9c0,.39.12.54.6.66a17.624,17.624,0,0,0,3.27.18c4.11,0,5.1-.09,5.58-.57.27-.24.42-1.29.42-2.82a2.959,2.959,0,0,0,0-.48,4.5,4.5,0,0,0,1.86.69c-.18,4.68-.42,4.83-7.23,4.83-5.52,0-6.33-.24-6.33-1.92v-2.49a12.8,12.8,0,0,0-.18-2.28h2.22a9.691,9.691,0,0,0-.18,2.28Zm7.11-17.49a20.629,20.629,0,0,0,1.47-2.94h-8.7a28.2,28.2,0,0,1,1.23,2.94Zm-1.35,17a16.234,16.234,0,0,0-3.6-3.57l1.29-.93a19.728,19.728,0,0,1,3.81,3.39Zm10.41,2.34a29.88,29.88,0,0,0-4.38-5.46l1.53-.87a37.393,37.393,0,0,1,4.41,5.19Z"/><path class="cls-2" d="M604.36,271.85a24.365,24.365,0,0,0,.18-3.24v-14c0-1.23-.06-2.22-.12-2.91a18.375,18.375,0,0,0,2.46.12h2.67a19.28,19.28,0,0,0,2.52-.12,25.981,25.981,0,0,0-.09,2.79v12.42a32.454,32.454,0,0,0,.12,3.3h-1.92v-1.56h-3.81v3.24Zm2-4.92h3.81V253.52h-3.81Zm19.71-12.9a20.866,20.866,0,0,0,3.15-.18v2.07a23.8,23.8,0,0,0-3.18-.18h-3.93v5.07h5.07a23.95,23.95,0,0,0,3.46-.16v2.07a23.419,23.419,0,0,0-3.39-.18h-4.61a23.576,23.576,0,0,0,3.3,5,24.257,24.257,0,0,0,5.64,4.59,7.934,7.934,0,0,0-1.29,1.86,33,33,0,0,1-4.83-4.41,20.2,20.2,0,0,1-3.45-5.58c.09,1.11.12,2,.12,3.3v5.88a20.872,20.872,0,0,0,.18,3.18h-2.17a24.489,24.489,0,0,0,.18-3.18V267.3c0-1.14,0-1.53.12-3.3a24.473,24.473,0,0,1-9.12,10.38,6.671,6.671,0,0,0-1.44-1.47,26.2,26.2,0,0,0,9.93-10.35h-4.17a17.33,17.33,0,0,0-2.88.15v-2a17.474,17.474,0,0,0,2.91.15h4.68v-5.07h-3.36a23.987,23.987,0,0,0-3.09.15v-2a29.528,29.528,0,0,0,3.09.15h3.36v-2.44a13,13,0,0,0-.15-2.43h2.1a13.535,13.535,0,0,0-.15,2.43v2.4Z"/><path class="cls-2" d="M641.31,251.06a42.5,42.5,0,0,0-1.26,4.8,44.326,44.326,0,0,0-.9,9.39c0,2.34.06,4.11.18,5.7a27.92,27.92,0,0,1,1.95-5.85l1.44.69c-1.35,3-2.43,6.57-2.43,8.25v.45l-2.16.18c-.06-.48-.09-.63-.18-1.2a42.96,42.96,0,0,1-.78-8.49,49.654,49.654,0,0,1,1.35-11.88,16.693,16.693,0,0,0,.42-2.4Zm7.65,12.06c-1.5,1.65-2.25,3.09-2.25,4.41,0,2.22,1.89,3.3,5.76,3.3a19.734,19.734,0,0,0,6.9-1l.3,2.31a5.15,5.15,0,0,0-1,.15,31.048,31.048,0,0,1-6.15.6c-3.42,0-5.58-.72-6.87-2.28a4.244,4.244,0,0,1-.9-2.76c0-1.83.75-3.45,2.61-5.58Zm-3.81-8.88a20.368,20.368,0,0,0,5.1.45,32.224,32.224,0,0,0,8-.81l.15,2.13-2.07.27a50.762,50.762,0,0,1-6.45.39,40.114,40.114,0,0,1-4.8-.3Z"/><path class="cls-2" d="M666.64,256.82c.9-.06.9-.06,6.24-1.26a40.113,40.113,0,0,1,8.7-1.11c5.49,0,9,2.91,9,7.5,0,3.75-2.22,6.9-6.24,8.85-2.76,1.32-5.28,1.89-9.93,2.28a5.292,5.292,0,0,0-.93-2.22,26.846,26.846,0,0,0,8.34-1.38c4.11-1.5,6.42-4.2,6.42-7.56s-2.49-5.4-6.57-5.4a47.675,47.675,0,0,0-12.23,2.13,13.16,13.16,0,0,0-2.16.72Z"/><path class="cls-2" d="M701.64,252.86a21.746,21.746,0,0,0-.21,3.57,51.374,51.374,0,0,0,.78,9.33c.66,3.06,1.89,5.13,3,5.13.54,0,1-.51,1.5-1.5a21.6,21.6,0,0,0,1.56-5.13,9.588,9.588,0,0,0,1.77,1.71c-1.47,5.25-2.85,7.26-5,7.26-1.68,0-3.24-1.68-4.26-4.56s-1.47-6.69-1.62-14.07a16.354,16.354,0,0,0-.09-1.77Zm14.49,1.59a26.022,26.022,0,0,1,4.29,6.84,28.721,28.721,0,0,1,2.25,8l-2.13.87a26.5,26.5,0,0,0-6.24-14.79Z"/><path class="cls-2" d="M728.91,254.3h1.08a14.725,14.725,0,0,0,1.71-.09c3.57-.27,13.17-.81,17-1a20.161,20.161,0,0,0,3.57-.33l.18,2.25a13.927,13.927,0,0,0-3.36.39,15.222,15.222,0,0,0-5.76,3,9.17,9.17,0,0,0-3.69,6.93c0,2.52,1.53,4.53,4.2,5.55a15.381,15.381,0,0,0,4.5,1h.3l-.39,2.43-.93-.18a15.131,15.131,0,0,1-6.48-2.31,7.3,7.3,0,0,1-3.33-6.12c0-3.48,2-6.81,5.61-9.21a19.664,19.664,0,0,1,2.85-1.59,58.187,58.187,0,0,1-6.6.66,87.991,87.991,0,0,0-10.35,1Z"/><path class="cls-2" d="M5.19,316.25a27.516,27.516,0,0,0-3.42.18v-2.07a21.587,21.587,0,0,0,3.39.18h7.62v-3.42H8.13a23.814,23.814,0,0,0-3.27.15v-2a20.2,20.2,0,0,0,3.27.18h4.65v-.54a18.474,18.474,0,0,0-.18-2.82h2.22a13.876,13.876,0,0,0-.18,2.82v.54h2.88a20.929,20.929,0,0,0,3.3-.18v2a20.359,20.359,0,0,0-3.18-.15h-3v3.42H17.1a33.359,33.359,0,0,0,6.09-5.4,11.422,11.422,0,0,0,1.65-2.28l1.74,1.26c-.18.21-.24.27-.51.6a48.2,48.2,0,0,1-6.24,5.82H24.9a21.171,21.171,0,0,0,3.3-.18v2.07a25.99,25.99,0,0,0-3.3-.18H17.55a47.449,47.449,0,0,1-5.07,3.12c-.12.42-.15.54-.24.93,6.45-.72,10.68-1.5,12.18-2.25l1.23,1.77a115.339,115.339,0,0,1-13.92,2.13c-.27.81-.42,1.2-.78,2.13h10a26.283,26.283,0,0,0,3.39-.12,12.793,12.793,0,0,0-.24,1.71,23.385,23.385,0,0,1-1.2,6.06c-.48,1.08-1.35,1.47-3.36,1.47a49.744,49.744,0,0,1-5-.33,7,7,0,0,0-.39-2,33.582,33.582,0,0,0,5.43.6c1.11,0,1.5-.3,1.83-1.44a21.9,21.9,0,0,0,.72-4.23H10.26c-.27.57-.45,1-1,2.1l-2.07-.33a33.722,33.722,0,0,0,3.12-7.08,77.719,77.719,0,0,1-8.07,3.45,5.291,5.291,0,0,0-1-1.77,58.6,58.6,0,0,0,13.38-5.91Z"/><path class="cls-2" d="M36.39,317.42a18.508,18.508,0,0,1,2.43,1.92,24.482,24.482,0,0,0,2-1.68,15.226,15.226,0,0,0-2.64-1.89l1.08-.93a17.62,17.62,0,0,1,2.58,1.77,17.876,17.876,0,0,0,2.1-2.76H39.15a22.4,22.4,0,0,1-5.64,4.53,4.876,4.876,0,0,0-1.08-1.32,15.646,15.646,0,0,0,6.39-5.43,5.274,5.274,0,0,0,.69-1.23l1.71.72c-.09.12-.42.54-1,1.32h2.79a12.61,12.61,0,0,0,2-.09l1.08,1.2c-.15.18-.18.24-.72,1a24.263,24.263,0,0,1-4.38,5.07,31.2,31.2,0,0,1-7.8,5,4.93,4.93,0,0,0-1.05-1.56,28.334,28.334,0,0,0,5.49-2.82,12.814,12.814,0,0,0-2.43-2Zm4.59,10a21.716,21.716,0,0,1-6.69,5.43,5.641,5.641,0,0,0-1.41-1.5,16.26,16.26,0,0,0,6.51-4.86Zm3.51-19.29a10.136,10.136,0,0,0-.18-2.1h2.33a11.375,11.375,0,0,0-.18,2.1v.36h9.09a28.347,28.347,0,0,0,3-.12,13.776,13.776,0,0,0-.12,2.07v1a14.192,14.192,0,0,0,.12,2.19h-2v-3.54H34.92v3.51h-2a14.709,14.709,0,0,0,.12-2.19v-1a14.076,14.076,0,0,0-.12-2,29.455,29.455,0,0,0,3,.12h8.49ZM38.22,325.5a14.355,14.355,0,0,0-2.52.15v-1.89a13.624,13.624,0,0,0,2.52.15H53.28a13.326,13.326,0,0,0,2.46-.15v1.89a14.06,14.06,0,0,0-2.46-.15H46.83v5.61c0,1-.27,1.59-.81,1.8a9.488,9.488,0,0,1-2.7.3,22.221,22.221,0,0,1-2.37-.09,5.649,5.649,0,0,0-.48-1.83,18.729,18.729,0,0,0,3.36.27c.93,0,1.11-.12,1.11-.72V325.5Zm2.76-5.82a13.3,13.3,0,0,0,2.49.15h4.5a12.6,12.6,0,0,0,2.4-.15v1.86a13.027,13.027,0,0,0-2.4-.15h-4.5a14.207,14.207,0,0,0-2.49.15Zm6.3-8.28a17.488,17.488,0,0,0,3.48,5.88,17.181,17.181,0,0,0,3.15-3.45H50.97a13.353,13.353,0,0,0-2.43.15v-1.71a13.624,13.624,0,0,0,2.52.15h2.13a9.215,9.215,0,0,0,1.92-.12l1.11,1.14-1,1.2a17.641,17.641,0,0,1-3.45,3.72,18.509,18.509,0,0,0,7.08,4.14,4.9,4.9,0,0,0-.93,1.8,22.552,22.552,0,0,1-7.89-5.49,18.484,18.484,0,0,1-3.21-4.56,11.9,11.9,0,0,1-.66-1.17c-.18-.27-.33-.54-.57-.9Zm4,15.15a21.236,21.236,0,0,0,7.2,4.71,5.49,5.49,0,0,0-1.26,1.62,26.059,26.059,0,0,1-7.47-5.37Z"/><path class="cls-2" d="M71.04,307.7a46.206,46.206,0,0,0-.39,6.33c-.12,3.6-.21,7.68-.21,9,0,.36,0,1.11.06,1.8a4.721,4.721,0,0,0,1.41,3.6,5.658,5.658,0,0,0,3.73,1.22,8.619,8.619,0,0,0,8-5.22,17.805,17.805,0,0,0,1.47-4.71,8.469,8.469,0,0,0,2.16,1.44c-1.14,3.51-2,5.28-3.33,6.81a10.5,10.5,0,0,1-8.46,3.75c-2.55,0-4.44-.72-5.64-2.1s-1.65-3-1.65-6.15c0-2,0-2.76.27-12.21v-2a9.21,9.21,0,0,0-.12-1.59Z"/><path class="cls-2" d="M95.16,311.3h1.08a14.725,14.725,0,0,0,1.71-.09c3.57-.27,13.17-.81,17-1a20.17,20.17,0,0,0,3.57-.33l.18,2.25a13.927,13.927,0,0,0-3.36.39,15.236,15.236,0,0,0-5.76,3,9.17,9.17,0,0,0-3.69,6.93c0,2.52,1.53,4.53,4.2,5.55a15.349,15.349,0,0,0,4.5,1h.3l-.39,2.43-.93-.18a15.131,15.131,0,0,1-6.48-2.31,7.3,7.3,0,0,1-3.33-6.12c0-3.48,2-6.81,5.61-9.21a19.664,19.664,0,0,1,2.85-1.59,58.187,58.187,0,0,1-6.6.66,87.991,87.991,0,0,0-10.35,1Z"/><path class="cls-2" d="M129.57,309.86a21.746,21.746,0,0,0-.21,3.57,51.374,51.374,0,0,0,.78,9.33c.66,3.06,1.89,5.13,3,5.13.54,0,1.05-.51,1.5-1.5a21.614,21.614,0,0,0,1.56-5.13,9.588,9.588,0,0,0,1.77,1.71c-1.47,5.25-2.85,7.26-5,7.26-1.68,0-3.24-1.68-4.26-4.56s-1.47-6.69-1.62-14.07a16.354,16.354,0,0,0-.09-1.77Zm14.49,1.59a26.022,26.022,0,0,1,4.29,6.84,28.712,28.712,0,0,1,2.25,8l-2.13.87a26.5,26.5,0,0,0-6.24-14.79Z"/><path class="cls-2" d="M174.39,308.48c-.33.27-.57.48-3.69,3.48a87.485,87.485,0,0,1-6.9,5.67c-1.11.84-1.32,1.08-1.32,1.5s.24.75,2.67,2.64a88.461,88.461,0,0,1,9.6,8.19,7.664,7.664,0,0,0,.84.75l-1.89,1.86a28.3,28.3,0,0,0-3.87-4.11c-2-1.86-3.21-2.85-7.59-6.27-1.68-1.32-2.16-2-2.16-3a2.9,2.9,0,0,1,.87-2,23.114,23.114,0,0,1,2.55-2c4-3.06,7.74-6.57,8.79-8.22Z"/><path class="cls-2" d="M188.88,309.14a12.816,12.816,0,0,0-2.58.18v-2a16.052,16.052,0,0,0,2.7.18h4.89a11.7,11.7,0,0,0,2.52-.18v2a19.725,19.725,0,0,0-2.43-.12h-1.86a29.363,29.363,0,0,1-2.07,7.62h3.75a13.68,13.68,0,0,0,1.84-.17,22.36,22.36,0,0,0-.09,2.4v9.27a19.635,19.635,0,0,0,.12,2.52h-1.89v-1.5h-3.72v3.18h-2a18.156,18.156,0,0,0,.18-2.91v-6.66c0-1.08,0-2,.09-3.36a13.719,13.719,0,0,1-2.25,3.66,5.009,5.009,0,0,0-1.08-1.8,20.406,20.406,0,0,0,4.14-7.62,21.006,21.006,0,0,0,1-4.71Zm1.2,18.6h3.72v-9.39h-3.72Zm10.41-18.6a19.531,19.531,0,0,0-2.91.18v-2.07a18.355,18.355,0,0,0,3,.18h9.48a20.064,20.064,0,0,0,3-.18v2.07a15.746,15.746,0,0,0-2.91-.18h-.72v8.31h1a15.856,15.856,0,0,0,3-.18v2.13a19.546,19.546,0,0,0-3-.18h-1v10.77a22.673,22.673,0,0,0,.21,3.21h-2.31a22.381,22.381,0,0,0,.21-3.21V319.22h-5c-.3,6.69-1.59,10.32-5,14.28a5.445,5.445,0,0,0-1.74-1.35c3.15-3,4.56-6.75,4.83-12.93h-.84a16.735,16.735,0,0,0-3,.18v-2.1a19.538,19.538,0,0,0,3,.15h.9v-8.31Zm2.19,7.29v1h4.89v-8.31h-4.93Z"/><path class="cls-2" d="M232.98,321.11a26.745,26.745,0,0,0,3.36-.15c-.06.66-.09,1.29-.12,2.64l-.12,6.09c0,.9.33,1,2.67,1,2.1,0,2.7-.15,2.91-.69a17.526,17.526,0,0,0,.48-4.5,7.379,7.379,0,0,0,2,.78c-.48,6-.66,6.18-5.49,6.18-3.66,0-4.44-.39-4.44-2.4v-.15l.12-7h-5.58a11.5,11.5,0,0,1-2.34,5,13.234,13.234,0,0,1-3.21,2.88,20.239,20.239,0,0,1-5,2.46,4.628,4.628,0,0,0-1.32-1.71,18.726,18.726,0,0,0,5.76-2.7,9.8,9.8,0,0,0,4.17-5.88h-4.74a21.4,21.4,0,0,0-3.24.18v-2.13a20.131,20.131,0,0,0,3.18.18h5.16a21.248,21.248,0,0,0,.21-2.52,9.989,9.989,0,0,0-.12-1.62h2.28a9.116,9.116,0,0,0-.24,1.89c-.06.72-.12,1.47-.24,2.22Zm-4-12.69a9.221,9.221,0,0,0-.21-2.16h2.34a8.765,8.765,0,0,0-.21,2.16v.93h8.91a25.477,25.477,0,0,0,3-.15,13.518,13.518,0,0,0-.12,2.07v1.53a13.911,13.911,0,0,0,.12,2.1h-2v-3.84h-7.47v4.35c0,.36.06.51.21.6a5.871,5.871,0,0,0,1.92.21,5.541,5.541,0,0,0,2.43-.33c.33-.24.48-1,.51-2.43a6.266,6.266,0,0,0,1.8.57c-.15,1.89-.39,2.73-.9,3.18s-1.74.66-3.87.66c-3.15,0-3.9-.33-3.9-1.65v-5.16h-3.69a8.216,8.216,0,0,1-1,3.33,8.451,8.451,0,0,1-4.74,3.81,27.718,27.718,0,0,1-2.79.87,8.237,8.237,0,0,0-1.14-1.65c3.21-.6,4.71-1.2,6-2.4a5.673,5.673,0,0,0,1.83-4h-6.37v3.81h-2a14.453,14.453,0,0,0,.12-2.1v-1.5a13.518,13.518,0,0,0-.12-2.07,25.054,25.054,0,0,0,3,.15h8.31Z"/><path class="cls-2" d="M268.08,324.47a21.663,21.663,0,0,0,3.18-.15v2a22.231,22.231,0,0,0-3.18-.15h-6.36v4.23h8.82a22.826,22.826,0,0,0,3.75-.21v2.1a32.483,32.483,0,0,0-3.87-.18H251.7a32.7,32.7,0,0,0-3.87.18v-2.1a23.191,23.191,0,0,0,3.78.21h8.22v-4.23h-5.76a22.073,22.073,0,0,0-3.21.15v-2a21.259,21.259,0,0,0,3.21.15h5.76v-.45a14.932,14.932,0,0,0-.19-2.37h2.25a14.358,14.358,0,0,0-.18,2.37v.45Zm-8.34-16.44a11.758,11.758,0,0,0-.18-2h2.31a10.735,10.735,0,0,0-.18,2v.78h7.83a34.393,34.393,0,0,0,4-.12,13.547,13.547,0,0,0-.12,2.13v1.5a13.115,13.115,0,0,0,.12,2h-2v-3.87h-21v3.87h-2v-.36a13.964,13.964,0,0,0,.09-1.71v-1.59a15.188,15.188,0,0,0-.12-2q1.856.153,3.72.12h7.47Zm-4.44,7.05a24.213,24.213,0,0,0-3.51.15v-1.92a22.991,22.991,0,0,0,3.42.15h11.64a23.813,23.813,0,0,0,3.45-.15v1.92a23.828,23.828,0,0,0-3.42-.15h-7.71a29.466,29.466,0,0,1-2.43,4.17c3.33-.09,5.85-.24,10-.54a29.35,29.35,0,0,0-2.76-2.16l1.44-.93a52.155,52.155,0,0,1,6.36,5.37l-1.44,1.23a24.2,24.2,0,0,0-2.07-2.13c-5.34.45-11.49.81-17.07,1a7.032,7.032,0,0,0-1.14.12l-.3-1.92q.927.091,1.86.09c1,0,1.68,0,3.12-.06a28.146,28.146,0,0,0,2.46-4.26Z"/><path class="cls-2" d="M279.42,311.24h1.08a14.725,14.725,0,0,0,1.71-.09c1.68-.12,1.86-.15,5.55-.36l4.71-.3c3.69-.21,4.08-.24,5.07-.27l1.71-.06a20.264,20.264,0,0,0,3.57-.33l.18,2.22a12.573,12.573,0,0,0-3.36.42,14.76,14.76,0,0,0-5.76,3,9.17,9.17,0,0,0-3.69,6.93c0,2.52,1.53,4.53,4.2,5.55a15.349,15.349,0,0,0,4.5,1h.3l-.39,2.43c-.33-.06-.39-.09-.93-.18a15.131,15.131,0,0,1-6.48-2.31,7.261,7.261,0,0,1-3.33-6.12c0-3.48,2-6.78,5.61-9.21a19.612,19.612,0,0,1,2.85-1.59,61.378,61.378,0,0,1-6.6.66,99.711,99.711,0,0,0-10.35,1Zm20.07,4.47a22.736,22.736,0,0,1,3.09,4.65l-1.53.9a21.1,21.1,0,0,0-3.06-4.77Zm3.39-1.65a24.326,24.326,0,0,1,3.09,4.68l-1.5.84a23.734,23.734,0,0,0-3.06-4.71Z"/><path class="cls-2" d="M311.64,310.65a20.986,20.986,0,0,0,5.61.48H318a16.406,16.406,0,0,1,.15-2.25c0-.33.09-1.5.09-1.71a3.072,3.072,0,0,0,0-.45l2.34.15a20.016,20.016,0,0,0-.63,4.2,46.086,46.086,0,0,0,11.43-1.68l.12,2.1-1.05.15a83.974,83.974,0,0,1-10.62,1.2c-.18,2.55-.18,2.55-.21,4a15.866,15.866,0,0,1,4.44-.6,12,12,0,0,1,1.74.09,11.28,11.28,0,0,0,.72-2.7l2.07.63c-.09.18-.42,1-.93,2.4,4.14,1,6.45,3.51,6.45,7,0,2.94-1.62,5.31-4.71,6.93a16.523,16.523,0,0,1-6.12,1.71,6.181,6.181,0,0,0-1-2,14,14,0,0,0,4.5-.81c3.27-1.14,5.16-3.33,5.16-6s-1.71-4.38-4.95-5.22a26.992,26.992,0,0,1-5.7,9c-2.31,2.4-4.59,3.63-6.69,3.63-2.25,0-3.87-1.89-3.87-4.56,0-3.69,2.61-7,7-8.94a38.125,38.125,0,0,1,.18-4.53h-1.27c-.3,0-1.65-.06-4.05-.15a4.864,4.864,0,0,0-.54,0,2.959,2.959,0,0,0-.48,0Zm2.88,11.1a7.093,7.093,0,0,0-1.83,4.47c0,1.65.87,2.73,2.16,2.73a5.419,5.419,0,0,0,3.45-1.53,42.5,42.5,0,0,1-.6-8.13,10.736,10.736,0,0,0-3.18,2.48Zm5.49,4.44a3.238,3.238,0,0,1,.57-.78,27.11,27.11,0,0,0,4.59-7.5c-1-.06-1.11-.06-1.44-.06a13.465,13.465,0,0,0-4.17.69,50.541,50.541,0,0,0,.33,6.87,1.966,1.966,0,0,1,0,.42v.33Z"/><path class="cls-2" d="M345.33,308.75a13.867,13.867,0,0,0,2.82.18c2.49,0,6.48-.18,9.18-.39a3.062,3.062,0,0,0,1.44-.33l1.26,1.65a5.532,5.532,0,0,0-1.53,1.26,76.981,76.981,0,0,1-9.86,8.53l.06.09a15.2,15.2,0,0,1,7.35-1.86c5,0,8.22,2.46,8.22,6.3,0,4.68-4.35,7.77-11,7.77-4.23,0-6.66-1.56-6.66-4.32,0-2,1.86-3.51,4.35-3.51a6,6,0,0,1,4.95,2.46,8.586,8.586,0,0,1,1.38,2.88c3.15-.87,4.8-2.7,4.8-5.25,0-2.88-2.4-4.59-6.45-4.59a19.25,19.25,0,0,0-12.63,5.13l-1.35-1.92a33.41,33.41,0,0,0,4.2-3.06c3.21-2.55,7.95-6.72,10-8.76l.42-.42.12-.12.12-.12-.06-.06h-.27c-1,.18-4.56.39-9.12.54a14.666,14.666,0,0,0-1.62.15Zm5.64,17.07c-1.5,0-2.43.72-2.43,1.86a2,2,0,0,0,1.2,1.83,7.675,7.675,0,0,0,3.36.69,10.809,10.809,0,0,0,2.19-.21c-.65-2.73-2.16-4.17-4.32-4.17Z"/><path class="cls-2" d="M379.64,328.55a4.49,4.49,0,1,1,0-.02Zm-7.29,0a2.8,2.8,0,1,0-.02,0h.02Z"/></g></g></svg>