<svg xmlns="http://www.w3.org/2000/svg" viewBox="0 0 1107.86 353.04"><defs><style>.cls-1{fill:#fff;}</style></defs><g id="レイヤー_2" data-name="レイヤー 2"><g id="レイヤー_2-2" data-name="レイヤー 2"><path class="cls-1" d="M218.42,27.6A14,14,0,0,1,220.94,21c1.32-1.91,2.75-3.27,7.1-6.8a10.36,10.36,0,0,0,2.58-2.66,5.57,5.57,0,0,0,.75-2.85,4.47,4.47,0,0,0-4.62-4.79,4,4,0,0,0-4.05,2.65A9.33,9.33,0,0,0,222.36,9c-.07,1.16-.44,1.46-1.63,1.46S219,10.06,219,9.08C219,5.58,222.4,3,227,3c2.86,0,5.24.92,6.53,2.55a5.47,5.47,0,0,1,1.09,3.6c0,2.82-1.26,4.56-5,6.87-4.25,2.62-5.17,3.3-6.67,4.76a9.63,9.63,0,0,0-2.78,4.32h9.82c2.45,0,3.3-.75,4-3.61l1,.24L234,27.6Z"/><path class="cls-1" d="M242.66,6.73a7.63,7.63,0,0,1,13.16,0,18.8,18.8,0,0,1,1.94,8.81,18.87,18.87,0,0,1-1.94,8.8,7.22,7.22,0,0,1-6.56,3.78,7.3,7.3,0,0,1-6.6-3.78,19,19,0,0,1-1.94-8.8A19,19,0,0,1,242.66,6.73Zm6.6,20.5c3.63,0,5.23-3.57,5.23-11.69s-1.6-11.7-5.23-11.7S244,7.45,244,15.57,245.62,27.23,249.26,27.23Z"/><path class="cls-1" d="M263.5,27.6A14,14,0,0,1,266,21c1.33-1.91,2.75-3.27,7.1-6.8a10.62,10.62,0,0,0,2.59-2.66,5.57,5.57,0,0,0,.75-2.85,4.47,4.47,0,0,0-4.63-4.79,3.94,3.94,0,0,0-4,2.65A8.92,8.92,0,0,0,267.45,9c-.07,1.16-.44,1.46-1.63,1.46s-1.74-.41-1.74-1.39c0-3.5,3.4-6.12,8-6.12,2.85,0,5.23.92,6.52,2.55a5.47,5.47,0,0,1,1.09,3.6c0,2.82-1.26,4.56-5,6.87-4.25,2.62-5.17,3.3-6.66,4.76a9.57,9.57,0,0,0-2.79,4.32H275c2.45,0,3.3-.75,4-3.61l1,.24-.92,5.91Z"/><path class="cls-1" d="M286,27.6A14,14,0,0,1,288.56,21c1.33-1.91,2.75-3.27,7.11-6.8a10.73,10.73,0,0,0,2.58-2.66A5.57,5.57,0,0,0,299,8.67a4.47,4.47,0,0,0-4.63-4.79,3.94,3.94,0,0,0-4,2.65A8.92,8.92,0,0,0,290,9c-.07,1.16-.44,1.46-1.63,1.46s-1.74-.41-1.74-1.39c0-3.5,3.4-6.12,8-6.12,2.85,0,5.23.92,6.53,2.55a5.52,5.52,0,0,1,1.08,3.6c0,2.82-1.25,4.56-5,6.87-4.25,2.62-5.17,3.3-6.66,4.76a9.57,9.57,0,0,0-2.79,4.32h9.83c2.44,0,3.29-.75,4-3.61l1,.24-.91,5.91Z"/><path class="cls-1" d="M331,12.48h5.1c.88-1,1.15-1.23,2-2.18,1.25,1,1.66,1.33,2.89,2.41a.54.54,0,0,1,.17.28c0,.13-.21.27-.41.27H331v7.65h7.14c.91-1.06,1.22-1.36,2.17-2.38,1.43,1.09,1.87,1.43,3.16,2.55.14.13.21.24.21.3a.35.35,0,0,1-.38.31H331v4.25c0,1,0,1.12.13,4.73-.06.54-.4.67-1.73.67-.75,0-.95-.1-1-.54.07-1.19.17-3.77.17-4.86V21.69H316.1c-.92,0-2.41.07-3.23.14l-.2-1.19a21.47,21.47,0,0,0,3.43.27H319V14.35a31.35,31.35,0,0,0-.1-3.51,27.78,27.78,0,0,1,3,1.64h6.59V6.22h-7.75a32.51,32.51,0,0,1-6.93,7.58l-.34-.37a24.26,24.26,0,0,0,3.06-4A36.26,36.26,0,0,0,321.13.1c3.78,1.23,4,1.33,4,1.6a.43.43,0,0,1-.24.37,5.08,5.08,0,0,1-1.53.31c-.54.82-.54.82-2,3.06h15.91c.89-1,1.16-1.33,2-2.28,1.36,1.06,1.77,1.36,3.16,2.52a.44.44,0,0,1,.17.27c0,.17-.17.27-.37.27H331Zm-9.49.78v7.65h7.07V13.26Z"/><path class="cls-1" d="M367.34,15a9.44,9.44,0,0,1,3.81.95,5.73,5.73,0,0,1,3.06,5.27c0,4.18-3.37,7-8.44,7-4.42,0-7.71-2.11-7.71-4.93,0-1.09.61-1.6,1.93-1.6,1,0,1.36.34,1.43,1.29.07,1.67.24,2.32.85,3.06a4.25,4.25,0,0,0,3.37,1.26C369,27.23,371,25,371,21.15c0-2.38-.82-4.15-2.28-4.93a9,9,0,0,0-3.95-.82h-1.49V14.31h1.49a6.94,6.94,0,0,0,3.71-1A5,5,0,0,0,370.4,9a6.56,6.56,0,0,0-.85-3.4A3.76,3.76,0,0,0,366,3.88c-2.55,0-3.84,1.32-4,4-.07,1.29-.37,1.63-1.56,1.63s-1.81-.37-1.81-1.29c0-2.89,3.37-5.3,7.42-5.3,4.31,0,7.48,2.51,7.48,6a5.38,5.38,0,0,1-2.79,4.62,11.17,11.17,0,0,1-3.4,1.12Z"/><path class="cls-1" d="M393.69,18.66a20.89,20.89,0,0,1-2.14,6.91,17.64,17.64,0,0,1-4.76,5.71l-.31-.31a21.12,21.12,0,0,0,4.42-9,59,59,0,0,0,.82-11.79c0-4.66-.07-7.65-.21-9.59,1.36.78,1.8,1,3.13,1.87h12.68c.44-.55.89-1.09,1.29-1.53,1,.64,1.26.85,2.21,1.53.44.34.51.41.51.51s-.1.24-1.32,1V17.88c0,5.31,0,5.31,0,10.1,0,1.73-.61,2.17-3.94,3a1.84,1.84,0,0,0-1.4-1.73,20.54,20.54,0,0,0-4.42-.85v-.55c2.76.14,3,.14,6.63.24h.1l.14,0s0,0,.31-.14c.06,0,.1-.1.1-.34v-9Zm13.87-7.75H394.13a55.81,55.81,0,0,1-.31,7h13.74Zm0-7.68H394.23c0,.54,0,2.86-.07,6.9h13.4Z"/><path class="cls-1" d="M433.71,26.62a6.12,6.12,0,0,0,2.24-.34c.75-.34.92-1.05.92-3.5V8.47c-.07-3-.07-3-.34-3.2S435.85,5,435,5h-1.29V4a38.84,38.84,0,0,0,6.46-.89c-.17,2.69-.28,5.58-.28,9.59v10.1c0,2.28.14,3,.62,3.36s.54.38,2.48.48v1h-9.28Z"/><path class="cls-1" d="M469.27,21.49c0,4.08-3.3,6.66-8.5,6.66-5,0-8.23-2.45-8.23-6.29a6.34,6.34,0,0,1,2.55-4.93,14.48,14.48,0,0,1,3.27-1.67,15.79,15.79,0,0,1-3-1.8,4.83,4.83,0,0,1-1.8-4.11,6.25,6.25,0,0,1,1.29-3.94A8.34,8.34,0,0,1,461.11,3a7.47,7.47,0,0,1,6.22,2.75,5.45,5.45,0,0,1,.95,3.3,4.74,4.74,0,0,1-2,4,8.15,8.15,0,0,1-3.09,1.53C467.33,16.15,469.27,18.39,469.27,21.49ZM457.06,17.2a5.74,5.74,0,0,0-2,4.42c0,3.37,2.38,5.61,5.92,5.61,3.29,0,5.54-2,5.54-5,0-1.63-.72-2.79-2.52-4.05a21.71,21.71,0,0,0-3.12-1.7l-1.36-.61A6,6,0,0,0,457.06,17.2Zm8.77-8.12c0-3.27-1.87-5.2-5.06-5.2-2.86,0-4.69,1.76-4.69,4.52,0,1.8.75,2.89,2.82,4.08.44.23.44.23,2.41,1.12.24.13.58.27,1,.51C464.71,13.05,465.83,11.46,465.83,9.08Z"/><path class="cls-1" d="M485.18,7.21c0-2.52,0-3.37-.1-5.61,1.19.68,1.56.92,2.72,1.7H502c.62-.68.79-.89,1.4-1.53.95.64,1.26.85,2.17,1.53.27.2.38.34.38.44s-.31.48-1.16,1l0,10.78c0,2.62.07,7.31.24,14.07v.11a.41.41,0,0,1-.28.37,7.29,7.29,0,0,1-1.83.24c-.48,0-.58,0-.58-.24V27.64H487.6V30a.37.37,0,0,1-.11.31,5,5,0,0,1-2,.3c-.37,0-.47-.1-.51-.44.14-3.06.14-3.53.17-10.78Zm17.17-3.13H487.6V14.75h14.75ZM487.6,15.54V26.86h14.75V15.54Z"/><path class="cls-1" d="M531.05,2.75c-3,4.08-4.39,9.15-4.39,15.3s1.43,11.19,4.39,15.33l-.68.55a20.61,20.61,0,0,1-3.84-5.44,24.72,24.72,0,0,1-2.59-10.44,25.09,25.09,0,0,1,3-11.22,22,22,0,0,1,3.44-4.62Z"/><path class="cls-1" d="M541.72,23.29c0,3.13.21,3.4,2.89,3.47v.84h-8.5v-.84c2.38-.07,2.59-.34,2.59-3.47v-16a9.52,9.52,0,0,0-.17-2.52c-.24-.71-.85-1-2.42-1V3h17.27L553.79,9l-1.09.07c-.78-4.15-2-5.1-6.56-5.1h-4.42V14.45h3.64c3.74,0,4.39-.48,4.76-3.44h1v8h-1c-.48-3.06-1-3.5-4.76-3.5h-3.64Z"/><path class="cls-1" d="M563.76,10.06c.06,1.7.1,2.14.1,2.86V14c1.12-2.59,2.95-4,5-4a2.34,2.34,0,0,1,2.58,2.11c0,.85-.71,1.39-1.8,1.39-.75,0-1.05-.2-1.26-.85s-.4-.95-1-.95c-.88,0-1.83.75-2.55,2a8.88,8.88,0,0,0-.91,4.32v5.34c0,3.19.17,3.43,2.44,3.5v.74h-7.78v-.74c2.28-.07,2.48-.34,2.48-3.5V14.24c0-2.55-.41-3.05-2.35-3.05v-.75Z"/><path class="cls-1" d="M580.65,10.06c-.1,2-.2,4.93-.2,6.36v6.94c0,3.16.17,3.43,2.45,3.5v.74h-7.76v-.74c2.35-.07,2.52-.34,2.52-3.5V14.28c0-1.7-.13-2.48-.51-2.79s-.82-.3-2-.3v-.75ZM579,2.86A1.92,1.92,0,1,1,577,4.76,1.9,1.9,0,0,1,579,2.86Z"/><path class="cls-1" d="M587.72,33.38c3-4.14,4.39-9.11,4.39-15.33s-1.43-11.18-4.39-15.3l.69-.54a20.92,20.92,0,0,1,3.84,5.44,24.83,24.83,0,0,1,2.58,10.4,24.85,24.85,0,0,1-3,11.22,22,22,0,0,1-3.43,4.66Z"/><path class="cls-1" d="M611.46,17H619v1.87h-7.51Z"/><path class="cls-1" d="M644.13,15a9.44,9.44,0,0,1,3.81.95A5.72,5.72,0,0,1,651,21.18c0,4.18-3.37,7-8.43,7-4.42,0-7.72-2.11-7.72-4.93,0-1.09.61-1.6,1.94-1.6,1,0,1.36.34,1.42,1.29.07,1.67.24,2.32.85,3.06a4.25,4.25,0,0,0,3.37,1.26c3.36,0,5.34-2.24,5.34-6.08,0-2.38-.82-4.15-2.28-4.93a8.93,8.93,0,0,0-4-.82h-1.49V14.31h1.49a6.89,6.89,0,0,0,3.71-1A5,5,0,0,0,647.19,9a6.56,6.56,0,0,0-.85-3.4,3.76,3.76,0,0,0-3.54-1.7c-2.55,0-3.84,1.32-4,4-.07,1.29-.37,1.63-1.56,1.63s-1.8-.37-1.8-1.29c0-2.89,3.36-5.3,7.41-5.3,4.31,0,7.48,2.51,7.48,6a5.38,5.38,0,0,1-2.79,4.62,11.17,11.17,0,0,1-3.4,1.12Z"/><path class="cls-1" d="M670.48,18.66a20.66,20.66,0,0,1-2.14,6.91,17.51,17.51,0,0,1-4.76,5.71l-.31-.31a21.12,21.12,0,0,0,4.42-9,59,59,0,0,0,.82-11.79c0-4.66-.07-7.65-.21-9.59,1.36.78,1.81,1,3.13,1.87h12.68c.44-.55.89-1.09,1.29-1.53,1,.64,1.26.85,2.21,1.53.44.34.51.41.51.51s-.1.24-1.32,1V17.88c0,5.31,0,5.31,0,10.1,0,1.73-.61,2.17-3.94,3a1.84,1.84,0,0,0-1.4-1.73,20.54,20.54,0,0,0-4.42-.85v-.55c2.76.14,3,.14,6.63.24h.11l.13,0s0,0,.31-.14c.07,0,.1-.1.1-.34v-9Zm13.87-7.75H670.92a58.34,58.34,0,0,1-.3,7h13.73Zm0-7.68H671c0,.54,0,2.86-.06,6.9h13.39Z"/><path class="cls-1" d="M706.86,27.6A14,14,0,0,1,709.38,21c1.32-1.91,2.75-3.27,7.1-6.8a10.36,10.36,0,0,0,2.58-2.66,5.57,5.57,0,0,0,.75-2.85,4.47,4.47,0,0,0-4.62-4.79,4,4,0,0,0-4.05,2.65A9.33,9.33,0,0,0,710.8,9c-.06,1.16-.44,1.46-1.63,1.46s-1.73-.41-1.73-1.39c0-3.5,3.4-6.12,7.95-6.12,2.86,0,5.24.92,6.53,2.55A5.47,5.47,0,0,1,723,9.11c0,2.82-1.26,4.56-5,6.87-4.25,2.62-5.17,3.3-6.67,4.76a9.63,9.63,0,0,0-2.78,4.32h9.82c2.45,0,3.3-.75,4-3.61l1,.24-.92,5.91Z"/><path class="cls-1" d="M731.1,6.73a7.63,7.63,0,0,1,13.16,0,18.8,18.8,0,0,1,1.94,8.81,18.87,18.87,0,0,1-1.94,8.8,7.22,7.22,0,0,1-6.56,3.78,7.3,7.3,0,0,1-6.6-3.78,19,19,0,0,1-1.94-8.8A19,19,0,0,1,731.1,6.73Zm6.6,20.5c3.63,0,5.23-3.57,5.23-11.69s-1.6-11.7-5.23-11.7-5.24,3.61-5.24,11.73S734.06,27.23,737.7,27.23Z"/><path class="cls-1" d="M762,7.21c0-2.52,0-3.37-.1-5.61,1.19.68,1.56.92,2.72,1.7h14.25c.61-.68.78-.89,1.39-1.53.95.64,1.26.85,2.17,1.53.28.2.38.34.38.44s-.31.48-1.16,1l0,10.78c0,2.62.07,7.31.24,14.07v.11a.41.41,0,0,1-.28.37,7.29,7.29,0,0,1-1.83.24c-.48,0-.58,0-.58-.24V27.64H764.39V30a.41.41,0,0,1-.1.31,5.13,5.13,0,0,1-2,.3c-.37,0-.47-.1-.51-.44.14-3.06.14-3.53.17-10.78Zm17.17-3.13H764.39V14.75h14.75ZM764.39,15.54V26.86h14.75V15.54Z"/><path class="cls-1" d="M807.84,2.75c-3,4.08-4.39,9.15-4.39,15.3s1.43,11.19,4.39,15.33l-.68.55a20.61,20.61,0,0,1-3.84-5.44,24.87,24.87,0,0,1-2.59-10.44,25.22,25.22,0,0,1,3-11.22,22,22,0,0,1,3.44-4.62Z"/><path class="cls-1" d="M813.79,20.81h1.12c.14,2.1.48,3.19,1.39,4.28A6.51,6.51,0,0,0,821.4,27c3.1,0,4.93-1.63,4.93-4.42s-1.25-4-6.32-6.43c-2.89-1.39-3.94-2-4.89-3.06a5.61,5.61,0,0,1-1.5-4,6.37,6.37,0,0,1,2.14-4.93,7,7,0,0,1,4.86-1.63,14,14,0,0,1,4,.58,7,7,0,0,0,1.26.17,6.26,6.26,0,0,0,2-.51l-.2,6.69h-1.12a7.66,7.66,0,0,0-1-3.56,5.4,5.4,0,0,0-4.89-2.42,4.45,4.45,0,0,0-3.61,1.43,4.85,4.85,0,0,0-1,3c0,2.24,1.09,3.36,5.13,5.27,4.25,2,5.85,3.12,6.8,4.62a6.45,6.45,0,0,1,.95,3.74,5.67,5.67,0,0,1-1.93,4.62A8.11,8.11,0,0,1,821.57,28a20.32,20.32,0,0,1-4.55-.57,6.71,6.71,0,0,0-1.12-.11,13.24,13.24,0,0,0-2.35.34Z"/><path class="cls-1" d="M847.52,27.84a26.13,26.13,0,0,1-.17-3.5A6.94,6.94,0,0,1,841.29,28a4.54,4.54,0,0,1-4.52-2.85c-.34-.92-.47-2.31-.47-5.27V14.28c0-1.77-.14-2.48-.51-2.79-.21-.2-.51-.27-1.16-.3H834v-.75l5.27-.34c-.17,3.16-.21,4-.21,6.32v3c0,3.43.07,4.35.48,5.54a2.63,2.63,0,0,0,2.75,1.9,4.9,4.9,0,0,0,4.42-3.29,8.41,8.41,0,0,0,.62-4V14.28c0-1.8-.11-2.45-.51-2.76a1.75,1.75,0,0,0-1.16-.33h-.61v-.75l5.27-.34c-.11,2.55-.17,4.79-.17,6.32v6.43c0,3.4.3,4,2.07,4h.24v.74Z"/><path class="cls-1" d="M862.31,13.56c1.49-2.61,3.16-3.6,6-3.6,2.14,0,3.54.65,4.45,2.11.65,1,.89,2.17.89,4.25v7c0,3.19.17,3.43,2.48,3.5v.74h-7.72v-.74c1.12,0,1.73-.17,2-.51a1.9,1.9,0,0,0,.34-1.12c0-.38.1-1.64.1-1.87V16.52a8.8,8.8,0,0,0-.55-3.67,3,3,0,0,0-3-1.8,4.35,4.35,0,0,0-3.84,2.28,8.28,8.28,0,0,0-1.15,4.14v5.89c0,3.19.17,3.43,2.48,3.5v.74H857v-.74c2.27-.07,2.48-.34,2.48-3.5V14.24c0-2.55-.41-3.05-2.35-3.05v-.75l5.14-.38Z"/><path class="cls-1" d="M880.63,33.38c3-4.14,4.39-9.11,4.39-15.33s-1.43-11.18-4.39-15.3l.68-.54a20.45,20.45,0,0,1,3.84,5.44,24.7,24.7,0,0,1,2.59,10.4,24.85,24.85,0,0,1-3,11.22,22.1,22.1,0,0,1-3.44,4.66Z"/><path class="cls-1" d="M234.81,80.53h4.35c.85-1,1.12-1.29,2-2.31,1.36,1.09,1.77,1.43,3,2.59a.55.55,0,0,1,.17.3c0,.1-.17.21-.41.21h-9.11V89h8.36c1-1.12,1.26-1.46,2.18-2.58,1.56,1.25,2,1.63,3.57,2.92.06.1.13.17.13.2a.26.26,0,0,1-.27.24H222.43a16.5,16.5,0,0,0-2.85.27l-.31-1.43a16.69,16.69,0,0,0,3.43.38h9.76V81.32h-6a14.56,14.56,0,0,0-2.35.2l-.3-1.36a14.42,14.42,0,0,0,2.65.37h6V74.35h-6a9.14,9.14,0,0,0-2,.17l-.38-1.26A34.35,34.35,0,0,1,217.81,77l-.24-.44a40.89,40.89,0,0,0,10.3-9.42A29.26,29.26,0,0,0,232.46,60c3.5,1,4,1.12,4,1.39s-.58.48-1.63.68a24,24,0,0,0,7.24,7.21,25,25,0,0,0,8.23,3.7l-.07.44c-1.43.21-1.94.72-2.55,2.42a33.45,33.45,0,0,1-7.24-5.41,25,25,0,0,1-6.09-8.05,39.27,39.27,0,0,1-10.16,10.91,9.33,9.33,0,0,0,2.31.3h11.93c.78-.85,1-1.12,1.73-2,1.33,1,1.77,1.26,3.1,2.31.13.14.17.2.17.27s-.17.21-.45.21h-8.15Z"/><path class="cls-1" d="M260.58,67.21c0-2.52,0-3.37-.1-5.61,1.19.68,1.56.92,2.72,1.7h14.24c.61-.68.78-.89,1.4-1.53,1,.64,1.25.85,2.17,1.53.27.2.37.34.37.44s-.3.48-1.15.95l0,10.78c0,2.62.06,7.31.23,14.07v.11a.4.4,0,0,1-.27.37,7.29,7.29,0,0,1-1.83.24c-.48,0-.58,0-.58-.24V87.64H263V90a.37.37,0,0,1-.1.31,5,5,0,0,1-2,.3c-.37,0-.47-.1-.51-.44.14-3.06.14-3.53.17-10.78Zm17.17-3.13H263V74.75h14.76ZM263,75.54V86.86h14.76V75.54Z"/><path class="cls-1" d="M309,86.62a6.12,6.12,0,0,0,2.24-.34c.75-.34.92-1,.92-3.5V68.47c-.07-3-.07-3-.34-3.2s-.68-.31-1.53-.31H309V64a38.84,38.84,0,0,0,6.46-.89c-.17,2.69-.27,5.58-.27,9.59v10.1c0,2.28.13,3,.61,3.36s.54.38,2.48.48v1H309Z"/><path class="cls-1" d="M331.57,86.62a6.12,6.12,0,0,0,2.24-.34c.75-.34.92-1,.92-3.5V68.47c-.06-3-.06-3-.34-3.2s-.68-.31-1.53-.31h-1.29V64a38.53,38.53,0,0,0,6.46-.89c-.17,2.69-.27,5.58-.27,9.59v10.1c0,2.28.13,3,.61,3.36s.54.38,2.48.48v1h-9.28Z"/><path class="cls-1" d="M356.49,72.34A2.4,2.4,0,1,1,354.11,70,2.33,2.33,0,0,1,356.49,72.34Zm0,13.29a2.4,2.4,0,1,1-4.79,0,2.4,2.4,0,0,1,4.79,0Z"/><path class="cls-1" d="M368.8,66.73a7.63,7.63,0,0,1,13.16,0,18.92,18.92,0,0,1,1.94,8.81,19,19,0,0,1-1.94,8.8,7.22,7.22,0,0,1-6.56,3.78,7.3,7.3,0,0,1-6.6-3.78,19,19,0,0,1-1.94-8.8A19,19,0,0,1,368.8,66.73Zm6.6,20.5c3.63,0,5.23-3.57,5.23-11.69s-1.6-11.7-5.23-11.7-5.24,3.61-5.24,11.73S371.76,87.23,375.4,87.23Z"/><path class="cls-1" d="M391.34,66.73a7.63,7.63,0,0,1,13.16,0,18.8,18.8,0,0,1,1.94,8.81,18.87,18.87,0,0,1-1.94,8.8,7.22,7.22,0,0,1-6.56,3.78,7.3,7.3,0,0,1-6.6-3.78,19,19,0,0,1-1.94-8.8A19,19,0,0,1,391.34,66.73Zm6.6,20.5c3.64,0,5.23-3.57,5.23-11.69s-1.59-11.7-5.23-11.7-5.24,3.61-5.24,11.73S394.3,87.23,397.94,87.23Z"/><path class="cls-1" d="M422.15,77h7.51v1.87h-7.51Z"/><path class="cls-1" d="M449.18,86.62a6.12,6.12,0,0,0,2.24-.34c.75-.34.92-1,.92-3.5V68.47c-.07-3-.07-3-.34-3.2s-.68-.31-1.53-.31h-1.29V64a38.55,38.55,0,0,0,6.45-.89c-.17,2.69-.27,5.58-.27,9.59v10.1c0,2.28.14,3,.61,3.36s.55.38,2.49.48v1h-9.28Z"/><path class="cls-1" d="M475.49,78.83a7.83,7.83,0,0,1-5.51-2.1,8.14,8.14,0,0,1-2-5.48c0-4.93,3.33-8.29,8.2-8.29,5.4,0,8.29,3.94,8.29,11.42,0,4.93-1.09,9-3,11.19a7.53,7.53,0,0,1-5.92,2.58c-3.53,0-6.63-1.84-6.63-4,0-1.09.72-1.73,1.94-1.73s1.46.3,1.53,1.36c.2,2.38,1.22,3.5,3.16,3.5,2.35,0,4-1.6,4.93-4.69a25.68,25.68,0,0,0,.78-6.46A7.39,7.39,0,0,1,475.49,78.83Zm4.56-12.51a4.33,4.33,0,0,0-7.72-.27,11.14,11.14,0,0,0-1.09,5.1c0,4.18,1.84,6.77,4.76,6.77a5.22,5.22,0,0,0,3.6-1.5,5.69,5.69,0,0,0,1.74-4.52A11.75,11.75,0,0,0,480.05,66.32Z"/><path class="cls-1" d="M500,72.34A2.4,2.4,0,1,1,497.66,70,2.33,2.33,0,0,1,500,72.34Zm0,13.29a2.4,2.4,0,1,1-4.79,0,2.4,2.4,0,0,1,4.79,0Z"/><path class="cls-1" d="M512.35,66.73a7.62,7.62,0,0,1,13.15,0,18.8,18.8,0,0,1,1.94,8.81,18.87,18.87,0,0,1-1.94,8.8,7.2,7.2,0,0,1-6.56,3.78,7.28,7.28,0,0,1-6.59-3.78,19,19,0,0,1-1.94-8.8A19,19,0,0,1,512.35,66.73Zm6.59,20.5c3.64,0,5.24-3.57,5.24-11.69s-1.6-11.7-5.24-11.7-5.23,3.61-5.23,11.73S515.3,87.23,518.94,87.23Z"/><path class="cls-1" d="M534.89,66.73a7.62,7.62,0,0,1,13.15,0A18.8,18.8,0,0,1,550,75.54a18.87,18.87,0,0,1-1.94,8.8,7.2,7.2,0,0,1-6.56,3.78,7.28,7.28,0,0,1-6.59-3.78,19,19,0,0,1-1.94-8.8A19,19,0,0,1,534.89,66.73Zm6.59,20.5c3.64,0,5.24-3.57,5.24-11.69s-1.6-11.7-5.24-11.7-5.23,3.61-5.23,11.73S537.85,87.23,541.48,87.23Z"/><path class="cls-1" d="M235,173.84h9c.95-1.09,1.26-1.47,2.24-2.59,1,.82,2.08,1.74,3.33,2.79a.47.47,0,0,1,.21.31.3.3,0,0,1-.27.27H235v6.56c0,3.47,0,5.95.14,9-.1.54-.47.68-1.67.71h-.4c-.51,0-.75-.2-.79-.64.14-1.84.17-4.25.17-9.08v-6.56h-9.31a35.31,35.31,0,0,0-4.32.17l-.24-1.33a31.47,31.47,0,0,0,4.56.38h9.31v-8.26a74,74,0,0,1-11.38,1.36l-.11-.55a98.89,98.89,0,0,0,14.11-3.33,24.44,24.44,0,0,0,6.7-2.75c2.28,1.63,3.09,2.31,3.09,2.55s-.17.23-.4.23a8,8,0,0,1-1.5-.23,61.74,61.74,0,0,1-8,2.24Z"/><path class="cls-1" d="M268.94,180.94a17.38,17.38,0,0,0-.13-2.34c3.06.37,3.6.51,3.6.88s-.24.37-1.26.68v1.46h9.25a28.79,28.79,0,0,1,2.11-2.17c1.36,1.05,1.77,1.39,3.06,2.48a.72.72,0,0,1,.17.3c0,.11-.14.17-.34.17H271.56a17.44,17.44,0,0,0,3.33,2.28c3.33,1.74,5.75,2.35,11.93,3v.51c-1.39.34-1.86.78-2.58,2.42a30.17,30.17,0,0,1-8.19-3.57,15.45,15.45,0,0,1-4.9-4.32v2.82c0,1.8,0,1.8.14,5.1,0,.54-.31.65-1.6.65-.71,0-.85-.07-.85-.48.1-3.53.1-3.53.1-5.06v-2.21a27.79,27.79,0,0,1-6.56,4.62,32.73,32.73,0,0,1-7.51,2.79l-.17-.45a39.78,39.78,0,0,0,8.36-4.52,28.33,28.33,0,0,0,4.15-3.57h-8.47a17.48,17.48,0,0,0-3,.24l-.17-1.29a12.36,12.36,0,0,0,3.16.27h10.2Zm.07-11.29c0-1.53,0-1.93-.1-3.12,3.26.47,3.43.51,3.43.85s-.13.3-1.19.61v1.66h5.61c0-1.25,0-1.73-.07-3.12a15.28,15.28,0,0,1,3.23.54c.21.1.34.21.34.34s-.27.38-1.32.61v1.63h2.24c.78-.88,1-1.15,1.84-2,1.29,1,1.66,1.29,2.92,2.38a.36.36,0,0,1,.14.27c0,.1-.11.17-.31.17h-6.83c0,2.61,0,2.61,0,4.42v.1c0,.34-.34.44-1.49.44-.55,0-.72-.07-.72-.27v-.82h-5.61v.78c0,.38-.24.45-1.53.45-.61,0-.71-.07-.71-.38.07-1.56.07-1.56.07-4.72h-5.65v6.66h16.36c.88-.88,1.15-1.16,2-2a33.25,33.25,0,0,1,2.86,2.28c.14.14.21.24.21.31s-.14.2-.34.2H263.33v.41c0,.44-.2.51-1.46.51-.75,0-.82,0-.82-.37.11-3.74.11-3.74.11-6.7v-1.29H258a16.93,16.93,0,0,0-2.75.2l-.17-1.33a11.68,11.68,0,0,0,3.06.34h3.06c0-1.69,0-2-.11-3.12.92.13,1.94.27,2.69.41s.85.2.85.4-.3.45-1.26.65v1.66Zm-4.32-7.88c0-.65,0-1-.07-1.87,3.57.47,3.57.47,3.57.81s-.27.41-1.36.72v1.8h6.8v-1.29c0-.85,0-1.29-.06-2.08,3.4.48,3.67.55,3.67.89s-.41.47-1.46.71v1.77h4.65c.95-1,1.26-1.36,2.18-2.28,1.39,1.09,1.8,1.43,3.16,2.59.14.13.17.2.17.27s-.14.2-.37.2h-9.79v.48c0,.34,0,.78,0,1.39,0,.38-.2.44-1.67.44-.47,0-.54-.06-.54-.37,0-.92,0-1.22,0-1.94h-6.8v2c0,.38-.27.44-1.39.44-.71,0-.82,0-.82-.37s.07-1.19.07-2.11h-5.95a17.8,17.8,0,0,0-3.16.21l-.2-1.26a15.72,15.72,0,0,0,3.36.27h5.95Zm6.46,8.67v3.09h5.61v-3.09Z"/><path class="cls-1" d="M307.7,170.71a27.26,27.26,0,0,0,4,8.77,24.06,24.06,0,0,0,7.18,6.66,16,16,0,0,0,4.45,1.91l-.07.47c-1.9.24-2.38.62-3.09,2.28a22.25,22.25,0,0,1-5.81-4.79,29.52,29.52,0,0,1-5.48-8.91,36.63,36.63,0,0,1-1.66-5.75,22.28,22.28,0,0,1-4.83,12,25.84,25.84,0,0,1-6.87,5.67,26.67,26.67,0,0,1-4.42,2l-.27-.48a32.59,32.59,0,0,0,6.29-4.31,23.08,23.08,0,0,0,7.75-15.54H295a14.76,14.76,0,0,0-3.16.24l-.2-1.3a17.17,17.17,0,0,0,3.5.28h9.75c.17-2,.28-4.63.28-6.7a15.47,15.47,0,0,0-.17-2.35c3.94.38,4.21.41,4.21.82s-.44.61-1.46,1c-.14,3.95-.2,5.27-.37,7.28H317c.82-1.19,1.09-1.57,2-2.69a39.78,39.78,0,0,1,3.37,2.86c.13.13.2.23.2.3a.35.35,0,0,1-.37.31Z"/><path class="cls-1" d="M353.7,179.48c.89-1.12,1.19-1.5,2.18-2.62,1.36,1.19,1.77,1.57,3.09,2.82a.75.75,0,0,1,.14.34c0,.14-.17.24-.41.24h-14v4c0,1.46,0,2.45,0,4.59a2,2,0,0,1-1.22,1.94,7.74,7.74,0,0,1-3,.74c-.37-1.83-.58-1.93-5.34-2.68v-.51c2.59.2,2.82.2,6.43.37.44,0,.54-.1.54-.47v-8H330.82a25,25,0,0,0-2.78.14l-.21-1.19a14.33,14.33,0,0,0,2.93.27h11.45v-.58c0-.68,0-.88-.07-2.79.68.11,1.53.24,2.59.45a21.11,21.11,0,0,0,3.6-4.08H336.4a14.71,14.71,0,0,0-2.45.17l-.2-1.19a14.37,14.37,0,0,0,2.62.23h12.2c.65-.68.85-.88,1.5-1.52,1.05.78,1.39,1,2.38,1.8.3.23.44.4.44.57s-.41.45-1.74.55a37.47,37.47,0,0,1-5.54,3.67c.31.1.44.2.44.37s-.34.41-1.32.62v1.73Zm.51-12c.72-.78.92-1,1.67-1.73,1.22.81,1.6,1.05,2.79,2,.34.24.47.4.47.57,0,.41-.58.62-2.1.65-.68.71-.68.71-1.7,1.87-.65.71-.65.71-1.37,1.43l-.34-.14a19.43,19.43,0,0,0,1-3.84h-22.2a7.71,7.71,0,0,1-1.5,4.52,2.4,2.4,0,0,1-1.49,1.06c-.24,0-.48-.17-.62-.55a4.12,4.12,0,0,1-.37-1.39c0-.48.17-.71,1-1.36,1.36-1,2-2.48,2.38-5h.65c0,1,0,1.23,0,1.94h15.37a29.9,29.9,0,0,0,3.67-6.77c3.23,1.26,3.57,1.43,3.57,1.74s-.41.51-.95.51c-.17,0-.48,0-.75,0a40.12,40.12,0,0,1-4.69,4.56Zm-19.92-6.39a21.52,21.52,0,0,1,3.23,2.41,2,2,0,0,1,.82,1.43,3.6,3.6,0,0,1-.72,1.94.64.64,0,0,1-.51.27c-.34,0-.47-.2-.81-1.16a16.64,16.64,0,0,0-2.35-4.62Zm6.94-.78c2.92,2.14,4.14,3.4,4.14,4.28a4.49,4.49,0,0,1-.64,1.87.84.84,0,0,1-.72.44c-.4,0-.51-.17-.85-1.39a12.71,12.71,0,0,0-2.31-4.9Z"/><path class="cls-1" d="M371.76,185.53a12.16,12.16,0,0,0-2.62.24l-.2-1.26a13.32,13.32,0,0,0,2.82.24h6.94v-1.53c0-.71,0-1.33-.14-2.75,2.82.27,3.64.44,3.64.81s-.38.48-1.36.72v2.75h7c.91-.95,1.15-1.26,1.93-2.14,1.3,1,1.67,1.39,2.89,2.48.11.1.14.17.14.2s-.17.24-.31.24H380.84v3.78H390.9c1-1.13,1.29-1.47,2.24-2.49,1.4,1.13,1.84,1.5,3.16,2.66.17.13.24.23.24.33a.36.36,0,0,1-.3.28h-28a17,17,0,0,0-3.29.27l-.28-1.43a15.44,15.44,0,0,0,3.57.38H378.7v-3.78Zm8.94-12.61h7.58c.85-.85,1.12-1.12,1.87-1.91,1.12.92,1.43,1.23,2.55,2.18a.88.88,0,0,1,.17.31c0,.1-.17.2-.34.2H380.7v2.89h10.06l2-2.07a36.67,36.67,0,0,1,3,2.31c.17.1.24.2.24.3s-.24.24-.48.24H368.19a13.85,13.85,0,0,0-2.75.31l-.28-1.4a12.67,12.67,0,0,0,3,.31H378.7V173.7H371a10.26,10.26,0,0,0-2.59.24l-.23-1.33a9.26,9.26,0,0,0,2.82.31h7.72V170h-7.52v.74c0,.45-.34.55-1.66.55-.38,0-.51-.1-.55-.41.14-2,.17-3,.17-4.79,0-2.25-.07-4-.17-5.68l2.42,1.39h16.82c.62-.68.62-.68,1.23-1.39.81.61,1.09.78,1.87,1.39.27.24.4.38.4.48s-.3.44-1.18.92v1.22c0,1.09,0,1.56.13,5.75a.51.51,0,0,1-.27.47,7.74,7.74,0,0,1-1.56.14c-.21,0-.31-.07-.38-.31V170H380.7Zm-10,5.44a8,8,0,0,1-1.84,4.28,3.73,3.73,0,0,1-2.31,1.5c-.48,0-.78-.58-.78-1.43a1.19,1.19,0,0,1,1.05-1.39,5.32,5.32,0,0,0,3.47-3.06Zm8-15.78h-7.52v2.86h7.52Zm0,3.64h-7.52v3h7.52Zm-4,11.73c1.23,1.19,2.18,2.72,2.18,3.5s-.82,2-1.43,2c-.24,0-.37-.21-.37-.65a16.75,16.75,0,0,0-.72-4.66Zm13.77-12.51v-2.86H380.7v2.86Zm-7.75,3.77h7.75v-3H380.7Zm1.84,8.57c2,1.84,2.85,2.92,2.85,3.77s-.88,1.84-1.43,1.84c-.34,0-.47-.24-.57-1.29a10.65,10.65,0,0,0-1.23-4.12Zm6.52.24c3.95,2,5.21,3,5.21,4.15,0,.85-.62,2-1.09,2-.31,0-.44-.17-1-1.33a17.8,17.8,0,0,0-3.47-4.45Z"/><path class="cls-1" d="M407.8,189.85c0,.3-.07.41-.34.51a7,7,0,0,1-1.39.13c-.48,0-.62-.1-.62-.54.07-2.89.11-9.72.11-18,0-3.85-.07-8.47-.17-9.86a17.07,17.07,0,0,1,2.85,1.46h20.33c.65-.75.85-1,1.53-1.67,1,.72,1.29,1,2.25,1.67a.6.6,0,0,1,.27.48c0,.27-.17.4-1.29,1l0,7c0,6.9.1,12.92.27,17.68-.1.47-.54.64-1.77.64-.57,0-.78-.1-.81-.51V187.3H407.8Zm9.45-15.47v-10H407.8v10Zm0,.82H407.8v11.32h9.45ZM429,164.35h-9.52v10H429Zm-9.52,10.85v11.32H429V175.2Z"/><path class="cls-1" d="M451.62,189.78a17.81,17.81,0,0,0,6.53-6.93c1.23-2.59,1.74-5.48,1.91-10.92a54.08,54.08,0,0,0-7.59,1v1.16c0,.13,0,1.46.07,3.87,0,.11,0,.58,0,1.3,0,.34,0,.64,0,.85,0,1.22-.31,1.87-.88,1.87s-1.74-1.7-1.74-2.72a1.6,1.6,0,0,1,.17-.68,6.42,6.42,0,0,0,.38-1.64c0-.34.1-1.56.13-3.63a17.23,17.23,0,0,0-4.38,1.32A3.52,3.52,0,0,1,445,175c-1,0-3.06-2.35-3.06-3.61a.69.69,0,0,1,.1-.3,3.66,3.66,0,0,0,2.79,1.59c.37,0,1.39-.13,2.38-.27s.92-.13,2.24-.37c.68-.14.68-.14,1.13-.21a21.82,21.82,0,0,0-.48-4.58,3.18,3.18,0,0,0-1.12-1.57c-.1-.07-.41-.24-.95-.54a.78.78,0,0,1,.74-.27,6.4,6.4,0,0,1,2.89,1c.82.48,1.19,1,1.19,1.56a2.7,2.7,0,0,1-.13.75,14,14,0,0,0-.31,3.33c2.89-.4,2.89-.4,7.62-.92,0-.85,0-1,0-2.17,0-2.69-.13-3.74-.58-4.32a4,4,0,0,0-2.31-1.26,2.49,2.49,0,0,1,1.33-.37,8.92,8.92,0,0,1,3.23.78c.78.34,1.19.82,1.19,1.33a1.6,1.6,0,0,1-.17.61,17.36,17.36,0,0,0-.65,5.2c2.62-.2,3.23-.34,4.11-.71a1.85,1.85,0,0,1,1-.24c1.12,0,3.06,1.29,3.06,2a.67.67,0,0,1-.72.62,3.74,3.74,0,0,1-.61,0,36.53,36.53,0,0,0-4-.27h-1.26l-1.59,0c-.21,6.4-.82,9.42-2.35,12a17.37,17.37,0,0,1-7.82,6.43Z"/><path class="cls-1" d="M486.13,189.85a24.51,24.51,0,0,0,4.9-8,23.32,23.32,0,0,0,1.63-6.94,1.73,1.73,0,0,0-.85-1.67,27.18,27.18,0,0,0-7.54,2.15,2.19,2.19,0,0,1-1.09.34,4.13,4.13,0,0,1-2.65-1.94,3.53,3.53,0,0,1-.68-1.5,2.31,2.31,0,0,1,.13-.64,3.22,3.22,0,0,0,2.86,1.63c.92,0,1.12,0,5.81-.85,2.07-.34,5.92-.82,10.47-1.26a15.39,15.39,0,0,0,2.65-.58,2,2,0,0,1,.85-.17,4.31,4.31,0,0,1,1.81.51c.91.44,1.59,1.09,1.59,1.57s-.37.68-.95.68a2.88,2.88,0,0,1-.85-.11,32.29,32.29,0,0,0-5.47-.44,39.61,39.61,0,0,0-5.58.34c1.57.89,2.21,1.57,2.21,2.35a20.6,20.6,0,0,1-2.14,6.66,20.16,20.16,0,0,1-6.73,8.3Zm-.64-26.25a5.31,5.31,0,0,0,4.05,1.84,17.8,17.8,0,0,0,7.17-1.67,2,2,0,0,1,1-.27c.88,0,2.31,1.12,2.31,1.8,0,.41-.41.62-1.77.92a52.28,52.28,0,0,1-7.75.88c-2.55,0-3.88-.74-5.51-3.16Z"/><path class="cls-1" d="M523.06,189.51a39.11,39.11,0,0,0,7.75-7.58,32.55,32.55,0,0,0,5.71-10.37,59,59,0,0,0-9.89,1.56,17.15,17.15,0,0,0-3.54,1.06,1.83,1.83,0,0,1-1,.3c-1.19,0-3.12-2.45-3.12-3.94a.81.81,0,0,1,.2-.58,3.26,3.26,0,0,0,3,2c1.32,0,7.07-.71,11.49-1.46a6.3,6.3,0,0,0,2.79-.78,1.13,1.13,0,0,1,.54-.21c.31,0,.82.34,1.6,1,1,.89,1.36,1.43,1.36,1.87a1.19,1.19,0,0,1-.51.85c-.48.34-.68.65-1.26,1.77-3.67,6.94-9.15,12.45-14.75,14.93Zm-.44-26.31a4.41,4.41,0,0,0,3.63,1.83,22,22,0,0,0,7.69-1.63,1.37,1.37,0,0,1,.71-.2c1,0,2.65,1.19,2.65,1.87,0,.4-.3.61-1.29.74a62.23,62.23,0,0,1-8.67.89c-2.55,0-3.57-.65-5.2-3.2Z"/><path class="cls-1" d="M552.37,180.74a57.42,57.42,0,0,0,12.78-9.66c3.37-3.29,5.54-6.05,5.54-7,0-.65-.54-1.19-1.9-1.94a1.43,1.43,0,0,1,.68-.14,5.12,5.12,0,0,1,2.92,1c1.16.78,1.77,1.57,1.77,2.21,0,.31,0,.38-1.36,1.5-.34.27-.34.27-2.75,2.58s-2.59,2.45-4,3.67c1.33,1,1.9,1.5,2.07,1.91a28.92,28.92,0,0,1,.24,5c0,2.38.1,4.56.17,6.5,0,.75,0,1.73,0,1.94,0,1.19-.24,1.69-.79,1.69-.78,0-2.31-1.86-2.31-2.85,0-.24,0-.24.21-.88a47,47,0,0,0,.61-8.37,16.5,16.5,0,0,0-.2-3.23,2.56,2.56,0,0,0-.75-1.05,66.17,66.17,0,0,1-6.53,4.66,40.94,40.94,0,0,1-6.12,3Z"/><path class="cls-1" d="M597.11,161.9a6.9,6.9,0,0,1,2.52.58c1.42.55,2.24,1.23,2.24,1.87,0,.24,0,.24-.2.75-.41.92-.62,3.47-.62,7.41a30.92,30.92,0,0,1,7.93,1.9c1.53.72,2.1,1.4,2.1,2.62,0,1-.3,1.57-.81,1.57-.34,0-.38,0-1.26-.82a19.6,19.6,0,0,0-8-4.42c0,2.14,0,3.2,0,4.22v5c0,1,0,1,.07,3.88,0,.71,0,1.29,0,1.8a2.21,2.21,0,0,1-.17,1.15.8.8,0,0,1-.61.31c-.82,0-2.18-1.84-2.18-3a2.48,2.48,0,0,1,.17-.95c.51-1.63.71-6.05.71-14.72a54.3,54.3,0,0,0-.24-5.85,3.46,3.46,0,0,0-2.58-3A1.37,1.37,0,0,1,597.11,161.9Z"/><path class="cls-1" d="M627.81,169.55a5.92,5.92,0,0,0,3.51,1.16,21.19,21.19,0,0,0,5.84-1.29c-.68-3-1.19-4.46-1.73-5.24s-1.12-1.05-2.75-1.19a2.31,2.31,0,0,1,2-.64,11.83,11.83,0,0,1,2.75.34c.85.23,1.33.64,1.33,1.19a1.25,1.25,0,0,1,0,.34,4.51,4.51,0,0,0-.13,1.05,20.86,20.86,0,0,0,.4,3.57c3.06-1.09,4.22-1.63,5.14-2.31.44-.38.54-.41.85-.41a4.79,4.79,0,0,1,1.6.34c.51.2.74.48.74.78,0,.51-.44.78-1.9,1.26-3.84,1.26-4.18,1.36-6.12,1.94.31,1.73.71,3.63,1.16,5.4a49.26,49.26,0,0,0,5.2-1.6,10.69,10.69,0,0,0,2.17-1,1.07,1.07,0,0,1,.68-.24c1.36,0,3,.82,3,1.46a.6.6,0,0,1-.38.55,13.33,13.33,0,0,1-2.37.34,56.22,56.22,0,0,0-8,1.8c1.12,4.52,1.94,7.68,2.44,9.52a7.08,7.08,0,0,1,.38,2c0,.79-.27,1.16-.78,1.16-.82,0-2.52-1.87-2.52-2.79,0,0,0,0,.07-.47,0-.21,0-.68,0-.85,0-1.23-.3-3.2-1.29-8a39.59,39.59,0,0,0-7,2.79,3.31,3.31,0,0,1-1.49.58c-1.26,0-3.61-2-3.61-3.1a1.15,1.15,0,0,1,.11-.4,3.67,3.67,0,0,0,2.55,1.25c1,0,1.59-.13,6.28-1.59.31-.11.92-.31,2.89-.89-.4-1.83-.95-4.28-1.25-5.44-3.57,1-4.32,1.16-5.61,1.16a6.06,6.06,0,0,1-4.39-2.11Z"/><path class="cls-1" d="M678.71,179.65c2-2.07,4.66-5.51,4.66-6,0-.1-.07-.13-.17-.13a54.78,54.78,0,0,0-8.37,2.31c.75,3.16,2.45,9.65,3.13,12a3.58,3.58,0,0,1,.24,1.26c0,.55-.24.85-.68.85a2.81,2.81,0,0,1-1.33-.88,2.22,2.22,0,0,1-1-1.67,1.11,1.11,0,0,1,0-.34v-.34a74.42,74.42,0,0,0-1.91-10.4c-.41.17-.41.17-1.76.65a22,22,0,0,0-2.73,1.25,2.08,2.08,0,0,1-1,.38c-.62,0-1.4-.61-2.15-1.63a3.35,3.35,0,0,1-.78-1.67.8.8,0,0,1,.17-.48,3.14,3.14,0,0,0,2.48,1.47c.62,0,1.74-.28,5.44-1.33-1.22-4.89-1.56-5.41-3.74-5.91.27-.41.55-.48,1.46-.48a7.48,7.48,0,0,1,3.06.78,1,1,0,0,1,.48.82,1.26,1.26,0,0,1-.1.47,2.94,2.94,0,0,0-.07.62,18,18,0,0,0,.44,3.29c.61-.2.61-.2,2.35-.68,1.09-.3,1.09-.3,3.47-1a8.1,8.1,0,0,0,2.72-1.09,1.47,1.47,0,0,1,.61-.2c.41,0,1.12.48,2.17,1.36.72.65,1,1,1,1.36s-.14.51-1,.82c-.34.1-.34.1-3.64,2.72-1.06.81-1.84,1.39-3.16,2.27Z"/><path class="cls-1" d="M701.39,166.05A19.59,19.59,0,0,1,708,168.6a2.62,2.62,0,0,1,1.16,2.31c0,1.12-.38,1.91-1,1.91-.37,0-.54-.17-1.46-1.36a17.5,17.5,0,0,0-5.54-5ZM725.56,168a35.13,35.13,0,0,1-7.14,9.14,67.19,67.19,0,0,1-9.55,7.76c-1.6,1.12-1.77,1.25-2,1.56-.54.65-.74.82-1.19.82-1.39,0-4-3.27-4-5a1.54,1.54,0,0,1,.17-.68,4.81,4.81,0,0,0,1.22,1.49,2.21,2.21,0,0,0,1.36.72,8.42,8.42,0,0,0,3.3-1.43,49.4,49.4,0,0,0,8.12-5.61,53.89,53.89,0,0,0,9.15-9.08Z"/><path class="cls-1" d="M733.21,184.72a35.41,35.41,0,0,0,8.37-9.42c1-1.8,1.39-2.62,1.39-3.37,0-.54-.47-1.09-1.7-1.93a2.31,2.31,0,0,1,.75-.14,6.36,6.36,0,0,1,2.79,1.15c1.15.79,1.63,1.3,1.63,1.84a.93.93,0,0,1-.41.75,6.84,6.84,0,0,0-1.43,1.56,32.46,32.46,0,0,1-7.14,7.45,20.7,20.7,0,0,1-4,2.48Zm18.23-14.93a31.29,31.29,0,0,1,8.94,7.92,5.67,5.67,0,0,1,1.42,3.64c0,1.39-.54,2.48-1.29,2.48-.47,0-.61-.2-1.12-1.56a29.87,29.87,0,0,0-8.33-12Zm11.32-3.36a3.73,3.73,0,0,1-3.71,3.74,3.77,3.77,0,0,1-3.74-3.74,3.73,3.73,0,0,1,7.45,0Zm-6.33,0a2.64,2.64,0,0,0,2.62,2.61,2.6,2.6,0,1,0-2.62-2.61Z"/><path class="cls-1" d="M771.74,187.54a49.13,49.13,0,0,0,9.14-7.45,61.05,61.05,0,0,0,6.5-8.46,23.6,23.6,0,0,0,2.31-4.39,36.16,36.16,0,0,0-7.18,1.5,17.56,17.56,0,0,0-2.85.91,1.58,1.58,0,0,1-.58.11c-.75,0-1.46-.61-2.21-1.94a4.15,4.15,0,0,1-.71-2,1.35,1.35,0,0,1,.23-.68c1,1.77,1.7,2.28,3.2,2.28a54.15,54.15,0,0,0,7.14-.95,8.71,8.71,0,0,0,3.19-1,1.42,1.42,0,0,1,.79-.3c.71,0,2.65,1.73,2.65,2.38a.78.78,0,0,1-.44.64c-.72.48-.72.48-1.94,2.31-1.63,2.45-1.63,2.45-4.29,5.92,4.8,2.52,7.48,4.25,8.81,5.75a4.48,4.48,0,0,1,1.29,3.36c0,1.09-.34,1.77-.92,1.77a1.07,1.07,0,0,1-.78-.54,11.84,11.84,0,0,1-.81-1.36,29,29,0,0,0-8.1-8.33,37.12,37.12,0,0,1-8.22,7.65,30.91,30.91,0,0,1-6,3.33Z"/><path class="cls-1" d="M246.43,223.26v2.59H221v-2.59Zm0,6.8v2.65H235v15.37h-2.55V232.71H221v-2.65Z"/><path class="cls-1" d="M259.29,246.62a6.12,6.12,0,0,0,2.24-.34c.75-.34.92-1.05.92-3.5V228.47c-.07-3-.07-3-.34-3.2s-.68-.31-1.53-.31h-1.29v-1a38.84,38.84,0,0,0,6.46-.89c-.17,2.69-.28,5.58-.28,9.59v10.1c0,2.28.14,3,.62,3.36s.54.38,2.48.48v1h-9.28Z"/><path class="cls-1" d="M286.79,235a9.44,9.44,0,0,1,3.81.95,5.72,5.72,0,0,1,3.06,5.27c0,4.18-3.37,7-8.43,7-4.42,0-7.72-2.11-7.72-4.93,0-1.09.61-1.6,1.94-1.6,1,0,1.36.34,1.43,1.29.07,1.67.24,2.32.85,3.06a4.24,4.24,0,0,0,3.36,1.26c3.37,0,5.34-2.24,5.34-6.08,0-2.38-.81-4.15-2.28-4.93a8.89,8.89,0,0,0-3.94-.82h-1.5v-1.09h1.5a6.88,6.88,0,0,0,3.7-1,5,5,0,0,0,1.94-4.31,6.46,6.46,0,0,0-.85-3.4,3.73,3.73,0,0,0-3.53-1.7c-2.55,0-3.85,1.32-4,4-.07,1.29-.38,1.63-1.57,1.63s-1.8-.37-1.8-1.29c0-2.89,3.37-5.3,7.41-5.3,4.32,0,7.48,2.51,7.48,5.95a5.36,5.36,0,0,1-2.79,4.62,11.17,11.17,0,0,1-3.4,1.12Z"/><path class="cls-1" d="M303,246.62a6.12,6.12,0,0,0,2.24-.34c.75-.34.92-1.05.92-3.5V228.47c-.06-3-.06-3-.34-3.2s-.68-.31-1.53-.31H303v-1a38.69,38.69,0,0,0,6.46-.89c-.17,2.69-.27,5.58-.27,9.59v10.1c0,2.28.13,3,.61,3.36s.54.38,2.48.48v1H303Z"/><path class="cls-1" d="M322.08,237h7.52v1.87h-7.52Z"/><path class="cls-1" d="M340.79,226.73a7.62,7.62,0,0,1,13.15,0,21,21,0,0,1,0,17.61,7.61,7.61,0,0,1-13.15,0,21,21,0,0,1,0-17.61Zm6.59,20.5c3.64,0,5.24-3.57,5.24-11.69s-1.6-11.7-5.24-11.7-5.24,3.61-5.24,11.73S343.74,247.23,347.38,247.23Z"/><path class="cls-1" d="M364,226.73a7.62,7.62,0,0,1,13.15,0,21,21,0,0,1,0,17.61,7.61,7.61,0,0,1-13.15,0,21,21,0,0,1,0-17.61Zm6.59,20.5c3.64,0,5.24-3.57,5.24-11.69s-1.6-11.7-5.24-11.7-5.23,3.61-5.23,11.73S367,247.23,370.6,247.23Z"/><path class="cls-1" d="M399.77,243.42c0,1.64.17,2.45.61,2.79s.58.34,1.91.38v1h-8.16v-1c1.49,0,1.77-.11,2.14-.38s.61-1.15.61-2.79V241H385.36v-1.6L397.63,223h2.14v16.52h3.54V241h-3.54Zm-2.89-17.37-10,13.43h10Z"/><path class="cls-1" d="M422.31,243.42c0,1.64.17,2.45.62,2.79s.57.34,1.9.38v1h-8.16v-1c1.5,0,1.77-.11,2.14-.38s.62-1.15.62-2.79V241H407.9v-1.6L420.17,223h2.14v16.52h3.54V241h-3.54Zm-2.88-17.37-10,13.43h10Z"/><path class="cls-1" d="M462.13,239.65A15.63,15.63,0,0,0,467,244a23.17,23.17,0,0,0,9.68,3.56V248a2.79,2.79,0,0,0-2.21,2.45,15.71,15.71,0,0,1-4.25-2,26.26,26.26,0,0,1-8.6-8.37v3.74c0,1.43.07,4.83.17,7.24,0,.28-.06.34-.3.41a13.29,13.29,0,0,1-1.84.17c-.34,0-.47-.13-.51-.44,0-.85.14-3.26.24-7.21v-2.78a33.86,33.86,0,0,1-7,6,34.84,34.84,0,0,1-7.21,3.57l-.27-.48a33.63,33.63,0,0,0,8.53-5.84,28.34,28.34,0,0,0,4.39-4.73H452v.88c0,.28-.11.34-.31.41a8,8,0,0,1-1.43.17c-.4,0-.61-.13-.61-.37a.84.84,0,0,1,0-.24c.14-2.48.18-4.62.18-8.77,0-1.43-.07-2.62-.21-4.15a13.19,13.19,0,0,1,2.58,1.36h7.11v-3.57H448.49a20.55,20.55,0,0,0-2.92.21l-.27-1.4a19.66,19.66,0,0,0,3.64.41h10.4v-.2a20.81,20.81,0,0,0-.27-4.15c3.16.37,3.84.51,3.84.88s-.27.44-1.33.89v2.58h8.81c.92-1.09,1.22-1.39,2.14-2.41,1.43,1.12,1.9,1.49,3.33,2.68a.43.43,0,0,1,.14.27c0,.14-.14.24-.31.24H461.58v3.57h7.21c.58-.61.78-.82,1.36-1.36a19.15,19.15,0,0,1,1.94,1.36c.27.17.37.31.37.48s-.27.47-1.22.88c0,5.54,0,6,.1,10.06,0,.28-.07.41-.3.48s-1.23.14-1.6.14-.41-.11-.41-.45v-.88Zm-2.79-9.93H452v4.15h7.34Zm0,4.93H452v4.22h7.34Zm9.69-4.93h-7.45v4.15H469Zm0,4.93h-7.45v4.22H469Z"/><path class="cls-1" d="M481.48,249.65a29.63,29.63,0,0,0,5.84-5.78,17.9,17.9,0,0,0,2.38-3.74c2.59,1.05,3.33,1.42,3.33,1.66s-.47.44-1.73.48a26,26,0,0,1-9.52,7.78ZM507,225.27a18.54,18.54,0,0,1,2-2.45c1.53,1.16,2,1.53,3.44,2.82a.39.39,0,0,1,.1.17c0,.14-.17.24-.38.24h-27.7a11,11,0,0,0-2.35.24l-.34-1.33a16.77,16.77,0,0,0,2.65.31h11.32v-2.72a14,14,0,0,0-.17-2.31c3.44.3,4.12.44,4.12.85s-.34.44-1.46.78v3.4ZM498.24,243v2.48l0,2.38v.51c-.1,1.49-.65,1.83-3.91,2.45-.31-1-.58-1.36-1.39-1.7a13.91,13.91,0,0,0-3.27-.65v-.65c4.25.24,4.25.24,5.82.28h.06c.31,0,.38-.1.38-.45V237.3h-6.33v1.4c0,.37-.54.51-1.76.51-.45,0-.62-.1-.62-.41.07-2.48.07-3.5.07-6,0-2.78,0-3.5-.07-4.89a19.08,19.08,0,0,1,2.66,1.59H504c.55-.61.72-.78,1.26-1.39a13.72,13.72,0,0,1,2.07,1.5c.21.17.27.27.27.37s-.3.48-1.12.95c0,3.81,0,4.8.1,7.69,0,.23-.06.34-.3.4a7.73,7.73,0,0,1-1.63.21c-.34,0-.48-.1-.48-.38V237.3h-5.91Zm-8.61-6.43h14.52v-6.25H489.63Zm11.9,4.08a35.16,35.16,0,0,1,7.14,4.05c1.43,1.09,1.8,1.66,1.8,2.79,0,1.29-.37,2.21-.91,2.21-.27,0-.44-.17-.85-.86a36.33,36.33,0,0,0-3-3.63,33.16,33.16,0,0,0-4.49-4.18Z"/><path class="cls-1" d="M527.68,231.63a39.28,39.28,0,0,0,5.85-9.86c2.48,1.09,3.13,1.43,3.13,1.77s-.28.37-1,.37h-.51a53.45,53.45,0,0,1-5.3,7.72h2.34c.68-1,.89-1.23,1.63-2.15,1.16,1,1.5,1.3,2.59,2.38.1.14.17.21.17.28s-.21.27-.41.27h-7a39.94,39.94,0,0,1-4.22,4.21h6.53c.48-.57.61-.74,1.09-1.32.85.58,1.09.78,1.87,1.32.27.21.37.34.37.48s-.23.41-.91.75c0,4.55,0,10.47.06,12.44,0,.44-.34.58-1.53.58-.57,0-.68-.07-.68-.38v-1.7h-7.54v2c0,.51-.28.61-1.57.61-.57,0-.68-.07-.68-.51.07-3,.07-3,.07-11.83a37.41,37.41,0,0,1-4.35,2.82l-.24-.44a52.14,52.14,0,0,0,4.59-3.81c0-.85,0-1.16-.1-2.18.85.38,1,.45,1.66.72a39.5,39.5,0,0,0,3.44-3.74h-6.43a13.42,13.42,0,0,0-2.48.17l-.24-1.19a20.74,20.74,0,0,0,2.72.24h4.12v-5.37h-3.23a12.26,12.26,0,0,0-2,.13l-.21-1.19a9.74,9.74,0,0,0,2.45.27h3V223a24.32,24.32,0,0,0-.14-2.79c.75.1,1.36.17,1.73.24,1.6.17,2,.3,2,.61s-.38.47-1.43.78v3.6h1c.68-.95.68-.95,1.29-1.83l2.11,2.11a.5.5,0,0,1,.1.27c0,.13-.17.24-.34.24H526.9v5.37Zm4.11,5.78h-7.54v4.38h7.54Zm-7.54,5.16V248h7.54v-5.44Zm13.46-17.91c0-1.33,0-2.21,0-3.64a26.82,26.82,0,0,1,2.58,1.5h5.34c.57-.65.78-.85,1.36-1.43.95.68,1.25.92,2.07,1.6.34.34.44.47.44.61s-.37.44-1.32.68a75.35,75.35,0,0,1-5.14,9.11,10.71,10.71,0,0,1,4.22,3.47,10,10,0,0,1,1.8,5.71,5.5,5.5,0,0,1-1.63,4.25,5.25,5.25,0,0,1-2.93,1.15c-.2-1.12-.4-1.49-1.12-1.76a15.1,15.1,0,0,0-2.79-.65l0-.51c3,.14,3.64.17,4.66.17.74,0,1-.2,1.22-.75a9.1,9.1,0,0,0,.34-2.41,11.43,11.43,0,0,0-1.43-5.24,11.7,11.7,0,0,0-3.19-3.3,87.42,87.42,0,0,0,3.57-9.92H540v22.47c0,.24,0,.95,0,2.14,0,.68,0,1.7,0,3,0,.23,0,.3-.17.4a4.42,4.42,0,0,1-1.6.21c-.47,0-.57-.1-.57-.44,0-2.18,0-2.82,0-4.63V224.66Z"/><path class="cls-1" d="M562.63,245.53a12.22,12.22,0,0,0-2.62.24l-.2-1.26a13.38,13.38,0,0,0,2.82.24h6.94v-1.53c0-.71,0-1.33-.14-2.75,2.82.27,3.64.44,3.64.81s-.37.48-1.36.72v2.75h7c.92-.95,1.15-1.26,1.94-2.14,1.29,1,1.66,1.39,2.89,2.48.1.1.13.17.13.2s-.17.24-.3.24H571.71v3.78h10.06c1-1.13,1.29-1.47,2.25-2.49,1.39,1.13,1.83,1.5,3.16,2.66.17.13.24.23.24.33a.36.36,0,0,1-.31.28h-28a17,17,0,0,0-3.3.27l-.27-1.43a15.39,15.39,0,0,0,3.57.38h10.47v-3.78Zm8.94-12.61h7.58c.85-.85,1.13-1.12,1.88-1.91,1.12.92,1.42,1.23,2.54,2.18a.88.88,0,0,1,.17.31c0,.1-.17.2-.34.2H571.57v2.89h10.07l2-2.07a35,35,0,0,1,3,2.31c.17.1.24.2.24.3s-.24.24-.47.24H559.06a13.93,13.93,0,0,0-2.75.31l-.27-1.4a12.58,12.58,0,0,0,3,.31h10.51V233.7h-7.72a10.17,10.17,0,0,0-2.58.24l-.24-1.33a9.3,9.3,0,0,0,2.82.31h7.72V230h-7.52v.74c0,.45-.34.55-1.66.55-.38,0-.51-.1-.55-.41.14-2,.17-3,.17-4.79,0-2.25-.06-4-.17-5.68,1,.58,1.37.78,2.42,1.39h16.83c.61-.68.61-.68,1.22-1.39.82.61,1.09.78,1.87,1.39.27.24.41.38.41.48s-.31.44-1.19.92v1.22c0,1.09,0,1.56.14,5.75a.53.53,0,0,1-.28.47,7.74,7.74,0,0,1-1.56.14c-.21,0-.31-.07-.38-.31V230h-7.75Zm-10,5.44a7.9,7.9,0,0,1-1.84,4.28,3.68,3.68,0,0,1-2.31,1.5c-.47,0-.78-.58-.78-1.43a1.2,1.2,0,0,1,1.05-1.39,5.3,5.3,0,0,0,3.47-3.06Zm8-15.78h-7.52v2.86h7.52Zm0,3.64h-7.52v3h7.52Zm-4,11.73c1.22,1.19,2.17,2.72,2.17,3.5s-.81,2-1.43,2c-.23,0-.37-.21-.37-.65a17.11,17.11,0,0,0-.71-4.66Zm13.76-12.51v-2.86h-7.75v2.86Zm-7.75,3.77h7.75v-3h-7.75Zm1.84,8.57c2,1.84,2.86,2.92,2.86,3.77s-.89,1.84-1.43,1.84c-.34,0-.48-.24-.58-1.29A10.81,10.81,0,0,0,573,238Zm6.53.24c3.94,2,5.2,3,5.2,4.15,0,.85-.61,2-1.09,2-.31,0-.44-.17-1-1.33a17.48,17.48,0,0,0-3.46-4.45Z"/><path class="cls-1" d="M596.63,249.85c0,.3-.07.41-.34.51a7,7,0,0,1-1.39.13c-.48,0-.61-.1-.61-.54.07-2.89.1-9.72.1-18,0-3.85-.07-8.47-.17-9.86a17.16,17.16,0,0,1,2.86,1.46H617.4a22.39,22.39,0,0,1,1.54-1.67c1,.72,1.29,1,2.24,1.67a.6.6,0,0,1,.27.48c0,.27-.17.4-1.29,1l0,7c0,6.9.11,12.92.28,17.68-.11.47-.55.64-1.77.64-.58,0-.78-.1-.82-.51V247.3H596.63Zm9.45-15.47v-10h-9.45v10Zm0,.82h-9.45v11.32h9.45Zm11.73-10.85h-9.52v10h9.52Zm-9.52,10.85v11.32h9.52V235.2Z"/><path class="cls-1" d="M633.42,250.05a.42.42,0,0,1-.34.48c-.2,0-1.05.14-1.43.14-.57,0-.78-.14-.78-.45v-.07c.14-3.56.21-12.88.21-21.86,0-3-.07-4.82-.21-7.17a18.63,18.63,0,0,1,2.89,1.46h19c.68-1,.92-1.25,1.7-2.24,1.32,1.09,1.73,1.43,3.09,2.62.1.1.14.17.14.24a.16.16,0,0,1-.17.17H633.42v24.17h20a25.09,25.09,0,0,1,1.9-2.38c1.46,1.15,1.9,1.49,3.3,2.72a.4.4,0,0,1,.13.24c0,.1-.13.2-.27.2H633.42Zm4-22.5a63.82,63.82,0,0,1,8.5,5.81,38,38,0,0,0,2.55-4.62,19.34,19.34,0,0,0,1.63-4.08c3.26,1.19,3.74,1.39,3.74,1.73s-.54.55-1.84.55a44.68,44.68,0,0,1-4.35,7.75c1,.78,3.84,3.36,4.73,4.28a2.27,2.27,0,0,1,.71,1.56,6.74,6.74,0,0,1,.07.92c0,1-.24,1.6-.65,1.6s-.51-.14-.91-.85a38.58,38.58,0,0,0-5.1-6,30.34,30.34,0,0,1-3.85,4,31.71,31.71,0,0,1-7.31,5.14l-.27-.41a43.94,43.94,0,0,0,9.9-10.23,99.09,99.09,0,0,0-7.82-6.73Z"/><path class="cls-1" d="M689.25,227.34a31.07,31.07,0,0,1-2.11,6.56,30.07,30.07,0,0,1-4.11,6.63,30.39,30.39,0,0,0,6.93,4.63,23.85,23.85,0,0,0,7.45,2.34l0,.34c-1.6.38-2.14.89-2.62,2.69a28.62,28.62,0,0,1-7.61-3.77,33.3,33.3,0,0,1-5.44-4.7,27.57,27.57,0,0,1-5,4.19,35.1,35.1,0,0,1-10.85,5l-.13-.54a34.55,34.55,0,0,0,10.74-6.33,32.22,32.22,0,0,0,3.88-3.87,31.56,31.56,0,0,1-5.21-9.12,29.34,29.34,0,0,1-1.19-4h-4.69a20,20,0,0,0-3,.24l-.27-1.39a17.46,17.46,0,0,0,3.22.37h10.44v-3.87c0-.92,0-1.4-.1-2.45,3.94.51,4.22.58,4.22.95s-.31.44-1.53.92v4.45h8.66l2.25-2.68c1.49,1.22,1.94,1.59,3.4,2.89.13.17.2.27.2.37a.23.23,0,0,1-.24.2Zm-14.62,0A28.92,28.92,0,0,0,681.46,239a32.28,32.28,0,0,0,5.07-11.66Z"/><path class="cls-1" d="M702.1,241.93a43.2,43.2,0,0,0,5.54-7.14,27.76,27.76,0,0,0,2.76-5.92c1.22.41,3,1.06,3.4,1.23.13.07.27.2.27.3,0,.27-.48.44-1.36.44a.84.84,0,0,1-.24,0,39.93,39.93,0,0,1-3,4.35c2.14.41,2.61.58,2.61.85s-.27.44-1.32.72v13.7c-.11.4-.31.47-1.26.51-.27,0-.44,0-.54,0h-.11c-.37,0-.54-.14-.54-.44.14-7,.14-7,.14-8.19v-5.85a30.64,30.64,0,0,1-6,5.85Zm18.53-17.48v-2.14a18.16,18.16,0,0,0-.07-2c3.64.51,3.64.51,3.64.81s-.41.51-1.36.72v2.61h4.52c.95-1,1.29-1.39,2.21-2.41,1.43,1.16,1.87,1.53,3.26,2.75a.31.31,0,0,1,.11.21c0,.13-.17.24-.31.24h-9.79c0,1.8,0,1.8,0,3.09,0,.24-.1.37-.23.44a5.37,5.37,0,0,1-1.47.17c-.4,0-.54-.1-.57-.44,0-1.46,0-1.46,0-3.26H713.8v3.09c-.07.37-.28.44-1.16.48-.17,0-.34,0-.48,0h-.06c-.38,0-.55-.14-.58-.44.07-1.26.07-1.26.07-3.16h-6a14,14,0,0,0-2.85.27l-.21-1.4a12.59,12.59,0,0,0,3.06.34h6v-.51c0-1.49,0-2.92-.11-3.7,3.71.44,3.71.44,3.71.78s-.1.34-1.39.82v2.61Zm-.31,15.23a26.72,26.72,0,0,0,3.68-3.29,23.54,23.54,0,0,0,4.18-5.38c3.23,1.84,3.26,1.87,3.26,2.15s-.27.34-.58.34-.61,0-1-.07a40.87,40.87,0,0,1-9.56,7v7.27c0,.17.21.27.55.31s3.84.17,4.69.17a20.86,20.86,0,0,0,3.26-.21c.38-.1.48-.27.85-1.25.55-1.47,1-2.89,1.74-5.65h.44l-.44,5.44c0,.55,0,.82,0,.85,0,.24.07.31.55.48s.74.44.74.85c0,.58-.4,1-1.32,1.15a52.68,52.68,0,0,1-6.15.27c-4.19,0-5.51-.1-6.26-.5s-.88-.86-.92-1.94c0-5.58,0-5.58,0-6.33v-8.7c0-1-.07-2.55-.17-3.43,3.46.51,3.8.57,3.8.85s-.47.54-1.36.74Z"/><path class="cls-1" d="M756.43,246.62a6.24,6.24,0,0,0,2.25-.34c.74-.34.91-1.05.91-3.5V228.47c-.06-3-.06-3-.34-3.2s-.68-.31-1.53-.31h-1.29v-1a38.53,38.53,0,0,0,6.46-.89c-.17,2.69-.27,5.58-.27,9.59v10.1c0,2.28.14,3,.61,3.36s.55.38,2.48.48v1h-9.28Z"/><path class="cls-1" d="M775.51,237H783v1.87h-7.51Z"/><path class="cls-1" d="M792.74,246.62a6.14,6.14,0,0,0,2.25-.34c.75-.34.92-1.05.92-3.5V228.47c-.07-3-.07-3-.34-3.2s-.68-.31-1.53-.31h-1.3v-1a38.53,38.53,0,0,0,6.46-.89c-.17,2.69-.27,5.58-.27,9.59v10.1c0,2.28.14,3,.61,3.36s.55.38,2.49.48v1h-9.29Z"/><path class="cls-1" d="M819.06,238.83a7.83,7.83,0,0,1-5.51-2.1,8.14,8.14,0,0,1-2-5.48c0-4.93,3.33-8.29,8.19-8.29,5.41,0,8.3,3.94,8.3,11.42,0,4.93-1.09,9-3,11.19a7.53,7.53,0,0,1-5.92,2.58c-3.53,0-6.63-1.84-6.63-4,0-1.09.72-1.73,1.94-1.73s1.46.3,1.53,1.36c.2,2.38,1.22,3.5,3.16,3.5,2.35,0,4-1.6,4.93-4.69a25.68,25.68,0,0,0,.78-6.46A7.39,7.39,0,0,1,819.06,238.83Zm4.56-12.51a4.33,4.33,0,0,0-7.72-.27,11,11,0,0,0-1.09,5.1c0,4.18,1.84,6.77,4.76,6.77a5.22,5.22,0,0,0,3.6-1.5,5.69,5.69,0,0,0,1.74-4.52A11.87,11.87,0,0,0,823.62,226.32Z"/><path class="cls-1" d="M837.08,237h7.51v1.87h-7.51Z"/><path class="cls-1" d="M854.32,246.62a6.12,6.12,0,0,0,2.24-.34c.75-.34.92-1.05.92-3.5V228.47c-.07-3-.07-3-.34-3.2s-.68-.31-1.53-.31h-1.29v-1a38.84,38.84,0,0,0,6.46-.89c-.17,2.69-.28,5.58-.28,9.59v10.1c0,2.28.14,3,.62,3.36s.54.38,2.48.48v1h-9.28Z"/><path class="cls-1" d="M226.17,327.92c.48-.95.61-1.26,1.16-2.17.95,1,1.22,1.32,2.11,2.37a.77.77,0,0,1,.17.38c0,.14-.14.2-.31.2h-3.74v6.9a38.21,38.21,0,0,0,3.6-1.32l.21.51c-1.43.85-2,1.19-3.81,2.14v5.92c0,.17,0,.74,0,1.59,0,.58,0,.92,0,4.59a1.71,1.71,0,0,1-1.16,1.64,12,12,0,0,1-2.62.71c-.27-1.5-.88-1.87-3.74-2.35l0-.61c2.17.24,2.89.31,4.72.37.38,0,.45-.1.45-.54V338c-1,.54-1.16.58-2.89,1.36-.21,1.19-.28,1.36-.58,1.36s-.34-.24-.48-.68c0-.07-.2-.58-.41-1.16-.1-.3-.23-.78-.44-1.36a37.2,37.2,0,0,0,4.8-1.22V328.7h-2.15a11.49,11.49,0,0,0-2.34.21l-.21-1.23a11.45,11.45,0,0,0,2.55.24h2.15V323.6a26.3,26.3,0,0,0-.17-3.4,24.33,24.33,0,0,1,3.53.62.39.39,0,0,1,.24.3c0,.27-.27.41-1.36.78v6Zm13.26,10.64c0,7.69,0,7.92.17,12v.07c0,.27-.07.34-.27.4a6.82,6.82,0,0,1-1.7.21c-.41,0-.55-.1-.58-.44.07-4,.07-5.65.1-12.21h-5.06v2c0,.28-.11.38-.31.45a9.31,9.31,0,0,1-1.6.13c-.34,0-.47-.1-.47-.44.13-5.64.13-5.64.13-7.38,0-6.29,0-10.33-.13-12a21.45,21.45,0,0,1,2.55,1.6h12.41c.61-.72.78-.92,1.42-1.57.89.65,1.16.85,2,1.57.31.2.41.34.41.51s-.24.44-1.26,1.12V328c0,5.91,0,10.16.14,12.51v.1c0,.34-.54.51-1.8.51-.51,0-.61-.07-.61-.41v-2.11Zm-2.28-14.92h-5v6.56h5Zm0,7.34h-5v6.8h5Zm7.86-.78v-6.56h-5.58v6.56Zm-5.58,7.58H245V331h-5.58Z"/><path class="cls-1" d="M277.41,333l2.17-2.65c1.5,1.29,2,1.66,3.4,3a.37.37,0,0,1,.14.27c0,.1-.17.2-.34.2h-13v14.69h9.89c1-1.26,1.26-1.63,2.18-2.75,1.56,1.29,2,1.7,3.53,3.05a.45.45,0,0,1,.14.28c0,.1-.14.2-.27.2H257.72a13.1,13.1,0,0,0-2.82.27l-.27-1.32a12.8,12.8,0,0,0,3.09.27h9.59V325.07a22.58,22.58,0,0,0-.27-4.15l1.8.24c1.84.23,2.18.34,2.18.61s-.31.44-1.26.71V333Z"/><path class="cls-1" d="M294.1,340.64a15,15,0,0,1,.11,1.56,10.44,10.44,0,0,1-.68,4.22c-.45,1-1,1.56-1.5,1.56s-.68-.68-.68-1.7a1.49,1.49,0,0,1,.75-1.46,5.6,5.6,0,0,0,1.53-4.18Zm8.81-13.3c.61-.74.78-1,1.39-1.66a25.29,25.29,0,0,1,2.28,2,1,1,0,0,1,.14.28c0,.13-.11.16-.38.16h-5.06v4.08h1.43c.67-.74.88-.95,1.59-1.7,1,.89,1.26,1.16,2.14,2a1.18,1.18,0,0,1,.14.24c0,.14-.14.21-.41.21h-4.89v4.52h2.17c.72-.72.72-.72,1.33-1.29.71.64,1,.85,1.63,1.49.24.31.31.41.31.51s-.14.31-1.09.78c-.21,4.7-.78,8.3-1.57,9.76a3.85,3.85,0,0,1-1.56,1.43,7.67,7.67,0,0,1-2.41.48c-.24-1.53-.48-1.71-3.78-2.52l.07-.55c1.7.28,4.45.62,5.24.62.51,0,.85-.48,1.12-1.67a36.54,36.54,0,0,0,.88-8.26H296V339c0,.41-.34.51-1.47.51-.5,0-.67-.1-.67-.37V339c.1-3.06.13-4.35.13-8.56,0-6.22,0-7.58-.17-9.45a22.47,22.47,0,0,1,2.31,1.46h6.63c.65-.85.85-1.12,1.53-2a23.79,23.79,0,0,1,2.62,2.31.68.68,0,0,1,.17.27c0,.14-.07.17-.41.17h-5.4v4.11Zm-7.21,13.13c1.26,2.1,1.63,3.06,1.63,4.21,0,.65-.74,1.63-1.25,1.63-.28,0-.41-.23-.41-.74v-.21c.07-1.09.1-1.63.1-1.9a9.22,9.22,0,0,0-.44-2.82Zm3.64-17.24H296v4.11h3.33ZM296,328.12v4.08h3.33v-4.08Zm0,4.87v4.52h3.33V333Zm1.83,7c1.53,1.49,2.45,2.85,2.45,3.63s-.54,1.6-1,1.6c-.2,0-.34-.13-.37-.47a13.15,13.15,0,0,0-1.43-4.56Zm2.31-.48c1.6,1.36,2.45,2.41,2.45,3.13s-.54,1.43-1,1.43c-.13,0-.24-.14-.31-.45s-.17-.74-.34-1.36a7,7,0,0,0-1.15-2.48Zm10.34-5.71A36.22,36.22,0,0,1,309.3,343a21,21,0,0,1-2.69,5.88,11,11,0,0,1-2,2.24l-.37-.31a21.36,21.36,0,0,0,3.36-8.7,70.36,70.36,0,0,0,.82-10.44c0-6.59,0-9.24-.1-10.91,1.09.72,1.43.92,2.51,1.67h7.62c.58-.61.75-.82,1.36-1.46.88.68,1.12.88,1.9,1.56.27.2.38.37.38.51s-.07.24-1.23.78c0,.82,0,1.46,0,2v1.4c0,1.26,0,2.51,0,3.7,0,.31,0,.55,0,2.14,0,1.06,0,1.06.07,1.94v.21c0,.4-.45.54-1.81.54-.44,0-.54-.07-.57-.37v-1.6H314.5a16.25,16.25,0,0,0,2.18,7.55,17.07,17.07,0,0,0,4.32,5A9.59,9.59,0,0,0,324,348v.51c-1.32.27-1.56.47-2.58,2.1a16.26,16.26,0,0,1-4.49-5.3,23.46,23.46,0,0,1-2.85-8.67c-.07-.75-.14-1.19-.28-2.82Zm8.13-.78v-9.76h-8c0,1.09,0,2,0,2.55,0,2.41,0,4.45-.14,7.21Z"/><path class="cls-1" d="M343.06,335.81a3.11,3.11,0,1,1-3.09-3.1A3.11,3.11,0,0,1,343.06,335.81Z"/><path class="cls-1" d="M374.21,338a15.64,15.64,0,0,0,2.38,4.66,14.94,14.94,0,0,0,3.63-3.26l2.35,1.05c.44.24.68.44.68.61a.38.38,0,0,1-.21.31c-.23.1-.27.14-1.59.17a30.08,30.08,0,0,1-3.4,2.72A18.38,18.38,0,0,0,385,348c.58-1.32,1.74-4.21,2.52-6.18l.41.06L387,347.1c-.07.61-.1.95-.1,1,0,.27.13.47.57.71s.65.54.65.95-.54,1-1.29,1c-1.36,0-4.76-1.23-7.11-2.62a17.42,17.42,0,0,1-3.57-2.72,37.78,37.78,0,0,1-6.69,2.92,36.41,36.41,0,0,1-11.36,2l-.13-.55a44.15,44.15,0,0,0,11.93-3.36,39.61,39.61,0,0,0,4.93-2.62,17.89,17.89,0,0,1-2.89-5.85H363v2c0,.34-.07.37-.31.47a10.71,10.71,0,0,1-1.39.1c-.55,0-.75-.06-.75-.3v-.07c.14-3,.17-4.35.17-6.56,0-5.68,0-7.45-.17-9.21,1.16.64,1.5.88,2.62,1.59h7.55c0-4.08,0-4.18-.17-5.74,2.92.27,3.73.44,3.73.78s-.27.44-1.29.85l0,3.43V326h8a13.05,13.05,0,0,1,1.46-1.59c1,.68,1.23.91,2.15,1.59.23.21.34.34.34.48s-.17.37-1.16.88v4.42c0,2.55,0,3.64.14,6.46v0c0,.34-.07.4-.31.47a6.25,6.25,0,0,1-1.6.17c-.41,0-.51-.07-.54-.27V338Zm-3.3-6.42c-.07-1-.1-2.58-.17-4.79H363v4.79Zm.81,5.64a27.44,27.44,0,0,1-.74-4.86h-8v4.86Zm9.73-10.43H373c0,1.8,0,2.58.14,4.79h8.33Zm0,5.57h-8.26a24.19,24.19,0,0,0,.78,4.86h7.48Z"/><path class="cls-1" d="M419.6,335.67c.74-1.15,1-1.49,1.8-2.58,1.32,1.09,1.77,1.43,3.19,2.58a.75.75,0,0,1,.21.41.41.41,0,0,1-.41.37h-6.26l0,2.89c0,.41,0,1.36.07,2.76.06,2.41.06,2.41.06,6.32a2.06,2.06,0,0,1-1.32,2,7.6,7.6,0,0,1-2.93.78c-.61-1.83-.91-2-4.86-2.61V348c1.33.07,1.33.07,3.37.21,1.36.07,1.36.07,2.65.1.58-.07.75-.24.75-.68l-.1-11.19h-6.09v4.19c.07,4.35.07,4.35.14,5.64-.07.54-.38.68-1.53.71H408c-.41,0-.58-.13-.62-.47.07-1.74.11-3.33.11-5.88v-4.19h-5.41c-.24,3.74-.51,5.21-1.53,7.48a16.39,16.39,0,0,1-5.91,7.24l-.38-.27a20,20,0,0,0,4.9-9,25.31,25.31,0,0,0,.64-5.41h-2.58c-.95,0-1.67,0-3.16.17l-.21-1.25a24.19,24.19,0,0,0,3.68.3h2.31c.07-1.73.13-5.17.13-7.82,0-1.66,0-2.31-.1-3.77a17.73,17.73,0,0,1,2.86,1.67h3.57a25.94,25.94,0,0,0,1.56-5.51c1.6.3,3.33.64,3.64.78s.3.17.3.34c0,.34-.17.41-1.66.75-1.87,2.41-1.87,2.41-2.93,3.64h8l1.47-1.53,2.1,1.39c.38.31.48.41.48.51s0,.24-1.26,1.19l.1,8.36Zm-3.85-9.14H402.36c0,3.91-.07,6.59-.2,9.14h13.66Zm-10,1.53A18.55,18.55,0,0,1,411.2,331a2.27,2.27,0,0,1,.58,1.67c0,1.05-.34,1.8-.82,1.8s-.54-.17-1.09-1.16a17.8,17.8,0,0,0-2.55-3.36,9.63,9.63,0,0,0-1.83-1.53Z"/><path class="cls-1" d="M432.14,340.64a15,15,0,0,1,.11,1.56,10.44,10.44,0,0,1-.68,4.22c-.45,1-1,1.56-1.5,1.56s-.68-.68-.68-1.7a1.49,1.49,0,0,1,.75-1.46,5.6,5.6,0,0,0,1.53-4.18Zm8.81-13.3c.61-.74.78-1,1.39-1.66a25.29,25.29,0,0,1,2.28,2,1,1,0,0,1,.14.28c0,.13-.11.16-.38.16h-5.06v4.08h1.42c.68-.74.89-.95,1.6-1.7,1,.89,1.26,1.16,2.14,2a1.18,1.18,0,0,1,.14.24c0,.14-.14.21-.41.21h-4.89v4.52h2.17c.72-.72.72-.72,1.33-1.29.71.64.95.85,1.63,1.49.24.31.31.41.31.51s-.14.31-1.09.78c-.21,4.7-.78,8.3-1.57,9.76a3.85,3.85,0,0,1-1.56,1.43,7.67,7.67,0,0,1-2.41.48c-.24-1.53-.48-1.71-3.78-2.52l.07-.55c1.7.28,4.46.62,5.24.62.51,0,.85-.48,1.12-1.67a36.54,36.54,0,0,0,.88-8.26h-7.61V339c0,.41-.34.51-1.46.51-.51,0-.68-.1-.68-.37V339c.1-3.06.13-4.35.13-8.56,0-6.22,0-7.58-.17-9.45a22.47,22.47,0,0,1,2.31,1.46h6.63c.65-.85.85-1.12,1.53-2a23.79,23.79,0,0,1,2.62,2.31.68.68,0,0,1,.17.27c0,.14-.07.17-.41.17h-5.4v4.11Zm-7.21,13.13c1.26,2.1,1.63,3.06,1.63,4.21,0,.65-.75,1.63-1.25,1.63-.28,0-.41-.23-.41-.74v-.21c.07-1.09.1-1.63.1-1.9a9.22,9.22,0,0,0-.44-2.82Zm3.64-17.24h-3.33v4.11h3.33Zm-3.33,4.89v4.08h3.33v-4.08Zm0,4.87v4.52h3.33V333Zm1.83,7c1.53,1.49,2.45,2.85,2.45,3.63s-.54,1.6-1,1.6c-.21,0-.34-.13-.38-.47a13.15,13.15,0,0,0-1.43-4.56Zm2.32-.48c1.59,1.36,2.44,2.41,2.44,3.13s-.54,1.43-.95,1.43c-.14,0-.24-.14-.31-.45s-.17-.74-.34-1.36a7,7,0,0,0-1.15-2.48Zm10.33-5.71a36.22,36.22,0,0,1-1.19,9.25,21,21,0,0,1-2.69,5.88,11,11,0,0,1-2,2.24l-.37-.31a21.36,21.36,0,0,0,3.36-8.7,70.36,70.36,0,0,0,.82-10.44c0-6.59,0-9.24-.1-10.91,1.09.72,1.43.92,2.51,1.67h7.62c.58-.61.75-.82,1.36-1.46.88.68,1.12.88,1.9,1.56.27.2.38.37.38.51s-.07.24-1.23.78c0,.82,0,1.46,0,2v1.4c0,1.26,0,2.51,0,3.7,0,.31,0,.55,0,2.14,0,1.06,0,1.06.07,1.94v.21c0,.4-.45.54-1.81.54-.44,0-.54-.07-.57-.37v-1.6h-4.12a16.25,16.25,0,0,0,2.18,7.55,17.07,17.07,0,0,0,4.32,5A9.48,9.48,0,0,0,462,348v.51c-1.32.27-1.56.47-2.58,2.1a16.26,16.26,0,0,1-4.49-5.3,23.46,23.46,0,0,1-2.85-8.67c-.07-.75-.14-1.19-.28-2.82Zm8.13-.78v-9.76h-8c0,1.09,0,2,0,2.55,0,2.41,0,4.45-.14,7.21Z"/><path class="cls-1" d="M479.88,322.14a10.51,10.51,0,0,1,2.72.41c1.15.31,1.7.78,1.7,1.46,0,.27,0,.27-.27.95a17.3,17.3,0,0,0-.68,4.9v.64a1.1,1.1,0,0,0,.91.38,11.1,11.1,0,0,0,5.17-2c.38-.27.55-.37.75-.37a4.21,4.21,0,0,1,1.46.44c.55.31.72.51.72.82,0,.51-.45.78-2,1.36a14.47,14.47,0,0,1-4.73,1.05,3,3,0,0,1-2.27-.85v1.5c0,2.68.17,6.66.37,8.87a21.85,21.85,0,0,1,7.17,2.48c1.47.82,2.11,1.74,2.11,2.93,0,.81-.24,1.29-.68,1.29-.24,0-.44-.14-.81-.44a18.12,18.12,0,0,0-7.65-4.32c.06,1.6.06,1.6.06,2.21a3.31,3.31,0,0,1-2.41,3.36,11.2,11.2,0,0,1-3.47.51c-3.57,0-5.81-1.42-5.81-3.7,0-1.63,1.15-2.93,3.3-3.74a14.5,14.5,0,0,1,4.93-.82c.27,0,.71,0,1.29,0-.21-13.67-.21-13.67-.48-15.95-.23-2-.75-2.51-3-2.89A2.09,2.09,0,0,1,479.88,322.14Zm-.75,20.91c-3.5,0-6,1.19-6,2.89,0,1.36,1.4,2.14,3.81,2.14,2,0,3.6-.54,4.25-1.39.44-.55.54-1.26.54-3.57C480.63,343.05,480.22,343.05,479.13,343.05Z"/><path class="cls-1" d="M513.57,350.94a17.82,17.82,0,0,0,9-16.22c0-3-.51-5.74-1.26-7a2.78,2.78,0,0,0-2.41-1.5c-1.7,0-3.27,1.46-4.49,4.25a19.07,19.07,0,0,0-1.6,7.31c0,.58,0,1,.14,2.11a5.31,5.31,0,0,1,0,.71c0,.65-.31,1-.88,1-1.29,0-2.14-2.75-2.14-7a40.88,40.88,0,0,1,1.08-9.11,14.57,14.57,0,0,0,.38-2.48c0-1.09-.48-1.73-1.84-2.41a1.89,1.89,0,0,1,.61-.17,5.26,5.26,0,0,1,2.72,1.12c1,.68,1.33,1.22,1.33,1.9a2,2,0,0,1-.48,1.29,24.5,24.5,0,0,0-2.45,10.13c0,.31,0,.65,0,1.26h.07c1-4.35,2.27-7.17,3.94-8.9a5.52,5.52,0,0,1,4.15-2c3.26,0,5.57,4,5.57,9.69a16.9,16.9,0,0,1-3.7,11.12,17.35,17.35,0,0,1-7.52,5.37Z"/><path class="cls-1" d="M542.2,335.71a25.16,25.16,0,0,1-4.45,4l-.44-.44a33,33,0,0,0,4.82-6.19c.51-.85,1.53-2.79,2-3.77a12,12,0,0,0,.65-1.77c2.78,1,3.74,1.43,3.7,1.67s-.68.51-1.32.51h-.38a37.15,37.15,0,0,1-3.36,4.52c1.63.2,2.14.34,2.14.61s-.21.41-1.16.71v9.18c0,.58,0,1.84,0,3.71v1c0,.3,0,.67,0,1.22a.34.34,0,0,0,0,.1.39.39,0,0,1-.24.41,8.56,8.56,0,0,1-1.67.17c-.37,0-.47-.1-.51-.38.07-2.27.07-2.41.17-9Zm-4.45-6.16a31.2,31.2,0,0,0,5-6.05,15.67,15.67,0,0,0,1.8-3.6l1.7.75c1.36.57,1.87.88,1.87,1.12s-.38.41-1.64.47a29.36,29.36,0,0,1-3.6,4,26.74,26.74,0,0,1-4.62,3.81Zm27.06,2.65c.75-1.05,1-1.36,1.8-2.34,1.33,1.09,1.73,1.43,3.06,2.51a.81.81,0,0,1,.24.38c0,.17-.14.24-.41.24H558.93v5.54h4.38c.79-1,1.06-1.33,1.84-2.28,1.26,1.09,1.66,1.43,2.89,2.55a.68.68,0,0,1,.17.27c0,.14-.17.24-.41.24h-8.87v8a26.27,26.27,0,0,0,6,.51,42,42,0,0,0,5.1-.31V348a2.55,2.55,0,0,0-2,2.25c-1.29,0-2.14.06-2.62.06-4.55,0-7.2-.64-9.38-2.27a18.14,18.14,0,0,1-4.83-5.85,22.23,22.23,0,0,1-5.64,9l-.44-.34a27.63,27.63,0,0,0,3.74-7.58,31.91,31.91,0,0,0,1.12-7.34c0-.1,0-.55-.07-1,3.13.44,3.84.61,3.84,1s-.13.34-1.39.68a31.12,31.12,0,0,1-.85,4.59,12.87,12.87,0,0,0,5.23,5.24V333h-7.41a12.86,12.86,0,0,0-2.48.2l-.31-1.26a11.64,11.64,0,0,0,3,.27h7.24v-5.6H551a9.48,9.48,0,0,0-2.14.2l-.24-1.29a9,9,0,0,0,2.38.3h5.64v-2.92a18.78,18.78,0,0,0-.23-2.65c3,.34,3.74.54,3.74.95s-.34.44-1.26.68v3.94h4.69c.78-1.05,1-1.36,1.77-2.27l2.92,2.51a.8.8,0,0,1,.17.34c0,.14-.14.21-.37.21h-9.18v5.6Z"/><path class="cls-1" d="M575.9,344.44a30.6,30.6,0,0,0,5.57-6.32,11.22,11.22,0,0,0,2-3.91c3.17,1.26,3.64,1.5,3.64,1.8s-.37.41-1.56.48c-3.64,4.45-5.48,6.08-9.32,8.29Zm16.86-8.39v1.66c0,.61,0,.61,0,3.3-.07,1.87-.95,2.58-4.15,3.23-.2-1.16-.37-1.43-.91-1.73a8.89,8.89,0,0,0-3.17-.65v-.51c3.37.2,3.44.2,5.27.27.55,0,.68-.1.68-.41v-8.67H579.26a12.14,12.14,0,0,0-2.82.21l-.2-1.33a12,12,0,0,0,3.33.34h3V326a24.09,24.09,0,0,0-.13-3c3.23.34,3.74.44,3.74.78s-.41.48-1.36.78v7.24h5.67v-8.09c0-1.29,0-1.87-.13-3.16.68.1,1.22.17,1.56.2,1.63.17,2.11.31,2.11.62s-.34.44-1.29.78v4h5.47c.92-1.09,1.19-1.43,2.11-2.45,1.36,1.15,1.8,1.53,3.13,2.79a.43.43,0,0,1,.1.23c0,.14-.14.21-.34.21H592.76v4.89h8.6c.95-1.19,1.26-1.53,2.21-2.61,1.53,1.18,2,1.59,3.47,2.88a.56.56,0,0,1,.1.28c0,.1-.17.23-.38.23h-14Zm-16,15a36.91,36.91,0,0,0,13.63-4.89,21.88,21.88,0,0,0,7.35-7.28c2.27,1.23,3.12,1.77,3.12,2s-.3.38-.85.38a5.25,5.25,0,0,1-.74,0,27.37,27.37,0,0,1-5.65,5c-4.55,3.13-9.11,4.59-16.72,5.37Zm19.14-16.55a29.76,29.76,0,0,1,7.34,3,3,3,0,0,1,1.6,2.75c0,.82-.27,1.4-.65,1.4s-.47-.17-.81-.58a22.5,22.5,0,0,0-3.06-3,33.23,33.23,0,0,0-4.59-3.16Z"/><path class="cls-1" d="M624.45,346.62a6.12,6.12,0,0,0,2.24-.34c.75-.34.92-1,.92-3.5V328.47c-.07-3-.07-3-.34-3.2s-.68-.31-1.53-.31h-1.29v-1a38.84,38.84,0,0,0,6.46-.89c-.17,2.69-.28,5.58-.28,9.59v10.1c0,2.28.14,3,.62,3.36s.54.38,2.48.48v1h-9.28Z"/><path class="cls-1" d="M652.5,332.27a7.64,7.64,0,0,1,5.5,2.11,8.06,8.06,0,0,1,2,5.47c0,4.9-3.34,8.3-8.2,8.3-5.4,0-8.29-4-8.29-11.39,0-4.93,1.09-9,3-11.22a7.44,7.44,0,0,1,5.95-2.58c3.5,0,6.59,1.83,6.59,3.94,0,.89-.71,1.39-2,1.39-1,0-1.39-.3-1.49-1.25-.24-2.21-1.23-3.23-3.13-3.23-2.38,0-4,1.6-5,4.66a26.34,26.34,0,0,0-.78,6.49A7.3,7.3,0,0,1,652.5,332.27Zm-4.56,12.51a4.33,4.33,0,0,0,7.72.28,11.2,11.2,0,0,0,1.09-5.14c0-4.15-1.84-6.73-4.76-6.73a5.2,5.2,0,0,0-3.61,1.5,5.73,5.73,0,0,0-1.73,4.55A11.65,11.65,0,0,0,647.94,344.78Z"/><path class="cls-1" d="M669.63,335.81a34.11,34.11,0,0,0,7-8,26.23,26.23,0,0,0,3.5-7.24c.71.27,1.32.48,1.7.58,1.73.61,2,.75,2,1s-.38.44-1.63.61a33.86,33.86,0,0,1-5.68,8.09,30.12,30.12,0,0,1-6.63,5.34Zm15-1.16a23.4,23.4,0,0,1-2.58,8.67,16.47,16.47,0,0,1-6.7,6.29,23.24,23.24,0,0,1-3.94,1.7l-.24-.48c4.69-2.58,7.44-5.37,9.14-9.17a22.67,22.67,0,0,0,1.77-7h-4.32a17.83,17.83,0,0,0-2.71.24l-.24-1.29a15.62,15.62,0,0,0,2.92.27h14.48c.62-.58.82-.75,1.43-1.29a16.14,16.14,0,0,1,2.11,1.49c.27.24.37.38.37.51,0,.28-.23.45-1.19.92-.34,7.18-.95,11.63-1.8,13.4-.68,1.42-1.9,1.87-5.91,2a1.77,1.77,0,0,0-1.09-1.73,17,17,0,0,0-4.05-1l0-.61c5,.58,6.42.72,7.58.72,1.32,0,1.7-.55,2.14-3.2a87.83,87.83,0,0,0,.75-10.44Zm4.22-13.9a2.17,2.17,0,0,0,.13.85c.58,1.8,3,4.89,5.2,6.63a21.11,21.11,0,0,0,7.69,3.94l0,.44c-1.39.34-1.94.82-2.75,2.35a28.81,28.81,0,0,1-6.46-5.48,26.2,26.2,0,0,1-4.11-6.62,4.39,4.39,0,0,0-1.09-1.57Z"/><path class="cls-1" d="M729.85,323h1.66L720,353h-1.7Z"/><path class="cls-1" d="M750,344.1a41.77,41.77,0,0,0,5.21-9.14,41.17,41.17,0,0,0,2-6,30.23,30.23,0,0,1,3.63,1.33c.21.1.31.2.31.34,0,.4-.44.58-1.5.58h-.17a44.27,44.27,0,0,1-4.31,7.71,29.59,29.59,0,0,1-4.8,5.58Zm14.56-19.54a36.1,36.1,0,0,0-.17-3.61c4,.55,4.25.61,4.25,1.06s-.41.61-1.57.88v16.25c0,1.46,0,4.25.07,8.13-.1,2.21-1,2.85-4.66,3.46-.1-1.87-.78-2.24-5.64-3.13V347a66.45,66.45,0,0,0,7.17.57c.44,0,.55-.13.55-.57Zm7,4.62a45.58,45.58,0,0,1,6.63,7c1.63,2.07,2.18,3.16,2.18,4.35,0,1.8-.58,3.5-1.23,3.5-.3,0-.51-.31-.78-1.16a60.22,60.22,0,0,0-3.13-7.24,33.56,33.56,0,0,0-4.14-6.19Z"/><path class="cls-1" d="M796.35,328c.75-.92.95-1.19,1.73-2a26.79,26.79,0,0,1,2.62,2.38.36.36,0,0,1,.1.24c0,.1-.13.17-.4.17h-5.14v2.92c3.61,2.28,4.73,3.4,4.73,4.66s-.51,2.21-1,2.21c-.24,0-.41-.17-.58-.61a17.23,17.23,0,0,0-3.13-5.58c0,9.25,0,11.84.07,18.12,0,.48-.24.55-2,.55-.34,0-.44-.1-.44-.37l.24-12.41.37-6a42.43,42.43,0,0,1-3,6.77,25,25,0,0,1-3.23,4.62l-.34-.24a50.62,50.62,0,0,0,4.08-9,40.61,40.61,0,0,0,1.59-5.64H790a12.59,12.59,0,0,0-2.35.14l-.17-1.19A10,10,0,0,0,790,328h3v-3.2a32.24,32.24,0,0,0-.13-4.18c3.6.41,3.8.44,3.8.78s-.44.51-1.46.85V328Zm16.42,11.66c0,5.75,0,5.75.07,8.43,0,1.12-.21,1.6-.75,2.07a6.59,6.59,0,0,1-3.16,1.16c-.48-1.9-.82-2.07-4.73-2.65l0-.54,3.26.17,2.28.1h.1c.38,0,.51-.17.51-.58v-19h-6.6a15.71,15.71,0,0,0-2.34.17l-.17-1.26a8.18,8.18,0,0,0,2.51.31h6.6v-2.52c0-2.38,0-3.29-.13-5,3.33.44,4,.61,4,.95s-.2.41-1.46.75V328h.68c.75-1,1-1.26,1.8-2.21,1.26,1.09,1.67,1.43,2.86,2.58a.45.45,0,0,1,.1.24c0,.07-.14.17-.27.17h-5.17Zm-11.15-7.38c3.71,3,5.81,5.41,5.81,6.73a4.54,4.54,0,0,1-.74,2.11,1,1,0,0,1-.75.51c-.34,0-.48-.24-.65-.92a25.34,25.34,0,0,0-1.33-3.57,30.46,30.46,0,0,0-2.68-4.59Z"/><path class="cls-1" d="M842.49,328.16a58,58,0,0,0-.24-7.72,24.69,24.69,0,0,1,3.54.44c.2.11.33.24.33.38s-.27.41-1.32.81c0,.58,0,2.62,0,6.09h3.67l1.88-2.45a38.39,38.39,0,0,1,3.12,2.76.53.53,0,0,1,.07.2.32.32,0,0,1-.31.27h-8.43l.11,9.15h4.52l2.21-2.72c1.39,1.25,1.8,1.66,3.16,3a.4.4,0,0,1,.13.24.34.34,0,0,1-.34.27h-9.68c.06,7.78.06,7.78.13,11.05,0,.27,0,.37-.13.47a6.93,6.93,0,0,1-2,.21c-.37,0-.54-.14-.58-.45.11-5.2.14-8.19.14-9v-2.28h-8.19a13.86,13.86,0,0,1-3.4,7.27,16.48,16.48,0,0,1-6.87,4.53l-.3-.41a16.39,16.39,0,0,0,6.22-5.75,15.2,15.2,0,0,0,1.93-5.64h-3.29a41.32,41.32,0,0,0-4.83.24l-.2-1.33a34.06,34.06,0,0,0,5,.31H832a46.59,46.59,0,0,0,.34-5.85v-3.3H830a46.09,46.09,0,0,0-5.43.24l-.14-1.33a49,49,0,0,0,5.54.31h2.35c0-1.09,0-2,0-2.52a40,40,0,0,0-.17-5.2c3.84.41,4.18.48,4.18.82s-.23.41-1.49.88v6Zm-7.65.78c0,5.92,0,6.22-.41,9.15h8.09v-9.15Z"/><path class="cls-1" d="M862,340.64a14.6,14.6,0,0,1,.1,1.56,10.27,10.27,0,0,1-.68,4.22c-.44,1-1,1.56-1.5,1.56s-.67-.68-.67-1.7a1.5,1.5,0,0,1,.74-1.46,5.56,5.56,0,0,0,1.53-4.18Zm8.8-13.3c.62-.74.78-1,1.4-1.66a26.74,26.74,0,0,1,2.28,2,1.22,1.22,0,0,1,.13.28c0,.13-.1.16-.37.16h-5.07v4.08h1.43c.68-.74.88-.95,1.6-1.7,1,.89,1.26,1.16,2.14,2a1.18,1.18,0,0,1,.14.24c0,.14-.14.21-.41.21h-4.9v4.52h2.18c.71-.72.71-.72,1.32-1.29.72.64,1,.85,1.64,1.49.23.31.3.41.3.51s-.13.31-1.09.78c-.2,4.7-.78,8.3-1.56,9.76a4,4,0,0,1-1.56,1.43,7.76,7.76,0,0,1-2.42.48c-.24-1.53-.47-1.71-3.77-2.52l.07-.55c1.7.28,4.45.62,5.23.62.51,0,.85-.48,1.12-1.67a36.42,36.42,0,0,0,.89-8.26h-7.62V339c0,.41-.34.51-1.46.51-.51,0-.68-.1-.68-.37V339c.1-3.06.14-4.35.14-8.56,0-6.22,0-7.58-.17-9.45a23.61,23.61,0,0,1,2.31,1.46h6.63c.64-.85.85-1.12,1.53-2a23.79,23.79,0,0,1,2.62,2.31.68.68,0,0,1,.17.27c0,.14-.07.17-.41.17h-5.41v4.11Zm-7.2,13.13c1.25,2.1,1.63,3.06,1.63,4.21,0,.65-.75,1.63-1.26,1.63-.27,0-.41-.23-.41-.74v-.21c.07-1.09.11-1.63.11-1.9a9.26,9.26,0,0,0-.45-2.82Zm3.63-17.24h-3.33v4.11h3.33Zm-3.33,4.89v4.08h3.33v-4.08Zm0,4.87v4.52h3.33V333Zm1.84,7c1.53,1.49,2.45,2.85,2.45,3.63s-.55,1.6-1,1.6c-.2,0-.34-.13-.37-.47a13.37,13.37,0,0,0-1.43-4.56Zm2.31-.48c1.6,1.36,2.45,2.41,2.45,3.13S870,344,869.59,344c-.14,0-.24-.14-.31-.45s-.17-.74-.34-1.36a7.06,7.06,0,0,0-1.16-2.48Zm10.34-5.71a35.69,35.69,0,0,1-1.2,9.25,21.23,21.23,0,0,1-2.68,5.88,11,11,0,0,1-2,2.24l-.38-.31a21.37,21.37,0,0,0,3.37-8.7,71.84,71.84,0,0,0,.81-10.44c0-6.59,0-9.24-.1-10.91,1.09.72,1.43.92,2.52,1.67h7.61c.58-.61.75-.82,1.36-1.46.89.68,1.13.88,1.91,1.56.27.2.37.37.37.51s-.07.24-1.22.78c0,.82,0,1.46,0,2v1.4c0,1.26,0,2.51,0,3.7,0,.31,0,.55,0,2.14,0,1.06,0,1.06.07,1.94v.21c0,.4-.44.54-1.8.54-.44,0-.55-.07-.58-.37v-1.6h-4.11a16.25,16.25,0,0,0,2.17,7.55,17.22,17.22,0,0,0,4.32,5,9.65,9.65,0,0,0,3,1.64v.51c-1.33.27-1.57.47-2.59,2.1a16.36,16.36,0,0,1-4.48-5.3,23.47,23.47,0,0,1-2.86-8.67c-.07-.75-.14-1.19-.27-2.82Zm8.12-.78v-9.76h-8c0,1.09,0,2,0,2.55,0,2.41,0,4.45-.14,7.21Z"/><path class="cls-1" d="M909.09,322.14a10.39,10.39,0,0,1,2.72.41c1.16.31,1.7.78,1.7,1.46,0,.27,0,.27-.27.95a17.66,17.66,0,0,0-.68,4.9v.64a1.11,1.11,0,0,0,.92.38,11.14,11.14,0,0,0,5.17-2c.37-.27.54-.37.74-.37a4.31,4.31,0,0,1,1.47.44c.54.31.71.51.71.82,0,.51-.44.78-2,1.36a14.36,14.36,0,0,1-4.72,1.05,3,3,0,0,1-2.28-.85v1.5c0,2.68.17,6.66.38,8.87a21.93,21.93,0,0,1,7.17,2.48c1.46.82,2.11,1.74,2.11,2.93,0,.81-.24,1.29-.68,1.29-.24,0-.45-.14-.82-.44a18.12,18.12,0,0,0-7.65-4.32c.07,1.6.07,1.6.07,2.21a3.3,3.3,0,0,1-2.42,3.36,11.13,11.13,0,0,1-3.46.51c-3.57,0-5.82-1.42-5.82-3.7,0-1.63,1.16-2.93,3.3-3.74a14.54,14.54,0,0,1,4.93-.82c.27,0,.71,0,1.29,0-.2-13.67-.2-13.67-.47-15.95-.24-2-.75-2.51-3-2.89A2.07,2.07,0,0,1,909.09,322.14Zm-.74,20.91c-3.51,0-6,1.19-6,2.89,0,1.36,1.39,2.14,3.8,2.14,2,0,3.61-.54,4.25-1.39.45-.55.55-1.26.55-3.57C909.84,343.05,909.43,343.05,908.35,343.05Z"/><path class="cls-1" d="M942.79,350.94a17.84,17.84,0,0,0,9-16.22c0-3-.51-5.74-1.25-7a2.79,2.79,0,0,0-2.42-1.5c-1.7,0-3.26,1.46-4.49,4.25a19.24,19.24,0,0,0-1.59,7.31c0,.58,0,1,.13,2.11a4,4,0,0,1,0,.71c0,.65-.31,1-.89,1-1.29,0-2.14-2.75-2.14-7a41,41,0,0,1,1.09-9.11,14.17,14.17,0,0,0,.37-2.48c0-1.09-.47-1.73-1.83-2.41a1.83,1.83,0,0,1,.61-.17,5.29,5.29,0,0,1,2.72,1.12c.95.68,1.32,1.22,1.32,1.9a2,2,0,0,1-.47,1.29,24.5,24.5,0,0,0-2.45,10.13c0,.31,0,.65,0,1.26h.07c1-4.35,2.28-7.17,3.95-8.9a5.48,5.48,0,0,1,4.14-2c3.27,0,5.58,4,5.58,9.69a16.91,16.91,0,0,1-3.71,11.12,17.26,17.26,0,0,1-7.51,5.37Z"/><path class="cls-1" d="M971.42,335.71a25.22,25.22,0,0,1-4.46,4l-.44-.44a33.47,33.47,0,0,0,4.83-6.19c.51-.85,1.53-2.79,2-3.77a11.07,11.07,0,0,0,.64-1.77c2.79,1,3.74,1.43,3.71,1.67s-.68.51-1.33.51H976a37.41,37.41,0,0,1-3.37,4.52c1.63.2,2.14.34,2.14.61s-.2.41-1.15.71v9.18c0,.58,0,1.84,0,3.71v1c0,.3,0,.67,0,1.22a.41.41,0,0,0,0,.1.39.39,0,0,1-.24.41,8.35,8.35,0,0,1-1.66.17c-.38,0-.48-.1-.51-.38.06-2.27.06-2.41.17-9ZM967,329.55a30.5,30.5,0,0,0,5-6.05,15.26,15.26,0,0,0,1.8-3.6l1.7.75c1.36.57,1.87.88,1.87,1.12s-.37.41-1.63.47a30,30,0,0,1-3.6,4,26.79,26.79,0,0,1-4.63,3.81ZM994,332.2a27.4,27.4,0,0,1,1.8-2.34c1.32,1.09,1.73,1.43,3.06,2.51a.85.85,0,0,1,.23.38c0,.17-.13.24-.4.24H988.14v5.54h4.39c.78-1,1.05-1.33,1.84-2.28,1.25,1.09,1.66,1.43,2.88,2.55a.57.57,0,0,1,.17.27c0,.14-.17.24-.4.24h-8.88v8a26.39,26.39,0,0,0,6,.51,41.84,41.84,0,0,0,5.1-.31V348a2.54,2.54,0,0,0-2,2.25c-1.3,0-2.15.06-2.62.06-4.56,0-7.21-.64-9.38-2.27a18.14,18.14,0,0,1-4.83-5.85,22.15,22.15,0,0,1-5.65,9l-.44-.34a27.35,27.35,0,0,0,3.74-7.58,31.91,31.91,0,0,0,1.12-7.34c0-.1,0-.55-.06-1,3.12.44,3.84.61,3.84,1s-.14.34-1.4.68a31.12,31.12,0,0,1-.85,4.59,13,13,0,0,0,5.24,5.24V333h-7.41a12.8,12.8,0,0,0-2.48.2l-.31-1.26a11.54,11.54,0,0,0,3,.27h7.24v-5.6h-5.64a9.57,9.57,0,0,0-2.15.2l-.23-1.29a8.86,8.86,0,0,0,2.38.3h5.64v-2.92a19.12,19.12,0,0,0-.24-2.65c3,.34,3.74.54,3.74.95s-.34.44-1.26.68v3.94h4.69c.79-1.05,1-1.36,1.77-2.27l2.93,2.51a.8.8,0,0,1,.17.34c0,.14-.14.21-.38.21h-9.18v5.6Z"/><path class="cls-1" d="M1004.43,344.44a30.37,30.37,0,0,0,5.58-6.32,11.4,11.4,0,0,0,2-3.91c3.16,1.26,3.64,1.5,3.64,1.8s-.38.41-1.57.48c-3.64,4.45-5.47,6.08-9.31,8.29Zm16.86-8.39v1.66c0,.61,0,.61,0,3.3-.07,1.87-1,2.58-4.15,3.23-.2-1.16-.37-1.43-.92-1.73a8.81,8.81,0,0,0-3.16-.65v-.51c3.36.2,3.43.2,5.27.27.54,0,.68-.1.68-.41v-8.67H1007.8a12.24,12.24,0,0,0-2.83.21l-.2-1.33a12,12,0,0,0,3.33.34h3V326a23.77,23.77,0,0,0-.14-3c3.23.34,3.74.44,3.74.78s-.41.48-1.36.78v7.24h5.68v-8.09a30.37,30.37,0,0,0-.14-3.16c.68.1,1.23.17,1.57.2,1.63.17,2.11.31,2.11.62s-.34.44-1.3.78v4h5.48c.92-1.09,1.19-1.43,2.11-2.45,1.35,1.15,1.8,1.53,3.12,2.79a.43.43,0,0,1,.1.23c0,.14-.13.21-.34.21h-10.47v4.89h8.6c1-1.19,1.26-1.53,2.21-2.61,1.53,1.18,2,1.59,3.47,2.88a.56.56,0,0,1,.1.28c0,.1-.17.23-.37.23h-14Zm-16,15a37,37,0,0,0,13.64-4.89,21.75,21.75,0,0,0,7.34-7.28c2.28,1.23,3.13,1.77,3.13,2s-.31.38-.85.38a5.45,5.45,0,0,1-.75,0,27.08,27.08,0,0,1-5.64,5c-4.56,3.13-9.11,4.59-16.73,5.37Zm19.15-16.55a29.92,29.92,0,0,1,7.34,3,3,3,0,0,1,1.6,2.75c0,.82-.28,1.4-.65,1.4s-.48-.17-.82-.58a23,23,0,0,0-3-3,33.84,33.84,0,0,0-4.59-3.16Z"/><path class="cls-1" d="M1054.24,326.05c-1.6,0-2.18.27-2.82,1.4a11,11,0,0,0-1,2.88l-1.06-.06,1-6.8h15.5v2a47.66,47.66,0,0,0-5.17,9.69,46.39,46.39,0,0,0-2.08,6.43,25.73,25.73,0,0,0-.64,5c0,1.26-.51,1.63-2.11,1.63-1.08,0-1.6-.37-1.6-1.15,0-3.06,4.42-12.65,9.66-21Z"/><path class="cls-1" d="M1075.63,335.81a34.05,34.05,0,0,0,7-8,26.23,26.23,0,0,0,3.5-7.24c.72.27,1.33.48,1.7.58,1.74.61,2,.75,2,1s-.37.44-1.63.61a33.86,33.86,0,0,1-5.68,8.09,29.66,29.66,0,0,1-6.63,5.34Zm15-1.16a23.21,23.21,0,0,1-2.59,8.67,16.47,16.47,0,0,1-6.7,6.29,22.55,22.55,0,0,1-3.94,1.7l-.24-.48c4.69-2.58,7.45-5.37,9.15-9.17a23,23,0,0,0,1.77-7h-4.32a17.85,17.85,0,0,0-2.72.24l-.24-1.29a15.65,15.65,0,0,0,2.93.27h14.48c.61-.58.81-.75,1.43-1.29a16.72,16.72,0,0,1,2.1,1.49c.27.24.38.38.38.51,0,.28-.24.45-1.19.92-.34,7.18-1,11.63-1.8,13.4-.68,1.42-1.91,1.87-5.92,2a1.77,1.77,0,0,0-1.09-1.73,17,17,0,0,0-4-1l0-.61c5,.58,6.43.72,7.58.72,1.33,0,1.7-.55,2.14-3.2a85.74,85.74,0,0,0,.75-10.44Zm4.21-13.9a2.16,2.16,0,0,0,.14.85c.58,1.8,3,4.89,5.2,6.63a21.06,21.06,0,0,0,7.68,3.94l0,.44c-1.4.34-1.94.82-2.76,2.35a28.81,28.81,0,0,1-6.46-5.48,26.2,26.2,0,0,1-4.11-6.62,4.39,4.39,0,0,0-1.09-1.57Z"/><path class="cls-1" d="M68,15.71a29.93,29.93,0,0,0,5-4.05,48.83,48.83,0,0,0,7.48-9.18A9.78,9.78,0,0,0,81.6,0c3.74.85,4,1,4,1.22s-.54.58-1.29.62A22.42,22.42,0,0,0,91.7,9.18a24,24,0,0,0,8.19,3.4v.34c-1.4.37-1.8.85-2.45,2.79a29.56,29.56,0,0,1-7.58-5.44,39.23,39.23,0,0,1-4.69-5.58,11.52,11.52,0,0,1-1.43-2.55,40.16,40.16,0,0,1-7.34,8.53,35.86,35.86,0,0,1-8.06,5.51Zm14.69,3.63c-3.44,5.07-3.81,5.61-5.82,7.89,5.31-.07,10.47-.34,13.84-.71a34.43,34.43,0,0,0-4.42-5.27l.27-.34a37.8,37.8,0,0,1,6.8,5.1,3.28,3.28,0,0,1,1.29,2.38,5.21,5.21,0,0,1-.54,2.1.73.73,0,0,1-.58.34c-.24,0-.37-.13-.58-.51a30.92,30.92,0,0,0-1.76-3.09,168.64,168.64,0,0,1-18.26,2.62c-.34,1-.44,1.19-.71,1.19s-.28-.07-.41-.65c-.21-.91-.51-2.31-.68-3.26l2.75.1c.58,0,1,0,1.43,0a4.14,4.14,0,0,0,.61,0,46.75,46.75,0,0,0,3.64-7.89h-6.9a10.86,10.86,0,0,0-2.42.21L70,18.29a11.09,11.09,0,0,0,2.69.27H92.27c.82-1.09,1.06-1.39,1.87-2.38,1.46,1.09,1.91,1.46,3.3,2.62a2.93,2.93,0,0,1,.17.31c0,.13-.13.23-.3.23ZM75,12.65a15.07,15.07,0,0,0,2.75.27h8.57c.82-1,1-1.33,1.9-2.28,1.36,1.09,1.81,1.43,3.13,2.55a.4.4,0,0,1,.21.31c0,.13-.14.2-.45.2H77.55c-.57,0-1.08,0-2.34.14Z"/><path class="cls-1" d="M106.05,30.26a21.5,21.5,0,0,0,3.57-4.46,18.43,18.43,0,0,0,1.63-3.23c2.65.92,3.13,1.13,3.13,1.43s-.28.38-1.3.55a28.21,28.21,0,0,1-6.63,6.15ZM117.84,5.68v-2c0-1,0-2.07-.13-3.13,3.26.31,3.6.38,3.6.79,0,.23-.27.4-1.26.74V5.68h.78c.68-.82.89-1.06,1.53-1.84,1,.92,1.3,1.19,2.25,2.11a.47.47,0,0,1,.13.31c0,.13-.1.2-.44.2h-4.25V20.81h.58a14.75,14.75,0,0,1,1.46-2c.89.95,1.19,1.26,2.08,2.24,0,.14.06.28.06.31s-.06.24-.37.24h-15a17.86,17.86,0,0,0-2.41.17l-.17-1.23a9.87,9.87,0,0,0,2.79.28h1V6.46h-1.59c-1.64.1-1.64.1-2,.24l-.17-1.29a7.49,7.49,0,0,0,2.18.27H110V4.28c0-1.15-.06-2.75-.17-3.84,3.3.34,3.78.44,3.78.82s-.31.47-1.43.75V5.68Zm-5.64,4.79h5.64v-4H112.2Zm0,4.86h5.64V11.25H112.2Zm0,5.48h5.64v-4.7H112.2Zm4.22,2.1c3.26,1.19,4.62,2.18,4.62,3.34,0,.91-.44,1.83-.89,1.83s-.44-.1-1-1.26a24.24,24.24,0,0,0-1.59-2.31,19.44,19.44,0,0,0-1.4-1.43Zm10.67-4.65a21,21,0,0,1-2,7.17,18.46,18.46,0,0,1-4.42,5.71l-.54-.37a19.77,19.77,0,0,0,4.28-8.26c.68-2.76.92-6.43.92-13.47a61.58,61.58,0,0,0-.21-8,23,23,0,0,1,2.76,1.59h5c.54-.68.74-.91,1.29-1.59.92.61,1.19.78,2,1.42.27.21.37.34.37.51s-.31.58-1.12,1V23l0,2c0,.61,0,1.36,0,2.31a3.76,3.76,0,0,1-.27,1.77c-.48.88-1.09,1.19-3.44,1.56a2.25,2.25,0,0,0-.85-1.53c-.58-.48-1.36-.68-3.13-.85l0-.58c3.36.24,3.36.24,4.79.24.38,0,.51-.2.51-.64v-9Zm.34-7.55a59.8,59.8,0,0,1-.24,6.76h5.95V10.71Zm5.71-.78V3.37h-5.71c0,1.22,0,1.87,0,2.44,0,.28,0,1.84,0,4.12Z"/><path class="cls-1" d="M68,175.71a29.93,29.93,0,0,0,5-4.05,48.83,48.83,0,0,0,7.48-9.18A9.78,9.78,0,0,0,81.6,160c3.74.85,4,.95,4,1.22s-.54.58-1.29.62a22.42,22.42,0,0,0,7.38,7.34,24,24,0,0,0,8.19,3.4v.34c-1.4.37-1.8.85-2.45,2.79a29.56,29.56,0,0,1-7.58-5.44,39.23,39.23,0,0,1-4.69-5.58,11.52,11.52,0,0,1-1.43-2.55,40.16,40.16,0,0,1-7.34,8.53,35.86,35.86,0,0,1-8.06,5.51Zm14.69,3.63c-3.44,5.07-3.81,5.61-5.82,7.89,5.31-.07,10.47-.34,13.84-.71a34.43,34.43,0,0,0-4.42-5.27l.27-.34a37.8,37.8,0,0,1,6.8,5.1,3.28,3.28,0,0,1,1.29,2.38,5.21,5.21,0,0,1-.54,2.1.73.73,0,0,1-.58.34c-.24,0-.37-.13-.58-.51a30.92,30.92,0,0,0-1.76-3.09,168.64,168.64,0,0,1-18.26,2.62c-.34,1-.44,1.19-.71,1.19s-.28-.07-.41-.65c-.21-.91-.51-2.31-.68-3.26l2.75.1c.58,0,1,0,1.43,0a4.14,4.14,0,0,0,.61,0,46.75,46.75,0,0,0,3.64-7.89h-6.9a10.86,10.86,0,0,0-2.42.21L70,178.29a11.09,11.09,0,0,0,2.69.27H92.27c.82-1.09,1.06-1.39,1.87-2.38,1.46,1.09,1.91,1.46,3.3,2.62a2.93,2.93,0,0,1,.17.31c0,.13-.13.23-.3.23ZM75,172.65a15.07,15.07,0,0,0,2.75.27h8.57c.82-1,1-1.33,1.9-2.28,1.36,1.09,1.81,1.43,3.13,2.55a.4.4,0,0,1,.21.31c0,.13-.14.2-.45.2H77.55c-.57,0-1.08,0-2.34.14Z"/><path class="cls-1" d="M114.27,170.5c.72-.85.92-1.12,1.64-1.9,1,.88,1.39,1.19,2.37,2.14.14.17.21.24.21.34s-.14.21-.38.21h-5.4v8.6c1.5-.61,2.14-.92,3.87-1.74l.24.48c-1.93,1.39-3,2.14-3.94,2.69-3.47,2.14-3.47,2.14-4.32,2.68-.07,1.26-.17,1.67-.51,1.67-.13,0-.27-.1-.37-.34,0-.07-.48-1.16-1.33-3.3a41.76,41.76,0,0,0,4.15-1.33v-9.41h-2a9.51,9.51,0,0,0-2.18.17l-.24-1.23a8.28,8.28,0,0,0,2.42.27h2v-6a30.61,30.61,0,0,0-.14-3.16c3.3.4,3.71.51,3.71.85s-.31.44-1.36.71v7.61Zm11.7,9.18a20.92,20.92,0,0,1-3.71,4.56,23.23,23.23,0,0,1-8.43,4.83l-.27-.51a23.59,23.59,0,0,0,7.21-5,17.15,17.15,0,0,0,2.78-3.91h-2.92a28.48,28.48,0,0,1-7.89,5.38l-.27-.51a23.14,23.14,0,0,0,5.78-4.87,17.46,17.46,0,0,0,2.75-3.87h-2.89a13.36,13.36,0,0,0-2.82.2l-.23-1.29a11.64,11.64,0,0,0,3,.31h14.62c.85-.92,1.13-1.19,2-2a33.72,33.72,0,0,1,2.78,2.27c.14.14.21.24.21.34s-.14.21-.41.21h-13.7a32.5,32.5,0,0,1-2.25,3.09H133a12.47,12.47,0,0,1,1.26-1.26,18,18,0,0,1,2,1.5c.2.14.27.27.27.37,0,.28-.3.51-1.08.85-.45,4.25-1.16,7.72-1.81,9-.51,1-1.83,1.7-3.74,2-.3-1.73-.68-2-4-2.45l0-.58c2.08.21,3.5.31,4.39.31s1.22-.17,1.53-.85a33,33,0,0,0,1.36-8.13h-1.77a18.65,18.65,0,0,1-3.81,5.82,26.58,26.58,0,0,1-6,4.45,35.27,35.27,0,0,1-3.4,1.6l-.34-.48a25.86,25.86,0,0,0,8-6.22,16.58,16.58,0,0,0,3.26-5.17Zm-4.29-6.83c0,.48-.37.61-1.59.61-.48,0-.62-.1-.62-.44.07-2.41.11-3.64.11-4.76,0-4,0-6.12-.11-7.34a26.94,26.94,0,0,1,2.59,1.49H130c.58-.61.75-.81,1.33-1.39.88.61,1.15.82,1.93,1.43.24.2.34.34.34.47s-.1.31-1.08.82v2c0,1.39,0,3.19.06,6.83,0,.3-.06.41-.34.51a7.56,7.56,0,0,1-1.42.17c-.31,0-.45-.1-.45-.38V172h-8.67Zm8.67-9.65h-8.67v3.5h8.67Zm-8.67,4.28v3.77h8.67v-3.77Z"/><path class="cls-1" d="M3.16,349.41a22.56,22.56,0,0,0,6.15-8.57,24.34,24.34,0,0,0,2-7.41c0-.92-.64-1.6-2-2.18a.93.93,0,0,1,.78-.34,7.94,7.94,0,0,1,2.62,1,3.05,3.05,0,0,1,1.46,1.19,42.38,42.38,0,0,0,6.09-4.86c.78-.75,1.05-1.13,1.05-1.36,0-.41-.41-.51-2-.51a65.36,65.36,0,0,0-11.72,1.87,22.58,22.58,0,0,0-3.47,1.19,2.1,2.1,0,0,1-.78.17c-.75,0-2-1-2.72-2.28A4.53,4.53,0,0,1,0,325.47a1.6,1.6,0,0,1,.24-.78,3.28,3.28,0,0,0,3.36,2c1.23,0,1.84-.07,8.2-.88.3,0,1-.14,2.34-.27,5.27-.62,5.54-.68,6.26-1a1.14,1.14,0,0,1,.44-.11,3.75,3.75,0,0,1,1.8,1c1.46,1.12,2.45,2.28,2.45,2.85s-.2.65-1.22.92a7.73,7.73,0,0,0-1.67.72c-2.82,1.59-4.35,2.38-8,4.11-.21.58-.24.65-.51,1.53-1.53,4.66-2.86,7.31-4.9,9.72a21,21,0,0,1-5.27,4.56Z"/><path class="cls-1" d="M37.5,337a38,38,0,0,0,7.14-8.33c1.39-2.1,2.24-3.84,2.24-4.59,0-.44-.13-.71-.64-1.15a4.09,4.09,0,0,0-.82-.61,4.76,4.76,0,0,1-.61-.31,1.15,1.15,0,0,1,.65-.2,6.24,6.24,0,0,1,2.78.91c1.09.62,1.6,1.19,1.6,1.74s0,.44-1.83,3.09a3.82,3.82,0,0,0,.88.14A23.67,23.67,0,0,0,53,327a10.74,10.74,0,0,0,2.69-.92.89.89,0,0,1,.57-.2c.82,0,2.76,1.76,2.76,2.51,0,.31-.1.48-.51.85a6.93,6.93,0,0,0-1.63,2.41,40,40,0,0,1-10,12.79,30.81,30.81,0,0,1-8.43,5.3l-.24-.47a38,38,0,0,0,7.51-6.09,41.85,41.85,0,0,0,9.28-13.46,5.89,5.89,0,0,0,.55-1.74c0-.13-.11-.23-.31-.23a26.08,26.08,0,0,0-4.32,1.08,3,3,0,0,1-1.12.24,3.11,3.11,0,0,1-2.11-1,34,34,0,0,1-9.79,9.32Z"/><path class="cls-1" d="M87,339.38a50.06,50.06,0,0,0,5.23-6.22,5.86,5.86,0,0,0,.85-1.4.23.23,0,0,0-.23-.24c-.51,0-1.64.34-4.59,1.4-4.08,1.43-4.66,1.66-6,2.21-.07,1.56-.07,2.14-.07,3.13,0,3.43.17,5,.68,5.81s1.7,1.19,3.84,1.19a19.21,19.21,0,0,0,6.16-.88c.44-.17.51-.21.68-.21a2.89,2.89,0,0,1,1.32.55,1.85,1.85,0,0,1,1,1.42c0,.41-.27.68-.78.79a25.72,25.72,0,0,1-5.61.44c-4.83,0-7.07-.72-8.09-2.62-.75-1.33-1-3.43-1.05-9a13,13,0,0,1-1.67.72l-1.33.58-1,.51a4.35,4.35,0,0,0-1,.51,2,2,0,0,1-1.09.37,3.87,3.87,0,0,1-2.48-1.77,4.07,4.07,0,0,1-1-2,2.88,2.88,0,0,1,.06-.41c1.06,1.26,1.77,1.7,2.76,1.7a36.82,36.82,0,0,0,6.73-1.76c-.07-6.43-.07-6.73-.31-7.58s-1-1.5-2.51-1.91a1.29,1.29,0,0,1,1.15-.44,8.78,8.78,0,0,1,3.78,1c.68.37,1,.82,1,1.26,0,.2,0,.2-.27.81a22.6,22.6,0,0,0-.89,6.26c3.94-1.33,6.29-2.11,7.31-2.52a7.48,7.48,0,0,0,2.52-1.19,1.22,1.22,0,0,1,.88-.34A5,5,0,0,1,95.74,331c.75.68,1.06,1.09,1.06,1.5s-.17.61-1,.92a24.85,24.85,0,0,0-3.57,2.79,57.64,57.64,0,0,1-4.89,3.57Z"/><path class="cls-1" d="M108.09,347.54a49.13,49.13,0,0,0,9.14-7.45,60.27,60.27,0,0,0,6.49-8.46,23.09,23.09,0,0,0,2.32-4.39,36.16,36.16,0,0,0-7.18,1.5,17.89,17.89,0,0,0-2.85.91,1.58,1.58,0,0,1-.58.11c-.75,0-1.46-.61-2.21-1.94a4.15,4.15,0,0,1-.71-2,1.35,1.35,0,0,1,.23-.68c1,1.77,1.7,2.28,3.2,2.28a54.15,54.15,0,0,0,7.14-.95,8.71,8.71,0,0,0,3.19-1,1.42,1.42,0,0,1,.79-.3c.71,0,2.65,1.73,2.65,2.38a.78.78,0,0,1-.44.64c-.72.48-.72.48-1.94,2.31C125.7,333,125.7,333,123,336.42c4.8,2.52,7.48,4.25,8.81,5.75a4.48,4.48,0,0,1,1.29,3.36c0,1.09-.34,1.77-.92,1.77a1.08,1.08,0,0,1-.78-.54,11.84,11.84,0,0,1-.81-1.36,29,29,0,0,0-8.1-8.33,37.12,37.12,0,0,1-8.22,7.65,30.61,30.61,0,0,1-6,3.33Z"/></g></g></svg>