<svg xmlns="http://www.w3.org/2000/svg" viewBox="0 0 682.15 433.28"><defs><style>.cls-1{fill:#fff;}</style></defs><g id="レイヤー_2" data-name="レイヤー 2"><g id="レイヤー_2-2" data-name="レイヤー 2"><path class="cls-1" d="M156.57,21.92a11.11,11.11,0,0,1,2-5.26c1.05-1.52,2.19-2.6,5.64-5.4a8.21,8.21,0,0,0,2-2.11,4.41,4.41,0,0,0,.6-2.27,3.55,3.55,0,0,0-3.67-3.8A3.11,3.11,0,0,0,160,5.18a6.8,6.8,0,0,0-.27,2c-.06.92-.36,1.16-1.3,1.16S157,8,157,7.21c0-2.78,2.7-4.86,6.32-4.86a6.48,6.48,0,0,1,5.18,2,4.34,4.34,0,0,1,.87,2.86c0,2.24-1,3.62-4,5.46-3.37,2.08-4.1,2.62-5.29,3.78a7.57,7.57,0,0,0-2.21,3.42h7.8c1.94,0,2.62-.59,3.16-2.86l.81.19-.73,4.7Z"/><path class="cls-1" d="M175.83,5.34a6.05,6.05,0,0,1,10.44,0,15,15,0,0,1,1.54,7,15,15,0,0,1-1.54,7,6.05,6.05,0,0,1-10.44,0,15.12,15.12,0,0,1-1.54-7A15.1,15.1,0,0,1,175.83,5.34Zm5.23,16.28c2.89,0,4.16-2.83,4.16-9.28S184,3.05,181.06,3.05s-4.15,2.86-4.15,9.31S178.17,21.62,181.06,21.62Z"/><path class="cls-1" d="M192.38,21.92a11.11,11.11,0,0,1,2-5.26c1.06-1.52,2.19-2.6,5.64-5.4a8.47,8.47,0,0,0,2.06-2.11,4.5,4.5,0,0,0,.59-2.27A3.55,3.55,0,0,0,199,3.08a3.13,3.13,0,0,0-3.21,2.1,7.18,7.18,0,0,0-.27,2c-.06.92-.35,1.16-1.3,1.16s-1.38-.32-1.38-1.1c0-2.78,2.7-4.86,6.32-4.86a6.48,6.48,0,0,1,5.18,2,4.34,4.34,0,0,1,.87,2.86c0,2.24-1,3.62-4,5.46-3.37,2.08-4.1,2.62-5.29,3.78a7.57,7.57,0,0,0-2.21,3.42h7.8c1.94,0,2.62-.59,3.16-2.86l.81.19-.73,4.7Z"/><path class="cls-1" d="M210.28,21.92a11.11,11.11,0,0,1,2-5.26c1.06-1.52,2.19-2.6,5.65-5.4A8.58,8.58,0,0,0,220,9.15a4.5,4.5,0,0,0,.59-2.27,3.55,3.55,0,0,0-3.67-3.8,3.13,3.13,0,0,0-3.21,2.1,7.18,7.18,0,0,0-.27,2c-.06.92-.35,1.16-1.3,1.16s-1.37-.32-1.37-1.1c0-2.78,2.7-4.86,6.31-4.86a6.52,6.52,0,0,1,5.19,2,4.39,4.39,0,0,1,.86,2.86c0,2.24-1,3.62-4,5.46-3.37,2.08-4.1,2.62-5.29,3.78a7.74,7.74,0,0,0-2.21,3.42h7.8c1.94,0,2.62-.59,3.16-2.86l.81.19-.73,4.7Z"/><path class="cls-1" d="M243.78,9.91h4.05c.7-.76.92-1,1.62-1.73,1,.81,1.32,1.05,2.29,1.92a.42.42,0,0,1,.14.21c0,.11-.16.22-.33.22h-7.77V16.6h5.67c.73-.84,1-1.08,1.73-1.89,1.13.87,1.48,1.13,2.51,2,.1.1.16.18.16.24a.28.28,0,0,1-.3.24h-9.77V20.6c0,.78,0,.89.11,3.75-.06.43-.33.54-1.38.54-.59,0-.75-.08-.78-.43.05-.95.13-3,.13-3.86V17.22H232c-.72,0-1.91.06-2.56.11l-.16-.95a15.85,15.85,0,0,0,2.72.22h2.33V11.39a24.67,24.67,0,0,0-.08-2.78,21.67,21.67,0,0,1,2.4,1.3h5.23v-5h-6.15a26.1,26.1,0,0,1-5.51,6l-.27-.3a18,18,0,0,0,2.43-3.16A28.39,28.39,0,0,0,236,.08c3,1,3.16,1,3.16,1.27a.37.37,0,0,1-.19.3,4.61,4.61,0,0,1-1.22.24l-1.62,2.43h12.64c.7-.81.92-1.05,1.62-1.81,1.08.84,1.4,1.08,2.51,2a.38.38,0,0,1,.13.21c0,.14-.13.22-.3.22h-8.93Zm-7.53.62V16.6h5.61V10.53Z"/><path class="cls-1" d="M273.75,11.88a7.64,7.64,0,0,1,3,.75,4.55,4.55,0,0,1,2.42,4.19c0,3.32-2.67,5.53-6.69,5.53-3.51,0-6.13-1.67-6.13-3.91,0-.87.49-1.27,1.54-1.27.78,0,1.08.27,1.13,1a3.47,3.47,0,0,0,.68,2.43,3.37,3.37,0,0,0,2.67,1c2.67,0,4.24-1.78,4.24-4.83,0-1.89-.65-3.29-1.81-3.91a7,7,0,0,0-3.13-.65h-1.19v-.87h1.19a5.44,5.44,0,0,0,2.94-.81,3.91,3.91,0,0,0,1.54-3.42,5.19,5.19,0,0,0-.67-2.7,3,3,0,0,0-2.81-1.35c-2,0-3.05,1-3.19,3.21-.05,1-.29,1.29-1.24,1.29s-1.43-.29-1.43-1c0-2.29,2.67-4.21,5.89-4.21,3.42,0,5.94,2,5.94,4.72a4.26,4.26,0,0,1-2.22,3.67,8.7,8.7,0,0,1-2.7.89Z"/><path class="cls-1" d="M292.52,14.82a16.53,16.53,0,0,1-1.7,5.48A13.92,13.92,0,0,1,287,24.83l-.25-.24a16.63,16.63,0,0,0,3.51-7.15A46.12,46.12,0,0,0,291,8.07c0-3.7-.05-6.07-.16-7.61,1.08.62,1.43.81,2.48,1.48h10.07c.35-.43.7-.86,1-1.21.78.51,1,.67,1.75,1.21.35.27.41.33.41.41s-.08.19-1.06.78V14.2c0,4.21,0,4.21,0,8,0,1.37-.49,1.72-3.13,2.37a1.48,1.48,0,0,0-1.11-1.38,17.71,17.71,0,0,0-3.51-.67v-.43c2.19.11,2.41.11,5.27.19h.08l.11,0,.24-.1c.05,0,.08-.09.08-.27V14.82Zm11-6.15H292.87a45.47,45.47,0,0,1-.25,5.53h10.91Zm0-6.11H293c0,.44,0,2.27-.06,5.48h10.64Z"/><path class="cls-1" d="M319.44,21.14a5.1,5.1,0,0,0,1.78-.27c.59-.27.73-.84.73-2.78V6.72c-.06-2.35-.06-2.35-.27-2.54a1.88,1.88,0,0,0-1.22-.24h-1V3.16a32.14,32.14,0,0,0,5.13-.7c-.14,2.13-.22,4.42-.22,7.61v8c0,1.8.11,2.34.49,2.67s.43.29,2,.38v.78h-7.37Z"/><path class="cls-1" d="M347.68,17.06c0,3.24-2.62,5.29-6.75,5.29s-6.53-1.94-6.53-5a5.06,5.06,0,0,1,2-3.92A11.5,11.5,0,0,1,339,12.12a13.33,13.33,0,0,1-2.4-1.43,3.86,3.86,0,0,1-1.43-3.27,5,5,0,0,1,1-3.13,6.6,6.6,0,0,1,5-1.94,5.92,5.92,0,0,1,4.94,2.19,4.33,4.33,0,0,1,.75,2.61,3.74,3.74,0,0,1-1.56,3.16,6.32,6.32,0,0,1-2.46,1.22C346.14,12.82,347.68,14.6,347.68,17.06ZM338,13.66a4.54,4.54,0,0,0-1.57,3.51c0,2.67,1.89,4.45,4.7,4.45,2.62,0,4.4-1.62,4.4-4,0-1.3-.57-2.22-2-3.21A16.47,16.47,0,0,0,341,13.06c-.25-.1-1.08-.48-1.08-.48A4.66,4.66,0,0,0,338,13.66Zm7-6.45c0-2.59-1.48-4.13-4-4.13a3.42,3.42,0,0,0-3.73,3.59c0,1.43.6,2.29,2.24,3.24.35.19.35.19,1.92.89.19.11.46.21.78.4A4,4,0,0,0,345,7.21Z"/><path class="cls-1" d="M358.16,5.72c0-2,0-2.67-.09-4.45a24.31,24.31,0,0,1,2.16,1.35h11.31c.49-.54.62-.7,1.11-1.22.76.52,1,.68,1.73,1.22.21.16.29.27.29.35s-.24.38-.91.76l0,8.55c0,2.08,0,5.81.19,11.18v.08a.31.31,0,0,1-.22.29,5.34,5.34,0,0,1-1.45.19c-.38,0-.46,0-.46-.19V22H360.07v1.83A.28.28,0,0,1,360,24a3.88,3.88,0,0,1-1.62.25c-.3,0-.38-.08-.4-.35.1-2.43.1-2.81.13-8.56Zm13.63-2.48H360.07v8.47h11.72Zm-11.72,9.1v9h11.72v-9Z"/><path class="cls-1" d="M394,2.19c-2.35,3.24-3.48,7.26-3.48,12.14s1.13,8.88,3.48,12.18l-.54.43a16.5,16.5,0,0,1-3.05-4.32,19.7,19.7,0,0,1-2.05-8.29,19.92,19.92,0,0,1,2.37-8.9,17.07,17.07,0,0,1,2.73-3.68Z"/><path class="cls-1" d="M405.76,18.49c0,2.48.16,2.7,2.29,2.75v.68H401.3v-.68c1.89,0,2.05-.27,2.05-2.75V5.78a7.36,7.36,0,0,0-.13-2C403,3.21,402.54,3,401.3,3V2.35H415l.33,4.8-.87.06c-.62-3.3-1.59-4-5.21-4h-3.5v8.31h2.88c3,0,3.49-.38,3.78-2.72h.76v6.31h-.76c-.38-2.43-.83-2.78-3.78-2.78h-2.88Z"/><path class="cls-1" d="M423.25,8c.06,1.35.08,1.7.08,2.27v.86c.89-2,2.35-3.21,3.94-3.21a1.87,1.87,0,0,1,2.06,1.67c0,.68-.57,1.11-1.44,1.11-.59,0-.83-.16-1-.68s-.33-.75-.76-.75a2.62,2.62,0,0,0-2,1.62,7,7,0,0,0-.73,3.43v4.23c0,2.54.13,2.73,1.94,2.79v.59h-6.18v-.59c1.81-.06,2-.28,2-2.79V11.31c0-2-.33-2.43-1.86-2.43V8.29Z"/><path class="cls-1" d="M436.67,8c-.08,1.57-.16,3.91-.16,5v5.5c0,2.51.13,2.73,1.94,2.79v.59H432.3v-.59c1.86-.06,2-.28,2-2.79v-7.2c0-1.35-.1-2-.4-2.22s-.65-.24-1.59-.24V8.29Zm-1.35-5.72a1.53,1.53,0,0,1,0,3.05,1.53,1.53,0,1,1,0-3.05Z"/><path class="cls-1" d="M445.53,26.51c2.35-3.3,3.48-7.24,3.48-12.18s-1.13-8.88-3.48-12.14l.54-.44a17,17,0,0,1,3.05,4.32,19.83,19.83,0,0,1,2.05,8.26,19.65,19.65,0,0,1-2.38,8.91,17.07,17.07,0,0,1-2.72,3.7Z"/><path class="cls-1" d="M464.37,13.5h6V15h-6Z"/><path class="cls-1" d="M490.32,11.88a7.54,7.54,0,0,1,3,.75,4.54,4.54,0,0,1,2.43,4.19c0,3.32-2.67,5.53-6.7,5.53-3.5,0-6.12-1.67-6.12-3.91,0-.87.48-1.27,1.54-1.27.78,0,1.08.27,1.13,1a3.48,3.48,0,0,0,.67,2.43,3.39,3.39,0,0,0,2.68,1c2.67,0,4.23-1.78,4.23-4.83,0-1.89-.64-3.29-1.8-3.91a7.06,7.06,0,0,0-3.14-.65h-1.18v-.87h1.18a5.5,5.5,0,0,0,2.95-.81,3.91,3.91,0,0,0,1.54-3.42,5.19,5.19,0,0,0-.68-2.7,3,3,0,0,0-2.81-1.35c-2,0-3.05,1-3.18,3.21-.06,1-.3,1.29-1.24,1.29s-1.43-.29-1.43-1c0-2.29,2.67-4.21,5.88-4.21,3.43,0,5.94,2,5.94,4.72A4.27,4.27,0,0,1,493,10.74a8.88,8.88,0,0,1-2.7.89Z"/><path class="cls-1" d="M509.08,14.82a16.3,16.3,0,0,1-1.7,5.48,13.79,13.79,0,0,1-3.78,4.53l-.24-.24a16.86,16.86,0,0,0,3.51-7.15,46.87,46.87,0,0,0,.65-9.37c0-3.7-.06-6.07-.17-7.61,1.08.62,1.43.81,2.49,1.48h10.07c.35-.43.7-.86,1-1.21.78.51,1,.67,1.76,1.21.35.27.4.33.4.41s-.08.19-1.05.78V14.2c0,4.21,0,4.21,0,8,0,1.37-.49,1.72-3.14,2.37a1.46,1.46,0,0,0-1.1-1.38,17.71,17.71,0,0,0-3.51-.67v-.43c2.18.11,2.4.11,5.26.19h.08l.11,0s0,0,.24-.1.08-.09.08-.27V14.82Zm11-6.15H509.43a43.92,43.92,0,0,1-.24,5.53h10.9Zm0-6.11H509.51c0,.44,0,2.27-.05,5.48h10.63Z"/><path class="cls-1" d="M534.73,21.92a11.11,11.11,0,0,1,2-5.26c1-1.52,2.19-2.6,5.64-5.4a8.21,8.21,0,0,0,2-2.11,4.41,4.41,0,0,0,.6-2.27,3.55,3.55,0,0,0-3.67-3.8,3.13,3.13,0,0,0-3.22,2.1,7.59,7.59,0,0,0-.27,2c-.05.92-.35,1.16-1.29,1.16s-1.38-.32-1.38-1.1c0-2.78,2.7-4.86,6.32-4.86a6.48,6.48,0,0,1,5.18,2,4.34,4.34,0,0,1,.86,2.86c0,2.24-1,3.62-4,5.46-3.37,2.08-4.1,2.62-5.29,3.78a7.57,7.57,0,0,0-2.21,3.42h7.8c1.94,0,2.62-.59,3.16-2.86l.81.19-.73,4.7Z"/><path class="cls-1" d="M554,5.34a6.06,6.06,0,0,1,10.45,0,15,15,0,0,1,1.54,7,15,15,0,0,1-1.54,7,5.72,5.72,0,0,1-5.21,3,5.8,5.8,0,0,1-5.24-3,15.25,15.25,0,0,1-1.53-7A15.23,15.23,0,0,1,554,5.34Zm5.24,16.28c2.89,0,4.16-2.83,4.16-9.28s-1.27-9.29-4.16-9.29-4.16,2.86-4.16,9.31S556.33,21.62,559.22,21.62Z"/><path class="cls-1" d="M576.34,5.72c0-2,0-2.67-.08-4.45.94.54,1.24.73,2.16,1.35h11.31c.48-.54.62-.7,1.1-1.22.76.52,1,.68,1.73,1.22.22.16.3.27.3.35s-.24.38-.92.76l0,8.55q0,3.12.19,11.18v.08a.31.31,0,0,1-.21.29,5.37,5.37,0,0,1-1.46.19c-.38,0-.46,0-.46-.19V22H578.26v1.83a.26.26,0,0,1-.09.24,3.82,3.82,0,0,1-1.61.25c-.3,0-.38-.08-.41-.35.11-2.43.11-2.81.14-8.56ZM590,3.24H578.26v8.47H590Zm-11.71,9.1v9H590v-9Z"/><path class="cls-1" d="M612.22,2.19c-2.35,3.24-3.48,7.26-3.48,12.14s1.13,8.88,3.48,12.18l-.54.43a16.74,16.74,0,0,1-3-4.32,19.85,19.85,0,0,1-2-8.29A19.8,19.8,0,0,1,609,5.43a17,17,0,0,1,2.72-3.68Z"/><path class="cls-1" d="M620.19,16.52h.89a5.16,5.16,0,0,0,1.11,3.4,5.14,5.14,0,0,0,4,1.54c2.46,0,3.92-1.3,3.92-3.51s-1-3.16-5-5.1c-2.3-1.11-3.13-1.62-3.89-2.43a4.5,4.5,0,0,1-1.19-3.19,5.06,5.06,0,0,1,1.7-3.91A5.54,5.54,0,0,1,625.61,2a11.27,11.27,0,0,1,3.19.46,5.5,5.5,0,0,0,1,.14,5,5,0,0,0,1.62-.41l-.17,5.32h-.89a6.07,6.07,0,0,0-.75-2.83,4.31,4.31,0,0,0-3.89-1.92,3.54,3.54,0,0,0-2.86,1.13,3.9,3.9,0,0,0-.78,2.35c0,1.78.86,2.67,4.07,4.19,3.38,1.59,4.65,2.48,5.4,3.67a5.09,5.09,0,0,1,.76,3,4.55,4.55,0,0,1-1.54,3.67,6.42,6.42,0,0,1-4.4,1.48,15.89,15.89,0,0,1-3.62-.46,5.87,5.87,0,0,0-.89-.08A9.82,9.82,0,0,0,620,22Z"/><path class="cls-1" d="M647,22.11a22,22,0,0,1-.14-2.78,5.49,5.49,0,0,1-4.8,2.91A3.59,3.59,0,0,1,638.44,20a13,13,0,0,1-.38-4.18V11.34c0-1.41-.11-2-.4-2.22s-.41-.21-.92-.24h-.49V8.29L640.44,8c-.14,2.51-.16,3.16-.16,5v2.35c0,2.72.05,3.45.37,4.4a2.1,2.1,0,0,0,2.19,1.51,3.9,3.9,0,0,0,3.51-2.62,6.74,6.74,0,0,0,.48-3.19V11.34c0-1.43-.08-1.95-.4-2.19a1.39,1.39,0,0,0-.92-.27H645V8.29L649.21,8c-.08,2-.14,3.8-.14,5v5.1c0,2.7.25,3.19,1.65,3.19h.19v.59Z"/><path class="cls-1" d="M658.71,10.77a4.86,4.86,0,0,1,4.76-2.86A3.73,3.73,0,0,1,667,9.58a5.88,5.88,0,0,1,.7,3.38v5.58c0,2.54.14,2.73,2,2.79v.59h-6.12v-.59c.89,0,1.37-.14,1.59-.41a1.49,1.49,0,0,0,.27-.89c0-.3.08-1.3.08-1.49V13.12a7.07,7.07,0,0,0-.43-2.92,2.41,2.41,0,0,0-2.38-1.43,3.46,3.46,0,0,0-3,1.81,6.65,6.65,0,0,0-.92,3.3v4.66c0,2.54.14,2.73,2,2.79v.59h-6.16v-.59c1.81-.06,2-.28,2-2.79V11.31c0-2-.32-2.43-1.86-2.43V8.29l4.07-.3Z"/><path class="cls-1" d="M676.51,26.51c2.35-3.3,3.48-7.24,3.48-12.18s-1.13-8.88-3.48-12.14l.54-.44a16.5,16.5,0,0,1,3.05,4.32,19.83,19.83,0,0,1,2,8.26,19.65,19.65,0,0,1-2.38,8.91,17.07,17.07,0,0,1-2.72,3.7Z"/><path class="cls-1" d="M159.46,72.15a4.85,4.85,0,0,0,1.78-.27c.6-.27.73-.84.73-2.78V57.74c-.05-2.35-.05-2.35-.27-2.54s-.54-.24-1.21-.24h-1v-.79a29.85,29.85,0,0,0,5.13-.7c-.13,2.13-.21,4.43-.21,7.61v8c0,1.81.1,2.35.48,2.67s.43.3,2,.38v.78h-7.37Z"/><path class="cls-1" d="M177.36,72.15a5,5,0,0,0,1.79-.27c.59-.27.72-.84.72-2.78V57.74c-.05-2.35-.05-2.35-.27-2.54s-.54-.24-1.21-.24h-1v-.79a29.71,29.71,0,0,0,5.13-.7c-.13,2.13-.21,4.43-.21,7.61v8c0,1.81.1,2.35.48,2.67s.43.3,2,.38v.78h-7.37Z"/><path class="cls-1" d="M197.15,60.81a1.9,1.9,0,1,1-1.89-1.89A1.85,1.85,0,0,1,197.15,60.81Zm0,10.56a1.9,1.9,0,1,1-1.89-1.89A1.86,1.86,0,0,1,197.15,71.37Z"/><path class="cls-1" d="M206.39,56.36a6,6,0,0,1,10.44,0,14.94,14.94,0,0,1,1.54,7,15,15,0,0,1-1.54,7,6,6,0,0,1-10.44,0,15.06,15.06,0,0,1-1.54-7A15.09,15.09,0,0,1,206.39,56.36Zm5.23,16.28c2.89,0,4.16-2.84,4.16-9.29s-1.27-9.28-4.16-9.28-4.15,2.86-4.15,9.31S208.74,72.64,211.62,72.64Z"/><path class="cls-1" d="M224.29,56.36a6.05,6.05,0,0,1,10.45,0,15.07,15.07,0,0,1,1.53,7,15.13,15.13,0,0,1-1.53,7,6.05,6.05,0,0,1-10.45,0,15.06,15.06,0,0,1-1.54-7A15.09,15.09,0,0,1,224.29,56.36Zm5.24,16.28c2.88,0,4.15-2.84,4.15-9.29s-1.27-9.28-4.15-9.28-4.16,2.86-4.16,9.31S226.64,72.64,229.53,72.64Z"/><path class="cls-1" d="M248.75,64.51h6V66h-6Z"/><path class="cls-1" d="M270.22,72.15a4.85,4.85,0,0,0,1.78-.27c.59-.27.73-.84.73-2.78V57.74c-.06-2.35-.06-2.35-.27-2.54s-.54-.24-1.22-.24h-1v-.79a29.72,29.72,0,0,0,5.12-.7c-.13,2.13-.21,4.43-.21,7.61v8c0,1.81.11,2.35.48,2.67s.44.3,2,.38v.78h-7.36Z"/><path class="cls-1" d="M291.11,66a6.24,6.24,0,0,1-4.37-1.67A6.45,6.45,0,0,1,285.17,60a6.24,6.24,0,0,1,6.51-6.59c4.29,0,6.59,3.14,6.59,9.07,0,3.92-.87,7.13-2.38,8.88a6,6,0,0,1-4.7,2.06c-2.8,0-5.26-1.46-5.26-3.16,0-.87.57-1.38,1.54-1.38s1.16.24,1.21,1.08c.17,1.89,1,2.78,2.51,2.78,1.87,0,3.19-1.27,3.92-3.72a20.47,20.47,0,0,0,.62-5.13A5.9,5.9,0,0,1,291.11,66ZM294.73,56a3.43,3.43,0,0,0-6.13-.22,8.88,8.88,0,0,0-.86,4c0,3.32,1.46,5.37,3.78,5.37a4.14,4.14,0,0,0,2.86-1.19,4.52,4.52,0,0,0,1.38-3.59A9.22,9.22,0,0,0,294.73,56Z"/><path class="cls-1" d="M310.61,60.81a1.91,1.91,0,1,1-1.89-1.89A1.85,1.85,0,0,1,310.61,60.81Zm0,10.56a1.91,1.91,0,1,1-1.89-1.89A1.86,1.86,0,0,1,310.61,71.37Z"/><path class="cls-1" d="M320.38,56.36a6.05,6.05,0,0,1,10.45,0,14.94,14.94,0,0,1,1.54,7,15,15,0,0,1-1.54,7,6.05,6.05,0,0,1-10.45,0,15.06,15.06,0,0,1-1.54-7A15.09,15.09,0,0,1,320.38,56.36Zm5.24,16.28c2.89,0,4.16-2.84,4.16-9.29s-1.27-9.28-4.16-9.28-4.16,2.86-4.16,9.31S322.73,72.64,325.62,72.64Z"/><path class="cls-1" d="M338.28,56.36a6.05,6.05,0,0,1,10.45,0,14.94,14.94,0,0,1,1.54,7,15,15,0,0,1-1.54,7,6.05,6.05,0,0,1-10.45,0,15.06,15.06,0,0,1-1.54-7A15.09,15.09,0,0,1,338.28,56.36Zm5.24,16.28c2.89,0,4.16-2.84,4.16-9.29s-1.27-9.28-4.16-9.28-4.16,2.86-4.16,9.31S340.63,72.64,343.52,72.64Z"/><path class="cls-1" d="M169.77,164h7.13c.76-.86,1-1.16,1.78-2.05.76.65,1.65,1.38,2.65,2.21a.43.43,0,0,1,.16.25.23.23,0,0,1-.22.21h-11.5v5.21c0,2.76,0,4.73.11,7.16-.08.43-.38.54-1.32.56h-.32c-.41,0-.6-.16-.63-.51.11-1.46.14-3.37.14-7.21v-5.21h-7.4a28,28,0,0,0-3.43.14l-.18-1a26.24,26.24,0,0,0,3.61.29h7.4v-6.56a57.38,57.38,0,0,1-9,1.08l-.08-.43a79.81,79.81,0,0,0,11.2-2.64,19.3,19.3,0,0,0,5.32-2.19c1.8,1.29,2.45,1.83,2.45,2s-.13.19-.32.19a5.83,5.83,0,0,1-1.19-.19,47,47,0,0,1-6.32,1.79Z"/><path class="cls-1" d="M196.69,169.67a13.83,13.83,0,0,0-.1-1.86c2.42.3,2.86.41,2.86.7s-.19.3-1,.54v1.16h7.34c.7-.78.92-1,1.67-1.72,1.08.83,1.41,1.1,2.43,2a.57.57,0,0,1,.14.24c0,.08-.11.13-.27.13h-11a13.69,13.69,0,0,0,2.65,1.81c2.64,1.38,4.56,1.87,9.47,2.38v.4c-1.1.27-1.48.62-2,1.92a23.9,23.9,0,0,1-6.51-2.83,12.43,12.43,0,0,1-3.88-3.43v2.24c0,1.43,0,1.43.11,4.05,0,.43-.25.51-1.27.51-.57,0-.68,0-.68-.38.08-2.81.08-2.81.08-4v-1.75a22.36,22.36,0,0,1-5.21,3.67,25.66,25.66,0,0,1-6,2.21l-.14-.35a31.68,31.68,0,0,0,6.64-3.59,22.64,22.64,0,0,0,3.3-2.84H188.6a14.42,14.42,0,0,0-2.38.19l-.13-1a9.79,9.79,0,0,0,2.51.21h8.09Zm.06-9c0-1.21,0-1.54-.08-2.48,2.59.38,2.72.4,2.72.67s-.1.25-.94.49v1.32h4.45c0-1,0-1.37-.05-2.48a12.13,12.13,0,0,1,2.56.43c.16.08.27.16.27.27s-.21.3-1.05.49v1.29h1.78c.62-.7.81-.92,1.46-1.62,1,.79,1.32,1,2.32,1.89a.29.29,0,0,1,.11.22c0,.08-.08.13-.25.13h-5.42c0,2.08,0,2.08,0,3.51v.08c0,.27-.27.35-1.19.35-.43,0-.57-.05-.57-.21v-.65h-4.45V165c0,.3-.19.35-1.22.35-.48,0-.56,0-.56-.3.05-1.24.05-1.24.05-3.75h-4.48v5.29h13c.7-.7.92-.91,1.62-1.59a26.11,26.11,0,0,1,2.27,1.81c.11.11.16.19.16.24s-.11.17-.27.17H192.24v.32c0,.35-.16.4-1.16.4-.59,0-.65,0-.65-.29.08-3,.08-3,.08-5.32v-1H188a13.58,13.58,0,0,0-2.18.17l-.14-1.06a9.43,9.43,0,0,0,2.43.27h2.43c0-1.35,0-1.59-.08-2.48.73.11,1.54.22,2.13.32s.68.16.68.33-.24.35-1,.51v1.32Zm-3.43-6.26c0-.51,0-.78,0-1.48,2.83.37,2.83.37,2.83.64s-.22.33-1.08.57v1.43h5.4v-1a14.53,14.53,0,0,0-.06-1.64c2.7.38,2.92.43,2.92.7s-.32.38-1.16.57v1.4h3.7c.75-.84,1-1.08,1.72-1.81,1.11.87,1.44,1.14,2.51,2,.11.11.14.17.14.22s-.11.16-.3.16h-7.77v.38c0,.27,0,.62,0,1.11,0,.29-.17.35-1.33.35-.37,0-.43-.06-.43-.3,0-.73,0-1,0-1.54H195v1.62c0,.3-.22.35-1.11.35-.56,0-.64,0-.64-.29s0-.95,0-1.68H188.6a14.64,14.64,0,0,0-2.51.16l-.17-1a12.6,12.6,0,0,0,2.68.22h4.72Zm5.13,6.88v2.46h4.45v-2.46Z"/><path class="cls-1" d="M227.47,161.55a21.47,21.47,0,0,0,3.19,7,18.93,18.93,0,0,0,5.69,5.29,12.75,12.75,0,0,0,3.54,1.52l-.06.37a2.38,2.38,0,0,0-2.45,1.81,17.75,17.75,0,0,1-4.62-3.8,23.56,23.56,0,0,1-4.34-7.08,28.53,28.53,0,0,1-1.33-4.56,17.57,17.57,0,0,1-3.83,9.53,20.42,20.42,0,0,1-5.45,4.51,21.72,21.72,0,0,1-3.51,1.59l-.22-.38a25.4,25.4,0,0,0,5-3.43,18.3,18.3,0,0,0,6.15-12.33H217.4a12.2,12.2,0,0,0-2.51.19l-.16-1a13.78,13.78,0,0,0,2.78.22h7.75c.13-1.59.22-3.67.22-5.32a11.35,11.35,0,0,0-.14-1.86c3.13.29,3.35.32,3.35.65s-.35.48-1.16.75c-.11,3.13-.17,4.19-.3,5.78h7.58c.65-1,.87-1.24,1.57-2.13a28.73,28.73,0,0,1,2.67,2.26c.11.11.16.19.16.25a.27.27,0,0,1-.29.24Z"/><path class="cls-1" d="M264,168.51c.7-.89.95-1.18,1.73-2.08,1.08.95,1.4,1.25,2.46,2.25a.56.56,0,0,1,.1.27c0,.1-.13.18-.32.18H256.88v3.16c0,1.16,0,2,0,3.65a1.52,1.52,0,0,1-1,1.53,6,6,0,0,1-2.35.6c-.29-1.46-.46-1.54-4.24-2.13v-.41c2.06.16,2.24.16,5.11.3.35,0,.43-.08.43-.38v-6.32h-9a19.88,19.88,0,0,0-2.22.11l-.16-.94a11.25,11.25,0,0,0,2.32.21h9.1v-.46c0-.54,0-.7-.06-2.21.54.08,1.22.19,2.06.35a16.84,16.84,0,0,0,2.86-3.24h-9.48a11.74,11.74,0,0,0-1.94.14l-.16-1a10.94,10.94,0,0,0,2.08.19h9.69c.51-.54.67-.7,1.18-1.21.84.62,1.11.81,1.89,1.43.25.19.35.32.35.46s-.32.35-1.37.43a29.75,29.75,0,0,1-4.4,2.91c.24.08.35.17.35.3s-.27.32-1.05.49v1.37Zm.41-9.52a17.36,17.36,0,0,1,1.32-1.38c1,.65,1.27.84,2.21,1.56.27.19.38.33.38.46,0,.33-.46.49-1.67.52-.54.56-.54.56-1.35,1.48-.51.57-.51.57-1.08,1.13l-.27-.1a16,16,0,0,0,.75-3H247.08a6.17,6.17,0,0,1-1.19,3.59,1.87,1.87,0,0,1-1.19.83c-.19,0-.38-.13-.48-.43a3.08,3.08,0,0,1-.3-1.11c0-.37.13-.56.81-1.08,1.08-.81,1.62-2,1.89-4h.51c0,.81,0,1,0,1.54h12.21a23.76,23.76,0,0,0,2.91-5.38c2.57,1,2.83,1.14,2.83,1.38s-.32.4-.75.4l-.59,0A32.08,32.08,0,0,1,260,159Zm-15.82-5.08a16.55,16.55,0,0,1,2.56,1.92,1.57,1.57,0,0,1,.65,1.13,2.87,2.87,0,0,1-.57,1.54.52.52,0,0,1-.4.21c-.27,0-.38-.16-.65-.91a12.82,12.82,0,0,0-1.86-3.67Zm5.51-.62c2.32,1.7,3.29,2.7,3.29,3.4a3.49,3.49,0,0,1-.51,1.48.68.68,0,0,1-.57.36c-.32,0-.41-.14-.68-1.11a10.08,10.08,0,0,0-1.83-3.89Z"/><path class="cls-1" d="M278.88,173.32a9,9,0,0,0-2.08.19l-.16-1a11.05,11.05,0,0,0,2.24.19h5.51v-1.22c0-.56,0-1-.11-2.18,2.24.21,2.89.35,2.89.64s-.3.38-1.08.57v2.19h5.53c.73-.76.92-1,1.54-1.7,1,.83,1.32,1.1,2.3,2,.08.08.1.13.1.16s-.13.19-.24.19h-9.23v3h8c.78-.89,1-1.16,1.78-2,1.11.89,1.46,1.19,2.51,2.11.14.11.19.19.19.27a.3.3,0,0,1-.24.22H276.08a14,14,0,0,0-2.62.21l-.22-1.13a12.55,12.55,0,0,0,2.84.29h8.31v-3Zm7.1-10h6c.68-.67.89-.89,1.49-1.51.89.73,1.13,1,2,1.73a.83.83,0,0,1,.13.24c0,.08-.13.16-.26.16H286v2.3h8l1.59-1.65c1.06.76,1.38,1,2.38,1.84.13.08.19.16.19.24s-.19.19-.38.19h-21.7a11.47,11.47,0,0,0-2.19.24l-.21-1.1a10.39,10.39,0,0,0,2.4.24h8.34v-2.3h-6.13a8.3,8.3,0,0,0-2.05.19l-.19-1.05a7.47,7.47,0,0,0,2.24.24h6.13V161h-6v.6c0,.35-.27.43-1.32.43-.3,0-.4-.08-.43-.33.11-1.62.13-2.4.13-3.8,0-1.78-.05-3.16-.13-4.51l1.92,1.11H292l1-1.11c.65.49.86.62,1.48,1.11.22.19.33.29.33.38s-.25.35-1,.72v1c0,.86,0,1.24.11,4.56a.44.44,0,0,1-.22.38,6.77,6.77,0,0,1-1.24.1c-.16,0-.24,0-.29-.24V161H286Zm-7.93,4.32a6.37,6.37,0,0,1-1.46,3.4,2.93,2.93,0,0,1-1.84,1.19c-.37,0-.62-.46-.62-1.13A1,1,0,0,1,275,170a4.19,4.19,0,0,0,2.75-2.43Zm6.34-12.52h-6v2.27h6Zm0,2.89h-6v2.37h6Zm-3.19,9.31a5.35,5.35,0,0,1,1.73,2.78c0,.67-.65,1.59-1.13,1.59-.19,0-.3-.16-.3-.51a13.19,13.19,0,0,0-.57-3.7Zm10.94-9.93V155.1H286v2.27Zm-6.16,3h6.16V158H286Zm1.46,6.8c1.62,1.46,2.27,2.33,2.27,3s-.71,1.46-1.14,1.46c-.27,0-.37-.19-.46-1a8.23,8.23,0,0,0-1-3.26Zm5.18.19c3.13,1.6,4.13,2.38,4.13,3.3,0,.67-.48,1.56-.86,1.56s-.35-.13-.78-1.05a14.15,14.15,0,0,0-2.76-3.54Z"/><path class="cls-1" d="M307.5,176.75c0,.24-.05.32-.27.4a5.12,5.12,0,0,1-1.1.11c-.38,0-.49-.08-.49-.43.06-2.3.08-7.72.08-14.28,0-3.05-.05-6.72-.13-7.83a13.81,13.81,0,0,1,2.26,1.16H324c.51-.59.67-.78,1.21-1.32.78.56,1,.75,1.78,1.32a.48.48,0,0,1,.22.38c0,.21-.14.32-1,.78l0,5.59c0,5.48.08,10.26.21,14-.08.37-.43.51-1.4.51-.46,0-.62-.08-.65-.41v-2.05H307.5ZM315,164.46v-8H307.5v8Zm0,.65H307.5v9H315Zm9.31-8.61h-7.56v8h7.56Zm-7.56,8.61v9h7.56v-9Z"/><path class="cls-1" d="M342.3,176.69a14.11,14.11,0,0,0,5.19-5.5c1-2.06,1.37-4.35,1.51-8.67a42.6,42.6,0,0,0-6,.81v.92c0,.11,0,1.16,0,3.08,0,.08,0,.45,0,1a6,6,0,0,1,0,.68c0,1-.25,1.48-.7,1.48s-1.38-1.35-1.38-2.16a1.3,1.3,0,0,1,.13-.54,4.91,4.91,0,0,0,.3-1.29c0-.27.08-1.25.11-2.89a13.57,13.57,0,0,0-3.48,1.05,2.85,2.85,0,0,1-1,.3c-.84,0-2.43-1.86-2.43-2.86a.69.69,0,0,1,.08-.25,2.91,2.91,0,0,0,2.21,1.27c.3,0,1.11-.11,1.89-.21s.73-.11,1.78-.3c.54-.11.54-.11.9-.16a17.52,17.52,0,0,0-.38-3.65,2.59,2.59,0,0,0-.89-1.24l-.76-.43a.63.63,0,0,1,.59-.22,5.08,5.08,0,0,1,2.3.84c.65.38.94.78.94,1.24a2.14,2.14,0,0,1-.1.6,10.66,10.66,0,0,0-.25,2.64c2.3-.32,2.3-.32,6.05-.73,0-.67,0-.78,0-1.73,0-2.13-.11-3-.46-3.42a3.1,3.1,0,0,0-1.84-1,1.94,1.94,0,0,1,1-.3,6.91,6.91,0,0,1,2.57.62c.62.27.94.65.94,1.05a1.13,1.13,0,0,1-.13.49,13.68,13.68,0,0,0-.51,4.13,9,9,0,0,0,3.26-.57,1.51,1.51,0,0,1,.76-.19c.89,0,2.43,1,2.43,1.6a.52.52,0,0,1-.57.48,4.72,4.72,0,0,1-.49,0,27.71,27.71,0,0,0-3.15-.22h-1l-1.27,0c-.16,5.07-.65,7.47-1.86,9.5a13.81,13.81,0,0,1-6.21,5.1Z"/><path class="cls-1" d="M369.71,176.75a19.58,19.58,0,0,0,3.89-6.37,18.58,18.58,0,0,0,1.29-5.51,1.37,1.37,0,0,0-.67-1.32,21.34,21.34,0,0,0-6,1.7,1.78,1.78,0,0,1-.87.27,3.29,3.29,0,0,1-2.1-1.54,2.84,2.84,0,0,1-.54-1.19,1.63,1.63,0,0,1,.11-.51,2.52,2.52,0,0,0,2.26,1.29,26,26,0,0,0,4.62-.67c1.64-.27,4.69-.65,8.31-1a11.94,11.94,0,0,0,2.11-.46,1.63,1.63,0,0,1,.67-.13,3.39,3.39,0,0,1,1.43.4c.73.35,1.27.87,1.27,1.24s-.3.54-.75.54a2.5,2.5,0,0,1-.68-.08,26.14,26.14,0,0,0-4.35-.35,31.5,31.5,0,0,0-4.42.27c1.24.7,1.75,1.24,1.75,1.86a16.16,16.16,0,0,1-1.7,5.29,16,16,0,0,1-5.34,6.59Zm-.51-20.84a4.2,4.2,0,0,0,3.21,1.46,14.2,14.2,0,0,0,5.7-1.33,1.58,1.58,0,0,1,.81-.21c.7,0,1.83.89,1.83,1.43,0,.32-.32.48-1.4.73a41.53,41.53,0,0,1-6.16.7c-2,0-3.07-.6-4.37-2.51Z"/><path class="cls-1" d="M399,176.48a31.26,31.26,0,0,0,6.16-6,25.91,25.91,0,0,0,4.53-8.24,46.29,46.29,0,0,0-7.85,1.25,13.48,13.48,0,0,0-2.81.83,1.45,1.45,0,0,1-.81.25c-.94,0-2.48-2-2.48-3.14a.6.6,0,0,1,.16-.45,2.59,2.59,0,0,0,2.35,1.56c1.05,0,5.61-.57,9.12-1.16a5,5,0,0,0,2.21-.62.94.94,0,0,1,.44-.16c.24,0,.64.27,1.26.81.76.7,1.08,1.13,1.08,1.48a1,1,0,0,1-.4.68c-.38.27-.54.51-1,1.4-2.91,5.51-7.26,9.88-11.71,11.85Zm-.35-20.9a3.5,3.5,0,0,0,2.89,1.46,17.58,17.58,0,0,0,6.1-1.29,1.14,1.14,0,0,1,.57-.17c.75,0,2.1.95,2.1,1.49,0,.32-.24.48-1,.59a49.74,49.74,0,0,1-6.89.7c-2,0-2.83-.51-4.13-2.53Z"/><path class="cls-1" d="M422.31,169.51a45.83,45.83,0,0,0,10.15-7.66c2.67-2.62,4.4-4.81,4.4-5.59,0-.51-.44-.95-1.51-1.54a1.12,1.12,0,0,1,.53-.11,4.11,4.11,0,0,1,2.33.81c.91.62,1.4,1.24,1.4,1.76,0,.24,0,.29-1.08,1.18-.27.22-.27.22-2.19,2.06s-2,1.94-3.21,2.91c1.05.78,1.51,1.19,1.65,1.51a24,24,0,0,1,.19,4c0,1.89.08,3.62.13,5.16,0,.59,0,1.37,0,1.53,0,.95-.19,1.35-.62,1.35-.62,0-1.84-1.48-1.84-2.26a1.85,1.85,0,0,1,.16-.71,35.88,35.88,0,0,0,.49-6.63,12.47,12.47,0,0,0-.16-2.57c-.08-.27-.19-.4-.59-.84a50.7,50.7,0,0,1-5.19,3.7,32.55,32.55,0,0,1-4.86,2.35Z"/><path class="cls-1" d="M457.84,154.56a5.35,5.35,0,0,1,2,.46c1.13.43,1.78,1,1.78,1.48,0,.19,0,.19-.16.6-.33.72-.49,2.75-.49,5.88a24.67,24.67,0,0,1,6.29,1.51c1.21.57,1.67,1.11,1.67,2.08,0,.78-.24,1.24-.65,1.24s-.29,0-1-.65a15.67,15.67,0,0,0-6.35-3.51c0,1.71,0,2.54,0,3.35v3.94c0,.81,0,.81,0,3.08,0,.57,0,1,0,1.43a1.84,1.84,0,0,1-.13.92.65.65,0,0,1-.49.24c-.65,0-1.73-1.46-1.73-2.35a2,2,0,0,1,.14-.75c.4-1.3.56-4.81.56-11.69a43.42,43.42,0,0,0-.19-4.64,2.77,2.77,0,0,0-2-2.41A1.1,1.1,0,0,1,457.84,154.56Z"/><path class="cls-1" d="M482.22,160.63a4.67,4.67,0,0,0,2.78.92,16.85,16.85,0,0,0,4.64-1,13.43,13.43,0,0,0-1.37-4.15c-.44-.62-.89-.84-2.19-1a1.86,1.86,0,0,1,1.57-.51,9.78,9.78,0,0,1,2.18.27c.68.19,1.05.51,1.05.94a1.42,1.42,0,0,1,0,.27,3.65,3.65,0,0,0-.11.84,16.24,16.24,0,0,0,.32,2.83,15.28,15.28,0,0,0,4.08-1.83c.35-.3.43-.32.67-.32a3.69,3.69,0,0,1,1.27.26c.41.17.6.38.6.63s-.35.62-1.51,1c-3.06,1-3.32,1.08-4.86,1.54.24,1.38.56,2.89.91,4.29a39.48,39.48,0,0,0,4.13-1.26,8.22,8.22,0,0,0,1.73-.79.88.88,0,0,1,.54-.19c1.08,0,2.4.65,2.4,1.17a.46.46,0,0,1-.29.43,10.91,10.91,0,0,1-1.89.27,45,45,0,0,0-6.35,1.43c.9,3.59,1.54,6.1,1.95,7.56a5.81,5.81,0,0,1,.3,1.59c0,.62-.22.92-.63.92-.64,0-2-1.49-2-2.22,0,0,0,0,.05-.37,0-.17,0-.54,0-.68a39.15,39.15,0,0,0-1-6.37,31.53,31.53,0,0,0-5.59,2.21,2.55,2.55,0,0,1-1.18.46c-1,0-2.87-1.62-2.87-2.45a.86.86,0,0,1,.09-.33,2.9,2.9,0,0,0,2,1c.84,0,1.27-.11,5-1.27.25-.08.73-.24,2.3-.7-.32-1.46-.76-3.4-1-4.32-2.83.78-3.43.92-4.45.92A4.8,4.8,0,0,1,482,161Z"/><path class="cls-1" d="M522.64,168.65c1.59-1.65,3.69-4.37,3.69-4.78,0-.08-.05-.11-.13-.11a43.27,43.27,0,0,0-6.64,1.84c.59,2.51,1.94,7.66,2.48,9.5a3,3,0,0,1,.19,1c0,.43-.19.67-.54.67a2.18,2.18,0,0,1-1.05-.7,1.74,1.74,0,0,1-.76-1.32.93.93,0,0,1,0-.27v-.27A59.47,59.47,0,0,0,518.4,166l-1.4.51a18.45,18.45,0,0,0-2.16,1,1.75,1.75,0,0,1-.81.3c-.49,0-1.11-.49-1.7-1.3a2.62,2.62,0,0,1-.63-1.32.58.58,0,0,1,.14-.38,2.49,2.49,0,0,0,2,1.16,22.55,22.55,0,0,0,4.32-1c-1-3.89-1.24-4.29-3-4.7.22-.32.43-.38,1.16-.38a5.91,5.91,0,0,1,2.43.63.75.75,0,0,1,.38.64,1,1,0,0,1-.08.38,2.53,2.53,0,0,0-.06.49,14.37,14.37,0,0,0,.35,2.62c.49-.17.49-.17,1.87-.54l2.75-.81a6.53,6.53,0,0,0,2.16-.87,1.07,1.07,0,0,1,.48-.16c.33,0,.9.38,1.73,1.08.57.51.78.78.78,1.08s-.1.4-.83.65c-.27.08-.27.08-2.89,2.16-.84.64-1.46,1.1-2.51,1.81Z"/><path class="cls-1" d="M540.65,157.85a15.33,15.33,0,0,1,5.21,2,2.06,2.06,0,0,1,.92,1.83c0,.89-.3,1.51-.76,1.51-.3,0-.43-.13-1.16-1.08a14.06,14.06,0,0,0-4.4-4Zm19.19,1.54a28.07,28.07,0,0,1-5.67,7.26,53.71,53.71,0,0,1-7.58,6.16c-1.27.89-1.41,1-1.6,1.24-.43.51-.59.64-.94.64-1.11,0-3.16-2.59-3.16-4a1.26,1.26,0,0,1,.14-.54,4.19,4.19,0,0,0,1,1.19,1.76,1.76,0,0,0,1.08.56,6.76,6.76,0,0,0,2.62-1.13,39.43,39.43,0,0,0,6.45-4.46,42.69,42.69,0,0,0,7.26-7.2Z"/><path class="cls-1" d="M565.92,172.67a27.86,27.86,0,0,0,6.64-7.48,5.71,5.71,0,0,0,1.11-2.67c0-.43-.38-.86-1.35-1.54a2,2,0,0,1,.59-.11,5.06,5.06,0,0,1,2.22.92c.91.62,1.29,1,1.29,1.46a.73.73,0,0,1-.32.59,5.48,5.48,0,0,0-1.14,1.24,25.73,25.73,0,0,1-5.67,5.92,16.92,16.92,0,0,1-3.15,2Zm14.47-11.85a24.92,24.92,0,0,1,7.1,6.29,4.46,4.46,0,0,1,1.13,2.89c0,1.1-.43,2-1,2-.38,0-.49-.16-.89-1.24a23.65,23.65,0,0,0-6.62-9.56Zm9-2.67a3,3,0,0,1-2.94,3,3,3,0,0,1-3-3,3,3,0,0,1,5.91,0Zm-5,0a2.1,2.1,0,0,0,2.08,2.08,2.07,2.07,0,1,0-2.08-2.08Z"/><path class="cls-1" d="M596.51,174.91a39,39,0,0,0,7.26-5.91,47.93,47.93,0,0,0,5.16-6.72,18.3,18.3,0,0,0,1.83-3.48,28.59,28.59,0,0,0-5.69,1.18,14.18,14.18,0,0,0-2.27.73,1.14,1.14,0,0,1-.46.08c-.59,0-1.16-.48-1.75-1.54a3.3,3.3,0,0,1-.57-1.61,1.1,1.1,0,0,1,.19-.54c.78,1.4,1.35,1.8,2.54,1.8a43.76,43.76,0,0,0,5.67-.75,6.91,6.91,0,0,0,2.53-.76,1.06,1.06,0,0,1,.62-.24c.57,0,2.11,1.38,2.11,1.89a.62.62,0,0,1-.35.51c-.57.38-.57.38-1.54,1.84-1.3,1.94-1.3,1.94-3.4,4.69,3.81,2,5.94,3.38,7,4.57a3.56,3.56,0,0,1,1,2.67c0,.86-.27,1.4-.73,1.4a.83.83,0,0,1-.62-.43,6.81,6.81,0,0,1-.65-1.08A23,23,0,0,0,608,166.6a29.3,29.3,0,0,1-6.53,6.07,23.92,23.92,0,0,1-4.72,2.65Z"/><path class="cls-1" d="M178.82,206.65v2.06H158.63v-2.06Zm0,5.4v2.11h-9.1v12.2h-2v-12.2h-9.07v-2.11Z"/><path class="cls-1" d="M189.57,225.2a4.85,4.85,0,0,0,1.78-.27c.59-.27.73-.84.73-2.78V210.78c-.06-2.35-.06-2.35-.27-2.53s-.54-.25-1.22-.25h-1v-.78a32.14,32.14,0,0,0,5.13-.7c-.14,2.13-.22,4.43-.22,7.61v8c0,1.81.11,2.35.49,2.67s.43.3,2,.38V226h-7.37Z"/><path class="cls-1" d="M210.87,215.94a7.54,7.54,0,0,1,3,.75,4.55,4.55,0,0,1,2.43,4.19c0,3.32-2.67,5.53-6.69,5.53-3.51,0-6.13-1.67-6.13-3.91,0-.87.49-1.27,1.54-1.27.78,0,1.08.27,1.13,1a3.47,3.47,0,0,0,.68,2.43,3.37,3.37,0,0,0,2.67,1c2.67,0,4.24-1.78,4.24-4.83,0-1.89-.65-3.29-1.81-3.91a7,7,0,0,0-3.13-.65h-1.19v-.86h1.19a5.53,5.53,0,0,0,2.94-.81,4,4,0,0,0,1.54-3.43,5.12,5.12,0,0,0-.68-2.7,3,3,0,0,0-2.8-1.35c-2,0-3,1.05-3.19,3.21,0,1-.3,1.3-1.24,1.3s-1.43-.3-1.43-1c0-2.29,2.67-4.21,5.88-4.21,3.43,0,5.94,2,5.94,4.72a4.26,4.26,0,0,1-2.21,3.68,9.47,9.47,0,0,1-2.7.89Z"/><path class="cls-1" d="M222.67,225.2a4.85,4.85,0,0,0,1.78-.27c.59-.27.73-.84.73-2.78V210.78c-.05-2.35-.05-2.35-.27-2.53s-.54-.25-1.21-.25h-1v-.78a32,32,0,0,0,5.13-.7c-.14,2.13-.22,4.43-.22,7.61v8c0,1.81.11,2.35.49,2.67s.43.3,2,.38V226h-7.37Z"/><path class="cls-1" d="M236.74,217.56h6V219h-6Z"/><path class="cls-1" d="M251.05,209.41a6,6,0,0,1,10.44,0,16.63,16.63,0,0,1,0,14,6.05,6.05,0,0,1-10.44,0,16.63,16.63,0,0,1,0-14Zm5.23,16.27c2.89,0,4.16-2.83,4.16-9.28s-1.27-9.29-4.16-9.29-4.15,2.86-4.15,9.31S253.39,225.68,256.28,225.68Z"/><path class="cls-1" d="M269,209.41a6,6,0,0,1,10.44,0,16.63,16.63,0,0,1,0,14,5.72,5.72,0,0,1-5.21,3,5.78,5.78,0,0,1-5.23-3,16.63,16.63,0,0,1,0-14Zm5.23,16.27c2.89,0,4.16-2.83,4.16-9.28s-1.27-9.29-4.16-9.29S270,210,270,216.42,271.3,225.68,274.18,225.68Z"/><path class="cls-1" d="M297.35,222.66c0,1.3.13,1.94.48,2.21s.46.27,1.52.3V226h-6.48v-.81c1.18,0,1.4-.08,1.7-.3s.48-.91.48-2.21v-1.94H285.9v-1.27l9.75-13h1.7v13.12h2.81v1.19h-2.81Zm-2.3-13.79-7.91,10.66h7.91Z"/><path class="cls-1" d="M315.25,222.66c0,1.3.13,1.94.49,2.21s.45.27,1.51.3V226h-6.48v-.81c1.19,0,1.4-.08,1.7-.3s.49-.91.49-2.21v-1.94H303.8v-1.27l9.75-13h1.7v13.12h2.81v1.19h-2.81ZM313,208.87l-7.91,10.66H313Z"/><path class="cls-1" d="M346.87,219.66a12.47,12.47,0,0,0,3.83,3.49,18.6,18.6,0,0,0,7.69,2.83v.3a2.21,2.21,0,0,0-1.75,1.94,12,12,0,0,1-3.38-1.62,20.84,20.84,0,0,1-6.83-6.64v3c0,1.13.06,3.83.14,5.75,0,.22-.06.27-.24.32a9.91,9.91,0,0,1-1.46.14c-.27,0-.38-.11-.41-.35,0-.68.11-2.59.19-5.72v-2.22a26.63,26.63,0,0,1-5.56,4.75,27.71,27.71,0,0,1-5.72,2.84l-.22-.38a26.89,26.89,0,0,0,6.78-4.64,22.06,22.06,0,0,0,3.48-3.76h-4.59v.71c0,.21-.08.27-.24.32a6.82,6.82,0,0,1-1.13.14c-.33,0-.49-.11-.49-.3a.54.54,0,0,1,0-.19c.1-2,.13-3.67.13-7,0-1.14-.05-2.08-.16-3.3a11.1,11.1,0,0,1,2.05,1.08h5.64v-2.83H336a15.41,15.41,0,0,0-2.32.16l-.22-1.11a16.44,16.44,0,0,0,2.89.33h8.26v-.17a16.59,16.59,0,0,0-.21-3.29c2.51.3,3.05.41,3.05.7s-.22.35-1.06.7v2.06h7c.73-.87,1-1.11,1.71-1.92,1.13.89,1.51,1.19,2.64,2.13a.33.33,0,0,1,.11.22.22.22,0,0,1-.24.19H346.43v2.83h5.73c.46-.48.62-.65,1.08-1.08a15.58,15.58,0,0,1,1.53,1.08c.22.14.3.24.3.38s-.21.38-1,.7c0,4.4,0,4.78.08,8,0,.22-.05.32-.24.38a11.57,11.57,0,0,1-1.27.11c-.24,0-.32-.08-.32-.35v-.71Zm-2.22-7.88h-5.83v3.3h5.83Zm0,3.92h-5.83V219h5.83Zm7.7-3.92h-5.92v3.3h5.92Zm0,3.92h-5.92V219h5.92Z"/><path class="cls-1" d="M362.23,227.6a23.29,23.29,0,0,0,4.65-4.59,14.85,14.85,0,0,0,1.89-3c2.05.84,2.64,1.14,2.64,1.32s-.38.36-1.38.38a20.58,20.58,0,0,1-7.55,6.18Zm20.25-19.35a13.21,13.21,0,0,1,1.62-1.95c1.21.92,1.56,1.22,2.72,2.24a.23.23,0,0,1,.08.14c0,.11-.13.19-.29.19h-22a8.33,8.33,0,0,0-1.86.19l-.27-1.06a12.74,12.74,0,0,0,2.1.25h9v-2.16a11.35,11.35,0,0,0-.14-1.84c2.73.24,3.27.35,3.27.68s-.27.35-1.16.62v2.7Zm-6.94,14v2l0,1.89v.41c-.08,1.19-.52,1.45-3.11,1.94a1.67,1.67,0,0,0-1.1-1.35,11,11,0,0,0-2.59-.51v-.51c3.37.18,3.37.18,4.61.21h.05c.25,0,.3-.08.3-.35V217.8h-5v1.11c0,.3-.43.4-1.4.4-.35,0-.49-.08-.49-.32.06-2,.06-2.78.06-4.78,0-2.21,0-2.78-.06-3.89a16,16,0,0,1,2.11,1.27H380.1l1-1.1a11.21,11.21,0,0,1,1.65,1.18c.16.14.21.22.21.3s-.24.38-.89.76c0,3,0,3.8.08,6.1,0,.19,0,.27-.24.32a6.6,6.6,0,0,1-1.29.16c-.28,0-.38-.08-.38-.29V217.8h-4.7Zm-6.83-5.1h11.53v-5H368.71Zm9.45,3.24a28.36,28.36,0,0,1,5.67,3.21c1.13.87,1.43,1.33,1.43,2.22s-.3,1.75-.73,1.75c-.22,0-.35-.14-.68-.68a27.8,27.8,0,0,0-2.34-2.88,26.54,26.54,0,0,0-3.57-3.32Z"/><path class="cls-1" d="M398.38,213.29a31.06,31.06,0,0,0,4.65-7.82c2,.86,2.48,1.13,2.48,1.4s-.22.3-.78.3h-.41a42.89,42.89,0,0,1-4.21,6.12H402c.54-.75.7-1,1.3-1.7.92.79,1.19,1,2.05,1.89.08.11.14.16.14.22s-.17.22-.33.22H399.6a33,33,0,0,1-3.35,3.34h5.18l.87-1c.67.46.86.62,1.48,1,.22.16.3.27.3.38s-.19.32-.73.59c0,3.62,0,8.32,0,9.88,0,.35-.27.46-1.21.46-.46,0-.54,0-.54-.3v-1.35h-6v1.57c0,.41-.22.49-1.24.49-.46,0-.54-.06-.54-.41.05-2.35.05-2.35.05-9.39a29.42,29.42,0,0,1-3.46,2.24l-.18-.35a41.69,41.69,0,0,0,3.64-3c0-.67,0-.91-.08-1.72l1.32.56a32,32,0,0,0,2.73-3h-5.1a10.72,10.72,0,0,0-2,.13l-.19-1a15.28,15.28,0,0,0,2.16.19h3.26V209H393.5a9.66,9.66,0,0,0-1.62.11l-.16-.95a8,8,0,0,0,1.94.22h2.4v-1.95a17.2,17.2,0,0,0-.11-2.21l1.38.19c1.27.14,1.57.24,1.57.49s-.3.37-1.14.62v2.86h.81l1-1.46,1.67,1.67a.42.42,0,0,1,.08.22c0,.11-.13.19-.27.19h-3.32v4.26Zm3.27,4.59h-6v3.48h6Zm-6,4.11v4.31h6V222Zm10.69-14.23c0-1,0-1.75,0-2.89a22.47,22.47,0,0,1,2.05,1.19h4.24c.46-.51.62-.68,1.08-1.13.75.54,1,.72,1.64,1.26.27.27.36.38.36.49s-.3.35-1.06.54a58.35,58.35,0,0,1-4.07,7.23,8.43,8.43,0,0,1,3.34,2.76,7.88,7.88,0,0,1,1.43,4.53,4.35,4.35,0,0,1-1.29,3.38,4.12,4.12,0,0,1-2.32.91c-.16-.89-.33-1.18-.89-1.4a13.12,13.12,0,0,0-2.22-.51l0-.41c2.38.11,2.89.14,3.7.14.59,0,.84-.16,1-.6a7.16,7.16,0,0,0,.27-1.91,9.19,9.19,0,0,0-1.13-4.16,9.38,9.38,0,0,0-2.54-2.62,69.33,69.33,0,0,0,2.83-7.88h-4.61v17.84c0,.19,0,.76,0,1.7,0,.54,0,1.35,0,2.41a.33.33,0,0,1-.13.32,3.79,3.79,0,0,1-1.27.16c-.38,0-.46-.08-.46-.35,0-1.73,0-2.24,0-3.67V207.76Z"/><path class="cls-1" d="M427.76,224.33a9.58,9.58,0,0,0-2.08.19l-.16-1a10.38,10.38,0,0,0,2.24.19h5.51V222.5c0-.57,0-1.05-.11-2.19,2.24.22,2.89.35,2.89.65s-.3.38-1.08.57v2.18h5.53c.73-.75.92-1,1.54-1.7,1,.84,1.32,1.11,2.29,2,.09.08.11.14.11.16s-.13.19-.24.19H435v3h8c.78-.89,1-1.16,1.78-2,1.11.89,1.46,1.19,2.51,2.1.13.11.19.19.19.28a.29.29,0,0,1-.24.21H425a13.31,13.31,0,0,0-2.62.22l-.21-1.14a11.92,11.92,0,0,0,2.83.3h8.32v-3Zm7.1-10h6c.67-.68.89-.89,1.48-1.51.89.73,1.14,1,2,1.73.05.08.13.18.13.24s-.13.16-.27.16h-9.39v2.29h8l1.59-1.64c1.05.75,1.38,1,2.38,1.83.13.08.19.17.19.25s-.19.19-.38.19h-21.7a10.72,10.72,0,0,0-2.19.24l-.22-1.11a10.48,10.48,0,0,0,2.41.24h8.34v-2.29h-6.13a7.84,7.84,0,0,0-2.05.19l-.19-1a7.43,7.43,0,0,0,2.24.24h6.13V212h-6v.59c0,.35-.27.43-1.32.43-.3,0-.41-.08-.43-.32.11-1.62.13-2.4.13-3.81,0-1.78-.05-3.15-.13-4.5.81.45,1.08.62,1.91,1.1h13.37l1-1.1c.64.48.86.62,1.48,1.1.22.19.33.3.33.38s-.25.35-.95.73v1c0,.86,0,1.24.11,4.56,0,.22-.08.3-.22.38a6.57,6.57,0,0,1-1.24.11c-.16,0-.24-.06-.3-.24V212h-6.15Zm-7.94,4.32a6.31,6.31,0,0,1-1.45,3.4,3,3,0,0,1-1.84,1.19c-.38,0-.62-.46-.62-1.14a1,1,0,0,1,.84-1.1,4.21,4.21,0,0,0,2.75-2.43Zm6.35-12.53h-6v2.27h6Zm0,2.89h-6v2.38h6Zm-3.19,9.31a5.45,5.45,0,0,1,1.73,2.78c0,.68-.65,1.6-1.13,1.6-.19,0-.3-.16-.3-.52a13.5,13.5,0,0,0-.57-3.69ZM441,208.38v-2.27h-6.15v2.27Zm-6.15,3H441V209h-6.15Zm1.46,6.8c1.62,1.46,2.26,2.32,2.26,3s-.7,1.45-1.13,1.45c-.27,0-.38-.19-.46-1a8.4,8.4,0,0,0-1-3.27Zm5.18.19c3.13,1.59,4.13,2.37,4.13,3.29,0,.68-.49,1.57-.86,1.57s-.35-.14-.79-1.06a14,14,0,0,0-2.75-3.53Z"/><path class="cls-1" d="M455.84,227.76c0,.24,0,.33-.27.41a6.11,6.11,0,0,1-1.11.1c-.37,0-.48-.08-.48-.43,0-2.29.08-7.72.08-14.28,0-3.05-.06-6.72-.14-7.82a13.15,13.15,0,0,1,2.27,1.16h16.14c.52-.6.68-.79,1.22-1.33.78.57,1,.76,1.78,1.33a.45.45,0,0,1,.21.37c0,.22-.13.33-1,.79l0,5.58c0,5.48.08,10.26.22,14-.08.38-.43.51-1.41.51-.45,0-.62-.08-.64-.4v-2H455.84Zm7.5-12.28v-8h-7.5v8Zm0,.65h-7.5v9h7.5Zm9.32-8.61H465.1v8h7.56Zm-7.56,8.61v9h7.56v-9Z"/><path class="cls-1" d="M486.13,227.92a.33.33,0,0,1-.26.38,10.26,10.26,0,0,1-1.14.11c-.46,0-.62-.11-.62-.35V228c.11-2.83.16-10.23.16-17.35,0-2.38,0-3.83-.16-5.7a14.05,14.05,0,0,1,2.29,1.16h15.12c.54-.78.73-1,1.35-1.78,1.05.87,1.38,1.14,2.46,2.08a.27.27,0,0,1,.1.19.12.12,0,0,1-.13.13H486.13v19.2H502a20.5,20.5,0,0,1,1.51-1.89c1.17.92,1.52,1.18,2.62,2.16a.37.37,0,0,1,.11.18c0,.09-.11.17-.21.17H486.13Zm3.16-17.87a51.52,51.52,0,0,1,6.75,4.62,30.24,30.24,0,0,0,2-3.67,15,15,0,0,0,1.29-3.24c2.59,1,3,1.11,3,1.38s-.43.43-1.46.43a35.56,35.56,0,0,1-3.45,6.15c.81.62,3.05,2.68,3.75,3.4a1.82,1.82,0,0,1,.57,1.25c0,.24.05.46.05.72,0,.81-.19,1.27-.51,1.27s-.41-.11-.73-.67a29.83,29.83,0,0,0-4.05-4.78,24.8,24.8,0,0,1-3.05,3.19,25.53,25.53,0,0,1-5.8,4.07l-.22-.32a34.86,34.86,0,0,0,7.86-8.13,81.26,81.26,0,0,0-6.21-5.34Z"/><path class="cls-1" d="M531,209.89a24.4,24.4,0,0,1-1.67,5.21,24.15,24.15,0,0,1-3.27,5.27,24.73,24.73,0,0,0,5.51,3.67,19.25,19.25,0,0,0,5.91,1.86l0,.27c-1.27.3-1.71.7-2.08,2.13a22.78,22.78,0,0,1-6-3,26.4,26.4,0,0,1-4.32-3.73,21.66,21.66,0,0,1-4,3.32,27.61,27.61,0,0,1-8.61,3.94l-.11-.43a27.29,27.29,0,0,0,8.53-5,25.6,25.6,0,0,0,3.08-3.08,24.79,24.79,0,0,1-4.13-7.23,21.79,21.79,0,0,1-.95-3.19h-3.72a16.62,16.62,0,0,0-2.41.19l-.21-1.11a14,14,0,0,0,2.56.3h8.29v-3.08c0-.72,0-1.1-.08-1.94,3.13.41,3.34.46,3.34.76s-.24.35-1.21.73v3.53h6.88l1.78-2.13c1.19,1,1.54,1.27,2.7,2.29.11.14.17.22.17.3a.19.19,0,0,1-.19.16Zm-11.6,0a22.93,22.93,0,0,0,5.42,9.26,25.44,25.44,0,0,0,4-9.26Z"/><path class="cls-1" d="M541.22,221.47a33.86,33.86,0,0,0,4.4-5.67,22.06,22.06,0,0,0,2.18-4.69c1,.32,2.4.83,2.7,1,.11,0,.22.16.22.24s-.38.35-1.08.35a.8.8,0,0,1-.19,0,32.18,32.18,0,0,1-2.4,3.45c1.7.32,2.07.46,2.07.68s-.21.35-1,.56v10.88c-.08.32-.24.38-1,.41l-.43,0h-.08c-.3,0-.43-.11-.43-.35.11-5.59.11-5.59.11-6.5v-4.65a24.36,24.36,0,0,1-4.78,4.65Zm14.71-13.87v-1.7a13.57,13.57,0,0,0-.06-1.6c2.89.41,2.89.41,2.89.65s-.32.41-1.08.57v2.08h3.59c.76-.84,1-1.11,1.76-1.92,1.13.92,1.48,1.22,2.59,2.19a.24.24,0,0,1,.08.16c0,.11-.14.19-.24.19h-7.78c0,1.43,0,1.43,0,2.46a.43.43,0,0,1-.19.35,4.2,4.2,0,0,1-1.16.13c-.32,0-.43-.08-.46-.35,0-1.16,0-1.16,0-2.59H550.5v2.46c0,.29-.21.35-.92.37-.13,0-.27,0-.37,0h-.06c-.3,0-.43-.11-.46-.35.06-1,.06-1,.06-2.51H544a11.55,11.55,0,0,0-2.27.21l-.16-1.1a10.55,10.55,0,0,0,2.43.27h4.75v-.41c0-1.18,0-2.32-.08-2.94,2.94.35,2.94.35,2.94.62s-.08.27-1.11.65v2.08Zm-.25,12.09a20.55,20.55,0,0,0,2.92-2.62,18.42,18.42,0,0,0,3.32-4.26c2.56,1.46,2.59,1.48,2.59,1.7s-.22.27-.46.27-.48,0-.78-.06a31.91,31.91,0,0,1-7.59,5.59v5.78c0,.13.17.21.44.24s3,.14,3.72.14a17.4,17.4,0,0,0,2.59-.17c.3-.08.38-.21.68-1,.43-1.17.78-2.3,1.37-4.48h.35l-.35,4.31c0,.44,0,.65,0,.68,0,.19,0,.24.43.38s.59.35.59.67-.32.76-1.05.92a42.5,42.5,0,0,1-4.89.21c-3.32,0-4.37-.08-5-.4s-.7-.68-.73-1.54c0-4.43,0-4.43,0-5v-6.91c0-.81-.06-2-.14-2.73,2.75.41,3,.46,3,.68s-.37.43-1.08.59Z"/><path class="cls-1" d="M580.09,225.2a4.93,4.93,0,0,0,1.79-.27c.59-.27.72-.84.72-2.78V210.78c-.05-2.35-.05-2.35-.27-2.53s-.54-.25-1.21-.25h-1v-.78a31.81,31.81,0,0,0,5.13-.7c-.13,2.13-.21,4.43-.21,7.61v8c0,1.81.11,2.35.48,2.67s.43.3,2,.38V226h-7.37Z"/><path class="cls-1" d="M595.24,217.56h6V219h-6Z"/><path class="cls-1" d="M608.93,225.2a4.85,4.85,0,0,0,1.78-.27c.6-.27.73-.84.73-2.78V210.78c-.05-2.35-.05-2.35-.27-2.53s-.54-.25-1.21-.25h-1v-.78a32,32,0,0,0,5.13-.7c-.14,2.13-.22,4.43-.22,7.61v8c0,1.81.11,2.35.49,2.67s.43.3,2,.38V226h-7.37Z"/><path class="cls-1" d="M629.83,219a6.21,6.21,0,0,1-4.38-1.68,6.4,6.4,0,0,1-1.56-4.34,6.22,6.22,0,0,1,6.5-6.59c4.3,0,6.59,3.13,6.59,9.07,0,3.91-.86,7.13-2.38,8.88a6,6,0,0,1-4.69,2c-2.81,0-5.27-1.45-5.27-3.16,0-.86.57-1.37,1.54-1.37s1.16.24,1.22,1.08c.16,1.89,1,2.78,2.51,2.78,1.86,0,3.18-1.27,3.91-3.73a20.41,20.41,0,0,0,.62-5.13A5.86,5.86,0,0,1,629.83,219Zm3.61-9.94a3.42,3.42,0,0,0-6.12-.21,8.75,8.75,0,0,0-.87,4c0,3.32,1.46,5.37,3.78,5.37a4.1,4.1,0,0,0,2.86-1.19,4.53,4.53,0,0,0,1.38-3.59A9.29,9.29,0,0,0,633.44,209.08Z"/><path class="cls-1" d="M644.14,217.56h6V219h-6Z"/><path class="cls-1" d="M657.83,225.2a4.85,4.85,0,0,0,1.78-.27c.59-.27.73-.84.73-2.78V210.78c-.06-2.35-.06-2.35-.27-2.53s-.54-.25-1.22-.25h-1v-.78a31.83,31.83,0,0,0,5.12-.7c-.13,2.13-.21,4.43-.21,7.61v8c0,1.81.11,2.35.48,2.67s.44.3,2,.38V226h-7.36Z"/><path class="cls-1" d="M162.73,312.38c.38-.75.48-1,.92-1.73.75.81,1,1.06,1.67,1.89a.61.61,0,0,1,.14.3c0,.11-.11.16-.25.16h-3v5.48a27.63,27.63,0,0,0,2.86-1.05l.17.4c-1.14.68-1.6.95-3,1.71v4.69c0,.14,0,.6,0,1.27,0,.46,0,.73,0,3.64a1.34,1.34,0,0,1-.92,1.3,9.23,9.23,0,0,1-2.08.57c-.22-1.19-.7-1.49-3-1.87l0-.48c1.73.19,2.29.24,3.75.3.3,0,.35-.09.35-.44v-8.18c-.81.44-.92.46-2.29,1.08-.17.95-.22,1.08-.46,1.08s-.27-.18-.38-.54c0,0-.16-.46-.32-.91-.09-.25-.19-.62-.35-1.08a31.74,31.74,0,0,0,3.8-1v-6h-1.7a8.81,8.81,0,0,0-1.86.17l-.16-1a8.72,8.72,0,0,0,2,.19h1.7V309a21.58,21.58,0,0,0-.13-2.7,19.56,19.56,0,0,1,2.8.49.31.31,0,0,1,.19.24c0,.22-.21.33-1.08.62v4.78Zm10.53,8.45c0,6.1,0,6.29.13,9.5v.06c0,.21,0,.27-.22.32a5.7,5.7,0,0,1-1.34.16c-.33,0-.44-.08-.46-.35,0-3.21,0-4.48.08-9.69h-4v1.57c0,.21-.09.29-.25.35a7.16,7.16,0,0,1-1.27.1c-.27,0-.37-.08-.37-.35.1-4.48.1-4.48.1-5.85,0-5,0-8.21-.1-9.56a18.1,18.1,0,0,1,2,1.27h9.85a15.1,15.1,0,0,1,1.14-1.24c.7.51.91.67,1.62,1.24.24.16.32.27.32.4s-.19.36-1,.9v2.75c0,4.7,0,8.07.11,9.93v.08c0,.27-.43.41-1.43.41-.41,0-.49-.06-.49-.33v-1.67ZM171.45,309h-4v5.21h4Zm0,5.83h-4v5.4h4Zm6.23-.62V309h-4.42v5.21Zm-4.42,6h4.42v-5.4h-4.42Z"/><path class="cls-1" d="M204,316.43l1.72-2.1c1.19,1,1.57,1.32,2.7,2.34a.35.35,0,0,1,.11.22c0,.08-.14.16-.27.16H197.88v11.66h7.86c.75-1,1-1.29,1.72-2.18,1.25,1,1.62,1.35,2.81,2.43a.33.33,0,0,1,.11.21c0,.08-.11.16-.22.16H188.33a10.26,10.26,0,0,0-2.24.22l-.22-1.05a10.26,10.26,0,0,0,2.46.21h7.61v-18.6a17.79,17.79,0,0,0-.22-3.29l1.43.19c1.46.19,1.73.27,1.73.49s-.24.35-1,.56v8.37Z"/><path class="cls-1" d="M217.76,322.48c.05.59.08.83.08,1.24a8.33,8.33,0,0,1-.54,3.35c-.35.78-.79,1.24-1.19,1.24s-.54-.54-.54-1.35a1.18,1.18,0,0,1,.59-1.16,4.43,4.43,0,0,0,1.22-3.32Zm7-10.56c.48-.59.62-.78,1.1-1.32a19.42,19.42,0,0,1,1.81,1.59.62.62,0,0,1,.11.22c0,.11-.08.13-.3.13h-4v3.24h1.13c.54-.59.71-.75,1.27-1.35.79.7,1,.92,1.7,1.62a.57.57,0,0,1,.11.19c0,.11-.11.16-.32.16h-3.89V320h1.73l1-1c.57.51.76.67,1.3,1.19.19.24.24.32.24.4s-.11.24-.86.62c-.17,3.73-.62,6.59-1.24,7.75a3.17,3.17,0,0,1-1.25,1.13,6,6,0,0,1-1.91.38c-.19-1.21-.38-1.35-3-2l.05-.43c1.35.22,3.54.49,4.16.49.41,0,.68-.38.89-1.33a28.69,28.69,0,0,0,.7-6.56h-6v.57c0,.32-.27.41-1.16.41-.41,0-.54-.09-.54-.3v-.11c.08-2.43.1-3.45.1-6.8,0-4.94,0-6-.13-7.5a18.44,18.44,0,0,1,1.84,1.16h5.26c.51-.68.67-.89,1.21-1.57a18.13,18.13,0,0,1,2.08,1.84.6.6,0,0,1,.14.21c0,.11-.06.14-.33.14h-4.29v3.26ZM219,322.34c1,1.68,1.3,2.43,1.3,3.35,0,.51-.59,1.3-1,1.3-.21,0-.32-.19-.32-.6v-.16c.05-.86.08-1.3.08-1.51a7.31,7.31,0,0,0-.35-2.24Zm2.89-13.68h-2.64v3.26h2.64Zm-2.64,3.88v3.24h2.64v-3.24Zm0,3.86V320h2.64V316.4Zm1.45,5.54c1.22,1.18,1.95,2.27,1.95,2.89s-.43,1.26-.78,1.26c-.17,0-.27-.1-.3-.37a10.56,10.56,0,0,0-1.13-3.62Zm1.84-.38c1.27,1.08,1.94,1.92,1.94,2.48s-.43,1.14-.75,1.14c-.11,0-.19-.11-.25-.35s-.13-.6-.26-1.08a5.68,5.68,0,0,0-.92-2Zm8.21-4.54a28.62,28.62,0,0,1-1,7.35,16.77,16.77,0,0,1-2.13,4.67,9.07,9.07,0,0,1-1.57,1.78l-.29-.24a17,17,0,0,0,2.67-6.91,57.09,57.09,0,0,0,.65-8.29c0-5.24,0-7.34-.08-8.67.86.57,1.13.73,2,1.33h6.05c.46-.49.59-.65,1.08-1.16.7.54.89.7,1.51,1.24.22.16.3.29.3.4s-.06.19-1,.62c0,.65,0,1.16,0,1.57v1.1c0,1,0,2,0,2.95,0,.24,0,.43,0,1.7,0,.83,0,.83.06,1.54v.16c0,.32-.35.43-1.43.43-.35,0-.44,0-.46-.3V317H234a12.91,12.91,0,0,0,1.73,6,13.75,13.75,0,0,0,3.43,4,7.67,7.67,0,0,0,2.35,1.29v.41c-1.06.21-1.25.37-2.06,1.67a13,13,0,0,1-3.56-4.21,18.73,18.73,0,0,1-2.27-6.89c0-.59-.1-.94-.21-2.24Zm6.45-.62v-7.74h-6.35c0,.86,0,1.62,0,2,0,1.92,0,3.54-.11,5.72Z"/><path class="cls-1" d="M255.12,307.79a8.06,8.06,0,0,1,2.16.33c.92.24,1.35.62,1.35,1.16,0,.21,0,.21-.21.75a13.79,13.79,0,0,0-.54,3.89v.51a.86.86,0,0,0,.72.3,8.89,8.89,0,0,0,4.11-1.59c.29-.22.43-.3.59-.3a3.44,3.44,0,0,1,1.16.35c.43.24.57.41.57.65,0,.4-.35.62-1.59,1.08a11.54,11.54,0,0,1-3.76.84,2.37,2.37,0,0,1-1.8-.68v1.19c0,2.13.13,5.29.29,7a17.68,17.68,0,0,1,5.7,2,2.63,2.63,0,0,1,1.67,2.33c0,.64-.19,1-.54,1-.19,0-.35-.11-.65-.35a14.46,14.46,0,0,0-6.07-3.43c.05,1.27.05,1.27.05,1.76a2.63,2.63,0,0,1-1.91,2.67,9.1,9.1,0,0,1-2.76.4c-2.83,0-4.61-1.13-4.61-2.94,0-1.29.92-2.32,2.62-3a11.64,11.64,0,0,1,3.91-.65c.22,0,.57,0,1,0-.17-10.85-.17-10.85-.38-12.66-.19-1.56-.6-2-2.35-2.29A1.63,1.63,0,0,1,255.12,307.79Zm-.59,16.6c-2.78,0-4.78.95-4.78,2.3,0,1.08,1.11,1.7,3,1.7a4.41,4.41,0,0,0,3.38-1.11c.35-.43.43-1,.43-2.83C255.72,324.39,255.39,324.39,254.53,324.39Z"/><path class="cls-1" d="M283.5,330.66a14.15,14.15,0,0,0,7.12-12.88,12.82,12.82,0,0,0-1-5.56,2.23,2.23,0,0,0-1.92-1.19c-1.35,0-2.59,1.16-3.56,3.38a13.61,13.61,0,0,0-1.16,7.47,5.15,5.15,0,0,1,0,.57c0,.51-.24.81-.7.81-1,0-1.7-2.19-1.7-5.53a32.46,32.46,0,0,1,.86-7.24,11,11,0,0,0,.3-2c0-.86-.38-1.37-1.46-1.91a1.49,1.49,0,0,1,.49-.14,4.18,4.18,0,0,1,2.16.89c.75.54,1.05,1,1.05,1.51a1.58,1.58,0,0,1-.38,1,19.47,19.47,0,0,0-1.94,8c0,.25,0,.52,0,1h0c.81-3.45,1.81-5.69,3.13-7.07a4.37,4.37,0,0,1,3.3-1.59c2.59,0,4.42,3.18,4.42,7.69a13.43,13.43,0,0,1-2.94,8.83,13.6,13.6,0,0,1-6,4.26Z"/><path class="cls-1" d="M306.23,318.56a20,20,0,0,1-3.53,3.22l-.35-.36a26.35,26.35,0,0,0,3.83-4.91c.41-.67,1.22-2.21,1.59-3a9,9,0,0,0,.52-1.41c2.21.78,3,1.14,2.94,1.32s-.54.41-1.05.41h-.3a28.66,28.66,0,0,1-2.67,3.59c1.29.16,1.7.27,1.7.49s-.16.32-.92.56v7.29c0,.46,0,1.46,0,2.94v.79c0,.24,0,.54,0,1a.34.34,0,0,0,0,.08.31.31,0,0,1-.19.32,6.39,6.39,0,0,1-1.33.14c-.29,0-.37-.08-.4-.3,0-1.81,0-1.92.13-7.15Zm-3.53-4.88a25.12,25.12,0,0,0,4-4.81A12.23,12.23,0,0,0,308.1,306l1.35.6c1.08.45,1.48.7,1.48.89s-.3.32-1.29.37a23.78,23.78,0,0,1-2.87,3.16,20.93,20.93,0,0,1-3.67,3Zm21.48,2.1c.6-.83.79-1.08,1.44-1.86l2.42,2a.65.65,0,0,1,.19.29c0,.14-.1.19-.32.19h-8.4v4.4H323c.62-.81.83-1.05,1.46-1.8,1,.86,1.32,1.13,2.29,2a.48.48,0,0,1,.13.22c0,.1-.13.18-.32.18h-7.05v6.35a21,21,0,0,0,4.73.4,33.22,33.22,0,0,0,4.05-.24v.4a2,2,0,0,0-1.59,1.79l-2.08.05c-3.62,0-5.73-.51-7.45-1.81a14.5,14.5,0,0,1-3.84-4.64,17.64,17.64,0,0,1-4.48,7.18l-.35-.27a21.7,21.7,0,0,0,3-6,25.41,25.41,0,0,0,.89-5.83c0-.08,0-.43-.05-.81,2.48.35,3.05.49,3.05.78s-.11.27-1.11.54a25.33,25.33,0,0,1-.67,3.65,10.24,10.24,0,0,0,4.15,4.15V316.4h-5.88a9.84,9.84,0,0,0-2,.17l-.24-1a9.43,9.43,0,0,0,2.34.21h5.75v-4.45h-4.48a7.87,7.87,0,0,0-1.7.16l-.19-1a6.7,6.7,0,0,0,1.89.25h4.48v-2.32a14.49,14.49,0,0,0-.19-2.11c2.38.27,3,.43,3,.76s-.27.35-1,.54v3.13h3.73c.62-.84.81-1.08,1.4-1.81l2.32,2a.5.5,0,0,1,.14.27c0,.11-.11.16-.3.16h-7.29v4.45Z"/><path class="cls-1" d="M332.45,325.5a24.16,24.16,0,0,0,4.43-5,8.87,8.87,0,0,0,1.56-3.1c2.51,1,2.89,1.18,2.89,1.43s-.29.32-1.24.37c-2.89,3.54-4.34,4.84-7.4,6.59Zm13.39-6.67v1.33c0,.48,0,.48,0,2.61-.06,1.49-.76,2.06-3.3,2.57-.16-.92-.29-1.13-.72-1.38a7.15,7.15,0,0,0-2.52-.51V323c2.68.17,2.73.17,4.19.22.43,0,.54-.08.54-.32v-6.89h-8.94a10,10,0,0,0-2.24.16l-.16-1a9.35,9.35,0,0,0,2.65.27h2.4v-4.61a18.85,18.85,0,0,0-.11-2.38c2.57.27,3,.35,3,.62s-.32.38-1.08.62v5.75h4.51V309c0-1,0-1.49-.11-2.51.54.08,1,.13,1.24.16,1.3.13,1.68.24,1.68.49s-.27.35-1,.62v3.15h4.35c.73-.86.94-1.13,1.67-1.94,1.08.92,1.43,1.22,2.48,2.21a.35.35,0,0,1,.08.19c0,.11-.1.16-.27.16h-8.31v3.89h6.83c.75-.94,1-1.21,1.75-2.08,1.22.95,1.6,1.27,2.76,2.3a.46.46,0,0,1,.08.21c0,.08-.14.19-.3.19H345.84Zm-12.69,11.93A29.45,29.45,0,0,0,344,326.88a17.33,17.33,0,0,0,5.83-5.78c1.81,1,2.48,1.4,2.48,1.62s-.24.3-.67.3a4.67,4.67,0,0,1-.6,0,21.36,21.36,0,0,1-4.48,4c-3.62,2.48-7.23,3.64-13.28,4.26Zm15.2-13.14a23.72,23.72,0,0,1,5.83,2.37,2.35,2.35,0,0,1,1.27,2.19c0,.65-.22,1.11-.51,1.11s-.38-.14-.65-.46a18.58,18.58,0,0,0-2.43-2.35,26.86,26.86,0,0,0-3.64-2.51Z"/><path class="cls-1" d="M371,327.23a4.85,4.85,0,0,0,1.78-.27c.59-.27.73-.84.73-2.78V312.81c-.06-2.35-.06-2.35-.27-2.53s-.54-.25-1.22-.25h-1v-.78a31,31,0,0,0,5.13-.7c-.14,2.13-.22,4.43-.22,7.61v8c0,1.81.11,2.35.49,2.67s.43.3,2,.38V328H371Z"/><path class="cls-1" d="M393.28,315.84a6.08,6.08,0,0,1,4.37,1.67,6.41,6.41,0,0,1,1.57,4.35,6.24,6.24,0,0,1-6.51,6.58c-4.29,0-6.58-3.16-6.58-9,0-3.91.86-7.15,2.37-8.91a5.94,5.94,0,0,1,4.73-2.05c2.78,0,5.23,1.46,5.23,3.13,0,.7-.56,1.11-1.56,1.11-.84,0-1.11-.24-1.19-1-.19-1.75-1-2.56-2.48-2.56-1.89,0-3.21,1.26-3.94,3.69a20.72,20.72,0,0,0-.62,5.16A5.79,5.79,0,0,1,393.28,315.84Zm-3.61,9.93a3.43,3.43,0,0,0,6.12.22,8.82,8.82,0,0,0,.87-4.08c0-3.29-1.46-5.34-3.78-5.34a4.14,4.14,0,0,0-2.86,1.18,4.54,4.54,0,0,0-1.38,3.62A9.22,9.22,0,0,0,389.67,325.77Z"/><path class="cls-1" d="M410.13,318.64a26.65,26.65,0,0,0,5.56-6.31,20.71,20.71,0,0,0,2.78-5.75c.57.21,1,.38,1.35.46,1.38.48,1.62.59,1.62.78s-.3.35-1.29.49a27.11,27.11,0,0,1-4.51,6.42,23.73,23.73,0,0,1-5.27,4.24Zm11.88-.91a18.73,18.73,0,0,1-2.05,6.88,13.11,13.11,0,0,1-5.32,5,18.72,18.72,0,0,1-3.13,1.35l-.19-.37c3.72-2.06,5.91-4.27,7.26-7.29a18.07,18.07,0,0,0,1.4-5.56h-3.42a14.21,14.21,0,0,0-2.16.19l-.19-1a12.31,12.31,0,0,0,2.32.22H428c.48-.46.64-.6,1.13-1a13.42,13.42,0,0,1,1.67,1.19c.22.19.3.29.3.4s-.19.35-.94.73c-.27,5.7-.76,9.23-1.43,10.64-.54,1.13-1.52,1.48-4.7,1.56a1.4,1.4,0,0,0-.86-1.37,13.63,13.63,0,0,0-3.22-.76l0-.49c4,.46,5.1.57,6,.57s1.35-.43,1.7-2.54a68.75,68.75,0,0,0,.59-8.28Zm3.35-11a1.69,1.69,0,0,0,.1.67,14.28,14.28,0,0,0,4.13,5.26,16.79,16.79,0,0,0,6.1,3.14l0,.35a2.87,2.87,0,0,0-2.19,1.86,22.39,22.39,0,0,1-5.12-4.35,20.65,20.65,0,0,1-3.27-5.26,3.37,3.37,0,0,0-.86-1.24Z"/><path class="cls-1" d="M170.12,371.39a12.72,12.72,0,0,0,1.89,3.69,11.76,11.76,0,0,0,2.89-2.59l1.86.84c.36.19.54.35.54.49a.31.31,0,0,1-.16.24c-.19.08-.21.11-1.27.13a21.21,21.21,0,0,1-2.7,2.16,14.59,14.59,0,0,0,5.51,3c.46-1.05,1.38-3.35,2-4.91l.32.05-.73,4.13c-.05.49-.08.76-.08.81,0,.22.11.38.46.57s.52.43.52.75-.44.79-1,.79a15.65,15.65,0,0,1-5.64-2.08,14,14,0,0,1-2.84-2.16,30.1,30.1,0,0,1-5.31,2.32,28.94,28.94,0,0,1-9,1.59l-.11-.43a35.48,35.48,0,0,0,9.48-2.67,32.27,32.27,0,0,0,3.91-2.08,14.28,14.28,0,0,1-2.29-4.64h-7.1V373c0,.27-.06.3-.25.38a8.65,8.65,0,0,1-1.1.08c-.43,0-.6-.05-.6-.24v-.05c.11-2.35.14-3.46.14-5.21,0-4.51,0-5.92-.14-7.32.92.51,1.19.7,2.08,1.27h6a42.15,42.15,0,0,0-.13-4.56c2.32.21,3,.35,3,.62s-.22.35-1,.67l0,2.73v.54h6.37a9.41,9.41,0,0,1,1.16-1.27c.75.54,1,.73,1.7,1.27.19.16.27.27.27.38s-.14.29-.92.7v3.51c0,2,0,2.89.11,5.13v0c0,.27-.06.33-.25.38a4.81,4.81,0,0,1-1.26.14c-.33,0-.41-.06-.44-.22v-.51Zm-2.61-5.1c-.06-.79-.08-2.06-.14-3.81h-6.15v3.81Zm.64,4.48a22.55,22.55,0,0,1-.59-3.86h-6.34v3.86Zm7.72-8.29h-6.72c0,1.43,0,2,.11,3.81h6.61Zm0,4.43h-6.56a20.13,20.13,0,0,0,.63,3.86h5.93Z"/><path class="cls-1" d="M206.17,369.55a24.94,24.94,0,0,1,1.43-2.05c1.05.86,1.4,1.13,2.54,2.05a.65.65,0,0,1,.16.33.32.32,0,0,1-.33.29h-5l0,2.3c0,.32,0,1.08.06,2.18,0,1.92,0,1.92,0,5a1.66,1.66,0,0,1-1,1.57,6,6,0,0,1-2.32.62c-.49-1.46-.73-1.59-3.86-2.08v-.43c1.05,0,1.05,0,2.67.16,1.08.06,1.08.06,2.11.08.45,0,.59-.19.59-.54l-.08-8.88h-4.83v3.32c0,3.46,0,3.46.11,4.48-.06.44-.3.54-1.22.57H197c-.32,0-.46-.11-.49-.38.06-1.37.09-2.64.09-4.67v-3.32h-4.3a14.53,14.53,0,0,1-1.21,5.94,13,13,0,0,1-4.7,5.75l-.29-.22a15.91,15.91,0,0,0,3.88-7.18,19.82,19.82,0,0,0,.52-4.29h-2.06a24.27,24.27,0,0,0-2.51.14l-.16-1a18.93,18.93,0,0,0,2.92.24h1.83c.06-1.38.11-4.1.11-6.21,0-1.32,0-1.83-.08-3a14.35,14.35,0,0,1,2.27,1.32h2.83a20.21,20.21,0,0,0,1.24-4.37c1.27.24,2.65.51,2.89.62s.24.13.24.27-.13.32-1.32.59c-1.48,1.92-1.48,1.92-2.32,2.89h6.34l1.16-1.21,1.68,1.1c.29.24.37.33.37.41s0,.19-1,.94l.08,6.64Zm-3-7.26H192.48c0,3.1,0,5.24-.16,7.26h10.85Zm-8,1.21a14.79,14.79,0,0,1,4.34,2.33,1.76,1.76,0,0,1,.46,1.32c0,.84-.27,1.43-.65,1.43s-.43-.13-.86-.92a14.48,14.48,0,0,0-2-2.67,7.51,7.51,0,0,0-1.45-1.21Z"/><path class="cls-1" d="M216.14,373.49c.05.6.08.84.08,1.24a8.27,8.27,0,0,1-.54,3.35c-.35.78-.79,1.24-1.19,1.24s-.54-.54-.54-1.35c0-.56.08-.72.59-1.16a4.41,4.41,0,0,0,1.22-3.32Zm7-10.55c.48-.6.62-.78,1.1-1.32a18.07,18.07,0,0,1,1.81,1.59.7.7,0,0,1,.11.21c0,.11-.08.14-.3.14h-4v3.24H223c.54-.59.71-.76,1.27-1.35.79.7,1,.92,1.7,1.62a.57.57,0,0,1,.11.19c0,.11-.11.16-.32.16h-3.89V371h1.73c.57-.57.57-.57,1.05-1,.57.52.76.68,1.3,1.19.19.24.24.33.24.41s-.11.24-.86.62c-.17,3.72-.62,6.58-1.25,7.74a3.1,3.1,0,0,1-1.24,1.14,6,6,0,0,1-1.91.38c-.19-1.22-.38-1.35-3-2l.05-.43c1.35.21,3.54.48,4.16.48.41,0,.68-.38.89-1.32a28.76,28.76,0,0,0,.7-6.56h-6v.57c0,.32-.27.4-1.16.4-.41,0-.54-.08-.54-.3v-.1c.08-2.43.1-3.46.1-6.81,0-4.93,0-6-.13-7.5a19,19,0,0,1,1.83,1.16H223c.51-.67.67-.89,1.21-1.56a18,18,0,0,1,2.08,1.83.53.53,0,0,1,.14.22c0,.11-.06.13-.33.13h-4.29v3.27Zm-5.73,10.42c1,1.67,1.3,2.43,1.3,3.35,0,.51-.59,1.29-1,1.29-.21,0-.32-.19-.32-.59v-.16c.05-.87.08-1.3.08-1.52a7.35,7.35,0,0,0-.35-2.24Zm2.89-13.69h-2.64v3.27h2.64Zm-2.64,3.89v3.24h2.64v-3.24Zm0,3.86V371h2.64v-3.59ZM219.1,373c1.22,1.19,2,2.27,2,2.89s-.43,1.27-.78,1.27c-.17,0-.27-.11-.3-.38a10.29,10.29,0,0,0-1.14-3.61Zm1.84-.37c1.27,1.07,1.94,1.91,1.94,2.48s-.43,1.13-.75,1.13c-.11,0-.19-.11-.25-.35s-.13-.59-.26-1.08a5.85,5.85,0,0,0-.92-2Zm8.21-4.54a28.53,28.53,0,0,1-1,7.34,16.64,16.64,0,0,1-2.13,4.67,8.53,8.53,0,0,1-1.57,1.78l-.29-.24a17,17,0,0,0,2.67-6.91,56.85,56.85,0,0,0,.65-8.29c0-5.23,0-7.34-.08-8.66.86.57,1.13.73,2,1.32h6.05c.46-.48.59-.65,1.08-1.16.7.54.89.7,1.51,1.24.22.16.3.3.3.41s-.06.19-1,.62c0,.65,0,1.16,0,1.56v1.11c0,1,0,2,0,2.94,0,.25,0,.44,0,1.7,0,.84,0,.84.06,1.54v.16c0,.33-.35.44-1.43.44-.35,0-.44-.06-.46-.3V368h-3.27a12.83,12.83,0,0,0,1.73,6,13.62,13.62,0,0,0,3.43,4,7.74,7.74,0,0,0,2.34,1.3v.4c-1.05.22-1.24.38-2.05,1.68a13,13,0,0,1-3.56-4.22,18.75,18.75,0,0,1-2.27-6.88c0-.59-.1-.94-.21-2.24Zm6.45-.62v-7.75h-6.35c0,.87,0,1.62,0,2,0,1.91,0,3.53-.11,5.72Z"/><path class="cls-1" d="M253.5,358.81a8.43,8.43,0,0,1,2.16.32c.92.25,1.35.62,1.35,1.16,0,.22,0,.22-.22.76a14.16,14.16,0,0,0-.54,3.89v.51a.92.92,0,0,0,.73.3,8.8,8.8,0,0,0,4.11-1.6c.29-.21.43-.29.59-.29a3.44,3.44,0,0,1,1.16.35c.43.24.57.4.57.65s-.35.62-1.59,1.07a11.54,11.54,0,0,1-3.76.84,2.4,2.4,0,0,1-1.81-.67v1.18c0,2.14.14,5.3.3,7.05a17.22,17.22,0,0,1,5.7,2,2.63,2.63,0,0,1,1.67,2.32c0,.65-.19,1-.54,1-.19,0-.35-.11-.65-.35a14.24,14.24,0,0,0-6.07-3.43c0,1.27,0,1.27,0,1.75a2.62,2.62,0,0,1-1.91,2.67,8.78,8.78,0,0,1-2.76.41c-2.83,0-4.61-1.13-4.61-2.94,0-1.3.92-2.32,2.62-3a11.39,11.39,0,0,1,3.91-.65c.22,0,.57,0,1,0-.17-10.85-.17-10.85-.38-12.66-.19-1.57-.6-2-2.35-2.3A1.66,1.66,0,0,1,253.5,358.81Zm-.59,16.6c-2.78,0-4.78.94-4.78,2.29,0,1.08,1.11,1.7,3,1.7a4.45,4.45,0,0,0,3.38-1.1c.35-.43.43-1,.43-2.84C254.1,375.41,253.77,375.41,252.91,375.41Z"/><path class="cls-1" d="M281.88,381.67a14.87,14.87,0,0,0,4.29-3.78A14.71,14.71,0,0,0,289,368.8a12.79,12.79,0,0,0-1-5.56,2.21,2.21,0,0,0-1.92-1.19c-1.35,0-2.59,1.16-3.56,3.37a13.65,13.65,0,0,0-1.16,7.48,5.15,5.15,0,0,1,0,.57c0,.51-.24.81-.7.81-1,0-1.7-2.19-1.7-5.54a32.39,32.39,0,0,1,.86-7.23,11,11,0,0,0,.3-2c0-.87-.38-1.38-1.46-1.92a1.69,1.69,0,0,1,.49-.13,4.18,4.18,0,0,1,2.16.89c.75.54,1.05,1,1.05,1.51a1.56,1.56,0,0,1-.38,1,19.52,19.52,0,0,0-1.94,8c0,.24,0,.51,0,1h0c.81-3.46,1.81-5.7,3.13-7.08a4.37,4.37,0,0,1,3.3-1.59c2.59,0,4.42,3.19,4.42,7.7a13.4,13.4,0,0,1-2.94,8.82,13.7,13.7,0,0,1-6,4.27Z"/><path class="cls-1" d="M304.61,369.58a20,20,0,0,1-3.53,3.21l-.35-.35a26.68,26.68,0,0,0,3.83-4.91c.41-.68,1.22-2.22,1.59-3a8.8,8.8,0,0,0,.52-1.4c2.21.78,3,1.13,2.94,1.32s-.54.41-1.05.41h-.3a28.66,28.66,0,0,1-2.67,3.59c1.29.16,1.7.26,1.7.48s-.17.32-.92.57v7.29c0,.46,0,1.45,0,2.94v.78c0,.24,0,.54,0,1a.22.22,0,0,0,0,.08.32.32,0,0,1-.19.33,7.35,7.35,0,0,1-1.33.13c-.29,0-.37-.08-.4-.29,0-1.81,0-1.92.13-7.16Zm-3.53-4.89a24.72,24.72,0,0,0,4-4.8,12.46,12.46,0,0,0,1.43-2.86l1.35.59c1.08.46,1.48.7,1.48.89s-.3.33-1.29.38a25.09,25.09,0,0,1-2.87,3.16,21.31,21.31,0,0,1-3.67,3Zm21.48,2.11c.6-.84.79-1.08,1.44-1.86l2.42,2a.67.67,0,0,1,.19.3c0,.14-.1.19-.32.19h-8.4v4.4h3.49c.62-.81.83-1.05,1.45-1.81,1,.86,1.33,1.13,2.3,2a.46.46,0,0,1,.13.21c0,.11-.13.19-.32.19h-7.05v6.34a20.9,20.9,0,0,0,4.73.41,35.36,35.36,0,0,0,4.05-.24v.4a2,2,0,0,0-1.59,1.78c-1,0-1.71.06-2.08.06-3.62,0-5.73-.52-7.45-1.81a14.44,14.44,0,0,1-3.84-4.65,17.57,17.57,0,0,1-4.48,7.18l-.35-.27a21.56,21.56,0,0,0,3-6,25.25,25.25,0,0,0,.89-5.83c0-.08,0-.43-.05-.8,2.48.35,3.05.48,3.05.78s-.11.27-1.11.54A25.17,25.17,0,0,1,312,374a10.26,10.26,0,0,0,4.15,4.16V367.42h-5.88a10.59,10.59,0,0,0-2,.16l-.24-1a9.36,9.36,0,0,0,2.34.22h5.75v-4.46h-4.48a7.31,7.31,0,0,0-1.7.17l-.19-1a7.09,7.09,0,0,0,1.89.24h4.48V359.4a14.38,14.38,0,0,0-.19-2.1c2.38.27,3,.43,3,.75s-.27.35-1,.54v3.13h3.73c.62-.83.81-1.08,1.4-1.8l2.32,2a.57.57,0,0,1,.14.27c0,.11-.11.16-.3.16h-7.29v4.46Z"/><path class="cls-1" d="M330.83,376.52a24.42,24.42,0,0,0,4.43-5,9.14,9.14,0,0,0,1.57-3.11c2.5,1,2.88,1.19,2.88,1.43s-.29.33-1.24.38c-2.89,3.54-4.34,4.83-7.39,6.59Zm13.39-6.67v1.32c0,.49,0,.49,0,2.62-.06,1.48-.76,2-3.29,2.56-.17-.91-.3-1.13-.73-1.37a7.07,7.07,0,0,0-2.51-.52v-.4c2.67.16,2.72.16,4.18.22.43,0,.54-.09.54-.33v-6.88H333.5a10.09,10.09,0,0,0-2.24.16l-.16-1.05a9.73,9.73,0,0,0,2.65.27h2.4v-4.62a18.78,18.78,0,0,0-.11-2.37c2.57.27,3,.35,3,.62s-.32.38-1.08.62v5.75h4.51V360c0-1,0-1.48-.11-2.51.54.08,1,.14,1.24.16,1.3.14,1.68.25,1.68.49s-.27.35-1,.62v3.16h4.35c.73-.86.94-1.13,1.67-1.94,1.08.91,1.43,1.21,2.48,2.21a.3.3,0,0,1,.08.19c0,.11-.1.16-.26.16h-8.32v3.89h6.83c.76-.95,1-1.22,1.75-2.08,1.22.94,1.6,1.27,2.76,2.29a.49.49,0,0,1,.08.22c0,.08-.14.19-.3.19H344.22Zm-12.69,11.93a29.46,29.46,0,0,0,10.83-3.89,17.21,17.21,0,0,0,5.83-5.77c1.81,1,2.48,1.4,2.48,1.62s-.24.29-.67.29c-.16,0-.35,0-.6,0a21.58,21.58,0,0,1-4.48,4c-3.61,2.48-7.23,3.64-13.28,4.27Zm15.2-13.15a24.09,24.09,0,0,1,5.83,2.38,2.34,2.34,0,0,1,1.27,2.19c0,.64-.22,1.1-.51,1.1s-.38-.13-.65-.46a18.5,18.5,0,0,0-2.43-2.34A25.16,25.16,0,0,0,346.6,369Z"/><path class="cls-1" d="M369.39,378.24a4.63,4.63,0,0,0,1.78-.27c.59-.27.73-.83.73-2.78V363.83c-.06-2.35-.06-2.35-.27-2.54s-.54-.24-1.22-.24h-1v-.78a30.91,30.91,0,0,0,5.13-.71c-.14,2.14-.22,4.43-.22,7.62v8c0,1.81.11,2.35.49,2.68s.43.29,2,.37V379h-7.37Z"/><path class="cls-1" d="M391.66,366.85a6,6,0,0,1,4.37,1.68,6.36,6.36,0,0,1,1.57,4.34,6.24,6.24,0,0,1-6.51,6.59c-4.29,0-6.58-3.16-6.58-9,0-3.92.86-7.16,2.37-8.91a5.91,5.91,0,0,1,4.73-2.05c2.78,0,5.23,1.45,5.23,3.13,0,.7-.56,1.1-1.56,1.1-.84,0-1.11-.24-1.19-1-.19-1.76-1-2.57-2.48-2.57-1.89,0-3.21,1.27-3.94,3.7a20.66,20.66,0,0,0-.62,5.16A5.77,5.77,0,0,1,391.66,366.85ZM388,376.79a3.44,3.44,0,0,0,6.13.21,8.78,8.78,0,0,0,.87-4.07c0-3.3-1.46-5.35-3.78-5.35a4.1,4.1,0,0,0-2.86,1.19,4.53,4.53,0,0,0-1.38,3.62A9.36,9.36,0,0,0,388,376.79Z"/><path class="cls-1" d="M408.51,369.66a26.68,26.68,0,0,0,5.56-6.32,20.71,20.71,0,0,0,2.78-5.75c.57.22,1,.38,1.35.46,1.38.49,1.62.6,1.62.79s-.3.35-1.29.48a27.19,27.19,0,0,1-4.51,6.43,23.42,23.42,0,0,1-5.27,4.23Zm11.88-.92a18.61,18.61,0,0,1-2.05,6.88,13.13,13.13,0,0,1-5.32,5,18.72,18.72,0,0,1-3.13,1.35l-.19-.38c3.72-2,5.91-4.26,7.26-7.29a17.92,17.92,0,0,0,1.4-5.56h-3.42a14.21,14.21,0,0,0-2.16.19l-.19-1a12.25,12.25,0,0,0,2.32.21h11.5c.48-.46.64-.59,1.13-1a12.41,12.41,0,0,1,1.67,1.18c.22.19.3.3.3.41s-.19.35-.94.73c-.27,5.69-.76,9.23-1.43,10.63-.54,1.14-1.52,1.49-4.7,1.57a1.41,1.41,0,0,0-.86-1.38,13.9,13.9,0,0,0-3.22-.75l0-.49c4,.46,5.1.57,6,.57s1.35-.44,1.7-2.54a68.78,68.78,0,0,0,.59-8.29Zm3.35-11a1.74,1.74,0,0,0,.1.68,14.36,14.36,0,0,0,4.13,5.26,16.85,16.85,0,0,0,6.1,3.13l0,.35a2.89,2.89,0,0,0-2.19,1.87,22.9,22.9,0,0,1-5.12-4.35,20.65,20.65,0,0,1-3.27-5.26,3.42,3.42,0,0,0-.86-1.25Z"/><path class="cls-1" d="M156.17,427.26A33.32,33.32,0,0,0,160.3,420a31.38,31.38,0,0,0,1.62-4.78,23.64,23.64,0,0,1,2.89,1.06c.16.08.24.16.24.27,0,.32-.35.45-1.19.45h-.13a35.07,35.07,0,0,1-3.43,6.13,23.59,23.59,0,0,1-3.81,4.43Zm11.55-15.52a26.59,26.59,0,0,0-.13-2.86c3.18.43,3.37.49,3.37.84s-.32.48-1.24.7v12.9c0,1.16,0,3.37.05,6.45-.08,1.76-.78,2.27-3.69,2.76-.08-1.49-.62-1.79-4.49-2.49v-.46a53.38,53.38,0,0,0,5.7.46c.35,0,.43-.11.43-.46Zm5.59,3.67a36,36,0,0,1,5.26,5.59c1.3,1.65,1.73,2.51,1.73,3.45,0,1.43-.46,2.78-1,2.78-.24,0-.41-.24-.62-.91a46.29,46.29,0,0,0-2.49-5.75,26.37,26.37,0,0,0-3.29-4.92Z"/><path class="cls-1" d="M193,414.47a19.78,19.78,0,0,1,1.37-1.6,19.6,19.6,0,0,1,2.08,1.89.34.34,0,0,1,.08.19c0,.08-.11.14-.32.14h-4.08v2.32c2.86,1.81,3.75,2.7,3.75,3.7s-.4,1.75-.81,1.75c-.19,0-.32-.13-.45-.48a13.66,13.66,0,0,0-2.49-4.43c0,7.34,0,9.39.06,14.39,0,.37-.19.43-1.62.43-.27,0-.35-.08-.35-.3l.18-9.85.3-4.75a33.41,33.41,0,0,1-2.4,5.37,19.46,19.46,0,0,1-2.57,3.67l-.27-.19a39.27,39.27,0,0,0,3.24-7.15,33.3,33.3,0,0,0,1.27-4.48h-2a10,10,0,0,0-1.86.11l-.13-.95a7.88,7.88,0,0,0,2,.22h2.41v-2.54a24,24,0,0,0-.11-3.32c2.86.32,3,.35,3,.62s-.35.41-1.16.68v4.56Zm13,9.26c0,4.56,0,4.56.06,6.69a1.93,1.93,0,0,1-.6,1.65A5.35,5.35,0,0,1,203,433c-.37-1.51-.65-1.64-3.75-2.1l0-.43,2.59.13c.94.06.94.06,1.81.08h.08c.3,0,.4-.13.4-.46V415.09h-5.23a12.55,12.55,0,0,0-1.87.13l-.13-1a6.52,6.52,0,0,0,2,.25h5.23v-2c0-1.89,0-2.62-.1-3.94,2.64.35,3.15.48,3.15.75s-.16.33-1.16.6v4.59h.54c.6-.79.79-1,1.43-1.76,1,.87,1.33,1.14,2.27,2.05a.32.32,0,0,1,.08.19c0,.06-.11.14-.21.14H206Zm-8.85-5.86c2.94,2.35,4.61,4.29,4.61,5.34a3.58,3.58,0,0,1-.59,1.68.78.78,0,0,1-.59.4c-.27,0-.38-.19-.52-.73a20,20,0,0,0-1.05-2.83,24,24,0,0,0-2.13-3.65Z"/><path class="cls-1" d="M229.63,414.6a46.27,46.27,0,0,0-.19-6.13,16.84,16.84,0,0,1,2.81.36c.16.08.27.18.27.29s-.22.33-1.05.65c0,.46,0,2.08,0,4.83h2.92c.65-.83.84-1.1,1.48-1.94a30.33,30.33,0,0,1,2.49,2.18,1,1,0,0,1,.05.17.25.25,0,0,1-.24.21h-6.7l.09,7.26h3.59c.75-.91,1-1.21,1.75-2.16,1.11,1,1.43,1.33,2.51,2.38a.34.34,0,0,1,.11.19c0,.11-.14.21-.27.21h-7.69c0,6.19,0,6.19.1,8.78,0,.21,0,.29-.1.37a5.06,5.06,0,0,1-1.57.17c-.3,0-.43-.11-.46-.35.08-4.13.11-6.51.11-7.16V423.1h-6.51a10.91,10.91,0,0,1-2.7,5.78,13,13,0,0,1-5.45,3.59l-.24-.32a13,13,0,0,0,4.94-4.56,12.39,12.39,0,0,0,1.54-4.49h-2.62a34.27,34.27,0,0,0-3.83.19l-.17-1.05a27.3,27.3,0,0,0,4,.24h2.7a37.62,37.62,0,0,0,.27-4.64v-2.62h-1.84a36.55,36.55,0,0,0-4.32.19l-.1-1.05a40.2,40.2,0,0,0,4.4.24h1.86c0-.86,0-1.59,0-2a33,33,0,0,0-.13-4.13c3,.33,3.32.38,3.32.65s-.19.33-1.19.7v4.78Zm-6.07.62a43.9,43.9,0,0,1-.33,7.26h6.43v-7.26Z"/><path class="cls-1" d="M245.16,424.51c.05.59.08.83.08,1.24a8.16,8.16,0,0,1-.54,3.35c-.35.78-.78,1.24-1.19,1.24S243,429.8,243,429c0-.57.09-.73.6-1.16a4.41,4.41,0,0,0,1.21-3.32Zm7-10.56c.49-.59.62-.78,1.11-1.32a22.62,22.62,0,0,1,1.81,1.59.87.87,0,0,1,.11.22c0,.11-.09.14-.3.14h-4v3.23H252c.54-.59.7-.75,1.27-1.35.78.71,1,.92,1.7,1.62a1.79,1.79,0,0,1,.11.19c0,.11-.11.16-.33.16h-3.88V422h1.72c.57-.57.57-.57,1.06-1,.56.51.75.67,1.29,1.19.19.24.25.32.25.4s-.11.24-.87.62c-.16,3.73-.62,6.59-1.24,7.75a3.08,3.08,0,0,1-1.24,1.13,6.13,6.13,0,0,1-1.92.38c-.19-1.21-.38-1.35-3-2L247,430c1.35.22,3.54.49,4.16.49.4,0,.67-.38.89-1.32a29.42,29.42,0,0,0,.7-6.56h-6.05v.56c0,.33-.27.41-1.16.41-.4,0-.54-.08-.54-.3v-.11c.08-2.43.11-3.45.11-6.8,0-4.94,0-6-.13-7.5a20.36,20.36,0,0,1,1.83,1.16H252c.52-.68.68-.89,1.22-1.57a20,20,0,0,1,2.08,1.84.52.52,0,0,1,.13.21c0,.11-.05.14-.32.14h-4.29V414Zm-5.72,10.42c1,1.68,1.3,2.43,1.3,3.35,0,.51-.6,1.3-1,1.3-.22,0-.33-.19-.33-.6v-.16c.06-.86.08-1.3.08-1.51a7.31,7.31,0,0,0-.35-2.24Zm2.89-13.68h-2.65V414h2.65Zm-2.65,3.89v3.23h2.65v-3.23Zm0,3.85V422h2.65v-3.6Zm1.46,5.54c1.21,1.19,1.94,2.27,1.94,2.89s-.43,1.26-.78,1.26c-.16,0-.27-.1-.3-.37a10.63,10.63,0,0,0-1.13-3.62Zm1.84-.38c1.26,1.08,1.94,1.92,1.94,2.48s-.43,1.14-.76,1.14c-.1,0-.19-.11-.24-.35s-.13-.6-.27-1.08a5.59,5.59,0,0,0-.92-2Zm8.2-4.53a28.67,28.67,0,0,1-.94,7.34,16.65,16.65,0,0,1-2.14,4.67,8.7,8.7,0,0,1-1.56,1.78l-.3-.24a17,17,0,0,0,2.67-6.91,57.09,57.09,0,0,0,.65-8.29c0-5.24,0-7.34-.08-8.67.86.57,1.13.73,2,1.33h6l1.08-1.16c.71.54.9.7,1.52,1.24.21.16.29.3.29.4s0,.19-1,.62c0,.65,0,1.16,0,1.57v1.11c0,1,0,2,0,2.94,0,.24,0,.43,0,1.7,0,.84,0,.84.05,1.54v.16c0,.32-.35.43-1.43.43-.35,0-.43-.05-.46-.3v-1.26h-3.26a12.91,12.91,0,0,0,1.72,6,13.91,13.91,0,0,0,3.43,4,7.79,7.79,0,0,0,2.35,1.29v.41c-1.05.21-1.24.37-2.05,1.67a13,13,0,0,1-3.56-4.21A18.56,18.56,0,0,1,261,421.3c-.06-.6-.11-.95-.22-2.24Zm6.45-.63v-7.74h-6.34c0,.86,0,1.62,0,2,0,1.92,0,3.54-.11,5.72Z"/><path class="cls-1" d="M282.53,409.82a8.17,8.17,0,0,1,2.16.33c.91.24,1.35.62,1.35,1.16,0,.21,0,.21-.22.75a13.85,13.85,0,0,0-.54,3.89v.51a.86.86,0,0,0,.73.3,8.9,8.9,0,0,0,4.1-1.59c.3-.22.43-.3.6-.3a3.44,3.44,0,0,1,1.16.35c.43.25.56.41.56.65,0,.41-.35.62-1.59,1.08a11.49,11.49,0,0,1-3.75.84,2.39,2.39,0,0,1-1.81-.68v1.19c0,2.13.13,5.29.3,7a17.48,17.48,0,0,1,5.69,2,2.62,2.62,0,0,1,1.68,2.32c0,.65-.19,1-.54,1-.19,0-.36-.11-.65-.35a14.55,14.55,0,0,0-6.08-3.43c.06,1.27.06,1.27.06,1.76a2.63,2.63,0,0,1-1.92,2.67,9.06,9.06,0,0,1-2.75.41c-2.84,0-4.62-1.14-4.62-3,0-1.29.92-2.32,2.62-3a11.66,11.66,0,0,1,3.92-.64c.21,0,.56,0,1,0-.16-10.85-.16-10.85-.38-12.66-.19-1.56-.59-2-2.35-2.29A1.69,1.69,0,0,1,282.53,409.82Zm-.6,16.6c-2.78,0-4.78.95-4.78,2.3,0,1.08,1.11,1.7,3,1.7a4.38,4.38,0,0,0,3.37-1.11c.35-.43.43-1,.43-2.83C283.12,426.42,282.8,426.42,281.93,426.42Z"/><path class="cls-1" d="M310.9,432.69A14.13,14.13,0,0,0,318,419.81a12.8,12.8,0,0,0-1-5.56,2.22,2.22,0,0,0-1.92-1.19c-1.35,0-2.59,1.16-3.56,3.38a15.23,15.23,0,0,0-1.27,5.8c0,.46,0,.76.11,1.67a3.51,3.51,0,0,1,0,.57c0,.51-.25.81-.7.81-1,0-1.7-2.19-1.7-5.53a32.46,32.46,0,0,1,.86-7.24,11,11,0,0,0,.3-2c0-.86-.38-1.37-1.46-1.91a1.75,1.75,0,0,1,.48-.14,4.18,4.18,0,0,1,2.16.89c.76.54,1.06,1,1.06,1.51a1.64,1.64,0,0,1-.38,1,19.32,19.32,0,0,0-1.94,8c0,.25,0,.52,0,1h.06c.81-3.45,1.8-5.69,3.13-7.07a4.37,4.37,0,0,1,3.29-1.59c2.59,0,4.43,3.18,4.43,7.69a13.38,13.38,0,0,1-2.95,8.83,13.62,13.62,0,0,1-6,4.26Z"/><path class="cls-1" d="M333.64,420.59a20.08,20.08,0,0,1-3.54,3.22l-.35-.35a26.81,26.81,0,0,0,3.84-4.92c.4-.67,1.21-2.21,1.59-3a9.08,9.08,0,0,0,.51-1.41c2.21.79,3,1.14,2.94,1.33s-.54.4-1.05.4h-.3a28.66,28.66,0,0,1-2.67,3.59c1.3.16,1.7.27,1.7.49s-.16.32-.92.56v7.29c0,.46,0,1.46,0,2.94v.79c0,.24,0,.54,0,1a.22.22,0,0,0,0,.08.29.29,0,0,1-.19.32,6.28,6.28,0,0,1-1.32.14c-.3,0-.38-.08-.41-.3.06-1.81.06-1.92.14-7.15Zm-3.54-4.88a24.46,24.46,0,0,0,4-4.81A11.84,11.84,0,0,0,335.5,408l1.35.6c1.08.46,1.49.7,1.49.89s-.3.32-1.3.38a23.54,23.54,0,0,1-2.86,3.15,21.31,21.31,0,0,1-3.67,3Zm21.49,2.1c.59-.83.78-1.08,1.43-1.86l2.43,2a.62.62,0,0,1,.19.3c0,.13-.11.18-.32.18h-8.4v4.4h3.48c.62-.8.84-1.05,1.46-1.8,1,.86,1.32,1.13,2.29,2a.44.44,0,0,1,.14.22c0,.11-.14.19-.32.19h-7.05v6.34a21,21,0,0,0,4.72.4,33.22,33.22,0,0,0,4.05-.24v.41a2,2,0,0,0-1.59,1.78l-2.08.05c-3.61,0-5.72-.51-7.45-1.81a14.14,14.14,0,0,1-3.83-4.64,17.68,17.68,0,0,1-4.48,7.18l-.35-.27a22,22,0,0,0,3-6,25.88,25.88,0,0,0,.89-5.83c0-.08,0-.43-.06-.81,2.49.35,3.05.49,3.05.78s-.1.27-1.1.54A25,25,0,0,1,341,425a10.26,10.26,0,0,0,4.16,4.15V418.43h-5.89a9.9,9.9,0,0,0-2,.17l-.24-1a9.56,9.56,0,0,0,2.35.21h5.75v-4.45h-4.48a7.81,7.81,0,0,0-1.7.16l-.19-1a7,7,0,0,0,1.89.24h4.48v-2.32a16.07,16.07,0,0,0-.19-2.11c2.38.27,3,.43,3,.76s-.27.35-1,.54v3.13h3.73c.62-.84.81-1.08,1.4-1.81l2.32,2a.58.58,0,0,1,.13.27c0,.11-.1.16-.29.16h-7.29v4.45Z"/><path class="cls-1" d="M359.86,427.53a24.1,24.1,0,0,0,4.42-5,8.93,8.93,0,0,0,1.57-3.1c2.51,1,2.89,1.18,2.89,1.43s-.3.32-1.24.37c-2.89,3.54-4.35,4.84-7.4,6.59Zm13.39-6.67v1.33c0,.48,0,.48,0,2.62,0,1.48-.75,2.05-3.29,2.56-.16-.92-.3-1.13-.73-1.38a7.38,7.38,0,0,0-2.51-.51v-.4c2.67.16,2.73.16,4.18.21.44,0,.54-.08.54-.32v-6.89h-8.93a9.31,9.31,0,0,0-2.24.17l-.16-1.06a9.32,9.32,0,0,0,2.64.27h2.4v-4.61a19.17,19.17,0,0,0-.1-2.38c2.56.27,3,.35,3,.62s-.33.38-1.08.62v5.75h4.5V411c0-1,0-1.49-.1-2.51.54.08,1,.13,1.24.16,1.29.14,1.67.24,1.67.49s-.27.35-1,.62V413h4.34c.73-.87,1-1.14,1.67-1.95,1.08.92,1.44,1.22,2.49,2.22a.38.38,0,0,1,.08.18c0,.11-.11.17-.27.17h-8.31v3.88h6.82c.76-.94,1-1.21,1.76-2.08,1.21.95,1.59,1.27,2.75,2.3a.37.37,0,0,1,.08.22c0,.08-.13.18-.29.18H373.25Zm-12.69,11.93a29.33,29.33,0,0,0,10.82-3.88,17.33,17.33,0,0,0,5.83-5.78c1.81,1,2.49,1.41,2.49,1.62s-.25.3-.68.3a4.45,4.45,0,0,1-.59,0,21.86,21.86,0,0,1-4.48,4c-3.62,2.48-7.24,3.64-13.28,4.26Zm15.2-13.14a23.47,23.47,0,0,1,5.83,2.38,2.32,2.32,0,0,1,1.26,2.18c0,.65-.21,1.11-.51,1.11s-.38-.14-.65-.46a18,18,0,0,0-2.43-2.35,26.86,26.86,0,0,0-3.64-2.51Z"/><path class="cls-1" d="M399.41,412.93c-1.27,0-1.73.21-2.24,1.11a8.76,8.76,0,0,0-.75,2.29l-.84-.05.75-5.4h12.31v1.59a37.92,37.92,0,0,0-4.1,7.69,36.65,36.65,0,0,0-1.65,5.1,20.33,20.33,0,0,0-.51,3.95c0,1-.4,1.29-1.67,1.29-.87,0-1.27-.3-1.27-.92,0-2.43,3.51-10,7.66-16.65Z"/><path class="cls-1" d="M419.63,420.68a27.16,27.16,0,0,0,5.57-6.32,21.29,21.29,0,0,0,2.78-5.75,13.62,13.62,0,0,0,1.35.46c1.37.48,1.62.59,1.62.78s-.3.35-1.3.49a26.62,26.62,0,0,1-4.51,6.42,23.66,23.66,0,0,1-5.26,4.24Zm11.88-.92a18.54,18.54,0,0,1-2.05,6.88,13,13,0,0,1-5.32,5A18.36,18.36,0,0,1,421,433l-.19-.37c3.73-2.06,5.91-4.27,7.26-7.29a18,18,0,0,0,1.41-5.56h-3.43a14.21,14.21,0,0,0-2.16.19l-.19-1a12.39,12.39,0,0,0,2.32.22h11.5c.49-.46.65-.6,1.14-1a14.21,14.21,0,0,1,1.67,1.19c.21.19.3.3.3.4s-.19.35-.95.73c-.27,5.7-.76,9.23-1.43,10.64-.54,1.13-1.51,1.48-4.7,1.56a1.39,1.39,0,0,0-.86-1.37,13.63,13.63,0,0,0-3.21-.76l0-.49c4,.46,5.11.57,6,.57,1.06,0,1.35-.43,1.7-2.54a68.05,68.05,0,0,0,.6-8.28Zm3.35-11a1.68,1.68,0,0,0,.11.67,14.27,14.27,0,0,0,4.13,5.27,16.77,16.77,0,0,0,6.1,3.13l0,.35A2.9,2.9,0,0,0,443,420a22.46,22.46,0,0,1-5.13-4.35,20.65,20.65,0,0,1-3.27-5.26,3.37,3.37,0,0,0-.86-1.24Z"/><path class="cls-1" d="M55.08,12.47a23.11,23.11,0,0,0,4-3.21A38.84,38.84,0,0,0,65,2a7.68,7.68,0,0,0,.89-2c3,.67,3.18.76,3.18,1s-.43.46-1,.49a17.81,17.81,0,0,0,5.85,5.83A18.85,18.85,0,0,0,80.4,10v.27c-1.11.29-1.43.67-1.94,2.21a23.24,23.24,0,0,1-6-4.32,31.46,31.46,0,0,1-3.73-4.42,9.65,9.65,0,0,1-1.13-2,32.15,32.15,0,0,1-5.83,6.78,28.68,28.68,0,0,1-6.4,4.37Zm11.66,2.89a48.53,48.53,0,0,1-4.61,6.26c4.21-.05,8.31-.27,11-.57a26.86,26.86,0,0,0-3.51-4.18l.22-.27a30.66,30.66,0,0,1,5.4,4,2.63,2.63,0,0,1,1,1.89,4,4,0,0,1-.43,1.67.58.58,0,0,1-.46.27c-.19,0-.3-.1-.46-.4a23,23,0,0,0-1.4-2.46A133.91,133.91,0,0,1,59,23.7c-.27.81-.35.94-.56.94s-.22-.05-.33-.51c-.16-.73-.4-1.83-.54-2.59l2.19.08c.46,0,.81,0,1.13,0a3.58,3.58,0,0,0,.49,0,37.5,37.5,0,0,0,2.89-6.26H58.78a8.93,8.93,0,0,0-1.92.16l-.21-1a8.66,8.66,0,0,0,2.13.22H74.35c.65-.86.84-1.11,1.49-1.89,1.16.86,1.51,1.16,2.62,2.08.05.11.13.21.13.24a.22.22,0,0,1-.24.19ZM60.61,10a11.7,11.7,0,0,0,2.19.22h6.8c.65-.81.84-1,1.51-1.81,1.08.86,1.43,1.13,2.49,2a.33.33,0,0,1,.16.25c0,.1-.11.16-.35.16H62.67c-.46,0-.87,0-1.87.11Z"/><path class="cls-1" d="M84.21,24a16.8,16.8,0,0,0,2.84-3.53,15.74,15.74,0,0,0,1.29-2.57c2.11.73,2.49.89,2.49,1.14s-.22.29-1,.43a22.47,22.47,0,0,1-5.26,4.89ZM93.58,4.51V2.92c0-.79,0-1.65-.11-2.49,2.59.24,2.86.3,2.86.62s-.21.33-1,.6V4.51H96l1.21-1.46c.78.73,1,1,1.78,1.67a.39.39,0,0,1,.11.25c0,.11-.08.16-.35.16H95.33V16.52h.46A12.47,12.47,0,0,1,97,14.93c.71.75,1,1,1.65,1.78a2,2,0,0,1,.06.24c0,.14-.06.19-.3.19H86.43a14.07,14.07,0,0,0-1.92.14l-.13-1a7.8,7.8,0,0,0,2.21.22h.78V5.13H86.1a4.63,4.63,0,0,0-1.59.19l-.13-1a5.83,5.83,0,0,0,1.72.22h1.27V3.4c0-.92-.05-2.19-.13-3,2.62.27,3,.35,3,.65s-.24.38-1.13.59V4.51ZM89.1,8.31h4.48V5.13H89.1Zm0,3.86h4.48V8.93H89.1Zm0,4.35h4.48V12.79H89.1Zm3.35,1.67c2.59.95,3.67,1.73,3.67,2.65,0,.73-.35,1.46-.7,1.46s-.35-.08-.81-1a19.22,19.22,0,0,0-1.27-1.84,13.91,13.91,0,0,0-1.11-1.13Zm8.47-3.69a16.43,16.43,0,0,1-1.62,5.69,14.51,14.51,0,0,1-3.51,4.54l-.43-.3a15.57,15.57,0,0,0,3.4-6.56c.54-2.19.73-5.1.73-10.69a51.15,51.15,0,0,0-.16-6.4,19.89,19.89,0,0,1,2.19,1.27h4l1-1.27c.73.49.95.62,1.62,1.14.22.16.3.27.3.4s-.25.46-.89.78V18.27l0,1.57c0,.49,0,1.08,0,1.84a2.79,2.79,0,0,1-.22,1.4c-.37.7-.86.94-2.72,1.24a1.81,1.81,0,0,0-.68-1.21,4.42,4.42,0,0,0-2.48-.68l0-.46c2.67.19,2.67.19,3.8.19.3,0,.41-.16.41-.51V14.5Zm.27-6a46,46,0,0,1-.19,5.38h4.73V8.5Zm4.54-.62V2.67h-4.54c0,1,0,1.49,0,2,0,.21,0,1.45,0,3.26Z"/><path class="cls-1" d="M55.08,165.52a23.19,23.19,0,0,0,4-3.22A38.47,38.47,0,0,0,65,155a7.84,7.84,0,0,0,.89-2c3,.67,3.18.75,3.18,1s-.43.46-1,.48a17.72,17.72,0,0,0,5.85,5.83A18.85,18.85,0,0,0,80.4,163v.27c-1.11.3-1.43.68-1.94,2.22a23.47,23.47,0,0,1-6-4.32,31,31,0,0,1-3.73-4.43,9.56,9.56,0,0,1-1.13-2,31.86,31.86,0,0,1-5.83,6.77,28.39,28.39,0,0,1-6.4,4.38Zm11.66,2.89a48.53,48.53,0,0,1-4.61,6.26c4.21-.06,8.31-.27,11-.57a26.86,26.86,0,0,0-3.51-4.18l.22-.27a30.18,30.18,0,0,1,5.4,4,2.61,2.61,0,0,1,1,1.89,4.08,4.08,0,0,1-.43,1.67.61.61,0,0,1-.46.27c-.19,0-.3-.11-.46-.41a22.68,22.68,0,0,0-1.4-2.45A133.91,133.91,0,0,1,59,176.75c-.27.81-.35.94-.56.94s-.22-.05-.33-.51c-.16-.73-.4-1.84-.54-2.59l2.19.08c.46,0,.81,0,1.13,0,.08,0,.27,0,.49,0a37.5,37.5,0,0,0,2.89-6.26H58.78a8.34,8.34,0,0,0-1.92.16l-.21-1a8.69,8.69,0,0,0,2.13.21H74.35c.65-.86.84-1.1,1.49-1.88,1.16.86,1.51,1.16,2.62,2.07.05.11.13.22.13.25a.22.22,0,0,1-.24.19Zm-6.13-5.32a12.58,12.58,0,0,0,2.19.21h6.8c.65-.81.84-1.05,1.51-1.8,1.08.86,1.43,1.13,2.49,2a.31.31,0,0,1,.16.24c0,.11-.11.16-.35.16H62.67c-.46,0-.87,0-1.87.11Z"/><path class="cls-1" d="M90.75,161.39c.56-.68.72-.89,1.29-1.51.84.7,1.11.94,1.89,1.7.11.13.16.19.16.27s-.1.16-.29.16H89.5v6.83c1.19-.49,1.71-.73,3.08-1.38l.19.38c-1.54,1.11-2.4,1.7-3.13,2.13l-3.43,2.13c0,1-.13,1.33-.4,1.33-.11,0-.22-.09-.3-.27s-.38-.92-1.05-2.62c.92-.25,1.91-.54,3.29-1V162H86.18a8.18,8.18,0,0,0-1.72.13l-.19-1a6.69,6.69,0,0,0,1.91.22h1.57v-4.78c0-1,0-1.51-.11-2.51,2.62.32,2.94.4,2.94.67s-.24.35-1.08.57v6Zm9.28,7.29a16.68,16.68,0,0,1-2.94,3.61,18.25,18.25,0,0,1-6.69,3.83l-.22-.4a18.55,18.55,0,0,0,5.72-3.94,13.58,13.58,0,0,0,2.22-3.1H95.79a22.72,22.72,0,0,1-6.26,4.26l-.21-.4a18.41,18.41,0,0,0,4.58-3.86,14.19,14.19,0,0,0,2.19-3.08H93.8a10.22,10.22,0,0,0-2.24.16l-.19-1a9.26,9.26,0,0,0,2.43.25h11.6c.68-.73.89-.95,1.57-1.62a26.14,26.14,0,0,1,2.21,1.81.39.39,0,0,1,.16.27c0,.1-.1.16-.32.16H98.14a25.74,25.74,0,0,1-1.78,2.45h9.23a8.44,8.44,0,0,1,1-1,13.7,13.7,0,0,1,1.57,1.18.39.39,0,0,1,.21.3c0,.22-.24.41-.86.67a27.35,27.35,0,0,1-1.43,7.16,3.9,3.9,0,0,1-3,1.59c-.24-1.38-.54-1.56-3.21-1.94l0-.46c1.65.16,2.78.24,3.49.24s1-.13,1.21-.67a26,26,0,0,0,1.08-6.45h-1.4a14.76,14.76,0,0,1-3,4.61,21.21,21.21,0,0,1-4.77,3.54,29.47,29.47,0,0,1-2.7,1.27l-.27-.38a20.67,20.67,0,0,0,6.31-4.94,13.1,13.1,0,0,0,2.59-4.1Zm-3.4-5.43c0,.38-.3.49-1.27.49-.38,0-.48-.09-.48-.36.05-1.91.08-2.88.08-3.77,0-3.22,0-4.86-.08-5.83A21.47,21.47,0,0,1,96.93,155h6.29c.46-.48.59-.64,1-1.1.7.48.92.64,1.54,1.13.19.16.27.27.27.38s-.08.24-.87.65v1.59c0,1.1,0,2.54.06,5.42,0,.25-.06.33-.27.41a6.66,6.66,0,0,1-1.14.13c-.24,0-.35-.08-.35-.29v-.68H96.63Zm6.88-7.67H96.63v2.78h6.88ZM96.63,159v3h6.88v-3Z"/><path class="cls-1" d="M2.51,329.44a18,18,0,0,0,4.89-6.8A19.53,19.53,0,0,0,9,316.75c0-.72-.52-1.26-1.6-1.72a.74.74,0,0,1,.62-.27,6.36,6.36,0,0,1,2.08.78c.7.38,1,.59,1.16.94a32.42,32.42,0,0,0,4.83-3.86c.63-.59.84-.89.84-1.08s-.32-.4-1.59-.4a52.19,52.19,0,0,0-9.31,1.48,18.45,18.45,0,0,0-2.76.95,1.6,1.6,0,0,1-.62.13c-.59,0-1.56-.81-2.16-1.8A3.8,3.8,0,0,1,0,310.44a1.19,1.19,0,0,1,.19-.62,2.62,2.62,0,0,0,2.67,1.62,55.52,55.52,0,0,0,6.51-.7c.24,0,.83-.11,1.86-.22,4.18-.49,4.4-.54,5-.81a1,1,0,0,1,.35-.08,3.06,3.06,0,0,1,1.43.78c1.16.89,1.94,1.81,1.94,2.27s-.16.51-1,.73a6,6,0,0,0-1.32.56c-2.24,1.27-3.46,1.89-6.37,3.27-.17.46-.19.51-.41,1.22-1.21,3.69-2.27,5.8-3.89,7.71a16.64,16.64,0,0,1-4.18,3.62Z"/><path class="cls-1" d="M29.78,319.62A30.23,30.23,0,0,0,35.45,313a9.82,9.82,0,0,0,1.78-3.64,1.1,1.1,0,0,0-.51-.92,3.23,3.23,0,0,0-.65-.48,4.24,4.24,0,0,1-.49-.25,1,1,0,0,1,.52-.16,5,5,0,0,1,2.21.73c.86.48,1.27.94,1.27,1.38s0,.35-1.46,2.45a3,3,0,0,0,.7.11,19.31,19.31,0,0,0,3.24-.54A8.21,8.21,0,0,0,44.2,311a.73.73,0,0,1,.45-.16c.65,0,2.19,1.4,2.19,2,0,.24-.08.38-.4.67a5.56,5.56,0,0,0-1.3,1.92,31.8,31.8,0,0,1-8,10.15,24.3,24.3,0,0,1-6.7,4.21l-.19-.38a30.28,30.28,0,0,0,6-4.83,33.23,33.23,0,0,0,7.37-10.69,4.51,4.51,0,0,0,.43-1.38c0-.11-.08-.19-.24-.19a20.71,20.71,0,0,0-3.43.87,2.53,2.53,0,0,1-.89.19,2.43,2.43,0,0,1-1.67-.79,27.08,27.08,0,0,1-7.78,7.4Z"/><path class="cls-1" d="M69.12,321.48a40.38,40.38,0,0,0,4.15-4.94,4.56,4.56,0,0,0,.68-1.11.18.18,0,0,0-.19-.19,16.72,16.72,0,0,0-3.64,1.11c-3.24,1.13-3.7,1.32-4.78,1.75-.06,1.25-.06,1.7-.06,2.49,0,2.72.14,4,.54,4.61s1.35.95,3.05.95a15.18,15.18,0,0,0,4.89-.7c.35-.14.4-.17.54-.17a2.28,2.28,0,0,1,1,.44,1.47,1.47,0,0,1,.81,1.13c0,.32-.21.54-.62.62a20.28,20.28,0,0,1-4.45.35c-3.84,0-5.62-.57-6.43-2.08-.59-1.05-.78-2.72-.83-7.12a12,12,0,0,1-1.33.56c-.19.08-.54.25-1,.46l-.84.41a4.51,4.51,0,0,0-.75.4,1.56,1.56,0,0,1-.87.3,3.1,3.1,0,0,1-2-1.4,3.37,3.37,0,0,1-.75-1.62,1.76,1.76,0,0,1,0-.33c.84,1,1.41,1.35,2.19,1.35a29.18,29.18,0,0,0,5.34-1.4c-.05-5.1-.05-5.35-.24-6s-.84-1.19-2-1.51a1,1,0,0,1,.92-.35,6.89,6.89,0,0,1,3,.81c.54.29.81.64.81,1,0,.16,0,.16-.22.64a18,18,0,0,0-.7,5c3.13-1.05,5-1.67,5.8-2a5.78,5.78,0,0,0,2-.94,1,1,0,0,1,.7-.27A4,4,0,0,1,76,314.84c.59.54.83.86.83,1.19s-.13.48-.75.72A21,21,0,0,0,73.27,319a46.57,46.57,0,0,1-3.88,2.83Z"/><path class="cls-1" d="M85.83,328A38.68,38.68,0,0,0,93.09,322a47.35,47.35,0,0,0,5.16-6.72,18.66,18.66,0,0,0,1.84-3.48,28.76,28.76,0,0,0-5.7,1.19,14.18,14.18,0,0,0-2.27.73,1.3,1.3,0,0,1-.46.08c-.59,0-1.16-.49-1.75-1.54a3.33,3.33,0,0,1-.57-1.62,1.13,1.13,0,0,1,.19-.54c.78,1.4,1.35,1.81,2.54,1.81a42.22,42.22,0,0,0,5.67-.76,6.77,6.77,0,0,0,2.53-.75,1.08,1.08,0,0,1,.63-.24c.56,0,2.1,1.37,2.1,1.88a.64.64,0,0,1-.35.52c-.57.38-.57.38-1.54,1.83a56.19,56.19,0,0,1-3.4,4.7c3.81,2,5.94,3.37,7,4.56a3.58,3.58,0,0,1,1,2.67c0,.87-.27,1.41-.73,1.41a.85.85,0,0,1-.62-.43,8.52,8.52,0,0,1-.65-1.08,23.23,23.23,0,0,0-6.42-6.62,29.61,29.61,0,0,1-6.54,6.08,24.39,24.39,0,0,1-4.72,2.64Z"/></g></g></svg>