<svg xmlns="http://www.w3.org/2000/svg" viewBox="0 0 832.99 204.58"><defs><style>.cls-1{fill:#fff;}</style></defs><g id="レイヤー_2" data-name="レイヤー 2"><g id="レイヤー_1-2" data-name="レイヤー 1"><path class="cls-1" d="M53.88.34a14.13,14.13,0,0,0,3.53,3.75,22.43,22.43,0,0,0,5.8,3.36,4.48,4.48,0,0,0-.82,1.35,28.82,28.82,0,0,1-5.84-3.66,17.21,17.21,0,0,1-3.36-3.59A18.1,18.1,0,0,1,50,5a22.9,22.9,0,0,1-5.67,3.69,4,4,0,0,0-.88-1.19,22.38,22.38,0,0,0,5.57-3.43A15.31,15.31,0,0,0,52.39.34ZM46.79,12.05a17,17,0,0,0-2.4.13V10.67a19,19,0,0,0,2.4.12H59.72a18.89,18.89,0,0,0,2.4-.12v1.51a17.32,17.32,0,0,0-2.4-.13H52.18a31.4,31.4,0,0,1-2.62,5c2.9-.19,5.08-.4,8.19-.78-1.26-1.36-1.64-1.74-2.56-2.6L56.28,13a44.41,44.41,0,0,1,5.08,5.54l-1.15.86c-.82-1.16-1.1-1.51-1.54-2.06-3.74.5-6.91.84-10.18,1.09a24.06,24.06,0,0,0-3.55.38l-.25-1.6a8,8,0,0,0,1.07.07c.34,0,.34,0,2.22-.13a31.56,31.56,0,0,0,2.67-5.06Zm1.34-5.23a10.06,10.06,0,0,0,1.66.09h6.78a11.7,11.7,0,0,0,1.77-.09V8.23a13.73,13.73,0,0,0-1.77-.08h-6.8a12.71,12.71,0,0,0-1.64.08Z"/><path class="cls-1" d="M68.4,2.48a12.54,12.54,0,0,0-.13-2h1.47a14.32,14.32,0,0,0-.1,2v.38H73.5v-.4a11.44,11.44,0,0,0-.11-2h1.45a13.36,13.36,0,0,0-.12,2v.38a9.24,9.24,0,0,0,1.74-.13V4.09A12.19,12.19,0,0,0,74.72,4v9a10.66,10.66,0,0,0,1.66-.11v1.3c-.49,0-1.1-.06-1.92-.06H67.83a9.22,9.22,0,0,0-1.7.1V12.87a8,8,0,0,0,1.68.11h.59V4h-.13a8.89,8.89,0,0,0-1.8.11V2.75a8.93,8.93,0,0,0,1.8.13h.13Zm2.16,13a12.08,12.08,0,0,1-3.27,3.63,3.1,3.1,0,0,0-1-1,8.42,8.42,0,0,0,3.15-3.28ZM73.5,6.19V4H69.64V6.19Zm0,3.28V7.26H69.64V9.47Zm0,3.51V10.54H69.64V13Zm-.32,1.84A8,8,0,0,0,75.24,17a4.07,4.07,0,0,0-1,.9,10.45,10.45,0,0,1-2-2.42Zm5.36-2.39a11.2,11.2,0,0,1-2.46,6.8,3.13,3.13,0,0,0-1-1,8.13,8.13,0,0,0,2.08-4.75,94.16,94.16,0,0,0,.36-9.74A19.36,19.36,0,0,0,77.4,1.3a15.5,15.5,0,0,0,2,.09h2.9a14.71,14.71,0,0,0,2-.09,17.66,17.66,0,0,0-.08,2V17.49c0,.71-.19,1.15-.57,1.36a4,4,0,0,1-1.7.24c-.29,0-.52,0-1.66-.09A5.49,5.49,0,0,0,80,17.51a11.44,11.44,0,0,0,2.31.27c.5,0,.67-.12.67-.46V12.43Zm.19-5c0,2.06,0,2.5-.13,3.84H83V7.41ZM83,2.56h-4.2V6.24H83Z"/><path class="cls-1" d="M113.76,17.57a14.06,14.06,0,0,0-2.31.11,9.42,9.42,0,0,1,.61-2.77,9,9,0,0,1,2.73-3.61A27.51,27.51,0,0,1,118,9c2.08-1.41,2.77-2.33,2.77-3.61,0-1.6-1.34-2.63-3.48-2.63a3.46,3.46,0,0,0-3.05,1.37,4.15,4.15,0,0,0-.73,2.12l-1.77-.3a5.78,5.78,0,0,1,1.32-3,5.4,5.4,0,0,1,4.23-1.62c3.17,0,5.2,1.6,5.2,4.08a4.39,4.39,0,0,1-1.24,3,16.65,16.65,0,0,1-3.57,2.71,11.49,11.49,0,0,0-3,2.58,5.9,5.9,0,0,0-1.2,2.43h6.7a19.23,19.23,0,0,0,2.56-.14V17.7a24.52,24.52,0,0,0-2.58-.13Z"/><path class="cls-1" d="M129.4,16.4a5.33,5.33,0,0,1-1.26-1.93,14.64,14.64,0,0,1-.8-4.85,12.29,12.29,0,0,1,1.22-5.71,5.46,5.46,0,0,1,9.81.84,14.5,14.5,0,0,1,.8,4.87,11,11,0,0,1-1.47,6.06,5.14,5.14,0,0,1-4.46,2.21A5.27,5.27,0,0,1,129.4,16.4Zm1.22-12.56a4.22,4.22,0,0,0-.94,1.54A12.74,12.74,0,0,0,129,9.62a11.5,11.5,0,0,0,1,5,3.59,3.59,0,0,0,3.26,1.83,3.5,3.5,0,0,0,2.58-1,4.05,4.05,0,0,0,1-1.63,12.84,12.84,0,0,0,.66-4.25,11.85,11.85,0,0,0-1-4.89,3.55,3.55,0,0,0-3.3-1.91A3.42,3.42,0,0,0,130.62,3.84Z"/><path class="cls-1" d="M146.05,17.57a14,14,0,0,0-2.3.11,9.85,9.85,0,0,1,.6-2.77,9.21,9.21,0,0,1,2.73-3.61A29.24,29.24,0,0,1,150.3,9c2.08-1.41,2.77-2.33,2.77-3.61,0-1.6-1.35-2.63-3.49-2.63a3.46,3.46,0,0,0-3,1.37,4.24,4.24,0,0,0-.74,2.12L144,5.94a5.7,5.7,0,0,1,1.32-3,5.37,5.37,0,0,1,4.22-1.62c3.17,0,5.21,1.6,5.21,4.08a4.39,4.39,0,0,1-1.24,3A16.65,16.65,0,0,1,150,11.07a11.32,11.32,0,0,0-3,2.58,5.9,5.9,0,0,0-1.2,2.43h6.7a19.23,19.23,0,0,0,2.56-.14V17.7a24.52,24.52,0,0,0-2.58-.13Z"/><path class="cls-1" d="M162.2,17.57a14.21,14.21,0,0,0-2.31.11,9.77,9.77,0,0,1,.61-2.77,9.21,9.21,0,0,1,2.73-3.61A29.24,29.24,0,0,1,166.45,9c2.07-1.41,2.77-2.33,2.77-3.61,0-1.6-1.35-2.63-3.49-2.63a3.46,3.46,0,0,0-3,1.37A4.24,4.24,0,0,0,162,6.24l-1.76-.3a5.7,5.7,0,0,1,1.32-3,5.37,5.37,0,0,1,4.22-1.62c3.17,0,5.21,1.6,5.21,4.08a4.39,4.39,0,0,1-1.24,3,17,17,0,0,1-3.57,2.71,11.32,11.32,0,0,0-3,2.58,5.9,5.9,0,0,0-1.2,2.43h6.7a19.23,19.23,0,0,0,2.56-.14V17.7a24.52,24.52,0,0,0-2.58-.13Z"/><path class="cls-1" d="M182.41,8.5a12.19,12.19,0,0,0-.07-1.24,13.07,13.07,0,0,0,1.49.07h4.56V3.91h-4.93A17.49,17.49,0,0,1,180,8.19a3.47,3.47,0,0,0-1-1,13.69,13.69,0,0,0,4.2-5.65A9.08,9.08,0,0,0,183.69,0l1.49.42c-.09.17-.15.32-.28.57l-.79,1.7h10.41a10.4,10.4,0,0,0,1.89-.11V4a12.08,12.08,0,0,0-1.89-.1h-4.74V7.33h3.8a10.49,10.49,0,0,0,1.86-.11V8.61a15.54,15.54,0,0,0-1.84-.09h-3.82v4.12h5.29a13.34,13.34,0,0,0,2.12-.13V14a14.22,14.22,0,0,0-2.12-.13h-5.29v3.46a10.1,10.1,0,0,0,.14,2h-1.66a9,9,0,0,0,.13-2V13.9h-7.58a14.22,14.22,0,0,0-2.12.13V12.51a13.68,13.68,0,0,0,2.12.13h1.6Zm6,4.14V8.52h-4.62v4.12Z"/><path class="cls-1" d="M206.32,13.69a3.19,3.19,0,0,0,1.29,2,4.55,4.55,0,0,0,2.7.76c2.44,0,4-1.26,4-3.25S212.79,10,210,10a15.45,15.45,0,0,0-1.68.11V8.42a9.34,9.34,0,0,0,1.55.13,4.2,4.2,0,0,0,3.07-1,2.91,2.91,0,0,0,.84-2c0-1.8-1.26-2.85-3.38-2.85a3.27,3.27,0,0,0-2.79,1.11,3.85,3.85,0,0,0-.68,1.49l-1.74-.38a4.9,4.9,0,0,1,1.13-2.1,5.5,5.5,0,0,1,4.18-1.53c3.05,0,5,1.6,5,4.12A3.69,3.69,0,0,1,214,8.46a4.34,4.34,0,0,1-2,.76,4.46,4.46,0,0,1,2.58.9A3.86,3.86,0,0,1,216,13.29c0,2.83-2.19,4.6-5.7,4.6a6,6,0,0,1-4.7-1.72,5.58,5.58,0,0,1-1.07-2Z"/><path class="cls-1" d="M228.33,12.35a14.56,14.56,0,0,1-.86,3.25,11,11,0,0,1-2.31,3.65A5,5,0,0,0,224,18.14,8.76,8.76,0,0,0,226.48,14c.59-2,.82-4.58.82-9.24,0-1.93,0-2.77-.08-3.57a18.61,18.61,0,0,0,2.2.1h7.9a17.66,17.66,0,0,0,2.18-.1,19.27,19.27,0,0,0-.08,2.16V17.2a1.61,1.61,0,0,1-.59,1.47,3,3,0,0,1-1.68.27c-.69,0-1.57,0-2.52-.09a5.64,5.64,0,0,0-.34-1.42,22.19,22.19,0,0,0,3,.21c.61,0,.77-.13.77-.65V12.35Zm9.74-1.26V7.35h-9.36c0,1.15-.06,2-.23,3.74Zm0-5V2.6h-9.34l0,3v.51Z"/><path class="cls-1" d="M249,1.51a9.45,9.45,0,0,0,1.74.11h1.32a11.27,11.27,0,0,0,1.75-.11A33.31,33.31,0,0,0,253.64,5V15.2a13.94,13.94,0,0,0,.16,2.37h-2A12.78,12.78,0,0,0,252,15.2V3h-1.14a13.21,13.21,0,0,0-1.82.13Z"/><path class="cls-1" d="M270.46,10.12a3.88,3.88,0,0,1,1.57,3.3c0,2.87-2.1,4.49-5.79,4.49-3.85,0-6-1.6-6-4.49a3.91,3.91,0,0,1,1.87-3.49A4.27,4.27,0,0,1,264,9.22a3.66,3.66,0,0,1-3-3.78c0-2.54,2-4.16,5.16-4.16s5.19,1.58,5.19,4.16a3.66,3.66,0,0,1-3,3.78A4.24,4.24,0,0,1,270.46,10.12ZM262,13.31c0,2,1.53,3.17,4.13,3.17a4.75,4.75,0,0,0,3.38-1.09,2.73,2.73,0,0,0,.8-2.08c0-2.06-1.57-3.29-4.16-3.29S262,11.28,262,13.31Zm.62-7.75c0,1.87,1.35,3,3.55,3s3.53-1.14,3.53-3-1.38-2.87-3.55-2.87S262.62,3.82,262.62,5.56Z"/><path class="cls-1" d="M283.5,3.4a13.82,13.82,0,0,0-.11-2.06,16.22,16.22,0,0,0,2.25.11h9.45a14.29,14.29,0,0,0,2.16-.11,14,14,0,0,0-.1,1.94V16.73a16.86,16.86,0,0,0,.12,2.25h-1.53V17.62H284.91V19h-1.54a15.18,15.18,0,0,0,.13-2.23Zm1.41,5.21h10.83V2.73H284.91Zm0,7.72h10.83V9.89H284.91Z"/><path class="cls-1" d="M313.13,21a17.12,17.12,0,0,1-2.23-4.39,17.3,17.3,0,0,1-.86-5.46,17.3,17.3,0,0,1,.86-5.46,17.16,17.16,0,0,1,2.23-4.36l1.32.84a14.93,14.93,0,0,0-2.1,4.24,15.5,15.5,0,0,0-.71,4.74,15.69,15.69,0,0,0,.71,4.77,15.06,15.06,0,0,0,2.1,4.24Z"/><path class="cls-1" d="M324.64,15.12a12.75,12.75,0,0,0,.17,2.45h-2a12.75,12.75,0,0,0,.17-2.45V4a14.2,14.2,0,0,0-.17-2.4c.74.05,1.3.07,2.31.07h5.57a15.7,15.7,0,0,0,2.41-.15V3.25a15.41,15.41,0,0,0-2.41-.14h-6.05V8.52h4.91a17,17,0,0,0,2.4-.14v1.76a15.33,15.33,0,0,0-2.4-.15h-4.91Z"/><path class="cls-1" d="M345.74,7.87a5,5,0,0,0-1.7-.31,3.09,3.09,0,0,0-2.58,1.28,3.51,3.51,0,0,0-.78,2.1v4.28a15.65,15.65,0,0,0,.15,2.35h-1.89a20.1,20.1,0,0,0,.15-2.37V8.63a15.72,15.72,0,0,0-.15-2.37h1.74V7.45c0,.17,0,.49,0,.63a3.77,3.77,0,0,1,1.16-1.28,4.19,4.19,0,0,1,2.51-.73,9.42,9.42,0,0,1,1.87.19Z"/><path class="cls-1" d="M353.18,1.62V3.49h-2V1.62Zm-.09,4.64A15.7,15.7,0,0,0,353,8.63V15.2a17.27,17.27,0,0,0,.14,2.37H351.2a17.34,17.34,0,0,0,.15-2.37V8.63a14.66,14.66,0,0,0-.15-2.37Z"/><path class="cls-1" d="M361.87,1.37a17.16,17.16,0,0,1,2.23,4.36,16.75,16.75,0,0,1,.86,5.46,16.62,16.62,0,0,1-.86,5.46A17.12,17.12,0,0,1,361.87,21l-1.32-.84a15.06,15.06,0,0,0,2.1-4.24,15.6,15.6,0,0,0,.71-4.77,15.41,15.41,0,0,0-.71-4.74,14.93,14.93,0,0,0-2.1-4.24Z"/><path class="cls-1" d="M372.06,10.58a11.19,11.19,0,0,0,1.91.11h2.49a11.51,11.51,0,0,0,1.94-.11v1.77a11.65,11.65,0,0,0-1.94-.11H374a11.55,11.55,0,0,0-1.91.11Z"/><path class="cls-1" d="M386.57,13.69a3.14,3.14,0,0,0,1.28,2,4.55,4.55,0,0,0,2.7.76c2.44,0,4-1.26,4-3.25S393,10,390.24,10a15.45,15.45,0,0,0-1.68.11V8.42a9.34,9.34,0,0,0,1.55.13,4.2,4.2,0,0,0,3.07-1,2.86,2.86,0,0,0,.84-2c0-1.8-1.26-2.85-3.38-2.85a3.27,3.27,0,0,0-2.79,1.11,4,4,0,0,0-.68,1.49l-1.74-.38a4.8,4.8,0,0,1,1.14-2.1,5.47,5.47,0,0,1,4.17-1.53c3.05,0,5,1.6,5,4.12a3.69,3.69,0,0,1-1.47,3.06,4.29,4.29,0,0,1-2,.76,4.43,4.43,0,0,1,2.58.9,3.86,3.86,0,0,1,1.41,3.17c0,2.83-2.19,4.6-5.69,4.6a6,6,0,0,1-4.71-1.72,5.58,5.58,0,0,1-1.07-2Z"/><path class="cls-1" d="M408.57,12.35a14.56,14.56,0,0,1-.86,3.25,11,11,0,0,1-2.31,3.65,4.84,4.84,0,0,0-1.15-1.11A8.86,8.86,0,0,0,406.73,14c.58-2,.81-4.58.81-9.24,0-1.93,0-2.77-.08-3.57a18.79,18.79,0,0,0,2.21.1h7.89a17.66,17.66,0,0,0,2.18-.1,19.27,19.27,0,0,0-.08,2.16V17.2a1.61,1.61,0,0,1-.59,1.47,3,3,0,0,1-1.68.27c-.69,0-1.57,0-2.52-.09a6.08,6.08,0,0,0-.33-1.42,22,22,0,0,0,3,.21c.61,0,.78-.13.78-.65V12.35Zm9.75-1.26V7.35H409c0,1.15-.06,2-.23,3.74Zm0-5V2.6H409l0,3v.51Z"/><path class="cls-1" d="M432.37,17.57a14.06,14.06,0,0,0-2.31.11,9.42,9.42,0,0,1,.61-2.77,9.09,9.09,0,0,1,2.72-3.61A29.24,29.24,0,0,1,436.61,9c2.08-1.41,2.77-2.33,2.77-3.61,0-1.6-1.34-2.63-3.49-2.63a3.46,3.46,0,0,0-3,1.37,4.24,4.24,0,0,0-.74,2.12l-1.76-.3a5.78,5.78,0,0,1,1.32-3,5.39,5.39,0,0,1,4.22-1.62c3.17,0,5.21,1.6,5.21,4.08a4.39,4.39,0,0,1-1.24,3,16.65,16.65,0,0,1-3.57,2.71,11.32,11.32,0,0,0-3,2.58,5.9,5.9,0,0,0-1.2,2.43h6.7a19.23,19.23,0,0,0,2.56-.14V17.7a24.52,24.52,0,0,0-2.58-.13Z"/><path class="cls-1" d="M446.75,16.4a5.2,5.2,0,0,1-1.26-1.93,14.64,14.64,0,0,1-.8-4.85,12.29,12.29,0,0,1,1.22-5.71,5.63,5.63,0,0,1,8.55-1.1,5.49,5.49,0,0,1,1.26,1.94,14.5,14.5,0,0,1,.79,4.87A10.87,10.87,0,0,1,455,15.68a5.11,5.11,0,0,1-4.45,2.21A5.27,5.27,0,0,1,446.75,16.4ZM448,3.84a4.39,4.39,0,0,0-1,1.54,13,13,0,0,0-.65,4.24,11.5,11.5,0,0,0,1,5,3.59,3.59,0,0,0,3.26,1.83,3.51,3.51,0,0,0,2.58-1,4.05,4.05,0,0,0,1-1.63,13.11,13.11,0,0,0,.65-4.25,11.86,11.86,0,0,0-.94-4.89,3.55,3.55,0,0,0-3.3-1.91A3.42,3.42,0,0,0,448,3.84Z"/><path class="cls-1" d="M466.26,3.4a15.48,15.48,0,0,0-.1-2.06,16,16,0,0,0,2.24.11h9.45A14.21,14.21,0,0,0,480,1.34a14,14,0,0,0-.1,1.94V16.73A16.86,16.86,0,0,0,480,19H478.5V17.62H467.67V19h-1.54a15.18,15.18,0,0,0,.13-2.23Zm1.41,5.21H478.5V2.73H467.67Zm0,7.72H478.5V9.89H467.67Z"/><path class="cls-1" d="M495.89,21a16.73,16.73,0,0,1-2.22-4.39,17,17,0,0,1-.87-5.46,17,17,0,0,1,.87-5.46,16.76,16.76,0,0,1,2.22-4.36l1.32.84a14.87,14.87,0,0,0-2.09,4.24,15.21,15.21,0,0,0-.72,4.74,15.4,15.4,0,0,0,.72,4.77,15,15,0,0,0,2.09,4.24Z"/><path class="cls-1" d="M513.11,5.75A3.5,3.5,0,0,0,512.38,4a3.91,3.91,0,0,0-3.11-1.22c-2.16,0-3.68,1.16-3.68,2.86A2.47,2.47,0,0,0,507.42,8a15.85,15.85,0,0,0,3,.76c3.36.71,4.7,2,4.7,4.43,0,3-2,4.64-5.64,4.64-2.35,0-4.1-.7-5.06-2a5.33,5.33,0,0,1-1-2.77l1.83-.23a3.26,3.26,0,0,0,.65,2.08,4.25,4.25,0,0,0,3.5,1.45c2.5,0,4-1.18,4-3.13A2.4,2.4,0,0,0,512.21,11c-.7-.4-.93-.46-3.47-1a9.37,9.37,0,0,1-2.85-1,3.59,3.59,0,0,1-1.95-3.32c0-2.65,2.11-4.35,5.37-4.35A5.53,5.53,0,0,1,514,3.28a4.85,4.85,0,0,1,.92,2.22Z"/><path class="cls-1" d="M529.26,16.21a6.68,6.68,0,0,1,.06-.92,4.58,4.58,0,0,1-4.24,2.49,3.82,3.82,0,0,1-3.36-1.55,4.59,4.59,0,0,1-.59-2.44V8.61A15.76,15.76,0,0,0,521,6.26h1.89a15.41,15.41,0,0,0-.15,2.37v4.89c0,1.87.9,2.92,2.54,2.92a3.59,3.59,0,0,0,3-1.66,4.85,4.85,0,0,0,1-2.1v-4a15.58,15.58,0,0,0-.15-2.37H531a16.28,16.28,0,0,0-.15,2.37V15.2a14.76,14.76,0,0,0,.17,2.37h-1.74Z"/><path class="cls-1" d="M537.18,17.57a13.86,13.86,0,0,0,.17-2.37V8.63a14.76,14.76,0,0,0-.17-2.37h1.74V7.68a6,6,0,0,1-.06.91,4.55,4.55,0,0,1,4.24-2.54,3.79,3.79,0,0,1,3.36,1.57A4.29,4.29,0,0,1,547,10v5.18a14.72,14.72,0,0,0,.15,2.35H545.3a16.2,16.2,0,0,0,.15-2.37V10.31c0-1.89-.9-2.9-2.56-2.9a3.69,3.69,0,0,0-3,1.66,4.55,4.55,0,0,0-1,2.08v4a16.2,16.2,0,0,0,.15,2.37Z"/><path class="cls-1" d="M555,1.37a16.76,16.76,0,0,1,2.22,4.36,16.49,16.49,0,0,1,.86,5.46,16.37,16.37,0,0,1-.86,5.46A16.73,16.73,0,0,1,555,21l-1.32-.84A15,15,0,0,0,555.8,16a15.31,15.31,0,0,0,.72-4.77,15.12,15.12,0,0,0-.72-4.74,14.87,14.87,0,0,0-2.09-4.24Z"/><path class="cls-1" d="M588,1.51a9.45,9.45,0,0,0,1.74.11h1.32a11.06,11.06,0,0,0,1.74-.11c-.12,1.28-.18,2.35-.18,3.49V15.2a13.94,13.94,0,0,0,.16,2.37h-2A13.7,13.7,0,0,0,591,15.2V3h-1.14a13.21,13.21,0,0,0-1.82.13Z"/><path class="cls-1" d="M603.31,1.51a9.45,9.45,0,0,0,1.74.11h1.32a11.06,11.06,0,0,0,1.74-.11c-.12,1.28-.18,2.35-.18,3.49V15.2a13.94,13.94,0,0,0,.16,2.37h-2a13.7,13.7,0,0,0,.17-2.37V3h-1.14a13.1,13.1,0,0,0-1.82.13Z"/><path class="cls-1" d="M618.78,8.34H616.7V6.26h2.08Zm-2.08,9.23V15.5h2.08v2.07Z"/><path class="cls-1" d="M624.83,16.4a5.2,5.2,0,0,1-1.26-1.93,14.64,14.64,0,0,1-.8-4.85A12.29,12.29,0,0,1,624,3.91a5.63,5.63,0,0,1,8.55-1.1,5.49,5.49,0,0,1,1.26,1.94,14.5,14.5,0,0,1,.79,4.87,10.87,10.87,0,0,1-1.47,6.06,5.12,5.12,0,0,1-4.45,2.21A5.27,5.27,0,0,1,624.83,16.4Zm1.22-12.56a4.39,4.39,0,0,0-.95,1.54,13,13,0,0,0-.65,4.24,11.5,11.5,0,0,0,1,5,3.59,3.59,0,0,0,3.26,1.83,3.51,3.51,0,0,0,2.58-1,4.17,4.17,0,0,0,1-1.63,12.85,12.85,0,0,0,.65-4.25A11.86,11.86,0,0,0,632,4.68a3.55,3.55,0,0,0-3.3-1.91A3.42,3.42,0,0,0,626.05,3.84Z"/><path class="cls-1" d="M640.14,16.4a5.2,5.2,0,0,1-1.26-1.93,14.64,14.64,0,0,1-.8-4.85,12.17,12.17,0,0,1,1.22-5.71A5.16,5.16,0,0,1,644,1.32a5.21,5.21,0,0,1,3.85,1.49,5.49,5.49,0,0,1,1.26,1.94,14.5,14.5,0,0,1,.79,4.87,10.87,10.87,0,0,1-1.47,6.06A5.14,5.14,0,0,1,644,17.89,5.27,5.27,0,0,1,640.14,16.4Zm1.22-12.56a4.39,4.39,0,0,0-1,1.54,13,13,0,0,0-.65,4.24,11.5,11.5,0,0,0,1,5A3.57,3.57,0,0,0,644,16.44a3.52,3.52,0,0,0,2.59-1,4.17,4.17,0,0,0,1-1.63,13.11,13.11,0,0,0,.65-4.25,12,12,0,0,0-.94-4.89A3.55,3.55,0,0,0,644,2.77,3.42,3.42,0,0,0,641.36,3.84Z"/><path class="cls-1" d="M658.45,10.58a11.33,11.33,0,0,0,1.91.11h2.5a11.38,11.38,0,0,0,1.93-.11v1.77a11.52,11.52,0,0,0-1.93-.11h-2.5a11.62,11.62,0,0,0-1.91.11Z"/><path class="cls-1" d="M670.27,1.51a9.63,9.63,0,0,0,1.75.11h1.32a11.14,11.14,0,0,0,1.74-.11c-.12,1.28-.19,2.35-.19,3.49V15.2a13.86,13.86,0,0,0,.17,2.37h-2a13.79,13.79,0,0,0,.16-2.37V3H672.1a13.36,13.36,0,0,0-1.83.13Z"/><path class="cls-1" d="M685.29,14.09a3.33,3.33,0,0,0,.75,1.34,3.45,3.45,0,0,0,2.65,1,3.63,3.63,0,0,0,3.38-1.93,8.18,8.18,0,0,0,.9-2.69,21.42,21.42,0,0,0,.19-2.46,4.09,4.09,0,0,1-.84,1.18,5.77,5.77,0,0,1-7.6.08,5.37,5.37,0,0,1-1.43-3.78c0-3.33,2.25-5.52,5.69-5.52a5.27,5.27,0,0,1,5.09,3.53,12.71,12.71,0,0,1,.6,4.37c0,2.92-.6,5.29-1.74,6.69a5.13,5.13,0,0,1-4.37,2A5.28,5.28,0,0,1,685,16.71a5.24,5.24,0,0,1-1.47-2.08Zm7.47-7.39a3.85,3.85,0,0,0-3.92-4,3.89,3.89,0,0,0-3.34,1.78A4.43,4.43,0,0,0,685,6.72a3.54,3.54,0,0,0,3.74,3.86A3.88,3.88,0,0,0,692.76,6.7Z"/><path class="cls-1" d="M701.06,8.34H699V6.26h2.08ZM699,17.57V15.5h2.08v2.07Z"/><path class="cls-1" d="M707.11,16.4a5.2,5.2,0,0,1-1.26-1.93,14.39,14.39,0,0,1-.8-4.85,12.17,12.17,0,0,1,1.22-5.71,5.61,5.61,0,0,1,8.54-1.1,5.23,5.23,0,0,1,1.26,1.94,14.26,14.26,0,0,1,.8,4.87,11,11,0,0,1-1.47,6.06A5.14,5.14,0,0,1,711,17.89,5.26,5.26,0,0,1,707.11,16.4Zm1.22-12.56a4.25,4.25,0,0,0-1,1.54,13,13,0,0,0-.65,4.24,11.5,11.5,0,0,0,1,5A3.56,3.56,0,0,0,711,16.44a3.5,3.5,0,0,0,2.58-1,4.07,4.07,0,0,0,1-1.63,13.11,13.11,0,0,0,.65-4.25,12,12,0,0,0-.94-4.89A3.56,3.56,0,0,0,711,2.77,3.42,3.42,0,0,0,708.33,3.84Z"/><path class="cls-1" d="M722.42,16.4a5.2,5.2,0,0,1-1.26-1.93,14.39,14.39,0,0,1-.8-4.85,12.17,12.17,0,0,1,1.22-5.71,5.61,5.61,0,0,1,8.54-1.1,5.23,5.23,0,0,1,1.26,1.94,14.26,14.26,0,0,1,.8,4.87,11,11,0,0,1-1.47,6.06,5.14,5.14,0,0,1-4.45,2.21A5.26,5.26,0,0,1,722.42,16.4Zm1.21-12.56a4.36,4.36,0,0,0-.94,1.54A13,13,0,0,0,722,9.62a11.5,11.5,0,0,0,1,5,3.56,3.56,0,0,0,3.25,1.83,3.5,3.5,0,0,0,2.58-1,4.19,4.19,0,0,0,1-1.63,13.11,13.11,0,0,0,.65-4.25,12,12,0,0,0-.94-4.89,3.56,3.56,0,0,0-3.3-1.91A3.46,3.46,0,0,0,723.63,3.84Z"/><path class="cls-1" d="M53.88,73.84a14.13,14.13,0,0,0,3.53,3.75A22.43,22.43,0,0,0,63.21,81a4.48,4.48,0,0,0-.82,1.35,28.82,28.82,0,0,1-5.84-3.66,17.21,17.21,0,0,1-3.36-3.59A18.1,18.1,0,0,1,50,78.5a22.9,22.9,0,0,1-5.67,3.69A4,4,0,0,0,43.49,81a22.38,22.38,0,0,0,5.57-3.43,15.31,15.31,0,0,0,3.33-3.73ZM46.79,85.55a17,17,0,0,0-2.4.13V84.17a19,19,0,0,0,2.4.12H59.72a18.89,18.89,0,0,0,2.4-.12v1.51a17.32,17.32,0,0,0-2.4-.13H52.18a31.4,31.4,0,0,1-2.62,5c2.9-.19,5.08-.4,8.19-.78-1.26-1.36-1.64-1.74-2.56-2.6l1.09-.67A44.41,44.41,0,0,1,61.36,92l-1.15.86c-.82-1.16-1.1-1.51-1.54-2.06-3.74.5-6.91.84-10.18,1.09a24.06,24.06,0,0,0-3.55.38l-.25-1.59a10,10,0,0,0,1.07.06c.34,0,.34,0,2.22-.13a31.56,31.56,0,0,0,2.67-5.06Zm1.34-5.23a10.06,10.06,0,0,0,1.66.09h6.78a11.7,11.7,0,0,0,1.77-.09v1.41a13.73,13.73,0,0,0-1.77-.08h-6.8a12.71,12.71,0,0,0-1.64.08Z"/><path class="cls-1" d="M69,76.23a17.45,17.45,0,0,0-.12-2.31h1.55a15,15,0,0,0-.12,2.33v2.9h.5a11.18,11.18,0,0,0,1.74-.09v1.35a17.19,17.19,0,0,0-1.74-.09h-.5v5.4a20.41,20.41,0,0,0,1.78-1.07l.08,1.26a36.49,36.49,0,0,1-4.36,2.37c-.34.15-.93.44-1.12.55l-.39-1.47a10.52,10.52,0,0,0,2.7-1v-6h-.9a15.58,15.58,0,0,0-1.78.11V79a10.9,10.9,0,0,0,1.82.11H69Zm5.9,9.6a13.35,13.35,0,0,1-3.52,2.79,4,4,0,0,0-.86-1,10.08,10.08,0,0,0,4.87-4.43H74.07a10.58,10.58,0,0,0-1.89.13V82a9.7,9.7,0,0,0,1.93.13h9A11.24,11.24,0,0,0,85.15,82v1.33a16.15,16.15,0,0,0-2.08-.09H76.65a10.89,10.89,0,0,1-1,1.54h6.95a16.67,16.67,0,0,0,2.06-.09,10,10,0,0,0-.1,1.24,20.94,20.94,0,0,1-.93,5.61c-.38.75-.9,1-2.33,1-.48,0-1.17,0-1.83-.08a3.41,3.41,0,0,0-.42-1.37,14.37,14.37,0,0,0,2.5.23c.84,0,1-.16,1.26-1.42a25.3,25.3,0,0,0,.46-4H81.9A12.29,12.29,0,0,1,80,89a22.45,22.45,0,0,1-2.58,2.58,16.79,16.79,0,0,1-1.7,1.17,3.61,3.61,0,0,0-1-1,13.47,13.47,0,0,0,4.12-3.19,10.63,10.63,0,0,0,1.72-2.75H78.54a14.53,14.53,0,0,1-5.78,5.24,3,3,0,0,0-.9-1,11.93,11.93,0,0,0,5.31-4.26Zm.68-5.09a15.41,15.41,0,0,0-1.92.09,14.66,14.66,0,0,0,.09-1.89V76.21a12.83,12.83,0,0,0-.09-1.85,12.87,12.87,0,0,0,2,.11h5.48a14.27,14.27,0,0,0,2.18-.11,16.15,16.15,0,0,0-.08,2v2.63a13.06,13.06,0,0,0,.08,1.87c-.46,0-1.11-.07-1.93-.07ZM75,77.09h7V75.56H75Zm0,2.62h7V78.12H75Z"/><path class="cls-1" d="M119.83,77a57.57,57.57,0,0,1-6.54.7,3.73,3.73,0,0,0-.6-1.37,44.42,44.42,0,0,0,12.24-1.8,8.54,8.54,0,0,0,1.93-.8l1,1.3-.65.21a43.37,43.37,0,0,1-5.93,1.51v5h6.43a13,13,0,0,0,2.35-.15v1.62a14.69,14.69,0,0,0-2.31-.15h-6.47v7.41a13.12,13.12,0,0,0,.15,2.48h-1.76a15.59,15.59,0,0,0,.15-2.54V83h-6.12a14.78,14.78,0,0,0-2.24.15V81.56a12.77,12.77,0,0,0,2.27.15h6.09Z"/><path class="cls-1" d="M150.19,86.67a17.1,17.1,0,0,0,2.37-.13V87.9a20.42,20.42,0,0,0-2.37-.12h-5.71a18,18,0,0,0,3.63,2A22.88,22.88,0,0,0,153,91.18a3.58,3.58,0,0,0-.82,1.24,20.86,20.86,0,0,1-8.44-4c.06.84.09,1.3.09,1.68V91a9.26,9.26,0,0,0,.12,1.93h-1.47a12.65,12.65,0,0,0,.13-1.93v-.86c0-.36,0-1,.08-1.68a17.69,17.69,0,0,1-4.16,2.6,20.7,20.7,0,0,1-3.84,1.39,3.79,3.79,0,0,0-.86-1.18,19,19,0,0,0,8.15-3.46h-5.5a19.81,19.81,0,0,0-2.33.12V86.54a16,16,0,0,0,2.33.13h6.13a7.24,7.24,0,0,0-.09-1.33h1.39a9,9,0,0,0-.08,1.2v.13Zm-.06-7.48a12.87,12.87,0,0,0,2.35-.13v1.31a15.74,15.74,0,0,0-2.35-.11h-1.07v1.13a7.66,7.66,0,0,0,.08,1.35c-.59,0-1.28-.06-2.06-.06h-2.85c-.82,0-1.37,0-2.06.06a12,12,0,0,0,.06-1.28v-1.2h-3.74v3.55H149.1a12,12,0,0,0,2.37-.13V85a14.27,14.27,0,0,0-2.31-.13h-10c-.78,0-1.32,0-2.06.06,0-.5.06-.84.06-1.43V80.26h-1a15.7,15.7,0,0,0-2.31.11V79.06a12.81,12.81,0,0,0,2.2.13h1.11v-.25a6.76,6.76,0,0,0-.1-1.39h1.49a9.25,9.25,0,0,0-.09,1.39v.25h3.74V79a6.71,6.71,0,0,0-.1-1.38h1.4a8.55,8.55,0,0,0-.08,1.36v.21h4.39V79a8.24,8.24,0,0,0-.09-1.36h1.41a9.65,9.65,0,0,0-.1,1.36v.21Zm-9.41-2.6a10,10,0,0,0,.06,1.26h-1.4a10.83,10.83,0,0,0,.08-1.26v-.17h-3.21a18.2,18.2,0,0,0-2.33.1V75.18a16.55,16.55,0,0,0,2.33.13h3.21V75a6.86,6.86,0,0,0-.13-1.32h1.52a6.71,6.71,0,0,0-.13,1.32v.36h4.79V75a7,7,0,0,0-.11-1.32h1.49a9.77,9.77,0,0,0-.1,1.32v.36h3.32a17,17,0,0,0,2.35-.13v1.34a18.35,18.35,0,0,0-2.35-.1h-3.32v.17a8.79,8.79,0,0,0,.08,1.26h-1.43a6.7,6.7,0,0,0,.07-1.26v-.17h-4.79Zm2.73,5.08h4.39V80.26h-4.39Z"/><path class="cls-1" d="M166.34,80.22A16.76,16.76,0,0,0,169.76,87a14.93,14.93,0,0,0,5.69,4.09,5.83,5.83,0,0,0-.92,1.41c-4.7-2.5-7.31-5.56-8.82-10.37a13.17,13.17,0,0,1-4.09,7.54,16.46,16.46,0,0,1-4.54,2.85,4.17,4.17,0,0,0-.9-1.28,13.33,13.33,0,0,0,5.52-3.67,12.89,12.89,0,0,0,2.92-7.33h-5.71a12.2,12.2,0,0,0-2.31.15V78.73a13.17,13.17,0,0,0,2.35.15h5.79c.07-1,.09-1.66.09-2.48a14.91,14.91,0,0,0-.15-2.29h1.72a12.94,12.94,0,0,0-.14,2.18c0,1.07,0,1.68-.11,2.59h6.36a13.38,13.38,0,0,0,2.33-.15v1.64a13.12,13.12,0,0,0-2.31-.15Z"/><path class="cls-1" d="M189,91c0,1.3-.4,1.55-2.35,1.55-.59,0-1.68,0-2.42-.12a6.38,6.38,0,0,0-.44-1.34,23.29,23.29,0,0,0,2.75.23c1,0,1.11-.07,1.11-.51V86.6h-6.29a15.07,15.07,0,0,0-2.21.13V85.28a16.23,16.23,0,0,0,2.18.13h6.32v-.36c0-.42,0-.8-.06-1.24h.88a17.58,17.58,0,0,0,3.76-2.37h-7.68a19.78,19.78,0,0,0-2,.1V80.18a20,20,0,0,0,2,.1h7.58a9.38,9.38,0,0,0,1.55-.08l.8.84c-.27.21-.27.21-.73.61a24.2,24.2,0,0,1-4.79,3.1v.66h6.23a16,16,0,0,0,2.21-.13v1.45a15,15,0,0,0-2.23-.13H189Zm-5.67-13.88a14.58,14.58,0,0,0-2-2.73l1.26-.4a21,21,0,0,1,2.14,3.11h3.06a12.64,12.64,0,0,0-1.53-3l1.3-.36a17.92,17.92,0,0,1,1.6,3.38h2.31a12.55,12.55,0,0,0,2.16-3.38l1.32.57a19.55,19.55,0,0,1-2,2.81h1.63c1.22,0,1.68,0,2.42-.08a13.86,13.86,0,0,0-.09,1.74v1.55a12,12,0,0,0,.11,1.47h-1.39V78.27H180.81v3.52h-1.39a9.86,9.86,0,0,0,.11-1.47V78.77a14.12,14.12,0,0,0-.08-1.74,19.55,19.55,0,0,0,2.39.1Z"/><path class="cls-1" d="M210,88a5.78,5.78,0,0,0-.13-1.52h1.45a7.56,7.56,0,0,0-.11,1.52v.29h4.48a12,12,0,0,0,2-.13v1.31a11.69,11.69,0,0,0-2-.11h-4.48V91h6.64a15.28,15.28,0,0,0,2.33-.11v1.33a18.24,18.24,0,0,0-2.33-.13H203.74a18.46,18.46,0,0,0-2.31.13V90.84a15.46,15.46,0,0,0,2.31.11H210V89.31h-3.89a11.69,11.69,0,0,0-2,.11V88.11a9.89,9.89,0,0,0,2,.13H210Zm-4.35-7.84a13.07,13.07,0,0,0-1.91.09,14.33,14.33,0,0,0,.08-1.74V76.15a15.05,15.05,0,0,0-.08-1.81,15.63,15.63,0,0,0,2,.08h10.19a16.12,16.12,0,0,0,2-.08,14.58,14.58,0,0,0-.08,1.83v2.26a13.93,13.93,0,0,0,.08,1.77,13.74,13.74,0,0,0-1.93-.09h-4.75v1.24h5.72a13.06,13.06,0,0,0,2-.12v1.26a11.55,11.55,0,0,0-2-.11h-5.72v1.28H218a13.17,13.17,0,0,0,2.08-.1v1.26a14,14,0,0,0-2.08-.13H203.6a14.2,14.2,0,0,0-2.1.13V83.56a13.7,13.7,0,0,0,2.1.1H210V82.38h-5.23a11.68,11.68,0,0,0-2,.11V81.23a13.21,13.21,0,0,0,2,.12H210V80.11Zm-.44,5.55a10.76,10.76,0,0,1-2.67,2.73l-.88-.86a7.89,7.89,0,0,0,2.54-2.46ZM205,75.41v1.41h5V75.41Zm0,2.35v1.39h5V77.76Zm3.11,10a10.4,10.4,0,0,0-1.05-2.35l1-.36a11.88,11.88,0,0,1,1.13,2.29Zm3.06-11h5.38V75.41h-5.38Zm0,2.33h5.38V77.76h-5.38Zm2.29,8.75a10.79,10.79,0,0,0-1.61-2.43l1-.46a13.68,13.68,0,0,1,1.72,2.35Zm5.48.51a14.16,14.16,0,0,0-3-2.71l.88-.69a20.59,20.59,0,0,1,3.07,2.52Z"/><path class="cls-1" d="M240.2,92.48V91.2H226.36v1.28h-1.47A21.79,21.79,0,0,0,225,90V77c0-.78-.05-1.43-.11-2.1a22.67,22.67,0,0,0,2.42.1h11.92a22.32,22.32,0,0,0,2.39-.1,16.51,16.51,0,0,0-.1,2.1V90a19.09,19.09,0,0,0,.13,2.44ZM226.36,82.26h6v-6h-6Zm0,7.72h6V83.45h-6Zm7.35-7.72h6.49v-6h-6.49Zm0,7.72h6.49V83.45h-6.49Z"/><path class="cls-1" d="M259,78.85v-2a14.62,14.62,0,0,0-.06-2.12h1.63a14.94,14.94,0,0,0-.08,2v2.2h1.81a15.86,15.86,0,0,0,2.45-.12v1.59a20.17,20.17,0,0,0-2.43-.1h-1.85c0,4.26-.25,5.61-1,7.12A8.87,8.87,0,0,1,256,90.8a15.57,15.57,0,0,1-2.44,1.07,3.7,3.7,0,0,0-.94-1.32,9.27,9.27,0,0,0,4-2.06c1.47-1.32,2.06-2.71,2.25-5.25,0-.67.06-1.32.08-3h-6.38v3.51a12.17,12.17,0,0,0,.08,1.7H251a12.68,12.68,0,0,0,.08-1.77V80.22h-1.76a20.45,20.45,0,0,0-2.44.1V78.73a16.08,16.08,0,0,0,2.46.12H251V76.44a12.7,12.7,0,0,0-.08-1.76h1.7a9.44,9.44,0,0,0-.08,1.7v2.47Z"/><path class="cls-1" d="M279.4,82.09a18.42,18.42,0,0,1-.23,2.22,8.28,8.28,0,0,1-2.83,5.55,12.68,12.68,0,0,1-3.7,2.08,3.57,3.57,0,0,0-1-1.37c2.75-.88,4.45-2.23,5.31-4.14a12,12,0,0,0,.84-4.34h-5.69a20.29,20.29,0,0,0-2.42.1V80.64a15.72,15.72,0,0,0,2.44.13h12.28a15.72,15.72,0,0,0,2.44-.13v1.55a20.19,20.19,0,0,0-2.42-.1Zm-7.58-6.66a11.38,11.38,0,0,0,2.42.15h8.17a11.22,11.22,0,0,0,2.41-.15V77a15.86,15.86,0,0,0-2.39-.11h-8.21a15.93,15.93,0,0,0-2.4.11Z"/><path class="cls-1" d="M293.2,80.18a15.93,15.93,0,0,0,2.46.12h10.77a3.65,3.65,0,0,0,1.36-.14l.78.9a6.1,6.1,0,0,0-.59,1.32c-1.78,4.89-4.68,7.58-10.12,9.41a4.6,4.6,0,0,0-.9-1.45,14.49,14.49,0,0,0,6.24-3.19,13,13,0,0,0,3.4-5.5h-11a20.45,20.45,0,0,0-2.44.1ZM295,75.31a10.09,10.09,0,0,0,2.2.14h7a10.14,10.14,0,0,0,2.21-.14v1.61a14.67,14.67,0,0,0-2.18-.1h-7.06a14.59,14.59,0,0,0-2.18.1Z"/><path class="cls-1" d="M330.71,75.56a4.62,4.62,0,0,0-.93.88,36.69,36.69,0,0,1-4.91,4.22V89.6a14.7,14.7,0,0,0,.1,2.23h-1.82a11.49,11.49,0,0,0,.12-2.18v-8a32.76,32.76,0,0,1-8.1,3.67,4.7,4.7,0,0,0-.82-1.4,29.65,29.65,0,0,0,10.9-5.44,17.62,17.62,0,0,0,4-4Z"/><path class="cls-1" d="M341.54,91.85a12.73,12.73,0,0,0,.13-2.2v-13a11.72,11.72,0,0,0-.13-2.14h1.81a13.35,13.35,0,0,0-.11,2.18v3.93A51.8,51.8,0,0,1,352.59,85l-.9,1.55a43,43,0,0,0-7.84-4.16,2.43,2.43,0,0,1-.65-.35l0,0a7.67,7.67,0,0,1,.08,1.24v6.31a14.68,14.68,0,0,0,.11,2.23Z"/><path class="cls-1" d="M366.34,76.33a6.81,6.81,0,0,0-.46-1.78l1.66-.27a10.46,10.46,0,0,0,.23,1.78l.42,2.31,4.75-.73a11.14,11.14,0,0,0,1.85-.42l.29,1.51c-.57.06-.57.06-1.87.27l-4.77.74.8,4.24,5.21-.84a13.18,13.18,0,0,0,2.08-.49l.29,1.56a6.48,6.48,0,0,0-.92.1c-.09,0-.3,0-.65.11l-.49.08-5.27.84.86,4.64a11.46,11.46,0,0,0,.47,2l-1.68.31a16,16,0,0,0-.26-2L368,85.57l-5.62.91a11.15,11.15,0,0,0-2,.42l-.27-1.6a10.84,10.84,0,0,0,2.08-.19l5.58-.9L367,80l-4.33.67a17.76,17.76,0,0,0-2.1.46l-.29-1.59a16.85,16.85,0,0,0,2.18-.22l4.28-.67Z"/><path class="cls-1" d="M387.16,79.76a6,6,0,0,0-.4-1.54l1.53-.23a6.85,6.85,0,0,0,.23,1.58l.34,1.8,7.05-1.15a3.35,3.35,0,0,0,.9-.25l.89.77a4,4,0,0,0-.49.93,10.72,10.72,0,0,1-4.07,4.93,3.72,3.72,0,0,0-1.13-.9,8.67,8.67,0,0,0,3.8-4,1.32,1.32,0,0,1,.08-.19l-.55.13-6.25,1,1.51,7.9a6.91,6.91,0,0,0,.4,1.66l-1.62.29a7.73,7.73,0,0,0-.19-1.68l-1.47-8-2.08.36a8.51,8.51,0,0,0-1.82.42l-.3-1.49a10,10,0,0,0,2-.19l2-.33Z"/><path class="cls-1" d="M405.83,89.37a18.34,18.34,0,0,0,6.11-1.61,15.86,15.86,0,0,0,8.56-9.35,4.18,4.18,0,0,0,1.28,1.24,18.38,18.38,0,0,1-6.4,8,21.22,21.22,0,0,1-7.83,3.13,11,11,0,0,0-1.26.34Zm1.34-13a26.88,26.88,0,0,1,5.06,3.94l-1.09,1.31a23.19,23.19,0,0,0-5-4.12Z"/><path class="cls-1" d="M433.54,76.25a8.52,8.52,0,0,0-.27,1.43c-.88,6-2.58,10-5.54,13.1a4.5,4.5,0,0,0-1.35-1.09,13.43,13.43,0,0,0,3.05-4.16,24.29,24.29,0,0,0,2.16-7.28,15.86,15.86,0,0,0,.21-2,2.33,2.33,0,0,0,0-.33Zm5.82-.31a24.94,24.94,0,0,0,1,5,18.53,18.53,0,0,0,4.76,8.68,4.43,4.43,0,0,0-1.3,1.17c-2.79-3-4.89-7.81-5.71-13.18a10.44,10.44,0,0,0-.27-1.39Zm6.47.75a2.39,2.39,0,1,1-2.37-2.37A2.36,2.36,0,0,1,445.83,76.69Zm-3.89,0a1.51,1.51,0,1,0,1.52-1.49A1.51,1.51,0,0,0,441.94,76.69Z"/><path class="cls-1" d="M465.61,91.39a39.1,39.1,0,0,0-6.72-6.49,22.76,22.76,0,0,1-4,3.76,27.48,27.48,0,0,1-4.11,2.52,4.92,4.92,0,0,0-1-1.39A16.91,16.91,0,0,0,454,87.38a22.76,22.76,0,0,0,7.49-9.47c.05-.13.07-.15.11-.25a.58.58,0,0,0,.06-.15,3.7,3.7,0,0,1-.5,0l-7,.11a14.88,14.88,0,0,0-2.17.16l0-1.7a9.3,9.3,0,0,0,1.66.11h.55l7.49-.09A4,4,0,0,0,463,76l.89.9a3.78,3.78,0,0,0-.59,1,25.4,25.4,0,0,1-3.47,5.88,52.78,52.78,0,0,1,7,6.3Z"/><path class="cls-1" d="M128.92,112v1.41h-16.4V112Zm-16.4,6.79v-1.41h16.4v1.41h-7.44V128h-1.55v-9.17Z"/><path class="cls-1" d="M136.1,111.76a9.58,9.58,0,0,0,1.74.11h1.33a11.14,11.14,0,0,0,1.74-.11,33.31,33.31,0,0,0-.19,3.49v10.2a12.91,12.91,0,0,0,.17,2.37h-2a12.78,12.78,0,0,0,.17-2.37V113.29h-1.13a13.36,13.36,0,0,0-1.83.13Z"/><path class="cls-1" d="M150.74,123.94a3.14,3.14,0,0,0,1.28,2,4.59,4.59,0,0,0,2.71.76c2.43,0,4-1.26,4-3.25s-1.49-3.22-4.29-3.22a15.45,15.45,0,0,0-1.68.11v-1.66a9.46,9.46,0,0,0,1.56.13,4.19,4.19,0,0,0,3.06-1,2.86,2.86,0,0,0,.84-2c0-1.8-1.26-2.85-3.38-2.85a3.28,3.28,0,0,0-2.79,1.11,3.86,3.86,0,0,0-.67,1.49l-1.75-.38a4.8,4.8,0,0,1,1.14-2.1,5.47,5.47,0,0,1,4.18-1.53c3,0,5,1.6,5,4.12a3.66,3.66,0,0,1-1.47,3.06,4.25,4.25,0,0,1-2,.76,4.41,4.41,0,0,1,2.58.9,3.83,3.83,0,0,1,1.41,3.17c0,2.84-2.19,4.6-5.69,4.6a6,6,0,0,1-4.71-1.72,5.58,5.58,0,0,1-1.07-2Z"/><path class="cls-1" d="M166.72,111.76a9.51,9.51,0,0,0,1.74.11h1.33a11.22,11.22,0,0,0,1.74-.11,33.31,33.31,0,0,0-.19,3.49v10.2a12.91,12.91,0,0,0,.17,2.37h-2a12.78,12.78,0,0,0,.17-2.37V113.29h-1.13a13.24,13.24,0,0,0-1.83.13Z"/><path class="cls-1" d="M179.24,120.83a11.19,11.19,0,0,0,1.91.11h2.49a11.51,11.51,0,0,0,1.94-.11v1.77a11.65,11.65,0,0,0-1.94-.11h-2.49a11.55,11.55,0,0,0-1.91.11Z"/><path class="cls-1" d="M190.72,126.65a5.2,5.2,0,0,1-1.26-1.93,14.64,14.64,0,0,1-.8-4.85,12.29,12.29,0,0,1,1.22-5.71,5.63,5.63,0,0,1,8.55-1.1,5.23,5.23,0,0,1,1.26,1.94,14.5,14.5,0,0,1,.79,4.87,11,11,0,0,1-1.46,6.06,5.15,5.15,0,0,1-4.46,2.21A5.27,5.27,0,0,1,190.72,126.65Zm1.22-12.56a4.44,4.44,0,0,0-.95,1.53,13.11,13.11,0,0,0-.65,4.25,11.5,11.5,0,0,0,1,5,3.58,3.58,0,0,0,3.25,1.83,3.52,3.52,0,0,0,2.59-1,4.17,4.17,0,0,0,1-1.63,12.85,12.85,0,0,0,.65-4.25,11.86,11.86,0,0,0-.94-4.89,3.55,3.55,0,0,0-3.3-1.91A3.42,3.42,0,0,0,191.94,114.09Z"/><path class="cls-1" d="M206,126.65a5.2,5.2,0,0,1-1.26-1.93,14.64,14.64,0,0,1-.8-4.85,12.29,12.29,0,0,1,1.22-5.71,5.16,5.16,0,0,1,4.7-2.59,5.21,5.21,0,0,1,3.85,1.49A5.49,5.49,0,0,1,215,115a14.5,14.5,0,0,1,.79,4.87,10.87,10.87,0,0,1-1.47,6.06,5.14,5.14,0,0,1-4.45,2.21A5.27,5.27,0,0,1,206,126.65Zm1.22-12.56a4.44,4.44,0,0,0-.95,1.53,13.11,13.11,0,0,0-.65,4.25,11.5,11.5,0,0,0,1,5,3.57,3.57,0,0,0,3.25,1.83,3.52,3.52,0,0,0,2.59-1,4.17,4.17,0,0,0,1-1.63,13.11,13.11,0,0,0,.65-4.25,12,12,0,0,0-.94-4.89,3.55,3.55,0,0,0-3.3-1.91A3.42,3.42,0,0,0,207.25,114.09Z"/><path class="cls-1" d="M219,122.26c.44-.5.92-1.09,1.36-1.62l5.31-6.63a24.47,24.47,0,0,0,1.58-2.14h1.57c-.1,1.24-.12,1.89-.12,3.55v6.88h.79a14.84,14.84,0,0,0,2.19-.14v1.74a13.79,13.79,0,0,0-2.21-.15h-.77v1.81a12.55,12.55,0,0,0,.16,2.26H226.9a11.75,11.75,0,0,0,.17-2.26v-1.81h-5.63c-1.17,0-1.8,0-2.49.08Zm8.14-5.27a24.58,24.58,0,0,1,.13-2.86c-.44.63-1,1.33-1.58,2.1l-4.83,6.09h6.28Z"/><path class="cls-1" d="M234.34,122.26c.44-.5.92-1.09,1.36-1.62L241,114a24.17,24.17,0,0,0,1.57-2.14h1.57c-.1,1.24-.12,1.89-.12,3.55v6.88h.8a14.8,14.8,0,0,0,2.18-.14v1.74a13.75,13.75,0,0,0-2.2-.15H244v1.81a11.62,11.62,0,0,0,.17,2.26H242.3a12.69,12.69,0,0,0,.16-2.26v-1.81h-5.62c-1.18,0-1.81,0-2.5.08Zm8.14-5.27a27,27,0,0,1,.13-2.86c-.44.63-1,1.33-1.57,2.1l-4.83,6.09h6.27Z"/><path class="cls-1" d="M275.27,113.84a14.46,14.46,0,0,0-2.48.13V112.5a16.69,16.69,0,0,0,2.54.14h6v-.16a11.47,11.47,0,0,0-.14-2h1.55a11.25,11.25,0,0,0-.15,2v.16h6.28a15.44,15.44,0,0,0,2.63-.14V114a18.63,18.63,0,0,0-2.59-.13h-6.32v1.74h4.58a16.14,16.14,0,0,0,2.39-.1,19.41,19.41,0,0,0-.08,2.2v3.09a15.72,15.72,0,0,0,.08,2.23,12.46,12.46,0,0,0-2.39-.13h-3.61a16.58,16.58,0,0,0,8.65,4.66,5.28,5.28,0,0,0-.8,1.32,22.72,22.72,0,0,1-4.72-2.08,15.35,15.35,0,0,1-4.16-3.44c0,.55.06,1.24.06,1.64v2.14a11.09,11.09,0,0,0,.15,2.33h-1.55a14.62,14.62,0,0,0,.14-2.33V125c0-.4,0-1,.07-1.62a13.06,13.06,0,0,1-2.48,2.4,20.19,20.19,0,0,1-5.86,3.06,5,5,0,0,0-.78-1.26,17.18,17.18,0,0,0,5.11-2.24,12.32,12.32,0,0,0,2.94-2.46h-3.07a12.63,12.63,0,0,0-2.44.13l0-.28a15.59,15.59,0,0,0,.07-2v-3a18.08,18.08,0,0,0-.09-2.26,12.51,12.51,0,0,0,2.34.12h4.17v-1.74Zm.9,2.84v1.93h5.12v-1.93Zm0,3v2.12h5.12v-2.12Zm6.38-1.07h5.59v-1.93h-5.59Zm0,3.19h5.59v-2.12h-5.59Z"/><path class="cls-1" d="M301.14,123.37a15.61,15.61,0,0,1-5,5.27,4.78,4.78,0,0,0-1-1.09,11.75,11.75,0,0,0,2.71-2.08,10.37,10.37,0,0,0,2-2.81Zm2.6-11.1a8.72,8.72,0,0,0-.15-1.77h1.66a7.93,7.93,0,0,0-.14,1.77V113h6.48a14.06,14.06,0,0,0,2.33-.14v1.49a11.46,11.46,0,0,0-2.28-.13H297.7a11.48,11.48,0,0,0-2.25.13V112.9a14.3,14.3,0,0,0,2.33.14h6Zm-3.82,9.44a16.34,16.34,0,0,0-1.87.09,11.93,11.93,0,0,0,.09-1.7v-2.38a12.72,12.72,0,0,0-.09-1.74,15.62,15.62,0,0,0,1.87.09h9.13A14.38,14.38,0,0,0,311,116a11.67,11.67,0,0,0-.09,1.74v2.38c0,.73,0,1.15.06,1.68-.54,0-1.11-.07-1.91-.07H305.4v5.84c0,1.2-.55,1.58-2.31,1.58-.46,0-1.34,0-2.06-.09a4.07,4.07,0,0,0-.35-1.38,13.86,13.86,0,0,0,2.26.21c.93,0,1.1-.09,1.1-.51v-5.65Zm-.46-1.15h10.12v-3.3H299.46Zm9.53,2.08a11.64,11.64,0,0,0,2.06,2.64,12.41,12.41,0,0,0,2.92,2.21,4.57,4.57,0,0,0-1,1.15,15,15,0,0,1-2.64-2.18,20.11,20.11,0,0,1-2.52-3.09Z"/><path class="cls-1" d="M320,117.85a10.82,10.82,0,0,0-2.14.13v-1.39a10.82,10.82,0,0,0,2.14.13h2.16v-2.67h-1.55a11.26,11.26,0,0,0-1.91.11v-1.37a8.47,8.47,0,0,0,1.91.13h1.55v-.7a10.33,10.33,0,0,0-.13-1.84h1.51a11,11,0,0,0-.1,1.84v.7h.65a7.11,7.11,0,0,0,1.72-.13v1.34a14.12,14.12,0,0,0-1.63-.08h-.74v2.67h.65a20.29,20.29,0,0,0,2.88-4,7.83,7.83,0,0,0,.59-1.39l1.3.76a4.18,4.18,0,0,0-.51.73,21.58,21.58,0,0,1-2.71,4h.68a13.63,13.63,0,0,0,2.2-.11v1.33a16.31,16.31,0,0,0-2-.09h-1.89a28.24,28.24,0,0,1-2.4,2.23h3.11a12.16,12.16,0,0,0,1.91-.09,19.39,19.39,0,0,0-.06,2.21v4.87a18.45,18.45,0,0,0,.08,2.08h-1.32v-1h-4.73v1.28h-1.36a18.39,18.39,0,0,0,.13-2.29v-5.33c-.91.67-1.14.86-2.1,1.49a3.52,3.52,0,0,0-.74-1.13,24.54,24.54,0,0,0,5.86-4.37Zm1.21,5.61h4.73v-2.29h-4.73Zm0,3.63h4.73v-2.54h-4.73Zm15.23-15.18a19.39,19.39,0,0,0-.84,1.87c-.59,1.32-1.2,2.48-2.12,4.13a9.4,9.4,0,0,1,2.12,2.82,7.37,7.37,0,0,1,.82,3.25,2.6,2.6,0,0,1-1.16,2.48,4.39,4.39,0,0,1-2.1.36c-.33,0-.84,0-1.43-.07a4.32,4.32,0,0,0-.29-1.42,12.09,12.09,0,0,0,2,.16c1.15,0,1.55-.42,1.55-1.7a6.77,6.77,0,0,0-1-3.38A9.16,9.16,0,0,0,332,118.1a31.15,31.15,0,0,0,2.8-5.83h-4.18v14.44a21.18,21.18,0,0,0,.15,2.86h-1.6a20.91,20.91,0,0,0,.13-2.88V113a17.68,17.68,0,0,0-.09-1.91c.55,0,.93.06,1.72.06h3.3a10.32,10.32,0,0,0,1.62-.08Z"/><path class="cls-1" d="M348.83,124.7a5.78,5.78,0,0,0-.13-1.52h1.45a7.63,7.63,0,0,0-.1,1.52V125h4.47a12,12,0,0,0,2-.13v1.31a11.69,11.69,0,0,0-2-.11h-4.47v1.64h6.63a15.28,15.28,0,0,0,2.33-.11v1.33a18.24,18.24,0,0,0-2.33-.13H342.61a18.46,18.46,0,0,0-2.31.13v-1.33a15.46,15.46,0,0,0,2.31.11h6.22v-1.64h-3.89a11.69,11.69,0,0,0-2,.11v-1.31a9.89,9.89,0,0,0,2,.13h3.89Zm-4.35-7.84a13.07,13.07,0,0,0-1.91.09,14.09,14.09,0,0,0,.09-1.74V112.9a14.76,14.76,0,0,0-.09-1.81,15.63,15.63,0,0,0,1.95.08h10.19a16.12,16.12,0,0,0,2-.08,14.58,14.58,0,0,0-.08,1.83v2.26a13.93,13.93,0,0,0,.08,1.77,13.74,13.74,0,0,0-1.93-.09h-4.74v1.24h5.71a13.06,13.06,0,0,0,2-.12v1.26a11.48,11.48,0,0,0-2-.11h-5.71v1.28h6.8a13.17,13.17,0,0,0,2.08-.1v1.26a14,14,0,0,0-2.08-.13H342.47a14.3,14.3,0,0,0-2.1.13v-1.26a13.7,13.7,0,0,0,2.1.1h6.38v-1.28h-5.23a11.68,11.68,0,0,0-2,.11V118a13.3,13.3,0,0,0,2,.12h5.23v-1.24Zm-.44,5.55a10.88,10.88,0,0,1-2.66,2.73l-.89-.86a7.89,7.89,0,0,0,2.54-2.46Zm-.17-10.25v1.41h5v-1.41Zm0,2.35v1.39h5v-1.39Zm3.11,10a10.4,10.4,0,0,0-1.05-2.35l1-.36a11.33,11.33,0,0,1,1.13,2.29Zm3.07-11h5.37v-1.41h-5.37Zm0,2.33h5.37v-1.39h-5.37Zm2.28,8.75a10.79,10.79,0,0,0-1.61-2.43l1-.46a14.31,14.31,0,0,1,1.73,2.35Zm5.48.51a14.16,14.16,0,0,0-3-2.71l.88-.69a20.59,20.59,0,0,1,3.07,2.52Z"/><path class="cls-1" d="M379.07,129.23V128H365.23v1.28h-1.47a19.64,19.64,0,0,0,.13-2.44v-13a19.47,19.47,0,0,0-.11-2.1,22.67,22.67,0,0,0,2.42.1h11.92a22.52,22.52,0,0,0,2.4-.1,14.72,14.72,0,0,0-.11,2.1v13a19.09,19.09,0,0,0,.13,2.44ZM365.23,119h6v-6h-6Zm0,7.72h6V120.2h-6Zm7.35-7.72h6.49v-6h-6.49Zm0,7.72h6.49V120.2h-6.49Z"/><path class="cls-1" d="M403.7,128.37a12,12,0,0,0-2.06-.15H387.7v1.14h-1.53a16.11,16.11,0,0,0,.15-2.29V113.74c0-.86-.05-1.54-.09-2.19a16.83,16.83,0,0,0,2.21.11H401a12.49,12.49,0,0,0,2.27-.15v1.55a15.28,15.28,0,0,0-2.29-.12H387.7v14h13.92a11.17,11.17,0,0,0,2.08-.12Zm-2.81-2.88a56.54,56.54,0,0,0-4.83-4.57,26.6,26.6,0,0,1-6.24,5,7.26,7.26,0,0,0-1-1.05,25.77,25.77,0,0,0,6.26-4.8,40.49,40.49,0,0,0-5.31-3.72l.9-1c2.31,1.55,3.36,2.29,5.27,3.76a17.13,17.13,0,0,0,3.09-5.25l1.38.69a11.72,11.72,0,0,0-.59,1,20.32,20.32,0,0,1-2.87,4.35,63.29,63.29,0,0,1,4.91,4.39Z"/><path class="cls-1" d="M422.52,115.31a20,20,0,0,1-1.28,3.44,17.71,17.71,0,0,1-3.09,4.5A18.5,18.5,0,0,0,422,126a19.71,19.71,0,0,0,4.87,1.91,3.93,3.93,0,0,0-.92,1.38,21.88,21.88,0,0,1-8.72-5,22.49,22.49,0,0,1-8.79,5,4.17,4.17,0,0,0-.89-1.3,20.79,20.79,0,0,0,8.72-4.66,17.85,17.85,0,0,1-2.54-3.45,18.87,18.87,0,0,1-2-4.51h-1.55a15.77,15.77,0,0,0-2.33.13V114a15.32,15.32,0,0,0,2.35.14h6v-1.63a8.88,8.88,0,0,0-.15-1.81h1.68a9.17,9.17,0,0,0-.15,1.78v1.66h6.55a15.44,15.44,0,0,0,2.4-.14v1.49a15,15,0,0,0-2.35-.13Zm-9.35,0a16.06,16.06,0,0,0,1.72,4,18.22,18.22,0,0,0,2.29,3,16.17,16.17,0,0,0,3.8-7Z"/><path class="cls-1" d="M434,123.14c0-.77,0-1.57.07-2.41a13,13,0,0,1-3.32,3.06,3.47,3.47,0,0,0-.8-1.15,14.75,14.75,0,0,0,4.77-4.58,8,8,0,0,0,1.05-2.08l1.32.63c-.29.46-.29.46-.52.88-.36.61-.74,1.18-1.2,1.85V127a20.47,20.47,0,0,0,.13,2.33h-1.62A18.88,18.88,0,0,0,434,127Zm1.73-11a9.17,9.17,0,0,0-.13-1.49h1.53a8.88,8.88,0,0,0-.1,1.49v.67h5v-.67a9.17,9.17,0,0,0-.13-1.49h1.53a8.88,8.88,0,0,0-.1,1.49v.67h3.25a17.33,17.33,0,0,0,2.37-.12v1.45a16.13,16.13,0,0,0-2.37-.11h-3.25v.48a13.54,13.54,0,0,0,.06,1.39h-1.45a10,10,0,0,0,.09-1.37v-.5h-5v.36a13.06,13.06,0,0,0,.06,1.38H435.6c0-.42.09-.86.09-1.36v-.38h-2.92a15.52,15.52,0,0,0-2.33.11v-1.45a16.67,16.67,0,0,0,2.33.12h2.92Zm5.6,14.87c0,.63.32.71,2.69.71,2,0,2.6-.08,2.94-.4s.48-1.24.61-3.36a4.11,4.11,0,0,0,1.34.67c-.33,2.59-.5,3.22-1,3.68s-1.38.65-4.17.65c-3.26,0-3.74-.23-3.74-1.77V118.5a14,14,0,0,0-.13-2.14h1.58a14.07,14.07,0,0,0-.11,2.1v3a18.17,18.17,0,0,0,5.63-3.86l1.11,1c-.27.19-.31.21-.8.59a32.87,32.87,0,0,1-5.94,3.59Z"/><path class="cls-1" d="M460.32,111.76a9.51,9.51,0,0,0,1.74.11h1.32a11.27,11.27,0,0,0,1.75-.11,33.31,33.31,0,0,0-.19,3.49v10.2a12.91,12.91,0,0,0,.17,2.37h-2a12.78,12.78,0,0,0,.17-2.37V113.29h-1.13a13.24,13.24,0,0,0-1.83.13Z"/><path class="cls-1" d="M472.84,120.83a11.19,11.19,0,0,0,1.91.11h2.49a11.51,11.51,0,0,0,1.94-.11v1.77a11.65,11.65,0,0,0-1.94-.11h-2.49a11.55,11.55,0,0,0-1.91.11Z"/><path class="cls-1" d="M484.66,111.76a9.45,9.45,0,0,0,1.74.11h1.32a11.06,11.06,0,0,0,1.74-.11c-.12,1.28-.18,2.35-.18,3.49v10.2a12.91,12.91,0,0,0,.17,2.37h-2a12.78,12.78,0,0,0,.17-2.37V113.29h-1.14a13.21,13.21,0,0,0-1.82.13Z"/><path class="cls-1" d="M499.67,124.34a3.21,3.21,0,0,0,.76,1.34,3.42,3.42,0,0,0,2.64,1,3.61,3.61,0,0,0,3.38-1.93,8.42,8.42,0,0,0,.91-2.69,24.66,24.66,0,0,0,.18-2.46,4.27,4.27,0,0,1-.83,1.18,5.77,5.77,0,0,1-7.6.08,5.33,5.33,0,0,1-1.43-3.78c0-3.33,2.24-5.52,5.69-5.52a5.27,5.27,0,0,1,5.08,3.53,12.68,12.68,0,0,1,.61,4.37c0,2.92-.61,5.29-1.75,6.69a5.12,5.12,0,0,1-4.36,2,5,5,0,0,1-5-3.22Zm7.48-7.39a4,4,0,0,0-7.27-2.19,4.54,4.54,0,0,0-.54,2.21,3.54,3.54,0,0,0,3.73,3.86A3.89,3.89,0,0,0,507.15,117Z"/><path class="cls-1" d="M512.48,120.83a11.33,11.33,0,0,0,1.91.11h2.5a11.38,11.38,0,0,0,1.93-.11v1.77a11.52,11.52,0,0,0-1.93-.11h-2.5a11.62,11.62,0,0,0-1.91.11Z"/><path class="cls-1" d="M524.3,111.76a9.63,9.63,0,0,0,1.75.11h1.32a11.14,11.14,0,0,0,1.74-.11c-.12,1.28-.19,2.35-.19,3.49v10.2a13.86,13.86,0,0,0,.17,2.37h-2a13.7,13.7,0,0,0,.17-2.37V113.29h-1.14a13.36,13.36,0,0,0-1.83.13Z"/><path class="cls-1" d="M8.5,189.61a8,8,0,0,0-.08,1.47c-.06,3.5-.65,5.58-2.08,7.39A11.42,11.42,0,0,1,1,202.1a4.33,4.33,0,0,0-1-1.41,9.7,9.7,0,0,0,3.84-1.93c2.23-1.78,3.05-3.92,3.05-8a5,5,0,0,0-.09-1.13ZM16.8,187a3.94,3.94,0,0,0-.51.84,12.55,12.55,0,0,1-6.13,6,3.91,3.91,0,0,0-1-1.2,9.22,9.22,0,0,0,3.32-2,11.28,11.28,0,0,0,2.35-3.13H2.88a21.3,21.3,0,0,0-2.48.1V186a16.1,16.1,0,0,0,2.5.14H14.17c1.41,0,1.41,0,1.79-.14Z"/><path class="cls-1" d="M30.81,184.78a4,4,0,0,0-.47.86,20.24,20.24,0,0,1-1,1.87c.27-.06.27-.06,6.34-.17a2,2,0,0,0,1.09-.15l.9.89c-.18.25-.18.27-.42,1a22.14,22.14,0,0,1-4.2,7.9,20.68,20.68,0,0,1-7.3,5.25A3.25,3.25,0,0,0,24.74,201a17.91,17.91,0,0,0,7.41-5.31,19.21,19.21,0,0,0,3.61-7l-7.07.13a20.44,20.44,0,0,1-5,5.46,3.12,3.12,0,0,0-1.18-1.09,15.57,15.57,0,0,0,5.27-5.76,9.31,9.31,0,0,0,1.32-3.06Z"/><path class="cls-1" d="M49.12,187.07a12.6,12.6,0,0,0-.08-1.93h1.7a11.17,11.17,0,0,0-.11,1.93v3.06L59.15,189a2.42,2.42,0,0,0,1.2-.29l1,.86a6.45,6.45,0,0,0-.34.58,13.92,13.92,0,0,1-1.59,2.69,16,16,0,0,1-3.57,3.28,3.44,3.44,0,0,0-1.26-1,11.69,11.69,0,0,0,4.77-4.87l-.49.1-.25,0c-2.94.4-5.63.78-8,1.12v4.95c0,2,.08,2.4.53,2.77s1.32.53,3,.53a23.55,23.55,0,0,0,6.11-.74l.1,1.7c-.56,0-.69,0-1.26.11a37.84,37.84,0,0,1-5,.38c-2.39,0-3.61-.3-4.28-1s-.78-1.32-.78-3.46v-5.06l-2.54.35a13.09,13.09,0,0,0-2.06.36l-.19-1.57h.32c.35,0,1.09-.07,1.8-.15l2.67-.36Z"/><path class="cls-1" d="M82.91,201.64a39.1,39.1,0,0,0-6.72-6.49,22.76,22.76,0,0,1-4,3.76,27.07,27.07,0,0,1-4.12,2.52A4.57,4.57,0,0,0,67,200a16.58,16.58,0,0,0,4.26-2.41,22.79,22.79,0,0,0,7.5-9.47,1.17,1.17,0,0,1,.11-.25.58.58,0,0,0,.06-.15,3.7,3.7,0,0,1-.5,0l-7,.11a14.84,14.84,0,0,0-2.16.16l0-1.7a9.17,9.17,0,0,0,1.66.11h.54l7.5-.08a4.33,4.33,0,0,0,1.34-.17l.88.9a3.81,3.81,0,0,0-.58,1A25.76,25.76,0,0,1,77.11,194a52.09,52.09,0,0,1,7,6.3Z"/><path class="cls-1" d="M112.92,189.27a9,9,0,0,0-1.56.13V188a9.91,9.91,0,0,0,1.58.13h1.17v-2A14.1,14.1,0,0,0,114,184h1.55a11.81,11.81,0,0,0-.12,2.1v2h.77a7.22,7.22,0,0,0,1.43-.11v1.37a9.06,9.06,0,0,0-1.43-.09h-.77v4.31c.65-.28,1.09-.46,2.22-1v1.3l-2.22,1v6.4c0,1.18-.45,1.49-2.1,1.49-.44,0-.95,0-1.45-.06a4.91,4.91,0,0,0-.25-1.32,11,11,0,0,0,1.7.14c.63,0,.79-.12.79-.58v-5.53c-.73.32-1,.4-1.44.59a9.81,9.81,0,0,0-1.16.51l-.38-1.43a13.79,13.79,0,0,0,3-1v-4.83Zm6.72,6.87v1.36h-1.39a13.8,13.8,0,0,0,.08-1.78V187a18.08,18.08,0,0,0-.08-2c.61.06,1.34.1,2.16.1H127c1,0,1.85,0,2.4-.1a17.06,17.06,0,0,0-.09,2.22v8.38a13.31,13.31,0,0,0,.09,1.83H128v-1.22h-3.63v4.43a17.67,17.67,0,0,0,.15,2.44h-1.58a17.19,17.19,0,0,0,.15-2.44v-4.45Zm0-9.89v3.67h3.44v-3.67Zm0,4.85v3.84h3.44V191.1Zm4.72-1.18H128v-3.67h-3.65Zm0,5H128v-3.88h-3.65Z"/><path class="cls-1" d="M143.51,200.65h6.87a19.46,19.46,0,0,0,2.35-.12v1.59a17.41,17.41,0,0,0-2.35-.15h-14a19.17,19.17,0,0,0-2.47.15v-1.59a20.83,20.83,0,0,0,2.47.12H142V186.48a15.27,15.27,0,0,0-.14-2.18h1.78a13.74,13.74,0,0,0-.15,2.18v4.3h5.31a16.5,16.5,0,0,0,2.19-.12v1.62a15.15,15.15,0,0,0-2.19-.13h-5.31Z"/><path class="cls-1" d="M158.34,196.14a15.65,15.65,0,0,1-1.2,5.65l-1-.53a12.71,12.71,0,0,0,1.21-5.33ZM162,194H163a12,12,0,0,0,1.95-.09c0,.23,0,.4,0,.84a32.12,32.12,0,0,1-.82,6.89c-.31.9-.79,1.2-2,1.2-.4,0-.84,0-1.53-.09v-.17a3.73,3.73,0,0,0-.23-1.17,9.47,9.47,0,0,0,1.84.25c.66,0,.82-.27,1.1-1.81a38.28,38.28,0,0,0,.42-4.78h-4.48c-.84,0-1.34,0-1.93.06a20.06,20.06,0,0,0,.07-2.16v-5.76a19.32,19.32,0,0,0-.09-2.43,16.58,16.58,0,0,0,2.31.1h3.3a16,16,0,0,0,2.14-.1v1.3a14.25,14.25,0,0,0-2-.1H162v1.93h.8a10.06,10.06,0,0,0,1.83-.11V189a11.87,11.87,0,0,0-1.83-.1H162v1.89h.8a11.06,11.06,0,0,0,1.83-.11V192a11.87,11.87,0,0,0-1.83-.1H162Zm-1.11-8h-2.29v1.93h2.29Zm0,3h-2.29v1.89h2.29Zm-2.29,2.92V194h2.29v-2.14Zm1.14,4.24a33.38,33.38,0,0,1,.35,4.61l-1.05.15c0-.38,0-.67,0-.86a29.37,29.37,0,0,0-.19-3.78Zm1.34-.07a22.17,22.17,0,0,1,.73,3.76l-.92.3a19.6,19.6,0,0,0-.63-3.87Zm1.28-.21a13.34,13.34,0,0,1,.84,2.82l-.8.33a12.23,12.23,0,0,0-.78-2.92Zm9-3.52a18.18,18.18,0,0,0,1.38,5.58,10.62,10.62,0,0,0,2.82,4,4.63,4.63,0,0,0-1,1.2,14.7,14.7,0,0,1-3.09-5,20.83,20.83,0,0,1-1.3-5.73h-2.39c-.17,5.29-.68,7.85-2.13,10.64a4.15,4.15,0,0,0-1.19-.73c1.68-2.71,2.14-6,2.14-14.74a23.49,23.49,0,0,0-.08-2.5,16.68,16.68,0,0,0,2.3.1h3.49a15.75,15.75,0,0,0,2.27-.1,15.94,15.94,0,0,0-.09,2.29v2.85a16.33,16.33,0,0,0,.09,2.27,15.59,15.59,0,0,0-2-.08Zm1.84-1.16v-4.91h-5.37v1.05c0,.59,0,1.87,0,3.86Z"/><path class="cls-1" d="M188.83,184.53a15.73,15.73,0,0,0-.12,2.77c0,.46,0,.69,0,2.18a20.63,20.63,0,0,0,6.15-.8l.19,1.56a12.07,12.07,0,0,0-1.26.14,36.64,36.64,0,0,1-5.06.47c.06,2,.17,4.07.27,5.41a18.33,18.33,0,0,1,5.61,3c.44.31.44.33,1,.65l-1,1.47a9,9,0,0,0-2.19-1.83,21.72,21.72,0,0,0-2.83-1.62,2.84,2.84,0,0,1-.51-.23,5.08,5.08,0,0,1,.09.9,3.7,3.7,0,0,1-.53,2.12,4.41,4.41,0,0,1-3.73,1.45c-2.71,0-4.37-1.17-4.37-3.1s1.95-3.32,4.93-3.32a8.72,8.72,0,0,1,1.83.19.72.72,0,0,0,.19,0s0,0,.1,0a.65.65,0,0,0,0-.19v-.12c-.17-2.42-.31-6.47-.33-9.47a8.82,8.82,0,0,0-.11-1.7Zm-3.36,12.53c-2.14,0-3.44.76-3.44,2a1.42,1.42,0,0,0,.31.9,3.41,3.41,0,0,0,2.52.84,3.54,3.54,0,0,0,2.33-.69,2,2,0,0,0,.51-1.58,8.72,8.72,0,0,0-.07-1.15A6.87,6.87,0,0,0,185.47,197.06Z"/><path class="cls-1" d="M207.48,184.61a11.9,11.9,0,0,0-.48,2.16c-.34,2.12-.63,4.41-.7,5.48l.09,0,.15-.61a9.23,9.23,0,0,1,1.28-3.13c1.17-1.81,2.56-2.71,4.19-2.71a3.94,3.94,0,0,1,3.36,1.87,8.55,8.55,0,0,1,1.26,5.1,8.66,8.66,0,0,1-4.85,8.25,16.11,16.11,0,0,1-3.73,1.24,4.56,4.56,0,0,0-.84-1.43,11.09,11.09,0,0,0,4.26-1.32c2.46-1.41,3.61-3.61,3.61-7s-1.18-5.33-3.19-5.33c-1.6,0-2.94,1.19-4.14,3.65a11,11,0,0,0-1.13,4.68c0,.09,0,.19,0,.51l-1.51.06v-.23l0-.38-.05-2.18v-.49a52.37,52.37,0,0,1,.72-7.74,4.48,4.48,0,0,0,.06-.68Z"/><path class="cls-1" d="M226.07,196c0-.86,0-1.42.06-2.52a11.59,11.59,0,0,1-2.08,2.17,3.48,3.48,0,0,0-.76-1.18,15.37,15.37,0,0,0,3.78-3.93,7.81,7.81,0,0,0,1-1.8l1.22.73a5.52,5.52,0,0,0-.59.91c-.34.52-.71,1.05-1.32,1.82v8.42a20,20,0,0,0,.1,2.42h-1.53a19.4,19.4,0,0,0,.13-2.44Zm3.08-11.25c-.17.17-.17.19-.63.73a19.63,19.63,0,0,1-4.24,3.89,4.36,4.36,0,0,0-.86-1.05,15.25,15.25,0,0,0,2.58-2,8.83,8.83,0,0,0,2-2.42Zm5.78,7.43H231a18,18,0,0,0-2,.11v-1.39a18.8,18.8,0,0,0,2,.11H235V188h-2.92a11.4,11.4,0,0,0-1.91.11v-1.39a12.13,12.13,0,0,0,1.91.1H235v-.5a8.58,8.58,0,0,0-.17-2.16h1.58a9.89,9.89,0,0,0-.13,2.14v.52h3.19a12.67,12.67,0,0,0,2-.1v1.39a11.78,11.78,0,0,0-1.95-.11h-3.21V191h4.45a18.89,18.89,0,0,0,2-.11v1.39a17.68,17.68,0,0,0-2-.11h-4.47v3h3.29a13.66,13.66,0,0,0,1.91-.11v1.41a15.87,15.87,0,0,0-1.91-.11h-3.29v4.16a20.38,20.38,0,0,0,3.86.29c.76,0,1.43,0,2.81-.08a5.67,5.67,0,0,0-.44,1.45c-.73,0-1.3,0-1.66,0-5.26,0-7.81-1-9.57-3.68a14.47,14.47,0,0,1-2.39,4.5,3.51,3.51,0,0,0-1.12-.88,13.1,13.1,0,0,0,2.92-6.16,11,11,0,0,0,.32-2.37l1.45.28a15.86,15.86,0,0,0-.47,2.07c-.08.4-.14.72-.27,1.2a5.83,5.83,0,0,0,3.26,3Z"/><path class="cls-1" d="M252.5,193.32a16.3,16.3,0,0,1-5.16,5,6.26,6.26,0,0,0-1-1,11.83,11.83,0,0,0,5-4.68Zm10.42-2.81a14.07,14.07,0,0,0,2.16-.13v1.48a14.61,14.61,0,0,0-2.16-.13h-6.26v5c0,1-.61,1.4-2.12,1.4-.61,0-1.36,0-2.12-.08a4.63,4.63,0,0,0-.34-1.34,13.45,13.45,0,0,0,2.36.23c.69,0,.86-.09.86-.44v-4.79h-6.51a15.78,15.78,0,0,0-2.27.13v-1.48a15.6,15.6,0,0,0,2.27.13h1.38v-3a12.86,12.86,0,0,0-.12-1.87h1.55a10.62,10.62,0,0,0-.13,1.87v3h3.87V186a11.85,11.85,0,0,0-.13-2h1.58a9.35,9.35,0,0,0-.13,1.91v.61h4.68a13.33,13.33,0,0,0,2-.12v1.4a12.82,12.82,0,0,0-2-.1h-4.68v2.79Zm-1.28,6.2c-1.52,1.51-1.64,1.63-2.12,2A19.16,19.16,0,0,1,248.14,203a4.82,4.82,0,0,0-.68-1.41A18.23,18.23,0,0,0,257,199a9.79,9.79,0,0,0,3.4-3.19Zm-1.33-4.1a16,16,0,0,0,5.06,3.91,6.75,6.75,0,0,0-1,1.09,22.43,22.43,0,0,1-5.21-4.31Z"/><path class="cls-1" d="M277.43,185.26a9.58,9.58,0,0,0,1.74.11h1.33a11.14,11.14,0,0,0,1.74-.11,33.31,33.31,0,0,0-.19,3.49V199a12.91,12.91,0,0,0,.17,2.37h-2a12.78,12.78,0,0,0,.17-2.37V186.79h-1.13a13.36,13.36,0,0,0-1.83.13Z"/><path class="cls-1" d="M299.9,188.85a4.07,4.07,0,0,0-.73-1.32,3.21,3.21,0,0,0-2.5-1.05,3.82,3.82,0,0,0-3.63,2.6,11.8,11.8,0,0,0-.89,4.52,4.52,4.52,0,0,1,1.05-1.35,5,5,0,0,1,3.55-1.28,4.88,4.88,0,0,1,5.27,5.25,5.13,5.13,0,0,1-5.5,5.4,5.64,5.64,0,0,1-3.8-1.33c-1.36-1.25-2.12-3.61-2.12-6.59a11.2,11.2,0,0,1,1.6-6.34,5.27,5.27,0,0,1,4.42-2.29,5.57,5.57,0,0,1,3.2.89,5.34,5.34,0,0,1,1.76,2.35Zm-3.38,3.53a4.24,4.24,0,0,0-2.9,1.2,3.67,3.67,0,0,0-1.05,2.66,4,4,0,0,0,7.25,2.25,4.62,4.62,0,0,0,.54-2.23C300.36,193.79,299,192.38,296.52,192.38Z"/><path class="cls-1" d="M319.87,184.63a5.89,5.89,0,0,0-.59,1.07,20.8,20.8,0,0,1-6.61,7.88,4.66,4.66,0,0,0-1-1.14,17.22,17.22,0,0,0,5.75-6.15,6.74,6.74,0,0,0,.91-2.2Zm-2,8.17a15.87,15.87,0,0,0-2.16.13v-1.49a17,17,0,0,0,2.19.12h6.9a16.73,16.73,0,0,0,2.21-.1,10.49,10.49,0,0,0-.09,1.49c0,4.07-.39,7.62-.94,8.6-.36.64-.86.84-2.08.84-.69,0-1.43,0-2.75-.16a5.69,5.69,0,0,0-.34-1.49,16.27,16.27,0,0,0,3,.35c.68,0,.91-.12,1.06-.52a30,30,0,0,0,.69-7.77h-4.89a12,12,0,0,1-1.64,5.52,12.28,12.28,0,0,1-5.29,4.58,4.65,4.65,0,0,0-.93-1.18c2.69-1.3,4.29-2.68,5.29-4.6a10.06,10.06,0,0,0,1.14-4.32Zm6.54-8.67a8.2,8.2,0,0,0,.79,1.76,17.56,17.56,0,0,0,6.2,6.53,5.19,5.19,0,0,0-1,1.28,21.29,21.29,0,0,1-7.08-8.44c-.1-.19-.23-.42-.33-.59Z"/><path class="cls-1" d="M349.23,185.37l-7.56,19.21H340.1l7.58-19.21Z"/><path class="cls-1" d="M374.28,196.92l-.61.48c-.33.25-1.76,1.22-2.35,1.59,1.18,1.24,3,2.31,3.84,2.31.68,0,1-.75,1.2-3a4.12,4.12,0,0,0,1.22.76c-.36,2.5-1,3.57-2.25,3.57-1.43,0-3.55-1.24-5.14-3a28,28,0,0,1-10.33,3,4.68,4.68,0,0,0-.65-1.35,24.84,24.84,0,0,0,10.2-2.68,11.46,11.46,0,0,1-1.57-3.28H362v1.24h-1.43a15.56,15.56,0,0,0,.13-2v-6.09a10.2,10.2,0,0,0-.11-1.82,15.67,15.67,0,0,0,2.06.1h4.18a13.68,13.68,0,0,0-.15-2.66h1.58a13.57,13.57,0,0,0-.13,2.66h5a15.12,15.12,0,0,0,2.06-.1,12.37,12.37,0,0,0-.09,1.82v5.27c0,.53,0,.72,0,1.66-.54,0-.92,0-1.68,0h-4.3a9.7,9.7,0,0,0,1.36,2.67,12.13,12.13,0,0,0,2.75-2.1Zm-12.3-9v2.49h5c-.09-1.42-.11-1.82-.15-2.49Zm0,3.61v2.73h5.54a19.36,19.36,0,0,1-.46-2.73Zm6.13-3.61c0,1,.06,1.38.15,2.49h5.54v-2.49Zm.25,3.61a17.34,17.34,0,0,0,.46,2.73h5V191.5Z"/><path class="cls-1" d="M385.86,194.14a17.08,17.08,0,0,1-1.24,5.88,8.69,8.69,0,0,1-2.27,3.15,4.66,4.66,0,0,0-1.14-1,7.29,7.29,0,0,0,2.29-3.07,14.94,14.94,0,0,0,1-5h-1.26a16,16,0,0,0-2.08.13v-1.45a14.34,14.34,0,0,0,2.1.13h1.33c0-1,.06-2.12.06-3.17a31.92,31.92,0,0,0-.13-3.59,19,19,0,0,0,2,.08h2.16a9.16,9.16,0,0,0,1.13-2.67l1.43.3c-.63,1.38-.8,1.74-1.15,2.37h4.45a16.65,16.65,0,0,0,2-.08,18.82,18.82,0,0,0-.08,2.07V193h1.22a14.45,14.45,0,0,0,2.12-.13v1.45a15.39,15.39,0,0,0-2.1-.13H396.5v6.74c0,.8-.17,1.22-.61,1.49a3.84,3.84,0,0,1-1.95.26c-.65,0-1.09,0-2-.07a4,4,0,0,0-.31-1.38,19.82,19.82,0,0,0,2.65.21c.73,0,.9-.13.9-.72v-6.53h-4.33v4.37a11.33,11.33,0,0,0,.13,1.87h-1.51a13.46,13.46,0,0,0,.12-1.87v-4.37Zm9.32-6.67H386v2c0,1.64,0,2.37-.06,3.51h9.26Zm-3.53,4.72a19.7,19.7,0,0,0-3.53-3.21l1.05-.69a26.7,26.7,0,0,1,3.55,3Z"/><path class="cls-1" d="M405.55,196.14a15.89,15.89,0,0,1-1.19,5.65l-1-.53a12.55,12.55,0,0,0,1.22-5.33Zm3.64-2.14h1.05a12.19,12.19,0,0,0,1.95-.09c0,.23,0,.4,0,.84a32.78,32.78,0,0,1-.82,6.89c-.32.9-.8,1.2-2,1.2-.39,0-.84,0-1.53-.09v-.17a3.46,3.46,0,0,0-.23-1.17,9.65,9.65,0,0,0,1.85.25c.65,0,.82-.27,1.09-1.81a36.42,36.42,0,0,0,.42-4.78h-4.47c-.84,0-1.35,0-1.93.06,0-.46.06-1,.06-2.16v-5.76a22.3,22.3,0,0,0-.08-2.43,16.32,16.32,0,0,0,2.3.1h3.3a16,16,0,0,0,2.14-.1v1.3a14.25,14.25,0,0,0-2-.1h-1.11v1.93H410a10,10,0,0,0,1.83-.11V189a11.87,11.87,0,0,0-1.83-.1h-.79v1.89H410a11,11,0,0,0,1.83-.11V192a11.87,11.87,0,0,0-1.83-.1h-.79Zm-1.12-8h-2.28v1.93h2.28Zm0,3h-2.28v1.89h2.28Zm-2.28,2.92V194h2.28v-2.14Zm1.13,4.24a35.1,35.1,0,0,1,.36,4.61l-1,.15c0-.38,0-.67,0-.86a29.37,29.37,0,0,0-.19-3.78Zm1.34-.07a22.16,22.16,0,0,1,.74,3.76l-.93.3a18.89,18.89,0,0,0-.63-3.87Zm1.28-.21a13.34,13.34,0,0,1,.84,2.82l-.8.33a12.26,12.26,0,0,0-.77-2.92Zm9-3.52a17.88,17.88,0,0,0,1.39,5.58,10.6,10.6,0,0,0,2.81,4,4.63,4.63,0,0,0-1,1.2,14.86,14.86,0,0,1-3.09-5,21.21,21.21,0,0,1-1.3-5.73h-2.39c-.17,5.29-.67,7.85-2.12,10.64a4.21,4.21,0,0,0-1.2-.73c1.68-2.71,2.14-6,2.14-14.74a23.49,23.49,0,0,0-.08-2.5,16.84,16.84,0,0,0,2.31.1h3.48a15.67,15.67,0,0,0,2.27-.1,18.36,18.36,0,0,0-.08,2.29v2.85a18.82,18.82,0,0,0,.08,2.27,15.51,15.51,0,0,0-2-.08Zm1.85-1.16v-4.91H415v1.05c0,.59,0,1.87,0,3.86Z"/><path class="cls-1" d="M436,184.53a15.73,15.73,0,0,0-.12,2.77c0,.46,0,.69,0,2.18a20.58,20.58,0,0,0,6.15-.8l.19,1.56a12.07,12.07,0,0,0-1.26.14,36.64,36.64,0,0,1-5.06.47c.06,2,.17,4.07.27,5.41a18.11,18.11,0,0,1,5.61,3,10.85,10.85,0,0,0,1,.65l-1,1.47a9.08,9.08,0,0,0-2.18-1.83,21.76,21.76,0,0,0-2.84-1.62,3,3,0,0,1-.5-.23,6.28,6.28,0,0,1,.08.9,3.79,3.79,0,0,1-.52,2.12,4.43,4.43,0,0,1-3.74,1.45c-2.71,0-4.37-1.17-4.37-3.1s2-3.32,4.94-3.32a8.62,8.62,0,0,1,1.82.19.93.93,0,0,0,.19,0s0,0,.11,0a.65.65,0,0,0,0-.19v-.12c-.17-2.42-.32-6.47-.34-9.47a10.07,10.07,0,0,0-.1-1.7Zm-3.35,12.53c-2.15,0-3.45.76-3.45,2a1.43,1.43,0,0,0,.32.9,3.4,3.4,0,0,0,2.52.84,3.58,3.58,0,0,0,2.33-.69,2,2,0,0,0,.5-1.58c0-.31,0-1.15-.06-1.15A6.9,6.9,0,0,0,432.69,197.06Z"/><path class="cls-1" d="M454.69,184.61a12.86,12.86,0,0,0-.48,2.16c-.33,2.12-.63,4.41-.69,5.48l.08,0,.15-.61a9.23,9.23,0,0,1,1.28-3.13c1.18-1.81,2.56-2.71,4.2-2.71a4,4,0,0,1,3.36,1.87A9.89,9.89,0,0,1,459,201.05a16.37,16.37,0,0,1-3.74,1.24,4.37,4.37,0,0,0-.84-1.43,11.09,11.09,0,0,0,4.26-1.32c2.46-1.41,3.61-3.61,3.61-7s-1.17-5.33-3.19-5.33c-1.59,0-2.94,1.19-4.13,3.65a10.88,10.88,0,0,0-1.14,4.68c0,.09,0,.19,0,.51l-1.51.06v-.23l0-.38,0-2.18v-.49a53.47,53.47,0,0,1,.71-7.74,3.56,3.56,0,0,0,.07-.68Z"/><path class="cls-1" d="M473.28,196c0-.86,0-1.42.06-2.52a11,11,0,0,1-2.08,2.17,3.46,3.46,0,0,0-.75-1.18,15.54,15.54,0,0,0,3.78-3.93,7.7,7.7,0,0,0,1-1.8l1.22.73a6.27,6.27,0,0,0-.59.91,20.79,20.79,0,0,1-1.32,1.82v8.42a17.85,17.85,0,0,0,.11,2.42h-1.54a17.66,17.66,0,0,0,.13-2.44Zm3.09-11.25c-.17.17-.17.19-.63.73a19.68,19.68,0,0,1-4.25,3.89,4.14,4.14,0,0,0-.86-1.05,15.36,15.36,0,0,0,2.59-2,9,9,0,0,0,1.95-2.42Zm5.77,7.43h-3.89a18,18,0,0,0-2,.11v-1.39a18.8,18.8,0,0,0,2,.11h3.93V188h-2.92a11.47,11.47,0,0,0-1.91.11v-1.39a12.21,12.21,0,0,0,1.91.1h2.92v-.5a8.58,8.58,0,0,0-.17-2.16h1.58a9.89,9.89,0,0,0-.13,2.14v.52h3.19a12.82,12.82,0,0,0,2-.1v1.39a12,12,0,0,0-2-.11h-3.21V191h4.45a19.25,19.25,0,0,0,2-.11v1.39a17.87,17.87,0,0,0-2-.11h-4.47v3h3.3a13.86,13.86,0,0,0,1.91-.11v1.41a16.12,16.12,0,0,0-1.91-.11h-3.3v4.16a20.38,20.38,0,0,0,3.86.29c.76,0,1.43,0,2.82-.08a5.3,5.3,0,0,0-.44,1.45c-.74,0-1.3,0-1.66,0-5.27,0-7.81-1-9.58-3.68a14.47,14.47,0,0,1-2.39,4.5,3.46,3.46,0,0,0-1.11-.88,13.2,13.2,0,0,0,2.92-6.16,10.93,10.93,0,0,0,.31-2.37l1.45.28a15,15,0,0,0-.46,2.07c-.09.4-.15.72-.28,1.2a5.86,5.86,0,0,0,3.26,3Z"/><path class="cls-1" d="M499.72,193.32a16.33,16.33,0,0,1-5.17,5,5.9,5.9,0,0,0-1-1,11.77,11.77,0,0,0,5-4.68Zm10.41-2.81a13.9,13.9,0,0,0,2.16-.13v1.48a14.52,14.52,0,0,0-2.16-.13h-6.25v5c0,1-.61,1.4-2.13,1.4-.61,0-1.36,0-2.12-.08a4.62,4.62,0,0,0-.33-1.34,13.35,13.35,0,0,0,2.35.23c.69,0,.86-.09.86-.44v-4.79H496a15.88,15.88,0,0,0-2.27.13v-1.48a15.6,15.6,0,0,0,2.27.13h1.39v-3a11.5,11.5,0,0,0-.13-1.87h1.55a10.68,10.68,0,0,0-.12,1.87v3h3.86V186a13.22,13.22,0,0,0-.12-2H504a10.24,10.24,0,0,0-.12,1.91v.61h4.68a13.18,13.18,0,0,0,2-.12v1.4a12.75,12.75,0,0,0-2-.1h-4.68v2.79Zm-1.28,6.2a27.36,27.36,0,0,1-2.12,2A19.14,19.14,0,0,1,495.35,203a4.79,4.79,0,0,0-.67-1.41,18.19,18.19,0,0,0,9.53-2.58,9.7,9.7,0,0,0,3.4-3.19Zm-1.32-4.1a15.85,15.85,0,0,0,5.06,3.91,6.35,6.35,0,0,0-1,1.09,22.18,22.18,0,0,1-5.2-4.31Z"/><path class="cls-1" d="M524.65,185.26a9.45,9.45,0,0,0,1.74.11h1.32a11.06,11.06,0,0,0,1.74-.11c-.12,1.28-.18,2.35-.18,3.49V199a13.94,13.94,0,0,0,.16,2.37h-2a13.7,13.7,0,0,0,.17-2.37V186.79h-1.14a13.1,13.1,0,0,0-1.82.13Z"/><path class="cls-1" d="M547.11,188.85a4.07,4.07,0,0,0-.73-1.32,3.21,3.21,0,0,0-2.5-1.05,3.82,3.82,0,0,0-3.63,2.6,11.64,11.64,0,0,0-.88,4.52,4.37,4.37,0,0,1,1-1.35A5,5,0,0,1,544,191a4.88,4.88,0,0,1,5.27,5.25,5.13,5.13,0,0,1-5.5,5.4,5.66,5.66,0,0,1-3.8-1.33c-1.36-1.25-2.12-3.61-2.12-6.59a11.2,11.2,0,0,1,1.6-6.34,5.27,5.27,0,0,1,4.43-2.29A5.54,5.54,0,0,1,547,186a5.19,5.19,0,0,1,1.76,2.35Zm-3.38,3.53a4.2,4.2,0,0,0-2.89,1.2,3.63,3.63,0,0,0-1.05,2.66,4,4,0,0,0,7.24,2.25,4.51,4.51,0,0,0,.55-2.23A3.51,3.51,0,0,0,543.73,192.38Z"/><path class="cls-1" d="M567.09,184.63a5.32,5.32,0,0,0-.59,1.07,20.92,20.92,0,0,1-6.62,7.88,4.61,4.61,0,0,0-1-1.14,17.31,17.31,0,0,0,5.75-6.15,6.68,6.68,0,0,0,.9-2.2Zm-2,8.17a15.77,15.77,0,0,0-2.16.13v-1.49a16.87,16.87,0,0,0,2.18.12H572a16.66,16.66,0,0,0,2.2-.1,9.58,9.58,0,0,0-.08,1.49c0,4.07-.4,7.62-1,8.6-.35.64-.86.84-2.08.84-.69,0-1.42,0-2.75-.16a5.65,5.65,0,0,0-.33-1.49,16.08,16.08,0,0,0,3,.35c.67,0,.9-.12,1-.52a30,30,0,0,0,.69-7.77H567.8a11.92,11.92,0,0,1-1.64,5.52,12.28,12.28,0,0,1-5.29,4.58,4.39,4.39,0,0,0-.92-1.18c2.68-1.3,4.28-2.68,5.29-4.6a10.21,10.21,0,0,0,1.13-4.32Zm6.53-8.67a8.88,8.88,0,0,0,.8,1.76,17.46,17.46,0,0,0,6.19,6.53,5.44,5.44,0,0,0-1,1.28,21.26,21.26,0,0,1-7.07-8.44c-.11-.19-.23-.42-.34-.59Z"/><path class="cls-1" d="M596.44,185.37l-7.56,19.21h-1.57l7.58-19.21Z"/><path class="cls-1" d="M610.77,189.36c-.11.33-.17.58-.61,2.31a21.89,21.89,0,0,1-3.55,7.85,4.87,4.87,0,0,0-1.28-.86,17.36,17.36,0,0,0,3.25-6.53,16.08,16.08,0,0,0,.63-3.15Zm5.23-5.08a13.28,13.28,0,0,0-.13,2.14v14.44c0,1.35-.48,1.72-2.23,1.72-.86,0-1.7,0-2.89-.14a5.24,5.24,0,0,0-.38-1.56,16.89,16.89,0,0,0,3.11.36c.75,0,.94-.11.94-.53V186.4a13.68,13.68,0,0,0-.13-2.12Zm4.7,4.57a17.47,17.47,0,0,0,1.3,4.35,18.91,18.91,0,0,0,3.13,5.33,5.47,5.47,0,0,0-1.2,1.05,22.11,22.11,0,0,1-3.57-6.68s-.33-1.09-1-3.21l-.15-.42Z"/><path class="cls-1" d="M632.17,185.81A10.52,10.52,0,0,0,632,184h1.53a9.48,9.48,0,0,0-.12,1.81v2.35h1a13,13,0,0,0,1.83-.1v1.38a13.2,13.2,0,0,0-1.83-.1h-.86a16.12,16.12,0,0,0,.93,2,11.7,11.7,0,0,0,2,2.69,6.41,6.41,0,0,0-.78,1.22,15.39,15.39,0,0,1-2.33-4.2c.07,1.45.09,2.31.09,3.86V201a12.55,12.55,0,0,0,.12,2H632a12.06,12.06,0,0,0,.13-1.95V195.3c0-1.41,0-2.4.1-3.86a19.4,19.4,0,0,1-3.36,6.88,4.86,4.86,0,0,0-.86-1.17,19.65,19.65,0,0,0,3.89-7.79h-1.39a13.22,13.22,0,0,0-1.89.1v-1.38a17,17,0,0,0,1.89.1h1.62Zm12.43,15c0,1.32-.45,1.64-2.36,1.64-.79,0-1.46,0-2.52-.13a4.18,4.18,0,0,0-.37-1.43,19.91,19.91,0,0,0,2.79.28c.92,0,1.07-.07,1.07-.55v-11h-4.35a14.72,14.72,0,0,0-2.18.13v-1.47a15,15,0,0,0,2.16.12h4.37v-1.87a14.17,14.17,0,0,0-.15-2.41h1.66a20.09,20.09,0,0,0-.12,2.43v1.85h.54a13.93,13.93,0,0,0,2-.12v1.42c-.65-.06-1.33-.08-2-.08h-.56ZM640,197.4a21.08,21.08,0,0,0-2.94-5.23l1.2-.61a28,28,0,0,1,3,5Z"/><path class="cls-1" d="M653.59,189.48a11.41,11.41,0,0,0-2.27.13v-1.56a13.22,13.22,0,0,0,2.24.15h2.59v-1.87a12,12,0,0,0-.15-2.14h1.64a11,11,0,0,0-.13,2.16v1.85h5.69v-1.8a14.85,14.85,0,0,0-.12-2.21l1.65,0a12.86,12.86,0,0,0-.14,2.21v1.78H667a13.23,13.23,0,0,0,2.21-.15v1.56a11.81,11.81,0,0,0-2.21-.13h-2.43V195h2.94a16.15,16.15,0,0,0,2.2-.12v1.55a13.13,13.13,0,0,0-2.2-.15h-2.94v4.29a15,15,0,0,0,.14,2.37l-1.65,0a16.7,16.7,0,0,0,.12-2.35v-4.29h-6a10.37,10.37,0,0,1-1.58,4.18,11.27,11.27,0,0,1-2.62,2.67,5.09,5.09,0,0,0-1.09-1.16,9.46,9.46,0,0,0,2.68-2.56,8.14,8.14,0,0,0,1.22-3.13h-2.92a12,12,0,0,0-2.14.15v-1.55a15.27,15.27,0,0,0,2.12.12H656a38.36,38.36,0,0,0,.19-4.13v-1.37Zm3.92,1.51a36.31,36.31,0,0,1-.19,4h5.88v-5.5h-5.69Z"/><path class="cls-1" d="M675.28,196.14a15.65,15.65,0,0,1-1.2,5.65l-1-.53a12.55,12.55,0,0,0,1.22-5.33Zm3.63-2.14H680a12,12,0,0,0,1.95-.09c0,.23,0,.4,0,.84a32.12,32.12,0,0,1-.82,6.89c-.31.9-.79,1.2-2,1.2-.4,0-.84,0-1.53-.09v-.17a3.73,3.73,0,0,0-.23-1.17,9.57,9.57,0,0,0,1.84.25c.65,0,.82-.27,1.1-1.81a38.28,38.28,0,0,0,.42-4.78H676.2c-.84,0-1.34,0-1.93.06,0-.46.07-1,.07-2.16v-5.76a21.54,21.54,0,0,0-.09-2.43,16.49,16.49,0,0,0,2.31.1h3.3a16,16,0,0,0,2.14-.1v1.3a14.25,14.25,0,0,0-2-.1h-1.12v1.93h.8a10.06,10.06,0,0,0,1.83-.11V189a11.87,11.87,0,0,0-1.83-.1h-.8v1.89h.8a11.06,11.06,0,0,0,1.83-.11V192a11.87,11.87,0,0,0-1.83-.1h-.8Zm-1.11-8h-2.29v1.93h2.29Zm0,3h-2.29v1.89h2.29Zm-2.29,2.92V194h2.29v-2.14Zm1.13,4.24a32,32,0,0,1,.36,4.61l-1,.15c0-.38,0-.67,0-.86a29.37,29.37,0,0,0-.19-3.78ZM678,196a21.23,21.23,0,0,1,.73,3.76l-.92.3a19.6,19.6,0,0,0-.63-3.87Zm1.28-.21a14,14,0,0,1,.84,2.82l-.8.33a12.75,12.75,0,0,0-.77-2.92Zm9-3.52a18.18,18.18,0,0,0,1.38,5.58,10.62,10.62,0,0,0,2.82,4,4.63,4.63,0,0,0-1,1.2,14.7,14.7,0,0,1-3.09-5,20.83,20.83,0,0,1-1.3-5.73h-2.4c-.16,5.29-.67,7.85-2.12,10.64a4.3,4.3,0,0,0-1.19-.73c1.68-2.71,2.14-6,2.14-14.74a20.36,20.36,0,0,0-.09-2.5,16.93,16.93,0,0,0,2.31.1h3.49a15.75,15.75,0,0,0,2.27-.1,15.94,15.94,0,0,0-.09,2.29v2.85a16.33,16.33,0,0,0,.09,2.27,15.59,15.59,0,0,0-2-.08Zm1.84-1.16v-4.91h-5.37v1.05c0,.59,0,1.87,0,3.86Z"/><path class="cls-1" d="M705.77,184.53a15.33,15.33,0,0,0-.13,2.77c0,.46,0,.69.05,2.18a20.63,20.63,0,0,0,6.15-.8l.19,1.56a12.07,12.07,0,0,0-1.26.14,36.64,36.64,0,0,1-5.06.47c.06,2,.17,4.07.27,5.41a18.33,18.33,0,0,1,5.61,3c.44.31.44.33,1,.65l-1,1.47a8.88,8.88,0,0,0-2.18-1.83,21.72,21.72,0,0,0-2.83-1.62,2.84,2.84,0,0,1-.51-.23,5.08,5.08,0,0,1,.09.9,3.7,3.7,0,0,1-.53,2.12,4.41,4.41,0,0,1-3.73,1.45c-2.71,0-4.37-1.17-4.37-3.1s2-3.32,4.93-3.32a8.72,8.72,0,0,1,1.83.19.72.72,0,0,0,.19,0s0,0,.1,0a.65.65,0,0,0,0-.19v-.12c-.17-2.42-.31-6.47-.33-9.47a10.9,10.9,0,0,0-.11-1.7Zm-3.36,12.53c-2.14,0-3.44.76-3.44,2a1.42,1.42,0,0,0,.31.9,3.41,3.41,0,0,0,2.52.84,3.54,3.54,0,0,0,2.33-.69,2,2,0,0,0,.51-1.58,11,11,0,0,0-.07-1.15A6.87,6.87,0,0,0,702.41,197.06Z"/><path class="cls-1" d="M724.42,184.61a11.08,11.08,0,0,0-.48,2.16c-.34,2.12-.63,4.41-.7,5.48l.09,0,.14-.61a9.65,9.65,0,0,1,1.28-3.13c1.18-1.81,2.57-2.71,4.2-2.71a3.94,3.94,0,0,1,3.36,1.87,8.55,8.55,0,0,1,1.26,5.1,8.66,8.66,0,0,1-4.85,8.25,16.28,16.28,0,0,1-3.73,1.24,4.56,4.56,0,0,0-.84-1.43,11.09,11.09,0,0,0,4.26-1.32c2.46-1.41,3.61-3.61,3.61-7s-1.18-5.33-3.19-5.33c-1.6,0-2.94,1.19-4.14,3.65a11,11,0,0,0-1.13,4.68c0,.09,0,.19,0,.51l-1.51.06v-.23l0-.38,0-2.18v-.49a52.37,52.37,0,0,1,.72-7.74,4.48,4.48,0,0,0,.06-.68Z"/><path class="cls-1" d="M743,196c0-.86,0-1.42.06-2.52a11.59,11.59,0,0,1-2.08,2.17,3.48,3.48,0,0,0-.76-1.18,15.37,15.37,0,0,0,3.78-3.93,7.81,7.81,0,0,0,1-1.8l1.22.73a5.52,5.52,0,0,0-.59.91c-.34.52-.71,1.05-1.32,1.82v8.42a20,20,0,0,0,.1,2.42h-1.53a19.4,19.4,0,0,0,.13-2.44Zm3.08-11.25c-.17.17-.17.19-.63.73a19.63,19.63,0,0,1-4.24,3.89,4.36,4.36,0,0,0-.86-1.05,15.67,15.67,0,0,0,2.58-2,8.58,8.58,0,0,0,1.95-2.42Zm5.78,7.43H748a18,18,0,0,0-2,.11v-1.39a18.64,18.64,0,0,0,2,.11h3.93V188H749a11.4,11.4,0,0,0-1.91.11v-1.39a12.13,12.13,0,0,0,1.91.1h2.92v-.5a8.58,8.58,0,0,0-.17-2.16h1.57a10.82,10.82,0,0,0-.12,2.14v.52h3.19a12.67,12.67,0,0,0,2-.1v1.39a11.78,11.78,0,0,0-2-.11h-3.21V191h4.45a18.89,18.89,0,0,0,2-.11v1.39a17.68,17.68,0,0,0-2-.11h-4.47v3h3.29a13.91,13.91,0,0,0,1.92-.11v1.41a16.17,16.17,0,0,0-1.92-.11h-3.29v4.16a20.38,20.38,0,0,0,3.86.29c.76,0,1.43,0,2.81-.08a5.67,5.67,0,0,0-.44,1.45c-.73,0-1.3,0-1.66,0-5.27,0-7.81-1-9.57-3.68a14.47,14.47,0,0,1-2.39,4.5,3.51,3.51,0,0,0-1.12-.88,13.1,13.1,0,0,0,2.92-6.16,11,11,0,0,0,.32-2.37l1.45.28a15.86,15.86,0,0,0-.47,2.07c-.08.4-.14.72-.27,1.2a5.83,5.83,0,0,0,3.26,3Z"/><path class="cls-1" d="M769.44,193.32a16.3,16.3,0,0,1-5.16,5,6.26,6.26,0,0,0-1-1,11.83,11.83,0,0,0,5-4.68Zm10.42-2.81a14.07,14.07,0,0,0,2.16-.13v1.48a14.61,14.61,0,0,0-2.16-.13H773.6v5c0,1-.61,1.4-2.12,1.4-.61,0-1.36,0-2.12-.08a4.63,4.63,0,0,0-.34-1.34,13.45,13.45,0,0,0,2.36.23c.69,0,.86-.09.86-.44v-4.79h-6.51a15.78,15.78,0,0,0-2.27.13v-1.48a15.6,15.6,0,0,0,2.27.13h1.38v-3a12.86,12.86,0,0,0-.12-1.87h1.55a10.62,10.62,0,0,0-.13,1.87v3h3.87V186a11.85,11.85,0,0,0-.13-2h1.58a9.35,9.35,0,0,0-.13,1.91v.61h4.68a13.33,13.33,0,0,0,2-.12v1.4a12.82,12.82,0,0,0-2-.1H773.6v2.79Zm-1.28,6.2c-1.52,1.51-1.64,1.63-2.12,2A19.19,19.19,0,0,1,765.08,203a4.82,4.82,0,0,0-.68-1.41,18.23,18.23,0,0,0,9.54-2.58,9.79,9.79,0,0,0,3.4-3.19Zm-1.33-4.1a15.85,15.85,0,0,0,5.06,3.91,6.75,6.75,0,0,0-1,1.09,22.43,22.43,0,0,1-5.21-4.31Z"/><path class="cls-1" d="M803.42,186.79a8.39,8.39,0,0,0-1.55,2,27.22,27.22,0,0,0-4.71,12.51h-2a27.5,27.5,0,0,1,2.54-8.37,34.18,34.18,0,0,1,3.78-6.09h-6.82a17,17,0,0,0-2.38.14v-1.78a15.82,15.82,0,0,0,2.4.15H801a17.21,17.21,0,0,0,2.44-.11Z"/><path class="cls-1" d="M821.5,184.63a5.89,5.89,0,0,0-.59,1.07,20.8,20.8,0,0,1-6.61,7.88,4.47,4.47,0,0,0-1-1.14,17.34,17.34,0,0,0,5.76-6.15,6.91,6.91,0,0,0,.9-2.2Zm-2,8.17a16,16,0,0,0-2.17.13v-1.49a17,17,0,0,0,2.19.12h6.9a16.73,16.73,0,0,0,2.21-.1,9.58,9.58,0,0,0-.08,1.49c0,4.07-.4,7.62-.95,8.6-.36.64-.86.84-2.08.84-.69,0-1.43,0-2.75-.16a5.65,5.65,0,0,0-.33-1.49,16.08,16.08,0,0,0,3,.35c.67,0,.9-.12,1-.52a30,30,0,0,0,.69-7.77h-4.89a12,12,0,0,1-1.64,5.52,12.28,12.28,0,0,1-5.29,4.58,4.44,4.44,0,0,0-.93-1.18c2.69-1.3,4.29-2.68,5.29-4.6a10.06,10.06,0,0,0,1.14-4.32Zm6.53-8.67a8.2,8.2,0,0,0,.79,1.76,17.56,17.56,0,0,0,6.2,6.53,5.44,5.44,0,0,0-1,1.28,21.18,21.18,0,0,1-7.07-8.44l-.34-.59Z"/></g></g></svg>