<svg xmlns="http://www.w3.org/2000/svg" width="562.1" height="339.36" viewBox="0 0 562.1 339.36">
  <defs>
    <style>
      .cls-1 {
        fill: #fff;
      }
    </style>
  </defs>
  <g id="レイヤー_2" data-name="レイヤー 2">
    <g id="レイヤー_2-2" data-name="レイヤー 2">
      <g>
        <path class="cls-1" d="M53.88.34a14.13,14.13,0,0,0,3.53,3.75,22.43,22.43,0,0,0,5.8,3.36,4.48,4.48,0,0,0-.82,1.35,28.82,28.82,0,0,1-5.84-3.66,17.21,17.21,0,0,1-3.36-3.59A18.44,18.44,0,0,1,50,5a23.08,23.08,0,0,1-5.67,3.69,4,4,0,0,0-.88-1.19,22.38,22.38,0,0,0,5.57-3.43A15.49,15.49,0,0,0,52.39.34ZM46.79,12.05a17,17,0,0,0-2.4.13V10.67a19,19,0,0,0,2.4.12H59.72a18.61,18.61,0,0,0,2.39-.12v1.51a17.06,17.06,0,0,0-2.39-.13H52.18a31.4,31.4,0,0,1-2.62,5c2.9-.19,5.08-.4,8.19-.78-1.26-1.36-1.64-1.74-2.56-2.6L56.28,13a46,46,0,0,1,5.08,5.55l-1.16.86c-.81-1.16-1.09-1.51-1.53-2.06-3.74.5-6.91.84-10.18,1.09a24.06,24.06,0,0,0-3.55.38l-.25-1.6a8,8,0,0,0,1.07.07c.33,0,.33,0,2.22-.13a31.56,31.56,0,0,0,2.67-5.06Zm1.34-5.23a10.06,10.06,0,0,0,1.66.09h6.78a11.7,11.7,0,0,0,1.77-.09V8.23a13.73,13.73,0,0,0-1.77-.08h-6.8a12.71,12.71,0,0,0-1.64.08Z"/>
        <path class="cls-1" d="M68.4,2.48a13.84,13.84,0,0,0-.13-2h1.47a14.32,14.32,0,0,0-.1,2v.38H73.5v-.4a11.44,11.44,0,0,0-.11-2h1.45a13.36,13.36,0,0,0-.12,2v.38a9.24,9.24,0,0,0,1.74-.13V4.09A12.19,12.19,0,0,0,74.72,4v9a10.66,10.66,0,0,0,1.66-.11v1.3c-.49,0-1.1-.06-1.92-.06H67.83a9.22,9.22,0,0,0-1.7.1V12.87a8.8,8.8,0,0,0,1.68.11h.59V4h-.13a8.83,8.83,0,0,0-1.8.11V2.75a8.93,8.93,0,0,0,1.8.13h.13Zm2.16,13a12,12,0,0,1-3.28,3.63,3,3,0,0,0-1-1,8.42,8.42,0,0,0,3.15-3.28ZM73.5,6.19V4H69.64V6.19Zm0,3.28V7.26H69.64V9.47Zm0,3.51V10.54H69.64V13Zm-.32,1.84A8,8,0,0,0,75.24,17a4.07,4.07,0,0,0-1,.9,10.45,10.45,0,0,1-2-2.42Zm5.36-2.39a11.2,11.2,0,0,1-2.46,6.8,3.13,3.13,0,0,0-1-1,8.13,8.13,0,0,0,2.08-4.75,94.16,94.16,0,0,0,.36-9.74A19.36,19.36,0,0,0,77.4,1.3a17.4,17.4,0,0,0,2,.09h2.9a16.59,16.59,0,0,0,2-.09,17.55,17.55,0,0,0-.08,2V17.49c0,.71-.19,1.15-.57,1.36a4,4,0,0,1-1.7.23c-.29,0-.52,0-1.66-.08A5.49,5.49,0,0,0,80,17.51a11.44,11.44,0,0,0,2.31.27c.5,0,.67-.12.67-.46V12.43Zm.19-5c0,2.06,0,2.5-.13,3.84H83V7.41ZM83,2.56h-4.2V6.24H83Z"/>
        <path class="cls-1" d="M113.76,17.57a14.06,14.06,0,0,0-2.31.11,9.42,9.42,0,0,1,.61-2.77,9,9,0,0,1,2.73-3.61A27.51,27.51,0,0,1,118,9c2.08-1.41,2.77-2.33,2.77-3.61,0-1.6-1.34-2.63-3.49-2.63a3.46,3.46,0,0,0-3,1.37,4.24,4.24,0,0,0-.74,2.12l-1.76-.3a5.78,5.78,0,0,1,1.32-3,5.39,5.39,0,0,1,4.22-1.62c3.17,0,5.21,1.6,5.21,4.08a4.39,4.39,0,0,1-1.24,3,16.65,16.65,0,0,1-3.57,2.71,11.32,11.32,0,0,0-3,2.58,5.9,5.9,0,0,0-1.2,2.43h6.7a19.23,19.23,0,0,0,2.56-.14V17.7a24.52,24.52,0,0,0-2.58-.13Z"/>
        <path class="cls-1" d="M128.56,16.4a5.2,5.2,0,0,1-1.26-1.93,14.64,14.64,0,0,1-.8-4.85,12.29,12.29,0,0,1,1.22-5.71,5.15,5.15,0,0,1,4.7-2.59,5.21,5.21,0,0,1,3.85,1.49,5.49,5.49,0,0,1,1.26,1.94,14.5,14.5,0,0,1,.79,4.87,10.87,10.87,0,0,1-1.47,6.06,5.11,5.11,0,0,1-4.45,2.21A5.27,5.27,0,0,1,128.56,16.4Zm1.22-12.56a4.39,4.39,0,0,0-.95,1.54,13,13,0,0,0-.65,4.24,11.5,11.5,0,0,0,1,5,3.58,3.58,0,0,0,3.25,1.83,3.52,3.52,0,0,0,2.59-1,4.05,4.05,0,0,0,1-1.63,12.84,12.84,0,0,0,.66-4.25,11.85,11.85,0,0,0-1-4.89,3.55,3.55,0,0,0-3.3-1.91A3.42,3.42,0,0,0,129.78,3.84Z"/>
        <path class="cls-1" d="M144.37,17.57a14.21,14.21,0,0,0-2.31.11,10.13,10.13,0,0,1,.61-2.77,9.21,9.21,0,0,1,2.73-3.61A29.24,29.24,0,0,1,148.62,9c2.07-1.41,2.77-2.33,2.77-3.61,0-1.6-1.35-2.63-3.49-2.63a3.46,3.46,0,0,0-3,1.37,4.24,4.24,0,0,0-.74,2.12l-1.76-.3a5.7,5.7,0,0,1,1.32-3A5.37,5.37,0,0,1,147.9,1.3c3.17,0,5.21,1.6,5.21,4.08a4.39,4.39,0,0,1-1.24,3,17,17,0,0,1-3.57,2.71,11.32,11.32,0,0,0-3,2.58,5.9,5.9,0,0,0-1.2,2.43h6.7a19.23,19.23,0,0,0,2.56-.14V17.7a24.52,24.52,0,0,0-2.58-.13Z"/>
        <path class="cls-1" d="M159.68,17.57a14.21,14.21,0,0,0-2.31.11,9.77,9.77,0,0,1,.61-2.77,9.21,9.21,0,0,1,2.73-3.61A29.71,29.71,0,0,1,163.92,9c2.08-1.41,2.78-2.33,2.78-3.61,0-1.6-1.35-2.63-3.49-2.63a3.46,3.46,0,0,0-3,1.37,4.24,4.24,0,0,0-.74,2.12l-1.76-.3a5.7,5.7,0,0,1,1.32-3,5.37,5.37,0,0,1,4.22-1.62c3.17,0,5.21,1.6,5.21,4.08a4.39,4.39,0,0,1-1.24,3,17,17,0,0,1-3.57,2.71,11.32,11.32,0,0,0-3,2.58,5.9,5.9,0,0,0-1.2,2.43h6.7a19.23,19.23,0,0,0,2.56-.14V17.7a24.52,24.52,0,0,0-2.58-.13Z"/>
        <path class="cls-1" d="M181.56,8.5a12.27,12.27,0,0,0-.06-1.24,13,13,0,0,0,1.49.07h4.56V3.91h-4.94a17.24,17.24,0,0,1-3.48,4.28,3.47,3.47,0,0,0-1-1,13.69,13.69,0,0,0,4.2-5.65A9.08,9.08,0,0,0,182.85,0l1.49.42c-.09.17-.15.32-.28.57l-.79,1.7h10.41a10.4,10.4,0,0,0,1.89-.11V4a12.08,12.08,0,0,0-1.89-.1h-4.75V7.33h3.8a10.55,10.55,0,0,0,1.87-.11V8.61a15.54,15.54,0,0,0-1.84-.09h-3.83v4.12h5.3a13.34,13.34,0,0,0,2.12-.13V14a14.22,14.22,0,0,0-2.12-.13h-5.3v3.46a10,10,0,0,0,.15,2h-1.66a9,9,0,0,0,.13-2V13.9H180a14.22,14.22,0,0,0-2.12.13V12.51a13.68,13.68,0,0,0,2.12.13h1.59Zm6,4.14V8.52h-4.62v4.12Z"/>
        <path class="cls-1" d="M207.16,13.69a3.15,3.15,0,0,0,1.29,2,4.55,4.55,0,0,0,2.7.76c2.44,0,4-1.26,4-3.25S213.63,10,210.84,10a13.29,13.29,0,0,0-1.68.11V8.42a9.34,9.34,0,0,0,1.55.13,4.2,4.2,0,0,0,3.07-1,2.91,2.91,0,0,0,.84-2c0-1.8-1.26-2.85-3.38-2.85a3.27,3.27,0,0,0-2.79,1.11,3.85,3.85,0,0,0-.68,1.49L206,4.91a4.9,4.9,0,0,1,1.13-2.1,5.5,5.5,0,0,1,4.18-1.53c3,0,5,1.6,5,4.12a3.69,3.69,0,0,1-1.47,3.06,4.34,4.34,0,0,1-2,.76,4.46,4.46,0,0,1,2.58.9,3.85,3.85,0,0,1,1.4,3.17c0,2.83-2.18,4.6-5.69,4.6a6,6,0,0,1-4.7-1.72,5.58,5.58,0,0,1-1.07-2Z"/>
        <path class="cls-1" d="M230.85,12.35A14.56,14.56,0,0,1,230,15.6a11.2,11.2,0,0,1-2.31,3.65,5,5,0,0,0-1.15-1.11A8.76,8.76,0,0,0,229,14c.59-2,.82-4.58.82-9.24,0-1.93,0-2.77-.08-3.57a18.61,18.61,0,0,0,2.2.1h7.9a17.66,17.66,0,0,0,2.18-.1,19.16,19.16,0,0,0-.08,2.16V17.2a1.61,1.61,0,0,1-.59,1.47,3.06,3.06,0,0,1-1.68.27c-.69,0-1.57,0-2.52-.09a5.64,5.64,0,0,0-.34-1.42,22.19,22.19,0,0,0,3,.21c.61,0,.77-.13.77-.65V12.35Zm9.74-1.26V7.35h-9.36c0,1.15-.06,2-.23,3.74Zm0-5V2.6h-9.34l0,3v.51Z"/>
        <path class="cls-1" d="M256.16,1.51a9.45,9.45,0,0,0,1.74.11h1.32A11.27,11.27,0,0,0,261,1.51,33.31,33.31,0,0,0,260.78,5V15.2a13.94,13.94,0,0,0,.16,2.37h-2a12.78,12.78,0,0,0,.17-2.37V3H258a13.21,13.21,0,0,0-1.82.13Z"/>
        <path class="cls-1" d="M279.28,10.12a3.88,3.88,0,0,1,1.57,3.3c0,2.87-2.1,4.49-5.79,4.49-3.85,0-6-1.6-6-4.49A3.91,3.91,0,0,1,271,9.93a4.22,4.22,0,0,1,1.89-.71,3.66,3.66,0,0,1-3-3.78c0-2.54,2-4.16,5.16-4.16s5.19,1.58,5.19,4.16a3.66,3.66,0,0,1-3.05,3.78A4.16,4.16,0,0,1,279.28,10.12Zm-8.47,3.19c0,2,1.54,3.17,4.14,3.17a4.75,4.75,0,0,0,3.38-1.09,2.73,2.73,0,0,0,.8-2.08c0-2.06-1.58-3.3-4.16-3.3S270.81,11.27,270.81,13.31Zm.63-7.75c0,1.87,1.35,3,3.55,3s3.53-1.14,3.53-3S277.13,2.69,275,2.69,271.44,3.82,271.44,5.56Z"/>
        <path class="cls-1" d="M292.32,3.4a13.82,13.82,0,0,0-.11-2.06,16.22,16.22,0,0,0,2.25.11h9.45a14.29,14.29,0,0,0,2.16-.11,14,14,0,0,0-.1,1.94V16.73a16.86,16.86,0,0,0,.12,2.25h-1.53V17.62H293.73V19h-1.54a15.18,15.18,0,0,0,.13-2.23Zm1.41,5.21h10.83V2.73H293.73Zm0,7.72h10.83V9.89H293.73Z"/>
        <path class="cls-1" d="M322,21a17.12,17.12,0,0,1-2.23-4.39,17.3,17.3,0,0,1-.86-5.46,17.3,17.3,0,0,1,.86-5.46A17.36,17.36,0,0,1,322,1.36l1.32.84a15.1,15.1,0,0,0-2.1,4.25,15.5,15.5,0,0,0-.71,4.74,15.69,15.69,0,0,0,.71,4.77,15.06,15.06,0,0,0,2.1,4.24Z"/>
        <path class="cls-1" d="M328.84,15.12a12.75,12.75,0,0,0,.17,2.45h-2a12.75,12.75,0,0,0,.17-2.45V4a14.2,14.2,0,0,0-.17-2.4c.74.05,1.3.07,2.31.07h5.56a15.75,15.75,0,0,0,2.42-.15V3.25a15.47,15.47,0,0,0-2.42-.14h-6V8.52h4.91a16.71,16.71,0,0,0,2.39-.14v1.76a15.1,15.1,0,0,0-2.39-.15h-4.91Z"/>
        <path class="cls-1" d="M347.84,7.87a5,5,0,0,0-1.7-.31,3.09,3.09,0,0,0-2.58,1.28,3.44,3.44,0,0,0-.78,2.1v4.28a15.65,15.65,0,0,0,.15,2.35H341a20.1,20.1,0,0,0,.15-2.37V8.63A15.72,15.72,0,0,0,341,6.26h1.74V7.45c0,.17,0,.49,0,.63a3.67,3.67,0,0,1,1.16-1.28,4.2,4.2,0,0,1,2.52-.73,9.4,9.4,0,0,1,1.86.19Z"/>
        <path class="cls-1" d="M353.6,1.62V3.49h-2V1.62Zm-.09,4.64a15.7,15.7,0,0,0-.14,2.37V15.2a17.27,17.27,0,0,0,.14,2.37h-1.89a17.34,17.34,0,0,0,.15-2.37V8.63a14.66,14.66,0,0,0-.15-2.37Z"/>
        <path class="cls-1" d="M358.51,1.36a17.36,17.36,0,0,1,2.23,4.37,16.75,16.75,0,0,1,.86,5.46,16.62,16.62,0,0,1-.86,5.46A17.12,17.12,0,0,1,358.51,21l-1.32-.84a15.06,15.06,0,0,0,2.1-4.24,15.6,15.6,0,0,0,.71-4.77,15.41,15.41,0,0,0-.71-4.74,15.1,15.1,0,0,0-2.1-4.25Z"/>
        <path class="cls-1" d="M374.68,10.58a11.33,11.33,0,0,0,1.91.11h2.5a11.45,11.45,0,0,0,1.93-.11v1.77a11.59,11.59,0,0,0-1.93-.11h-2.5a11.62,11.62,0,0,0-1.91.11Z"/>
        <path class="cls-1" d="M394.34,13.69a3.14,3.14,0,0,0,1.28,2,4.59,4.59,0,0,0,2.71.76c2.43,0,4-1.26,4-3.25S400.8,10,398,10a13.29,13.29,0,0,0-1.68.11V8.42a9.37,9.37,0,0,0,1.56.13,4.19,4.19,0,0,0,3.06-1,2.86,2.86,0,0,0,.84-2c0-1.8-1.26-2.85-3.38-2.85a3.28,3.28,0,0,0-2.79,1.11A3.86,3.86,0,0,0,395,5.29l-1.75-.38a4.8,4.8,0,0,1,1.14-2.1,5.47,5.47,0,0,1,4.18-1.53c3,0,5,1.6,5,4.12A3.69,3.69,0,0,1,402,8.46a4.29,4.29,0,0,1-2,.76,4.41,4.41,0,0,1,2.58.9A3.86,3.86,0,0,1,404,13.29c0,2.83-2.19,4.6-5.69,4.6a6,6,0,0,1-4.71-1.72,5.58,5.58,0,0,1-1.07-2Z"/>
        <path class="cls-1" d="M418,12.35a14,14,0,0,1-.86,3.25,11,11,0,0,1-2.31,3.65,4.84,4.84,0,0,0-1.15-1.11A8.86,8.86,0,0,0,416.18,14c.58-2,.82-4.58.82-9.24,0-1.93,0-2.77-.09-3.57a18.79,18.79,0,0,0,2.21.1H427a17.66,17.66,0,0,0,2.18-.1,19.16,19.16,0,0,0-.08,2.16V17.2a1.61,1.61,0,0,1-.59,1.47,3,3,0,0,1-1.68.27c-.69,0-1.57,0-2.52-.09a5.62,5.62,0,0,0-.33-1.42,22,22,0,0,0,3,.21c.61,0,.78-.13.78-.65V12.35Zm9.75-1.26V7.35H418.4c0,1.15-.06,2-.23,3.74Zm0-5V2.6h-9.35l0,3v.51Z"/>
        <path class="cls-1" d="M443.5,17.57a14.06,14.06,0,0,0-2.31.11,9.42,9.42,0,0,1,.61-2.77,9,9,0,0,1,2.73-3.61A27.51,27.51,0,0,1,447.74,9c2.08-1.41,2.77-2.33,2.77-3.61,0-1.6-1.34-2.63-3.49-2.63a3.46,3.46,0,0,0-3,1.37,4.15,4.15,0,0,0-.73,2.12l-1.77-.3a5.78,5.78,0,0,1,1.32-3A5.39,5.39,0,0,1,447,1.3c3.17,0,5.21,1.6,5.21,4.08a4.39,4.39,0,0,1-1.24,3,16.65,16.65,0,0,1-3.57,2.71,11.49,11.49,0,0,0-3,2.58,5.9,5.9,0,0,0-1.2,2.43h6.7a19.23,19.23,0,0,0,2.56-.14V17.7a24.52,24.52,0,0,0-2.58-.13Z"/>
        <path class="cls-1" d="M458.3,16.4A5.2,5.2,0,0,1,457,14.47a14.64,14.64,0,0,1-.8-4.85,12.29,12.29,0,0,1,1.22-5.71A5.63,5.63,0,0,1,466,2.81a5.23,5.23,0,0,1,1.26,1.94,14.5,14.5,0,0,1,.79,4.87,11,11,0,0,1-1.46,6.06,5.14,5.14,0,0,1-4.46,2.21A5.27,5.27,0,0,1,458.3,16.4Zm1.22-12.56a4.39,4.39,0,0,0-.95,1.54,13,13,0,0,0-.65,4.24,11.5,11.5,0,0,0,1,5,3.59,3.59,0,0,0,3.26,1.83,3.51,3.51,0,0,0,2.58-1,4.05,4.05,0,0,0,1-1.63,12.84,12.84,0,0,0,.66-4.25,11.85,11.85,0,0,0-.95-4.89,3.55,3.55,0,0,0-3.3-1.91A3.42,3.42,0,0,0,459.52,3.84Z"/>
        <path class="cls-1" d="M479.49,3.4a15.48,15.48,0,0,0-.1-2.06,16,16,0,0,0,2.24.11h9.45a14.21,14.21,0,0,0,2.16-.11,14,14,0,0,0-.1,1.94V16.73a15.12,15.12,0,0,0,.13,2.25h-1.54V17.62H480.9V19h-1.54a15.18,15.18,0,0,0,.13-2.23Zm1.41,5.21h10.83V2.73H480.9Zm0,7.72h10.83V9.89H480.9Z"/>
        <path class="cls-1" d="M509.12,21a16.73,16.73,0,0,1-2.22-4.39,17,17,0,0,1-.87-5.46,16.78,16.78,0,0,1,3.09-9.83l1.32.84a15,15,0,0,0-2.09,4.25,15.21,15.21,0,0,0-.72,4.74,15.4,15.4,0,0,0,.72,4.77,15,15,0,0,0,2.09,4.24Z"/>
        <path class="cls-1" d="M523.4,5.75A3.5,3.5,0,0,0,522.67,4a3.91,3.91,0,0,0-3.11-1.22c-2.16,0-3.68,1.16-3.68,2.86A2.47,2.47,0,0,0,517.71,8a15.85,15.85,0,0,0,3,.76c3.36.71,4.71,2,4.71,4.43,0,3-2,4.64-5.65,4.64-2.35,0-4.1-.7-5.06-2a5.33,5.33,0,0,1-1-2.77l1.83-.23a3.26,3.26,0,0,0,.65,2.08,4.25,4.25,0,0,0,3.5,1.45c2.5,0,4-1.18,4-3.13A2.41,2.41,0,0,0,522.5,11c-.7-.4-.93-.46-3.47-1a9.37,9.37,0,0,1-2.85-1,3.6,3.6,0,0,1-2-3.32c0-2.65,2.13-4.35,5.38-4.35a5.54,5.54,0,0,1,4.64,1.94,4.85,4.85,0,0,1,.92,2.22Z"/>
        <path class="cls-1" d="M537.87,16.21a6.68,6.68,0,0,1,.06-.92,4.58,4.58,0,0,1-4.24,2.49,3.82,3.82,0,0,1-3.36-1.55,4.59,4.59,0,0,1-.59-2.44V8.61a15.76,15.76,0,0,0-.14-2.35h1.89a15.41,15.41,0,0,0-.15,2.37v4.89c0,1.87.9,2.92,2.54,2.92a3.59,3.59,0,0,0,3-1.66,4.85,4.85,0,0,0,1-2.1v-4a15.58,15.58,0,0,0-.15-2.37h1.87a16.28,16.28,0,0,0-.15,2.37V15.2a14.76,14.76,0,0,0,.17,2.37h-1.74Z"/>
        <path class="cls-1" d="M544.11,17.57a13.94,13.94,0,0,0,.16-2.37V8.63a14.8,14.8,0,0,0-.16-2.37h1.74V7.68a6,6,0,0,1-.06.91A4.55,4.55,0,0,1,550,6.05a3.79,3.79,0,0,1,3.36,1.57A4.29,4.29,0,0,1,554,10v5.18a14.9,14.9,0,0,0,.14,2.35h-1.89a16.2,16.2,0,0,0,.15-2.37V10.31c0-1.89-.9-2.9-2.56-2.9a3.66,3.66,0,0,0-3,1.66,4.47,4.47,0,0,0-1,2.08v4a16.2,16.2,0,0,0,.15,2.37Z"/>
        <path class="cls-1" d="M559,1.36a17.29,17.29,0,0,1,2.22,4.37,16.49,16.49,0,0,1,.86,5.46,16.37,16.37,0,0,1-.86,5.46A17,17,0,0,1,559,21l-1.33-.84a14.79,14.79,0,0,0,2.1-4.24,15.31,15.31,0,0,0,.72-4.77,15.12,15.12,0,0,0-.72-4.74,14.83,14.83,0,0,0-2.1-4.25Z"/>
        <path class="cls-1" d="M113.59,41.51a9.45,9.45,0,0,0,1.74.11h1.32a11.27,11.27,0,0,0,1.75-.11,33.31,33.31,0,0,0-.19,3.49V55.2a12.91,12.91,0,0,0,.17,2.37h-2a12.78,12.78,0,0,0,.17-2.37V43h-1.13a13.24,13.24,0,0,0-1.83.13Z"/>
        <path class="cls-1" d="M128.9,41.51a9.45,9.45,0,0,0,1.74.11H132a11.27,11.27,0,0,0,1.75-.11,33.31,33.31,0,0,0-.19,3.49V55.2a13.94,13.94,0,0,0,.16,2.37h-2a12.78,12.78,0,0,0,.17-2.37V43h-1.14a13.21,13.21,0,0,0-1.82.13Z"/>
        <path class="cls-1" d="M144.37,48.33H142.3V46.26h2.07Zm-2.07,9.24V55.5h2.07v2.07Z"/>
        <path class="cls-1" d="M150.42,56.4a5.33,5.33,0,0,1-1.26-1.93,14.64,14.64,0,0,1-.8-4.85,12.29,12.29,0,0,1,1.22-5.71,5.63,5.63,0,0,1,8.55-1.1,5.23,5.23,0,0,1,1.26,1.94,14.5,14.5,0,0,1,.8,4.87,11,11,0,0,1-1.47,6.06,5.14,5.14,0,0,1-4.46,2.21A5.27,5.27,0,0,1,150.42,56.4Zm1.22-12.56a4.22,4.22,0,0,0-.94,1.54,12.74,12.74,0,0,0-.66,4.24,11.5,11.5,0,0,0,1,5,3.59,3.59,0,0,0,3.26,1.83,3.5,3.5,0,0,0,2.58-1,4.05,4.05,0,0,0,1-1.63,12.84,12.84,0,0,0,.66-4.25,11.85,11.85,0,0,0-.95-4.89,3.55,3.55,0,0,0-3.3-1.91A3.42,3.42,0,0,0,151.64,43.84Z"/>
        <path class="cls-1" d="M165.73,56.4a5.2,5.2,0,0,1-1.26-1.93,14.64,14.64,0,0,1-.8-4.85,12.29,12.29,0,0,1,1.22-5.71,5.15,5.15,0,0,1,4.7-2.59,5.21,5.21,0,0,1,3.85,1.49,5.49,5.49,0,0,1,1.26,1.94,14.5,14.5,0,0,1,.79,4.87A10.87,10.87,0,0,1,174,55.68a5.14,5.14,0,0,1-4.45,2.21A5.27,5.27,0,0,1,165.73,56.4ZM167,43.84a4.39,4.39,0,0,0-.95,1.54,13,13,0,0,0-.65,4.24,11.5,11.5,0,0,0,1,5,3.57,3.57,0,0,0,3.25,1.83,3.52,3.52,0,0,0,2.59-1,4.17,4.17,0,0,0,1-1.63,13.11,13.11,0,0,0,.65-4.25,11.86,11.86,0,0,0-.94-4.89,3.55,3.55,0,0,0-3.3-1.91A3.42,3.42,0,0,0,167,43.84Z"/>
        <path class="cls-1" d="M187.09,50.58a11.33,11.33,0,0,0,1.91.11h2.5a11.45,11.45,0,0,0,1.93-.11v1.77a11.59,11.59,0,0,0-1.93-.11H189a11.62,11.62,0,0,0-1.91.11Z"/>
        <path class="cls-1" d="M207.41,41.51a9.63,9.63,0,0,0,1.75.11h1.32a11.14,11.14,0,0,0,1.74-.11c-.12,1.28-.19,2.35-.19,3.49V55.2a13.86,13.86,0,0,0,.17,2.37h-2a13.7,13.7,0,0,0,.17-2.37V43h-1.14a13.36,13.36,0,0,0-1.83.13Z"/>
        <path class="cls-1" d="M222.43,54.09a3.21,3.21,0,0,0,.76,1.34,3.41,3.41,0,0,0,2.64,1,3.63,3.63,0,0,0,3.38-1.93,8.18,8.18,0,0,0,.9-2.69,21.63,21.63,0,0,0,.19-2.46,4.09,4.09,0,0,1-.84,1.18,5.77,5.77,0,0,1-7.6.08,5.36,5.36,0,0,1-1.42-3.78c0-3.33,2.24-5.52,5.68-5.52a5.27,5.27,0,0,1,5.09,3.53,12.71,12.71,0,0,1,.6,4.37c0,2.91-.6,5.29-1.74,6.69a5.13,5.13,0,0,1-4.36,2,5,5,0,0,1-5-3.22Zm7.47-7.39a3.85,3.85,0,0,0-3.92-4,3.89,3.89,0,0,0-3.34,1.78,4.43,4.43,0,0,0-.55,2.21,3.54,3.54,0,0,0,3.74,3.86A3.88,3.88,0,0,0,229.9,46.7Z"/>
        <path class="cls-1" d="M238.2,48.33h-2.08V46.26h2.08Zm-2.08,9.24V55.5h2.08v2.07Z"/>
        <path class="cls-1" d="M244.25,56.4A5.2,5.2,0,0,1,243,54.47a14.39,14.39,0,0,1-.8-4.85,12.17,12.17,0,0,1,1.22-5.71,5.61,5.61,0,0,1,8.54-1.1,5.23,5.23,0,0,1,1.26,1.94,14.26,14.26,0,0,1,.8,4.87,10.87,10.87,0,0,1-1.47,6.06,5.14,5.14,0,0,1-4.45,2.21A5.27,5.27,0,0,1,244.25,56.4Zm1.22-12.56a4.39,4.39,0,0,0-.95,1.54,13,13,0,0,0-.65,4.24,11.5,11.5,0,0,0,1,5,3.56,3.56,0,0,0,3.25,1.83,3.5,3.5,0,0,0,2.58-1,4.07,4.07,0,0,0,1-1.63,13.11,13.11,0,0,0,.65-4.25,12,12,0,0,0-.94-4.89,3.56,3.56,0,0,0-3.3-1.91A3.42,3.42,0,0,0,245.47,43.84Z"/>
        <path class="cls-1" d="M259.56,56.4a5.2,5.2,0,0,1-1.26-1.93,14.39,14.39,0,0,1-.8-4.85,12.17,12.17,0,0,1,1.22-5.71,5.61,5.61,0,0,1,8.54-1.1,5.23,5.23,0,0,1,1.26,1.94,14.26,14.26,0,0,1,.8,4.87,11,11,0,0,1-1.47,6.06,5.14,5.14,0,0,1-4.45,2.21A5.26,5.26,0,0,1,259.56,56.4Zm1.22-12.56a4.25,4.25,0,0,0-.95,1.54,13,13,0,0,0-.65,4.24,11.5,11.5,0,0,0,1,5,3.56,3.56,0,0,0,3.25,1.83,3.5,3.5,0,0,0,2.58-1,4.07,4.07,0,0,0,1-1.63,13.11,13.11,0,0,0,.65-4.25,12,12,0,0,0-.94-4.89,3.56,3.56,0,0,0-3.3-1.91A3.42,3.42,0,0,0,260.78,43.84Z"/>
        <path class="cls-1" d="M53.88,120.34a14.13,14.13,0,0,0,3.53,3.75,22.43,22.43,0,0,0,5.8,3.36,4.61,4.61,0,0,0-.82,1.35,28.82,28.82,0,0,1-5.84-3.66,17.21,17.21,0,0,1-3.36-3.59A18.44,18.44,0,0,1,50,125a23.08,23.08,0,0,1-5.67,3.69,4,4,0,0,0-.88-1.19,22.38,22.38,0,0,0,5.57-3.43,15.31,15.31,0,0,0,3.33-3.73Zm-7.09,11.71a17,17,0,0,0-2.4.13v-1.51a19,19,0,0,0,2.4.12H59.72a18.61,18.61,0,0,0,2.39-.12v1.51a17.06,17.06,0,0,0-2.39-.13H52.18a31.4,31.4,0,0,1-2.62,5c2.9-.19,5.08-.4,8.19-.78-1.26-1.36-1.64-1.74-2.56-2.6l1.09-.67a45.19,45.19,0,0,1,5.08,5.54l-1.16.86c-.81-1.16-1.09-1.51-1.53-2.06-3.74.51-6.91.84-10.18,1.09a25.85,25.85,0,0,0-3.55.38l-.25-1.6a8,8,0,0,0,1.07.07c.33,0,.33,0,2.22-.13a31.56,31.56,0,0,0,2.67-5.06Zm1.34-5.23a10.06,10.06,0,0,0,1.66.09h6.78a11.7,11.7,0,0,0,1.77-.09v1.41a13.73,13.73,0,0,0-1.77-.08h-6.8a12.71,12.71,0,0,0-1.64.08Z"/>
        <path class="cls-1" d="M69,122.73a17.45,17.45,0,0,0-.12-2.31h1.55a15,15,0,0,0-.12,2.33v2.9h.5a11.18,11.18,0,0,0,1.74-.09v1.35a14.7,14.7,0,0,0-1.74-.09h-.5v5.4a20.41,20.41,0,0,0,1.78-1.07l.08,1.26a36.49,36.49,0,0,1-4.36,2.37c-.34.15-.93.44-1.12.55l-.39-1.47a10.52,10.52,0,0,0,2.7-1v-6h-.9a15.58,15.58,0,0,0-1.78.11v-1.39a10.9,10.9,0,0,0,1.82.11H69Zm5.9,9.6a13.35,13.35,0,0,1-3.52,2.79,4,4,0,0,0-.86-1,10.08,10.08,0,0,0,4.87-4.43H74.07a9.7,9.7,0,0,0-1.89.13V128.5a9.7,9.7,0,0,0,1.93.13h9a11.24,11.24,0,0,0,2.08-.13v1.33a16.15,16.15,0,0,0-2.08-.09H76.65a10.89,10.89,0,0,1-1,1.54h6.95a16.67,16.67,0,0,0,2.06-.09,11.29,11.29,0,0,0-.11,1.24,20.64,20.64,0,0,1-.92,5.61c-.38.75-.9,1-2.33,1-.48,0-1.18,0-1.83-.08a3.41,3.41,0,0,0-.42-1.37,14.37,14.37,0,0,0,2.5.23c.84,0,1-.16,1.26-1.42a25.3,25.3,0,0,0,.46-4H81.9A12.29,12.29,0,0,1,80,135.5a22.45,22.45,0,0,1-2.58,2.58,16.79,16.79,0,0,1-1.7,1.17,3.76,3.76,0,0,0-1-1,13.47,13.47,0,0,0,4.12-3.19,10.63,10.63,0,0,0,1.72-2.75H78.54a14.53,14.53,0,0,1-5.78,5.24,3,3,0,0,0-.9-1,11.93,11.93,0,0,0,5.31-4.26Zm.68-5.09a13.58,13.58,0,0,0-1.92.09,14.66,14.66,0,0,0,.09-1.89v-2.73a12.83,12.83,0,0,0-.09-1.85,12.79,12.79,0,0,0,2,.11h5.48a14.27,14.27,0,0,0,2.18-.11,16.15,16.15,0,0,0-.08,2v2.63a13.06,13.06,0,0,0,.08,1.87c-.46,0-1.11-.07-1.93-.07ZM75,123.59h7v-1.53H75Zm0,2.63h7v-1.6H75Z"/>
        <path class="cls-1" d="M119.82,123.46a57.15,57.15,0,0,1-6.53.7,3.73,3.73,0,0,0-.6-1.37,44.42,44.42,0,0,0,12.24-1.8,8.75,8.75,0,0,0,1.93-.8l1,1.3-.65.21a43.37,43.37,0,0,1-5.93,1.51v5h6.43a13,13,0,0,0,2.35-.15v1.62a16.1,16.1,0,0,0-2.31-.15h-6.47v7.41a13.12,13.12,0,0,0,.15,2.48h-1.76a15.85,15.85,0,0,0,.14-2.54v-7.35h-6.11a16.2,16.2,0,0,0-2.24.15v-1.62a12.77,12.77,0,0,0,2.27.15h6.08Z"/>
        <path class="cls-1" d="M150.19,133.17a17.1,17.1,0,0,0,2.37-.13v1.36a20.42,20.42,0,0,0-2.37-.12h-5.71a18,18,0,0,0,3.63,2,22.7,22.7,0,0,0,4.85,1.37,3.58,3.58,0,0,0-.82,1.24,20.86,20.86,0,0,1-8.44-4c.06.84.09,1.3.09,1.68v.86a9.32,9.32,0,0,0,.12,1.93h-1.47a12.65,12.65,0,0,0,.13-1.93v-.86c0-.36,0-1,.08-1.68a17.69,17.69,0,0,1-4.16,2.6,20.7,20.7,0,0,1-3.84,1.39,3.79,3.79,0,0,0-.86-1.18,19,19,0,0,0,8.15-3.46h-5.5a19.81,19.81,0,0,0-2.33.12V133a16,16,0,0,0,2.33.13h6.13a7.24,7.24,0,0,0-.09-1.33h1.39a9,9,0,0,0-.08,1.2v.13Zm-.06-7.48a12.87,12.87,0,0,0,2.35-.13v1.31a15.74,15.74,0,0,0-2.35-.11h-1.07v1.14a7.67,7.67,0,0,0,.08,1.34c-.59,0-1.28-.06-2.06-.06h-2.85c-.82,0-1.37,0-2.06.06a12,12,0,0,0,.06-1.28v-1.2h-3.74v3.55H149.1a12,12,0,0,0,2.37-.13v1.31a14.34,14.34,0,0,0-2.31-.13h-10c-.78,0-1.33,0-2.06.06,0-.5.06-.84.06-1.42v-3.24h-1a15.64,15.64,0,0,0-2.3.11v-1.31a12.81,12.81,0,0,0,2.2.13h1.11v-.25a6.76,6.76,0,0,0-.1-1.39h1.49a9.25,9.25,0,0,0-.09,1.39v.25h3.74v-.19a6.71,6.71,0,0,0-.1-1.38h1.4a8.55,8.55,0,0,0-.08,1.36v.21h4.39v-.21a8.24,8.24,0,0,0-.09-1.36h1.41a9.65,9.65,0,0,0-.1,1.36v.21Zm-9.41-2.6a10,10,0,0,0,.06,1.26h-1.4a10.83,10.83,0,0,0,.08-1.26v-.17h-3.21a18.2,18.2,0,0,0-2.33.1v-1.34a16.55,16.55,0,0,0,2.33.13h3.21v-.36a6.86,6.86,0,0,0-.13-1.32h1.52a6.71,6.71,0,0,0-.13,1.32v.36h4.79v-.36a7,7,0,0,0-.11-1.32h1.49a9.77,9.77,0,0,0-.1,1.32v.36h3.31a17,17,0,0,0,2.36-.13V123a18.53,18.53,0,0,0-2.36-.1h-3.31v.17a8.79,8.79,0,0,0,.08,1.26h-1.43a6.7,6.7,0,0,0,.07-1.26v-.17h-4.79Zm2.73,5.08h4.39v-1.41h-4.39Z"/>
        <path class="cls-1" d="M166.34,126.72a16.76,16.76,0,0,0,3.42,6.76,14.83,14.83,0,0,0,5.69,4.09,5.83,5.83,0,0,0-.92,1.41c-4.71-2.5-7.31-5.56-8.82-10.37a13.17,13.17,0,0,1-4.09,7.54,16.46,16.46,0,0,1-4.54,2.85,4.17,4.17,0,0,0-.9-1.28,13.33,13.33,0,0,0,5.52-3.67,12.89,12.89,0,0,0,2.92-7.33h-5.71a12.2,12.2,0,0,0-2.31.15v-1.64a13.17,13.17,0,0,0,2.35.15h5.79c.07-1,.09-1.66.09-2.48a16.31,16.31,0,0,0-.15-2.29h1.72a12.94,12.94,0,0,0-.14,2.18c0,1.07,0,1.68-.11,2.59h6.36a13.38,13.38,0,0,0,2.33-.15v1.64a13.12,13.12,0,0,0-2.31-.15Z"/>
        <path class="cls-1" d="M189,137.51c0,1.3-.4,1.56-2.35,1.56-.59,0-1.68,0-2.42-.13a6.69,6.69,0,0,0-.44-1.35,21.6,21.6,0,0,0,2.75.24c1,0,1.11-.07,1.11-.51V133.1h-6.3a15,15,0,0,0-2.2.13v-1.45a16.23,16.23,0,0,0,2.18.13h6.32v-.36c0-.42,0-.8-.06-1.24h.88a17.58,17.58,0,0,0,3.76-2.37h-7.68a19.78,19.78,0,0,0-2,.1v-1.36a20,20,0,0,0,2,.1h7.58a9.54,9.54,0,0,0,1.55-.08l.8.84c-.27.21-.27.21-.74.61a23.81,23.81,0,0,1-4.78,3.1v.66h6.23a16,16,0,0,0,2.21-.13v1.45a15,15,0,0,0-2.23-.13H189Zm-5.67-13.88a14.22,14.22,0,0,0-2-2.73l1.26-.4a20.34,20.34,0,0,1,2.15,3.11h3.06a12.64,12.64,0,0,0-1.53-3l1.3-.36a18.56,18.56,0,0,1,1.6,3.38h2.31a12.55,12.55,0,0,0,2.16-3.38l1.32.57a19.55,19.55,0,0,1-2,2.81h1.63c1.22,0,1.68,0,2.42-.08a13.86,13.86,0,0,0-.09,1.74v1.55a12,12,0,0,0,.11,1.47h-1.39v-3.52H180.81v3.52h-1.39a9.86,9.86,0,0,0,.11-1.47v-1.55a14.12,14.12,0,0,0-.08-1.74,19.55,19.55,0,0,0,2.39.1Z"/>
        <path class="cls-1" d="M210,134.45a5.78,5.78,0,0,0-.13-1.52h1.45a7.56,7.56,0,0,0-.11,1.52v.29h4.48a12,12,0,0,0,2-.13v1.31a11.69,11.69,0,0,0-2-.11h-4.48v1.64h6.64a15.28,15.28,0,0,0,2.33-.11v1.33a18.24,18.24,0,0,0-2.33-.13H203.74a18.46,18.46,0,0,0-2.31.13v-1.33a15.46,15.46,0,0,0,2.31.11H210v-1.64h-3.89a11.69,11.69,0,0,0-2,.11v-1.31a9.89,9.89,0,0,0,2,.13H210Zm-4.35-7.84a14.69,14.69,0,0,0-1.91.09,14.33,14.33,0,0,0,.08-1.74v-2.31a15.05,15.05,0,0,0-.08-1.81,15.63,15.63,0,0,0,2,.08h10.19a16.12,16.12,0,0,0,2-.08,14.58,14.58,0,0,0-.08,1.83v2.26a13.93,13.93,0,0,0,.08,1.77,15.48,15.48,0,0,0-1.93-.09h-4.75v1.24h5.72a13.06,13.06,0,0,0,2-.12V129a11.55,11.55,0,0,0-2-.11h-5.72v1.28H218a13.17,13.17,0,0,0,2.08-.1v1.26a14.1,14.1,0,0,0-2.08-.13H203.59a14.06,14.06,0,0,0-2.09.13v-1.26a13.64,13.64,0,0,0,2.09.1H210v-1.28h-5.23a11.68,11.68,0,0,0-2,.11v-1.26a13.21,13.21,0,0,0,2,.12H210v-1.24Zm-.44,5.55a10.76,10.76,0,0,1-2.67,2.73l-.88-.86a7.89,7.89,0,0,0,2.54-2.46ZM205,121.91v1.41h5v-1.41Zm0,2.35v1.39h5v-1.39Zm3.11,10a10.4,10.4,0,0,0-1.05-2.35l1-.36a12.49,12.49,0,0,1,1.13,2.29Zm3.06-11h5.38v-1.41h-5.38Zm0,2.33h5.38v-1.39h-5.38Zm2.29,8.75a10.79,10.79,0,0,0-1.61-2.43l1-.46a13.68,13.68,0,0,1,1.72,2.35Zm5.48.51a14.16,14.16,0,0,0-3-2.71l.88-.69a20.59,20.59,0,0,1,3.07,2.52Z"/>
        <path class="cls-1" d="M240.2,139V137.7H226.36V139h-1.47a21.6,21.6,0,0,0,.13-2.43v-13c0-.78-.05-1.43-.11-2.1a22.6,22.6,0,0,0,2.41.1h11.93a22.32,22.32,0,0,0,2.39-.1,16.51,16.51,0,0,0-.1,2.1v13a19,19,0,0,0,.13,2.43Zm-13.84-10.22h6v-6h-6Zm0,7.72h6V130h-6Zm7.35-7.72h6.49v-6h-6.49Zm0,7.72h6.49V130h-6.49Z"/>
        <path class="cls-1" d="M259,125.35v-2a14.62,14.62,0,0,0-.06-2.12h1.63a14.94,14.94,0,0,0-.08,2v2.2h1.81a15.94,15.94,0,0,0,2.45-.12v1.59a20.17,20.17,0,0,0-2.43-.1h-1.85c0,4.26-.25,5.61-1,7.12A8.87,8.87,0,0,1,256,137.3a15.57,15.57,0,0,1-2.44,1.07,3.7,3.7,0,0,0-.94-1.32,9.33,9.33,0,0,0,4-2.06c1.47-1.32,2.06-2.71,2.24-5.25.05-.67.07-1.32.09-3h-6.38v3.51a12.17,12.17,0,0,0,.08,1.7H251a12.68,12.68,0,0,0,.08-1.77v-3.44h-1.76a20.45,20.45,0,0,0-2.44.1v-1.59a16.08,16.08,0,0,0,2.46.12H251v-2.41a12.7,12.7,0,0,0-.08-1.76h1.7a9.44,9.44,0,0,0-.08,1.7v2.47Z"/>
        <path class="cls-1" d="M279.4,128.59a18.22,18.22,0,0,1-.23,2.22,8.28,8.28,0,0,1-2.83,5.55,12.6,12.6,0,0,1-3.7,2.07,3.7,3.7,0,0,0-1-1.36c2.75-.88,4.45-2.23,5.31-4.14a12,12,0,0,0,.84-4.34h-5.69a20.29,20.29,0,0,0-2.42.1v-1.55a16,16,0,0,0,2.44.12h12.28a16,16,0,0,0,2.44-.12v1.55a20.29,20.29,0,0,0-2.42-.1Zm-7.58-6.66a11.38,11.38,0,0,0,2.42.15h8.17a11.22,11.22,0,0,0,2.41-.15v1.6a15.86,15.86,0,0,0-2.39-.11h-8.21a15.93,15.93,0,0,0-2.4.11Z"/>
        <path class="cls-1" d="M293.2,126.68a15.93,15.93,0,0,0,2.46.12h10.77a3.65,3.65,0,0,0,1.36-.14l.78.9a6.1,6.1,0,0,0-.59,1.32c-1.78,4.89-4.68,7.58-10.12,9.41a4.6,4.6,0,0,0-.9-1.45,14.49,14.49,0,0,0,6.24-3.19,13,13,0,0,0,3.4-5.5h-11a20.35,20.35,0,0,0-2.44.1Zm1.81-4.87a10.09,10.09,0,0,0,2.2.14h7a10.14,10.14,0,0,0,2.21-.14v1.61a14.67,14.67,0,0,0-2.18-.1h-7.06a14.59,14.59,0,0,0-2.18.1Z"/>
        <path class="cls-1" d="M330.7,122.06a4.92,4.92,0,0,0-.92.88,36.69,36.69,0,0,1-4.91,4.22v8.94a14.7,14.7,0,0,0,.1,2.23h-1.82a11.49,11.49,0,0,0,.12-2.18v-8a32.76,32.76,0,0,1-8.1,3.67,4.92,4.92,0,0,0-.82-1.4,29.65,29.65,0,0,0,10.9-5.44,17.62,17.62,0,0,0,4-4Z"/>
        <path class="cls-1" d="M341.54,138.35a12.73,12.73,0,0,0,.13-2.2v-13a11.72,11.72,0,0,0-.13-2.14h1.81a12.27,12.27,0,0,0-.11,2.18v3.93a51.8,51.8,0,0,1,9.35,4.43l-.91,1.55a42.56,42.56,0,0,0-7.83-4.16,2.43,2.43,0,0,1-.65-.35l0,0a7.67,7.67,0,0,1,.08,1.24v6.32a13.39,13.39,0,0,0,.11,2.22Z"/>
        <path class="cls-1" d="M366.34,122.83a6.81,6.81,0,0,0-.46-1.78l1.66-.27a10.46,10.46,0,0,0,.23,1.78l.42,2.31,4.75-.73a10.73,10.73,0,0,0,1.84-.42l.3,1.51c-.57.06-.57.06-1.87.27l-4.77.74.8,4.24,5.21-.84a14.63,14.63,0,0,0,2.08-.48l.29,1.55a6.32,6.32,0,0,0-.92.1c-.09,0-.3.05-.65.11l-.49.08-5.27.84.86,4.64a11.46,11.46,0,0,0,.47,2l-1.68.31a18.46,18.46,0,0,0-.26-2l-.86-4.71-5.62.91a11.15,11.15,0,0,0-2,.42l-.27-1.6a10.84,10.84,0,0,0,2.08-.19l5.58-.9-.75-4.24-4.33.67a17.76,17.76,0,0,0-2.1.46l-.29-1.6a16.41,16.41,0,0,0,2.18-.2l4.28-.68Z"/>
        <path class="cls-1" d="M387.15,126.26a6.59,6.59,0,0,0-.39-1.54l1.53-.23a6.85,6.85,0,0,0,.23,1.58l.33,1.8,7.06-1.15a3,3,0,0,0,.9-.25l.88.77a4.53,4.53,0,0,0-.48.93,10.72,10.72,0,0,1-4.07,4.93,3.72,3.72,0,0,0-1.13-.9,8.67,8.67,0,0,0,3.8-4,1,1,0,0,1,.08-.19l-.55.12-6.25,1,1.51,7.9a6.91,6.91,0,0,0,.4,1.66l-1.62.29a7.73,7.73,0,0,0-.19-1.68l-1.47-8-2.08.36a8.51,8.51,0,0,0-1.82.42l-.3-1.49a10,10,0,0,0,2-.19l2-.34Z"/>
        <path class="cls-1" d="M405.82,135.87a18.22,18.22,0,0,0,6.11-1.61,15.87,15.87,0,0,0,8.57-9.35,4.18,4.18,0,0,0,1.28,1.24,18.38,18.38,0,0,1-6.4,8,21.29,21.29,0,0,1-7.83,3.13,11,11,0,0,0-1.26.34Zm1.35-13a27.2,27.2,0,0,1,5.06,3.94l-1.09,1.3a23.44,23.44,0,0,0-5-4.11Z"/>
        <path class="cls-1" d="M433.54,122.75a8.52,8.52,0,0,0-.27,1.43c-.88,6-2.58,10-5.54,13.1a4.5,4.5,0,0,0-1.35-1.09,13.43,13.43,0,0,0,3.05-4.16,24.29,24.29,0,0,0,2.16-7.28,15.86,15.86,0,0,0,.21-2,2.33,2.33,0,0,0,0-.33Zm5.82-.31a25.73,25.73,0,0,0,1,5,18.55,18.55,0,0,0,4.77,8.67,4.31,4.31,0,0,0-1.3,1.17c-2.79-3-4.89-7.81-5.71-13.18a10.44,10.44,0,0,0-.27-1.39Zm6.47.75a2.39,2.39,0,1,1-2.38-2.37A2.36,2.36,0,0,1,445.83,123.19Zm-3.89,0a1.5,1.5,0,1,0,1.51-1.49A1.5,1.5,0,0,0,441.94,123.19Z"/>
        <path class="cls-1" d="M465.61,137.89a39.1,39.1,0,0,0-6.72-6.49,22.76,22.76,0,0,1-4,3.76,27.48,27.48,0,0,1-4.11,2.52,4.92,4.92,0,0,0-1-1.39,16.91,16.91,0,0,0,4.26-2.41,22.76,22.76,0,0,0,7.49-9.47c.05-.13.07-.15.11-.25a.58.58,0,0,0,.06-.15,3.7,3.7,0,0,1-.5,0l-7,.11a14.88,14.88,0,0,0-2.17.16l0-1.7a9.3,9.3,0,0,0,1.66.11h.55l7.49-.09a4,4,0,0,0,1.34-.16l.89.9a3.78,3.78,0,0,0-.59,1,25.4,25.4,0,0,1-3.47,5.88,52.78,52.78,0,0,1,7,6.3Z"/>
        <path class="cls-1" d="M128.92,161.74v1.41h-16.4v-1.41Zm-16.4,6.78v-1.4h16.4v1.4h-7.44v9.18h-1.55v-9.18Z"/>
        <path class="cls-1" d="M136.1,161.51a9.58,9.58,0,0,0,1.74.11h1.33a11.14,11.14,0,0,0,1.74-.11,33.31,33.31,0,0,0-.19,3.49v10.2a12.91,12.91,0,0,0,.17,2.37h-2a12.78,12.78,0,0,0,.17-2.37V163h-1.13a13.36,13.36,0,0,0-1.83.13Z"/>
        <path class="cls-1" d="M150.74,173.69a3.14,3.14,0,0,0,1.28,2,4.59,4.59,0,0,0,2.71.76c2.43,0,4-1.26,4-3.25s-1.5-3.22-4.29-3.22a15.45,15.45,0,0,0-1.68.11v-1.66a9.46,9.46,0,0,0,1.56.13,4.19,4.19,0,0,0,3.06-1,2.86,2.86,0,0,0,.84-2c0-1.8-1.26-2.85-3.38-2.85A3.28,3.28,0,0,0,152,163.8a3.86,3.86,0,0,0-.67,1.49l-1.75-.38a4.8,4.8,0,0,1,1.14-2.1,5.47,5.47,0,0,1,4.18-1.53c3,0,5,1.6,5,4.12a3.66,3.66,0,0,1-1.47,3.06,4.29,4.29,0,0,1-2,.76,4.48,4.48,0,0,1,2.58.9,3.83,3.83,0,0,1,1.41,3.17c0,2.84-2.19,4.6-5.69,4.6a6,6,0,0,1-4.71-1.72,5.58,5.58,0,0,1-1.07-2Z"/>
        <path class="cls-1" d="M166.72,161.51a9.45,9.45,0,0,0,1.74.11h1.32a11.27,11.27,0,0,0,1.75-.11,33.31,33.31,0,0,0-.19,3.49v10.2a12.91,12.91,0,0,0,.17,2.37h-2a12.78,12.78,0,0,0,.17-2.37V163h-1.13a13.24,13.24,0,0,0-1.83.13Z"/>
        <path class="cls-1" d="M179.23,170.58a11.39,11.39,0,0,0,1.92.11h2.49a11.51,11.51,0,0,0,1.94-.11v1.77a11.65,11.65,0,0,0-1.94-.11h-2.49a11.75,11.75,0,0,0-1.92.11Z"/>
        <path class="cls-1" d="M190.72,176.4a5.2,5.2,0,0,1-1.26-1.93,14.64,14.64,0,0,1-.8-4.85,12.29,12.29,0,0,1,1.22-5.71,5.63,5.63,0,0,1,8.55-1.1,5.49,5.49,0,0,1,1.26,1.94,14.5,14.5,0,0,1,.79,4.87,10.87,10.87,0,0,1-1.47,6.06,5.12,5.12,0,0,1-4.45,2.21A5.23,5.23,0,0,1,190.72,176.4Zm1.22-12.56a4.39,4.39,0,0,0-.95,1.54,13,13,0,0,0-.65,4.24,11.5,11.5,0,0,0,1,5,3.57,3.57,0,0,0,3.25,1.83,3.52,3.52,0,0,0,2.59-1,4.17,4.17,0,0,0,1-1.63,13.09,13.09,0,0,0,.65-4.24,11.88,11.88,0,0,0-.94-4.9,3.55,3.55,0,0,0-3.3-1.91A3.42,3.42,0,0,0,191.94,163.84Z"/>
        <path class="cls-1" d="M206,176.4a5.2,5.2,0,0,1-1.26-1.93,14.64,14.64,0,0,1-.8-4.85,12.29,12.29,0,0,1,1.22-5.71,5.16,5.16,0,0,1,4.7-2.59,5.21,5.21,0,0,1,3.85,1.49,5.49,5.49,0,0,1,1.26,1.94,14.5,14.5,0,0,1,.79,4.87,10.87,10.87,0,0,1-1.47,6.06,5.14,5.14,0,0,1-4.45,2.21A5.23,5.23,0,0,1,206,176.4Zm1.22-12.56a4.39,4.39,0,0,0-.95,1.54,13,13,0,0,0-.65,4.24,11.5,11.5,0,0,0,1,5,3.57,3.57,0,0,0,3.25,1.83,3.52,3.52,0,0,0,2.59-1,4.17,4.17,0,0,0,1-1.63,13.09,13.09,0,0,0,.65-4.24,12,12,0,0,0-.94-4.9,3.55,3.55,0,0,0-3.3-1.91A3.42,3.42,0,0,0,207.25,163.84Z"/>
        <path class="cls-1" d="M219,172c.44-.5.92-1.09,1.36-1.62l5.31-6.63a24.47,24.47,0,0,0,1.58-2.14h1.57c-.1,1.24-.12,1.89-.12,3.55v6.88h.79a14.84,14.84,0,0,0,2.19-.14v1.74a13.79,13.79,0,0,0-2.21-.15h-.77v1.81a12.55,12.55,0,0,0,.16,2.26H226.9a11.75,11.75,0,0,0,.17-2.26V173.5h-5.63c-1.17,0-1.8,0-2.49.08Zm8.14-5.27a24.58,24.58,0,0,1,.13-2.86c-.44.63-1,1.33-1.58,2.1l-4.83,6.09h6.28Z"/>
        <path class="cls-1" d="M234.34,172c.44-.5.92-1.09,1.36-1.62l5.31-6.63a22.58,22.58,0,0,0,1.58-2.14h1.57c-.1,1.24-.12,1.89-.12,3.55v6.88h.8a14.8,14.8,0,0,0,2.18-.14v1.74a13.79,13.79,0,0,0-2.21-.15H244v1.81a11.62,11.62,0,0,0,.17,2.26H242.3a12.69,12.69,0,0,0,.16-2.26V173.5h-5.62c-1.18,0-1.81,0-2.5.08Zm8.14-5.27a27,27,0,0,1,.13-2.86c-.44.63-1,1.33-1.57,2.1l-4.83,6.09h6.27Z"/>
        <path class="cls-1" d="M261.26,163.59a14.46,14.46,0,0,0-2.48.13v-1.47a16.86,16.86,0,0,0,2.54.14h6v-.16a11.35,11.35,0,0,0-.15-2h1.55a12.24,12.24,0,0,0-.15,2v.16h6.28a15.44,15.44,0,0,0,2.63-.14v1.47a18.63,18.63,0,0,0-2.59-.13h-6.32v1.74h4.58a16.39,16.39,0,0,0,2.4-.1,16.8,16.8,0,0,0-.09,2.2v3.09a14,14,0,0,0,.09,2.23,12.65,12.65,0,0,0-2.4-.13h-3.61a16.58,16.58,0,0,0,8.65,4.66,5.6,5.6,0,0,0-.8,1.32,22.72,22.72,0,0,1-4.72-2.08,15.35,15.35,0,0,1-4.16-3.44c0,.55.06,1.24.06,1.64v2.14a11.82,11.82,0,0,0,.15,2.33h-1.55a14.44,14.44,0,0,0,.15-2.33v-2.12c0-.4,0-1,.06-1.62a12.77,12.77,0,0,1-2.48,2.4,20.19,20.19,0,0,1-5.86,3.06,5.28,5.28,0,0,0-.77-1.26,17.23,17.23,0,0,0,5.1-2.24,12.32,12.32,0,0,0,2.94-2.46h-3.07a12.45,12.45,0,0,0-2.43.13l0-.28a19,19,0,0,0,.06-1.95v-3a21,21,0,0,0-.08-2.27,12.32,12.32,0,0,0,2.33.12h4.18v-1.74Zm.9,2.83v1.94h5.13v-1.94Zm0,3v2.12h5.13v-2.12Zm6.38-1.07h5.59v-1.94h-5.59Zm0,3.19h5.59v-2.12h-5.59Z"/>
        <path class="cls-1" d="M287.13,173.12a15.68,15.68,0,0,1-4.95,5.27,4.8,4.8,0,0,0-1-1.09,11.48,11.48,0,0,0,2.71-2.08,10.37,10.37,0,0,0,2-2.81Zm2.6-11.1a9.55,9.55,0,0,0-.14-1.77h1.66a7.27,7.27,0,0,0-.15,1.77v.77h6.49a14.14,14.14,0,0,0,2.33-.14v1.49a11.64,11.64,0,0,0-2.29-.13H283.69a11.48,11.48,0,0,0-2.25.13v-1.49a14.3,14.3,0,0,0,2.33.14h6Zm-3.82,9.44a16.34,16.34,0,0,0-1.87.09,11.93,11.93,0,0,0,.09-1.7v-2.37a12.78,12.78,0,0,0-.09-1.75,13.76,13.76,0,0,0,1.87.09h9.14a12.79,12.79,0,0,0,1.93-.09,11.74,11.74,0,0,0-.09,1.75v2.37a16.06,16.06,0,0,0,.07,1.68c-.55,0-1.12-.07-1.91-.07h-3.66v5.84c0,1.2-.54,1.58-2.31,1.58-.46,0-1.34,0-2.06-.09a4.13,4.13,0,0,0-.35-1.38,13.87,13.87,0,0,0,2.27.21c.92,0,1.09-.09,1.09-.51v-5.65Zm-.46-1.15h10.12V167H285.45Zm9.53,2.08A11.64,11.64,0,0,0,297,175a12.41,12.41,0,0,0,2.92,2.21,4.79,4.79,0,0,0-1,1.15,15,15,0,0,1-2.64-2.18,20.11,20.11,0,0,1-2.52-3.09Z"/>
        <path class="cls-1" d="M306,167.6a10.88,10.88,0,0,0-2.14.13v-1.39a10.88,10.88,0,0,0,2.14.13h2.16V163.8H306.6a11.26,11.26,0,0,0-1.91.11v-1.37a8.47,8.47,0,0,0,1.91.13h1.55V162a11.52,11.52,0,0,0-.12-1.84h1.51a9.85,9.85,0,0,0-.11,1.84v.7h.65a7.25,7.25,0,0,0,1.73-.13v1.34a14.3,14.3,0,0,0-1.64-.08h-.74v2.67h.65a20.29,20.29,0,0,0,2.88-4.05,7.83,7.83,0,0,0,.59-1.39l1.3.76a4.19,4.19,0,0,0-.5.73,22.63,22.63,0,0,1-2.71,3.95h.67a13.63,13.63,0,0,0,2.2-.11v1.32a18.78,18.78,0,0,0-2-.08h-1.89a28.24,28.24,0,0,1-2.4,2.23h3.11a12.16,12.16,0,0,0,1.91-.09,19.39,19.39,0,0,0-.06,2.21v4.87a18.34,18.34,0,0,0,.08,2.08h-1.32v-1h-4.72v1.28h-1.37a16.59,16.59,0,0,0,.13-2.29v-5.33c-.9.67-1.14.86-2.1,1.49a3.52,3.52,0,0,0-.74-1.13A24.81,24.81,0,0,0,309,167.6Zm1.22,5.61h4.72v-2.29h-4.72Zm0,3.63h4.72V174.3h-4.72Zm15.22-15.18a19.39,19.39,0,0,0-.84,1.87c-.59,1.32-1.2,2.47-2.12,4.13a9.23,9.23,0,0,1,2.12,2.82,7.24,7.24,0,0,1,.82,3.25,2.6,2.6,0,0,1-1.16,2.48,4.39,4.39,0,0,1-2.1.36c-.33,0-.84,0-1.42-.07a4.6,4.6,0,0,0-.3-1.42,12.09,12.09,0,0,0,2,.16c1.15,0,1.55-.42,1.55-1.7a6.85,6.85,0,0,0-1-3.38,9.39,9.39,0,0,0-2.06-2.31,31.71,31.71,0,0,0,2.79-5.83h-4.18v14.44a21.18,21.18,0,0,0,.15,2.86h-1.6a19.36,19.36,0,0,0,.13-2.88V162.71a17.68,17.68,0,0,0-.09-1.91c.55,0,.93.06,1.73.06h3.29a10.32,10.32,0,0,0,1.62-.08Z"/>
        <path class="cls-1" d="M334.82,174.45a5.78,5.78,0,0,0-.13-1.52h1.45a7.69,7.69,0,0,0-.1,1.52v.29h4.47a12.17,12.17,0,0,0,2-.13v1.31a11.82,11.82,0,0,0-2-.11H336v1.64h6.63a15.12,15.12,0,0,0,2.33-.11v1.33a18.13,18.13,0,0,0-2.33-.13H328.61a18.35,18.35,0,0,0-2.31.13v-1.33a15.3,15.3,0,0,0,2.31.11h6.21v-1.64h-3.88a11.75,11.75,0,0,0-2,.11v-1.31a10,10,0,0,0,2,.13h3.88Zm-4.35-7.84a14.79,14.79,0,0,0-1.91.09,12.36,12.36,0,0,0,.09-1.74v-2.31a13,13,0,0,0-.09-1.81,15.81,15.81,0,0,0,2,.08H340.7a16.31,16.31,0,0,0,2-.08,12.61,12.61,0,0,0-.09,1.83v2.26a12,12,0,0,0,.09,1.77,15.66,15.66,0,0,0-1.94-.09H336v1.24h5.71a13.3,13.3,0,0,0,2-.12V169a11.68,11.68,0,0,0-2-.11H336v1.28h6.8a13.09,13.09,0,0,0,2.08-.1v1.26a14,14,0,0,0-2.08-.13H328.46a14.3,14.3,0,0,0-2.1.13v-1.26a13.7,13.7,0,0,0,2.1.1h6.38v-1.28h-5.23a11.55,11.55,0,0,0-2,.11v-1.26a13.06,13.06,0,0,0,2,.12h5.23v-1.24Zm-.44,5.55a10.55,10.55,0,0,1-2.66,2.73l-.88-.86a8.1,8.1,0,0,0,2.54-2.46Zm-.16-10.25v1.41h5v-1.41Zm0,2.35v1.39h5v-1.39Zm3.1,10a10,10,0,0,0-1.05-2.35l1-.36a11.93,11.93,0,0,1,1.14,2.29Zm3.07-11h5.37v-1.41H336Zm0,2.33h5.37v-1.39H336Zm2.29,8.75a11.15,11.15,0,0,0-1.62-2.43l1-.46a14.84,14.84,0,0,1,1.72,2.35Zm5.48.51a14.48,14.48,0,0,0-3-2.71l.89-.69a20.44,20.44,0,0,1,3.06,2.52Z"/>
        <path class="cls-1" d="M365.06,179V177.7H351.22V179h-1.47a19.47,19.47,0,0,0,.13-2.43v-13a19.47,19.47,0,0,0-.11-2.1,22.67,22.67,0,0,0,2.42.1h11.92a22.52,22.52,0,0,0,2.4-.1,14.72,14.72,0,0,0-.11,2.1v13a19,19,0,0,0,.13,2.43Zm-13.84-10.22h6v-6h-6Zm0,7.72h6V170h-6Zm7.35-7.72h6.49v-6h-6.49Zm0,7.72h6.49V170h-6.49Z"/>
        <path class="cls-1" d="M389.69,178.12a11,11,0,0,0-2.06-.15H373.69v1.14h-1.53a14.76,14.76,0,0,0,.15-2.29V163.49c0-.87,0-1.54-.09-2.19a16.83,16.83,0,0,0,2.21.11H387a12.44,12.44,0,0,0,2.26-.15v1.55a15.21,15.21,0,0,0-2.29-.12H373.69v14h13.92a11.11,11.11,0,0,0,2.08-.12Zm-2.81-2.88a56.54,56.54,0,0,0-4.83-4.57,26.6,26.6,0,0,1-6.24,5,7.26,7.26,0,0,0-1-1.05,25.77,25.77,0,0,0,6.26-4.8,41.46,41.46,0,0,0-5.31-3.72l.9-1c2.31,1.56,3.36,2.29,5.27,3.76a17,17,0,0,0,3.09-5.25l1.38.69c-.2.32-.27.44-.58,1a20.76,20.76,0,0,1-2.88,4.35,63.29,63.29,0,0,1,4.91,4.39Z"/>
        <path class="cls-1" d="M408.51,165.06a19.19,19.19,0,0,1-1.28,3.44,17.46,17.46,0,0,1-3.09,4.5,18.77,18.77,0,0,0,3.8,2.71,19.71,19.71,0,0,0,4.87,1.91,3.93,3.93,0,0,0-.92,1.38,21.72,21.72,0,0,1-8.71-5,22.6,22.6,0,0,1-8.8,5,4,4,0,0,0-.88-1.3,20.75,20.75,0,0,0,8.71-4.66,18.09,18.09,0,0,1-2.54-3.44,18.75,18.75,0,0,1-1.95-4.52h-1.56a15.77,15.77,0,0,0-2.33.13V163.7a15.32,15.32,0,0,0,2.35.14h6v-1.63a8.88,8.88,0,0,0-.15-1.81h1.68a9.24,9.24,0,0,0-.14,1.78v1.66h6.55a15.29,15.29,0,0,0,2.39-.14v1.49a15,15,0,0,0-2.35-.13Zm-9.34,0a15.36,15.36,0,0,0,1.72,4,17.56,17.56,0,0,0,2.29,3,16.38,16.38,0,0,0,3.8-7Z"/>
        <path class="cls-1" d="M420,172.89c0-.77,0-1.57.06-2.41a12.84,12.84,0,0,1-3.32,3.06,3.47,3.47,0,0,0-.8-1.15,14.75,14.75,0,0,0,4.77-4.58,8,8,0,0,0,1.05-2.08l1.32.63c-.29.46-.29.46-.52.88-.36.61-.74,1.18-1.2,1.85v7.69a20.6,20.6,0,0,0,.13,2.33h-1.62a18.53,18.53,0,0,0,.13-2.33Zm1.72-11a8.18,8.18,0,0,0-.13-1.49h1.53a8.88,8.88,0,0,0-.1,1.49v.67h5v-.67a9.17,9.17,0,0,0-.13-1.49h1.53a8.88,8.88,0,0,0-.1,1.49v.67h3.25a17.5,17.5,0,0,0,2.38-.12v1.45a16.28,16.28,0,0,0-2.38-.11H429.3v.48a13.54,13.54,0,0,0,.06,1.39h-1.45a8.6,8.6,0,0,0,.09-1.37v-.5h-5v.36a13.06,13.06,0,0,0,.06,1.38h-1.45a11.21,11.21,0,0,0,.09-1.36v-.38h-2.92a15.6,15.6,0,0,0-2.33.11v-1.45a16.77,16.77,0,0,0,2.33.12h2.92Zm5.6,14.87c0,.63.32.71,2.69.71,2,0,2.6-.08,2.94-.4s.48-1.24.61-3.36a4.22,4.22,0,0,0,1.34.67c-.33,2.59-.5,3.22-1,3.68s-1.38.65-4.17.65c-3.26,0-3.74-.23-3.74-1.76v-8.72a14,14,0,0,0-.13-2.14h1.58a14.07,14.07,0,0,0-.11,2.1v3a18,18,0,0,0,5.63-3.86l1.11,1c-.27.19-.31.21-.79.59a33.32,33.32,0,0,1-6,3.59Z"/>
        <path class="cls-1" d="M446.31,161.51a9.58,9.58,0,0,0,1.74.11h1.33a11.14,11.14,0,0,0,1.74-.11,33.31,33.31,0,0,0-.19,3.49v10.2a12.91,12.91,0,0,0,.17,2.37h-2a12.78,12.78,0,0,0,.17-2.37V163h-1.13a13.36,13.36,0,0,0-1.83.13Z"/>
        <path class="cls-1" d="M458.83,170.58a11.33,11.33,0,0,0,1.91.11h2.5a11.45,11.45,0,0,0,1.93-.11v1.77a11.59,11.59,0,0,0-1.93-.11h-2.5a11.62,11.62,0,0,0-1.91.11Z"/>
        <path class="cls-1" d="M470.65,161.51a9.45,9.45,0,0,0,1.74.11h1.32a11.19,11.19,0,0,0,1.75-.11,33.31,33.31,0,0,0-.19,3.49v10.2a12.91,12.91,0,0,0,.17,2.37h-2a12.78,12.78,0,0,0,.17-2.37V163h-1.13a13.24,13.24,0,0,0-1.83.13Z"/>
        <path class="cls-1" d="M485.66,174.09a3.33,3.33,0,0,0,.76,1.34,3.43,3.43,0,0,0,2.65,1,3.63,3.63,0,0,0,3.38-1.93,8.42,8.42,0,0,0,.9-2.69,23.77,23.77,0,0,0,.19-2.46,4.29,4.29,0,0,1-.84,1.18,5.77,5.77,0,0,1-7.6.08,5.31,5.31,0,0,1-1.43-3.78c0-3.33,2.25-5.52,5.69-5.52a5.27,5.27,0,0,1,5.08,3.53,12.68,12.68,0,0,1,.61,4.37c0,2.92-.61,5.29-1.74,6.69a5.15,5.15,0,0,1-4.37,2,5,5,0,0,1-5-3.22Zm7.48-7.39a3.85,3.85,0,0,0-3.93-4,3.92,3.92,0,0,0-3.34,1.78,4.54,4.54,0,0,0-.54,2.21,3.54,3.54,0,0,0,3.74,3.86A3.88,3.88,0,0,0,493.14,166.7Z"/>
        <path class="cls-1" d="M498.48,170.58a11.19,11.19,0,0,0,1.91.11h2.49a11.51,11.51,0,0,0,1.94-.11v1.77a11.65,11.65,0,0,0-1.94-.11h-2.49a11.55,11.55,0,0,0-1.91.11Z"/>
        <path class="cls-1" d="M510.3,161.51a9.45,9.45,0,0,0,1.74.11h1.32a11.06,11.06,0,0,0,1.74-.11c-.12,1.28-.18,2.35-.18,3.49v10.2a13.94,13.94,0,0,0,.16,2.37h-2a12.78,12.78,0,0,0,.17-2.37V163h-1.14a13.21,13.21,0,0,0-1.82.13Z"/>
        <path class="cls-1" d="M8.5,245.86a8,8,0,0,0-.08,1.47c-.06,3.5-.65,5.58-2.08,7.39A11.42,11.42,0,0,1,1,258.35a4.33,4.33,0,0,0-1-1.41A9.7,9.7,0,0,0,3.84,255c2.23-1.78,3.05-3.92,3.05-8a5,5,0,0,0-.09-1.13Zm8.3-2.65a3.94,3.94,0,0,0-.51.84,12.55,12.55,0,0,1-6.13,6,3.91,3.91,0,0,0-1-1.2,9.09,9.09,0,0,0,3.32-2,11.09,11.09,0,0,0,2.35-3.12H2.88a21.3,21.3,0,0,0-2.48.1v-1.61a16.1,16.1,0,0,0,2.5.14H14.17c1.41,0,1.41,0,1.79-.14Z"/>
        <path class="cls-1" d="M30.81,241a4,4,0,0,0-.47.86,20.24,20.24,0,0,1-1,1.87c.27-.06.27-.06,6.34-.17a2,2,0,0,0,1.09-.15l.9.89c-.19.25-.19.27-.42,1a22.06,22.06,0,0,1-4.2,7.9,20.68,20.68,0,0,1-7.3,5.25,3.25,3.25,0,0,0-1.05-1.24A17.91,17.91,0,0,0,32.15,252a19.13,19.13,0,0,0,3.61-7l-7.07.13a20.59,20.59,0,0,1-5,5.46,3,3,0,0,0-1.18-1.09,15.5,15.5,0,0,0,5.27-5.76,9.31,9.31,0,0,0,1.32-3.06Z"/>
        <path class="cls-1" d="M49.12,243.32a11.22,11.22,0,0,0-.09-1.93h1.7a12.49,12.49,0,0,0-.1,1.93v3.06l8.52-1.13a2.42,2.42,0,0,0,1.2-.29l1,.86a6.45,6.45,0,0,0-.34.58,13.92,13.92,0,0,1-1.59,2.69,16,16,0,0,1-3.57,3.28,3.44,3.44,0,0,0-1.26-1,11.63,11.63,0,0,0,4.77-4.87l-.49.1-.25,0c-2.94.39-5.63.77-8,1.11v4.95c0,2,.08,2.4.52,2.77s1.33.53,3.05.53a23.55,23.55,0,0,0,6.11-.74l.1,1.71c-.56,0-.69,0-1.26.1a37.84,37.84,0,0,1-5,.38c-2.4,0-3.61-.3-4.28-1s-.78-1.32-.78-3.46v-5.06l-2.54.35a13.09,13.09,0,0,0-2.06.36l-.19-1.57h.32c.35,0,1.09-.07,1.8-.15l2.67-.36Z"/>
        <path class="cls-1" d="M82.91,257.89a39.47,39.47,0,0,0-6.72-6.49,22.76,22.76,0,0,1-4,3.76,27.57,27.57,0,0,1-4.12,2.52,4.57,4.57,0,0,0-1-1.39,16.58,16.58,0,0,0,4.26-2.41,22.79,22.79,0,0,0,7.5-9.47,1.17,1.17,0,0,1,.11-.25A.58.58,0,0,0,79,244a3.79,3.79,0,0,1-.51,0l-7,.11a14.84,14.84,0,0,0-2.16.16l0-1.7a9.17,9.17,0,0,0,1.66.11h.54l7.5-.09a4.1,4.1,0,0,0,1.34-.16l.88.9a4.06,4.06,0,0,0-.59,1,25.4,25.4,0,0,1-3.46,5.88,52.09,52.09,0,0,1,7,6.3Z"/>
        <path class="cls-1" d="M112.92,245.52a9,9,0,0,0-1.56.13v-1.43a9.91,9.91,0,0,0,1.58.13h1.17v-2a14.1,14.1,0,0,0-.12-2.1h1.55a11.81,11.81,0,0,0-.12,2.1v2h.77a7.22,7.22,0,0,0,1.43-.11v1.37a9.06,9.06,0,0,0-1.43-.09h-.77v4.31c.65-.28,1.09-.47,2.22-1v1.3l-2.22,1v6.4c0,1.18-.45,1.49-2.1,1.49-.44,0-.95,0-1.45-.06a4.91,4.91,0,0,0-.25-1.32,11,11,0,0,0,1.7.14c.63,0,.79-.12.79-.58v-5.53c-.73.32-1,.4-1.44.59a9.81,9.81,0,0,0-1.16.51l-.38-1.43a13.79,13.79,0,0,0,3-1v-4.83Zm6.72,6.87v1.36h-1.39a13.8,13.8,0,0,0,.08-1.78v-8.76a18.08,18.08,0,0,0-.08-2c.61.06,1.34.1,2.16.1H127c1,0,1.85,0,2.4-.1a17.06,17.06,0,0,0-.09,2.22v8.38a13.31,13.31,0,0,0,.09,1.83H128v-1.22h-3.63v4.43a17.43,17.43,0,0,0,.15,2.43h-1.58a17,17,0,0,0,.15-2.43v-4.45Zm0-9.89v3.67h3.45V242.5Zm0,4.85v3.84h3.45v-3.84Zm4.73-1.18H128V242.5h-3.65Zm0,5H128v-3.88h-3.65Z"/>
        <path class="cls-1" d="M143.51,256.9h6.87a19.58,19.58,0,0,0,2.35-.12v1.59a17.47,17.47,0,0,0-2.35-.14h-14a19.24,19.24,0,0,0-2.47.14v-1.59a20.71,20.71,0,0,0,2.47.12H142V242.73a13.91,13.91,0,0,0-.15-2.18h1.79a13.74,13.74,0,0,0-.15,2.18V247h5.31a16.5,16.5,0,0,0,2.19-.12v1.61a16.93,16.93,0,0,0-2.19-.12h-5.31Z"/>
        <path class="cls-1" d="M158.34,252.39a15.7,15.7,0,0,1-1.2,5.65l-1-.53a12.55,12.55,0,0,0,1.22-5.33Zm3.63-2.14H163a12,12,0,0,0,1.95-.09c0,.23,0,.4,0,.84a32.21,32.21,0,0,1-.82,6.89c-.31.9-.79,1.2-2,1.2a14.52,14.52,0,0,1-1.53-.09v-.17a3.73,3.73,0,0,0-.23-1.17,9.47,9.47,0,0,0,1.84.25c.66,0,.82-.27,1.1-1.81a40.33,40.33,0,0,0,.42-4.78h-4.48c-.84,0-1.34,0-1.93.06,0-.46.07-1,.07-2.16v-5.76a21.54,21.54,0,0,0-.09-2.43,16.49,16.49,0,0,0,2.31.1h3.3a16,16,0,0,0,2.14-.1v1.3a14.41,14.41,0,0,0-2-.1H162v1.93h.8a10.06,10.06,0,0,0,1.83-.11v1.24a11.87,11.87,0,0,0-1.83-.1H162v1.89h.8a10.06,10.06,0,0,0,1.83-.11v1.24a11.71,11.71,0,0,0-1.83-.11H162Zm-1.11-8h-2.29v1.93h2.29Zm0,3h-2.29v1.89h2.29Zm-2.29,2.91v2.15h2.29V248.1Zm1.13,4.25a32,32,0,0,1,.36,4.62l-1.05.14c0-.38,0-.67,0-.86a29.37,29.37,0,0,0-.19-3.78Zm1.35-.07a22.17,22.17,0,0,1,.73,3.76l-.92.29a19.61,19.61,0,0,0-.63-3.86Zm1.28-.21a13.34,13.34,0,0,1,.84,2.82l-.8.33a12.23,12.23,0,0,0-.78-2.92Zm9-3.52a18.18,18.18,0,0,0,1.38,5.58,10.71,10.71,0,0,0,2.81,4,4.6,4.6,0,0,0-1,1.2,14.7,14.7,0,0,1-3.09-5,20.83,20.83,0,0,1-1.3-5.73h-2.4c-.16,5.29-.67,7.85-2.12,10.64a4.07,4.07,0,0,0-1.19-.73c1.68-2.71,2.14-5.95,2.14-14.74a20.36,20.36,0,0,0-.09-2.5,16.93,16.93,0,0,0,2.31.1h3.49a15.75,15.75,0,0,0,2.27-.1,15.94,15.94,0,0,0-.09,2.29v2.85a16.33,16.33,0,0,0,.09,2.27,15.59,15.59,0,0,0-2-.08Zm1.84-1.16v-4.91h-5.37v1.05c0,.59,0,1.87,0,3.86Z"/>
        <path class="cls-1" d="M188.83,240.78a15.33,15.33,0,0,0-.13,2.77c0,.46,0,.69.05,2.18a20.63,20.63,0,0,0,6.15-.8l.19,1.56a10.59,10.59,0,0,0-1.26.15,36.58,36.58,0,0,1-5.06.46c.06,2,.17,4.07.27,5.41a18.33,18.33,0,0,1,5.61,3c.44.31.44.33,1,.65l-1,1.47a9.41,9.41,0,0,0-2.19-1.83,21.72,21.72,0,0,0-2.83-1.62,2.84,2.84,0,0,1-.51-.23,5.08,5.08,0,0,1,.09.9,3.76,3.76,0,0,1-.53,2.13,4.43,4.43,0,0,1-3.73,1.44c-2.71,0-4.37-1.17-4.37-3.1s1.95-3.32,4.93-3.32a8.72,8.72,0,0,1,1.83.19.72.72,0,0,0,.19,0s0,0,.1,0a.65.65,0,0,0,0-.19V252c-.17-2.42-.31-6.47-.33-9.47a10.9,10.9,0,0,0-.11-1.7Zm-3.36,12.53c-2.14,0-3.44.76-3.44,2a1.42,1.42,0,0,0,.31.9,3.41,3.41,0,0,0,2.52.84,3.48,3.48,0,0,0,2.33-.7,1.92,1.92,0,0,0,.51-1.57,11,11,0,0,0-.07-1.15A7.17,7.17,0,0,0,185.47,253.31Z"/>
        <path class="cls-1" d="M207.48,240.86A11.9,11.9,0,0,0,207,243c-.34,2.12-.63,4.41-.7,5.48l.09,0c0-.16,0-.16.14-.6a9.65,9.65,0,0,1,1.28-3.13c1.18-1.81,2.57-2.71,4.2-2.71a3.94,3.94,0,0,1,3.36,1.87,8.55,8.55,0,0,1,1.26,5.1,8.66,8.66,0,0,1-4.85,8.25,15.22,15.22,0,0,1-3.73,1.24,4.56,4.56,0,0,0-.84-1.43,11.09,11.09,0,0,0,4.26-1.32c2.45-1.41,3.61-3.61,3.61-7s-1.18-5.33-3.19-5.33c-1.6,0-2.94,1.19-4.14,3.65a11,11,0,0,0-1.13,4.68c0,.09,0,.19,0,.51l-1.51.06v-.23l0-.38-.05-2.18v-.49a52.48,52.48,0,0,1,.72-7.74,4.48,4.48,0,0,0,.06-.68Z"/>
        <path class="cls-1" d="M226.06,252.28c0-.86,0-1.42.07-2.52a11.59,11.59,0,0,1-2.08,2.17,3.48,3.48,0,0,0-.76-1.18,15.37,15.37,0,0,0,3.78-3.93,7.81,7.81,0,0,0,1-1.8l1.22.73a5.52,5.52,0,0,0-.59.91c-.34.52-.71,1.05-1.32,1.82v8.42a20,20,0,0,0,.1,2.42h-1.53a19.71,19.71,0,0,0,.12-2.44ZM229.15,241c-.17.17-.17.19-.63.73a19.63,19.63,0,0,1-4.24,3.89,4.36,4.36,0,0,0-.86-1.05,15.15,15.15,0,0,0,2.58-2,8.42,8.42,0,0,0,1.95-2.41Zm5.78,7.43H231a18,18,0,0,0-2,.11v-1.39a18.8,18.8,0,0,0,2,.11H235v-3.07h-2.92a11.4,11.4,0,0,0-1.91.11v-1.39a12.13,12.13,0,0,0,1.91.1H235v-.5a8.58,8.58,0,0,0-.17-2.16h1.57a10.82,10.82,0,0,0-.12,2.14V243h3.19a12.67,12.67,0,0,0,2-.1v1.39a11.78,11.78,0,0,0-1.95-.11h-3.21v3.07h4.45a19,19,0,0,0,2-.11v1.39a17.82,17.82,0,0,0-2-.11h-4.47v3h3.29a13.66,13.66,0,0,0,1.91-.11v1.41a15.87,15.87,0,0,0-1.91-.11h-3.29v4.16a20.38,20.38,0,0,0,3.86.29c.76,0,1.43,0,2.81-.08a5.8,5.8,0,0,0-.44,1.45c-.73,0-1.3,0-1.66,0-5.27,0-7.81-1-9.57-3.68a14.47,14.47,0,0,1-2.39,4.5,3.62,3.62,0,0,0-1.12-.88,13.1,13.1,0,0,0,2.92-6.16,11,11,0,0,0,.32-2.37l1.45.27a16.78,16.78,0,0,0-.47,2.08c-.08.4-.14.72-.27,1.2a5.83,5.83,0,0,0,3.26,3Z"/>
        <path class="cls-1" d="M252.5,249.58a16.38,16.38,0,0,1-5.16,5,6.26,6.26,0,0,0-1-1,11.83,11.83,0,0,0,5-4.68Zm10.42-2.82a15.71,15.71,0,0,0,2.16-.12v1.46a16.33,16.33,0,0,0-2.16-.12h-6.26v5c0,1-.61,1.4-2.12,1.4-.61,0-1.37,0-2.12-.08a4.63,4.63,0,0,0-.34-1.34,13.44,13.44,0,0,0,2.35.23c.7,0,.87-.09.87-.44V248h-6.51a17.62,17.62,0,0,0-2.27.12v-1.46a17.41,17.41,0,0,0,2.27.12h1.38v-3a12.86,12.86,0,0,0-.12-1.87h1.55a10.62,10.62,0,0,0-.13,1.87v3h3.87v-4.53a11.85,11.85,0,0,0-.13-2h1.58a9.35,9.35,0,0,0-.13,1.91v.61h4.68a13.33,13.33,0,0,0,2-.12v1.4a12.82,12.82,0,0,0-2-.1h-4.68v2.79Zm-1.28,6.2c-1.52,1.51-1.64,1.63-2.12,2a19.19,19.19,0,0,1-11.38,4.22,4.65,4.65,0,0,0-.68-1.4,18.33,18.33,0,0,0,9.54-2.59,9.79,9.79,0,0,0,3.4-3.19Zm-1.33-4.1a15.82,15.82,0,0,0,5.06,3.91,6.75,6.75,0,0,0-1,1.09,22.43,22.43,0,0,1-5.21-4.31Z"/>
        <path class="cls-1" d="M276.42,241.51a9.63,9.63,0,0,0,1.75.11h1.32a11.14,11.14,0,0,0,1.74-.11A33.31,33.31,0,0,0,281,245v10.2a12.91,12.91,0,0,0,.17,2.37h-2a13.79,13.79,0,0,0,.16-2.37V243h-1.13a13.36,13.36,0,0,0-1.83.13Z"/>
        <path class="cls-1" d="M298.89,245.1a4.07,4.07,0,0,0-.73-1.32,3.21,3.21,0,0,0-2.5-1.05,3.84,3.84,0,0,0-3.64,2.6,12,12,0,0,0-.88,4.52,4.52,4.52,0,0,1,1.05-1.35,5,5,0,0,1,3.55-1.28,4.88,4.88,0,0,1,5.27,5.25,5.13,5.13,0,0,1-5.5,5.4,5.64,5.64,0,0,1-3.8-1.32c-1.36-1.26-2.12-3.62-2.12-6.6a11.2,11.2,0,0,1,1.6-6.34,5.27,5.27,0,0,1,4.43-2.29,5.54,5.54,0,0,1,3.19.89,5.34,5.34,0,0,1,1.76,2.35Zm-3.38,3.53a4.24,4.24,0,0,0-2.9,1.2,3.67,3.67,0,0,0-1.05,2.66,4,4,0,0,0,7.25,2.25,4.62,4.62,0,0,0,.54-2.23C299.35,250,298,248.63,295.51,248.63Z"/>
        <path class="cls-1" d="M317.85,240.88a6.06,6.06,0,0,0-.58,1.07,20.92,20.92,0,0,1-6.62,7.88,4.47,4.47,0,0,0-1-1.14,17.25,17.25,0,0,0,5.76-6.15,6.68,6.68,0,0,0,.9-2.2Zm-2,8.17a15.77,15.77,0,0,0-2.16.13v-1.5a15.09,15.09,0,0,0,2.18.13h6.91a16.66,16.66,0,0,0,2.2-.1,9.58,9.58,0,0,0-.08,1.49c0,4.07-.4,7.62-.95,8.61-.35.62-.86.84-2.08.84-.69,0-1.42,0-2.75-.17a5.57,5.57,0,0,0-.33-1.49,16.08,16.08,0,0,0,3,.35c.67,0,.9-.12,1-.52a30,30,0,0,0,.69-7.77h-4.89a11.92,11.92,0,0,1-1.64,5.52,12.28,12.28,0,0,1-5.29,4.58,4.39,4.39,0,0,0-.92-1.18c2.68-1.3,4.28-2.68,5.29-4.59a10.29,10.29,0,0,0,1.13-4.33Zm6.53-8.67a8.33,8.33,0,0,0,.8,1.76,17.46,17.46,0,0,0,6.19,6.53,5.44,5.44,0,0,0-1,1.28,21.2,21.2,0,0,1-7.07-8.44c-.11-.19-.23-.42-.34-.59Z"/>
        <path class="cls-1" d="M127.07,293.17l-.61.48c-.34.25-1.76,1.22-2.35,1.59,1.17,1.24,3,2.31,3.84,2.31.67,0,1-.75,1.2-3a4.08,4.08,0,0,0,1.21.76c-.35,2.5-1,3.57-2.24,3.57-1.43,0-3.55-1.24-5.15-3a28,28,0,0,1-10.33,3.05,4.12,4.12,0,0,0-.65-1.35,24.73,24.73,0,0,0,10.21-2.68,11.22,11.22,0,0,1-1.58-3.28h-5.86v1.24h-1.42a15.67,15.67,0,0,0,.12-2v-6.09a11.42,11.42,0,0,0-.1-1.82,15.67,15.67,0,0,0,2.06.1h4.17a15,15,0,0,0-.14-2.66H121a14.84,14.84,0,0,0-.12,2.66h5a15.12,15.12,0,0,0,2.06-.1,14.3,14.3,0,0,0-.08,1.82V290c0,.52,0,.71,0,1.65-.55,0-.92,0-1.68,0H122a9.18,9.18,0,0,0,1.36,2.67,12.13,12.13,0,0,0,2.75-2.1Zm-12.31-9v2.5h5c-.08-1.43-.1-1.83-.15-2.5Zm0,3.61v2.73h5.55a18,18,0,0,1-.46-2.73Zm6.14-3.61c0,1,.06,1.38.14,2.5h5.55v-2.5Zm.25,3.61a16.25,16.25,0,0,0,.46,2.73h5v-2.73Z"/>
        <path class="cls-1" d="M138.64,290.39a17.08,17.08,0,0,1-1.24,5.88,8.66,8.66,0,0,1-2.27,3.15,4.62,4.62,0,0,0-1.13-1,7.46,7.46,0,0,0,2.29-3.07,14.94,14.94,0,0,0,1-5H136a16,16,0,0,0-2.08.13v-1.45a13,13,0,0,0,2.1.13h1.32c0-1.05.06-2.12.06-3.17a35.49,35.49,0,0,0-.12-3.59,18.9,18.9,0,0,0,2,.08h2.17a9.16,9.16,0,0,0,1.13-2.67l1.43.3a25.28,25.28,0,0,1-1.16,2.37h4.45a16.84,16.84,0,0,0,2-.08,18.82,18.82,0,0,0-.08,2.07v4.69h1.21a13,13,0,0,0,2.12-.13v1.45a15.28,15.28,0,0,0-2.1-.13h-1.23v6.74c0,.8-.17,1.22-.61,1.49a3.91,3.91,0,0,1-2,.26c-.65,0-1.09,0-2-.07a4.3,4.3,0,0,0-.31-1.38,19.56,19.56,0,0,0,2.64.21c.74,0,.9-.13.9-.72v-6.53h-4.32v4.37a12.67,12.67,0,0,0,.12,1.87h-1.51a12,12,0,0,0,.13-1.87v-4.37Zm9.32-6.67h-9.19v2c0,1.64,0,2.37-.07,3.51H148Zm-3.52,4.72a19.7,19.7,0,0,0-3.53-3.21l1.05-.69a26.7,26.7,0,0,1,3.55,3Z"/>
        <path class="cls-1" d="M158.34,292.39a15.7,15.7,0,0,1-1.2,5.65l-1-.53a12.55,12.55,0,0,0,1.22-5.33Zm3.63-2.14H163a12,12,0,0,0,1.95-.09c0,.23,0,.4,0,.84a32.21,32.21,0,0,1-.82,6.89c-.31.9-.79,1.2-2,1.2a14.52,14.52,0,0,1-1.53-.09v-.17a3.73,3.73,0,0,0-.23-1.17,9.47,9.47,0,0,0,1.84.25c.66,0,.82-.27,1.1-1.81a40.33,40.33,0,0,0,.42-4.78h-4.48c-.84,0-1.34,0-1.93.06,0-.46.07-1,.07-2.16v-5.76a21.54,21.54,0,0,0-.09-2.43,16.49,16.49,0,0,0,2.31.1h3.3a16,16,0,0,0,2.14-.1v1.3a14.41,14.41,0,0,0-2-.1H162v1.93h.8a10.06,10.06,0,0,0,1.83-.11v1.24a11.87,11.87,0,0,0-1.83-.1H162v1.89h.8a10.06,10.06,0,0,0,1.83-.11v1.24a11.71,11.71,0,0,0-1.83-.11H162Zm-1.11-8h-2.29v1.93h2.29Zm0,3h-2.29v1.89h2.29Zm-2.29,2.91v2.15h2.29V288.1Zm1.13,4.25a32,32,0,0,1,.36,4.62l-1.05.14c0-.38,0-.67,0-.86a29.37,29.37,0,0,0-.19-3.78Zm1.35-.07a22.17,22.17,0,0,1,.73,3.76l-.92.29a19.61,19.61,0,0,0-.63-3.86Zm1.28-.21a13.34,13.34,0,0,1,.84,2.82l-.8.33a12.23,12.23,0,0,0-.78-2.92Zm9-3.52a18.18,18.18,0,0,0,1.38,5.58,10.71,10.71,0,0,0,2.81,4,4.6,4.6,0,0,0-1,1.2,14.7,14.7,0,0,1-3.09-5,20.83,20.83,0,0,1-1.3-5.73h-2.4c-.16,5.29-.67,7.85-2.12,10.64a4.07,4.07,0,0,0-1.19-.73c1.68-2.71,2.14-5.95,2.14-14.74a20.36,20.36,0,0,0-.09-2.5,16.93,16.93,0,0,0,2.31.1h3.49a15.75,15.75,0,0,0,2.27-.1,15.94,15.94,0,0,0-.09,2.29v2.85a16.33,16.33,0,0,0,.09,2.27,15.59,15.59,0,0,0-2-.08Zm1.84-1.16v-4.91h-5.37v1c0,.59,0,1.87,0,3.86Z"/>
        <path class="cls-1" d="M188.83,280.78a15.33,15.33,0,0,0-.13,2.77c0,.46,0,.69.05,2.18a20.63,20.63,0,0,0,6.15-.8l.19,1.56a10.59,10.59,0,0,0-1.26.15,36.58,36.58,0,0,1-5.06.46c.06,2,.17,4.07.27,5.41a18.33,18.33,0,0,1,5.61,3c.44.31.44.33,1,.65l-1,1.47a9.41,9.41,0,0,0-2.19-1.83,21.72,21.72,0,0,0-2.83-1.62,2.84,2.84,0,0,1-.51-.23,5.08,5.08,0,0,1,.09.9,3.76,3.76,0,0,1-.53,2.13,4.43,4.43,0,0,1-3.73,1.44c-2.71,0-4.37-1.17-4.37-3.1s1.95-3.32,4.93-3.32a8.72,8.72,0,0,1,1.83.19.72.72,0,0,0,.19,0s0,0,.1,0a.65.65,0,0,0,0-.19V292c-.17-2.42-.31-6.47-.33-9.47a10.9,10.9,0,0,0-.11-1.7Zm-3.36,12.53c-2.14,0-3.44.76-3.44,2a1.42,1.42,0,0,0,.31.9,3.41,3.41,0,0,0,2.52.84,3.48,3.48,0,0,0,2.33-.7,1.92,1.92,0,0,0,.51-1.57,11,11,0,0,0-.07-1.15A7.17,7.17,0,0,0,185.47,293.31Z"/>
        <path class="cls-1" d="M207.48,280.86A11.9,11.9,0,0,0,207,283c-.34,2.12-.63,4.41-.7,5.48l.09,0c0-.16,0-.16.14-.6a9.65,9.65,0,0,1,1.28-3.13c1.18-1.81,2.57-2.71,4.2-2.71a3.94,3.94,0,0,1,3.36,1.87,8.55,8.55,0,0,1,1.26,5.1,8.66,8.66,0,0,1-4.85,8.25,15.22,15.22,0,0,1-3.73,1.24,4.56,4.56,0,0,0-.84-1.43,11.09,11.09,0,0,0,4.26-1.32c2.45-1.41,3.61-3.61,3.61-7s-1.18-5.33-3.19-5.33c-1.6,0-2.94,1.19-4.14,3.65a11,11,0,0,0-1.13,4.68c0,.09,0,.19,0,.51l-1.51.06v-.23l0-.38-.05-2.18v-.49a52.48,52.48,0,0,1,.72-7.74,4.48,4.48,0,0,0,.06-.68Z"/>
        <path class="cls-1" d="M226.06,292.28c0-.86,0-1.42.07-2.52a11.59,11.59,0,0,1-2.08,2.17,3.48,3.48,0,0,0-.76-1.18,15.37,15.37,0,0,0,3.78-3.93,7.81,7.81,0,0,0,1-1.8l1.22.73a5.52,5.52,0,0,0-.59.91c-.34.52-.71,1-1.32,1.82v8.42a20,20,0,0,0,.1,2.42h-1.53a19.71,19.71,0,0,0,.12-2.44ZM229.15,281c-.17.17-.17.19-.63.73a19.63,19.63,0,0,1-4.24,3.89,4.36,4.36,0,0,0-.86-1,15.15,15.15,0,0,0,2.58-2,8.42,8.42,0,0,0,1.95-2.41Zm5.78,7.43H231a18,18,0,0,0-2,.11v-1.39a18.8,18.8,0,0,0,2,.11H235v-3.07h-2.92a11.4,11.4,0,0,0-1.91.11v-1.39a12.13,12.13,0,0,0,1.91.1H235v-.5a8.58,8.58,0,0,0-.17-2.16h1.57a10.82,10.82,0,0,0-.12,2.14V283h3.19a12.67,12.67,0,0,0,2-.1v1.39a11.78,11.78,0,0,0-1.95-.11h-3.21v3.07h4.45a19,19,0,0,0,2-.11v1.39a17.82,17.82,0,0,0-2-.11h-4.47v3h3.29a13.66,13.66,0,0,0,1.91-.11v1.41a15.87,15.87,0,0,0-1.91-.11h-3.29v4.16a20.38,20.38,0,0,0,3.86.29c.76,0,1.43,0,2.81-.08a5.8,5.8,0,0,0-.44,1.45c-.73,0-1.3,0-1.66,0-5.27,0-7.81-1-9.57-3.68a14.47,14.47,0,0,1-2.39,4.5,3.62,3.62,0,0,0-1.12-.88,13.1,13.1,0,0,0,2.92-6.16,11,11,0,0,0,.32-2.37l1.45.27a16.78,16.78,0,0,0-.47,2.08c-.08.4-.14.72-.27,1.2a5.83,5.83,0,0,0,3.26,3Z"/>
        <path class="cls-1" d="M252.5,289.58a16.38,16.38,0,0,1-5.16,5,6.26,6.26,0,0,0-1-1,11.83,11.83,0,0,0,5-4.68Zm10.42-2.82a15.71,15.71,0,0,0,2.16-.12v1.46a16.33,16.33,0,0,0-2.16-.12h-6.26v5c0,1-.61,1.4-2.12,1.4-.61,0-1.37,0-2.12-.08a4.63,4.63,0,0,0-.34-1.34,13.44,13.44,0,0,0,2.35.23c.7,0,.87-.09.87-.44V288h-6.51a17.62,17.62,0,0,0-2.27.12v-1.46a17.41,17.41,0,0,0,2.27.12h1.38v-3a12.86,12.86,0,0,0-.12-1.87h1.55a10.62,10.62,0,0,0-.13,1.87v3h3.87v-4.53a11.85,11.85,0,0,0-.13-2h1.58a9.35,9.35,0,0,0-.13,1.91v.61h4.68a13.33,13.33,0,0,0,2-.12v1.4a12.82,12.82,0,0,0-2-.1h-4.68v2.79Zm-1.28,6.2c-1.52,1.51-1.64,1.63-2.12,2a19.19,19.19,0,0,1-11.38,4.22,4.65,4.65,0,0,0-.68-1.4,18.33,18.33,0,0,0,9.54-2.59,9.79,9.79,0,0,0,3.4-3.19Zm-1.33-4.1a15.82,15.82,0,0,0,5.06,3.91,6.75,6.75,0,0,0-1,1.09,22.43,22.43,0,0,1-5.21-4.31Z"/>
        <path class="cls-1" d="M276.42,281.51a9.63,9.63,0,0,0,1.75.11h1.32a11.14,11.14,0,0,0,1.74-.11A33.31,33.31,0,0,0,281,285v10.2a12.91,12.91,0,0,0,.17,2.37h-2a13.79,13.79,0,0,0,.16-2.37V283h-1.13a13.36,13.36,0,0,0-1.83.13Z"/>
        <path class="cls-1" d="M298.89,285.1a4.07,4.07,0,0,0-.73-1.32,3.21,3.21,0,0,0-2.5-1,3.84,3.84,0,0,0-3.64,2.6,12,12,0,0,0-.88,4.52,4.52,4.52,0,0,1,1.05-1.35,5,5,0,0,1,3.55-1.28,4.88,4.88,0,0,1,5.27,5.25,5.13,5.13,0,0,1-5.5,5.4,5.64,5.64,0,0,1-3.8-1.32c-1.36-1.26-2.12-3.62-2.12-6.6a11.2,11.2,0,0,1,1.6-6.34,5.27,5.27,0,0,1,4.43-2.29,5.54,5.54,0,0,1,3.19.89,5.34,5.34,0,0,1,1.76,2.35Zm-3.38,3.53a4.24,4.24,0,0,0-2.9,1.2,3.67,3.67,0,0,0-1.05,2.66,4,4,0,0,0,7.25,2.25,4.62,4.62,0,0,0,.54-2.23C299.35,290,298,288.63,295.51,288.63Z"/>
        <path class="cls-1" d="M317.85,280.88a6.06,6.06,0,0,0-.58,1.07,20.92,20.92,0,0,1-6.62,7.88,4.47,4.47,0,0,0-1-1.14,17.25,17.25,0,0,0,5.76-6.15,6.68,6.68,0,0,0,.9-2.2Zm-2,8.17a15.77,15.77,0,0,0-2.16.13v-1.5a15.09,15.09,0,0,0,2.18.13h6.91a16.66,16.66,0,0,0,2.2-.1,9.58,9.58,0,0,0-.08,1.49c0,4.07-.4,7.62-.95,8.61-.35.62-.86.84-2.08.84-.69,0-1.42,0-2.75-.17a5.57,5.57,0,0,0-.33-1.49,16.08,16.08,0,0,0,3,.35c.67,0,.9-.12,1-.52a30,30,0,0,0,.69-7.77h-4.89a11.92,11.92,0,0,1-1.64,5.52,12.28,12.28,0,0,1-5.29,4.58,4.39,4.39,0,0,0-.92-1.18c2.68-1.3,4.28-2.68,5.29-4.59a10.29,10.29,0,0,0,1.13-4.33Zm6.53-8.67a8.33,8.33,0,0,0,.8,1.76,17.46,17.46,0,0,0,6.19,6.53,5.44,5.44,0,0,0-1,1.28,21.2,21.2,0,0,1-7.07-8.44c-.11-.19-.23-.42-.34-.59Z"/>
        <path class="cls-1" d="M116.34,325.61c-.11.33-.17.58-.61,2.31a21.72,21.72,0,0,1-3.55,7.85,4.71,4.71,0,0,0-1.28-.86,17.53,17.53,0,0,0,3.26-6.53,17.72,17.72,0,0,0,.63-3.15Zm5.23-5.08a13.28,13.28,0,0,0-.13,2.14v14.44c0,1.35-.48,1.72-2.22,1.72-.87,0-1.7,0-2.9-.14a5,5,0,0,0-.38-1.56,16.05,16.05,0,0,0,3.11.36c.75,0,.94-.1.94-.52V322.65a15.27,15.27,0,0,0-.12-2.12Zm4.7,4.57a17.36,17.36,0,0,0,1.3,4.35,18.91,18.91,0,0,0,3.13,5.33,5.47,5.47,0,0,0-1.2,1.05,22.18,22.18,0,0,1-3.57-6.67s-.33-1.1-1-3.22l-.15-.42Z"/>
        <path class="cls-1" d="M137.74,322.06a9.58,9.58,0,0,0-.13-1.79h1.54a8.65,8.65,0,0,0-.13,1.81v2.35h1a13,13,0,0,0,1.82-.1v1.38a13.15,13.15,0,0,0-1.82-.1h-.86a15.09,15.09,0,0,0,.92,2,11.49,11.49,0,0,0,2,2.69,6.4,6.4,0,0,0-.77,1.22,14.88,14.88,0,0,1-2.33-4.2c.06,1.45.08,2.31.08,3.86v6.07a11.26,11.26,0,0,0,.13,2h-1.54a11,11,0,0,0,.13-1.95v-5.75c0-1.41,0-2.39.1-3.87a19.2,19.2,0,0,1-3.36,6.89,4.86,4.86,0,0,0-.86-1.17,19.65,19.65,0,0,0,3.89-7.79h-1.39a13.22,13.22,0,0,0-1.89.1v-1.38a17.13,17.13,0,0,0,1.89.1h1.62Zm12.43,15c0,1.32-.44,1.64-2.35,1.64-.8,0-1.47,0-2.52-.13a4.42,4.42,0,0,0-.38-1.43,19.91,19.91,0,0,0,2.79.28c.93,0,1.07-.07,1.07-.55v-11h-4.34a16.61,16.61,0,0,0-2.19.12v-1.46a15.17,15.17,0,0,0,2.17.12h4.36v-1.87a15.49,15.49,0,0,0-.14-2.41h1.65a20.09,20.09,0,0,0-.12,2.43v1.85h.54a13.93,13.93,0,0,0,2-.12V326c-.65-.06-1.32-.08-2-.08h-.56Zm-4.6-3.42a21.08,21.08,0,0,0-2.94-5.23l1.2-.61a27.38,27.38,0,0,1,3,5Z"/>
        <path class="cls-1" d="M159.16,325.73a11.47,11.47,0,0,0-2.27.13V324.3a13.27,13.27,0,0,0,2.25.15h2.58v-1.87a12,12,0,0,0-.15-2.14h1.64a11.83,11.83,0,0,0-.13,2.16v1.85h5.69v-1.8a14.85,14.85,0,0,0-.12-2.21l1.66,0a11.77,11.77,0,0,0-.15,2.21v1.78h2.44a13.19,13.19,0,0,0,2.2-.15v1.56a11.69,11.69,0,0,0-2.2-.13h-2.44v5.5h2.94a16,16,0,0,0,2.2-.12v1.55a13,13,0,0,0-2.2-.15h-2.94v4.29a13.73,13.73,0,0,0,.15,2.37l-1.66,0a16.7,16.7,0,0,0,.12-2.35v-4.29h-6a10.37,10.37,0,0,1-1.58,4.18,11.07,11.07,0,0,1-2.62,2.67,4.88,4.88,0,0,0-1.09-1.16,9.6,9.6,0,0,0,2.68-2.56,8.14,8.14,0,0,0,1.22-3.13h-2.92a12,12,0,0,0-2.14.15v-1.55a15.27,15.27,0,0,0,2.12.12h3.13a35.92,35.92,0,0,0,.19-4.13v-1.37Zm3.92,1.51a39.06,39.06,0,0,1-.18,4h5.87v-5.5h-5.69Z"/>
        <path class="cls-1" d="M180.85,332.39a15.94,15.94,0,0,1-1.19,5.65l-1-.53a12.56,12.56,0,0,0,1.21-5.33Zm3.63-2.14h1.05a12.26,12.26,0,0,0,2-.09c0,.23,0,.4-.05.84a33,33,0,0,1-.81,6.89c-.32.9-.8,1.2-2,1.2a14.52,14.52,0,0,1-1.53-.09v-.17a3.46,3.46,0,0,0-.23-1.17,9.65,9.65,0,0,0,1.85.25c.65,0,.82-.27,1.09-1.81a38.28,38.28,0,0,0,.42-4.78h-4.47c-.84,0-1.35,0-1.94.06a20.06,20.06,0,0,0,.07-2.16v-5.76a19.32,19.32,0,0,0-.09-2.43,16.58,16.58,0,0,0,2.31.1h3.3a16,16,0,0,0,2.14-.1v1.3a14.25,14.25,0,0,0-2-.1h-1.12v1.93h.8a10.06,10.06,0,0,0,1.83-.11v1.24a11.87,11.87,0,0,0-1.83-.1h-.8v1.89h.8a10.06,10.06,0,0,0,1.83-.11v1.24a11.71,11.71,0,0,0-1.83-.11h-.8Zm-1.11-8h-2.29v1.93h2.29Zm0,3h-2.29v1.89h2.29Zm-2.29,2.91v2.15h2.29V328.1Zm1.14,4.25a33.4,33.4,0,0,1,.35,4.62l-1,.14c0-.38,0-.67,0-.86a31.42,31.42,0,0,0-.18-3.78Zm1.34-.07a22.16,22.16,0,0,1,.74,3.76l-.93.29a19.61,19.61,0,0,0-.63-3.86Zm1.28-.21a13.34,13.34,0,0,1,.84,2.82l-.8.33a12.26,12.26,0,0,0-.77-2.92Zm9-3.52a18.18,18.18,0,0,0,1.38,5.58,10.62,10.62,0,0,0,2.82,4,4.63,4.63,0,0,0-1,1.2,14.86,14.86,0,0,1-3.09-5,20.83,20.83,0,0,1-1.3-5.73h-2.39c-.17,5.29-.68,7.85-2.12,10.64a4,4,0,0,0-1.2-.73c1.68-2.71,2.14-5.95,2.14-14.74a23.49,23.49,0,0,0-.08-2.5,16.84,16.84,0,0,0,2.31.1h3.48a15.67,15.67,0,0,0,2.27-.1,18.36,18.36,0,0,0-.08,2.29v2.85a18.82,18.82,0,0,0,.08,2.27,15.59,15.59,0,0,0-2-.08Zm1.85-1.16v-4.91H190.3v1c0,.59,0,1.87,0,3.86Z"/>
        <path class="cls-1" d="M211.34,320.78a15.73,15.73,0,0,0-.12,2.77c0,.46,0,.69,0,2.18a20.58,20.58,0,0,0,6.15-.8l.19,1.56a10.59,10.59,0,0,0-1.26.15,36.58,36.58,0,0,1-5.06.46c.06,2,.17,4.07.27,5.41a18.33,18.33,0,0,1,5.61,3c.44.31.44.33,1,.65l-1,1.47a9.2,9.2,0,0,0-2.19-1.83,21.72,21.72,0,0,0-2.83-1.62,2.69,2.69,0,0,1-.5-.23,6.28,6.28,0,0,1,.08.9,3.76,3.76,0,0,1-.53,2.13,4.43,4.43,0,0,1-3.73,1.44c-2.71,0-4.37-1.17-4.37-3.1S205,332,208,332a8.72,8.72,0,0,1,1.83.19.93.93,0,0,0,.19,0s0,0,.1,0a.65.65,0,0,0,0-.19V332c-.16-2.42-.31-6.47-.33-9.47a8.82,8.82,0,0,0-.11-1.7ZM208,333.31c-2.14,0-3.44.76-3.44,2a1.48,1.48,0,0,0,.31.9,3.43,3.43,0,0,0,2.52.84,3.48,3.48,0,0,0,2.33-.7,1.92,1.92,0,0,0,.51-1.57c0-.31,0-1.15-.06-1.15A7.27,7.27,0,0,0,208,333.31Z"/>
        <path class="cls-1" d="M230,320.86a11.9,11.9,0,0,0-.48,2.16c-.34,2.12-.63,4.41-.69,5.48l.08,0,.15-.6a9.23,9.23,0,0,1,1.28-3.13c1.17-1.81,2.56-2.71,4.2-2.71a4,4,0,0,1,3.36,1.87,9.89,9.89,0,0,1-3.59,13.35,15.45,15.45,0,0,1-3.74,1.24,4.37,4.37,0,0,0-.84-1.43,11.09,11.09,0,0,0,4.26-1.32c2.46-1.41,3.61-3.61,3.61-7s-1.17-5.33-3.19-5.33c-1.6,0-2.94,1.19-4.14,3.65a11,11,0,0,0-1.13,4.68c0,.09,0,.19,0,.51l-1.51.06v-.23l0-.38,0-2.18v-.49a53.58,53.58,0,0,1,.71-7.74,4.48,4.48,0,0,0,.06-.68Z"/>
        <path class="cls-1" d="M248.58,332.28c0-.86,0-1.42.06-2.52a11.59,11.59,0,0,1-2.08,2.17,3.62,3.62,0,0,0-.75-1.18,15.5,15.5,0,0,0,3.77-3.93,7.81,7.81,0,0,0,1-1.8l1.22.73a5.52,5.52,0,0,0-.59.91,20.79,20.79,0,0,1-1.32,1.82v8.42a20,20,0,0,0,.1,2.42h-1.53a19.4,19.4,0,0,0,.13-2.44ZM251.66,321c-.16.17-.16.19-.63.73a19.63,19.63,0,0,1-4.24,3.89,4.14,4.14,0,0,0-.86-1,14.77,14.77,0,0,0,2.58-2,8.66,8.66,0,0,0,2-2.41Zm5.78,7.43h-3.89a18,18,0,0,0-2,.11v-1.39a18.8,18.8,0,0,0,2,.11h3.93v-3.07h-2.92a11.4,11.4,0,0,0-1.91.11v-1.39a12.13,12.13,0,0,0,1.91.1h2.92v-.5a8.58,8.58,0,0,0-.17-2.16h1.58a9.89,9.89,0,0,0-.13,2.14V323H262a12.6,12.6,0,0,0,2-.1v1.39a11.78,11.78,0,0,0-1.95-.11h-3.21v3.07h4.45a19.25,19.25,0,0,0,2-.11v1.39a18,18,0,0,0-2-.11h-4.47v3H262a13.86,13.86,0,0,0,1.91-.11v1.41a16.12,16.12,0,0,0-1.91-.11h-3.3v4.16a20.38,20.38,0,0,0,3.86.29c.76,0,1.43,0,2.82-.08a5.4,5.4,0,0,0-.45,1.45c-.73,0-1.3,0-1.65,0-5.27,0-7.81-1-9.58-3.68a14.47,14.47,0,0,1-2.39,4.5,3.58,3.58,0,0,0-1.11-.88,13.09,13.09,0,0,0,2.91-6.16,11,11,0,0,0,.32-2.37l1.45.27a15.79,15.79,0,0,0-.46,2.08c-.09.4-.15.72-.28,1.2a5.83,5.83,0,0,0,3.26,3Z"/>
        <path class="cls-1" d="M275,329.58a16.52,16.52,0,0,1-5.17,5,6.26,6.26,0,0,0-1-1,11.83,11.83,0,0,0,5-4.68Zm10.41-2.82a15.71,15.71,0,0,0,2.16-.12v1.46a16.33,16.33,0,0,0-2.16-.12h-6.26v5c0,1-.61,1.4-2.12,1.4-.61,0-1.36,0-2.12-.08a5,5,0,0,0-.33-1.34,13.26,13.26,0,0,0,2.35.23c.69,0,.86-.09.86-.44V328H271.3a17.62,17.62,0,0,0-2.27.12v-1.46a17.41,17.41,0,0,0,2.27.12h1.38v-3a12.86,12.86,0,0,0-.12-1.87h1.55a10.68,10.68,0,0,0-.12,1.87v3h3.86v-4.53a11.85,11.85,0,0,0-.13-2h1.58a9.35,9.35,0,0,0-.13,1.91v.61h4.68a13.24,13.24,0,0,0,2-.12v1.4a12.82,12.82,0,0,0-2-.1h-4.68v2.79Zm-1.28,6.2a27.36,27.36,0,0,1-2.12,2,19.14,19.14,0,0,1-11.38,4.22,4.87,4.87,0,0,0-.67-1.4,18.29,18.29,0,0,0,9.53-2.59,9.79,9.79,0,0,0,3.4-3.19Zm-1.32-4.1a15.6,15.6,0,0,0,5.06,3.91,6.35,6.35,0,0,0-1,1.09,22.43,22.43,0,0,1-5.21-4.31Z"/>
        <path class="cls-1" d="M308,323a8.67,8.67,0,0,0-1.55,2,27.25,27.25,0,0,0-3.59,7.27,26.56,26.56,0,0,0-1.11,5.24h-2a27.5,27.5,0,0,1,2.54-8.37,34.18,34.18,0,0,1,3.78-6.09h-6.82a16.79,16.79,0,0,0-2.37.14v-1.78a15.68,15.68,0,0,0,2.39.15h6.3a17.06,17.06,0,0,0,2.43-.11Z"/>
        <path class="cls-1" d="M325.06,320.88a5.32,5.32,0,0,0-.59,1.07,20.89,20.89,0,0,1-6.61,7.88,4.88,4.88,0,0,0-1-1.14,17.31,17.31,0,0,0,5.75-6.15,6.68,6.68,0,0,0,.9-2.2Zm-2,8.17a15.77,15.77,0,0,0-2.16.13v-1.5a15.09,15.09,0,0,0,2.18.13H330a16.47,16.47,0,0,0,2.2-.1,9.58,9.58,0,0,0-.08,1.49c0,4.07-.4,7.62-.94,8.61-.36.62-.86.84-2.08.84-.7,0-1.43,0-2.75-.17A6,6,0,0,0,326,337a16.27,16.27,0,0,0,3,.35c.67,0,.9-.12,1.05-.52a30,30,0,0,0,.69-7.77h-4.89a11.92,11.92,0,0,1-1.64,5.52,12.28,12.28,0,0,1-5.29,4.58,4.39,4.39,0,0,0-.92-1.18c2.69-1.3,4.28-2.68,5.29-4.59a10.15,10.15,0,0,0,1.13-4.33Zm6.53-8.67a8.88,8.88,0,0,0,.8,1.76,17.54,17.54,0,0,0,6.19,6.53,5.16,5.16,0,0,0-1,1.28,21.14,21.14,0,0,1-7.08-8.44c-.1-.19-.23-.42-.34-.59Z"/>
      </g>
    </g>
  </g>
</svg>
