<svg xmlns="http://www.w3.org/2000/svg" viewBox="0 0 757.31 333.68"><defs><style>.cls-1{fill:#fff;}.cls-2{fill:#231815;}.cls-3{fill:none;}.cls-4{fill:#2b89c7;}</style></defs><g id="レイヤー_2" data-name="レイヤー 2"><g id="レイヤー_1-2" data-name="レイヤー 1"><polygon class="cls-1" points="21.43 26.63 21.43 26.63 21.43 26.63 18.17 24.75 21.43 26.63"/><path class="cls-1" d="M12.64,17.78h0l3.24,1.87Zm4.41,7.63h0l1.63.93Zm0-5.08h0L20.3,22.2Zm-4.41-2.55h0l3.24,1.87Zm-4.4-2.54h0l3.25,1.88Zm8.81,10.17h0l1.63.93Zm0-5.08h0L20.3,22.2Z"/><path class="cls-2" d="M66.02,31.39V21.88l-9.38-5.42h0l-1.14.67,9.38,5.41v9.51l-3.24,1.88V24.42l-9.38-5.41-1.14.66,9.37,5.42v9.5l-3.25,1.88V26.96c-.7-.4-9-5.16-9.37-5.42h0l-1.15.67,9.35,5.44v4.42c-.41.23-3.51,2-3.83,2.2L34.64,24.09,22,31.39V26.96l-3.83-2.21,4.41-2.54c-2.93-1.69-7-4.06-9.95-5.75h0L9.39,14.58l-1.15.67,3.25,1.88L3.26,21.88V32.71l1.15.66V22.54l8.23-4.76,3.24,1.87L7.64,24.42V35.25l1.15.66V25.09l8.23-4.76,3.25,1.88-8.22,4.75V37.79l1.14.66V27.65l3.83-2.21c1.08.6,2.75,1.59,3.82,2.2V47.98l12.64,7.29-3.84,2.19v4.42l-4.4-2.54V74.58l1.14.67V71.48l8.26,4.76,9.37-5.42V69.5l-1.15.66h0l-8.22,4.76L26.4,70.16V66.41l8.24,4.74,9.37-5.4V64.42c-.39.24-8.7,5-9.37,5.42L26.4,65.08V61.33c2.3,1.31,5.94,3.42,8.24,4.75l9.37-5.43V59.32l-9.37,5.43-3.83-2.21V58.12l17.6-10.16V33.37l3.83,2.21c.3-.16,3.44-2,3.83-2.21v5.08l13.21-7.62V29.5ZM42.86,75.25l.26-.15-.26.14Z"/><path class="cls-3" d="M69.28,60,43.44,74.92l-.32.18-.26.15L34.64,80,26.4,75.25l-1.14-.67L0,60V20l8.22-4.75h0l1.15-.67L34.64,0,60.16,14.74l.31.18.32.18.26.15L69.28,20Z"/><polygon class="cls-1" points="34.64 80 26.4 75.25 26.4 75.24 34.64 80"/><polygon class="cls-1" points="42.87 75.24 42.87 75.25 34.64 80 42.87 75.24"/><path class="cls-1" d="M34.64,80l8.23-4.75h0Z"/><polygon class="cls-1" points="11.48 17.13 8.23 15.25 0 20 8.23 15.25 11.48 17.13"/><path class="cls-1" d="M4.4,22.54l8.24-4.75h0Z"/><path class="cls-1" d="M69.28,20l-8.24-4.76h0Z"/><path class="cls-1" d="M56.64,17.78h0l8.24,4.75Z"/><polygon class="cls-1" points="42.87 70.16 42.87 70.17 34.64 74.91 42.87 70.16"/><path class="cls-1" d="M34.64,74.92l8.23-4.75h0Z"/><polygon class="cls-1" points="15.88 19.67 12.63 17.79 4.4 22.54 12.63 17.78 15.88 19.67"/><path class="cls-1" d="M8.8,25.09l8.23-4.75h0Z"/><polygon class="cls-1" points="42.87 61.32 42.87 61.33 34.64 66.08 42.87 61.32"/><polygon class="cls-1" points="20.28 22.21 17.03 20.33 8.8 25.09 17.03 20.33 20.28 22.21"/><path class="cls-1" d="M13.2,27.65l3.83-2.21h0Z"/><polygon class="cls-1" points="61.63 35.25 61.63 35.25 60.47 35.91 61.63 35.25"/><path class="cls-1" d="M34.64,66.08l8.23-4.75h0Z"/><polygon class="cls-1" points="51.67 35.25 51.67 35.25 48.41 33.37 51.67 35.25"/><path class="cls-1" d="M48.41,33.37l3.23,1.88h0Zm0,0,3.23,1.88h0Zm0,0,3.23,1.88h0Zm0,0,3.23,1.88h0Zm0,0,3.23,1.88h0Zm0,0,3.23,1.88h0ZM30.24,57.13h0l3.25-1.88ZM48.41,33.37l3.23,1.88h0Zm0,0,3.23,1.88h0Zm0,0,3.23,1.88h0Zm0,0,3.23,1.88h0Zm0,0,3.23,1.88h0Zm0,0,3.23,1.88h0Zm0,0,3.23,1.88h0Zm0,0,3.23,1.88h0Z"/><path class="cls-1" d="M69.28,30.83V60C62.5,63.91,41.03,76.3,34.64,80L26.4,75.24V71.48l8.24,4.76,9.37-5.42V69.5l-9.37,5.42L26.4,70.16V66.4l8.24,4.75,9.37-5.4V64.42l-9.37,5.42L26.4,65.08V61.33c2.3,1.31,5.94,3.42,8.24,4.75l8.23-4.75h0l1.14-.67V59.34l-9.37,5.41-3.83-2.21V58.13l3.83,2.2,17.6-10.17V35.58l3.83-2.21v5.08l5.56-3.2h0l4.39-2.54h0Z"/><path class="cls-1" d="M18.64,26.35l-1.63-.93L13.2,27.65l3.83-2.22Z"/><path class="cls-1" d="M18.18,24.75l3.25,1.9h0Z"/><polygon class="cls-1" points="33.49 55.25 30.24 57.13 30.24 57.13 30.24 57.13 33.49 55.25"/><path class="cls-1" d="M29.64,57.46v4.42l-4.41-2.54V74.58L0,60V20l8.23-4.75,3.25,1.88L3.25,21.88V32.71l1.15.66V22.54l8.24-4.75,3.24,1.86L7.64,24.42V35.25l1.14.66V25.09l8.23-4.75,3.25,1.87-8.22,4.75V37.79l1.14.66V27.65l3.83-2.21c1.08.61,2.75,1.59,3.83,2.2h0l-3.83,2.2V50.17Z"/><polygon class="cls-4" points="33.49 55.25 29.67 57.46 17.03 50.16 17.03 29.83 20.86 27.63 20.86 47.95 33.49 55.25"/><polygon class="cls-1" points="64.88 22.54 56.64 17.79 56.64 17.78 56.65 17.78 64.88 22.54"/><path class="cls-1" d="M60.47,35.91l1.16-.66h0Z"/><path class="cls-1" d="M60.47,35.91l1.16-.66h0Z"/><path class="cls-1" d="M69.28,20v9.5l-3.26,1.89V21.88l-9.38-5.42h0l-1.14.67,9.38,5.41v9.51l-3.24,1.88V24.42l-9.38-5.41-1.15.66,9.37,5.42v9.5l-3.25,1.88V26.96c-.7-.41-9-5.16-9.37-5.42h0l-1.15.67,9.36,5.44v4.42c-.41.23-3.51,2-3.83,2.2V29.85l-17.6-10.2L22,26.94l-3.82-2.21,4.4-2.54-9.94-5.73h0L9.4,14.58,34.64,0Z"/><path class="cls-4" d="M52.24,35.58V50.16L34.64,60.33l-3.83-2.2h0l17.6-10.16V33.37Z"/><path class="cls-4" d="M52.24,29.83v4.42l-3.83-2.2h0l-13.77-8L22,31.35v-3.7h0v-.66l12.64-7.34Z"/><line class="cls-3" x1="8.23" y1="15.25" x2="8.23" y2="15.24"/><polygon class="cls-3" points="69.28 20 69.28 60 34.64 80 26.4 75.25 25.26 74.58 0 60 0 20 8.23 15.25 9.37 14.58 34.64 0 69.28 20"/><path class="cls-1" d="M141.48,25.99c.87-1,1.14-1.21,2-2.13,1.33.92,1.75,1.18,3,2.13.38.31.53.5.53.72s-.26.54-1.21,1c0,2.39,0,3.34.11,6,0,.57-.15.72-.76.87,1.52,1.18,1.52,1.18,2.74,2.09.11.16.15.23.15.31s-.12.19-.34.19H127.15a15.25,15.25,0,0,0-2.28.15l-.26-1.25a9.586,9.586,0,0,0,2.54.3h15c.83-.8,1.18-1.14,1.71-1.63a6.924,6.924,0,0,1-.84,0c-.87,0-1.14-.16-1.17-.65v-.38H128.64v.45c0,.38-.11.54-.34.65a9.168,9.168,0,0,1-2.43.27c-.88,0-1.18-.23-1.18-.88v-.07c.08-4,.08-4,.08-6.73l-.42.12h-4v9.65h.3c.72-.92.91-1.18,1.64-2.13a28.206,28.206,0,0,1,2.35,2.61.389.389,0,0,1,.12.26c0,.12-.12.19-.34.19h-4v9.24a35.029,35.029,0,0,0,4.25-1.48l.23.41c-2.51,2.13-4.14,3.23-9.84,6.61-.11,1.26-.26,1.71-.61,1.71s-.79-.95-2.09-5.43a25.614,25.614,0,0,0,4.11-.76V38.1h-1.18a14.064,14.064,0,0,0-2.13.16L112.93,37a8.823,8.823,0,0,0,2.32.31h1.22V27.65h-1.52a12.248,12.248,0,0,0-2.13.15l-.23-1.26a9.043,9.043,0,0,0,2.36.31h4.4c.88-1.14,1.14-1.52,2.09-2.66,1.45,1.21,1.87,1.59,3.27,2.92l.12.16V23.88c1.86.88,2.43,1.14,4.18,2.13Zm1.21,11.89c1.33.92,1.71,1.18,2.93,2.06.34.22.45.41.45.57s-.26.53-1.21.91c0,.64,0,2.13.07,4.48,0,.5-.19.69-.79.84,3.3,2.12,3.34,2.16,3.34,2.43s-.23.38-.53.38a12.432,12.432,0,0,1-1.26-.19,34.223,34.223,0,0,1-4.82,1.06A18.329,18.329,0,0,0,149,53.5v.34c-1.44.72-2.09,1.56-2.77,3.5-.08.23-.19.3-.35.3a6.2,6.2,0,0,1-2.27-1.33c-3.16-2.39-5.25-5.17-7.26-9.72l.11,5.43c0,3.3,0,3.3.12,6.15a.66.66,0,0,1-.27.61,6.674,6.674,0,0,1-2.28.31h-.53c-.72,0-1-.23-1-.73v-.19c.08-2.47.12-3.49.15-5.35v-3a26.985,26.985,0,0,1-7.25,4.9,42.464,42.464,0,0,1-6.84,2.66l-.19-.38a45.806,45.806,0,0,0,8.66-5.85,36.409,36.409,0,0,0,5-5.13h-2.39v.57a.577.577,0,0,1-.34.6,8.106,8.106,0,0,1-2.58.27c-.8,0-1-.19-1-.76h0c.08-2.85.11-4,.11-5.24s0-1.9-.07-3.34a38.082,38.082,0,0,1,4.25,1.74h10.76ZM130.84,26.79h-2.2v6.23h2.17Zm10.18,13.79H129.64v4.6h11.4Zm-4.67-13.79H134.1v6.23h2.25Zm.41,19.19a12.765,12.765,0,0,0,3.2,3.76,13.986,13.986,0,0,0,2.92-2.89h-.87c-.72,0-1-.19-1-.68v-.23Zm5.1-19.19h-2.22v6.23h2.25Z"/><path class="cls-1" d="M167.55,28.73a10.012,10.012,0,0,0-2.25.23l-.22-1.33a10.494,10.494,0,0,0,2.47.3h6V26.45a24.48,24.48,0,0,0-.12-2.81c5.1.38,5.21.41,5.7.68a.58.58,0,0,1,.23.38c0,.34-.42.57-1.71,1v2.28h4.18c1.1-1.25,1.45-1.6,2.51-2.77a39.255,39.255,0,0,1,3.91,3.07.412.412,0,0,1,.19.31c0,.11-.11.19-.42.19h-8c3.61,1.25,4.25,1.52,4.25,1.94s-.34.45-1.59.53a35.489,35.489,0,0,1-3.95,3.3h3.91c1.29-1.36,1.29-1.36,2.58-2.77a32.92,32.92,0,0,1,3.73,3.08.372.372,0,0,1,.18.3c0,.12-.15.19-.38.19H161.5V46.26c1.6-.42,2.4-.65,4.6-1.37l.19.42a98.2,98.2,0,0,1-10.22,6.57c-.08,1.44-.23,1.82-.61,1.82s-.45,0-2.2-5.74a31.861,31.861,0,0,0,4.22-.68V35.3h-2.24a9.416,9.416,0,0,0-2,.23l-.19-1.33a9.244,9.244,0,0,0,2.17.3h2.24V29.79a54.191,54.191,0,0,0-.19-5.43c1.21.11,2.16.19,2.77.23,2.55.19,3.08.34,3.08.79s-.46.65-1.64.95V34.5h.38l1.83-2.35a30.379,30.379,0,0,1,2.32,2.35h4.55c-.34-.53-.34-.53-.72-2.69a8.065,8.065,0,0,0-1.06-2.78l.38-.3c3.46,1.44,4.6,2.35,4.6,3.65a2.718,2.718,0,0,1-1.37,2.12h4.67a25.215,25.215,0,0,0,2.05-5.77Zm2.88,19.53c4.79.68,5,.72,5,1.18s-.23.45-1.33.75a10.872,10.872,0,0,1-5.89,6.62c-2.43,1.21-4.52,1.71-9,2.16l-.08-.49c4.07-1.29,6.5-2.59,8.32-4.41a8.577,8.577,0,0,0,2.55-5,7.572,7.572,0,0,1-2.09.19c-1.29,0-1.52-.12-1.52-.84.07-2.81.11-4.37.11-8,0-1.86,0-2.92-.11-4.56a48.19,48.19,0,0,1,4.48,2.09h10.07l1.94-2c1.33.83,1.71,1.1,3,1.94.38.3.5.41.5.64s-.23.5-1.15.95c0,4.6,0,5.51.12,8.4a1,1,0,0,1-.12.57c-.22.3-1.06.45-2.77.45-1.06,0-1.14,0-1.18-.53v-.72h-.76v6c0,.83,0,.83,2.36.83,1.44,0,1.94-.15,2.32-.72s.8-1.56,2.35-6.15l.42.07-.34,5q-.017.34,0,.68c0,.35.12.46.53.69a1.739,1.739,0,0,1,1.1,1.67,2,2,0,0,1-1.4,1.94,25.528,25.528,0,0,1-6,.45c-4.64,0-5.32-.3-5.32-2.47v-8h-6Zm10.79-9.54H170.43v3.61h10.79Zm-10.79,4.41v3.76h10.79V43.13Z"/><path class="cls-1" d="M203,58.36a28.5,28.5,0,0,0,5.7-9.08,27.992,27.992,0,0,0,1.94-8.09,2.14,2.14,0,0,0-.61-1.79,31.063,31.063,0,0,0-7.94,2.28,3.261,3.261,0,0,1-1.63.5c-1,0-2.09-.84-3.35-2.51a3.82,3.82,0,0,1-1.06-2.39,2.986,2.986,0,0,1,.15-.76,4.21,4.21,0,0,0,3.65,2.09c1.18,0,1.52,0,7.18-.92,3.42-.53,5.09-.75,11.55-1.48a9.627,9.627,0,0,0,3.3-.8,2.409,2.409,0,0,1,1.11-.3,5.75,5.75,0,0,1,2.43.8c1.44.72,2.16,1.52,2.16,2.28s-.6,1.29-1.59,1.29a3.142,3.142,0,0,1-.69-.08,45.94,45.94,0,0,0-12.65-.3c2.17,1.25,2.59,1.71,2.59,2.7,0,1.67-1.6,5.77-3.35,8.62a23.552,23.552,0,0,1-8.58,8.25Zm-.53-30.89a6,6,0,0,0,4.63,2.09,19.582,19.582,0,0,0,5.29-.87,11.9,11.9,0,0,0,3.34-1.44,2.264,2.264,0,0,1,1.21-.35,3.645,3.645,0,0,1,2,.8c.95.61,1.4,1.22,1.4,1.86s-.53,1.11-2.2,1.49a52.469,52.469,0,0,1-9.42,1.14c-3,0-4.94-1.33-6.61-4.45Zm18.27-2.43c3.88,1.37,6.31,3.5,6.31,5.51,0,1-.49,1.56-1.22,1.56s-.72-.11-1.67-1.9a17.047,17.047,0,0,0-3.8-4.52Zm3.92-2.62a13.508,13.508,0,0,1,4.37,1.9c1.4,1,2,1.9,2,3,0,.88-.46,1.48-1.14,1.48-.45,0-.68-.19-1.25-1.1a16.372,16.372,0,0,0-4.33-4.71Z"/><path class="cls-1" d="M247.27,58.21a17.578,17.578,0,0,0,7.22-8c1.33-3.11,1.94-6.87,2-12.38a45.12,45.12,0,0,0-7.67,1v2.05c0,1.21,0,4.33.08,5.39v.27c0,1.9-.5,2.81-1.56,2.81-.65,0-1.29-.49-1.94-1.41a4.729,4.729,0,0,1-.84-2.24,3.042,3.042,0,0,1,.27-1.06,14.738,14.738,0,0,0,.65-5.05,13.706,13.706,0,0,0-4,1.44,3.718,3.718,0,0,1-1.52.46c-.95,0-2.4-1.26-3.42-3a4.619,4.619,0,0,1-.68-2,2.471,2.471,0,0,1,.07-.46,4.367,4.367,0,0,0,3.69,1.94,37.961,37.961,0,0,0,5.85-.84c0-5.69-.46-6.72-3.12-8a1.931,1.931,0,0,1,1.26-.38,10.09,10.09,0,0,1,4.63,1.63c1,.65,1.33,1.14,1.33,1.79a3,3,0,0,1-.27,1.17,14.378,14.378,0,0,0-.45,3.27c1.75-.27,4.29-.61,7.67-1v-3c0-2.7-.19-3.84-.76-4.52a4.587,4.587,0,0,0-2.77-1.48,2.6,2.6,0,0,1,1.82-.53,11.349,11.349,0,0,1,4.79,1.14c1.14.53,1.63,1.1,1.63,1.86a2,2,0,0,1-.22.91c-.57,1.29-.65,1.86-.84,5.17a10.236,10.236,0,0,0,4.22-.84,2.071,2.071,0,0,1,1-.26,5.665,5.665,0,0,1,2.66,1c1,.61,1.41,1.18,1.41,1.79a1.129,1.129,0,0,1-1.116,1.143.9.9,0,0,1-.1,0,4.006,4.006,0,0,1-.6,0,63.2,63.2,0,0,0-6.35-.27h-1.22c-.19,8.06-.83,11.17-3,14.21a18.723,18.723,0,0,1-9.57,6.65Zm15-33.85a10.208,10.208,0,0,1,3.5,2.13,4.7,4.7,0,0,1,1.71,3.3c0,1-.46,1.56-1.18,1.56-.5,0-.8-.34-1.18-1.41a14.9,14.9,0,0,0-3.38-5.13Zm4-1.83a10.922,10.922,0,0,1,3.53,1.87,4.271,4.271,0,0,1,1.9,3.26c0,.92-.42,1.49-1.1,1.49-.53,0-.72-.23-1.22-1.3a13.376,13.376,0,0,0-3.64-4.82Z"/><path class="cls-1" d="M277.56,47.65a70.789,70.789,0,0,0,14.17-11.29c4.06-4.1,6.38-7.14,6.38-8.39,0-.8-.87-1.79-2.28-2.51a4.292,4.292,0,0,1,1.22-.15,7.609,7.609,0,0,1,3.84,1.29c1.74,1,2.77,2.16,2.77,3,0,.68-.19.91-1.52,1.86-.15.11-.15.11-2.47,2.32-2.66,2.47-2.66,2.47-5.36,4.78a9.3,9.3,0,0,1,2.62,2.25c.35.53.39.91.42,3.72,0,1.75,0,2.24.27,9.46v1.44c0,1.56-.5,2.32-1.56,2.32-1.41,0-3.5-2.32-3.5-3.91a3.353,3.353,0,0,1,.23-1.22,44.21,44.21,0,0,0,.84-9.8c0-1.94-.12-2.47-.65-3.19a62.448,62.448,0,0,1-8.13,5.39,47.734,47.734,0,0,1-7.14,3Z"/><path class="cls-1" d="M321.79,29.53c4.25.68,6.53,1.33,8.32,2.47a3.572,3.572,0,0,1,1.86,3.26c0,1.79-.87,3.16-2.05,3.16-.65,0-1-.31-1.6-1.3a17.89,17.89,0,0,0-6.72-7.18Zm28.87,2.2a40.766,40.766,0,0,1-8.54,11.78,61.162,61.162,0,0,1-11,8.66,8.76,8.76,0,0,0-2,1.67,2.089,2.089,0,0,1-1.6.95c-1,0-2.39-1.06-3.72-2.77a7.236,7.236,0,0,1-1.83-4.22,3.047,3.047,0,0,1,.19-1c1,1.75,2.28,2.82,3.31,2.82,1.59,0,6.57-2.62,11.09-5.85a75.015,75.015,0,0,0,13.72-12.24Z"/><path class="cls-1" d="M366.93,27.7a32.472,32.472,0,0,1-3.42,10l.31.31h3.11c.84-.95,1.1-1.26,2-2.25,1.14,1,1.49,1.22,2.55,2.17.27.27.38.42.38.57s-.19.38-.95.84v5.43c0,4.82,0,4.82.15,9a.79.79,0,0,1-.68.84,7.385,7.385,0,0,1-2,.27c-.91,0-1.14-.16-1.14-.76V52.79h-3v3.57a.72.72,0,0,1-.58.76,10.892,10.892,0,0,1-2.24.26c-.79,0-1.1-.19-1.1-.72.12-5.51.19-8.4.19-8.7V42.34a28.679,28.679,0,0,1-3.49,3.84l-.27-.31a46.578,46.578,0,0,0,5.74-18.2h-2.25a9.463,9.463,0,0,0-2.2.23l-.23-1.33a9.179,9.179,0,0,0,2.43.3h6.08c1.07-1.29,1.37-1.67,2.47-2.85,1.56,1.3,2,1.71,3.54,3.12.15.15.19.23.19.34s-.15.19-.42.19Zm-2.69,24.32h3.07V38.83h-3.07Zm24.12-13h.38c.87-1.22,1.18-1.56,2.13-2.74,1.33,1.25,1.71,1.67,3,3,.15.15.19.23.19.34s-.15.19-.38.19h-5.32v4.72c0,4.74,0,5.2.19,13.18a.74.74,0,0,1-.594.862l-.056.008a13.157,13.157,0,0,1-2.65.23c-1,0-1.26-.15-1.26-.8.19-8.13.19-8.7.19-13.48V39.81h-4.6c-.3,6.73-1,9.73-3.07,12.81s-4.45,4.79-8.78,6.61l-.23-.38a18.987,18.987,0,0,0,4.3-4.14,18.712,18.712,0,0,0,3.3-9c.19-1.41.3-3.39.38-5.86h-1.14a12.775,12.775,0,0,0-2,.19l-.23-1.25a9.156,9.156,0,0,0,2.36.27h1.06v-12h-.19a15.714,15.714,0,0,0-2.47.19l-.23-1.33a10.341,10.341,0,0,0,2.74.34h11.51c.91-1,1.82-1.94,2.66-2.81,1.6,1.22,2.05,1.63,3.61,3,.19.16.26.27.26.38s-.22.27-.49.27h-4.56Zm-8.62-12c0,6.61,0,9.57-.12,12h4.56v-12Z"/><path class="cls-1" d="M411.09,44.31a24.667,24.667,0,0,0,.34-4.07,11.726,11.726,0,0,0-.11-1.9c1.29.11,2.28.19,2.92.27h.15c2.28.19,3.19.45,3.19.83s-.53.69-1.74,1c-.23,2-.35,2.7-.53,3.8l4.75-.08,2.16-2.24,1.71,1.18c.34.27.84.61,1.52,1.06.38.31.53.5.53.69s-.26.49-.68.76a6.613,6.613,0,0,0-.8.49v7.64c0,.68.11.8,1.1.8a11.365,11.365,0,0,0,3.19-.27c.61-.19,1.11-1.1,1.71-3.12.38-1.32.42-1.44,1.33-4.52l.46.08-.23,6a.379.379,0,0,1,0,.15c0,.76.07.92.61,1.14A1.79,1.79,0,0,1,434,55.79c0,1.29-.95,2-2.89,2.09-1.71.15-4.26.23-6.08.23a8.832,8.832,0,0,1-3.72-.5,2.271,2.271,0,0,1-1-2.16L420.42,45l-5.28.08c-.87,4.14-2.39,6.83-5.2,9.19a19.01,19.01,0,0,1-6.42,3.46c-1.14.34-1.71.49-4.52,1.18l-.16-.35c7.45-3.34,10.64-6.91,12.05-13.41l-6.8.08a19.263,19.263,0,0,0-2.17.22l-.38-1.29a14.775,14.775,0,0,0,2.51.23h.19Zm3-14.44a12.774,12.774,0,0,1-.91,4c-1.75,4.44-6.54,7.33-13.64,8.2l-.19-.41c4.26-1.49,6.46-2.93,8.32-5.4a10.6,10.6,0,0,0,2.17-6.38h-5.2v.64a8,8,0,0,1-.65,3.54,3.65,3.65,0,0,1-3,2.24c-1.14,0-2-1.1-2-2.66a1.69,1.69,0,0,1,1.21-1.86c2.13-1.07,2.93-2.21,3.5-5.06h.42a13.011,13.011,0,0,1,.41,2.36h9.24V26.65a16.863,16.863,0,0,0-.16-2.47c4.79.46,5.13.49,5.59.65s.57.26.57.45c0,.38-.53.69-1.6,1v2.81h8.36c.95-1,1.26-1.33,2.28-2.32,1.79,1.37,2.32,1.83,4.07,3.31.34.34.45.45.45.64,0,.38-.45.61-1.25.61a12.814,12.814,0,0,1-1.45-.07c-1.86,1.14-3.95,2.35-5.12,2.92l-.35-.19a30.007,30.007,0,0,0,1.68-4.1h-5.3v5.76c0,.6.19.72,1.21.79h3.38c1.75,0,2.36-.15,2.78-.68a22.551,22.551,0,0,0,1.78-3.57h.38l-.15,2.59v.26c0,.72,0,.72,1,1.14a1.24,1.24,0,0,1,.91,1.22c0,1.14-.72,1.71-2.58,1.94-.54.07-3.65.19-4.72.19H425c-.45,0-1.71,0-3.61-.08-2.92,0-3.76-.61-3.76-2.43V29.84Z"/><path class="cls-1" d="M457.22,34.58a50.719,50.719,0,0,1-5.47,6c4.37-.08,5.13-.08,13-.57a29.472,29.472,0,0,0-4.1-4l.19-.27a36.548,36.548,0,0,1,6.76,2.47c2.32,1.22,3.19,2.25,3.19,3.73s-.87,3.11-1.82,3.11c-.46,0-.8-.34-1.6-1.67a20.066,20.066,0,0,0-1.82-2.47c-5.43,1.26-5.43,1.26-7.83,1.67-2.85.5-9,1.41-11.89,1.75-.15,1.06-.38,1.52-.8,1.52s-.83-1-1.74-5.51a55.753,55.753,0,0,0,6.64.23,32.782,32.782,0,0,0,2.06-6h-3.46a13.567,13.567,0,0,0-2.51.27l-.3-1.33a15.669,15.669,0,0,0,2.81.26h15.65c1-1.18,1.37-1.52,2.43-2.62l1.18.84a15.761,15.761,0,0,0,.53-2.59H445.64a9.668,9.668,0,0,1-.72,4.33,3.309,3.309,0,0,1-2.7,2.17,2.489,2.489,0,0,1-2.24-2.66,1.578,1.578,0,0,1,.57-1.37c.15-.11.15-.11,1.06-.68a6.561,6.561,0,0,0,2.36-2.28,7.859,7.859,0,0,0,.72-2.74h.46a8,8,0,0,1,.49,2.48h9.16V26.53a20.235,20.235,0,0,0-.16-2.88c5.16.35,6.19.54,6.19,1.07,0,.38-.53.68-1.79,1v2.93h9c.91-1,1.22-1.29,2.16-2.28,1.9,1.3,2.48,1.71,4.26,3.08.31.27.42.42.42.65a.529.529,0,0,1-.31.42,3.709,3.709,0,0,1-1,.19H472.2c-.45.27-.91.5-1.14.61-1.78.95-1.82.95-2.39,1.25l2,1.52c.15.08.23.19.23.27a.25.25,0,0,1-.23.19Zm7.71,14.59c1.45-1.56,1.45-1.56,2.78-3,1.82,1.32,2.39,1.74,4.25,3.26.11.12.15.19.15.27a.332.332,0,0,1-.3.23H459.04v6.72h8.48c1.25-1.4,1.63-1.82,2.92-3.15,1.82,1.33,2.43,1.79,4.41,3.38.15.15.26.27.26.38s-.11.19-.26.19H443.73a21.322,21.322,0,0,0-3.11.27l-.31-1.37a19.025,19.025,0,0,0,3.46.3h11.05V49.97h-8.28a15.748,15.748,0,0,0-2.81.22l-.3-1.29a20.255,20.255,0,0,0,3.11.27h8.28v-1.6a32.662,32.662,0,0,0-.18-3.83c1.14.11,2.12.22,2.66.3,2.81.27,3.3.38,3.3.8s-.23.49-1.56.95v3.38Z"/><path class="cls-1" d="M18.14,135.53a20.545,20.545,0,0,0-.15,2.67,38.971,38.971,0,0,0,.66,6.51,24.639,24.639,0,0,0,8.31,13.14,22.043,22.043,0,0,0,3.48,2.34,6.83,6.83,0,0,0-1.56,1.89,27.472,27.472,0,0,1-7.95-7.68,25.883,25.883,0,0,1-3.9-9.54,25.43,25.43,0,0,1-2.07,6.69,20.184,20.184,0,0,1-4.32,6.15,25.537,25.537,0,0,1-5.52,4.38,5.724,5.724,0,0,0-1.62-1.77,21.194,21.194,0,0,0,6.14-4.53c4.17-4.47,6.21-10.23,6.21-17.61a20.423,20.423,0,0,0-.12-2.64Z"/><path class="cls-1" d="M38.39,158.87a21.693,21.693,0,0,0,.18,3.36H36.35a22.464,22.464,0,0,0,.18-3.36V139.49a25.934,25.934,0,0,0-.12-3.3,27.61,27.61,0,0,0,3.15.12h4.29a26.5,26.5,0,0,0,3.06-.12c-.06.84-.09,1.74-.09,2.85v3.72a24.894,24.894,0,0,0,.09,2.79c-.81-.06-1.83-.09-3-.09H38.39Zm0-18.69h6.72v-2.4H38.39Zm0,3.84h6.72v-2.43H38.39Zm15.75,11.37a23.758,23.758,0,0,0,.09,2.73c-.84-.06-1.83-.09-3.06-.09H44.64v2.1h-1.9a18.466,18.466,0,0,0,.15-2.82v-6.66a26.9,26.9,0,0,0-.09-2.82,26.833,26.833,0,0,0,3,.12h5.49a26.833,26.833,0,0,0,3-.12c-.06.84-.09,1.62-.09,2.82Zm-9.5-3.27h7.83v-2.67H44.64Zm0,4.41h7.83v-2.88H44.64Zm16,2.79c0,2-.63,2.49-3.06,2.49-.63,0-2.25-.06-3-.12a6.561,6.561,0,0,0-.55-1.92,32.766,32.766,0,0,0,3.31.3c1.23,0,1.47-.15,1.47-.87V145.46H52.7a28.386,28.386,0,0,0-3,.09c.06-.78.09-1.68.09-2.79v-3.72c0-1,0-1.95-.09-2.85a26.059,26.059,0,0,0,3.06.12h5a27.435,27.435,0,0,0,3.14-.12,31.075,31.075,0,0,0-.14,3.3Zm-9.21-19.14h7.38v-2.4H51.47Zm0,3.84h7.38v-2.43H51.47Z"/><path class="cls-1" d="M78.94,152.12c-1.74,4-3.51,5.76-5.67,5.76-2.85,0-5-3.12-5-7.32a12.179,12.179,0,0,1,12.072-12.287q.384,0,.768.017a11.611,11.611,0,0,1,8.25,3,10,10,0,0,1,2.91,7.32,10.921,10.921,0,0,1-6.87,10.35,23.212,23.212,0,0,1-4.56,1.38,4.766,4.766,0,0,0-1-2,18.022,18.022,0,0,0,5-1.41,9.058,9.058,0,0,0,5.31-8.4A7.91,7.91,0,0,0,85.38,141a8.622,8.622,0,0,0-3.48-.75A45.02,45.02,0,0,1,78.94,152.12Zm-3.69-10.47a10.367,10.367,0,0,0-4.89,8.94c0,2.88,1.26,5.1,2.88,5.1,1.26,0,2.46-1.41,3.75-4.35a41.217,41.217,0,0,0,2.73-11.1A9.469,9.469,0,0,0,75.25,141.65Z"/><path class="cls-1" d="M98.01,156.41a19.14,19.14,0,0,0,2.31-5,32.845,32.845,0,0,0,1.56-6.93l2,.54a45.638,45.638,0,0,1-1.71,7.26,24.088,24.088,0,0,1-2.25,5.28Zm10.53,1.92c0,.93.69,1.11,4.17,1.11a13.894,13.894,0,0,0,3.84-.36c.6-.18.9-.66,1.11-1.74a28.69,28.69,0,0,0,.42-5,8.161,8.161,0,0,0,2,.78c-.3,3.72-.57,5.37-1.14,6.48-.72,1.41-1.8,1.68-6.45,1.68-5.16,0-6-.36-6-2.58V144.38a20.284,20.284,0,0,0-.21-2.85h2.43a16.339,16.339,0,0,0-.21,2.82Zm7.77-16.74a38.62,38.62,0,0,0-9.72-4.83l1.17-1.65a46.6,46.6,0,0,1,9.9,4.71Zm7.77,15.15a45.507,45.507,0,0,0-2.22-6.27,34.683,34.683,0,0,0-2.76-5.31l1.77-.93a49.636,49.636,0,0,1,5.16,11.4Z"/><path class="cls-1" d="M132.39,138.53a12.987,12.987,0,0,0-2.38.15v-2a11.569,11.569,0,0,0,2.52.18h4.56a11.239,11.239,0,0,0,2.47-.18v2a18.351,18.351,0,0,0-2.32-.12h-1.47v7h1.21a10.308,10.308,0,0,0,2-.15v1.89a14.532,14.532,0,0,0-2-.12h-1.21v7.62c1.47-.63,2-.87,3.51-1.65l.12,1.89a81.584,81.584,0,0,1-7.76,3.41,11.262,11.262,0,0,0-1.21.51l-.59-2.1a30.432,30.432,0,0,0,4.14-1.29V147.2h-1.59a10,10,0,0,0-2,.15v-1.92a9.717,9.717,0,0,0,2,.15h1.56v-7Zm11.72,11.43a35.337,35.337,0,0,0-3.71.12,9.736,9.736,0,0,0,.05-1.08c0-.78,0-.78.06-2.37v-6.39a36.712,36.712,0,0,0-.15-3.81,29.234,29.234,0,0,0,3.88.15h7.88a27.361,27.361,0,0,0,3.84-.15c-.09.84-.12,2-.12,3.78v6a36.725,36.725,0,0,0,.12,3.84c-1.08-.09-1.89-.12-3.6-.12h-3.42v3.45h4.44a18.289,18.289,0,0,0,2.94-.15v2a19.265,19.265,0,0,0-2.94-.15h-4.44v4.41h5.58a18.522,18.522,0,0,0,2.94-.15v2a19.794,19.794,0,0,0-3-.15H141.05a19.289,19.289,0,0,0-3,.15v-2a17.078,17.078,0,0,0,2.85.15h6.24v-4.41h-4a17.553,17.553,0,0,0-2.88.15v-2a16.808,16.808,0,0,0,2.88.15h4v-3.45Zm-1.79-11.73v4.26h4.85v-4.26Zm0,5.85v4.23h4.85v-4.23Zm6.62-1.59h5.07v-4.26h-5.07Zm0,5.82h5.07v-4.23h-5.07Z"/><path class="cls-1" d="M168.38,137.18a12.08,12.08,0,0,0,.57,1.83c.6,1.77.9,2.61,1.32,4a53.327,53.327,0,0,1,6.45-1.68,41.641,41.641,0,0,0-.12-5.31h2.25a28.424,28.424,0,0,0-.15,4v1a15.136,15.136,0,0,1,2.25-.18c4,0,6.6,2.16,6.6,5.52,0,3.6-2.94,6.18-7.05,6.18a12.7,12.7,0,0,1-5.07-1.11,4.422,4.422,0,0,0,0-.54,13.273,13.273,0,0,0-.18-1.71,10.2,10.2,0,0,0,5,1.38,6.081,6.081,0,0,0,3.6-1.17,3.639,3.639,0,0,0,1.44-3.06c0-2.28-1.77-3.63-4.8-3.63-2.19,0-5.43.72-9.78,2.13,1.53,5.1,2.61,9.33,3.87,15a9.488,9.488,0,0,0,.39,1.29l-2.33.53c-.15-2.46-1.83-9.69-3.78-16.2a13.038,13.038,0,0,1-1.62.54,28.622,28.622,0,0,0-4.11,1.65l-.78-2.13a32.928,32.928,0,0,0,4.41-1.41c.75-.27,1-.33,1.53-.48a30.156,30.156,0,0,0-2.16-5.7Z"/><path class="cls-1" d="M197.95,151.91c0-1.29,0-2.16.09-3.6a17.3,17.3,0,0,1-3.4,3.34,5.729,5.729,0,0,0-1.17-1.71,24.587,24.587,0,0,0,6.06-5.91,10.32,10.32,0,0,0,1.44-2.58l1.86,1a12.771,12.771,0,0,0-.9,1.29,20.29,20.29,0,0,1-2,2.7v12.21a22.509,22.509,0,0,0,.21,3.66h-2.4a22.736,22.736,0,0,0,.21-3.66Zm4.14-15.63a4.952,4.952,0,0,0-.54.66,29.265,29.265,0,0,1-6.66,6.51,5.8,5.8,0,0,0-1.35-1.47,20.6,20.6,0,0,0,4-3.18,11.718,11.718,0,0,0,2.73-3.66Zm4.35,10a23.163,23.163,0,0,0-3.33.18v-2.1a22.879,22.879,0,0,0,3.33.18h10.53a21.171,21.171,0,0,0,3.3-.18v2.1a22.909,22.909,0,0,0-3.27-.18h-1.71v13.14c0,1.92-.72,2.43-3.36,2.43-1,0-2.37-.06-3.66-.15a7.229,7.229,0,0,0-.48-2.07,30.116,30.116,0,0,0,4.23.36c1,0,1.26-.12,1.26-.72v-13Zm-2.1-9.45a21.27,21.27,0,0,0,3.12.18h8.4a21,21,0,0,0,3.09-.18v2.1a23.128,23.128,0,0,0-3.09-.18h-8.4a23.578,23.578,0,0,0-3.12.18Z"/><path class="cls-1" d="M231.9,138.5c-2.16.3-3.27.39-5.55.57a4.061,4.061,0,0,0-.75-1.59c4.83-.09,10.47-1.05,12.51-2.07l1.32,1.53c-.42.09-.42.09-1.5.36a40.757,40.757,0,0,1-4.29.93v2.42h3.6a13.718,13.718,0,0,0,2.64-.15v1.8a13.2,13.2,0,0,0-2.4-.12h-3.84v1.86h3.12a21.758,21.758,0,0,0,2.64-.09,15.954,15.954,0,0,0-.12,2.64v3.48a20.246,20.246,0,0,0,.12,2.85c-.72-.06-1.5-.09-2.76-.09h-3v2h3a18.046,18.046,0,0,0,2.73-.12v1.8a14.983,14.983,0,0,0-2.46-.12h-3.27v2.16c1.92-.24,2.94-.39,5.58-.84v1.59c-4.2.72-7.2,1.11-12.3,1.62a13.769,13.769,0,0,0-1.59.24l-.39-2.07c.48,0,1,.06,1.26.06.93,0,2.64-.12,5.7-.42v-2.38h-3.33a25.939,25.939,0,0,0-2.73.15v-1.85a16.538,16.538,0,0,0,2.76.15h3.3v-2h-2.85a23.71,23.71,0,0,0-2.79.09c.06-.66.09-1.32.09-2.82v-3.51a20.061,20.061,0,0,0-.09-2.64c.78.06,1.59.09,2.85.09h2.79v-1.86h-4.08a16.467,16.467,0,0,0-2.7.15v-1.86a16.97,16.97,0,0,0,2.73.18h4.05Zm-3.84,6.93v2.22h3.84v-2.19Zm0,3.57v2.34h3.84V149Zm5.58-1.35h4v-2.19h-4Zm0,3.72h4v-2.34h-4Zm15-9.33a22.044,22.044,0,0,0,2.67-.12c-.06.66-.09,1.26-.15,3.15-.21,9.06-.6,13.29-1.41,15.24-.42,1.08-1.23,1.47-2.88,1.47a29.666,29.666,0,0,1-3.18-.24,8.027,8.027,0,0,0-.33-2,16.612,16.612,0,0,0,3.24.42c1.11,0,1.44-.21,1.65-1.11.66-2.58,1.08-8.31,1.08-15.06h-3.69a45.032,45.032,0,0,1-1.23,9.63,20.759,20.759,0,0,1-4.71,8.82,6.7,6.7,0,0,0-1.71-1.29,15.517,15.517,0,0,0,3.48-4.86c1.38-2.94,2-6.48,2.31-12.3H243a18.33,18.33,0,0,0-2.79.15v-2a15.684,15.684,0,0,0,2.67.15h1v-3a16.739,16.739,0,0,0-.18-3.45h2.22a9,9,0,0,0-.18,2.28c0,2.13,0,3.15-.06,4.17Z"/><path class="cls-1" d="M268.8,152.12c-1.74,4-3.51,5.76-5.67,5.76-2.85,0-5-3.12-5-7.32A12.179,12.179,0,0,1,270.2,138.273q.384,0,.768.017a11.611,11.611,0,0,1,8.25,3,10,10,0,0,1,2.91,7.32,10.921,10.921,0,0,1-6.87,10.35,23.212,23.212,0,0,1-4.56,1.38,4.774,4.774,0,0,0-1.05-2,18.022,18.022,0,0,0,5-1.41,9.058,9.058,0,0,0,5.31-8.4,7.92,7.92,0,0,0-4.77-7.53,8.622,8.622,0,0,0-3.48-.75A45.02,45.02,0,0,1,268.8,152.12Zm-3.69-10.47a10.369,10.369,0,0,0-4.89,8.94c0,2.88,1.26,5.1,2.88,5.1,1.26,0,2.46-1.41,3.75-4.35a41.217,41.217,0,0,0,2.73-11.1A9.469,9.469,0,0,0,265.11,141.65Z"/><path class="cls-1" d="M290.9,143.21a21.521,21.521,0,0,1-1.32,4.53,7.865,7.865,0,0,0-1.65-.84,19.121,19.121,0,0,0,1.47-4.86,20.974,20.974,0,0,0,.42-3.78v-.81l1.92.3c-.06.36-.06.45-.12,1-.06.75-.18,1.59-.36,2.82h2.13v-4a12.676,12.676,0,0,0-.21-2.49h2.25a12.234,12.234,0,0,0-.21,2.49v4h.66a15.2,15.2,0,0,0,2.61-.18v2a21.306,21.306,0,0,0-2.55-.15h-.72v5.91c1.23-.57,1.74-.81,3.15-1.56v1.8l-.12.06a17.216,17.216,0,0,0,2.76.15h8.7v-3.48h-8.7a20.6,20.6,0,0,0-3.06.18v-2a20.073,20.073,0,0,0,3.06.18h4.23v-4h-3.3a25.133,25.133,0,0,0-2.85.15v-2a17.881,17.881,0,0,0,2.85.18h3.3v-1.23a15.088,15.088,0,0,0-.18-2.43h2.19a14.645,14.645,0,0,0-.18,2.43v1.23h4.14a17.881,17.881,0,0,0,2.85-.18v2a25.592,25.592,0,0,0-2.85-.15h-4.14v4h5.16a20.6,20.6,0,0,0,3.06-.18v2a20.61,20.61,0,0,0-3-.18h-.75v3.48h.78a18.163,18.163,0,0,0,2.91-.18v2a20.515,20.515,0,0,0-2.91-.18h-.78v8.52c0,1.68-.72,2.19-3.12,2.19-.84,0-1.92-.06-3.06-.12a6.147,6.147,0,0,0-.45-2,21.98,21.98,0,0,0,3.45.39c1.11,0,1.32-.12,1.32-.81v-8.16h-8.82a20.524,20.524,0,0,0-2.91.18v-1.86c-1.2.66-1.35.75-2.79,1.44v8.28a21.273,21.273,0,0,0,.21,3.15h-2.25a18.249,18.249,0,0,0,.21-3.15v-7.44l-1.11.45c-.75.3-1.41.57-1.89.78-.18.06-.18.06-.75.3-.245.1-.486.208-.72.33l-.66-2.1a25.5,25.5,0,0,0,5.13-1.68v-6.72Zm10.59,9.15a31.73,31.73,0,0,1,4.29,4.89l-1.59,1.17a25.012,25.012,0,0,0-4.17-5Z"/><path class="cls-1" d="M319.51,148.76a26.083,26.083,0,0,0,1.47-7.86l1.59.27a33.036,33.036,0,0,1-1.5,8.22Zm3.87,13.68a24.88,24.88,0,0,0,.21-3.45V138.08a19.81,19.81,0,0,0-.21-3h2.34a19.064,19.064,0,0,0-.21,3v21a22.074,22.074,0,0,0,.21,3.33Zm4.17-17.07a15.456,15.456,0,0,0-1.26-4.62l1.38-.54a23.953,23.953,0,0,1,1.38,4.59Zm4.5-1.92a22.537,22.537,0,0,1-2.7,5.61,11.7,11.7,0,0,0-1.68-.93,20.762,20.762,0,0,0,3.57-8.55,13.947,13.947,0,0,0,.27-2.34l2.07.42a11.536,11.536,0,0,0-.48,2c-.15.75-.3,1.29-.51,2.1h3.87v-3.6a19.555,19.555,0,0,0-.21-3h2.31a18.712,18.712,0,0,0-.21,3v3.6H343a18.149,18.149,0,0,0,3.09-.18v2.07a26.973,26.973,0,0,0-3.06-.18h-4.68v6.18h4.08a19.8,19.8,0,0,0,3-.18v2a21.151,21.151,0,0,0-3.06-.18h-4.05v7.89h5.1a23.828,23.828,0,0,0,3.27-.18v2.13a21.674,21.674,0,0,0-3.27-.21h-12.3a21.674,21.674,0,0,0-3.27.21V159a23.828,23.828,0,0,0,3.27.18h5.34v-7.89h-3.3a21.439,21.439,0,0,0-3.06.18v-2a18.637,18.637,0,0,0,2.91.18h3.45v-6.2Z"/><path class="cls-1" d="M355.64,138.29a17.026,17.026,0,0,0-.21-3h2.32a16.558,16.558,0,0,0-.22,3v2.88h1.11a9,9,0,0,0,2-.15v2a13.376,13.376,0,0,0-2-.12h-1.08v5.88a30.666,30.666,0,0,0,3.31-1.5v1.83c-1.36.66-1.78.87-3.31,1.53v9.27c0,1.71-.69,2.1-3.62,2.1h-1.53a5.565,5.565,0,0,0-.39-1.89,20.72,20.72,0,0,0,2.36.18c1.08,0,1.29-.12,1.29-.81v-8c-.84.33-1.26.48-1.86.69s-1.26.48-1.68.66l-.59-2a16.644,16.644,0,0,0,4.1-1.39v-6.6h-1.76a20.159,20.159,0,0,0-2.25.15v-2a13.6,13.6,0,0,0,2.28.18h1.73Zm6.15,1.29a21.449,21.449,0,0,0-.09-2.73,24.064,24.064,0,0,0,2.79.12h10.29a22.8,22.8,0,0,0,2.79-.12,17.54,17.54,0,0,0-.15,2.7v7.17a25.538,25.538,0,0,0,.15,2.82,23.628,23.628,0,0,0-2.79-.12H363.64v8.91c0,.81.19,1.08.9,1.26a32.324,32.324,0,0,0,5.25.24c3.93,0,5.4-.21,6-.87s.75-2.07.87-5.1a6.355,6.355,0,0,0,2,.78c-.36,4-.72,5.25-1.62,6s-3,1-7.41,1c-6.81,0-7.83-.36-7.83-2.76Zm1.85-.93v9h5v-9Zm6.84,9h5.07v-9h-5.07Z"/><path class="cls-1" d="M385.41,142.94a14.59,14.59,0,0,0-2.13.15v-2a11.16,11.16,0,0,0,2.16.15h1.26v-2.82a17.217,17.217,0,0,0-.18-3.06h2.22a19.3,19.3,0,0,0-.18,3v2.85h.78a9.539,9.539,0,0,0,1.77-.12v1.92a10.084,10.084,0,0,0-1.77-.12h-.78v6.21c1.08-.45,1.53-.66,2.94-1.35v1.77c-1.26.63-1.62.78-3,1.35v9c0,1.65-.6,2.13-2.64,2.13q-.9,0-2.16-.09a5.007,5.007,0,0,0-.39-1.83,16.751,16.751,0,0,0,2.55.21c.6,0,.78-.15.78-.66v-8l-1.89.66c-.54.21-1,.39-1.44.6l-.42-2a16.018,16.018,0,0,0,3.75-1v-6.93Zm15.23,3.71a23.927,23.927,0,0,1-1.92,3.66c2.52-.09,5.28-.3,7-.51-.63-.66-1-1-1.95-1.89l1.35-.75a37.243,37.243,0,0,1,4.65,5l-1.53.93a21.39,21.39,0,0,0-1.38-2c-2,.27-2.58.33-4.65.51v3.06h3.84a15.138,15.138,0,0,0,2.64-.15v1.89a17.927,17.927,0,0,0-2.64-.15h-3.84v3.39h5.16a17.276,17.276,0,0,0,2.82-.18v2a22.725,22.725,0,0,0-2.88-.18H395.43a25,25,0,0,0-2.79.15v-1.92a13,13,0,0,0,2.43.15h5.34v-3.39h-3.27a16.188,16.188,0,0,0-2.46.15v-1.89a13.683,13.683,0,0,0,2.46.15h3.27v-2.94l-3.12.18c-1.44.09-1.71.09-2.67.21l-.18-1.83a14.846,14.846,0,0,0,2.16.09h.3a17.724,17.724,0,0,0,1.92-3.75h-4.8c-.18,7.35-1.08,11.28-3.39,15a5.071,5.071,0,0,0-1.59-1.2,15.517,15.517,0,0,0,2.34-5.46c.72-3,.93-6.51.93-14.79a37.691,37.691,0,0,0-.09-3.87,29.514,29.514,0,0,0,3.09.12h11.1a25.117,25.117,0,0,0,2.85-.12c-.06.69-.09,1.23-.09,2.13v2.19a15.057,15.057,0,0,0,.09,2.13q-1.08-.09-2.52-.09H394.08v2.34h13.26a14.425,14.425,0,0,0,2.61-.15v1.89a16.089,16.089,0,0,0-2.52-.15Zm6.75-5.46v-3.12H394.14v3.12Z"/><path class="cls-1" d="M421.52,137.06a42.5,42.5,0,0,0-1.26,4.8,44.326,44.326,0,0,0-.9,9.39c0,2.34.06,4.11.18,5.7a27.872,27.872,0,0,1,2-5.85l1.44.69c-1.35,3-2.43,6.57-2.43,8.25v.45l-2.16.18c-.06-.48-.09-.63-.18-1.2a42.96,42.96,0,0,1-.78-8.49,49.654,49.654,0,0,1,1.35-11.88,16.693,16.693,0,0,0,.42-2.4Zm7.65,12.06c-1.5,1.65-2.25,3.09-2.25,4.41,0,2.22,1.89,3.3,5.76,3.3a19.734,19.734,0,0,0,6.9-1l.3,2.31a6.172,6.172,0,0,0-1.05.15,31.048,31.048,0,0,1-6.15.6c-3.42,0-5.58-.72-6.87-2.28a4.244,4.244,0,0,1-.9-2.76c0-1.83.75-3.45,2.61-5.58Zm-3.81-8.88a20.368,20.368,0,0,0,5.1.45,32.224,32.224,0,0,0,8-.81l.15,2.13-2.07.27a50.762,50.762,0,0,1-6.45.39,40.114,40.114,0,0,1-4.8-.3Z"/><path class="cls-1" d="M452.77,137.9a13.739,13.739,0,0,0-.18-2.61h2.16a21.082,21.082,0,0,0-.15,2.61v.18h10.56v-.18a14,14,0,0,0-.18-2.61h2.16a16.273,16.273,0,0,0-.15,2.61v.18h2.76a20.2,20.2,0,0,0,3-.18v2c-1-.09-1.89-.15-3-.15h-2.76v9.63h3.3a21.744,21.744,0,0,0,3.06-.18v2a21.5,21.5,0,0,0-3-.18h-4.53c2.07,2,4.5,3.18,8.37,4.14a7.994,7.994,0,0,0-1,1.83c-4.5-1.5-7-3.09-9.6-6h-7.41c-2.28,2.85-4.89,4.56-9.24,6.09a5.165,5.165,0,0,0-1.05-1.8c3.57-.84,6.39-2.34,8.07-4.29h-4.38a20.9,20.9,0,0,0-3,.18v-2a20.064,20.064,0,0,0,3,.18h3.27v-9.63H450.6a29.44,29.44,0,0,0-3,.15v-2a19.8,19.8,0,0,0,3,.18h2.25Zm6,16.47a16.32,16.32,0,0,0-.15-2.4h2.07a12.85,12.85,0,0,0-.15,2.4v.28h4.29a19.955,19.955,0,0,0,2.61-.12v1.86a20.309,20.309,0,0,0-2.61-.12h-4.29v3.33h8.22a20.99,20.99,0,0,0,3.15-.15v2a24.6,24.6,0,0,0-3.21-.18H451.48a25.164,25.164,0,0,0-3.27.18v-2a24.946,24.946,0,0,0,3.21.15h7.38v-3.33h-3.69a21.067,21.067,0,0,0-2.61.12v-1.86a19.955,19.955,0,0,0,2.61.12h3.69Zm6.36-12.51V139.7H454.64v2.16Zm0,3.69v-2.13H454.64v2.13Zm0,3.78v-2.22H454.64v2.22Z"/><path class="cls-1" d="M478.96,143.03a6.646,6.646,0,0,0,1.14-.12l1.41-.3c.21-.06,1.44-.33,3.69-.84a40.113,40.113,0,0,1,8.7-1.11c5.49,0,9,2.91,9,7.5,0,3.75-2.22,6.9-6.24,8.85-2.76,1.32-5.28,1.92-9.93,2.31a5.651,5.651,0,0,0-.93-2.25,26,26,0,0,0,8.34-1.38c4.11-1.5,6.42-4.2,6.42-7.56s-2.49-5.4-6.57-5.4a47.672,47.672,0,0,0-12.24,2.13,13.16,13.16,0,0,0-2.16.72Zm21-7.26a22.3,22.3,0,0,1,3.08,4.65l-1.52.9a23.377,23.377,0,0,0-3.06-4.77Zm3.36-1.62a22.926,22.926,0,0,1,3.12,4.65l-1.5.87a23.8,23.8,0,0,0-3.07-4.71Z"/><path class="cls-1" d="M514.86,138.86a21.746,21.746,0,0,0-.21,3.57,51.374,51.374,0,0,0,.78,9.33c.66,3.06,1.89,5.13,3,5.13.54,0,1-.51,1.5-1.5a21.6,21.6,0,0,0,1.56-5.13,9.588,9.588,0,0,0,1.77,1.71c-1.47,5.25-2.85,7.26-5,7.26-1.68,0-3.24-1.68-4.26-4.56s-1.47-6.69-1.62-14.07a16.354,16.354,0,0,0-.09-1.77Zm14.49,1.59a26.022,26.022,0,0,1,4.29,6.84,28.721,28.721,0,0,1,2.25,8l-2.13.87a26.5,26.5,0,0,0-6.24-14.79Z"/><path class="cls-1" d="M543.23,141.26a20.652,20.652,0,0,0,3.75.27c.6,0,.93,0,1.8-.06a29.373,29.373,0,0,0,.66-5.52l2.37.24a28.394,28.394,0,0,0-.54,2.85c-.15,1-.24,1.38-.39,2.28a24.72,24.72,0,0,0,5.4-1l.15,2.07a2.574,2.574,0,0,0-.84.15,43.75,43.75,0,0,1-5.07.72c-.45,2.37-1.29,5.76-2.1,8.49a79.015,79.015,0,0,1-3.45,9.15l-2.19-.93c2.22-3.87,4.53-10.71,5.64-16.59h-2.07c-1.07,0-1.32,0-2.49-.06h-.12a4.339,4.339,0,0,0-.51,0Zm13.41,10.89a10.086,10.086,0,0,0-.9,1.14,3.615,3.615,0,0,0-.75,2.13c0,1.8,1.83,2.76,5.25,2.76a22.276,22.276,0,0,0,6.63-1l.21,2.25-1.32.21a29.988,29.988,0,0,1-5.34.51c-4.92,0-7.47-1.53-7.47-4.5,0-1.35.42-2.28,2-4.32Zm9.27-5.19a30.134,30.134,0,0,0-3.54-.21,26.087,26.087,0,0,0-7.5,1l-.21-2a34.032,34.032,0,0,1,8-1c.57,0,1,0,3.27.09Z"/><path class="cls-1" d="M573.64,154.13a30.583,30.583,0,0,1,6,6.36l-1.68,1.59a29.952,29.952,0,0,0-5.91-6.54Z"/><path class="cls-1" d="M607.97,152.18a17.2,17.2,0,0,0-3.27.18v-2a17.369,17.369,0,0,0,3.27.18H624.8a17.369,17.369,0,0,0,3.27-.18v2a18.631,18.631,0,0,0-3.27-.18h-7.71v2.73h5.94a15.974,15.974,0,0,0,3.12-.18v1.92a22.9,22.9,0,0,0-3.12-.15h-5.94v3.15h9.18a23.013,23.013,0,0,0,3.33-.15v2a30.121,30.121,0,0,0-3.45-.18H606.53a30.478,30.478,0,0,0-3.39.18v-2a22.757,22.757,0,0,0,3.27.15h8.79V156.5h-5.37a23.946,23.946,0,0,0-3.19.15v-1.92a16.754,16.754,0,0,0,3.18.18h5.37v-2.73Zm5.76-14.07a15.189,15.189,0,0,0,2.61-.15v1.92a15.817,15.817,0,0,0-2.61-.15h-6.39v5.25c0,.78.51.93,3.21.93a25.982,25.982,0,0,0,4.5-.33v1.83a47.971,47.971,0,0,1-5,.21c-3.6,0-4.56-.45-4.56-2.13v-5.76a11.755,11.755,0,0,0-2.31.15v-1.92a15.538,15.538,0,0,0,2.64.15h3.21v-.6a14.823,14.823,0,0,0-.15-2.4h2.19a11.632,11.632,0,0,0-.18,2.4v.6Zm5.1,7a12.107,12.107,0,0,1-3.06,4.92,4.618,4.618,0,0,0-1.59-1.14,10.189,10.189,0,0,0,3.18-4.92,19.848,19.848,0,0,0,.93-6.42,7.543,7.543,0,0,0-.12-1.5c.66.06,1.68.12,2.91.12h5.28a25.049,25.049,0,0,0,3-.12,13.549,13.549,0,0,0-.12,1.8,70.138,70.138,0,0,1-.81,8.13c-.33,1.68-.75,2.61-1.44,3a3.794,3.794,0,0,1-2.22.39,19.3,19.3,0,0,1-2.46-.12,4.887,4.887,0,0,0-.48-1.8,17.354,17.354,0,0,0,3,.3c.75,0,1.11-.09,1.32-.36a5.938,5.938,0,0,0,.69-2.31Zm.9-3.57a14.461,14.461,0,0,1-.45,2.16h7.71c.12-.93.15-1.17.24-2.16Zm7.74-3.75h-7.41c-.06,1.2-.06,1.62-.15,2.31h7.41Z"/><path class="cls-1" d="M658.09,159.8a24.158,24.158,0,0,0-6.12-4.29c-.51-.27-1.2-.57-2-.9a8.469,8.469,0,0,1,.06,1.08,5.136,5.136,0,0,1-.75,3.27c-.87,1.23-2.7,1.89-5.07,1.89a7.785,7.785,0,0,1-4.64-1.2,3.908,3.908,0,0,1-1.63-3.15c0-2,1.56-3.54,4.21-4.14a12.953,12.953,0,0,1,3.11-.3,13.367,13.367,0,0,1,2.7.24v-.69c0-.18,0-.9-.07-1.77,0-.39,0-1-.06-1.74-1.08,0-2.58.06-3.53.06-1.81,0-3.22-.06-5.08-.21h-.99v-2a36.927,36.927,0,0,0,6.87.48h2.67l-.06-4.11h-2c-2.2,0-4.63-.09-7.33-.3a3.743,3.743,0,0,0-.54,0,2.677,2.677,0,0,0-.42,0v-2a37.14,37.14,0,0,0,7.67.6h2.61c0-3.66,0-3.66-.15-4.32h2.31a33.58,33.58,0,0,0-.21,4.23,42.307,42.307,0,0,0,8.88-1.23l.15,2a10.522,10.522,0,0,0-2.07.24,62.249,62.249,0,0,1-7,.72c0,2.46,0,2.46.06,4a36.2,36.2,0,0,0,8.31-1.23l.12,2.07a13.46,13.46,0,0,0-1.74.21c-2.07.33-4.44.57-6.66.72.06,1.68.06,1.68.18,4.59a26.254,26.254,0,0,1,8.37,4.38,10.087,10.087,0,0,0,1,.69Zm-10.14-5.67a10.95,10.95,0,0,0-3-.33c-3,0-4.92,1.08-4.92,2.67s1.5,2.49,4.1,2.49c1.59,0,2.74-.33,3.3-1,.42-.42.61-1.26.61-2.7Z"/><path class="cls-1" d="M674.26,136.7a46.206,46.206,0,0,0-.39,6.33c-.12,3.6-.21,7.68-.21,9,0,.36,0,1.11.06,1.8a4.717,4.717,0,0,0,1.41,3.6,5.661,5.661,0,0,0,3.75,1.17,8.619,8.619,0,0,0,8-5.22,17.805,17.805,0,0,0,1.47-4.71,8.469,8.469,0,0,0,2.16,1.44c-1.14,3.51-2,5.28-3.33,6.81a10.5,10.5,0,0,1-8.46,3.75c-2.55,0-4.44-.72-5.64-2.1s-1.65-3-1.65-6.15c0-2,0-2.76.27-12.21v-2a9.2,9.2,0,0,0-.12-1.59Z"/><path class="cls-1" d="M702.93,138.86a21.746,21.746,0,0,0-.21,3.57,51.374,51.374,0,0,0,.78,9.33c.66,3.06,1.89,5.13,3,5.13.54,0,1.05-.51,1.5-1.5a21.6,21.6,0,0,0,1.56-5.13,9.588,9.588,0,0,0,1.77,1.71c-1.47,5.25-2.85,7.26-5,7.26-1.68,0-3.24-1.68-4.26-4.56s-1.43-6.69-1.57-14.02a16.354,16.354,0,0,0-.09-1.77Zm14.49,1.59a26.022,26.022,0,0,1,4.29,6.84,28.721,28.721,0,0,1,2.25,8l-2.13.87a26.5,26.5,0,0,0-6.19-14.78Z"/><path class="cls-1" d="M731.75,138.41a13.2,13.2,0,0,0-2.4.15v-2a11.385,11.385,0,0,0,2.52.18h3a11.7,11.7,0,0,0,2.52-.18v2a12.794,12.794,0,0,0-2.28-.15h-.47v7.08h.42a9.311,9.311,0,0,0,2-.15v1.89a13.115,13.115,0,0,0-2-.12h-.42v7.11a38.063,38.063,0,0,0,3.5-1.57v1.86a72.988,72.988,0,0,1-7,2.85c-.63.24-1.17.48-1.59.66l-.6-2.13a15.858,15.858,0,0,0,3.78-1v-7.8h-.93a10.468,10.468,0,0,0-2,.15v-1.92a10.154,10.154,0,0,0,2,.15h.93v-7.08Zm24,15.87a1.752,1.752,0,0,0-.39.27l-.57.45a32.753,32.753,0,0,1-3.09,2.28,20.264,20.264,0,0,0,5.61,2.55,7.65,7.65,0,0,0-1.05,1.74,21.79,21.79,0,0,1-5.88-3.36,13.244,13.244,0,0,1-3.33-3.69c.06.69.12,1.89.12,2.94v2.28a16.721,16.721,0,0,0,.18,2.88h-2.1a17.488,17.488,0,0,0,.18-2.91v-2.19c0-.84.06-2.07.12-2.85a18,18,0,0,1-4.14,3.75,31.422,31.422,0,0,1-4.8,2.7,5.912,5.912,0,0,0-1.29-1.59,21.835,21.835,0,0,0,9.9-6.42H741.5a22.848,22.848,0,0,0-2.34.09,16.054,16.054,0,0,0,.09-1.86v-2a17,17,0,0,0-.09-1.86c.72.06,1.38.09,2.4.09h10.53a19.4,19.4,0,0,0,2.49-.09,16.511,16.511,0,0,0-.09,1.86v2a15.532,15.532,0,0,0,.09,1.83,1.7,1.7,0,0,0-.39,0Zm-18.06-10.32a18.611,18.611,0,0,0,2.85.18h13.1a25.058,25.058,0,0,0,2.82-.15v1.86a25.454,25.454,0,0,0-2.76-.15H740.54a25.8,25.8,0,0,0-2.82.15Zm.72-6.09a12.385,12.385,0,0,0-.12-2,16.593,16.593,0,0,0,2.4.12h12.45a17.493,17.493,0,0,0,2.4-.12,12.989,12.989,0,0,0-.12,2v2.58a12.736,12.736,0,0,0,.12,2c-.66-.06-1.38-.09-2.31-.09H740.72a19.75,19.75,0,0,0-2.37.09,15.535,15.535,0,0,0,.09-2Zm5.22-.42h-3.51v3.42h3.52Zm-2.58,14.2h11.59v-2.61H741.05Zm7.5-14.19h-3.3v3.42h3.3Zm-1.11,15.66a16.968,16.968,0,0,0,3,3.18,13.426,13.426,0,0,0,3.75-3.12c-.48,0-1.17-.06-1.8-.06Zm6.33-15.66h-3.63v3.42h3.63Z"/><path class="cls-1" d="M6.98,195.71a24.927,24.927,0,0,0-.18-3.3H8.99a23.948,23.948,0,0,0-.18,3.3v4.38h.42a16.757,16.757,0,0,0,2.37-.12v1.92a17.653,17.653,0,0,0-2.4-.12H8.81v8.61c1.26-.57,1.8-.81,3.3-1.59l.15,1.83c-2.37,1.2-4,1.92-7.38,3.3-.39.18-.87.39-1.23.57l-.54-2.07a18.272,18.272,0,0,0,3.87-1.29v-9.36h-1a18.367,18.367,0,0,0-2.61.15v-2a17.271,17.271,0,0,0,2.67.15h.93Zm8.88,16a19.691,19.691,0,0,0-2.55.12,12.292,12.292,0,0,0,.12-2.1V204.9a16.052,16.052,0,0,0-.12-2.34,24.293,24.293,0,0,0,2.88.12h9.45a24.138,24.138,0,0,0,2.82-.12,15.283,15.283,0,0,0-.12,2.4v4.59a14.485,14.485,0,0,0,.12,2.28,20.624,20.624,0,0,0-2.46-.12H23.64v4.68c0,.57.33.66,2.64.66,1.62,0,2.16-.12,2.4-.48a8.391,8.391,0,0,0,.42-3.18,5.709,5.709,0,0,0,1.77.75c-.18,2.55-.45,3.54-1.14,4s-1.38.57-3.84.57c-2,0-2.7-.09-3.39-.42-.48-.24-.69-.66-.69-1.44v-5.19H18.74a8.08,8.08,0,0,1-.42,2.22,7.278,7.278,0,0,1-3.3,3.84,13.565,13.565,0,0,1-4.68,1.71,4.872,4.872,0,0,0-1.2-1.77c3.36-.54,5.1-1.23,6.33-2.49a5.1,5.1,0,0,0,1.44-3.51Zm10.65-17a20.888,20.888,0,0,0,3-.15v1.8a28.347,28.347,0,0,0-3-.12h-.3a26.351,26.351,0,0,1-1.47,3h2.61a19.04,19.04,0,0,0,3-.15v1.89a20.6,20.6,0,0,0-3-.15H14.99a25.59,25.59,0,0,0-2.85.12v-1.86a18.725,18.725,0,0,0,2.82.15h1.92a15.454,15.454,0,0,0-1.26-3h-.27a23.476,23.476,0,0,0-2.73.12v-1.8a20.19,20.19,0,0,0,3,.15h4.26v-.84a9.376,9.376,0,0,0-.15-2h2.16a9.311,9.311,0,0,0-.15,2v.81ZM15.14,206.36H26.57v-2.13H15.14Zm0,3.87H26.57v-2.37H15.14Zm7.77-11a18.541,18.541,0,0,0,1.44-3H17.48a29.077,29.077,0,0,1,1.2,3Z"/><path class="cls-1" d="M47.3,209.12c-1.74,4-3.51,5.76-5.67,5.76-2.85,0-5-3.12-5-7.32A12.179,12.179,0,0,1,48.7,195.273q.384,0,.768.017a11.611,11.611,0,0,1,8.25,3,10,10,0,0,1,2.91,7.32,10.921,10.921,0,0,1-6.87,10.35,23.212,23.212,0,0,1-4.56,1.38,4.766,4.766,0,0,0-1-2,18.022,18.022,0,0,0,5-1.41,9.058,9.058,0,0,0,5.31-8.4A7.92,7.92,0,0,0,53.74,198a8.622,8.622,0,0,0-3.48-.75A45.02,45.02,0,0,1,47.3,209.12Zm-3.66-10.47a10.367,10.367,0,0,0-4.89,8.94c0,2.88,1.26,5.1,2.88,5.1,1.26,0,2.46-1.41,3.75-4.35a41.217,41.217,0,0,0,2.73-11.1A9.469,9.469,0,0,0,43.64,198.65Z"/><path class="cls-1" d="M69.43,196.65a20.986,20.986,0,0,0,5.61.48h.75a16.406,16.406,0,0,1,.15-2.25c0-.33.09-1.5.09-1.71a3.072,3.072,0,0,0,0-.45l2.34.15a20.016,20.016,0,0,0-.63,4.2,46.079,46.079,0,0,0,11.43-1.68l.12,2.1-1.05.15a83.974,83.974,0,0,1-10.62,1.2c-.18,2.55-.18,2.55-.21,4a15.866,15.866,0,0,1,4.44-.6,12,12,0,0,1,1.74.09,11.28,11.28,0,0,0,.72-2.7l2.07.63c-.09.18-.42,1-.93,2.4,4.14,1,6.45,3.51,6.45,7,0,2.94-1.62,5.31-4.71,6.93a16.5,16.5,0,0,1-6.12,1.71,6.181,6.181,0,0,0-1-2,13.977,13.977,0,0,0,4.5-.81c3.27-1.14,5.16-3.33,5.16-6s-1.71-4.38-4.95-5.22a26.992,26.992,0,0,1-5.7,9c-2.31,2.4-4.59,3.63-6.69,3.63-2.25,0-3.87-1.89-3.87-4.56,0-3.69,2.61-7.05,7-8.94a38.125,38.125,0,0,1,.18-4.53H74.5c-.3,0-1.65-.06-4-.15a4.864,4.864,0,0,0-.54,0,3.2,3.2,0,0,0-.48,0Zm2.88,11.1a7.093,7.093,0,0,0-1.83,4.47c0,1.65.87,2.73,2.16,2.73a5.419,5.419,0,0,0,3.45-1.53,42.5,42.5,0,0,1-.6-8.13,10.736,10.736,0,0,0-3.18,2.48Zm5.49,4.44a3.238,3.238,0,0,1,.57-.78,27.11,27.11,0,0,0,4.59-7.5c-1-.06-1.11-.06-1.44-.06a13.465,13.465,0,0,0-4.17.69,50.541,50.541,0,0,0,.33,6.87,1.966,1.966,0,0,1,0,.42v.33Z"/><path class="cls-1" d="M107.22,193.04a16.936,16.936,0,0,0-.69,3.09c-.48,3-.9,6.3-1,7.83h.12l.21-.87a13.387,13.387,0,0,1,1.83-4.47c1.68-2.58,3.66-3.87,6-3.87a5.651,5.651,0,0,1,4.8,2.67c1.26,1.86,1.8,4.08,1.8,7.29,0,5.43-2.43,9.54-6.93,11.79a22.689,22.689,0,0,1-5.34,1.77,6.2,6.2,0,0,0-1.2-2,15.852,15.852,0,0,0,6.09-1.89c3.51-2,5.16-5.16,5.16-10s-1.68-7.62-4.56-7.62c-2.28,0-4.2,1.71-5.91,5.22a15.662,15.662,0,0,0-1.62,6.69v.72l-2.16.09v-.87l-.06-3.12v-.69a75.787,75.787,0,0,1,1-11.07,5.987,5.987,0,0,0,.09-1Z"/><path class="cls-1" d="M142.28,194.93a16.442,16.442,0,0,0-.21-2.64h2.4a14.583,14.583,0,0,0-.18,2.64v2.25h9.18a21.063,21.063,0,0,0,3.45-.21v2.25a18.751,18.751,0,0,0-3.39-.18H142.16a39.03,39.03,0,0,1-.42,4.29h8.19a19,19,0,0,0,3.09-.15c-.06.6-.09.93-.15,2.1a62.79,62.79,0,0,1-1.14,10.23c-.63,2.58-1.35,3.21-3.75,3.21a41.614,41.614,0,0,1-4.16-.27,6.791,6.791,0,0,0-.49-2.13,24.275,24.275,0,0,0,4.53.48c1.29,0,1.59-.36,2-2.58a57.535,57.535,0,0,0,.93-9.09h-9.42a20.327,20.327,0,0,1-2.84,7.68,19.436,19.436,0,0,1-3.73,4.14,17.277,17.277,0,0,1-3.27,2.19,5.765,5.765,0,0,0-1.46-1.68,15.628,15.628,0,0,0,6.09-4.86c2.45-3.18,3.62-7.26,3.87-13.56h-6.31a23.435,23.435,0,0,0-3.36.18v-2.25a20.288,20.288,0,0,0,3.34.21h8.54Z"/><path class="cls-1" d="M168.38,194.18a12.08,12.08,0,0,0,.57,1.83c.6,1.77.9,2.61,1.32,4a53.327,53.327,0,0,1,6.45-1.68,41.641,41.641,0,0,0-.12-5.31h2.25a28.424,28.424,0,0,0-.15,4v1a15.136,15.136,0,0,1,2.25-.18c4,0,6.6,2.16,6.6,5.52,0,3.6-2.94,6.18-7.05,6.18a12.7,12.7,0,0,1-5.07-1.11,4.422,4.422,0,0,0,0-.54,13.273,13.273,0,0,0-.18-1.71,10.2,10.2,0,0,0,5,1.38,6.081,6.081,0,0,0,3.6-1.17,3.639,3.639,0,0,0,1.44-3.06c0-2.28-1.77-3.63-4.8-3.63-2.19,0-5.43.72-9.78,2.13,1.53,5.1,2.61,9.33,3.87,15a9.488,9.488,0,0,0,.39,1.29l-2.33.53c-.15-2.46-1.83-9.69-3.78-16.2a13.038,13.038,0,0,1-1.62.54,28.622,28.622,0,0,0-4.11,1.65l-.78-2.13a32.928,32.928,0,0,0,4.41-1.41c.75-.27,1-.33,1.53-.48a30.156,30.156,0,0,0-2.16-5.7Z"/><path class="cls-1" d="M193.64,197.45a16.524,16.524,0,0,0,2.61.18h7.23a14.618,14.618,0,0,0,2.61-.18v2a16.038,16.038,0,0,0-2.61-.15h-7.24a17.383,17.383,0,0,0-2.58.15Zm1.41-4.08a13.721,13.721,0,0,0,2.43.15h4.89a13.238,13.238,0,0,0,2.37-.15v1.89a18.4,18.4,0,0,0-2.37-.12h-4.89a18.262,18.262,0,0,0-2.43.12Zm0,8.31a13.452,13.452,0,0,0,2.16.12h5.43a13.547,13.547,0,0,0,2.13-.12v1.83a15.163,15.163,0,0,0-2.13-.12H197.3a14.442,14.442,0,0,0-2.16.12Zm0,4.14a13,13,0,0,0,2.16.12h5.43a13.547,13.547,0,0,0,2.13-.12v1.83a14.046,14.046,0,0,0-2.13-.12H197.3a14.181,14.181,0,0,0-2.16.12Zm2.13,13.5h-2a20.251,20.251,0,0,0,.18-2.88v-4a15.335,15.335,0,0,0-.15-2.46,13.655,13.655,0,0,0,2.1.12h5.49a19.082,19.082,0,0,0,2-.09,16.882,16.882,0,0,0-.12,2.4v4a15.665,15.665,0,0,0,.18,2.55h-2v-1.17h-5.7Zm0-3.15h5.76v-4.44h-5.76Zm15-20.49a21.689,21.689,0,0,0-.21-3.33h2.37a21.44,21.44,0,0,0-.21,3.33v6.06h2.85a28.113,28.113,0,0,0,3.6-.18v2.16a30.922,30.922,0,0,0-3.6-.18h-2.85V215a27.108,27.108,0,0,0,.24,4.29h-2.4a30.746,30.746,0,0,0,.21-4.29V203.54h-2.64a29.228,29.228,0,0,0-3.45.18v-2.16a26.165,26.165,0,0,0,3.45.18h2.64Z"/><path class="cls-1" d="M243.45,198.53a19.541,19.541,0,0,0,2.49-.12,15.47,15.47,0,0,0-.12,2.13v10.68a15.351,15.351,0,0,0,.12,2.1,21.793,21.793,0,0,0-2.58-.12h-9.84a21.793,21.793,0,0,0-2.58.12,15.351,15.351,0,0,0,.12-2.1V200.54a15.47,15.47,0,0,0-.12-2.13,19.915,19.915,0,0,0,2.49.12h4v-3.66h-9.06a25.5,25.5,0,0,0-3.15.18v-2.07a22.568,22.568,0,0,0,3.15.18h20.27a23.69,23.69,0,0,0,3.15-.18v2.07a24.745,24.745,0,0,0-3.15-.18h-9.36v3.66Zm7.74.69a23.128,23.128,0,0,0-.18,3.09v13.53a26.723,26.723,0,0,0,.18,3.6h-2.1v-1.71H227.97v1.71h-2.1a27.177,27.177,0,0,0,.18-3.63v-13.5a22.481,22.481,0,0,0-.18-3.09h2.25a17.344,17.344,0,0,0-.18,2.88v13.92h21.18v-14a18.361,18.361,0,0,0-.18-2.85Zm-18.39.93v4.56h4.65v-4.56Zm0,6.15v5.35h4.65v-5.31Zm6.45-1.59h4.83v-4.56h-4.83Zm0,6.9h4.83V206.3h-4.83Z"/><path class="cls-1" d="M269.28,196.31a86.65,86.65,0,0,1-9.84.78,5.479,5.479,0,0,0-.78-1.86,78.639,78.639,0,0,0,12.42-1,29.143,29.143,0,0,0,7.65-2l1.65,1.77a53.286,53.286,0,0,1-9.15,2v5h7.26a21.813,21.813,0,0,0,3.17-.18v2.1a22.692,22.692,0,0,0-3.17-.18h-7.26v4.71h8.58a22.111,22.111,0,0,0,3.15-.18v2.13a23.035,23.035,0,0,0-3.15-.18h-8.58v6.93c0,1.86-.72,2.37-3.27,2.37a43.366,43.366,0,0,1-4.5-.27,7.076,7.076,0,0,0-.54-2.07,32.322,32.322,0,0,0,5.1.51c1,0,1.26-.21,1.26-.87v-6.6h-9.24a22.722,22.722,0,0,0-3.15.18v-2.05a21.54,21.54,0,0,0,3.15.18h9.24v-4.71h-7.56a24.489,24.489,0,0,0-3.18.18v-2.1a22.237,22.237,0,0,0,3.18.18h7.56Z"/><path class="cls-1" d="M289.22,199.65a37.247,37.247,0,0,1,5.13,3.75l-1.17,1.65a24.472,24.472,0,0,0-5.1-4Zm5.34,9.81a52.9,52.9,0,0,1-3.93,8.1c-.18.3-.27.51-.6,1.14l-1.74-1.56a13.009,13.009,0,0,0,1.83-2.61,37.711,37.711,0,0,0,2.88-6.24Zm-3.54-16.89a26.372,26.372,0,0,1,4.83,3.93l-1.21,1.55a23.4,23.4,0,0,0-4.83-4.17Zm8.62,6.38a20.824,20.824,0,0,0-2.91.18v-2.1a18.776,18.776,0,0,0,2.94.18h4.2v-2.07a17.308,17.308,0,0,0-.18-3h2.28a16.547,16.547,0,0,0-.18,3v2.07h5.7a17.425,17.425,0,0,0,2.7-.18v2.1a17.042,17.042,0,0,0-2.67-.18h-5.73v5.49h6.78a17.7,17.7,0,0,0,2.76-.18v2.1a18.068,18.068,0,0,0-2.73-.18h-7.77a66.8,66.8,0,0,1-4.2,9.36c5.25-.51,7.35-.75,10.29-1.29a43.655,43.655,0,0,0-3.69-5.07l1.62-.87a59.525,59.525,0,0,1,6.39,9.42l-1.83,1.08c-.78-1.56-1-2-1.59-3.06-2.37.42-2.37.42-5.4.87-2.19.33-2.19.33-8.76,1-1.23.12-1.65.18-2.31.3l-.48-2.16a6.432,6.432,0,0,0,1,.06,24.676,24.676,0,0,0,2.52-.15,54.177,54.177,0,0,0,4.35-9.54H298.3a21.254,21.254,0,0,0-2.94.18v-2.1a19.8,19.8,0,0,0,3,.18h5.52v-5.44Z"/><path class="cls-1" d="M329.29,196.91a12.705,12.705,0,0,0,1.44-4.11l2.4.42a6.372,6.372,0,0,0-.78,1.62,14.053,14.053,0,0,1-.93,2,5.093,5.093,0,0,1,.63,0c4.8-.24,7.8-.6,9.45-1.14l.18,2a9.3,9.3,0,0,0-1.2.15,97.012,97.012,0,0,1-9.9.78,22.157,22.157,0,0,1-2.7,4.26c-.3.36-.9,1.05-1,1.14s-.36.27-.39.3h0a.237.237,0,0,0,.06.09,8.3,8.3,0,0,1,1.38-1,8.007,8.007,0,0,1,4.53-1.47,3.641,3.641,0,0,1,3.993,3.249c0,.027.005.054.007.081,2.19-.87,3.9-1.5,5.22-2a6.6,6.6,0,0,0,2-.87l1,2.1a49.9,49.9,0,0,0-8,2.64c.06.78.06,1.08.06,1.83v3a6.5,6.5,0,0,0,.06,1.08h-2q.2-2.154.18-4.32a7.948,7.948,0,0,0,0-.9c-4.08,1.92-5.64,3.33-5.64,5.13,0,2,1.86,2.85,6.09,2.85a25.147,25.147,0,0,0,8-1.17l.27,2.31c-.4.03-.8.08-1.2.15a46.486,46.486,0,0,1-7.29.6c-5.37,0-8-1.53-8-4.62,0-1.65,1-3.21,3.06-4.74a23.314,23.314,0,0,1,4.47-2.4c-.24-1.65-1-2.37-2.37-2.37-1.89,0-4.26,1.11-6.69,3.18a9.936,9.936,0,0,0-2.31,2.49l-1.88-1.6a29.83,29.83,0,0,0,6.72-8.58l.27-.45a3.413,3.413,0,0,1-.57.06l-4.41-.09h-.48a5.191,5.191,0,0,0-.66,0v-2.07a42,42,0,0,0,6.42.33Z"/><path class="cls-1" d="M354.45,195.14a12.785,12.785,0,0,0-2.57.18v-2a15.934,15.934,0,0,0,2.69.18h4.89a11.787,11.787,0,0,0,2.53-.18v2a19.725,19.725,0,0,0-2.43-.12H357.7a29.8,29.8,0,0,1-2.08,7.62h3.75a13.909,13.909,0,0,0,1.87-.09,19.622,19.622,0,0,0-.09,2.4v9.27a19.819,19.819,0,0,0,.11,2.52h-1.89v-1.5h-3.73v3.18h-2a16.869,16.869,0,0,0,.19-2.91v-6.66c0-1.08,0-2,.09-3.36a13.719,13.719,0,0,1-2.25,3.66,5.162,5.162,0,0,0-1.09-1.8,20.256,20.256,0,0,0,4.14-7.62,21.006,21.006,0,0,0,1-4.71Zm1.2,18.6h3.72v-9.39h-3.73Zm10.42-18.6a19.539,19.539,0,0,0-2.92.18v-2.07a18.355,18.355,0,0,0,3,.18h9.49a20.064,20.064,0,0,0,3-.18v2.07a15.746,15.746,0,0,0-2.91-.18h-.72v8.31h1a15.856,15.856,0,0,0,3-.18v2.13a19.546,19.546,0,0,0-3-.18h-1v10.77a22.673,22.673,0,0,0,.21,3.21h-2.31a22.381,22.381,0,0,0,.21-3.21V205.22h-4.95c-.3,6.69-1.59,10.32-5,14.28a5.344,5.344,0,0,0-1.74-1.35c3.15-3,4.56-6.75,4.83-12.93h-.84a16.735,16.735,0,0,0-3,.18v-2.1a19.538,19.538,0,0,0,3,.15h.9v-8.31Zm2.18,7.29v1h4.89v-8.31h-4.89Z"/><path class="cls-1" d="M399.45,207.11a26.557,26.557,0,0,0,3.36-.15c-.06.66-.09,1.29-.12,2.64l-.12,6.09c0,.9.33,1,2.67,1,2.1,0,2.7-.15,2.91-.69a17.522,17.522,0,0,0,.48-4.5,7.335,7.335,0,0,0,1.95.78c-.48,6-.66,6.18-5.49,6.18-3.66,0-4.44-.39-4.44-2.4v-.15l.12-7h-5.58a11.5,11.5,0,0,1-2.34,4.95,13.234,13.234,0,0,1-3.21,2.88,20.2,20.2,0,0,1-5,2.46,4.628,4.628,0,0,0-1.32-1.71,18.726,18.726,0,0,0,5.76-2.7,9.8,9.8,0,0,0,4.17-5.88h-4.74a21.4,21.4,0,0,0-3.24.18v-2.13a20.251,20.251,0,0,0,3.18.18h5.19a21.266,21.266,0,0,0,.21-2.52,9.989,9.989,0,0,0-.12-1.62h2.28a9.116,9.116,0,0,0-.24,1.89c-.06.72-.12,1.47-.24,2.22Zm-4-12.69a9.221,9.221,0,0,0-.21-2.16h2.4a8.765,8.765,0,0,0-.21,2.16v.93h8.91a25.477,25.477,0,0,0,3-.15,13.518,13.518,0,0,0-.12,2.07v1.53a13.911,13.911,0,0,0,.12,2.1h-2v-3.84h-7.47v4.35c0,.36.06.51.21.6a5.9,5.9,0,0,0,1.92.21,5.539,5.539,0,0,0,2.43-.33c.33-.24.48-1,.51-2.43a6.266,6.266,0,0,0,1.8.57c-.15,1.89-.39,2.73-.9,3.18s-1.74.66-3.87.66c-3.15,0-3.9-.33-3.9-1.65v-5.16h-3.69a8.221,8.221,0,0,1-1.05,3.33,8.451,8.451,0,0,1-4.74,3.81,27.718,27.718,0,0,1-2.79.87,8.181,8.181,0,0,0-1.14-1.65c3.21-.6,4.71-1.2,6-2.4a5.673,5.673,0,0,0,1.83-4H386.1v3.81h-2a14.453,14.453,0,0,0,.12-2.1v-1.5a13.518,13.518,0,0,0-.12-2.07,25.477,25.477,0,0,0,3,.15h8.31Z"/><path class="cls-1" d="M422.9,193.7a46.206,46.206,0,0,0-.39,6.33c-.12,3.6-.21,7.68-.21,9,0,.36,0,1.11.06,1.8a4.721,4.721,0,0,0,1.41,3.6,5.661,5.661,0,0,0,3.75,1.17,8.619,8.619,0,0,0,8-5.22,17.805,17.805,0,0,0,1.47-4.71,8.469,8.469,0,0,0,2.16,1.44c-1.14,3.51-2,5.28-3.33,6.81a10.5,10.5,0,0,1-8.46,3.75c-2.55,0-4.44-.72-5.64-2.1s-1.65-3-1.65-6.15c0-2,0-2.76.27-12.21v-2a9.2,9.2,0,0,0-.12-1.59Z"/><path class="cls-1" d="M447.02,211.13a30.583,30.583,0,0,1,6,6.36l-1.68,1.59a29.952,29.952,0,0,0-5.91-6.54Z"/><path class="cls-1" d="M491.33,204.02c-.36,7.77-2.88,11.43-9.66,14.07a5.252,5.252,0,0,0-1.41-2c6.21-2.07,8.55-5.28,8.79-12.12h-8.13a23.672,23.672,0,0,0-3.45.15v-2.17a19.856,19.856,0,0,0,3.48.18H498.5a19.659,19.659,0,0,0,3.48-.18v2.22a23.672,23.672,0,0,0-3.45-.15Zm-10.83-9.51a15.577,15.577,0,0,0,3.45.21h9.06a27.231,27.231,0,0,0,3.45-.15v2.16q-.589,0-3.42-.09h-9.12a20.905,20.905,0,0,0-3.42.15Zm17.58-2.52a23.339,23.339,0,0,1,2.94,4.74l-1.53.84a22.866,22.866,0,0,0-2.91-4.86Zm3.69-1.14a24.96,24.96,0,0,1,2.94,4.74l-1.53.84a23.521,23.521,0,0,0-2.91-4.83Z"/><path class="cls-1" d="M525.76,199.7v-2.94a21.123,21.123,0,0,0-.09-3.06h2.34a22.987,22.987,0,0,0-.12,2.85v3.15h2.58a20.5,20.5,0,0,0,3.51-.18v2.28a24.084,24.084,0,0,0-3.48-.15h-2.64c0,5.79-.36,8-1.47,10.17-1.62,3-4.32,5.1-8.37,6.48a5.367,5.367,0,0,0-1.35-1.89c3.93-1,7-3.33,8.16-6.36.66-1.8.84-3.6.9-8.4h-9.09v5a15.665,15.665,0,0,0,.12,2.43h-2.43a14.347,14.347,0,0,0,.12-2.52v-4.91h-2.52a24.084,24.084,0,0,0-3.48.15v-2.28a20.5,20.5,0,0,0,3.51.18h2.49v-3.48a14.642,14.642,0,0,0-.12-2.52h2.43a15.917,15.917,0,0,0-.12,2.43v3.57Zm5-7.89a23.843,23.843,0,0,1,2.13,4.92l-1.59.54a23.116,23.116,0,0,0-2.13-5Zm3.45-1a23.269,23.269,0,0,1,2.13,4.89l-1.56.54a24,24,0,0,0-2.1-4.92Z"/><path class="cls-1" d="M563.64,194.75a6.8,6.8,0,0,0-1.32,1.26,52.809,52.809,0,0,1-7,6v12.78a19.882,19.882,0,0,0,.15,3.18h-2.61a15.665,15.665,0,0,0,.18-3.12v-11.4a46.884,46.884,0,0,1-11.58,5.25,7,7,0,0,0-1.17-2,42.225,42.225,0,0,0,15.57-7.77,25.189,25.189,0,0,0,5.73-5.67Z"/><path class="cls-1" d="M573.99,214.49a26.114,26.114,0,0,0,8.73-2.31c5.79-2.58,9.81-7,12.24-13.35a5.989,5.989,0,0,0,1.83,1.77c-2.4,5.22-5.19,8.73-9.15,11.46-3.09,2.1-6.18,3.33-11.19,4.47a15.753,15.753,0,0,0-1.8.48Zm1.92-18.6a39.087,39.087,0,0,1,7.23,5.64l-1.56,1.86a33.149,33.149,0,0,0-7.14-5.88Z"/><path class="cls-1" d="M603.23,207.41c1.14-.75,3.51-3.36,6-6.69a12.845,12.845,0,0,1,1.5-1.8,3.119,3.119,0,0,1,5,.21c.3.27.81.84,2.19,2.43a79.747,79.747,0,0,0,9.51,9.24,9.919,9.919,0,0,0,2.4,1.56l-1,2.58a5.389,5.389,0,0,0-.72-.63c-1.86-1.47-5.28-4.53-7.29-6.51-1.77-1.8-2.91-3-5.82-6.42-.81-.93-1.29-1.29-1.8-1.29s-.93.24-2.37,2.16c-1.77,2.37-3.33,4.26-5.25,6.39-.54.6-.6.66-.87,1Z"/><path class="cls-1" d="M646.72,209.12c-1.73,4-3.51,5.76-5.66,5.76-2.86,0-5-3.12-5-7.32a12.2,12.2,0,0,1,12.113-12.287c.242,0,.485,0,.727.017a11.611,11.611,0,0,1,8.25,3,10,10,0,0,1,2.91,7.32,10.921,10.921,0,0,1-6.87,10.35,23.212,23.212,0,0,1-4.56,1.38,4.766,4.766,0,0,0-1-2,18.022,18.022,0,0,0,5-1.41,9.058,9.058,0,0,0,5.31-8.4,7.91,7.91,0,0,0-4.77-7.53,8.622,8.622,0,0,0-3.48-.75A45,45,0,0,1,646.72,209.12Zm-3.69-10.47a10.369,10.369,0,0,0-4.88,8.94c0,2.88,1.25,5.1,2.87,5.1,1.26,0,2.47-1.41,3.75-4.35a41.217,41.217,0,0,0,2.73-11.1A9.469,9.469,0,0,0,643.03,198.65Z"/><path class="cls-1" d="M666.16,203.99a12.156,12.156,0,0,0,2.31.15h1.47a17.849,17.849,0,0,0,2.31-.15,22.526,22.526,0,0,0-.15,3.18v5.91a4.271,4.271,0,0,0,1.44,2c1.56,1.26,3.36,1.68,7,1.68a101.644,101.644,0,0,0,13.17-.6,6.714,6.714,0,0,0-.69,2.16c-3.24.15-6.33.21-10.26.21-5.07,0-6.78-.21-8.52-1a7.487,7.487,0,0,1-3.12-2.88,28.369,28.369,0,0,1-3.69,3.27s-.3.24-.69.6a2.305,2.305,0,0,0-.21.18l-1-2a17.991,17.991,0,0,0,4.71-3.6v-7.23h-1.89a11.389,11.389,0,0,0-2.19.15Zm1.83-11.25a36.415,36.415,0,0,1,4.8,5.31l-1.53,1.35a31.127,31.127,0,0,0-4.65-5.46Zm21.72,1.83a20.209,20.209,0,0,0,3.09-.18v1.86a21.482,21.482,0,0,0-3-.15h-1.41c-.39.93-.78,1.8-1.32,2.85h1.65a29.1,29.1,0,0,0,3.18-.12,31.31,31.31,0,0,0-.12,3.27v10.55c0,1.86-.51,2.22-3.12,2.22-.54,0-1.26,0-2.13-.06a6.093,6.093,0,0,0-.45-1.8,23.134,23.134,0,0,0,2.88.21c.87,0,1.05-.12,1.05-.69V200.42H676.69v11a30.569,30.569,0,0,0,.15,3.45h-2.07a33.119,33.119,0,0,0,.15-3.45v-9.39a29.4,29.4,0,0,0-.09-3.15c.93.06,1.56.09,3.42.09h1.23a23.188,23.188,0,0,0-1.2-2.85h-1.35a21.126,21.126,0,0,0-3.12.15v-1.86a20.482,20.482,0,0,0,3.15.18h5.34a13.453,13.453,0,0,0-.15-2.52h2.19a10.145,10.145,0,0,0-.18,2.52Zm-9.33,9.9a22.156,22.156,0,0,0-2.55.12v-1.68a15.76,15.76,0,0,0,2.55.15h2.13a11.737,11.737,0,0,0-.12-2h1.8a11.342,11.342,0,0,0-.12,2h2.28a16.647,16.647,0,0,0,2.64-.15v1.68a23.04,23.04,0,0,0-2.64-.12h-2.28v2.25h1.05a17.336,17.336,0,0,0,2.4-.12,14.709,14.709,0,0,0-.12,2.19v1.59a14.515,14.515,0,0,0,.06,2c-.57-.06-1.38-.09-2.19-.09h-4.63v1.5h-1.71c.06-.63.09-1.32.09-2.19v-2.85a16.168,16.168,0,0,0-.09-2.13,14.867,14.867,0,0,0,2.31.12h1.23v-2.25Zm4.89-5.52a19.352,19.352,0,0,0,1.23-2.85h-6.42a19.681,19.681,0,0,1,1.17,2.85Zm-4.62,12h5.16V208.1h-5.17Z"/><path class="cls-1" d="M712.44,215.03a21.529,21.529,0,0,0,.15,3.27h-2.16a22.058,22.058,0,0,0,.15-3.27v-5.67h-8.22c-.45,4.53-1.23,7-3.24,9.84a7.287,7.287,0,0,0-1.74-1.29,12.058,12.058,0,0,0,2.43-5.07c.66-2.76.93-7.14.93-14.55a45.337,45.337,0,0,0-.12-4.89,31.886,31.886,0,0,0,3.3.12h16.14a29.1,29.1,0,0,0,3.18-.12,25.322,25.322,0,0,0-.12,2.94v20.13c0,1.89-.69,2.34-3.6,2.34-1,0-2.46-.06-3.72-.15a7.011,7.011,0,0,0-.45-2,38.491,38.491,0,0,0,4.29.33c1.32,0,1.59-.15,1.59-.9v-6.78h-8.79Zm-9.8-12.75v2a27.043,27.043,0,0,1-.12,3.36h8.1V202.3Zm8-7h-7.89v5.25h7.92Zm10.65,5.25v-5.25h-8.85v5.25Zm-8.85,7.12h8.79v-5.34h-8.79Z"/><path class="cls-1" d="M738.86,196.91a12.729,12.729,0,0,0,1.44-4.11l2.4.42a6.372,6.372,0,0,0-.78,1.62,14.053,14.053,0,0,1-.93,2,5.093,5.093,0,0,1,.63,0c4.8-.24,7.8-.6,9.45-1.14l.18,2a9.3,9.3,0,0,0-1.2.15,97.034,97.034,0,0,1-9.9.78,22.157,22.157,0,0,1-2.7,4.26c-.3.36-.9,1.05-1,1.14s-.36.27-.39.3h0a.226.226,0,0,0,.06.09,8.3,8.3,0,0,1,1.38-1,8.007,8.007,0,0,1,4.53-1.47,3.641,3.641,0,0,1,3.993,3.249c0,.027,0,.054.007.081,2.19-.87,3.9-1.5,5.22-2a6.6,6.6,0,0,0,2-.87l1,2.1a49.862,49.862,0,0,0-8,2.64c.06.78.06,1.08.06,1.83v3a6.5,6.5,0,0,0,.06,1.08h-2q.2-2.154.18-4.32a7.948,7.948,0,0,0,0-.9c-4.08,1.92-5.64,3.33-5.64,5.13,0,2,1.86,2.85,6.09,2.85a25.147,25.147,0,0,0,8-1.17l.27,2.31c-.4.03-.8.08-1.2.15a46.486,46.486,0,0,1-7.29.6c-5.37,0-8-1.53-8-4.62,0-1.65,1-3.21,3.06-4.74a23.314,23.314,0,0,1,4.47-2.4c-.24-1.65-1-2.37-2.37-2.37-1.89,0-4.26,1.11-6.69,3.18a9.936,9.936,0,0,0-2.31,2.49l-1.88-1.6a29.848,29.848,0,0,0,6.72-8.58l.27-.45a3.413,3.413,0,0,1-.57.06l-4.41-.09h-.43a5.191,5.191,0,0,0-.66,0v-2.07a42,42,0,0,0,6.42.33Z"/><path class="cls-1" d="M23.69,250.7a21.978,21.978,0,0,0,3.12-.15,19,19,0,0,0-.15,2.76V272.9a22.532,22.532,0,0,0,.18,3.18h-2.2v-2H9.2v2H7.01a21.151,21.151,0,0,0,.18-3.06v-19.5a21.181,21.181,0,0,0-.15-3,24.591,24.591,0,0,0,3.21.15Zm1,7v-5.16H9.2v5.16ZM9.24,264.87h15.4V259.5H9.2Zm0,7.38h15.4v-5.6H9.2Z"/><path class="cls-1" d="M40.09,252.14a18.881,18.881,0,0,0-.21-3.06h2.31a18.145,18.145,0,0,0-.21,3v3h1.08a15.311,15.311,0,0,0,2.43-.15v2a16.318,16.318,0,0,0-2.46-.15h-1v6.12c1.11-.33,1.77-.57,3.54-1.26v1.74c-1.5.63-2,.81-3.57,1.38v9.18c0,1.62-.72,2.07-3.27,2.07a19.587,19.587,0,0,1-2.22-.09,5.191,5.191,0,0,0-.42-2,15.9,15.9,0,0,0,3,.3c.81,0,1-.18,1-.81v-8l-2.1.69a14.365,14.365,0,0,0-1.92.63l-.48-2.1a22.77,22.77,0,0,0,4.5-1.11V256.8h-1.8a16.318,16.318,0,0,0-2.46.15v-2a14.864,14.864,0,0,0,2.43.18h1.83Zm8.61,1c4.89-.69,9.15-1.89,10.86-3.06l1.5,1.68a51.074,51.074,0,0,1-12.36,3v2c0,1.17.51,1.29,5.4,1.29,5.79,0,5.85,0,6.12-3.81a6.465,6.465,0,0,0,1.83.81c-.3,2.43-.69,3.45-1.59,4.05s-2.19.69-6.81.69c-5.82,0-6.81-.39-6.81-2.61v-5.16a16.922,16.922,0,0,0-.18-3h2.22a18.5,18.5,0,0,0-.18,2.88Zm-1.83,11.55a16.632,16.632,0,0,0-.12-2.34,20.064,20.064,0,0,0,2.64.12h8.46a19.726,19.726,0,0,0,2.64-.12,16.182,16.182,0,0,0-.12,2.37v8.46a17.4,17.4,0,0,0,.15,3h-2v-1.65H48.7v1.68h-2a18.573,18.573,0,0,0,.15-3Zm1.83,2.82h9.81v-3.39H48.7Zm0,5.37h9.81v-3.75H48.7Z"/><path class="cls-1" d="M75.54,250.7a46.206,46.206,0,0,0-.39,6.33c-.12,3.6-.21,7.68-.21,9,0,.36,0,1.11.06,1.8a4.721,4.721,0,0,0,1.41,3.6,5.661,5.661,0,0,0,3.75,1.17,8.619,8.619,0,0,0,8-5.22,17.805,17.805,0,0,0,1.47-4.71,8.469,8.469,0,0,0,2.16,1.44c-1.14,3.51-2,5.28-3.33,6.81A10.5,10.5,0,0,1,80,274.67c-2.55,0-4.44-.72-5.64-2.1s-1.65-3-1.65-6.15c0-2,0-2.76.27-12.21v-2a9.2,9.2,0,0,0-.12-1.59Z"/><path class="cls-1" d="M100.91,254.3h1.08a14.725,14.725,0,0,0,1.71-.09c3.57-.27,13.17-.81,17-1a20.17,20.17,0,0,0,3.57-.33l.18,2.25a13.927,13.927,0,0,0-3.36.39,15.222,15.222,0,0,0-5.76,3,9.17,9.17,0,0,0-3.69,6.93c0,2.52,1.53,4.53,4.2,5.55a15.381,15.381,0,0,0,4.5,1h.3l-.39,2.43-.93-.18a15.131,15.131,0,0,1-6.48-2.31,7.3,7.3,0,0,1-3.33-6.12c0-3.48,2-6.81,5.61-9.21a19.664,19.664,0,0,1,2.85-1.59,58.187,58.187,0,0,1-6.6.66,87.991,87.991,0,0,0-10.35,1Z"/><path class="cls-1" d="M136.57,252.86a21.746,21.746,0,0,0-.21,3.57,51.374,51.374,0,0,0,.78,9.33c.66,3.06,1.89,5.13,3,5.13.54,0,1.05-.51,1.5-1.5a21.6,21.6,0,0,0,1.56-5.13,9.588,9.588,0,0,0,1.77,1.71c-1.47,5.25-2.85,7.26-5,7.26-1.68,0-3.24-1.68-4.26-4.56s-1.47-6.69-1.62-14.07a16.354,16.354,0,0,0-.09-1.77Zm14.49,1.59a26.022,26.022,0,0,1,4.29,6.84,28.721,28.721,0,0,1,2.25,8l-2.13.87a26.5,26.5,0,0,0-6.24-14.79Z"/><path class="cls-1" d="M169.08,251.75a13.867,13.867,0,0,0,2.82.18c2.49,0,6.48-.18,9.18-.39a3.062,3.062,0,0,0,1.44-.33l1.26,1.65a5.532,5.532,0,0,0-1.53,1.26,76.993,76.993,0,0,1-9.87,8.52l.06.09a15.2,15.2,0,0,1,7.35-1.86c5,0,8.22,2.46,8.22,6.3,0,4.68-4.35,7.77-11,7.77-4.23,0-6.66-1.56-6.66-4.32,0-2,1.86-3.51,4.35-3.51a6,6,0,0,1,4.95,2.46,8.586,8.586,0,0,1,1.38,2.88c3.15-.87,4.8-2.7,4.8-5.25,0-2.88-2.4-4.59-6.45-4.59a19.25,19.25,0,0,0-12.63,5.13l-1.35-1.92a33.311,33.311,0,0,0,4.2-3.06c3.21-2.55,8-6.72,10-8.76l.42-.42.12-.12.12-.12-.06-.06h-.27c-1,.18-4.56.39-9.12.54a14.666,14.666,0,0,0-1.62.15Zm5.64,17.07c-1.5,0-2.43.72-2.43,1.86a2,2,0,0,0,1.2,1.83,7.661,7.661,0,0,0,3.36.69,10.809,10.809,0,0,0,2.19-.21C178.38,270.26,176.88,268.82,174.72,268.82Z"/><path class="cls-1" d="M203.37,271.55a4.5,4.5,0,1,1-4.5-4.5h0a4.49,4.49,0,0,1,4.5,4.48Zm-7.29,0a2.79,2.79,0,1,0,2.79-2.79h0A2.8,2.8,0,0,0,196.08,271.55Z"/><path class="cls-1" d="M231.18,252.38a17.112,17.112,0,0,0-.18-3h2.22a22.11,22.11,0,0,0-.15,3v2h2.85a18.2,18.2,0,0,0,2.76-.18v2a21.09,21.09,0,0,0-2.73-.12,28.775,28.775,0,0,1-2.13,9.45,58.682,58.682,0,0,1,4.29,6.3l-1.5,1.44a55.841,55.841,0,0,0-3.66-5.88,24.412,24.412,0,0,1-6.66,8,5.29,5.29,0,0,0-1.5-1.44,21,21,0,0,0,6.93-8.19,52.141,52.141,0,0,0-5.43-6.12l1.41-1.2a68.52,68.52,0,0,1,4.83,5.43,27.549,27.549,0,0,0,1.47-7.8h-6.24a15.787,15.787,0,0,0-2.67.15v-2a18.2,18.2,0,0,0,2.76.18h3.33Zm8.7,8a34.087,34.087,0,0,1,4.44,6.69l-1.68,1.18a26.34,26.34,0,0,0-4.32-6.9Zm1.89-2.49a18.474,18.474,0,0,0-2.82.18v-2a17.3,17.3,0,0,0,2.85.15h4.68v-3.36a17.212,17.212,0,0,0-.21-3.27h2.31a20.313,20.313,0,0,0-.18,3.27v3.36h.75a18.637,18.637,0,0,0,2.91-.18v2.07a18.07,18.07,0,0,0-2.94-.18h-.72v15.45c0,2-.6,2.43-3.3,2.43-1.35,0-2.1,0-3.42-.09a7.168,7.168,0,0,0-.63-2,28.711,28.711,0,0,0,3.84.33c1.35,0,1.59-.12,1.59-.75V257.93Z"/><path class="cls-1" d="M273.98,261.65a16.864,16.864,0,0,0,1.89,4.41,16.523,16.523,0,0,0,4.74-3.75l1.59,1.35c-.39.27-.66.45-1.92,1.44a27.666,27.666,0,0,1-3.45,2.34,26.288,26.288,0,0,0,2.16,2.46,14,14,0,0,0,5.37,3.42,7.215,7.215,0,0,0-1.35,1.83,18.254,18.254,0,0,1-5.7-4.14,22.506,22.506,0,0,1-5.16-9.36h-.63a14.951,14.951,0,0,1-2,1.29,12.7,12.7,0,0,1,3.6,8.91c0,2.37-.66,3.78-2,4.26a8.4,8.4,0,0,1-2.7.3,15.712,15.712,0,0,1-2-.09,5.531,5.531,0,0,0-.51-2,14.882,14.882,0,0,0,2.88.27c1.17,0,1.59-.12,1.92-.57a4.51,4.51,0,0,0,.51-2.52,13.332,13.332,0,0,0-.09-1.44,41.413,41.413,0,0,1-12.49,5.39,8.258,8.258,0,0,0-1.08-1.65,38,38,0,0,0,13.23-5.37,12.78,12.78,0,0,0-.72-1.83,37.945,37.945,0,0,1-11,4.35,5.685,5.685,0,0,0-1-1.65,31.685,31.685,0,0,0,11.22-4.08,8.716,8.716,0,0,0-1.26-1.56,33.683,33.683,0,0,1-9.18,3,5.144,5.144,0,0,0-1-1.59,31.639,31.639,0,0,0,10.97-3.42h-5c-1.32,0-2.34,0-3.27.09a14.249,14.249,0,0,0,.12-2.46v-2.7c-1,.66-1.41.9-2.58,1.59a5.577,5.577,0,0,0-1.11-1.47,22.327,22.327,0,0,0,7.17-5.22,10.634,10.634,0,0,0,2.16-2.88l2.07.63c-.24.27-.24.27-.63.75-.21.24-.33.39-.87,1h5.49a16.754,16.754,0,0,0,2.76-.15l1,1.05c-.48.51-.48.51-1.14,1.26a28.536,28.536,0,0,1-2.13,2.13h5.52a30.641,30.641,0,0,0,3.36-.12,18.723,18.723,0,0,0-.12,2.46v1.68a17.734,17.734,0,0,0,.12,2.46q-1.309-.09-3.24-.09Zm-3.34-6.42a15.982,15.982,0,0,0,2.76-2.79h-7.86a29.072,29.072,0,0,1-3.09,2.79Zm-.63,4.83v-3.24h-7.5v3.24Zm9.84,0v-3.24h-8.07v3.24Z"/><path class="cls-1" d="M295.51,250.94c-1.29,3-2.31,9.15-2.31,14.07,0,1,.06,2.82.12,4.2v1.44h.12a26.628,26.628,0,0,1,1.77-5.28,4.148,4.148,0,0,0,.24-.6l1.47.69c-1.41,2.94-2.58,6.75-2.58,8.52a3.272,3.272,0,0,0,.06.6l-2.13.21a7.551,7.551,0,0,0-.18-1.11,47.736,47.736,0,0,1-.84-8.91,50.869,50.869,0,0,1,1.56-12.33,13.762,13.762,0,0,0,.33-1.89Zm3,5.58a20.763,20.763,0,0,0,5.4.48c1.17,0,2,0,3.21-.09v-5.1a6.665,6.665,0,0,0-.09-1.23h2.25a30.631,30.631,0,0,0-.21,4.71v1.47a20.44,20.44,0,0,0,5.19-1.11l.09,2c-.06,0-.06,0-2.1.42a28.668,28.668,0,0,1-3.18.48c0,3,.09,4.5.33,8.49a21.721,21.721,0,0,1,5,2.94c.36.24.42.3.75.51l-.93,2.1a16.2,16.2,0,0,0-4.26-3.12,1.938,1.938,0,0,1-.3-.18l-.27-.18a4.251,4.251,0,0,1,.06.78,5.18,5.18,0,0,1-.36,2c-.72,1.59-2.55,2.52-5,2.52-3.48,0-5.67-1.65-5.67-4.26s2.37-4.26,5.7-4.26a8.468,8.468,0,0,1,3.33.6c-.09-.63-.21-3.45-.3-7.83-1.35.06-2.28.09-3.42.09s-2.34,0-3.39-.09a7.965,7.965,0,0,0-1-.06,4.339,4.339,0,0,0-.51,0,1.368,1.368,0,0,0-.3,0h-.12Zm5.76,11.25c-2.34,0-3.87,1-3.87,2.49s1.38,2.43,3.48,2.43a4.13,4.13,0,0,0,3.06-1,3.5,3.5,0,0,0,.57-2.34v-.9a7.754,7.754,0,0,0-3.21-.68Z"/><path class="cls-1" d="M332.64,259.7c2.58,2.25,4.29,6.81,4.29,11.46,0,1.92-.3,3.3-.87,4s-1.32.93-2.79.93c-.93,0-2.19-.09-3.54-.21a5.345,5.345,0,0,0-.48-2,19.908,19.908,0,0,0,3.87.45c1.53,0,1.95-.72,1.95-3.6a18.791,18.791,0,0,0-.12-2.25c-3.18,2.61-7.14,4.59-12.66,6.39a7.631,7.631,0,0,0-1.17-1.68,33.3,33.3,0,0,0,13.52-6.54,13.082,13.082,0,0,0-.84-2.52,38.407,38.407,0,0,1-11.22,5.1,5.688,5.688,0,0,0-1.11-1.65,36.933,36.933,0,0,0,6.87-2.28,25.134,25.134,0,0,0,4.68-2.61,8.327,8.327,0,0,0-1.74-2.1,33.618,33.618,0,0,1-8,3.09,5.977,5.977,0,0,0-1.11-1.59c4.68-1,7.62-2.16,10.47-4.11h-4.41a28.285,28.285,0,0,0-2.91.15v-1.92a17.934,17.934,0,0,0,2.91.18h12.69a14.839,14.839,0,0,0,2.94-.18v1.92a28.306,28.306,0,0,0-2.94-.15h-3.28a26.329,26.329,0,0,0,1.8,5.61,18.532,18.532,0,0,0,4.59-4.47l1.68,1.38a23.025,23.025,0,0,0-1.8,1.62,36.14,36.14,0,0,1-3.66,3,19.384,19.384,0,0,0,7.92,7.68,9.446,9.446,0,0,0-1.47,1.68,25.428,25.428,0,0,1-4.86-4.17,25.1,25.1,0,0,1-5.13-9.48c-.24-.78-.36-1.26-.75-2.88h-.9a16.228,16.228,0,0,1-2.16,1.62Zm.6-8.76a7.868,7.868,0,0,0-.21-1.86h2.34a9.454,9.454,0,0,0-.18,1.83v1h8.88a29.455,29.455,0,0,0,3-.12,11.737,11.737,0,0,0-.12,2v1.86a12.865,12.865,0,0,0,.12,2h-1.95v-4.11H323.97v4.11h-1.95a14.045,14.045,0,0,0,.12-2.07v-1.83a13.115,13.115,0,0,0-.12-2,28.891,28.891,0,0,0,3,.12h8.25Z"/><path class="cls-1" d="M353.24,268.07a22.018,22.018,0,0,0,3.09.18h20.46a21.566,21.566,0,0,0,3.09-.18v2.13a22.684,22.684,0,0,0-3.06-.18H356.33a22.481,22.481,0,0,0-3.09.18Zm10.5,3.69c-2.79,2.37-4.56,3.3-8.7,4.53a6.409,6.409,0,0,0-1.35-1.68,22.587,22.587,0,0,0,5.25-1.74,13.8,13.8,0,0,0,3.12-2.19Zm8.9-21.27a23.809,23.809,0,0,0,3.09-.15,17.84,17.84,0,0,0-.15,2.94v9.93a18.573,18.573,0,0,0,.15,3c-1-.09-2-.15-3.18-.15h-12c-1.14,0-2.19.06-3.18.15a20.2,20.2,0,0,0,.15-3.09v-10a17.963,17.963,0,0,0-.15-2.82,26.557,26.557,0,0,0,3.36.15Zm-13.29,1.65v2.91h14.29v-2.91Zm0,4.53v3h14.29v-3Zm0,4.65v3.12h14.29v-3.12Zm11.29,9.33c2.61,1.92,4.44,2.7,8.76,3.81a10.586,10.586,0,0,0-1.32,1.74,25.216,25.216,0,0,1-9.09-4.44Z"/><path class="cls-1" d="M399.64,262.7a2.46,2.46,0,1,1-2.46-2.46A2.46,2.46,0,0,1,399.64,262.7Z"/><path class="cls-1" d="M435.08,267.47a21.663,21.663,0,0,0,3.18-.15v2a22.231,22.231,0,0,0-3.18-.15h-6.36v4.23h8.82a22.826,22.826,0,0,0,3.75-.21v2.1a32.483,32.483,0,0,0-3.87-.18H418.7a32.7,32.7,0,0,0-3.87.18v-2.1a23.191,23.191,0,0,0,3.78.21h8.22v-4.25h-5.76a22.073,22.073,0,0,0-3.21.15v-2a21.259,21.259,0,0,0,3.21.15h5.76V267a14.917,14.917,0,0,0-.19-2.35h2.25a14.358,14.358,0,0,0-.18,2.37v.45Zm-8.34-16.44a11.758,11.758,0,0,0-.18-2h2.31a10.735,10.735,0,0,0-.18,2v.78h7.83a34.393,34.393,0,0,0,4-.12,13.547,13.547,0,0,0-.12,2.13v1.5a13.115,13.115,0,0,0,.12,2h-2v-3.87h-21v3.87h-2v-.36a13.964,13.964,0,0,0,.09-1.71v-1.59a15.188,15.188,0,0,0-.12-2q1.855.153,3.72.12h7.47Zm-4.44,7a24.213,24.213,0,0,0-3.51.15v-1.92a22.991,22.991,0,0,0,3.42.15h11.64a23.813,23.813,0,0,0,3.45-.15v1.92a23.828,23.828,0,0,0-3.42-.15h-7.71a29.466,29.466,0,0,1-2.43,4.17c3.33-.09,5.85-.24,10-.54a29.35,29.35,0,0,0-2.76-2.16l1.44-.93a52.245,52.245,0,0,1,6.36,5.37l-1.44,1.23a24.2,24.2,0,0,0-2.07-2.13c-5.34.45-11.49.81-17.07,1a7.032,7.032,0,0,0-1.14.12l-.3-1.92q.927.091,1.86.09c1,0,1.68,0,3.12-.06a28.146,28.146,0,0,0,2.46-4.26Z"/><path class="cls-1" d="M460.64,255.32c-.06.57-.09.78-.18,1.29a18.006,18.006,0,0,0,3,5.31,20.133,20.133,0,0,0,5.94,4.74,6.5,6.5,0,0,0-1.32,1.74c-4.08-2.64-6.78-5.61-8.25-9.12a13.927,13.927,0,0,1-1.68,3.78c-1.44,2.22-3,3.66-6.24,5.61a5.675,5.675,0,0,0-1.35-1.53,15.556,15.556,0,0,0,5.19-4,14.093,14.093,0,0,0,2.94-7.8h-8.64v17.49a22.059,22.059,0,0,0,.15,3.33h-2.34a20.842,20.842,0,0,0,.21-3.33V256.07a22.541,22.541,0,0,0-.12-2.7,23.494,23.494,0,0,0,3,.15h7.95c.06-1,.06-1.38.06-2.49a10.175,10.175,0,0,0-.21-2.16h2.34a8.618,8.618,0,0,0-.21,2.16c0,1.35-.06,1.77-.09,2.49h8.25a23.866,23.866,0,0,0,3-.15,21.553,21.553,0,0,0-.12,2.64v17.34c0,1.89-.63,2.25-3.81,2.25-1,0-2.19-.06-3.42-.15a6.951,6.951,0,0,0-.48-2.07,21.891,21.891,0,0,0,4.11.39c1.41,0,1.62-.09,1.62-.78V255.32Z"/><path class="cls-1" d="M478.8,254.45a16.524,16.524,0,0,0,2.61.18h7.23a14.618,14.618,0,0,0,2.61-.18v2a16.045,16.045,0,0,0-2.61-.15h-7.26a17.383,17.383,0,0,0-2.58.15Zm1.41-4.08a13.721,13.721,0,0,0,2.43.15h4.89a13.238,13.238,0,0,0,2.37-.15v1.89a18.4,18.4,0,0,0-2.37-.12h-4.89a18.262,18.262,0,0,0-2.43.12Zm0,8.31a13.452,13.452,0,0,0,2.16.12h5.34a13.547,13.547,0,0,0,2.13-.12v1.83a15.163,15.163,0,0,0-2.13-.12h-5.34a14.442,14.442,0,0,0-2.16.12Zm0,4.14a13,13,0,0,0,2.16.12h5.34a13.547,13.547,0,0,0,2.13-.12v1.83a14.046,14.046,0,0,0-2.13-.12h-5.34a14.181,14.181,0,0,0-2.16.12Zm2.13,13.5h-2a20.4,20.4,0,0,0,.18-2.88v-4a15.335,15.335,0,0,0-.15-2.46,13.655,13.655,0,0,0,2.1.12h5.49a19.082,19.082,0,0,0,2-.09,16.882,16.882,0,0,0-.12,2.4v4a15.554,15.554,0,0,0,.18,2.55h-2v-1.17h-5.7Zm0-3.15h5.76v-4.44h-5.76Zm15-20.49a21.689,21.689,0,0,0-.21-3.33h2.37a21.318,21.318,0,0,0-.21,3.33v6.06h2.85a28.122,28.122,0,0,0,3.6-.18v2.16a30.933,30.933,0,0,0-3.6-.18h-2.85V272a27.108,27.108,0,0,0,.24,4.29h-2.4a30.746,30.746,0,0,0,.21-4.29V260.54h-2.7a29.228,29.228,0,0,0-3.45.18v-2.16a26.165,26.165,0,0,0,3.45.18h2.64Z"/><path class="cls-1" d="M528.95,255.53a19.541,19.541,0,0,0,2.49-.12,15.47,15.47,0,0,0-.12,2.13v10.68a15.351,15.351,0,0,0,.12,2.1,21.793,21.793,0,0,0-2.58-.12h-9.84a21.793,21.793,0,0,0-2.58.12,15.351,15.351,0,0,0,.12-2.1V257.54a15.47,15.47,0,0,0-.12-2.13,19.915,19.915,0,0,0,2.49.12h4v-3.66h-9.06a25.5,25.5,0,0,0-3.15.18v-2.07a22.559,22.559,0,0,0,3.15.18h20.22a23.69,23.69,0,0,0,3.15-.18v2.07a24.745,24.745,0,0,0-3.15-.18h-9.36v3.66Zm7.74.69a23.128,23.128,0,0,0-.18,3.09v13.53a26.723,26.723,0,0,0,.18,3.6h-2.05v-1.71H513.47v1.71h-2.1a27.177,27.177,0,0,0,.18-3.63v-13.5a22.481,22.481,0,0,0-.18-3.09h2.27a17.344,17.344,0,0,0-.18,2.88v13.92h21.18v-14a18.361,18.361,0,0,0-.18-2.85Zm-18.39.93v4.56h4.65v-4.56Zm0,6.15v5.35h4.65v-5.31Zm6.45-1.59h4.83v-4.56h-4.83Zm0,6.9h4.83V263.3h-4.83Z"/><path class="cls-1" d="M542.64,268.13a30.583,30.583,0,0,1,6,6.36l-1.68,1.59a29.952,29.952,0,0,0-5.91-6.54Z"/><path class="cls-1" d="M572.09,260.99a12.156,12.156,0,0,0,2.31.15h1.24a14.171,14.171,0,0,0,2.31-.15,22.4,22.4,0,0,0-.15,3.15v5.94a5.049,5.049,0,0,0,2.4,2.58c1.35.72,3.36,1,6.66,1a106.974,106.974,0,0,0,12.93-.6,6.474,6.474,0,0,0-.69,2.22c-3.48.12-7.68.21-11.37.21-4.56,0-6.6-.33-8.4-1.41a7.222,7.222,0,0,1-2.52-2.52,21.5,21.5,0,0,1-3.3,3.06c-.33.3-.63.51-1,.9l-1-1.95a15.8,15.8,0,0,0,4.5-3.54v-7.29h-1.68a11.64,11.64,0,0,0-2.19.15Zm2-11.1a35.27,35.27,0,0,1,4.59,5.43l-1.55,1.33a28.389,28.389,0,0,0-4.44-5.55Zm9.09,10a30.981,30.981,0,0,1-.78,5.43,15.286,15.286,0,0,1-2.43,5.64,4.146,4.146,0,0,0-1.38-1.41,15.206,15.206,0,0,0,2.73-7.95,55.828,55.828,0,0,0,.32-6.95,15.224,15.224,0,0,0-2.79.15v-2a17.092,17.092,0,0,0,2.85.18h1.32v-1.23a15.919,15.919,0,0,0-.18-2.58H585a12.964,12.964,0,0,0-.18,2.58v1.23h1a16.748,16.748,0,0,0,2.61-.15v1.89c-.54-.06-1.41-.09-2.37-.09h-2.67a32.832,32.832,0,0,1-.09,3.57h2.16a17.136,17.136,0,0,0,2.46-.12,16.465,16.465,0,0,0-.12,2.22,37.9,37.9,0,0,1-1,9.42c-.39,1.26-1,1.62-2.64,1.62a13.708,13.708,0,0,1-1.62-.09,6.214,6.214,0,0,0-.3-1.86,8.119,8.119,0,0,0,1.86.27c.75,0,1-.15,1.14-.84a38.764,38.764,0,0,0,.84-9Zm7.38-5.22a19.83,19.83,0,0,1-2,3.18,4.471,4.471,0,0,0-1.53-.93,16.066,16.066,0,0,0,3.3-6.18,6.863,6.863,0,0,0,.3-1.65l2,.39c-1.08,2.79-1.08,2.79-1.38,3.54h5.16a16.334,16.334,0,0,0,2.52-.15v1.92a18.606,18.606,0,0,0-2.52-.12Zm.63,9.78a16.572,16.572,0,0,0-2.67.18v-2a15.907,15.907,0,0,0,2.67.18h1.5a11.8,11.8,0,0,0-.12-2.1h.75a13.622,13.622,0,0,0,2.52-2.22h-3.3a16.9,16.9,0,0,0-2.64.18v-1.86a16.347,16.347,0,0,0,2.67.18h2.88a10.545,10.545,0,0,0,2.07-.12l.93,1c-.27.24-.45.45-.66.66a21.05,21.05,0,0,1-3.36,3v1.26h2.21a15.291,15.291,0,0,0,2.4-.15v1.92a17.849,17.849,0,0,0-2.31-.15h-2.29v5.1c0,.9-.27,1.5-.78,1.74a7.132,7.132,0,0,1-2.16.27,13.3,13.3,0,0,1-1.83-.09,4.917,4.917,0,0,0-.36-1.8,16.2,16.2,0,0,0,2.61.24c.6,0,.78-.15.78-.69v-4.77Z"/><path class="cls-1" d="M604.24,268.07a22.018,22.018,0,0,0,3.09.18h20.46a21.566,21.566,0,0,0,3.09-.18v2.13a22.684,22.684,0,0,0-3.06-.18H607.33a22.481,22.481,0,0,0-3.09.18Zm10.5,3.69c-2.79,2.37-4.56,3.3-8.7,4.53a6.409,6.409,0,0,0-1.35-1.68,22.587,22.587,0,0,0,5.25-1.74,13.8,13.8,0,0,0,3.12-2.19Zm8.9-21.27a23.809,23.809,0,0,0,3.09-.15,17.84,17.84,0,0,0-.15,2.94v9.93a18.573,18.573,0,0,0,.15,3c-1-.09-2-.15-3.18-.15h-12c-1.14,0-2.19.06-3.18.15a20.2,20.2,0,0,0,.15-3.09v-10a17.963,17.963,0,0,0-.15-2.82,26.557,26.557,0,0,0,3.36.15Zm-13.29,1.65v2.91h14.29v-2.91Zm0,4.53v3h14.29v-3Zm0,4.65v3.12h14.29v-3.12Zm11.29,9.33c2.61,1.92,4.44,2.7,8.76,3.81a10.586,10.586,0,0,0-1.32,1.74,25.216,25.216,0,0,1-9.09-4.44Z"/><path class="cls-1" d="M636.16,268.13a30.583,30.583,0,0,1,6,6.36l-1.68,1.59a29.952,29.952,0,0,0-5.91-6.54Z"/><path class="cls-1" d="M676.75,250.94a10.525,10.525,0,0,0-.84,1.53,30.884,30.884,0,0,1-9.51,11.25,6.013,6.013,0,0,0-1.44-1.68,25.461,25.461,0,0,0,7.86-8.1,11.4,11.4,0,0,0,1.62-3.81Zm12.06,25.11c-.75-1.53-1.08-2.1-1.74-3.27-5.19.81-10.65,1.35-16.5,1.68a22.041,22.041,0,0,0-3.42.33l-.51-2.34c.75,0,1.47.06,2,.06h2a65.068,65.068,0,0,0,4.62-9.48,30.855,30.855,0,0,0,1.74-5.16l2.31.69a.636.636,0,0,1-.09.15c-.12.27-.24.57-.48,1.23a111.256,111.256,0,0,1-5.88,12.48,126.944,126.944,0,0,0,13.26-1.23,55.219,55.219,0,0,0-4.53-6.15l1.65-1a74.241,74.241,0,0,1,7.4,10.84Zm-5.7-26a20.246,20.246,0,0,0,3.39,5.94,26.906,26.906,0,0,0,6.6,5.94,6.793,6.793,0,0,0-1.41,1.83,30.681,30.681,0,0,1-10.14-12,6.106,6.106,0,0,0-.45-.84Z"/><path class="cls-1" d="M704.97,252.65a16.314,16.314,0,0,0-.21-3.09h2.34a19.958,19.958,0,0,0-.18,3.09v2.79h7.86v-2.79a18.093,18.093,0,0,0-.18-3.12h2.37a18.577,18.577,0,0,0-.21,3.09v2.76h3.21a23.474,23.474,0,0,0,3.18-.18v2.13a26.805,26.805,0,0,0-3.18-.15h-3.21v7.59h3.88a28.311,28.311,0,0,0,3.6-.21v2.25a29.449,29.449,0,0,0-3.6-.16H701.19a28.119,28.119,0,0,0-3.48.21v-2.25a22.751,22.751,0,0,0,3.48.21h3.78v-7.59h-2.91a20.326,20.326,0,0,0-3,.15v-2.13a21.807,21.807,0,0,0,3,.18h2.91Zm3.21,16.53a23.3,23.3,0,0,1-4.83,4.65,22.559,22.559,0,0,1-4.11,2.34,5.657,5.657,0,0,0-1.41-1.65,19.989,19.989,0,0,0,4.86-2.58,15.464,15.464,0,0,0,3.78-3.87Zm6.6-4.35v-7.59h-7.86v7.59Zm.45,3.21a15,15,0,0,0,4,4,24.492,24.492,0,0,0,4.86,2.58,5.875,5.875,0,0,0-1.41,1.74,24.985,24.985,0,0,1-5.19-3.15,26.356,26.356,0,0,1-4-4Z"/><path class="cls-1" d="M747.53,256.46v-2.91a20.035,20.035,0,0,0-.09-3h2.34a20.631,20.631,0,0,0-.12,2.79v3.15h2.58a21.791,21.791,0,0,0,3.51-.18v2.28a27.7,27.7,0,0,0-3.48-.15h-2.63c-.06,6.09-.36,8-1.47,10.17a12.688,12.688,0,0,1-4.89,5,22.273,22.273,0,0,1-3.48,1.53,5.367,5.367,0,0,0-1.35-1.89,13.275,13.275,0,0,0,5.73-2.94c2.1-1.89,2.94-3.87,3.21-7.5.06-1,.09-1.89.12-4.32h-9.12v5a16.445,16.445,0,0,0,.12,2.43h-2.43a17.113,17.113,0,0,0,.12-2.52v-4.92h-2.56a27.7,27.7,0,0,0-3.48.15v-2.28a21.791,21.791,0,0,0,3.51.18h2.49v-3.45a17.392,17.392,0,0,0-.12-2.52h2.43a12.992,12.992,0,0,0-.12,2.43v3.54Z"/><path class="cls-1" d="M27.53,308.75a6.8,6.8,0,0,0-1.32,1.26,52.809,52.809,0,0,1-7,6v12.78a19.882,19.882,0,0,0,.15,3.18H16.73a15.661,15.661,0,0,0,.18-3.12v-11.4A46.884,46.884,0,0,1,5.33,322.7a7,7,0,0,0-1.17-2,42.225,42.225,0,0,0,15.57-7.77,25.189,25.189,0,0,0,5.73-5.67Z"/><path class="cls-1" d="M36.95,328.49a26.114,26.114,0,0,0,8.73-2.31c5.79-2.58,9.81-7,12.24-13.35a5.989,5.989,0,0,0,1.83,1.77c-2.4,5.22-5.19,8.73-9.15,11.46-3.09,2.1-6.18,3.33-11.19,4.47a15.753,15.753,0,0,0-1.8.48Zm1.92-18.6a39.087,39.087,0,0,1,7.23,5.64l-1.56,1.86a33.149,33.149,0,0,0-7.14-5.88Z"/><path class="cls-1" d="M65.3,311.45a16.524,16.524,0,0,0,2.61.18h7.23a14.618,14.618,0,0,0,2.61-.18v2a16.038,16.038,0,0,0-2.61-.15H67.88a17.383,17.383,0,0,0-2.58.15Zm1.41-4.08a13.721,13.721,0,0,0,2.43.15h4.89a13.238,13.238,0,0,0,2.37-.15v1.89a18.4,18.4,0,0,0-2.37-.12H69.14a18.262,18.262,0,0,0-2.43.12Zm0,8.31a13.452,13.452,0,0,0,2.16.12h5.34a13.547,13.547,0,0,0,2.13-.12v1.83a15.163,15.163,0,0,0-2.13-.12H68.87a14.442,14.442,0,0,0-2.16.12Zm0,4.14a13,13,0,0,0,2.16.12h5.34a13.547,13.547,0,0,0,2.13-.12v1.83a14.046,14.046,0,0,0-2.13-.12H68.87a14.181,14.181,0,0,0-2.16.12Zm2.13,13.5h-2a20.242,20.242,0,0,0,.18-2.88v-4a15.335,15.335,0,0,0-.15-2.46,13.655,13.655,0,0,0,2.1.12h5.49a19.082,19.082,0,0,0,2-.09,16.882,16.882,0,0,0-.12,2.4v4a15.649,15.649,0,0,0,.18,2.55h-2v-1.17h-5.7Zm0-3.15h5.8v-4.44h-5.8Zm15-20.49a21.689,21.689,0,0,0-.21-3.33H86a21.44,21.44,0,0,0-.21,3.33v6.06h2.85a28.113,28.113,0,0,0,3.6-.18v2.16a30.922,30.922,0,0,0-3.6-.18H85.79V329a27.108,27.108,0,0,0,.24,4.29H83.64a30.746,30.746,0,0,0,.21-4.29V317.54H81.21a29.228,29.228,0,0,0-3.45.18v-2.16a26.165,26.165,0,0,0,3.45.18h2.64Z"/><path class="cls-1" d="M114.2,312.53a19.541,19.541,0,0,0,2.49-.12,15.47,15.47,0,0,0-.12,2.13v10.68a15.351,15.351,0,0,0,.12,2.1,21.793,21.793,0,0,0-2.58-.12h-9.84a21.793,21.793,0,0,0-2.58.12,15.351,15.351,0,0,0,.12-2.1V314.54a15.47,15.47,0,0,0-.12-2.13,19.915,19.915,0,0,0,2.49.12h4v-3.66H99.14a25.5,25.5,0,0,0-3.15.18v-2.07a22.568,22.568,0,0,0,3.15.18h20.22a23.69,23.69,0,0,0,3.15-.18v2.07a24.745,24.745,0,0,0-3.15-.18H110v3.66Zm7.74.69a23.128,23.128,0,0,0-.18,3.09v13.53a26.731,26.731,0,0,0,.18,3.6h-2.1v-1.71H98.72v1.71H96.64a27.177,27.177,0,0,0,.18-3.63v-13.5a22.481,22.481,0,0,0-.18-3.09h2.25a17.344,17.344,0,0,0-.18,2.88v13.92h21.18V316.07a18.361,18.361,0,0,0-.18-2.85Zm-18.39.93v4.56h4.65v-4.56Zm0,6.15v5.35h4.65v-5.31Zm6.45-1.59h4.83v-4.56H110Zm0,6.9h4.83V320.3H110Z"/><path class="cls-1" d="M127.91,325.13a30.607,30.607,0,0,1,6,6.36l-1.68,1.59a29.93,29.93,0,0,0-5.91-6.54Z"/><path class="cls-1" d="M149.64,324.29a15.531,15.531,0,0,0-3,.18V322.4a14.464,14.464,0,0,0,2.88.18H164.1a21.985,21.985,0,0,0,3.12-.18v2.07a21.651,21.651,0,0,0-3-.18h-6.51v5.88h9a22.782,22.782,0,0,0,3.24-.18v2.13a21.671,21.671,0,0,0-3.24-.21H147.25a22.2,22.2,0,0,0-3.33.21v-2.13a24.06,24.06,0,0,0,3.33.18h8.49v-5.88Zm6.06-16.11a9.616,9.616,0,0,0-.21-2.16h2.34a9.064,9.064,0,0,0-.21,2.16v1.47h8.67a25.477,25.477,0,0,0,3-.15,13.518,13.518,0,0,0-.12,2.07v.81a11.539,11.539,0,0,0,.15,2.1h-2v-3.12h-7.14v5.58c0,.45.12.6.51.69a13.611,13.611,0,0,0,2.37.12c3.87,0,3.9,0,4-2.61a6.253,6.253,0,0,0,1.8.66c-.27,3.33-.75,3.63-5.85,3.63-4,0-4.68-.27-4.68-1.8v-6.27h-3.69a8.813,8.813,0,0,1-2,5.73c-1.44,1.62-3.3,2.67-7.23,4a6.3,6.3,0,0,0-1.23-1.71c3.66-.87,5.55-1.83,7-3.54a6.814,6.814,0,0,0,1.59-4.53h-6.13v4.17h-2a14.913,14.913,0,0,0,.15-2.37v-1.59a14.045,14.045,0,0,0-.12-2.07,25.477,25.477,0,0,0,3,.15h8Z"/><path class="cls-1" d="M177.37,329.87a21.693,21.693,0,0,0,.18,3.36h-2.22a22.464,22.464,0,0,0,.18-3.36V310.49a25.934,25.934,0,0,0-.12-3.3,27.61,27.61,0,0,0,3.15.12h4.29a26.5,26.5,0,0,0,3.06-.12c-.06.84-.09,1.74-.09,2.85v3.72a24.894,24.894,0,0,0,.09,2.79c-.81-.06-1.83-.09-3-.09H177.4Zm0-18.69h6.72v-2.4h-6.72Zm0,3.84h6.72v-2.43h-6.72Zm15.75,11.37a23.758,23.758,0,0,0,.09,2.73c-.84-.06-1.83-.09-3.06-.09h-6.57v2.1h-1.86a18.466,18.466,0,0,0,.15-2.82v-6.66a26.9,26.9,0,0,0-.09-2.82,26.833,26.833,0,0,0,3,.12h5.49a26.363,26.363,0,0,0,3-.12c-.06.84-.09,1.62-.09,2.82Zm-9.54-3.27h7.83v-2.67h-7.83Zm0,4.41h7.83v-2.88h-7.83Zm16.08,2.79c0,2-.63,2.49-3.06,2.49-.63,0-2.25-.06-3-.12a6.892,6.892,0,0,0-.54-1.92,32.57,32.57,0,0,0,3.3.3c1.23,0,1.47-.15,1.47-.87V316.46h-6.19a28.386,28.386,0,0,0-3,.09c.06-.78.09-1.68.09-2.79v-3.72c0-1,0-1.95-.09-2.85a26.059,26.059,0,0,0,3.06.12h5a27.61,27.61,0,0,0,3.15-.12,28.411,28.411,0,0,0-.15,3.3Zm-9.21-19.14h7.38v-2.4h-7.38Zm0,3.84h7.38v-2.43h-7.38Z"/><path class="cls-1" d="M205.48,313.79a29.775,29.775,0,0,1,4.95,3.66l-1.2,1.71a20.585,20.585,0,0,0-4.92-3.9Zm5.49,9.69a47.631,47.631,0,0,1-4.08,8.67,6.734,6.734,0,0,0-.33.63l-1.77-1.56c1.65-1.74,3.12-4.59,4.59-8.88Zm-3.54-17.07a28.27,28.27,0,0,1,4.56,4l-1.23,1.53a18.894,18.894,0,0,0-4.59-4.23Zm12.21,22.89a17.719,17.719,0,0,1-7.41,3.78,5.213,5.213,0,0,0-1.2-1.68,19.726,19.726,0,0,0,4.14-1.32,9.767,9.767,0,0,0,3.06-2Zm1.11-21.09a11.707,11.707,0,0,0-.15-2.22h2.16a11.3,11.3,0,0,0-.15,2.22v.6h5.28a29.974,29.974,0,0,0,3.39-.12,17.1,17.1,0,0,0-.09,1.92v1.32a11.862,11.862,0,0,0,.12,1.92h-1.95v-3.42H214.48v3.45h-1.84a15.806,15.806,0,0,0,.09-1.74v-1.56a16.365,16.365,0,0,0-.09-1.93c.57.06,1.71.12,3,.12h5.13Zm-3,6.15a20.587,20.587,0,0,0-2.58.12v-1.83a16.86,16.86,0,0,0,2.58.15h8.22a17.783,17.783,0,0,0,2.67-.15v1.83a21.26,21.26,0,0,0-2.67-.12h-3.42v2.52h4.89a22.132,22.132,0,0,0,2.7-.12,21.764,21.764,0,0,0-.12,2.82v5.25a22.032,22.032,0,0,0,.12,2.79,25.647,25.647,0,0,0-2.88-.12H216.43a22.964,22.964,0,0,0-2.7.12c.06-.9.09-1.38.09-2.7v-5.46a20.529,20.529,0,0,0-.09-2.7,18.776,18.776,0,0,0,2.64.12h4.53v-2.52Zm-2.28,4v2.91h5.4v-2.91Zm0,4.44v3.12h5.4V322.8Zm7.08-1.53h5.79v-2.91h-5.79Zm0,4.65h5.79V322.8h-5.79Zm2.43,2.13a12.787,12.787,0,0,0,3,1.92,18.878,18.878,0,0,0,4.23,1.41,6.816,6.816,0,0,0-1.14,1.71,19.247,19.247,0,0,1-7.53-3.87Z"/><path class="cls-1" d="M247.9,309.02a12.133,12.133,0,0,0-.21-2.73h2.43a13.577,13.577,0,0,0-.21,2.73v7.63h7.89v-5.67a16.36,16.36,0,0,0-.12-2.19h2.25a14.737,14.737,0,0,0-.15,2.28v6a12.463,12.463,0,0,0,.06,1.53c-.6,0-1.29-.06-1.86-.06h-8.07v11h8.94v-5.7a15.9,15.9,0,0,0-.15-2.58h2.28a16.677,16.677,0,0,0-.15,2.67v6.72a14.965,14.965,0,0,0,.18,2.52h-2.16v-1.8h-19.5v1.8h-2.16a15.742,15.742,0,0,0,.18-2.52v-6.6a16.556,16.556,0,0,0-.15-2.67h2.28a15.1,15.1,0,0,0-.15,2.55v5.55h8.55v-11h-7.5c-.54,0-1.23,0-1.86.06,0-.57.06-1,.06-1.53v-5.94a21.243,21.243,0,0,0-.15-2.31h2.25a15.539,15.539,0,0,0-.12,2.22v5.67h7.32Z"/><path class="cls-1" d="M266.64,311.45a16.524,16.524,0,0,0,2.61.18h7.23a14.618,14.618,0,0,0,2.61-.18v2a16.038,16.038,0,0,0-2.61-.15h-7.26a17.383,17.383,0,0,0-2.58.15Zm1.41-4.08a13.721,13.721,0,0,0,2.43.15h4.89a13.238,13.238,0,0,0,2.37-.15v1.89a18.4,18.4,0,0,0-2.37-.12h-4.89a18.262,18.262,0,0,0-2.43.12Zm0,8.31a13.452,13.452,0,0,0,2.16.12h5.43a13.547,13.547,0,0,0,2.13-.12v1.83a15.163,15.163,0,0,0-2.13-.12H270.3a14.442,14.442,0,0,0-2.16.12Zm0,4.14a13,13,0,0,0,2.16.12h5.43a13.547,13.547,0,0,0,2.13-.12v1.83a14.046,14.046,0,0,0-2.13-.12H270.3a14.181,14.181,0,0,0-2.16.12Zm2.13,13.5h-2a20.242,20.242,0,0,0,.18-2.88v-4a15.335,15.335,0,0,0-.15-2.46,13.655,13.655,0,0,0,2.1.12h5.49a19.082,19.082,0,0,0,2-.09,16.882,16.882,0,0,0-.12,2.4v4a15.649,15.649,0,0,0,.18,2.55h-2v-1.17h-5.7Zm0-3.15h5.76v-4.44h-5.76Zm15-20.49a21.689,21.689,0,0,0-.21-3.33h2.37a21.44,21.44,0,0,0-.21,3.33v6.06h2.85a28.113,28.113,0,0,0,3.6-.18v2.16a30.911,30.911,0,0,0-3.6-.18h-2.84V329a27.108,27.108,0,0,0,.24,4.29h-2.4a30.746,30.746,0,0,0,.21-4.29V317.54h-2.64a29.228,29.228,0,0,0-3.45.18v-2.16a26.165,26.165,0,0,0,3.45.18h2.64Z"/><path class="cls-1" d="M315.58,312.53a19.541,19.541,0,0,0,2.49-.12,15.47,15.47,0,0,0-.12,2.13v10.68a15.351,15.351,0,0,0,.12,2.1,21.793,21.793,0,0,0-2.58-.12h-9.85a21.793,21.793,0,0,0-2.58.12,15.351,15.351,0,0,0,.12-2.1V314.54a15.47,15.47,0,0,0-.12-2.13,19.915,19.915,0,0,0,2.49.12h4v-3.66h-9.06a25.5,25.5,0,0,0-3.15.18v-2.07a22.568,22.568,0,0,0,3.15.18h20.25a23.69,23.69,0,0,0,3.15-.18v2.07a24.745,24.745,0,0,0-3.15-.18h-9.36v3.66Zm7.74.69a23.128,23.128,0,0,0-.18,3.09v13.53a26.731,26.731,0,0,0,.18,3.6h-2.1v-1.71H300.1v1.71H298a27.177,27.177,0,0,0,.18-3.63v-13.5a22.481,22.481,0,0,0-.18-3.09h2.25a17.344,17.344,0,0,0-.18,2.88v13.92h21.18V316.07a18.361,18.361,0,0,0-.18-2.85Zm-18.39.93v4.56h4.65v-4.56Zm0,6.15v5.35h4.65v-5.31Zm6.45-1.59h4.83v-4.56h-4.83Zm0,6.9h4.83V320.3h-4.83Z"/><path class="cls-1" d="M329.29,325.13a30.607,30.607,0,0,1,6,6.36l-1.68,1.59a29.93,29.93,0,0,0-5.91-6.54Z"/><path class="cls-1" d="M348.5,309.83a24.544,24.544,0,0,0-.18-3.33h2.22a24.987,24.987,0,0,0-.18,3.36v4.47h.84a11.347,11.347,0,0,0,2.4-.15v2a18.613,18.613,0,0,0-2.43-.12h-.81v9.42c1.29-.6,1.83-.87,3.39-1.74l.18,1.83a57.883,57.883,0,0,1-7.74,3.66c-.42.15-.87.36-1.2.51l-.51-2.07a16.915,16.915,0,0,0,4-1.35V316.06h-1.11a11.385,11.385,0,0,0-2.52.18v-2a11.031,11.031,0,0,0,2.52.18h1.11Zm9.18,19.44c0,.72.18,1,.9,1.14a21.823,21.823,0,0,0,4.83.27c4.23,0,5.49-.18,6-.87s.6-1.92.63-4.05a5.505,5.505,0,0,0,1.92.78c-.36,5.55-.9,5.91-8.7,5.91-6.21,0-7.44-.45-7.44-2.79v-11l-.66.21a16.534,16.534,0,0,0-2.49,1l-.54-2a11.579,11.579,0,0,0,2.61-.6l1.08-.36V312.2a21.744,21.744,0,0,0-.18-3.06h2.25a21.2,21.2,0,0,0-.18,3v4.2L362,314.9v-5.55a18.866,18.866,0,0,0-.18-2.79h2.22a20,20,0,0,0-.18,2.82v4.92l4.62-1.53a21.685,21.685,0,0,0,2.37-.93c-.12,3-.24,5.1-.48,8-.21,2.67-.6,3.93-1.38,4.38a4.105,4.105,0,0,1-2.16.42,8.99,8.99,0,0,1-1.32-.09,6.988,6.988,0,0,0-.45-1.89,10.751,10.751,0,0,0,2.31.27c.69,0,.84-.15,1-1a60.556,60.556,0,0,0,.48-7.59l-5,1.71v8.28a19.534,19.534,0,0,0,.18,2.88h-2.22a19.666,19.666,0,0,0,.18-2.91v-7.62l-4.29,1.44Z"/><path class="cls-1" d="M378.89,309.77a24.592,24.592,0,0,0-.18-3.3h2.19a20.686,20.686,0,0,0-.18,3.3v4.59h.57a18.49,18.49,0,0,0,2.49-.12v1.92a18.49,18.49,0,0,0-2.49-.12h-.57v8.88a28.407,28.407,0,0,0,3.21-1.83l.15,1.89a78.15,78.15,0,0,1-7.44,3.84,6.151,6.151,0,0,0-1,.51l-.6-2a24.028,24.028,0,0,0,3.84-1.5v-9.75h-.87a21.654,21.654,0,0,0-2.52.15v-2a16.61,16.61,0,0,0,2.58.15h.81Zm14.34,16.88c-2.67.87-4.53,1.38-8.25,2.28-.66.18-1.47.39-1.86.51l-.48-2c1.65,0,6.45-1.11,10.56-2.43Zm-6.48-13.74a31.267,31.267,0,0,0-3.18.15v-2a21.53,21.53,0,0,0,3.21.18h7.32a33.966,33.966,0,0,0-.24-5h2.22a16.222,16.222,0,0,0-.18,3.09v1.89h3.06a20.6,20.6,0,0,0,3.12-.18v2a31.716,31.716,0,0,0-3.18-.15h-2.94a51.992,51.992,0,0,0,1.17,9.78,22.019,22.019,0,0,0,2.34-6.6l1.95.66c-.3.72-.39.93-.66,1.74a34.03,34.03,0,0,1-3,6.51c1,3,2.16,5.28,2.94,5.55.48-.42.81-1.92.87-4.14a5.409,5.409,0,0,0,1.59,1.14,12.3,12.3,0,0,1-1,4.26c-.39.72-.87,1.08-1.38,1.08-1.41,0-3.15-2.37-4.38-5.94a23.066,23.066,0,0,1-6.78,6.06,5.091,5.091,0,0,0-1.47-1.41,20.129,20.129,0,0,0,7.65-6.69,49.736,49.736,0,0,1-1.68-12Zm-1.77,4.38c0-.66-.06-1.35-.09-1.86a15.535,15.535,0,0,0,2,.09h3.54a19.082,19.082,0,0,0,2-.09,10.566,10.566,0,0,0-.06,1.53v5a13.075,13.075,0,0,0,.06,1.77c-.63-.06-1.29-.09-2.13-.09h-3.48a15.183,15.183,0,0,0-2,.09,16.453,16.453,0,0,0,.09-1.83Zm1.71,4.8h4.05v-5h-4.05Zm13.68-11.49a14.212,14.212,0,0,0-3.48-3l1.17-1a19.917,19.917,0,0,1,3.54,2.79Z"/><path class="cls-1" d="M407.09,314.12a26.517,26.517,0,0,1,5.52,3.45l-1.05,1.74a24.124,24.124,0,0,0-5.52-3.72Zm5.82,9.69a56.04,56.04,0,0,1-5,8.94l-1.71-1.56a8,8,0,0,0,.93-1,30.261,30.261,0,0,0,4.23-7.56Zm-4.5-17.25a35.54,35.54,0,0,1,5.16,4l-1.17,1.59a31.482,31.482,0,0,0-5.22-4.2Zm13.86,3.78a59.992,59.992,0,0,1-6.87.75,5.873,5.873,0,0,0-.78-1.83,54.458,54.458,0,0,0,12.69-1.71,14.025,14.025,0,0,0,3.45-1.2l1.38,1.8-1,.27c-1.74.51-4.08,1.05-7,1.59v5.19h5.85a20.6,20.6,0,0,0,3.06-.18v2.13a22.048,22.048,0,0,0-3.06-.18h-5.85v5.1h4.8a14.39,14.39,0,0,0,2.31-.12,19.756,19.756,0,0,0-.12,2.73v5.7a23.193,23.193,0,0,0,.15,2.91h-2v-1.71H417.64v1.71h-2a20.064,20.064,0,0,0,.15-2.94v-5.76a22.815,22.815,0,0,0-.12-2.64,14.576,14.576,0,0,0,2.19.12h4.41v-5.1h-5.7a22.126,22.126,0,0,0-3,.18v-2.13a20.2,20.2,0,0,0,3,.18h5.7Zm-4.63,19.47h11.61v-6H417.64Z"/><path class="cls-1" d="M436.58,319.76a26.083,26.083,0,0,0,1.47-7.86l1.59.27a33.036,33.036,0,0,1-1.5,8.22Zm3.87,13.68a24.87,24.87,0,0,0,.21-3.45V309.08a19.81,19.81,0,0,0-.21-3h2.34a19.064,19.064,0,0,0-.21,3v21a22.074,22.074,0,0,0,.21,3.33Zm4.17-17.07a15.456,15.456,0,0,0-1.26-4.62l1.38-.54a23.953,23.953,0,0,1,1.38,4.59Zm4.5-1.92a22.537,22.537,0,0,1-2.7,5.61,11.8,11.8,0,0,0-1.68-.93,20.762,20.762,0,0,0,3.57-8.55,13.947,13.947,0,0,0,.27-2.34l2.07.42a11.536,11.536,0,0,0-.48,2c-.15.75-.3,1.29-.51,2.1h3.87v-3.6a19.555,19.555,0,0,0-.21-3h2.32a18.712,18.712,0,0,0-.21,3v3.6h4.65a18.149,18.149,0,0,0,3.09-.18v2.07a26.973,26.973,0,0,0-3.06-.18h-4.68v6.18h4.08a19.932,19.932,0,0,0,3-.18v2a21.151,21.151,0,0,0-3.06-.18H455.4v7.89h5.1a23.828,23.828,0,0,0,3.27-.18v2.13a21.544,21.544,0,0,0-3.27-.21H448.19a21.544,21.544,0,0,0-3.27.21V330a23.828,23.828,0,0,0,3.27.18h5.34v-7.89h-3.3a21.439,21.439,0,0,0-3.06.18v-2a18.637,18.637,0,0,0,2.91.18h3.45v-6.24Z"/><path class="cls-1" d="M472.58,320.15c0-1.68,0-2.07.06-3.66a24.173,24.173,0,0,1-3.81,5,10.9,10.9,0,0,0-1.29-1.74,28.091,28.091,0,0,0,6.78-10.11,13.366,13.366,0,0,0,1-3.6l2.22.63c-.12.3-.12.3-.63,1.68-.27.69-1.29,3.09-2.4,5.58v15.72c0,1.17.06,2.4.18,3.63h-2.34a35.554,35.554,0,0,0,.21-3.72Zm10.11,9.06c0,1,.45,1.2,3.93,1.2s4.56-.18,5-.72.78-2.25,1-5.49a6.846,6.846,0,0,0,2,.93c-.36,3.3-.78,5-1.41,5.88s-2.22,1.26-6.72,1.26c-5,0-5.79-.36-5.79-2.7V309.65a28.3,28.3,0,0,0-.18-3.24h2.34a23.4,23.4,0,0,0-.18,3.24v8.49a40.808,40.808,0,0,0,5.25-3.45,21.143,21.143,0,0,0,4.29-4.17l1.74,1.59c-.42.36-.42.36-1.83,1.65a47.859,47.859,0,0,1-9.45,6.57Z"/><path class="cls-1" d="M509.24,307.1a9.4,9.4,0,0,0-.48,1.92c-.21,1-.39,1.74-.81,3.27a25.017,25.017,0,0,0,5.37-1l.09,2.07-1,.18a36.193,36.193,0,0,1-4.92.63,55.955,55.955,0,0,1-3.33,8.76c-.72,1.44-1,2-2.13,3.93-.27.42-.45.78-.6,1l-2-1.2a26.448,26.448,0,0,0,2.88-4.68,44.936,44.936,0,0,0,3.12-7.74c-.75,0-1.77.06-2.22.06h-3.05v-2.07a18.967,18.967,0,0,0,3.57.24h2.16a30.92,30.92,0,0,0,1-5.64Zm14.25,23.28a17.169,17.169,0,0,0-5.25-4.08,6.2,6.2,0,0,1,.06,1c0,3.09-2,4.8-5.7,4.8s-5.85-1.68-5.85-4.35a4.25,4.25,0,0,1,2.79-3.81,8.783,8.783,0,0,1,3.54-.66,9.909,9.909,0,0,1,3,.45c-.15-2-.21-3.36-.21-4.11a12.115,12.115,0,0,1,.3-2.91l2,.21a9.215,9.215,0,0,0-.39,2.79,35.858,35.858,0,0,0,.33,4.56,21.572,21.572,0,0,1,5.88,3.63,3.008,3.008,0,0,0,.54.48Zm-10.56-5.37c-2.55,0-4.17,1.05-4.17,2.7s1.44,2.46,3.81,2.46c2.58,0,3.75-1,3.75-3.27,0-.36-.06-1.29-.06-1.29A8.9,8.9,0,0,0,512.93,325.01Zm10.53-8.16a32.559,32.559,0,0,0-8-4.08l1.11-1.68a41.3,41.3,0,0,1,7.92,4Z"/><path class="cls-1" d="M539.3,307.31a54.653,54.653,0,0,0,2.25,9.93c1.65-.69,2.64-1.08,7.26-2.67a13.6,13.6,0,0,0,1.92-.81l.9,2.28a79.383,79.383,0,0,0-9,2.91c-5.13,2.07-7.35,4-7.35,6.54,0,2.7,2.31,3.78,8.19,3.78a29.815,29.815,0,0,0,8.58-1l.24,2.49a7.948,7.948,0,0,0-.9,0h-.3l-1,.12a60.191,60.191,0,0,1-6.63.39,20.431,20.431,0,0,1-6.66-.81c-2.46-.9-3.72-2.55-3.72-4.92a6.492,6.492,0,0,1,2.67-5.1,18.664,18.664,0,0,1,3.93-2.46,60.694,60.694,0,0,1-2.19-8.37,12.994,12.994,0,0,0-.51-1.92Zm10.14-.45a24.05,24.05,0,0,1,3.09,4.65l-1.53.9a23.377,23.377,0,0,0-3.06-4.77Zm3.36-1.65a23.981,23.981,0,0,1,3.12,4.68l-1.5.84a25.153,25.153,0,0,0-3.06-4.71Z"/><path class="cls-1" d="M569.39,312.65a34.813,34.813,0,0,1,4,2.7,28.483,28.483,0,0,0,5.7-5.52h-8.13a31.824,31.824,0,0,1-8.58,6,5.777,5.777,0,0,0-1.17-1.5,27.188,27.188,0,0,0,8.88-6.09,10.9,10.9,0,0,0,2.1-2.73l2.16.54c-.27.33-.3.33-1,1.14-.36.42-.48.57-1,1.11h5.7a21.862,21.862,0,0,0,2.79-.15l1,1.14a41.143,41.143,0,0,1-2.7,3.21,39.15,39.15,0,0,1-8.46,6.84,42.59,42.59,0,0,1-8.64,3.87,5.515,5.515,0,0,0-1.05-1.77,34.016,34.016,0,0,0,10.77-5,23.365,23.365,0,0,0-3.84-2.7Zm6,8a29.624,29.624,0,0,1-9.81,5.73,5.47,5.47,0,0,0-1.14-1.62,27.881,27.881,0,0,0,9.42-5,14.291,14.291,0,0,0,3.27-3.6l2,.75c-1.29,1.47-1.38,1.56-2,2.22h5.31a22.148,22.148,0,0,0,2.82-.15l1.08,1.17-.87,1.11a27.615,27.615,0,0,1-8.79,7.89c-3.42,2-6.51,3.12-12.18,4.53a6.674,6.674,0,0,0-1.08-1.89,34.816,34.816,0,0,0,12.75-4.47,19.092,19.092,0,0,0-4-2.85l1.53-1.11a36.751,36.751,0,0,1,4.11,2.91,25.825,25.825,0,0,0,5.76-5.58Z"/><path class="cls-1" d="M595.58,309.65a21.95,21.95,0,0,0-.18-3.18h2.1a20.872,20.872,0,0,0-.18,3.18V326.3h2.32V313.76a26.367,26.367,0,0,0-.15-3h2a21.181,21.181,0,0,0-.15,3v12.45a30.892,30.892,0,0,0,.12,3.36h-1.82v-1.62h-6.33v2.61h-1.87a23.474,23.474,0,0,0,.18-3.18V313.7a29.469,29.469,0,0,0-.15-3h2a20.888,20.888,0,0,0-.15,3v12.57h2.25Zm9.9,2.79a22.722,22.722,0,0,0-3.15.18v-2.07a21,21,0,0,0,3.12.18h3.3v-1.5a20.2,20.2,0,0,0-.18-3h2.19a19.546,19.546,0,0,0-.18,3v1.5h4.26a21.55,21.55,0,0,0,3.12-.18v2.1a22.17,22.17,0,0,0-3.09-.18h-4.29v4.56h2.73a11.562,11.562,0,0,0,2.07-.12l1,1.11c-.21.39-.24.48-.6,1.26a24.515,24.515,0,0,1-4.74,7.68,19.782,19.782,0,0,0,7.44,4.59,8.53,8.53,0,0,0-1.08,1.89,24.407,24.407,0,0,1-7.65-5.16,26.251,26.251,0,0,1-8.46,5.1,7.151,7.151,0,0,0-1.17-1.8,22.647,22.647,0,0,0,8.37-4.68,18.671,18.671,0,0,1-2.79-4.26,19.356,19.356,0,0,1-1.56-3.93,11.6,11.6,0,0,0-1.53.12v-2a18.961,18.961,0,0,0,2.52.15h3.6v-4.56Zm.51,6.24a17.669,17.669,0,0,0,3.81,6.9,20.992,20.992,0,0,0,4.23-6.9Z"/><path class="cls-1" d="M628.16,308.06a42.5,42.5,0,0,0-1.26,4.8,44.326,44.326,0,0,0-.9,9.39c0,2.34.06,4.11.18,5.7a27.872,27.872,0,0,1,2-5.85l1.44.69c-1.35,3-2.43,6.57-2.43,8.25v.45l-2.16.18c-.06-.48-.09-.63-.18-1.2a42.96,42.96,0,0,1-.78-8.49,49.654,49.654,0,0,1,1.35-11.88,16.693,16.693,0,0,0,.42-2.4Zm7.65,12.06c-1.5,1.65-2.25,3.09-2.25,4.41,0,2.22,1.89,3.3,5.76,3.3a19.734,19.734,0,0,0,6.9-1l.3,2.31a5.15,5.15,0,0,0-1,.15,30.973,30.973,0,0,1-6.15.6c-3.42,0-5.58-.72-6.87-2.28a4.243,4.243,0,0,1-.9-2.76c0-1.83.75-3.45,2.61-5.58ZM632,311.24a20.368,20.368,0,0,0,5.1.45,32.224,32.224,0,0,0,8-.81l.15,2.13-2.07.27a50.75,50.75,0,0,1-6.45.39,40.114,40.114,0,0,1-4.8-.3Z"/><path class="cls-1" d="M653,324.5a22.173,22.173,0,0,0,2.58-2.22c1-1,1-1,2-1.89.48-.45.48-.45.87-.78.06-2.49.06-2.76.15-5.31l-1.53.09a26.094,26.094,0,0,0-3.3.36l-.13-2.1h.84c.45,0,1.71-.06,4.17-.24.09-1.86.12-3,.12-4.17a5.4,5.4,0,0,0-.09-1.17h2.37a18.8,18.8,0,0,0-.3,3.48,13.707,13.707,0,0,1-.06,1.71,1.744,1.744,0,0,0,.69-.18l.78,1a8.881,8.881,0,0,0-1.59,2c-.09,2-.15,3-.15,3h.06l.09-.09a16.419,16.419,0,0,1,1.74-1.53,11.683,11.683,0,0,1,7.59-3c4.77,0,8.07,3.21,8.07,7.8,0,5.43-3.6,9-9.06,9a15.137,15.137,0,0,1-5.1-.9,3.945,3.945,0,0,0,0-.51,7.357,7.357,0,0,0-.24-1.74,13.131,13.131,0,0,0,5.31,1.17,6.679,6.679,0,0,0,6-3.39,7.581,7.581,0,0,0,.84-3.6,5.5,5.5,0,0,0-5.1-5.872,5.736,5.736,0,0,0-.629-.008c-2.94,0-5.64,1.41-9.57,5,0,9,0,10.53.18,11.91h-2.37c.15-.93.15-.93.15-5.67a37.392,37.392,0,0,1,.09-4.62h-.06a8.417,8.417,0,0,1-1.56,1.65,25.61,25.61,0,0,0-2.7,2.85Z"/><path class="cls-1" d="M684.8,312.26a20.652,20.652,0,0,0,3.75.27c.6,0,.93,0,1.8-.06a29.373,29.373,0,0,0,.66-5.52l2.37.24a28.115,28.115,0,0,0-.54,2.85c-.15,1-.24,1.38-.39,2.28a24.731,24.731,0,0,0,5.4-1l.15,2.07a2.574,2.574,0,0,0-.84.15,43.75,43.75,0,0,1-5.07.72c-.45,2.37-1.29,5.76-2.1,8.49a79.015,79.015,0,0,1-3.45,9.15l-2.19-.93c2.22-3.87,4.53-10.71,5.64-16.59h-2.07c-1.07,0-1.32,0-2.49-.06h-.12a4.339,4.339,0,0,0-.51,0Zm13.41,10.89a10.086,10.086,0,0,0-.9,1.14,3.615,3.615,0,0,0-.75,2.13c0,1.8,1.83,2.76,5.25,2.76a22.276,22.276,0,0,0,6.63-1l.21,2.25-1.32.21a29.988,29.988,0,0,1-5.34.51c-4.92,0-7.47-1.53-7.47-4.5,0-1.35.42-2.28,2-4.32Zm9.27-5.19a30.134,30.134,0,0,0-3.54-.21,26.121,26.121,0,0,0-7.5,1l-.21-2a34.036,34.036,0,0,1,7.95-1c.57,0,1,0,3.27.09Z"/><path class="cls-1" d="M719.33,308.75a13.867,13.867,0,0,0,2.82.18c2.49,0,6.48-.18,9.18-.39a3.062,3.062,0,0,0,1.44-.33l1.26,1.65a5.532,5.532,0,0,0-1.53,1.26,76.981,76.981,0,0,1-9.86,8.53l.06.09a15.2,15.2,0,0,1,7.35-1.86c5,0,8.22,2.46,8.22,6.3,0,4.68-4.35,7.77-11,7.77-4.23,0-6.66-1.56-6.66-4.32,0-2,1.86-3.51,4.35-3.51a6,6,0,0,1,5,2.46,8.586,8.586,0,0,1,1.38,2.88c3.15-.87,4.8-2.7,4.8-5.25,0-2.88-2.4-4.59-6.45-4.59a19.25,19.25,0,0,0-12.63,5.13l-1.35-1.92a33.483,33.483,0,0,0,4.2-3.06c3.21-2.55,7.95-6.72,10-8.76l.42-.42.12-.12.12-.12-.06-.06h-.27c-1,.18-4.56.39-9.12.54a14.666,14.666,0,0,0-1.62.15Zm5.64,17.07c-1.5,0-2.43.72-2.43,1.86a2,2,0,0,0,1.2,1.83,7.675,7.675,0,0,0,3.36.69,10.809,10.809,0,0,0,2.19-.21c-.65-2.73-2.16-4.17-4.32-4.17Z"/><path class="cls-1" d="M753.64,328.55a4.49,4.49,0,1,1,0-.02Zm-7.29,0a2.8,2.8,0,1,0-.02,0h.02Z"/></g></g></svg>