<svg xmlns="http://www.w3.org/2000/svg" viewBox="0 0 752.974 333.41"><defs><style>.cls-1{fill:#fff;}.cls-2{fill:#2c8ac8;}.cls-3{fill:#231815;}</style></defs><g id="レイヤー_2" data-name="レイヤー 2"><g id="レイヤー_1-2" data-name="レイヤー 1"><path class="cls-1" d="M69.28,28.29V60.04l-34.64,20L0,60.04V56.53c.37-.36.74-.7,1.11-1,4.79-4.23,9.67-6.74,14.52-7.46v8.51h3.38V47.86a22.581,22.581,0,0,1,6,1.11,24,24,0,0,0,8,1.23v6.38H36.4V49.85c4.74-.84,8.6-3.1,13.94-6.62V56.58h3.3V40.94A122.274,122.274,0,0,0,69.28,28.29Z"/><path class="cls-2" d="M69.28,20.04v3.52l-1.19,1.18A118.646,118.646,0,0,1,53.64,36.82V23.75H50.27V39.13c-6.29,4.19-9.82,6.39-13.94,7.25V40.04H32.94v6.74a20.669,20.669,0,0,1-7-1.1,25.459,25.459,0,0,0-6.92-1.23V33.95H15.64V44.62C10.35,45.3,5.1,47.77.01,52V20L34.65,0Z"/><path class="cls-3" d="M69.28,23.56v4.73A122.274,122.274,0,0,1,53.64,40.94V56.55H50.27V43.2c-5.34,3.52-9.2,5.78-13.94,6.62v6.73H32.94V50.17a24,24,0,0,1-8-1.23,22.581,22.581,0,0,0-6-1.11v8.72h-3.3V48.04c-4.85.72-9.73,3.23-14.52,7.46-.37.33-.74.67-1.11,1V51.97c5.09-4.23,10.34-6.7,15.63-7.38V33.95h3.38v10.5a25.425,25.425,0,0,1,6.91,1.24,20.669,20.669,0,0,0,7,1.1V40.05h3.39v6.34c4.12-.86,7.65-3.06,13.94-7.25V23.75h3.38V36.82A118.641,118.641,0,0,0,68.08,24.74Z"/><path class="cls-1" d="M120.43,32.61a4,4,0,0,0,2.43.64c1.71,0,7.86-.64,11.81-1.25a6.545,6.545,0,0,0,2.44-.84,1.639,1.639,0,0,1,.91-.26c.72,0,2.13.87,3.49,2.2,1,1,1.37,1.52,1.37,2.13,0,.42-.11.6-.61,1.14a5.552,5.552,0,0,0-.95,2.43c-.34,1.4-.42,1.67-1.44,6-.27,1.14-.46,2-.61,2.63,1.41,1,2.13,1.93,2.13,2.77,0,.68-.42,1.06-1.22,1.06a10.167,10.167,0,0,1-1.78-.19,27.652,27.652,0,0,0-3.23-.15c-4.75,0-9.69.87-12.46,2.17a3.488,3.488,0,0,1-.92.19c-1.71,0-4.37-3.31-4.37-5.47a4.839,4.839,0,0,1,.12-.88c1.18,1.75,2.43,2.55,4,2.55.42,0,1.29-.08,2-.16,1.71-.22,1.71-.22,4.75-.56,1.86-.2,4.29-.46,7.26-.73a121.586,121.586,0,0,0,1.55-13.1c0-.54-.22-.69-.83-.69a49.79,49.79,0,0,0-7,.87,42.448,42.448,0,0,0-5.21,1.41,3.073,3.073,0,0,1-1.44.42c-.95,0-2.13-.91-3.12-2.47a5.226,5.226,0,0,1-1.06-2.85,2.241,2.241,0,0,1,.2-.93A6.559,6.559,0,0,0,120.43,32.61Z"/><path class="cls-1" d="M163.78,41.61a40.124,40.124,0,0,1,7.6,3.8c4.64-4.75,9.2-10.22,9.2-11.13,0-.23-.19-.31-.72-.31a78.557,78.557,0,0,0-11.22,1.83,30.207,30.207,0,0,0-7.45,2.39,2.119,2.119,0,0,1-1.17.34c-1,0-2.17-.91-3.31-2.58a7.13,7.13,0,0,1-1.44-3.46,2.259,2.259,0,0,1,.22-1c1.14,1.9,2.28,2.63,4.34,2.63,1.48,0,5-.39,11.47-1.26l7.52-1.06a3.517,3.517,0,0,0,1.52-.57,2.371,2.371,0,0,1,1.26-.38c.79,0,1.93.72,3.38,2.12s2,2.36,2,3.08a1.232,1.232,0,0,1-.72,1.14,2.858,2.858,0,0,1-1,.34c-.57.19-1.17.57-5.58,3.8-4,2.93-5.06,3.69-7,4.94a13.457,13.457,0,0,1,2.7,2.51,3.662,3.662,0,0,1,.91,2.62c0,2-1,3.54-2.28,3.54-.76,0-1.17-.42-1.74-1.79a35.969,35.969,0,0,0-4.07-6.53,25.643,25.643,0,0,0-4.67-4.64Z"/><path class="cls-1" d="M198.64,38.87c.84.61,1.71.8,3.8.8,1.52,0,8.47-.11,15-.26h4.25c3.8,0,5,.15,5.59.68a1.51,1.51,0,0,1,.45,1.14c0,1-.83,1.56-2.47,1.79-2.12.26-5.47.38-16.94.45-1.75,0-1.94,0-4.71.16a4.241,4.241,0,0,0-1.67.34,3.393,3.393,0,0,1-1.3.3c-.91,0-1.94-.83-2.81-2.35a8.386,8.386,0,0,1-1.33-4,1.408,1.408,0,0,1,.46-1.25C197.8,38.08,198.02,38.42,198.64,38.87Z"/><path class="cls-1" d="M238.76,35.53a19.726,19.726,0,0,1,7.64,1.94,3,3,0,0,1,1.63,2.77c0,1.52-.8,2.66-1.82,2.66-.65,0-.92-.19-1.56-1.21a23.442,23.442,0,0,0-2.81-3.39,16.147,16.147,0,0,0-3.23-2.43Zm30.81-1.37c-4.18,7.11-10.86,13.49-19.87,18.89-2.24,1.36-2.47,1.48-3.19,2.24a1.629,1.629,0,0,1-1.1.49c-1.9,0-5.17-4.29-5.17-6.8a3,3,0,0,1,.27-1.14c.87,1.75,2.16,2.81,3.38,2.81s4.29-1.33,8.24-3.61a82.478,82.478,0,0,0,17.06-13.18Zm-26.48-5.92c3.72.41,6.35,1.14,7.9,2.24a2.89,2.89,0,0,1,1.45,2.66c0,1.48-.84,2.66-1.87,2.66-.64,0-.83-.19-1.63-1.45a17.176,17.176,0,0,0-6-5.73Z"/><path class="cls-1" d="M296.64,46.09a34.788,34.788,0,0,0,4.22-5.7,5.817,5.817,0,0,0,.53-1.21c0-.12-.08-.19-.31-.19a67.1,67.1,0,0,0-8.32,2.47c1,4.25,1.45,5.93,3.5,13.26a5.836,5.836,0,0,1,.3,1.63c0,.88-.45,1.41-1.21,1.41-1.26,0-3.27-2.17-3.27-3.46v-.23a2.932,2.932,0,0,0,0-.53,72.6,72.6,0,0,0-1.9-11.17,18.918,18.918,0,0,0-4.37,2.13,2,2,0,0,1-1.18.45c-1.37,0-3.8-2.77-3.8-4.33a3.57,3.57,0,0,1,.11-.64,3.27,3.27,0,0,0,2.82,1.63c.83,0,2.28-.34,5.81-1.37-1.37-5.39-1.9-6.19-4.52-6.53a2.828,2.828,0,0,1,2.28-.76,11.925,11.925,0,0,1,3.87.68,1.381,1.381,0,0,1,1,1.29c0,.15,0,.15-.15.61a4,4,0,0,0-.16,1.06,17.176,17.176,0,0,0,.39,2.89c.64-.23.64-.23,3.95-1.14s3.8-1.14,4.71-1.75a1.91,1.91,0,0,1,1.1-.41c.61,0,1.6.53,2.93,1.67,1,.8,1.44,1.44,1.44,2s-.19.8-1.44,1.18a5.481,5.481,0,0,0-1.41.87c-2,1.45-5.09,3.5-6.76,4.49Z"/><path class="cls-1" d="M317.69,55.69a20.343,20.343,0,0,0,3.53-4.83,33.6,33.6,0,0,0,3.76-10.79,24.561,24.561,0,0,0,.46-3.88c0-1.63-.84-2.62-2.82-3.3a2.221,2.221,0,0,1,1.45-.38,10.322,10.322,0,0,1,4.25,1.56c1.3.8,2,1.56,2,2.24a3.069,3.069,0,0,1-.46,1.44c-.22.42-.22.46-1.48,4.83a23.056,23.056,0,0,1-5.77,10,22.539,22.539,0,0,1-4.6,3.46Zm34.95-16.93a28.446,28.446,0,0,1-4.48,6.65,52.66,52.66,0,0,1-8.28,7.14,9.8,9.8,0,0,0-2,1.6,1.558,1.558,0,0,1-1.1.57c-1.26,0-3.31-2.66-3.31-4.3a1.684,1.684,0,0,1,.19-.79c.38-1.07.46-2.44.46-10.79,0-3.57-.15-7.22-.3-8.32-.27-1.49-1.18-2.32-2.93-2.78a1.643,1.643,0,0,1,1.37-.57,11.183,11.183,0,0,1,4.59,1.37c1.45.72,2.13,1.44,2.13,2.2a2.919,2.919,0,0,1-.49,1.49,12.012,12.012,0,0,0-.49,3c-.27,2.69-.69,10.75-.69,12.88-.015.3-.015.607,0,.91a42.994,42.994,0,0,0,14.93-10.53Z"/><path class="cls-1" d="M366.4,58.4a28.5,28.5,0,0,0,5.7-9.08,27.992,27.992,0,0,0,1.94-8.09,2.14,2.14,0,0,0-.61-1.79,31.074,31.074,0,0,0-7.94,2.28,3.261,3.261,0,0,1-1.63.5c-1,0-2.09-.84-3.35-2.51a3.82,3.82,0,0,1-1.06-2.39,2.986,2.986,0,0,1,.15-.76,4.21,4.21,0,0,0,3.65,2.09c1.17,0,1.52,0,7.18-.92,3.42-.53,5.09-.75,11.55-1.48a9.627,9.627,0,0,0,3.3-.8,2.409,2.409,0,0,1,1.11-.3,5.8,5.8,0,0,1,2.43.8c1.44.72,2.16,1.52,2.16,2.28s-.6,1.29-1.59,1.29a3.142,3.142,0,0,1-.69-.08,45.94,45.94,0,0,0-12.65-.3c2.17,1.25,2.59,1.71,2.59,2.7,0,1.67-1.6,5.77-3.35,8.62a23.5,23.5,0,0,1-8.59,8.25Zm-.53-30.89a6,6,0,0,0,4.63,2.09,19.582,19.582,0,0,0,5.29-.87,11.9,11.9,0,0,0,3.34-1.44,2.264,2.264,0,0,1,1.21-.35,3.645,3.645,0,0,1,2,.8c.95.61,1.4,1.22,1.4,1.86s-.53,1.11-2.2,1.49a52.469,52.469,0,0,1-9.42,1.14c-3,0-4.94-1.33-6.61-4.45Zm18.27-2.43c3.88,1.37,6.31,3.5,6.31,5.51,0,1-.49,1.56-1.21,1.56s-.73-.11-1.68-1.9a17.047,17.047,0,0,0-3.8-4.52Zm3.92-2.62a13.614,13.614,0,0,1,4.37,1.9c1.4,1,2,1.9,2,3,0,.88-.45,1.48-1.14,1.48-.46,0-.68-.19-1.25-1.1a16.508,16.508,0,0,0-4.33-4.71Z"/><path class="cls-1" d="M410.64,58.25a17.578,17.578,0,0,0,7.22-8c1.33-3.11,1.94-6.87,2-12.38a45.12,45.12,0,0,0-7.67,1v2.05c0,1.21,0,4.33.08,5.39v.27c0,1.9-.5,2.81-1.56,2.81-.65,0-1.29-.49-1.94-1.41a4.729,4.729,0,0,1-.84-2.24,3.042,3.042,0,0,1,.27-1.06,14.738,14.738,0,0,0,.65-5.05,13.706,13.706,0,0,0-4,1.44,3.718,3.718,0,0,1-1.52.46c-1,0-2.4-1.26-3.42-3a4.619,4.619,0,0,1-.68-2,2.471,2.471,0,0,1,.07-.46,4.367,4.367,0,0,0,3.69,1.94,37.961,37.961,0,0,0,5.85-.84c0-5.69-.46-6.72-3.12-8a1.931,1.931,0,0,1,1.26-.38,10.079,10.079,0,0,1,4.63,1.63c1,.65,1.33,1.14,1.33,1.79a3.084,3.084,0,0,1-.26,1.17,13.845,13.845,0,0,0-.46,3.27c1.75-.27,4.29-.61,7.67-1v-3c0-2.7-.19-3.84-.76-4.52a4.587,4.587,0,0,0-2.77-1.48,2.6,2.6,0,0,1,1.82-.53,11.349,11.349,0,0,1,4.79,1.14c1.14.53,1.63,1.1,1.63,1.86a2,2,0,0,1-.22.91c-.57,1.29-.65,1.86-.84,5.17a10.236,10.236,0,0,0,4.22-.84,2.071,2.071,0,0,1,1-.26,5.665,5.665,0,0,1,2.66,1c1,.61,1.41,1.18,1.41,1.79a1.129,1.129,0,0,1-1.116,1.143.9.9,0,0,1-.1,0,4.006,4.006,0,0,1-.6,0,62.906,62.906,0,0,0-6.35-.27h-1.22c-.19,8.06-.83,11.17-3,14.21a18.723,18.723,0,0,1-9.57,6.65Zm15-33.85a10.208,10.208,0,0,1,3.5,2.13,4.7,4.7,0,0,1,1.71,3.3c0,1-.46,1.56-1.18,1.56-.5,0-.8-.34-1.18-1.41a14.9,14.9,0,0,0-3.38-5.13Zm4-1.83a10.922,10.922,0,0,1,3.53,1.87,4.271,4.271,0,0,1,1.9,3.26c0,.92-.42,1.49-1.1,1.49s-.72-.23-1.22-1.3a13.376,13.376,0,0,0-3.64-4.82Z"/><path class="cls-1" d="M440.96,47.69A70.789,70.789,0,0,0,455.13,36.4c4.06-4.1,6.38-7.14,6.38-8.39,0-.8-.87-1.79-2.28-2.51a4.256,4.256,0,0,1,1.22-.15,7.609,7.609,0,0,1,3.84,1.29c1.74,1,2.77,2.16,2.77,3,0,.68-.19.91-1.52,1.86-.15.11-.15.11-2.47,2.32-2.66,2.47-2.66,2.47-5.36,4.78a9.3,9.3,0,0,1,2.62,2.25c.35.53.38.91.42,3.72,0,1.75,0,2.24.27,9.46v1.44c0,1.56-.5,2.32-1.56,2.32-1.41,0-3.5-2.32-3.5-3.91a3.353,3.353,0,0,1,.23-1.22c.5-1.56.84-5.7.84-9.8,0-1.94-.12-2.47-.65-3.19a62.448,62.448,0,0,1-8.13,5.39,47.734,47.734,0,0,1-7.14,3Z"/><path class="cls-1" d="M485.19,29.57c4.25.68,6.53,1.33,8.32,2.47a3.572,3.572,0,0,1,1.86,3.26c0,1.79-.87,3.16-2.05,3.16-.65,0-1-.31-1.6-1.3A17.89,17.89,0,0,0,485,29.98Zm28.88,2.2a40.817,40.817,0,0,1-8.55,11.78,61.527,61.527,0,0,1-11,8.66,8.746,8.746,0,0,0-2.05,1.67,2.089,2.089,0,0,1-1.6.95c-1,0-2.39-1.06-3.72-2.77a7.242,7.242,0,0,1-1.83-4.22,3.047,3.047,0,0,1,.19-1c1,1.75,2.28,2.82,3.31,2.82,1.59,0,6.57-2.62,11.09-5.85a75.033,75.033,0,0,0,13.73-12.27Z"/><path class="cls-1" d="M530.33,27.74a32.472,32.472,0,0,1-3.42,10l.31.31h3.11c.84-.95,1.1-1.26,2-2.25,1.14,1,1.49,1.22,2.55,2.17.27.27.38.42.38.57s-.19.38-.95.84v5.43c0,4.82,0,4.82.15,9a.79.79,0,0,1-.68.84,7.385,7.385,0,0,1-2,.27c-.91,0-1.14-.16-1.14-.76V52.83h-3V56.4a.719.719,0,0,1-.57.76,10.988,10.988,0,0,1-2.25.26c-.79,0-1.1-.19-1.1-.72.12-5.51.19-8.4.19-8.7V42.38a28.679,28.679,0,0,1-3.49,3.84l-.27-.31a46.578,46.578,0,0,0,5.74-18.2h-2.25a9.494,9.494,0,0,0-2.21.23l-.23-1.33a9.171,9.171,0,0,0,2.44.3h6.07c1.07-1.29,1.37-1.67,2.47-2.85,1.56,1.3,2,1.71,3.54,3.12.15.15.19.23.19.34s-.15.19-.42.19Zm-2.69,24.32h3.07V38.87h-3.07Zm24.12-13h.38c.88-1.22,1.18-1.56,2.13-2.74,1.33,1.25,1.71,1.67,3,3,.15.15.19.23.19.34s-.15.19-.38.19h-5.32v4.72c0,4.74,0,5.2.19,13.18a.74.74,0,0,1-.592.863l-.048.007a13.262,13.262,0,0,1-2.66.23c-1,0-1.26-.15-1.26-.8.19-8.13.19-8.7.19-13.48V39.85h-4.59c-.31,6.73-1,9.73-3.08,12.81s-4.45,4.79-8.78,6.61l-.23-.38a19.008,19.008,0,0,0,4.3-4.14,18.712,18.712,0,0,0,3.3-9c.19-1.41.31-3.39.38-5.86h-1.14a12.775,12.775,0,0,0-2,.19l-.23-1.25a9.156,9.156,0,0,0,2.36.27h1.06v-12h-.19a15.714,15.714,0,0,0-2.47.19l-.23-1.33a10.341,10.341,0,0,0,2.74.34h11.51c.91-1,1.82-1.94,2.66-2.81,1.59,1.22,2.05,1.63,3.61,3,.19.16.27.27.27.38s-.23.27-.5.27h-4.56Zm-8.62-12c0,6.61,0,9.57-.12,12h4.56v-12Z"/><path class="cls-1" d="M574.49,44.35a24.667,24.667,0,0,0,.34-4.07,11.726,11.726,0,0,0-.11-1.9c1.29.11,2.28.19,2.92.27h.15c2.28.19,3.2.45,3.2.83s-.54.69-1.75,1c-.23,2-.34,2.7-.53,3.8l4.74-.08,2.17-2.24,1.71,1.18c.34.27.84.61,1.52,1.06.38.31.53.5.53.69s-.26.49-.68.76a6.613,6.613,0,0,0-.8.49v7.64c0,.68.11.8,1.1.8a11.365,11.365,0,0,0,3.19-.27c.61-.19,1.11-1.1,1.71-3.12.38-1.32.42-1.44,1.33-4.52l.46.08-.23,6a.379.379,0,0,1,0,.15c0,.76.07.92.61,1.14a1.79,1.79,0,0,1,1.33,1.79c0,1.29-.95,2-2.89,2.09-1.71.15-4.26.23-6.08.23a8.834,8.834,0,0,1-3.72-.5,2.271,2.271,0,0,1-1-2.16l.11-10.45-5.28.08c-.87,4.14-2.39,6.83-5.2,9.19a19,19,0,0,1-6.42,3.46c-1.14.34-1.71.49-4.52,1.18l-.16-.35c7.45-3.34,10.64-6.91,12-13.41l-6.8.08a19.263,19.263,0,0,0-2.17.22l-.38-1.29a14.878,14.878,0,0,0,2.51.23h.24Zm3-14.44a12.774,12.774,0,0,1-.91,4c-1.75,4.44-6.54,7.33-13.64,8.2l-.19-.41c4.26-1.49,6.46-2.93,8.32-5.4a10.6,10.6,0,0,0,2.17-6.38h-5.17v.64a8,8,0,0,1-.65,3.54,3.65,3.65,0,0,1-3,2.24c-1.14,0-2-1.1-2-2.66a1.69,1.69,0,0,1,1.21-1.86c2.13-1.07,2.93-2.21,3.5-5.06h.41a12.357,12.357,0,0,1,.42,2.36h9.24V26.69a16.863,16.863,0,0,0-.16-2.47c4.79.46,5.13.49,5.59.65s.57.26.57.45c0,.38-.53.69-1.6,1v2.81h8.36c1-1,1.26-1.33,2.28-2.32,1.79,1.37,2.32,1.83,4.07,3.31.34.34.45.45.45.64,0,.38-.45.61-1.25.61a12.57,12.57,0,0,1-1.44-.07c-1.87,1.14-4,2.35-5.13,2.92l-.35-.19a30.007,30.007,0,0,0,1.68-4.1h-5.33v5.76c0,.6.19.72,1.21.79h3.38c1.75,0,2.36-.15,2.78-.68a22.551,22.551,0,0,0,1.78-3.57h.38l-.15,2.59v.26c0,.72,0,.72,1,1.14a1.261,1.261,0,0,1,.91,1.22c0,1.14-.72,1.71-2.59,1.94-.53.07-3.64.19-4.71.19h-.53c-.45,0-1.71,0-3.61-.08-2.92,0-3.76-.61-3.76-2.43V29.88Z"/><path class="cls-1" d="M620.64,34.62a50.719,50.719,0,0,1-5.47,6c4.37-.08,5.13-.08,13-.57a29.472,29.472,0,0,0-4.1-4l.19-.27a36.548,36.548,0,0,1,6.76,2.47c2.32,1.22,3.19,2.25,3.19,3.73s-.87,3.11-1.82,3.11c-.46,0-.8-.34-1.6-1.67a20.066,20.066,0,0,0-1.82-2.47c-5.43,1.26-5.43,1.26-7.83,1.67-2.85.5-9,1.41-11.89,1.75-.15,1.06-.38,1.52-.8,1.52s-.83-1-1.74-5.51a55.753,55.753,0,0,0,6.64.23,32.782,32.782,0,0,0,2.06-6h-3.46a13.576,13.576,0,0,0-2.51.27l-.3-1.33a15.669,15.669,0,0,0,2.81.26H627.6c1-1.18,1.37-1.52,2.43-2.62l1.18.84a15.761,15.761,0,0,0,.53-2.59H609.03a9.668,9.668,0,0,1-.72,4.33,3.309,3.309,0,0,1-2.7,2.17,2.489,2.489,0,0,1-2.24-2.66,1.578,1.578,0,0,1,.57-1.37c.15-.11.15-.11,1.06-.68a6.561,6.561,0,0,0,2.36-2.28,7.859,7.859,0,0,0,.72-2.74h.46a8,8,0,0,1,.45,2.43h9.16V26.52a20.276,20.276,0,0,0-.11-2.82c5.16.35,6.19.54,6.19,1.07,0,.38-.53.68-1.79,1v2.92h9c.91-1,1.22-1.29,2.16-2.28,1.91,1.3,2.48,1.71,4.26,3.08.31.27.42.42.42.65a.538.538,0,0,1-.3.42,3.878,3.878,0,0,1-1,.19h-1.37c-.45.27-.91.5-1.14.61-1.78.95-1.82.95-2.39,1.25l2,1.52c.15.08.23.19.23.27a.239.239,0,0,1-.23.19Zm7.71,14.59c1.45-1.56,1.45-1.56,2.78-3,1.82,1.32,2.39,1.74,4.25,3.26.12.12.15.19.15.27a.332.332,0,0,1-.3.23H622.44v6.72h8.48c1.25-1.4,1.63-1.82,2.92-3.15,1.82,1.33,2.43,1.79,4.41,3.38.15.15.26.27.26.38s-.11.19-.26.19H607.13a21.322,21.322,0,0,0-3.11.27l-.31-1.37a19.025,19.025,0,0,0,3.46.3h11.06V50.01h-8.29a15.748,15.748,0,0,0-2.81.22l-.3-1.29a20.255,20.255,0,0,0,3.11.27h8.29v-1.6a32.671,32.671,0,0,0-.19-3.83c1.14.11,2.12.22,2.66.3,2.81.27,3.3.38,3.3.8s-.23.49-1.56.95v3.38Z"/><path class="cls-1" d="M5.58,138.6a21.967,21.967,0,0,0-.21-3.18h2.4a19.675,19.675,0,0,0-.21,3.18v3.63h6v-3.75a20.218,20.218,0,0,0-.21-3.09h2.34a19.829,19.829,0,0,0-.21,3.06v3.78h6.39v-3.78a19.973,19.973,0,0,0-.23-3.06h2.31a20.34,20.34,0,0,0-.21,3.06v3.78h1.9a20.334,20.334,0,0,0,3-.18v2.1a21.651,21.651,0,0,0-3-.18H23.76v7.08a20.3,20.3,0,0,0,.12,2.49,17.653,17.653,0,0,0-2.4-.12H15.87a18.432,18.432,0,0,0-2.43.12,18.6,18.6,0,0,0,.12-2.43v-7.14h-6v14.88H24.15a24.6,24.6,0,0,0,3.21-.18v2.19a24.6,24.6,0,0,0-3.21-.18H7.56v1.89H5.4a28.536,28.536,0,0,0,.18-3.72V143.97H4.17a21.651,21.651,0,0,0-3,.18v-2.1a20.752,20.752,0,0,0,3,.18H5.58Zm9.9,5.37v7.72h6.39v-7.74Z"/><path class="cls-1" d="M45.3,152.16c-1.74,4-3.51,5.76-5.67,5.76-2.85,0-5-3.12-5-7.32A12.18,12.18,0,0,1,46.7,138.312q.384,0,.768.018a11.611,11.611,0,0,1,8.25,3,10,10,0,0,1,2.91,7.32A10.921,10.921,0,0,1,51.76,159a23.212,23.212,0,0,1-4.56,1.38,4.766,4.766,0,0,0-1-2,18.022,18.022,0,0,0,5-1.41,9.059,9.059,0,0,0,5.31-8.4,7.919,7.919,0,0,0-4.77-7.53,8.622,8.622,0,0,0-3.48-.75A45.02,45.02,0,0,1,45.3,152.16Zm-3.66-10.47a10.367,10.367,0,0,0-4.89,8.94c0,2.88,1.26,5.1,2.88,5.1,1.26,0,2.46-1.41,3.75-4.35a41.217,41.217,0,0,0,2.73-11.1A9.469,9.469,0,0,0,41.64,141.69Z"/><path class="cls-1" d="M77.03,138.24a17.332,17.332,0,0,0-.21-3.12h2.4a17.91,17.91,0,0,0-.21,3.06v2.64H87.8a16.084,16.084,0,0,0,2.28-.12,14.233,14.233,0,0,0-.15,2.37v8.19a18.931,18.931,0,0,0,.18,2.67H87.95v-2H79.01v7a16.954,16.954,0,0,0,.21,3.42h-2.4a20.592,20.592,0,0,0,.21-3.42v-7H68.57v2H66.41a18.931,18.931,0,0,0,.18-2.67v-8.19a18.783,18.783,0,0,0-.15-2.37,16.265,16.265,0,0,0,2.25.12h8.34Zm-8.46,4.38v7.47h8.46v-7.47Zm19.38,7.47v-7.47H79.01v7.47Z"/><path class="cls-1" d="M108.58,152.16c-1.74,4-3.51,5.76-5.67,5.76-2.85,0-5-3.12-5-7.32a12.18,12.18,0,0,1,12.072-12.288q.384,0,.768.018a11.611,11.611,0,0,1,8.25,3,10,10,0,0,1,2.91,7.32A10.921,10.921,0,0,1,115.04,159a23.212,23.212,0,0,1-4.56,1.38,4.774,4.774,0,0,0-1.05-2,18.022,18.022,0,0,0,5-1.41,9.059,9.059,0,0,0,5.31-8.4,7.91,7.91,0,0,0-4.77-7.53,8.622,8.622,0,0,0-3.48-.75A45.02,45.02,0,0,1,108.58,152.16Zm-3.69-10.47a10.367,10.367,0,0,0-4.89,8.94c0,2.88,1.26,5.1,2.88,5.1,1.26,0,2.46-1.41,3.75-4.35a41.217,41.217,0,0,0,2.73-11.1A9.469,9.469,0,0,0,104.89,141.69Z"/><path class="cls-1" d="M142.53,135.6a23.387,23.387,0,0,0,5.85,6.09,30.865,30.865,0,0,0,7.41,4.2,8.024,8.024,0,0,0-1.29,2,42.51,42.51,0,0,1-7.62-4.83,26.01,26.01,0,0,1-5.48-5.76,24.931,24.931,0,0,1-4.76,5.39,37.355,37.355,0,0,1-7.7,5.1,6.052,6.052,0,0,0-1.32-1.8,32.358,32.358,0,0,0,7.52-4.59,23.261,23.261,0,0,0,5.07-5.79Zm-6.78,12.09a17.7,17.7,0,0,0-2.78.15v-2a16.688,16.688,0,0,0,2.69.15h11.52a16.691,16.691,0,0,0,2.7-.15v2a17.444,17.444,0,0,0-2.76-.15h-4.86v4.56h5.58a16.976,16.976,0,0,0,2.76-.15v2a17.2,17.2,0,0,0-2.76-.15h-5.58v5.37h9.06a24.266,24.266,0,0,0,3.3-.18v2.19a22.209,22.209,0,0,0-3.27-.21H131.76a22.619,22.619,0,0,0-3.32.21v-2.19a24.823,24.823,0,0,0,3.36.18h8.52v-5.37h-5a17.71,17.71,0,0,0-2.8.15v-2a17.247,17.247,0,0,0,2.8.15h5v-4.56Z"/><path class="cls-1" d="M161.13,140.34h1.08a14.725,14.725,0,0,0,1.71-.09c3.57-.27,13.17-.81,17-1a20.17,20.17,0,0,0,3.57-.33l.18,2.25a13.927,13.927,0,0,0-3.36.39,15.222,15.222,0,0,0-5.76,3,9.17,9.17,0,0,0-3.69,6.93c0,2.52,1.53,4.53,4.2,5.55a15.381,15.381,0,0,0,4.5,1h.3l-.39,2.43-.93-.18a15.131,15.131,0,0,1-6.48-2.31,7.3,7.3,0,0,1-3.33-6.12c0-3.48,2-6.81,5.61-9.21a19.664,19.664,0,0,1,2.85-1.59,58.187,58.187,0,0,1-6.6.66,87.991,87.991,0,0,0-10.35,1Z"/><path class="cls-1" d="M203.51,152.16c-1.74,4-3.51,5.76-5.67,5.76-2.85,0-5-3.12-5-7.32a12.18,12.18,0,0,1,12.072-12.288q.384,0,.768.018a11.611,11.611,0,0,1,8.25,3,10,10,0,0,1,2.91,7.32A10.921,10.921,0,0,1,209.97,159a23.212,23.212,0,0,1-4.56,1.38,4.766,4.766,0,0,0-1-2,18.022,18.022,0,0,0,5-1.41,9.059,9.059,0,0,0,5.31-8.4,7.91,7.91,0,0,0-4.77-7.53,8.626,8.626,0,0,0-3.48-.75A45.02,45.02,0,0,1,203.51,152.16Zm-3.69-10.47a10.367,10.367,0,0,0-4.89,8.94c0,2.88,1.26,5.1,2.88,5.1,1.26,0,2.46-1.41,3.75-4.35a41.217,41.217,0,0,0,2.73-11.1A9.469,9.469,0,0,0,199.82,141.69Z"/><path class="cls-1" d="M235.39,136.69a8.9,8.9,0,0,0-.18-2h2.28a11.177,11.177,0,0,0-.18,2v1.32h9.45a21.693,21.693,0,0,0,3.12-.18v2a28.959,28.959,0,0,0-3.06-.15h-4a24.389,24.389,0,0,1-1.74,3.63h4.56a21.076,21.076,0,0,0,2.82-.12,18.613,18.613,0,0,0-.12,2.43v14.07c0,1.05-.24,1.68-.75,2a4.055,4.055,0,0,1-2.52.45c-.84,0-1.95,0-3.33-.12a6.35,6.35,0,0,0-.54-2,35.859,35.859,0,0,0,3.9.33c1.08,0,1.35-.18,1.35-.81V144.96H239.7v2.91c0,.54.18.6,1.89.6s2.13-.06,2.31-.45a4.5,4.5,0,0,0,.3-1.71,4.456,4.456,0,0,0,1.53.69c-.39,2.76-.78,3-4.29,3-2.91,0-3.48-.27-3.48-1.68v-3.39h-3.57a7.265,7.265,0,0,1-.87,2.88c-1,1.92-2.37,3-5.49,4.38a5.628,5.628,0,0,0-1.14-1.53c2.91-1,4.17-1.89,5-3.51a5.984,5.984,0,0,0,.63-2.22h-6.06v14.19a24.816,24.816,0,0,0,.18,3.27h-2.25a25.521,25.521,0,0,0,.18-3.27V145.69a20.126,20.126,0,0,0-.12-2.43,23.791,23.791,0,0,0,2.85.12h4.23a17.669,17.669,0,0,0-1.47-3.63h-3.78a29.5,29.5,0,0,0-3.06.15v-2a23.243,23.243,0,0,0,3.12.18h9Zm6.51,19.29a20.686,20.686,0,0,0,.12,2.61,23.476,23.476,0,0,0-2.73-.12h-6.6V160h-1.92a13.16,13.16,0,0,0,.15-2.19v-4.42a14.917,14.917,0,0,0-.12-2.07c.87.06,1.41.09,2.55.09h5.94a25.912,25.912,0,0,0,2.73-.09,18.714,18.714,0,0,0-.12,2.46Zm-2.76-12.66a15.544,15.544,0,0,0,1.68-3.63h-8.76a27.714,27.714,0,0,1,1.44,3.63Zm-6.45,13.59h7.44v-4h-7.44Z"/><path class="cls-1" d="M255.64,152.07a27.718,27.718,0,0,0-.12-2.91,24.453,24.453,0,0,0,2.76.12h5.67a20.025,20.025,0,0,0,2.43-.09,26.023,26.023,0,0,0-.09,2.82v6.93a23.271,23.271,0,0,0,.12,2.94h-1.95v-1.32h-7v1.89h-2a20.338,20.338,0,0,0,.15-3.12Zm1.86,6.81h7v-7.92h-7Zm2.46-20.25a20.794,20.794,0,0,0-.12-2.52,24.81,24.81,0,0,0,3.36.15h9.81a22.994,22.994,0,0,0,3.39-.15,19.726,19.726,0,0,0-.12,2.49v5.09a21.162,21.162,0,0,0,.12,2.64,28.559,28.559,0,0,0-3.15-.12H263.02a29.1,29.1,0,0,0-3.18.12,22.746,22.746,0,0,0,.12-2.61Zm1.89,5.85h12.51v-6.51H261.85Zm7.41,7.29a18.838,18.838,0,0,0-.09-2.58c.75.06,1.41.09,2.43.09h6.6a20.214,20.214,0,0,0,2.58-.12,25.543,25.543,0,0,0-.13,2.94v7.23a19.031,19.031,0,0,0,.16,3.12h-2v-1.89h-7.68v1.89h-1.99a24.675,24.675,0,0,0,.12-2.94Zm1.83,7.11h7.71v-7.92h-7.71Z"/><path class="cls-1" d="M292.95,137.1a42.5,42.5,0,0,0-1.26,4.8,44.326,44.326,0,0,0-.9,9.39c0,2.34.06,4.11.18,5.7a27.92,27.92,0,0,1,1.95-5.85l1.44.69c-1.35,3-2.43,6.57-2.43,8.25v.45l-2.16.18c-.06-.48-.09-.63-.18-1.2a42.96,42.96,0,0,1-.78-8.49,49.654,49.654,0,0,1,1.35-11.88,16.693,16.693,0,0,0,.42-2.4Zm7.69,12.06c-1.5,1.65-2.25,3.09-2.25,4.41,0,2.22,1.89,3.3,5.76,3.3a19.734,19.734,0,0,0,6.9-1l.3,2.31a6.172,6.172,0,0,0-1.05.15,31.048,31.048,0,0,1-6.15.6c-3.42,0-5.58-.72-6.87-2.28a4.244,4.244,0,0,1-.9-2.76c0-1.83.75-3.45,2.61-5.58Zm-3.81-8.88a20.368,20.368,0,0,0,5.1.45,32.224,32.224,0,0,0,8-.81l.15,2.13-2.07.27a50.762,50.762,0,0,1-6.45.39,40.114,40.114,0,0,1-4.8-.3Z"/><path class="cls-1" d="M318.45,154.17a30.583,30.583,0,0,1,6,6.36l-1.68,1.59a29.93,29.93,0,0,0-5.91-6.54Z"/><path class="cls-1" d="M362.76,147.06c-.36,7.77-2.88,11.43-9.66,14.07a5.252,5.252,0,0,0-1.41-2c6.21-2.07,8.55-5.28,8.79-12.12h-8.13a23.672,23.672,0,0,0-3.45.15v-2.17a19.851,19.851,0,0,0,3.48.18h17.55a19.659,19.659,0,0,0,3.48-.18v2.22a23.672,23.672,0,0,0-3.45-.15Zm-10.83-9.51a15.577,15.577,0,0,0,3.45.21h9.06a27.231,27.231,0,0,0,3.45-.15v2.16q-.581,0-3.42-.09h-9.12a20.905,20.905,0,0,0-3.42.15Zm17.58-2.52a23.339,23.339,0,0,1,2.94,4.74l-1.53.84a22.866,22.866,0,0,0-2.91-4.86Zm3.69-1.14a24.96,24.96,0,0,1,2.94,4.74l-1.53.84a23.521,23.521,0,0,0-2.91-4.83Z"/><path class="cls-1" d="M397.19,142.74V139.8a21.123,21.123,0,0,0-.09-3.06h2.34a22.987,22.987,0,0,0-.12,2.85v3.15h2.58a20.5,20.5,0,0,0,3.51-.18v2.28a24.084,24.084,0,0,0-3.48-.15h-2.64c0,5.79-.36,8-1.47,10.17-1.62,3-4.32,5.1-8.37,6.48a5.379,5.379,0,0,0-1.35-1.89c3.93-1,7-3.33,8.16-6.36.66-1.8.84-3.6.9-8.4h-9.12v5a15.665,15.665,0,0,0,.12,2.43h-2.43a14.347,14.347,0,0,0,.12-2.52v-4.91h-2.52a24.084,24.084,0,0,0-3.48.15v-2.28a20.5,20.5,0,0,0,3.51.18h2.49v-3.48a14.642,14.642,0,0,0-.12-2.52h2.43a15.917,15.917,0,0,0-.12,2.43v3.57Zm5-7.89a23.843,23.843,0,0,1,2.13,4.92l-1.59.54a23.116,23.116,0,0,0-2.13-5Zm3.45-1a23.269,23.269,0,0,1,2.13,4.89l-1.56.54a24,24,0,0,0-2.1-4.92Z"/><path class="cls-1" d="M435.1,137.79a6.8,6.8,0,0,0-1.32,1.26,52.809,52.809,0,0,1-7,6v12.78a19.882,19.882,0,0,0,.15,3.18h-2.61a15.446,15.446,0,0,0,.19-3.12v-11.4a47.041,47.041,0,0,1-11.59,5.25,6.929,6.929,0,0,0-1.16-2,42.212,42.212,0,0,0,15.56-7.77,25.189,25.189,0,0,0,5.73-5.67Z"/><path class="cls-1" d="M445.42,157.53a26.114,26.114,0,0,0,8.73-2.31c5.79-2.58,9.81-7,12.24-13.35a5.989,5.989,0,0,0,1.83,1.77c-2.4,5.22-5.19,8.73-9.15,11.46-3.09,2.1-6.18,3.33-11.19,4.47a15.753,15.753,0,0,0-1.8.48Zm1.92-18.6a39.087,39.087,0,0,1,7.23,5.64l-1.56,1.86a33.149,33.149,0,0,0-7.14-5.88Z"/><path class="cls-1" d="M486.51,152.16c-1.74,4-3.51,5.76-5.67,5.76-2.85,0-5-3.12-5-7.32a12.18,12.18,0,0,1,12.072-12.288q.384,0,.768.018a11.611,11.611,0,0,1,8.25,3,10,10,0,0,1,2.91,7.32A10.921,10.921,0,0,1,492.97,159a23.212,23.212,0,0,1-4.56,1.38,4.766,4.766,0,0,0-1-2,18.022,18.022,0,0,0,5-1.41,9.059,9.059,0,0,0,5.31-8.4,7.91,7.91,0,0,0-4.77-7.53,8.622,8.622,0,0,0-3.48-.75A45.02,45.02,0,0,1,486.51,152.16Zm-3.69-10.47a10.367,10.367,0,0,0-4.89,8.94c0,2.88,1.26,5.1,2.88,5.1,1.26,0,2.46-1.41,3.75-4.35a41.217,41.217,0,0,0,2.73-11.1A9.469,9.469,0,0,0,482.82,141.69Z"/><path class="cls-1" d="M509.27,158.91a21.085,21.085,0,0,0,.18,3.36h-2.22a22.464,22.464,0,0,0,.18-3.36V139.26a25.934,25.934,0,0,0-.12-3.3,27.546,27.546,0,0,0,3.12.12h4.5a26.49,26.49,0,0,0,3.06-.12c-.06.84-.09,1.74-.09,2.85v3.27a24.323,24.323,0,0,0,.09,2.76c-.84-.06-1.77-.09-3-.09H509.3Zm0-19.23h6.9v-2.19h-6.9Zm0,3.66h6.9v-2.28h-6.9Zm11.19,10.86a11.3,11.3,0,0,0,6.66,4.2,7.008,7.008,0,0,0-.9,1.68,18.1,18.1,0,0,0,2.61.21c.81,0,1-.18,1-.87V144.75h-6.19a29.626,29.626,0,0,0-3.06.09c.06-.78.09-1.68.09-2.76v-3.27c0-1,0-2-.09-2.85a26.5,26.5,0,0,0,3.06.12h5.07a27.61,27.61,0,0,0,3.15-.12,28.411,28.411,0,0,0-.15,3.3v20.25c0,2-.51,2.49-2.91,2.49-.84,0-1.83-.06-2.82-.12a5.656,5.656,0,0,0-.45-1.89,5.628,5.628,0,0,0,.66.09,13.157,13.157,0,0,1-6.9-5c-1.14,2.88-3,4.41-7.32,6a4.49,4.49,0,0,0-1.11-1.56,12.672,12.672,0,0,0,5.31-2.55,6,6,0,0,0,1.68-2.73h-3.78a17.3,17.3,0,0,0-2.73.15v-1.77a15.285,15.285,0,0,0,2.67.15h4.2a18.931,18.931,0,0,0,.18-2.67h-3.75a19.389,19.389,0,0,0-2.55.12v-1.71a13.948,13.948,0,0,0,2.55.15h1.53a15.09,15.09,0,0,0-1.83-2.52l1.53-.63a22.885,22.885,0,0,1,2.1,3.15h3.06a15.37,15.37,0,0,0,1.8-3.18l1.68.51a23.7,23.7,0,0,1-1.68,2.67h1.71a14.5,14.5,0,0,0,2.55-.15v1.71a19.563,19.563,0,0,0-2.55-.12h-4.35a18.1,18.1,0,0,1-.24,2.67h5.1a15.684,15.684,0,0,0,2.67-.15v1.77a16.249,16.249,0,0,0-2.7-.15Zm2-14.52h7.44v-2.19h-7.46Zm0,3.66h7.44v-2.28h-7.46Z"/><path class="cls-1" d="M544.19,147.45c-.24.63-.36.87-.66,1.65l-2-.36a51.582,51.582,0,0,0,2.73-7.65,30.575,30.575,0,0,0,1.26-6.12l2.25.36c-.18.54-.3.93-.42,1.41-.3,1.2-.42,1.65-.69,2.64h12.17a18.015,18.015,0,0,0,2.89-.15v2.1a17.963,17.963,0,0,0-2.82-.15H546.17c-.54,2-.78,2.76-1.38,4.53h11.58a25.592,25.592,0,0,0,3.18-.15c-.15.81-.24,1.53-.69,5.22-.06.51-.06.69-.15,1.26h3a24.031,24.031,0,0,0,3.15-.18v2.13a24.383,24.383,0,0,0-3.15-.18h-3.34c-.62,3.36-1.22,5.34-2,6.39s-1.65,1.49-3.63,1.49a52.938,52.938,0,0,1-5.31-.33,10.085,10.085,0,0,0-.54-2.13,42.266,42.266,0,0,0,5.79.57c1.53,0,2.07-.33,2.58-1.65a23.659,23.659,0,0,0,1.17-4.32H540.8a24.952,24.952,0,0,0-3.21.18v-2.13a23.591,23.591,0,0,0,3.21.18h15.93c.21-1.44.3-2.16.51-4.59Z"/><path class="cls-1" d="M584.29,137.79a10.134,10.134,0,0,0-.12-1.74h2.25a24.724,24.724,0,0,0-.15,3.75v.33c5.67,0,8-.09,9-.21v2.13a53.187,53.187,0,0,0-5.73-.15c-.45,0-.78,0-3.21.06v5.94a8.6,8.6,0,0,1,.72,3.54,9.658,9.658,0,0,1-4,7.83,19.059,19.059,0,0,1-4.74,2.43,6.58,6.58,0,0,0-1.32-1.89,15.392,15.392,0,0,0,4.86-2.25,7.772,7.772,0,0,0,3.36-6.33,4.206,4.206,0,0,1-.81,1.47,4.923,4.923,0,1,1-3.66-8.08c.09,0,.18,0,.27.01a4.608,4.608,0,0,1,3.48,1.35v-3.99c-6,.12-12.09.42-14.1.75l-.09-2.19h1.2c.87,0,.87,0,5.7-.18,2.88-.12,5.22-.18,7.26-.24Zm-1.29,9a3.838,3.838,0,0,0-2-.48,3.17,3.17,0,0,0-3.354,2.974c0,.069-.006.137-.006.206a2.9,2.9,0,0,0,2.792,3,2.694,2.694,0,0,0,.3,0,3.36,3.36,0,0,0,3.512-3.2c0-.113,0-.226,0-.339a2.169,2.169,0,0,0-1.24-2.13Z"/><path class="cls-1" d="M606.51,137.79a13.867,13.867,0,0,0,2.82.18c2.49,0,6.48-.18,9.18-.39a3.062,3.062,0,0,0,1.44-.33l1.26,1.65a5.532,5.532,0,0,0-1.53,1.26,76.993,76.993,0,0,1-9.87,8.52l.06.09a15.2,15.2,0,0,1,7.35-1.86c5,0,8.22,2.46,8.22,6.3,0,4.68-4.35,7.77-11,7.77-4.23,0-6.66-1.56-6.66-4.32,0-2,1.86-3.51,4.35-3.51a6,6,0,0,1,4.95,2.46,8.586,8.586,0,0,1,1.38,2.88c3.15-.87,4.8-2.7,4.8-5.25,0-2.88-2.4-4.59-6.45-4.59a19.25,19.25,0,0,0-12.63,5.13l-1.35-1.92a33.483,33.483,0,0,0,4.2-3.06c3.21-2.55,8-6.72,10-8.76l.42-.42.12-.12.12-.12-.06-.06h-.27c-1,.18-4.56.39-9.12.54a14.666,14.666,0,0,0-1.62.15Zm5.64,17.07c-1.5,0-2.43.72-2.43,1.86a2,2,0,0,0,1.2,1.83,7.661,7.661,0,0,0,3.36.69,10.809,10.809,0,0,0,2.19-.21C615.81,156.3,614.31,154.86,612.15,154.86Z"/><path class="cls-1" d="M646.97,135.3a22.222,22.222,0,0,0,5.61,5.31,29.132,29.132,0,0,0,7.65,4,7.528,7.528,0,0,0-1.14,2,40.9,40.9,0,0,1-7.86-4.53,25.594,25.594,0,0,1-5.37-5.13,29.145,29.145,0,0,1-4.71,4.71,36.362,36.362,0,0,1-7.89,4.83,5,5,0,0,0-1.23-1.77,32.719,32.719,0,0,0,7.8-4.47,22.1,22.1,0,0,0,4.89-4.86Zm-6.15,18.3a23.63,23.63,0,0,1-6.54,7.59,5.006,5.006,0,0,0-1.38-1.5,17.6,17.6,0,0,0,6.18-7Zm.18-7.95a16.149,16.149,0,0,0-2.6.15v-2a15.282,15.282,0,0,0,2.6.15h10a15.189,15.189,0,0,0,2.61-.15v2a15.817,15.817,0,0,0-2.61-.15h-4v4.14h8.64a21.345,21.345,0,0,0,3-.18v2.08a20.9,20.9,0,0,0-3-.18h-8.67v8.4c0,1.86-.6,2.25-3.6,2.25-.69,0-1.64,0-2.63-.09a6.64,6.64,0,0,0-.49-2,24.561,24.561,0,0,0,3.49.27c1.1,0,1.28-.12,1.28-.78v-8.1h-8.67a21.807,21.807,0,0,0-3,.18v-2.07a21.2,21.2,0,0,0,3,.18h8.67v-4.06Zm11.46,7.04a20.706,20.706,0,0,0,6.51,6.87,7.27,7.27,0,0,0-1.47,1.65,25.649,25.649,0,0,1-6.72-7.68Z"/><path class="cls-1" d="M667.97,138.87a24.544,24.544,0,0,0-.18-3.33h2.22a24.987,24.987,0,0,0-.18,3.36v4.47h.81a11.347,11.347,0,0,0,2.4-.15v2a18.6,18.6,0,0,0-2.43-.12h-.81v9.42c1.29-.6,1.83-.87,3.39-1.74l.18,1.83a57.883,57.883,0,0,1-7.74,3.66c-.42.15-.87.36-1.2.51l-.51-2.07a16.915,16.915,0,0,0,4-1.35V145.05h-1.11a11.385,11.385,0,0,0-2.52.18v-2a11.088,11.088,0,0,0,2.52.18h1.11Zm9.18,19.44c0,.72.18,1,.9,1.14a21.823,21.823,0,0,0,4.83.27c4.23,0,5.49-.18,6-.87.39-.54.6-1.92.63-4a5.505,5.505,0,0,0,1.92.78c-.36,5.55-.9,5.91-8.7,5.91-6.21,0-7.44-.45-7.44-2.79V147.69l-.66.21a16.534,16.534,0,0,0-2.49,1l-.54-2a11.579,11.579,0,0,0,2.61-.6l1.08-.36v-4.71a21.744,21.744,0,0,0-.18-3.06h2.25a21.345,21.345,0,0,0-.18,3v4.2l4.29-1.44v-5.55a18.866,18.866,0,0,0-.18-2.79h2.22a20,20,0,0,0-.18,2.82v4.92l4.62-1.53a21.606,21.606,0,0,0,2.37-.93c-.12,3-.24,5.1-.48,8-.21,2.67-.6,3.93-1.38,4.38a4.105,4.105,0,0,1-2.16.42,8.99,8.99,0,0,1-1.32-.09,6.988,6.988,0,0,0-.45-1.89,10.759,10.759,0,0,0,2.31.27c.69,0,.84-.15,1-1a60.367,60.367,0,0,0,.48-7.59l-5,1.71v8.28a19.672,19.672,0,0,0,.18,2.88h-2.22a19.531,19.531,0,0,0,.18-2.91v-7.62l-4.29,1.44Z"/><path class="cls-1" d="M696.64,143.69a61.525,61.525,0,0,0,6.63-.78,36.977,36.977,0,0,0,.9-6.36v-.39l2.4.27a18.434,18.434,0,0,0-.57,2.88c-.12.75-.39,2.13-.63,3.42a17.439,17.439,0,0,1,1.77-.09c2.13,0,3.39.36,4.32,1.26s1.47,2.37,1.47,4.83c0,4.59-.78,8.58-2,10.32a3.128,3.128,0,0,1-2.94,1.41,11.285,11.285,0,0,1-4.53-1.17,6.726,6.726,0,0,0,.06-1.08,5.6,5.6,0,0,0-.09-1.17,11.222,11.222,0,0,0,4.47,1.38q1.13,0,1.71-1.44a23.2,23.2,0,0,0,1.26-8.34c0-3.18-.9-4.2-3.69-4.2a17.342,17.342,0,0,0-2.16.15,58.27,58.27,0,0,1-6.48,16.32l-2-1.2c2.49-3.27,5.07-9.27,6.42-14.94a39.022,39.022,0,0,0-6,1.08Zm19.71-2.76a27.468,27.468,0,0,1,6.29,10.6l-2,1.08a25.327,25.327,0,0,0-6.12-10.77Zm1.35-5.1a22.736,22.736,0,0,1,3.09,4.65l-1.5.9a23,23,0,0,0-3.09-4.77Zm3.39-1.62a24.08,24.08,0,0,1,3.09,4.65l-1.54.83a21.743,21.743,0,0,0-3.06-4.71Z"/><path class="cls-1" d="M730.14,139.69a20.986,20.986,0,0,0,5.61.48h.75a16.406,16.406,0,0,1,.15-2.25c0-.33.09-1.5.09-1.71a3.072,3.072,0,0,0,0-.45l2.34.15a20.016,20.016,0,0,0-.63,4.2,46.126,46.126,0,0,0,11.43-1.68l.12,2.1-1.05.15a83.974,83.974,0,0,1-10.62,1.2c-.18,2.55-.18,2.55-.21,4a15.866,15.866,0,0,1,4.44-.6,12,12,0,0,1,1.74.09,11.28,11.28,0,0,0,.72-2.7l2.07.63c-.09.18-.42,1-.93,2.4,4.14,1,6.45,3.51,6.45,7,0,2.94-1.62,5.31-4.71,6.93a16.5,16.5,0,0,1-6.12,1.71,6.181,6.181,0,0,0-1-2,13.977,13.977,0,0,0,4.5-.81c3.27-1.14,5.16-3.33,5.16-6s-1.71-4.38-4.95-5.22a26.992,26.992,0,0,1-5.7,9c-2.31,2.4-4.59,3.63-6.69,3.63s-3.87-1.89-3.87-4.56c0-3.69,2.61-7.05,7-8.94a38.125,38.125,0,0,1,.18-4.53h-1.2c-.3,0-1.65-.06-4-.15a4.864,4.864,0,0,0-.54,0,3.2,3.2,0,0,0-.48,0Zm2.88,11.1a7.093,7.093,0,0,0-1.83,4.47c0,1.65.87,2.73,2.16,2.73a5.419,5.419,0,0,0,3.45-1.53,42.5,42.5,0,0,1-.6-8.13,10.736,10.736,0,0,0-3.18,2.48Zm5.49,4.44a3.238,3.238,0,0,1,.57-.78,27.1,27.1,0,0,0,4.59-7.5c-1-.06-1.11-.06-1.44-.06a13.465,13.465,0,0,0-4.17.69,50.541,50.541,0,0,0,.33,6.87,1.966,1.966,0,0,1,0,.42v.33Z"/><path class="cls-1" d="M7.08,194.79a13.867,13.867,0,0,0,2.82.18c2.49,0,6.48-.18,9.18-.39a3.062,3.062,0,0,0,1.44-.33l1.26,1.65a5.532,5.532,0,0,0-1.53,1.26,77.07,77.07,0,0,1-9.87,8.53l.06.09a15.2,15.2,0,0,1,7.35-1.86c5,0,8.22,2.46,8.22,6.3,0,4.68-4.35,7.77-11,7.77-4.23,0-6.66-1.56-6.66-4.32,0-2,1.86-3.51,4.35-3.51a6,6,0,0,1,5,2.46,8.586,8.586,0,0,1,1.38,2.88c3.15-.87,4.8-2.7,4.8-5.25,0-2.88-2.4-4.59-6.45-4.59A19.25,19.25,0,0,0,4.8,210.79l-1.35-1.92a33.311,33.311,0,0,0,4.2-3.06c3.21-2.55,7.95-6.72,10-8.76l.42-.42.12-.12.12-.12-.06-.06h-.27c-1,.18-4.56.39-9.12.54a14.666,14.666,0,0,0-1.62.15Zm5.64,17.07c-1.5,0-2.43.72-2.43,1.86a2,2,0,0,0,1.2,1.83,7.661,7.661,0,0,0,3.36.69,10.809,10.809,0,0,0,2.19-.21C16.38,213.3,14.88,211.86,12.72,211.86Z"/><path class="cls-1" d="M43.29,193.14a52.224,52.224,0,0,0,2.25,9.93c1.77-.72,2.61-1,7.26-2.67a16.213,16.213,0,0,0,1.92-.78l.9,2.28a68.966,68.966,0,0,0-9,2.91c-5.13,2-7.35,4-7.35,6.51,0,2.73,2.31,3.78,8.19,3.78a29.815,29.815,0,0,0,8.58-1l.23,2.49a15.571,15.571,0,0,0-2.21.18,60.191,60.191,0,0,1-6.63.39,20.4,20.4,0,0,1-6.66-.81c-2.46-.9-3.72-2.55-3.72-4.92a6.492,6.492,0,0,1,2.67-5.1,18.66,18.66,0,0,1,3.92-2.45,61.177,61.177,0,0,1-2.19-8.4,10.055,10.055,0,0,0-.51-1.89Z"/><path class="cls-1" d="M68.48,202.29a27.324,27.324,0,0,0-3.42.18V200.4a21.587,21.587,0,0,0,3.39.18h7.62v-3.42H71.42a23.814,23.814,0,0,0-3.27.15v-2a20.313,20.313,0,0,0,3.27.18h4.65v-.54a18.474,18.474,0,0,0-.18-2.82h2.22a13.867,13.867,0,0,0-.18,2.82v.54h2.88a20.929,20.929,0,0,0,3.3-.18v2a20.359,20.359,0,0,0-3.18-.15h-3v3.42h2.46a33.359,33.359,0,0,0,6.09-5.4,11.422,11.422,0,0,0,1.65-2.28l1.74,1.26c-.18.21-.24.27-.51.6a48.274,48.274,0,0,1-6.24,5.82h5.07a21.171,21.171,0,0,0,3.3-.18v2.07a25.99,25.99,0,0,0-3.3-.18H80.84a47.449,47.449,0,0,1-5.07,3.12c-.12.42-.15.54-.24.93,6.45-.72,10.68-1.5,12.18-2.25l1.23,1.77a115.339,115.339,0,0,1-13.92,2.13c-.27.81-.42,1.2-.78,2.13h10a26.283,26.283,0,0,0,3.39-.12,12.793,12.793,0,0,0-.24,1.71,23.385,23.385,0,0,1-1.2,6.06c-.48,1.08-1.35,1.47-3.36,1.47a49.744,49.744,0,0,1-5-.33,7,7,0,0,0-.39-2,33.582,33.582,0,0,0,5.43.6c1.11,0,1.5-.3,1.83-1.44a21.9,21.9,0,0,0,.72-4.23H73.55c-.27.57-.45,1-1,2.1l-2.07-.33a33.722,33.722,0,0,0,3.12-7.08,77.719,77.719,0,0,1-8.07,3.45,5.281,5.281,0,0,0-1.05-1.77,58.6,58.6,0,0,0,13.38-5.91Z"/><path class="cls-1" d="M100.93,200.69c.75.06,1.14.06,1.8.06a102.4,102.4,0,0,0,10.53-.72,5.7,5.7,0,0,0,1.44-.33l1.32,1.65a27.572,27.572,0,0,0-2.67,2.49,66.6,66.6,0,0,1-5.94,5.4c1.68-.81,2.19-1,3-1a2.782,2.782,0,0,1,2,.78c.6.6.81,1.29.93,3,.12,1.89.21,2.34.54,2.82s1.11.81,2.49.81a16.166,16.166,0,0,0,6.06-1.11l.33,2.31a15.508,15.508,0,0,0-2.43.36,23.806,23.806,0,0,1-4.11.39c-2.25,0-3.57-.54-4.2-1.71a7.588,7.588,0,0,1-.66-3.3,5.182,5.182,0,0,0-.33-2.07,1.47,1.47,0,0,0-1.38-.72c-1.56,0-3,.84-5.52,3.15-1.47,1.35-3.45,3.39-4.5,4.59l-1.64-1.85a21.655,21.655,0,0,0,3.24-2.76c2.16-2,4.65-4.41,7.08-6.81.87-.87,2.4-2.37,4.56-4.44a57.6,57.6,0,0,1-8.94,1c-1.44.09-2.07.15-2.85.24Zm3.48-7.38a36.7,36.7,0,0,0,10.86,1.86l-.42,2a42.719,42.719,0,0,1-11.19-2Z"/><path class="cls-1" d="M133.64,194.79a13.9,13.9,0,0,0,2.83.18c2.48,0,6.47-.18,9.17-.39a3.062,3.062,0,0,0,1.44-.33l1.26,1.65a5.532,5.532,0,0,0-1.53,1.26,76.993,76.993,0,0,1-9.87,8.52l.06.09a15.2,15.2,0,0,1,7.35-1.86c5,0,8.22,2.46,8.22,6.3,0,4.68-4.35,7.77-11,7.77-4.23,0-6.66-1.56-6.66-4.32,0-2,1.86-3.51,4.35-3.51a6,6,0,0,1,4.95,2.46,8.582,8.582,0,0,1,1.43,2.88c3.15-.87,4.8-2.7,4.8-5.25,0-2.88-2.4-4.59-6.45-4.59a19.212,19.212,0,0,0-12.62,5.13l-1.35-1.92a33.406,33.406,0,0,0,4.19-3.06c3.21-2.55,7.95-6.72,10-8.76l.42-.42.12-.12.12-.12-.06-.06h-.27c-1,.18-4.56.39-9.11.54a14.823,14.823,0,0,0-1.63.15Zm5.64,17.07c-1.5,0-2.43.72-2.43,1.86a2,2,0,0,0,1.21,1.83,7.587,7.587,0,0,0,3.35.69,10.809,10.809,0,0,0,2.19-.21c-.65-2.73-2.15-4.17-4.31-4.17Z"/><path class="cls-1" d="M167.94,214.59a4.49,4.49,0,1,1,0-.02Zm-7.29,0a2.79,2.79,0,1,0,2.79-2.79h0a2.8,2.8,0,0,0-2.8,2.79Z"/><path class="cls-1" d="M193.41,199.32a29.588,29.588,0,0,0-3.3.18v-2.19a22.34,22.34,0,0,0,3.3.21h8.4v-2.55a16.98,16.98,0,0,0-.21-2.73h2.37a16.07,16.07,0,0,0-.21,2.7v2.58h8.88a19.674,19.674,0,0,0,3.36-.21v2.19a32.513,32.513,0,0,0-3.36-.18h-8.1c3.36,6.06,7.38,10.26,12.36,13a8.008,8.008,0,0,0-1.38,1.95,34,34,0,0,1-6.24-5.25,28.556,28.556,0,0,1-5.61-8.43c.09,1.8.12,2.91.12,3.9v6.81h3.27a17.7,17.7,0,0,0,2.91-.15v2.1a16.547,16.547,0,0,0-3-.18h-3.21v2.85a22.363,22.363,0,0,0,.21,3.45h-2.33a23.815,23.815,0,0,0,.21-3.48v-2.82h-2.88a16.922,16.922,0,0,0-3,.18v-2.1a18.128,18.128,0,0,0,3,.15h2.94v-6.81c0-1.11,0-2.25.12-3.87a27.984,27.984,0,0,1-5.67,8.67,32.356,32.356,0,0,1-5.69,5,5.84,5.84,0,0,0-1.42-1.77,27.189,27.189,0,0,0,7-6.09,32.8,32.8,0,0,0,4.89-7.11Z"/><path class="cls-1" d="M224.1,195.18a12.816,12.816,0,0,0-2.58.18v-2a16.052,16.052,0,0,0,2.7.18h4.89a11.7,11.7,0,0,0,2.52-.18v2a19.725,19.725,0,0,0-2.43-.12h-1.86a29.363,29.363,0,0,1-2.07,7.62h3.75a13.761,13.761,0,0,0,1.86-.09,22.36,22.36,0,0,0-.09,2.4v9.27a19.644,19.644,0,0,0,.12,2.52h-1.89v-1.5H225.3v3.18h-2a18.163,18.163,0,0,0,.18-2.91v-6.66c0-1.08,0-2,.09-3.36a13.719,13.719,0,0,1-2.25,3.66,5.009,5.009,0,0,0-1.08-1.8,20.406,20.406,0,0,0,4.14-7.62,21.006,21.006,0,0,0,1-4.71Zm1.2,18.6h3.72v-9.39H225.3Zm10.41-18.6a19.531,19.531,0,0,0-2.91.18v-2.07a18.355,18.355,0,0,0,3,.18h9.48a20.064,20.064,0,0,0,3-.18v2.07a15.746,15.746,0,0,0-2.91-.18h-.73v8.31h1a15.856,15.856,0,0,0,3-.18v2.13a19.546,19.546,0,0,0-3-.18h-1v10.77a22.673,22.673,0,0,0,.21,3.21h-2.31a22.381,22.381,0,0,0,.21-3.21V205.26h-4.91c-.3,6.69-1.59,10.32-5,14.28a5.445,5.445,0,0,0-1.74-1.35c3.15-3,4.56-6.75,4.83-12.93h-.84a16.735,16.735,0,0,0-3,.18v-2.1a19.538,19.538,0,0,0,3,.15h.9v-8.31Zm2.19,7.29v1h4.89v-8.31H237.9Z"/><path class="cls-1" d="M269.09,207.15a26.557,26.557,0,0,0,3.36-.15c-.06.66-.09,1.29-.12,2.64l-.12,6.09c0,.9.33,1,2.67,1,2.1,0,2.7-.15,2.91-.69a17.522,17.522,0,0,0,.48-4.5,7.369,7.369,0,0,0,1.95.78c-.48,6-.66,6.18-5.49,6.18-3.66,0-4.44-.39-4.44-2.4v-.15l.12-7h-5.58a11.5,11.5,0,0,1-2.34,4.95,13.234,13.234,0,0,1-3.21,2.88,20.239,20.239,0,0,1-5,2.46,4.628,4.628,0,0,0-1.32-1.71,18.726,18.726,0,0,0,5.76-2.7,9.8,9.8,0,0,0,4.17-5.88h-4.74a21.4,21.4,0,0,0-3.24.18V207a20.251,20.251,0,0,0,3.18.18h5.16a21.266,21.266,0,0,0,.21-2.52,9.989,9.989,0,0,0-.12-1.62h2.28a9.116,9.116,0,0,0-.24,1.89c-.06.72-.12,1.47-.24,2.22Zm-4-12.69a9.221,9.221,0,0,0-.21-2.16h2.34a8.765,8.765,0,0,0-.21,2.16v.93h8.91a25.477,25.477,0,0,0,3-.15,13.518,13.518,0,0,0-.12,2.07v1.53a13.911,13.911,0,0,0,.12,2.1h-2V197.1h-7.47v4.35c0,.36.06.51.21.6a5.9,5.9,0,0,0,1.92.21,5.539,5.539,0,0,0,2.43-.33c.33-.24.48-1,.51-2.43a6.266,6.266,0,0,0,1.8.57c-.15,1.89-.39,2.73-.9,3.18s-1.74.66-3.87.66c-3.15,0-3.9-.33-3.9-1.65V197.1h-3.69a8.221,8.221,0,0,1-1.05,3.33,8.451,8.451,0,0,1-4.74,3.81,27.718,27.718,0,0,1-2.79.87,8.181,8.181,0,0,0-1.14-1.65c3.21-.6,4.71-1.2,6-2.4a5.673,5.673,0,0,0,1.83-4h-6.33v3.81h-2a14.453,14.453,0,0,0,.12-2.1v-1.5a13.518,13.518,0,0,0-.12-2.07,25.477,25.477,0,0,0,3,.15h8.31Z"/><path class="cls-1" d="M305.08,210.51a21.663,21.663,0,0,0,3.18-.15v2a22.231,22.231,0,0,0-3.18-.15h-6.36v4.23h8.82a22.826,22.826,0,0,0,3.75-.21v2.1a32.483,32.483,0,0,0-3.87-.18H288.7a32.7,32.7,0,0,0-3.87.18v-2.1a23.191,23.191,0,0,0,3.78.21h8.22v-4.25h-5.76a22.073,22.073,0,0,0-3.21.15v-2a21.259,21.259,0,0,0,3.21.15h5.76v-.45a14.917,14.917,0,0,0-.19-2.35h2.25a14.358,14.358,0,0,0-.18,2.37v.45Zm-8.34-16.44a11.758,11.758,0,0,0-.18-2h2.31a10.735,10.735,0,0,0-.18,2v.78h7.83a34.393,34.393,0,0,0,4-.12,13.547,13.547,0,0,0-.12,2.13v1.5a13.115,13.115,0,0,0,.12,2h-2v-3.87h-21v3.87h-2V200a13.964,13.964,0,0,0,.09-1.71V196.7a15.188,15.188,0,0,0-.12-2q1.855.153,3.72.12h7.47Zm-4.44,7a24.213,24.213,0,0,0-3.51.15V199.3a22.991,22.991,0,0,0,3.42.15h11.64a23.813,23.813,0,0,0,3.45-.15v1.92a23.828,23.828,0,0,0-3.42-.15h-7.71a29.466,29.466,0,0,1-2.43,4.17c3.33-.09,5.85-.24,10-.54a29.35,29.35,0,0,0-2.76-2.16l1.44-.93a52.155,52.155,0,0,1,6.36,5.37l-1.44,1.23a24.2,24.2,0,0,0-2.07-2.13c-5.34.45-11.49.81-17.07,1a7.032,7.032,0,0,0-1.14.12l-.3-1.92q.927.092,1.86.09c1,0,1.68,0,3.12-.06a28.146,28.146,0,0,0,2.46-4.26Z"/><path class="cls-1" d="M317.32,197.28h1.08a14.725,14.725,0,0,0,1.71-.09c1.68-.12,1.86-.15,5.55-.36l4.71-.3c3.69-.21,4.08-.24,5.07-.27l1.71-.06a20.264,20.264,0,0,0,3.57-.33l.18,2.22a12.573,12.573,0,0,0-3.36.42,14.76,14.76,0,0,0-5.76,3,9.17,9.17,0,0,0-3.69,6.93c0,2.52,1.53,4.53,4.2,5.55a15.381,15.381,0,0,0,4.5,1h.3l-.39,2.43c-.33-.06-.39-.09-.93-.18a15.131,15.131,0,0,1-6.48-2.31,7.261,7.261,0,0,1-3.33-6.12c0-3.48,2-6.78,5.61-9.21a19.612,19.612,0,0,1,2.85-1.59,61.378,61.378,0,0,1-6.6.66,99.711,99.711,0,0,0-10.35,1Zm20.07,4.47a23.167,23.167,0,0,1,3.09,4.65l-1.53.9a21.1,21.1,0,0,0-3.06-4.77Zm3.39-1.65a24.326,24.326,0,0,1,3.09,4.68l-1.5.84a23.706,23.706,0,0,0-3.06-4.71Z"/><path class="cls-1" d="M354.3,193.98c-1.29,3-2.31,9.15-2.31,14.07,0,1,.06,2.82.12,4.2v1.44h.12a26.628,26.628,0,0,1,1.77-5.28,4.037,4.037,0,0,0,.24-.6l1.47.69c-1.41,2.94-2.58,6.75-2.58,8.52a3.272,3.272,0,0,0,.06.6l-2.13.21a7.551,7.551,0,0,0-.18-1.11,47.736,47.736,0,0,1-.84-8.91,50.836,50.836,0,0,1,1.6-12.33,13.762,13.762,0,0,0,.33-1.89Zm3,5.58a20.763,20.763,0,0,0,5.4.48c1.17,0,2,0,3.21-.09v-5.1a6.665,6.665,0,0,0-.09-1.23h2.25a30.631,30.631,0,0,0-.21,4.71v1.47a20.44,20.44,0,0,0,5.19-1.11l.09,2c-.06,0-.06,0-2.1.42a28.668,28.668,0,0,1-3.18.48c0,3,.09,4.5.33,8.49a21.721,21.721,0,0,1,5,2.94c.36.24.42.3.75.51l-.93,2.1a16.2,16.2,0,0,0-4.26-3.12,1.938,1.938,0,0,1-.3-.18l-.27-.18a4.251,4.251,0,0,1,.06.78,5.18,5.18,0,0,1-.36,2c-.72,1.59-2.55,2.52-5,2.52-3.48,0-5.67-1.65-5.67-4.26s2.37-4.26,5.7-4.26a8.468,8.468,0,0,1,3.33.6c-.09-.63-.21-3.45-.3-7.83-1.35.06-2.28.09-3.42.09s-2.34,0-3.39-.09a7.965,7.965,0,0,0-1-.06,4.339,4.339,0,0,0-.51,0,1.368,1.368,0,0,0-.3,0h-.12Zm5.76,11.25c-2.34,0-3.87,1-3.87,2.49s1.45,2.39,3.51,2.39a4.13,4.13,0,0,0,3.06-1,3.5,3.5,0,0,0,.57-2.34v-.9a7.743,7.743,0,0,0-3.24-.64Z"/><path class="cls-1" d="M380.81,199.74a30.717,30.717,0,0,1,5.19,3.93l-1.17,1.65a23.185,23.185,0,0,0-5.16-4.2Zm5.43,9.87a48.971,48.971,0,0,1-4.11,8.52c-.15.3-.15.3-.39.72l-1.77-1.56a5.9,5.9,0,0,0,.84-1.05,31.006,31.006,0,0,0,3.84-7.8Zm-3.84-16.92a26.088,26.088,0,0,1,4.8,4l-1.2,1.56a21.955,21.955,0,0,0-4.83-4.23Zm7.23.42a25.379,25.379,0,0,1,3.33,5.61l-1.68.9a23.464,23.464,0,0,0-3.33-5.64Zm5.7,1.59a19.272,19.272,0,0,0-.18-2.82h2.25a19.272,19.272,0,0,0-.18,2.82v5.7h4.56a17.685,17.685,0,0,0,2.76-.15,24.138,24.138,0,0,0-.12,2.82v13.71c0,1.62-.66,2.1-2.88,2.1-.87,0-2.22-.09-3.51-.21a7.911,7.911,0,0,0-.42-2,22.98,22.98,0,0,0,3.81.39c.87,0,1.11-.15,1.11-.66v-3.71H390.71v3.18a24.182,24.182,0,0,0,.18,3.36h-2.25a31.418,31.418,0,0,0,.15-3.36V203.01a25.884,25.884,0,0,0-.09-2.7,21.2,21.2,0,0,0,2.76.12h3.84Zm7.2,7.38H390.71v3.61h11.82Zm-11.82,8.88h11.82V207.3H390.71Zm14-17.1a37.479,37.479,0,0,1-3.27,5.85l-1.65-.87a21.749,21.749,0,0,0,3.06-5.82Z"/><path class="cls-1" d="M434.83,200.28a21.635,21.635,0,0,0,2.88-.09c-.15.66-.15.69-.27,1.44a5.108,5.108,0,0,1-.69,2.43,1.891,1.891,0,0,1-1.53.54h-.78c0,.75-.06,1.68-.06,2.76v4.83a25.309,25.309,0,0,0,.12,3.09,32.485,32.485,0,0,0-3.36-.12H418.4a31.909,31.909,0,0,0-3.33.12,27.312,27.312,0,0,0,.11-3v-6.66a22.124,22.124,0,0,1-3.32,1.14,4.528,4.528,0,0,0-1-1.53c4.25-.9,6.3-1.8,7.85-3.51h-3.84a23.27,23.27,0,0,0-2.67.09,16.868,16.868,0,0,0,1.68-4.71c.66.06,1.36.09,2.73.09h3.87a12.555,12.555,0,0,0,.15-1.62h-5.22a21.181,21.181,0,0,0-3,.15v-1.74a17.913,17.913,0,0,0,3,.15h5.29a10.64,10.64,0,0,0-.16-2h1.95c0,.27-.05,1-.12,2h4.77v-.33a8,8,0,0,0-.15-1.74h2a8.086,8.086,0,0,0-.15,1.77v.3h4.32a16.561,16.561,0,0,0,2.85-.15,11.57,11.57,0,0,0-.12,1.95v1a7.681,7.681,0,0,0,.09,1.68c-.87-.06-1.71-.09-2.85-.09h-4.29v1.8Zm-13.34,16.23a26.4,26.4,0,0,1-8.94,3.24,5.58,5.58,0,0,0-1.08-1.68,22.52,22.52,0,0,0,8.63-2.67Zm-6.09-18c-.33,1-.45,1.29-.66,1.8h4.9a7.934,7.934,0,0,0,.6-1.8Zm1.59,8.88h15.56v-1.8H416.99Zm0,3.15h15.56v-1.77H416.99Zm0,3.18h15.56v-1.8H416.99Zm16.19-9.54a7.087,7.087,0,0,0-.3-1.26,6.37,6.37,0,0,0,1.86.39c.69,0,.75-.06,1-1.62H428.9v.27a6.728,6.728,0,0,0,.15,1.65h-2a6.632,6.632,0,0,0,.15-1.62v-.3h-6.46a7.594,7.594,0,0,1-2.74,2.49Zm-11.19-5.67a7.342,7.342,0,0,1-.54,1.8h5.73v-1.8Zm.36-3c-.09,1-.09,1-.15,1.62h5v-1.62Zm7,19.92a16.994,16.994,0,0,0,4.41,1.77,24.288,24.288,0,0,0,4.5.81,8.1,8.1,0,0,0-1.14,1.71,26.606,26.606,0,0,1-4.44-1.11,20.926,20.926,0,0,1-4.74-2.1Zm-.45-18.3h5.28v-1.62H428.9Z"/><path class="cls-1" d="M454.87,209.16c-1.74,4-3.51,5.76-5.67,5.76-2.85,0-5-3.12-5-7.32a12.18,12.18,0,0,1,12.072-12.288q.384,0,.768.018a11.611,11.611,0,0,1,8.25,3,10,10,0,0,1,2.91,7.32A10.921,10.921,0,0,1,461.33,216a23.212,23.212,0,0,1-4.56,1.38,4.766,4.766,0,0,0-1-2,18.022,18.022,0,0,0,5-1.41,9.059,9.059,0,0,0,5.31-8.4,7.91,7.91,0,0,0-4.77-7.53,8.622,8.622,0,0,0-3.48-.75A45.02,45.02,0,0,1,454.87,209.16Zm-3.69-10.47a10.369,10.369,0,0,0-4.89,8.94c0,2.88,1.26,5.1,2.88,5.1,1.26,0,2.46-1.41,3.75-4.35a41.217,41.217,0,0,0,2.73-11.1A9.469,9.469,0,0,0,451.18,198.69Z"/><path class="cls-1" d="M479.04,204.87c-.4,6.82-1.4,10.38-3.9,14.52a7,7,0,0,0-1.56-1.56,17.409,17.409,0,0,0,2.64-6c.78-3.3,1.17-8.28,1.17-15.45a17.4,17.4,0,0,0-.15-3,29.822,29.822,0,0,0,3.66.15h14.67a23.571,23.571,0,0,0,3.12-.15,19.955,19.955,0,0,0-.06,2.16v2.82a16.286,16.286,0,0,0,.06,2c-.93-.06-1.74-.09-3-.09h-16.5c0,1.38,0,1.38-.09,2.88h18.24a19.526,19.526,0,0,0,2.88-.15c-.06.45-.06.6-.09,1.08-.27,6.36-.66,10.05-1.35,12.48a3.342,3.342,0,0,1-1.5,2.28,4.87,4.87,0,0,1-2.4.36,36.07,36.07,0,0,1-3.63-.18,6.12,6.12,0,0,0-.42-2,24.529,24.529,0,0,0,4.29.45c1,0,1.38-.21,1.74-1.17.72-1.89,1.2-6.21,1.26-11.46Zm17.73-6.27v-3.42H479.25v3.42Zm-15.21,18.36c.09-1,.15-1.92.15-2.85v-4.42a17.7,17.7,0,0,0-.12-2.37,22.41,22.41,0,0,0,2.79.12h6.45a19.894,19.894,0,0,0,2.64-.12,15.913,15.913,0,0,0-.12,2.34v3a16.609,16.609,0,0,0,.12,2.37,25.836,25.836,0,0,0-2.61-.09h-7.29v2Zm2-3.66h8v-4.23h-8Z"/><path class="cls-1" d="M528.17,199.35a29.152,29.152,0,0,0,3.57-.15,32.464,32.464,0,0,0-.18,3.78v13a26.082,26.082,0,0,0,.18,3.6h-2.1v-1.71H509.33v1.71h-2.1a23.078,23.078,0,0,0,.18-3.66V202.98a35.614,35.614,0,0,0-.18-3.78,28.573,28.573,0,0,0,3.51.15h5.61a17.46,17.46,0,0,0,1.77-4.29h-8.67a23.971,23.971,0,0,0-3.18.18v-2.1a22.877,22.877,0,0,0,3.15.18h20.13a23.971,23.971,0,0,0,3.18-.18v2.1a23.474,23.474,0,0,0-3.18-.18h-9.39a20.659,20.659,0,0,1-1.71,4.29ZM509.33,201v15.18h4.92V201Zm13.38,0h-6.63v3.9h6.63Zm-6.63,9.36h6.63v-3.84h-6.63Zm0,5.82h6.63v-4.2h-6.63Zm8.46,0h5.1V201h-5.1Z"/><path class="cls-1" d="M544.31,194.1a42.5,42.5,0,0,0-1.26,4.8,44.326,44.326,0,0,0-.9,9.39c0,2.34.06,4.11.18,5.7a27.92,27.92,0,0,1,1.95-5.85l1.44.69c-1.35,3-2.43,6.57-2.43,8.25v.45l-2.16.18c-.06-.48-.09-.63-.18-1.2a42.96,42.96,0,0,1-.78-8.49,49.654,49.654,0,0,1,1.35-11.88,16.693,16.693,0,0,0,.42-2.4Zm7.65,12.06c-1.5,1.65-2.25,3.09-2.25,4.41,0,2.22,1.89,3.3,5.76,3.3a19.784,19.784,0,0,0,6.9-1l.29,2.31a5.373,5.373,0,0,0-1,.15,31.048,31.048,0,0,1-6.15.6c-3.42,0-5.58-.72-6.87-2.28a4.244,4.244,0,0,1-.9-2.76c0-1.83.75-3.45,2.61-5.58Zm-3.81-8.88a20.368,20.368,0,0,0,5.1.45,32.224,32.224,0,0,0,8-.81l.15,2.13-2.07.27a50.762,50.762,0,0,1-6.45.39,40.114,40.114,0,0,1-4.8-.3Z"/><path class="cls-1" d="M585.46,199.38c-.36.06-.48.09-.9.18a52.686,52.686,0,0,1-5.31.9v5.23a21.236,21.236,0,0,1,6.45-1.08,10.165,10.165,0,0,1,5.31,1.26,6.17,6.17,0,0,1-3,11.52,4.42,4.42,0,0,1-4.62-3.39,11.008,11.008,0,0,1-.36-3.39,6.5,6.5,0,0,0,2-.78,8.793,8.793,0,0,0-.06,1.17c0,3.12.9,4.41,3.09,4.41a4,4,0,0,0,4.007-3.993c0-.079,0-.158-.007-.237,0-2.94-2.49-4.77-6.42-4.77a20.263,20.263,0,0,0-6.36,1.17v7.5c0,1.62-.72,2.4-2.19,2.4a7.92,7.92,0,0,1-4.95-1.92,3.619,3.619,0,0,1-1.38-2.82c0-1.32.75-2.61,2.37-4a16,16,0,0,1,4.23-2.46v-5.67l-1.2.09h-4.74v-2a17.041,17.041,0,0,0,3.06.21c.81,0,2,0,2.88-.09v-3a19.962,19.962,0,0,0-.15-2.85h2.22a17.119,17.119,0,0,0-.15,2.79v2.93a30.315,30.315,0,0,0,6.12-1.29Zm-8.13,8.85c-3,1.44-4.65,3.06-4.65,4.5,0,.63.42,1.23,1.29,1.8a5.605,5.605,0,0,0,2.67.87c.6,0,.69-.18.69-1.47Zm16.47-5.64a24.582,24.582,0,0,0-6.06-5.9l1.56-1.17a25.2,25.2,0,0,1,6.06,5.7Z"/><path class="cls-1" d="M607.64,194.01a51.856,51.856,0,0,0-1.83,13.08c0,1.65.12,3.87.24,4.89a10.5,10.5,0,0,1,.18,1.62,32.816,32.816,0,0,1,2.52-6.36l1.53.72q-1.24,2.568-2.22,5.25a11.713,11.713,0,0,0-.84,3.81l-2.07.18a7.994,7.994,0,0,0-.24-1,34.148,34.148,0,0,1-1.11-8.88,61.72,61.72,0,0,1,1.2-11.55,15.347,15.347,0,0,0,.27-2.07Zm3.06,6.06a24.291,24.291,0,0,0,5.1.39c1.2,0,2.31-.06,3.81-.18a57.85,57.85,0,0,0-.36-7h2.31a6.986,6.986,0,0,0-.09,1v.9c0,.54,0,.69.18,4.86a15.816,15.816,0,0,0,4.77-1.26l.15,2.16a15.164,15.164,0,0,0-1.59.36,28.53,28.53,0,0,1-3.27.6v2.16c0,5.7-.54,8.16-2.31,10.56a14.511,14.511,0,0,1-4.71,3.87,6.921,6.921,0,0,0-1.62-1.62,12.3,12.3,0,0,0,4.59-3.45c1.53-2,2-4.14,2-8.94,0-.84,0-1.5-.06-2.37-1.32.12-3.06.18-4.38.18-.84,0-2.55-.06-3.63-.12a4.422,4.422,0,0,0-.54,0,3.072,3.072,0,0,0-.45,0Z"/><path class="cls-1" d="M638.15,194.79a13.9,13.9,0,0,0,2.83.18c2.48,0,6.47-.18,9.17-.39a3.062,3.062,0,0,0,1.44-.33l1.26,1.65a5.532,5.532,0,0,0-1.53,1.26,76.993,76.993,0,0,1-9.87,8.52l.06.09a15.2,15.2,0,0,1,7.35-1.86c5,0,8.22,2.46,8.22,6.3,0,4.68-4.35,7.77-11,7.77-4.23,0-6.66-1.56-6.66-4.32,0-2,1.86-3.51,4.35-3.51a6,6,0,0,1,5,2.46,8.586,8.586,0,0,1,1.38,2.88c3.15-.87,4.8-2.7,4.8-5.25,0-2.88-2.4-4.59-6.45-4.59a19.212,19.212,0,0,0-12.62,5.13l-1.35-1.92a33.479,33.479,0,0,0,4.19-3.06c3.21-2.55,8-6.72,10-8.76l.42-.42.12-.12.12-.12-.06-.06h-.27c-1,.18-4.56.39-9.11.54a14.823,14.823,0,0,0-1.63.15Zm5.64,17.07c-1.5,0-2.43.72-2.43,1.86a2,2,0,0,0,1.21,1.83,7.587,7.587,0,0,0,3.35.69,10.809,10.809,0,0,0,2.19-.21C647.45,213.3,645.95,211.86,643.79,211.86Z"/><path class="cls-1" d="M676.64,193.69a8.9,8.9,0,0,0-.18-2h2.28a11.177,11.177,0,0,0-.18,2v1.32h9.45a21.693,21.693,0,0,0,3.12-.18v2a28.959,28.959,0,0,0-3.06-.15h-4a24.389,24.389,0,0,1-1.74,3.63h4.56a21.076,21.076,0,0,0,2.82-.12,18.613,18.613,0,0,0-.12,2.43v14.07c0,1.05-.24,1.68-.75,2a4.055,4.055,0,0,1-2.52.45c-.84,0-1.95,0-3.33-.12a6.35,6.35,0,0,0-.54-2,35.859,35.859,0,0,0,3.9.33c1.08,0,1.35-.18,1.35-.81V201.96h-6.75v2.91c0,.54.18.6,1.89.6s2.13-.06,2.31-.45a4.5,4.5,0,0,0,.3-1.71,4.456,4.456,0,0,0,1.53.69c-.39,2.76-.78,3-4.29,3-2.91,0-3.48-.27-3.48-1.68v-3.39h-3.57a7.265,7.265,0,0,1-.87,2.88c-1,1.92-2.37,3-5.49,4.38a5.628,5.628,0,0,0-1.14-1.53c2.91-1,4.17-1.89,5-3.51a5.984,5.984,0,0,0,.63-2.22h-6.06v14.19a24.816,24.816,0,0,0,.18,3.27h-2.25a25.521,25.521,0,0,0,.18-3.27V202.69a20.126,20.126,0,0,0-.12-2.43,23.791,23.791,0,0,0,2.85.12h4.23a17.669,17.669,0,0,0-1.47-3.63h-3.78a29.5,29.5,0,0,0-3.06.15v-2a23.243,23.243,0,0,0,3.12.18h9Zm6.51,19.29a20.686,20.686,0,0,0,.12,2.61,23.476,23.476,0,0,0-2.73-.12h-6.6V217h-1.92a13.16,13.16,0,0,0,.15-2.19v-4.42a14.764,14.764,0,0,0-.12-2.07c.87.06,1.41.09,2.55.09h5.94a25.912,25.912,0,0,0,2.73-.09,18.714,18.714,0,0,0-.12,2.46Zm-2.76-12.66a15.566,15.566,0,0,0,1.65-3.63h-8.76a27.714,27.714,0,0,1,1.44,3.63Zm-6.45,13.59h7.44v-4h-7.44Z"/><path class="cls-1" d="M696.85,209.07a27.718,27.718,0,0,0-.12-2.91,24.463,24.463,0,0,0,2.76.12h5.67a20.025,20.025,0,0,0,2.43-.09,26.023,26.023,0,0,0-.09,2.82v6.93a23.086,23.086,0,0,0,.12,2.94h-2v-1.32h-7v1.89h-2a20.338,20.338,0,0,0,.15-3.12Zm1.86,6.81h7v-7.92h-7Zm2.46-20.25a20.794,20.794,0,0,0-.12-2.52,24.81,24.81,0,0,0,3.36.15h9.81a22.858,22.858,0,0,0,3.39-.15,19.726,19.726,0,0,0-.12,2.49v5.09a21.162,21.162,0,0,0,.12,2.64,28.559,28.559,0,0,0-3.15-.12H704.23a29.1,29.1,0,0,0-3.18.12,22.746,22.746,0,0,0,.12-2.61Zm1.89,5.85h12.51v-6.51H703.06Zm7.41,7.29a18.838,18.838,0,0,0-.09-2.58c.75.06,1.41.09,2.43.09h6.6a20.033,20.033,0,0,0,2.58-.12,26,26,0,0,0-.12,2.94v7.23a19.369,19.369,0,0,0,.15,3.12h-2v-1.89h-7.68v1.89h-1.95a24.675,24.675,0,0,0,.12-2.94Zm1.83,7.11h7.71v-7.92H712.3Z"/><path class="cls-1" d="M739.64,209.16c-1.74,4-3.51,5.76-5.67,5.76-2.85,0-5-3.12-5-7.32a12.18,12.18,0,0,1,12.072-12.288q.384,0,.768.018a11.611,11.611,0,0,1,8.25,3,10,10,0,0,1,2.91,7.32A10.921,10.921,0,0,1,746.1,216a23.212,23.212,0,0,1-4.56,1.38,4.766,4.766,0,0,0-1-2,18.022,18.022,0,0,0,5-1.41,9.059,9.059,0,0,0,5.31-8.4,7.91,7.91,0,0,0-4.77-7.53,8.622,8.622,0,0,0-3.48-.75A45.02,45.02,0,0,1,739.64,209.16Zm-3.68-10.47a10.369,10.369,0,0,0-4.89,8.94c0,2.88,1.26,5.1,2.88,5.1,1.26,0,2.46-1.41,3.75-4.35a41.217,41.217,0,0,0,2.73-11.1A9.469,9.469,0,0,0,735.96,198.69Z"/><path class="cls-1" d="M4.14,253.69a20.986,20.986,0,0,0,5.61.48h.75a16.406,16.406,0,0,1,.15-2.25c0-.33.09-1.5.09-1.71a3.072,3.072,0,0,0,0-.45l2.34.15a20.016,20.016,0,0,0-.63,4.2,46.126,46.126,0,0,0,11.43-1.68l.12,2.1-1,.15a83.974,83.974,0,0,1-10.62,1.2c-.18,2.55-.18,2.55-.21,4a15.866,15.866,0,0,1,4.44-.6,12,12,0,0,1,1.74.09,11.28,11.28,0,0,0,.72-2.7l2.07.63c-.09.18-.42,1-.93,2.4,4.14,1,6.45,3.51,6.45,7,0,2.94-1.62,5.31-4.71,6.93a16.5,16.5,0,0,1-6.12,1.71,6.181,6.181,0,0,0-1-2,13.977,13.977,0,0,0,4.5-.81c3.27-1.14,5.16-3.33,5.16-6s-1.71-4.38-5-5.22a26.992,26.992,0,0,1-5.7,9c-2.31,2.4-4.59,3.63-6.69,3.63s-3.87-1.89-3.87-4.56c0-3.69,2.61-7.05,7-8.94a38.125,38.125,0,0,1,.18-4.53H9.21c-.3,0-1.65-.06-4-.15a4.864,4.864,0,0,0-.54,0,3.2,3.2,0,0,0-.48,0Zm2.88,11.1a7.093,7.093,0,0,0-1.83,4.47c0,1.65.87,2.73,2.16,2.73a5.419,5.419,0,0,0,3.45-1.53,42.5,42.5,0,0,1-.6-8.13,10.736,10.736,0,0,0-3.18,2.48Zm5.49,4.44a3.238,3.238,0,0,1,.57-.78,27.125,27.125,0,0,0,4.59-7.5c-1-.06-1.11-.06-1.44-.06a13.465,13.465,0,0,0-4.17.69,50.541,50.541,0,0,0,.33,6.87,1.966,1.966,0,0,1,0,.42v.33Z"/><path class="cls-1" d="M41.2,250.08a16.936,16.936,0,0,0-.69,3.09c-.48,3-.9,6.3-1,7.83h.12l.21-.87a13.391,13.391,0,0,1,1.8-4.44c1.68-2.58,3.66-3.87,6-3.87a5.651,5.651,0,0,1,4.8,2.67c1.26,1.86,1.8,4.08,1.8,7.29,0,5.43-2.43,9.54-6.93,11.79a22.7,22.7,0,0,1-5.34,1.77,6.2,6.2,0,0,0-1.2-2,15.852,15.852,0,0,0,6.09-1.89c3.51-2,5.16-5.16,5.16-10s-1.68-7.62-4.56-7.62c-2.28,0-4.2,1.71-5.91,5.22a15.662,15.662,0,0,0-1.62,6.69v.72l-2.16.09v-.87l-.06-3.12v-.69a75.774,75.774,0,0,1,1-11.07,5.987,5.987,0,0,0,.09-1Z"/><path class="cls-1" d="M64.46,257.55a63.178,63.178,0,0,0,6.63-.78,36.685,36.685,0,0,0,.9-6.36v-.39l2.4.27a18.434,18.434,0,0,0-.57,2.88c-.15.87-.36,2-.63,3.42a17.439,17.439,0,0,1,1.77-.09c2.13,0,3.39.36,4.32,1.26s1.47,2.37,1.47,4.83c0,4.59-.78,8.58-2,10.32a3.128,3.128,0,0,1-2.94,1.41,11.285,11.285,0,0,1-4.53-1.17,6.585,6.585,0,0,0,.06-1.05,5.816,5.816,0,0,0-.09-1.2,11.222,11.222,0,0,0,4.47,1.38q1.13,0,1.71-1.44a23.2,23.2,0,0,0,1.26-8.34c0-3.18-.9-4.2-3.69-4.2a17.342,17.342,0,0,0-2.16.15,56.6,56.6,0,0,1-4.53,12.72c-.39.72-1,1.92-2,3.6l-2-1.2a28.781,28.781,0,0,0,3.12-5.43,49.529,49.529,0,0,0,3.3-9.51c-2.58.39-4,.63-4.29.69a17.276,17.276,0,0,0-1.74.39Zm19.71-2.76a27.129,27.129,0,0,1,6.27,10.62l-1.92,1.11a24.554,24.554,0,0,0-6.12-10.77Z"/><path class="cls-1" d="M96.03,255.3a20.652,20.652,0,0,0,3.75.27c.6,0,.93,0,1.8-.06a29.373,29.373,0,0,0,.66-5.52l2.37.24a28.394,28.394,0,0,0-.54,2.85c-.15,1-.24,1.38-.39,2.28a24.72,24.72,0,0,0,5.4-1l.15,2.07a2.574,2.574,0,0,0-.84.15,43.75,43.75,0,0,1-5.07.72c-.45,2.37-1.29,5.76-2.1,8.49a79.015,79.015,0,0,1-3.45,9.15l-2.19-.93c2.22-3.87,4.53-10.71,5.64-16.59H99.15c-1.07,0-1.32,0-2.49-.06h-.12a4.339,4.339,0,0,0-.51,0Zm13.41,10.89a10.086,10.086,0,0,0-.9,1.14,3.615,3.615,0,0,0-.75,2.13c0,1.8,1.83,2.76,5.25,2.76a22.276,22.276,0,0,0,6.63-1l.21,2.25-1.32.21a29.988,29.988,0,0,1-5.34.51c-4.92,0-7.47-1.53-7.47-4.5,0-1.35.42-2.28,2-4.32Zm9.27-5.19a30.134,30.134,0,0,0-3.54-.21,26.087,26.087,0,0,0-7.5,1l-.21-2a34.032,34.032,0,0,1,8-1c.57,0,1,0,3.27.09Z"/><path class="cls-1" d="M126.39,268.17a30.583,30.583,0,0,1,6,6.36l-1.68,1.59a29.93,29.93,0,0,0-5.91-6.54Z"/><path class="cls-1" d="M159.84,264.54V248.91h8v1.86h-5.91v13.77Z"/><path class="cls-1" d="M176.16,262.59a27.231,27.231,0,0,0-3.45.15v-2.25a21.089,21.089,0,0,0,3.48.18h6.12v-6.3h-4.44a24.121,24.121,0,0,0-3.42.15v-2.28a16.609,16.609,0,0,0,3.45.21h13.8a16.759,16.759,0,0,0,3.48-.21v2.28a24.247,24.247,0,0,0-3.45-.15h-7.26v6.32h9.17a21.2,21.2,0,0,0,3.48-.18v2.25a27.231,27.231,0,0,0-3.45-.15h-9.15v5.91c0,1.89.12,2.4.75,2.79a8.308,8.308,0,0,0,3.9.6c1.14,0,2.79-.09,4.47-.24a11.273,11.273,0,0,0,2.61-.45v2.34a1.666,1.666,0,0,0-.36,0c-.3,0-.36,0-2.25.18-1.11.09-3.27.18-4.65.18-5.31,0-6.63-.93-6.63-4.68v-6.6Z"/><path class="cls-1" d="M225.45,252.03a12.384,12.384,0,0,0-.75,1.74,37.78,37.78,0,0,1-6.84,11.82,34.721,34.721,0,0,1-11.31,8.31,7.091,7.091,0,0,0-1.53-2.1,28.769,28.769,0,0,0,14.79-12.93,28.3,28.3,0,0,0,3.15-7.68Z"/><path class="cls-1" d="M240.96,260.94v15.63h-7.95v-1.88h5.91V260.94Z"/><path class="cls-1" d="M274.02,250.14a52.224,52.224,0,0,0,2.25,9.93c1.77-.72,2.61-1,7.26-2.67a16.213,16.213,0,0,0,1.92-.78l.9,2.28a68.966,68.966,0,0,0-9,2.91c-5.13,2-7.35,4-7.35,6.51,0,2.73,2.31,3.78,8.19,3.78a29.815,29.815,0,0,0,8.58-1l.24,2.49a15.576,15.576,0,0,0-2.22.18,60.205,60.205,0,0,1-6.63.39,20.4,20.4,0,0,1-6.66-.81c-2.46-.9-3.72-2.55-3.72-4.92a6.489,6.489,0,0,1,2.67-5.1,18.669,18.669,0,0,1,3.93-2.43,61.139,61.139,0,0,1-2.19-8.4,10.055,10.055,0,0,0-.51-1.89Z"/><path class="cls-1" d="M296.17,256.74a30.717,30.717,0,0,1,5.19,3.93l-1.17,1.65a23.185,23.185,0,0,0-5.16-4.2Zm5.43,9.87a48.971,48.971,0,0,1-4.11,8.52c-.15.3-.15.3-.39.72l-1.77-1.56a5.9,5.9,0,0,0,.84-1.05,31.006,31.006,0,0,0,3.84-7.8Zm-3.84-16.92a26.088,26.088,0,0,1,4.8,4l-1.2,1.56a21.955,21.955,0,0,0-4.83-4.23Zm7.23.42a25.379,25.379,0,0,1,3.33,5.61l-1.68.97a23.464,23.464,0,0,0-3.33-5.64Zm5.7,1.59a19.272,19.272,0,0,0-.18-2.82h2.25a19.272,19.272,0,0,0-.18,2.82v5.7h4.56a17.685,17.685,0,0,0,2.76-.15,24.138,24.138,0,0,0-.12,2.82v13.71c0,1.62-.66,2.1-2.88,2.1-.87,0-2.22-.09-3.51-.21a7.911,7.911,0,0,0-.42-2,22.98,22.98,0,0,0,3.81.39c.87,0,1.11-.15,1.11-.66v-3.71H306.07v3.18a24.182,24.182,0,0,0,.18,3.36h-2.22a31.418,31.418,0,0,0,.15-3.36V260.01a25.884,25.884,0,0,0-.09-2.7,21.2,21.2,0,0,0,2.76.12h3.84Zm7.2,7.38H306.07v3.61h11.82Zm-11.82,8.88h11.82V264.3H306.07Zm14-17.1a37.479,37.479,0,0,1-3.27,5.85l-1.65-.87a21.749,21.749,0,0,0,3.06-5.82Z"/><path class="cls-1" d="M349.46,257.28a21.635,21.635,0,0,0,2.88-.09c-.15.66-.15.69-.27,1.44a5.108,5.108,0,0,1-.69,2.43,1.891,1.891,0,0,1-1.53.54h-.78c0,.75-.06,1.68-.06,2.76v4.83a25.309,25.309,0,0,0,.12,3.09,32.485,32.485,0,0,0-3.36-.12H333.02a32.467,32.467,0,0,0-3.33.12,24.632,24.632,0,0,0,.12-3v-6.66a21.872,21.872,0,0,1-3.33,1.14,4.38,4.38,0,0,0-1-1.53c4.26-.9,6.3-1.8,7.86-3.51h-3.8a23.092,23.092,0,0,0-2.67.09,16.868,16.868,0,0,0,1.68-4.71c.66.06,1.35.09,2.73.09h3.87a14.666,14.666,0,0,0,.15-1.62h-5.22a21.181,21.181,0,0,0-3,.15v-1.74a18.128,18.128,0,0,0,3,.15h5.28a10.638,10.638,0,0,0-.15-2h1.95c0,.27-.06,1-.12,2h4.77v-.33a8,8,0,0,0-.15-1.74h2a8.086,8.086,0,0,0-.15,1.77v.3h4.32a16.561,16.561,0,0,0,2.85-.15,11.57,11.57,0,0,0-.12,1.95v1a7.62,7.62,0,0,0,.09,1.68c-.87-.06-1.71-.09-2.85-.09h-4.29v1.8Zm-13.35,16.23a26.306,26.306,0,0,1-8.94,3.24,5.58,5.58,0,0,0-1.08-1.68,22.51,22.51,0,0,0,8.64-2.67Zm-6.09-18c-.33,1-.45,1.29-.66,1.8h4.95a8.459,8.459,0,0,0,.6-1.8Zm1.59,8.88h15.57v-1.8H331.64Zm0,3.15h15.57v-1.77H331.64Zm0,3.18h15.57v-1.8H331.64Zm16.2-9.54a7.087,7.087,0,0,0-.3-1.26,6.37,6.37,0,0,0,1.86.39c.69,0,.75-.06,1-1.62h-6.84v.27a6.728,6.728,0,0,0,.15,1.65h-2a6.632,6.632,0,0,0,.15-1.62v-.3h-6.45a7.489,7.489,0,0,1-2.73,2.49h15.16Zm-11.17-5.7a7.342,7.342,0,0,1-.54,1.8h5.73v-1.8Zm.36-3c-.09,1-.09,1-.15,1.62h5v-1.62Zm7,19.92a16.994,16.994,0,0,0,4.41,1.77,24.288,24.288,0,0,0,4.5.81,8.1,8.1,0,0,0-1.14,1.71,26.7,26.7,0,0,1-4.44-1.11,20.926,20.926,0,0,1-4.74-2.1Zm-.45-18.3h5.28v-1.62h-5.28Z"/><path class="cls-1" d="M360.36,260.13a25.626,25.626,0,0,0-3.3.18v-2.07a20.6,20.6,0,0,0,3.33.18h7.56v-3.73h-4.83a23.075,23.075,0,0,0-3.24.15v-2a20.313,20.313,0,0,0,3.27.18h4.8v-1.05a18.361,18.361,0,0,0-.18-2.85h2.25a14.166,14.166,0,0,0-.18,2.85v1.05h2.8a21.418,21.418,0,0,0,3.3-.18v2a21,21,0,0,0-3.21-.15h-2.89v3.75h2.7c3.33-2.49,6.42-5.76,7.56-8l1.77,1.17c-.36.39-.54.6-.93,1.08a42.257,42.257,0,0,1-5.82,5.7h4.92a21.008,21.008,0,0,0,3.21-.18v2.07a26.364,26.364,0,0,0-3.3-.18h-7.08c-1.71,1.23-3.06,2.1-4.83,3.18,1.59-.06,2.28-.06,3.12-.06h5.16a26.409,26.409,0,0,0,3.27-.12,23.023,23.023,0,0,0-.12,3.3v6.72a20.2,20.2,0,0,0,.15,3.09h-2.07V274.8H365.16v1.41h-2.1a21.566,21.566,0,0,0,.18-3.09v-7.26c-1.71.9-3.36,1.62-5.88,2.67a6.419,6.419,0,0,0-1.17-1.71,56.884,56.884,0,0,0,13.83-6.72Zm4.8,7.92h12.42v-3.18H365.16Zm0,5.16h12.42v-3.52H365.16Z"/><path class="cls-1" d="M396.88,253.95a12.705,12.705,0,0,0,1.44-4.11l2.4.42a6.372,6.372,0,0,0-.78,1.62,14.053,14.053,0,0,1-.93,2,5.093,5.093,0,0,1,.63,0c4.8-.24,7.8-.6,9.45-1.14l.18,2a9.3,9.3,0,0,0-1.2.15,97.012,97.012,0,0,1-9.9.78,22.157,22.157,0,0,1-2.7,4.26c-.3.36-.9,1.05-1,1.14s-.36.27-.39.3h0a.237.237,0,0,0,.06.09,8.3,8.3,0,0,1,1.38-1,8.007,8.007,0,0,1,4.53-1.47,3.641,3.641,0,0,1,3.993,3.249c0,.027,0,.054.007.081,2.19-.87,3.9-1.5,5.22-2a6.6,6.6,0,0,0,2-.87l1,2.1a49.9,49.9,0,0,0-8,2.64c.06.78.06,1.08.06,1.83v3a6.5,6.5,0,0,0,.06,1.08h-2q.2-2.154.18-4.32a7.948,7.948,0,0,0,0-.9c-4.08,1.92-5.64,3.33-5.64,5.13,0,2,1.86,2.85,6.09,2.85a25.147,25.147,0,0,0,8-1.17l.27,2.31c-.4.03-.8.08-1.2.15a46.486,46.486,0,0,1-7.29.6c-5.37,0-8-1.53-8-4.62,0-1.65,1-3.21,3.06-4.74a23.314,23.314,0,0,1,4.47-2.4c-.24-1.65-1-2.37-2.37-2.37-1.89,0-4.26,1.11-6.69,3.18a9.936,9.936,0,0,0-2.31,2.49l-1.88-1.6a29.83,29.83,0,0,0,6.72-8.58l.27-.45a3.413,3.413,0,0,1-.57.06l-4.41-.09h-.45a5.191,5.191,0,0,0-.66,0v-2.07a42,42,0,0,0,6.42.33Z"/><path class="cls-1" d="M419.5,256.86c.9-.06.9-.06,6.24-1.26a40.113,40.113,0,0,1,8.7-1.11c5.49,0,9,2.91,9,7.5,0,3.75-2.22,6.9-6.24,8.85-2.76,1.32-5.28,1.89-9.93,2.28a5.292,5.292,0,0,0-.93-2.22,26.846,26.846,0,0,0,8.34-1.38c4.11-1.5,6.42-4.2,6.42-7.56s-2.49-5.4-6.57-5.4a47.626,47.626,0,0,0-12.27,2.13,13.16,13.16,0,0,0-2.16.72Z"/><path class="cls-1" d="M460.07,250.14a9.4,9.4,0,0,0-.48,1.92c-.21,1-.39,1.74-.81,3.27a25.017,25.017,0,0,0,5.37-1l.09,2.07-1.05.18a36.213,36.213,0,0,1-4.92.63,55.955,55.955,0,0,1-3.33,8.76c-.72,1.44-1,2-2.13,3.93-.27.42-.45.78-.6,1l-2-1.2a26.448,26.448,0,0,0,2.88-4.68,44.968,44.968,0,0,0,3.12-7.74c-.75,0-1.77.06-2.22.06h-3.05v-2.07a19.051,19.051,0,0,0,3.57.24h2.16a30.92,30.92,0,0,0,1-5.64Zm14.25,23.28a17.169,17.169,0,0,0-5.25-4.08,6.2,6.2,0,0,1,.06,1c0,3.09-2,4.8-5.7,4.8s-5.85-1.68-5.85-4.35a4.25,4.25,0,0,1,2.79-3.81,8.783,8.783,0,0,1,3.54-.66,9.909,9.909,0,0,1,3,.45c-.15-1.95-.21-3.36-.21-4.11a12.121,12.121,0,0,1,.3-2.91l2,.21a9.23,9.23,0,0,0-.36,2.73,35.858,35.858,0,0,0,.33,4.56,21.572,21.572,0,0,1,5.88,3.63,3.008,3.008,0,0,0,.54.48Zm-10.56-5.37c-2.55,0-4.17,1-4.17,2.7s1.44,2.46,3.81,2.46c2.58,0,3.75-1,3.75-3.27,0-.36-.06-1.29-.06-1.29a8.9,8.9,0,0,0-3.33-.6Zm10.53-8.16a32.551,32.551,0,0,0-7.95-4.08l1.11-1.68a41.355,41.355,0,0,1,7.92,4Z"/><path class="cls-1" d="M498.93,251.52l-.3.24c-.27.27-.54.51-.78.72l-.21.21-2.37,2.28c-1.56,1.44-3.69,3.21-6.9,5.67-1.11.84-1.32,1.08-1.32,1.5s.24.75,2.67,2.64a87.828,87.828,0,0,1,9.6,8.19c.27.24.42.42.51.48l.33.27-1.89,1.86c-1.74-2.4-5.73-6-11.46-10.38-1.68-1.32-2.16-2-2.16-3a2.9,2.9,0,0,1,.87-2,23.114,23.114,0,0,1,2.55-2c3.9-3,7.83-6.66,8.79-8.22Zm.06,4.62a22.736,22.736,0,0,1,3.09,4.65l-1.53.9a22.978,22.978,0,0,0-3.06-4.77Zm3.36-1.62a22.926,22.926,0,0,1,3.12,4.65l-1.5.87a24.245,24.245,0,0,0-3.06-4.71Z"/><path class="cls-1" d="M517.75,271.98a24.234,24.234,0,0,0-3.21.12v-2.41a14.686,14.686,0,0,0,3.27.21h14.28V255.45H518.44a25.163,25.163,0,0,0-3.45.15v-2.4a16.4,16.4,0,0,0,3.45.21h14.4c.39,0,.81,0,1.56-.06-.06.75-.06,1.26-.06,2.34v15.36a20.087,20.087,0,0,0,.15,2.73h-2.4v-1.8Z"/><path class="cls-1" d="M545.96,267.42a90.791,90.791,0,0,1,19.16,5l-.84,2.19a51.206,51.206,0,0,0-10.17-3.36,89.064,89.064,0,0,0-9.05-1.83Zm2.34-8.43a95.732,95.732,0,0,1,14.78,3.51l-.77,2.16A70.258,70.258,0,0,0,547.43,261Zm.53-8.19a94.137,94.137,0,0,1,15.12,3.3l-.78,2.19a77.058,77.058,0,0,0-15.2-3.48Z"/><path class="cls-1" d="M593.64,272.37a12.4,12.4,0,0,0,2.7-.18v2.19a16.611,16.611,0,0,0-2.73-.15h-14.7a16.182,16.182,0,0,0-2.73.15v-2.19a12.59,12.59,0,0,0,2.7.18H588c.69-3.21,1.38-7.62,1.65-10.32h-8a13.4,13.4,0,0,0-2.64.12v-2.16a15.7,15.7,0,0,0,2.67.18h8a3.007,3.007,0,0,0,1.41-.21l1,.87a5.573,5.573,0,0,0-.48,2.1c-.69,4.77-.93,6.27-1.56,9.42Z"/><path class="cls-1" d="M605.34,268.56a21.309,21.309,0,0,0,3.48.18h17a21.309,21.309,0,0,0,3.48-.18v2.52a26.864,26.864,0,0,0-3.45-.15H608.79a27.231,27.231,0,0,0-3.45.15Zm3-14.25a18.733,18.733,0,0,0,3.21.18h11.49a18.733,18.733,0,0,0,3.21-.18v2.43a29.614,29.614,0,0,0-3.18-.12H611.55a29.614,29.614,0,0,0-3.18.12Z"/><path class="cls-1" d="M652.69,257.69c-.33,4.41-.66,6.21-1.62,8.43a15.638,15.638,0,0,1-5.13,6.3,27.97,27.97,0,0,1-4.62,2.67,4.247,4.247,0,0,0-1.47-1.92,17.366,17.366,0,0,0,6.33-3.9c2.76-2.64,4-6,4.29-11.58h-8.28a27.555,27.555,0,0,1-5.22,6.36,4.3,4.3,0,0,0-1.77-1.41,22.068,22.068,0,0,0,6.42-8.28,17,17,0,0,0,1.53-4.2l2.28.72a16.327,16.327,0,0,0-.75,1.65,29.315,29.315,0,0,1-1.56,3.27h13.95a24.6,24.6,0,0,0,3.69-.18v2.19c-.81-.06-.81-.06-3.72-.09Z"/><path class="cls-1" d="M666.77,261.39a21.223,21.223,0,0,0,3.72.18h17.43a23.668,23.668,0,0,0,3.63-.15v2.43a34.393,34.393,0,0,0-3.66-.12h-17.4a32.762,32.762,0,0,0-3.72.12Z"/><path class="cls-1" d="M700.58,258.24a45.379,45.379,0,0,1,7.62,3.93l-1.17,2a33.457,33.457,0,0,0-7.64-4.11Zm-.77,13.71a26,26,0,0,0,8.06-1.86,19.763,19.763,0,0,0,9-6.69,22.335,22.335,0,0,0,3.6-6.72,9,9,0,0,0,1.86,1.59c-2.61,6.24-6.27,10.32-11.55,12.93a34.352,34.352,0,0,1-7.58,2.58l-1.63.33a7.392,7.392,0,0,0-1.17.33Zm3.11-20.88a44.35,44.35,0,0,1,7.44,3.78l-1.23,2a31.148,31.148,0,0,0-7.38-4Z"/><path class="cls-1" d="M735.03,274.26a13.4,13.4,0,0,0-2.61.12v-2.1a15.4,15.4,0,0,0,2.61.18h11.52v-5.64H735.99a13.252,13.252,0,0,0-2.58.12v-2a15,15,0,0,0,2.61.18h10.53V259.9H735.33a13.561,13.561,0,0,0-2.61.12v-2.07a15,15,0,0,0,2.61.18h11.16a17.2,17.2,0,0,0,2-.06v15.87a9.5,9.5,0,0,0,.12,1.86h-2.07v-1.5Z"/><path class="cls-1" d="M4.2,328.53a26.114,26.114,0,0,0,8.73-2.31c5.79-2.58,9.81-7,12.24-13.35A5.989,5.989,0,0,0,27,314.64c-2.4,5.22-5.19,8.73-9.15,11.46-3.09,2.1-6.18,3.33-11.19,4.47a15.753,15.753,0,0,0-1.8.48Zm1.92-18.6a39.087,39.087,0,0,1,7.23,5.64l-1.56,1.86a33.149,33.149,0,0,0-7.14-5.88Z"/><path class="cls-1" d="M44.4,323.16c-1.74,4-3.51,5.76-5.67,5.76-2.85,0-5-3.12-5-7.32A12.179,12.179,0,0,1,45.8,309.309q.421,0,.842.021a11.611,11.611,0,0,1,8.25,3,10,10,0,0,1,2.91,7.32A10.921,10.921,0,0,1,50.93,330a23.212,23.212,0,0,1-4.56,1.38,4.774,4.774,0,0,0-1.05-2,18.022,18.022,0,0,0,5-1.41,9.059,9.059,0,0,0,5.31-8.4,7.91,7.91,0,0,0-4.77-7.53,8.622,8.622,0,0,0-3.48-.75A45.007,45.007,0,0,1,44.4,323.16Zm-3.69-10.47a10.369,10.369,0,0,0-4.89,8.94c0,2.88,1.26,5.1,2.88,5.1,1.26,0,2.46-1.41,3.75-4.35a41.217,41.217,0,0,0,2.73-11.1A9.469,9.469,0,0,0,40.71,312.69Z"/><path class="cls-1" d="M75.21,308.97a16.442,16.442,0,0,0-.21-2.64h2.4a14.583,14.583,0,0,0-.18,2.64v2.25H86.4a21.063,21.063,0,0,0,3.45-.21v2.25a18.751,18.751,0,0,0-3.39-.18H75.09a41.69,41.69,0,0,1-.42,4.29h8.19a19,19,0,0,0,3.09-.15c-.06.6-.09.93-.15,2.1a62.79,62.79,0,0,1-1.14,10.23c-.63,2.58-1.35,3.21-3.75,3.21a41.2,41.2,0,0,1-4.17-.27,6.531,6.531,0,0,0-.48-2.13,24.275,24.275,0,0,0,4.53.48c1.29,0,1.59-.36,2-2.58a57.535,57.535,0,0,0,.93-9.09H74.34a20.147,20.147,0,0,1-2.85,7.68,19.14,19.14,0,0,1-3.72,4.14,18.005,18.005,0,0,1-3.27,2.19,5.813,5.813,0,0,0-1.47-1.68,15.546,15.546,0,0,0,6.09-4.86c2.46-3.18,3.63-7.26,3.87-13.56h-6.3a23.291,23.291,0,0,0-3.36.18v-2.25a20.16,20.16,0,0,0,3.33.21h8.55Z"/><path class="cls-1" d="M94.64,313.69a37.247,37.247,0,0,1,5.13,3.75l-1.17,1.65a24.472,24.472,0,0,0-5.1-4Zm5.34,9.81a52.9,52.9,0,0,1-3.93,8.1c-.18.3-.27.51-.6,1.14l-1.74-1.56a13.009,13.009,0,0,0,1.83-2.61,37.711,37.711,0,0,0,2.88-6.24Zm-3.54-16.89a26.372,26.372,0,0,1,4.83,3.93l-1.23,1.56a23.4,23.4,0,0,0-4.83-4.17Zm8.58,6.39a20.824,20.824,0,0,0-2.91.18v-2.1a18.776,18.776,0,0,0,2.94.18h4.2v-2.07a17.308,17.308,0,0,0-.18-3h2.28a16.547,16.547,0,0,0-.18,3v2.07h5.7a17.425,17.425,0,0,0,2.7-.18v2.1a17.042,17.042,0,0,0-2.67-.18h-5.73v5.49h6.78a17.7,17.7,0,0,0,2.76-.18v2.1a18.068,18.068,0,0,0-2.73-.18h-7.77a66.8,66.8,0,0,1-4.2,9.36c5.25-.51,7.35-.75,10.29-1.29a43.655,43.655,0,0,0-3.69-5.07l1.62-.87a59.525,59.525,0,0,1,6.39,9.42l-1.83,1.08c-.78-1.56-1-2-1.59-3.06-2.37.42-2.37.42-5.4.87-2.19.33-2.19.33-8.76,1-1.23.12-1.65.18-2.31.3l-.48-2.16a6.558,6.558,0,0,0,1,.06,24.676,24.676,0,0,0,2.52-.15,54.177,54.177,0,0,0,4.35-9.54h-4.38a21.1,21.1,0,0,0-2.94.18v-2.1a19.8,19.8,0,0,0,3,.18h5.52v-5.49Z"/><path class="cls-1" d="M125.91,325.17a30.583,30.583,0,0,1,6,6.36l-1.68,1.59a29.93,29.93,0,0,0-5.91-6.54Z"/><path class="cls-1" d="M161.85,328.98a24.234,24.234,0,0,0-3.21.12v-2.41a14.686,14.686,0,0,0,3.27.21h14.28V312.41H162.54a25.163,25.163,0,0,0-3.45.15v-2.4a16.4,16.4,0,0,0,3.45.21h14.4c.39,0,.81,0,1.56-.06-.06.75-.06,1.26-.06,2.34v15.36a20.087,20.087,0,0,0,.15,2.73h-2.4v-1.8Z"/><path class="cls-1" d="M188.7,328.53a26.114,26.114,0,0,0,8.73-2.31c5.79-2.58,9.81-7,12.24-13.35a5.989,5.989,0,0,0,1.83,1.77c-2.4,5.22-5.19,8.73-9.15,11.46-3.09,2.1-6.18,3.33-11.19,4.47a15.753,15.753,0,0,0-1.8.48Zm1.92-18.6a39.087,39.087,0,0,1,7.23,5.64l-1.56,1.86a33.149,33.149,0,0,0-7.14-5.88Z"/><path class="cls-1" d="M231.81,318.12a28.043,28.043,0,0,1-.33,3.18,11.8,11.8,0,0,1-4,7.92,17.626,17.626,0,0,1-5.28,3,5.252,5.252,0,0,0-1.41-2c3.93-1.26,6.36-3.18,7.59-5.91a17.171,17.171,0,0,0,1.2-6.21h-8.13a27.607,27.607,0,0,0-3.45.15v-2.22a21.535,21.535,0,0,0,3.48.18h17.55a21.535,21.535,0,0,0,3.48-.18v2.22a27.607,27.607,0,0,0-3.45-.15Zm-10.83-9.51a16.609,16.609,0,0,0,3.45.21H236.1a16.605,16.605,0,0,0,3.45-.21v2.28a24.121,24.121,0,0,0-3.42-.15H224.4a24.121,24.121,0,0,0-3.42.15Z"/><path class="cls-1" d="M261.18,307.32a5.76,5.76,0,0,0-.66,1.23,28.665,28.665,0,0,1-1.38,2.67c.39-.09.39-.09,9.06-.24a3,3,0,0,0,1.56-.21l1.29,1.26c-.27.36-.27.39-.6,1.47a31.738,31.738,0,0,1-6,11.28,29.386,29.386,0,0,1-10.44,7.5,4.52,4.52,0,0,0-1.5-1.77,25.519,25.519,0,0,0,10.59-7.59,27.579,27.579,0,0,0,5.16-10.05l-10.11.18a28.915,28.915,0,0,1-7.17,7.8,4.465,4.465,0,0,0-1.68-1.56,22.234,22.234,0,0,0,7.53-8.22,13.6,13.6,0,0,0,1.89-4.38Z"/><path class="cls-1" d="M302.04,331.41a55.827,55.827,0,0,0-9.6-9.27,32.549,32.549,0,0,1-5.73,5.37,38.62,38.62,0,0,1-5.88,3.6,6.674,6.674,0,0,0-1.47-2,24.135,24.135,0,0,0,6.09-3.45,32.525,32.525,0,0,0,10.71-13.53c.06-.18.09-.21.15-.36a.642.642,0,0,0,.09-.21,5.089,5.089,0,0,1-.72,0l-10,.15a20.227,20.227,0,0,0-3.09.24l-.06-2.43a14.022,14.022,0,0,0,2.37.15h.74l10.71-.12a5.6,5.6,0,0,0,1.92-.24l1.26,1.29a5.6,5.6,0,0,0-.84,1.47,36.321,36.321,0,0,1-4.95,8.4,74.634,74.634,0,0,1,10,9Z"/><path class="cls-1" d="M316.35,332.07a19.292,19.292,0,0,0,.18-3.15V310.29a17.8,17.8,0,0,0-.18-3.06h2.58a18.812,18.812,0,0,0-.15,3.12v5.61a74.394,74.394,0,0,1,13.35,6.33l-1.29,2.22a61.119,61.119,0,0,0-11.19-5.94,3.321,3.321,0,0,1-.93-.51h-.06a10.491,10.491,0,0,1,.12,1.77v9a20.359,20.359,0,0,0,.15,3.18Z"/><path class="cls-1" d="M351.9,323.16c-1.74,4-3.51,5.76-5.67,5.76-2.85,0-5-3.12-5-7.32A12.179,12.179,0,0,1,353.3,309.313q.384,0,.768.017a11.611,11.611,0,0,1,8.25,3,10,10,0,0,1,2.91,7.32A10.921,10.921,0,0,1,358.36,330a23.212,23.212,0,0,1-4.56,1.38,4.774,4.774,0,0,0-1.05-2,18.022,18.022,0,0,0,5-1.41,9.059,9.059,0,0,0,5.31-8.4,7.91,7.91,0,0,0-4.77-7.53,8.622,8.622,0,0,0-3.48-.75A45.02,45.02,0,0,1,351.9,323.16Zm-3.69-10.47a10.369,10.369,0,0,0-4.89,8.94c0,2.88,1.26,5.1,2.88,5.1,1.26,0,2.46-1.41,3.75-4.35a41.217,41.217,0,0,0,2.73-11.1A9.469,9.469,0,0,0,348.21,312.69Z"/><path class="cls-1" d="M382.71,308.97a16.442,16.442,0,0,0-.21-2.64h2.4a14.583,14.583,0,0,0-.18,2.64v2.25h9.18a21.063,21.063,0,0,0,3.45-.21v2.25a18.751,18.751,0,0,0-3.39-.18H382.64a41.69,41.69,0,0,1-.42,4.29h8.19a19,19,0,0,0,3.09-.15c-.06.6-.09.93-.15,2.1a62.79,62.79,0,0,1-1.14,10.23c-.63,2.58-1.35,3.21-3.75,3.21a41.2,41.2,0,0,1-4.17-.27,6.531,6.531,0,0,0-.48-2.13,24.275,24.275,0,0,0,4.53.48c1.29,0,1.59-.36,2-2.58a57.653,57.653,0,0,0,.93-9.09h-9.43a20.147,20.147,0,0,1-2.85,7.68,19.14,19.14,0,0,1-3.72,4.14,18.005,18.005,0,0,1-3.27,2.19,5.813,5.813,0,0,0-1.47-1.68,15.547,15.547,0,0,0,6.11-4.81c2.46-3.18,3.63-7.26,3.87-13.56h-6.3a23.291,23.291,0,0,0-3.36.18v-2.25a20.16,20.16,0,0,0,3.33.21h8.55Z"/><path class="cls-1" d="M402.18,313.69a37.247,37.247,0,0,1,5.13,3.75l-1.17,1.65a24.472,24.472,0,0,0-5.1-4Zm5.34,9.81a52.9,52.9,0,0,1-3.93,8.1c-.18.3-.27.51-.6,1.14l-1.74-1.56a13.009,13.009,0,0,0,1.83-2.61,37.711,37.711,0,0,0,2.88-6.24Zm-3.54-16.89a26.372,26.372,0,0,1,4.83,3.93l-1.23,1.56a23.4,23.4,0,0,0-4.83-4.17Zm8.58,6.39a20.824,20.824,0,0,0-2.91.18v-2.1a18.776,18.776,0,0,0,2.94.18h4.2v-2.07a17.308,17.308,0,0,0-.18-3h2.28a16.547,16.547,0,0,0-.18,3v2.07h5.7a17.425,17.425,0,0,0,2.7-.18v2.1a17.042,17.042,0,0,0-2.67-.18h-5.73v5.49h6.78a17.7,17.7,0,0,0,2.76-.18v2.1a18.068,18.068,0,0,0-2.73-.18h-7.77a66.8,66.8,0,0,1-4.2,9.36c5.25-.51,7.35-.75,10.29-1.29a43.655,43.655,0,0,0-3.69-5.07l1.62-.87a59.525,59.525,0,0,1,6.39,9.42l-1.83,1.08c-.78-1.56-1-2-1.59-3.06-2.37.42-2.37.42-5.4.87-2.19.33-2.19.33-8.76,1-1.23.12-1.65.18-2.31.3l-.48-2.16a6.558,6.558,0,0,0,1,.06,24.676,24.676,0,0,0,2.52-.15,54.177,54.177,0,0,0,4.35-9.54h-4.42a21.1,21.1,0,0,0-2.94.18v-2.1a19.8,19.8,0,0,0,3,.18h5.52v-5.49Z"/><path class="cls-1" d="M442.74,307.14a9.4,9.4,0,0,0-.48,1.92c-.21,1-.39,1.74-.81,3.27a25.017,25.017,0,0,0,5.37-1l.09,2.07-1,.18a36.213,36.213,0,0,1-4.92.63,55.955,55.955,0,0,1-3.33,8.76c-.72,1.44-1,2-2.13,3.93-.27.42-.45.78-.6,1l-2-1.2a26.448,26.448,0,0,0,2.88-4.68,44.936,44.936,0,0,0,3.12-7.74c-.75,0-1.77.06-2.22.06h-3.07v-2.07a18.967,18.967,0,0,0,3.57.24h2.16a30.92,30.92,0,0,0,1-5.64Zm14.25,23.28a17.169,17.169,0,0,0-5.25-4.08,6.2,6.2,0,0,1,.06,1c0,3.09-2,4.8-5.7,4.8s-5.85-1.68-5.85-4.35a4.25,4.25,0,0,1,2.79-3.81,8.783,8.783,0,0,1,3.54-.66,9.909,9.909,0,0,1,3,.45c-.15-2-.21-3.36-.21-4.11a12.115,12.115,0,0,1,.3-2.91l2,.21a9.21,9.21,0,0,0-.39,2.79,35.858,35.858,0,0,0,.33,4.56,21.572,21.572,0,0,1,5.88,3.63,3.008,3.008,0,0,0,.54.48Zm-10.56-5.37c-2.55,0-4.17,1.05-4.17,2.7s1.44,2.46,3.81,2.46c2.58,0,3.75-1,3.75-3.27,0-.36-.06-1.29-.06-1.29A8.9,8.9,0,0,0,446.43,325.05Zm10.53-8.16a32.551,32.551,0,0,0-7.95-4.08l1.11-1.68a41.3,41.3,0,0,1,7.92,4Z"/><path class="cls-1" d="M472.8,307.35a54.653,54.653,0,0,0,2.25,9.93c1.65-.69,2.64-1.08,7.26-2.67a13.6,13.6,0,0,0,1.92-.81l.9,2.28a79.383,79.383,0,0,0-9,2.91c-5.13,2.07-7.35,4-7.35,6.54,0,2.7,2.31,3.78,8.19,3.78a29.815,29.815,0,0,0,8.58-1l.24,2.49a7.948,7.948,0,0,0-.9,0h-.3l-1,.12a60.205,60.205,0,0,1-6.63.39,20.428,20.428,0,0,1-6.66-.81c-2.46-.9-3.72-2.55-3.72-4.92a6.489,6.489,0,0,1,2.67-5.1,18.664,18.664,0,0,1,3.93-2.46,60.552,60.552,0,0,1-2.19-8.37,12.994,12.994,0,0,0-.51-1.92Zm10.14-.45a24.05,24.05,0,0,1,3.09,4.65l-1.53.9a23.377,23.377,0,0,0-3.06-4.77Zm3.36-1.65a23.981,23.981,0,0,1,3.12,4.68l-1.5.84a25.153,25.153,0,0,0-3.06-4.71Z"/><path class="cls-1" d="M502.86,310.95a12.729,12.729,0,0,0,1.44-4.11l2.4.42a6.372,6.372,0,0,0-.78,1.62,14.053,14.053,0,0,1-.93,2,5.093,5.093,0,0,1,.63,0c4.8-.24,7.8-.6,9.45-1.14l.18,2a9.3,9.3,0,0,0-1.2.15,97.034,97.034,0,0,1-9.9.78,22.157,22.157,0,0,1-2.7,4.26c-.3.36-.9,1-1,1.14a1.759,1.759,0,0,1-.39.3h0a.226.226,0,0,0,.06.09c1.08-.84,1.08-.84,1.38-1.05a8,8,0,0,1,4.53-1.47,3.641,3.641,0,0,1,3.993,3.249c0,.027,0,.054.007.081,2.19-.87,3.9-1.5,5.22-2a6.6,6.6,0,0,0,2-.87l1,2.1a49.763,49.763,0,0,0-8,2.64c.06.78.06,1.08.06,1.83v3a6.5,6.5,0,0,0,.06,1.08h-2q.2-2.154.18-4.32a7.948,7.948,0,0,0,0-.9c-4.08,1.92-5.64,3.33-5.64,5.13,0,2,1.86,2.85,6.09,2.85a25.147,25.147,0,0,0,8-1.17l.27,2.31a11.534,11.534,0,0,0-1.2.15,46.607,46.607,0,0,1-7.29.6c-5.37,0-8-1.53-8-4.62,0-1.65,1-3.21,3.06-4.74a23.259,23.259,0,0,1,4.47-2.4c-.24-1.65-1-2.37-2.37-2.37-1.89,0-4.26,1.11-6.69,3.18a9.919,9.919,0,0,0-2.31,2.49l-1.68-1.68a29.865,29.865,0,0,0,6.72-8.58l.27-.45a3.413,3.413,0,0,1-.57.06l-4.41-.09h-.63a5.191,5.191,0,0,0-.66,0v-2.07a42,42,0,0,0,6.42.33Z"/><path class="cls-1" d="M540.99,321.21h-5.35a13.353,13.353,0,0,0-2.43.15v-1.67a30.486,30.486,0,0,1-3,1.44v9.84c0,1.65-.66,2.13-2.94,2.13a18.9,18.9,0,0,1-2.4-.12,6.325,6.325,0,0,0-.42-1.89,18.763,18.763,0,0,0,2.82.24c.87,0,1.11-.18,1.11-.84v-8.58c-2,.84-3.24,1.35-3.63,1.53l-.54-2a18.5,18.5,0,0,0,4.17-1.38v-6.3h-1.74a21.129,21.129,0,0,0-2.22.15v-2a13.46,13.46,0,0,0,2.25.18h1.71v-2.73a19.8,19.8,0,0,0-.18-3h2.19a18.818,18.818,0,0,0-.18,3v2.79h1.32a9.21,9.21,0,0,0,2.07-.15v2a12.385,12.385,0,0,0-2-.12h-1.35v5.52a27.963,27.963,0,0,0,3.24-1.56v1.74a17.2,17.2,0,0,0,2.28.12h12.48a16.564,16.564,0,0,0,2.67-.18v2a16.572,16.572,0,0,0-2.67-.18h-5.37v3.35h4a14.609,14.609,0,0,0,2.61-.15v1.89a15.393,15.393,0,0,0-2.61-.15h-4v4.32a24.154,24.154,0,0,0,3.78.27c1.5,0,3.12-.06,4.89-.21a5.53,5.53,0,0,0-.57,2h-2.7c-5.13,0-7.89-.54-9.81-1.89a11.72,11.72,0,0,1-2.55-2.52,19.277,19.277,0,0,1-3.48,5.16,4.87,4.87,0,0,0-1.53-1.14,15.345,15.345,0,0,0,3.75-5.46,13.557,13.557,0,0,0,1.11-4.14l1.95.48a12.057,12.057,0,0,0-.48,1.53c-.21.66-.39,1.26-.63,1.89a8.384,8.384,0,0,0,4.44,3.57Zm-3.27-3.9a23.2,23.2,0,0,0-2.7.09c.06-.87.09-1.74.09-2.82v-4.35a25.08,25.08,0,0,0-.09-2.79,25.525,25.525,0,0,0,2.82.12H546a24.147,24.147,0,0,0,2.82-.12,16.882,16.882,0,0,0-.12,2.4v4.85a21.173,21.173,0,0,0,.12,2.7c-.69-.06-1.68-.09-2.88-.09Zm-.84-5.64h10v-2.52h-10Zm0,4.08h10V313.2h-10Z"/><path class="cls-1" d="M578.1,323.61a26.463,26.463,0,0,0,3.33-.18v2a26.463,26.463,0,0,0-3.33-.18h-7.71a26.922,26.922,0,0,0,11.73,6,7.477,7.477,0,0,0-1.23,1.8,36.81,36.81,0,0,1-5.16-2.16,26.643,26.643,0,0,1-6.87-4.95c.06,1.2.12,2.61.12,3.24v1.29a16.071,16.071,0,0,0,.18,2.94H567a17.632,17.632,0,0,0,.18-2.94v-1.29c0-.63,0-1.5.09-3.21a25.98,25.98,0,0,1-6.57,4.83,43.447,43.447,0,0,1-4.95,2.22,5.825,5.825,0,0,0-1.29-1.71,33.348,33.348,0,0,0,6.78-2.79,19.273,19.273,0,0,0,4.47-3.24h-7.07a25.626,25.626,0,0,0-3.3.18v-2a25.164,25.164,0,0,0,3.27.18h8.58v-.36a13.93,13.93,0,0,0-.12-2h2a12.865,12.865,0,0,0-.12,2v.39Zm-3.18-9a11.692,11.692,0,0,1-3.45,3.42,80.824,80.824,0,0,1,8.55,2.67l-1.17,1.47a59.856,59.856,0,0,0-9.27-3.06c-3.45,1.65-7.14,2.46-13,2.85a4.573,4.573,0,0,0-.81-1.62,33.506,33.506,0,0,0,11.25-1.83c-1.95-.42-3.6-.69-6.75-1.11a25.371,25.371,0,0,0,2.85-2.79h-4.38a21.965,21.965,0,0,0-3,.18v-1.86a18.07,18.07,0,0,0,2.94.18h5.73a10.872,10.872,0,0,0,1.77-2.85l2,.54-1.68,2.31h11.7a15.692,15.692,0,0,0,3-.18v1.86a20.752,20.752,0,0,0-3-.18Zm-7.71-6.51a10.887,10.887,0,0,0-.21-2.22h2.28a9.976,9.976,0,0,0-.21,2.22v.18h8.82a28.347,28.347,0,0,0,3-.12,9.39,9.39,0,0,0-.12,1.74v.57a13.964,13.964,0,0,0,.09,1.71h-1.92v-2.34h-21v2.31h-1.92a13.79,13.79,0,0,0,.09-1.65v-.6a10.56,10.56,0,0,0-.12-1.74c1,.09,1.77.12,3,.12h8.13Zm-1.92,6.51c-.69.78-.93,1-1.74,1.86,2.13.33,3.75.63,5.7,1.08a10.136,10.136,0,0,0,3.51-2.94Z"/><path class="cls-1" d="M600.75,308.79a10.134,10.134,0,0,0-.12-1.74h2.25a24.724,24.724,0,0,0-.15,3.75v.33c5.67,0,8-.09,9-.21v2.13a53.187,53.187,0,0,0-5.73-.15c-.45,0-.78,0-3.21.06v5.94a8.6,8.6,0,0,1,.72,3.54,9.661,9.661,0,0,1-4,7.83,19.059,19.059,0,0,1-4.74,2.43,6.594,6.594,0,0,0-1.32-1.89,15.392,15.392,0,0,0,4.86-2.25,7.772,7.772,0,0,0,3.36-6.33,4.2,4.2,0,0,1-.81,1.47,4.936,4.936,0,1,1-3.71-8.13c.107,0,.214,0,.32.01a4.608,4.608,0,0,1,3.48,1.35v-3.99c-6,.12-12.09.42-14.1.75l-.09-2.19h1.2c.87,0,.87,0,5.7-.18,2.88-.12,5.22-.18,7.26-.24Zm-1.29,9a3.838,3.838,0,0,0-2-.48,3.169,3.169,0,0,0-3.326,3.006c0,.048,0,.1,0,.144a2.9,2.9,0,0,0,2.792,3,2.694,2.694,0,0,0,.3,0,3.359,3.359,0,0,0,3.511-3.2,3.2,3.2,0,0,0,0-.339,2.169,2.169,0,0,0-1.27-2.1Z"/><path class="cls-1" d="M622.08,308.79a13.867,13.867,0,0,0,2.82.18c2.49,0,6.48-.18,9.18-.39a3.062,3.062,0,0,0,1.44-.33l1.26,1.65a5.532,5.532,0,0,0-1.53,1.26,76.993,76.993,0,0,1-9.87,8.52l.06.09a15.2,15.2,0,0,1,7.35-1.86c5,0,8.22,2.46,8.22,6.3,0,4.68-4.35,7.77-11,7.77-4.23,0-6.66-1.56-6.66-4.32,0-2,1.86-3.51,4.35-3.51a6,6,0,0,1,5,2.46,8.586,8.586,0,0,1,1.38,2.88c3.15-.87,4.8-2.7,4.8-5.25,0-2.88-2.4-4.59-6.45-4.59a19.25,19.25,0,0,0-12.63,5.13l-1.35-1.92a33.483,33.483,0,0,0,4.2-3.06c3.21-2.55,7.95-6.72,10-8.76l.42-.42.12-.12.12-.12-.06-.06h-.27c-1,.18-4.56.39-9.12.54a14.666,14.666,0,0,0-1.62.15Zm5.64,17.07c-1.5,0-2.43.72-2.43,1.86a2,2,0,0,0,1.2,1.83,7.675,7.675,0,0,0,3.36.69,10.809,10.809,0,0,0,2.19-.21c-.66-2.73-2.16-4.17-4.32-4.17Z"/><path class="cls-1" d="M656.37,328.59a4.49,4.49,0,1,1,0-.02Zm-7.29,0a2.79,2.79,0,1,0,2.79-2.79A2.79,2.79,0,0,0,649.08,328.59Z"/></g></g></svg>