<svg xmlns="http://www.w3.org/2000/svg" xmlns:xlink="http://www.w3.org/1999/xlink" viewBox="0 0 758.484 344.337"><defs><style>.cls-1{fill:none;}.cls-2{fill:#fff;}.cls-3{clip-path:url(#clip-path);}.cls-4{fill:#2c8ac8;}.cls-5{fill:#231815;}</style><clipPath id="clip-path" transform="translate(3.474 10.687)"><polygon class="cls-1" points="69.28 60 69.28 20 34.64 0 0 20 0 60 34.64 80 69.28 60"/></clipPath></defs><g id="レイヤー_2" data-name="レイヤー 2"><g id="レイヤー_1-2" data-name="レイヤー 1"><polygon class="cls-2" points="72.754 70.687 72.754 30.687 38.114 10.687 3.474 30.687 3.474 70.687 38.114 90.687 72.754 70.687"/><g class="cls-3"><path class="cls-4" d="M17.3,45c0,2.73-1.91,3.83-4.29,2.44a9.561,9.561,0,0,1-4.37-7.45c0-2.73,1.91-3.82,4.29-2.44A9.6,9.6,0,0,1,17.3,45Z" transform="translate(3.474 10.687)"/><rect class="cls-4" x="0.034" y="26.357" width="20.76" height="57.43"/><rect class="cls-4" x="-2.131" y="2.28" width="57.43" height="20.76" transform="translate(0.706 25.675) rotate(-30)"/></g><path class="cls-4" d="M51.96,10,17.32,30,8.66,25,43.3,5Z" transform="translate(3.474 10.687)"/><path class="cls-2" d="M60.64,15,26,35l-8.66-5L51.98,10Z" transform="translate(3.474 10.687)"/><path class="cls-2" d="M16.64,22.94c1.19.69.87,2-.73,2.92a5.711,5.711,0,0,1-5.05.41c-1.19-.69-.87-2,.72-2.91S15.44,22.25,16.64,22.94Z" transform="translate(3.474 10.687)"/><path class="cls-4" d="M35.32,27.06c1.19.69.87,2-.72,2.92a5.73,5.73,0,0,1-5.06.41c-1.19-.69-.87-2,.73-2.91S34.12,26.37,35.32,27.06Z" transform="translate(3.474 10.687)"/><path class="cls-2" d="M39.73,9.59c1.2.69.87,2-.72,2.91s-3.86,1.11-5.05.42-.88-2,.72-2.92A5.708,5.708,0,0,1,39.73,9.59Z" transform="translate(3.474 10.687)"/><path class="cls-2" d="M28.18,16.27c1.2.69.88,2-.72,2.92s-3.86,1.11-5,.42-.87-2,.72-2.92A5.639,5.639,0,0,1,28.18,16.27Z" transform="translate(3.474 10.687)"/><path class="cls-4" d="M46.86,20.39c1.2.69.88,2-.72,2.92s-3.85,1.11-5,.42-.87-2,.72-2.92A5.6,5.6,0,0,1,46.86,20.39Z" transform="translate(3.474 10.687)"/><path class="cls-4" d="M58.41,13.73c1.2.69.87,2-.72,2.91s-3.86,1.11-5,.42-.87-2,.72-2.92A5.6,5.6,0,0,1,58.41,13.73Z" transform="translate(3.474 10.687)"/><path class="cls-4" d="M44.02,12.08l8.72,5,5.78-3.33-8.73-5Z" transform="translate(3.474 10.687)"/><path class="cls-2" d="M33.96,12.94l8.62,5,5.77-3.35-8.62-5Z" transform="translate(3.474 10.687)"/><path class="cls-4" d="M32.47,18.75l8.73,5,5.77-3.34-8.72-5Z" transform="translate(3.474 10.687)"/><path class="cls-2" d="M22.41,19.59l8.62,5,5.77-3.33-8.62-5Z" transform="translate(3.474 10.687)"/><path class="cls-4" d="M20.92,25.42l8.73,5,5.77-3.33-8.72-5Z" transform="translate(3.474 10.687)"/><path class="cls-2" d="M10.86,26.27l8.62,5,5.78-3.33-8.62-5Z" transform="translate(3.474 10.687)"/><path class="cls-5" d="M53.83,16.5a3.578,3.578,0,0,0,3.15-.26c1-.58,1.2-1.4.46-1.83" transform="translate(3.474 10.687)"/><path class="cls-5" d="M42.28,23.16a3.528,3.528,0,0,0,3.16-.26c1-.57,1.2-1.39.45-1.82" transform="translate(3.474 10.687)"/><path class="cls-5" d="M30.73,29.83a3.56,3.56,0,0,0,3.16-.26c1-.58,1.2-1.39.45-1.82" transform="translate(3.474 10.687)"/><path class="cls-5" d="M35.04,12.32c-.75-.43-.55-1.25.45-1.83a3.6,3.6,0,0,1,3.16-.26" transform="translate(3.474 10.687)"/><path class="cls-5" d="M23.49,18.98c-.75-.43-.54-1.24.45-1.82a3.56,3.56,0,0,1,3.16-.26" transform="translate(3.474 10.687)"/><path class="cls-5" d="M11.94,25.65c-.74-.43-.54-1.25.46-1.82a3.51,3.51,0,0,1,3.15-.26" transform="translate(3.474 10.687)"/><path class="cls-2" d="M17.32,70l8.66,5V35l-8.66-5Z" transform="translate(3.474 10.687)"/><path class="cls-4" d="M8.64,65l8.66,5V30L8.64,25Z" transform="translate(3.474 10.687)"/><path class="cls-4" d="M25.98,40c0,2.76-1.94,3.88-4.33,2.5A9.58,9.58,0,0,1,17.32,35c0-2.76,1.94-3.88,4.33-2.5A9.58,9.58,0,0,1,25.98,40Z" transform="translate(3.474 10.687)"/><path class="cls-2" d="M17.32,45c0,2.76-1.94,3.88-4.33,2.5A9.551,9.551,0,0,1,8.66,40c0-2.76,1.93-3.88,4.33-2.5A9.58,9.58,0,0,1,17.32,45Z" transform="translate(3.474 10.687)"/><path class="cls-4" d="M25.98,60c0,2.76-1.94,3.88-4.33,2.5A9.58,9.58,0,0,1,17.32,55c0-2.76,1.94-3.88,4.33-2.5A9.58,9.58,0,0,1,25.98,60Z" transform="translate(3.474 10.687)"/><path class="cls-2" d="M17.32,65c0,2.76-1.94,3.88-4.33,2.5A9.551,9.551,0,0,1,8.66,60c0-2.76,1.93-3.88,4.33-2.5A9.58,9.58,0,0,1,17.32,65Z" transform="translate(3.474 10.687)"/><path class="cls-2" d="M17.32,65,8.66,60V40l8.66,5Z" transform="translate(3.474 10.687)"/><path class="cls-4" d="M25.98,60l-8.66-5V35l8.66,5Z" transform="translate(3.474 10.687)"/><path class="cls-2" d="M12.99,67.5v-10l7.65,4.41v10Z" transform="translate(3.474 10.687)"/><path class="cls-4" d="M14.01,38.09v-10l7.63,4.41v10Z" transform="translate(3.474 10.687)"/><path class="cls-5" d="M24.32,59.04c0,1.71-1.2,2.4-2.67,1.55a5.908,5.908,0,0,1-2.67-4.63" transform="translate(3.474 10.687)"/><path class="cls-5" d="M10.31,40.69c0-1.7,1.2-2.4,2.68-1.54a5.909,5.909,0,0,1,2.65,4.62" transform="translate(3.474 10.687)"/><path class="cls-2" d="M120.43,32.59a4,4,0,0,0,2.43.64c1.71,0,7.86-.64,11.81-1.25a6.545,6.545,0,0,0,2.44-.84,1.639,1.639,0,0,1,.91-.26c.72,0,2.13.87,3.49,2.2,1,.95,1.37,1.52,1.37,2.13,0,.42-.11.6-.61,1.14a5.552,5.552,0,0,0-.95,2.43c-.34,1.4-.42,1.67-1.44,6-.27,1.14-.46,2-.61,2.63,1.41,1,2.13,1.93,2.13,2.77,0,.68-.42,1.06-1.22,1.06a10.167,10.167,0,0,1-1.78-.19,27.652,27.652,0,0,0-3.23-.15c-4.75,0-9.69.87-12.46,2.17a3.448,3.448,0,0,1-.92.19c-1.71,0-4.37-3.31-4.37-5.47a4.839,4.839,0,0,1,.12-.88c1.18,1.75,2.43,2.55,4,2.55.42,0,1.29-.08,2-.16,1.71-.22,1.71-.22,4.75-.56,1.86-.2,4.29-.46,7.26-.73a121.586,121.586,0,0,0,1.55-13.1c0-.54-.22-.69-.83-.69a49.79,49.79,0,0,0-7,.87,42.448,42.448,0,0,0-5.21,1.41,3.073,3.073,0,0,1-1.44.42c-.95,0-2.13-.91-3.12-2.47a5.226,5.226,0,0,1-1.06-2.85,2.228,2.228,0,0,1,.19-.87A6.575,6.575,0,0,0,120.43,32.59Z" transform="translate(3.474 10.687)"/><path class="cls-2" d="M156.72,45.03c1.1,2.09,2.43,3,5.47,3.95a48.655,48.655,0,0,0,9.95,1.78h.99a3.76,3.76,0,0,1,2.66,1.59,4.921,4.921,0,0,1,1.44,2.89,1.42,1.42,0,0,1-1.273,1.553c-.042,0-.085.007-.127.007a6.417,6.417,0,0,1-2.32-.65c-.68-.26-.76-.3-5.59-1.9-4.17-1.37-6.76-2.47-8.13-3.42a8.539,8.539,0,0,1-3.45-5.62Zm1.33-19.34a10.665,10.665,0,0,0,5.92,2.77,26.7,26.7,0,0,0,5.36.61,7.777,7.777,0,0,0,1-.08,2.469,2.469,0,0,1,.68-.07,4.052,4.052,0,0,1,2.24,1.33,3.3,3.3,0,0,1,1.26,2.24c0,.83-.57,1.33-1.52,1.33a34.1,34.1,0,0,1-8.1-1.94c-3.72-1.37-5.66-3-7.25-6Zm1.06,9.5a5.741,5.741,0,0,0,3.31,2.66,19.761,19.761,0,0,0,6.26,1.17,6.02,6.02,0,0,0,.77-.07,2.673,2.673,0,0,1,.49,0,2.5,2.5,0,0,1,1.75.87,4,4,0,0,1,1.55,2.59c0,.8-.6,1.33-1.55,1.33a25.457,25.457,0,0,1-7.3-1.94,9.331,9.331,0,0,1-5.7-6.42Z" transform="translate(3.474 10.687)"/><path class="cls-2" d="M198.25,39.33a39.552,39.552,0,0,0,5.93-.72,3.006,3.006,0,0,0,1.82-.73,1.571,1.571,0,0,1,.95-.38,5.566,5.566,0,0,1,2.74,1.6c.68.65,1,1.1,1,1.6s0,.45-.6,1.1a8.613,8.613,0,0,0-1,2.77c-1.22,4.45-1.22,4.45-1.68,6.16,4.37-.31,4.37-.31,5.32-.65a1.639,1.639,0,0,1,.65-.15,3.794,3.794,0,0,1,1.86.8c1.1.72,1.63,1.4,1.63,2.12a1.14,1.14,0,0,1-1.1,1.181,1.065,1.065,0,0,1-.113,0,4.657,4.657,0,0,1-1.22-.23,24.116,24.116,0,0,0-6.19-.68,41.32,41.32,0,0,0-9.38,1.1,14.655,14.655,0,0,0-3.46,1.18,2.182,2.182,0,0,1-1.1.3,3.75,3.75,0,0,1-2.63-1.67,6.928,6.928,0,0,1-1.4-3,2.769,2.769,0,0,1,.19-.87,3.789,3.789,0,0,0,3.34,2.13,30.354,30.354,0,0,0,3.35-.35c3.26-.49,3.26-.49,5-.72,1.29-.15,1.29-.15,2-.26a103.275,103.275,0,0,0,1.52-10.22c0-.27-.07-.38-.19-.38s-1.4.26-2.24.45a18.2,18.2,0,0,0-4.18,1.48,1.777,1.777,0,0,1-.8.19,2.639,2.639,0,0,1-2-1.25,5.472,5.472,0,0,1-1.22-2.93,2.574,2.574,0,0,1,.27-.94C196.16,38.72,197,39.33,198.25,39.33Z" transform="translate(3.474 10.687)"/><path class="cls-2" d="M232.95,48.26a48.523,48.523,0,0,0,5.77-.57c4-.5,6.57-.69,13.45-1.1a10.332,10.332,0,0,0,3.12-.5,4.456,4.456,0,0,1,1.25-.26,5.458,5.458,0,0,1,2.81,1.29,3.359,3.359,0,0,1,1.71,2.47,1.489,1.489,0,0,1-1.5,1.48h-.02a11.892,11.892,0,0,1-2-.34,40.256,40.256,0,0,0-8.66-1c-5.13,0-10.83,1-14.14,2.47a3.1,3.1,0,0,1-1.48.38c-1.22,0-2.73-1.14-3.91-3a7.2,7.2,0,0,1-1.18-3.19c0-.23,0-.23.23-.92A5,5,0,0,0,232.95,48.26Zm1.51-17.33c1.68,1.6,2.55,2,4.6,2a29.491,29.491,0,0,0,7.14-1,14.249,14.249,0,0,0,3.31-1.21,1.62,1.62,0,0,1,.91-.31,5.458,5.458,0,0,1,2.93,1.37,1.852,1.852,0,0,1,.87,1.48c0,1-.61,1.33-3.08,1.71a70.929,70.929,0,0,1-10.14.95,6.511,6.511,0,0,1-4.94-1.86,11.279,11.279,0,0,1-1.94-2.85Z" transform="translate(3.474 10.687)"/><path class="cls-2" d="M269.35,44.88a50.507,50.507,0,0,0,6.38-9.65c1.6-3.2,2.59-5.74,2.59-6.84s-.92-2.09-2.59-2.78a2.4,2.4,0,0,1,1.22-.3,9.71,9.71,0,0,1,4.18,1.29q2.28,1.14,2.28,2.28c0,.49-.08.61-.84,1.67-.07.08-.3.46-.64,1s-1.71,2.85-2.13,3.49a2.758,2.758,0,0,0,2,.61c2.85,0,10.87-1.86,12.84-3a2.241,2.241,0,0,1,1.37-.45,6.2,6.2,0,0,1,2.62.87c1.07.57,1.49,1.06,1.49,1.71a1.264,1.264,0,0,1-1.18,1.25,26.6,26.6,0,0,1-3.69.42c-.53.08-1.4.19-2.58.34-2.17.31-2.62.34-4,.5,2,1.06,2.73,1.78,2.73,2.66,0,1.67-2.16,6.57-4.21,9.53a24.706,24.706,0,0,1-10.64,8.74l-.27-.3a31.561,31.561,0,0,0,7.75-10c1.75-3.45,3-7.14,3-8.92a1.881,1.881,0,0,0-.65-1.49,25.539,25.539,0,0,1-3.57.27,4.329,4.329,0,0,1-3.76-1.67,29.549,29.549,0,0,1-9.46,9.08Z" transform="translate(3.474 10.687)"/><path class="cls-2" d="M312.82,38.83c.84.61,1.71.8,3.8.8,1.52,0,8.47-.11,15-.26h4.25c3.8,0,5,.15,5.59.68a1.51,1.51,0,0,1,.45,1.14c0,1-.83,1.56-2.47,1.79-2.12.26-5.47.38-16.94.45-1.75,0-1.94,0-4.71.16a4.329,4.329,0,0,0-1.68.34,3.3,3.3,0,0,1-1.29.3c-.91,0-1.93-.83-2.81-2.35a8.386,8.386,0,0,1-1.33-4,1.408,1.408,0,0,1,.46-1.25A6.205,6.205,0,0,0,312.82,38.83Z" transform="translate(3.474 10.687)"/><path class="cls-2" d="M352.95,35.49a19.744,19.744,0,0,1,7.64,1.94,3,3,0,0,1,1.63,2.77c0,1.52-.8,2.66-1.82,2.66-.65,0-.91-.19-1.56-1.21a23.5,23.5,0,0,0-2.81-3.39,16.147,16.147,0,0,0-3.23-2.43Zm30.81-1.37c-4.18,7.11-10.86,13.49-19.87,18.89-2.24,1.36-2.47,1.48-3.19,2.24a1.629,1.629,0,0,1-1.1.49c-1.9,0-5.17-4.29-5.17-6.8a3,3,0,0,1,.27-1.14c.87,1.75,2.16,2.81,3.38,2.81s4.29-1.33,8.24-3.61a82.478,82.478,0,0,0,17.06-13.18ZM357.28,28.2c3.72.41,6.35,1.14,7.9,2.24a2.89,2.89,0,0,1,1.45,2.66c0,1.48-.84,2.66-1.86,2.66-.65,0-.84-.19-1.64-1.45a17.081,17.081,0,0,0-6-5.73Z" transform="translate(3.474 10.687)"/><path class="cls-2" d="M395.77,36.82a2.838,2.838,0,0,0,1.94.42c1.41,0,7-.5,9.73-.84a3.626,3.626,0,0,0,2-.68,1.389,1.389,0,0,1,.72-.19,5.06,5.06,0,0,1,2.7,1.59c.84.73,1.1,1.14,1.1,1.68,0,.26-.07.41-.38.76s-.34.45-.68,2.28c-.72,4-1,5.62-1.71,9.76,1.1.68,1.63,1.37,1.63,2.09a.94.94,0,0,1-.93.95h-.02a2.76,2.76,0,0,1-.53,0,35.493,35.493,0,0,0-3.57-.23,28.559,28.559,0,0,0-9.5,1.49,2.3,2.3,0,0,1-.8.19,3.418,3.418,0,0,1-2.5-1.75,4.661,4.661,0,0,1-1-2.36,1.706,1.706,0,0,1,.19-.68,3.361,3.361,0,0,0,3,1.82,58.9,58.9,0,0,0,6.2-.68c1.48-.19,2.28-.27,4.82-.53.19-1.14.42-3.39.69-6.12a50.421,50.421,0,0,0-10.23,1.67,2.141,2.141,0,0,1-.83.19c-1.18,0-3-2.32-3-3.84a1.573,1.573,0,0,1,.19-.68,2.751,2.751,0,0,0,2.7,1.67,33.767,33.767,0,0,0,4.41-.42c1.82-.23,3.3-.34,6.84-.68.23-2.13.38-4.56.38-5.28a50.356,50.356,0,0,0-10.69,1.59,1.9,1.9,0,0,1-1,.27,2.482,2.482,0,0,1-2-1.18,5,5,0,0,1-1.29-2.93,2,2,0,0,1,.19-.79A3.664,3.664,0,0,0,395.77,36.82Z" transform="translate(3.474 10.687)"/><path class="cls-2" d="M428.38,29.53c4.25.68,6.53,1.33,8.32,2.47a3.572,3.572,0,0,1,1.86,3.26c0,1.79-.87,3.16-2.05,3.16-.65,0-1-.31-1.6-1.3a17.89,17.89,0,0,0-6.72-7.18Zm28.87,2.2a40.766,40.766,0,0,1-8.54,11.78,61.527,61.527,0,0,1-11,8.66,8.771,8.771,0,0,0-2.05,1.67,2.09,2.09,0,0,1-1.6,1c-1,0-2.39-1.06-3.72-2.77a7.236,7.236,0,0,1-1.83-4.22,3.047,3.047,0,0,1,.19-1c1,1.75,2.28,2.82,3.31,2.82,1.59,0,6.57-2.62,11.09-5.85a75.015,75.015,0,0,0,13.72-12.24Z" transform="translate(3.474 10.687)"/><path class="cls-2" d="M472.99,58.36a28.5,28.5,0,0,0,5.7-9.08,27.992,27.992,0,0,0,1.95-8.09,2.14,2.14,0,0,0-.61-1.79,31.063,31.063,0,0,0-7.94,2.28,3.261,3.261,0,0,1-1.63.5c-1,0-2.09-.84-3.35-2.51a3.82,3.82,0,0,1-1.06-2.39,2.6,2.6,0,0,1,.15-.76,4.211,4.211,0,0,0,3.64,2.07c1.17,0,1.52,0,7.18-.92,3.42-.53,5.09-.75,11.55-1.48a9.627,9.627,0,0,0,3.3-.8,2.409,2.409,0,0,1,1.11-.3,5.8,5.8,0,0,1,2.43.8c1.44.72,2.16,1.52,2.16,2.28s-.6,1.29-1.59,1.29a3.142,3.142,0,0,1-.69-.08,45.94,45.94,0,0,0-12.65-.3c2.17,1.25,2.59,1.71,2.59,2.7,0,1.67-1.6,5.77-3.35,8.62a23.5,23.5,0,0,1-8.59,8.25Zm-.53-30.89a6,6,0,0,0,4.63,2.09,19.582,19.582,0,0,0,5.29-.87,11.9,11.9,0,0,0,3.34-1.44,2.264,2.264,0,0,1,1.21-.35,3.645,3.645,0,0,1,2,.8c1,.61,1.4,1.22,1.4,1.86s-.53,1.11-2.2,1.49a52.469,52.469,0,0,1-9.42,1.14c-3,0-4.94-1.33-6.61-4.45Zm18.27-2.43c3.88,1.37,6.31,3.5,6.31,5.51,0,.95-.49,1.56-1.22,1.56s-.72-.11-1.67-1.9a17.047,17.047,0,0,0-3.8-4.52Zm3.92-2.62a13.614,13.614,0,0,1,4.37,1.9c1.4,1,2,1.9,2,3,0,.88-.46,1.48-1.14,1.48-.46,0-.68-.19-1.25-1.1a16.522,16.522,0,0,0-4.33-4.71Z" transform="translate(3.474 10.687)"/><path class="cls-2" d="M517.26,58.21a17.578,17.578,0,0,0,7.22-8c1.33-3.11,1.94-6.87,2-12.38a45.12,45.12,0,0,0-7.67,1v2c0,1.21,0,4.33.08,5.39v.27c0,1.9-.5,2.81-1.56,2.81-.65,0-1.29-.49-1.94-1.41a4.729,4.729,0,0,1-.84-2.24,3.042,3.042,0,0,1,.27-1.06,14.7,14.7,0,0,0,.65-5,13.706,13.706,0,0,0-4,1.44,3.718,3.718,0,0,1-1.52.46c-1,0-2.4-1.26-3.42-3a4.619,4.619,0,0,1-.68-2,2.471,2.471,0,0,1,.07-.46,4.367,4.367,0,0,0,3.69,1.94,37.961,37.961,0,0,0,5.85-.84c0-5.69-.46-6.72-3.12-8a1.93,1.93,0,0,1,1.26-.38,10.09,10.09,0,0,1,4.63,1.63c1,.65,1.33,1.14,1.33,1.79a3.066,3.066,0,0,1-.26,1.17,13.845,13.845,0,0,0-.46,3.27c1.75-.27,4.29-.61,7.67-1v-3c0-2.7-.19-3.84-.76-4.52a4.587,4.587,0,0,0-2.77-1.48,2.6,2.6,0,0,1,1.82-.53,11.349,11.349,0,0,1,4.79,1.14c1.14.53,1.63,1.1,1.63,1.86a2,2,0,0,1-.22.91c-.57,1.29-.65,1.86-.84,5.17a10.236,10.236,0,0,0,4.22-.84,2.071,2.071,0,0,1,1-.26,5.669,5.669,0,0,1,2.66,1c1,.61,1.41,1.18,1.41,1.79a1.129,1.129,0,0,1-1.116,1.143.9.9,0,0,1-.1,0,4.006,4.006,0,0,1-.6,0,63.2,63.2,0,0,0-6.35-.27h-1.22c-.19,8.06-.83,11.17-3,14.21a18.723,18.723,0,0,1-9.57,6.65Zm15-33.85a10.208,10.208,0,0,1,3.5,2.13,4.7,4.7,0,0,1,1.71,3.3c0,.95-.46,1.56-1.18,1.56-.5,0-.8-.34-1.18-1.41a14.9,14.9,0,0,0-3.38-5.13Zm4-1.83a10.922,10.922,0,0,1,3.53,1.87,4.271,4.271,0,0,1,1.9,3.26c0,.92-.42,1.49-1.1,1.49s-.72-.23-1.22-1.3a13.376,13.376,0,0,0-3.64-4.82Z" transform="translate(3.474 10.687)"/><path class="cls-2" d="M546.79,47.69A70.789,70.789,0,0,0,560.96,36.4c4.06-4.1,6.38-7.14,6.38-8.39,0-.8-.87-1.79-2.28-2.51a4.256,4.256,0,0,1,1.22-.15,7.609,7.609,0,0,1,3.84,1.29c1.74,1,2.77,2.16,2.77,3,0,.68-.19.91-1.52,1.86-.15.11-.15.11-2.47,2.32-2.66,2.47-2.66,2.47-5.36,4.78a9.316,9.316,0,0,1,2.62,2.25c.35.53.38.91.42,3.72,0,1.75,0,2.24.27,9.46v1.44c0,1.56-.5,2.32-1.56,2.32-1.41,0-3.5-2.32-3.5-3.91a3.353,3.353,0,0,1,.23-1.22c.5-1.56.84-5.7.84-9.8,0-1.94-.12-2.47-.65-3.19a62.448,62.448,0,0,1-8.13,5.39,47.734,47.734,0,0,1-7.14,3Z" transform="translate(3.474 10.687)"/><path class="cls-2" d="M588.74,29.53c4.25.68,6.53,1.33,8.32,2.47a3.572,3.572,0,0,1,1.86,3.26c0,1.79-.87,3.16-2,3.16-.65,0-1-.31-1.6-1.3a17.89,17.89,0,0,0-6.72-7.18Zm28.87,2.2a40.587,40.587,0,0,1-8.54,11.78,61.527,61.527,0,0,1-11,8.66,8.76,8.76,0,0,0-2,1.67,2.09,2.09,0,0,1-1.6,1c-1,0-2.39-1.06-3.72-2.77a7.242,7.242,0,0,1-1.83-4.22,3.047,3.047,0,0,1,.19-1c1,1.75,2.28,2.82,3.31,2.82,1.59,0,6.57-2.62,11.09-5.85a75.015,75.015,0,0,0,13.72-12.24Z" transform="translate(3.474 10.687)"/><path class="cls-2" d="M633.88,27.7a32.472,32.472,0,0,1-3.42,10l.31.31h3.11c.84-1,1.1-1.26,2-2.25,1.14.95,1.49,1.22,2.55,2.17.26.27.38.42.38.57s-.19.38-1,.84v5.43c0,4.82,0,4.82.15,9a.79.79,0,0,1-.68.84,7.385,7.385,0,0,1-2,.27c-.91,0-1.14-.16-1.14-.76V52.79h-3.08v3.57a.7.7,0,0,1-.57.76,10.892,10.892,0,0,1-2.24.26c-.8,0-1.1-.19-1.1-.72.12-5.51.19-8.4.19-8.7V42.34a28.679,28.679,0,0,1-3.49,3.84l-.27-.31a46.578,46.578,0,0,0,5.74-18.2h-2.24a9.494,9.494,0,0,0-2.21.23l-.23-1.33a9.171,9.171,0,0,0,2.44.3h6.07c1.07-1.29,1.37-1.67,2.47-2.85,1.56,1.3,2,1.71,3.54,3.12.15.15.19.23.19.34s-.15.19-.42.19Zm-2.7,24.32h3.08V38.83h-3.08Zm24.13-13h.38c.88-1.22,1.18-1.56,2.13-2.74,1.33,1.25,1.71,1.67,3,3,.15.15.19.23.19.34s-.15.19-.38.19h-5.32v4.72c0,4.74,0,5.2.19,13.18a.74.74,0,0,1-.592.863l-.048.007a13.262,13.262,0,0,1-2.66.23c-1,0-1.26-.15-1.26-.8.19-8.13.19-8.7.19-13.48V39.81h-4.6c-.3,6.73-1,9.73-3.07,12.81s-4.45,4.79-8.78,6.61l-.23-.38a17.411,17.411,0,0,0,7.6-13.18c.19-1.41.31-3.39.38-5.86h-1.14a12.775,12.775,0,0,0-2,.19l-.23-1.25a9.163,9.163,0,0,0,2.35.27h1.07v-12h-.19a15.714,15.714,0,0,0-2.47.19l-.23-1.33a10.341,10.341,0,0,0,2.74.34h11.51c.91-1,1.82-1.94,2.66-2.81,1.59,1.22,2,1.63,3.61,3,.19.16.26.27.26.38s-.22.27-.49.27h-4.56Zm-8.62-12c0,6.61,0,9.57-.12,12h4.56v-12Z" transform="translate(3.474 10.687)"/><path class="cls-2" d="M678.04,44.31a24.667,24.667,0,0,0,.34-4.07,11.726,11.726,0,0,0-.11-1.9c1.29.11,2.28.19,2.92.27h.15c2.28.19,3.19.45,3.19.83s-.53.69-1.74,1c-.23,2-.34,2.7-.54,3.8l4.75-.08,2.17-2.24,1.71,1.18c.34.27.84.61,1.52,1.06.38.31.53.5.53.69s-.26.49-.68.76a6.613,6.613,0,0,0-.8.49v7.64c0,.68.11.8,1.1.8a11.365,11.365,0,0,0,3.19-.27c.61-.19,1.1-1.1,1.71-3.12.38-1.32.42-1.44,1.33-4.52l.46.08-.23,6a.379.379,0,0,1,0,.15c0,.76.07.92.61,1.14a1.79,1.79,0,0,1,1.33,1.79c0,1.29-1,2-2.89,2.09-1.71.15-4.26.23-6.08.23a8.834,8.834,0,0,1-3.72-.5,2.271,2.271,0,0,1-1-2.16L687.37,45l-5.28.08c-.87,4.14-2.39,6.83-5.2,9.19a18.991,18.991,0,0,1-6.42,3.46c-1.14.34-1.71.49-4.52,1.18l-.16-.35c7.45-3.34,10.64-6.91,12.05-13.41l-6.8.08a19.033,19.033,0,0,0-2.17.22l-.38-1.29a14.784,14.784,0,0,0,2.51.23h.19Zm3-14.44a12.774,12.774,0,0,1-.91,4c-1.75,4.44-6.54,7.33-13.64,8.2l-.19-.41c4.25-1.49,6.46-2.93,8.32-5.4a10.6,10.6,0,0,0,2.17-6.38h-5.17v.64a8,8,0,0,1-.65,3.54,3.65,3.65,0,0,1-3,2.24c-1.14,0-2-1.1-2-2.66a1.69,1.69,0,0,1,1.21-1.86c2.13-1.07,2.93-2.21,3.5-5.06h.41a12.357,12.357,0,0,1,.42,2.36h9.24V26.59a16.863,16.863,0,0,0-.16-2.47c4.79.46,5.13.49,5.59.65s.57.26.57.45c0,.38-.53.69-1.6,1v2.81h8.36c.95-1,1.26-1.33,2.28-2.32,1.79,1.37,2.32,1.83,4.07,3.31.34.34.45.45.45.64,0,.38-.45.61-1.25.61a12.48,12.48,0,0,1-1.44-.07c-1.87,1.14-4,2.35-5.13,2.92l-.35-.19a30.007,30.007,0,0,0,1.68-4.1H688.5v5.76c0,.6.19.72,1.21.79h3.38c1.75,0,2.36-.15,2.78-.68a22.583,22.583,0,0,0,1.77-3.51h.38l-.15,2.59v.26c0,.72,0,.72,1,1.14a1.261,1.261,0,0,1,.91,1.22c0,1.14-.72,1.71-2.58,1.94-.54.07-3.65.19-4.72.19h-.53c-.45,0-1.71,0-3.61-.08-2.92,0-3.76-.61-3.76-2.43V29.84Z" transform="translate(3.474 10.687)"/><path class="cls-2" d="M724.17,34.59a50.719,50.719,0,0,1-5.47,6c4.37-.08,5.13-.08,13-.57a29.472,29.472,0,0,0-4.1-4l.19-.27a36.548,36.548,0,0,1,6.76,2.47c2.32,1.22,3.19,2.25,3.19,3.73s-.87,3.11-1.82,3.11c-.46,0-.8-.34-1.6-1.67a20.066,20.066,0,0,0-1.82-2.47c-5.43,1.26-5.43,1.26-7.83,1.67-2.85.5-9,1.41-11.89,1.75-.15,1.06-.38,1.52-.8,1.52s-.83-.95-1.74-5.51a55.753,55.753,0,0,0,6.64.23,32.782,32.782,0,0,0,2.06-6h-3.46a13.576,13.576,0,0,0-2.51.27l-.3-1.33a15.678,15.678,0,0,0,2.81.26h15.65c1-1.18,1.37-1.52,2.43-2.62l1.18.84a15.761,15.761,0,0,0,.53-2.59H712.58a9.668,9.668,0,0,1-.72,4.33,3.309,3.309,0,0,1-2.7,2.17,2.489,2.489,0,0,1-2.24-2.66,1.579,1.579,0,0,1,.57-1.37c.15-.11.15-.11,1.06-.68a6.561,6.561,0,0,0,2.36-2.28,7.859,7.859,0,0,0,.72-2.74h.46a8,8,0,0,1,.45,2.43h9.16V26.49a20.276,20.276,0,0,0-.11-2.82c5.16.35,6.19.54,6.19,1.07s-.53.68-1.79,1v2.85h9c.91-1,1.22-1.29,2.17-2.28,1.9,1.3,2.46,1.71,4.25,3.08.3.27.42.42.42.65a.56.56,0,0,1-.31.42,3.709,3.709,0,0,1-1,.19h-1.37c-.45.27-.91.5-1.14.61a19.744,19.744,0,0,1-2.39,1.25l2,1.52c.15.08.23.19.23.27a.24.24,0,0,1-.23.19Zm7.71,14.59c1.45-1.56,1.45-1.56,2.77-3,1.83,1.32,2.4,1.74,4.26,3.26.12.12.15.19.15.27a.332.332,0,0,1-.3.23H725.99v6.68h8.48c1.25-1.4,1.63-1.82,2.92-3.15,1.83,1.33,2.43,1.79,4.41,3.38.15.15.27.27.27.38s-.12.19-.27.19H710.64a21.322,21.322,0,0,0-3.11.27l-.31-1.37a18.937,18.937,0,0,0,3.46.3h11.06V49.94h-8.29a15.655,15.655,0,0,0-2.81.22l-.3-1.29a20.255,20.255,0,0,0,3.11.27h8.29V47.59a32.671,32.671,0,0,0-.19-3.83c1.14.11,2.12.22,2.65.3,2.82.27,3.31.38,3.31.8s-.23.49-1.56,1v3.38Z" transform="translate(3.474 10.687)"/><path class="cls-2" d="M8.1,157.94a24.234,24.234,0,0,0-3.21.12v-2.37a14.686,14.686,0,0,0,3.27.21H22.44V141.41H8.79a25.163,25.163,0,0,0-3.45.15v-2.4a16.4,16.4,0,0,0,3.45.21h14.4c.39,0,.81,0,1.56-.06-.06.75-.06,1.26-.06,2.34v15.36a20.087,20.087,0,0,0,.15,2.73h-2.4v-1.8Z" transform="translate(3.474 10.687)"/><path class="cls-2" d="M37.05,153.38a90.9,90.9,0,0,1,19.17,5l-.84,2.21a51.271,51.271,0,0,0-10.17-3.36,89.86,89.86,0,0,0-9.06-1.83Zm2.34-8.43a95.624,95.624,0,0,1,14.79,3.51l-.78,2.13a70.122,70.122,0,0,0-14.88-3.66Zm.54-8.19a94.353,94.353,0,0,1,15.12,3.3l-.78,2.19a77.137,77.137,0,0,0-15.21-3.48Z" transform="translate(3.474 10.687)"/><path class="cls-2" d="M85.49,158.33a12.4,12.4,0,0,0,2.7-.18v2.19a16.611,16.611,0,0,0-2.73-.15H70.76a16.182,16.182,0,0,0-2.73.15v-2.19a12.59,12.59,0,0,0,2.7.18h9.12c.69-3.21,1.38-7.62,1.65-10.32h-8a13.4,13.4,0,0,0-2.64.12v-2.16a15.692,15.692,0,0,0,2.67.18h8a3.007,3.007,0,0,0,1.41-.21l1,.87a5.573,5.573,0,0,0-.48,2.1c-.69,4.77-.93,6.27-1.56,9.42Z" transform="translate(3.474 10.687)"/><path class="cls-2" d="M97.9,154.52a21.309,21.309,0,0,0,3.48.18h17a21.309,21.309,0,0,0,3.48-.18v2.52a26.864,26.864,0,0,0-3.45-.15H101.35a27.231,27.231,0,0,0-3.45.15Zm3-14.25a18.733,18.733,0,0,0,3.21.18h11.53a18.733,18.733,0,0,0,3.21-.18v2.43a29.906,29.906,0,0,0-3.21-.11H104.11a29.614,29.614,0,0,0-3.18.12Z" transform="translate(3.474 10.687)"/><path class="cls-2" d="M145.98,143.59c-.33,4.41-.66,6.21-1.62,8.43a15.68,15.68,0,0,1-5.12,6.3,27.669,27.669,0,0,1-4.63,2.67,4.23,4.23,0,0,0-1.46-1.92,17.437,17.437,0,0,0,6.33-3.9c2.76-2.64,4-6,4.28-11.58h-8.27a27.816,27.816,0,0,1-5.23,6.36,4.235,4.235,0,0,0-1.77-1.41,22,22,0,0,0,6.42-8.28,16.641,16.641,0,0,0,1.53-4.2l2.29.72a12.824,12.824,0,0,0-.75,1.65,30.865,30.865,0,0,1-1.57,3.27h13.95a24.6,24.6,0,0,0,3.69-.18v2.19c-.81-.06-.81-.06-3.72-.09Z" transform="translate(3.474 10.687)"/><path class="cls-2" d="M160.8,147.35a21.223,21.223,0,0,0,3.72.18h17.43a23.668,23.668,0,0,0,3.63-.15v2.43a34.393,34.393,0,0,0-3.66-.12h-17.4a32.762,32.762,0,0,0-3.72.12Z" transform="translate(3.474 10.687)"/><path class="cls-2" d="M195.35,144.2a45.756,45.756,0,0,1,7.62,3.93l-1.17,2a33.311,33.311,0,0,0-7.65-4.11Zm-.78,13.71a25.951,25.951,0,0,0,8.07-1.86,19.763,19.763,0,0,0,9-6.69,22.335,22.335,0,0,0,3.6-6.72,9.031,9.031,0,0,0,1.86,1.59c-2.61,6.24-6.27,10.32-11.55,12.93a34.261,34.261,0,0,1-7.59,2.58l-1.62.33a6.99,6.99,0,0,0-1.17.33Zm3.12-20.88a44.35,44.35,0,0,1,7.44,3.78l-1.23,2a31.573,31.573,0,0,0-7.38-4Z" transform="translate(3.474 10.687)"/><path class="cls-2" d="M230.53,160.22a13.4,13.4,0,0,0-2.61.12v-2.1a15.4,15.4,0,0,0,2.61.18h11.52v-5.64H231.49a13.252,13.252,0,0,0-2.58.12v-2a15,15,0,0,0,2.61.18h10.53v-5.22H230.83a13.561,13.561,0,0,0-2.61.12v-2.07a14.9,14.9,0,0,0,2.61.18h11.16a17.2,17.2,0,0,0,2-.06V159.9a9.5,9.5,0,0,0,.12,1.86h-2.07v-1.5Z" transform="translate(3.474 10.687)"/><path class="cls-2" d="M257.35,157.49a26.114,26.114,0,0,0,8.73-2.31c5.79-2.58,9.81-7,12.24-13.35a5.989,5.989,0,0,0,1.83,1.77c-2.41,5.22-5.19,8.73-9.15,11.46-3.09,2.1-6.18,3.33-11.19,4.47a15.753,15.753,0,0,0-1.8.48Zm1.92-18.6a39.087,39.087,0,0,1,7.23,5.64l-1.56,1.86a33.149,33.149,0,0,0-7.14-5.88Z" transform="translate(3.474 10.687)"/><path class="cls-2" d="M301.26,147.02c-.36,7.77-2.88,11.43-9.66,14.07a5.252,5.252,0,0,0-1.41-2c6.21-2.07,8.55-5.28,8.79-12.12h-8.13a23.672,23.672,0,0,0-3.45.15V144.9a19.851,19.851,0,0,0,3.48.18h17.55a19.659,19.659,0,0,0,3.48-.18v2.22a23.672,23.672,0,0,0-3.45-.15Zm-10.83-9.51a15.577,15.577,0,0,0,3.45.21h9.06a27.231,27.231,0,0,0,3.45-.15v2.16q-.581,0-3.42-.09h-9.12a20.905,20.905,0,0,0-3.42.15Zm17.58-2.52a23.339,23.339,0,0,1,2.94,4.74l-1.53.84a22.866,22.866,0,0,0-2.91-4.86Zm3.69-1.14a24.96,24.96,0,0,1,2.94,4.74l-1.53.84a23.521,23.521,0,0,0-2.91-4.83Z" transform="translate(3.474 10.687)"/><path class="cls-2" d="M335.69,142.7v-2.94a21.123,21.123,0,0,0-.09-3.06h2.34a22.987,22.987,0,0,0-.12,2.85v3.15h2.58a20.5,20.5,0,0,0,3.51-.18v2.28a24.084,24.084,0,0,0-3.48-.15h-2.64c0,5.79-.36,8-1.47,10.17-1.62,3-4.32,5.1-8.37,6.48a5.379,5.379,0,0,0-1.35-1.89c3.93-1,7-3.33,8.16-6.36.66-1.8.84-3.6.9-8.4h-9.12v5a15.665,15.665,0,0,0,.12,2.43h-2.43a14.347,14.347,0,0,0,.12-2.52v-4.92h-2.52a24.084,24.084,0,0,0-3.48.15v-2.28a20.6,20.6,0,0,0,3.51.18h2.49v-3.48a14.642,14.642,0,0,0-.12-2.52h2.41a15.917,15.917,0,0,0-.12,2.43v3.57Zm5-7.89a23.843,23.843,0,0,1,2.13,4.92l-1.59.54a23.116,23.116,0,0,0-2.13-5Zm3.45-1a23.269,23.269,0,0,1,2.13,4.89l-1.56.54a24,24,0,0,0-2.1-4.92Z" transform="translate(3.474 10.687)"/><path class="cls-2" d="M373.64,137.75a6.8,6.8,0,0,0-1.32,1.26,52.809,52.809,0,0,1-7,6v12.78a19.882,19.882,0,0,0,.15,3.18h-2.61a15.446,15.446,0,0,0,.19-3.12v-11.4a47.041,47.041,0,0,1-11.59,5.25,6.929,6.929,0,0,0-1.16-2,42.2,42.2,0,0,0,15.56-7.77,25.189,25.189,0,0,0,5.73-5.67Z" transform="translate(3.474 10.687)"/><path class="cls-2" d="M383.92,157.49a26.114,26.114,0,0,0,8.73-2.31c5.79-2.58,9.81-7,12.24-13.35a5.989,5.989,0,0,0,1.83,1.77c-2.4,5.22-5.19,8.73-9.15,11.46-3.09,2.1-6.18,3.33-11.19,4.47a15.753,15.753,0,0,0-1.8.48Zm1.92-18.6a39.087,39.087,0,0,1,7.23,5.64l-1.56,1.86a33.149,33.149,0,0,0-7.14-5.88Z" transform="translate(3.474 10.687)"/><path class="cls-2" d="M423,136.1a52.147,52.147,0,0,0,2.25,9.93c1.77-.72,2.61-1.05,7.26-2.67a16.213,16.213,0,0,0,1.92-.78l.9,2.28a68.966,68.966,0,0,0-9,2.91c-5.13,2-7.35,4-7.35,6.51,0,2.73,2.31,3.78,8.19,3.78a29.815,29.815,0,0,0,8.58-1l.24,2.49a15.576,15.576,0,0,0-2.22.18,60.205,60.205,0,0,1-6.63.39,20.4,20.4,0,0,1-6.66-.81c-2.46-.9-3.72-2.55-3.72-4.92a6.489,6.489,0,0,1,2.67-5.1,18.669,18.669,0,0,1,3.93-2.43,61.139,61.139,0,0,1-2.19-8.4,10.043,10.043,0,0,0-.53-1.87Z" transform="translate(3.474 10.687)"/><path class="cls-2" d="M451.01,136.94c-1.29,3-2.31,9.15-2.31,14.07,0,1.05.06,2.82.12,4.2v1.38h.12a26.628,26.628,0,0,1,1.77-5.28,4.148,4.148,0,0,0,.24-.6l1.47.69c-1.41,2.94-2.58,6.75-2.58,8.52a3.272,3.272,0,0,0,.06.6l-2.13.21a7.551,7.551,0,0,0-.18-1.11,47.736,47.736,0,0,1-.84-8.91,50.869,50.869,0,0,1,1.56-12.33,13.95,13.95,0,0,0,.33-1.79Zm3,5.58a20.763,20.763,0,0,0,5.4.48c1.17,0,2,0,3.21-.09v-5.1a6.665,6.665,0,0,0-.09-1.23h2.25a30.631,30.631,0,0,0-.21,4.71v1.47a20.44,20.44,0,0,0,5.19-1.11l.09,2c-.06,0-.06,0-2.1.42a28.7,28.7,0,0,1-3.11.52c0,3,.09,4.5.33,8.49a21.721,21.721,0,0,1,5,2.94c.36.24.42.3.75.51l-.93,2.1a16.2,16.2,0,0,0-4.26-3.12,1.938,1.938,0,0,1-.3-.18l-.27-.18a4.251,4.251,0,0,1,.06.78,5.18,5.18,0,0,1-.36,2c-.72,1.59-2.55,2.52-5,2.52-3.48,0-5.67-1.65-5.67-4.26s2.37-4.26,5.7-4.26a8.468,8.468,0,0,1,3.33.6c-.09-.63-.21-3.45-.3-7.83-1.35.06-2.28.09-3.42.09s-2.34,0-3.39-.09a7.965,7.965,0,0,0-1-.06,4.339,4.339,0,0,0-.51,0,1.368,1.368,0,0,0-.3,0h-.12Zm5.76,11.25c-2.34,0-3.87,1-3.87,2.49s1.38,2.43,3.48,2.43a4.128,4.128,0,0,0,3.06-1.05,3.5,3.5,0,0,0,.57-2.34v-.9a7.745,7.745,0,0,0-3.21-.63Z" transform="translate(3.474 10.687)"/><path class="cls-2" d="M476.64,154.13a30.583,30.583,0,0,1,6,6.36l-1.68,1.59a29.952,29.952,0,0,0-5.91-6.54Z" transform="translate(3.474 10.687)"/><path class="cls-2" d="M527.75,137.75a8.452,8.452,0,0,0-.93,1.83,49.059,49.059,0,0,1-4.41,8.76,77.055,77.055,0,0,1,6.9,6.45l-1.67,1.86a43.01,43.01,0,0,0-6.54-6.51,35.824,35.824,0,0,1-12.07,10.45,5.34,5.34,0,0,0-1.56-1.8,32,32,0,0,0,11.94-10,56.872,56.872,0,0,0-8.07-5.43l1.5-1.59a86.206,86.206,0,0,1,7.8,5.22,41.226,41.226,0,0,0,3.54-7,13.145,13.145,0,0,0,1.05-3.18Z" transform="translate(3.474 10.687)"/><path class="cls-2" d="M552.64,147.02c-.36,7.77-2.88,11.43-9.66,14.07a5.252,5.252,0,0,0-1.41-2c6.21-2.07,8.55-5.28,8.79-12.12h-8.13a23.672,23.672,0,0,0-3.45.15V144.9a19.856,19.856,0,0,0,3.48.18h17.55a19.659,19.659,0,0,0,3.48-.18v2.22a23.672,23.672,0,0,0-3.45-.15Zm-10.83-9.51a15.577,15.577,0,0,0,3.45.21h9.06a26.7,26.7,0,0,0,3.44-.15v2.16c-.38,0-1.52-.06-3.41-.09h-9.12a20.905,20.905,0,0,0-3.42.15Zm17.58-2.52a23.811,23.811,0,0,1,2.94,4.74l-1.53.84a22.866,22.866,0,0,0-2.91-4.86Zm3.69-1.14a24.443,24.443,0,0,1,2.93,4.74l-1.52.84a24.019,24.019,0,0,0-2.91-4.83Z" transform="translate(3.474 10.687)"/><path class="cls-2" d="M591.43,142.88a3.858,3.858,0,0,0-.72.69,50.079,50.079,0,0,1-6,5.28v10.14a15.961,15.961,0,0,0,.15,2.64h-2.34a17.246,17.246,0,0,0,.12-2.61v-8.91a34.983,34.983,0,0,1-9.21,4.14,5.539,5.539,0,0,0-1-1.8,29.55,29.55,0,0,0,7-2.64,33.012,33.012,0,0,0,8.58-6.24,9.755,9.755,0,0,0,1.68-2Z" transform="translate(3.474 10.687)"/><path class="cls-2" d="M614.91,143.18a10.855,10.855,0,0,0-.12,2.1c-.09,5-.93,8-3,10.56-1.83,2.31-4,3.81-7.68,5.19a5.851,5.851,0,0,0-1.38-2,14.1,14.1,0,0,0,5.49-2.76c3.18-2.55,4.35-5.61,4.35-11.46a7.919,7.919,0,0,0-.12-1.62Zm11.85-3.78a5.392,5.392,0,0,0-.72,1.2,18,18,0,0,1-8.76,8.55,5.883,5.883,0,0,0-1.47-1.71,13,13,0,0,0,4.74-2.85,15.9,15.9,0,0,0,3.36-4.47h-17a29.062,29.062,0,0,0-3.54.15v-2.31a21.969,21.969,0,0,0,3.57.21h16.11c2,0,2,0,2.55-.21Z" transform="translate(3.474 10.687)"/><path class="cls-2" d="M639.24,137.06a38.764,38.764,0,0,0-1.26,4.8,43.678,43.678,0,0,0-.91,9.39c0,2.34.07,4.11.18,5.7a27.92,27.92,0,0,1,1.95-5.85l1.45.69c-1.36,3-2.43,6.57-2.43,8.25v.45l-2.16.18c-.07-.48-.09-.63-.19-1.2a43.734,43.734,0,0,1-.78-8.49,49.149,49.149,0,0,1,1.36-11.88,16.135,16.135,0,0,0,.41-2.4Zm7.64,12.06c-1.5,1.65-2.25,3.09-2.25,4.41,0,2.22,1.89,3.3,5.76,3.3a19.734,19.734,0,0,0,6.9-1l.3,2.31a6.172,6.172,0,0,0-1.05.15,31.048,31.048,0,0,1-6.15.6c-3.42,0-5.57-.72-6.87-2.28a4.244,4.244,0,0,1-.9-2.76c0-1.83.75-3.45,2.62-5.58Zm-3.81-8.88a20.368,20.368,0,0,0,5.1.45,32.224,32.224,0,0,0,8-.81l.15,2.13-2.07.27a50.762,50.762,0,0,1-6.45.39,40.114,40.114,0,0,1-4.8-.3Z" transform="translate(3.474 10.687)"/><path class="cls-2" d="M669.17,148.16c1.62,1.56,2.19,2.13,3.18,3.24a16.832,16.832,0,0,0,1.53-4.53l1.83.84a39.118,39.118,0,0,1-2.07,5.13c1,1.29,1.65,2.07,3.21,4.17l-1.38,1.47c-1.26-1.89-1.74-2.58-2.79-3.93a24.45,24.45,0,0,1-7.32,7.59,5.27,5.27,0,0,0-1.38-1.53,20.816,20.816,0,0,0,7.5-7.53,45.094,45.094,0,0,0-3.6-3.78Zm1.08-5.43a21.581,21.581,0,0,1-4.53,7,8.028,8.028,0,0,0-1.5-1.29,17.22,17.22,0,0,0,2.76-3.18,14.79,14.79,0,0,0,1.56-3.24Zm.69-5.4a14.468,14.468,0,0,0-.18-2.46h2.19a14.683,14.683,0,0,0-.18,2.46v1.89h2.87a17.624,17.624,0,0,0,2.94-.15v2a19.533,19.533,0,0,0-2.82-.12h-8.12a15.4,15.4,0,0,0-2.91.18v-2.07a14.617,14.617,0,0,0,2.94.18h3.3Zm4.38,4.65a21.1,21.1,0,0,0,4.14,5.7,5.3,5.3,0,0,0-1.41,1.29,29.2,29.2,0,0,1-4.26-6.21Zm12.66-.24a17.4,17.4,0,0,0,2.66-.15,27.97,27.97,0,0,0-.18,3.66,84.974,84.974,0,0,1-1.14,13.56c-.54,2.4-1.17,2.94-3.3,2.94a24.316,24.316,0,0,1-3.12-.24,5.818,5.818,0,0,0-.33-2,16.61,16.61,0,0,0,3.36.42c1.2,0,1.41-.45,2-4.23a97.983,97.983,0,0,0,.69-12.3h-4.23a44.143,44.143,0,0,1-.69,5.73,22,22,0,0,1-4.08,9.66,18.391,18.391,0,0,1-3.33,3.36,4.994,4.994,0,0,0-1.5-1.47,16.311,16.311,0,0,0,5.37-6.36c1.26-2.61,2-6.15,2.34-10.92h-.86a14.607,14.607,0,0,0-2.88.15v-2a16.524,16.524,0,0,0,2.88.18h.87c0-1.26.06-2.4.06-3.54a17.031,17.031,0,0,0-.18-3.06h2.25a.959.959,0,0,1-.06.45c-.06.75-.06.75-.15,5.22v.93Z" transform="translate(3.474 10.687)"/><path class="cls-2" d="M702.82,147.89a20.487,20.487,0,0,0-3.57.18,22.191,22.191,0,0,0,.15-3.3v-5.18a22.614,22.614,0,0,0-.15-3.27,18.285,18.285,0,0,0,3.42.18h13.32a19.255,19.255,0,0,0,3.51-.18,22.457,22.457,0,0,0-.12,3.3v5.16a22.457,22.457,0,0,0,.12,3.3,20.05,20.05,0,0,0-3.54-.18h-6v2.69h9.57a17.956,17.956,0,0,0,3.09-.21v2.1a23.467,23.467,0,0,0-3.09-.18h-8.4a21.009,21.009,0,0,0,4.29,3.72,26.81,26.81,0,0,0,7.59,3.36,7.606,7.606,0,0,0-1.08,1.89,30.534,30.534,0,0,1-7.47-3.78,22.531,22.531,0,0,1-4.59-4.32c.06,1.5.09,1.8.09,2.37v3.51a15.643,15.643,0,0,0,.21,3.27h-2.25a18.64,18.64,0,0,0,.21-3.27v-3.46c0-.6,0-1.41.06-2.31a27.328,27.328,0,0,1-11.25,8.19,7.108,7.108,0,0,0-1.23-1.77,27.279,27.279,0,0,0,6.24-3,19.119,19.119,0,0,0,4.86-4.35h-7.8a20.9,20.9,0,0,0-3,.18v-2.1a15.7,15.7,0,0,0,3,.21h9.12v-2.75Zm-1.56-9.75v3.24h6.9v-3.24Zm0,4.83v3.3h6.9v-3.3Zm8.73-1.59h7.5v-3.24h-7.5Zm0,4.89h7.5v-3.3h-7.5Z" transform="translate(3.474 10.687)"/><path class="cls-2" d="M731.82,139.79a21.17,21.17,0,0,0,1.29-4.53l2.13.39c-.57,1.71-1,2.82-1.53,4.14h1.93l2.64-.09c-.06.78-.09,1.56-.09,2.64v15.25a25.929,25.929,0,0,0,.15,3.09h-2v-1.92h-5.85v2.64h-2a26.632,26.632,0,0,0,.15-3.66V142.59a22.236,22.236,0,0,0-.12-2.85,16.911,16.911,0,0,0,1.8.09h1.47Zm-1.29,8.34h5.85v-6.69h-5.85Zm0,9h5.85v-7.32h-5.85Zm12.66-15.57a28.521,28.521,0,0,1-3.45,5.46,6.118,6.118,0,0,0-1.44-1.35,21.78,21.78,0,0,0,4.41-7.56,13.311,13.311,0,0,0,.78-2.91l2.07.39a10.517,10.517,0,0,0-.42,1.14c-.42,1.2-.69,1.89-1.14,3.06h7.26a19.4,19.4,0,0,0,2.64-.12,11.952,11.952,0,0,0-.12,1.89c-.27,11.88-.66,15.9-1.74,18.3-.6,1.38-1.56,1.92-3.33,1.92-1.11,0-1.92-.06-3.84-.21a5.548,5.548,0,0,0-.51-2.13,22.527,22.527,0,0,0,4.26.51c1.11,0,1.53-.27,1.89-1.23a34.086,34.086,0,0,0,1.11-8.28c.15-2.4.18-4.47.21-8.88Zm3.3,12.36a31.5,31.5,0,0,0-4.56-7.59l1.53-.93a34.729,34.729,0,0,1,4.74,7.47Z" transform="translate(3.474 10.687)"/><path class="cls-2" d="M2.64,197.24H3.72a14.725,14.725,0,0,0,1.71-.09c1.68-.12,1.86-.15,5.55-.36l4.71-.3c3.69-.21,4.08-.24,5.07-.27l1.71-.06a20.264,20.264,0,0,0,3.57-.33l.18,2.22a12.573,12.573,0,0,0-3.36.42,14.76,14.76,0,0,0-5.76,3,9.17,9.17,0,0,0-3.69,6.93c0,2.52,1.53,4.53,4.2,5.55a15.381,15.381,0,0,0,4.5,1h.3l-.39,2.43c-.33-.06-.39-.09-.93-.18a15.128,15.128,0,0,1-6.45-2.32,7.261,7.261,0,0,1-3.33-6.12c0-3.48,2-6.78,5.61-9.21a19.664,19.664,0,0,1,2.85-1.59,61.378,61.378,0,0,1-6.6.66,99.711,99.711,0,0,0-10.35,1Zm20.07,4.47a22.736,22.736,0,0,1,3.09,4.65l-1.53.9a21.1,21.1,0,0,0-3.06-4.77Zm3.39-1.65a24.326,24.326,0,0,1,3.09,4.68l-1.5.84a23.762,23.762,0,0,0-3.05-4.71Z" transform="translate(3.474 10.687)"/><path class="cls-2" d="M38.25,195.17a9.924,9.924,0,0,0,1.29-3.27l2.1.48c-.6,1.23-1,2-1.47,2.79h2.07a25.884,25.884,0,0,0,3.27-.15,30.808,30.808,0,0,0-.12,3.3v5.85q-.024,1.382.09,2.76c-.66,0-1.5-.06-2.28-.06H41.79v6.66l.39-.06a28.908,28.908,0,0,0,1.68-5.94l1.56.45c-.42,1.44-.57,2-.93,3.09l-.09.3c-.42,1.23-.48,1.38-.69,1.89,1-.18,1.38-.27,2.4-.51a9.929,9.929,0,0,0-.93-1.89l1.2-.51a30.576,30.576,0,0,1,2,4.47l-1.35.6c-.15-.42-.3-.9-.51-1.44-1.32.36-1.86.45-4.77,1.05v.36c0,.81.12,1.05.69,1.2,1,.27,2,.3,8,.3,4.83,0,6.69-.21,7.35-.81.45-.42.6-1.2.75-3.42a5.61,5.61,0,0,0,1.83.78c-.28,2.91-.72,3.93-1.87,4.47s-3.42.66-10.58.66c-3.84,0-5.7-.15-6.78-.6-.78-.3-1-.9-1-2.31v-8.79h-1.5a19.725,19.725,0,0,1-1.2,6.84,15.91,15.91,0,0,1-3.42,5.28,5,5,0,0,0-1.44-1.53,12,12,0,0,0,3.51-5.1,15.891,15.891,0,0,0,.81-5.49h-.26a21.864,21.864,0,0,0-2.52.09,23.971,23.971,0,0,0,.12-2.91v-5.79a31.854,31.854,0,0,0-.12-3.24,21.978,21.978,0,0,0,3.12.15Zm-2.4,5h3.12v-3.48H35.85Zm0,5.22h3.12v-3.72H35.85Zm4.71-5.22h3.21v-3.48H40.56Zm0,5.22h3.21v-3.72H40.56Zm8.37-2.19a14.7,14.7,0,0,0-2.55.15v-1.86a15.76,15.76,0,0,0,2.55.15h3.18v-4H49.5a15.511,15.511,0,0,0-2.34.12v-1.8a10.982,10.982,0,0,0,2.34.15h2.61v-1.42a16.453,16.453,0,0,0-.15-2.49h2a14.562,14.562,0,0,0-.15,2.46v1.41h2.76a11.392,11.392,0,0,0,2.34-.15v1.83a11.982,11.982,0,0,0-2.34-.15H53.79v4h3.33a16.671,16.671,0,0,0,2.67-.15v1.86a16.105,16.105,0,0,0-2.67-.15H54.21a20.608,20.608,0,0,0,6.44,6.78,5.726,5.726,0,0,0-1.22,1.56,20.339,20.339,0,0,1-5.79-6.91c.06,1.11.12,2.61.12,4v3.42a21.533,21.533,0,0,0,.15,3.15h-2a18.712,18.712,0,0,0,.18-3.12v-3.3c0-1.29,0-2.67.12-4.11a19.657,19.657,0,0,1-4.57,6.17,6.53,6.53,0,0,0-1.23-1.32,18.468,18.468,0,0,0,5.27-6.3Z" transform="translate(3.474 10.687)"/><path class="cls-2" d="M86.03,198.44a24.213,24.213,0,0,0,3.51-.15c-.09,1.08-.09,1.08-.15,3.93a93.016,93.016,0,0,1-1.05,12.66c-.54,2.61-1.44,3.42-3.84,3.42a37.328,37.328,0,0,1-5.34-.48,9.43,9.43,0,0,0-.52-2.23,26.985,26.985,0,0,0,5.7.75c1.59,0,2-.75,2.43-4.38a111.521,111.521,0,0,0,.66-11.67H78.16a26.4,26.4,0,0,1-3,10.59c-1.74,3.09-4.29,5.46-8.34,7.77a4.8,4.8,0,0,0-1.59-1.68,18.508,18.508,0,0,0,5-3.24c3.48-3.15,5.16-7,5.85-13.44H70.2a26.756,26.756,0,0,0-3.69.18v-2.19a25.976,25.976,0,0,0,3.72.18h6c.09-1.35.12-2.31.12-3.54a17.07,17.07,0,0,0-.18-2.91h2.47a20.559,20.559,0,0,0-.15,2.43c0,1.41,0,1.41-.15,4Z" transform="translate(3.474 10.687)"/><path class="cls-2" d="M103.09,194.06a42.5,42.5,0,0,0-1.26,4.8,44.326,44.326,0,0,0-.9,9.39c0,2.34.06,4.11.18,5.7a27.92,27.92,0,0,1,1.95-5.85l1.44.69c-1.35,3-2.43,6.57-2.43,8.25v.45l-2.16.18c-.06-.48-.09-.63-.18-1.2a42.96,42.96,0,0,1-.78-8.49,49.654,49.654,0,0,1,1.35-11.88,16.693,16.693,0,0,0,.42-2.4Zm7.65,12.06c-1.5,1.65-2.25,3.09-2.25,4.41,0,2.22,1.89,3.3,5.76,3.3a19.734,19.734,0,0,0,6.9-1l.3,2.31a6.172,6.172,0,0,0-1.05.15,31.048,31.048,0,0,1-6.15.6c-3.42,0-5.58-.72-6.87-2.28a4.244,4.244,0,0,1-.9-2.76c0-1.83.75-3.45,2.61-5.58Zm-3.81-8.88a20.368,20.368,0,0,0,5.1.45,32.224,32.224,0,0,0,8-.81l.15,2.13-2.07.27a50.762,50.762,0,0,1-6.45.39,40.114,40.114,0,0,1-4.8-.3Z" transform="translate(3.474 10.687)"/><path class="cls-2" d="M140.25,194.06a13.136,13.136,0,0,0-.18-2.16h2.31a12.405,12.405,0,0,0-.18,2.16v.24h8.85a29.455,29.455,0,0,0,3-.12,12.617,12.617,0,0,0-.12,2v1.41a13.376,13.376,0,0,0,.12,2h-1.92v-3.75H131.01v3.75h-1.94a15.562,15.562,0,0,0,.12-2.07v-1.33a14.532,14.532,0,0,0-.12-2,29.455,29.455,0,0,0,3,.12h8.16Zm-9.8,17.13a21.592,21.592,0,0,0-.13-2.91c.67.06,1.26.09,2.85.09h16.71a21.391,21.391,0,0,0,2.85-.09,22.439,22.439,0,0,0-.12,2.91v5.13a19.713,19.713,0,0,0,.18,3.09h-2v-1.38h-18.5v1.38h-2a19.014,19.014,0,0,0,.19-3.09Zm1.83,1.17h8.06V209.9h-8.06Zm0,4.14h8.06v-2.61h-8.06Zm.08-18.84a14.06,14.06,0,0,0,2.46.15h13.5a13.721,13.721,0,0,0,2.43-.15v1.83a14.417,14.417,0,0,0-2.43-.15h-13.5a14.667,14.667,0,0,0-2.46.15Zm17.7,6.93a13.93,13.93,0,0,0,.12,2,22.156,22.156,0,0,0-2.55-.12H135.45a22.088,22.088,0,0,0-2.52.12,12.989,12.989,0,0,0,.13-2v-1.47a13.656,13.656,0,0,0-.13-2,20.4,20.4,0,0,0,2.52.12h12.19a20.794,20.794,0,0,0,2.52-.12,14.224,14.224,0,0,0-.12,2Zm-15.21-2v2.43h13.38v-2.43Zm7.26,9.72h8.67v-2.46h-8.67Zm0,4.14h8.67v-2.56h-8.67Z" transform="translate(3.474 10.687)"/><path class="cls-2" d="M161.43,197.39a12.749,12.749,0,0,0,3.72.3c.63,0,1,0,1.89-.06v-2.91a7.735,7.735,0,0,0-.12-1.35h2.34a7.535,7.535,0,0,0-.24,2.13,9.854,9.854,0,0,0,0,1.14,7.89,7.89,0,0,0,0,.87,23.02,23.02,0,0,0,5.52-1l.15,2a4.178,4.178,0,0,0-.93.15,40.592,40.592,0,0,1-4.8.63c-.06,2.61-.06,2.82-.06,3.93a3.372,3.372,0,0,1,1.26,2.94c0,1.44-.24,2.1-1.62,4.38a6.714,6.714,0,0,0-1.2,3.33,1.6,1.6,0,0,0,1.2,1.59,13.6,13.6,0,0,0,4.53.54,19.769,19.769,0,0,0,6.3-.87,2.38,2.38,0,0,0,1.77-2.43,13.265,13.265,0,0,0-1.77-5.7,7.9,7.9,0,0,0,2.34.36,14.572,14.572,0,0,1,1.47,5.61,3.861,3.861,0,0,1-1.77,3.48c-1.65,1-4.47,1.53-8.37,1.53-5.4,0-7.74-1.14-7.74-3.81a5.526,5.526,0,0,1,.72-2.61l.51-.78h0a2.313,2.313,0,0,1-1.59.51c-2,0-3.39-1.68-3.39-4a4.66,4.66,0,0,1,4.517-4.8c.084,0,.169,0,.253,0a2.923,2.923,0,0,1,.66.06c0-.3,0-1,.06-2a7.125,7.125,0,0,0,0-1.26c-1.11,0-1.92.06-2.43.06a19.063,19.063,0,0,1-2.25-.09,3.945,3.945,0,0,0-.51,0,2.117,2.117,0,0,0-.39,0Zm4.62,6.75a3,3,0,0,0-2.7,3.15,2.08,2.08,0,0,0,1.8,2.324,2.146,2.146,0,0,0,.266.016,3,3,0,0,0,2.828-3.163c0-.035,0-.071-.008-.107,0-1.47-.63-2.13-2-2.22Zm12.84-8a28.487,28.487,0,0,1,6.78,6.15l-1.68,1.44a24.987,24.987,0,0,0-6.63-6.3Z" transform="translate(3.474 10.687)"/><path class="cls-2" d="M213.11,194.75a8.452,8.452,0,0,0-.93,1.83,49.059,49.059,0,0,1-4.41,8.76,77.055,77.055,0,0,1,6.9,6.45l-1.68,1.86a43.01,43.01,0,0,0-6.54-6.51,35.812,35.812,0,0,1-12.06,10.45,5.34,5.34,0,0,0-1.56-1.8,32,32,0,0,0,11.94-10,56.872,56.872,0,0,0-8.07-5.43l1.5-1.59a86.206,86.206,0,0,1,7.8,5.22,41.226,41.226,0,0,0,3.54-7,13.139,13.139,0,0,0,1-3.18Z" transform="translate(3.474 10.687)"/><path class="cls-2" d="M228.97,200.59a32.94,32.94,0,0,1,3,6.66l-2,.69a24.76,24.76,0,0,0-2.82-6.72Zm16.92-.18a17.728,17.728,0,0,0-.66,2.43,27.011,27.011,0,0,1-2.59,6.75c-2.13,3.66-5.28,6.42-9.93,8.67a6.075,6.075,0,0,0-1.38-1.68c4.62-2.07,7.44-4.38,9.51-7.83a22.656,22.656,0,0,0,2.55-6.45,12.662,12.662,0,0,0,.33-2V200Zm-10.8-1a30.105,30.105,0,0,1,2.91,6.45l-2,.69a26.312,26.312,0,0,0-2.76-6.57Z" transform="translate(3.474 10.687)"/><path class="cls-2" d="M262.33,196.59a17.2,17.2,0,0,0-.12-2.76h2.43a17.21,17.21,0,0,0-.15,2.76v4.38l12.15-1.66a3.363,3.363,0,0,0,1.72-.42l1.47,1.23a9.055,9.055,0,0,0-.48.84,20.209,20.209,0,0,1-2.28,3.84,23.25,23.25,0,0,1-5.1,4.68,5.1,5.1,0,0,0-1.8-1.44,16.517,16.517,0,0,0,6.8-7l-.68.15-.36.06c-4.2.57-8,1.11-11.46,1.59v7.08c0,2.79.12,3.42.75,4s1.89.75,4.35.75a34.12,34.12,0,0,0,8.73-1.05l.15,2.43a12.164,12.164,0,0,0-1.81.15,53.055,53.055,0,0,1-7.1.54c-3.42,0-5.16-.42-6.12-1.41s-1.11-1.89-1.11-5V203.1l-3.63.51a19.254,19.254,0,0,0-2.94.51l-.27-2.25h.45c.51,0,1.56-.09,2.58-.21l3.81-.51Z" transform="translate(3.474 10.687)"/><path class="cls-2" d="M287.37,204.35a21.223,21.223,0,0,0,3.72.18h17.43a23.668,23.668,0,0,0,3.63-.15v2.43a34.393,34.393,0,0,0-3.66-.12h-17.4a32.762,32.762,0,0,0-3.72.12Z" transform="translate(3.474 10.687)"/><path class="cls-2" d="M321.71,201.32a48.086,48.086,0,0,1,7.62,3.9l-1.17,2a33.117,33.117,0,0,0-7.65-4.11Zm-.78,13.71h.18a27.245,27.245,0,0,0,7.89-1.86,21.439,21.439,0,0,0,12.64-13.44,9.211,9.211,0,0,0,1.86,1.62c-3.78,9.09-10,13.8-20.76,15.84a9.25,9.25,0,0,0-1.17.3Zm3.12-20.88a46.772,46.772,0,0,1,7.44,3.78l-1.23,2a32.4,32.4,0,0,0-7.38-4Zm15.72-1.38a23.877,23.877,0,0,1,3.06,4.65l-1.5.9a24.249,24.249,0,0,0-3.06-4.77Zm3.36-1.62a22.926,22.926,0,0,1,3.12,4.65l-1.5.87a23.115,23.115,0,0,0-3.09-4.71Z" transform="translate(3.474 10.687)"/><path class="cls-2" d="M358.93,196.91a12.705,12.705,0,0,0,1.44-4.11l2.4.42a6.372,6.372,0,0,0-.78,1.62,15.805,15.805,0,0,1-.92,2,4.933,4.933,0,0,1,.62,0c4.8-.24,7.8-.6,9.45-1.14l.18,2a9.3,9.3,0,0,0-1.2.15,96.817,96.817,0,0,1-9.89.78,22.644,22.644,0,0,1-2.71,4.26,14.255,14.255,0,0,1-1,1.14c-.21.15-.35.27-.39.3h0c0,.06,0,.06.07.09,1.08-.84,1.08-.84,1.37-1.05a8.007,8.007,0,0,1,4.53-1.47,3.641,3.641,0,0,1,3.993,3.249c0,.027,0,.054.007.081,2.19-.87,3.9-1.5,5.22-2a6.6,6.6,0,0,0,2-.87l1,2.1a49.9,49.9,0,0,0-8,2.64c.06.78.06,1.08.06,1.83v3a6.5,6.5,0,0,0,.06,1.08h-2q.2-2.154.18-4.32a7.948,7.948,0,0,0,0-.9c-4.07,1.92-5.64,3.33-5.64,5.13,0,2,1.86,2.85,6.09,2.85a25.147,25.147,0,0,0,8-1.17l.27,2.31c-.4.03-.8.08-1.2.15a46.486,46.486,0,0,1-7.29.6c-5.37,0-8-1.53-8-4.62,0-1.65,1-3.21,3.06-4.74a23.6,23.6,0,0,1,4.47-2.4c-.24-1.65-1-2.37-2.36-2.37-1.9,0-4.26,1.11-6.7,3.18a9.843,9.843,0,0,0-2.3,2.49l-1.68-1.68a29.859,29.859,0,0,0,6.71-8.58l.27-.45a3.3,3.3,0,0,1-.56.06l-4.41-.09h-.71a5.589,5.589,0,0,0-.66,0v-2.07a42,42,0,0,0,6.42.33Z" transform="translate(3.474 10.687)"/><path class="cls-2" d="M380.8,205.19a7.772,7.772,0,0,0,1.2.09h.72c.81-1.17,1.44-2.13,1.89-2.85a34.03,34.03,0,0,0-3.66-4.8l1.05-1.35c.51.63.63.78,1,1.26a20.758,20.758,0,0,0,2.49-5.37l1.77.84a15.33,15.33,0,0,0-1.2,2.22c-.51,1-1.32,2.34-2.1,3.54.72,1,1.05,1.44,1.53,2.19,1.86-3.12,2.37-4.17,2.73-5.46l1.74.84c-.24.36-.36.57-.9,1.56a74.454,74.454,0,0,1-4.56,7.32c3.12-.24,3.12-.24,4.08-.36a25,25,0,0,0-1-2.55l1.29-.48a39.424,39.424,0,0,1,1.92,5.43l-1.41.57c-.18-.75-.24-1-.39-1.56-1,.15-1,.15-1.95.24v9.51a22.355,22.355,0,0,0,.18,3.45h-2a23,23,0,0,0,.18-3.45v-9.33l-1.95.18a12.049,12.049,0,0,0-2.37.3Zm3.21,3.69a39.312,39.312,0,0,1-1.5,8.34l-1.47-.72a28.437,28.437,0,0,0,1.41-7.89Zm5.4-.27a48.2,48.2,0,0,1,1.26,6.6l-1.5.48a32.319,32.319,0,0,0-1.17-6.72Zm11.85-7.44c-.09-1.68-.09-2.16-.12-6.45a18.3,18.3,0,0,0-.12-2.22h2a17.345,17.345,0,0,0-.15,2.79c0,2.25,0,4.32.06,5.88h2.34a18.532,18.532,0,0,0,3.21-.18v2a19.36,19.36,0,0,0-3.21-.18h-2.25a43.684,43.684,0,0,0,.84,7.2,20.415,20.415,0,0,0,1.92-5.55l1.65.81c-.18.42-.3.75-.69,1.83a27.73,27.73,0,0,1-2.31,5,13.9,13.9,0,0,0,1.77,3.9c.3.45.33.48.57.48.33-.24.51-1.26.72-3.78a7.21,7.21,0,0,0,1.5,1.14c-.42,3.45-1.05,4.92-2.13,4.92s-2.58-2-3.63-4.86a21.459,21.459,0,0,1-5.55,5.49,3.735,3.735,0,0,0-1.35-1.29,19.684,19.684,0,0,0,6.33-6,42.554,42.554,0,0,1-1.32-9.27h-8.6a19.934,19.934,0,0,0-2.91.15v-1.89a19.794,19.794,0,0,0,3,.15,40.016,40.016,0,0,0-.78-4.29,15.642,15.642,0,0,0-1.59.09v-1.75a11.46,11.46,0,0,0,2.22.15h2.07v-.39a11.158,11.158,0,0,0-.18-2.58h2a13.577,13.577,0,0,0-.18,2.61v.36h1.74a12.841,12.841,0,0,0,2.31-.12v1.65c-.458-.053-.919-.083-1.38-.09a31.858,31.858,0,0,1-1,4.29Zm-1.71,11.61a22.947,22.947,0,0,0,.06,2.46c-.75-.06-1.11-.06-2.49-.06h-3.81v2.41h-1.77a17.84,17.84,0,0,0,.18-2.79v-7.21a19.675,19.675,0,0,0-.15-2.85,12.789,12.789,0,0,0,2.16.12h3.84a12.8,12.8,0,0,0,2.07-.12c-.06.69-.09,1.44-.09,2.88Zm-6.24.9h4.68v-3h-4.68Zm0-4.5h4.65V206.3h-4.62Zm3.15-8a22.961,22.961,0,0,0,1-4.29h-3.82a4.478,4.478,0,0,1,.12.66c.21,1,.33,1.89.6,3.63Zm9.72-1.35a19.235,19.235,0,0,0-2.61-4.8l1.41-.69a23.5,23.5,0,0,1,2.76,4.65Z" transform="translate(3.474 10.687)"/><path class="cls-2" d="M421.64,193.04a16.936,16.936,0,0,0-.69,3.09c-.48,3-.9,6.3-1,7.83h.12l.21-.87a13.387,13.387,0,0,1,1.83-4.47c1.68-2.58,3.66-3.87,6-3.87a5.651,5.651,0,0,1,4.8,2.67c1.26,1.86,1.8,4.08,1.8,7.29,0,5.43-2.43,9.54-6.93,11.79a22.7,22.7,0,0,1-5.34,1.77,6.2,6.2,0,0,0-1.2-2,15.852,15.852,0,0,0,6.09-1.89c3.51-2,5.16-5.16,5.16-10s-1.68-7.62-4.56-7.62c-2.28,0-4.2,1.71-5.91,5.22a15.648,15.648,0,0,0-1.62,6.69v.72l-2.16.09v-.87l-.06-3.12v-.69a75.787,75.787,0,0,1,1-11.07,5.987,5.987,0,0,0,.09-1Z" transform="translate(3.474 10.687)"/><path class="cls-2" d="M444.64,203.75a11.755,11.755,0,0,0,2.31.15h1.83a13.732,13.732,0,0,0,2.31-.15,22.4,22.4,0,0,0-.15,3.15v5.85a4.748,4.748,0,0,0,2.52,2.7c1.44.75,3.18,1,7.83,1a78.378,78.378,0,0,0,10.86-.6,9.754,9.754,0,0,0-.69,2.22c-2.79.12-6.21.21-8.82.21-5,0-6.84-.12-8.34-.57a7.419,7.419,0,0,1-4.41-3.36,30.8,30.8,0,0,1-3.09,2.73c-.93.72-.93.72-1.71,1.41l-1-2a21.252,21.252,0,0,0,4.95-3.6v-7.3h-2.22a11.557,11.557,0,0,0-2.19.15Zm2.46-10.89a38.949,38.949,0,0,1,4.89,5.4l-1.49,1.33a29.421,29.421,0,0,0-4.74-5.52Zm10,2.52a13.573,13.573,0,0,0-2.4.15v-2a13,13,0,0,0,2.43.15h3.06a14.345,14.345,0,0,0,2.25-.12,9.558,9.558,0,0,0-.12,1.62,20.578,20.578,0,0,0,2.58,9.81,20.85,20.85,0,0,0,3.33,4.68,15.024,15.024,0,0,0,3.15,2.58,7.432,7.432,0,0,0-1.32,1.71,19.228,19.228,0,0,1-5.46-5.73,21.326,21.326,0,0,1-3.21-8.19,19.6,19.6,0,0,1-1.41,5.34,21.341,21.341,0,0,1-3.75,5.88,20.3,20.3,0,0,1-2.37,2.19,7.581,7.581,0,0,0-1.47-1.47,17.22,17.22,0,0,0,4-4c2.52-3.36,3.81-7.53,4-12.63Z" transform="translate(3.474 10.687)"/><path class="cls-2" d="M477.86,197.39a12.749,12.749,0,0,0,3.72.3c.63,0,1,0,1.89-.06v-2.91a7.735,7.735,0,0,0-.12-1.35h2.34a7.535,7.535,0,0,0-.24,2.13,9.854,9.854,0,0,0,0,1.14,7.89,7.89,0,0,0,0,.87,23.02,23.02,0,0,0,5.52-1l.15,2a4.178,4.178,0,0,0-.93.15,40.592,40.592,0,0,1-4.8.63c-.06,2.61-.06,2.82-.06,3.93a3.37,3.37,0,0,1,1.26,2.94c0,1.44-.24,2.1-1.62,4.38a6.714,6.714,0,0,0-1.2,3.33,1.6,1.6,0,0,0,1.2,1.59,13.6,13.6,0,0,0,4.53.54,19.769,19.769,0,0,0,6.3-.87,2.38,2.38,0,0,0,1.77-2.43,13.251,13.251,0,0,0-1.77-5.7,7.9,7.9,0,0,0,2.34.36,14.542,14.542,0,0,1,1.46,5.61,3.858,3.858,0,0,1-1.76,3.48c-1.66,1-4.47,1.53-8.37,1.53-5.4,0-7.74-1.14-7.74-3.81a5.526,5.526,0,0,1,.72-2.61l.51-.78h0a2.313,2.313,0,0,1-1.59.51c-1.95,0-3.39-1.68-3.39-4a4.66,4.66,0,0,1,4.517-4.8c.084,0,.169,0,.253,0a2.923,2.923,0,0,1,.66.06c0-.3,0-1,.06-2a7.125,7.125,0,0,0,0-1.26c-1.11,0-1.92.06-2.43.06a19.063,19.063,0,0,1-2.25-.09,3.945,3.945,0,0,0-.51,0,2.117,2.117,0,0,0-.39,0Zm4.62,6.75a3,3,0,0,0-2.7,3.15,2.08,2.08,0,0,0,1.8,2.324,2.146,2.146,0,0,0,.266.016,3,3,0,0,0,2.828-3.163c0-.035,0-.071-.008-.107,0-1.47-.63-2.13-2-2.22Zm12.84-8a28.487,28.487,0,0,1,6.78,6.15l-1.69,1.44a24.81,24.81,0,0,0-6.62-6.3Z" transform="translate(3.474 10.687)"/><path class="cls-2" d="M516.64,206.48c-2,1.62-2.85,3-2.85,4.41s.87,2.37,2.55,2.94a19.1,19.1,0,0,0,5.49.6c3.75,0,7.32-.45,9-1.14l.27,2.46a8.434,8.434,0,0,0-1,.15,48.962,48.962,0,0,1-8.1.69,21.158,21.158,0,0,1-6.9-.93c-2.25-.93-3.42-2.46-3.42-4.53s1.14-3.84,3.45-5.79Zm-3.15-10.95a34.277,34.277,0,0,0,8,.72,32.825,32.825,0,0,0,7.59-.63l.15,2a42.731,42.731,0,0,0-7.56,4.56l-1.53-1.23a46.417,46.417,0,0,1,4-2.49l.75-.39c.21-.12.27-.12.57-.3a23.729,23.729,0,0,1-4.53.39,58.692,58.692,0,0,1-6.6-.39,6.986,6.986,0,0,0-1-.09Z" transform="translate(3.474 10.687)"/><path class="cls-2" d="M549.57,193.1a52.147,52.147,0,0,0,2.25,9.93c1.77-.72,2.61-1.05,7.26-2.67a16.213,16.213,0,0,0,1.92-.78l.9,2.28a68.966,68.966,0,0,0-9,2.91c-5.13,2-7.35,4-7.35,6.51,0,2.73,2.31,3.78,8.19,3.78a29.815,29.815,0,0,0,8.58-1l.24,2.49a15.576,15.576,0,0,0-2.22.18,60.191,60.191,0,0,1-6.63.39,20.4,20.4,0,0,1-6.66-.81c-2.46-.9-3.72-2.55-3.72-4.92a6.492,6.492,0,0,1,2.67-5.1,18.721,18.721,0,0,1,3.93-2.43,61.139,61.139,0,0,1-2.19-8.4,10.055,10.055,0,0,0-.51-1.89Z" transform="translate(3.474 10.687)"/><path class="cls-2" d="M572.24,197.24h1.08a14.633,14.633,0,0,0,1.71-.09c1.69-.12,1.87-.15,5.55-.36l4.71-.3c3.69-.21,4.08-.24,5.07-.27l1.71-.06a20.264,20.264,0,0,0,3.57-.33l.18,2.22a12.573,12.573,0,0,0-3.36.42,14.767,14.767,0,0,0-5.76,3,9.17,9.17,0,0,0-3.69,6.93c0,2.52,1.53,4.53,4.2,5.55a15.381,15.381,0,0,0,4.5,1h.3l-.39,2.43c-.33-.06-.39-.09-.93-.18a15.131,15.131,0,0,1-6.48-2.31,7.261,7.261,0,0,1-3.33-6.12c0-3.48,2-6.78,5.61-9.21a19.664,19.664,0,0,1,2.85-1.59,61.378,61.378,0,0,1-6.6.66,99.521,99.521,0,0,0-10.34,1Zm20.07,4.47a22.736,22.736,0,0,1,3.09,4.65l-1.53.9a21.1,21.1,0,0,0-3.06-4.77Zm3.39-1.65a24.326,24.326,0,0,1,3.09,4.68l-1.5.84a23.706,23.706,0,0,0-3.06-4.71Z" transform="translate(3.474 10.687)"/><path class="cls-2" d="M603.24,211.13a30.788,30.788,0,0,1,6,6.36l-1.68,1.59a29.947,29.947,0,0,0-5.92-6.49Z" transform="translate(3.474 10.687)"/><path class="cls-2" d="M638.75,195.38a17.112,17.112,0,0,0-.18-3h2.22a22.11,22.11,0,0,0-.15,3v2h2.85a18.2,18.2,0,0,0,2.76-.18v2a21.1,21.1,0,0,0-2.73-.12,28.775,28.775,0,0,1-2.13,9.45,58.682,58.682,0,0,1,4.29,6.3l-1.5,1.44a55.841,55.841,0,0,0-3.66-5.88,24.412,24.412,0,0,1-6.66,8,5.29,5.29,0,0,0-1.5-1.44,21,21,0,0,0,6.93-8.19,52.232,52.232,0,0,0-5.43-6.12l1.41-1.2a68.52,68.52,0,0,1,4.83,5.43,27.549,27.549,0,0,0,1.47-7.8h-6.24a15.787,15.787,0,0,0-2.67.15v-2a18.2,18.2,0,0,0,2.76.18h3.33Zm8.7,8a34.087,34.087,0,0,1,4.44,6.69l-1.65,1.14a26.34,26.34,0,0,0-4.32-6.9Zm1.89-2.49a18.474,18.474,0,0,0-2.82.18v-2a17.294,17.294,0,0,0,2.85.15h4.68v-3.36a17.212,17.212,0,0,0-.21-3.27h2.31a20.313,20.313,0,0,0-.18,3.27v3.36h.75a18.637,18.637,0,0,0,2.91-.18v2.07a18.077,18.077,0,0,0-2.94-.18h-.72v15.45c0,2-.6,2.43-3.3,2.43-1.35,0-2.1,0-3.42-.09a7.2,7.2,0,0,0-.63-2,28.711,28.711,0,0,0,3.84.33c1.35,0,1.59-.12,1.59-.75V200.93Z" transform="translate(3.474 10.687)"/><path class="cls-2" d="M664.46,197.36a13.027,13.027,0,0,0,2.4.15h5.58a12.2,12.2,0,0,0,2.4-.15v1.92a13.219,13.219,0,0,0-2.16-.12h-5.82a17.824,17.824,0,0,0-2.4.12Zm1-4.11a12.407,12.407,0,0,0,2.31.15h4.17a12.58,12.58,0,0,0,2.31-.15v1.89a16.819,16.819,0,0,0-2.31-.12h-4.17a17.14,17.14,0,0,0-2.31.12Zm.15,8.25a14.181,14.181,0,0,0,2.16.12h4.44a13.311,13.311,0,0,0,2.13-.12v1.86a15.47,15.47,0,0,0-2.13-.12h-4.44a14.713,14.713,0,0,0-2.16.12Zm0,4.14a13.452,13.452,0,0,0,2.16.12h4.44a12.856,12.856,0,0,0,2.13-.12v1.86a14.583,14.583,0,0,0-2.13-.12h-4.44a13.93,13.93,0,0,0-2.16.12Zm2.07,13.62h-1.95a18.747,18.747,0,0,0,.18-2.88v-4.11a15.251,15.251,0,0,0-.15-2.49,20.543,20.543,0,0,0,2.43.12h3.87a12.429,12.429,0,0,0,2.19-.09q-.1,1.167-.09,2.34v4.26a16.318,16.318,0,0,0,.15,2.46h-1.86v-1.23h-4.77Zm0-3.18h4.8v-4.62h-4.84Zm14.19-20c-2.25.42-3.09.54-5.88.84a7,7,0,0,0-.81-1.74,46.592,46.592,0,0,0,10.38-1.74,15.932,15.932,0,0,0,3.36-1.29l1.29,1.71a8.406,8.406,0,0,1-1,.27c-1.08.39-4.23,1.26-5.49,1.56v5.55h4a21.8,21.8,0,0,0,3.21-.18v2a22.657,22.657,0,0,0-3.21-.18h-4v5.13h3.69a15.382,15.382,0,0,0,2.25-.12,19.848,19.848,0,0,0-.12,2.67v5.58a24.471,24.471,0,0,0,.15,2.94h-2v-1.49h-9.3v1.5h-2a17.262,17.262,0,0,0,.15-2.91v-5.76a20.794,20.794,0,0,0-.12-2.52,14.867,14.867,0,0,0,2.13.12h3.36v-5.13h-3.27a20.372,20.372,0,0,0-3.33.18v-2a19.666,19.666,0,0,0,3.36.18h3.15Zm-3.48,19.86h9.25v-6.25h-9.3Z" transform="translate(3.474 10.687)"/><path class="cls-2" d="M699.13,215.87a21.085,21.085,0,0,0,.18,3.36h-2.22a22.464,22.464,0,0,0,.18-3.36V196.22a25.934,25.934,0,0,0-.12-3.3,27.546,27.546,0,0,0,3.12.12h4.5a26.5,26.5,0,0,0,3.06-.12c-.06.84-.09,1.74-.09,2.85v3.27a24.323,24.323,0,0,0,.09,2.76c-.84-.06-1.77-.09-3-.09h-5.67Zm0-19.23h6.9v-2.19h-6.9Zm0,3.66h6.9v-2.28h-6.9Zm11.19,10.86a11.3,11.3,0,0,0,6.66,4.2,7.008,7.008,0,0,0-.9,1.68,18.1,18.1,0,0,0,2.61.21c.81,0,1.05-.18,1.05-.87V201.71h-6.21a29.626,29.626,0,0,0-3.06.09c.06-.78.09-1.68.09-2.76v-3.27c0-1,0-1.95-.09-2.85a26.49,26.49,0,0,0,3.06.12h5.11a27.61,27.61,0,0,0,3.15-.12,28.411,28.411,0,0,0-.15,3.3v20.25c0,2-.51,2.49-2.91,2.49-.84,0-1.83-.06-2.82-.12a5.656,5.656,0,0,0-.45-1.89,5.628,5.628,0,0,0,.66.09,13.157,13.157,0,0,1-6.9-5c-1.14,2.88-3,4.41-7.32,6a4.49,4.49,0,0,0-1.11-1.56,12.672,12.672,0,0,0,5.31-2.55,6,6,0,0,0,1.68-2.73H704a17.3,17.3,0,0,0-2.73.15v-1.76a15.285,15.285,0,0,0,2.67.15h4.2a18.931,18.931,0,0,0,.18-2.67h-3.81a19.389,19.389,0,0,0-2.55.12v-1.71a13.948,13.948,0,0,0,2.55.15h1.53a15.09,15.09,0,0,0-1.83-2.52l1.53-.63a22.885,22.885,0,0,1,2.1,3.15h3.06a15.37,15.37,0,0,0,1.8-3.18l1.68.51a23.693,23.693,0,0,1-1.74,2.63h1.71a14.5,14.5,0,0,0,2.55-.15v1.71a19.563,19.563,0,0,0-2.55-.12H710a18.1,18.1,0,0,1-.24,2.67h5.1a15.787,15.787,0,0,0,2.67-.15v1.77a16.249,16.249,0,0,0-2.7-.15Zm2-14.52h7.44v-2.19h-7.44Zm0,3.66h7.44v-2.28h-7.44Z" transform="translate(3.474 10.687)"/><path class="cls-2" d="M730.5,206.66c0-1.47,0-2.7.12-4.44a18.855,18.855,0,0,1-2.64,4.14,18.332,18.332,0,0,0-1.17-1.68,25.719,25.719,0,0,0,5-8.49,19.971,19.971,0,0,0,1.14-4.2l2.1.54a8.97,8.97,0,0,0-.51,1.47,45.976,45.976,0,0,1-2.16,5.4v16.32a30.546,30.546,0,0,0,.12,3.72h-2.16a29.918,29.918,0,0,0,.18-3.69Zm9.72,3.54a21.1,21.1,0,0,1-4.65,7.5,6.3,6.3,0,0,0-1.59-1.17,14.208,14.208,0,0,0,2.61-3,15.845,15.845,0,0,0,1.89-4Zm-6.18-3.75a22.7,22.7,0,0,0,2.88.12h2.55a27.041,27.041,0,0,0,2.52-2.19,40.734,40.734,0,0,0-6.3-4.44l1.08-1.38c1.14.69,1.47.9,2.31,1.47a17.4,17.4,0,0,0,3.09-3.72c-2.16.27-3.87.45-6.09.57a4.589,4.589,0,0,0-.69-1.74c6.33-.15,14.43-1.44,16.35-2.55l1.26,1.65-1.68.42a67.3,67.3,0,0,1-6.69,1.32,33.964,33.964,0,0,1-4.2,5c1.14.81,1.71,1.23,2.85,2.19a28.559,28.559,0,0,0,5.1-6.3l1.89,1a26.683,26.683,0,0,0-1.71,2.1,58.351,58.351,0,0,1-6.51,6.54c5.16-.18,5.7-.21,8.64-.51a38.887,38.887,0,0,0-2.64-3.12l1.44-.78a36.138,36.138,0,0,1,5,6.57l-1.62,1c-.57-1.08-.78-1.44-1.2-2.16-2.22.21-2.22.21-6.93.51v8.31a22.532,22.532,0,0,0,.18,3.18h-2.28a22.877,22.877,0,0,0,.18-3.15v-8.25c-2.49.15-4.89.24-7.2.3a8.962,8.962,0,0,0-1.35.09Zm15.18,2.91a22.492,22.492,0,0,0,2.61,4.35,18.837,18.837,0,0,0,2.52,2.73c-.54.39-1.05.78-1.56,1.23a28.307,28.307,0,0,1-5.16-7.47Z" transform="translate(3.474 10.687)"/><path class="cls-2" d="M10.86,253.91a12.705,12.705,0,0,0,1.44-4.11l2.4.42a6.372,6.372,0,0,0-.78,1.62,14.053,14.053,0,0,1-.93,2,5.093,5.093,0,0,1,.63,0c4.8-.24,7.8-.6,9.45-1.14l.18,2a9.3,9.3,0,0,0-1.2.15,97.012,97.012,0,0,1-9.9.78,22.157,22.157,0,0,1-2.7,4.26c-.3.36-.9,1-1,1.14a1.759,1.759,0,0,1-.39.3h0a.237.237,0,0,0,.06.09c1.08-.84,1.08-.84,1.38-1.05a8.007,8.007,0,0,1,4.53-1.47,3.641,3.641,0,0,1,3.993,3.249c0,.027,0,.054.007.081,2.19-.87,3.9-1.5,5.22-2a6.6,6.6,0,0,0,2-.87l1,2.1a49.9,49.9,0,0,0-8,2.64c.06.78.06,1.08.06,1.83v3a6.5,6.5,0,0,0,.06,1.08h-2q.2-2.154.18-4.32a7.948,7.948,0,0,0,0-.9c-4.08,1.92-5.64,3.33-5.64,5.13,0,2,1.86,2.85,6.09,2.85a25.147,25.147,0,0,0,8-1.17l.27,2.31c-.4.03-.8.08-1.2.15a46.476,46.476,0,0,1-7.29.6c-5.37,0-8-1.53-8-4.62,0-1.65,1-3.21,3.06-4.74a23.314,23.314,0,0,1,4.47-2.4c-.24-1.65-1-2.37-2.37-2.37-1.89,0-4.26,1.11-6.69,3.18a9.936,9.936,0,0,0-2.31,2.49l-1.68-1.68a29.83,29.83,0,0,0,6.72-8.58l.27-.45a3.311,3.311,0,0,1-.57.06l-4.61.04H4.64a5.191,5.191,0,0,0-.66,0v-2.07a42,42,0,0,0,6.42.33Z" transform="translate(3.474 10.687)"/><path class="cls-2" d="M58.02,259.07c-.09.15-.39.81-.9,2-1.72,4-2.28,5.07-4,7.32a10.819,10.819,0,0,0,3,4,2.909,2.909,0,0,0,1.3.69c.48,0,1-1.56,1.35-4.32a8.542,8.542,0,0,0,1.61,1.32,11.986,11.986,0,0,1-1.08,3.66c-.47,1-1.08,1.44-1.85,1.44a5.493,5.493,0,0,1-3.16-1.86,14.85,14.85,0,0,1-2.48-3.36,25.511,25.511,0,0,1-8.31,6,5.119,5.119,0,0,0-1.47-1.53,21.725,21.725,0,0,0,8.91-6.21,38.061,38.061,0,0,1-2.55-12.48H37.86c0,2.61,0,3.63-.06,4.89h5.73a14.846,14.846,0,0,0,2.25-.12,29.254,29.254,0,0,0-.21,3.36c-.18,3.39-.48,5.58-.9,6.45s-1.11,1.2-2.79,1.2a17.882,17.882,0,0,1-3.15-.27,6.985,6.985,0,0,0-.36-2,15.6,15.6,0,0,0,3.54.48c1,0,1.23-.27,1.44-1.59a44.818,44.818,0,0,0,.39-5.88h-6a41.885,41.885,0,0,1-1,8.28,14.136,14.136,0,0,1-2.28,5.25,5.529,5.529,0,0,0-1.59-1.35,12.279,12.279,0,0,0,2.1-4.5c.66-2.7,1-6.75,1-12.6a19.62,19.62,0,0,0-.18-3.51,31.945,31.945,0,0,0,3.66.15H48.3a29.05,29.05,0,0,0-.3-4.86h2.34a12.982,12.982,0,0,0-.15,2.46c0,.54,0,1,.06,2.4h6.54a16.166,16.166,0,0,0,3.2-.18v2a24.5,24.5,0,0,0-3.35-.15H50.31a35.239,35.239,0,0,0,2,10.8A23.106,23.106,0,0,0,56,258.2Zm-1.65-5.55a19.842,19.842,0,0,0-4.32-3.18l1.29-1a23.493,23.493,0,0,1,4.29,3Z" transform="translate(3.474 10.687)"/><path class="cls-2" d="M79.7,272.48c2.31-4.83,4.59-11.52,5-14.88l2.31.78a33.305,33.305,0,0,0-1.2,3.63,79.938,79.938,0,0,1-4,10.47h6.93a24.592,24.592,0,0,0,3.3-.18v2.29a19.8,19.8,0,0,0-3.3-.21h-20a21.638,21.638,0,0,0-3.45.21v-2.28a26.869,26.869,0,0,0,3.45.18Zm-2.25-20.61a14.081,14.081,0,0,0-.21-2.46h2.4a13.742,13.742,0,0,0-.21,2.43v2.46h8a21.287,21.287,0,0,0,3.45-.21v2.25a27.612,27.612,0,0,0-3.45-.18H69.83a25.731,25.731,0,0,0-3.33.18v-2.25a18.935,18.935,0,0,0,3.33.21h7.62Zm-5,6.06a69.468,69.468,0,0,1,3.24,11.85l-1.95.75a58.4,58.4,0,0,0-3.27-11.88Z" transform="translate(3.474 10.687)"/><path class="cls-2" d="M97.37,268.13a30.583,30.583,0,0,1,6,6.36l-1.68,1.59a29.952,29.952,0,0,0-5.91-6.54Z" transform="translate(3.474 10.687)"/><path class="cls-2" d="M129.83,263.03c0-1.38,0-2.22.12-3.69a24.248,24.248,0,0,1-3.06,4.38,5.623,5.623,0,0,0-1.23-1.77,27,27,0,0,0,5.52-8.46,20.8,20.8,0,0,0,1.35-4.26l2,.78a50.6,50.6,0,0,1-2.85,6.6v16.14a24.225,24.225,0,0,0,.21,3.51h-2.25a23.939,23.939,0,0,0,.21-3.6Zm9.45-3.06a25.492,25.492,0,0,0-3.15.12,17.182,17.182,0,0,0,.12-2.4v-4.77a16.464,16.464,0,0,0-.12-2.37,24.7,24.7,0,0,0,3.24.15h9a24.35,24.35,0,0,0,3.24-.15,16.176,16.176,0,0,0-.12,2.43v4.71a17.182,17.182,0,0,0,.12,2.4,30.089,30.089,0,0,0-3.12-.12H144.8v4.74h5a16.459,16.459,0,0,0,2.67-.18v2.06a17.539,17.539,0,0,0-2.67-.18h-5v6.3a23.276,23.276,0,0,0,5.31.51,36.339,36.339,0,0,0,3.87-.15,6.835,6.835,0,0,0-.6,2c-1.23.06-1.77.09-2.37.09a22.006,22.006,0,0,1-9-1.56,10,10,0,0,1-4.37-4.01,18.722,18.722,0,0,1-3.57,6.48,5.857,5.857,0,0,0-1.5-1.32,14.834,14.834,0,0,0,3.33-5.64,21.93,21.93,0,0,0,1.2-6.24,3.192,3.192,0,0,0,0-.57l2.1.27c-.12.48-.12.54-.51,2.82-.12.75-.24,1.35-.42,2.1a9.583,9.583,0,0,0,4.68,4.62V259.97Zm-1.2-1.71h11.56v-5.82H138.08Z" transform="translate(3.474 10.687)"/><path class="cls-2" d="M158.71,260.96a12.151,12.151,0,0,0,2.31.15h1.56a17.849,17.849,0,0,0,2.31-.15,22.526,22.526,0,0,0-.15,3.18v5.82a4.72,4.72,0,0,0,2.67,2.79c1.5.63,3.3.87,6.87.87a84.175,84.175,0,0,0,11.94-.6,7.559,7.559,0,0,0-.69,2.22c-2.85.12-6.6.18-9.78.18-5.34,0-7.11-.21-8.88-1.05a7.391,7.391,0,0,1-3.12-2.85,28.526,28.526,0,0,1-3.63,3.21,9.489,9.489,0,0,0-1.08.9l-1-2a19.525,19.525,0,0,0,4.83-3.63v-7.21h-2a11.389,11.389,0,0,0-2.19.15Zm2.1-11.1a41.241,41.241,0,0,1,4.8,5.31l-1.53,1.35a28.4,28.4,0,0,0-4.68-5.43Zm17.1,19.11h4.38a16.854,16.854,0,0,0,2.91-.15v1.92a26.69,26.69,0,0,0-2.91-.15H170.92a15.8,15.8,0,0,0-2.43.15,21.853,21.853,0,0,0,.15-3.09v-7.83c0-.93.06-1.83.12-2.7a18.214,18.214,0,0,1-2.7,3.24,3.546,3.546,0,0,0-1.29-1.29A19.991,19.991,0,0,0,169,254a15.4,15.4,0,0,0,2-4.8l1.92.45a11.708,11.708,0,0,0-.66,1.5,24.332,24.332,0,0,1-1.32,2.67h5.13a18.194,18.194,0,0,0,2-4.47l2,.51a13.178,13.178,0,0,0-.87,1.65c-.39.78-.81,1.59-1.26,2.31h4a17.261,17.261,0,0,0,2.82-.15v1.92a22.249,22.249,0,0,0-2.67-.12h-4.23v3.3h3.06a21.866,21.866,0,0,0,2.94-.12v1.8a24.666,24.666,0,0,0-2.94-.12h-3.06v3.36h3.06a21.866,21.866,0,0,0,2.94-.12v1.8a24.666,24.666,0,0,0-2.94-.12h-3.06Zm-1.74-13.53h-5.7v3.3h5.7Zm0,4.86h-5.7v3.36h5.7Zm-5.7,4.92v3.75h5.7v-3.75Z" transform="translate(3.474 10.687)"/><path class="cls-2" d="M193.29,256.04a13.131,13.131,0,0,0,2.31.15,69.985,69.985,0,0,0,8.94-.63c-.45-1-.93-2.22-1.47-3.57-.33-.78-.51-1.2-.78-1.74l2.37-.33a9.551,9.551,0,0,0,.87,2.7,24.606,24.606,0,0,0,1.08,2.64,35.083,35.083,0,0,0,7.26-1.89l.3,2.13c-.63.12-.87.18-1.77.42-1.8.48-2.16.57-4,.93l-1,.21a55.558,55.558,0,0,0,5.4,8.73l-2,1.14a6,6,0,0,0-2.07-1.23,16.264,16.264,0,0,0-5.25-.78,10.629,10.629,0,0,0-5.7,1.26,3.409,3.409,0,0,0-1.62,2.79,3,3,0,0,0,1.15,2.34c1.1.87,3.26,1.38,5.84,1.38a19.775,19.775,0,0,0,8.52-1.92l.33,2.31a24.868,24.868,0,0,1-8.82,1.62c-3.66,0-6.42-.81-7.79-2.25a4.8,4.8,0,0,1-1.36-3.3,5.609,5.609,0,0,1,3.39-4.89,12.777,12.777,0,0,1,5.82-1.11,14.994,14.994,0,0,1,6.21,1.08,36.583,36.583,0,0,1-3.6-5.88c-.33-.63-.33-.69-.51-1a88.335,88.335,0,0,1-10.68.78,6.648,6.648,0,0,0-1.17.09Z" transform="translate(3.474 10.687)"/><path class="cls-2" d="M230.85,251.27c-.18,1-.18,1-.27,6.27,4.86-.27,6.06-.33,9.81-.48v-1.84a28.712,28.712,0,0,0-.18-4.56h2.31a16.21,16.21,0,0,0-.12,2.31v4.07c2.94-.06,5.28-.15,6.27-.27l.06,2.13c-.81-.06-1-.06-2.25-.06h-4.1a28.5,28.5,0,0,1-.54,5.85c-.48,1.77-1.47,2.64-3,2.64a8.6,8.6,0,0,1-4.17-1.38c0-.45.06-.6.06-.9a10.786,10.786,0,0,0-.06-1.23,8.518,8.518,0,0,0,3.93,1.65c.84,0,1.2-.48,1.47-2a27.291,27.291,0,0,0,.36-4.62c-3.63.12-5.79.24-9.78.51v2.7c0,4.62.09,6.69.3,7.56a2.581,2.581,0,0,0,2,1.95,16.663,16.663,0,0,0,4.68.51,27.2,27.2,0,0,0,8.34-1.11l.24,2.31a9.025,9.025,0,0,0-1.2.15,50.917,50.917,0,0,1-7.59.63c-5.34,0-7.62-1-8.4-3.72-.3-1.08-.39-2.82-.39-7.11v-3.75q-3.013.165-6,.63l-.18-2.1a6.054,6.054,0,0,0,.66,0c.54,0,2.4-.12,5.55-.39v-2a31.93,31.93,0,0,0-.15-4.47Z" transform="translate(3.474 10.687)"/><path class="cls-2" d="M259.7,251.75a13.867,13.867,0,0,0,2.82.18c2.49,0,6.48-.18,9.18-.39a3.062,3.062,0,0,0,1.44-.33l1.26,1.65a5.532,5.532,0,0,0-1.53,1.26,76.993,76.993,0,0,1-9.87,8.52l.06.09a15.2,15.2,0,0,1,7.35-1.86c5,0,8.22,2.46,8.22,6.3,0,4.68-4.35,7.77-11,7.77-4.23,0-6.66-1.56-6.66-4.32,0-2,1.86-3.51,4.35-3.51a6,6,0,0,1,4.95,2.46,8.586,8.586,0,0,1,1.38,2.88c3.15-.87,4.8-2.7,4.8-5.25,0-2.88-2.4-4.59-6.45-4.59a19.25,19.25,0,0,0-12.63,5.13l-1.35-1.92a33.311,33.311,0,0,0,4.2-3.06c3.21-2.55,7.95-6.72,10-8.76l.42-.41.12-.12.12-.12-.06-.06h-.27c-1,.18-4.56.39-9.12.54a14.666,14.666,0,0,0-1.62.15Zm5.64,17.07c-1.5,0-2.43.72-2.43,1.86a2,2,0,0,0,1.2,1.83,7.661,7.661,0,0,0,3.36.69,10.809,10.809,0,0,0,2.19-.21C269,270.26,267.5,268.82,265.34,268.82Z" transform="translate(3.474 10.687)"/><path class="cls-2" d="M290.56,265.91c0-1.29,0-2.16.09-3.6a17.337,17.337,0,0,1-3.42,3.36,5.729,5.729,0,0,0-1.17-1.71,24.587,24.587,0,0,0,6.06-5.91,10.32,10.32,0,0,0,1.44-2.58l1.86,1a12.771,12.771,0,0,0-.9,1.29,20.29,20.29,0,0,1-2,2.7v12.13a22.509,22.509,0,0,0,.21,3.66h-2.37a22.736,22.736,0,0,0,.21-3.66Zm4.14-15.63a4.952,4.952,0,0,0-.54.66,29.265,29.265,0,0,1-6.66,6.51,5.8,5.8,0,0,0-1.35-1.47,20.6,20.6,0,0,0,4-3.18,11.718,11.718,0,0,0,2.73-3.66Zm4.35,10a23.163,23.163,0,0,0-3.33.18v-2.1a22.879,22.879,0,0,0,3.33.18h10.53a21.171,21.171,0,0,0,3.3-.18v2.1a22.909,22.909,0,0,0-3.27-.18H307.9v13.14c0,1.92-.72,2.43-3.36,2.43-1,0-2.37-.06-3.66-.15a7.229,7.229,0,0,0-.48-2.07,30.116,30.116,0,0,0,4.23.36c1,0,1.26-.12,1.26-.72v-13Zm-2.1-9.45a21.27,21.27,0,0,0,3.12.18h8.4a21,21,0,0,0,3.09-.18v2.1a23.128,23.128,0,0,0-3.09-.18h-8.4a23.578,23.578,0,0,0-3.12.18Z" transform="translate(3.474 10.687)"/><path class="cls-2" d="M341.8,264.35a18.964,18.964,0,0,0,2.31-.12c-.09.57-.09.57-.3,3.06-.36,3.93-1,6.84-1.62,7.83s-1.47,1.17-3.24,1.17a26.458,26.458,0,0,1-2.7-.12,5.824,5.824,0,0,0-.48-1.92,18.79,18.79,0,0,0,3.15.27c1.14,0,1.53-.18,1.83-.75.57-1.2,1-4,1.23-7.77H324.07a31.181,31.181,0,0,1-5.19,4.77,5.144,5.144,0,0,0-1.29-1.71,23.262,23.262,0,0,0,5.94-5.13,28.664,28.664,0,0,0,4.89-8.19h-6a22.684,22.684,0,0,0-3.06.18v-2a21.187,21.187,0,0,0,3,.18h6.69a20.6,20.6,0,0,0,1.05-4.8l2.19.33a31.654,31.654,0,0,0-1.11,3.78c-.06.24-.12.39-.21.69h6.3a22.75,22.75,0,0,0,2.7-.12c-.06.42-.18,1.08-.3,1.71-.15.93-.51,2.67-.75,3.57a21.463,21.463,0,0,0,2.61-.12c-.12.57-.12.57-.24,1.35-.21,1.23-.51,2.67-.84,3.87Zm-16.29,4.14a27.027,27.027,0,0,1-3.18,7.5l-1.77-1a18.388,18.388,0,0,0,3.15-7Zm-1.87-19.14a24.831,24.831,0,0,1,3.3,3.36l-1.5,1a16.172,16.172,0,0,0-3.27-3.45Zm14.94,15a29.437,29.437,0,0,0,.78-3.51H327.82a29.979,29.979,0,0,1-2.37,3.51Zm-9.48,3.72a29.579,29.579,0,0,1,1,6.45l-1.83.3v-.51a23,23,0,0,0-.75-6Zm8-8.82a30.225,30.225,0,0,0,.75-3.51h-7.51c-.51,1.23-1,2.22-1.62,3.51Zm-3.7,8.34a25.118,25.118,0,0,1,1.74,5.4l-1.68.63a20.492,20.492,0,0,0-1.59-5.61Zm4.05-.48a20.43,20.43,0,0,1,2.4,4l-1.41.81a15.569,15.569,0,0,0-2.28-4.17Z" transform="translate(3.474 10.687)"/><path class="cls-2" d="M350.85,254.24h1.08a14.725,14.725,0,0,0,1.71-.09c1.68-.12,1.86-.15,5.55-.36l4.71-.3c3.69-.21,4.08-.24,5.07-.27l1.71-.06a20.264,20.264,0,0,0,3.57-.33l.18,2.22a12.573,12.573,0,0,0-3.36.42,14.76,14.76,0,0,0-5.76,3,9.17,9.17,0,0,0-3.69,6.93c0,2.52,1.53,4.53,4.2,5.55a15.381,15.381,0,0,0,4.5,1h.3l-.39,2.43c-.33-.06-.39-.09-.93-.18a15.131,15.131,0,0,1-6.48-2.31,7.261,7.261,0,0,1-3.33-6.12c0-3.48,2-6.78,5.61-9.21a19.612,19.612,0,0,1,2.85-1.59,61.378,61.378,0,0,1-6.6.66,99.711,99.711,0,0,0-10.35,1Zm20.07,4.47a22.736,22.736,0,0,1,3.09,4.65l-1.53.9a21.1,21.1,0,0,0-3.06-4.77Zm3.39-1.65a24.326,24.326,0,0,1,3.09,4.68l-1.5.84a23.706,23.706,0,0,0-3.06-4.71Z" transform="translate(3.474 10.687)"/><path class="cls-2" d="M384.17,253.67a20.986,20.986,0,0,0,5.61.48h.75a16.406,16.406,0,0,1,.15-2.25c0-.33.09-1.5.09-1.71a3.072,3.072,0,0,0,0-.45l2.34.15a20.016,20.016,0,0,0-.63,4.2,46.086,46.086,0,0,0,11.43-1.68l.12,2.1-1.05.15a83.974,83.974,0,0,1-10.62,1.2c-.18,2.55-.18,2.55-.21,4a15.866,15.866,0,0,1,4.44-.6,12,12,0,0,1,1.74.09,11.28,11.28,0,0,0,.72-2.7l2.07.63c-.09.18-.42,1-.93,2.4,4.14,1,6.45,3.51,6.45,7,0,2.94-1.62,5.31-4.71,6.93a16.5,16.5,0,0,1-6.12,1.71,6.181,6.181,0,0,0-1-2,13.977,13.977,0,0,0,4.5-.81c3.27-1.14,5.16-3.33,5.16-6s-1.71-4.38-4.95-5.22a26.992,26.992,0,0,1-5.7,9c-2.31,2.4-4.59,3.63-6.69,3.63s-3.87-1.89-3.87-4.56c0-3.69,2.61-7,7-8.94a38.125,38.125,0,0,1,.18-4.53h-1.2c-.3,0-1.65-.06-4.05-.15a4.864,4.864,0,0,0-.54,0,3.2,3.2,0,0,0-.48,0Zm2.88,11.1a7.093,7.093,0,0,0-1.83,4.47c0,1.65.87,2.73,2.16,2.73a5.419,5.419,0,0,0,3.45-1.53,42.5,42.5,0,0,1-.6-8.13A10.713,10.713,0,0,0,387.05,264.77Zm5.49,4.44a3.238,3.238,0,0,1,.57-.78,27.11,27.11,0,0,0,4.59-7.5c-1-.06-1.11-.06-1.44-.06a13.465,13.465,0,0,0-4.17.69,50.541,50.541,0,0,0,.33,6.87,1.966,1.966,0,0,1,0,.42v.33Z" transform="translate(3.474 10.687)"/><path class="cls-2" d="M418.97,251.75a13.867,13.867,0,0,0,2.82.18c2.49,0,6.47-.18,9.18-.39a3.049,3.049,0,0,0,1.43-.33l1.26,1.65a5.4,5.4,0,0,0-1.52,1.26,78.419,78.419,0,0,1-9.87,8.52l.05.09a15.23,15.23,0,0,1,7.35-1.86c5,0,8.23,2.46,8.23,6.3,0,4.68-4.36,7.77-11,7.77-4.24,0-6.66-1.56-6.66-4.32,0-2,1.85-3.51,4.34-3.51a6.069,6.069,0,0,1,5,2.46,8.582,8.582,0,0,1,1.37,2.88c3.16-.87,4.8-2.7,4.8-5.25,0-2.88-2.39-4.59-6.45-4.59a19.228,19.228,0,0,0-12.66,5.13l-1.35-1.92a33.311,33.311,0,0,0,4.2-3.06c3.21-2.55,7.94-6.72,10-8.76l.42-.42.12-.12.12-.12-.06-.06h-.27c-1,.18-4.55.39-9.11.54a14.823,14.823,0,0,0-1.63.15Zm5.67,17.07c-1.5,0-2.43.72-2.43,1.86a2,2,0,0,0,1.2,1.83,7.63,7.63,0,0,0,3.36.69,10.711,10.711,0,0,0,2.18-.21C428.26,270.26,426.76,268.82,424.64,268.82Z" transform="translate(3.474 10.687)"/><path class="cls-2" d="M453.25,271.59a4.5,4.5,0,1,1-4.5-4.5h.01a4.49,4.49,0,0,1,4.49,4.49Zm-7.28,0a2.79,2.79,0,1,0,2.79-2.79h0A2.8,2.8,0,0,0,445.97,271.59Z" transform="translate(3.474 10.687)"/><path class="cls-2" d="M478.73,256.28a29.83,29.83,0,0,0-3.3.18v-2.19a22.2,22.2,0,0,0,3.3.21h8.4v-2.55a16,16,0,0,0-.22-2.73h2.37a17.191,17.191,0,0,0-.21,2.7v2.58h8.85a19.674,19.674,0,0,0,3.36-.21v2.19a32.513,32.513,0,0,0-3.36-.18h-8.1c3.36,6.06,7.38,10.26,12.36,13a8.027,8.027,0,0,0-1.38,2,33.612,33.612,0,0,1-6.23-5.25,28.606,28.606,0,0,1-5.62-8.43c.1,1.8.12,2.91.12,3.9v6.81h3.27a17.474,17.474,0,0,0,2.91-.15v2.1a16.457,16.457,0,0,0-3-.18h-3.21v2.85a23.685,23.685,0,0,0,.21,3.45h-2.37a22.377,22.377,0,0,0,.22-3.48v-2.91h-2.86a16.735,16.735,0,0,0-3,.18v-2.1a17.913,17.913,0,0,0,3,.15h2.94v-6.81c0-1.11,0-2.25.11-3.87a27.861,27.861,0,0,1-5.67,8.67,31.683,31.683,0,0,1-5.69,5,5.662,5.662,0,0,0-1.41-1.77,27.368,27.368,0,0,0,7-6.09,32.8,32.8,0,0,0,4.89-7.11Z" transform="translate(3.474 10.687)"/><path class="cls-2" d="M509.64,252.14a12.816,12.816,0,0,0-2.58.18v-2a16.052,16.052,0,0,0,2.7.18h4.88a11.7,11.7,0,0,0,2.52-.18v2a19.725,19.725,0,0,0-2.43-.12h-1.86a29.363,29.363,0,0,1-2.07,7.62h3.75a13.761,13.761,0,0,0,1.86-.09,22.36,22.36,0,0,0-.09,2.4v9.27a19.644,19.644,0,0,0,.12,2.52h-1.9v-1.5h-3.72v3.17h-2a18.163,18.163,0,0,0,.18-2.91v-6.66c0-1.08,0-2,.09-3.36a13.694,13.694,0,0,1-2.25,3.66,5.009,5.009,0,0,0-1.08-1.8,20.406,20.406,0,0,0,4.14-7.62,21.006,21.006,0,0,0,1-4.71Zm1.2,18.6h3.72v-9.39h-3.72Zm10.41-18.6a19.531,19.531,0,0,0-2.91.18v-2.07a18.355,18.355,0,0,0,3,.18h9.48a20.064,20.064,0,0,0,3-.18v2.07a15.746,15.746,0,0,0-2.91-.18h-.72v8.31h1a15.856,15.856,0,0,0,3-.18v2.13a19.546,19.546,0,0,0-3-.18h-1v10.77a22.822,22.822,0,0,0,.21,3.21h-2.31a22.381,22.381,0,0,0,.21-3.21V262.22h-4.95c-.3,6.69-1.59,10.32-5,14.28a5.445,5.445,0,0,0-1.74-1.35c3.15-3,4.56-6.75,4.83-12.93h-.8a16.735,16.735,0,0,0-3,.18v-2.1a19.538,19.538,0,0,0,3,.15h.9v-8.31Zm2.19,7.29v1h4.89v-8.31h-4.89Z" transform="translate(3.474 10.687)"/><path class="cls-2" d="M554.82,264.11a26.557,26.557,0,0,0,3.36-.15c-.06.66-.09,1.29-.12,2.64l-.12,6.09c0,.9.33,1,2.67,1,2.1,0,2.7-.15,2.91-.69a17.522,17.522,0,0,0,.48-4.5,7.335,7.335,0,0,0,1.95.78c-.48,6-.66,6.18-5.49,6.18-3.66,0-4.44-.39-4.44-2.4v-.15l.12-7.05h-5.58a11.51,11.51,0,0,1-2.34,5,13.234,13.234,0,0,1-3.21,2.88,20.2,20.2,0,0,1-5,2.46,4.628,4.628,0,0,0-1.32-1.71,18.726,18.726,0,0,0,5.76-2.7,9.8,9.8,0,0,0,4.17-5.88h-4.74a21.4,21.4,0,0,0-3.24.18v-2.13a20.251,20.251,0,0,0,3.18.18h5.16a21.266,21.266,0,0,0,.21-2.52,10.1,10.1,0,0,0-.12-1.62h2.28a9.116,9.116,0,0,0-.24,1.89c-.06.72-.12,1.47-.24,2.22Zm-4-12.69a9.221,9.221,0,0,0-.21-2.16h2.34a8.765,8.765,0,0,0-.21,2.16v.93h8.9a25.477,25.477,0,0,0,3-.15,13.518,13.518,0,0,0-.12,2.07v1.53a13.911,13.911,0,0,0,.12,2.1h-2v-3.84h-7.4v4.35c0,.36.06.51.21.6a5.9,5.9,0,0,0,1.92.21,5.541,5.541,0,0,0,2.43-.33c.33-.24.48-1,.51-2.43a6.266,6.266,0,0,0,1.8.57c-.15,1.89-.39,2.73-.9,3.18s-1.74.66-3.87.66c-3.15,0-3.9-.33-3.9-1.65v-5.16h-3.69a8.236,8.236,0,0,1-1.05,3.33,8.451,8.451,0,0,1-4.74,3.81,27.718,27.718,0,0,1-2.79.87,8.181,8.181,0,0,0-1.14-1.65c3.21-.6,4.71-1.2,6-2.4a5.673,5.673,0,0,0,1.83-4h-6.39v3.81h-2a14.453,14.453,0,0,0,.12-2.1v-1.5a13.518,13.518,0,0,0-.12-2.07,25.477,25.477,0,0,0,3,.15h8.31Z" transform="translate(3.474 10.687)"/><path class="cls-2" d="M591.02,267.47a21.663,21.663,0,0,0,3.18-.15v2a22.231,22.231,0,0,0-3.18-.15h-6.38v4.23h8.82a22.826,22.826,0,0,0,3.75-.21v2.1a32.483,32.483,0,0,0-3.87-.18h-18.7a32.651,32.651,0,0,0-3.88.18v-2.1a23.3,23.3,0,0,0,3.78.21h8.22v-4.23H577a22.073,22.073,0,0,0-3.21.15v-2a21.259,21.259,0,0,0,3.21.15h5.76v-.45a14.931,14.931,0,0,0-.18-2.37h2.25a14.358,14.358,0,0,0-.18,2.37v.45Zm-8.38-16.44a11.758,11.758,0,0,0-.18-2h2.31a10.735,10.735,0,0,0-.18,2v.78h7.83a34.393,34.393,0,0,0,4-.12,13.547,13.547,0,0,0-.12,2.13v1.5a13.115,13.115,0,0,0,.12,2h-2v-3.83h-21v3.87h-2V257a13.964,13.964,0,0,0,.09-1.71V253.7a15.018,15.018,0,0,0-.12-2q1.856.153,3.72.12h7.53Zm-4.44,7a24.069,24.069,0,0,0-3.5.15v-1.92a22.851,22.851,0,0,0,3.41.15h11.64a23.813,23.813,0,0,0,3.45-.15v1.92a23.828,23.828,0,0,0-3.42-.15h-7.71a29.466,29.466,0,0,1-2.43,4.17c3.33-.09,5.85-.24,10-.54a29.35,29.35,0,0,0-2.76-2.16l1.44-.93a52.13,52.13,0,0,1,6.32,5.42l-1.44,1.23a24.2,24.2,0,0,0-2.07-2.13c-5.34.45-11.49.81-17.07,1a7.032,7.032,0,0,0-1.14.12l-.3-1.92q.927.091,1.86.09c1,0,1.68,0,3.12-.06a28.146,28.146,0,0,0,2.46-4.26Z" transform="translate(3.474 10.687)"/><path class="cls-2" d="M603.47,254.24h1.08a14.725,14.725,0,0,0,1.71-.09c1.68-.12,1.86-.15,5.55-.36l4.71-.3c3.69-.21,4.08-.24,5.07-.27l1.71-.06a20.264,20.264,0,0,0,3.57-.33l.18,2.22a12.573,12.573,0,0,0-3.36.42,14.767,14.767,0,0,0-5.76,3,9.17,9.17,0,0,0-3.69,6.93c0,2.52,1.53,4.53,4.2,5.55a15.381,15.381,0,0,0,4.5,1h.3l-.39,2.43c-.33-.06-.39-.09-.93-.18a15.131,15.131,0,0,1-6.48-2.31,7.261,7.261,0,0,1-3.33-6.12c0-3.48,2-6.78,5.61-9.21a19.664,19.664,0,0,1,2.85-1.59,61.352,61.352,0,0,1-6.6.66,99.833,99.833,0,0,0-10.33.96Zm20.07,4.47a22.736,22.736,0,0,1,3.09,4.65l-1.53.9a21.1,21.1,0,0,0-3.06-4.77Zm3.39-1.65a24.326,24.326,0,0,1,3.09,4.68l-1.5.84a23.706,23.706,0,0,0-3.06-4.71Z" transform="translate(3.474 10.687)"/><path class="cls-2" d="M640.64,250.94c-1.29,3-2.31,9.15-2.31,14.07,0,1.05.06,2.82.12,4.2v1.38h.12a26.628,26.628,0,0,1,1.77-5.28,4.037,4.037,0,0,0,.24-.6l1.47.69c-1.41,2.94-2.58,6.75-2.58,8.52a3.272,3.272,0,0,0,.06.6l-2.13.21a7.551,7.551,0,0,0-.18-1.11,47.736,47.736,0,0,1-.84-8.91,50.869,50.869,0,0,1,1.56-12.33,13.762,13.762,0,0,0,.33-1.89Zm3,5.58a20.763,20.763,0,0,0,5.4.48c1.17,0,2,0,3.21-.09v-5.1a6.665,6.665,0,0,0-.09-1.23h2.25a30.631,30.631,0,0,0-.21,4.71v1.47a20.44,20.44,0,0,0,5.19-1.11l.09,2c-.06,0-.06,0-2.1.42a28.668,28.668,0,0,1-3.18.48c0,3,.09,4.5.33,8.49a21.721,21.721,0,0,1,5,2.94c.36.24.42.3.75.51l-.93,2.1a16.2,16.2,0,0,0-4.26-3.12,1.938,1.938,0,0,1-.3-.18l-.27-.18a4.251,4.251,0,0,1,.06.78,5.162,5.162,0,0,1-.36,2c-.72,1.59-2.55,2.52-5,2.52-3.48,0-5.67-1.65-5.67-4.26s2.37-4.26,5.7-4.26a8.468,8.468,0,0,1,3.33.6c-.09-.63-.21-3.45-.3-7.83-1.35.06-2.28.09-3.42.09s-2.34,0-3.39-.09a7.965,7.965,0,0,0-1-.06,4.339,4.339,0,0,0-.51,0,1.368,1.368,0,0,0-.3,0h-.02Zm5.76,11.25c-2.34,0-3.87,1-3.87,2.49s1.38,2.43,3.48,2.43a4.128,4.128,0,0,0,3.06-1.05,3.5,3.5,0,0,0,.57-2.34v-.9a7.753,7.753,0,0,0-3.19-.63Z" transform="translate(3.474 10.687)"/><path class="cls-2" d="M666.31,268.13a30.583,30.583,0,0,1,6,6.36l-1.67,1.59a29.952,29.952,0,0,0-5.91-6.54Z" transform="translate(3.474 10.687)"/><path class="cls-2" d="M701.44,251.72a23.4,23.4,0,0,0,2.7.12c2.7,0,7-.18,9.15-.42a5.858,5.858,0,0,0,1.68-.36l1.26,1.59a9.7,9.7,0,0,0-1.47,1.26,58.3,58.3,0,0,1-9.84,7.65,69.607,69.607,0,0,1,7.2-.81c1.23-.09,3.06-.27,5.34-.48,1.23-.09,2.13-.18,2.73-.24a3.99,3.99,0,0,0,.87-.12l.21,2.1h-.63a19.936,19.936,0,0,0-8.25,1.62,10.61,10.61,0,0,0-3.75,2.85,3.791,3.791,0,0,0-1,2.49c0,2.46,2.58,3.87,7.14,3.87a10.735,10.735,0,0,0,2-.18l.09,2.31c-.51,0-.51,0-2-.06-3.51-.06-6.12-.72-7.56-2a4.879,4.879,0,0,1-1.77-3.78c0-2.67,2.22-5,6.54-6.93l-1.65.27c-.51.06-3.18.42-4.89.63a77.038,77.038,0,0,0-8.85,1.35l-.24-2.28h.19a39.744,39.744,0,0,0,5.25-.6,63.576,63.576,0,0,0,10-7.74,10.012,10.012,0,0,1,1-.84,72.682,72.682,0,0,1-9.39.72c-1.14.06-1.26.06-1.86.12Z" transform="translate(3.474 10.687)"/><path class="cls-2" d="M728.07,268.22a46.073,46.073,0,0,0,5.28-5.07c0-1.2.09-3.09.18-5.73a30.6,30.6,0,0,0-4.71.42l-.12-2.07a6.029,6.029,0,0,0,.93.06l3.93-.24c.09-2.28.12-3.63.12-4a12.139,12.139,0,0,0-.09-1.5h2.37a34.943,34.943,0,0,0-.36,5.34,2,2,0,0,0,.6-.15l.78.93a10.343,10.343,0,0,0-1.53,1.86,5.215,5.215,0,0,1,0,.75c0,.6,0,.6-.06,2a1.522,1.522,0,0,1,0,.27v.48h.06a21.393,21.393,0,0,1,3.81-3.51c2.73-2.19,5-3.3,6.78-3.3a3.26,3.26,0,0,1,3.51,3.51,19.983,19.983,0,0,1-.69,4.38c-1.11,4.83-1.29,5.88-1.29,7.11s.63,2.13,1.8,2.13a3.622,3.622,0,0,0,2.55-1.65,12.354,12.354,0,0,0,1.71-3.45,9.851,9.851,0,0,0,1.38,2,14.8,14.8,0,0,1-1.86,3,5.162,5.162,0,0,1-4.14,2.16,3.7,3.7,0,0,1-2.1-.63c-1-.69-1.41-1.74-1.41-3.42s.06-1.86,1.14-7a22.492,22.492,0,0,0,.75-4.5,1.519,1.519,0,0,0-1.41-1.622,1.48,1.48,0,0,0-.24,0c-1.17,0-2.61.66-4.53,2a48.616,48.616,0,0,0-5.79,5.1v6.48a46.339,46.339,0,0,0,.09,5h-2.34a25.648,25.648,0,0,0,.21-5c0-3.51,0-3.51.09-4.86h-.06a3.357,3.357,0,0,1-.54.72l-1.47,1.65-1.26,1.41a6.292,6.292,0,0,0-.78,1Z" transform="translate(3.474 10.687)"/><path class="cls-2" d="M9.3,312.74a25.084,25.084,0,0,0-.69,3.3c-.72,4.35-.78,4.56-.87,5.25a3.678,3.678,0,0,1-.12.69h.06a8.413,8.413,0,0,1,.93-.9,14.844,14.844,0,0,1,8.67-2.58c4.89,0,8,2.28,8,5.79a6.409,6.409,0,0,1-2.7,5.16,12.45,12.45,0,0,1-7.47,2,24.966,24.966,0,0,1-5.25-.54l-2.4-.6a4.927,4.927,0,0,0,0-.57,6.944,6.944,0,0,0-.21-1.86,21.3,21.3,0,0,0,7.65,1.5c5,0,8.1-2,8.1-5,0-2.46-2.16-3.9-5.82-3.9a14.529,14.529,0,0,0-8.4,2.61,5.229,5.229,0,0,0-1.2,1.23l-2.34-.06c.09-.54.12-.81.24-1.77.3-2.28.84-5.76,1.26-8.28a10.137,10.137,0,0,0,.21-1.59Zm1.32-5.22a36.189,36.189,0,0,0,10.17,3.33l-.84,2.1a46.3,46.3,0,0,1-5.85-1.71,33.351,33.351,0,0,1-4.59-1.89Z" transform="translate(3.474 10.687)"/><path class="cls-2" d="M44.4,323.12c-1.74,4-3.51,5.76-5.67,5.76-2.85,0-5-3.12-5-7.32A12.18,12.18,0,0,1,45.8,309.269q.422,0,.843.021a11.611,11.611,0,0,1,8.25,3,10,10,0,0,1,2.91,7.32,10.921,10.921,0,0,1-6.87,10.35,23.212,23.212,0,0,1-4.56,1.38,4.774,4.774,0,0,0-1.05-2,18.022,18.022,0,0,0,5-1.41,9.058,9.058,0,0,0,5.31-8.4A7.91,7.91,0,0,0,50.86,312a8.622,8.622,0,0,0-3.48-.75A45,45,0,0,1,44.4,323.12Zm-3.69-10.47a10.371,10.371,0,0,0-4.89,8.94c0,2.88,1.26,5.1,2.88,5.1,1.26,0,2.46-1.41,3.75-4.35a41.217,41.217,0,0,0,2.73-11.1,9.469,9.469,0,0,0-4.47,1.41Z" transform="translate(3.474 10.687)"/><path class="cls-2" d="M71.19,324.41a36.044,36.044,0,0,1-7.14,4,6.93,6.93,0,0,0-1.2-1.71,27,27,0,0,0,10.83-6.51H66.45a25.38,25.38,0,0,0-3.33.18v-2a17.752,17.752,0,0,0,3.33.18H75.3v-2.96H69.09a22.335,22.335,0,0,0-3.06.12v-1.92a22.989,22.989,0,0,0,3.06.12H75.3v-2.82H67.53a21.663,21.663,0,0,0-3.18.15v-2a21.4,21.4,0,0,0,3.24.18H75.3v-.69a13.99,13.99,0,0,0-.18-2.61h2.19a12.676,12.676,0,0,0-.18,2.61v.69h8.25a22.333,22.333,0,0,0,3.3-.18v2a22.776,22.776,0,0,0-3.24-.15H77.13v2.82h6.66a24.471,24.471,0,0,0,3.18-.12v1.92a24.122,24.122,0,0,0-3.18-.12H77.13v2.91h9.39a20.789,20.789,0,0,0,3.27-.18v2a25.521,25.521,0,0,0-3.27-.18H78.15A17.775,17.775,0,0,0,81.27,325a24.105,24.105,0,0,0,4.41-4.2l1.74,1.17a7.512,7.512,0,0,0-.6.57,43.537,43.537,0,0,1-4.35,3.72,22.816,22.816,0,0,0,8,4.65,7.988,7.988,0,0,0-1.29,1.8c-6.63-3-10.23-6.51-12.87-12.57h-.33a25.917,25.917,0,0,1-2.91,2.79v7c2.43-.54,3.72-.9,6.78-1.8v1.83c-3.9,1.11-6.69,1.8-11.13,2.67-.48.12-1,.24-1.41.36l-.51-2.1a28.98,28.98,0,0,0,4.44-.57Z" transform="translate(3.474 10.687)"/><path class="cls-2" d="M96.45,309.59a14.55,14.55,0,0,0-2.52.15v-2a12.122,12.122,0,0,0,2.58.18h4.41a11.42,11.42,0,0,0,2.49-.18v2a18.506,18.506,0,0,0-2.4-.12H99.64v7h1.29a9.717,9.717,0,0,0,2-.15v1.92a14.224,14.224,0,0,0-2-.12H99.64v7.2a41.8,41.8,0,0,0,3.87-1.89v1.89a56.28,56.28,0,0,1-7.68,3.51c-.66.24-1.2.48-1.62.66l-.57-2.05a23.563,23.563,0,0,0,4.17-1.29v-8H96.4a10.468,10.468,0,0,0-2,.15v-2a10.154,10.154,0,0,0,2,.15h1.38v-7Zm11,14.07a27.15,27.15,0,0,0-2.91.09c.06-.78.09-1.65.09-3V310.1a26.49,26.49,0,0,0-.12-3.06,23.271,23.271,0,0,0,2.94.12h8.37a22.605,22.605,0,0,0,2.85-.12,26.05,26.05,0,0,0-.12,3.06v10.59a27.546,27.546,0,0,0,.12,3.12,24.8,24.8,0,0,0-2.91-.12h-1.12v6.84c0,.57.18.63,2.19.63,1.5,0,1.95-.12,2.13-.51a13.22,13.22,0,0,0,.36-3.66,7.164,7.164,0,0,0,1.8.81c-.39,4.86-.6,5.1-4.53,5.1-3.21,0-3.81-.3-3.81-1.89v-7.32h-2.73a10.529,10.529,0,0,1-1.74,5.28c-1.47,2.16-3.51,3.57-6.72,4.68a5.985,5.985,0,0,0-1.32-1.68,11.12,11.12,0,0,0,5.94-3.33,7.667,7.667,0,0,0,2-5Zm-1-11.55h10.32v-3.27h-10.3Zm0,4.89h10.32v-3.24h-10.3Zm0,5.1h10.32v-3.45h-10.3Z" transform="translate(3.474 10.687)"/><path class="cls-2" d="M127.29,313.79a15.829,15.829,0,0,0-2.46.18v-2a14.468,14.468,0,0,0,2.46.18h1.62v-2.88a19.306,19.306,0,0,0-.21-3h2.31a17.825,17.825,0,0,0-.21,3v2.91h.69a12.689,12.689,0,0,0,2.22-.15v1.95a18.477,18.477,0,0,0-2.28-.12h-.63v5.94c1.05-.48,1.53-.72,2.88-1.41v1.86c-1.83.9-1.83.9-2.91,1.41v9.39c0,1.71-.63,2.13-3.12,2.13a19.063,19.063,0,0,1-2.25-.09,5.436,5.436,0,0,0-.45-1.89,19.473,19.473,0,0,0,2.76.24c.93,0,1.17-.18,1.17-.87v-8c-.81.36-1.5.63-2.37,1-.45.21-.75.33-1.2.57l-.6-2a18.2,18.2,0,0,0,4.17-1.44v-6.75Zm13.68-1.29H137.4a26.184,26.184,0,0,0-3.18.15v-2a24.739,24.739,0,0,0,3.15.15h3.6v-1.5a19.064,19.064,0,0,0-.21-3h2.25a17.931,17.931,0,0,0-.21,3v1.5h5.1a22.293,22.293,0,0,0,3.12-.18v2.07a22.133,22.133,0,0,0-3.12-.18h-5.1v4.89h3.63a11.38,11.38,0,0,0,2.07-.12l1,1.14a15.026,15.026,0,0,0-.93,1.68,26.21,26.21,0,0,1-5.07,6.63,22.886,22.886,0,0,0,8.28,4.65,8.028,8.028,0,0,0-1.17,1.92,28.382,28.382,0,0,1-8.49-5.34,27.665,27.665,0,0,1-9,5.19,6.116,6.116,0,0,0-1.11-1.8,23.855,23.855,0,0,0,8.85-4.68,19.557,19.557,0,0,1-3.15-4.38,14.84,14.84,0,0,1-1.38-3.24,12.142,12.142,0,0,0-1.8.15v-2a17.287,17.287,0,0,0,2.67.18h3.78Zm-2.79,6.54a16.209,16.209,0,0,0,4,6.45,20.092,20.092,0,0,0,4.86-6.45Z" transform="translate(3.474 10.687)"/><path class="cls-2" d="M158.22,322.73c0-1.2,0-2.1.09-3.51a15.737,15.737,0,0,1-2.58,2.73,6.276,6.276,0,0,0-1.05-1.68,19.409,19.409,0,0,0,4.83-5.22,12.223,12.223,0,0,0,1.32-2.67l1.74,1.11c-.3.48-.66,1-1,1.62a24.16,24.16,0,0,1-1.53,2.25v12.23a20.911,20.911,0,0,0,.18,3.51h-2.18a21.6,21.6,0,0,0,.18-3.54Zm4-15.63c-.39.45-.39.45-1.29,1.65a27.261,27.261,0,0,1-4.83,4.83,4.378,4.378,0,0,0-1.17-1.47,16.841,16.841,0,0,0,5.52-6Zm3.18,9.69c-.36,5.85-1.08,9.54-2.46,12.9a8.513,8.513,0,0,0-1.62-1,30.34,30.34,0,0,0,2.34-12.12Zm5.64-4.44a14.844,14.844,0,0,0,2.58-.15v2a12.729,12.729,0,0,0-2.34-.15h-1.95v15.66a26.562,26.562,0,0,0,.18,3.36h-2.16a28.151,28.151,0,0,0,.18-3.36V314.05h-2.19a12.729,12.729,0,0,0-2.34.15v-2a14.8,14.8,0,0,0,2.61.15h1.92v-3.09a19.992,19.992,0,0,0-.18-2.82h2.16a19,19,0,0,0-.18,2.82v3.09Zm.39-5.46a22.61,22.61,0,0,1,2.52,3.66l-1.41.93a16.99,16.99,0,0,0-2.49-3.81Zm1,9.6a66.866,66.866,0,0,1,2.43,11l-1.77.63a52.726,52.726,0,0,0-2.25-11.19Zm3.51-.39a11.76,11.76,0,0,0-2.28.15v-2a11.453,11.453,0,0,0,2.28.15h4.08a13.177,13.177,0,0,0,2.43-.15v2a13.353,13.353,0,0,0-2.43-.15h-.66v14.25c0,1.11-.27,1.8-.84,2a7.268,7.268,0,0,1-2.52.33c-.75,0-2-.06-2.73-.12a7.223,7.223,0,0,0-.39-2,18.5,18.5,0,0,0,3.6.33c.78,0,1-.12,1-.66V316.01Zm6-6a15.672,15.672,0,0,0-2.25-.15h-3a16.161,16.161,0,0,0-2.22.15v-2a15.117,15.117,0,0,0,2.25.15h3a15.117,15.117,0,0,0,2.25-.15Z" transform="translate(3.474 10.687)"/><path class="cls-2" d="M187.41,325.13a30.607,30.607,0,0,1,6,6.36l-1.68,1.59a29.93,29.93,0,0,0-5.91-6.54Z" transform="translate(3.474 10.687)"/><path class="cls-2" d="M203.18,311.45a16.524,16.524,0,0,0,2.61.18h7.23a14.618,14.618,0,0,0,2.61-.18v2a16.038,16.038,0,0,0-2.61-.15h-7.26a17.383,17.383,0,0,0-2.58.15Zm1.41-4.08a13.721,13.721,0,0,0,2.43.15h4.89a13.238,13.238,0,0,0,2.37-.15v1.89a18.4,18.4,0,0,0-2.37-.12h-4.89a18.262,18.262,0,0,0-2.43.12Zm0,8.31a13.452,13.452,0,0,0,2.16.12h5.34a13.547,13.547,0,0,0,2.13-.12v1.83a15.163,15.163,0,0,0-2.13-.12h-5.34a14.442,14.442,0,0,0-2.16.12Zm0,4.14a13,13,0,0,0,2.16.12h5.34a13.547,13.547,0,0,0,2.13-.12v1.83a14.046,14.046,0,0,0-2.13-.12h-5.34a14.181,14.181,0,0,0-2.16.12Zm2.13,13.5h-2a20.242,20.242,0,0,0,.18-2.88v-4a15.335,15.335,0,0,0-.15-2.46,13.655,13.655,0,0,0,2.1.12h5.49a19.082,19.082,0,0,0,2-.09,16.882,16.882,0,0,0-.12,2.4v4a15.649,15.649,0,0,0,.18,2.55h-2v-1.17h-5.7Zm0-3.15h5.76v-4.44h-5.76Zm15-20.49a21.689,21.689,0,0,0-.21-3.33h2.37a21.44,21.44,0,0,0-.21,3.33v6.06h2.85a28.113,28.113,0,0,0,3.6-.18v2.16a30.911,30.911,0,0,0-3.6-.18h-2.88V329a27.108,27.108,0,0,0,.24,4.29h-2.4a30.746,30.746,0,0,0,.21-4.29V317.59h-2.64a29.228,29.228,0,0,0-3.45.18v-2.18a26.165,26.165,0,0,0,3.45.18h2.64Z" transform="translate(3.474 10.687)"/><path class="cls-2" d="M252.08,312.53a19.541,19.541,0,0,0,2.49-.12,15.47,15.47,0,0,0-.12,2.13v10.68a15.351,15.351,0,0,0,.12,2.1,21.793,21.793,0,0,0-2.58-.12h-9.84a21.793,21.793,0,0,0-2.58.12,15.351,15.351,0,0,0,.12-2.1V314.59a15.47,15.47,0,0,0-.12-2.13,19.915,19.915,0,0,0,2.49.12h4v-3.66H237a25.5,25.5,0,0,0-3.15.18v-2.07a22.568,22.568,0,0,0,3.15.18h20.24a23.69,23.69,0,0,0,3.15-.18v2.07a24.745,24.745,0,0,0-3.15-.18h-9.36v3.66Zm7.74.69a23.128,23.128,0,0,0-.18,3.09v13.53a26.731,26.731,0,0,0,.18,3.6h-2.1v-1.71H236.64v1.71h-2.1a27.177,27.177,0,0,0,.18-3.63v-13.5a22.481,22.481,0,0,0-.18-3.09h2.25a17.344,17.344,0,0,0-.18,2.88v13.92h21.18v-14a18.361,18.361,0,0,0-.18-2.85Zm-18.39.93v4.56h4.65v-4.56Zm0,6.15v5.29h4.65v-5.31Zm6.45-1.59h4.83v-4.56h-4.83Zm0,6.9h4.83V320.3h-4.83Z" transform="translate(3.474 10.687)"/><path class="cls-2" d="M277.01,310.31a86.65,86.65,0,0,1-9.84.78,5.479,5.479,0,0,0-.78-1.86,78.639,78.639,0,0,0,12.42-1,29.143,29.143,0,0,0,7.65-2l1.65,1.77a53.1,53.1,0,0,1-9.15,2v5h7.26a22.237,22.237,0,0,0,3.18-.18v2.1a22.835,22.835,0,0,0-3.18-.18h-7.26v4.71h8.58a22.111,22.111,0,0,0,3.15-.18v2.13a22.722,22.722,0,0,0-3.15-.18h-8.58v6.93c0,1.86-.72,2.37-3.27,2.37a43.926,43.926,0,0,1-4.5-.27,7.06,7.06,0,0,0-.54-2.07,32.441,32.441,0,0,0,5.1.51c1,0,1.26-.21,1.26-.87v-6.6h-9.24a22.568,22.568,0,0,0-3.15.18v-2.13a21.54,21.54,0,0,0,3.15.18h9.24v-4.71h-7.56a24.667,24.667,0,0,0-3.18.18v-2.1a22.093,22.093,0,0,0,3.18.18h7.56Z" transform="translate(3.474 10.687)"/><path class="cls-2" d="M296.06,313.64a37.247,37.247,0,0,1,5.13,3.75l-1.17,1.65a24.506,24.506,0,0,0-5.1-4Zm5.34,9.81a52.9,52.9,0,0,1-3.93,8.1c-.18.3-.27.51-.6,1.14l-1.74-1.56a13.009,13.009,0,0,0,1.83-2.61,37.711,37.711,0,0,0,2.88-6.24Zm-3.54-16.86a26.372,26.372,0,0,1,4.83,3.93l-1.23,1.56a23.4,23.4,0,0,0-4.83-4.17Zm8.58,6.39a20.824,20.824,0,0,0-2.91.18v-2.1a18.776,18.776,0,0,0,2.94.18h4.17v-2.07a17.308,17.308,0,0,0-.18-3h2.28a16.547,16.547,0,0,0-.18,3v2.07h5.7a17.425,17.425,0,0,0,2.7-.18v2.1a17.042,17.042,0,0,0-2.67-.18h-5.65v5.49h6.78a17.7,17.7,0,0,0,2.76-.18v2.1a18.068,18.068,0,0,0-2.73-.18h-7.81a66.8,66.8,0,0,1-4.2,9.36c5.25-.51,7.35-.75,10.29-1.29a43.655,43.655,0,0,0-3.69-5.07l1.62-.87a59.479,59.479,0,0,1,6.39,9.42l-1.83,1.08c-.78-1.56-1-2-1.59-3.06-2.37.42-2.37.42-5.4.87-2.19.33-2.19.33-8.76,1-1.23.12-1.65.18-2.31.3l-.48-2.16a6.558,6.558,0,0,0,1,.06,24.676,24.676,0,0,0,2.52-.15,54.177,54.177,0,0,0,4.35-9.54h-4.44a21.1,21.1,0,0,0-2.94.18v-2.1a19.8,19.8,0,0,0,3,.18h5.47v-5.49Z" transform="translate(3.474 10.687)"/><path class="cls-2" d="M327.29,325.13a30.607,30.607,0,0,1,6,6.36l-1.68,1.59a29.93,29.93,0,0,0-5.91-6.54Z" transform="translate(3.474 10.687)"/><path class="cls-2" d="M342.64,311.27a12.855,12.855,0,0,0,2.4.15h5.52a12.2,12.2,0,0,0,2.4-.15v2a13.709,13.709,0,0,0-2.19-.12h-5.73a18.867,18.867,0,0,0-2.4.12Zm1.14,22.08a19.8,19.8,0,0,0,.18-2.91v-4a15.477,15.477,0,0,0-.15-2.49,20.465,20.465,0,0,0,2.4.12h4.08a12.429,12.429,0,0,0,2.19-.09q-.1,1.167-.09,2.34v4.08a17.788,17.788,0,0,0,.15,2.61h-1.9v-1.23h-5v1.62Zm.12-26.25a12.006,12.006,0,0,0,2.28.15h4a11.76,11.76,0,0,0,2.28-.15v1.89a17.025,17.025,0,0,0-2.28-.12h-4a16.7,16.7,0,0,0-2.28.12Zm.12,8.43a13.452,13.452,0,0,0,2.16.12h4.26a12.856,12.856,0,0,0,2.13-.12v1.86a15.163,15.163,0,0,0-2.13-.12h-4.26a14.442,14.442,0,0,0-2.16.12Zm0,4.17a13.452,13.452,0,0,0,2.16.12h4.26a12.856,12.856,0,0,0,2.13-.12v1.89a14.583,14.583,0,0,0-2.13-.12h-4.26a13.93,13.93,0,0,0-2.16.12Zm1.68,10.47h5v-4.58h-5Zm11-21.15a18.323,18.323,0,0,0-2.73.15v-2a17.7,17.7,0,0,0,2.76.18h10a17.32,17.32,0,0,0,2.73-.18v2a17.8,17.8,0,0,0-2.7-.15h-4.23v11.57h4.95a16,16,0,0,0,2.67-.15v2.07a17.933,17.933,0,0,0-2.7-.18h-4.92v7.56a17.36,17.36,0,0,0,.24,3.33h-2.34a22.2,22.2,0,0,0,.21-3.33v-7.56h-4.38a17.675,17.675,0,0,0-2.7.18v-2.07a16.142,16.142,0,0,0,2.7.15h4.38V309.07Zm-.81,1.71a38.344,38.344,0,0,1,2.7,7.65l-1.65.72a29.366,29.366,0,0,0-2.64-7.65Zm13.44.78a43.033,43.033,0,0,1-3.54,7.71l-1.56-.75a29.134,29.134,0,0,0,3.33-7.74Z" transform="translate(3.474 10.687)"/><path class="cls-2" d="M376.29,319.82c0-1.5,0-2.25.09-3.6a24.82,24.82,0,0,1-2.64,4.29,7.239,7.239,0,0,0-1.2-1.65,26.418,26.418,0,0,0,5-8.79,19.133,19.133,0,0,0,1.14-4.23l2,.72c-.21.54-.3.75-.57,1.62a41.4,41.4,0,0,1-2,5.25v16.5a28.573,28.573,0,0,0,.15,3.51H376.1a29.85,29.85,0,0,0,.18-3.6Zm20.85-4.74a18.776,18.776,0,0,0,2.64-.12,18.492,18.492,0,0,0-.14,2.63v12.3a22.62,22.62,0,0,0,.18,3.27h-2v-2H383.01v2h-2a24.847,24.847,0,0,0,.18-3.18V317.69a23.713,23.713,0,0,0-.15-2.73,20.888,20.888,0,0,0,2.67.12h3v-5.22h-2.64a22.917,22.917,0,0,0-3.12.18v-2.1a21.985,21.985,0,0,0,3.12.18c2.88.06,5.85.09,9,.09a66.019,66.019,0,0,0,7.83-.27v2.1a22.446,22.446,0,0,0-3.12-.18h-3.72v5.22Zm-14.13,1.68v12.72h3.63V316.76Zm9.18-6.9h-3.72v5.22h3.72Zm-3.72,19.62h3.72V316.76h-3.72Zm5.52,0h3.81V316.76h-3.81Z" transform="translate(3.474 10.687)"/><path class="cls-2" d="M416.46,308.93a16.442,16.442,0,0,0-.21-2.64h2.39a14.583,14.583,0,0,0-.18,2.64v2.25h9.18a21.063,21.063,0,0,0,3.45-.21v2.25a18.751,18.751,0,0,0-3.39-.18H416.34a41.69,41.69,0,0,1-.42,4.29h8.19a19,19,0,0,0,3.09-.15c-.06.6-.09.93-.15,2.1a62.79,62.79,0,0,1-1.14,10.23c-.63,2.58-1.35,3.21-3.75,3.21a41.2,41.2,0,0,1-4.17-.27,6.531,6.531,0,0,0-.48-2.13,24.275,24.275,0,0,0,4.53.48c1.29,0,1.59-.36,2-2.58a57.653,57.653,0,0,0,.93-9.09h-9.33a20.147,20.147,0,0,1-2.85,7.68,19.14,19.14,0,0,1-3.72,4.14,18.005,18.005,0,0,1-3.27,2.19,5.813,5.813,0,0,0-1.47-1.68,15.546,15.546,0,0,0,6.09-4.86c2.46-3.18,3.63-7.26,3.87-13.56h-6.3a23.291,23.291,0,0,0-3.36.18v-2.25a20.16,20.16,0,0,0,3.33.21h8.55Z" transform="translate(3.474 10.687)"/><path class="cls-2" d="M435.93,313.64a37.247,37.247,0,0,1,5.13,3.75l-1.17,1.65a24.506,24.506,0,0,0-5.1-4Zm5.34,9.81a52.9,52.9,0,0,1-3.93,8.1c-.18.3-.27.51-.6,1.14L435,331.13a13.009,13.009,0,0,0,1.83-2.61,37.711,37.711,0,0,0,2.88-6.24Zm-3.54-16.86a26.372,26.372,0,0,1,4.83,3.93l-1.23,1.56a23.4,23.4,0,0,0-4.83-4.17Zm8.58,6.39a20.824,20.824,0,0,0-2.91.18v-2.1a18.776,18.776,0,0,0,2.94.18h4.2v-2.07a17.308,17.308,0,0,0-.18-3h2.28a16.547,16.547,0,0,0-.18,3v2.07h5.7a17.425,17.425,0,0,0,2.7-.18v2.1a17.042,17.042,0,0,0-2.67-.18h-5.73v5.49h6.78a17.7,17.7,0,0,0,2.76-.18v2.1a18.068,18.068,0,0,0-2.73-.18H451.5a66.8,66.8,0,0,1-4.2,9.36c5.25-.51,7.35-.75,10.29-1.29a43.655,43.655,0,0,0-3.69-5.07l1.62-.87a59.479,59.479,0,0,1,6.39,9.42l-1.83,1.08c-.78-1.56-1-2-1.59-3.06-2.37.42-2.37.42-5.4.87-2.19.33-2.19.33-8.76,1-1.23.12-1.65.18-2.31.3l-.48-2.16a6.558,6.558,0,0,0,1,.06,24.676,24.676,0,0,0,2.52-.15,54.177,54.177,0,0,0,4.35-9.54h-4.44a21.1,21.1,0,0,0-2.94.18v-2.1a19.8,19.8,0,0,0,3,.18h5.52v-5.49Z" transform="translate(3.474 10.687)"/><path class="cls-2" d="M470.4,310.13a19.311,19.311,0,0,1-3.36,3.9,5.062,5.062,0,0,0-1.44-1.23,14.323,14.323,0,0,0,4.92-6.75l1.92.57-1,1.89H476a18.58,18.58,0,0,0,3-.18v1.92a24.231,24.231,0,0,0-2.76-.12h-1.89a18.394,18.394,0,0,1,1.59,3l-1.74.63a19.57,19.57,0,0,0-1.65-3.66Zm7.5,4.65a9.449,9.449,0,0,0-.18-1.86h2.16a9.213,9.213,0,0,0-.18,1.86h7.17a19.546,19.546,0,0,0,3-.18v2a20.9,20.9,0,0,0-3-.18h-7.2v3h9.69a20.209,20.209,0,0,0,3.09-.18v2a21.859,21.859,0,0,0-3.09-.18h-3.57V324h3.48a22.17,22.17,0,0,0,3.09-.18v2a22.481,22.481,0,0,0-3.09-.18h-3.48v5.37c0,1.77-.72,2.19-3.69,2.19-.84,0-1.89,0-2.94-.09a6.98,6.98,0,0,0-.54-1.89,27.946,27.946,0,0,0,3.9.24c1.14,0,1.38-.15,1.38-.78v-5H469.38a22.6,22.6,0,0,0-3.12.18v-2a22.17,22.17,0,0,0,3.09.18h14.58V321.1H469.32a22.917,22.917,0,0,0-3.12.18v-2a20.209,20.209,0,0,0,3.09.18h8.61v-3h-6a20.61,20.61,0,0,0-3,.18v-2a19.932,19.932,0,0,0,3,.18Zm-4.89,11.28a28.434,28.434,0,0,1,4.68,4.14l-1.5,1.38a20.077,20.077,0,0,0-4.53-4.26Zm8.88-16a17.9,17.9,0,0,1-2.28,2.79,4,4,0,0,0-1.47-1.08,13.729,13.729,0,0,0,4-5.91l1.8.57c-.27.57-.45.87-1.08,2h6.45a21.95,21.95,0,0,0,3.18-.18v1.92a24.377,24.377,0,0,0-3.15-.15h-3.33a25.332,25.332,0,0,1,1.65,2.88l-1.71.69a20.042,20.042,0,0,0-1.83-3.57Z" transform="translate(3.474 10.687)"/><path class="cls-2" d="M503.16,308.06a42.5,42.5,0,0,0-1.26,4.8,44.326,44.326,0,0,0-.9,9.39c0,2.34.06,4.11.18,5.7a27.872,27.872,0,0,1,2-5.85l1.44.69c-1.35,3-2.43,6.57-2.43,8.25v.45l-2.16.18c-.06-.48-.09-.63-.18-1.2a42.96,42.96,0,0,1-.78-8.49,49.654,49.654,0,0,1,1.35-11.88,16.693,16.693,0,0,0,.42-2.4Zm7.65,12.06c-1.5,1.65-2.25,3.09-2.25,4.41,0,2.22,1.89,3.3,5.76,3.3a19.734,19.734,0,0,0,6.9-1l.3,2.31a5.15,5.15,0,0,0-1,.15,30.9,30.9,0,0,1-6.15.6c-3.42,0-5.58-.72-6.87-2.28a4.243,4.243,0,0,1-.9-2.76c0-1.83.75-3.45,2.61-5.58ZM507,311.24a20.368,20.368,0,0,0,5.1.45,32.224,32.224,0,0,0,8-.81l.15,2.13-2.07.27a50.567,50.567,0,0,1-6.45.39,40.114,40.114,0,0,1-4.8-.3Z" transform="translate(3.474 10.687)"/><path class="cls-2" d="M528.33,313.82c.9-.06.9-.06,6.24-1.26a40.113,40.113,0,0,1,8.7-1.11c5.49,0,9,2.91,9,7.5,0,3.75-2.22,6.9-6.24,8.85-2.76,1.32-5.28,1.89-9.93,2.28a5.292,5.292,0,0,0-.93-2.22,26.846,26.846,0,0,0,8.34-1.38c4.11-1.5,6.42-4.2,6.42-7.56s-2.49-5.4-6.57-5.4a47.672,47.672,0,0,0-12.24,2.13,13.16,13.16,0,0,0-2.16.72Z" transform="translate(3.474 10.687)"/><path class="cls-2" d="M563.07,309.86a21.746,21.746,0,0,0-.21,3.57,51.374,51.374,0,0,0,.78,9.33c.66,3.06,1.89,5.13,3,5.13.54,0,1.05-.51,1.5-1.5a21.6,21.6,0,0,0,1.56-5.13,9.588,9.588,0,0,0,1.77,1.71c-1.47,5.25-2.85,7.26-5,7.26-1.68,0-3.24-1.68-4.26-4.56s-1.47-6.69-1.62-14.07a16.354,16.354,0,0,0-.09-1.77Zm14.49,1.59a26.022,26.022,0,0,1,4.29,6.84,28.721,28.721,0,0,1,2.25,8l-2.13.87a26.5,26.5,0,0,0-6.24-14.79Z" transform="translate(3.474 10.687)"/><path class="cls-2" d="M590.16,311.3h1.08a14.725,14.725,0,0,0,1.71-.09c3.57-.27,13.17-.81,17-1a20.161,20.161,0,0,0,3.57-.33l.18,2.25a13.927,13.927,0,0,0-3.36.39,15.222,15.222,0,0,0-5.76,3,9.17,9.17,0,0,0-3.69,6.93c0,2.52,1.53,4.53,4.2,5.55a15.349,15.349,0,0,0,4.5,1h.3l-.39,2.43-.93-.18a15.131,15.131,0,0,1-6.48-2.31,7.3,7.3,0,0,1-3.33-6.12c0-3.48,2-6.81,5.61-9.21a19.664,19.664,0,0,1,2.85-1.59,58.187,58.187,0,0,1-6.6.66,87.991,87.991,0,0,0-10.35,1Z" transform="translate(3.474 10.687)"/><path class="cls-2" d="M622.38,309.14a12.816,12.816,0,0,0-2.58.18v-2a16.052,16.052,0,0,0,2.7.18h4.89a11.7,11.7,0,0,0,2.52-.18v2a19.725,19.725,0,0,0-2.43-.12h-1.84a29.363,29.363,0,0,1-2.07,7.62h3.75a13.761,13.761,0,0,0,1.86-.09,22.36,22.36,0,0,0-.09,2.4v9.27a19.635,19.635,0,0,0,.12,2.52h-1.89v-1.5H623.6v3.17h-2a18.163,18.163,0,0,0,.18-2.91v-6.66c0-1.08,0-2,.09-3.36a13.719,13.719,0,0,1-2.25,3.66,5.009,5.009,0,0,0-1.08-1.8,20.406,20.406,0,0,0,4.14-7.62,21.017,21.017,0,0,0,1-4.71Zm1.2,18.6h3.72v-9.39h-3.72Zm10.41-18.6a19.666,19.666,0,0,0-2.91.18v-2.07a18.355,18.355,0,0,0,3,.18h9.56a20.064,20.064,0,0,0,3-.18v2.07a15.746,15.746,0,0,0-2.91-.18h-.72v8.31h1a15.856,15.856,0,0,0,3-.18v2.13a19.546,19.546,0,0,0-3-.18h-1v10.77a22.822,22.822,0,0,0,.21,3.21h-2.31a22.381,22.381,0,0,0,.21-3.21V319.22h-4.95c-.3,6.69-1.59,10.32-5,14.28a5.445,5.445,0,0,0-1.74-1.35c3.15-3,4.56-6.75,4.83-12.93h-.84a16.735,16.735,0,0,0-3,.18v-2.1a19.538,19.538,0,0,0,3,.15h.9v-8.31Zm2.19,7.29v1h4.89v-8.31h-4.89Z" transform="translate(3.474 10.687)"/><path class="cls-2" d="M666.48,321.11a26.557,26.557,0,0,0,3.36-.15c-.06.66-.09,1.29-.12,2.64l-.12,6.09c0,.9.33,1,2.67,1,2.1,0,2.7-.15,2.91-.69a17.526,17.526,0,0,0,.48-4.5,7.379,7.379,0,0,0,2,.78c-.48,6-.66,6.18-5.49,6.18-3.66,0-4.44-.39-4.44-2.4v-.15l.12-7h-5.58a11.51,11.51,0,0,1-2.34,5,13.234,13.234,0,0,1-3.21,2.88,20.239,20.239,0,0,1-5,2.46,4.628,4.628,0,0,0-1.32-1.71,18.726,18.726,0,0,0,5.76-2.7,9.8,9.8,0,0,0,4.17-5.88h-4.74a21.4,21.4,0,0,0-3.24.18v-2.13a20.131,20.131,0,0,0,3.18.18h5.11a21.248,21.248,0,0,0,.21-2.52,9.989,9.989,0,0,0-.12-1.62h2.28a9.124,9.124,0,0,0-.24,1.89c-.06.72-.12,1.47-.24,2.22Zm-4-12.69a9.221,9.221,0,0,0-.21-2.16h2.37a8.765,8.765,0,0,0-.21,2.16v.93h8.91a25.477,25.477,0,0,0,3-.15,13.518,13.518,0,0,0-.12,2.07v1.53a13.911,13.911,0,0,0,.12,2.1h-2v-3.84h-7.47v4.35c0,.36.06.51.21.6a5.844,5.844,0,0,0,1.92.21,5.541,5.541,0,0,0,2.43-.33c.33-.24.48-1,.51-2.43a6.266,6.266,0,0,0,1.8.57c-.15,1.89-.39,2.73-.9,3.18s-1.74.66-3.87.66c-3.15,0-3.9-.33-3.9-1.65v-5.16h-3.69a8.216,8.216,0,0,1-1,3.33,8.443,8.443,0,0,1-4.74,3.81,27.718,27.718,0,0,1-2.79.87,8.237,8.237,0,0,0-1.14-1.65c3.21-.6,4.71-1.2,6-2.4a5.673,5.673,0,0,0,1.83-4h-6.39v3.81h-2a14.453,14.453,0,0,0,.12-2.1v-1.5a13.518,13.518,0,0,0-.12-2.07,25.054,25.054,0,0,0,3,.15h8.31Z" transform="translate(3.474 10.687)"/><path class="cls-2" d="M696,308.75a10.134,10.134,0,0,0-.12-1.74h2.25a24.724,24.724,0,0,0-.15,3.75v.33c5.67,0,8-.09,9-.21v2.13a53.187,53.187,0,0,0-5.73-.15c-.45,0-.78,0-3.21.06v5.94a8.6,8.6,0,0,1,.72,3.54,9.661,9.661,0,0,1-4,7.83,19.059,19.059,0,0,1-4.74,2.43,6.594,6.594,0,0,0-1.32-1.89,15.392,15.392,0,0,0,4.86-2.25,7.772,7.772,0,0,0,3.36-6.33,4.2,4.2,0,0,1-.81,1.47,4.936,4.936,0,1,1-3.71-8.13c.107,0,.214,0,.32.01a4.608,4.608,0,0,1,3.48,1.35V312.9c-6,.12-12.09.42-14.1.75l-.09-2.19h1.2c.87,0,.87,0,5.7-.18,2.88-.12,5.22-.18,7.26-.24Zm-1.29,9a3.838,3.838,0,0,0-2-.48,3.169,3.169,0,0,0-3.326,3.006c0,.048,0,.1,0,.144a2.9,2.9,0,0,0,2.792,3,2.694,2.694,0,0,0,.3,0,3.359,3.359,0,0,0,3.511-3.2,3.2,3.2,0,0,0,0-.339,2.169,2.169,0,0,0-1.27-2.1Z" transform="translate(3.474 10.687)"/><path class="cls-2" d="M717.33,308.75a13.867,13.867,0,0,0,2.82.18c2.49,0,6.48-.18,9.18-.39a3.062,3.062,0,0,0,1.44-.33l1.26,1.65a5.532,5.532,0,0,0-1.53,1.26,76.993,76.993,0,0,1-9.87,8.52l.06.09a15.2,15.2,0,0,1,7.35-1.86c5,0,8.22,2.46,8.22,6.3,0,4.68-4.35,7.77-11,7.77-4.23,0-6.66-1.56-6.66-4.32,0-2,1.86-3.51,4.35-3.51a6,6,0,0,1,5,2.46,8.586,8.586,0,0,1,1.38,2.88c3.15-.87,4.8-2.7,4.8-5.25,0-2.88-2.4-4.59-6.45-4.59a19.25,19.25,0,0,0-12.63,5.13l-1.35-1.92a33.483,33.483,0,0,0,4.2-3.06c3.21-2.55,7.95-6.72,10-8.76l.42-.42.12-.12.12-.12-.06-.06h-.27c-1,.18-4.56.39-9.12.54a14.666,14.666,0,0,0-1.62.15Zm5.64,17.07c-1.5,0-2.43.72-2.43,1.86a2,2,0,0,0,1.2,1.83,7.661,7.661,0,0,0,3.36.69,10.809,10.809,0,0,0,2.19-.21C726.64,327.26,725.13,325.82,722.97,325.82Z" transform="translate(3.474 10.687)"/><path class="cls-2" d="M751.64,328.59a4.49,4.49,0,1,1,0-.02Zm-7.29,0a2.8,2.8,0,1,0-.02,0h.02Z" transform="translate(3.474 10.687)"/></g></g></svg>