<svg xmlns="http://www.w3.org/2000/svg" viewBox="0 0 756.49 390.32"><defs><style>.cls-1{fill:#fff;}.cls-2{fill:#2c8ac8;}</style></defs><g id="レイヤー_2" data-name="レイヤー 2"><g id="レイヤー_1-2" data-name="レイヤー 1"><path class="cls-1" d="M47.87,72.35,34.63,80,0,60V20l13.24-7.65a2.54,2.54,0,0,1,3.33,3.68L4.75,22.86V57.38L34.63,74.65l12.17-7a2.54,2.54,0,0,1,1.06,4.73Z"/><path class="cls-2" d="M34.63,5.6,22.89,12.38l-6.34,3.65L4.73,22.86V57.38l29.9,17.27,12.17-7,5.65-3.27,12.07-7V22.86ZM26.09,16.18l7.42-4.28a2.247,2.247,0,0,1,2.22,0l18.2,10.51a2.22,2.22,0,0,1,0,3.85L37.42,35.79a2.22,2.22,0,0,1-3-.81L25.33,19.21a2.21,2.21,0,0,1,.769-3.029H26.09ZM9.63,47.98v-21a2.23,2.23,0,0,1,1.12-1.92l7.41-4.27a2.23,2.23,0,0,1,3,.81l9.09,15.75a2.219,2.219,0,0,1-.81,3L12.93,49.89a2.23,2.23,0,0,1-3.3-1.91ZM43.17,64.06l-7.42,4.29a2.271,2.271,0,0,1-2.23,0L15.33,57.84a2.22,2.22,0,0,1,0-3.85l16.51-9.53a2.21,2.21,0,0,1,3,.81l9.1,15.75A2.22,2.22,0,0,1,43.17,64.06Zm7.93-4.57a2.23,2.23,0,0,1-3-.82L39,42.91a2.23,2.23,0,0,1,.82-3l16.51-9.53a2.23,2.23,0,0,1,3.34,1.93v21a2.239,2.239,0,0,1-1.11,1.93Z"/><path class="cls-1" d="M69.27,20V60L56.04,67.64a2.6,2.6,0,0,1-1.28.34,2.55,2.55,0,0,1-2.3-3.63l12.07-7V22.86L34.63,5.6,22.89,12.38a2.54,2.54,0,0,1-1.53-4.73L34.63,0Z"/><path d="M53.94,26.26,37.42,35.79a2.22,2.22,0,0,1-3-.81L25.33,19.21a2.21,2.21,0,0,1,.81-3l7.42-4.28a2.247,2.247,0,0,1,2.22,0l18.2,10.51a2.22,2.22,0,0,1-.04,3.82Z"/><path d="M29.49,40.37,12.98,49.91a2.23,2.23,0,0,1-3.35-1.93v-21a2.23,2.23,0,0,1,1.12-1.92l7.41-4.27a2.23,2.23,0,0,1,3,.81l9.09,15.75A2.22,2.22,0,0,1,29.49,40.37Z"/><path d="M43.17,64.06l-7.42,4.29a2.271,2.271,0,0,1-2.23,0L15.33,57.84a2.22,2.22,0,0,1,0-3.85l16.51-9.53a2.21,2.21,0,0,1,3,.81l9.1,15.75A2.22,2.22,0,0,1,43.17,64.06Z"/><path d="M59.63,32.27v21a2.239,2.239,0,0,1-1.11,1.93L51.1,59.49a2.23,2.23,0,0,1-3-.82L39,42.91a2.23,2.23,0,0,1,.82-3l16.51-9.53a2.23,2.23,0,0,1,3.3,1.89Z"/><path class="cls-1" d="M120.42,32.56a3.891,3.891,0,0,0,2.43.65c1.71,0,7.86-.65,11.81-1.25a6.728,6.728,0,0,0,2.44-.84,1.654,1.654,0,0,1,.91-.27c.72,0,2.13.88,3.49,2.21,1,1,1.37,1.52,1.37,2.13,0,.41-.11.6-.61,1.13a5.681,5.681,0,0,0-.95,2.44c-.34,1.4-.42,1.67-1.44,6-.27,1.14-.46,2-.61,2.62,1.41,1,2.13,1.94,2.13,2.78,0,.68-.42,1.06-1.22,1.06a10.167,10.167,0,0,1-1.78-.19,27.652,27.652,0,0,0-3.23-.15c-4.75,0-9.69.87-12.46,2.16a3.149,3.149,0,0,1-.92.19c-1.71,0-4.37-3.3-4.37-5.47a4.732,4.732,0,0,1,.12-.87c1.18,1.75,2.43,2.54,4,2.54.42,0,1.29-.07,2-.15,1.71-.22,1.71-.22,4.75-.57,1.86-.19,4.29-.45,7.26-.72a121.3,121.3,0,0,0,1.55-13.11c0-.53-.22-.68-.83-.68a48.338,48.338,0,0,0-7,.87,40.6,40.6,0,0,0-5.21,1.41,3.073,3.073,0,0,1-1.44.42c-.95,0-2.13-.92-3.12-2.47a5.26,5.26,0,0,1-1.06-2.85,2.318,2.318,0,0,1,.19-.88A6.308,6.308,0,0,0,120.42,32.56Z"/><path class="cls-1" d="M158.38,29.52c4.26.69,6.53,1.33,8.32,2.47a3.579,3.579,0,0,1,1.86,3.27c0,1.79-.87,3.15-2.05,3.15-.65,0-1-.3-1.6-1.29a17.89,17.89,0,0,0-6.72-7.18Zm28.87,2.21a40.766,40.766,0,0,1-8.54,11.78,61.979,61.979,0,0,1-11,8.66,8.5,8.5,0,0,0-2.05,1.67,2.09,2.09,0,0,1-1.6,1c-1,0-2.39-1.06-3.72-2.77a7.236,7.236,0,0,1-1.83-4.22,3.047,3.047,0,0,1,.19-1c1,1.75,2.28,2.81,3.31,2.81,1.59,0,6.57-2.62,11.09-5.85a74.646,74.646,0,0,0,13.72-12.23Z"/><path class="cls-1" d="M203.3,57.94a28.1,28.1,0,0,0,5.69-9.08,27.449,27.449,0,0,0,1.94-8.07,2.151,2.151,0,0,0-.61-1.75,28.882,28.882,0,0,0-7.94,2.24,3.352,3.352,0,0,1-1.63.5c-1,0-2.05-.8-3.34-2.47a4.322,4.322,0,0,1-1.11-2.43,2.151,2.151,0,0,1,.19-.8,4.1,4.1,0,0,0,3.69,2.09c1.18,0,1.82-.08,7.14-.91,3-.46,6.54-.92,11.55-1.45a9.734,9.734,0,0,0,3.31-.8,2.643,2.643,0,0,1,1.1-.3,5.7,5.7,0,0,1,2.43.8c1.44.72,2.17,1.52,2.17,2.28s-.61,1.29-1.6,1.29a2.737,2.737,0,0,1-.68-.08,48.248,48.248,0,0,0-7.07-.57,51.475,51.475,0,0,0-5.58.27c2.24,1.33,2.58,1.71,2.58,2.7,0,1.71-1.6,5.77-3.34,8.62a24,24,0,0,1-8.56,8.27Zm-.54-30.89a6.08,6.08,0,0,0,4.56,2.06,22.393,22.393,0,0,0,5.32-.84,11.282,11.282,0,0,0,3.38-1.41,2.23,2.23,0,0,1,1.18-.34,3.8,3.8,0,0,1,2.05.76c.95.65,1.41,1.26,1.41,1.86,0,.76-.5,1.11-2.21,1.49a51.5,51.5,0,0,1-9.42,1.16c-3,0-4.9-1.3-6.61-4.45Z"/><path class="cls-1" d="M238.56,43.89a46.011,46.011,0,0,0,9.76-11.75c1.18-2,1.64-3,1.64-3.79a1.841,1.841,0,0,0-.53-1.33,4,4,0,0,0-1.83-1.3,2.152,2.152,0,0,1,1-.22,9.825,9.825,0,0,1,5.05,2,2.448,2.448,0,0,1,1.22,1.75c0,.53-.08.68-1,1.9l-1.06,1.4c.34,0,.61.08.76.08a35.658,35.658,0,0,0,4-.53,7.576,7.576,0,0,0,2.62-.84c.69-.34.84-.42,1.14-.42a4.76,4.76,0,0,1,2.62,1.6c1,1,1.49,1.71,1.49,2.32a1.48,1.48,0,0,1-.73,1.21c-.8.57-.83.61-1.93,2.47a45.923,45.923,0,0,1-6.69,9.16,37,37,0,0,1-16.58,10.19l-.19-.41a32.274,32.274,0,0,0,5.51-3.65,51.4,51.4,0,0,0,11.43-12.54,44.619,44.619,0,0,0,3.5-6.57,3.783,3.783,0,0,0,.15-.5.55.55,0,0,0,.08-.19c0-.07-.08-.15-.12-.19h-.11a.317.317,0,0,1-.15,0,.231.231,0,0,0-.15.07,2.854,2.854,0,0,1-.42.08,21.952,21.952,0,0,0-2.89.64c-.8.27-.8.27-1.44.46a3.38,3.38,0,0,1-.5.07,3.658,3.658,0,0,1-2.35-1.29,34.881,34.881,0,0,1-13,10.57Z"/><path class="cls-1" d="M276.98,55.51a52.2,52.2,0,0,0,11.28-9.72,60.265,60.265,0,0,0,9.42-14.28,39.715,39.715,0,0,0-10.18,3,2.78,2.78,0,0,1-1.44.46c-.88,0-1.75-.69-2.74-2.13a6.442,6.442,0,0,1-1.25-3.27,1.629,1.629,0,0,1,.26-.95c1.15,1.9,2.17,2.59,4,2.59a64.3,64.3,0,0,0,8.25-1.22c2.51-.49,2.74-.61,3.68-1.22a1.71,1.71,0,0,1,1-.34,5.8,5.8,0,0,1,2.77,1.71c.84.8,1.22,1.37,1.22,1.9a1.06,1.06,0,0,1-.61,1,7.811,7.811,0,0,0-2.2,2.77,66.168,66.168,0,0,1-4.79,6.73c5,2.16,8.13,4,9.84,5.66a5,5,0,0,1,1.6,3.8c0,1.94-.88,3.38-2.05,3.38-.65,0-1.11-.45-1.56-1.52a27.059,27.059,0,0,0-8.51-10.45,40.865,40.865,0,0,1-9.08,8.32,34.439,34.439,0,0,1-8.7,4.26Z"/><path class="cls-1" d="M322.31,34.69a48.69,48.69,0,0,0,12-5.28c2.05-1.29,2.66-1.79,2.66-2.28s-.76-1.33-1.82-1.79a1.666,1.666,0,0,1,.91-.22,8.407,8.407,0,0,1,3.61,1.25c1.55.91,2.43,1.79,2.43,2.43s-.38.91-1.52,1.48a59.541,59.541,0,0,1-5.89,2.32,8.132,8.132,0,0,1,2.73,1.25c.61.42.84.76.84,1.26a2.661,2.661,0,0,1-.15.87,19.217,19.217,0,0,0-.31,2.28c6.27-.57,6.27-.57,7.41-1.14a2.071,2.071,0,0,1,.88-.19,6.24,6.24,0,0,1,3,1.14c1,.61,1.33,1.1,1.33,1.83s-.57,1.1-1.37,1.1a8.355,8.355,0,0,1-1.48-.15,35.457,35.457,0,0,0-6.08-.42c-.88,0-1.79,0-3.92.07-.72,5.48-1.82,8.67-4.21,11.93a19.437,19.437,0,0,1-7.22,6.2l-.31-.31a19.726,19.726,0,0,0,5.4-7.75,30.066,30.066,0,0,0,2.28-9.65,38.394,38.394,0,0,0-5.59,1.22,17.311,17.311,0,0,0-3.68,1.33,3.114,3.114,0,0,1-1.33.34c-1.67,0-4.29-3-4.29-4.86a1.323,1.323,0,0,1,.15-.61,4,4,0,0,0,3.45,1.94,40.482,40.482,0,0,0,5.7-.73c1.45-.22,3.42-.49,5.74-.83a14.015,14.015,0,0,0,.08-1.75c0-2.24-.23-3-1.11-3.69a46,46,0,0,1-10.22,1.87Z"/><path class="cls-1" d="M368.48,39.33a39.7,39.7,0,0,0,5.93-.73,3,3,0,0,0,1.82-.72,1.571,1.571,0,0,1,.95-.38,5.566,5.566,0,0,1,2.74,1.6c.68.64,1,1.1,1,1.59s0,.46-.6,1.11a8.59,8.59,0,0,0-.95,2.77c-1.22,4.45-1.22,4.45-1.68,6.15,4.37-.3,4.37-.3,5.32-.64a1.51,1.51,0,0,1,.65-.15,3.874,3.874,0,0,1,1.86.79c1.1.73,1.64,1.41,1.64,2.13a1.15,1.15,0,0,1-1.117,1.182c-.035,0-.069,0-.1,0a4.657,4.657,0,0,1-1.22-.23,24.116,24.116,0,0,0-6.19-.68,41.433,41.433,0,0,0-9.38,1.1,14.655,14.655,0,0,0-3.46,1.18,2.182,2.182,0,0,1-1.1.3,3.75,3.75,0,0,1-2.63-1.67,7.1,7.1,0,0,1-1.4-3,2.769,2.769,0,0,1,.19-.87,3.78,3.78,0,0,0,3.34,2.12,29.4,29.4,0,0,0,3.35-.34c3.26-.49,3.26-.49,5-.72,1.29-.15,1.29-.15,2-.27a102.4,102.4,0,0,0,1.52-10.22c0-.26-.07-.38-.19-.38s-1.4.27-2.24.46a18.389,18.389,0,0,0-4.18,1.48,1.777,1.777,0,0,1-.8.19,2.672,2.672,0,0,1-2-1.25,5.472,5.472,0,0,1-1.22-2.93,2.677,2.677,0,0,1,.27-1C366.39,38.72,367.23,39.33,368.48,39.33Z"/><path class="cls-1" d="M400.55,57.41a27.512,27.512,0,0,0,7.08-10.22,29.45,29.45,0,0,0,2.17-8.7,2.092,2.092,0,0,0-1-1.86,4.341,4.341,0,0,0-1.68-.84,1.833,1.833,0,0,1,1.45-.49,12.425,12.425,0,0,1,5.85,2.54c3-2.09,7.14-6.15,7.14-6.95,0-.34-.34-.45-1.4-.45a65.807,65.807,0,0,0-10.41,1.44,26.206,26.206,0,0,0-6.69,2.2,3.267,3.267,0,0,1-1.67.53c-1,0-2.32-1-3.38-2.65a6.8,6.8,0,0,1-1.18-3.08,3.012,3.012,0,0,1,.23-1.1,4.28,4.28,0,0,0,4.21,2.47,56.623,56.623,0,0,0,7.18-.65c6.65-.8,8.74-1,10.26-1.25a6.675,6.675,0,0,0,2.28-.61,1.539,1.539,0,0,1,.69-.15c.68,0,1.36.38,2.58,1.4,1.9,1.64,3.08,3.15,3.08,4a1.251,1.251,0,0,1-.76,1.18,3.1,3.1,0,0,1-1.14.34,6.225,6.225,0,0,0-1.48.53c-3.31,1.56-4.6,2.09-9.35,3.92-.65,2.16-1.07,3.61-1.33,4.33a24.148,24.148,0,0,1-6.88,10.64,22.659,22.659,0,0,1-5.58,3.83Z"/><path class="cls-1" d="M435.63,55.66a20.073,20.073,0,0,0,3.53-4.82,33.71,33.71,0,0,0,3.76-10.79,24.561,24.561,0,0,0,.46-3.88c0-1.63-.84-2.62-2.82-3.3a2.161,2.161,0,0,1,1.45-.38,10.162,10.162,0,0,1,4.25,1.56c1.3.79,2,1.55,2,2.24a3.123,3.123,0,0,1-.46,1.44c-.22.42-.22.46-1.48,4.83a21.7,21.7,0,0,1-10.37,13.45Zm35-16.94a28.446,28.446,0,0,1-4.48,6.65,52.66,52.66,0,0,1-8.28,7.14,9.472,9.472,0,0,0-2,1.6,1.558,1.558,0,0,1-1.1.57c-1.26,0-3.31-2.66-3.31-4.3a1.751,1.751,0,0,1,.19-.8c.38-1.06.46-2.43.46-10.79,0-3.57-.15-7.21-.3-8.32-.27-1.48-1.18-2.31-2.93-2.77a1.611,1.611,0,0,1,1.37-.57,11.183,11.183,0,0,1,4.59,1.37c1.45.72,2.13,1.44,2.13,2.2a2.872,2.872,0,0,1-.49,1.48,12.058,12.058,0,0,0-.49,3c-.27,2.69-.69,10.75-.69,12.87a8.823,8.823,0,0,0,0,.92,42.994,42.994,0,0,0,14.93-10.53Z"/><path class="cls-1" d="M484.38,58.36a28.5,28.5,0,0,0,5.7-9.08,28.13,28.13,0,0,0,1.94-8.09,2.13,2.13,0,0,0-.61-1.79,31.063,31.063,0,0,0-7.94,2.28,3.267,3.267,0,0,1-1.64.5c-.94,0-2.09-.84-3.34-2.51a3.819,3.819,0,0,1-1.06-2.4,2.862,2.862,0,0,1,.15-.75,4.2,4.2,0,0,0,3.65,2.08c1.17,0,1.52,0,7.18-.91,3.42-.53,5.09-.76,11.55-1.48a9.627,9.627,0,0,0,3.3-.8,2.409,2.409,0,0,1,1.11-.3,5.736,5.736,0,0,1,2.43.8c1.44.72,2.16,1.52,2.16,2.28s-.61,1.29-1.59,1.29a3.142,3.142,0,0,1-.69-.08,44.873,44.873,0,0,0-12.65-.3c2.17,1.25,2.58,1.71,2.58,2.7,0,1.67-1.59,5.77-3.34,8.62a23.58,23.58,0,0,1-8.59,8.25Zm-.53-30.89a6,6,0,0,0,4.63,2.09,19.582,19.582,0,0,0,5.29-.87,11.653,11.653,0,0,0,3.34-1.45,2.328,2.328,0,0,1,1.21-.34,3.645,3.645,0,0,1,2,.8c.95.61,1.4,1.22,1.4,1.86s-.53,1.1-2.2,1.48a51.656,51.656,0,0,1-9.42,1.14c-3,0-4.94-1.33-6.61-4.44Zm18.27-2.43c3.88,1.37,6.31,3.5,6.31,5.51,0,1-.49,1.56-1.21,1.56s-.73-.12-1.68-1.9a17.047,17.047,0,0,0-3.8-4.52Zm3.92-2.62a13.508,13.508,0,0,1,4.37,1.9c1.4,1,2,1.9,2,3,0,.87-.46,1.48-1.14,1.48-.46,0-.68-.19-1.25-1.1a16.373,16.373,0,0,0-4.33-4.71Z"/><path class="cls-1" d="M528.63,58.21a17.578,17.578,0,0,0,7.22-8c1.33-3.11,1.94-6.87,2-12.38a44.919,44.919,0,0,0-7.67,1v2.06c0,1.21,0,4.33.08,5.39v.27c0,1.9-.5,2.81-1.56,2.81-.65,0-1.29-.5-1.94-1.41a4.729,4.729,0,0,1-.84-2.24,3.042,3.042,0,0,1,.27-1.06,14.792,14.792,0,0,0,.65-5.06,14.025,14.025,0,0,0-4,1.45,3.85,3.85,0,0,1-1.52.45c-.95,0-2.39-1.25-3.42-3a4.65,4.65,0,0,1-.68-2,2.471,2.471,0,0,1,.07-.46,4.367,4.367,0,0,0,3.69,1.94,39.39,39.39,0,0,0,5.85-.84c0-5.7-.46-6.72-3.12-8a2,2,0,0,1,1.26-.38,10.1,10.1,0,0,1,4.63,1.64c1,.64,1.33,1.14,1.33,1.78a3.115,3.115,0,0,1-.26,1.18,13.678,13.678,0,0,0-.46,3.27c1.75-.27,4.29-.61,7.67-1v-3c0-2.7-.19-3.84-.76-4.52a4.587,4.587,0,0,0-2.77-1.48,2.6,2.6,0,0,1,1.82-.54,11.512,11.512,0,0,1,4.79,1.14c1.14.54,1.63,1.11,1.63,1.87a2,2,0,0,1-.22.91c-.57,1.29-.65,1.86-.84,5.17a10.271,10.271,0,0,0,4.22-.84,2.1,2.1,0,0,1,1-.27,5.594,5.594,0,0,1,2.66,1c1,.61,1.41,1.18,1.41,1.79a1.131,1.131,0,0,1-1.116,1.144c-.035,0-.07,0-.1,0a4.006,4.006,0,0,1-.6,0,63.2,63.2,0,0,0-6.35-.27h-1.22c-.19,8.06-.83,11.17-3,14.21a18.723,18.723,0,0,1-9.57,6.65Zm15-33.85a10.365,10.365,0,0,1,3.5,2.12,4.717,4.717,0,0,1,1.7,3.31c0,1-.45,1.56-1.17,1.56-.5,0-.8-.34-1.18-1.41a14.9,14.9,0,0,0-3.38-5.13Zm4-1.83a11.116,11.116,0,0,1,3.53,1.86,4.3,4.3,0,0,1,1.9,3.27c0,.91-.42,1.48-1.1,1.48s-.72-.22-1.22-1.29a13.286,13.286,0,0,0-3.64-4.82Z"/><path class="cls-1" d="M558.94,47.69A70.789,70.789,0,0,0,573.11,36.4c4.06-4.1,6.38-7.14,6.38-8.4,0-.79-.87-1.78-2.28-2.5a4.337,4.337,0,0,1,1.22-.16,7.646,7.646,0,0,1,3.84,1.3c1.74,1,2.77,2.16,2.77,3,0,.68-.19.91-1.52,1.86-.15.11-.15.11-2.47,2.31-2.66,2.47-2.66,2.47-5.36,4.79a9.325,9.325,0,0,1,2.62,2.24c.35.54.38.92.42,3.73,0,1.74,0,2.24.27,9.46v1.44c0,1.56-.5,2.32-1.56,2.32-1.41,0-3.5-2.32-3.5-3.91a3.353,3.353,0,0,1,.23-1.22c.5-1.56.84-5.7.84-9.8,0-1.94-.12-2.47-.65-3.19a62.448,62.448,0,0,1-8.13,5.39,46.543,46.543,0,0,1-7.14,3Z"/><path class="cls-1" d="M603.17,29.52c4.25.69,6.53,1.33,8.32,2.47a3.579,3.579,0,0,1,1.86,3.27c0,1.79-.87,3.15-2.05,3.15-.65,0-1-.3-1.6-1.29a17.89,17.89,0,0,0-6.72-7.18Zm28.88,2.21a40.817,40.817,0,0,1-8.55,11.78,61.979,61.979,0,0,1-11,8.66,8.5,8.5,0,0,0-2.05,1.67,2.09,2.09,0,0,1-1.6,1c-1,0-2.39-1.06-3.72-2.77a7.242,7.242,0,0,1-1.83-4.22,3.047,3.047,0,0,1,.19-1c1,1.75,2.28,2.81,3.31,2.81,1.59,0,6.57-2.62,11.09-5.85A74.618,74.618,0,0,0,631.63,31.5Z"/><path class="cls-1" d="M648.31,27.7a32.569,32.569,0,0,1-3.42,10l.31.3h3.11c.84-1,1.1-1.25,2.05-2.24,1.14,1,1.49,1.22,2.55,2.17.27.26.38.42.38.57s-.19.38-.95.83v5.46c0,4.82,0,4.82.15,9a.79.79,0,0,1-.68.84,7.425,7.425,0,0,1-2,.26c-.91,0-1.14-.15-1.14-.76V52.79h-3.04v3.58a.711.711,0,0,1-.56.76,11.129,11.129,0,0,1-2.25.26c-.79,0-1.1-.19-1.1-.72.11-5.51.19-8.4.19-8.7V42.35a27.621,27.621,0,0,1-3.5,3.83l-.26-.3a46.578,46.578,0,0,0,5.74-18.2h-2.26a9.494,9.494,0,0,0-2.21.23l-.23-1.33a9.171,9.171,0,0,0,2.44.3h6.07c1.07-1.29,1.37-1.67,2.47-2.85,1.56,1.29,2,1.71,3.54,3.12.15.15.19.23.19.34s-.15.19-.42.19Zm-2.68,24.32h3.08V38.79h-3.08Zm24.13-13h.38c.87-1.21,1.18-1.55,2.13-2.73,1.33,1.25,1.71,1.67,3,3,.15.15.19.23.19.34s-.15.19-.38.19h-5.32v4.71c0,4.75,0,5.21.19,13.19a.74.74,0,0,1-.592.863l-.048.007a13.3,13.3,0,0,1-2.68.2c-1,0-1.26-.15-1.26-.8.19-8.13.19-8.7.19-13.49V39.79h-4.6c-.3,6.73-1,9.73-3.07,12.81s-4.45,4.78-8.78,6.61l-.23-.38a18.987,18.987,0,0,0,4.3-4.14,18.8,18.8,0,0,0,3.3-9c.19-1.4.31-3.38.38-5.85h-1.14a12.775,12.775,0,0,0-2,.19l-.23-1.25a9.12,9.12,0,0,0,2.35.26h1.07v-12h-.19a15.714,15.714,0,0,0-2.47.19l-.23-1.33a10.341,10.341,0,0,0,2.74.34h11.51c.91-1,1.82-1.94,2.66-2.81,1.59,1.21,2.05,1.63,3.61,3,.19.15.26.27.26.38s-.22.27-.49.27h-4.56Zm-8.62-12c0,6.61,0,9.57-.12,12h4.56v-12Z"/><path class="cls-1" d="M692.47,44.3a24.556,24.556,0,0,0,.34-4.06q-.007-.953-.11-1.9c1.29.11,2.28.19,2.92.26h.15c2.28.19,3.2.46,3.2.84s-.54.68-1.75,1c-.23,2-.34,2.7-.53,3.8l4.74-.08,2.17-2.24,1.71,1.18c.34.26.84.61,1.52,1.06.38.31.53.49.53.69s-.26.49-.68.76a6.613,6.613,0,0,0-.8.49v7.64c0,.68.11.79,1.1.79a11.477,11.477,0,0,0,3.19-.26c.61-.19,1.1-1.1,1.71-3.12.38-1.33.42-1.44,1.33-4.52l.46.08-.23,6a.379.379,0,0,1,0,.15c0,.76.08.91.61,1.14a1.769,1.769,0,0,1,1.33,1.79c0,1.29-.95,2-2.89,2.09-1.71.15-4.26.23-6.08.23a9,9,0,0,1-3.72-.5,2.271,2.271,0,0,1-1-2.16L701.8,45l-5.28.07c-.87,4.14-2.39,6.84-5.2,9.2a19,19,0,0,1-6.42,3.46c-1.14.34-1.71.49-4.52,1.17l-.16-.34c7.45-3.34,10.64-6.91,12-13.41l-6.8.08a16.99,16.99,0,0,0-2.17.22l-.38-1.29a16.013,16.013,0,0,0,2.51.23h.25Zm3-14.43a12.657,12.657,0,0,1-.91,4c-1.75,4.45-6.54,7.34-13.64,8.21l-.19-.42c4.25-1.48,6.46-2.92,8.32-5.39a10.6,10.6,0,0,0,2.17-6.38h-5.17v.64a8,8,0,0,1-.65,3.54,3.65,3.65,0,0,1-3,2.24c-1.14,0-2-1.1-2-2.66a1.69,1.69,0,0,1,1.23-1.86c2.13-1.07,2.93-2.21,3.5-5.06h.41a12.04,12.04,0,0,1,.42,2.36h9.24V26.62a16.591,16.591,0,0,0-.16-2.47c4.79.45,5.13.49,5.59.64s.57.27.57.46c0,.38-.53.68-1.6,1v2.81h8.36c1-1,1.26-1.33,2.28-2.32,1.79,1.37,2.32,1.82,4.07,3.31.34.34.45.45.45.64,0,.38-.45.61-1.25.61a10.933,10.933,0,0,1-1.44-.08c-1.87,1.14-4,2.36-5.13,2.93l-.35-.19a29.286,29.286,0,0,0,1.67-4.1h-5.31v5.73c0,.61.19.72,1.21.8h3.38c1.75,0,2.36-.15,2.78-.69a22.051,22.051,0,0,0,1.78-3.57h.38l-.15,2.59v.26c0,.72,0,.72,1,1.14a1.259,1.259,0,0,1,.91,1.22c0,1.14-.72,1.71-2.59,1.93-.53.08-3.64.19-4.71.19h-.53c-.45,0-1.71,0-3.61-.07-2.92,0-3.76-.61-3.76-2.43V29.78Z"/><path class="cls-1" d="M738.63,34.58a50.719,50.719,0,0,1-5.47,6c4.37-.08,5.13-.08,13-.57a28.871,28.871,0,0,0-4.1-4l.19-.27a36.548,36.548,0,0,1,6.76,2.47c2.32,1.22,3.19,2.24,3.19,3.73s-.87,3.11-1.82,3.11c-.46,0-.8-.34-1.6-1.67a19.351,19.351,0,0,0-1.82-2.47c-5.43,1.25-5.43,1.25-7.83,1.67-2.85.5-9,1.41-11.89,1.75-.15,1.06-.38,1.52-.8,1.52s-.83-1-1.75-5.51a56.132,56.132,0,0,0,6.65.23,32.782,32.782,0,0,0,2.06-6h-3.46a14.382,14.382,0,0,0-2.51.26l-.3-1.33a14.889,14.889,0,0,0,2.81.27h15.65c1-1.18,1.37-1.52,2.43-2.62l1.18.83a15.441,15.441,0,0,0,.53-2.58H727.01a9.726,9.726,0,0,1-.72,4.33,3.309,3.309,0,0,1-2.7,2.17,2.49,2.49,0,0,1-2.24-2.66,1.578,1.578,0,0,1,.57-1.37c.15-.11.15-.11,1.06-.68a6.561,6.561,0,0,0,2.36-2.28,7.859,7.859,0,0,0,.72-2.74h.46a7.924,7.924,0,0,1,.45,2.43h9.16V26.47a20.133,20.133,0,0,0-.11-2.81c5.16.34,6.19.53,6.19,1.07,0,.38-.53.68-1.79,1v2.85h9c.91-1,1.22-1.29,2.17-2.28,1.9,1.29,2.46,1.71,4.25,3.08.3.27.42.42.42.65a.531.531,0,0,1-.31.41,3.073,3.073,0,0,1-1,.19h-1.37c-.46.27-.91.49-1.14.61a19.744,19.744,0,0,1-2.39,1.25l2,1.52c.15.08.23.19.23.27a.25.25,0,0,1-.23.19Zm7.71,14.59c1.45-1.56,1.45-1.56,2.78-3,1.82,1.33,2.39,1.75,4.25,3.27a.361.361,0,0,1,.15.27c0,.15-.15.22-.3.22h-12.8v6.69h8.47c1.26-1.4,1.64-1.82,2.93-3.15,1.82,1.33,2.43,1.78,4.41,3.38.15.15.26.27.26.38s-.11.19-.26.19H725.11a21.322,21.322,0,0,0-3.11.27l-.31-1.37a19.025,19.025,0,0,0,3.46.3h11.06V49.93h-8.29a15.842,15.842,0,0,0-2.81.23l-.3-1.29a20.255,20.255,0,0,0,3.11.27h8.29v-1.6a32.83,32.83,0,0,0-.19-3.84c1.13.12,2.12.23,2.66.31,2.81.26,3.3.38,3.3.8s-.23.49-1.56,1v3.38Z"/><path class="cls-1" d="M8.18,159.44a19.4,19.4,0,0,0,.18,2.94H6.14a20.334,20.334,0,0,0,.18-3v-9.33a30.773,30.773,0,0,1-4.14,3.54,5.633,5.633,0,0,0-1.11-1.68,25.854,25.854,0,0,0,5.4-4.44,20.346,20.346,0,0,0,3.72-5.58H4.63a20.685,20.685,0,0,0-2.4.12v-2a19.879,19.879,0,0,0,2.34.12H6.34v-2.74a17.156,17.156,0,0,0-.15-2.31H8.44a12.74,12.74,0,0,0-.18,2.34v2.76H10a11.006,11.006,0,0,0,1.74-.09l.93,1.05c-.21.33-.39.66-.72,1.29a25.856,25.856,0,0,1-3.3,5.1,18.2,18.2,0,0,0,4.83,4.08,7.217,7.217,0,0,0-1,1.65,19.5,19.5,0,0,1-4.23-3.78ZM18.63,137.9a17.822,17.822,0,0,0-.21-2.73h2.37a14.187,14.187,0,0,0-.21,2.73v6.48h3.93a19.532,19.532,0,0,0,2.94-.18v2.1c-.93-.09-1.89-.15-2.94-.15H20.54v12.81h4.74a20.9,20.9,0,0,0,3.24-.18v2.25a20.42,20.42,0,0,0-3.24-.21H14.48a19.817,19.817,0,0,0-3.21.21v-2.24a20.9,20.9,0,0,0,3.24.18h4.12V146.15h-3c-1,0-2,.06-2.94.15v-2.1a19.147,19.147,0,0,0,2.94.18h3Z"/><path class="cls-1" d="M47.63,135.29a20.155,20.155,0,0,0,5,5.37,32.247,32.247,0,0,0,8.28,4.8,6.348,6.348,0,0,0-1.17,1.92,41.24,41.24,0,0,1-8.34-5.22,24.942,24.942,0,0,1-4.8-5.13,26.018,26.018,0,0,1-4.5,4.92,33,33,0,0,1-8.1,5.28,6.006,6.006,0,0,0-1.26-1.71,31.481,31.481,0,0,0,7.95-4.89,22.064,22.064,0,0,0,4.77-5.34ZM37.49,152.03a25.714,25.714,0,0,0-3.42.18v-2.16a25.714,25.714,0,0,0,3.42.18H55.97a25.382,25.382,0,0,0,3.42-.18v2.16a26.055,26.055,0,0,0-3.42-.18H45.2a45.167,45.167,0,0,1-3.75,7.08c4.14-.27,7.26-.57,11.69-1.11a43.754,43.754,0,0,0-3.65-3.72l1.56-1a64.907,64.907,0,0,1,7.26,7.92l-1.68,1.27c-1.17-1.65-1.55-2.16-2.18-2.94-5.34.72-9.87,1.2-14.55,1.56a35.942,35.942,0,0,0-5.07.54l-.36-2.28a13.973,13.973,0,0,0,1.53.09c.48,0,.48,0,3.18-.18a45.175,45.175,0,0,0,3.81-7.23Zm1.92-7.47a15.909,15.909,0,0,0,2.37.12h9.69a17.844,17.844,0,0,0,2.51-.12v2a18.15,18.15,0,0,0-2.51-.12H41.75a17.257,17.257,0,0,0-2.34.12Z"/><path class="cls-1" d="M69.1,139.79a21.17,21.17,0,0,0,1.29-4.53l2.13.39c-.57,1.71-1,2.82-1.53,4.14h2l2.64-.09c-.06.78-.09,1.56-.09,2.64v15.27a25.721,25.721,0,0,0,.15,3.09h-2v-1.91H67.84v2.64h-2a26.79,26.79,0,0,0,.15-3.66V142.55a22.229,22.229,0,0,0-.12-2.85,16.911,16.911,0,0,0,1.8.09H69.1Zm-1.29,8.34h5.82v-6.69H67.78Zm0,9h5.82v-7.34H67.78Zm12.66-15.57a28.552,28.552,0,0,1-3.45,5.46,6.118,6.118,0,0,0-1.44-1.35,21.789,21.789,0,0,0,4.41-7.56,13.326,13.326,0,0,0,.78-2.91l2.07.39a10.517,10.517,0,0,0-.42,1.14c-.42,1.2-.69,1.89-1.14,3.06h7.26a19.4,19.4,0,0,0,2.64-.12,11.952,11.952,0,0,0-.12,1.89c-.27,11.88-.66,15.9-1.74,18.3-.6,1.38-1.56,1.92-3.33,1.92-1.11,0-1.92-.06-3.84-.21a5.548,5.548,0,0,0-.51-2.13,22.537,22.537,0,0,0,4.26.51c1.11,0,1.53-.27,1.89-1.23a34.086,34.086,0,0,0,1.11-8.28c.15-2.4.18-4.47.21-8.88Zm3.3,12.36a31.5,31.5,0,0,0-4.56-7.59l1.53-.93a34.729,34.729,0,0,1,4.74,7.47Z"/><path class="cls-1" d="M111.46,148.7a2.46,2.46,0,1,1-2.46-2.46A2.46,2.46,0,0,1,111.46,148.7Z"/><path class="cls-1" d="M130.21,140.3c0,11.94-.75,16.86-3.33,21.72a6.884,6.884,0,0,0-1.53-1.56c2.25-4.08,3-8.73,3-19.35a39.144,39.144,0,0,0-.15-4.77,31.425,31.425,0,0,0,3.63.15h17.31a23.291,23.291,0,0,0,3.36-.18v2a21.523,21.523,0,0,0-3.21-.15h-19Zm10.42,12.49a13.556,13.556,0,0,0-.15-2.13h2.15a10.263,10.263,0,0,0-.15,2.1v1.14h5a21.124,21.124,0,0,0,3.18-.15v1.92a22.829,22.829,0,0,0-3.18-.15h-5v4h6.48a30.012,30.012,0,0,0,3.72-.18v2a32.4,32.4,0,0,0-3.84-.18H133.45a23.936,23.936,0,0,0-3.63.18v-2a24.06,24.06,0,0,0,3.33.18h1v-4.73a10.946,10.946,0,0,0-.15-2.1h2.1a9.988,9.988,0,0,0-.15,2.1v4.74h4.68Zm-7.65-9.9a9.5,9.5,0,0,0-1.86.12v-1.74a9.5,9.5,0,0,0,1.86.12h2.52v-.21a12.046,12.046,0,0,0-.12-2.13h1.83a12.046,12.046,0,0,0-.12,2.13v.21h1.62a9.649,9.649,0,0,0,1.89-.12v1.71a13.532,13.532,0,0,0-1.8-.09h-1.32a11.422,11.422,0,0,0,3.36,3.45,6.987,6.987,0,0,0-1.2,1.26,12.012,12.012,0,0,1-2.67-3.48c.06.9.12,2.19.12,2.73v2.1a11.454,11.454,0,0,0,.15,2.25h-1.92a14.039,14.039,0,0,0,.18-2.28v-2.13c0-.54,0-1.47.09-2.64a15.465,15.465,0,0,1-3.93,5.31,5.194,5.194,0,0,0-1.17-1.26,16.3,16.3,0,0,0,4.59-5.34Zm10.32,0a9.349,9.349,0,0,0-1.83.12v-1.74a10.785,10.785,0,0,0,1.95.12h1.92v-.21a12.046,12.046,0,0,0-.12-2.13h1.83a9.616,9.616,0,0,0-.12,2.13v.21h3.15a10.458,10.458,0,0,0,1.92-.12v1.74a10.822,10.822,0,0,0-1.92-.12h-2.7a17,17,0,0,0,5.58,5.55,7.423,7.423,0,0,0-1.33,1.35,17.84,17.84,0,0,1-4.8-5.79,10.909,10.909,0,0,1,.09,1.17v3.72a11.61,11.61,0,0,0,.15,2.25h-1.92a13.316,13.316,0,0,0,.18-2.22v-2c0-.24,0-1.17.09-2.76a15.639,15.639,0,0,1-4.35,5.61,5.738,5.738,0,0,0-1.23-1.17,15.421,15.421,0,0,0,5-5.76Z"/><path class="cls-1" d="M163.68,149.36c-1.23,0-2.28.06-3.3.15a17.264,17.264,0,0,0,.12-2.25v-5.67a18.188,18.188,0,0,0-.12-2.25c.9.09,2,.15,3.36.15h6.75a27,27,0,0,0-.18-4.32h2.32a25.149,25.149,0,0,0-.18,4.32h6.72a23.285,23.285,0,0,0,3.36-.15,16.265,16.265,0,0,0-.12,2.25v5.67a15.666,15.666,0,0,0,.12,2.25,23.625,23.625,0,0,0-3.3-.15h-7.14a12.8,12.8,0,0,1-2.19,6.27c3.75,2.43,8.43,3.63,15.12,3.81a7.672,7.672,0,0,0-1,2.13c-6.78-.48-11.28-1.83-15.27-4.56-2.34,2.37-4.92,3.78-9.33,5.1a5.9,5.9,0,0,0-1.26-1.8c4.11-1,6.9-2.31,9.12-4.47a17.723,17.723,0,0,1-2.73-2.88,21.348,21.348,0,0,0-1.41-1.68L165,150.2a12.944,12.944,0,0,0,3.39,4.35,10.321,10.321,0,0,0,1.77-5.19Zm6.63-1.71c.09-1.59.15-3.24.18-6.42h-8.07v6.42Zm10.14,0v-6.42h-8c-.06,4.32-.06,4.32-.18,6.42Z"/><path class="cls-1" d="M193.89,139.79a21.1,21.1,0,0,0,1.28-4.53l2.14.39c-.58,1.71-1,2.82-1.54,4.14h2l2.63-.09c0,.78-.09,1.56-.09,2.64v15.27a25.721,25.721,0,0,0,.15,3.09h-2v-1.91h-5.83v2.64h-2a25.142,25.142,0,0,0,.15-3.66V142.55a22.8,22.8,0,0,0-.11-2.85,16.724,16.724,0,0,0,1.79.09h1.43Zm-1.26,8.34h5.84v-6.69h-5.84Zm0,9h5.84v-7.34h-5.84Zm12.65-15.57a29.012,29.012,0,0,1-3.44,5.46,6.372,6.372,0,0,0-1.45-1.35,21.789,21.789,0,0,0,4.41-7.56,13.326,13.326,0,0,0,.78-2.91l2.07.39a10.517,10.517,0,0,0-.42,1.14c-.42,1.2-.69,1.89-1.14,3.06h7.26a19.4,19.4,0,0,0,2.64-.12,11.952,11.952,0,0,0-.12,1.89c-.27,11.88-.66,15.9-1.74,18.3-.6,1.38-1.56,1.92-3.33,1.92-1.11,0-1.92-.06-3.84-.21a5.548,5.548,0,0,0-.51-2.13,22.537,22.537,0,0,0,4.26.51c1.11,0,1.53-.27,1.89-1.23a34.086,34.086,0,0,0,1.11-8.28c.15-2.4.18-4.47.21-8.88Zm3.3,12.36a31.5,31.5,0,0,0-4.56-7.59l1.53-.93a34.729,34.729,0,0,1,4.74,7.47Z"/><path class="cls-1" d="M242.33,142.04a27.4,27.4,0,0,1-1.83,4.92,25.034,25.034,0,0,1-4.41,6.42,26.506,26.506,0,0,0,5.43,3.87,27.821,27.821,0,0,0,7,2.73,5.73,5.73,0,0,0-1.32,2,31.2,31.2,0,0,1-12.45-7.2,32.257,32.257,0,0,1-12.57,7.17,5.81,5.81,0,0,0-1.26-1.86,29.519,29.519,0,0,0,12.45-6.66,26.366,26.366,0,0,1-3.63-4.92,26.729,26.729,0,0,1-2.79-6.45h-2.22a24.06,24.06,0,0,0-3.33.18v-2.15a20.861,20.861,0,0,0,3.36.21h8.61v-2.34a13.2,13.2,0,0,0-.21-2.58h2.4a12.678,12.678,0,0,0-.21,2.55v2.37h9.28a20.92,20.92,0,0,0,3.42-.21v2.13a22.733,22.733,0,0,0-3.36-.18Zm-13.35,0a22.573,22.573,0,0,0,2.46,5.73,25.434,25.434,0,0,0,3.27,4.29,23.356,23.356,0,0,0,5.43-10Z"/><path class="cls-1" d="M256.24,152.03c-.3,5.22-.75,7.74-1.89,10.2a6.435,6.435,0,0,0-1.53-1.47c1.53-3.24,1.86-6.75,1.86-19.47a44.662,44.662,0,0,0-.15-5.25,19.074,19.074,0,0,0,2.46.12h2.64a15.422,15.422,0,0,0,2.43-.12c-.06.69-.09,1.44-.09,2.94v20.61a2.41,2.41,0,0,1-.57,1.89c-.39.36-1,.48-2.19.48a15.765,15.765,0,0,1-1.83-.12,4.708,4.708,0,0,0-.39-1.89,11.083,11.083,0,0,0,2.22.3c.87,0,1-.15,1-.9v-7.32Zm.15-7.2c0,3.15-.06,5-.09,5.55h3.9v-5.59Zm3.81-7h-3.78v5.4h3.78Zm19.74,8.91a27.942,27.942,0,0,1-4.35,4.14,20.355,20.355,0,0,0,4.47,9.24,6.391,6.391,0,0,0-1.23,2,23.649,23.649,0,0,1-4.32-8.58,44.288,44.288,0,0,1-1.59-9.93c-1,.18-1.23.24-2,.36v14.94a21.926,21.926,0,0,0,.15,3.24h-2a30.224,30.224,0,0,0,.15-3.24v-14.7c-1,.12-1,.12-2.76.27a80.675,80.675,0,0,1-.63,10.83,19.541,19.541,0,0,1-2,6.87,5.825,5.825,0,0,0-1.53-1.44,13.688,13.688,0,0,0,1.65-5,83.83,83.83,0,0,0,.68-13.85,38.551,38.551,0,0,0-.12-4.26h.87a44.828,44.828,0,0,0,9.72-1.5,10,10,0,0,0,2.31-.9l1.68,1.62c-.39.12-.84.24-1.68.51a48.052,48.052,0,0,1-11,1.92v3.51a40.513,40.513,0,0,0,8.13-1.29,13.229,13.229,0,0,0,3.3-1.23l1.59,1.5a35.659,35.659,0,0,1-4.8,1.44,35.284,35.284,0,0,0,.57,5.91,14.647,14.647,0,0,0,3.24-3.63Z"/><path class="cls-1" d="M291.15,137.06a42.5,42.5,0,0,0-1.26,4.8,44.326,44.326,0,0,0-.9,9.39c0,2.34.06,4.11.18,5.7a27.92,27.92,0,0,1,1.95-5.85l1.44.69c-1.35,3-2.43,6.57-2.43,8.25v.45l-2.16.18c-.06-.48-.09-.63-.18-1.2a42.96,42.96,0,0,1-.78-8.49,49.654,49.654,0,0,1,1.35-11.88,16.693,16.693,0,0,0,.42-2.4Zm7.65,12.06c-1.5,1.65-2.25,3.09-2.25,4.41,0,2.22,1.89,3.3,5.76,3.3a19.734,19.734,0,0,0,6.9-1l.3,2.31a6.172,6.172,0,0,0-1.05.15,31.048,31.048,0,0,1-6.15.6c-3.42,0-5.58-.72-6.87-2.28a4.244,4.244,0,0,1-.9-2.76c0-1.83.75-3.45,2.61-5.58Zm-3.81-8.88a20.368,20.368,0,0,0,5.1.45,32.224,32.224,0,0,0,8-.81l.15,2.13-2.07.27a50.762,50.762,0,0,1-6.45.39,40.114,40.114,0,0,1-4.8-.3Z"/><path class="cls-1" d="M332.31,142.34c-.36.06-.48.09-.9.18a52.686,52.686,0,0,1-5.31.9v5.19a21.236,21.236,0,0,1,6.45-1.08,10.165,10.165,0,0,1,5.31,1.26,6.17,6.17,0,0,1-3,11.52,4.421,4.421,0,0,1-4.62-3.39,11.008,11.008,0,0,1-.36-3.39,6.5,6.5,0,0,0,2-.78,8.793,8.793,0,0,0-.06,1.17c0,3.12.9,4.41,3.09,4.41a4,4,0,0,0,4.007-3.993c0-.079,0-.158-.007-.237,0-2.94-2.49-4.77-6.42-4.77a20.263,20.263,0,0,0-6.36,1.17V158c0,1.62-.72,2.4-2.19,2.4a7.92,7.92,0,0,1-4.95-1.92,3.619,3.619,0,0,1-1.38-2.82c0-1.32.75-2.61,2.37-4a16,16,0,0,1,4.23-2.46v-5.67l-1.2.09h-4.74v-2a17.041,17.041,0,0,0,3.06.21c.81,0,2,0,2.88-.09v-3a19.962,19.962,0,0,0-.15-2.85h2.22a17.119,17.119,0,0,0-.15,2.79v2.88a30.315,30.315,0,0,0,6.12-1.29Zm-8.13,8.85c-3,1.44-4.65,3.06-4.65,4.5,0,.63.42,1.23,1.29,1.8a5.609,5.609,0,0,0,2.67.87c.6,0,.69-.18.69-1.47Zm16.45-5.64a24.355,24.355,0,0,0-6.05-5.88l1.55-1.17a25.457,25.457,0,0,1,6.07,5.7Z"/><path class="cls-1" d="M352.85,138.86a21.746,21.746,0,0,0-.21,3.57,51.374,51.374,0,0,0,.78,9.33c.66,3.06,1.89,5.13,3,5.13.54,0,1.05-.51,1.5-1.5a21.6,21.6,0,0,0,1.56-5.13,9.588,9.588,0,0,0,1.77,1.71c-1.47,5.25-2.85,7.26-5,7.26-1.68,0-3.24-1.68-4.26-4.56s-1.47-6.69-1.62-14.07a16.354,16.354,0,0,0-.09-1.77Zm14.49,1.59a26.022,26.022,0,0,1,4.29,6.84,28.7,28.7,0,0,1,2.25,8l-2.13.87a26.5,26.5,0,0,0-6.24-14.79Z"/><path class="cls-1" d="M380.83,140.3h1.08a14.725,14.725,0,0,0,1.71-.09c3.57-.27,13.17-.81,17-1a20.17,20.17,0,0,0,3.57-.33l.18,2.25a13.927,13.927,0,0,0-3.36.39,15.222,15.222,0,0,0-5.76,3,9.168,9.168,0,0,0-3.62,6.97c0,2.52,1.53,4.53,4.2,5.55a15.381,15.381,0,0,0,4.5,1h.3l-.39,2.43-.93-.18a15.131,15.131,0,0,1-6.48-2.31,7.3,7.3,0,0,1-3.33-6.12c0-3.48,2-6.81,5.61-9.21a19.664,19.664,0,0,1,2.85-1.59,58.187,58.187,0,0,1-6.6.66,87.991,87.991,0,0,0-10.35,1Z"/><path class="cls-1" d="M425.7,135.53a20.714,20.714,0,0,0-.14,2.67,38.969,38.969,0,0,0,.65,6.51,24.639,24.639,0,0,0,8.31,13.14,22.043,22.043,0,0,0,3.48,2.34,6.83,6.83,0,0,0-1.56,1.89,27.472,27.472,0,0,1-7.95-7.68,25.883,25.883,0,0,1-3.9-9.54,25.03,25.03,0,0,1-2.07,6.69,19.99,19.99,0,0,1-4.29,6.15,25.426,25.426,0,0,1-5.51,4.38,5.724,5.724,0,0,0-1.62-1.77,21.191,21.191,0,0,0,6.12-4.53c4.17-4.47,6.2-10.23,6.2-17.61a23.043,23.043,0,0,0-.11-2.64Z"/><path class="cls-1" d="M445.95,158.87a21.693,21.693,0,0,0,.18,3.36h-2.22a22.464,22.464,0,0,0,.18-3.36V139.49a25.934,25.934,0,0,0-.12-3.3,27.61,27.61,0,0,0,3.15.12h4.29a26.5,26.5,0,0,0,3.06-.12c-.06.84-.09,1.74-.09,2.85v3.75a24.894,24.894,0,0,0,.09,2.79c-.81-.06-1.83-.09-3-.09h-5.49Zm0-18.69h6.68v-2.39h-6.72Zm0,3.84h6.68v-2.43h-6.72Zm15.75,11.37a24.212,24.212,0,0,0,.09,2.73c-.84-.06-1.83-.09-3.06-.09h-6.57v2.1H450.3a18.466,18.466,0,0,0,.15-2.82v-6.66a26.9,26.9,0,0,0-.09-2.82,26.833,26.833,0,0,0,3,.12h5.49a26.833,26.833,0,0,0,3-.12c-.06.84-.09,1.62-.09,2.82Zm-9.54-3.27h7.83v-2.67h-7.83Zm0,4.41h7.83v-2.91h-7.83Zm16.08,2.79c0,2-.63,2.49-3.06,2.49-.63,0-2.25-.06-3-.12a6.881,6.881,0,0,0-.55-1.9,32.57,32.57,0,0,0,3.3.3c1.23,0,1.47-.15,1.47-.87V145.46h-6.15a28.386,28.386,0,0,0-3,.09c.06-.78.09-1.68.09-2.79v-3.72c0-1,0-2-.09-2.85a26.059,26.059,0,0,0,3.06.12h4.95a27.61,27.61,0,0,0,3.15-.12,28.411,28.411,0,0,0-.15,3.3Zm-9.21-19.14h7.38v-2.39h-7.38Zm0,3.84h7.38v-2.43h-7.38Z"/><path class="cls-1" d="M475.19,143.12a26.517,26.517,0,0,1,5.52,3.45l-1.08,1.74a24.124,24.124,0,0,0-5.52-3.72Zm5.82,9.69a56.04,56.04,0,0,1-5,8.94l-1.71-1.56a8,8,0,0,0,.93-1,30.261,30.261,0,0,0,4.23-7.56Zm-4.5-17.25a35.54,35.54,0,0,1,5.16,4l-1.17,1.59a31.482,31.482,0,0,0-5.22-4.2Zm13.86,3.78a59.992,59.992,0,0,1-6.87.75,5.873,5.873,0,0,0-.78-1.83,54.465,54.465,0,0,0,12.69-1.71,14.025,14.025,0,0,0,3.45-1.2l1.38,1.8-1,.27c-1.74.51-4.08,1-7,1.59v5.19h5.85a20.6,20.6,0,0,0,3.06-.18v2.13a22.048,22.048,0,0,0-3.06-.18h-5.85v5.1h4.8a14.39,14.39,0,0,0,2.31-.12,19.756,19.756,0,0,0-.12,2.73v5.7a23.193,23.193,0,0,0,.15,2.91h-2v-1.71h-11.6v1.71h-2a20.064,20.064,0,0,0,.15-2.94v-5.76a22.815,22.815,0,0,0-.12-2.64,14.446,14.446,0,0,0,2.19.12h4.41v-5.1h-5.78a22.126,22.126,0,0,0-3,.18v-2.13a20.2,20.2,0,0,0,3,.18h5.7Zm-4.59,19.45h11.61v-6H485.78Z"/><path class="cls-1" d="M512.89,138.5c-2.16.3-3.27.39-5.55.57a4.061,4.061,0,0,0-.75-1.59c4.83-.09,10.47-1.05,12.51-2.07l1.32,1.53c-.42.09-.42.09-1.5.36a40.757,40.757,0,0,1-4.29.93v2.37h3.6a13.718,13.718,0,0,0,2.64-.15v1.8a13.2,13.2,0,0,0-2.4-.12h-3.84v1.86h3.12a21.758,21.758,0,0,0,2.64-.09,15.954,15.954,0,0,0-.12,2.64v3.48a20.252,20.252,0,0,0,.12,2.85c-.72-.06-1.5-.09-2.76-.09h-3v2h3a18.046,18.046,0,0,0,2.73-.12v1.8a14.874,14.874,0,0,0-2.46-.12h-3.27v2.16c1.92-.24,2.94-.39,5.58-.84v1.59c-4.2.72-7.2,1.11-12.3,1.62a13.769,13.769,0,0,0-1.59.24l-.39-2.07c.48,0,1,.06,1.26.06.93,0,2.64-.12,5.7-.42v-2.34h-3.33a25.939,25.939,0,0,0-2.73.15v-1.86a16.6,16.6,0,0,0,2.8.16h3.3v-2h-2.85a23.71,23.71,0,0,0-2.79.09c.06-.66.09-1.32.09-2.82v-3.51a20.061,20.061,0,0,0-.09-2.64c.78.06,1.59.09,2.85.09h2.79v-1.86h-4.08a16.467,16.467,0,0,0-2.7.15v-1.86a17.085,17.085,0,0,0,2.73.18h4Zm-3.84,6.93v2.19h3.84v-2.19Zm0,3.57v2.34h3.84V149Zm5.58-1.38h4v-2.19h-4Zm0,3.72h4V149h-4Zm15-9.33a22.044,22.044,0,0,0,2.67-.12c-.06.66-.09,1.26-.15,3.15-.21,9.06-.6,13.29-1.41,15.24-.42,1.08-1.23,1.47-2.88,1.47a29.666,29.666,0,0,1-3.18-.24,8.027,8.027,0,0,0-.33-2,16.612,16.612,0,0,0,3.24.42c1.11,0,1.44-.21,1.65-1.11.66-2.58,1.08-8.31,1.08-15.06h-3.69a45.032,45.032,0,0,1-1.23,9.63,20.759,20.759,0,0,1-4.71,8.82,6.693,6.693,0,0,0-1.71-1.29,15.517,15.517,0,0,0,3.48-4.86c1.38-2.94,2-6.48,2.31-12.3h-.78a18.323,18.323,0,0,0-2.79.15v-2a15.684,15.684,0,0,0,2.67.15h1v-3a16.809,16.809,0,0,0-.18-3.45h2.22a8.994,8.994,0,0,0-.18,2.28c0,2.13,0,3.15-.06,4.17Z"/><path class="cls-1" d="M547.78,136.1a52.224,52.224,0,0,0,2.25,9.93c1.77-.72,2.61-1,7.26-2.67a16.213,16.213,0,0,0,1.92-.78l.9,2.28a68.966,68.966,0,0,0-9,2.91c-5.13,2-7.35,4-7.35,6.51,0,2.73,2.31,3.78,8.19,3.78a29.815,29.815,0,0,0,8.58-1l.23,2.49a15.425,15.425,0,0,0-2.21.18,60.191,60.191,0,0,1-6.63.39,20.431,20.431,0,0,1-6.66-.81c-2.46-.9-3.72-2.55-3.72-4.92a6.492,6.492,0,0,1,2.67-5.1,18.654,18.654,0,0,1,3.93-2.43,61.177,61.177,0,0,1-2.19-8.4,10.055,10.055,0,0,0-.51-1.89Z"/><path class="cls-1" d="M584.25,147.02c-.36,7.77-2.88,11.43-9.66,14.07a5.252,5.252,0,0,0-1.41-1.95c6.21-2.07,8.55-5.28,8.79-12.12h-8.13a23.672,23.672,0,0,0-3.45.15v-2.22a19.856,19.856,0,0,0,3.48.18h17.55a19.659,19.659,0,0,0,3.48-.18v2.22a23.672,23.672,0,0,0-3.45-.15Zm-10.83-9.51a15.577,15.577,0,0,0,3.45.21h9.06a27.231,27.231,0,0,0,3.45-.15v2.16q-.59,0-3.42-.09h-9.12a20.8,20.8,0,0,0-3.42.15ZM591,134.99a23.339,23.339,0,0,1,2.94,4.74l-1.53.84a22.866,22.866,0,0,0-2.91-4.86Zm3.69-1.14a24.96,24.96,0,0,1,2.94,4.74l-1.53.84a23.521,23.521,0,0,0-2.91-4.83Z"/><path class="cls-1" d="M618.68,142.7v-2.91a21.123,21.123,0,0,0-.09-3.06h2.34a22.987,22.987,0,0,0-.12,2.85v3.15h2.58a20.5,20.5,0,0,0,3.51-.18v2.24a24.084,24.084,0,0,0-3.48-.15h-2.64c0,5.79-.36,8-1.47,10.17-1.62,3-4.32,5.1-8.37,6.48a5.367,5.367,0,0,0-1.35-1.89c3.93-1,7-3.33,8.16-6.36.66-1.8.84-3.6.9-8.4h-9.12v5a15.665,15.665,0,0,0,.12,2.43h-2.43a14.347,14.347,0,0,0,.12-2.52v-4.92h-2.52a24.084,24.084,0,0,0-3.48.15V142.5a20.6,20.6,0,0,0,3.51.18h2.49V139.2a14.642,14.642,0,0,0-.12-2.52h2.41a15.917,15.917,0,0,0-.12,2.43v3.57Zm5-7.89a23.843,23.843,0,0,1,2.13,4.92l-1.59.54a23.116,23.116,0,0,0-2.13-5Zm3.45-1a23.269,23.269,0,0,1,2.13,4.89l-1.56.54a24,24,0,0,0-2.1-4.92Z"/><path class="cls-1" d="M656.63,137.79a6.8,6.8,0,0,0-1.32,1.26,52.809,52.809,0,0,1-7,6v12.74a19.882,19.882,0,0,0,.15,3.18h-2.61a15.446,15.446,0,0,0,.19-3.12v-11.4a47.025,47.025,0,0,1-11.59,5.25,6.929,6.929,0,0,0-1.16-2,42.212,42.212,0,0,0,15.56-7.77,25.189,25.189,0,0,0,5.73-5.67Z"/><path class="cls-1" d="M666.91,157.49a26.114,26.114,0,0,0,8.73-2.31c5.79-2.58,9.81-7,12.24-13.35a5.989,5.989,0,0,0,1.83,1.77c-2.4,5.22-5.19,8.73-9.15,11.46-3.09,2.1-6.18,3.33-11.19,4.47a15.753,15.753,0,0,0-1.8.48Zm1.92-18.6a39.087,39.087,0,0,1,7.23,5.64l-1.56,1.86a33.149,33.149,0,0,0-7.14-5.88Z"/><path class="cls-1" d="M708,152.12c-1.74,4-3.51,5.76-5.67,5.76-2.85,0-5-3.12-5-7.32A12.179,12.179,0,0,1,709.4,138.273q.384,0,.768.017a11.611,11.611,0,0,1,8.25,3,10,10,0,0,1,2.91,7.32,10.921,10.921,0,0,1-6.87,10.35,23.212,23.212,0,0,1-4.56,1.38,4.766,4.766,0,0,0-1-2,18.022,18.022,0,0,0,5-1.41,9.058,9.058,0,0,0,5.31-8.4,7.91,7.91,0,0,0-4.77-7.53,8.622,8.622,0,0,0-3.48-.75A45.02,45.02,0,0,1,708,152.12Zm-3.69-10.47a10.367,10.367,0,0,0-4.89,8.94c0,2.88,1.26,5.1,2.88,5.1,1.26,0,2.46-1.41,3.75-4.35a41.217,41.217,0,0,0,2.73-11.1,9.469,9.469,0,0,0-4.47,1.41Z"/><path class="cls-1" d="M730.76,158.87a21.085,21.085,0,0,0,.18,3.36h-2.22a22.464,22.464,0,0,0,.18-3.36V139.22a25.934,25.934,0,0,0-.12-3.3,27.546,27.546,0,0,0,3.12.12h4.5a26.49,26.49,0,0,0,3.06-.12c-.06.84-.09,1.74-.09,2.85v3.27a24.323,24.323,0,0,0,.09,2.76c-.84-.06-1.77-.09-3-.09h-5.67Zm0-19.23h6.87v-2.19h-6.9Zm0,3.66h6.87v-2.28h-6.9Zm11.19,10.86a11.3,11.3,0,0,0,6.66,4.2,7.008,7.008,0,0,0-.9,1.68,18.1,18.1,0,0,0,2.61.21c.81,0,1-.18,1-.87V144.71h-6.21a29.626,29.626,0,0,0-3.06.09c.06-.78.09-1.68.09-2.76v-3.25a28.1,28.1,0,0,0-.09-2.85,26.49,26.49,0,0,0,3.06.12h5.07a27.61,27.61,0,0,0,3.15-.12,28.411,28.411,0,0,0-.15,3.3v20.25c0,2-.51,2.49-2.91,2.49-.84,0-1.83-.06-2.82-.12a5.656,5.656,0,0,0-.45-1.89,5.628,5.628,0,0,0,.66.09,13.157,13.157,0,0,1-6.9-5c-1.14,2.88-3,4.41-7.32,6a4.49,4.49,0,0,0-1.11-1.56,12.672,12.672,0,0,0,5.31-2.55,6,6,0,0,0,1.68-2.73h-3.69a17.3,17.3,0,0,0-2.73.15V152.6a15.285,15.285,0,0,0,2.67.15h4.2a18.931,18.931,0,0,0,.18-2.67h-3.81a19.389,19.389,0,0,0-2.55.12v-1.71a13.948,13.948,0,0,0,2.55.15h1.49a15.09,15.09,0,0,0-1.83-2.52l1.53-.63a22.885,22.885,0,0,1,2.1,3.15h3.06a15.37,15.37,0,0,0,1.8-3.18l1.68.51a23.7,23.7,0,0,1-1.68,2.67H746a14.5,14.5,0,0,0,2.55-.15v1.71a19.571,19.571,0,0,0-2.55-.12h-4.37a18.1,18.1,0,0,1-.24,2.67h5.1a15.684,15.684,0,0,0,2.67-.15v1.77a16.249,16.249,0,0,0-2.7-.15Zm2-14.52h7.44v-2.19h-7.46Zm0,3.66h7.44v-2.28h-7.46Z"/><path class="cls-1" d="M4.49,206.66c0-1.47,0-2.7.12-4.44a18.855,18.855,0,0,1-2.64,4.14A18.332,18.332,0,0,0,.8,204.68a25.719,25.719,0,0,0,5-8.49,19.971,19.971,0,0,0,1.14-4.2l2.1.54A8.97,8.97,0,0,0,8.53,194a45.976,45.976,0,0,1-2.16,5.4v16.32a30.546,30.546,0,0,0,.12,3.72H4.31a30.125,30.125,0,0,0,.18-3.69Zm9.72,3.54a21.108,21.108,0,0,1-4.65,7.5,6.3,6.3,0,0,0-1.59-1.17,14.208,14.208,0,0,0,2.61-3,15.878,15.878,0,0,0,1.89-4.05Zm-6.18-3.75a22.7,22.7,0,0,0,2.88.12h2.55a26.913,26.913,0,0,0,2.52-2.19,40.666,40.666,0,0,0-6.3-4.44l1.08-1.38c1.14.69,1.47.9,2.31,1.47a17.4,17.4,0,0,0,3.09-3.72c-2.16.27-3.87.45-6.09.57a4.589,4.589,0,0,0-.69-1.74c6.33-.15,14.43-1.44,16.35-2.55l1.26,1.65-1.68.42a67.4,67.4,0,0,1-6.68,1.29,34.016,34.016,0,0,1-4.2,5c1.14.81,1.71,1.23,2.85,2.19a28.559,28.559,0,0,0,5.1-6.3l1.89,1a26.5,26.5,0,0,0-1.71,2.1,58.351,58.351,0,0,1-6.51,6.54c5.16-.18,5.7-.21,8.64-.51a38.887,38.887,0,0,0-2.64-3.12l1.44-.78a36.138,36.138,0,0,1,5,6.57l-1.62,1c-.57-1.08-.78-1.44-1.2-2.16-2.22.21-2.22.21-6.93.51v8.31a22.532,22.532,0,0,0,.18,3.18H16.63a22.877,22.877,0,0,0,.18-3.15v-8.25c-2.49.15-4.89.24-7.2.3a8.962,8.962,0,0,0-1.35.09Zm15.18,2.91a22.492,22.492,0,0,0,2.61,4.35,18.837,18.837,0,0,0,2.52,2.73c-.54.39-1,.78-1.56,1.23a28.311,28.311,0,0,1-5.15-7.47Z"/><path class="cls-1" d="M32.72,205.79a26.083,26.083,0,0,0,1.47-7.86l1.59.27a33.036,33.036,0,0,1-1.5,8.22Zm3.91,13.65a24.88,24.88,0,0,0,.21-3.45V195.08a19.81,19.81,0,0,0-.21-3h2.3a19.064,19.064,0,0,0-.21,3v21a22.074,22.074,0,0,0,.21,3.33Zm4.17-17.07a15.452,15.452,0,0,0-1.3-4.58l1.38-.54a24,24,0,0,1,1.38,4.54Zm4.5-1.92a22.537,22.537,0,0,1-2.7,5.61,11.7,11.7,0,0,0-1.68-.93,20.762,20.762,0,0,0,3.57-8.55,13.947,13.947,0,0,0,.27-2.34l2.07.42a11.536,11.536,0,0,0-.48,2c-.15.75-.3,1.29-.51,2.1h3.79v-3.6a19.555,19.555,0,0,0-.21-3h2.31a18.712,18.712,0,0,0-.21,3v3.63h4.65a18.356,18.356,0,0,0,3.09-.18v2.07a27.149,27.149,0,0,0-3.07-.18H51.56v6.24h4.07a20.064,20.064,0,0,0,3-.18v2a21.151,21.151,0,0,0-3.06-.18h-4v7.89h5.06a23.974,23.974,0,0,0,3.28-.18v2.13a21.676,21.676,0,0,0-3.28-.21H44.33a21.674,21.674,0,0,0-3.27.21v-2.13a23.828,23.828,0,0,0,3.27.18h5.3v-7.89h-3.3a21.439,21.439,0,0,0-3.06.18v-2a18.637,18.637,0,0,0,2.91.18h3.45V200.5Z"/><path class="cls-1" d="M74.14,196.91a12.736,12.736,0,0,0,1.49-4.12l2.4.42a6.372,6.372,0,0,0-.78,1.62,14.053,14.053,0,0,1-.93,2,5.093,5.093,0,0,1,.63,0c4.8-.24,7.8-.6,9.45-1.14l.18,2a9.3,9.3,0,0,0-1.2.15,97.012,97.012,0,0,1-9.9.78,22.157,22.157,0,0,1-2.7,4.26c-.3.36-.9,1.05-1,1.14s-.36.27-.39.3h0a.237.237,0,0,0,.06.09,8.3,8.3,0,0,1,1.38-1,8,8,0,0,1,4.53-1.47,3.641,3.641,0,0,1,3.993,3.249c0,.027.005.054.007.081,2.19-.87,3.9-1.5,5.22-2a6.6,6.6,0,0,0,2-.87l1,2.1a49.9,49.9,0,0,0-8,2.64c.06.78.06,1.08.06,1.83v3a6.5,6.5,0,0,0,.06,1.08h-2q.2-2.154.18-4.32a7.948,7.948,0,0,0,0-.9c-4.08,1.92-5.64,3.33-5.64,5.13,0,2,1.86,2.85,6.09,2.85a25.147,25.147,0,0,0,8-1.17l.27,2.31c-.4.03-.8.08-1.2.15a46.476,46.476,0,0,1-7.29.6c-5.37,0-8-1.53-8-4.62,0-1.65,1-3.21,3.06-4.74a23.314,23.314,0,0,1,4.47-2.4c-.24-1.65-1-2.37-2.37-2.37-1.89,0-4.26,1.11-6.69,3.18a9.936,9.936,0,0,0-2.31,2.49l-1.68-1.68a29.83,29.83,0,0,0,6.72-8.58l.27-.45a3.413,3.413,0,0,1-.57.06l-4.41-.09h-.48a5.191,5.191,0,0,0-.66,0v-2.07a42,42,0,0,0,6.42.33Z"/><path class="cls-1" d="M96.18,197.15a12.855,12.855,0,0,0,2.4.15h4.68a11.906,11.906,0,0,0,2.4-.15v1.95a13.369,13.369,0,0,0-2.19-.12H98.63a17.493,17.493,0,0,0-2.4.12Zm1,21.9c.09-1,.15-2,.15-2.91V212a20.979,20.979,0,0,0-.12-2.43,9.353,9.353,0,0,0,1.92.12h4.23a11.058,11.058,0,0,0,1.8-.09,13.457,13.457,0,0,0-.09,2.34v3.42a19.63,19.63,0,0,0,.06,2c-1-.06-1.35-.06-1.77-.06H99.03v1.77Zm0-17.76a11.945,11.945,0,0,0,2,.12h3.81a11.155,11.155,0,0,0,2-.12v1.83a12.161,12.161,0,0,0-2-.12H99.18a12.385,12.385,0,0,0-2,.12Zm0,4.14a11.945,11.945,0,0,0,2,.12h3.81a11.536,11.536,0,0,0,2-.12v1.83a12.617,12.617,0,0,0-2-.12H99.18a12.161,12.161,0,0,0-2,.12Zm.06-12.45a11,11,0,0,0,2.16.15h3.51a11.24,11.24,0,0,0,2.16-.15v1.89a14.713,14.713,0,0,0-2.16-.12H99.4a15.287,15.287,0,0,0-2.16.12Zm1.77,22.74h4.38v-4.53H99.03Zm13.62-8.34c-.06.36-.09.78-.12,1.26-.27,3.78-.69,5.43-1.92,7.2a10.4,10.4,0,0,1-4.5,3.6,4.634,4.634,0,0,0-1.29-1.56,9.786,9.786,0,0,0,3.69-2.34,6.836,6.836,0,0,0,1.68-3.09,14.841,14.841,0,0,0,.51-3.75,6.667,6.667,0,0,0-.12-1.41Zm8.43,1.8v-3.54H107.85v3.54h-1.86a14.336,14.336,0,0,0,.12-1.92v-1.38a10.973,10.973,0,0,0-.12-2c.42,0,.6.06.81.06h13.04a22.377,22.377,0,0,0,3.18-.15,18.106,18.106,0,0,0-.09,1.92v1.65a13.772,13.772,0,0,0,.09,1.77Zm-12.04-12.39a19.8,19.8,0,0,0-2.91.18v-2a19.055,19.055,0,0,0,3,.18h4.14v-.81a14.539,14.539,0,0,0-.18-2.43h2.13a14.121,14.121,0,0,0-.18,2.49v.75h5.1a19.932,19.932,0,0,0,3-.18v2a19.4,19.4,0,0,0-2.94-.18h-5.19v3.12h3.93a18.747,18.747,0,0,0,2.88-.18v1.95a18.747,18.747,0,0,0-2.88-.18h-9.18a19,19,0,0,0-2.88.18v-1.89a18.5,18.5,0,0,0,2.88.18h3.48v-3.18Zm8.43,10.56a14.559,14.559,0,0,0-.18,2.52v6.48c0,.63.3.75,1.92.75,1.23,0,1.74-.18,2-.66a14.119,14.119,0,0,0,.51-3.9,5.3,5.3,0,0,0,1.77.78c-.42,5-.81,5.52-4.38,5.52-2.94,0-3.6-.36-3.6-2.07v-6.9a14.759,14.759,0,0,0-.18-2.52Z"/><path class="cls-1" d="M132.44,194.66a14.462,14.462,0,0,0,2.91.18c1.65,0,4.05-.09,5-.21a2.207,2.207,0,0,0,1.11-.36l1.59,1.26c-.39.54-.45.72-1.65,4.35-.66,2-.87,2.61-1.41,4.2a23.516,23.516,0,0,1,8.19,2.37,34,34,0,0,0,.36-6.09,7.247,7.247,0,0,0-.12-1.47h2.25a11.375,11.375,0,0,0-.04,1.9,41.031,41.031,0,0,1-.54,6.51c1.62.84,2.64,1.38,4.11,2.25a5.553,5.553,0,0,0,.87.45l-.81,2.31a34.6,34.6,0,0,0-4.68-3,14.168,14.168,0,0,1-3.09,5.43,16.214,16.214,0,0,1-4.77,3.66,7.709,7.709,0,0,0-1.59-1.56,13.2,13.2,0,0,0,4.86-3.45,11.674,11.674,0,0,0,2.76-5,22.106,22.106,0,0,0-8.28-2.49,56.725,56.725,0,0,1-2.82,7.23c-1.08,2.07-2.19,3-3.63,3-2.25,0-4-2.13-4-4.92a6.74,6.74,0,0,1,3.57-5.94,9.828,9.828,0,0,1,5.4-1.29c1-2.94,1.35-4.08,2.4-7.56-2.37.18-2.82.21-5.66.3a16.516,16.516,0,0,0-2.2.15Zm0,13a5,5,0,0,0-1.44,3.45c0,1.59.88,2.85,2,2.85s2.24-1.86,4.43-8.25a7.278,7.278,0,0,0-4.99,1.97Z"/><path class="cls-1" d="M169.25,199.55a19.147,19.147,0,0,0,2.76-.15,20.522,20.522,0,0,0-.12,2.67v14.64c0,1.65-.57,2-3,2-.42,0-.63,0-2.31-.09a5.669,5.669,0,0,0-.36-1.83,25.547,25.547,0,0,0,2.79.24c.93,0,1.17-.12,1.17-.63v-5h-7.11a19.542,19.542,0,0,1-1.8,7.68,5.891,5.891,0,0,0-1.68-1.2,13.327,13.327,0,0,0,1.74-6.09c.18-2,.24-3.87.24-8.91v-2.31c-.27.36-.39.51-.78,1a4.675,4.675,0,0,0-1.41-1.2,18.618,18.618,0,0,0,4.35-6.63,12.783,12.783,0,0,0,.6-2l1.89.45c-.12.24-.15.3-.36.81-.3.75-.48,1.14-.51,1.2h2.85a9.253,9.253,0,0,0,1.68-.09l.9,1A15.09,15.09,0,0,0,169.7,197c-.33.72-1,1.86-1.38,2.52Zm-2.82,0a35.449,35.449,0,0,0,2-3.75h-3.8a27.852,27.852,0,0,1-2.25,3.72h2.16Zm-.48,10.29v-3.72h-2.67c0,2.34,0,2.34-.09,3.72Zm-2.64-8.7v3.47h2.67v-3.45Zm6.9,0h-2.7v3.45h2.7Zm0,5h-2.7v3.72h2.7Zm5.42-11.09a16.377,16.377,0,0,0-2.85.18v-1.92a18.136,18.136,0,0,0,3,.18h6.85a23.551,23.551,0,0,0,2.76-.12c-.06.48-.06.57-.12,1.14-.12,1.56-.33,3.3-.54,4.41-.39,2.07-1,2.61-2.79,2.61a22.369,22.369,0,0,1-2.76-.21,6.194,6.194,0,0,0-.36-1.77,13.654,13.654,0,0,0,2.67.36c.87,0,1.17-.18,1.35-.84a20.692,20.692,0,0,0,.57-4h-4.38a9.46,9.46,0,0,1-1.29,3.75c-.93,1.59-1.89,2.46-4.17,3.84a4.934,4.934,0,0,0-1.23-1.47,8.91,8.91,0,0,0,3.78-3.12,6.513,6.513,0,0,0,1-3Zm0,12a12.022,12.022,0,0,1-1.41,2.76,5.857,5.857,0,0,0-1.62-.81,11.876,11.876,0,0,0,2.19-4.59,5.716,5.716,0,0,0,.3-1.44l1.83.42c-.51,1.5-.51,1.5-.69,2h2.79v-.75a14.833,14.833,0,0,0-.18-2.4h2.07a19.259,19.259,0,0,0-.15,2.4v.75h2.28a14.627,14.627,0,0,0,2.82-.18v2a17.261,17.261,0,0,0-2.82-.15h-2.28v3.63h3.09a19,19,0,0,0,2.82-.18v2a21.09,21.09,0,0,0-2.73-.12h-3.18v4.14a16.8,16.8,0,0,0,.18,2.67h-2.1a17.287,17.287,0,0,0,.18-2.67v-4.14h-3.75a16.86,16.86,0,0,0-2.58.15v-2a16.524,16.524,0,0,0,2.61.18h3.72v-3.63Z"/><path class="cls-1" d="M194.38,197.69c.72.06,1.23.09,2.25.09a59.28,59.28,0,0,0,7.11-.42,38.75,38.75,0,0,0-1.8-4.11l2.25-.39a24.948,24.948,0,0,0,1.59,4.23,37.964,37.964,0,0,0,8-2l.18,1.95c-2.67.72-5.88,1.41-7.56,1.68.45,1,1.26,2.58,1.71,3.39,4-.81,5.64-1.26,6.87-1.86l.24,2c-.51.12-.63.12-1.62.39-2.1.54-3.6.87-4.71,1.08a35.116,35.116,0,0,0,4.41,6l-1.77,1.26a8.14,8.14,0,0,0-3.3-1.14,30.4,30.4,0,0,0-3.93-.27c-4.32,0-7.11,1.35-7.11,3.42s2.28,3.06,6.39,3.06c3.12,0,7.08-.9,8.88-2l.42,2.34a17.49,17.49,0,0,0-1.8.51,26.143,26.143,0,0,1-7.68,1.11,12.108,12.108,0,0,1-6.17-1.22,4.189,4.189,0,0,1-2.25-3.72c0-3.24,3.45-5.19,9.15-5.19a18,18,0,0,1,6.06.87,27.471,27.471,0,0,1-3.21-4.62,62.443,62.443,0,0,1-10.53.87c-1.44.06-1.56.06-2.1.12l-.06-2a23.447,23.447,0,0,0,2.4.09,59.7,59.7,0,0,0,9.45-.75,37.587,37.587,0,0,1-1.71-3.42,63.781,63.781,0,0,1-8.1.54,16.511,16.511,0,0,0-1.86.09Z"/><path class="cls-1" d="M233.73,193.1a9.4,9.4,0,0,0-.48,1.92c-.21,1-.39,1.74-.81,3.27a25.017,25.017,0,0,0,5.37-1l.09,2.07-1,.18a36.213,36.213,0,0,1-4.92.63,55.955,55.955,0,0,1-3.33,8.76c-.72,1.44-1,2-2.13,3.93-.27.42-.45.78-.6,1l-2-1.2a26.448,26.448,0,0,0,2.88-4.68,44.968,44.968,0,0,0,3.12-7.74c-.75,0-1.77.06-2.22.06h-3.07v-2.07a19.051,19.051,0,0,0,3.57.24h2.16a30.92,30.92,0,0,0,1-5.64Zm14.25,23.28a17.169,17.169,0,0,0-5.25-4.08,6.2,6.2,0,0,1,.06,1c0,3.09-2,4.8-5.7,4.8s-5.85-1.68-5.85-4.35a4.25,4.25,0,0,1,2.79-3.81,8.783,8.783,0,0,1,3.54-.66,9.909,9.909,0,0,1,3,.45c-.15-1.95-.21-3.36-.21-4.11a12.121,12.121,0,0,1,.3-2.91l2,.21a9.219,9.219,0,0,0-.39,2.79,35.845,35.845,0,0,0,.33,4.56,21.572,21.572,0,0,1,5.88,3.63,3.008,3.008,0,0,0,.54.48Zm-10.56-5.37c-2.55,0-4.17,1-4.17,2.7s1.44,2.46,3.81,2.46c2.58,0,3.75-1,3.75-3.27,0-.36-.06-1.29-.06-1.29a8.9,8.9,0,0,0-3.33-.6Zm10.53-8.16a32.551,32.551,0,0,0-7.95-4.08l1.11-1.68a41.355,41.355,0,0,1,7.92,4Z"/><path class="cls-1" d="M255.39,200.63a61.525,61.525,0,0,0,6.63-.78,36.977,36.977,0,0,0,.9-6.36v-.39l2.4.27a18.434,18.434,0,0,0-.57,2.88c-.12.75-.39,2.13-.63,3.42a17.439,17.439,0,0,1,1.77-.09c2.13,0,3.39.36,4.32,1.26s1.47,2.37,1.47,4.83c0,4.59-.79,8.58-2,10.32a3.128,3.128,0,0,1-2.94,1.41,11.285,11.285,0,0,1-4.53-1.17,6.726,6.726,0,0,0,.06-1.08,5.6,5.6,0,0,0-.09-1.17,11.222,11.222,0,0,0,4.47,1.38q1.13,0,1.71-1.44a23.2,23.2,0,0,0,1.26-8.34c0-3.18-.9-4.2-3.69-4.2a17.342,17.342,0,0,0-2.16.15,58.258,58.258,0,0,1-6.48,16.32l-2-1.2c2.49-3.27,5.07-9.27,6.42-14.94a39.022,39.022,0,0,0-6,1.08Zm19.71-2.76a27.6,27.6,0,0,1,6.27,10.62l-1.92,1.08a25.335,25.335,0,0,0-6.12-10.78Zm1.35-5.1a22.736,22.736,0,0,1,3.09,4.65l-1.5.9a23,23,0,0,0-3.09-4.77Zm3.39-1.62a24.1,24.1,0,0,1,3.09,4.64l-1.5.87a21.743,21.743,0,0,0-3.06-4.71Z"/><path class="cls-1" d="M294.08,198.79a25.084,25.084,0,0,0-.69,3.3c-.72,4.35-.78,4.56-.87,5.25a3.678,3.678,0,0,1-.12.69h.06a8.323,8.323,0,0,1,.93-.9,14.844,14.844,0,0,1,8.67-2.58c4.89,0,8,2.28,8,5.79a6.409,6.409,0,0,1-2.7,5.16,12.45,12.45,0,0,1-7.47,2,24.966,24.966,0,0,1-5.25-.54l-2.4-.6a4.927,4.927,0,0,0,0-.57,6.939,6.939,0,0,0-.21-1.86,21.3,21.3,0,0,0,7.65,1.5c4.95,0,8.1-2,8.1-5,0-2.46-2.16-3.9-5.82-3.9a14.529,14.529,0,0,0-8.4,2.61,5.21,5.21,0,0,0-1.2,1.23l-2.34-.06c.09-.54.12-.81.24-1.77.3-2.28.84-5.76,1.26-8.28a10.137,10.137,0,0,0,.21-1.59Zm1.32-5.22a36.189,36.189,0,0,0,10.17,3.33l-.84,2.1a46.3,46.3,0,0,1-5.85-1.71,33.351,33.351,0,0,1-4.59-1.89Z"/><path class="cls-1" d="M318.44,211.13a30.583,30.583,0,0,1,6,6.36l-1.68,1.59a29.952,29.952,0,0,0-5.91-6.54Z"/><path class="cls-1" d="M358.25,196.01a16,16,0,0,0,1.62-4.2l2.16.39a31.79,31.79,0,0,1-1.71,3.81h7.23a29.732,29.732,0,0,0,3.63-.15,28.879,28.879,0,0,0-.15,3.72v16a19.287,19.287,0,0,0,.18,3.48h-2.1v-1.77H353.27v1.77H351.2a24.505,24.505,0,0,0,.18-3.51V199.58a30.4,30.4,0,0,0-.15-3.72,28.28,28.28,0,0,0,3.54.15Zm-5,6.36h15.87v-4.58H353.27Zm0,6.48h15.87v-4.74H353.27Zm0,6.63h15.87v-4.89H353.27Z"/><path class="cls-1" d="M383.63,201.68a14.726,14.726,0,0,1,3.15,2.61,19.266,19.266,0,0,0,1.8-2.46,13.3,13.3,0,0,0-3.21-2.37l.93-1.26a13.731,13.731,0,0,1,3.09,2.25,19.742,19.742,0,0,0,1.56-4h-4.77a20.289,20.289,0,0,1-5.58,6.93,5.921,5.921,0,0,0-1.26-1.35,16.21,16.21,0,0,0,5.4-6.6,9.923,9.923,0,0,0,1-3.24l2,.39a11.516,11.516,0,0,0-.66,1.65c-.09.21-.12.33-.24.63h2.7a17.025,17.025,0,0,0,2.28-.12l1.08,1a27.389,27.389,0,0,1-2.7,6.69,22,22,0,0,1-5.43,6.24,23.66,23.66,0,0,1-4,2.49,4.182,4.182,0,0,0-1.23-1.5,19,19,0,0,0,6.06-4.08,12.177,12.177,0,0,0-3.09-2.64Zm-3.9,16.53a14.052,14.052,0,0,0,2.61-3.15,12.4,12.4,0,0,0,1.53-3.48l1.68.81a17.793,17.793,0,0,1-4.2,7.11Zm9.51.9a30.6,30.6,0,0,0-.93-6.84l1.74-.27a34.994,34.994,0,0,1,1.14,6.84Zm9.39-18.32a13.645,13.645,0,0,0,2.31,4.2,16.587,16.587,0,0,0,5.34,4.32,5.327,5.327,0,0,0-1.14,1.71,17.234,17.234,0,0,1-7.59-8.82,14.807,14.807,0,0,1-2.19,4.41,14,14,0,0,1-4.93,4.18,5.8,5.8,0,0,0-1.26-1.5,11.629,11.629,0,0,0,5.52-4.83,13.6,13.6,0,0,0,1.41-3.6h-1.05a18.187,18.187,0,0,0-2.76.15v-2a21.219,21.219,0,0,0,2.76.15h1.38a31.119,31.119,0,0,0,.2-4.37,13.142,13.142,0,0,0-.18-2.25h2.22a10.066,10.066,0,0,0-.18,2.4,31.511,31.511,0,0,1-.3,4.23h4.44a20.071,20.071,0,0,0,2.94-.18v2a19.131,19.131,0,0,0-2.85-.18Zm-2.4,18a25.989,25.989,0,0,0-2.19-6.57l1.68-.45a35.016,35.016,0,0,1,2.4,6.54Zm4.89-25.68a22.877,22.877,0,0,1,3.06,3.63l-1.38,1a15.145,15.145,0,0,0-3.06-3.78Zm3.27,26a27.981,27.981,0,0,0-4.32-6.72l1.47-1a34.412,34.412,0,0,1,4.56,6.6Z"/><path class="cls-1" d="M417.73,194.18a12.08,12.08,0,0,0,.57,1.83c.59,1.77.89,2.61,1.31,4a53.327,53.327,0,0,1,6.45-1.68,41.641,41.641,0,0,0-.12-5.31h2.25a28.424,28.424,0,0,0-.15,4v1a15.146,15.146,0,0,1,2.25-.18c4,0,6.6,2.16,6.6,5.52,0,3.6-2.94,6.18-7.05,6.18a12.619,12.619,0,0,1-5.06-1.11v-.54a11.546,11.546,0,0,0-.18-1.71,10.2,10.2,0,0,0,5,1.38,6.081,6.081,0,0,0,3.6-1.17,3.637,3.637,0,0,0,1.44-3.06c0-2.28-1.77-3.63-4.8-3.63-2.19,0-5.43.72-9.78,2.13,1.53,5.1,2.61,9.33,3.87,15a9.488,9.488,0,0,0,.39,1.29l-2.43.54c-.15-2.46-1.83-9.69-3.78-16.2a11.528,11.528,0,0,1-1.62.54,28.829,28.829,0,0,0-4.1,1.65l-.79-2.13a32,32,0,0,0,4.41-1.41c.75-.27,1-.33,1.54-.48a30.088,30.088,0,0,0-2.16-5.7Z"/><path class="cls-1" d="M463.83,199.04a27.4,27.4,0,0,1-1.83,4.92,25.034,25.034,0,0,1-4.41,6.42,26.506,26.506,0,0,0,5.43,3.87,27.821,27.821,0,0,0,7,2.73,5.73,5.73,0,0,0-1.32,2,31.2,31.2,0,0,1-12.45-7.2,32.255,32.255,0,0,1-12.62,7.15,5.81,5.81,0,0,0-1.26-1.86,29.519,29.519,0,0,0,12.45-6.66,26.366,26.366,0,0,1-3.63-4.92,26.729,26.729,0,0,1-2.79-6.45h-2.22a24.06,24.06,0,0,0-3.33.18v-2.13a20.861,20.861,0,0,0,3.36.21h8.61v-2.34a13.2,13.2,0,0,0-.21-2.58h2.4a12.678,12.678,0,0,0-.21,2.55v2.37h9.36a20.92,20.92,0,0,0,3.42-.21v2.13a22.733,22.733,0,0,0-3.36-.18Zm-13.35,0a22.573,22.573,0,0,0,2.46,5.73,25.434,25.434,0,0,0,3.27,4.29,23.356,23.356,0,0,0,5.43-10Z"/><path class="cls-1" d="M479.18,206.15c0-1.68,0-2.07.06-3.66a24.173,24.173,0,0,1-3.81,5,10.9,10.9,0,0,0-1.29-1.74,28.091,28.091,0,0,0,6.78-10.11,13.366,13.366,0,0,0,1-3.6l2.22.63c-.12.3-.12.3-.63,1.68-.27.69-1.29,3.09-2.4,5.58v15.76c0,1.17.06,2.4.18,3.63h-2.34a35.554,35.554,0,0,0,.21-3.72Zm10.11,9.06c0,1.05.45,1.2,3.93,1.2s4.56-.18,5-.72.78-2.25,1-5.49a6.846,6.846,0,0,0,2,.93c-.36,3.3-.78,5-1.41,5.88s-2.22,1.26-6.72,1.26c-5,0-5.79-.36-5.79-2.7V195.68a28.285,28.285,0,0,0-.18-3.24h2.34a23.4,23.4,0,0,0-.18,3.24v8.49a40.808,40.808,0,0,0,5.25-3.45,21.143,21.143,0,0,0,4.29-4.17l1.74,1.59c-.42.36-.42.36-1.83,1.65a47.859,47.859,0,0,1-9.45,6.57Z"/><path class="cls-1" d="M516.13,193.1a52.224,52.224,0,0,0,2.25,9.93c1.77-.72,2.61-1,7.26-2.67a16.213,16.213,0,0,0,1.92-.78l.9,2.28a68.966,68.966,0,0,0-9,2.91c-5.13,2-7.35,4-7.35,6.51,0,2.73,2.31,3.78,8.19,3.78a29.815,29.815,0,0,0,8.58-1l.24,2.49a15.576,15.576,0,0,0-2.22.18,60.191,60.191,0,0,1-6.63.39,20.431,20.431,0,0,1-6.66-.81c-2.46-.9-3.72-2.55-3.72-4.92a6.492,6.492,0,0,1,2.67-5.1,18.679,18.679,0,0,1,3.93-2.43,61.177,61.177,0,0,1-2.19-8.4,10.055,10.055,0,0,0-.51-1.89Z"/><path class="cls-1" d="M549.79,209.12c-1.74,4-3.51,5.76-5.67,5.76-2.85,0-5-3.12-5-7.32a12.179,12.179,0,0,1,12.072-12.287q.384,0,.768.017a11.611,11.611,0,0,1,8.25,3,10,10,0,0,1,2.91,7.32,10.921,10.921,0,0,1-6.87,10.35,23.212,23.212,0,0,1-4.56,1.38,4.774,4.774,0,0,0-1.05-2,18.022,18.022,0,0,0,5-1.41,9.06,9.06,0,0,0,5.31-8.4,7.92,7.92,0,0,0-4.77-7.53,8.622,8.622,0,0,0-3.48-.75A45.02,45.02,0,0,1,549.79,209.12Zm-3.69-10.47a10.367,10.367,0,0,0-4.89,8.94c0,2.88,1.26,5.1,2.88,5.1,1.26,0,2.46-1.41,3.75-4.35a41.217,41.217,0,0,0,2.73-11.1,9.469,9.469,0,0,0-4.47,1.41Z"/><path class="cls-1" d="M576.75,195.62a16.314,16.314,0,0,0-.21-3.09h2.34a19.958,19.958,0,0,0-.18,3.09v2.79h7.86v-2.73a18.093,18.093,0,0,0-.18-3.12h2.37a18.577,18.577,0,0,0-.21,3.09v2.76h3.21a23.474,23.474,0,0,0,3.18-.18v2.13a26.805,26.805,0,0,0-3.18-.15h-3.21v7.58h3.9a28.5,28.5,0,0,0,3.6-.21v2.25a29.472,29.472,0,0,0-3.6-.21H572.97a28.119,28.119,0,0,0-3.48.21v-2.24a22.751,22.751,0,0,0,3.48.21h3.78v-7.59h-2.91a20.326,20.326,0,0,0-3,.15v-2.13a21.807,21.807,0,0,0,3,.18h2.91Zm3.21,16.53a23.3,23.3,0,0,1-4.83,4.64,22.559,22.559,0,0,1-4.11,2.34,5.661,5.661,0,0,0-1.39-1.64,19.989,19.989,0,0,0,4.86-2.58,15.464,15.464,0,0,0,3.78-3.87Zm6.6-4.35v-7.59H578.7v7.58Zm.45,3.21a15,15,0,0,0,4,4,24.545,24.545,0,0,0,4.86,2.58,5.875,5.875,0,0,0-1.41,1.74,24.985,24.985,0,0,1-5.19-3.15,26.356,26.356,0,0,1-4-4Z"/><path class="cls-1" d="M606.71,200.3a28.409,28.409,0,0,1-4.11,6.42,5.891,5.891,0,0,0-1.71-1.26,24.559,24.559,0,0,0,5.37-9.21,8.987,8.987,0,0,0,.66-2.82l2.25.6a12.182,12.182,0,0,0-.6,1.59c-.09.27-.45,1.26-1.08,2.91h6.3v-3.18a21.678,21.678,0,0,0-.21-3.18h2.43a20.14,20.14,0,0,0-.21,3.18v3.18h7.38a28.309,28.309,0,0,0,3.42-.18v2.13a29.1,29.1,0,0,0-3.39-.18H615.8v6.49h6.06a21.008,21.008,0,0,0,3.21-.18v2.1a22.657,22.657,0,0,0-3.21-.18H615.8v7.86h8.37a23.025,23.025,0,0,0,3.54-.21v2.19a24.234,24.234,0,0,0-3.51-.21H604.91a24.354,24.354,0,0,0-3.54.21v-2.19a23.143,23.143,0,0,0,3.51.21h8.91v-7.9H608.3a22.237,22.237,0,0,0-3.18.18v-2.1a20.872,20.872,0,0,0,3.18.18h5.49V200.3Z"/><path class="cls-1" d="M644.71,209.12c-1.73,4-3.51,5.76-5.66,5.76-2.86,0-5-3.12-5-7.32a12.2,12.2,0,0,1,12.113-12.287c.242,0,.485,0,.727.017a11.611,11.611,0,0,1,8.25,3,10,10,0,0,1,2.91,7.32,10.921,10.921,0,0,1-6.87,10.35,23.212,23.212,0,0,1-4.56,1.38,4.766,4.766,0,0,0-1-2,18.022,18.022,0,0,0,5-1.41,9.058,9.058,0,0,0,5.31-8.4,7.91,7.91,0,0,0-4.77-7.53,8.622,8.622,0,0,0-3.48-.75A45,45,0,0,1,644.71,209.12Zm-3.69-10.47a10.369,10.369,0,0,0-4.88,8.94c0,2.88,1.25,5.1,2.87,5.1,1.26,0,2.47-1.41,3.75-4.35a41.217,41.217,0,0,0,2.73-11.1,9.469,9.469,0,0,0-4.47,1.41Z"/><path class="cls-1" d="M666.7,204.98a20.028,20.028,0,0,0,5.37,1.2c.15-1.47.45-3.81.69-5.4a39.841,39.841,0,0,1-4.47-.81l-.93-.21.27-2a19.372,19.372,0,0,0,5.4,1.17,47.132,47.132,0,0,0,.72-5.64v-.24l2.4.27a15.4,15.4,0,0,0-.48,2,10.659,10.659,0,0,1-.3,1.92c-.09.66-.15,1-.3,1.8h1.74a24.394,24.394,0,0,0,5.49-.51l-.09,2.07-2.1.18c-.93.09-1.83.12-2.7.12-.48,0-1,0-2.64-.06-.48,3.45-.51,3.75-.69,5.43h2a26.281,26.281,0,0,0,5.52-.48l-.06,2-.81.06a34.761,34.761,0,0,1-4.23.24c-.75,0-1.23,0-2.58-.06a5.459,5.459,0,0,1,0,.6c-.06.72-.12,1.71-.12,2.22a4.431,4.431,0,0,0,1.38,3.6,6.313,6.313,0,0,0,4.23,1.29c4,0,6.63-2.07,6.63-5.25,0-1.89-.93-3.57-2.85-5.22a5.934,5.934,0,0,0,2.19-.6c2.13,2.31,2.82,3.78,2.82,6,0,4.23-3.54,7.08-8.79,7.08-3.15,0-5.55-1.08-6.72-3a8.129,8.129,0,0,1-.93-4.14,15.906,15.906,0,0,1,.12-2,2.267,2.267,0,0,1,.06-.72,31.707,31.707,0,0,1-4.53-.75,3.112,3.112,0,0,0-.93-.18Z"/><path class="cls-1" d="M705.99,193.1a52.147,52.147,0,0,0,2.25,9.93c1.77-.72,2.61-1,7.26-2.67a16.213,16.213,0,0,0,1.92-.78l.9,2.28a68.966,68.966,0,0,0-9,2.91c-5.13,2-7.35,4-7.35,6.51,0,2.73,2.31,3.78,8.19,3.78a29.815,29.815,0,0,0,8.58-1l.24,2.49a15.576,15.576,0,0,0-2.22.18,60.191,60.191,0,0,1-6.63.39,20.431,20.431,0,0,1-6.66-.81c-2.46-.9-3.72-2.55-3.72-4.92a6.492,6.492,0,0,1,2.67-5.1,18.679,18.679,0,0,1,3.93-2.43,61.177,61.177,0,0,1-2.19-8.4,10.055,10.055,0,0,0-.51-1.89Z"/><path class="cls-1" d="M728.63,197.24h1.08a14.725,14.725,0,0,0,1.71-.09c1.68-.12,1.86-.15,5.55-.36l4.71-.3c3.69-.21,4.08-.24,5.07-.27l1.71-.06a20.264,20.264,0,0,0,3.57-.33l.18,2.22a12.573,12.573,0,0,0-3.36.42,14.767,14.767,0,0,0-5.76,3,9.17,9.17,0,0,0-3.69,6.93c0,2.52,1.53,4.53,4.2,5.55a15.381,15.381,0,0,0,4.5,1h.3l-.39,2.43c-.33-.06-.39-.09-.93-.18a15.131,15.131,0,0,1-6.48-2.31,7.261,7.261,0,0,1-3.33-6.12c0-3.48,2-6.78,5.61-9.21a19.664,19.664,0,0,1,2.85-1.59,61.352,61.352,0,0,1-6.6.66,99.711,99.711,0,0,0-10.35,1Zm20.07,4.47a22.736,22.736,0,0,1,3.09,4.65l-1.53.9a21.1,21.1,0,0,0-3.06-4.77Zm3.39-1.65a24.3,24.3,0,0,1,3.09,4.68l-1.5.84a23.706,23.706,0,0,0-3.06-4.71Z"/><path class="cls-1" d="M16.13,249.53a20.545,20.545,0,0,0-.15,2.67,38.971,38.971,0,0,0,.66,6.51,24.639,24.639,0,0,0,8.31,13.14,22.043,22.043,0,0,0,3.48,2.34,6.83,6.83,0,0,0-1.56,1.89,27.472,27.472,0,0,1-7.95-7.68,25.883,25.883,0,0,1-3.9-9.54,25.43,25.43,0,0,1-2.07,6.69,20.184,20.184,0,0,1-4.32,6.15,25.537,25.537,0,0,1-5.52,4.38,5.724,5.724,0,0,0-1.62-1.77,21.174,21.174,0,0,0,6.14-4.52c4.17-4.47,6.21-10.23,6.21-17.61a20.423,20.423,0,0,0-.12-2.64Z"/><path class="cls-1" d="M35.15,252.71a9.772,9.772,0,0,0,1.41.09c3.33,0,6.81-.42,7.92-1l1.26,1.89a13.9,13.9,0,0,0-3.51,3.24c-2.73,3.3-4.11,6.57-4.11,9.63a5.87,5.87,0,0,0,5.5,6.219c.137.009.274.012.411.011a6.821,6.821,0,0,0,6.18-4.11,15.412,15.412,0,0,0,1.08-6.24,24.714,24.714,0,0,0-1.86-9.65l2.16-.72a24.3,24.3,0,0,0,2.82,5.46,18.319,18.319,0,0,0,5.43,5.4L58.7,265l-.51-.45-.15-.12-.57-.51a21.673,21.673,0,0,1-5.43-7.2,19.231,19.231,0,0,1,1.19,6.84,15.291,15.291,0,0,1-1.17,6.12,8.57,8.57,0,0,1-8,5.22c-4.71,0-8-3.42-8-8.34a16.165,16.165,0,0,1,4-10,15.1,15.1,0,0,1,2.7-2.67,26.723,26.723,0,0,1-6.69.93,5.419,5.419,0,0,1-.57,0h-.3Zm19.47-3a22.736,22.736,0,0,1,3.09,4.65l-1.53.9a22.606,22.606,0,0,0-3.06-4.77Zm3.36-1.62a22.926,22.926,0,0,1,3.12,4.65l-1.5.87a24.245,24.245,0,0,0-3.06-4.71Z"/><path class="cls-1" d="M74.92,250.1a52.224,52.224,0,0,0,2.25,9.93c1.77-.72,2.61-1,7.26-2.67a16.213,16.213,0,0,0,1.92-.78l.9,2.28a68.966,68.966,0,0,0-9,2.91c-5.13,2-7.35,4-7.35,6.51,0,2.73,2.31,3.78,8.19,3.78a29.815,29.815,0,0,0,8.58-1l.24,2.49a15.576,15.576,0,0,0-2.22.18,60.205,60.205,0,0,1-6.63.39,20.431,20.431,0,0,1-6.66-.81c-2.46-.9-3.72-2.55-3.72-4.92a6.489,6.489,0,0,1,2.67-5.1,18.628,18.628,0,0,1,3.93-2.43,61.177,61.177,0,0,1-2.19-8.4,10.055,10.055,0,0,0-.51-1.89Z"/><path class="cls-1" d="M97.17,257.63a61.525,61.525,0,0,0,6.63-.78,36.977,36.977,0,0,0,.9-6.36v-.39l2.4.27a18.434,18.434,0,0,0-.57,2.88c-.12.75-.39,2.13-.63,3.42a17.439,17.439,0,0,1,1.77-.09c2.13,0,3.39.36,4.32,1.26s1.47,2.37,1.47,4.83c0,4.59-.78,8.58-2,10.32a3.129,3.129,0,0,1-2.94,1.41,11.285,11.285,0,0,1-4.53-1.17,6.726,6.726,0,0,0,.06-1.08,5.6,5.6,0,0,0-.09-1.17,11.222,11.222,0,0,0,4.47,1.38q1.13,0,1.71-1.44a23.2,23.2,0,0,0,1.26-8.34c0-3.18-.9-4.2-3.69-4.2a17.342,17.342,0,0,0-2.16.15,58.258,58.258,0,0,1-6.48,16.32l-2-1.2c2.49-3.27,5.07-9.27,6.42-14.94a39.022,39.022,0,0,0-6,1.08Zm19.71-2.76a27.471,27.471,0,0,1,6.27,10.62l-1.92,1.08a25.335,25.335,0,0,0-6.12-10.78Zm1.35-5.1a22.736,22.736,0,0,1,3.09,4.65l-1.5.9a23,23,0,0,0-3.09-4.77Zm3.39-1.62a24.08,24.08,0,0,1,3.09,4.65l-1.5.87a21.743,21.743,0,0,0-3.06-4.71Z"/><path class="cls-1" d="M142.37,249.92a22.475,22.475,0,0,0-.18,4c0,.66,0,1,.06,3.12a29.881,29.881,0,0,0,8.79-1.14l.27,2.22a16.507,16.507,0,0,0-1.8.21,51.841,51.841,0,0,1-7.23.66c.09,2.91.24,5.82.39,7.74a25.918,25.918,0,0,1,8,4.26,13.766,13.766,0,0,0,1.38.93l-1.41,2.1a13.292,13.292,0,0,0-3.12-2.61,30.113,30.113,0,0,0-4.05-2.31,5.923,5.923,0,0,1-.72-.33,8.443,8.443,0,0,1,.12,1.29,5.364,5.364,0,0,1-.75,3c-.93,1.32-2.85,2.07-5.33,2.07-3.88,0-6.24-1.68-6.24-4.44s2.78-4.74,7-4.74a12.933,12.933,0,0,1,2.61.27c.15,0,.15.06.27.06s.06,0,.16.06a.615.615,0,0,0,0-.27v-.18c-.24-3.45-.45-9.24-.48-13.53a15.3,15.3,0,0,0-.14-2.43Zm-4.8,17.87c-3.06,0-4.92,1.08-4.92,2.82a2,2,0,0,0,.45,1.29,4.841,4.841,0,0,0,3.6,1.2,5.07,5.07,0,0,0,3.33-1,2.78,2.78,0,0,0,.72-2.25,16.241,16.241,0,0,0-.09-1.65A10.22,10.22,0,0,0,137.57,267.79Z"/><path class="cls-1" d="M168.5,250.04a16.936,16.936,0,0,0-.69,3.09c-.48,3-.9,6.3-1,7.83h.12l.21-.87a13.387,13.387,0,0,1,1.83-4.47c1.68-2.58,3.66-3.87,6-3.87a5.651,5.651,0,0,1,4.8,2.67c1.26,1.86,1.8,4.08,1.8,7.29,0,5.43-2.43,9.54-6.93,11.79a22.7,22.7,0,0,1-5.34,1.77,6.2,6.2,0,0,0-1.2-2,15.852,15.852,0,0,0,6.09-1.89c3.51-2,5.16-5.16,5.16-10s-1.68-7.62-4.56-7.62c-2.28,0-4.2,1.71-5.91,5.22a15.662,15.662,0,0,0-1.62,6.69v.72l-2.16.09v-.87l-.06-3.12v-.7a75.787,75.787,0,0,1,1-11.07,5.987,5.987,0,0,0,.09-1Z"/><path class="cls-1" d="M205.63,249.92a21.574,21.574,0,0,0-.18,4c0,.66,0,1,.06,3.12a29.881,29.881,0,0,0,8.79-1.14l.27,2.22a16.507,16.507,0,0,0-1.8.21,51.841,51.841,0,0,1-7.23.66c.09,2.91.24,5.82.39,7.74a25.918,25.918,0,0,1,8,4.26,13.766,13.766,0,0,0,1.38.93l-1.41,2.1a13.292,13.292,0,0,0-3.12-2.61,30.113,30.113,0,0,0-4.05-2.31,5.923,5.923,0,0,1-.72-.33,8.571,8.571,0,0,1,.12,1.29,5.364,5.364,0,0,1-.75,3c-.93,1.32-2.85,2.07-5.34,2.07-3.87,0-6.24-1.68-6.24-4.44s2.79-4.74,7-4.74a12.933,12.933,0,0,1,2.61.27c.15,0,.15.06.27.06s.06,0,.15.06a.816.816,0,0,0,0-.27v-.18c-.24-3.45-.45-9.24-.48-13.53a13.721,13.721,0,0,0-.15-2.43Zm-4.77,17.87c-3.06,0-4.92,1.08-4.92,2.82a2,2,0,0,0,.45,1.29,4.841,4.841,0,0,0,3.6,1.2,5.07,5.07,0,0,0,3.33-1,2.78,2.78,0,0,0,.72-2.25,16.241,16.241,0,0,0-.09-1.65A10.22,10.22,0,0,0,200.86,267.79Z"/><path class="cls-1" d="M242.13,251.48c-.33.27-.57.48-3.69,3.48a87.485,87.485,0,0,1-6.9,5.67c-1.11.84-1.32,1.08-1.32,1.5s.24.75,2.67,2.64a88.461,88.461,0,0,1,9.6,8.19,7.664,7.664,0,0,0,.84.75l-1.89,1.86a28.3,28.3,0,0,0-3.87-4.11c-2-1.86-3.21-2.85-7.59-6.27-1.68-1.32-2.16-2-2.16-3a2.9,2.9,0,0,1,.87-2,23.114,23.114,0,0,1,2.55-2c4-3.06,7.74-6.57,8.79-8.22Z"/><path class="cls-1" d="M260.43,257.3a28.409,28.409,0,0,1-4.11,6.42,5.891,5.891,0,0,0-1.71-1.26,24.559,24.559,0,0,0,5.37-9.21,8.987,8.987,0,0,0,.66-2.82l2.25.6a12.182,12.182,0,0,0-.6,1.59c-.09.27-.45,1.26-1.08,2.91h6.3v-3.18a21.678,21.678,0,0,0-.21-3.18h2.43a20.14,20.14,0,0,0-.21,3.18v3.18h7.37a28.309,28.309,0,0,0,3.42-.18v2.13a28.916,28.916,0,0,0-3.38-.18h-7.41v6.49h6.11a21.008,21.008,0,0,0,3.21-.18v2.1a22.657,22.657,0,0,0-3.21-.18h-6.06v7.86h8.37a23.151,23.151,0,0,0,3.54-.21v2.19a24.225,24.225,0,0,0-3.51-.21H258.63a24.354,24.354,0,0,0-3.54.21v-2.19a23.143,23.143,0,0,0,3.51.21h8.91v-7.9h-5.49a22.237,22.237,0,0,0-3.18.18v-2.1a20.872,20.872,0,0,0,3.18.18h5.49V257.3Z"/><path class="cls-1" d="M289.31,254.69c.72.06,1.23.09,2.25.09a59.28,59.28,0,0,0,7.11-.42,38.75,38.75,0,0,0-1.8-4.11l2.25-.39a24.948,24.948,0,0,0,1.59,4.23,37.964,37.964,0,0,0,8-2l.18,1.95c-2.67.72-5.88,1.41-7.56,1.68.45,1,1.26,2.58,1.71,3.39,4-.81,5.64-1.26,6.87-1.86l.24,2c-.51.12-.63.12-1.62.39-2.1.54-3.6.87-4.71,1.08a35.116,35.116,0,0,0,4.41,6l-1.77,1.26a8.14,8.14,0,0,0-3.3-1.14,30.4,30.4,0,0,0-3.93-.27c-4.32,0-7.11,1.35-7.11,3.42s2.28,3.06,6.39,3.06c3.12,0,7.08-.9,8.88-2l.42,2.34a17.561,17.561,0,0,0-1.8.51,26.143,26.143,0,0,1-7.68,1.11,12.1,12.1,0,0,1-6.18-1.26,4.189,4.189,0,0,1-2.25-3.72c0-3.24,3.45-5.19,9.15-5.19a18,18,0,0,1,6.06.87,27.471,27.471,0,0,1-3.21-4.62,62.443,62.443,0,0,1-10.53.87c-1.44.06-1.56.06-2.1.12l-.06-2a23.447,23.447,0,0,0,2.4.09,59.7,59.7,0,0,0,9.45-.75,37.587,37.587,0,0,1-1.71-3.42,63.781,63.781,0,0,1-8.1.54,16.511,16.511,0,0,0-1.86.09Z"/><path class="cls-1" d="M323.5,251.79a13.867,13.867,0,0,0,2.82.18c2.49,0,6.48-.18,9.18-.39a3.062,3.062,0,0,0,1.44-.33l1.26,1.65a5.532,5.532,0,0,0-1.53,1.26,76.993,76.993,0,0,1-9.87,8.52l.06.09a15.2,15.2,0,0,1,7.35-1.86c5,0,8.22,2.46,8.22,6.3,0,4.68-4.35,7.77-11,7.77-4.23,0-6.66-1.56-6.66-4.32,0-2,1.86-3.51,4.35-3.51a6,6,0,0,1,4.95,2.46,8.586,8.586,0,0,1,1.38,2.88c3.15-.87,4.8-2.7,4.8-5.25,0-2.88-2.4-4.59-6.45-4.59a19.252,19.252,0,0,0-12.64,5.14l-1.35-2a33.41,33.41,0,0,0,4.2-3.06c3.21-2.55,7.95-6.72,10-8.76l.42-.42.12-.12.12-.12-.06-.06h-.27c-1,.18-4.56.39-9.12.54a14.666,14.666,0,0,0-1.62.15Zm5.64,17c-1.5,0-2.43.72-2.43,1.86a2,2,0,0,0,1.2,1.83,7.661,7.661,0,0,0,3.36.69,10.809,10.809,0,0,0,2.19-.21C332.8,270.26,331.3,268.79,329.14,268.79Z"/><path class="cls-1" d="M358.41,263.48c-1.94,1.62-2.85,3-2.85,4.41s.88,2.37,2.55,2.94a19.1,19.1,0,0,0,5.49.6c3.75,0,7.32-.45,9-1.14l.27,2.46a8.434,8.434,0,0,0-1,.15,48.971,48.971,0,0,1-8.1.69,21.158,21.158,0,0,1-6.9-.93c-2.25-.93-3.41-2.46-3.41-4.53s1.13-3.84,3.45-5.79Zm-3.15-11a34.331,34.331,0,0,0,8,.72,32.825,32.825,0,0,0,7.59-.63l.15,2a42.731,42.731,0,0,0-7.56,4.56l-1.53-1.23a46.417,46.417,0,0,1,4-2.49l.75-.39c.21-.12.27-.12.57-.3a23.729,23.729,0,0,1-4.53.39,58.692,58.692,0,0,1-6.6-.39,6.986,6.986,0,0,0-1-.09Z"/><path class="cls-1" d="M391.35,250.1a52.224,52.224,0,0,0,2.25,9.93c1.77-.72,2.61-1,7.26-2.67a16.213,16.213,0,0,0,1.92-.78l.9,2.28a68.966,68.966,0,0,0-9,2.91c-5.13,2-7.35,4-7.35,6.51,0,2.73,2.31,3.78,8.19,3.78a29.815,29.815,0,0,0,8.58-1l.24,2.49a15.576,15.576,0,0,0-2.22.18,60.205,60.205,0,0,1-6.63.39,20.431,20.431,0,0,1-6.66-.81c-2.46-.9-3.72-2.55-3.72-4.92a6.489,6.489,0,0,1,2.67-5.1,18.628,18.628,0,0,1,3.93-2.43,61.177,61.177,0,0,1-2.19-8.4,10.055,10.055,0,0,0-.51-1.89Z"/><path class="cls-1" d="M419.51,251.06a42.5,42.5,0,0,0-1.26,4.8,44.326,44.326,0,0,0-.9,9.39c0,2.34.06,4.11.18,5.7a27.872,27.872,0,0,1,2-5.85l1.44.69c-1.35,3-2.43,6.57-2.43,8.25v.45l-2.16.18c-.06-.48-.09-.63-.18-1.2a42.96,42.96,0,0,1-.78-8.49,49.654,49.654,0,0,1,1.35-11.88,16.693,16.693,0,0,0,.42-2.4Zm7.65,12.06c-1.5,1.65-2.25,3.09-2.25,4.41,0,2.22,1.89,3.3,5.76,3.3a19.734,19.734,0,0,0,6.9-1l.3,2.31a6.172,6.172,0,0,0-1.05.15,31.048,31.048,0,0,1-6.15.6c-3.42,0-5.58-.72-6.87-2.28a4.244,4.244,0,0,1-.9-2.76c0-1.83.75-3.45,2.61-5.58Zm-3.81-8.88a20.368,20.368,0,0,0,5.1.45,32.224,32.224,0,0,0,8-.81l.15,2.13-2.07.27a50.762,50.762,0,0,1-6.45.39,40.114,40.114,0,0,1-4.8-.3Z"/><path class="cls-1" d="M454.24,253.79a20.872,20.872,0,0,0,1.83-5l2.25.36c-.15.33-.33.75-.75,1.77-.51,1.32-.87,2.1-1.23,2.85h11.1a18.49,18.49,0,0,0,2.49-.12,22.815,22.815,0,0,0-.12,2.64v16.8c0,1.86-.66,2.34-3.21,2.34a35.528,35.528,0,0,1-3.69-.18,5.848,5.848,0,0,0-.51-2,35.518,35.518,0,0,0,4.26.33c1.05,0,1.23-.12,1.23-.87V255.59h-19.8v17.2a15.007,15.007,0,0,0,.21,2.94h-2.34a14.467,14.467,0,0,0,.18-2.94V256.4a26.37,26.37,0,0,0-.09-2.7,17.613,17.613,0,0,0,2.43.12Zm9,12.48a13.215,13.215,0,0,0,.18,2.4c-.66-.06-2-.09-2.7-.09h-6.48v2.28h-2a18.756,18.756,0,0,0,.18-2.55v-6.72a13.521,13.521,0,0,0-.15-2.22,13.647,13.647,0,0,0,2,.12h7a14.045,14.045,0,0,0,2.07-.12,12.836,12.836,0,0,0-.15,2.25Zm-9,.63h7.14v-5.73h-7.14Z"/><path class="cls-1" d="M482.8,250.97a51.856,51.856,0,0,0-1.83,13.08c0,1.65.12,3.87.24,4.89a10.485,10.485,0,0,1,.18,1.62,32.816,32.816,0,0,1,2.52-6.36l1.53.72q-1.24,2.568-2.22,5.25a11.713,11.713,0,0,0-.84,3.81l-2.07.18a7.994,7.994,0,0,0-.24-1,34.154,34.154,0,0,1-1.11-8.88,61.72,61.72,0,0,1,1.2-11.55,15.347,15.347,0,0,0,.27-2.07Zm3.06,6.06a24.291,24.291,0,0,0,5.1.39c1.2,0,2.31-.06,3.81-.18a57.85,57.85,0,0,0-.36-7h2.31a6.986,6.986,0,0,0-.09,1v.9c0,.54,0,.69.18,4.86a15.819,15.819,0,0,0,4.82-1.21l.15,2.16a14.442,14.442,0,0,0-1.59.36,28.522,28.522,0,0,1-3.28.6v2.16c0,5.7-.54,8.16-2.31,10.56a14.511,14.511,0,0,1-4.71,3.87,6.921,6.921,0,0,0-1.62-1.62,12.3,12.3,0,0,0,4.59-3.45c1.53-2,2-4.14,2-8.94,0-.84,0-1.5-.06-2.37-1.32.12-3.06.18-4.38.18-.84,0-2.55-.06-3.63-.12a4.422,4.422,0,0,0-.54,0,3.072,3.072,0,0,0-.45,0Z"/><path class="cls-1" d="M509.19,254.3h1.08a14.725,14.725,0,0,0,1.71-.09c3.57-.27,13.17-.81,17-1a20.17,20.17,0,0,0,3.57-.33l.18,2.25a13.927,13.927,0,0,0-3.36.39,15.222,15.222,0,0,0-5.76,3,9.17,9.17,0,0,0-3.69,6.93c0,2.52,1.53,4.53,4.2,5.55a15.381,15.381,0,0,0,4.5,1h.3l-.39,2.43-.93-.18a15.131,15.131,0,0,1-6.48-2.31,7.3,7.3,0,0,1-3.29-6.15c0-3.48,2-6.81,5.61-9.21a19.664,19.664,0,0,1,2.85-1.59,58.187,58.187,0,0,1-6.6.66,87.991,87.991,0,0,0-10.35,1Z"/><path class="cls-1" d="M539.94,268.13a30.583,30.583,0,0,1,6,6.36l-1.68,1.59a29.952,29.952,0,0,0-5.91-6.54Z"/><path class="cls-1" d="M573.15,252.71a23.63,23.63,0,0,0-.18-3.3h2.22a20.372,20.372,0,0,0-.18,3.33v4.14h.72a17.7,17.7,0,0,0,2.49-.12v1.92a23.519,23.519,0,0,0-2.49-.12h-.72v7.71a25.986,25.986,0,0,0,2.55-1.53l.12,1.8a55.138,55.138,0,0,1-6.24,3.39c-.48.21-1.32.63-1.59.78l-.57-2.1a14.989,14.989,0,0,0,3.87-1.47v-8.58h-1.29a21.73,21.73,0,0,0-2.55.15v-2a16.748,16.748,0,0,0,2.61.15h1.23Zm8.48,13.71a19.266,19.266,0,0,1-5,4,5.327,5.327,0,0,0-1.23-1.35c3.54-1.8,5.73-3.81,7-6.33h-1.83a14.7,14.7,0,0,0-2.7.18v-2a14.822,14.822,0,0,0,2.76.18h12.81a17.016,17.016,0,0,0,3-.18v1.89a25.472,25.472,0,0,0-3-.12h-9.31a14.692,14.692,0,0,1-1.38,2.19h9.93a23.427,23.427,0,0,0,2.95-.09,13.618,13.618,0,0,0-.15,1.77c-.24,3.54-.78,7-1.32,8s-1.29,1.38-3.33,1.38c-.69,0-1.68-.06-2.61-.12a5.076,5.076,0,0,0-.6-1.95,20.75,20.75,0,0,0,3.57.33c1.2,0,1.41-.24,1.8-2a36.554,36.554,0,0,0,.66-5.76h-2a17.363,17.363,0,0,1-2.67,4.53,30.621,30.621,0,0,1-3.69,3.69,24.244,24.244,0,0,1-2.43,1.68,5.117,5.117,0,0,0-1.38-1.41,19,19,0,0,0,5.88-4.56,14.633,14.633,0,0,0,2.46-3.93h-3a20.68,20.68,0,0,1-8.25,7.5,4.353,4.353,0,0,0-1.29-1.41,17,17,0,0,0,7.59-6.09Zm1-7.26a21.09,21.09,0,0,0-2.73.12,22.964,22.964,0,0,0,.12-2.7v-3.9a20.064,20.064,0,0,0-.12-2.64,19.39,19.39,0,0,0,2.88.15h7.83a21.978,21.978,0,0,0,3.12-.15,22.024,22.024,0,0,0-.12,2.79v3.75a17.777,17.777,0,0,0,.12,2.67c-.66-.06-1.59-.09-2.76-.09Zm-.84-5.22h10v-2.15h-10Zm0,3.75h10v-2.28h-10Z"/><path class="cls-1" d="M613.07,266.12c-1.74,4-3.51,5.76-5.67,5.76-2.85,0-5-3.12-5-7.32a12.179,12.179,0,0,1,12.072-12.287q.384,0,.768.017a11.611,11.611,0,0,1,8.25,3,10,10,0,0,1,2.91,7.32,10.921,10.921,0,0,1-6.87,10.35,23.212,23.212,0,0,1-4.56,1.38,4.774,4.774,0,0,0-1.05-2,18.022,18.022,0,0,0,5-1.41,9.058,9.058,0,0,0,5.31-8.4,7.91,7.91,0,0,0-4.77-7.53,8.622,8.622,0,0,0-3.48-.75A45.02,45.02,0,0,1,613.07,266.12Zm-3.69-10.47a10.369,10.369,0,0,0-4.89,8.94c0,2.88,1.26,5.1,2.88,5.1,1.26,0,2.46-1.41,3.75-4.35a41.217,41.217,0,0,0,2.73-11.1,9.469,9.469,0,0,0-4.47,1.41Z"/><path class="cls-1" d="M636.05,252.29a14.844,14.844,0,0,0-2.58.15v-2.07a18.468,18.468,0,0,0,2.72.18h9.44a17.933,17.933,0,0,0,2.7-.18v2.07a14.5,14.5,0,0,0-2.55-.15h-.66v7.44h.93a15.138,15.138,0,0,0,2.64-.15v2.1a15.335,15.335,0,0,0-2.64-.15h-.93v11.26a21,21,0,0,0,.18,3.12h-2.22a17.993,17.993,0,0,0,.18-3.12V261.53h-4.52a36.618,36.618,0,0,1-.51,5.49,17.347,17.347,0,0,1-4.48,9,5.68,5.68,0,0,0-1.59-1.35c3.27-3.15,4.59-6.87,4.71-13.17h-1.24a17.683,17.683,0,0,0-2.74.18v-2.16a16.858,16.858,0,0,0,2.74.18h1.22v-7.41Zm2.67,7.44h4.52v-7.44h-4.52Zm21.62,6.3a23.95,23.95,0,0,0-2.07,2.25,32.027,32.027,0,0,1-5.1,4.59,30.974,30.974,0,0,1-5.31,3.12,9.316,9.316,0,0,0-1.17-1.74,27.61,27.61,0,0,0,9.81-6.81,15.2,15.2,0,0,0,2.13-2.85Zm-2.1-15.36c-.36.3-.6.54-1.56,1.44a31.517,31.517,0,0,1-7.95,5.79,6.539,6.539,0,0,0-1.2-1.71,23.156,23.156,0,0,0,6.93-4.62,12.445,12.445,0,0,0,2-2.22Zm1.08,7.59a10.184,10.184,0,0,0-1.26,1.17,33.774,33.774,0,0,1-9.24,6.93,8.219,8.219,0,0,0-1.19-1.77,24.437,24.437,0,0,0,7.71-5.1,13.843,13.843,0,0,0,2.28-2.64Z"/><path class="cls-1" d="M688.87,259.07c-.09.15-.39.81-.9,2-1.71,4-2.28,5.07-4,7.32a10.734,10.734,0,0,0,3,4,2.831,2.831,0,0,0,1.29.69c.48,0,1-1.56,1.35-4.32a8.259,8.259,0,0,0,1.62,1.32,12.586,12.586,0,0,1-1.08,3.66c-.48,1-1.08,1.44-1.86,1.44a5.47,5.47,0,0,1-3.15-1.86,14.584,14.584,0,0,1-2.49-3.36,25.511,25.511,0,0,1-8.31,6,5.119,5.119,0,0,0-1.47-1.53,21.725,21.725,0,0,0,8.91-6.21,38.061,38.061,0,0,1-2.55-12.48H668.71c0,2.61,0,3.63-.06,4.89h5.73a14.846,14.846,0,0,0,2.25-.12,29.254,29.254,0,0,0-.21,3.36c-.18,3.39-.48,5.58-.9,6.45s-1.11,1.2-2.79,1.2a17.882,17.882,0,0,1-3.15-.27,7,7,0,0,0-.36-1.95,15.6,15.6,0,0,0,3.54.48c1,0,1.23-.27,1.44-1.59a44.818,44.818,0,0,0,.39-5.88h-6a41.885,41.885,0,0,1-1,8.28,14.136,14.136,0,0,1-2.28,5.25,5.529,5.529,0,0,0-1.59-1.35,12.279,12.279,0,0,0,2.1-4.5c.66-2.7,1-6.75,1-12.6a19.713,19.713,0,0,0-.18-3.51,31.945,31.945,0,0,0,3.66.15h8.85a29.05,29.05,0,0,0-.3-4.86h2.31a12.982,12.982,0,0,0-.15,2.46c0,.54,0,1,.06,2.4h6.56a16.266,16.266,0,0,0,3.21-.18v2a24.81,24.81,0,0,0-3.36-.15h-6.33a35.239,35.239,0,0,0,2,10.8,23.106,23.106,0,0,0,3.69-8.25Zm-1.65-5.55a19.842,19.842,0,0,0-4.32-3.18l1.29-1a23.493,23.493,0,0,1,4.29,3Z"/><path class="cls-1" d="M702.51,251.18a12.08,12.08,0,0,0,.57,1.83c.6,1.77.9,2.61,1.32,4a53.327,53.327,0,0,1,6.45-1.68,41.641,41.641,0,0,0-.12-5.31h2.25a28.424,28.424,0,0,0-.15,4v1a15.136,15.136,0,0,1,2.25-.18c4,0,6.6,2.16,6.6,5.52,0,3.6-2.94,6.18-7.05,6.18a12.7,12.7,0,0,1-5.07-1.11,4.422,4.422,0,0,0,0-.54,13.273,13.273,0,0,0-.18-1.71,10.2,10.2,0,0,0,5,1.38,6.081,6.081,0,0,0,3.6-1.17,3.639,3.639,0,0,0,1.44-3.06c0-2.28-1.77-3.63-4.8-3.63-2.19,0-5.43.72-9.78,2.13,1.53,5.1,2.61,9.33,3.87,15a9.488,9.488,0,0,0,.39,1.29l-2.43.54c-.15-2.46-1.83-9.69-3.78-16.2a13.038,13.038,0,0,1-1.62.54,28.622,28.622,0,0,0-4.11,1.65l-.78-2.13a32.928,32.928,0,0,0,4.41-1.41c.75-.27,1-.33,1.53-.48a30.156,30.156,0,0,0-2.16-5.7Z"/><path class="cls-1" d="M742.13,249.53a20.545,20.545,0,0,0-.15,2.67,38.971,38.971,0,0,0,.66,6.51,24.633,24.633,0,0,0,8.31,13.14,22.043,22.043,0,0,0,3.48,2.34,6.83,6.83,0,0,0-1.56,1.89,27.469,27.469,0,0,1-8-7.68,25.866,25.866,0,0,1-3.9-9.54,25.43,25.43,0,0,1-2.07,6.69,20.17,20.17,0,0,1-4.29,6.15,25.537,25.537,0,0,1-5.52,4.38,5.724,5.724,0,0,0-1.62-1.77,21.177,21.177,0,0,0,6.16-4.52c4.17-4.47,6.21-10.23,6.21-17.61a20.423,20.423,0,0,0-.12-2.64Z"/><path class="cls-1" d="M3.5,309.71a9.772,9.772,0,0,0,1.41.09c3.33,0,6.81-.42,7.92-1l1.26,1.89a13.9,13.9,0,0,0-3.51,3.24c-2.73,3.3-4.11,6.57-4.11,9.63a5.871,5.871,0,0,0,5.583,6.144q.163.007.327.006a6.821,6.821,0,0,0,6.18-4.11,15.412,15.412,0,0,0,1.08-6.24,24.727,24.727,0,0,0-1.86-9.66l2.16-.72a24.3,24.3,0,0,0,2.82,5.46,18.437,18.437,0,0,0,5.43,5.4l-1.14,2.07-.51-.45-.15-.12-.57-.51a21.808,21.808,0,0,1-5.43-7.2,19.259,19.259,0,0,1,1.2,6.84,15.472,15.472,0,0,1-1.17,6.12,8.6,8.6,0,0,1-8,5.22c-4.71,0-8-3.42-8-8.34a16.167,16.167,0,0,1,4-10,15.1,15.1,0,0,1,2.7-2.67,26.723,26.723,0,0,1-6.69.93,5.419,5.419,0,0,1-.57,0h-.3Zm19.47-3a22.736,22.736,0,0,1,3.09,4.65l-1.53.9a22.194,22.194,0,0,0-3.06-4.77Zm3.36-1.62a22.926,22.926,0,0,1,3.12,4.65l-1.5.87a24.245,24.245,0,0,0-3.06-4.71Z"/><path class="cls-1" d="M43.28,307.1a52.224,52.224,0,0,0,2.25,9.93c1.77-.72,2.61-1,7.26-2.67a16.213,16.213,0,0,0,1.92-.78l.9,2.28a68.966,68.966,0,0,0-9,2.91c-5.13,2-7.35,4-7.35,6.51,0,2.73,2.31,3.78,8.19,3.78a29.815,29.815,0,0,0,8.58-1l.23,2.49a15.425,15.425,0,0,0-2.21.18,60.191,60.191,0,0,1-6.63.39,20.431,20.431,0,0,1-6.66-.81c-2.46-.9-3.72-2.55-3.72-4.92a6.492,6.492,0,0,1,2.67-5.1,18.654,18.654,0,0,1,3.93-2.43,61.177,61.177,0,0,1-2.19-8.4,10.055,10.055,0,0,0-.51-1.89Z"/><path class="cls-1" d="M76.93,323.12c-1.74,4-3.51,5.76-5.67,5.76-2.85,0-5-3.12-5-7.32a12.179,12.179,0,0,1,12.072-12.287q.384,0,.768.017a11.611,11.611,0,0,1,8.25,3,10,10,0,0,1,2.91,7.32,10.921,10.921,0,0,1-6.87,10.35,23.212,23.212,0,0,1-4.56,1.38,4.766,4.766,0,0,0-1-2,18.022,18.022,0,0,0,5-1.41,9.059,9.059,0,0,0,5.31-8.4A7.91,7.91,0,0,0,83.37,312a8.622,8.622,0,0,0-3.48-.75A45.03,45.03,0,0,1,76.93,323.12Zm-3.69-10.47a10.369,10.369,0,0,0-4.89,8.94c0,2.88,1.26,5.1,2.88,5.1,1.26,0,2.46-1.41,3.75-4.35a41.217,41.217,0,0,0,2.73-11.1A9.469,9.469,0,0,0,73.24,312.65Z"/><path class="cls-1" d="M101.01,322.91c0-1.29,0-2.16.09-3.6a17.337,17.337,0,0,1-3.42,3.36,5.729,5.729,0,0,0-1.17-1.71,24.587,24.587,0,0,0,6.06-5.91,10.32,10.32,0,0,0,1.44-2.58l1.86,1.05a12.771,12.771,0,0,0-.9,1.29,20.29,20.29,0,0,1-2,2.7v12.12a22.509,22.509,0,0,0,.21,3.66h-2.37a22.736,22.736,0,0,0,.21-3.66Zm4.14-15.63a4.952,4.952,0,0,0-.54.66,29.265,29.265,0,0,1-6.66,6.51,5.8,5.8,0,0,0-1.35-1.47,20.6,20.6,0,0,0,4-3.18,11.718,11.718,0,0,0,2.73-3.66Zm4.35,10a23.163,23.163,0,0,0-3.33.18v-2.1a22.879,22.879,0,0,0,3.33.18h10.53a21.171,21.171,0,0,0,3.3-.18v2.1a22.909,22.909,0,0,0-3.27-.18h-1.71v13.14c0,1.92-.72,2.43-3.36,2.43-1,0-2.37-.06-3.66-.15a7.229,7.229,0,0,0-.48-2.07,29.967,29.967,0,0,0,4.23.36c1,0,1.26-.12,1.26-.72v-13Zm-2.1-9.45a21.27,21.27,0,0,0,3.12.18h8.4a21,21,0,0,0,3.09-.18v2.1a23.128,23.128,0,0,0-3.09-.18h-8.4a23.578,23.578,0,0,0-3.12.18Z"/><path class="cls-1" d="M134.97,309.5c-2.16.3-3.28.39-5.56.57a3.79,3.79,0,0,0-.75-1.59c4.83-.09,10.48-1.05,12.51-2.07l1.32,1.53c-.42.09-.42.09-1.5.36a40.757,40.757,0,0,1-4.29.93v2.37h3.61a13.7,13.7,0,0,0,2.63-.15v1.8a13.2,13.2,0,0,0-2.4-.12H136.7v1.86h3.12a21.758,21.758,0,0,0,2.64-.09,15.954,15.954,0,0,0-.12,2.64v3.48a20.246,20.246,0,0,0,.12,2.85c-.72-.06-1.5-.09-2.76-.09h-3v2h3a18.046,18.046,0,0,0,2.73-.12v1.8a15.094,15.094,0,0,0-2.46-.12h-3.3v2.16c1.92-.24,2.94-.39,5.58-.84v1.59c-4.2.72-7.2,1.11-12.3,1.62a14.7,14.7,0,0,0-1.59.24l-.39-2.07c.48,0,1,.06,1.27.06.92,0,2.63-.12,5.7-.42v-2.34h-3.31a26.129,26.129,0,0,0-2.74.15v-1.86a16.645,16.645,0,0,0,2.76.15h3.31v-2H132.1a23.8,23.8,0,0,0-2.79.09,26.015,26.015,0,0,0,.09-2.82v-3.51a20.061,20.061,0,0,0-.09-2.64c.78.06,1.59.09,2.85.09h2.8v-1.86h-4.08a16.467,16.467,0,0,0-2.7.15v-1.86a16.726,16.726,0,0,0,2.72.18h4.06Zm-3.84,6.93v2.19h3.84v-2.19Zm0,3.57v2.34h3.84V320Zm5.57-1.38h4v-2.19h-4Zm0,3.72h4V320h-4Zm15-9.33a22.044,22.044,0,0,0,2.67-.12c-.06.66-.09,1.26-.15,3.15-.21,9.06-.6,13.29-1.41,15.24-.42,1.08-1.23,1.47-2.88,1.47a29.666,29.666,0,0,1-3.18-.24,8.027,8.027,0,0,0-.33-2,16.612,16.612,0,0,0,3.24.42c1.11,0,1.44-.21,1.65-1.11.66-2.58,1.08-8.31,1.08-15.06h-3.66a45.032,45.032,0,0,1-1.23,9.63,20.765,20.765,0,0,1-4.71,8.82,6.693,6.693,0,0,0-1.71-1.29,15.517,15.517,0,0,0,3.48-4.86c1.38-2.94,2-6.48,2.31-12.3h-.78a17.941,17.941,0,0,0-2.78.15v-2a15.573,15.573,0,0,0,2.66.15h1v-3a16.735,16.735,0,0,0-.18-3.45h2.22a8.994,8.994,0,0,0-.18,2.28c0,2.13,0,3.15-.06,4.17Z"/><path class="cls-1" d="M174.74,319.7a2.46,2.46,0,1,1-2.46-2.46h0A2.471,2.471,0,0,1,174.74,319.7Z"/><path class="cls-1" d="M189.56,319.22a7.305,7.305,0,0,0,1.2.09h1.2c1.08-1.35,1.8-2.31,2.16-2.82a36.407,36.407,0,0,0-4.56-4.86l1.11-1.38c.69.66.93.9,1.44,1.41a22.275,22.275,0,0,0,2.79-5.67l1.86.81a8.045,8.045,0,0,0-.63,1.11,39.276,39.276,0,0,1-2.88,4.95c.84.9,1.11,1.23,1.86,2.13,2.46-3.84,2.61-4.11,3.06-5.4l1.74,1a33.407,33.407,0,0,0-1.89,2.85,65.872,65.872,0,0,1-4.11,5.76c1.95-.12,3.24-.24,4.77-.45q-.551-1.32-1.23-2.58l1.38-.6a35.749,35.749,0,0,1,2.43,5.82l-1.47.72a18.591,18.591,0,0,0-.57-1.89c-1.11.18-1.62.24-2.73.36v9.81a20.9,20.9,0,0,0,.18,3h-2.16a22.126,22.126,0,0,0,.18-3v-9.66c-1.35.12-1.35.12-3.71.3a4.7,4.7,0,0,0-1.12.15Zm3.51,3.72a37.9,37.9,0,0,1-.75,5.28,17.517,17.517,0,0,1-.84,3.24l-1.67-.78a23.3,23.3,0,0,0,1.58-8.13Zm6.27-.6a38.464,38.464,0,0,1,1.53,6.33l-1.65.57a28.085,28.085,0,0,0-1.35-6.39Zm13,.84a15.937,15.937,0,0,0,2.76-.18v2a23.993,23.993,0,0,0-2.76-.12h-3.39v5.55h4.68a17.913,17.913,0,0,0,3-.15v2a20.61,20.61,0,0,0-3-.18h-10.6a20.9,20.9,0,0,0-3,.18v-2a19.546,19.546,0,0,0,2.82.15h4.29v-5.55h-2.61a24.516,24.516,0,0,0-2.79.12v-2a13.168,13.168,0,0,0,2.79.18h2.64v-1.11a17.9,17.9,0,0,0-.18-3.12h2.19a18.4,18.4,0,0,0-.18,3.12v1.11Zm2.7-14.52c-.42.57-.42.57-1.56,2.31a22.615,22.615,0,0,1-3.84,4.32,21,21,0,0,0,7.2,3.21,5.166,5.166,0,0,0-1,1.86,25.55,25.55,0,0,1-7.59-3.93,28.417,28.417,0,0,1-6.36,3.54,5.6,5.6,0,0,0-1-1.68,21.769,21.769,0,0,0,6-3,18.7,18.7,0,0,1-4.5-6,14.86,14.86,0,0,0-2.16.15v-1.92a17.207,17.207,0,0,0,2.94.15h8.46a13.517,13.517,0,0,0,2.31-.12Zm-10.83.6a14.773,14.773,0,0,0,4,5,19.244,19.244,0,0,0,4.29-5Z"/><path class="cls-1" d="M223.63,323.63a27.3,27.3,0,0,1-1.53,7.8l-1.44-.75a21.889,21.889,0,0,0,1.62-7.32Zm5.07-3.15h1.35a17.127,17.127,0,0,0,2.64-.12c-.06.54-.06.81-.12,1.74-.15,4.11-.72,8.37-1.26,9.6s-1.14,1.47-2.55,1.47a18.53,18.53,0,0,1-2.4-.18,5.373,5.373,0,0,0-.3-1.86,9.926,9.926,0,0,0,2.67.39,1.2,1.2,0,0,0,1.29-1.1v-.007a50.445,50.445,0,0,0,.87-8.43h-6.18a18.844,18.844,0,0,0-2.37.09c.06-.78.09-1.62.09-2.67v-9.39a24.284,24.284,0,0,0-.12-2.88,17.451,17.451,0,0,0,2.76.15h4.95a14.8,14.8,0,0,0,2.61-.15v1.83a13.683,13.683,0,0,0-2.46-.15H228.7v2.85h.81a13.09,13.09,0,0,0,2.34-.15v1.74a13.278,13.278,0,0,0-2.34-.15h-.81v2.79h.81a15.777,15.777,0,0,0,2.34-.12v1.71a12.818,12.818,0,0,0-2.34-.15h-.81Zm-1.61-11.69h-3v2.85h3Zm0,4.29h-3v2.79h3Zm-3,4.23v3.15h3v-3.15Zm1.59,6.18a49.426,49.426,0,0,1,.24,5.19v1.29l-1.5.21c.09-1.62.12-2.46.12-3.75,0-1.08,0-1.56-.09-2.73Zm1.83-.15a28.562,28.562,0,0,1,.84,5.43l-1.35.36a29.522,29.522,0,0,0-.63-5.52Zm1.8-.33a17.908,17.908,0,0,1,1,4l-1.14.42a16.815,16.815,0,0,0-.84-4.14Zm12.21,1.53a13.408,13.408,0,0,0,1.62,2.76,13.7,13.7,0,0,0,5.94,4.47,7.714,7.714,0,0,0-1.14,1.71,16.243,16.243,0,0,1-7.65-8.07,12.94,12.94,0,0,1-7.2,8,5.549,5.549,0,0,0-1.26-1.53c4-1.83,6-3.93,7-7.35h-2.7a17.025,17.025,0,0,0-2.28.12,13.792,13.792,0,0,0,.12-2.13V319.1a15.853,15.853,0,0,0-.12-2.1,16.182,16.182,0,0,0,2.37.12h3.3v-2.68h-1.56a13.766,13.766,0,0,0-2.4.15v-1.8a17.493,17.493,0,0,0,2.4.12h5a16.337,16.337,0,0,0,2.34-.12v1.8a13.2,13.2,0,0,0-2.4-.15h-1.74v2.7h3.47a16.313,16.313,0,0,0,2.4-.12,14.453,14.453,0,0,0-.12,2.1v3.42a12.644,12.644,0,0,0,.12,2.13,18.188,18.188,0,0,0-2.25-.12Zm-.45-18.21a13,13,0,0,0,2.76,3.06,19.477,19.477,0,0,0,5.25,3.24,5.447,5.447,0,0,0-1,1.68,24.5,24.5,0,0,1-4.56-3,20.111,20.111,0,0,1-3.42-3.51,22,22,0,0,1-7.05,6.57,5.523,5.523,0,0,0-1-1.53c3.51-2.07,5.61-4,7.08-6.51Zm-5.44,12.35v4.41h3.51a31.6,31.6,0,0,0,.33-4.41Zm5.52,0a31.14,31.14,0,0,1-.33,4.41h4.44v-4.41Z"/><path class="cls-1" d="M273.97,313.04a27.4,27.4,0,0,1-1.83,4.92,25.017,25.017,0,0,1-4.41,6.42,26.506,26.506,0,0,0,5.43,3.87,27.821,27.821,0,0,0,7,2.73,5.73,5.73,0,0,0-1.32,2,31.2,31.2,0,0,1-12.45-7.2,32.257,32.257,0,0,1-12.57,7.17,5.81,5.81,0,0,0-1.26-1.86,29.508,29.508,0,0,0,12.45-6.66,26.366,26.366,0,0,1-3.63-4.92,26.729,26.729,0,0,1-2.79-6.45h-2.26a24.069,24.069,0,0,0-3.33.18v-2.13a20.754,20.754,0,0,0,3.36.21h8.61v-2.34a13.2,13.2,0,0,0-.21-2.58h2.4a12.678,12.678,0,0,0-.21,2.55v2.37h9.36a20.92,20.92,0,0,0,3.42-.21v2.13a22.733,22.733,0,0,0-3.36-.18Zm-13.35,0a22.573,22.573,0,0,0,2.46,5.73,25.434,25.434,0,0,0,3.27,4.29,23.356,23.356,0,0,0,5.43-10Z"/><path class="cls-1" d="M289.32,320.15c0-1.68,0-2.07.06-3.66a24.2,24.2,0,0,1-3.81,5,10.9,10.9,0,0,0-1.29-1.74,28.091,28.091,0,0,0,6.78-10.11,13.366,13.366,0,0,0,1-3.6l2.22.63c-.12.3-.12.3-.63,1.68-.27.69-1.29,3.09-2.4,5.58v15.72c0,1.17.06,2.4.18,3.63h-2.34a35.569,35.569,0,0,0,.21-3.72Zm10.11,9.06c0,1,.45,1.2,3.93,1.2s4.56-.18,5-.72.78-2.25,1-5.49a6.846,6.846,0,0,0,2,.93c-.36,3.3-.78,5-1.41,5.88s-2.22,1.26-6.72,1.26c-5,0-5.79-.36-5.79-2.7V309.68a28.3,28.3,0,0,0-.18-3.24h2.37a23.4,23.4,0,0,0-.18,3.24v8.49a40.808,40.808,0,0,0,5.25-3.45,21.116,21.116,0,0,0,4.29-4.17l1.74,1.59c-.42.36-.42.36-1.83,1.65a47.859,47.859,0,0,1-9.45,6.57Z"/><path class="cls-1" d="M328.29,323.12c-1.74,4-3.51,5.76-5.67,5.76-2.85,0-5-3.12-5-7.32a12.179,12.179,0,0,1,12.072-12.287q.384,0,.768.017a11.611,11.611,0,0,1,8.25,3,10,10,0,0,1,2.91,7.32,10.921,10.921,0,0,1-6.87,10.35,23.212,23.212,0,0,1-4.56,1.38,4.774,4.774,0,0,0-1.05-2,18.022,18.022,0,0,0,5-1.41,9.059,9.059,0,0,0,5.31-8.4,7.919,7.919,0,0,0-4.77-7.53,8.622,8.622,0,0,0-3.48-.75A45.029,45.029,0,0,1,328.29,323.12Zm-3.66-10.47a10.369,10.369,0,0,0-4.89,8.94c0,2.88,1.26,5.1,2.88,5.1,1.26,0,2.46-1.41,3.75-4.35a41.217,41.217,0,0,0,2.73-11.1A9.469,9.469,0,0,0,324.63,312.65Z"/><path class="cls-1" d="M350.42,310.67a21.027,21.027,0,0,0,5.61.48h.75a16.406,16.406,0,0,1,.15-2.25c0-.33.09-1.5.09-1.71a3.072,3.072,0,0,0,0-.45l2.34.15a20.016,20.016,0,0,0-.63,4.2,46.133,46.133,0,0,0,11.43-1.68l.12,2.1-1.05.15a83.97,83.97,0,0,1-10.6,1.13c-.18,2.55-.18,2.55-.21,4a15.866,15.866,0,0,1,4.44-.6,12,12,0,0,1,1.74.09,11.28,11.28,0,0,0,.72-2.7l2.07.63c-.09.18-.42,1-.93,2.4,4.14,1,6.45,3.51,6.45,7,0,2.94-1.62,5.31-4.71,6.93a16.523,16.523,0,0,1-6.12,1.71,6.181,6.181,0,0,0-1-2,14,14,0,0,0,4.5-.81c3.27-1.14,5.16-3.33,5.16-6s-1.71-4.38-5-5.22a26.992,26.992,0,0,1-5.7,9c-2.31,2.4-4.59,3.63-6.69,3.63s-3.87-1.89-3.87-4.56c0-3.69,2.61-7,7-8.94a38.125,38.125,0,0,1,.18-4.53h-1.2c-.3,0-1.65-.06-4.05-.15a4.864,4.864,0,0,0-.54,0,2.959,2.959,0,0,0-.48,0Zm2.88,11.1a7.093,7.093,0,0,0-1.83,4.47c0,1.65.87,2.73,2.16,2.73a5.419,5.419,0,0,0,3.45-1.53,42.5,42.5,0,0,1-.6-8.13,10.736,10.736,0,0,0-3.18,2.48Zm5.49,4.44a3.238,3.238,0,0,1,.57-.78,27.125,27.125,0,0,0,4.59-7.5c-1-.06-1.11-.06-1.44-.06a13.465,13.465,0,0,0-4.17.69,50.541,50.541,0,0,0,.33,6.87,1.966,1.966,0,0,1,0,.42v.33Z"/><path class="cls-1" d="M388.21,307.04a16.936,16.936,0,0,0-.69,3.09c-.48,3-.9,6.3-1,7.83h.12l.21-.87a13.387,13.387,0,0,1,1.83-4.47c1.68-2.58,3.66-3.87,6-3.87a5.651,5.651,0,0,1,4.8,2.67c1.26,1.86,1.8,4.08,1.8,7.29,0,5.43-2.43,9.54-6.93,11.79a22.7,22.7,0,0,1-5.34,1.77,6.2,6.2,0,0,0-1.2-2,15.852,15.852,0,0,0,6.09-1.89c3.51-2,5.16-5.16,5.16-10s-1.68-7.62-4.56-7.62c-2.28,0-4.2,1.71-5.91,5.22a15.648,15.648,0,0,0-1.62,6.69v.72l-2.16.09v-.87l-.06-3.12v-.7a75.787,75.787,0,0,1,1-11.07,5.987,5.987,0,0,0,.09-1Z"/><path class="cls-1" d="M412.21,314.51a63.052,63.052,0,0,0,6.62-.78,36.685,36.685,0,0,0,.9-6.36v-.39l2.41.27a17.01,17.01,0,0,0-.58,2.88c-.15.87-.36,2-.63,3.42a17.439,17.439,0,0,1,1.77-.09c2.13,0,3.39.36,4.32,1.26s1.47,2.37,1.47,4.83c0,4.59-.78,8.58-2,10.32a3.131,3.131,0,0,1-2.94,1.41,11.3,11.3,0,0,1-4.53-1.17,6.432,6.432,0,0,0,.06-1,5.816,5.816,0,0,0-.09-1.2,11.222,11.222,0,0,0,4.47,1.38q1.13,0,1.71-1.44a23.006,23.006,0,0,0,1.26-8.34c0-3.18-.9-4.2-3.69-4.2a17.342,17.342,0,0,0-2.16.15,56.587,56.587,0,0,1-4.52,12.72c-.4.72-1,1.92-1.95,3.6l-2-1.2a28.767,28.767,0,0,0,3.11-5.43,50.23,50.23,0,0,0,3.31-9.51c-2.59.39-4,.63-4.29.69a16.87,16.87,0,0,0-1.75.39Zm19.7-2.76a27.129,27.129,0,0,1,6.27,10.62l-1.92,1.11a24.554,24.554,0,0,0-6.12-10.77Z"/><path class="cls-1" d="M444.51,312.26a20.652,20.652,0,0,0,3.75.27c.6,0,.93,0,1.8-.06a29.373,29.373,0,0,0,.66-5.52l2.37.24a28.394,28.394,0,0,0-.54,2.85c-.15,1-.24,1.38-.39,2.28a24.72,24.72,0,0,0,5.4-1l.15,2.07a2.574,2.574,0,0,0-.84.15,43.967,43.967,0,0,1-5.07.72c-.45,2.37-1.29,5.76-2.1,8.49a79.015,79.015,0,0,1-3.45,9.15l-2.19-.93c2.22-3.87,4.53-10.71,5.64-16.59h-2.07c-1.07,0-1.32,0-2.49-.06h-.12a4.339,4.339,0,0,0-.51,0Zm13.41,10.89a10.086,10.086,0,0,0-.9,1.14,3.615,3.615,0,0,0-.75,2.13c0,1.8,1.83,2.76,5.25,2.76a22.276,22.276,0,0,0,6.63-1l.21,2.25-1.32.21a30.081,30.081,0,0,1-5.34.51c-4.92,0-7.47-1.53-7.47-4.5,0-1.35.42-2.28,2-4.32Zm9.27-5.19a30.019,30.019,0,0,0-3.56-.17,26.087,26.087,0,0,0-7.5,1l-.21-2a33.983,33.983,0,0,1,7.95-1c.57,0,1,0,3.27.09Z"/><path class="cls-1" d="M483.71,310.91a12.705,12.705,0,0,0,1.44-4.11l2.4.42a6.372,6.372,0,0,0-.78,1.62,14.053,14.053,0,0,1-.93,2,5.093,5.093,0,0,1,.63,0c4.8-.24,7.8-.6,9.45-1.14l.18,2a9.3,9.3,0,0,0-1.2.15,97.012,97.012,0,0,1-9.9.78,22.157,22.157,0,0,1-2.7,4.26c-.3.36-.9,1-1,1.14a1.759,1.759,0,0,1-.39.3h0a.237.237,0,0,0,.06.09,8.3,8.3,0,0,1,1.38-1,8.007,8.007,0,0,1,4.53-1.47,3.641,3.641,0,0,1,3.993,3.249c0,.027,0,.054.007.081,2.19-.87,3.9-1.5,5.22-2a6.6,6.6,0,0,0,2-.87l1,2.1a49.8,49.8,0,0,0-8,2.64c.06.78.06,1.08.06,1.83v3a6.5,6.5,0,0,0,.06,1.08h-2q.2-2.154.18-4.32a7.948,7.948,0,0,0,0-.9c-4.08,1.92-5.64,3.33-5.64,5.13,0,2,1.86,2.85,6.09,2.85a25.147,25.147,0,0,0,8-1.17l.27,2.31a11.534,11.534,0,0,0-1.2.15,46.6,46.6,0,0,1-7.29.6c-5.37,0-8-1.53-8-4.62,0-1.65,1-3.21,3.06-4.74a23.259,23.259,0,0,1,4.47-2.4c-.24-1.65-1-2.37-2.37-2.37-1.89,0-4.26,1.11-6.69,3.18a9.919,9.919,0,0,0-2.31,2.49l-1.68-1.68a29.848,29.848,0,0,0,6.72-8.58l.27-.45a3.413,3.413,0,0,1-.57.06l-4.41-.09h-.48a5.191,5.191,0,0,0-.66,0v-2.07a42,42,0,0,0,6.42.33Z"/><path class="cls-1" d="M520.96,318.02c-.36,7.77-2.88,11.43-9.66,14.07a5.244,5.244,0,0,0-1.41-2c6.21-2.07,8.55-5.28,8.79-12.12h-8.13a23.532,23.532,0,0,0-3.45.15V315.9a19.856,19.856,0,0,0,3.48.18h17.55a19.659,19.659,0,0,0,3.48-.18v2.22a23.532,23.532,0,0,0-3.45-.15Zm-10.83-9.51a15.577,15.577,0,0,0,3.45.21h9.05a27.231,27.231,0,0,0,3.45-.15v2.16q-.59,0-3.42-.09h-9.12a20.8,20.8,0,0,0-3.42.15Zm17.58-2.52a23.339,23.339,0,0,1,2.94,4.74l-1.53.84a22.866,22.866,0,0,0-2.91-4.86Zm3.69-1.14a24.96,24.96,0,0,1,2.94,4.74l-1.53.84a23.521,23.521,0,0,0-2.91-4.83Z"/><path class="cls-1" d="M555.39,313.7v-2.91a23.5,23.5,0,0,0-.08-3.06h2.32a26.325,26.325,0,0,0-.11,2.85v3.15h2.58a20.5,20.5,0,0,0,3.51-.18v2.24a24.084,24.084,0,0,0-3.48-.15h-2.64c0,5.79-.36,8-1.47,10.17-1.62,3-4.32,5.1-8.37,6.48a5.367,5.367,0,0,0-1.35-1.89c3.93-1,7-3.33,8.16-6.36.66-1.8.84-3.6.9-8.4h-9.12v5a15.665,15.665,0,0,0,.12,2.43h-2.43a14.347,14.347,0,0,0,.12-2.52v-4.92h-2.52a24.084,24.084,0,0,0-3.48.15V313.5a20.6,20.6,0,0,0,3.51.18h2.49V310.2a14.642,14.642,0,0,0-.12-2.52h2.43a15.917,15.917,0,0,0-.12,2.43v3.57Zm5-7.89a24.38,24.38,0,0,1,2.13,4.92l-1.59.54a23.116,23.116,0,0,0-2.13-5Zm3.44-1a22.787,22.787,0,0,1,2.14,4.89l-1.57.54a23.96,23.96,0,0,0-2.09-4.92Z"/><path class="cls-1" d="M593.31,308.79a6.8,6.8,0,0,0-1.32,1.26,52.809,52.809,0,0,1-7,6v12.74a19.882,19.882,0,0,0,.15,3.18h-2.61a15.665,15.665,0,0,0,.18-3.12v-11.4a46.884,46.884,0,0,1-11.58,5.25,7,7,0,0,0-1.17-2,42.225,42.225,0,0,0,15.57-7.77,25.189,25.189,0,0,0,5.73-5.67Z"/><path class="cls-1" d="M603.63,328.49a26.114,26.114,0,0,0,8.73-2.31c5.79-2.58,9.81-7,12.24-13.35a5.989,5.989,0,0,0,1.83,1.77c-2.4,5.22-5.19,8.73-9.15,11.46-3.09,2.1-6.18,3.33-11.19,4.47a15.753,15.753,0,0,0-1.8.48Zm1.92-18.6a39.087,39.087,0,0,1,7.23,5.64l-1.56,1.86a33.12,33.12,0,0,0-7.14-5.88Z"/><path class="cls-1" d="M642.7,307.1a52.224,52.224,0,0,0,2.25,9.93c1.78-.72,2.61-1,7.26-2.67a16.213,16.213,0,0,0,1.92-.78l.9,2.28a68.966,68.966,0,0,0-9,2.91c-5.13,2-7.35,4-7.35,6.51,0,2.73,2.32,3.78,8.19,3.78a29.815,29.815,0,0,0,8.58-1l.24,2.49a15.576,15.576,0,0,0-2.22.18,60.191,60.191,0,0,1-6.63.39,20.431,20.431,0,0,1-6.66-.81c-2.46-.9-3.71-2.55-3.71-4.92a6.479,6.479,0,0,1,2.66-5.1,18.654,18.654,0,0,1,3.93-2.43,61.177,61.177,0,0,1-2.19-8.4,10.055,10.055,0,0,0-.51-1.89Z"/><path class="cls-1" d="M672.25,307.7a46.206,46.206,0,0,0-.39,6.33c-.12,3.6-.21,7.68-.21,9,0,.36,0,1.11.06,1.8a4.717,4.717,0,0,0,1.41,3.6,5.661,5.661,0,0,0,3.75,1.17,8.619,8.619,0,0,0,8-5.22,17.805,17.805,0,0,0,1.47-4.71,8.469,8.469,0,0,0,2.16,1.44c-1.14,3.51-2,5.28-3.33,6.81a10.5,10.5,0,0,1-8.46,3.75c-2.55,0-4.44-.72-5.64-2.1s-1.65-3-1.65-6.15c0-2,0-2.76.27-12.21v-2a9.21,9.21,0,0,0-.12-1.59Z"/><path class="cls-1" d="M697.26,311.3h1.08a14.725,14.725,0,0,0,1.71-.09c3.57-.27,13.17-.81,17-1a20.17,20.17,0,0,0,3.57-.33l.18,2.25a13.927,13.927,0,0,0-3.36.39,15.222,15.222,0,0,0-5.76,3,9.17,9.17,0,0,0-3.69,6.93c0,2.52,1.53,4.53,4.2,5.55a15.349,15.349,0,0,0,4.5,1h.3l-.39,2.43-.93-.18a15.131,15.131,0,0,1-6.48-2.31,7.3,7.3,0,0,1-3.33-6.12c0-3.48,2-6.81,5.61-9.21a19.664,19.664,0,0,1,2.85-1.59,58.187,58.187,0,0,1-6.6.66,87.991,87.991,0,0,0-10.35,1Z"/><path class="cls-1" d="M744.23,321.17h-5.4a13.353,13.353,0,0,0-2.43.15v-1.65a30.486,30.486,0,0,1-3,1.44v9.84c0,1.65-.66,2.13-2.94,2.13a18.9,18.9,0,0,1-2.4-.12,6.325,6.325,0,0,0-.42-1.89,18.763,18.763,0,0,0,2.82.24c.87,0,1.11-.18,1.11-.84v-8.58c-2,.84-3.24,1.35-3.63,1.53l-.54-2a18.5,18.5,0,0,0,4.17-1.38v-6.3h-1.74a21.129,21.129,0,0,0-2.22.15v-2a13.46,13.46,0,0,0,2.25.18h1.77v-2.73a19.8,19.8,0,0,0-.18-3h2.18a18.818,18.818,0,0,0-.18,3v2.79h1.32a9.21,9.21,0,0,0,2.07-.15v1.95a12.385,12.385,0,0,0-2-.12h-1.41v5.52a27.963,27.963,0,0,0,3.24-1.56v1.74a17.373,17.373,0,0,0,2.28.12h12.48a16.572,16.572,0,0,0,2.67-.18v2a16.572,16.572,0,0,0-2.67-.18h-5.37v3.45h4a14.609,14.609,0,0,0,2.61-.15v1.89a15.393,15.393,0,0,0-2.61-.15h-4v4.32a24.154,24.154,0,0,0,3.78.27c1.5,0,3.12-.06,4.89-.21a5.524,5.524,0,0,0-.57,2h-2.7c-5.13,0-7.89-.54-9.81-1.89a11.72,11.72,0,0,1-2.55-2.52,19.292,19.292,0,0,1-3.48,5.16,4.855,4.855,0,0,0-1.53-1.14,15.366,15.366,0,0,0,3.75-5.46,13.564,13.564,0,0,0,1.11-4.14l1.95.48a12.006,12.006,0,0,0-.48,1.53c-.21.66-.39,1.26-.63,1.89a8.384,8.384,0,0,0,4.44,3.57Zm-3.27-3.9a23.2,23.2,0,0,0-2.7.09c.06-.87.09-1.74.09-2.82v-4.35a25.08,25.08,0,0,0-.09-2.79,25.525,25.525,0,0,0,2.82.12h8.16a24.147,24.147,0,0,0,2.82-.12,16.882,16.882,0,0,0-.12,2.4v4.86a21.173,21.173,0,0,0,.12,2.7c-.69-.06-1.68-.09-2.88-.09Zm-.84-5.64h10v-2.52h-10Zm0,4.08h10v-2.55h-10Z"/><path class="cls-1" d="M24.63,380.57a26.463,26.463,0,0,0,3.33-.18v2a26.463,26.463,0,0,0-3.33-.18H16.88a26.922,26.922,0,0,0,11.73,6,7.477,7.477,0,0,0-1.23,1.8,36.81,36.81,0,0,1-5.16-2.16,26.643,26.643,0,0,1-6.87-5c.06,1.2.12,2.61.12,3.24v1.29a15.988,15.988,0,0,0,.18,2.94H13.49a17.632,17.632,0,0,0,.18-2.94v-1.29c0-.63,0-1.5.09-3.21a25.98,25.98,0,0,1-6.57,4.83,43.576,43.576,0,0,1-5,2.22A5.825,5.825,0,0,0,.9,388.22a33.371,33.371,0,0,0,6.78-2.79,19.273,19.273,0,0,0,4.47-3.24H5.12a25.626,25.626,0,0,0-3.3.18v-2a25.164,25.164,0,0,0,3.27.18h8.54v-.36a13.93,13.93,0,0,0-.12-2h2a12.865,12.865,0,0,0-.12,2v.39Zm-3.18-9A11.692,11.692,0,0,1,18,374.99a80.592,80.592,0,0,1,8.55,2.67l-1.17,1.47a59.856,59.856,0,0,0-9.27-3.06c-3.45,1.65-7.14,2.46-13,2.85a4.573,4.573,0,0,0-.81-1.62,33.506,33.506,0,0,0,11.25-1.83c-2-.42-3.6-.69-6.75-1.11a25.371,25.371,0,0,0,2.85-2.79H5.27a21.965,21.965,0,0,0-3,.18v-1.86a18.07,18.07,0,0,0,2.94.18h5.73a10.872,10.872,0,0,0,1.77-2.85l2,.54-1.68,2.31h11.6a15.692,15.692,0,0,0,3-.18v1.9a20.752,20.752,0,0,0-3-.18Zm-7.71-6.51a10.887,10.887,0,0,0-.21-2.22h2.28a9.976,9.976,0,0,0-.21,2.22v.18h8.82a28.347,28.347,0,0,0,3-.12,9.477,9.477,0,0,0-.12,1.74v.57a13.964,13.964,0,0,0,.09,1.71H25.46v-2.35h-21v2.31H2.57a14,14,0,0,0,.09-1.65v-.6a10.56,10.56,0,0,0-.12-1.74c1,.09,1.77.12,3,.12h8.13Zm-1.92,6.51c-.69.78-.93,1-1.74,1.86,2.13.33,3.75.63,5.7,1.08a10.145,10.145,0,0,0,3.51-2.94Z"/><path class="cls-1" d="M47.24,365.79a10.134,10.134,0,0,0-.12-1.74h2.25a24.855,24.855,0,0,0-.15,3.75v.33c5.67,0,8-.09,9-.21v2.13a53.187,53.187,0,0,0-5.73-.15c-.45,0-.78,0-3.21.06v5.94a8.6,8.6,0,0,1,.72,3.54,9.658,9.658,0,0,1-4,7.83,19.059,19.059,0,0,1-4.74,2.43,6.594,6.594,0,0,0-1.32-1.89,15.392,15.392,0,0,0,4.86-2.25,7.772,7.772,0,0,0,3.36-6.33,4.2,4.2,0,0,1-.81,1.47,4.936,4.936,0,1,1-3.71-8.13c.107,0,.214,0,.32.01a4.608,4.608,0,0,1,3.48,1.35v-3.99c-6,.12-12.09.42-14.1.75l-.09-2.19h1.2c.87,0,.87,0,5.7-.18,2.88-.12,5.22-.18,7.26-.24Zm-1.29,9a3.838,3.838,0,0,0-2-.48,3.169,3.169,0,0,0-3.326,3.006c0,.048,0,.1,0,.144a2.9,2.9,0,0,0,2.792,3,2.694,2.694,0,0,0,.3,0,3.359,3.359,0,0,0,3.511-3.2,3.2,3.2,0,0,0,0-.339A2.17,2.17,0,0,0,45.95,374.79Z"/><path class="cls-1" d="M68.57,365.79a13.867,13.867,0,0,0,2.82.18c2.49,0,6.48-.18,9.18-.39a3.062,3.062,0,0,0,1.44-.33l1.26,1.65a5.549,5.549,0,0,0-1.53,1.26,76.993,76.993,0,0,1-9.87,8.52l.06.09a15.2,15.2,0,0,1,7.35-1.86c5,0,8.22,2.46,8.22,6.3,0,4.68-4.35,7.77-11,7.77-4.23,0-6.66-1.56-6.66-4.32,0-2,1.86-3.51,4.35-3.51a6,6,0,0,1,5,2.46,8.6,8.6,0,0,1,1.38,2.88c3.15-.87,4.8-2.7,4.8-5.25,0-2.88-2.4-4.59-6.45-4.59a19.251,19.251,0,0,0-12.69,5.14l-1.35-1.92a33.41,33.41,0,0,0,4.2-3.06c3.21-2.55,8-6.72,10-8.76l.42-.42.12-.12.12-.12-.06-.06h-.27c-1,.18-4.56.39-9.12.54a14.666,14.666,0,0,0-1.62.15Zm5.64,17.07c-1.5,0-2.43.72-2.43,1.86a2,2,0,0,0,1.2,1.83,7.675,7.675,0,0,0,3.36.69,10.809,10.809,0,0,0,2.19-.21c-.66-2.77-2.16-4.24-4.32-4.24Z"/><path class="cls-1" d="M102.86,385.55a4.49,4.49,0,1,1,0-.02Zm-7.29,0a2.79,2.79,0,1,0,2.79-2.79A2.79,2.79,0,0,0,95.57,385.55Z"/></g></g></svg>