<svg xmlns="http://www.w3.org/2000/svg" xmlns:xlink="http://www.w3.org/1999/xlink" viewBox="0 0 755.85 333.52"><defs><style>.cls-1{fill:none;}.cls-2{clip-path:url(#clip-path);}.cls-3{fill:#fff;}.cls-4{fill:#231815;}.cls-5{fill:#2c8ac8;}</style><clipPath id="clip-path"><polygon class="cls-1" points="0 20 0 60 34.64 80 69.28 60 69.28 20 34.64 0 0 20"/></clipPath></defs><g id="レイヤー_2" data-name="レイヤー 2"><g id="レイヤー_1-2" data-name="レイヤー 1"><g class="cls-2"><polygon class="cls-3" points="69.28 60 69.28 20 34.64 0 0 20 0 60 34.64 80 69.28 60"/><polygon class="cls-4" points="60.61 25 60.61 35.01 51.95 40 51.95 50 43.3 55 34.64 60 34.64 79.99 43.3 75 51.95 70 60.61 65 69.27 60 69.27 20.01 60.61 25"/><polygon class="cls-4" points="34.64 20 43.3 15.01 43.3 5.01 34.64 10.01 25.98 15.01 25.98 25 17.32 30.01 17.31 30.01 8.66 35 8.66 45 8.67 45 17.32 40.01 25.98 45 17.32 50 17.32 60 25.98 55 25.98 55 34.64 50 34.64 20"/><polygon class="cls-5" points="51.95 40 60.61 35.01 60.61 35 51.96 30.01 51.95 30.01 43.3 35.01 51.95 40"/><polygon class="cls-5" points="69.27 20.01 60.61 15.01 51.95 20.01 60.61 25 69.27 20.01"/><polygon class="cls-5" points="34.64 50 25.98 55 34.64 60 43.3 55 51.95 50 51.95 50 43.3 45 34.64 50"/><polygon class="cls-5" points="43.3 15.01 34.64 20 43.3 25 51.95 30.01 51.95 20.01 43.3 15.01"/><polygon class="cls-5" points="25.98 65 25.98 55 17.32 60 25.98 65"/><polygon class="cls-5" points="34.64 10.01 43.3 5.01 34.64 0.01 25.98 5.01 17.32 10.01 25.98 15.01 34.64 10.01"/><polygon class="cls-5" points="25.98 45 17.32 40.01 8.67 45 17.32 50 25.98 45"/><polygon class="cls-5" points="17.32 30.01 25.98 25 17.32 20.01 8.66 25 8.66 25.01 0 30.01 8.66 35 17.31 30.01 17.32 30.01"/><polygon class="cls-3" points="51.95 20.01 51.95 30.01 51.96 30.01 60.61 35 60.61 25 51.95 20.01"/><polygon class="cls-3" points="34.64 20 34.64 50 43.3 45 51.95 50 51.95 40 43.3 35.01 51.95 30.01 43.3 25 34.64 20"/><polygon class="cls-3" points="25.98 15.01 17.32 10.01 17.32 20.01 25.98 25 25.98 15.01"/><polygon class="cls-3" points="25.98 65 17.32 60 17.32 50 8.67 45 8.66 45 8.66 35 0 30.01 0 60 8.66 65 17.32 70 25.98 75 34.64 79.99 34.64 60 25.98 55 25.98 65"/><circle class="cls-5" cx="34.64" cy="40" r="11.89"/><polygon class="cls-3" points="43.3 35 43.3 45 51.95 49.99 51.95 40 51.95 40 43.3 35"/><polygon class="cls-4" points="17.32 49.99 17.32 50 17.32 60 25.98 55 25.98 55 25.98 45 17.32 49.99"/><polygon class="cls-5" points="51.96 30 51.95 30 43.3 35 51.95 40 60.61 35 60.61 35 51.96 30"/><polygon class="cls-5" points="34.64 50 25.98 55 34.64 60 43.3 55 51.95 50 51.95 49.99 43.3 45 34.64 50"/><polygon class="cls-5" points="25.98 65 25.98 64.99 25.98 55 17.32 60 25.98 65"/><polygon class="cls-5" points="25.98 45 17.32 40 8.67 45 17.32 49.99 25.98 45"/><polygon class="cls-5" points="8.66 25.01 0 30 8.66 35 17.31 30 8.66 25.01"/></g><path class="cls-3" d="M121.3,58.36a28.5,28.5,0,0,0,5.7-9.08,27.992,27.992,0,0,0,1.94-8.09,2.14,2.14,0,0,0-.61-1.79,31.063,31.063,0,0,0-7.94,2.28,3.267,3.267,0,0,1-1.64.5c-.94,0-2.09-.84-3.34-2.51a3.82,3.82,0,0,1-1.06-2.39,2.986,2.986,0,0,1,.15-.76,4.21,4.21,0,0,0,3.65,2.09c1.17,0,1.52,0,7.18-.92,3.42-.53,5.09-.75,11.55-1.48a9.627,9.627,0,0,0,3.3-.8,2.409,2.409,0,0,1,1.11-.3,5.75,5.75,0,0,1,2.43.8c1.44.72,2.16,1.52,2.16,2.28s-.6,1.29-1.59,1.29a3.142,3.142,0,0,1-.69-.08,45.94,45.94,0,0,0-12.65-.3c2.17,1.25,2.58,1.71,2.58,2.7,0,1.67-1.59,5.77-3.34,8.62a23.5,23.5,0,0,1-8.55,8.23Zm-.53-30.89a6,6,0,0,0,4.63,2.09,19.582,19.582,0,0,0,5.29-.87,11.9,11.9,0,0,0,3.34-1.44,2.264,2.264,0,0,1,1.21-.35,3.645,3.645,0,0,1,2,.8c.95.61,1.4,1.22,1.4,1.86s-.53,1.11-2.2,1.49a52.469,52.469,0,0,1-9.42,1.14c-3,0-4.94-1.33-6.61-4.45Zm18.27-2.43c3.88,1.37,6.31,3.5,6.31,5.51,0,1-.49,1.56-1.21,1.56s-.73-.11-1.68-1.9a17.087,17.087,0,0,0-3.82-4.56Zm3.92-2.62a13.508,13.508,0,0,1,4.37,1.9c1.4,1,2,1.9,2,3,0,.88-.46,1.48-1.14,1.48-.46,0-.68-.19-1.25-1.1a16.372,16.372,0,0,0-4.33-4.71Z"/><path class="cls-3" d="M165.57,58.21a17.578,17.578,0,0,0,7.22-8c1.33-3.11,1.94-6.87,2-12.38a45.12,45.12,0,0,0-7.67,1v2.05c0,1.21,0,4.33.08,5.39v.27c0,1.9-.5,2.81-1.56,2.81-.65,0-1.29-.49-1.94-1.41a4.729,4.729,0,0,1-.84-2.24,3.042,3.042,0,0,1,.27-1.06,14.738,14.738,0,0,0,.65-5.05,13.706,13.706,0,0,0-4,1.44,3.718,3.718,0,0,1-1.52.46c-.95,0-2.39-1.26-3.42-3a4.619,4.619,0,0,1-.68-2,2.471,2.471,0,0,1,.07-.46,4.367,4.367,0,0,0,3.69,1.94,37.961,37.961,0,0,0,5.85-.84c0-5.69-.46-6.72-3.12-8a1.931,1.931,0,0,1,1.26-.38,10.09,10.09,0,0,1,4.63,1.63c1,.65,1.33,1.14,1.33,1.79a3.084,3.084,0,0,1-.26,1.17,13.845,13.845,0,0,0-.46,3.27c1.75-.27,4.29-.61,7.67-1v-3c0-2.7-.19-3.84-.76-4.52a4.587,4.587,0,0,0-2.77-1.48,2.6,2.6,0,0,1,1.82-.53,11.349,11.349,0,0,1,4.79,1.14c1.14.53,1.63,1.1,1.63,1.86a2,2,0,0,1-.22.91c-.57,1.29-.65,1.86-.84,5.17a10.236,10.236,0,0,0,4.22-.84,2.071,2.071,0,0,1,1-.26,5.665,5.665,0,0,1,2.66,1c1,.61,1.41,1.18,1.41,1.79a1.129,1.129,0,0,1-1.116,1.143.9.9,0,0,1-.1,0,4.006,4.006,0,0,1-.6,0q-3.139-.327-6.3-.34h-1.22c-.19,8.06-.83,11.17-3,14.21a18.723,18.723,0,0,1-9.57,6.65Zm15-33.85a10.208,10.208,0,0,1,3.5,2.13,4.692,4.692,0,0,1,1.7,3.3c0,1-.45,1.56-1.17,1.56-.5,0-.8-.34-1.18-1.41a14.9,14.9,0,0,0-3.38-5.13Zm4-1.83a10.922,10.922,0,0,1,3.53,1.87,4.271,4.271,0,0,1,1.9,3.26c0,.92-.42,1.49-1.1,1.49-.53,0-.72-.23-1.22-1.3a13.376,13.376,0,0,0-3.64-4.82Z"/><path class="cls-3" d="M195.86,47.65a70.789,70.789,0,0,0,14.17-11.29c4.06-4.1,6.38-7.14,6.38-8.39,0-.8-.87-1.79-2.28-2.51a4.292,4.292,0,0,1,1.22-.15,7.609,7.609,0,0,1,3.84,1.29c1.74,1,2.77,2.16,2.77,3,0,.68-.19.91-1.52,1.86-.15.11-.15.11-2.47,2.32-2.66,2.47-2.66,2.47-5.36,4.78a9.558,9.558,0,0,1,2.63,2.25c.34.53.37.91.41,3.72,0,1.75,0,2.24.27,9.46v1.44c0,1.56-.5,2.32-1.56,2.32-1.41,0-3.5-2.32-3.5-3.91a3.353,3.353,0,0,1,.23-1.22c.5-1.56.84-5.7.84-9.8,0-1.94-.12-2.47-.65-3.19a62.448,62.448,0,0,1-8.13,5.39,47.734,47.734,0,0,1-7.14,3Z"/><path class="cls-3" d="M240.09,29.53c4.25.68,6.53,1.33,8.32,2.47a3.572,3.572,0,0,1,1.86,3.26c0,1.79-.87,3.16-2.05,3.16-.65,0-1-.31-1.6-1.3a17.89,17.89,0,0,0-6.72-7.18Zm28.87,2.2a40.766,40.766,0,0,1-8.54,11.78,61.527,61.527,0,0,1-11,8.66,8.771,8.771,0,0,0-2.05,1.67,2.089,2.089,0,0,1-1.6.95c-1,0-2.39-1.06-3.72-2.77a7.242,7.242,0,0,1-1.83-4.22,3.047,3.047,0,0,1,.19-1c1,1.75,2.28,2.82,3.31,2.82,1.59,0,6.57-2.62,11.09-5.85a75.015,75.015,0,0,0,13.72-12.24Z"/><path class="cls-3" d="M286.33,41.57a40.124,40.124,0,0,1,7.6,3.8c4.64-4.75,9.2-10.22,9.2-11.13,0-.23-.19-.31-.72-.31a78.265,78.265,0,0,0-11.25,1.83,30.207,30.207,0,0,0-7.45,2.39,2.119,2.119,0,0,1-1.18.34c-1,0-2.16-.91-3.3-2.58a7.13,7.13,0,0,1-1.44-3.46,2.259,2.259,0,0,1,.22-1c1.14,1.9,2.28,2.63,4.33,2.63,1.49,0,5-.39,11.48-1.26l7.52-1.06a3.517,3.517,0,0,0,1.52-.57,2.371,2.371,0,0,1,1.26-.38c.79,0,1.93.72,3.38,2.12s2,2.36,2,3.08a1.239,1.239,0,0,1-.72,1.14,2.858,2.858,0,0,1-1,.34c-.57.19-1.18.57-5.58,3.8-4,2.93-5.06,3.69-7,4.94a13.405,13.405,0,0,1,2.69,2.51,3.662,3.662,0,0,1,.91,2.62c0,2-1,3.54-2.27,3.54-.77,0-1.18-.42-1.75-1.79a36.686,36.686,0,0,0-4.07-6.53,25.643,25.643,0,0,0-4.67-4.64Z"/><path class="cls-3" d="M317.57,50.65a63.438,63.438,0,0,0,10.75-6.53,68.348,68.348,0,0,0,10.53-9.58,50.354,50.354,0,0,0-10.41,3.11,3.077,3.077,0,0,1-1.41.42c-.95,0-2.09-.95-3.11-2.63a4.709,4.709,0,0,1-.72-2.24,1.591,1.591,0,0,1,.22-.83,4.05,4.05,0,0,0,3.76,2.16,59.093,59.093,0,0,0,8.32-1.21c2.7-.5,3.12-.61,4-1.14a2.747,2.747,0,0,1,1.18-.42,5.763,5.763,0,0,1,2.47,1.41,3.371,3.371,0,0,1,1.29,1.82c0,.42-.22.72-.83,1a8.66,8.66,0,0,0-1.94,1.34c-.61.56-1.56,1.4-2.77,2.46-1.41,1.18-2.4,2-4,3.16a5,5,0,0,1,1.48,1.82c.23.53.23.53.23,2.66l-.08,2.05c0,.84.08,4.3.12,5.09s.07,1.52.07,2c0,1.29-.57,2.09-1.56,2.09-.76,0-1.59-.65-2.24-1.79a5.708,5.708,0,0,1-.91-2.43c0-.23,0-.23.27-.8.49-1.14.79-3.87.79-7.33a6.129,6.129,0,0,0-.19-2,45,45,0,0,1-15.16,6.76Zm10.64-26.22a8.084,8.084,0,0,0,6,2,7.791,7.791,0,0,0,2.58-.38,3.812,3.812,0,0,1,.92-.19c1.29,0,3.11,1.63,3.11,2.77,0,.92-1,1.45-2.77,1.45-5.13,0-8.17-1.6-10.26-5.4Zm9.77,18.74c4.25,0,7.67.49,9.57,1.33a3.65,3.65,0,0,1,2.47,3.53c0,1.41-.65,2.35-1.63,2.35-.5,0-.76-.15-1.37-.79a23.411,23.411,0,0,0-9.16-6Z"/><path class="cls-3" d="M362.03,38.83c.84.61,1.71.8,3.8.8,1.52,0,8.47-.11,15.05-.26h4.25c3.8,0,5,.15,5.59.68a1.51,1.51,0,0,1,.45,1.14c0,1-.83,1.56-2.47,1.79-2.12.26-5.47.38-16.94.45-1.75,0-1.94,0-4.71.16a4.29,4.29,0,0,0-1.68.34,3.3,3.3,0,0,1-1.29.3c-.91,0-1.93-.83-2.81-2.35a8.386,8.386,0,0,1-1.33-4,1.408,1.408,0,0,1,.46-1.25C361.2,38.04,361.42,38.38,362.03,38.83Z"/><path class="cls-3" d="M401.64,36.25a20.189,20.189,0,0,1,7.64,2,3,3,0,0,1,1.63,2.77c0,1.52-.8,2.66-1.86,2.66-.61,0-.88-.23-1.52-1.22a18.282,18.282,0,0,0-6-5.85Zm30.77-1.37c-3.91,6.73-10.94,13.38-19.9,18.85a15.117,15.117,0,0,0-3.12,2.28,1.629,1.629,0,0,1-1.1.49c-1.9,0-5.17-4.25-5.17-6.72a2.88,2.88,0,0,1,.27-1.14c.83,1.63,2.2,2.77,3.34,2.77s4.07-1.33,8.21-3.76a85.6,85.6,0,0,0,17.13-13Zm-26.44-5.89c3.76.42,6.35,1.14,7.9,2.21a2.93,2.93,0,0,1,1.45,2.66c0,1.48-.84,2.66-1.86,2.66-.65,0-.84-.19-1.64-1.45a17.22,17.22,0,0,0-6-5.73Zm16.26-2.24a13.976,13.976,0,0,1,4.07,1.83c1.75,1.17,2.54,2.28,2.54,3.49,0,.87-.45,1.48-1.14,1.48-.53,0-.79-.23-1.33-1.1a16.73,16.73,0,0,0-4.48-5Zm3.88-3a13.012,13.012,0,0,1,4.44,1.67c1.52,1,2.21,1.86,2.21,2.93,0,.91-.46,1.52-1.14,1.52-.42,0-.69-.23-1.26-1a15.989,15.989,0,0,0-4.56-4.48Z"/><path class="cls-3" d="M448.06,33.74a59.283,59.283,0,0,1,10,4.75c2.74-4.4,4.3-7.82,4.3-9.38,0-1.26-.8-2.28-2.47-3.16a1.753,1.753,0,0,1,1-.22,9.891,9.891,0,0,1,5.58,2.47c1.1.91,1.56,1.63,1.56,2.35,0,.5-.15.72-.95,1.45a9.5,9.5,0,0,0-1.63,2.24c-.16.23-.16.23-1.37,2.24-.19.3-.84,1.33-2,3.08a10.162,10.162,0,0,0-.61,1c4.37,3.11,5.25,4.18,5.25,6.38,0,1.71-.8,3.08-1.79,3.08-.53,0-.91-.35-1.48-1.22a33.952,33.952,0,0,0-4.18-5.28,42.564,42.564,0,0,1-8.24,8.55,35.448,35.448,0,0,1-9.16,5.24l-.27-.42a66.165,66.165,0,0,0,15-16.07,66.986,66.986,0,0,0-8.77-6.65Z"/><path class="cls-3" d="M485.19,29.53c4.25.68,6.53,1.33,8.32,2.47a3.572,3.572,0,0,1,1.86,3.26c0,1.79-.87,3.16-2.05,3.16-.65,0-1-.31-1.6-1.3A17.89,17.89,0,0,0,485,29.94Zm28.88,2.2a40.8,40.8,0,0,1-8.55,11.78,61.527,61.527,0,0,1-11,8.66,8.771,8.771,0,0,0-2.05,1.67,2.089,2.089,0,0,1-1.6.95c-1,0-2.39-1.06-3.72-2.77a7.242,7.242,0,0,1-1.83-4.22,3.047,3.047,0,0,1,.19-1c1,1.75,2.28,2.82,3.31,2.82,1.59,0,6.57-2.62,11.09-5.85A75,75,0,0,0,513.64,31.5Z"/><path class="cls-3" d="M532.64,25.38a11,11,0,0,1,4.18,1.11c1.67.83,2.47,1.63,2.47,2.5a1.853,1.853,0,0,1-.34,1,4.868,4.868,0,0,0-.65,2.51c-.07.76-.15,3.23-.22,5.24a28.359,28.359,0,0,1,9.15,1.86c1.94.88,2.78,2,2.78,3.73s-.69,2.69-1.68,2.69c-.57,0-.79-.15-1.78-1.25a21.668,21.668,0,0,0-8.47-5.93v6c0,3.19,0,3.19.11,7.71v1.82a7.014,7.014,0,0,1-.23,2.28,1.38,1.38,0,0,1-1.33,1,2.668,2.668,0,0,1-2-1.33,5.818,5.818,0,0,1-1.37-3.07,4,4,0,0,1,.34-1.52c.65-1.86.88-6.27.88-16,0-5.47-.12-6.91-.69-7.94a4.64,4.64,0,0,0-2.62-2A2.651,2.651,0,0,1,532.64,25.38Z"/><path class="cls-3" d="M571.18,27.7a32.472,32.472,0,0,1-3.42,10l.31.31h3.11c.84-.95,1.1-1.26,2.05-2.25,1.14,1,1.49,1.22,2.55,2.17.27.27.38.42.38.57s-.19.38-.95.84v5.43c0,4.82,0,4.82.15,9a.79.79,0,0,1-.68.84,7.385,7.385,0,0,1-2,.27c-.91,0-1.14-.16-1.14-.76V52.79h-3.07v3.57a.72.72,0,0,1-.58.76,10.892,10.892,0,0,1-2.24.26c-.79,0-1.1-.19-1.1-.72.12-5.51.19-8.4.19-8.7V42.34a28.679,28.679,0,0,1-3.49,3.84l-.27-.31a46.578,46.578,0,0,0,5.74-18.2h-2.25a9.463,9.463,0,0,0-2.2.23l-.23-1.33a9.179,9.179,0,0,0,2.43.3h6.08c1.07-1.29,1.37-1.67,2.47-2.85,1.56,1.3,2,1.71,3.54,3.12.15.15.19.23.19.34s-.15.19-.42.19Zm-2.69,24.32h3.07V38.83h-3.07Zm24.12-13h.38c.87-1.22,1.18-1.56,2.13-2.74,1.33,1.25,1.71,1.67,3,3,.15.15.19.23.19.34s-.15.19-.38.19h-5.29v4.72c0,4.74,0,5.2.19,13.18a.74.74,0,0,1-.594.862l-.056.008a13.157,13.157,0,0,1-2.65.23c-1,0-1.26-.15-1.26-.8.19-8.13.19-8.7.19-13.48V39.81h-4.6c-.3,6.73-1,9.73-3.07,12.81s-4.45,4.79-8.78,6.61l-.23-.38a19.008,19.008,0,0,0,4.3-4.14,18.712,18.712,0,0,0,3.3-9c.19-1.41.3-3.39.38-5.86h-1.12a12.775,12.775,0,0,0-2,.19l-.23-1.25a9.156,9.156,0,0,0,2.36.27h1.06v-12h-.19a15.714,15.714,0,0,0-2.47.19l-.23-1.33a10.341,10.341,0,0,0,2.74.34h11.51c.91-1,1.82-1.94,2.66-2.81,1.6,1.22,2.05,1.63,3.61,3,.19.16.26.27.26.38s-.22.27-.49.27h-4.59Zm-8.62-12c0,6.61,0,9.57-.12,12h4.56v-12Z"/><path class="cls-3" d="M615.34,44.31a24.667,24.667,0,0,0,.34-4.07,11.726,11.726,0,0,0-.11-1.9c1.29.11,2.28.19,2.92.27h.15c2.28.19,3.19.45,3.19.83s-.53.69-1.74,1c-.23,2-.35,2.7-.53,3.8l4.75-.08,2.16-2.24,1.71,1.18c.34.27.84.61,1.52,1.06.38.31.53.5.53.69s-.26.49-.68.76a6.613,6.613,0,0,0-.8.49v7.64c0,.68.11.8,1.1.8a11.365,11.365,0,0,0,3.19-.27c.61-.19,1.11-1.1,1.71-3.12.38-1.32.42-1.44,1.33-4.52l.46.08-.23,6a.379.379,0,0,1,0,.15c0,.76.07.92.61,1.14a1.79,1.79,0,0,1,1.33,1.79c0,1.29-.95,2-2.89,2.09-1.71.15-4.26.23-6.08.23a8.826,8.826,0,0,1-3.64-.46,2.271,2.271,0,0,1-1-2.16l.11-10.45-5.28.08c-.87,4.14-2.39,6.83-5.2,9.19a19.01,19.01,0,0,1-6.42,3.46c-1.14.34-1.71.49-4.52,1.18l-.16-.35c7.45-3.34,10.64-6.91,12-13.41l-6.8.08a19.263,19.263,0,0,0-2.17.22l-.38-1.29a14.775,14.775,0,0,0,2.51.23h.19Zm3-14.44a12.774,12.774,0,0,1-.91,4c-1.75,4.44-6.54,7.33-13.64,8.2l-.19-.41c4.26-1.49,6.46-2.93,8.32-5.4a10.6,10.6,0,0,0,2.17-6.38h-5.17v.64a8,8,0,0,1-.65,3.54,3.65,3.65,0,0,1-3,2.24c-1.14,0-2-1.1-2-2.66a1.69,1.69,0,0,1,1.21-1.86c2.13-1.07,2.93-2.21,3.5-5.06h.42a13.011,13.011,0,0,1,.41,2.36h9.24V26.65a16.863,16.863,0,0,0-.16-2.47c4.79.46,5.13.49,5.59.65s.57.26.57.45c0,.38-.53.69-1.6,1v2.81h8.36c1-1,1.26-1.33,2.28-2.32,1.79,1.37,2.32,1.83,4.07,3.31.34.34.45.45.45.64,0,.38-.45.61-1.25.61a12.814,12.814,0,0,1-1.45-.07c-1.86,1.14-4,2.35-5.12,2.92l-.35-.19a30.007,30.007,0,0,0,1.68-4.1H625.8v5.76c0,.6.19.72,1.21.79h3.38c1.75,0,2.36-.15,2.78-.68a22.551,22.551,0,0,0,1.78-3.57h.38l-.15,2.59v.26c0,.72,0,.72,1,1.14a1.24,1.24,0,0,1,.91,1.22c0,1.14-.72,1.71-2.58,1.94-.54.07-3.65.19-4.72.19h-.53c-.45,0-1.71,0-3.61-.08-2.92,0-3.76-.61-3.76-2.43V29.84Z"/><path class="cls-3" d="M661.47,34.58a50.719,50.719,0,0,1-5.47,6c4.37-.08,5.13-.08,13-.57a29.472,29.472,0,0,0-4.1-4l.19-.27a36.548,36.548,0,0,1,6.76,2.47c2.32,1.22,3.19,2.25,3.19,3.73s-.87,3.11-1.82,3.11c-.46,0-.8-.34-1.6-1.67a20.066,20.066,0,0,0-1.82-2.47c-5.43,1.26-5.43,1.26-7.83,1.67-2.85.5-9,1.41-11.89,1.75-.15,1.06-.38,1.52-.8,1.52s-.83-1-1.74-5.51a55.753,55.753,0,0,0,6.64.23,32.782,32.782,0,0,0,2.06-6h-3.46a13.576,13.576,0,0,0-2.51.27l-.3-1.33a15.678,15.678,0,0,0,2.81.26h15.65c1-1.18,1.37-1.52,2.43-2.62l1.18.84a15.761,15.761,0,0,0,.53-2.59H649.88a9.668,9.668,0,0,1-.72,4.33,3.309,3.309,0,0,1-2.7,2.17,2.489,2.489,0,0,1-2.24-2.66,1.578,1.578,0,0,1,.57-1.37c.15-.11.15-.11,1.06-.68a6.561,6.561,0,0,0,2.36-2.28,7.859,7.859,0,0,0,.72-2.74h.46a8,8,0,0,1,.45,2.43H659V26.48a20.276,20.276,0,0,0-.11-2.82c5.16.35,6.19.54,6.19,1.07,0,.38-.53.68-1.79,1v2.92h9c.91-1,1.22-1.29,2.16-2.28,1.9,1.3,2.48,1.71,4.26,3.08.31.27.42.42.42.65a.529.529,0,0,1-.31.42,3.709,3.709,0,0,1-1,.19h-1.37c-.45.27-.91.5-1.14.61-1.78.95-1.82.95-2.39,1.25l2,1.52c.15.08.23.19.23.27a.25.25,0,0,1-.23.19Zm7.71,14.59c1.45-1.56,1.45-1.56,2.78-3,1.82,1.32,2.39,1.74,4.25,3.26.11.12.15.19.15.27a.332.332,0,0,1-.3.23H663.29v6.72h8.48c1.25-1.4,1.63-1.82,2.92-3.15,1.82,1.33,2.43,1.79,4.41,3.38.15.15.26.27.26.38s-.11.19-.26.19H647.98a21.322,21.322,0,0,0-3.11.27l-.31-1.37a19.025,19.025,0,0,0,3.46.3h11V49.97h-8.28a15.748,15.748,0,0,0-2.81.22l-.3-1.29a20.255,20.255,0,0,0,3.11.27h8.28v-1.6a32.662,32.662,0,0,0-.18-3.83c1.14.11,2.12.22,2.66.3,2.81.27,3.3.38,3.3.8s-.23.49-1.56.95v3.38Z"/><path class="cls-3" d="M13.89,136.65a8.9,8.9,0,0,0-.18-2h2.28a11.177,11.177,0,0,0-.18,2v1.32h9.45a21.693,21.693,0,0,0,3.12-.18v2a28.959,28.959,0,0,0-3.06-.15h-4a24.5,24.5,0,0,1-1.68,3.66H24.2a21.076,21.076,0,0,0,2.82-.12,18.613,18.613,0,0,0-.12,2.43v14.04c0,1.05-.24,1.68-.75,2a4.055,4.055,0,0,1-2.52.45c-.84,0-1.95,0-3.33-.12a6.35,6.35,0,0,0-.54-2,35.859,35.859,0,0,0,3.9.33c1.08,0,1.35-.18,1.35-.81V144.92h-6.8v2.91c0,.54.18.6,1.89.6s2.13-.06,2.31-.45a4.5,4.5,0,0,0,.3-1.71,4.448,4.448,0,0,0,1.53.69c-.39,2.76-.78,3-4.29,3-2.91,0-3.48-.27-3.48-1.68v-3.39H12.9a7.265,7.265,0,0,1-.87,2.88c-1,1.92-2.37,3-5.49,4.38a5.605,5.605,0,0,0-1.14-1.5c2.91-1,4.17-1.89,5-3.51a5.984,5.984,0,0,0,.63-2.22H4.98v14.19a24.816,24.816,0,0,0,.18,3.27H2.91a25.521,25.521,0,0,0,.18-3.27V145.65a20.126,20.126,0,0,0-.12-2.43,23.791,23.791,0,0,0,2.85.12h4.23a17.7,17.7,0,0,0-1.47-3.69H4.8a29.5,29.5,0,0,0-3.06.15v-2a23.243,23.243,0,0,0,3.12.18h9Zm6.51,19.29a20.686,20.686,0,0,0,.12,2.61,23.476,23.476,0,0,0-2.73-.12h-6.6v1.53H9.27a13.16,13.16,0,0,0,.15-2.19v-4.42a14.917,14.917,0,0,0-.12-2.07c.87.06,1.41.09,2.55.09h5.94a25.912,25.912,0,0,0,2.73-.09,18.714,18.714,0,0,0-.12,2.46ZM17.64,143.3a15.584,15.584,0,0,0,1.68-3.65H10.56A27.714,27.714,0,0,1,12,143.28Zm-6.45,13.59h7.45v-4H11.19Z"/><path class="cls-3" d="M34.06,152.03a27.718,27.718,0,0,0-.12-2.91,24.453,24.453,0,0,0,2.76.12h5.67a20.025,20.025,0,0,0,2.43-.09,26.023,26.023,0,0,0-.09,2.82v6.93a23.271,23.271,0,0,0,.12,2.94h-2v-1.32h-7v1.89h-2a20.338,20.338,0,0,0,.15-3.12Zm1.86,6.81h7v-7.92h-7Zm2.46-20.25a20.794,20.794,0,0,0-.12-2.52,24.81,24.81,0,0,0,3.36.15h9.81a22.858,22.858,0,0,0,3.39-.15,19.726,19.726,0,0,0-.12,2.49v5.09a21.162,21.162,0,0,0,.12,2.64,28.378,28.378,0,0,0-3.18-.14H41.44a29.1,29.1,0,0,0-3.18.12,22.746,22.746,0,0,0,.12-2.61Zm1.89,5.85H52.78v-6.51H40.27Zm7.37,7.29a18.826,18.826,0,0,0,0-2.58c.75.06,1.41.09,2.43.09h6.57a19.855,19.855,0,0,0,2.58-.12,26,26,0,0,0-.12,2.94v7.23a19.369,19.369,0,0,0,.15,3.12h-2v-1.89H49.51v1.89h-2a24.666,24.666,0,0,0,.12-2.94Zm1.83,7.11h7.71v-7.92H49.51Z"/><path class="cls-3" d="M71.29,137.18a12.08,12.08,0,0,0,.57,1.83c.6,1.77.9,2.61,1.32,4a53.327,53.327,0,0,1,6.45-1.68,41.641,41.641,0,0,0-.12-5.31h2.25a28.424,28.424,0,0,0-.15,4v1a15.136,15.136,0,0,1,2.25-.18c4,0,6.6,2.16,6.6,5.52,0,3.6-2.94,6.18-7,6.18a12.7,12.7,0,0,1-5.07-1.11,4.422,4.422,0,0,0,0-.54,13.273,13.273,0,0,0-.18-1.71,10.2,10.2,0,0,0,5,1.38,6.081,6.081,0,0,0,3.6-1.17,3.639,3.639,0,0,0,1.44-3.06c0-2.28-1.77-3.63-4.8-3.63-2.19,0-5.43.72-9.78,2.13,1.53,5.1,2.61,9.33,3.87,15a9.488,9.488,0,0,0,.39,1.29l-2.43.54c-.15-2.46-1.83-9.69-3.78-16.2a13.038,13.038,0,0,1-1.62.54,28.622,28.622,0,0,0-4.11,1.65l-.78-2.13a32.989,32.989,0,0,0,4.43-1.47c.75-.27,1-.33,1.53-.48a30.156,30.156,0,0,0-2.16-5.7Z"/><path class="cls-3" d="M114.23,142.46v-2.91a20.035,20.035,0,0,0-.09-3h2.34a20.631,20.631,0,0,0-.12,2.79v3.15h2.58a21.791,21.791,0,0,0,3.51-.18v2.28a27.7,27.7,0,0,0-3.48-.15h-2.64c-.06,6.09-.36,8-1.47,10.17a12.688,12.688,0,0,1-4.89,5,22.314,22.314,0,0,1-3.48,1.53,5.379,5.379,0,0,0-1.35-1.89,13.275,13.275,0,0,0,5.73-2.94c2.1-1.89,2.94-3.87,3.21-7.5.06-1,.09-1.89.12-4.32h-9.12v5a16.445,16.445,0,0,0,.12,2.43h-2.43a17.113,17.113,0,0,0,.12-2.52v-4.92h-2.52a27.7,27.7,0,0,0-3.48.15v-2.28a21.791,21.791,0,0,0,3.51.18h2.49v-3.45a17.392,17.392,0,0,0-.12-2.52h2.43a12.992,12.992,0,0,0-.12,2.43v3.54Z"/><path class="cls-3" d="M128.84,147.35a21.223,21.223,0,0,0,3.72.18h17.43a23.668,23.668,0,0,0,3.63-.15v2.43a34.393,34.393,0,0,0-3.66-.12h-17.4a32.762,32.762,0,0,0-3.72.12Z"/><path class="cls-3" d="M166.11,146.81c4.74-.81,12.06-3.78,14.07-5.76l1.53,2c-.45.21-.6.27-1.29.63a46.588,46.588,0,0,1-14.31,5.07v4.9c0,2.1.12,2.79.63,3.3a3.6,3.6,0,0,0,2.28.78,31.248,31.248,0,0,0,3.54.18,59.347,59.347,0,0,0,6.87-.48,14.412,14.412,0,0,0,3-.6l.18,2.4a3.8,3.8,0,0,0-1,.09h-.39l-1.44.15c-1.92.21-5.88.42-8,.42-3.54,0-5.52-.36-6.57-1.23a4,4,0,0,1-1.23-2.88c0-.48-.06-1.08-.06-2.34V139.65a16.709,16.709,0,0,0-.12-2.49h2.46a13.281,13.281,0,0,0-.15,2.52Zm15-11.16a22.736,22.736,0,0,1,3.09,4.65l-1.5.9a22.222,22.222,0,0,0-3.09-4.77ZM184.5,134a25.9,25.9,0,0,1,3.14,4.65l-1.53.84a22.469,22.469,0,0,0-3.06-4.71Z"/><path class="cls-3" d="M214.64,160.37a55.827,55.827,0,0,0-9.6-9.27,32.227,32.227,0,0,1-5.73,5.37,39.027,39.027,0,0,1-5.87,3.6,6.88,6.88,0,0,0-1.48-2,23.992,23.992,0,0,0,6.09-3.45,32.518,32.518,0,0,0,10.71-13.53c.06-.18.09-.21.15-.36a.642.642,0,0,0,.09-.21,5.089,5.089,0,0,1-.72,0l-10,.15a20.227,20.227,0,0,0-3.09.24l-.06-2.43a14.127,14.127,0,0,0,2.37.15h.78l10.71-.12a5.6,5.6,0,0,0,1.92-.24l1.26,1.29a5.6,5.6,0,0,0-.84,1.47,36.279,36.279,0,0,1-5,8.4,74.572,74.572,0,0,1,10,9Z"/><path class="cls-3" d="M234.64,152.12c-1.74,4-3.51,5.76-5.67,5.76-2.85,0-5-3.12-5-7.32a12.179,12.179,0,0,1,12.072-12.287q.384,0,.768.017a11.611,11.611,0,0,1,8.25,3,10,10,0,0,1,2.91,7.32,10.921,10.921,0,0,1-6.87,10.35,23.212,23.212,0,0,1-4.56,1.38,4.774,4.774,0,0,0-1.05-2,18.022,18.022,0,0,0,5-1.41,9.058,9.058,0,0,0,5.31-8.4,7.91,7.91,0,0,0-4.77-7.53,8.622,8.622,0,0,0-3.48-.75A45.02,45.02,0,0,1,234.64,152.12Zm-3.72-10.47a10.367,10.367,0,0,0-4.89,8.94c0,2.88,1.26,5.1,2.88,5.1,1.26,0,2.46-1.41,3.75-4.35a41.217,41.217,0,0,0,2.73-11.1A9.469,9.469,0,0,0,230.92,141.65Z"/><path class="cls-3" d="M277.78,141.5a5.5,5.5,0,0,0-.63,1.86c-1.62,5.55-3.83,9.3-7.35,12.45a27.547,27.547,0,0,1-9.41,5.64,5.849,5.849,0,0,0-1.48-2.07,22.462,22.462,0,0,0,16.23-17.49H259.88a22.072,22.072,0,0,0-3.36.18v-2.42a20.986,20.986,0,0,0,3.38.18h16.26a20.847,20.847,0,0,0-2.82-4.08l1.5-.78a21.989,21.989,0,0,1,3.24,4.8l-1.11.66Zm.93-7.59a26.169,26.169,0,0,1,3.15,4.62l-1.53.9a22.249,22.249,0,0,0-3.09-4.71Z"/><path class="cls-3" d="M288.2,144.35a21.564,21.564,0,0,0,3.51.18H307.1a5.072,5.072,0,0,0,2-.21l1.11,1.29a8.71,8.71,0,0,0-.84,1.89c-2.55,7-6.69,10.83-14.46,13.44a6.531,6.531,0,0,0-1.29-2.07c4-1.14,6.66-2.49,8.91-4.56s3.48-4.17,4.86-7.86H291.64a27.7,27.7,0,0,0-3.48.15Zm2.58-7a13.74,13.74,0,0,0,3.15.21h10a13.744,13.744,0,0,0,3.15-.21v2.31a20.088,20.088,0,0,0-3.12-.15H293.9a20.082,20.082,0,0,0-3.12.15Z"/><path class="cls-3" d="M319.86,157.49a26.005,26.005,0,0,0,8.72-2.31c5.79-2.58,9.82-7,12.24-13.35a6.121,6.121,0,0,0,1.82,1.82c-2.4,5.22-5.19,8.73-9.15,11.46-3.09,2.1-6.18,3.33-11.18,4.47a15.753,15.753,0,0,0-1.8.48Zm1.92-18.6a38.637,38.637,0,0,1,7.22,5.64l-1.55,1.86a33.365,33.365,0,0,0-7.14-5.88Z"/><path class="cls-3" d="M356.07,161.03a19.992,19.992,0,0,0,.18-3.15V139.25a17.6,17.6,0,0,0-.18-3.06h2.57a17.134,17.134,0,0,0-.15,3.12v5.61a78.72,78.72,0,0,1,13.35,6.33l-1.29,2.22a62.481,62.481,0,0,0-11.19-5.94,3.811,3.811,0,0,1-.93-.51h-.06a9.989,9.989,0,0,1,.12,1.77v9a18.578,18.578,0,0,0,.15,3.18Zm11.57-23.64a22.736,22.736,0,0,1,3.09,4.65l-1.5.9a22.222,22.222,0,0,0-3.09-4.77Zm3.39-1.65a25.26,25.26,0,0,1,3.09,4.68l-1.5.87a21.887,21.887,0,0,0-3.06-4.74Z"/><path class="cls-3" d="M386.95,137.18a12.08,12.08,0,0,0,.57,1.83c.6,1.77.9,2.61,1.32,4a53.327,53.327,0,0,1,6.45-1.68,37.8,37.8,0,0,0-.13-5.31h2.25a30.7,30.7,0,0,0-.14,4v1a15.136,15.136,0,0,1,2.25-.18c4,0,6.6,2.16,6.6,5.52,0,3.6-2.94,6.18-7.05,6.18a12.666,12.666,0,0,1-5.07-1.11,4.422,4.422,0,0,0,0-.54,13.273,13.273,0,0,0-.18-1.71,10.186,10.186,0,0,0,5,1.38,6.083,6.083,0,0,0,3.61-1.17,3.629,3.629,0,0,0,1.43-3.06c0-2.28-1.76-3.63-4.8-3.63-2.18,0-5.42.72-9.77,2.13,1.52,5.1,2.61,9.33,3.86,15a11.126,11.126,0,0,0,.4,1.29l-2.43.54c-.15-2.46-1.83-9.69-3.78-16.2a13.038,13.038,0,0,1-1.62.54,28.622,28.622,0,0,0-4.11,1.65l-.78-2.13a32.928,32.928,0,0,0,4.41-1.41c.75-.27,1.05-.33,1.53-.48a30.088,30.088,0,0,0-2.16-5.7Z"/><path class="cls-3" d="M418.64,146.81c4.74-.81,12.06-3.78,14.07-5.76l1.53,2c-.45.21-.6.27-1.29.63a46.562,46.562,0,0,1-14.31,5.11v4.86c0,2.1.12,2.79.63,3.3a3.6,3.6,0,0,0,2.28.78,31.248,31.248,0,0,0,3.54.18,59.347,59.347,0,0,0,6.87-.48,14.412,14.412,0,0,0,3-.6l.18,2.4a3.8,3.8,0,0,0-1,.09h-.39l-1.44.15c-1.92.21-5.88.42-7.95.42-3.54,0-5.52-.36-6.57-1.23a4,4,0,0,1-1.23-2.88c0-.48-.06-1.08-.06-2.34V139.65a16.709,16.709,0,0,0-.12-2.49h2.46a13.281,13.281,0,0,0-.15,2.52Zm15-11.16a22.736,22.736,0,0,1,3.09,4.65l-1.5.9a22.222,22.222,0,0,0-3.09-4.77Zm3.39-1.65a25.907,25.907,0,0,1,3.12,4.68l-1.53.84a22.469,22.469,0,0,0-3.06-4.71Z"/><path class="cls-3" d="M447.2,144.32a48.086,48.086,0,0,1,7.62,3.9l-1.17,2a33.117,33.117,0,0,0-7.65-4.11Zm-.78,13.71h.22a27.245,27.245,0,0,0,7.89-1.86,21.439,21.439,0,0,0,12.6-13.44,9.01,9.01,0,0,0,1.86,1.62c-3.78,9.09-10,13.8-20.76,15.84a9.25,9.25,0,0,0-1.17.3Zm3.12-20.88a46.772,46.772,0,0,1,7.44,3.78l-1.23,2a32.4,32.4,0,0,0-7.38-4Zm15.72-1.38a24.872,24.872,0,0,1,3.06,4.65l-1.5.9a24.249,24.249,0,0,0-3.06-4.77Zm3.38-1.62a23.814,23.814,0,0,1,3.12,4.65l-1.5.87a23.553,23.553,0,0,0-3.09-4.71Z"/><path class="cls-3" d="M486.95,161.65a15.11,15.11,0,0,0,.18-2.55v-8.45a1.216,1.216,0,0,1,0-.33,39.688,39.688,0,0,1-10.14,4.38,6.3,6.3,0,0,0-1.11-2,40.75,40.75,0,0,0,8.67-3.09,33.6,33.6,0,0,0,10.09-7.39c-.78.06-1.26.09-1.71.09l-11.46.06a25.242,25.242,0,0,0-2.91.12v-2.25a15.247,15.247,0,0,0,2.91.21h5.58v-2.7a12.161,12.161,0,0,0-.12-2h2.4a9.311,9.311,0,0,0-.15,2v2.76h6.3a3.2,3.2,0,0,0,1.32-.21l1.11,1.32a5.171,5.171,0,0,0-.81.81,33.1,33.1,0,0,1-7,6.21,65.4,65.4,0,0,1,11,5.22l-1.23,2a62.3,62.3,0,0,0-9.9-5.25,8.32,8.32,0,0,1-.87-.45,7.008,7.008,0,0,1,.12,1.53v7.44a15.6,15.6,0,0,0,.12,2.61Z"/><path class="cls-3" d="M530.34,160.37a55.827,55.827,0,0,0-9.6-9.27,32.512,32.512,0,0,1-5.73,5.37,38.62,38.62,0,0,1-5.88,3.6,6.674,6.674,0,0,0-1.47-2,24.135,24.135,0,0,0,6.09-3.45,32.518,32.518,0,0,0,10.71-13.53c.06-.18.09-.21.15-.36a.622.622,0,0,0,.09-.21,5.089,5.089,0,0,1-.72,0l-10,.15a20.247,20.247,0,0,0-3.09.24l-.06-2.43a14.133,14.133,0,0,0,2.37.15h.78l10.71-.12a5.6,5.6,0,0,0,1.92-.24l1.26,1.29a5.6,5.6,0,0,0-.84,1.47,36.279,36.279,0,0,1-5,8.4,74.572,74.572,0,0,1,10,9Z"/><path class="cls-3" d="M544.77,137.06a42.5,42.5,0,0,0-1.26,4.8,44.326,44.326,0,0,0-.9,9.39c0,2.34.06,4.11.18,5.7a27.872,27.872,0,0,1,2-5.85l1.44.69c-1.35,3-2.43,6.57-2.43,8.25v.45l-2.16.16c-.06-.48-.09-.63-.18-1.2a42.96,42.96,0,0,1-.78-8.49,49.654,49.654,0,0,1,1.35-11.88,16.693,16.693,0,0,0,.42-2.4Zm7.65,12.06c-1.5,1.65-2.25,3.09-2.25,4.41,0,2.22,1.89,3.3,5.76,3.3a19.734,19.734,0,0,0,6.9-1l.3,2.31a5.15,5.15,0,0,0-1,.15,31.048,31.048,0,0,1-6.15.6c-3.42,0-5.58-.72-6.87-2.28a4.244,4.244,0,0,1-.9-2.76c0-1.83.75-3.45,2.61-5.58Zm-3.78-8.88a20.368,20.368,0,0,0,5.1.45,32.224,32.224,0,0,0,8-.81l.15,2.13-2.07.27a50.578,50.578,0,0,1-6.45.39,39.907,39.907,0,0,1-4.8-.3Z"/><path class="cls-3" d="M582.04,150.05a19.871,19.871,0,0,0-.18-2.67h2.31a18.931,18.931,0,0,0-.18,2.67v1.44h6.33a29.018,29.018,0,0,0,3.12-.15v2a30.068,30.068,0,0,0-3.06-.15h-6.39v6.06h9.3a23.591,23.591,0,0,0,3.21-.18v2.13a24.141,24.141,0,0,0-3.18-.18H573.25a23.69,23.69,0,0,0-3.15.18v-2.13a22.532,22.532,0,0,0,3.18.18h8.76v-6.06h-6a30.659,30.659,0,0,0-3.09.15v-2.07a21,21,0,0,0,3.09.18h6Zm-8.34-11.76a24.031,24.031,0,0,0-3.15.18v-2.1a21.68,21.68,0,0,0,3.15.18h19.2a22.532,22.532,0,0,0,3.18-.18v2.1a22.133,22.133,0,0,0-3.12-.18h-11a39.973,39.973,0,0,1-3.66,6.69c3.66-.06,8.07-.39,11.79-.81a36.425,36.425,0,0,0-3.45-3.18l1.38-1a44.192,44.192,0,0,1,7.11,7.11l-1.5,1.23c-1.05-1.35-1.47-1.86-2.19-2.7-4.86.6-11.34,1.11-16,1.23-1.92.06-2.91.12-3.69.21l-.36-2.07a19.593,19.593,0,0,0,2.22.09h2.52a37.573,37.573,0,0,0,3.66-6.75Z"/><path class="cls-3" d="M606.82,137.75a13.867,13.867,0,0,0,2.82.18c2.49,0,6.48-.18,9.18-.39a3.062,3.062,0,0,0,1.44-.33l1.26,1.65a5.532,5.532,0,0,0-1.53,1.26,76.993,76.993,0,0,1-9.87,8.52l.06.09a15.2,15.2,0,0,1,7.35-1.86c5,0,8.22,2.46,8.22,6.3,0,4.68-4.35,7.77-11,7.77-4.23,0-6.66-1.56-6.66-4.32,0-2,1.86-3.51,4.35-3.51a6,6,0,0,1,5,2.46,8.586,8.586,0,0,1,1.38,2.88c3.15-.87,4.8-2.7,4.8-5.25,0-2.88-2.4-4.59-6.45-4.59a19.25,19.25,0,0,0-12.63,5.13l-1.35-1.92a33.383,33.383,0,0,0,4.2-3.06c3.21-2.55,7.95-6.72,10-8.76l.42-.42.12-.12.12-.12-.06-.06h-.27c-1,.18-4.56.39-9.12.54a14.666,14.666,0,0,0-1.62.15Zm5.64,17.07c-1.5,0-2.43.72-2.43,1.86a2,2,0,0,0,1.2,1.83,7.661,7.661,0,0,0,3.36.69,10.809,10.809,0,0,0,2.19-.21C616.12,156.26,614.64,154.82,612.46,154.82Z"/><path class="cls-3" d="M636.98,138.2a17.887,17.887,0,0,0-.15-3.12h2.1a19.7,19.7,0,0,0-.15,3.09v2.94h1.17a10.867,10.867,0,0,0,1.89-.12v1.83a17.546,17.546,0,0,0-1.89-.09h-1.08a16.58,16.58,0,0,0,2.77,4.92,13.748,13.748,0,0,0-1,1.62,20.609,20.609,0,0,1-2-4.2c.09,2.52.12,3.84.12,4.89v9.09a24.379,24.379,0,0,0,.18,3.48h-2.16a25.615,25.615,0,0,0,.18-3.48v-8.49c0-1.2,0-1.2.09-2.64,0-.18.06-.72.09-1.47a8.786,8.786,0,0,1,.06-1.11,24.1,24.1,0,0,1-3.9,9.18,7.387,7.387,0,0,0-1.14-1.86,17.53,17.53,0,0,0,2.82-4.74,30.168,30.168,0,0,0,1.68-5.16H635.1a12.94,12.94,0,0,0-2.1.12v-1.86a12.292,12.292,0,0,0,2.1.12h1.86Zm7.83,2.73a15.189,15.189,0,0,0-2.61.15v-1.89a15.538,15.538,0,0,0,2.64.15h1.59a14.515,14.515,0,0,0-1.95-3.3l1.59-.69a19.337,19.337,0,0,1,2.16,4h3.48a19,19,0,0,0,2-4.05l1.77.63c-.48,1-1.47,2.7-1.92,3.42h2.64a17.812,17.812,0,0,0,2.73-.18v2a17.563,17.563,0,0,0-2.73-.18h-5.46v2.58h4.53a16.19,16.19,0,0,0,2.73-.18v2a16.922,16.922,0,0,0-2.7-.15h-4.56v2.7h5.9a17.812,17.812,0,0,0,2.73-.18v2a17.933,17.933,0,0,0-2.7-.18h-5.73a16.467,16.467,0,0,0,2.46,4.5,16.157,16.157,0,0,0,3.27-3.87l1.53,1.08a23.909,23.909,0,0,1-3.75,4.08,16.887,16.887,0,0,0,5.7,4.2,7.909,7.909,0,0,0-1.26,1.74,21.2,21.2,0,0,1-4.41-3.45,18.935,18.935,0,0,1-4-6.12,25.1,25.1,0,0,1,.24,3v5.64c0,1.62-.57,2-2.82,2a22.958,22.958,0,0,1-2.46-.12,4.782,4.782,0,0,0-.54-1.89,18.734,18.734,0,0,0,3,.27c.87,0,1.05-.12,1.05-.66v-4.33a40.891,40.891,0,0,1-6.36,3.87,11.457,11.457,0,0,0-1.35.81l-.87-2a31.413,31.413,0,0,0,8.58-4.56v-4.32h-4.68a15.043,15.043,0,0,0-2.58.15v-1.86a20.318,20.318,0,0,0,2.61.12h4.65v-2.7h-3.31a14.991,14.991,0,0,0-2.61.15v-1.95a14.5,14.5,0,0,0,2.55.15h3.39v-2.58Zm-1.11,9.21a27.582,27.582,0,0,1,2.85,3.63l-1.38,1a18.526,18.526,0,0,0-2.82-3.69Z"/><path class="cls-3" d="M674.57,143.3a37.849,37.849,0,0,1-7.77,10,8.61,8.61,0,0,0-1.86-1.35,32.4,32.4,0,0,0,7.44-8.88c1.68-3,2.64-5.52,2.73-7.26l2.46.72a18.123,18.123,0,0,0-1.14,2.82c-.27.66-.48,1.2-.93,2.16h7.14a24.084,24.084,0,0,0,3.48-.15l1.2,1.35c-.15.3-.15.3-.39.84-.36.81-1.35,2.79-1.92,3.78a41.7,41.7,0,0,1-4.89,7.29,52.643,52.643,0,0,1,4.47,4.53L683,160.56a43.711,43.711,0,0,0-4.77-4.89,45.288,45.288,0,0,0-5.55-4.26l1.47-1.35a46.379,46.379,0,0,1,4.41,3.21,34.391,34.391,0,0,0,6.15-9.93Z"/><path class="cls-3" d="M706.64,136.1a9.4,9.4,0,0,0-.48,1.92c-.21,1-.39,1.74-.81,3.27a25.017,25.017,0,0,0,5.37-1l.09,2.07-1.05.18a36.193,36.193,0,0,1-4.92.63,55.955,55.955,0,0,1-3.33,8.76c-.72,1.44-1,2-2.13,3.93-.27.42-.45.78-.6,1l-2-1.2a26.448,26.448,0,0,0,2.88-4.68,44.888,44.888,0,0,0,3.12-7.74c-.75,0-1.77.06-2.22.06h-3.05v-2.07a18.967,18.967,0,0,0,3.57.24h2.16a30.92,30.92,0,0,0,1-5.64Zm14.25,23.28a17.169,17.169,0,0,0-5.25-4.08,6.2,6.2,0,0,1,.06,1c0,3.09-2,4.8-5.7,4.8s-5.85-1.68-5.85-4.35a4.25,4.25,0,0,1,2.79-3.81,8.783,8.783,0,0,1,3.54-.66,9.909,9.909,0,0,1,3,.45c-.15-1.95-.21-3.36-.21-4.11a12.143,12.143,0,0,1,.37-2.97l2,.21a9.219,9.219,0,0,0-.39,2.79,35.858,35.858,0,0,0,.33,4.56,21.557,21.557,0,0,1,5.88,3.63,3.008,3.008,0,0,0,.54.48Zm-10.56-5.37c-2.55,0-4.17,1-4.17,2.7s1.44,2.46,3.81,2.46c2.58,0,3.75-1,3.75-3.27,0-.36-.06-1.29-.06-1.29a8.9,8.9,0,0,0-3.29-.6Zm10.53-8.16a32.559,32.559,0,0,0-8-4.08l1.11-1.68a41.355,41.355,0,0,1,7.92,4Z"/><path class="cls-3" d="M742.47,147.02c-.36,7.77-2.88,11.43-9.66,14.07a5.252,5.252,0,0,0-1.41-2c6.21-2.07,8.55-5.28,8.79-12.12h-8.13a23.672,23.672,0,0,0-3.45.15v-2.17a19.856,19.856,0,0,0,3.48.18h17.55a19.659,19.659,0,0,0,3.48-.18v2.22a23.672,23.672,0,0,0-3.45-.15Zm-10.83-9.51a15.577,15.577,0,0,0,3.45.21h9.06a27.231,27.231,0,0,0,3.45-.15v2.16q-.59,0-3.42-.09h-9.12a20.905,20.905,0,0,0-3.42.15Zm17.58-2.52a23.339,23.339,0,0,1,2.94,4.74l-1.53.84a22.866,22.866,0,0,0-2.91-4.86Zm3.69-1.14a24.96,24.96,0,0,1,2.94,4.74l-1.53.84a23.521,23.521,0,0,0-2.91-4.83Z"/><path class="cls-3" d="M19.26,199.7v-2.94a21.123,21.123,0,0,0-.09-3.06h2.34a22.987,22.987,0,0,0-.12,2.85v3.15h2.58a20.5,20.5,0,0,0,3.51-.18v2.28a24.084,24.084,0,0,0-3.48-.15H21.36c0,5.79-.36,8-1.47,10.17-1.62,3-4.32,5.1-8.37,6.48a5.379,5.379,0,0,0-1.35-1.89c3.93-1,7-3.33,8.16-6.36.66-1.8.84-3.6.9-8.4H10.11v5a15.665,15.665,0,0,0,.12,2.43H7.8a14.347,14.347,0,0,0,.12-2.52v-4.91H5.4a24.084,24.084,0,0,0-3.48.15v-2.28a20.5,20.5,0,0,0,3.51.18H7.92v-3.48a14.642,14.642,0,0,0-.12-2.52h2.43a15.917,15.917,0,0,0-.12,2.43v3.57Zm5-7.89a23.843,23.843,0,0,1,2.13,4.92l-1.59.54a23.116,23.116,0,0,0-2.13-5Zm3.45-1a23.269,23.269,0,0,1,2.13,4.89l-1.56.54a24,24,0,0,0-2.1-4.92Z"/><path class="cls-3" d="M57.18,194.75a6.8,6.8,0,0,0-1.32,1.26,52.809,52.809,0,0,1-7,6v12.78a19.882,19.882,0,0,0,.15,3.18H46.38a15.665,15.665,0,0,0,.18-3.12v-11.4a46.884,46.884,0,0,1-11.58,5.25,7,7,0,0,0-1.17-2,42.225,42.225,0,0,0,15.57-7.77,25.189,25.189,0,0,0,5.73-5.67Z"/><path class="cls-3" d="M67.49,214.49a26.114,26.114,0,0,0,8.73-2.31c5.79-2.58,9.81-7,12.24-13.35a5.989,5.989,0,0,0,1.83,1.77c-2.4,5.22-5.19,8.73-9.15,11.46-3.09,2.1-6.18,3.33-11.19,4.47a15.753,15.753,0,0,0-1.8.48Zm1.92-18.6a39.087,39.087,0,0,1,7.23,5.64l-1.56,1.86a33.149,33.149,0,0,0-7.14-5.88Z"/><path class="cls-3" d="M105.79,196.91a12.705,12.705,0,0,0,1.44-4.11l2.4.42a6.372,6.372,0,0,0-.78,1.62,14.053,14.053,0,0,1-.93,2,5.093,5.093,0,0,1,.63,0c4.8-.24,7.8-.6,9.45-1.14l.18,2a9.3,9.3,0,0,0-1.2.15,97.012,97.012,0,0,1-9.9.78,22.157,22.157,0,0,1-2.7,4.26c-.3.36-.9,1.05-1,1.14s-.36.27-.39.3h0a.237.237,0,0,0,.06.09,8.3,8.3,0,0,1,1.38-1,8.007,8.007,0,0,1,4.53-1.47,3.641,3.641,0,0,1,3.993,3.249c0,.027,0,.054.007.081,2.19-.87,3.9-1.5,5.22-2a6.6,6.6,0,0,0,2-.87l1,2.1a49.9,49.9,0,0,0-8,2.64c.06.78.06,1.08.06,1.83v3a6.5,6.5,0,0,0,.06,1.08h-2q.2-2.154.18-4.32a7.948,7.948,0,0,0,0-.9c-4.08,1.92-5.64,3.33-5.64,5.13,0,2,1.86,2.85,6.09,2.85a25.147,25.147,0,0,0,8-1.17l.27,2.31c-.4.03-.8.08-1.2.15a46.476,46.476,0,0,1-7.29.6c-5.37,0-8-1.53-8-4.62,0-1.65,1-3.21,3.06-4.74a23.314,23.314,0,0,1,4.47-2.4c-.24-1.65-1-2.37-2.37-2.37-1.89,0-4.26,1.11-6.69,3.18a9.936,9.936,0,0,0-2.31,2.49l-1.88-1.6a29.83,29.83,0,0,0,6.72-8.58l.27-.45a3.413,3.413,0,0,1-.57.06l-4.41-.09h-.48a5.191,5.191,0,0,0-.66,0v-2.07a42,42,0,0,0,6.42.33Z"/><path class="cls-3" d="M134.25,195.38a16.194,16.194,0,0,0-.18-3h2.22a22.274,22.274,0,0,0-.14,3v2h2.84a18.2,18.2,0,0,0,2.76-.18v2a21.09,21.09,0,0,0-2.73-.12,29.009,29.009,0,0,1-2.12,9.45,59.9,59.9,0,0,1,4.28,6.3l-1.5,1.44a54.318,54.318,0,0,0-3.66-5.88,24.288,24.288,0,0,1-6.66,8,5.012,5.012,0,0,0-1.5-1.44,20.841,20.841,0,0,0,6.93-8.19,50.324,50.324,0,0,0-5.43-6.12l1.42-1.2a70.51,70.51,0,0,1,4.82,5.43,27.191,27.191,0,0,0,1.47-7.8h-6.24a15.787,15.787,0,0,0-2.67.15v-2a18.2,18.2,0,0,0,2.76.18h3.33Zm8.7,8a34.087,34.087,0,0,1,4.44,6.69l-1.65,1.14a26.094,26.094,0,0,0-4.32-6.9Zm1.89-2.49a18.474,18.474,0,0,0-2.82.18v-2a17.294,17.294,0,0,0,2.85.15h4.68v-3.36a17.212,17.212,0,0,0-.21-3.27h2.3a20.313,20.313,0,0,0-.18,3.27v3.36h.75a18.637,18.637,0,0,0,2.91-.18v2.07a18.07,18.07,0,0,0-2.94-.18h-.72v15.45c0,2-.6,2.43-3.3,2.43-1.35,0-2.1,0-3.42-.09a7.2,7.2,0,0,0-.63-2,28.711,28.711,0,0,0,3.84.33c1.35,0,1.59-.12,1.59-.75V200.93Z"/><path class="cls-3" d="M176.7,204.65a16.864,16.864,0,0,0,1.89,4.41,16.523,16.523,0,0,0,4.74-3.75l1.59,1.35c-.39.27-.66.45-1.92,1.44a27.666,27.666,0,0,1-3.45,2.34,26.288,26.288,0,0,0,2.16,2.46,14,14,0,0,0,5.37,3.42,7.239,7.239,0,0,0-1.35,1.83,18.254,18.254,0,0,1-5.7-4.14,22.506,22.506,0,0,1-5.16-9.36h-.63a14.951,14.951,0,0,1-2,1.29,12.7,12.7,0,0,1,3.6,8.91c0,2.37-.66,3.78-2,4.26a8.4,8.4,0,0,1-2.7.3,15.712,15.712,0,0,1-2-.09,5.51,5.51,0,0,0-.51-2,14.889,14.889,0,0,0,2.88.27c1.17,0,1.59-.12,1.92-.57a4.51,4.51,0,0,0,.51-2.52,13.332,13.332,0,0,0-.09-1.44,41.391,41.391,0,0,1-12.51,5.4,8.258,8.258,0,0,0-1.08-1.65,38,38,0,0,0,13.23-5.37,12.78,12.78,0,0,0-.72-1.83,37.925,37.925,0,0,1-10.95,4.35,5.685,5.685,0,0,0-1-1.65,31.685,31.685,0,0,0,11.22-4.08,8.716,8.716,0,0,0-1.26-1.56,33.683,33.683,0,0,1-9.18,3,5.144,5.144,0,0,0-1-1.59,31.648,31.648,0,0,0,10.94-3.43h-5c-1.32,0-2.34,0-3.27.09a14.249,14.249,0,0,0,.12-2.46v-2.7c-1,.66-1.41.9-2.58,1.59a5.577,5.577,0,0,0-1.11-1.47,22.327,22.327,0,0,0,7.17-5.22,10.634,10.634,0,0,0,2.16-2.88l2.07.63c-.24.27-.24.27-.63.75-.21.24-.33.39-.87,1h5.49a16.754,16.754,0,0,0,2.76-.15l1.05,1.05c-.48.51-.48.51-1.14,1.26a28.536,28.536,0,0,1-2.13,2.13h5.52a30.641,30.641,0,0,0,3.36-.12,18.723,18.723,0,0,0-.12,2.46v1.68a17.734,17.734,0,0,0,.12,2.46q-1.309-.09-3.24-.09Zm-3.36-6.39a15.982,15.982,0,0,0,2.76-2.79h-7.86a29.181,29.181,0,0,1-3.09,2.79Zm-.63,4.83v-3.24h-7.5v3.24Zm9.84,0v-3.24h-8.07v3.24Z"/><path class="cls-3" d="M201.5,193.1a52.147,52.147,0,0,0,2.25,9.93c1.77-.72,2.61-1,7.26-2.67a16.213,16.213,0,0,0,1.92-.78l.9,2.28a68.966,68.966,0,0,0-9,2.91c-5.13,2-7.35,4-7.35,6.51,0,2.73,2.31,3.78,8.19,3.78a29.815,29.815,0,0,0,8.58-1l.24,2.49a15.576,15.576,0,0,0-2.22.18,60.205,60.205,0,0,1-6.63.39,20.4,20.4,0,0,1-6.66-.81c-2.46-.9-3.72-2.55-3.72-4.92a6.489,6.489,0,0,1,2.67-5.1,18.669,18.669,0,0,1,3.93-2.43,61.139,61.139,0,0,1-2.19-8.4,10.055,10.055,0,0,0-.51-1.89Z"/><path class="cls-3" d="M238,194.75a10.134,10.134,0,0,0-.12-1.74h2.25a24.724,24.724,0,0,0-.15,3.75v.33c5.67,0,8-.09,9-.21v2.13a53.187,53.187,0,0,0-5.73-.15c-.45,0-.78,0-3.21.06v5.94a8.6,8.6,0,0,1,.72,3.54,9.658,9.658,0,0,1-4,7.83,19.059,19.059,0,0,1-4.74,2.43,6.594,6.594,0,0,0-1.32-1.89,15.392,15.392,0,0,0,4.86-2.25,7.772,7.772,0,0,0,3.36-6.33,4.206,4.206,0,0,1-.81,1.47,4.923,4.923,0,1,1-3.66-8.08c.09,0,.18,0,.27.01a4.608,4.608,0,0,1,3.48,1.35v-3.99c-6,.12-12.09.42-14.1.75l-.09-2.19h1.2c.87,0,.87,0,5.7-.18,2.88-.12,5.22-.18,7.26-.24Zm-1.29,9a3.838,3.838,0,0,0-2-.48,3.169,3.169,0,0,0-3.326,3.006c0,.048,0,.1,0,.144a2.9,2.9,0,0,0,2.792,3,2.694,2.694,0,0,0,.3,0,3.359,3.359,0,0,0,3.511-3.2,3.2,3.2,0,0,0,0-.339,2.169,2.169,0,0,0-1.27-2.1Z"/><path class="cls-3" d="M260.23,194.75a13.867,13.867,0,0,0,2.82.18c2.49,0,6.48-.18,9.18-.39a3.062,3.062,0,0,0,1.44-.33l1.26,1.65a5.532,5.532,0,0,0-1.53,1.26,76.993,76.993,0,0,1-9.87,8.52l.06.09a15.2,15.2,0,0,1,7.35-1.86c5,0,8.21,2.46,8.21,6.3,0,4.68-4.34,7.77-11,7.77-4.23,0-6.66-1.56-6.66-4.32,0-2,1.86-3.51,4.35-3.51a6,6,0,0,1,4.95,2.46,8.586,8.586,0,0,1,1.38,2.88c3.15-.87,4.8-2.7,4.8-5.25,0-2.88-2.4-4.59-6.45-4.59a19.25,19.25,0,0,0-12.63,5.13l-1.35-1.92a33.311,33.311,0,0,0,4.2-3.06c3.21-2.55,7.95-6.72,10-8.76l.42-.42.12-.12.12-.12-.06-.06h-.27c-1,.18-4.56.39-9.12.54a14.666,14.666,0,0,0-1.62.15Zm5.64,17.07c-1.5,0-2.43.72-2.43,1.86a2,2,0,0,0,1.2,1.83,7.661,7.661,0,0,0,3.36.69,10.809,10.809,0,0,0,2.19-.21C269.53,213.26,268.03,211.82,265.87,211.82Z"/><path class="cls-3" d="M294.52,214.55a4.49,4.49,0,1,1,0-.02Zm-7.29,0a2.79,2.79,0,1,0,2.79-2.79h0A2.8,2.8,0,0,0,287.23,214.55Z"/><path class="cls-3" d="M328.78,196.31a86.65,86.65,0,0,1-9.84.78,5.479,5.479,0,0,0-.78-1.86,78.639,78.639,0,0,0,12.42-1,29.143,29.143,0,0,0,7.65-2l1.65,1.77a53.286,53.286,0,0,1-9.15,2v5h7.26a21.813,21.813,0,0,0,3.17-.18v2.1a22.692,22.692,0,0,0-3.17-.18h-7.26v4.71h8.58a22.111,22.111,0,0,0,3.15-.18v2.13a23.035,23.035,0,0,0-3.15-.18h-8.58v6.93c0,1.86-.72,2.37-3.27,2.37a43.366,43.366,0,0,1-4.5-.27,7.076,7.076,0,0,0-.54-2.07,32.322,32.322,0,0,0,5.1.51c1,0,1.26-.21,1.26-.87v-6.6h-9.24a22.722,22.722,0,0,0-3.15.18v-2.05a21.54,21.54,0,0,0,3.15.18h9.24v-4.71h-7.56a24.489,24.489,0,0,0-3.18.18v-2.1a22.237,22.237,0,0,0,3.18.18h7.56Z"/><path class="cls-3" d="M348.72,199.65a37.247,37.247,0,0,1,5.13,3.75l-1.21,1.64a24.472,24.472,0,0,0-5.1-4Zm5.34,9.81a52.9,52.9,0,0,1-3.93,8.1c-.18.3-.27.51-.6,1.14l-1.74-1.56a13.009,13.009,0,0,0,1.83-2.61,37.711,37.711,0,0,0,2.88-6.24Zm-3.54-16.89a26.372,26.372,0,0,1,4.83,3.93l-1.23,1.56a23.4,23.4,0,0,0-4.83-4.17Zm8.58,6.39a20.824,20.824,0,0,0-2.91.18v-2.1a18.776,18.776,0,0,0,2.94.18h4.2v-2.07a17.308,17.308,0,0,0-.18-3h2.28a16.547,16.547,0,0,0-.18,3v2.07h5.7a17.425,17.425,0,0,0,2.7-.18v2.1a17.042,17.042,0,0,0-2.67-.18h-5.73v5.49h6.78a17.7,17.7,0,0,0,2.76-.18v2.1a18.068,18.068,0,0,0-2.73-.18h-7.77a66.8,66.8,0,0,1-4.2,9.36c5.25-.51,7.35-.75,10.29-1.29a43.655,43.655,0,0,0-3.69-5.07l1.62-.87a59.525,59.525,0,0,1,6.39,9.42l-1.83,1.08c-.78-1.56-1-2-1.59-3.06-2.37.42-2.37.42-5.4.87-2.19.33-2.19.33-8.76,1-1.23.12-1.65.18-2.31.3l-.48-2.16a6.432,6.432,0,0,0,1,.06,24.676,24.676,0,0,0,2.52-.15,54.177,54.177,0,0,0,4.35-9.54h-4.44a21.254,21.254,0,0,0-2.94.18v-2.1a19.8,19.8,0,0,0,3,.18h5.52v-5.45Z"/><path class="cls-3" d="M386.09,194.18a12.08,12.08,0,0,0,.57,1.83c.6,1.77.9,2.61,1.32,4a53.327,53.327,0,0,1,6.45-1.68,41.641,41.641,0,0,0-.12-5.31h2.25a28.424,28.424,0,0,0-.15,4v1a15.146,15.146,0,0,1,2.25-.18c4,0,6.6,2.16,6.6,5.52,0,3.6-2.94,6.18-7,6.18a12.7,12.7,0,0,1-5.07-1.11,4.422,4.422,0,0,0,0-.54,13.273,13.273,0,0,0-.18-1.71,10.2,10.2,0,0,0,5,1.38,6.081,6.081,0,0,0,3.6-1.17,3.637,3.637,0,0,0,1.44-3.06c0-2.28-1.77-3.63-4.8-3.63-2.19,0-5.43.72-9.78,2.13,1.53,5.1,2.61,9.33,3.87,15a9.488,9.488,0,0,0,.39,1.29l-2.43.54c-.15-2.46-1.83-9.69-3.78-16.2a12.983,12.983,0,0,1-1.62.54,28.668,28.668,0,0,0-4.11,1.65l-.78-2.13a32.928,32.928,0,0,0,4.41-1.41c.75-.27,1.05-.33,1.53-.48a30.088,30.088,0,0,0-2.16-5.7Z"/><path class="cls-3" d="M432.43,196.13a3.2,3.2,0,0,1-.12-.87,3.41,3.41,0,1,1,3.43,3.39h-.04a3.555,3.555,0,0,1-1.05-.15l-.01.15c-1.47,5.34-3.39,9.09-6.12,11.94a27.87,27.87,0,0,1-10.91,7.11,5.849,5.849,0,0,0-1.48-2.07,22.5,22.5,0,0,0,16.23-17.49H417.04a22.2,22.2,0,0,0-3.36.18v-2.4a21.343,21.343,0,0,0,3.39.18h15.36Zm1.14-.9a2.15,2.15,0,1,0,2.17-2.13h-.01a2.15,2.15,0,0,0-2.16,2.13Z"/><path class="cls-3" d="M448.15,214.65v2.13h-2.31a15.666,15.666,0,0,0,.12-2.25v-16.3a15.381,15.381,0,0,0-.12-2.34,21.763,21.763,0,0,0,2.34.09h16a15.5,15.5,0,0,0,2.34-.09,16.331,16.331,0,0,0-.09,2.34v16.23a17.622,17.622,0,0,0,.09,2.31h-2.28v-2.12Zm16.08-16.68H448.15v14.68h16.08Z"/><path class="cls-3" d="M482.04,196.55a17.2,17.2,0,0,0-.12-2.76h2.43a17.216,17.216,0,0,0-.15,2.76v4.38l12.18-1.62a3.339,3.339,0,0,0,1.71-.42l1.47,1.23a9.055,9.055,0,0,0-.48.84,20.209,20.209,0,0,1-2.28,3.84,23.017,23.017,0,0,1-5.1,4.68,5.1,5.1,0,0,0-1.8-1.44,16.6,16.6,0,0,0,6.81-7l-.69.15-.36.06c-4.2.57-8,1.11-11.46,1.59v7.08c0,2.79.12,3.42.75,4s1.89.75,4.35.75a34.1,34.1,0,0,0,8.73-1l.15,2.43a12.031,12.031,0,0,0-1.8.15,53.37,53.37,0,0,1-7.11.54c-3.42,0-5.16-.42-6.12-1.41s-1.11-1.89-1.11-4.95v-7.28l-3.63.51a19.254,19.254,0,0,0-2.94.51l-.27-2.25h.44c.51,0,1.56-.09,2.58-.21l3.81-.51Z"/><path class="cls-3" d="M529.79,217.37a55.827,55.827,0,0,0-9.6-9.27,32.512,32.512,0,0,1-5.73,5.37,38.62,38.62,0,0,1-5.88,3.6,6.674,6.674,0,0,0-1.47-2,24.135,24.135,0,0,0,6.09-3.45,32.518,32.518,0,0,0,10.71-13.53c.06-.18.09-.21.15-.36a.622.622,0,0,0,.09-.21,5.089,5.089,0,0,1-.72,0l-10,.15a20.247,20.247,0,0,0-3.09.24l-.06-2.43a14.024,14.024,0,0,0,2.36.17h.78l10.71-.12a5.6,5.6,0,0,0,1.92-.24l1.26,1.29a5.6,5.6,0,0,0-.84,1.47,36.279,36.279,0,0,1-5,8.4,74.572,74.572,0,0,1,10,9Z"/><path class="cls-3" d="M540.53,195.14a12.816,12.816,0,0,0-2.58.18v-2a16.052,16.052,0,0,0,2.7.18h4.89a11.7,11.7,0,0,0,2.52-.18v2a19.725,19.725,0,0,0-2.43-.12h-1.86a29.363,29.363,0,0,1-2.07,7.62h3.75a13.761,13.761,0,0,0,1.86-.09,22.36,22.36,0,0,0-.09,2.4v9.27a19.644,19.644,0,0,0,.12,2.52h-1.89v-1.5h-3.72v3.18h-2a18.163,18.163,0,0,0,.18-2.91v-6.66c0-1.08,0-2,.09-3.36a13.719,13.719,0,0,1-2.25,3.66,5.009,5.009,0,0,0-1.08-1.8,20.406,20.406,0,0,0,4.14-7.62,21.006,21.006,0,0,0,1-4.71Zm1.2,18.6h3.72v-9.39h-3.72Zm10.41-18.6a19.531,19.531,0,0,0-2.91.18v-2.07a18.355,18.355,0,0,0,3,.18h9.48a20.064,20.064,0,0,0,3-.18v2.07a15.854,15.854,0,0,0-2.92-.18h-.71v8.31h1a16.023,16.023,0,0,0,3-.18v2.13a19.673,19.673,0,0,0-3-.18h-1v10.77a21.274,21.274,0,0,0,.21,3.21h-2.31a23.924,23.924,0,0,0,.21-3.21V205.22h-5c-.3,6.69-1.59,10.32-5,14.28a5.445,5.445,0,0,0-1.74-1.35c3.15-3,4.56-6.75,4.83-12.93h-.84a16.735,16.735,0,0,0-3,.18v-2.1a19.538,19.538,0,0,0,3,.15h.9v-8.31Zm2.19,7.29v1h4.89v-8.31h-4.89Z"/><path class="cls-3" d="M585.52,207.11a26.557,26.557,0,0,0,3.36-.15c-.06.66-.09,1.29-.12,2.64l-.12,6.05c0,.9.33,1,2.67,1,2.1,0,2.7-.15,2.91-.69a17.526,17.526,0,0,0,.48-4.5,7.379,7.379,0,0,0,2,.78c-.48,6-.66,6.18-5.49,6.18-3.66,0-4.44-.39-4.44-2.4v-.15l.12-7h-5.58a11.5,11.5,0,0,1-2.34,4.95,13.234,13.234,0,0,1-3.21,2.88,20.239,20.239,0,0,1-5,2.46,4.628,4.628,0,0,0-1.32-1.71,18.726,18.726,0,0,0,5.76-2.7,9.8,9.8,0,0,0,4.17-5.88h-4.73a21.4,21.4,0,0,0-3.24.18v-2.13a20.251,20.251,0,0,0,3.18.18h5.16a21.266,21.266,0,0,0,.21-2.52,9.989,9.989,0,0,0-.12-1.62h2.28a9.116,9.116,0,0,0-.24,1.89c-.06.72-.12,1.47-.24,2.22Zm-4-12.69a9.221,9.221,0,0,0-.21-2.16h2.33a8.765,8.765,0,0,0-.21,2.16v.93h8.91a25.477,25.477,0,0,0,3-.15,13.518,13.518,0,0,0-.12,2.07v1.53a13.911,13.911,0,0,0,.12,2.1h-2v-3.84h-7.4v4.35c0,.36.06.51.21.6a5.9,5.9,0,0,0,1.92.21,5.541,5.541,0,0,0,2.43-.33c.33-.24.48-1,.51-2.43a6.266,6.266,0,0,0,1.8.57c-.15,1.89-.39,2.73-.9,3.18s-1.74.66-3.87.66c-3.15,0-3.9-.33-3.9-1.65v-5.16h-3.69a8.216,8.216,0,0,1-1,3.33,8.451,8.451,0,0,1-4.74,3.81,27.718,27.718,0,0,1-2.79.87,8.181,8.181,0,0,0-1.14-1.65c3.21-.6,4.71-1.2,6-2.4a5.673,5.673,0,0,0,1.83-4h-6.39v3.81h-2a14.453,14.453,0,0,0,.12-2.1v-1.5a13.518,13.518,0,0,0-.12-2.07,25.477,25.477,0,0,0,3,.15h8.31Z"/><path class="cls-3" d="M611.07,193.1a52.147,52.147,0,0,0,2.25,9.93c1.77-.72,2.61-1,7.26-2.67a16.213,16.213,0,0,0,1.92-.78l.9,2.28a68.966,68.966,0,0,0-9,2.91c-5.13,2-7.35,4-7.35,6.51,0,2.73,2.31,3.78,8.19,3.78a29.815,29.815,0,0,0,8.58-1l.24,2.49a15.576,15.576,0,0,0-2.22.18,60.191,60.191,0,0,1-6.63.39,20.4,20.4,0,0,1-6.66-.81c-2.46-.9-3.72-2.55-3.72-4.92a6.492,6.492,0,0,1,2.67-5.1,18.721,18.721,0,0,1,3.93-2.43,61.139,61.139,0,0,1-2.19-8.4,10.055,10.055,0,0,0-.51-1.89Z"/><path class="cls-3" d="M642.71,193.1a52.224,52.224,0,0,0,2.25,9.93c1.78-.72,2.61-1,7.26-2.67a16.213,16.213,0,0,0,1.92-.78l.9,2.28a68.966,68.966,0,0,0-9,2.91c-5.13,2-7.35,4-7.35,6.51,0,2.73,2.32,3.78,8.19,3.78a29.815,29.815,0,0,0,8.58-1l.24,2.49a15.576,15.576,0,0,0-2.22.18,60.191,60.191,0,0,1-6.63.39,20.4,20.4,0,0,1-6.66-.81c-2.46-.9-3.71-2.55-3.71-4.92a6.479,6.479,0,0,1,2.66-5.1,18.7,18.7,0,0,1,3.93-2.43,61.139,61.139,0,0,1-2.19-8.4,10.055,10.055,0,0,0-.51-1.89Z"/><path class="cls-3" d="M666.71,204.98a19.99,19.99,0,0,0,5.37,1.2c.15-1.47.45-3.81.69-5.4a39.841,39.841,0,0,1-4.47-.81l-.93-.21.27-2a19.372,19.372,0,0,0,5.4,1.17,47.132,47.132,0,0,0,.72-5.64v-.24l2.4.27a15.4,15.4,0,0,0-.48,2,10.659,10.659,0,0,1-.3,1.92c-.09.66-.15,1-.3,1.8h1.74a24.394,24.394,0,0,0,5.49-.51l-.09,2.07-2.1.18c-.93.09-1.83.12-2.7.12-.48,0-1,0-2.64-.06-.48,3.45-.51,3.75-.69,5.43h2a26.281,26.281,0,0,0,5.52-.48l-.06,2-.81.06a34.761,34.761,0,0,1-4.23.24c-.75,0-1.23,0-2.58-.06a5.459,5.459,0,0,1,0,.6c-.06.72-.12,1.71-.12,2.22a4.431,4.431,0,0,0,1.38,3.6,6.313,6.313,0,0,0,4.23,1.29c4,0,6.63-2.07,6.63-5.25,0-1.89-.93-3.57-2.85-5.22a5.934,5.934,0,0,0,2.19-.6c2.13,2.31,2.82,3.78,2.82,6,0,4.23-3.54,7.08-8.79,7.08-3.15,0-5.55-1.08-6.72-3a8.129,8.129,0,0,1-.93-4.14,15.906,15.906,0,0,1,.12-2,2.267,2.267,0,0,1,.06-.72,31.707,31.707,0,0,1-4.53-.75,3.112,3.112,0,0,0-.93-.18Z"/><path class="cls-3" d="M702.52,194.06a42.5,42.5,0,0,0-1.26,4.8,44.326,44.326,0,0,0-.9,9.39c0,2.34.06,4.11.18,5.7a27.872,27.872,0,0,1,2-5.85l1.44.69c-1.35,3-2.43,6.57-2.43,8.25v.45l-2.16.18c-.06-.48-.09-.63-.18-1.2a42.96,42.96,0,0,1-.78-8.49,49.654,49.654,0,0,1,1.35-11.88,16.693,16.693,0,0,0,.42-2.4Zm7.65,12.06c-1.5,1.65-2.25,3.09-2.25,4.41,0,2.22,1.89,3.3,5.76,3.3a19.734,19.734,0,0,0,6.9-1l.3,2.31a5.15,5.15,0,0,0-1,.15,31.048,31.048,0,0,1-6.15.6c-3.42,0-5.58-.72-6.87-2.28a4.244,4.244,0,0,1-.9-2.76c0-1.83.75-3.45,2.61-5.58Zm-3.81-8.88a20.368,20.368,0,0,0,5.1.45,32.224,32.224,0,0,0,8-.81l.15,2.13-2.07.27a50.762,50.762,0,0,1-6.45.39,40.114,40.114,0,0,1-4.8-.3Z"/><path class="cls-3" d="M728.04,200.06a27.74,27.74,0,0,1,4.89,3.78l-1.29,1.44a19.6,19.6,0,0,0-4.77-3.87Zm5.19,9.69a52.1,52.1,0,0,1-3.48,8.43c-.33.63-.33.63-.51,1l-1.71-1.35c1.14-1.2,2.82-5,4.14-9.33Zm-3.3-17.16a31.528,31.528,0,0,1,4.41,3.93l-1.38,1.41a18.841,18.841,0,0,0-4.38-4Zm20.34,2.58a22.9,22.9,0,0,0,3.9-.18v2a32.67,32.67,0,0,0-3.78-.12H738.57a26.021,26.021,0,0,1-3.9,5.46,5.354,5.354,0,0,0-1.47-1.38,17.664,17.664,0,0,0,4.56-6.57,9.539,9.539,0,0,0,.81-2.58l2.1.42a11.113,11.113,0,0,0-.45,1.17,15.407,15.407,0,0,1-.78,1.77ZM737.1,215c-.18.66-.27,1-.54,1.95l-2-.27a44.247,44.247,0,0,0,2.1-8.76h-.18a14.653,14.653,0,0,0-2.76.18v-2a16.721,16.721,0,0,0,2.88.18h.3a53.709,53.709,0,0,0,.51-5.52v-.87c.36,0,1.23.06,2.13.06h9.54a29.017,29.017,0,0,0,3.12-.12,28.959,28.959,0,0,0-.27,4.53,16.19,16.19,0,0,1-.09,1.92h.21a13.369,13.369,0,0,0,2.79-.18v2a20.34,20.34,0,0,0-2.79-.18h-.41a5.278,5.278,0,0,1-.06.84c-.09,1.26-.24,2.79-.48,4.56h.33a10.077,10.077,0,0,0,2.37-.18v2a18.97,18.97,0,0,0-2.43-.12h-.54c-.6,3.48-1.14,4.11-3.6,4.11-.69,0-1.68-.06-3.3-.18a5.156,5.156,0,0,0-.33-1.92,19.408,19.408,0,0,0,3.33.36c1.53,0,1.65-.15,2.1-2.37Zm1.38-7.08c-.18,1.44-.39,2.49-1,5.4h4.83a50.45,50.45,0,0,0,.81-5.4Zm4.86-1.68c.21-2.07.21-2.28.33-4.71h-4.5c-.15,2-.21,2.67-.45,4.71Zm1.56,1.68c-.3,2.46-.3,2.46-.81,5.4h5.25c.21-1.65.36-3,.54-5.4Zm5.1-1.68c.06-1.2.12-2.91.15-4.71h-4.71q-.225,3-.36,4.71Z"/><path class="cls-3" d="M7.89,259.88a25.061,25.061,0,0,1,4.08,3.66,34.283,34.283,0,0,0,2.46-8.28H8.79a30.309,30.309,0,0,1-5.85,9.3,5.19,5.19,0,0,0-1.3-1.59A26.222,26.222,0,0,0,7.76,252.8a19.686,19.686,0,0,0,1-3.75l2.16.42a12.468,12.468,0,0,0-.6,1.71c-.24.78-.39,1.23-.81,2.37h4.68a17.424,17.424,0,0,0,2.37-.09c-.06.39-.09.51-.12.84a18.007,18.007,0,0,0,3.66,6.54v-8.43a20.354,20.354,0,0,0-.21-3.12h2.25a20.1,20.1,0,0,0-.21,3.12v10.24a25.847,25.847,0,0,0,7.44,4.71,7.689,7.689,0,0,0-1.26,1.89,23.545,23.545,0,0,1-6.18-4.2v7.6a25.154,25.154,0,0,0,.21,3.66H19.83a25.893,25.893,0,0,0,.21-3.66v-9.27a19.792,19.792,0,0,1-4.14-6.33,31.638,31.638,0,0,1-3.57,10.14,29.552,29.552,0,0,1-8.4,9,5.929,5.929,0,0,0-1.47-1.65,25.4,25.4,0,0,0,8.67-9.27,21.11,21.11,0,0,0-4.35-4Z"/><path class="cls-3" d="M47.49,258.41a23.932,23.932,0,0,0,4.89,9.66,21.2,21.2,0,0,0,8.12,5.85,8,8,0,0,0-1.31,2c-6.72-3.57-10.44-7.95-12.6-14.82a18.7,18.7,0,0,1-5.85,10.77,23.355,23.355,0,0,1-6.48,4.08,6.129,6.129,0,0,0-1.29-1.83c3.75-1.53,5.94-3,7.89-5.25,2.34-2.7,3.6-5.88,4.17-10.47H36.87a18.223,18.223,0,0,0-3.3.21v-2.34a18.342,18.342,0,0,0,3.36.21h8.28c.09-1.44.12-2.37.12-3.54a22.636,22.636,0,0,0-.21-3.27h2.46a17.712,17.712,0,0,0-.21,3.12c0,1.53-.06,2.4-.15,3.69h9.09a18.745,18.745,0,0,0,3.33-.21v2.38a19.589,19.589,0,0,0-3.3-.21Z"/><path class="cls-3" d="M79.31,273.83c0,1.86-.57,2.22-3.36,2.22-.84,0-2.4-.06-3.45-.18a9,9,0,0,0-.63-1.92,31.153,31.153,0,0,0,3.93.33c1.38,0,1.59-.09,1.59-.72v-6h-9a23.035,23.035,0,0,0-3.15.18v-2.09a22.293,22.293,0,0,0,3.12.18h9v-.51a11.863,11.863,0,0,0-.09-1.77h1.26a25.193,25.193,0,0,0,5.37-3.39h-11a26.605,26.605,0,0,0-2.85.15v-1.96a27.2,27.2,0,0,0,2.91.15H83.84a12.977,12.977,0,0,0,2.22-.12l1.14,1.2c-.39.3-.39.3-1.05.87a34.115,34.115,0,0,1-6.84,4.44v.93h8.91a21.965,21.965,0,0,0,3.15-.18v2.07a22.835,22.835,0,0,0-3.18-.18H79.31ZM71.21,254a20.071,20.071,0,0,0-2.82-3.9l1.8-.57a28.565,28.565,0,0,1,3.06,4.44h4.39a17.8,17.8,0,0,0-2.2-4.32l1.86-.51a25.68,25.68,0,0,1,2.28,4.83h3.3a17.888,17.888,0,0,0,3.09-4.83l1.89.81a28.031,28.031,0,0,1-2.88,4h2.34a34.245,34.245,0,0,0,3.45-.12,19.541,19.541,0,0,0-.12,2.49v2.22a16.4,16.4,0,0,0,.15,2.1h-2v-5H67.64v5h-2a15.692,15.692,0,0,0,.15-2.1v-2.22a19.541,19.541,0,0,0-.12-2.49,26.76,26.76,0,0,0,3.42.15Z"/><path class="cls-3" d="M103.09,251.18a12.08,12.08,0,0,0,.57,1.83c.6,1.77.9,2.61,1.32,4a53.327,53.327,0,0,1,6.45-1.68,41.641,41.641,0,0,0-.12-5.31h2.25a28.424,28.424,0,0,0-.15,4v1a15.136,15.136,0,0,1,2.25-.18c4,0,6.6,2.16,6.6,5.52,0,3.6-2.94,6.18-7.05,6.18a12.7,12.7,0,0,1-5.07-1.11,4.422,4.422,0,0,0,0-.54,13.273,13.273,0,0,0-.18-1.71,10.2,10.2,0,0,0,5,1.38,6.081,6.081,0,0,0,3.6-1.17,3.639,3.639,0,0,0,1.44-3.06c0-2.28-1.77-3.63-4.8-3.63-2.19,0-5.43.72-9.78,2.13,1.53,5.1,2.61,9.33,3.87,15a9.488,9.488,0,0,0,.39,1.29l-2.43.54c-.15-2.46-1.83-9.69-3.78-16.2a13.038,13.038,0,0,1-1.62.54,28.622,28.622,0,0,0-4.11,1.65l-.78-2.13a32.928,32.928,0,0,0,4.41-1.41c.75-.27,1-.33,1.53-.48a30.088,30.088,0,0,0-2.16-5.7Z"/><path class="cls-3" d="M142.57,249.5a21.709,21.709,0,0,0,5.33,5.85,32.3,32.3,0,0,0,7.77,4.68,5.774,5.774,0,0,0-1.2,1.89,38.282,38.282,0,0,1-7.89-5.13,25.381,25.381,0,0,1-4.95-5.4,29.4,29.4,0,0,1-4.38,5.1,35.013,35.013,0,0,1-8.1,5.73,6.619,6.619,0,0,0-1.25-1.77,32.8,32.8,0,0,0,7.88-5.25,23.106,23.106,0,0,0,4.77-5.7Zm8.93,23.85a20.592,20.592,0,0,0,3.42-.21v2.25a20.92,20.92,0,0,0-3.42-.21H131.74a20.971,20.971,0,0,0-3.46.21v-2.25a19.2,19.2,0,0,0,3.37.21h2.12V265.7a21.07,21.07,0,0,0-.2-3.33h2.36a20.045,20.045,0,0,0-.2,3.33v7.65h5.54V260.42a20.911,20.911,0,0,0-.2-3.27h2.39a19.84,19.84,0,0,0-.21,3.24v3.45h5.28a18.488,18.488,0,0,0,3.11-.19v2.19a19.82,19.82,0,0,0-3.06-.18H143.3v7.68Z"/><path class="cls-3" d="M164.28,260.65a23.417,23.417,0,0,0-3.21.15v-1.85a21.794,21.794,0,0,0,3.21.15h4.36a18.06,18.06,0,0,0-1.59-3.39h-3.78a31.98,31.98,0,0,0-3.39.15v-1.92a23.454,23.454,0,0,0,3.33.18h2.07a15.78,15.78,0,0,0-2.46-3.18l1.71-.81a17.81,17.81,0,0,1,2.67,4h2.52v-2.31a14.559,14.559,0,0,0-.18-2.52h2a16.982,16.982,0,0,0-.12,2.49v2.34h3.22v-2.34a17.555,17.555,0,0,0-.12-2.49h2a13.989,13.989,0,0,0-.18,2.52v2.31h2.88a19.293,19.293,0,0,0,2.37-4.14l1.83.78a29.811,29.811,0,0,1-2.25,3.36h1.8a23.291,23.291,0,0,0,3.36-.18v1.92a31.98,31.98,0,0,0-3.39-.15H179.4a33.963,33.963,0,0,1-1.62,3.39h4.26a22.486,22.486,0,0,0,3.24-.15v1.86a23.7,23.7,0,0,0-3.24-.15h-8.16v2.19h6.3a22.486,22.486,0,0,0,3.24-.15v1.83a23.381,23.381,0,0,0-3.24-.15h-6.3v2.26h9.09a22.472,22.472,0,0,0,3.42-.18v1.95a28.643,28.643,0,0,0-3.39-.18h-7.86c2.58,2.43,6.84,4.29,11.91,5.19a7.024,7.024,0,0,0-1.17,1.86,32.159,32.159,0,0,1-7.35-2.82,19.644,19.644,0,0,1-4.77-3.66c.09,1.35.12,1.89.12,2.55v2a22.6,22.6,0,0,0,.18,3.12H171.9a19.755,19.755,0,0,0,.18-3.15v-2a21.429,21.429,0,0,1,.12-2.52c-2.94,3.06-5.79,4.68-11.28,6.45a6.231,6.231,0,0,0-1.23-1.74c4.95-1.11,8.16-2.64,11.13-5.31h-7.35a28.224,28.224,0,0,0-3.39.18v-1.95a22.865,22.865,0,0,0,3.39.18h8.61v-2.31h-5.94a22.951,22.951,0,0,0-3.21.15v-1.83a22.951,22.951,0,0,0,3.21.15h5.94v-2.13Zm11.58-1.56a15.388,15.388,0,0,0,1.53-3.39h-8.34a24.6,24.6,0,0,1,1.41,3.39Z"/><path class="cls-3" d="M201.5,250.1a52.147,52.147,0,0,0,2.25,9.93c1.77-.72,2.61-1,7.26-2.67a16.213,16.213,0,0,0,1.92-.78l.9,2.28a68.966,68.966,0,0,0-9,2.91c-5.13,2-7.35,4-7.35,6.51,0,2.73,2.31,3.78,8.19,3.78a29.815,29.815,0,0,0,8.58-1l.24,2.49a15.576,15.576,0,0,0-2.22.18,60.205,60.205,0,0,1-6.63.39,20.4,20.4,0,0,1-6.66-.81c-2.46-.9-3.72-2.55-3.72-4.92a6.489,6.489,0,0,1,2.67-5.1,18.669,18.669,0,0,1,3.93-2.43,61.139,61.139,0,0,1-2.19-8.4,10.055,10.055,0,0,0-.51-1.89Z"/><path class="cls-3" d="M235.15,266.12c-1.74,4-3.51,5.76-5.67,5.76-2.85,0-5-3.12-5-7.32a12.179,12.179,0,0,1,12.072-12.287q.384,0,.768.017a11.611,11.611,0,0,1,8.25,3,10,10,0,0,1,2.91,7.32,10.92,10.92,0,0,1-6.84,10.32,23.212,23.212,0,0,1-4.56,1.38,4.774,4.774,0,0,0-1.05-2,18.022,18.022,0,0,0,5-1.41,9.058,9.058,0,0,0,5.31-8.4,7.91,7.91,0,0,0-4.77-7.53,8.622,8.622,0,0,0-3.48-.75A45.024,45.024,0,0,1,235.15,266.12Zm-3.69-10.47a10.369,10.369,0,0,0-4.89,8.94c0,2.88,1.26,5.1,2.88,5.1,1.26,0,2.46-1.41,3.75-4.35a41.217,41.217,0,0,0,2.73-11.1A9.469,9.469,0,0,0,231.46,255.65Z"/><path class="cls-3" d="M276.01,253.13a3.2,3.2,0,0,1-.12-.87,3.41,3.41,0,1,1,3.43,3.39h-.04a3.555,3.555,0,0,1-1.05-.15,1.266,1.266,0,0,1-.07.18c-1.46,5.34-3.38,9.09-6.11,11.94a27.847,27.847,0,0,1-10.92,7.11,5.947,5.947,0,0,0-1.49-2.08,22.5,22.5,0,0,0,16.23-17.49H260.64a22.2,22.2,0,0,0-3.36.18v-2.4a21.343,21.343,0,0,0,3.39.18h15.36Zm1.14-.9a2.15,2.15,0,1,0,2.17-2.13h-.01a2.15,2.15,0,0,0-2.16,2.13Z"/><path class="cls-3" d="M291.72,271.65v2.13h-2.31a15.666,15.666,0,0,0,.12-2.25v-16.3a15.381,15.381,0,0,0-.12-2.34,21.763,21.763,0,0,0,2.34.09h16a15.5,15.5,0,0,0,2.34-.09,16.331,16.331,0,0,0-.09,2.34v16.23a17.622,17.622,0,0,0,.09,2.31h-2.28v-2.12Zm16.08-16.68H291.72v14.68H307.8Z"/><path class="cls-3" d="M321.71,258.32a48.086,48.086,0,0,1,7.62,3.9l-1.17,2a33.117,33.117,0,0,0-7.65-4.11Zm-.78,13.71h.18a27.245,27.245,0,0,0,7.89-1.86,21.439,21.439,0,0,0,12.64-13.44,9.211,9.211,0,0,0,1.86,1.62c-3.78,9.09-10,13.8-20.76,15.84a9.25,9.25,0,0,0-1.17.3Zm3.12-20.88a46.772,46.772,0,0,1,7.44,3.78l-1.23,2a32.4,32.4,0,0,0-7.38-4Zm15.72-1.38a23.877,23.877,0,0,1,3.06,4.65l-1.5.9a24.249,24.249,0,0,0-3.06-4.77Zm3.36-1.62a22.926,22.926,0,0,1,3.12,4.65l-1.5.87a23.115,23.115,0,0,0-3.09-4.71Z"/><path class="cls-3" d="M363.91,272.27h6.42a15.054,15.054,0,0,0,2.7-.15v2.1a21.835,21.835,0,0,0-2.73-.12H355.78a20.944,20.944,0,0,0-2.72.12v-2.13a12.122,12.122,0,0,0,2.69.18h6.09V261.89h-4.28a19.517,19.517,0,0,0-2.67.12v-2.1a15.591,15.591,0,0,0,2.67.18H368.5a15.2,15.2,0,0,0,2.67-.18v2.1a14.3,14.3,0,0,0-2.64-.12h-4.62Z"/><path class="cls-3" d="M394.9,250.28a5.76,5.76,0,0,0-.66,1.23,28.665,28.665,0,0,1-1.38,2.67c.39-.09.39-.09,9.06-.24a3,3,0,0,0,1.56-.21l1.29,1.26c-.27.36-.27.39-.6,1.47a31.738,31.738,0,0,1-6,11.28,29.386,29.386,0,0,1-10.44,7.5,4.52,4.52,0,0,0-1.5-1.77,25.519,25.519,0,0,0,10.59-7.59,27.579,27.579,0,0,0,5.16-10.05l-10.11.18a28.915,28.915,0,0,1-7.17,7.8,4.457,4.457,0,0,0-1.68-1.56,22.234,22.234,0,0,0,7.53-8.22,13.6,13.6,0,0,0,1.89-4.38Z"/><path class="cls-3" d="M420.21,275.03a19.292,19.292,0,0,0,.18-3.15V253.25a17.8,17.8,0,0,0-.18-3.06h2.58a18.921,18.921,0,0,0-.15,3.12v5.61a74.394,74.394,0,0,1,13.35,6.33l-1.29,2.22a61.119,61.119,0,0,0-11.19-5.94,3.321,3.321,0,0,1-.93-.51h-.06a10.491,10.491,0,0,1,.12,1.77v9a20.359,20.359,0,0,0,.15,3.18Z"/><path class="cls-3" d="M453.86,253.91a12.705,12.705,0,0,0,1.44-4.11l2.4.42a6.372,6.372,0,0,0-.78,1.62,14.053,14.053,0,0,1-.93,2,5.093,5.093,0,0,1,.63,0c4.8-.24,7.8-.6,9.45-1.14l.18,2a9.3,9.3,0,0,0-1.2.15,97.012,97.012,0,0,1-9.9.78,22.157,22.157,0,0,1-2.7,4.26c-.3.36-.9,1.05-1,1.14s-.36.27-.39.3h0a.237.237,0,0,0,.06.09,8.3,8.3,0,0,1,1.38-1,8.007,8.007,0,0,1,4.53-1.47,3.641,3.641,0,0,1,3.993,3.249c0,.027,0,.054.007.081,2.19-.87,3.9-1.5,5.22-2a6.6,6.6,0,0,0,2-.87l1,2.1a49.9,49.9,0,0,0-8,2.64c.06.78.06,1.08.06,1.83v3a6.5,6.5,0,0,0,.06,1.08h-2q.2-2.154.18-4.32a7.948,7.948,0,0,0,0-.9c-4.08,1.92-5.64,3.33-5.64,5.13,0,2,1.86,2.85,6.09,2.85a25.147,25.147,0,0,0,8-1.17l.27,2.31c-.4.03-.8.08-1.2.15a46.486,46.486,0,0,1-7.29.6c-5.37,0-8-1.53-8-4.62,0-1.65,1-3.21,3.06-4.74a23.314,23.314,0,0,1,4.47-2.4c-.24-1.65-1-2.37-2.37-2.37-1.89,0-4.26,1.11-6.69,3.18a9.936,9.936,0,0,0-2.31,2.49l-1.88-1.6a29.83,29.83,0,0,0,6.72-8.58l.27-.45a3.413,3.413,0,0,1-.57.06l-4.41-.09h-.43a5.191,5.191,0,0,0-.66,0v-2.07a42,42,0,0,0,6.42.33Z"/><path class="cls-3" d="M490.88,267.38a14,14,0,0,0,3.9,3.75,22.853,22.853,0,0,0,8.3,3.06,8.008,8.008,0,0,0-1.13,2c-6.36-1.68-10-4.08-12.93-8.43a11.572,11.572,0,0,1-4.71,5.61,20.685,20.685,0,0,1-6.81,2.76,7,7,0,0,0-1.11-1.89,18.212,18.212,0,0,0,6.42-2.16,10,10,0,0,0,4.41-4.65h-7.58a19.727,19.727,0,0,0-2.79.18v-2a16.66,16.66,0,0,0,2.76.18h8.22a17.606,17.606,0,0,0,.42-2.88h-5.43a14.609,14.609,0,0,0-2.61.15v-1.89a14.8,14.8,0,0,0,2.61.15h5.58c.06-1.17.06-1.5.09-2.67h-5.85a18.5,18.5,0,0,0-2.88.18v-2a17.792,17.792,0,0,0,2.88.18h5.82a10.94,10.94,0,0,0-.18-2.43h2.22a10.812,10.812,0,0,0-.15,2.43h6.29a17.562,17.562,0,0,0,2.88-.18v2a15.773,15.773,0,0,0-2.88-.18h-6.3c0,1-.06,1.68-.12,2.67h5.93a14.479,14.479,0,0,0,2.59-.15v1.89a14.479,14.479,0,0,0-2.59-.15h-6a22.4,22.4,0,0,1-.45,2.88h10.25a17.255,17.255,0,0,0,2.8-.18v2a19.553,19.553,0,0,0-2.82-.18Zm-2.46-16.44a7.868,7.868,0,0,0-.21-1.86h2.34a9.526,9.526,0,0,0-.18,1.86v1.14h8.82a29.455,29.455,0,0,0,3-.12,13.647,13.647,0,0,0-.12,2v1.77a13.518,13.518,0,0,0,.12,2.07h-1.95v-4.08H479.12v4.08h-2a13.776,13.776,0,0,0,.12-2.07v-1.74a13.93,13.93,0,0,0-.12-2,29.455,29.455,0,0,0,3,.12h8.25Z"/><path class="cls-3" d="M513.07,259.4h-1.32a22.223,22.223,0,0,0-2.73.12,27.693,27.693,0,0,0,.12-2.88v-3.45a27.227,27.227,0,0,0-.12-2.94,20.259,20.259,0,0,0,2.85.15h3.21a19.264,19.264,0,0,0,2.82-.15,26.23,26.23,0,0,0-.12,2.94v3.46a21.522,21.522,0,0,0,.09,2.85,25.263,25.263,0,0,0-2.61-.09h-.45v4.47h1.11a10.144,10.144,0,0,0,2-.12v1.83a10.973,10.973,0,0,0-2-.12h-1.11v6.06c1.5-.57,2.19-.87,4.14-1.71l.15,1.8c-3.63,1.56-6,2.46-9.48,3.66a11.153,11.153,0,0,0-1.47.54l-.66-2.07a6.828,6.828,0,0,0,1.74-.33v-8a16.22,16.22,0,0,0-.21-3.12h2a22.773,22.773,0,0,0-.12,3.09v7.44c1.2-.39,1.2-.39,2.13-.72Zm-2.16-1.62h5.13v-5.7h-5.13Zm21.93,9.3c-.33.27-.54.45-1,.87a31.781,31.781,0,0,1-3,2.73c1.26,2.07,2.73,3.51,3.6,3.51.69,0,1.14-1.53,1.41-4.95a4.814,4.814,0,0,0,1.65,1.11c-.51,4.26-1.29,5.82-2.85,5.82s-3.48-1.56-5.22-4.44a28.7,28.7,0,0,1-9.78,4.53,6.161,6.161,0,0,0-1.14-1.77,26.2,26.2,0,0,0,10.13-4.29,22.292,22.292,0,0,1-1.62-4.89l-3.24.36a18.161,18.161,0,0,0-2.73.48l-.24-2a2.817,2.817,0,0,0,.45,0c.45,0,1.65-.09,2.37-.15l3.01-.35c-.12-.78-.36-2.31-.48-3.21l-2.22.24a15.85,15.85,0,0,0-2.43.39l-.21-1.86a3.753,3.753,0,0,0,.45,0,18.074,18.074,0,0,0,2-.15l2.16-.21c-.09-1.08-.18-1.8-.27-3l-2.22.21a20.693,20.693,0,0,0-2.76.39l-.18-1.89h.6a19.974,19.974,0,0,0,2.16-.12l2.28-.21c0-.39,0-.39-.18-3.12a11.6,11.6,0,0,0-.24-1.74h2.16a5.969,5.969,0,0,0-.12,1.32c0,.57.06,1.89.15,3.36l5.16-.48a15.055,15.055,0,0,0,2.79-.45l.18,1.89a3.2,3.2,0,0,0-.48,0c-.36,0-1.32.06-2.37.18l-5.16.51c.06.54.15,1.53.3,3l4.44-.45a14.636,14.636,0,0,0,2.85-.48l.21,1.86h-.27c-.6,0-1.5.06-2.61.18l-4.44.45c.18,1.41.3,2.28.45,3.21l5.55-.6a22.014,22.014,0,0,0,2.76-.45l.21,1.92a1.654,1.654,0,0,0-.33,0c-.54,0-1.53.09-2.55.18l-5.31.6a17.845,17.845,0,0,0,1.29,4,13,13,0,0,0,3.21-3.33Zm-5.2-17.55a25.167,25.167,0,0,1,4.17,2.43l-1,1.38a17.35,17.35,0,0,0-4.17-2.58Z"/><path class="cls-3" d="M547.47,250.7a46.206,46.206,0,0,0-.39,6.33c-.12,3.6-.21,7.68-.21,9,0,.36,0,1.11.06,1.8a4.717,4.717,0,0,0,1.41,3.6,5.661,5.661,0,0,0,3.75,1.17,8.619,8.619,0,0,0,8-5.22,17.805,17.805,0,0,0,1.47-4.71,8.469,8.469,0,0,0,2.16,1.44c-1.14,3.51-2,5.28-3.33,6.81a10.5,10.5,0,0,1-8.46,3.75c-2.55,0-4.44-.72-5.64-2.1s-1.65-2.92-1.65-6.12c0-2,0-2.76.27-12.21v-2a9.21,9.21,0,0,0-.12-1.59Z"/><path class="cls-3" d="M571.64,268.13a30.583,30.583,0,0,1,6,6.36l-1.68,1.59a29.952,29.952,0,0,0-5.91-6.54Z"/><path class="cls-3" d="M613.64,250.46a5.227,5.227,0,0,0-.66,1.23,23.228,23.228,0,0,1-1.38,2.64,4.261,4.261,0,0,1,1.08-.09l7.26-.12a3.321,3.321,0,0,0,1.56-.21l1.8,1.89a2.882,2.882,0,0,0-.51,1.17c-2.76,8.82-8,14.7-16.32,18.42a4.746,4.746,0,0,0-1.5-1.77,25.813,25.813,0,0,0,15.75-17.61l-10.11.15a29.007,29.007,0,0,1-7.17,7.8,4.4,4.4,0,0,0-1.68-1.53,23,23,0,0,0,7.53-8.25,13.279,13.279,0,0,0,1.89-4.35Zm9.27-1a20.791,20.791,0,0,1,3.06,4.53l-1.5.9a20.955,20.955,0,0,0-3.06-4.62Zm3.36-1.68a24.42,24.42,0,0,1,3.09,4.56l-1.5.87a21.086,21.086,0,0,0-3.06-4.59Z"/><path class="cls-3" d="M638,271.65v2.13h-2.3a17.264,17.264,0,0,0,.12-2.25v-16.3a16.939,16.939,0,0,0-.12-2.34,21.568,21.568,0,0,0,2.33.09h16a15.5,15.5,0,0,0,2.34-.09,16.331,16.331,0,0,0-.09,2.34v16.23a17.622,17.622,0,0,0,.09,2.31h-2.28v-2.12Zm16.08-16.68H638v14.68h16.08Z"/><path class="cls-3" d="M665.3,261.35a21.223,21.223,0,0,0,3.72.18h17.43a23.668,23.668,0,0,0,3.63-.15v2.43a34.393,34.393,0,0,0-3.66-.12h-17.4a32.762,32.762,0,0,0-3.72.12Z"/><path class="cls-3" d="M705.91,252.74a10.9,10.9,0,0,0-.39,2c-1.26,8.55-3.69,14.31-7.92,18.72a6.567,6.567,0,0,0-1.92-1.56,19.28,19.28,0,0,0,4.35-5.94,34.75,34.75,0,0,0,3.09-10.41,23.821,23.821,0,0,0,.3-2.82,3.2,3.2,0,0,0,0-.48Zm8.31-.45a36.284,36.284,0,0,0,1.38,7.2c1.44,5.28,3.9,9.72,6.81,12.39a6.5,6.5,0,0,0-1.86,1.68c-4-4.23-7-11.16-8.16-18.84a12.946,12.946,0,0,0-.39-2Zm3.18-1.59a22.233,22.233,0,0,1,3,4.71l-1.53.87a22.616,22.616,0,0,0-3-4.83Zm3.42-1.56a23.013,23.013,0,0,1,3,4.74l-1.5.81a23.475,23.475,0,0,0-3-4.77Z"/><path class="cls-3" d="M736.53,251.39a14.951,14.951,0,0,0-.18,2.58c-.24,8.13-.48,10.35-1.62,13.38a18.334,18.334,0,0,1-5.19,7.41,5.545,5.545,0,0,0-1.8-1.62,14.841,14.841,0,0,0,5.07-6.9c.93-2.61,1.35-6.54,1.35-12.87a13.311,13.311,0,0,0-.12-2.13Zm7.44-.33a11.622,11.622,0,0,0-.18,2.64l-.15,18.12a13.866,13.866,0,0,0,5.58-3.48,14.841,14.841,0,0,0,3.54-6,8.4,8.4,0,0,0,1.68,1.74,17.006,17.006,0,0,1-6,7.71,19.746,19.746,0,0,1-4.29,2.19l-1,.36a5.019,5.019,0,0,0-.69.33l-1.2-1.38a5.053,5.053,0,0,0,.21-2l.18-17.55a11.99,11.99,0,0,0-.12-2.67Z"/><path class="cls-3" d="M1.08,319.76a26.083,26.083,0,0,0,1.47-7.86l1.59.27a33.036,33.036,0,0,1-1.5,8.22Zm3.87,13.68a24.87,24.87,0,0,0,.21-3.45V309.08a19.81,19.81,0,0,0-.21-3H7.29a19.064,19.064,0,0,0-.21,3v21a22.074,22.074,0,0,0,.21,3.33Zm4.17-17.07a15.456,15.456,0,0,0-1.26-4.62l1.38-.54a23.953,23.953,0,0,1,1.38,4.59Zm4.5-1.92a22.537,22.537,0,0,1-2.7,5.61,11.8,11.8,0,0,0-1.68-.93,20.762,20.762,0,0,0,3.57-8.55,13.947,13.947,0,0,0,.27-2.34l2.07.42a11.536,11.536,0,0,0-.48,2c-.15.75-.3,1.29-.51,2.1h3.87v-3.6a19.555,19.555,0,0,0-.21-3h2.31a18.712,18.712,0,0,0-.21,3v3.6h4.65a18.149,18.149,0,0,0,3.09-.18v2.07a26.973,26.973,0,0,0-3.06-.18H19.92v6.18H24a19.932,19.932,0,0,0,3-.18v2a21.151,21.151,0,0,0-3.06-.18h-4v7.89h5.1a23.828,23.828,0,0,0,3.27-.18v2.13a21.544,21.544,0,0,0-3.27-.21H12.69a21.544,21.544,0,0,0-3.27.21V330a23.828,23.828,0,0,0,3.27.18h5.34v-7.89h-3.3a21.439,21.439,0,0,0-3.06.18v-2a18.637,18.637,0,0,0,2.91.18h3.45v-6.24Z"/><path class="cls-3" d="M33.64,325.13a30.607,30.607,0,0,1,6,6.36l-1.68,1.59a29.93,29.93,0,0,0-5.91-6.54Z"/><path class="cls-3" d="M72.24,306.35a12.3,12.3,0,0,0,2.19,2.34,21.521,21.521,0,0,0,4.35,3,7.017,7.017,0,0,0-1,1.65,23.6,23.6,0,0,1-6.48-5.49,19.836,19.836,0,0,1-3.06,3.75,30.17,30.17,0,0,1-4.56,3.69,5.408,5.408,0,0,0-1.26-1.5,25.641,25.641,0,0,0,5.82-4.74,13.978,13.978,0,0,0,2-2.7Zm-5.31,17a21.739,21.739,0,0,1-2.94,8.88,7.009,7.009,0,0,0-1.53-1.35c2.19-3.39,3-7,3-13.14a23.708,23.708,0,0,0-.12-2.82,27.45,27.45,0,0,0,2.91.12h6.72a19.458,19.458,0,0,0,2.34-.12,16.386,16.386,0,0,0-.12,2.28v4a15.382,15.382,0,0,0,.12,2.25c-.72-.06-1.2-.09-2.16-.09Zm1.86,8.46v1.47H66.9a20.319,20.319,0,0,0,.15-2.49v-3.3a17.193,17.193,0,0,0-.09-2.37,20.125,20.125,0,0,0,2.25.09h6.3a16.134,16.134,0,0,0,2.13-.12,15.666,15.666,0,0,0-.12,2.25v3a14.887,14.887,0,0,0,.15,2.46H75.78v-1Zm-1.59-12a16.813,16.813,0,0,1-.15,2.07h8.49v-2.07Zm8.34-1.44v-1.86H67.23v1.86Zm-7.26-6.69a9.519,9.519,0,0,0,1.8.12h3.09a9.207,9.207,0,0,0,1.77-.12v1.68a8.292,8.292,0,0,0-1.65-.12H70.02a8.894,8.894,0,0,0-1.74.12Zm.54,18.63h6.93v-3.66H68.82Zm13.82-21.98a17.04,17.04,0,0,0-.18,3.27v11.46a20.289,20.289,0,0,0,.15,3.36H80.42a21.2,21.2,0,0,0,.15-3.36V311.65a21.281,21.281,0,0,0-.18-3.27ZM89,306.38a21.4,21.4,0,0,0-.21,3.63v19.92c0,2.19-.6,2.64-3.54,2.64a27,27,0,0,1-2.76-.12,5.8,5.8,0,0,0-.54-1.92,22.189,22.189,0,0,0,3.63.3c1,0,1.29-.18,1.29-.9V310.04a21.961,21.961,0,0,0-.21-3.66Z"/><path class="cls-3" d="M93.87,318.2a12.151,12.151,0,0,0,2.31.15h1.56a13.732,13.732,0,0,0,2.31-.15,22.829,22.829,0,0,0-.15,3.18v5.88a4.529,4.529,0,0,0,2.67,2.73c1.5.66,3.24.87,6.75.87a87.094,87.094,0,0,0,12.06-.6,7.563,7.563,0,0,0-.69,2.19c-3.15.15-6.6.21-10.14.21-5.1,0-6.78-.21-8.58-1a6.933,6.933,0,0,1-3.09-2.82,26.56,26.56,0,0,1-3.6,3.15c-.27.21-.6.48-1.08.93l-1-2a20.063,20.063,0,0,0,4.83-3.63v-7.23h-2a11.389,11.389,0,0,0-2.19.15Zm1.92-11.37a37.006,37.006,0,0,1,4.86,5.34l-1.53,1.35a27.184,27.184,0,0,0-4.74-5.49Zm9.48,5.22a20.41,20.41,0,0,1-2,3,4.553,4.553,0,0,0-1.59-1,16.673,16.673,0,0,0,3.51-5.76,8.158,8.158,0,0,0,.39-1.53l1.92.57a1.209,1.209,0,0,1-.12.27c-.18.36-.18.36-.54,1.23a15.867,15.867,0,0,1-.69,1.59h4v-1a18.461,18.461,0,0,0-.18-3.09h2.16a14.94,14.94,0,0,0-.18,3.09v1h4.32a13.668,13.668,0,0,0,2.85-.18v1.95a24.138,24.138,0,0,0-2.82-.12h-4.35v4h5.61a15.2,15.2,0,0,0,2.73-.15v2a27.062,27.062,0,0,0-2.73-.15H104.19a24.816,24.816,0,0,0-2.67.15v-2a15.483,15.483,0,0,0,2.73.15h5.82v-4Zm1.65,16a21.482,21.482,0,0,0-3,.15,18.976,18.976,0,0,0,.12-2.88V322.8a17.911,17.911,0,0,0-.12-2.7,22.377,22.377,0,0,0,3.18.15h7.86a23.26,23.26,0,0,0,3.21-.15,16.27,16.27,0,0,0-.12,2.91v2.28a16.266,16.266,0,0,0,.12,2.91,23.675,23.675,0,0,0-3.15-.15Zm-1.08-1.68h10.35v-4.44H105.84Z"/><path class="cls-3" d="M124.08,319.76a26.083,26.083,0,0,0,1.47-7.86l1.59.27a33.036,33.036,0,0,1-1.5,8.22Zm3.87,13.68a24.87,24.87,0,0,0,.21-3.45V309.08a19.81,19.81,0,0,0-.21-3h2.34a19.064,19.064,0,0,0-.21,3v21a22.074,22.074,0,0,0,.21,3.33Zm4.17-17.07a15.456,15.456,0,0,0-1.26-4.62l1.38-.54a23.953,23.953,0,0,1,1.38,4.59Zm4.5-1.92a22.537,22.537,0,0,1-2.7,5.61,11.8,11.8,0,0,0-1.68-.93,20.762,20.762,0,0,0,3.57-8.55,13.947,13.947,0,0,0,.27-2.34l2.07.42a11.536,11.536,0,0,0-.48,2c-.15.75-.3,1.29-.51,2.1h3.87v-3.6a19.555,19.555,0,0,0-.21-3h2.31a18.712,18.712,0,0,0-.21,3v3.6h4.65a18.149,18.149,0,0,0,3.09-.18v2.07a26.973,26.973,0,0,0-3.06-.18h-4.68v6.18H147a19.932,19.932,0,0,0,3-.18v2a21.151,21.151,0,0,0-3.06-.18h-4.05v7.89h5.1a23.828,23.828,0,0,0,3.27-.18v2.13a21.544,21.544,0,0,0-3.27-.21h-12.3a21.544,21.544,0,0,0-3.27.21V330a23.828,23.828,0,0,0,3.27.18h5.34v-7.89h-3.3a21.439,21.439,0,0,0-3.06.18v-2a18.637,18.637,0,0,0,2.91.18h3.45v-6.24Z"/><path class="cls-3" d="M161.91,308.18a12.08,12.08,0,0,0,.57,1.83c.6,1.77.9,2.61,1.32,4a53.327,53.327,0,0,1,6.45-1.68,41.641,41.641,0,0,0-.12-5.31h2.25a28.424,28.424,0,0,0-.15,4v1a15.136,15.136,0,0,1,2.25-.18c4,0,6.6,2.16,6.6,5.52,0,3.6-2.94,6.18-7.05,6.18a12.7,12.7,0,0,1-5.07-1.11,4.422,4.422,0,0,0,0-.54,13.273,13.273,0,0,0-.18-1.71,10.2,10.2,0,0,0,5,1.38,6.081,6.081,0,0,0,3.6-1.17,3.637,3.637,0,0,0,1.44-3.06c0-2.28-1.77-3.63-4.8-3.63-2.19,0-5.43.72-9.78,2.13,1.53,5.1,2.61,9.33,3.87,15a9.488,9.488,0,0,0,.39,1.29l-2.43.54c-.15-2.46-1.83-9.69-3.78-16.2a12.875,12.875,0,0,1-1.62.54,28.622,28.622,0,0,0-4.11,1.65l-.78-2.13a32.928,32.928,0,0,0,4.41-1.41c.75-.27,1-.33,1.53-.48a30.088,30.088,0,0,0-2.16-5.7Z"/><path class="cls-3" d="M185.97,311.48a12.855,12.855,0,0,0,2.4.15h5.1a12.2,12.2,0,0,0,2.4-.15v1.92c-.72-.06-1.23-.09-2.16-.09h-5.34a18.867,18.867,0,0,0-2.4.12Zm1.08-4.14a10.853,10.853,0,0,0,2.16.15h3.93a11,11,0,0,0,2.16-.15v1.89a15,15,0,0,0-2.16-.12h-3.93a14.713,14.713,0,0,0-2.16.12Zm.09,8.43a12.161,12.161,0,0,0,2,.12h4a11.342,11.342,0,0,0,2-.12v1.88a12.865,12.865,0,0,0-2-.12h-4a13.115,13.115,0,0,0-2,.12Zm0,4.14a12.385,12.385,0,0,0,2,.12h4a11.536,11.536,0,0,0,2-.12v1.83a12.617,12.617,0,0,0-2-.12h-4a12.865,12.865,0,0,0-2,.12Zm.09,13.44a28.86,28.86,0,0,0,.15-2.91v-4a19.074,19.074,0,0,0-.12-2.46,17.305,17.305,0,0,0,2.43.12h3.36a17.793,17.793,0,0,0,2.19-.09,21.763,21.763,0,0,0-.09,2.34v4.23a13.818,13.818,0,0,0,.15,2.37h-1.83v-1.2h-4.35v1.59Zm1.86-3.15h4.38v-4.55h-4.38Zm11-11.25a21.2,21.2,0,0,0-2.76.12,5.892,5.892,0,0,0,.06-.9v-8.26a20.843,20.843,0,0,0-.09-2.79,17.113,17.113,0,0,0,2.52.12h9.27a15.837,15.837,0,0,0,2.52-.12,6.327,6.327,0,0,0-.06.87v8.1a28.344,28.344,0,0,0,.09,2.94,21.415,21.415,0,0,0-2.82-.12h-3.69v2.74h4.92a17.74,17.74,0,0,0,2.82-.18v2a17.46,17.46,0,0,0-2.76-.18h-4.37a22.767,22.767,0,0,0,7.92,7,8.777,8.777,0,0,0-1.11,1.71c-3.63-2.31-4.83-3.51-7.47-7.38.06,1.41.09,2.1.09,2.79v3.12a16.429,16.429,0,0,0,.18,2.82h-2a17.367,17.367,0,0,0,.18-2.79v-3.18c0-.87,0-1.56.09-2.73a22.683,22.683,0,0,1-6.84,7.14,6.639,6.639,0,0,0-1.26-1.59,21.293,21.293,0,0,0,4.62-3.54,24.031,24.031,0,0,0,2.88-3.33h-4.2a17.32,17.32,0,0,0-2.73.18v-2a17.46,17.46,0,0,0,2.76.18h4.68v-2.67Zm-1-10.11v3.36h4.38v-3.36Zm0,4.92v3.63h4.38v-3.63Zm6.06-1.56h4.74v-3.36h-4.74Zm0,5.19h4.77v-3.63h-4.77Z"/><path class="cls-3" d="M223.2,320.42h-3.51a17.413,17.413,0,0,0-2.94.15v-2a18.3,18.3,0,0,0,2.94.18h7.62a16.828,16.828,0,0,0,2.7-.18v2a19.563,19.563,0,0,0-2.79-.15h-2.28v3.23h1.83a14.711,14.711,0,0,0,2.4-.15v1.89a13.187,13.187,0,0,0-2.43-.18h-1.8v4.5a12.382,12.382,0,0,0,4.68.9c1.5.12,4.26.21,6.21.21a70.925,70.925,0,0,0,8.91-.45,6.457,6.457,0,0,0-.66,2.07c-1.65.12-4.68.18-7.23.18-6.51,0-10-.33-12.18-1.17a10.1,10.1,0,0,1-4.71-3.78,15.387,15.387,0,0,1-2.37,5.22,4.992,4.992,0,0,0-1.56-1.17,13.187,13.187,0,0,0,2.34-4.56,22.238,22.238,0,0,0,.6-4.44,3.547,3.547,0,0,0-.06-.81l1.92.24c-.06.48-.09.63-.12,1a25.445,25.445,0,0,1-.33,2.58,10.907,10.907,0,0,0,2.82,3Zm-4.56-10.56a22.541,22.541,0,0,0-.12-2.7,21.3,21.3,0,0,0,2.79.12h4.53a21.3,21.3,0,0,0,2.79-.12,21.46,21.46,0,0,0-.12,2.73v4.53a20.309,20.309,0,0,0,.12,2.61,23.208,23.208,0,0,0-2.79-.12h-4.5a23.208,23.208,0,0,0-2.79.12,20.888,20.888,0,0,0,.12-2.67Zm1.71,1.44h6.45v-2.52h-6.45Zm0,4.17h6.45V312.8h-6.45Zm14.73,11.07a17.446,17.446,0,0,1-5.31,3.81,5.367,5.367,0,0,0-1.38-1.35,12.3,12.3,0,0,0,5.22-3.42Zm-2.25-17.52a23.866,23.866,0,0,0-3,.15v-1.89a21.439,21.439,0,0,0,3.06.18h8a17.927,17.927,0,0,0,2.91-.18v1.89a26.569,26.569,0,0,0-2.82-.15H237.5a18.791,18.791,0,0,1-1,2.76h3.21a20.738,20.738,0,0,0,2.64-.09,21.359,21.359,0,0,0-.12,2.7v7.89a24.293,24.293,0,0,0,.12,2.88c-.87-.06-1.5-.09-2.55-.09h-6.18a22.124,22.124,0,0,0-2.67.09,20.175,20.175,0,0,0,.12-2.67v-8.13a23.335,23.335,0,0,0-.12-2.67c.72.06,1.29.09,2.64.09h1.2a22.233,22.233,0,0,0,.9-2.76Zm0,6.63h7.81v-2.37h-7.77Zm0,3.93h7.81v-2.46h-7.77Zm0,4h7.81v-2.52h-7.77Zm6.24,2.07a17.954,17.954,0,0,0,5.19,3.15,6.21,6.21,0,0,0-1.14,1.47,20.977,20.977,0,0,1-5.4-3.66Z"/><path class="cls-3" d="M257.04,313.55a19,19,0,0,0,2.76-.15,20.522,20.522,0,0,0-.12,2.67v14.64c0,1.65-.57,2-3,2-.42,0-.63,0-2.31-.09a5.669,5.669,0,0,0-.36-1.83,25.3,25.3,0,0,0,2.79.24c.93,0,1.17-.12,1.17-.63v-5h-7.11a19.542,19.542,0,0,1-1.8,7.68,5.891,5.891,0,0,0-1.68-1.2,13.331,13.331,0,0,0,1.71-6.09c.18-2,.24-3.87.24-8.91v-2.31c-.27.36-.39.51-.78,1a4.675,4.675,0,0,0-1.41-1.2,18.6,18.6,0,0,0,4.35-6.63,12.783,12.783,0,0,0,.6-2l1.89.45c-.12.24-.15.3-.36.81-.3.75-.48,1.14-.51,1.2h2.85a9.253,9.253,0,0,0,1.68-.09l.9,1a15.161,15.161,0,0,0-1.08,1.89c-.33.72-1,1.86-1.38,2.52Zm-2.82,0a35.449,35.449,0,0,0,2-3.75h-3.84a27.852,27.852,0,0,1-2.25,3.72h2.16Zm-.48,10.29v-3.72h-2.67c0,2.34,0,2.34-.09,3.72Zm-2.64-8.7v3.47h2.67v-3.45Zm6.9,0h-2.7v3.45H258Zm0,5h-2.7v3.72H258Zm5.46-11.07a16.377,16.377,0,0,0-2.85.18v-1.92a18.136,18.136,0,0,0,3,.18h6.84a23.551,23.551,0,0,0,2.76-.12c-.06.48-.06.57-.12,1.14-.12,1.56-.33,3.3-.54,4.41-.39,2.07-1,2.61-2.79,2.61a21.972,21.972,0,0,1-2.76-.21,6.194,6.194,0,0,0-.36-1.77,13.654,13.654,0,0,0,2.67.36c.87,0,1.17-.18,1.35-.84a20.681,20.681,0,0,0,.57-4h-4.41a9.46,9.46,0,0,1-1.29,3.75c-.93,1.59-1.89,2.46-4.17,3.84a4.947,4.947,0,0,0-1.23-1.47,8.91,8.91,0,0,0,3.78-3.12,6.509,6.509,0,0,0,1-3Zm0,12a12.022,12.022,0,0,1-1.41,2.76,5.857,5.857,0,0,0-1.62-.81,11.869,11.869,0,0,0,2.19-4.59,5.716,5.716,0,0,0,.3-1.44l1.83.42c-.51,1.5-.51,1.5-.69,2h2.79v-.76a14.833,14.833,0,0,0-.18-2.4h2.07a19.259,19.259,0,0,0-.15,2.4v.75h2.28a14.627,14.627,0,0,0,2.82-.18v2a17.267,17.267,0,0,0-2.82-.15h-2.23v3.63h3a19,19,0,0,0,2.82-.18v2a21.09,21.09,0,0,0-2.73-.12h-3.09v4.14a16.8,16.8,0,0,0,.18,2.67h-2.18a17.287,17.287,0,0,0,.18-2.67V326.4h-3.75a16.86,16.86,0,0,0-2.58.15v-2a16.524,16.524,0,0,0,2.61.18h3.72V321.1Z"/><path class="cls-3" d="M279.3,313.91a28.513,28.513,0,0,1,5.22,3.9l-1.17,1.68a24.018,24.018,0,0,0-5.19-4.17Zm5.4,9.72a49.566,49.566,0,0,1-3.93,8.16,8.619,8.619,0,0,0-.63,1.08l-1.74-1.59c1.62-1.65,3.15-4.53,4.74-8.82Zm-3.9-17a26.252,26.252,0,0,1,5,4.17l-1.23,1.56a22.544,22.544,0,0,0-5-4.38Zm14.61,14.46a17.937,17.937,0,0,0,9.9,10.08,7.409,7.409,0,0,0-1.2,2c-5.13-2.88-8.07-6.18-10-11.1a17.07,17.07,0,0,1-2.88,6.3,18.763,18.763,0,0,1-6.18,5,5.6,5.6,0,0,0-1.32-1.68c3.15-1.5,5-2.91,6.45-5a14.539,14.539,0,0,0,2.25-5.58h-3.59a21.965,21.965,0,0,0-3.15.18v-2.1a21.693,21.693,0,0,0,3.12.18h4a51.322,51.322,0,0,0,.42-6.39h-3.24a19.39,19.39,0,0,0-2.91.15v-2a19.523,19.523,0,0,0,2.91.15h3.24v-2.13a17.124,17.124,0,0,0-.21-2.94h2.28a15.734,15.734,0,0,0-.21,2.94v2.13h4.89a18.045,18.045,0,0,0,2.67-.12,17.979,17.979,0,0,0-.12,2.52v5.73h.3a16.877,16.877,0,0,0,2.58-.18v2.1a21.336,21.336,0,0,0-3-.18Zm5.22-1.74v-6.39h-5.61a49.279,49.279,0,0,1-.39,6.39Z"/><path class="cls-3" d="M330.24,312.44a24.213,24.213,0,0,0,3.51-.15c-.09,1.08-.09,1.08-.15,3.93a92.983,92.983,0,0,1-1,12.66c-.54,2.61-1.44,3.42-3.84,3.42a37.328,37.328,0,0,1-5.34-.48,9.436,9.436,0,0,0-.51-2.25,26.985,26.985,0,0,0,5.7.75c1.59,0,2-.75,2.43-4.38a111.521,111.521,0,0,0,.66-11.67h-9.27a26.4,26.4,0,0,1-3,10.59c-1.74,3.09-4.29,5.46-8.34,7.77a4.8,4.8,0,0,0-1.59-1.68,18.508,18.508,0,0,0,5-3.24c3.48-3.15,5.16-7,5.85-13.44h-5.88a26.756,26.756,0,0,0-3.69.18v-2.19a25.976,25.976,0,0,0,3.72.18h6c.09-1.35.12-2.31.12-3.54a17.07,17.07,0,0,0-.18-2.91h2.37a20.559,20.559,0,0,0-.15,2.43c0,1.41,0,1.41-.15,4Z"/><path class="cls-3" d="M349.11,310.91a12.705,12.705,0,0,0,1.44-4.11l2.4.42a6.372,6.372,0,0,0-.78,1.62,14.053,14.053,0,0,1-.93,2,5.093,5.093,0,0,1,.63,0c4.8-.24,7.8-.6,9.45-1.14l.18,2a9.3,9.3,0,0,0-1.2.15,97.012,97.012,0,0,1-9.9.78,22.157,22.157,0,0,1-2.7,4.26c-.3.36-.9,1-1,1.14a1.759,1.759,0,0,1-.39.3h0a.237.237,0,0,0,.06.09c1.08-.84,1.08-.84,1.38-1.05a8.007,8.007,0,0,1,4.53-1.47,3.641,3.641,0,0,1,3.993,3.249c0,.027,0,.054.007.081,2.19-.87,3.9-1.5,5.22-2a6.6,6.6,0,0,0,2-.87l1,2.1a49.8,49.8,0,0,0-8,2.64c.06.78.06,1.08.06,1.83v3a6.5,6.5,0,0,0,.06,1.08h-2q.2-2.154.18-4.32a7.948,7.948,0,0,0,0-.9c-4.08,1.92-5.64,3.33-5.64,5.13,0,2,1.86,2.85,6.09,2.85a25.147,25.147,0,0,0,8-1.17l.27,2.31a11.811,11.811,0,0,0-1.2.15,46.607,46.607,0,0,1-7.29.6c-5.37,0-8-1.53-8-4.62,0-1.65,1-3.21,3.06-4.74a23.259,23.259,0,0,1,4.47-2.4c-.24-1.65-1-2.37-2.37-2.37-1.89,0-4.26,1.11-6.69,3.18a9.919,9.919,0,0,0-2.31,2.49l-1.68-1.68a29.865,29.865,0,0,0,6.72-8.58l.27-.45a3.413,3.413,0,0,1-.57.06l-4.41-.09h-.48a5.191,5.191,0,0,0-.66,0v-2.07a42,42,0,0,0,6.42.33Z"/><path class="cls-3" d="M382.74,308a11,11,0,0,0-.18-2h2.28a10.479,10.479,0,0,0-.18,2v.6h9.36a20.9,20.9,0,0,0,3-.18v2a22.273,22.273,0,0,0-3-.15H373.83a22.273,22.273,0,0,0-3,.15v-2a20.9,20.9,0,0,0,3,.18h8.85Zm-10.89,14.76a25.359,25.359,0,0,0-.12-2.7,27.824,27.824,0,0,0,3,.12h18.6a23.18,23.18,0,0,0,2.91-.12,24.247,24.247,0,0,0-.12,2.64v8c0,1-.18,1.53-.69,1.86s-1,.42-2.58.42c-.69,0-.87,0-2.79-.09a5.986,5.986,0,0,0-.39-1.86,22.91,22.91,0,0,0,3.39.27c1.08,0,1.23-.09,1.23-.69v-8.79H373.71v8.64a18.641,18.641,0,0,0,.18,3.06h-2.25a21.488,21.488,0,0,0,.18-3Zm4-8.43a16.384,16.384,0,0,0-.09-2.28,23.791,23.791,0,0,0,2.85.12h11.13a20.491,20.491,0,0,0,2.55-.12c-.06.87-.09,1.29-.09,2.31v1.62a15.247,15.247,0,0,0,.09,2.34,23.124,23.124,0,0,0-2.76-.12H378.45a24.832,24.832,0,0,0-2.7.12,21.763,21.763,0,0,0,.09-2.34Zm1.79,2.32h12.69v-2.94H377.64Zm12.24,11a18.479,18.479,0,0,0,.09,2.13c-.78-.06-1.71-.09-2.76-.09h-7.57v1.65h-2a17.56,17.56,0,0,0,.15-2.49v-3a21.637,21.637,0,0,0-.09-2.19c.69.06,1.32.09,2.43.09h7.2a22.541,22.541,0,0,0,2.64-.09,17.58,17.58,0,0,0-.09,2Zm-10.32.54h8.58v-2.94h-8.5Z"/><path class="cls-3" d="M408.64,308.51a38.847,38.847,0,0,0,.81,5.22,14.287,14.287,0,0,1,6.42-1.5h1a33.75,33.75,0,0,0,.93-4.83l2.25.48a23.592,23.592,0,0,0-.81,3.15c-.15.51-.21.84-.36,1.41,5,.93,7.95,4.2,7.95,8.73a9.43,9.43,0,0,1-3.27,7.2,15.93,15.93,0,0,1-6.06,3c-.45.12-.6.15-1.89.45a5,5,0,0,0-1.17-2,13.608,13.608,0,0,0,4.47-1.11,9.769,9.769,0,0,0,4.5-3.27,7.378,7.378,0,0,0,1.32-4.26c0-3.66-2.19-6.06-6.33-6.93a33.94,33.94,0,0,1-5.82,11.76c-1.92,2.34-3.6,3.42-5.34,3.42-2.61,0-4.32-2.34-4.32-5.88a10.773,10.773,0,0,1,1.74-5.73,11.521,11.521,0,0,1,3-3.06c-.21-1-.57-2.73-.84-4.23a6.961,6.961,0,0,0-.39-1.59Zm-2.58,10.74a8.945,8.945,0,0,0-1.2,4.2c0,2.37,1,3.93,2.43,3.93,1.05,0,2.34-.9,3.69-2.55a41.542,41.542,0,0,1-2.82-8.07,8.859,8.859,0,0,0-2.14,2.49Zm6.3,3.93a4.845,4.845,0,0,1,.36-.66,34.279,34.279,0,0,0,3.66-8.49h-.75a11.2,11.2,0,0,0-5.79,1.53,42.447,42.447,0,0,0,2.25,7,4.815,4.815,0,0,1,.24.69Z"/><path class="cls-3" d="M437.58,308.75a13.867,13.867,0,0,0,2.82.18c2.49,0,6.48-.18,9.18-.39a3.062,3.062,0,0,0,1.44-.33l1.26,1.65a5.532,5.532,0,0,0-1.53,1.26,76.993,76.993,0,0,1-9.87,8.52l.06.09a15.2,15.2,0,0,1,7.35-1.86c5,0,8.22,2.46,8.22,6.3,0,4.68-4.35,7.77-11,7.77-4.23,0-6.66-1.56-6.66-4.32,0-2,1.86-3.51,4.35-3.51a6,6,0,0,1,4.95,2.46,8.586,8.586,0,0,1,1.38,2.88c3.15-.87,4.8-2.7,4.8-5.25,0-2.88-2.4-4.59-6.45-4.59a19.25,19.25,0,0,0-12.63,5.13l-1.35-1.92a33.41,33.41,0,0,0,4.2-3.06c3.21-2.55,7.95-6.72,10-8.76l.42-.42.12-.12.12-.12-.06-.06h-.27c-1,.18-4.56.39-9.12.54a14.666,14.666,0,0,0-1.62.15Zm5.64,17.07c-1.5,0-2.43.72-2.43,1.86a2,2,0,0,0,1.2,1.83,7.675,7.675,0,0,0,3.36.69,10.809,10.809,0,0,0,2.19-.21c-.66-2.73-2.16-4.17-4.32-4.17Z"/><path class="cls-3" d="M471.87,328.55a4.49,4.49,0,1,1,0-.02Zm-7.29,0a2.79,2.79,0,1,0,2.79-2.79,2.79,2.79,0,0,0-2.79,2.79Z"/></g></g></svg>