<svg xmlns="http://www.w3.org/2000/svg" viewBox="0 0 755.86 333.71"><defs><style>.cls-1{fill:#231815;}.cls-2{fill:#fff;}.cls-3{fill:#2b89c7;}</style></defs><g id="レイヤー_2" data-name="レイヤー 2"><g id="レイヤー_1-2" data-name="レイヤー 1"><rect class="cls-1" x="31.976" y="70.003" width="40" height="0.01" transform="translate(-28.04 35.367) rotate(-30)"/><polygon class="cls-2" points="34.65 80 60.63 65 60.62 64.99 60.62 55 25.99 75 34.65 80"/><path class="cls-2" d="M34.65,10l-26,15V15l26-15L69.29,20V40L34.65,60Zm26,25h0V25L43.33,15V45h0Z"/><polygon class="cls-1" points="17.33 60 17.33 40 17.32 40 8.66 45 8.67 55 17.33 60"/><polygon class="cls-1" points="43.31 45 60.63 35 60.62 34.99 60.63 25 43.31 15 43.3 44.99 43.31 45"/><polygon class="cls-3" points="60.63 65 69.29 60 69.29 40 34.65 60 34.64 10 8.67 24.99 8.67 15 0 20 0 40 25.98 25 25.99 75 60.62 55 60.62 64.99 60.63 65"/><path class="cls-2" d="M0,60V40L26,25V75ZM17.33,40h0L8.67,45V55l8.67,5Z"/><path class="cls-2" d="M112.76,58.44c4.75-3.53,7.26-6.38,9.69-11.06a36.779,36.779,0,0,0,4-13.64c.23-2,.42-4.78.42-6.49a14.621,14.621,0,0,0-.12-2.17c1.33.15,2.39.27,3,.31,2.7.3,3.46.49,3.46,1,0,.3-.34.53-1.6,1v1.33a31.34,31.34,0,0,0,1.51,8.89,22.761,22.761,0,0,0,15.43,15.7v.37c-1.94.65-2.77,1.56-3.87,4-.15.38-.31.5-.5.5-.72,0-4-2.85-5.73-4.94a31.164,31.164,0,0,1-5.8-12.2,48,48,0,0,1-1.48-10c-.42,6.31-1.22,9.88-3.15,13.94a26.58,26.58,0,0,1-10.22,11.4,36.846,36.846,0,0,1-4.87,2.47Z"/><path class="cls-2" d="M159.39,35.91V57.83c0,.88-.42,1.07-2.62,1.07-1.49,0-1.71-.12-1.71-.88.19-5.58.22-9.69.22-18.88,0-10.07,0-12.69-.22-15.58,2,.95,2.62,1.22,4.63,2.24h5.28c.91-1,1.18-1.29,2.05-2.24l3,2.28c.34.27.49.46.49.61s-.3.57-1.18,1.06V30.7c0,1.94,0,3.35.08,5.86v.11a.641.641,0,0,1-.551.718l-.019,0a15.008,15.008,0,0,1-2.28.19c-1,0-1.18-.07-1.22-.68v-1Zm6-9.31h-6v3.8h6Zm0,4.6h-6v3.91h6Zm17.14,23.21c.49,0,.61-.11.61-.57V35.91H176.9v.72c0,.69-.53.88-2.5.88-1.41,0-1.64-.08-1.64-.8.08-3.16.12-5.36.12-9.16,0-1.75,0-2.39-.12-3.87,1.94.87,2.55,1.14,4.49,2.12h5.58c1-1,1.22-1.29,2.09-2.24,1.37,1,1.79,1.29,3.12,2.28.38.31.53.5.53.69s-.31.6-1.29,1.21V45.07c0,2.31,0,6.53.07,9.72a4.488,4.488,0,0,1-.34,2.24c-.49.92-1.44,1.45-3.34,1.75a5.689,5.689,0,0,1-1.26.15c-.38,0-.49-.11-.53-.68a3.507,3.507,0,0,0-1.18-2.43,5.736,5.736,0,0,0-2.16-1c-.31.46-1.07.61-2.81.61-1,0-1.22-.12-1.26-.61V52.58h-6.82v2.09c0,.38-.08.53-.23.64a5.12,5.12,0,0,1-2.47.38c-1.14,0-1.37-.11-1.37-.75.12-3.69.16-5.48.16-8.67,0-4.67,0-6.08-.16-8,1.94.83,2.51,1.13,4.41,2.09h6.16c.87-.92,1.14-1.22,2-2.06,1.29.88,1.71,1.18,3,2.09.38.35.54.5.54.69s-.31.53-1.22,1v3.31c0,2.35,0,4.33.15,8.85,2.03.13,3.3.17,3.87.17Zm-8.06-13.26h-6.82v4.6h6.76Zm-6.82,5.43v5.24h6.76V46.58Zm15.43-20h-6.24v3.8h6.24Zm0,4.6h-6.24v3.91h6.24Z"/><path class="cls-2" d="M197.46,30.29a19.866,19.866,0,0,1,.8,5.54c0,3.2-1,5.4-2.51,5.4-1.06,0-1.93-1.14-1.93-2.55a1.91,1.91,0,0,1,.87-1.82c1.63-1.44,2.17-3,2.32-6.57Zm1.64.07c0-3-.08-4.71-.19-6.65,5.39.5,5.73.57,5.73,1.11,0,.34-.45.6-1.63.91v32c0,1-.42,1.1-2.66,1.1-1.41,0-1.6-.12-1.64-.84.2-4,.23-6.23.27-9.46Zm4.59-.64c2.74,1.52,3.88,2.69,3.88,4a2.36,2.36,0,0,1-1.22,2,2.3,2.3,0,0,1-1.1.42c-.49,0-.72-.38-.76-1.26a10.592,10.592,0,0,0-1-4.94Zm19.8,7.29c1.14-1.29,1.48-1.67,2.66-2.89,1.82,1.33,2.35,1.75,4.1,3.16.16.15.19.23.19.3s-.19.23-.38.23H208.37a14.7,14.7,0,0,0-2.93.27l-.23-1.37a12.858,12.858,0,0,0,3.16.3h6.46V33.1h-4.11a10.84,10.84,0,0,0-2.39.23L208.1,32a10.465,10.465,0,0,0,2.62.3h4.11V28.65h-6a11.724,11.724,0,0,0-2.5.23l-.23-1.37a10.127,10.127,0,0,0,2.7.35h6V27.4c0-1.25-.08-2.58-.19-3.69,5.54.5,5.73.54,5.73,1s-.38.57-1.52.91v2.21h4.26c1.14-1.33,1.48-1.71,2.66-3,1.75,1.33,2.28,1.79,3.91,3.19.15.16.23.27.23.34s-.15.23-.42.23H218.85v3.65h3.54a33.607,33.607,0,0,1,2.47-2.73,46.767,46.767,0,0,1,3.72,3c.15.15.19.22.19.3s-.15.23-.38.23h-9.54v3.91Zm-11.7,13.38v7.56c0,.87-.5,1.06-2.81,1.06-1.18,0-1.41-.11-1.41-.84.15-3.45.23-7.86.23-11.58,0-4,0-5.85-.15-8a42.606,42.606,0,0,1,4.63,2.2h9.77a26.017,26.017,0,0,1,2.05-2.13,24.978,24.978,0,0,1,3.07,2.21c.31.26.42.38.42.57s-.19.45-1.21,1.06v7.14c0,1.22,0,1.37.07,5.32a2.931,2.931,0,0,1-1.59,2.93,9.54,9.54,0,0,1-3.69.91c-.34,0-.45-.11-.49-.46a3.654,3.654,0,0,0-.46-1.52,3.819,3.819,0,0,0-2.39-1.44c-.19-.08-1-.3-2.51-.72v-.42c4.6.27,4.6.27,6.53.31.35,0,.46-.12.46-.38v-3.8Zm10.56-8.81H211.79v3.49h10.56Zm0,4.29H211.79v3.71h10.56Z"/><path class="cls-2" d="M247.81,29.07c.88-1.06,1.14-1.37,2-2.32a32,32,0,0,1,3.07,2.7c.12.12.16.19.16.27s-.12.15-.27.15h-6.88v5.05h2.13c.87-1.06,1.14-1.37,2-2.32a37.755,37.755,0,0,1,3.16,2.74c.11.11.15.19.15.23a.225.225,0,0,1-.23.15H237.97c3.38,1.75,4.79,3,4.79,4.41,0,1.14-1.48,2.77-2.51,2.77a.69.69,0,0,1-.61-.42c-.15-.26-.15-.3-.38-1.82a11.947,11.947,0,0,0-1.59-4.79l.19-.15h-.65a10.891,10.891,0,0,0-2.16.23l-.23-1.33a9.222,9.222,0,0,0,2.39.3h4.75V29.87h-3.42a11.121,11.121,0,0,0-2.28.23l-.19-1.33a10.763,10.763,0,0,0,2.47.3h3.42v-2a21.664,21.664,0,0,0-.19-3.23c5.4.57,5.59.61,5.59,1.14,0,.3-.35.49-1.45.84v3.3Zm5.85,8.44c0-7.68-.07-11.1-.3-13.45a35.658,35.658,0,0,1,4.33,2.16h6.88c.87-1,1.14-1.25,2-2.16,1.37.91,1.79,1.21,3.08,2.2.34.27.45.42.45.57s-.3.57-1.33,1c-.34,6-.6,7.18-2.05,8.05a7.907,7.907,0,0,1-3.42.84c-.41,0-.57-.12-.57-.54a2.579,2.579,0,0,0-.38-1.36c-.45-.76-1.1-1.11-3.45-1.71v-.5a43.361,43.361,0,0,0,4.64.31c.65,0,.87-.19,1-1a40.623,40.623,0,0,0,.42-5h-7.57V38.77h7.11c.87-.95,1.14-1.21,2.05-2.12,1.33,1,1.71,1.25,2.93,2.24.34.26.45.41.45.61s-.26.49-1.25,1a29.294,29.294,0,0,1-3.54,9.38,16.16,16.16,0,0,0,6.5,3.38v.3a5.125,5.125,0,0,0-2.2,2.32,4.982,4.982,0,0,0-.57,1.48c-.08.19-.19.31-.34.31-.73,0-3.69-2.66-5.4-4.86a21.4,21.4,0,0,1-5.74,5h0a.91.91,0,0,1-.22.72,5.151,5.151,0,0,1-2.32.31c-1.22,0-1.45-.12-1.45-.76.19-5,.19-5,.23-14.33l-.26.08h-7.49V49h2.09c.88-1.11,1.14-1.41,2-2.47,1.45,1.17,1.9,1.55,3.31,2.81a.728.728,0,0,1,.15.26c0,.12-.11.19-.3.19h-7.3v1.14c0,1.79,0,4.33.12,7a1,1,0,0,1-.12.57c-.26.3-1.1.45-2.62.45-1.21,0-1.44-.15-1.44-.83.07-3.95.11-5.32.11-7.15V49.83h-3.53a10.681,10.681,0,0,0-2.39.27l-.23-1.37a9.4,9.4,0,0,0,2.66.31h3.57V43.87H237.4a9.574,9.574,0,0,0-2.32.23l-.22-1.3a10.192,10.192,0,0,0,2.54.27h7.25a31.276,31.276,0,0,0,2.13-7.29c4.37,1.44,5,1.71,5,2.09s-.42.45-1.78.53a40.972,40.972,0,0,1-4.34,4.67h2.82c.64-.76,1.29-1.56,2-2.39,1.33,1.14,1.75,1.48,3,2.73l.11.15Zm3.76,19.71a30.565,30.565,0,0,0,4.3-6.49,23.549,23.549,0,0,1-2.66-7.68c-.27-1.44-.38-2.31-.5-3.38h-1.14Zm1.87-17.55c.95,4,1.74,5.74,3.68,8.13a32.1,32.1,0,0,0,1.86-8.13Z"/><path class="cls-2" d="M286.53,34.85h.88c.95-1.14,1.25-1.49,2.2-2.59,1.41,1.18,1.83,1.56,3.08,2.74.15.19.23.26.23.38s-.23.26-.5.26h-5.89v2.55c3.69,1.52,5.44,3,5.44,4.56s-1.18,3.11-2.28,3.11c-.57,0-.84-.34-1-1.48-.49-2.77-1-4-2.13-5.35V57.68c0,.95-.49,1.14-2.92,1.14-1.11,0-1.33-.11-1.33-.76.11-4.18.26-8.81.34-11.17l.08-4a23.991,23.991,0,0,1-6.35,7.68l-.27-.23a45.774,45.774,0,0,0,6-14.67h-3.06a11.529,11.529,0,0,0-2.2.23l-.2-1.32a10.27,10.27,0,0,0,2.43.31h3.49V29.23a42.7,42.7,0,0,1-5.39.49l-.08-.38a37.5,37.5,0,0,0,6.92-3,17.758,17.758,0,0,0,3.87-2.59c1.6,1.14,1.6,1.14,3.8,2.82.34.3.5.49.5.68s-.23.38-.5.38a5.015,5.015,0,0,1-1.55-.27c-1.79.57-2.44.76-3.58,1.07Zm20.41,10.73c.83-1.52,1.1-2,1.93-3.42,1.49,1.06,1.94,1.4,3.35,2.54a1.115,1.115,0,0,1,.26.38c0,.12-.15.19-.34.23l-5.66,1.14c0,4.18,0,4.18.15,11.13a.43.43,0,0,0,0,.16c0,.83-.68,1.06-3,1.06-1.29,0-1.52-.15-1.52-.87.11-5.55.15-7.45.15-10.6L291.4,49.49a8.462,8.462,0,0,0-1.94.69l-.57-1.33h.38a17.351,17.351,0,0,0,2.24-.23l10.75-2.13V37.94c0-9.27,0-11.24-.19-13.64,1.14.12,2,.23,2.55.27,2.85.23,3.34.34,3.34.8s-.42.6-1.56,1V45.7Zm-15.29-8.57c5.43,1.26,7.56,2.55,7.56,4.52,0,1.67-1,3.16-2.09,3.16-.5,0-.8-.35-1.37-1.52a15.353,15.353,0,0,0-4.26-5.82Zm1.48-9.5c5.13,1.41,7.18,2.7,7.18,4.52,0,1.56-1.14,3.23-2.24,3.23-.5,0-.72-.26-1.26-1.48a19.928,19.928,0,0,0-3.83-6Z"/><path class="cls-2" d="M344.65,45.41l3-3.38c1.93,1.48,2.5,1.93,4.33,3.45a.912.912,0,0,1,.22.42c0,.19-.19.31-.53.31H336.65v9.11a2.746,2.746,0,0,1-1.44,2.85,9.841,9.841,0,0,1-4.11.95c-.49,0-.6-.11-.68-.72a2.869,2.869,0,0,0-1.06-2c-.73-.61-1.3-.8-5.21-1.71v-.5c5.28.35,5.28.35,7.49.42h.11c.38,0,.53-.15.53-.57V46.18h-12a18.954,18.954,0,0,0-3,.22l-.22-1.33a14.846,14.846,0,0,0,3.23.31h12v-.61a26.363,26.363,0,0,0-.19-3.8c1.94.23,1.94.23,4,.57a26.354,26.354,0,0,0,3.49-4.14H326.85a15.713,15.713,0,0,0-2.73.23l-.23-1.29a15.974,15.974,0,0,0,2.92.26h13c.87-.91,1.14-1.18,2-2,1.52,1,2,1.37,2.89,2a21.934,21.934,0,0,0,1.1-3.8H322.33v.34a15.071,15.071,0,0,1-.57,4.18,3.1,3.1,0,0,1-2.66,2.25c-1.1,0-2-1.33-2-2.89a1.421,1.421,0,0,1,.53-1.29c.11-.12.11-.12,1-.61,1.82-1,2.58-2.47,2.89-5.36h.49a22.822,22.822,0,0,1,.3,2.58h16.34a32.146,32.146,0,0,0,3.46-7.94c2.69.84,4.86,1.56,5.47,1.87.34.15.49.34.49.53,0,.41-.53.61-1.56.61h-.34a49.883,49.883,0,0,1-6,4.93h5.28c1-1,1.33-1.33,2.4-2.28,1.71,1.26,2.24,1.68,3.87,2.93.42.34.57.57.57.8,0,.49-.65.68-2.36.68a35.731,35.731,0,0,1-3.83,2.51c-.15.08-.38.23-.72.46l.49.38c.38.34.57.57.57.76,0,.38-.46.57-1.44.57h-.57a47.657,47.657,0,0,1-6.77,3c.35.11.46.26.46.45,0,.38-.34.57-1.41.91v2.21ZM323,24.51c4.52,1.71,6.27,2.93,6.27,4.48s-1.26,3-2.44,3c-.6,0-1-.38-1.29-1.52a13.213,13.213,0,0,0-2.77-5.63Zm7.86-.61c4.14,1.41,6.27,2.93,6.27,4.45s-1.4,3.23-2.73,3.23c-.65,0-.88-.31-1.3-1.94a12.226,12.226,0,0,0-2.54-5.39Z"/><path class="cls-2" d="M366.94,27.7a32.472,32.472,0,0,1-3.42,10l.31.31h3.11c.84-1,1.1-1.26,2-2.24,1.14.95,1.49,1.21,2.55,2.16.27.27.38.42.38.57s-.19.38-.95.84v5.43c0,4.83,0,4.83.15,9a.79.79,0,0,1-.68.83,7.385,7.385,0,0,1-2,.27c-.91,0-1.14-.15-1.14-.76V52.78h-3v3.57a.72.72,0,0,1-.58.76,10.892,10.892,0,0,1-2.24.26c-.79,0-1.1-.19-1.1-.72.12-5.51.19-8.39.19-8.7V42.33a28.679,28.679,0,0,1-3.49,3.84l-.27-.31a46.529,46.529,0,0,0,5.74-18.2h-2.25a9.463,9.463,0,0,0-2.2.23l-.23-1.33a9.179,9.179,0,0,0,2.43.3h6.08c1.07-1.29,1.37-1.67,2.47-2.84,1.56,1.29,2,1.71,3.54,3.11.15.15.19.23.19.34s-.15.19-.42.19Zm-2.69,24.32h3.07V38.84h-3.07Zm24.12-13h.38c.87-1.22,1.18-1.56,2.13-2.74,1.33,1.26,1.71,1.67,3,3,.15.15.19.23.19.35s-.15.18-.38.18h-5.32v4.72c0,4.75,0,5.2.19,13.18a.74.74,0,0,1-.594.862l-.056.008a13.157,13.157,0,0,1-2.65.23c-1,0-1.26-.15-1.26-.79.19-8.14.19-8.71.19-13.49V39.78h-4.6c-.3,6.73-1,9.73-3.07,12.81s-4.45,4.79-8.78,6.61l-.23-.38a18.987,18.987,0,0,0,4.3-4.14,18.712,18.712,0,0,0,3.3-9c.19-1.41.3-3.39.38-5.86h-1.14a11.883,11.883,0,0,0-2,.2l-.23-1.26a9.156,9.156,0,0,0,2.36.27h1.06v-12h-.19a15.714,15.714,0,0,0-2.47.19l-.23-1.33a10.341,10.341,0,0,0,2.74.34H386.9c.91-1,1.82-1.93,2.66-2.81,1.6,1.22,2.05,1.64,3.61,3,.19.15.26.26.26.38s-.22.26-.49.26h-4.56Zm-8.62-12c0,6.61,0,9.58-.12,12h4.56v-12Z"/><path class="cls-2" d="M411.1,44.31a24.667,24.667,0,0,0,.34-4.07,11.726,11.726,0,0,0-.11-1.9c1.29.12,2.28.19,2.92.27h.15c2.28.19,3.19.45,3.19.83s-.53.69-1.74,1c-.23,2-.35,2.7-.53,3.8l4.75-.08,2.16-2.24c.76.54,1.33.91,1.71,1.18s.84.61,1.52,1.06c.38.31.53.5.53.69s-.26.49-.68.76a6.613,6.613,0,0,0-.8.49v7.64c0,.68.11.8,1.1.8a11.365,11.365,0,0,0,3.19-.27c.61-.19,1.11-1.1,1.71-3.11.38-1.33.42-1.45,1.33-4.53l.46.08-.23,6a.392.392,0,0,1,0,.16c0,.75.07.91.61,1.13a1.79,1.79,0,0,1,1.33,1.79c0,1.29-.95,2-2.89,2.09-1.71.15-4.26.23-6.08.23a8.832,8.832,0,0,1-3.72-.5,2.271,2.271,0,0,1-1-2.16L420.43,45l-5.28.08c-.87,4.14-2.39,6.84-5.2,9.19a19.01,19.01,0,0,1-6.42,3.46c-1.14.34-1.71.49-4.52,1.18l-.16-.35c7.45-3.34,10.64-6.91,12.05-13.41l-6.8.08a17.375,17.375,0,0,0-2.17.23l-.38-1.3a14.982,14.982,0,0,0,2.51.23h.19Zm3-14.44a12.774,12.774,0,0,1-.91,4c-1.75,4.44-6.54,7.33-13.64,8.21l-.19-.42c4.26-1.48,6.46-2.93,8.32-5.4a10.6,10.6,0,0,0,2.17-6.38h-5.2v.64a8,8,0,0,1-.65,3.54,3.65,3.65,0,0,1-3,2.24c-1.14,0-2-1.1-2-2.66a1.69,1.69,0,0,1,1.21-1.86c2.13-1.07,2.93-2.2,3.5-5.05h.42a12.749,12.749,0,0,1,.41,2.35h9.24v-2.5a16.863,16.863,0,0,0-.16-2.47c4.79.46,5.13.5,5.59.65s.57.26.57.45c0,.38-.53.69-1.6,1v2.81h8.36c.95-1,1.26-1.33,2.28-2.32,1.79,1.37,2.32,1.83,4.07,3.31.34.34.45.45.45.64,0,.38-.45.61-1.25.61a12.814,12.814,0,0,1-1.45-.07c-1.86,1.14-3.95,2.35-5.12,2.92l-.35-.19a30.007,30.007,0,0,0,1.68-4.1h-5.3v5.76c0,.6.19.72,1.21.79h3.38c1.75,0,2.36-.15,2.78-.68a22.551,22.551,0,0,0,1.78-3.57h.38l-.15,2.59v.26c0,.73,0,.73,1,1.14a1.24,1.24,0,0,1,.91,1.22c0,1.14-.72,1.71-2.58,1.94-.54.07-3.65.19-4.72.19h-.53c-.45,0-1.71,0-3.61-.08-2.92,0-3.76-.61-3.76-2.43V29.77Z"/><path class="cls-2" d="M457.23,34.58a50.719,50.719,0,0,1-5.47,6c4.37-.07,5.13-.07,13-.57a29.472,29.472,0,0,0-4.1-4l.19-.26a35.124,35.124,0,0,1,6.76,2.47c2.32,1.21,3.19,2.24,3.19,3.72s-.87,3.11-1.82,3.11c-.46,0-.8-.34-1.6-1.67a20.066,20.066,0,0,0-1.82-2.47c-5.43,1.26-5.43,1.26-7.83,1.67-2.85.5-9,1.41-11.89,1.75-.15,1.07-.38,1.52-.8,1.52s-.83-1-1.74-5.51a55.753,55.753,0,0,0,6.64.23,32.782,32.782,0,0,0,2.06-6h-3.46a14.491,14.491,0,0,0-2.51.27l-.3-1.33a14.8,14.8,0,0,0,2.81.26h15.65c1-1.18,1.37-1.52,2.43-2.62l1.18.84a15.761,15.761,0,0,0,.53-2.59H445.65a9.668,9.668,0,0,1-.72,4.33,3.291,3.291,0,0,1-2.7,2.17,2.489,2.489,0,0,1-2.24-2.66,1.578,1.578,0,0,1,.57-1.37c.15-.11.15-.11,1.06-.68a6.561,6.561,0,0,0,2.36-2.28,7.859,7.859,0,0,0,.72-2.74h.46a7.98,7.98,0,0,1,.49,2.41h9.16V26.46a19.981,19.981,0,0,0-.11-2.81c5.16.34,6.19.53,6.19,1.06s-.53.68-1.79,1v2.87h9c.91-1,1.22-1.29,2.16-2.27,1.9,1.29,2.48,1.7,4.26,3.07.31.27.42.42.42.65a.529.529,0,0,1-.31.42,3.709,3.709,0,0,1-1,.19h-1.37c-.45.27-.91.5-1.14.61a19.744,19.744,0,0,1-2.39,1.25l2,1.52c.15.08.23.19.23.27a.25.25,0,0,1-.23.19Zm7.71,14.59c1.45-1.56,1.45-1.56,2.78-3,1.82,1.33,2.39,1.74,4.25,3.26.11.12.15.19.15.27a.332.332,0,0,1-.3.23H459.05v6.68h8.48c1.25-1.4,1.63-1.82,2.92-3.15,1.82,1.33,2.43,1.79,4.41,3.38.15.15.26.27.26.38s-.11.19-.26.19H443.74a21.322,21.322,0,0,0-3.11.27l-.31-1.37a18.937,18.937,0,0,0,3.46.3h11.05V49.93h-8.28a15.842,15.842,0,0,0-2.81.23l-.3-1.3a20.255,20.255,0,0,0,3.11.27h8.28V47.58a32.662,32.662,0,0,0-.18-3.83c1.14.11,2.12.22,2.66.3,2.81.27,3.3.38,3.3.8s-.23.49-1.56,1v3.38Z"/><path class="cls-2" d="M16.15,135.58a20.545,20.545,0,0,0-.15,2.67,38.971,38.971,0,0,0,.66,6.51,24.639,24.639,0,0,0,8.31,13.14,22.043,22.043,0,0,0,3.48,2.34,6.83,6.83,0,0,0-1.56,1.89,27.472,27.472,0,0,1-7.95-7.68,25.883,25.883,0,0,1-3.9-9.54,25.4,25.4,0,0,1-2.07,6.67,20.169,20.169,0,0,1-4.32,6.12,25.537,25.537,0,0,1-5.52,4.38,5.724,5.724,0,0,0-1.62-1.77,21.194,21.194,0,0,0,6.14-4.53c4.17-4.47,6.21-10.23,6.21-17.61a20.55,20.55,0,0,0-.11-2.59Z"/><path class="cls-2" d="M37.98,158.87a21.693,21.693,0,0,0,.18,3.36H35.94a22.464,22.464,0,0,0,.18-3.36V139.49a25.934,25.934,0,0,0-.12-3.3,27.61,27.61,0,0,0,3.15.12h4.29a26.5,26.5,0,0,0,3.06-.12c-.06.84-.09,1.74-.09,2.85v3.72a24.894,24.894,0,0,0,.09,2.79c-.81-.06-1.83-.09-3-.09H37.98Zm0-18.69H44.7v-2.4H37.98Zm0,3.84H44.7v-2.44H37.98Zm15.75,11.37a23.758,23.758,0,0,0,.09,2.73c-.84-.06-1.83-.09-3.06-.09H44.19v2.1H42.33a18.466,18.466,0,0,0,.15-2.82v-6.66a26.9,26.9,0,0,0-.09-2.82,26.833,26.833,0,0,0,3,.12h5.46a26.833,26.833,0,0,0,3-.12c-.06.84-.09,1.62-.09,2.82Zm-9.54-3.27h7.83v-2.67H44.19Zm0,4.41h7.83v-2.95H44.19Zm16.08,2.79c0,2-.63,2.49-3.06,2.49-.63,0-2.25-.06-3-.12a6.892,6.892,0,0,0-.54-1.92,32.57,32.57,0,0,0,3.3.3c1.23,0,1.47-.15,1.47-.87V145.46H52.29a28.386,28.386,0,0,0-3,.09c.06-.78.09-1.68.09-2.79v-3.72a28.1,28.1,0,0,0-.09-2.85,26.059,26.059,0,0,0,3.06.12h5a27.61,27.61,0,0,0,3.15-.12,28.411,28.411,0,0,0-.15,3.3Zm-9.21-19.14h7.38v-2.4H51.06Zm0,3.84h7.38v-2.44H51.06Z"/><path class="cls-2" d="M67.48,148.79a23.7,23.7,0,0,0,1.26-8l1.65.45a30.122,30.122,0,0,1-1.29,8.25Zm3.9,13.56a23.968,23.968,0,0,0,.21-3.45V138.11a19.555,19.555,0,0,0-.21-3h2.27a18.712,18.712,0,0,0-.21,3v20.82a23.555,23.555,0,0,0,.21,3.42Zm3.9-17.94a17.19,17.19,0,0,0-1.38-4.08l1.35-.57a31.864,31.864,0,0,1,1.5,4Zm4.17-5.46a17.261,17.261,0,0,0-2.82.15v-1.86a14.017,14.017,0,0,0,2.85.18h4.47a10.092,10.092,0,0,0-.18-2.34H85.9a9.984,9.984,0,0,0-.18,2.34h5.55a14.612,14.612,0,0,0,2.94-.18v1.86a18.876,18.876,0,0,0-2.91-.15H85.72v2H90.4a16.976,16.976,0,0,0,2.76-.15v1.78a18.077,18.077,0,0,0-2.79-.15H85.72v2.22h6.06a18.58,18.58,0,0,0,3-.18v1.92a23.141,23.141,0,0,0-3-.18H79.03a19.574,19.574,0,0,0-3.06.18v-1.92a18.865,18.865,0,0,0,3.06.18h4.92v-2.22h-3.6a17.925,17.925,0,0,0-2.7.15v-1.77a17.2,17.2,0,0,0,2.76.15h3.57v-2Zm.21,20.1a20.65,20.65,0,0,0,.18,3.24H77.65a21.394,21.394,0,0,0,.15-3.24v-8.47a20.306,20.306,0,0,0-.09-2.61,24.064,24.064,0,0,0,2.79.12h9.21a14.814,14.814,0,0,0,2.76-.15,27.308,27.308,0,0,0-.12,3.21v8.52c0,1.86-.57,2.34-2.82,2.34-.81,0-1.77-.06-3.06-.15a6.245,6.245,0,0,0-.48-1.89,20.711,20.711,0,0,0,3.36.36c1,0,1.17-.12,1.17-.81v-2.34H79.65Zm10.89-7.14v-2.28H79.65v2.28Zm0,3.75v-2.25H79.65v2.25Z"/><path class="cls-2" d="M112.23,143.3a12.289,12.289,0,0,0,2.37-.15v1.95a16.609,16.609,0,0,0-2.37-.12h-8.46a17.493,17.493,0,0,0-2.4.12v-1.95a13.027,13.027,0,0,0,2.4.15h3.57v-3.06h-2.82a15.96,15.96,0,0,0-2.25.12v-1.89a14.345,14.345,0,0,0,2.25.12h2.82v-.9a16.627,16.627,0,0,0-.18-2.58h2.13a17.957,17.957,0,0,0-.18,2.58v.9h2.4a14.206,14.206,0,0,0,2.22-.12v1.89a15.539,15.539,0,0,0-2.22-.12h-2.4v3.06Zm0,6.72a11.542,11.542,0,0,0,2.37-.15v2a16.757,16.757,0,0,0-2.37-.12h-3.12v3h2.76a14.711,14.711,0,0,0,2.22-.12v1.95a15.836,15.836,0,0,0-2.22-.12h-2.76v3.06a22.256,22.256,0,0,0,.18,2.85h-2.16a18.248,18.248,0,0,0,.21-2.85v-3.06h-3.06a15.96,15.96,0,0,0-2.25.12v-2a14.846,14.846,0,0,0,2.25.12h3.06v-3h-3.57a18.15,18.15,0,0,0-2.4.12v-2a12.682,12.682,0,0,0,2.4.15h5.52a17.972,17.972,0,0,0,1.62-4.71l1.65.48a25.536,25.536,0,0,1-1.59,4.23Zm-7.29-.33a21.147,21.147,0,0,0-1.14-3.93l1.5-.48a24.138,24.138,0,0,1,1.2,3.87Zm12.24-2.19v11.82a19.555,19.555,0,0,0,.21,3H115.2a19.306,19.306,0,0,0,.21-3V139.16a26.05,26.05,0,0,0-.15-2.82,18.991,18.991,0,0,0,2.82.15h6.93a16.327,16.327,0,0,0,2.52-.12c-.06.51-.06.51-.21,2.13a12.011,12.011,0,0,1-.9,4.26c-.45.66-1.08.87-2.61.87a22.406,22.406,0,0,1-2.94-.21,8.733,8.733,0,0,0-.39-1.8,18.622,18.622,0,0,0,3.45.42c1.14,0,1.29-.39,1.56-3.84h-8.31v7.65h6.47a14.16,14.16,0,0,0,2.4-.12l1.08,1.11a8.214,8.214,0,0,0-.36,1.23,30.213,30.213,0,0,1-3,8,19.924,19.924,0,0,0,5,4.35,6.556,6.556,0,0,0-1.23,1.68,24.909,24.909,0,0,1-4.8-4.44,21.89,21.89,0,0,1-4,4.41,7.824,7.824,0,0,0-1.35-1.5,18.421,18.421,0,0,0,4.17-4.38c-1.56-2.19-2.52-4.56-3.54-8.64Zm2.61,0c1,3.81,1.47,5,2.85,7a25.865,25.865,0,0,0,2.43-7Z"/><path class="cls-2" d="M139.87,138.89c-1.56.33-2.28.45-4,.72a6.237,6.237,0,0,0-.87-1.65,28.606,28.606,0,0,0,8.55-2,8.08,8.08,0,0,0,1.38-.72l1.17,1.59a24.525,24.525,0,0,1-4.38,1.59v4.56h2.1a9.988,9.988,0,0,0,2.1-.15v2a11.1,11.1,0,0,0-2.13-.15h-2a12.644,12.644,0,0,0,4.29,5.25,7.014,7.014,0,0,0-1.11,1.62,14.066,14.066,0,0,1-3.39-4.74c0,.42.06,2,.15,4.62v7.5a28.092,28.092,0,0,0,.18,3.48h-2.26a29.1,29.1,0,0,0,.18-3.48V152c0-1.14.06-2.85.15-4.8a22.1,22.1,0,0,1-4.56,8.82,5.618,5.618,0,0,0-1.17-1.68,24.835,24.835,0,0,0,5.31-9.66h-1.91a17.287,17.287,0,0,0-2.67.18v-2.07a16.828,16.828,0,0,0,2.7.18h2.19Zm8.31,17.52c-1.11.27-2.1.57-2.82.81l-.27-2.13a15.036,15.036,0,0,0,2.85-.48l8.25-2V138.47a19.072,19.072,0,0,0-.18-3.15h2.28a21.838,21.838,0,0,0-.18,3.12v13.74l.48-.12a16.679,16.679,0,0,0,2.82-.84l.24,2.1a21.89,21.89,0,0,0-2.85.54l-.69.18v5.1a22.339,22.339,0,0,0,.18,3.27h-2.28a17.6,17.6,0,0,0,.18-3.3v-4.62Zm-.21-11.46a28.6,28.6,0,0,1,5.52,4.65l-1.2,1.53a23.561,23.561,0,0,0-5.55-4.8Zm1-7.5a28.169,28.169,0,0,1,5.58,4.8l-1.2,1.56a22.906,22.906,0,0,0-5.61-4.92Z"/><path class="cls-2" d="M182.16,159.83c0,1.86-.57,2.22-3.36,2.22-.84,0-2.4-.06-3.45-.18a9,9,0,0,0-.63-1.92,31.153,31.153,0,0,0,3.93.33c1.38,0,1.59-.09,1.59-.72v-6h-9a23.035,23.035,0,0,0-3.15.18v-2.07a22.293,22.293,0,0,0,3.12.18h9v-.51a11.863,11.863,0,0,0-.09-1.77h1.26a25.193,25.193,0,0,0,5.37-3.39h-11a26.605,26.605,0,0,0-2.85.15v-2a27.2,27.2,0,0,0,2.91.15h10.84a12.977,12.977,0,0,0,2.22-.12l1.14,1.2c-.39.3-.39.3-1.05.87a34.115,34.115,0,0,1-6.84,4.44v.93h8.91a22.111,22.111,0,0,0,3.15-.18v2.07a22.835,22.835,0,0,0-3.18-.18h-8.88ZM174.06,140a20.071,20.071,0,0,0-2.82-3.9l1.8-.57a28.565,28.565,0,0,1,3.06,4.44h4.38a17.744,17.744,0,0,0-2.19-4.32l1.86-.51a25.651,25.651,0,0,1,2.28,4.83h3.3a17.888,17.888,0,0,0,3.09-4.83l1.89.81a28.031,28.031,0,0,1-2.88,4h2.34a34.245,34.245,0,0,0,3.45-.12,19.541,19.541,0,0,0-.12,2.49v2.26a16.4,16.4,0,0,0,.15,2.1h-2v-5H170.49v5h-2a15.7,15.7,0,0,0,.16-2.1v-2.22a19.541,19.541,0,0,0-.12-2.49,26.76,26.76,0,0,0,3.42.15Z"/><path class="cls-2" d="M203.74,138.14a12.816,12.816,0,0,0-2.58.18v-2a16.052,16.052,0,0,0,2.7.18h4.89a11.7,11.7,0,0,0,2.52-.18v2a19.725,19.725,0,0,0-2.43-.12h-1.86a29.363,29.363,0,0,1-2.07,7.62h3.74a13.761,13.761,0,0,0,1.86-.09,22.36,22.36,0,0,0-.09,2.4v9.27a19.644,19.644,0,0,0,.12,2.52h-1.89v-1.5h-3.72v3.16h-2a18.163,18.163,0,0,0,.18-2.91v-6.66c0-1.08,0-2,.09-3.36a13.719,13.719,0,0,1-2.25,3.66,5.009,5.009,0,0,0-1.08-1.8,20.406,20.406,0,0,0,4.14-7.62,21.006,21.006,0,0,0,1-4.71Zm1.2,18.6h3.71v-9.39h-3.72Zm10.41-18.6a19.531,19.531,0,0,0-2.91.18v-2.07a18.355,18.355,0,0,0,3,.18h9.48a20.064,20.064,0,0,0,3-.18v2.07a15.746,15.746,0,0,0-2.91-.18h-.72v8.31h1a15.856,15.856,0,0,0,3-.18v2.13a19.546,19.546,0,0,0-3-.18h-1v10.77a22.673,22.673,0,0,0,.21,3.21h-2.31a22.381,22.381,0,0,0,.21-3.21V148.22h-4.95c-.3,6.69-1.59,10.32-5,14.28a5.445,5.445,0,0,0-1.74-1.35c3.15-3,4.56-6.75,4.83-12.93h-.84a16.735,16.735,0,0,0-3,.18v-2.1a19.538,19.538,0,0,0,3,.15h.9v-8.31Zm2.19,7.29v1h4.89v-8.31h-4.89Z"/><path class="cls-2" d="M250.32,150.11a26.557,26.557,0,0,0,3.36-.15c-.06.66-.09,1.29-.12,2.64l-.12,6.09c0,.9.33,1,2.67,1,2.1,0,2.7-.15,2.91-.69a17.522,17.522,0,0,0,.48-4.5,7.335,7.335,0,0,0,1.95.78c-.48,6-.66,6.18-5.49,6.18-3.66,0-4.44-.39-4.44-2.4v-.15l.12-7.05h-5.58a11.5,11.5,0,0,1-2.34,5,13.234,13.234,0,0,1-3.21,2.88,20.2,20.2,0,0,1-5,2.46,4.628,4.628,0,0,0-1.32-1.71,18.726,18.726,0,0,0,5.76-2.7,9.8,9.8,0,0,0,4.17-5.88h-4.74a21.4,21.4,0,0,0-3.24.18v-2.13a20.251,20.251,0,0,0,3.18.18h5.16a21.266,21.266,0,0,0,.21-2.52,9.989,9.989,0,0,0-.12-1.62h2.28a9.116,9.116,0,0,0-.24,1.89c-.06.72-.12,1.47-.24,2.22Zm-4-12.69a9.221,9.221,0,0,0-.21-2.16h2.34a8.765,8.765,0,0,0-.21,2.16v.93h8.91a25.477,25.477,0,0,0,3-.15,13.518,13.518,0,0,0-.12,2.07v1.53a13.911,13.911,0,0,0,.12,2.1h-2v-3.84h-7.47v4.35c0,.36.06.51.21.6a5.9,5.9,0,0,0,1.92.21,5.539,5.539,0,0,0,2.43-.33c.33-.24.48-1,.51-2.43a6.266,6.266,0,0,0,1.8.57c-.15,1.89-.39,2.73-.9,3.18s-1.74.66-3.87.66c-3.15,0-3.9-.33-3.9-1.65v-5.16h-3.63a8.221,8.221,0,0,1-1.05,3.33,8.451,8.451,0,0,1-4.74,3.81,27.718,27.718,0,0,1-2.79.87,8.181,8.181,0,0,0-1.14-1.65c3.21-.6,4.71-1.2,6-2.4a5.673,5.673,0,0,0,1.83-4h-6.39v3.81h-2a14.453,14.453,0,0,0,.12-2.1v-1.5a13.518,13.518,0,0,0-.12-2.07,25.477,25.477,0,0,0,3,.15h8.31Z"/><path class="cls-2" d="M287.89,153.47a21.663,21.663,0,0,0,3.18-.15v2a22.231,22.231,0,0,0-3.18-.15h-6.36v4.23h8.82a22.826,22.826,0,0,0,3.75-.21v2.1a32.483,32.483,0,0,0-3.87-.18H271.51a32.7,32.7,0,0,0-3.87.18v-2.1a23.191,23.191,0,0,0,3.78.21h8.23v-4.23h-5.76a22.073,22.073,0,0,0-3.21.15v-2a21.259,21.259,0,0,0,3.21.15h5.76v-.45a14.931,14.931,0,0,0-.18-2.37h2.25a14.358,14.358,0,0,0-.18,2.37v.45Zm-8.34-16.44a11.758,11.758,0,0,0-.18-2h2.28a10.735,10.735,0,0,0-.18,2v.78h7.83a34.393,34.393,0,0,0,4-.12,13.547,13.547,0,0,0-.12,2.13v1.5a13.115,13.115,0,0,0,.12,2h-2v-3.87h-21v3.87h-2v-.36a13.964,13.964,0,0,0,.09-1.71v-1.59a15.188,15.188,0,0,0-.12-2q1.856.153,3.72.12h7.47Zm-4.44,7a24.213,24.213,0,0,0-3.51.15v-1.92a22.991,22.991,0,0,0,3.42.15h11.63a23.813,23.813,0,0,0,3.45-.15v1.92a23.828,23.828,0,0,0-3.42-.15h-7.71a29.466,29.466,0,0,1-2.43,4.17c3.33-.09,5.85-.24,10-.54a29.449,29.449,0,0,0-2.79-2.08l1.44-.93a52.155,52.155,0,0,1,6.36,5.37l-1.44,1.23a24.2,24.2,0,0,0-2.07-2.13c-5.34.45-11.49.81-17.07,1a7.032,7.032,0,0,0-1.14.12l-.3-1.92q.927.091,1.86.09c1,0,1.68,0,3.12-.06a28.146,28.146,0,0,0,2.46-4.26Z"/><path class="cls-2" d="M301.71,140.24h1.08a14.725,14.725,0,0,0,1.71-.09c1.68-.12,1.86-.15,5.55-.36l4.71-.3c3.69-.21,4.08-.24,5.07-.27l1.71-.06a20.264,20.264,0,0,0,3.57-.33l.18,2.22a12.573,12.573,0,0,0-3.36.42,14.76,14.76,0,0,0-5.76,3,9.17,9.17,0,0,0-3.69,6.93c0,2.52,1.53,4.53,4.2,5.55a15.381,15.381,0,0,0,4.5,1h.3l-.39,2.43c-.33-.06-.39-.09-.93-.18a15.136,15.136,0,0,1-6.51-2.32,7.261,7.261,0,0,1-3.33-6.12c0-3.48,2-6.78,5.61-9.21a19.664,19.664,0,0,1,2.85-1.59,61.352,61.352,0,0,1-6.6.66,99.711,99.711,0,0,0-10.35,1Zm20.07,4.47a22.736,22.736,0,0,1,3.09,4.65l-1.53.9a21.1,21.1,0,0,0-3.06-4.77Zm3.39-1.65a24.3,24.3,0,0,1,3.09,4.68l-1.5.84a23.706,23.706,0,0,0-3.06-4.71Z"/><path class="cls-2" d="M340.27,136.94c-1.29,3-2.31,9.15-2.31,14.07,0,1.05.06,2.82.12,4.2v1.37h.12a26.628,26.628,0,0,1,1.77-5.28,4.148,4.148,0,0,0,.24-.6l1.47.69c-1.41,2.94-2.58,6.75-2.58,8.52a3.272,3.272,0,0,0,.06.6l-2.13.21a7.551,7.551,0,0,0-.18-1.11,47.736,47.736,0,0,1-.84-8.91,50.842,50.842,0,0,1,1.64-12.26,13.762,13.762,0,0,0,.33-1.89Zm3,5.58a20.763,20.763,0,0,0,5.4.48c1.17,0,2,0,3.21-.09v-5.1a6.665,6.665,0,0,0-.09-1.23h2.25a30.631,30.631,0,0,0-.21,4.71v1.47a20.44,20.44,0,0,0,5.19-1.11l.09,2c-.06,0-.06,0-2.1.42a28.668,28.668,0,0,1-3.18.48c0,3,.09,4.5.33,8.49a21.721,21.721,0,0,1,5,2.94c.36.24.42.3.75.51l-.93,2.1a16.2,16.2,0,0,0-4.26-3.12,1.938,1.938,0,0,1-.3-.18l-.27-.18a4.251,4.251,0,0,1,.06.78,5.18,5.18,0,0,1-.36,2c-.72,1.59-2.55,2.52-5,2.52-3.48,0-5.67-1.65-5.67-4.26s2.37-4.26,5.7-4.26a8.468,8.468,0,0,1,3.33.6c-.09-.63-.21-3.45-.3-7.83-1.35.06-2.28.09-3.42.09s-2.34,0-3.39-.09a7.965,7.965,0,0,0-1-.06,4.339,4.339,0,0,0-.51,0,1.368,1.368,0,0,0-.3,0h-.12Zm5.76,11.25c-2.34,0-3.87,1-3.87,2.49s1.38,2.43,3.48,2.43a4.128,4.128,0,0,0,3.06-1.05,3.5,3.5,0,0,0,.57-2.34v-.9a7.745,7.745,0,0,0-3.21-.63Z"/><path class="cls-2" d="M365.92,154.13a30.583,30.583,0,0,1,6,6.36l-1.68,1.59a29.952,29.952,0,0,0-5.91-6.54Z"/><path class="cls-2" d="M409.57,135.92a21.574,21.574,0,0,0-.18,4c0,.66,0,1,.06,3.12a29.881,29.881,0,0,0,8.79-1.14l.27,2.22a16.507,16.507,0,0,0-1.8.21,51.827,51.827,0,0,1-7.23.66c.09,2.91.24,5.82.39,7.74a25.918,25.918,0,0,1,8,4.26,13.766,13.766,0,0,0,1.38.93l-1.41,2.1a13.292,13.292,0,0,0-3.12-2.61,30.113,30.113,0,0,0-4.05-2.31,5.923,5.923,0,0,1-.72-.33,8.455,8.455,0,0,1,.12,1.29,5.364,5.364,0,0,1-.75,3c-.93,1.32-2.85,2.07-5.34,2.07-3.87,0-6.24-1.68-6.24-4.44s2.79-4.74,7-4.74a12.933,12.933,0,0,1,2.61.27c.15,0,.15.06.27.06s.06,0,.15.06a.816.816,0,0,0,0-.27v-.18c-.24-3.45-.45-9.24-.48-13.53a13.721,13.721,0,0,0-.15-2.43Zm-4.8,17.91c-3.06,0-4.92,1.08-4.92,2.82a2,2,0,0,0,.45,1.29,4.841,4.841,0,0,0,3.6,1.2,5.07,5.07,0,0,0,3.33-1,2.78,2.78,0,0,0,.72-2.25,16.241,16.241,0,0,0-.09-1.65,10.22,10.22,0,0,0-3.09-.41Z"/><path class="cls-2" d="M437.28,136.04a16.936,16.936,0,0,0-.69,3.09c-.48,3-.9,6.3-1,7.83h.12l.21-.87a13.387,13.387,0,0,1,1.83-4.47c1.68-2.58,3.66-3.87,6-3.87a5.651,5.651,0,0,1,4.8,2.67c1.26,1.86,1.8,4.08,1.8,7.29,0,5.43-2.43,9.54-6.93,11.79a22.7,22.7,0,0,1-5.34,1.77,6.2,6.2,0,0,0-1.2-2,15.852,15.852,0,0,0,6.09-1.89c3.51-2,5.16-5.16,5.16-10s-1.68-7.62-4.56-7.62c-2.28,0-4.2,1.71-5.91,5.22a15.648,15.648,0,0,0-1.62,6.69v.72l-2.16.09v-.87l-.06-3.12v-.69a75.787,75.787,0,0,1,1-11.07,5.987,5.987,0,0,0,.09-1Z"/><path class="cls-2" d="M476.35,135.58a20.545,20.545,0,0,0-.15,2.67,38.971,38.971,0,0,0,.66,6.51,24.633,24.633,0,0,0,8.31,13.14,22.043,22.043,0,0,0,3.48,2.34,6.83,6.83,0,0,0-1.56,1.89,27.469,27.469,0,0,1-8-7.68,25.866,25.866,0,0,1-3.9-9.54,25.43,25.43,0,0,1-2.07,6.69,20.17,20.17,0,0,1-4.29,6.15,25.537,25.537,0,0,1-5.52,4.38,5.724,5.724,0,0,0-1.62-1.77,21.191,21.191,0,0,0,6.12-4.53c4.17-4.47,6.21-10.23,6.21-17.61a20.423,20.423,0,0,0-.12-2.64Z"/><path class="cls-2" d="M498.18,158.87a21.693,21.693,0,0,0,.18,3.36h-2.22a22.464,22.464,0,0,0,.18-3.36V139.49a25.934,25.934,0,0,0-.12-3.3,27.61,27.61,0,0,0,3.15.12h4.3a26.5,26.5,0,0,0,3.06-.12c-.06.84-.09,1.74-.09,2.85v3.72a24.894,24.894,0,0,0,.09,2.79c-.81-.06-1.83-.09-3-.09h-5.49Zm0-18.69h6.72v-2.4h-6.72Zm0,3.84h6.72v-2.44h-6.72Zm15.75,11.37a23.758,23.758,0,0,0,.09,2.73c-.84-.06-1.83-.09-3.06-.09h-6.57v2.1h-1.86a18.466,18.466,0,0,0,.15-2.82v-6.66a26.9,26.9,0,0,0-.09-2.82,26.833,26.833,0,0,0,3,.12h5.49a26.823,26.823,0,0,0,3-.12c-.06.84-.09,1.62-.09,2.82Zm-9.54-3.27h7.83v-2.67h-7.83Zm0,4.41h7.83v-2.95h-7.83Zm16.08,2.79c0,2-.63,2.49-3.06,2.49-.63,0-2.25-.06-3-.12a6.892,6.892,0,0,0-.54-1.92,32.57,32.57,0,0,0,3.3.3c1.23,0,1.47-.15,1.47-.87V145.46h-6.15a28.386,28.386,0,0,0-3,.09c.06-.78.09-1.68.09-2.79v-3.72a28.1,28.1,0,0,0-.09-2.85,26.059,26.059,0,0,0,3.06.12h5a27.61,27.61,0,0,0,3.15-.12,28.411,28.411,0,0,0-.15,3.3Zm-9.21-19.14h7.39v-2.4h-7.38Zm0,3.84h7.39v-2.44h-7.38Z"/><path class="cls-2" d="M530.77,143.21a21.521,21.521,0,0,1-1.32,4.53,7.865,7.865,0,0,0-1.65-.84,19.121,19.121,0,0,0,1.47-4.86,20.974,20.974,0,0,0,.42-3.78v-.81l1.92.3c-.06.36-.06.45-.12,1-.06.75-.18,1.59-.36,2.82h2.13v-4a12.676,12.676,0,0,0-.21-2.49h2.25a12.234,12.234,0,0,0-.21,2.49v4h.66a15.2,15.2,0,0,0,2.61-.18v2a21.306,21.306,0,0,0-2.55-.15h-.72v5.91c1.23-.57,1.74-.81,3.15-1.56v1.8l-.12.06a17.2,17.2,0,0,0,2.76.15h8.7v-3.48h-8.7a20.6,20.6,0,0,0-3.06.18v-2a20.073,20.073,0,0,0,3.06.18h4.23v-4h-3.3a25.121,25.121,0,0,0-2.85.15v-2a17.881,17.881,0,0,0,2.85.18h3.3v-1.23a15.2,15.2,0,0,0-.18-2.43h2.19a14.539,14.539,0,0,0-.18,2.43v1.23h4.14a17.881,17.881,0,0,0,2.85-.18v2a25.605,25.605,0,0,0-2.85-.15h-4.14v4h5.16a20.6,20.6,0,0,0,3.06-.18v2a20.61,20.61,0,0,0-3-.18h-.75v3.46h.78a18.163,18.163,0,0,0,2.91-.18v2a20.524,20.524,0,0,0-2.91-.18h-.78v8.52c0,1.68-.72,2.19-3.12,2.19-.84,0-1.92-.06-3.06-.12a6.147,6.147,0,0,0-.45-2,21.967,21.967,0,0,0,3.45.39c1.11,0,1.32-.12,1.32-.81v-8.13h-8.82a20.515,20.515,0,0,0-2.91.18v-1.86c-1.2.66-1.35.75-2.79,1.44v8.28a21.273,21.273,0,0,0,.21,3.15h-2.25a18.349,18.349,0,0,0,.21-3.15v-7.44l-1.11.45c-.75.3-1.41.57-1.89.78-.18.06-.18.06-.75.3-.245.1-.486.208-.72.33l-.66-2.1a25.5,25.5,0,0,0,5.13-1.68v-6.72Zm10.59,9.15a31.73,31.73,0,0,1,4.29,4.89l-1.59,1.17a25.012,25.012,0,0,0-4.17-5Z"/><path class="cls-2" d="M560.97,148.76a26.083,26.083,0,0,0,1.47-7.86l1.59.27a33.036,33.036,0,0,1-1.5,8.22Zm3.87,13.68a24.88,24.88,0,0,0,.21-3.45V138.08a19.81,19.81,0,0,0-.21-3h2.34a19.064,19.064,0,0,0-.21,3v21a22.074,22.074,0,0,0,.21,3.33Zm4.17-17.07a15.486,15.486,0,0,0-1.26-4.62l1.38-.54a23.953,23.953,0,0,1,1.38,4.59Zm4.5-1.92a22.537,22.537,0,0,1-2.7,5.61,11.7,11.7,0,0,0-1.68-.93,20.762,20.762,0,0,0,3.57-8.55,13.947,13.947,0,0,0,.27-2.34l2.07.42a11.536,11.536,0,0,0-.48,2c-.15.75-.3,1.29-.51,2.1h3.87v-3.6a19.555,19.555,0,0,0-.21-3h2.31a18.712,18.712,0,0,0-.21,3v3.6h4.65a18.149,18.149,0,0,0,3.09-.18v2.07a26.973,26.973,0,0,0-3.06-.18h-4.68v6.24h4.08a19.932,19.932,0,0,0,3-.18v2a21.151,21.151,0,0,0-3.06-.18h-4.05v7.89h5.1a23.828,23.828,0,0,0,3.27-.18v2.13a21.544,21.544,0,0,0-3.27-.21h-12.3a21.544,21.544,0,0,0-3.27.21v-2.11a23.828,23.828,0,0,0,3.27.18h5.34v-7.89h-3.27a21.439,21.439,0,0,0-3.06.18v-2a18.637,18.637,0,0,0,2.91.18h3.45v-6.24Z"/><path class="cls-2" d="M601.27,137.06a42.5,42.5,0,0,0-1.26,4.8,44.326,44.326,0,0,0-.9,9.39c0,2.34.06,4.11.18,5.7a27.872,27.872,0,0,1,2-5.85l1.44.69c-1.35,3-2.43,6.57-2.43,8.25v.45l-2.16.18c-.06-.48-.09-.63-.18-1.2a42.96,42.96,0,0,1-.78-8.49,49.654,49.654,0,0,1,1.35-11.88,16.693,16.693,0,0,0,.42-2.4Zm7.65,12.06c-1.5,1.65-2.25,3.09-2.25,4.41,0,2.22,1.89,3.3,5.76,3.3a19.734,19.734,0,0,0,6.9-1l.3,2.31a6.172,6.172,0,0,0-1.05.15,31.048,31.048,0,0,1-6.15.6c-3.42,0-5.58-.72-6.87-2.28a4.244,4.244,0,0,1-.9-2.76c0-1.83.75-3.45,2.61-5.58Zm-3.81-8.88a20.368,20.368,0,0,0,5.1.45,32.224,32.224,0,0,0,8-.81l.15,2.13-2.07.27a50.762,50.762,0,0,1-6.45.39,40.114,40.114,0,0,1-4.8-.3Z"/><path class="cls-2" d="M642.33,135.23a20.6,20.6,0,0,0,5,5.43,31.472,31.472,0,0,0,8.22,4.92,7.782,7.782,0,0,0-1.2,1.89,41.922,41.922,0,0,1-8.46-5.52,25.208,25.208,0,0,1-4.62-5,28.019,28.019,0,0,1-6.3,6.57,34.718,34.718,0,0,1-6.36,3.9,5.208,5.208,0,0,0-1.26-1.71,31.31,31.31,0,0,0,8.16-5.22,21.812,21.812,0,0,0,4.62-5.22Zm-10.47,26.82a21.894,21.894,0,0,0,.18-2.94v-6.63a18.865,18.865,0,0,0-.15-2.76,15.777,15.777,0,0,0,2.34.12H648.3a15.777,15.777,0,0,0,2.34-.12,18.194,18.194,0,0,0-.15,2.76v6.63a20.938,20.938,0,0,0,.18,2.94h-2.16v-1.74H634.02v1.74Zm2.16-3.51h14.49v-6.87H634.02Zm.21-14.19a15.39,15.39,0,0,0,2.37.12h9.3a17.979,17.979,0,0,0,2.52-.12v2a18.606,18.606,0,0,0-2.52-.12h-9.33a17.257,17.257,0,0,0-2.34.12Z"/><path class="cls-2" d="M663.85,138.38a15.458,15.458,0,0,0-2.58.15v-2a15.7,15.7,0,0,0,2.58.18h8.55a15.247,15.247,0,0,0,2.58-.15v2a14.844,14.844,0,0,0-2.58-.15h-4.38a42.251,42.251,0,0,1-2.76,5.85c1.92-.09,4.32-.36,6.45-.66a27.793,27.793,0,0,0-2.13-3.15l1.47-.78a31.667,31.667,0,0,1,3.57,5.73l-1.5,1c-.3-.63-.39-.84-.63-1.35-1.44.21-2.16.33-4.05.54-2.16.21-2.58.27-5.16.48-.63,0-1.14.09-1.53.12s-.48.06-.75.09l-.24-2c.39,0,.69.06,1,.06l1.5-.06a28.915,28.915,0,0,0,2.76-5.94ZM667,148.7a16.21,16.21,0,0,0-.12-2.31h2a13.937,13.937,0,0,0-.12,2.31v1.47h2.76a10.287,10.287,0,0,0,2.16-.15v2a10.108,10.108,0,0,0-2.19-.15h-2.73v4.59c2.64-.66,3.45-.87,5.67-1.56v1.74c-3.54,1.08-6.39,1.83-9,2.37-1.23.27-2.1.45-2.31.51l-1,.21-.69.21-.48-2.16a32.358,32.358,0,0,0,6-.93v-5h-2.67a14.111,14.111,0,0,0-2.49.15v-2a13.326,13.326,0,0,0,2.46.15h2.7Zm21.33-6.42a14.574,14.574,0,0,0-2.64-.15,25.985,25.985,0,0,1-1.2,6.42,19.879,19.879,0,0,1-2.58,5.46,19.2,19.2,0,0,0,7,6,6,6,0,0,0-1.26,1.86,24.182,24.182,0,0,1-6.93-6.24,26.074,26.074,0,0,1-8.22,6.51,4.524,4.524,0,0,0-1.29-1.68,21.082,21.082,0,0,0,8.49-6.39,25.961,25.961,0,0,1-3-7.89,21.579,21.579,0,0,1-2.25,3.54,4.167,4.167,0,0,0-1.38-1.32,20.041,20.041,0,0,0,3.72-6.66,26.909,26.909,0,0,0,1.56-6.81l2.19.45c-.15.42-.33,1-.54,1.83-.3,1.08-.51,1.92-.93,3.24h6.42a16.377,16.377,0,0,0,2.85-.18Zm-9.87-.15c-.27.72-.36,1-.6,1.53a25.2,25.2,0,0,0,3,8.73,24.139,24.139,0,0,0,2.94-10.26Z"/><path class="cls-2" d="M702.33,136.7a46.206,46.206,0,0,0-.39,6.33c-.12,3.6-.21,7.68-.21,9,0,.36,0,1.11.06,1.8a4.717,4.717,0,0,0,1.41,3.6,5.661,5.661,0,0,0,3.75,1.17,8.619,8.619,0,0,0,8-5.22,17.805,17.805,0,0,0,1.47-4.71,8.469,8.469,0,0,0,2.16,1.44c-1.14,3.51-2,5.28-3.33,6.81a10.5,10.5,0,0,1-8.46,3.75c-2.55,0-4.44-.72-5.64-2.1s-1.65-3-1.65-6.15c0-2,0-2.76.27-12.21v-1.95a9.2,9.2,0,0,0-.12-1.59Z"/><path class="cls-2" d="M729.31,141.26a20.652,20.652,0,0,0,3.75.27c.6,0,.93,0,1.8-.06a29.373,29.373,0,0,0,.66-5.52l2.37.24a28.115,28.115,0,0,0-.54,2.85c-.15,1-.24,1.38-.39,2.28a24.731,24.731,0,0,0,5.4-1l.15,2.07a2.574,2.574,0,0,0-.84.15,43.75,43.75,0,0,1-5.07.72c-.45,2.37-1.29,5.76-2.1,8.49a79.015,79.015,0,0,1-3.45,9.15l-2.19-.93c2.22-3.87,4.53-10.71,5.64-16.59h-2.07c-1.07,0-1.32,0-2.49-.06h-.12a4.339,4.339,0,0,0-.51,0Zm13.41,10.89a10.086,10.086,0,0,0-.9,1.14,3.615,3.615,0,0,0-.75,2.13c0,1.8,1.83,2.76,5.25,2.76a22.276,22.276,0,0,0,6.63-1l.21,2.25-1.32.21a29.988,29.988,0,0,1-5.34.51c-4.92,0-7.47-1.53-7.47-4.5,0-1.35.42-2.28,2-4.32Zm9.27-5.19a30.134,30.134,0,0,0-3.54-.21,26.087,26.087,0,0,0-7.5,1l-.21-2a33.983,33.983,0,0,1,7.95-1c.57,0,1,0,3.27.09Z"/><path class="cls-2" d="M8.56,203.63c5-.87,11.94-3.69,14.22-5.79l1.53,2a10.515,10.515,0,0,0-1.29.66,45.642,45.642,0,0,1-14.46,5.08v4.38a.544.544,0,0,1,0,.18v.44c0,2.1.12,2.79.63,3.3a3.79,3.79,0,0,0,2.28.78,31.248,31.248,0,0,0,3.54.18,59.347,59.347,0,0,0,6.87-.48,20.015,20.015,0,0,0,3-.6l.18,2.37-2.82.3c-1.92.21-5.88.42-8,.42-3.54,0-5.52-.36-6.57-1.23a4,4,0,0,1-1.23-2.88c0-.51-.06-1.11-.06-2.34V196.52a17.856,17.856,0,0,0-.12-2.49H8.72a13.889,13.889,0,0,0-.15,2.52Z"/><path class="cls-2" d="M53.86,215.33a12.4,12.4,0,0,0,2.7-.18v2.19a16.611,16.611,0,0,0-2.73-.15H39.13a16.182,16.182,0,0,0-2.73.15v-2.19a12.59,12.59,0,0,0,2.7.18h9.12c.69-3.21,1.38-7.62,1.65-10.32h-8a13.4,13.4,0,0,0-2.64.12v-2.16a15.7,15.7,0,0,0,2.67.18h8a2.991,2.991,0,0,0,1.4-.21l1,.87a5.364,5.364,0,0,0-.48,2.1c-.69,4.77-.94,6.27-1.56,9.42Z"/><path class="cls-2" d="M65.88,204.35a21.136,21.136,0,0,0,3.77.23H87.08a23.668,23.668,0,0,0,3.63-.15v2.43a34.393,34.393,0,0,0-3.66-.12H69.65a32.762,32.762,0,0,0-3.72.12Z"/><path class="cls-2" d="M103.52,203.15a65.042,65.042,0,0,1,6.09,5.67,52.28,52.28,0,0,0,4-3.69,43.773,43.773,0,0,0,5-6.51c.09-.15.12-.18.24-.36-.42,0-.42,0-17.13.06a28.3,28.3,0,0,0-3.48.12v-2.37a21.791,21.791,0,0,0,3.51.18h17.49a3.668,3.668,0,0,0,1.68-.21l1.26,1.5a8.607,8.607,0,0,0-1.2,1.59,45.886,45.886,0,0,1-9.9,11.25c1.14,1.23,2.37,2.79,4.38,5.46l-1.83,1.53a56.6,56.6,0,0,0-11.7-12.9Z"/><path class="cls-2" d="M130.79,214.49a26.106,26.106,0,0,0,8.72-2.31c5.79-2.58,9.81-7,12.24-13.35a5.989,5.989,0,0,0,1.83,1.77c-2.4,5.22-5.19,8.73-9.15,11.46-3.09,2.1-6.18,3.33-11.18,4.47a15.314,15.314,0,0,0-1.81.48Zm1.92-18.6a39.325,39.325,0,0,1,7.22,5.64l-1.56,1.86a33.309,33.309,0,0,0-7.13-5.88Z"/><path class="cls-2" d="M183.76,194.75a6.8,6.8,0,0,0-1.32,1.26,52.809,52.809,0,0,1-7,6v12.78a19.882,19.882,0,0,0,.15,3.18h-2.61a15.665,15.665,0,0,0,.18-3.12V203.48a46.884,46.884,0,0,1-11.58,5.25,7,7,0,0,0-1.17-2,42.225,42.225,0,0,0,15.57-7.77,25.172,25.172,0,0,0,5.67-5.68Z"/><path class="cls-2" d="M194.07,214.49a26.114,26.114,0,0,0,8.73-2.31c5.79-2.58,9.81-7,12.24-13.35a5.989,5.989,0,0,0,1.83,1.77c-2.4,5.22-5.19,8.73-9.15,11.46-3.09,2.1-6.18,3.33-11.19,4.47a15.753,15.753,0,0,0-1.8.48Zm1.92-18.6a39.087,39.087,0,0,1,7.23,5.64l-1.57,1.86a33.149,33.149,0,0,0-7.14-5.88Z"/><path class="cls-2" d="M236.57,193.01a9.961,9.961,0,0,0-1.05,2,15.27,15.27,0,0,1-.93,1.65c.42-.06.42-.06,9.27-.15a5.21,5.21,0,0,0,1.74-.3l1.35,1.37a6.713,6.713,0,0,0-.87,2c-2.07,5.58-4.71,9.9-7.83,12.9a33.467,33.467,0,0,1-9.48,6.18,5.34,5.34,0,0,0-1.47-1.86,26.986,26.986,0,0,0,6.21-3.27,21,21,0,0,0,5.19-4.74,37.729,37.729,0,0,0-6.72-4.86l1.38-1.53a42.8,42.8,0,0,1,6.63,4.65,35.809,35.809,0,0,0,4.17-8.7l-10.5.15a29.8,29.8,0,0,1-7.14,8,5.512,5.512,0,0,0-1.74-1.44,26.09,26.09,0,0,0,7.65-8.55,16.381,16.381,0,0,0,1.77-4.11Z"/><path class="cls-2" d="M278.96,197.12c-.21.33-.21.33-.63,1.86-1.59,5.76-3.87,9.69-7.53,13a27.549,27.549,0,0,1-9.42,5.64,5.681,5.681,0,0,0-1.47-2.1,22.291,22.291,0,0,0,6.78-3.18c4.92-3.27,7.74-7.56,9.45-14.28H260.87a20.853,20.853,0,0,0-3.36.18v-2.43a17.976,17.976,0,0,0,3.39.21h14.75a4,4,0,0,0,1.92-.24Z"/><path class="cls-2" d="M300.65,215.27h6.42a15.054,15.054,0,0,0,2.7-.15v2.1a21.835,21.835,0,0,0-2.73-.12H292.51a21.09,21.09,0,0,0-2.73.12v-2.13a12.216,12.216,0,0,0,2.7.18h6.09V204.89h-4.29a19.517,19.517,0,0,0-2.67.12v-2.1a15.692,15.692,0,0,0,2.67.18h10.95a15.2,15.2,0,0,0,2.67-.18v2.1a14.3,14.3,0,0,0-2.64-.12h-4.61Z"/><path class="cls-2" d="M319.02,204.35a21.223,21.223,0,0,0,3.72.18h17.43a23.668,23.668,0,0,0,3.63-.15v2.43a34.393,34.393,0,0,0-3.66-.12h-17.4a32.762,32.762,0,0,0-3.72.12Z"/><path class="cls-2" d="M373.37,217.37a55.827,55.827,0,0,0-9.6-9.27,32.512,32.512,0,0,1-5.73,5.37,38.62,38.62,0,0,1-5.88,3.6,6.824,6.824,0,0,0-1.46-2,24.089,24.089,0,0,0,6.08-3.45,32.525,32.525,0,0,0,10.71-13.53c.06-.18.09-.21.15-.36a.642.642,0,0,0,.09-.21,5.089,5.089,0,0,1-.72,0l-10,.15a19.976,19.976,0,0,0-3.09.24l-.07-2.43a14.233,14.233,0,0,0,2.37.15h.79l10.7-.12a5.6,5.6,0,0,0,1.92-.24l1.26,1.29a5.6,5.6,0,0,0-.84,1.47,36.321,36.321,0,0,1-4.95,8.4,74.634,74.634,0,0,1,10,9Z"/><path class="cls-2" d="M393.38,209.12c-1.74,4-3.51,5.76-5.67,5.76-2.85,0-5-3.12-5-7.32a12.179,12.179,0,0,1,12.072-12.287q.384,0,.768.017a11.611,11.611,0,0,1,8.25,3,10,10,0,0,1,2.91,7.32,10.921,10.921,0,0,1-6.87,10.35,23.212,23.212,0,0,1-4.56,1.38,4.766,4.766,0,0,0-1-2,18.022,18.022,0,0,0,5-1.41,9.058,9.058,0,0,0,5.31-8.4,7.91,7.91,0,0,0-4.77-7.53,8.622,8.622,0,0,0-3.48-.75A45.02,45.02,0,0,1,393.38,209.12Zm-3.73-10.47a10.369,10.369,0,0,0-4.89,8.94c0,2.88,1.26,5.1,2.88,5.1,1.26,0,2.46-1.41,3.75-4.35a41.217,41.217,0,0,0,2.73-11.1A9.469,9.469,0,0,0,389.65,198.65Z"/><path class="cls-2" d="M427.65,210.38a14,14,0,0,0,3.9,3.75,22.847,22.847,0,0,0,8.31,3.06,7.77,7.77,0,0,0-1.14,1.95c-6.36-1.68-10-4.08-12.93-8.43a11.572,11.572,0,0,1-4.71,5.61,20.677,20.677,0,0,1-6.81,2.76,7,7,0,0,0-1.11-1.89,18.212,18.212,0,0,0,6.42-2.16,10,10,0,0,0,4.41-4.65h-7.62a19.727,19.727,0,0,0-2.79.18v-2a16.66,16.66,0,0,0,2.76.18h8.22a17.606,17.606,0,0,0,.42-2.88h-5.43a14.609,14.609,0,0,0-2.61.15v-1.89a14.8,14.8,0,0,0,2.61.15h5.58c.06-1.17.06-1.5.09-2.67h-5.79a18.5,18.5,0,0,0-2.88.18v-2a17.792,17.792,0,0,0,2.88.18h5.82a10.94,10.94,0,0,0-.18-2.43h2.22a10.812,10.812,0,0,0-.15,2.43h6.27a17.562,17.562,0,0,0,2.88-.18v2a15.767,15.767,0,0,0-2.88-.18h-6.3c0,1-.06,1.68-.12,2.67h5.94a14.461,14.461,0,0,0,2.58-.15v1.89a14.461,14.461,0,0,0-2.58-.15h-6.06a22.4,22.4,0,0,1-.45,2.88h10.23a17.022,17.022,0,0,0,2.79-.18v2a19.553,19.553,0,0,0-2.82-.18Zm-2.46-16.44a7.868,7.868,0,0,0-.21-1.86h2.34a9.526,9.526,0,0,0-.18,1.86v1.14h8.82a29.455,29.455,0,0,0,3-.12,13.647,13.647,0,0,0-.12,2v1.77a13.518,13.518,0,0,0,.12,2.07h-1.95v-4.08H415.84v4.08h-2a13.776,13.776,0,0,0,.12-2.07v-1.74a13.93,13.93,0,0,0-.12-2,29.455,29.455,0,0,0,3,.12h8.25Z"/><path class="cls-2" d="M447.21,195.58a14.55,14.55,0,0,0-2.52.15v-2a12.122,12.122,0,0,0,2.58.18h4.38a11.42,11.42,0,0,0,2.49-.18v2a18.506,18.506,0,0,0-2.4-.12h-1.35v7.05h1.29a9.648,9.648,0,0,0,2-.15v1.92a14.224,14.224,0,0,0-2-.12h-1.29v7.2a41.8,41.8,0,0,0,3.87-1.89v1.89a56.28,56.28,0,0,1-7.68,3.51c-.66.24-1.2.48-1.62.66l-.63-2.1a23.563,23.563,0,0,0,4.17-1.29v-8h-1.35a10.549,10.549,0,0,0-2,.15v-1.95a10.154,10.154,0,0,0,2,.15h1.38v-7.06Zm11,14.07a27.15,27.15,0,0,0-2.91.09c.06-.78.09-1.65.09-3V196.1a26.5,26.5,0,0,0-.12-3.06,23.086,23.086,0,0,0,2.94.12h8.44a22.605,22.605,0,0,0,2.85-.12,26.059,26.059,0,0,0-.12,3.06v10.59a27.537,27.537,0,0,0,.12,3.12,24.8,24.8,0,0,0-2.91-.12h-1.2v6.89c0,.57.18.63,2.19.63,1.5,0,2-.12,2.13-.51a13.22,13.22,0,0,0,.36-3.66,7.128,7.128,0,0,0,1.8.81c-.39,4.86-.6,5.1-4.53,5.1-3.21,0-3.81-.3-3.81-1.89v-7.32H460.8a10.539,10.539,0,0,1-1.74,5.28c-1.47,2.16-3.51,3.57-6.72,4.68a6.014,6.014,0,0,0-1.32-1.68,11.118,11.118,0,0,0,5.94-3.33,7.668,7.668,0,0,0,2-4.95Zm-1-11.55h10.34v-3.27H457.23Zm0,4.89h10.34v-3.24H457.23Zm0,5.1h10.34v-3.41H457.23Z"/><path class="cls-2" d="M485.52,196.91a12.705,12.705,0,0,0,1.44-4.11l2.4.42a6.372,6.372,0,0,0-.78,1.62,14.053,14.053,0,0,1-.93,2,5.093,5.093,0,0,1,.63,0c4.8-.24,7.8-.6,9.45-1.14l.18,2a9.3,9.3,0,0,0-1.2.15,97.012,97.012,0,0,1-9.9.78,22.157,22.157,0,0,1-2.7,4.26c-.3.36-.9,1-1,1.14a1.759,1.759,0,0,1-.39.3h0a.237.237,0,0,0,.06.09c1.08-.84,1.08-.84,1.38-1.05a8.007,8.007,0,0,1,4.53-1.47,3.641,3.641,0,0,1,3.993,3.249c0,.027,0,.054.007.081,2.19-.87,3.9-1.5,5.22-2a6.6,6.6,0,0,0,2-.87l1,2.1a49.468,49.468,0,0,0-8,2.64c.06.78.06,1.08.06,1.83v3a6.5,6.5,0,0,0,.06,1.08h-2q.2-2.154.18-4.32a7.948,7.948,0,0,0,0-.9c-4.08,1.92-5.64,3.33-5.64,5.13,0,2,1.86,2.85,6.09,2.85a25.147,25.147,0,0,0,8-1.17l.27,2.31q-.609.045-1.21.15a46.35,46.35,0,0,1-7.28.6c-5.37,0-8-1.53-8-4.62,0-1.65,1-3.21,3.06-4.74a23.314,23.314,0,0,1,4.47-2.4c-.24-1.65-1-2.37-2.37-2.37-1.89,0-4.26,1.11-6.69,3.18a9.936,9.936,0,0,0-2.31,2.49l-1.68-1.68a29.865,29.865,0,0,0,6.72-8.58l.27-.45a3.311,3.311,0,0,1-.57.06l-4.41-.09h-.48a5.191,5.191,0,0,0-.66,0v-2.07a42,42,0,0,0,6.42.33Z"/><path class="cls-2" d="M527.99,193.7a21.978,21.978,0,0,0,3.12-.15,19.147,19.147,0,0,0-.15,2.76V215.9a22.532,22.532,0,0,0,.18,3.18h-2.19v-2H513.5v2h-2.19a21.151,21.151,0,0,0,.18-3.06v-19.5a21.181,21.181,0,0,0-.15-3,24.583,24.583,0,0,0,3.21.15Zm1,7v-5.12H513.5v5.16Zm-15.45,7.17h15.41V202.5H513.5Zm0,7.38h15.41v-5.58H513.5Z"/><path class="cls-2" d="M544.03,195.14a18.881,18.881,0,0,0-.21-3.06h2.31a18.145,18.145,0,0,0-.21,3v3H547a15.311,15.311,0,0,0,2.43-.15v2a16.318,16.318,0,0,0-2.46-.15h-1.05v6.12c1.11-.33,1.77-.57,3.54-1.26v1.74c-1.5.63-2,.81-3.57,1.38v9.18c0,1.62-.72,2.07-3.27,2.07a19.587,19.587,0,0,1-2.22-.09,5.191,5.191,0,0,0-.42-2,15.9,15.9,0,0,0,3,.3c.81,0,1-.18,1-.81v-8l-2.1.69a14.365,14.365,0,0,0-1.92.63l-.48-2.1a22.77,22.77,0,0,0,4.5-1.11V199.8h-1.8a16.318,16.318,0,0,0-2.46.15v-2a14.864,14.864,0,0,0,2.43.18h1.83Zm8.61,1.05c4.89-.69,9.15-1.89,10.86-3.06l1.5,1.68a51.074,51.074,0,0,1-12.36,3v2c0,1.17.51,1.29,5.4,1.29,5.79,0,5.85,0,6.12-3.81a6.465,6.465,0,0,0,1.83.81c-.3,2.43-.69,3.45-1.59,4s-2.19.69-6.81.69c-5.82,0-6.81-.39-6.81-2.61v-5.16a16.922,16.922,0,0,0-.18-3h2.22a18.5,18.5,0,0,0-.18,2.88Zm-1.83,11.55a16.632,16.632,0,0,0-.12-2.34,20.064,20.064,0,0,0,2.64.12h8.46a19.726,19.726,0,0,0,2.64-.12,16.182,16.182,0,0,0-.12,2.37v8.46a17.4,17.4,0,0,0,.15,3h-2v-1.65h-9.81v1.68h-2a18.573,18.573,0,0,0,.15-3Zm1.84,2.84h9.81v-3.39h-9.81Zm0,5.37h9.81v-3.77h-9.81Z"/><path class="cls-2" d="M579.12,193.7a47,47,0,0,0-.38,6.33c-.13,3.6-.22,7.68-.22,9,0,.36,0,1.11.06,1.8.12,1.8.51,2.79,1.42,3.6a5.627,5.627,0,0,0,3.75,1.17,8.611,8.611,0,0,0,8-5.22,17.805,17.805,0,0,0,1.47-4.71,8.469,8.469,0,0,0,2.16,1.44c-1.14,3.51-2,5.28-3.33,6.81a10.5,10.5,0,0,1-8.46,3.75c-2.54,0-4.44-.72-5.63-2.1s-1.66-3-1.66-6.15c0-2,0-2.76.27-12.21v-1.95a9.2,9.2,0,0,0-.12-1.59Z"/><path class="cls-2" d="M603.25,211.13a30.788,30.788,0,0,1,6,6.36l-1.68,1.59a29.972,29.972,0,0,0-5.92-6.5Z"/><path class="cls-2" d="M647.22,192.58a20.545,20.545,0,0,0-.15,2.67,38.971,38.971,0,0,0,.66,6.51,24.633,24.633,0,0,0,8.31,13.14,22.043,22.043,0,0,0,3.48,2.34,6.83,6.83,0,0,0-1.56,1.89,27.472,27.472,0,0,1-7.95-7.68,25.866,25.866,0,0,1-3.9-9.54,25.43,25.43,0,0,1-2.07,6.69,20.17,20.17,0,0,1-4.29,6.15,25.537,25.537,0,0,1-5.52,4.38,5.724,5.724,0,0,0-1.62-1.77,21,21,0,0,0,6.12-4.53c4.17-4.47,6.21-10.23,6.21-17.61a20.423,20.423,0,0,0-.12-2.64Z"/><path class="cls-2" d="M667.47,215.87a21.693,21.693,0,0,0,.18,3.36h-2.22a22.464,22.464,0,0,0,.18-3.36V196.49a25.934,25.934,0,0,0-.12-3.3,27.61,27.61,0,0,0,3.15.12h4.29a26.49,26.49,0,0,0,3.06-.12c-.06.84-.09,1.74-.09,2.85v3.72a24.894,24.894,0,0,0,.09,2.79c-.81-.06-1.83-.09-3-.09H667.5Zm0-18.69h6.72v-2.4h-6.72Zm0,3.84h6.72v-2.44h-6.72Zm15.75,11.37a23.758,23.758,0,0,0,.09,2.73c-.84-.06-1.83-.09-3.06-.09h-6.6v2.1h-1.86a18.466,18.466,0,0,0,.15-2.82v-6.66a26.9,26.9,0,0,0-.09-2.82,26.833,26.833,0,0,0,3,.12h5.49a26.833,26.833,0,0,0,3-.12c-.06.84-.09,1.62-.09,2.82Zm-9.57-3.27h7.83v-2.67h-7.83Zm0,4.41h7.83v-2.95h-7.83Zm16.08,2.79c0,2-.63,2.49-3.06,2.49-.63,0-2.25-.06-3-.12a6.892,6.892,0,0,0-.54-1.92,32.57,32.57,0,0,0,3.3.3c1.23,0,1.47-.15,1.47-.87V202.46h-6.15a28.386,28.386,0,0,0-3,.09c.06-.78.09-1.68.09-2.79v-3.72a28.1,28.1,0,0,0-.09-2.85,26.05,26.05,0,0,0,3.06.12h5a27.61,27.61,0,0,0,3.15-.12,28.411,28.411,0,0,0-.15,3.3Zm-9.18-19.14h7.38v-2.4h-7.38Zm0,3.84h7.38v-2.44h-7.38Z"/><path class="cls-2" d="M708.02,209.12c-1.74,4-3.51,5.76-5.67,5.76-2.85,0-5-3.12-5-7.32a12.179,12.179,0,0,1,12.072-12.287q.384,0,.768.017a11.611,11.611,0,0,1,8.25,3,10,10,0,0,1,2.91,7.32,10.921,10.921,0,0,1-6.87,10.35,23.212,23.212,0,0,1-4.56,1.38,4.766,4.766,0,0,0-1-2,18.022,18.022,0,0,0,5-1.41,9.058,9.058,0,0,0,5.31-8.4,7.91,7.91,0,0,0-4.77-7.53,8.622,8.622,0,0,0-3.48-.75A45.02,45.02,0,0,1,708.02,209.12Zm-3.69-10.47a10.367,10.367,0,0,0-4.89,8.94c0,2.88,1.26,5.1,2.88,5.1,1.26,0,2.46-1.41,3.75-4.35a41.217,41.217,0,0,0,2.73-11.1A9.469,9.469,0,0,0,704.33,198.65Z"/><path class="cls-2" d="M736.9,198.68a34.813,34.813,0,0,1,4,2.7,28.456,28.456,0,0,0,5.7-5.52h-8.13a31.824,31.824,0,0,1-8.58,6,5.777,5.777,0,0,0-1.17-1.5,27.188,27.188,0,0,0,8.88-6.09,10.9,10.9,0,0,0,2.1-2.73l2.16.54c-.27.33-.3.33-1,1.14-.36.42-.48.57-1,1.11h5.79a21.862,21.862,0,0,0,2.79-.15l1,1.14a41.143,41.143,0,0,1-2.7,3.21,39.126,39.126,0,0,1-8.46,6.84,42.59,42.59,0,0,1-8.64,3.87,5.515,5.515,0,0,0-1.05-1.77,34.016,34.016,0,0,0,10.77-5,23.365,23.365,0,0,0-3.84-2.7Zm6,8a29.624,29.624,0,0,1-9.81,5.73,5.47,5.47,0,0,0-1.14-1.62,27.881,27.881,0,0,0,9.42-5,14.274,14.274,0,0,0,3.27-3.6l2,.75c-1.29,1.47-1.38,1.56-2,2.22h5.31a22.148,22.148,0,0,0,2.82-.15l1.08,1.17-.87,1.11a27.615,27.615,0,0,1-8.79,7.89c-3.42,2-6.51,3.12-12.18,4.53a6.674,6.674,0,0,0-1.08-1.89,34.816,34.816,0,0,0,12.75-4.47,19.02,19.02,0,0,0-4-2.85l1.53-1.11a36.751,36.751,0,0,1,4.11,2.91,25.847,25.847,0,0,0,5.76-5.58Z"/><path class="cls-2" d="M5.65,252.2a17.887,17.887,0,0,0-.15-3.12H7.65a19.7,19.7,0,0,0-.15,3.09v2.94H8.65a10.867,10.867,0,0,0,1.89-.12v1.83a17.546,17.546,0,0,0-1.89-.09H7.57a16.593,16.593,0,0,0,2.79,4.85,13.755,13.755,0,0,0-1.05,1.62A20.574,20.574,0,0,1,7.36,259c.09,2.52.12,3.84.12,4.89v9.09a24.379,24.379,0,0,0,.18,3.48H5.5a25.615,25.615,0,0,0,.18-3.48v-8.4c0-1.2,0-1.2.09-2.64,0-.18.06-.72.09-1.47a8.786,8.786,0,0,1,.06-1.11,24.1,24.1,0,0,1-3.9,9.18,7.387,7.387,0,0,0-1.14-1.86,17.53,17.53,0,0,0,2.82-4.74,30.168,30.168,0,0,0,1.68-5.16H3.82a12.94,12.94,0,0,0-2.1.12v-1.86a12.292,12.292,0,0,0,2.1.12H5.65Zm7.83,2.73a15.189,15.189,0,0,0-2.61.15v-1.89a15.538,15.538,0,0,0,2.64.15H15.1a14.515,14.515,0,0,0-1.95-3.3l1.59-.69a19.337,19.337,0,0,1,2.16,4h3.48a19.008,19.008,0,0,0,2-4l1.77.63c-.48,1-1.47,2.7-1.92,3.42h2.64a17.812,17.812,0,0,0,2.73-.18v1.95a17.563,17.563,0,0,0-2.73-.18H19.48v2.58h4.53a16.2,16.2,0,0,0,2.73-.18v2a16.928,16.928,0,0,0-2.7-.15H19.48v2.7h5.88a17.812,17.812,0,0,0,2.73-.18v1.95a17.933,17.933,0,0,0-2.7-.18H19.65a16.467,16.467,0,0,0,2.46,4.5,16.157,16.157,0,0,0,3.27-3.87l1.53,1.08a23.909,23.909,0,0,1-3.75,4.08,16.877,16.877,0,0,0,5.7,4.2,7.865,7.865,0,0,0-1.21,1.66,21.234,21.234,0,0,1-4.41-3.45,18.935,18.935,0,0,1-4-6.12,25.1,25.1,0,0,1,.24,3v5.64c0,1.62-.57,2-2.82,2a22.958,22.958,0,0,1-2.46-.12,4.777,4.777,0,0,0-.54-1.89,18.85,18.85,0,0,0,3,.27c.87,0,1.05-.12,1.05-.66v-4.23a40.891,40.891,0,0,1-6.36,3.87,11.457,11.457,0,0,0-1.35.81l-.87-2a31.411,31.411,0,0,0,8.52-4.53v-4.32H13a15.043,15.043,0,0,0-2.58.15v-1.86a20.318,20.318,0,0,0,2.61.12h4.62v-2.7h-3.3a14.991,14.991,0,0,0-2.61.15v-2a14.5,14.5,0,0,0,2.55.15h3.36v-2.58Zm-1.11,9.21a27.582,27.582,0,0,1,2.85,3.63l-1.38,1a18.526,18.526,0,0,0-2.82-3.69Z"/><path class="cls-2" d="M43.9,250.1a9.4,9.4,0,0,0-.48,1.92c-.21,1-.39,1.74-.81,3.27a25.017,25.017,0,0,0,5.37-1l.09,2.07-1,.18a36.213,36.213,0,0,1-4.92.63,55.955,55.955,0,0,1-3.33,8.76c-.72,1.44-1,1.95-2.13,3.93-.27.42-.45.78-.6,1l-2-1.2a26.448,26.448,0,0,0,2.88-4.68,44.968,44.968,0,0,0,3.12-7.74c-.75,0-1.77.06-2.22.06H34.75v-2.07a18.967,18.967,0,0,0,3.57.24h2.16a30.92,30.92,0,0,0,1-5.64Zm14.25,23.28a17.266,17.266,0,0,0-5.25-4.08,6.2,6.2,0,0,1,.06,1c0,3.09-2,4.8-5.7,4.8s-5.85-1.68-5.85-4.35a4.25,4.25,0,0,1,2.79-3.81,8.783,8.783,0,0,1,3.54-.66,9.909,9.909,0,0,1,3,.45c-.15-2-.21-3.36-.21-4.11a12.121,12.121,0,0,1,.3-2.91l2,.21a9.219,9.219,0,0,0-.39,2.79,37.8,37.8,0,0,0,.32,4.56,21.625,21.625,0,0,1,5.89,3.63,3.447,3.447,0,0,0,.53.48Zm-10.56-5.37c-2.55,0-4.17,1.05-4.17,2.7s1.44,2.46,3.81,2.46c2.58,0,3.75-1,3.75-3.27,0-.36-.07-1.29-.07-1.29A8.826,8.826,0,0,0,47.59,268.01Zm10.53-8.16a32.438,32.438,0,0,0-8-4.08l1.12-1.68a41.7,41.7,0,0,1,7.92,4Z"/><path class="cls-2" d="M64.32,262.79a23.7,23.7,0,0,0,1.26-8l1.65.45a30.122,30.122,0,0,1-1.29,8.25Zm3.9,13.56a23.968,23.968,0,0,0,.21-3.45V252.11a19.555,19.555,0,0,0-.21-3h2.31a18.712,18.712,0,0,0-.21,3v20.82a23.555,23.555,0,0,0,.21,3.42Zm3.9-17.94a17.19,17.19,0,0,0-1.38-4.08l1.35-.57a31.864,31.864,0,0,1,1.5,4Zm4.17-5.46a17.261,17.261,0,0,0-2.82.15v-1.86a14.017,14.017,0,0,0,2.85.18h4.47a10.092,10.092,0,0,0-.18-2.34h2.13a9.984,9.984,0,0,0-.18,2.34h5.55a14.612,14.612,0,0,0,2.94-.18v1.86a18.876,18.876,0,0,0-2.91-.15H82.56v2h4.68A16.976,16.976,0,0,0,90,254.8v1.78a18.077,18.077,0,0,0-2.79-.15H82.56v2.22h6.09a18.58,18.58,0,0,0,3-.18v1.92a23.141,23.141,0,0,0-3-.18H75.87a19.574,19.574,0,0,0-3.06.18v-1.92a18.865,18.865,0,0,0,3.06.18h4.92v-2.22h-3.6a18.059,18.059,0,0,0-2.73.15v-1.77a17.2,17.2,0,0,0,2.76.15h3.57v-2Zm.21,20.1a20.65,20.65,0,0,0,.18,3.24H74.52a21.394,21.394,0,0,0,.15-3.24v-8.47a20.306,20.306,0,0,0-.09-2.61,24.064,24.064,0,0,0,2.79.12h9.21a14.814,14.814,0,0,0,2.76-.15,27.308,27.308,0,0,0-.12,3.21v8.52c0,1.86-.57,2.34-2.82,2.34-.81,0-1.77-.06-3.06-.15a6.245,6.245,0,0,0-.48-1.89,20.711,20.711,0,0,0,3.36.36c1,0,1.17-.12,1.17-.81v-2.34H76.5Zm10.89-7.14v-2.28H76.5v2.28Zm0,3.75v-2.25H76.5v2.25Z"/><path class="cls-2" d="M107.48,257.3a12.289,12.289,0,0,0,2.37-.15v1.95a16.609,16.609,0,0,0-2.37-.12H99.02a17.493,17.493,0,0,0-2.4.12v-1.95a13.027,13.027,0,0,0,2.4.15h3.57v-3.06H99.77a15.96,15.96,0,0,0-2.25.12v-1.89a14.345,14.345,0,0,0,2.25.12h2.82v-.9a16.627,16.627,0,0,0-.18-2.58h2.13a17.957,17.957,0,0,0-.18,2.58v.9h2.4a14.206,14.206,0,0,0,2.22-.12v1.89a15.539,15.539,0,0,0-2.22-.12h-2.4v3.06Zm0,6.72a11.542,11.542,0,0,0,2.37-.15v2a16.757,16.757,0,0,0-2.37-.12h-3.12v3h2.76a14.711,14.711,0,0,0,2.22-.12v1.95a15.836,15.836,0,0,0-2.22-.12h-2.76v3.06a22.256,22.256,0,0,0,.18,2.85h-2.16a18.248,18.248,0,0,0,.21-2.85v-3.06H99.53a15.96,15.96,0,0,0-2.25.12v-2a14.846,14.846,0,0,0,2.25.12h3.06v-3H99.02a18.15,18.15,0,0,0-2.4.12v-2a12.682,12.682,0,0,0,2.4.15h5.52a17.972,17.972,0,0,0,1.62-4.71l1.65.48a25.536,25.536,0,0,1-1.59,4.23Zm-7.29-.33a21.147,21.147,0,0,0-1.14-3.93l1.5-.48a24.138,24.138,0,0,1,1.2,3.87Zm12.24-2.19v11.82a19.555,19.555,0,0,0,.21,3h-2.19a19.306,19.306,0,0,0,.21-3V253.16a26.05,26.05,0,0,0-.15-2.82,18.991,18.991,0,0,0,2.82.15h6.93a16.327,16.327,0,0,0,2.52-.12c-.06.51-.06.51-.21,2.13a12.011,12.011,0,0,1-.9,4.26c-.45.66-1.08.87-2.61.87a22.406,22.406,0,0,1-2.94-.21,8.733,8.733,0,0,0-.39-1.8,18.622,18.622,0,0,0,3.45.42c1.14,0,1.29-.39,1.56-3.84h-8.31v7.65h6.51a14.16,14.16,0,0,0,2.4-.12l1.08,1.11a8.214,8.214,0,0,0-.36,1.23,30.213,30.213,0,0,1-3,8,19.924,19.924,0,0,0,5,4.35,6.556,6.556,0,0,0-1.23,1.68,24.909,24.909,0,0,1-4.8-4.44,21.89,21.89,0,0,1-4,4.41,7.824,7.824,0,0,0-1.35-1.5,18.421,18.421,0,0,0,4.17-4.38c-1.56-2.19-2.52-4.56-3.54-8.64Zm2.61,0c1,3.81,1.47,5,2.85,7a25.865,25.865,0,0,0,2.43-7Z"/><path class="cls-2" d="M137.59,253.52a20.839,20.839,0,0,0,2.37-.09c-.12.78-.15.9-.27,2.28a32.765,32.765,0,0,1-3.44,11.87c2.51,4.29,6,5.7,14.06,5.7,1.8,0,3.48-.09,5.64-.27a5.685,5.685,0,0,0-.69,2.16c-1.2.06-3.93.15-5.22.15a30.634,30.634,0,0,1-8.88-1.23,10.818,10.818,0,0,1-5.82-5,30.339,30.339,0,0,1-6.33,7.14,6.614,6.614,0,0,0-1.31-1.68,23.615,23.615,0,0,0,6.63-7.26,43.038,43.038,0,0,1-2.41-7.11,21.969,21.969,0,0,1-2.72,4.95,4.6,4.6,0,0,0-1.36-1.47,24.89,24.89,0,0,0,4.06-8.43,28.348,28.348,0,0,0,1-5.76,2.117,2.117,0,0,0,0-.39l2.11.15a13.562,13.562,0,0,0-.4,1.77c-.09.69-.24,1.35-.48,2.52Zm-3.9,1.62q-.294,1.232-.71,2.43a40.651,40.651,0,0,0,2.27,8,29.383,29.383,0,0,0,2.58-10.38Zm10.96-2.43a60.267,60.267,0,0,1-.6,9.9,14.5,14.5,0,0,1-3.26,7.65,7.417,7.417,0,0,0-1.63-1.41,10.748,10.748,0,0,0,3-6.09,50.948,50.948,0,0,0,.63-9.24,18.962,18.962,0,0,0-.12-2.61,9.5,9.5,0,0,0,2,.12h3.27a19.278,19.278,0,0,0,2.76-.12,18.776,18.776,0,0,0-.12,2.64v13.62c0,.57.18.66,1.17.66s1.26-.18,1.44-1.35a32.254,32.254,0,0,0,.3-4.5,7.018,7.018,0,0,0,1.83.66c-.48,6.57-.69,6.93-3.75,6.93-2.31,0-2.88-.33-2.88-1.71V252.71Z"/><path class="cls-2" d="M162.04,252.58a12.878,12.878,0,0,0-2.37.15v-2a11.569,11.569,0,0,0,2.52.18h4.56a11.089,11.089,0,0,0,2.46-.18v2a17.832,17.832,0,0,0-2.31-.12h-1.47v7h1.22a10.154,10.154,0,0,0,2-.15v1.89a14.532,14.532,0,0,0-2-.12h-1.2v7.62c1.47-.63,2-.87,3.51-1.65l.12,1.89a81.992,81.992,0,0,1-7.8,3.39,11.833,11.833,0,0,0-1.2.51l-.6-2.1a30.094,30.094,0,0,0,4.17-1.31v-8.37h-1.59a10,10,0,0,0-2,.15v-1.92a9.787,9.787,0,0,0,2,.15h1.59v-7Zm11.73,11.43a35.528,35.528,0,0,0-3.72.12,8.118,8.118,0,0,0,.06-1.08c0-.78,0-.78.06-2.37v-6.39a36.712,36.712,0,0,0-.15-3.81,29.077,29.077,0,0,0,3.87.15h7.89a27.361,27.361,0,0,0,3.84-.15c-.09.84-.12,2-.12,3.78v6a36.725,36.725,0,0,0,.12,3.84c-1.08-.09-1.89-.12-3.6-.12h-3.37v3.45h4.44a18.289,18.289,0,0,0,2.94-.15v2a19.265,19.265,0,0,0-2.94-.15h-4.44v4.41h5.58a18.522,18.522,0,0,0,2.94-.15v2a19.794,19.794,0,0,0-3-.15H170.71a19.289,19.289,0,0,0-3,.15v-2a17.078,17.078,0,0,0,2.85.15h6.24v-4.41h-4a17.553,17.553,0,0,0-2.88.15v-2a16.808,16.808,0,0,0,2.88.15h4v-3.45Zm-1.8-11.73v4.26h4.86v-4.26Zm0,5.85v4.23h4.86v-4.28Zm6.63-1.59h5.05v-4.26h-5Zm0,5.82h5.05v-4.28h-5Z"/><path class="cls-2" d="M198.03,251.06a42.5,42.5,0,0,0-1.26,4.8,44.326,44.326,0,0,0-.9,9.39c0,2.34.06,4.11.18,5.7A27.92,27.92,0,0,1,198,265.1l1.44.69c-1.35,3-2.43,6.57-2.43,8.25v.45l-2.16.18c-.06-.48-.09-.63-.18-1.2a42.96,42.96,0,0,1-.78-8.49,49.654,49.654,0,0,1,1.35-11.88,16.693,16.693,0,0,0,.42-2.4Zm7.62,12.06c-1.5,1.65-2.25,3.09-2.25,4.41,0,2.22,1.89,3.3,5.76,3.3a19.734,19.734,0,0,0,6.9-1l.3,2.31a6.172,6.172,0,0,0-1.05.15,31.048,31.048,0,0,1-6.15.6c-3.42,0-5.58-.72-6.87-2.28a4.244,4.244,0,0,1-.9-2.76c0-1.83.75-3.45,2.61-5.58Zm-3.81-8.88a20.368,20.368,0,0,0,5.1.45,32.224,32.224,0,0,0,8-.81l.15,2.13-2.07.27a50.762,50.762,0,0,1-6.45.39,40.114,40.114,0,0,1-4.8-.3Z"/><path class="cls-2" d="M226.28,272.87a21.085,21.085,0,0,0,.18,3.36h-2.22a22.464,22.464,0,0,0,.18-3.36V253.22a25.934,25.934,0,0,0-.12-3.3,27.546,27.546,0,0,0,3.12.12h4.5a26.5,26.5,0,0,0,3.06-.12c-.06.84-.09,1.74-.09,2.85v3.27a24.323,24.323,0,0,0,.09,2.76c-.84-.06-1.77-.09-3-.09h-5.67Zm0-19.23h6.9v-2.19h-6.9Zm0,3.66h6.9v-2.28h-6.9Zm11.19,10.86a11.3,11.3,0,0,0,6.66,4.2,7.008,7.008,0,0,0-.9,1.68,18.1,18.1,0,0,0,2.61.21c.81,0,1.05-.18,1.05-.87V258.71h-6.24a29.626,29.626,0,0,0-3.06.09c.06-.78.09-1.68.09-2.76v-3.27a28.1,28.1,0,0,0-.09-2.85,26.5,26.5,0,0,0,3.06.12h5.07a27.61,27.61,0,0,0,3.15-.12,28.411,28.411,0,0,0-.15,3.3v20.25c0,2-.51,2.49-2.91,2.49-.84,0-1.83-.06-2.82-.12a5.656,5.656,0,0,0-.45-1.89,5.628,5.628,0,0,0,.66.09,13.157,13.157,0,0,1-6.9-5c-1.14,2.88-3,4.41-7.32,6a4.49,4.49,0,0,0-1.11-1.56,12.672,12.672,0,0,0,5.31-2.55,6,6,0,0,0,1.68-2.73h-3.78a17.3,17.3,0,0,0-2.73.15v-1.77a15.285,15.285,0,0,0,2.67.15h4.2a18.931,18.931,0,0,0,.18-2.67h-3.75a19.389,19.389,0,0,0-2.55.12v-1.71a14.025,14.025,0,0,0,2.55.11h1.53a15.09,15.09,0,0,0-1.83-2.52l1.53-.63a22.885,22.885,0,0,1,2.1,3.15h3.06a15.37,15.37,0,0,0,1.8-3.18l1.68.51a23.7,23.7,0,0,1-1.68,2.67h1.71a14.5,14.5,0,0,0,2.55-.15v1.71a19.389,19.389,0,0,0-2.55-.12H237.2a18.1,18.1,0,0,1-.24,2.67h5.1a15.787,15.787,0,0,0,2.67-.15v1.77a16.249,16.249,0,0,0-2.7-.15Zm2-14.52h7.44v-2.19h-7.46Zm0,3.66h7.44v-2.28h-7.46Z"/><path class="cls-2" d="M269.65,251.75a10.134,10.134,0,0,0-.12-1.74h2.25a23.494,23.494,0,0,0-.15,3.75v.33c5.67,0,8-.09,9-.21v2.13a53.187,53.187,0,0,0-5.73-.15c-.45,0-.78,0-3.22.06v5.94a8.446,8.446,0,0,1,.73,3.54,9.658,9.658,0,0,1-4,7.83,19.059,19.059,0,0,1-4.74,2.43,6.594,6.594,0,0,0-1.32-1.89,15.392,15.392,0,0,0,4.86-2.25,7.772,7.772,0,0,0,3.36-6.33,4.206,4.206,0,0,1-.81,1.47,4.936,4.936,0,1,1-3.71-8.13c.107,0,.214,0,.32.01a4.608,4.608,0,0,1,3.48,1.35V255.9c-6,.12-12.09.42-14.1.75l-.09-2.19h1.2c.87,0,.87,0,5.7-.18,2.88-.12,5.22-.18,7.26-.24Zm-1.29,9a3.838,3.838,0,0,0-2-.48,3.169,3.169,0,0,0-3.326,3.006c0,.048,0,.1,0,.144a2.9,2.9,0,0,0,2.792,3,2.694,2.694,0,0,0,.3,0,3.36,3.36,0,0,0,3.531-3.18,3.326,3.326,0,0,0,0-.36,2.171,2.171,0,0,0-1.28-2.1Z"/><path class="cls-2" d="M291.88,251.75a13.867,13.867,0,0,0,2.82.18c2.49,0,6.48-.18,9.18-.39a3.062,3.062,0,0,0,1.44-.33l1.26,1.65a5.532,5.532,0,0,0-1.53,1.26,76.993,76.993,0,0,1-9.87,8.52l.06.09a15.2,15.2,0,0,1,7.35-1.86c5,0,8.22,2.46,8.22,6.3,0,4.68-4.35,7.77-11,7.77-4.23,0-6.66-1.56-6.66-4.32,0-2,1.86-3.51,4.35-3.51a6,6,0,0,1,5,2.46,8.586,8.586,0,0,1,1.38,2.88c3.15-.87,4.8-2.7,4.8-5.25,0-2.88-2.4-4.59-6.45-4.59a19.25,19.25,0,0,0-12.63,5.13l-1.35-1.92a33.311,33.311,0,0,0,4.2-3.06c3.21-2.55,7.95-6.72,10-8.76l.42-.42.12-.12.12-.12-.06-.06h-.27c-1,.18-4.56.39-9.12.54a14.666,14.666,0,0,0-1.62.15Zm5.64,17.07c-1.5,0-2.43.72-2.43,1.86a2,2,0,0,0,1.2,1.83,7.661,7.661,0,0,0,3.36.69,10.809,10.809,0,0,0,2.19-.21c-.66-2.73-2.19-4.17-4.32-4.17Z"/><path class="cls-2" d="M317.85,254.06a12.439,12.439,0,0,0,2.4.15h5.19a11.906,11.906,0,0,0,2.4-.15v1.92c-.72-.06-1.23-.09-2.16-.09h-5.43a18.506,18.506,0,0,0-2.4.12Zm1.08-4.14a10.853,10.853,0,0,0,2.16.15h4a10.853,10.853,0,0,0,2.16-.15v1.89a14.713,14.713,0,0,0-2.16-.12h-4a15,15,0,0,0-2.16.12Zm.09,8.34a11.945,11.945,0,0,0,2,.12h4.11a11.536,11.536,0,0,0,2-.12v1.83a12.865,12.865,0,0,0-2-.12h-4.11a11.737,11.737,0,0,0-2,.12Zm0,4.14a11.945,11.945,0,0,0,2,.12h4.11a11.342,11.342,0,0,0,2-.12v1.83a12.385,12.385,0,0,0-2-.12h-4.11a12.617,12.617,0,0,0-2,.12Zm.09,13.5a28.007,28.007,0,0,0,.15-2.91v-4a19.819,19.819,0,0,0-.12-2.46,17.932,17.932,0,0,0,2.43.12h3.48a18.2,18.2,0,0,0,2.19-.09,21.311,21.311,0,0,0-.09,2.37v4.11a14.881,14.881,0,0,0,.15,2.46h-1.86v-1.2h-4.47v1.59Zm1.86-3.15h4.47v-4.53h-4.47Zm9.54-12.87a20.708,20.708,0,0,0-2.49.12v-1.95a14.461,14.461,0,0,0,2.58.15h3.51v-3.9h-2.4a17.034,17.034,0,0,0-2.28.12v-1.84a15.382,15.382,0,0,0,2.25.12h2.43v-1.38a12.52,12.52,0,0,0-.18-2.43h2.13a10.212,10.212,0,0,0-.18,2.43v1.38h1.77a12.713,12.713,0,0,0,2.1-.12v1.86a13.647,13.647,0,0,0-2-.12h-1.89v3.9h1.26a32.9,32.9,0,0,0,3.12-3.72l.33-.42a18.969,18.969,0,0,0,2.34-4.2l1.89,1.08a17.3,17.3,0,0,0-1.35,2,47.466,47.466,0,0,1-4.17,5.28h3.27a13.948,13.948,0,0,0,2.55-.15v2a15.043,15.043,0,0,0-2.58-.15h-4.87a36.908,36.908,0,0,1-3.84,3.21h6.51a22.815,22.815,0,0,0,2.79-.12,20.126,20.126,0,0,0-.12,2.43v7.95a22.454,22.454,0,0,0,.18,3h-2v-1.59h-8.52v1.59h-1.9a21.5,21.5,0,0,0,.18-3v-8.34a33.345,33.345,0,0,1-3.06,2,6.5,6.5,0,0,0-1.11-1.44,34.5,34.5,0,0,0,8.64-5.7Zm2.19,8.13h8.52v-3.36H332.7Zm0,5.13h8.52v-3.56H332.7Z"/><path class="cls-2" d="M352.94,272.81a21.085,21.085,0,0,0,.18,3.36h-2.21a24.654,24.654,0,0,0,.17-3.36V253.34a30.3,30.3,0,0,0-.12-3.3,27.546,27.546,0,0,0,3.12.12h4.29a26.5,26.5,0,0,0,3.06-.12c-.06.9-.09,1.68-.09,2.85v4a24.05,24.05,0,0,0,.09,2.76c-.66-.06-1.8-.09-3-.09h-5.47Zm0-18.72h6.71v-2.46h-6.69Zm0,4h6.71v-2.51h-6.69Zm15.42,10.86a15.466,15.466,0,0,0,.09,1.8,17.546,17.546,0,0,0-1.89-.09h-7.2v2.37h-1.95a18.459,18.459,0,0,0,.16-2.79v-6a18.363,18.363,0,0,0-.1-1.89c.61.06,1.27.09,2.07.09h6.72a21.637,21.637,0,0,0,2.19-.09,16.95,16.95,0,0,0-.09,1.83Zm-9,.12h7.23v-5h-7.23Zm15.78,4.2c0,2-.57,2.49-2.64,2.49-1.17,0-2.25,0-3.57-.12a5.689,5.689,0,0,0-.54-1.92,33.955,33.955,0,0,0,3.81.3c.87,0,1.08-.18,1.08-.87V259.58h-6a28.432,28.432,0,0,0-3.06.09c.06-.87.09-1.65.09-2.76v-4c0-1,0-1.95-.09-2.85a26.5,26.5,0,0,0,3.06.12h4.86a28.077,28.077,0,0,0,3.15-.12,27.975,27.975,0,0,0-.15,3.3Zm-9.09-19.17h7.23v-2.46h-7.23Zm0,4h7.23v-2.52h-7.23Z"/><path class="cls-2" d="M387.65,263.42h-3.51a17.413,17.413,0,0,0-2.94.15v-2a18.3,18.3,0,0,0,2.94.18h7.62a16.828,16.828,0,0,0,2.7-.18v2a19.711,19.711,0,0,0-2.79-.15h-2.28v3.27h1.83a14.621,14.621,0,0,0,2.43-.11v1.89a13.187,13.187,0,0,0-2.43-.18h-1.8v4.5a12.363,12.363,0,0,0,4.68.9c1.5.12,4.26.21,6.21.21a70.915,70.915,0,0,0,8.91-.45,6.457,6.457,0,0,0-.66,2.07c-1.65.12-4.68.18-7.23.18-6.51,0-10.05-.33-12.18-1.17a10.1,10.1,0,0,1-4.71-3.78,15.387,15.387,0,0,1-2.37,5.22,4.992,4.992,0,0,0-1.56-1.17,13.178,13.178,0,0,0,2.34-4.56,22.238,22.238,0,0,0,.6-4.44,3.551,3.551,0,0,0-.06-.81l1.92.24c-.06.48-.09.63-.12,1a25.445,25.445,0,0,1-.33,2.58,10.907,10.907,0,0,0,2.82,3Zm-4.53-10.56a22.541,22.541,0,0,0-.12-2.7,21.3,21.3,0,0,0,2.79.12h4.53a21.3,21.3,0,0,0,2.79-.12,21.46,21.46,0,0,0-.12,2.73v4.53a20.309,20.309,0,0,0,.12,2.61,23.208,23.208,0,0,0-2.79-.12h-4.53a23.208,23.208,0,0,0-2.79.12,20.888,20.888,0,0,0,.12-2.67Zm1.71,1.44h6.45v-2.52h-6.45Zm0,4.17h6.45V255.8h-6.45Zm14.76,11.11a17.446,17.446,0,0,1-5.31,3.81,5.367,5.367,0,0,0-1.38-1.35,12.3,12.3,0,0,0,5.22-3.42Zm-2.25-17.52a23.866,23.866,0,0,0-3,.15v-1.93a21.439,21.439,0,0,0,3.06.18h8a17.927,17.927,0,0,0,2.91-.18v1.89a26.569,26.569,0,0,0-2.82-.15h-3.44a18.791,18.791,0,0,1-1,2.76h3.21a20.738,20.738,0,0,0,2.64-.09,21.547,21.547,0,0,0-.12,2.7v7.89a24.293,24.293,0,0,0,.12,2.88c-.87-.06-1.5-.09-2.55-.09h-6.18a22.124,22.124,0,0,0-2.67.09,20.175,20.175,0,0,0,.12-2.67v-8.13a23.346,23.346,0,0,0-.12-2.67c.72.06,1.29.09,2.64.09h1.2a22.233,22.233,0,0,0,.9-2.76Zm0,6.63h7.77v-2.41h-7.77Zm0,3.93h7.77v-2.46h-7.77Zm0,4h7.77V264.1h-7.77Zm6.24,2.07a17.954,17.954,0,0,0,5.19,3.15,6.21,6.21,0,0,0-1.14,1.47,20.977,20.977,0,0,1-5.4-3.66Z"/><path class="cls-2" d="M419.53,251.06a42.5,42.5,0,0,0-1.26,4.8,44.326,44.326,0,0,0-.9,9.39c0,2.34.06,4.11.18,5.7a27.872,27.872,0,0,1,2-5.85l1.44.69c-1.35,3-2.43,6.57-2.43,8.25v.45l-2.16.18c-.06-.48-.09-.63-.18-1.2a42.96,42.96,0,0,1-.78-8.49,49.654,49.654,0,0,1,1.35-11.88,16.693,16.693,0,0,0,.42-2.4Zm7.65,12.06c-1.5,1.65-2.25,3.09-2.25,4.41,0,2.22,1.89,3.3,5.76,3.3a19.734,19.734,0,0,0,6.9-1l.3,2.31a6.172,6.172,0,0,0-1.05.15,31.048,31.048,0,0,1-6.15.6c-3.42,0-5.58-.72-6.87-2.28a4.244,4.244,0,0,1-.9-2.76c0-1.83.75-3.45,2.61-5.58Zm-3.81-8.88a20.368,20.368,0,0,0,5.1.45,32.224,32.224,0,0,0,8-.81l.15,2.13-2.07.27a50.762,50.762,0,0,1-6.45.39,40.114,40.114,0,0,1-4.8-.3Z"/><path class="cls-2" d="M445.59,256.82c.9-.06.9-.06,6.24-1.26a40.113,40.113,0,0,1,8.7-1.11c5.49,0,9,2.91,9,7.5,0,3.75-2.22,6.9-6.24,8.85-2.76,1.32-5.28,1.89-9.93,2.28a5.279,5.279,0,0,0-.93-2.22,26.846,26.846,0,0,0,8.34-1.38c4.11-1.5,6.42-4.2,6.42-7.56s-2.49-5.4-6.57-5.4a47.672,47.672,0,0,0-12.24,2.13,13.16,13.16,0,0,0-2.16.72Z"/><path class="cls-2" d="M481.23,252.86a21.746,21.746,0,0,0-.21,3.57,51.374,51.374,0,0,0,.78,9.33c.66,3.06,1.89,5.13,3,5.13.54,0,1.05-.51,1.5-1.5a21.6,21.6,0,0,0,1.56-5.13,9.588,9.588,0,0,0,1.77,1.71c-1.47,5.25-2.85,7.26-5,7.26-1.68,0-3.24-1.68-4.26-4.56s-1.47-6.69-1.62-14.07a16.354,16.354,0,0,0-.09-1.77Zm14.49,1.59a25.988,25.988,0,0,1,4.28,6.84,28.068,28.068,0,0,1,2.25,8l-2.12.87a26.57,26.57,0,0,0-6.24-14.79Z"/><path class="cls-2" d="M509.21,254.3h1.08a14.725,14.725,0,0,0,1.71-.09c3.57-.27,13.17-.81,17-1a20.17,20.17,0,0,0,3.57-.33l.18,2.25a13.927,13.927,0,0,0-3.36.39,15.222,15.222,0,0,0-5.76,3,9.17,9.17,0,0,0-3.69,6.93c0,2.52,1.53,4.53,4.2,5.55a15.381,15.381,0,0,0,4.5,1h.3l-.39,2.43-.93-.18a15.131,15.131,0,0,1-6.48-2.31,7.3,7.3,0,0,1-3.33-6.12c0-3.48,2-6.81,5.61-9.21a19.664,19.664,0,0,1,2.85-1.59,58.187,58.187,0,0,1-6.6.66,87.991,87.991,0,0,0-10.35,1Z"/><path class="cls-2" d="M539.96,268.13a30.583,30.583,0,0,1,6,6.36l-1.68,1.59a29.952,29.952,0,0,0-5.91-6.54Z"/><path class="cls-2" d="M575.09,257.3a28.409,28.409,0,0,1-4.11,6.42,5.891,5.891,0,0,0-1.71-1.26,24.559,24.559,0,0,0,5.37-9.21,8.987,8.987,0,0,0,.66-2.82l2.25.6a12.182,12.182,0,0,0-.6,1.59c-.09.27-.45,1.26-1.08,2.91h6.3v-3.18a21.678,21.678,0,0,0-.21-3.18h2.43a20.14,20.14,0,0,0-.21,3.18v3.23h7.38a28.32,28.32,0,0,0,3.42-.18v2.13a29.319,29.319,0,0,0-3.39-.18h-7.41v6.45h6.06a21.008,21.008,0,0,0,3.21-.18v2.1a22.657,22.657,0,0,0-3.21-.18h-6.06v7.86h8.37a23.025,23.025,0,0,0,3.54-.21v2.19a24.242,24.242,0,0,0-3.51-.21H573.29a24.354,24.354,0,0,0-3.54.21v-2.19a23.143,23.143,0,0,0,3.51.21h8.91v-7.86h-5.52a22.237,22.237,0,0,0-3.18.18v-2.14a20.872,20.872,0,0,0,3.18.18h5.49v-6.45Z"/><path class="cls-2" d="M604.39,263.12c0-1.35,0-2.19.09-3.66a22.366,22.366,0,0,1-3.09,4.38,7.1,7.1,0,0,0-1.2-1.71,28.649,28.649,0,0,0,5.82-9.15,18.109,18.109,0,0,0,1.14-3.93l2.1.63c-.27.63-.42,1-.81,2.07a43.077,43.077,0,0,1-2.16,5v16a29.386,29.386,0,0,0,.15,3.51h-2.22a29.646,29.646,0,0,0,.18-3.6Zm9.84,7.17a13.535,13.535,0,0,0-2.43.15v-2a13.5,13.5,0,0,0,2.46.15h2.49v-6.3c0-1.38,0-2.4.06-3.69a29.714,29.714,0,0,1-8.67,11.85,5.326,5.326,0,0,0-1.44-1.59,25.213,25.213,0,0,0,6.24-6.36,24.652,24.652,0,0,0,3-5.25h-4.71a22.454,22.454,0,0,0-3,.18v-2.1a20.334,20.334,0,0,0,3,.18h5.46v-3.3a23.709,23.709,0,0,0-.21-2.94h2.25a15.661,15.661,0,0,0-.24,2.94v3.37h6.39a22.009,22.009,0,0,0,3.09-.18v2.1a22.684,22.684,0,0,0-3.06-.18h-5.67a34.127,34.127,0,0,0,4.23,6.6,25.027,25.027,0,0,0,5.43,5,6.879,6.879,0,0,0-1.47,1.68,31.636,31.636,0,0,1-9-12c.06,1.74.09,2.55.09,3.75v6.23h2.73a13.535,13.535,0,0,0,2.43-.15v2a13.721,13.721,0,0,0-2.43-.15h-2.7v2.94a25.736,25.736,0,0,0,.18,3.09h-2.19a25.755,25.755,0,0,0,.21-3.09v-2.94Z"/><path class="cls-2" d="M638.13,254.3a28.806,28.806,0,0,0-3.45.18V252.2a26.277,26.277,0,0,0,3.48.18h16a26.621,26.621,0,0,0,3.48-.18v2.28a28.806,28.806,0,0,0-3.45-.18h-7.23v17.13h9.06a22.394,22.394,0,0,0,3.51-.21v2.36a22.394,22.394,0,0,0-3.51-.21H636.27a23.273,23.273,0,0,0-3.51.21v-2.34a22.66,22.66,0,0,0,3.55.21h8.45V254.3Z"/><path class="cls-2" d="M678.75,273.83c0,1.86-.57,2.22-3.36,2.22-.84,0-2.4-.06-3.45-.18a9,9,0,0,0-.63-1.92,31.153,31.153,0,0,0,3.93.33c1.38,0,1.59-.09,1.59-.72v-6h-9a23.035,23.035,0,0,0-3.15.18v-2.07a22.293,22.293,0,0,0,3.12.18h9v-.51a11.863,11.863,0,0,0-.09-1.77h1.26a25.193,25.193,0,0,0,5.37-3.39h-11a26.605,26.605,0,0,0-2.85.15v-2a27.2,27.2,0,0,0,2.91.15h10.83a13.08,13.08,0,0,0,2.22-.12l1.2,1.22a9.515,9.515,0,0,0-1,.87,34.115,34.115,0,0,1-6.84,4.44v.93h8.84a22.111,22.111,0,0,0,3.15-.18v2.07a22.7,22.7,0,0,0-3.15-.13h-8.9ZM670.65,254a20.071,20.071,0,0,0-2.82-3.9l1.82-.52a28.565,28.565,0,0,1,3.06,4.44h4.38a17.744,17.744,0,0,0-2.19-4.32l1.86-.51a25.651,25.651,0,0,1,2.28,4.83h3.3a17.888,17.888,0,0,0,3.09-4.83l1.89.81a28.031,28.031,0,0,1-2.88,4h2.34a34.245,34.245,0,0,0,3.45-.12,19.541,19.541,0,0,0-.12,2.49v2.21a16.4,16.4,0,0,0,.15,2.1h-2v-5H667.08v5h-2a15.692,15.692,0,0,0,.15-2.1v-2.22a19.541,19.541,0,0,0-.12-2.49,26.76,26.76,0,0,0,3.42.15Z"/><path class="cls-2" d="M702.53,251.18a12.08,12.08,0,0,0,.57,1.83c.6,1.77.9,2.61,1.32,4a53.327,53.327,0,0,1,6.45-1.68,41.641,41.641,0,0,0-.12-5.31H713a28.24,28.24,0,0,0-.15,4.05v1a15.136,15.136,0,0,1,2.25-.18c4,0,6.6,2.16,6.6,5.52,0,3.6-2.94,6.18-7.05,6.18a12.7,12.7,0,0,1-5.07-1.11,4.422,4.422,0,0,0,0-.54,13.273,13.273,0,0,0-.18-1.71,10.2,10.2,0,0,0,5,1.38,6.081,6.081,0,0,0,3.6-1.17,3.639,3.639,0,0,0,1.44-3.06c0-2.28-1.77-3.63-4.8-3.63-2.19,0-5.43.72-9.78,2.13,1.53,5.1,2.61,9.33,3.87,15a9.488,9.488,0,0,0,.39,1.29l-2.43.54c-.15-2.46-1.83-9.69-3.78-16.2a13.038,13.038,0,0,1-1.62.54,28.622,28.622,0,0,0-4.11,1.65l-.78-2.13a32.928,32.928,0,0,0,4.41-1.41c.75-.27,1-.33,1.53-.48a30.156,30.156,0,0,0-2.16-5.7Z"/><path class="cls-2" d="M742.48,261.02c-.36,7.77-2.88,11.43-9.66,14.07a5.252,5.252,0,0,0-1.41-2c6.21-2.07,8.55-5.28,8.79-12.12h-8.13a23.672,23.672,0,0,0-3.45.15V258.9a19.856,19.856,0,0,0,3.48.18h17.55a19.659,19.659,0,0,0,3.48-.18v2.22a23.672,23.672,0,0,0-3.45-.15Zm-10.83-9.51a15.577,15.577,0,0,0,3.45.21h9.06a27.117,27.117,0,0,0,3.49-.14v2.16q-.59,0-3.42-.09h-9.12a20.905,20.905,0,0,0-3.42.15Zm17.58-2.52a23.339,23.339,0,0,1,2.94,4.74l-1.52.85a22.866,22.866,0,0,0-2.91-4.86Zm3.69-1.14a24.96,24.96,0,0,1,2.94,4.74l-1.53.84a23.521,23.521,0,0,0-2.91-4.83Z"/><path class="cls-2" d="M5.29,315.32a48,48,0,0,1,7.62,3.9l-1.17,2a33.117,33.117,0,0,0-7.65-4.11Zm-.78,13.71h.14a27.245,27.245,0,0,0,7.89-1.86,21.439,21.439,0,0,0,12.6-13.44A9.211,9.211,0,0,0,27,315.35c-3.78,9.09-10,13.8-20.76,15.84a9.083,9.083,0,0,0-1.17.3Zm3.14-20.88a46.772,46.772,0,0,1,7.44,3.78l-1.23,2a32.4,32.4,0,0,0-7.38-4Zm15.72-1.38a23.877,23.877,0,0,1,3.06,4.65l-1.5.9a24.234,24.234,0,0,0-3.08-4.74Zm3.36-1.62a22.926,22.926,0,0,1,3.12,4.65l-1.5.87a23.115,23.115,0,0,0-3.09-4.71Z"/><path class="cls-2" d="M45.82,307.01a9.917,9.917,0,0,0-1,2,15.27,15.27,0,0,1-.93,1.65c.42-.06.42-.06,9.27-.15a5.21,5.21,0,0,0,1.74-.3l1.35,1.35a6.713,6.713,0,0,0-.87,2c-2.07,5.58-4.71,9.9-7.83,12.9a33.467,33.467,0,0,1-9.48,6.18,5.34,5.34,0,0,0-1.47-1.86,26.986,26.986,0,0,0,6.21-3.27A21,21,0,0,0,48,322.77a37.729,37.729,0,0,0-6.72-4.86l1.38-1.53a42.8,42.8,0,0,1,6.63,4.65,35.809,35.809,0,0,0,4.17-8.7l-10.5.15a29.8,29.8,0,0,1-7.14,8,5.512,5.512,0,0,0-1.74-1.44,26.09,26.09,0,0,0,7.65-8.55,16.365,16.365,0,0,0,1.77-4.11Z"/><path class="cls-2" d="M72.04,308.39a14.951,14.951,0,0,0-.18,2.58c-.24,8.13-.48,10.35-1.62,13.38a18.334,18.334,0,0,1-5.19,7.41,5.545,5.545,0,0,0-1.8-1.62,14.841,14.841,0,0,0,5.07-6.9c.93-2.61,1.35-6.54,1.35-12.87a13.311,13.311,0,0,0-.12-2.13Zm7.44-.33a11.622,11.622,0,0,0-.18,2.64l-.18,18.12a13.866,13.866,0,0,0,5.58-3.48,14.841,14.841,0,0,0,3.54-6,8.4,8.4,0,0,0,1.68,1.74,17.006,17.006,0,0,1-6,7.71,19.79,19.79,0,0,1-4.29,2.19l-1,.36a4.906,4.906,0,0,0-.69.33l-1.2-1.38a5.053,5.053,0,0,0,.21-2l.18-17.55a11.99,11.99,0,0,0-.12-2.67Z"/><path class="cls-2" d="M96.55,313.79a15.829,15.829,0,0,0-2.46.18v-2a14.468,14.468,0,0,0,2.46.18h1.62v-2.88a19.306,19.306,0,0,0-.21-3h2.31a17.825,17.825,0,0,0-.21,3v2.91h.69a12.689,12.689,0,0,0,2.22-.15v1.95a18.477,18.477,0,0,0-2.28-.12h-.63v5.94c1.05-.48,1.53-.72,2.88-1.41v1.86c-1.83.9-1.83.9-2.91,1.41v9.39c0,1.71-.63,2.13-3.12,2.13a19.063,19.063,0,0,1-2.25-.09,5.436,5.436,0,0,0-.45-1.89,19.473,19.473,0,0,0,2.76.24c.93,0,1.17-.18,1.17-.87v-8c-.81.36-1.5.63-2.37,1-.45.21-.75.33-1.2.57l-.6-2a18.2,18.2,0,0,0,4.17-1.44v-6.75Zm13.68-1.29h-3.58a26.184,26.184,0,0,0-3.18.15v-2a24.739,24.739,0,0,0,3.15.15h3.6v-1.5a19.064,19.064,0,0,0-.21-3h2.25a17.931,17.931,0,0,0-.21,3v1.5h5.1a22.293,22.293,0,0,0,3.12-.18v2.07a22.133,22.133,0,0,0-3.12-.18h-5.1v4.89h3.6a11.38,11.38,0,0,0,2.07-.12l1,1.14a15.026,15.026,0,0,0-.93,1.68,26.21,26.21,0,0,1-5.07,6.63,22.886,22.886,0,0,0,8.28,4.65,8.028,8.028,0,0,0-1.17,1.92,28.382,28.382,0,0,1-8.49-5.34,27.665,27.665,0,0,1-9,5.19,6.116,6.116,0,0,0-1.11-1.8,23.855,23.855,0,0,0,8.85-4.68,19.557,19.557,0,0,1-3.15-4.38,14.84,14.84,0,0,1-1.38-3.24,12.142,12.142,0,0,0-1.8.15v-2a17.287,17.287,0,0,0,2.67.18h3.78Zm-2.79,6.54a16.209,16.209,0,0,0,4,6.45,20.092,20.092,0,0,0,4.86-6.45Z"/><path class="cls-2" d="M127.48,322.73c0-1.2,0-2.1.09-3.51a15.737,15.737,0,0,1-2.58,2.73,6.276,6.276,0,0,0-1.05-1.68,19.409,19.409,0,0,0,4.83-5.22,12.223,12.223,0,0,0,1.32-2.67l1.74,1.11c-.3.48-.66,1-1,1.62a24.16,24.16,0,0,1-1.53,2.25v12.27a20.911,20.911,0,0,0,.18,3.51h-2.19a21.6,21.6,0,0,0,.18-3.54Zm4-15.63c-.39.45-.39.45-1.29,1.65a27.261,27.261,0,0,1-4.83,4.83,4.378,4.378,0,0,0-1.17-1.47,16.841,16.841,0,0,0,5.52-6Zm3.18,9.69c-.36,5.85-1.08,9.54-2.46,12.9a8.513,8.513,0,0,0-1.62-1,30.34,30.34,0,0,0,2.34-12.12Zm5.64-4.44a14.844,14.844,0,0,0,2.58-.15v2a12.729,12.729,0,0,0-2.34-.15h-1.89v15.66a26.562,26.562,0,0,0,.18,3.36h-2.18a28.151,28.151,0,0,0,.18-3.36V314.05h-2.18a12.729,12.729,0,0,0-2.34.15v-2a14.8,14.8,0,0,0,2.61.15h1.92v-3.09a19.992,19.992,0,0,0-.18-2.82h2.16a19,19,0,0,0-.18,2.82v3.09Zm.39-5.46a22.61,22.61,0,0,1,2.52,3.66l-1.41.93a16.99,16.99,0,0,0-2.49-3.81Zm1,9.6a66.866,66.866,0,0,1,2.43,11l-1.77.63a52.726,52.726,0,0,0-2.25-11.19Zm3.51-.39a11.76,11.76,0,0,0-2.28.15v-2a11.453,11.453,0,0,0,2.28.15h4.08a13.177,13.177,0,0,0,2.43-.15v2a13.353,13.353,0,0,0-2.43-.15h-.63v14.25c0,1.11-.27,1.8-.84,2a7.268,7.268,0,0,1-2.52.33c-.75,0-2-.06-2.73-.12a7.223,7.223,0,0,0-.39-2,18.5,18.5,0,0,0,3.6.33c.78,0,1-.12,1-.66V316.01Zm6-6a15.672,15.672,0,0,0-2.25-.15h-3a16.161,16.161,0,0,0-2.22.15v-2a15.117,15.117,0,0,0,2.25.15h3a15.117,15.117,0,0,0,2.25-.15Z"/><path class="cls-2" d="M159.91,310.13a19.311,19.311,0,0,1-3.36,3.9,5.062,5.062,0,0,0-1.44-1.23,14.323,14.323,0,0,0,4.92-6.75l1.92.57-1,1.89h4.56a18.58,18.58,0,0,0,3-.18v1.92a24.221,24.221,0,0,0-2.76-.12h-1.89a18.394,18.394,0,0,1,1.59,3l-1.74.63a19.57,19.57,0,0,0-1.65-3.66Zm7.5,4.65a9.449,9.449,0,0,0-.18-1.86h2.16a9.213,9.213,0,0,0-.18,1.86h7.17a19.546,19.546,0,0,0,3-.18v2a20.9,20.9,0,0,0-3-.18h-7.2v3h9.69a20.209,20.209,0,0,0,3.09-.18v2a21.859,21.859,0,0,0-3.09-.18H175.3V324h3.48a22.161,22.161,0,0,0,3.09-.18v2a22.481,22.481,0,0,0-3.09-.18H175.3v5.37c0,1.77-.72,2.19-3.69,2.19-.84,0-1.89,0-2.94-.09a6.98,6.98,0,0,0-.54-1.89,27.946,27.946,0,0,0,3.9.24c1.14,0,1.38-.15,1.38-.78v-5H158.89a22.6,22.6,0,0,0-3.12.18v-2a22.17,22.17,0,0,0,3.09.18h14.58V321.1H158.83a22.917,22.917,0,0,0-3.12.18v-2a20.209,20.209,0,0,0,3.09.18h8.61v-3h-6a20.61,20.61,0,0,0-3,.18v-2a19.932,19.932,0,0,0,3,.18Zm-4.89,11.28a28.434,28.434,0,0,1,4.68,4.14l-1.5,1.38a20.077,20.077,0,0,0-4.53-4.26Zm8.88-16a17.9,17.9,0,0,1-2.28,2.79,4,4,0,0,0-1.47-1.08,13.729,13.729,0,0,0,4-5.91l1.8.57c-.27.57-.45.87-1.08,2h6.45a21.95,21.95,0,0,0,3.18-.18v1.92a24.377,24.377,0,0,0-3.15-.15h-3.33a25.332,25.332,0,0,1,1.65,2.88l-1.71.69a20.042,20.042,0,0,0-1.83-3.57Z"/><path class="cls-2" d="M195.37,310.91a12.705,12.705,0,0,0,1.44-4.11l2.4.42a6.372,6.372,0,0,0-.78,1.62,14.053,14.053,0,0,1-.93,2,5.093,5.093,0,0,1,.63,0c4.8-.24,7.8-.6,9.45-1.14l.18,2a9.3,9.3,0,0,0-1.2.15,97.012,97.012,0,0,1-9.9.78,22.157,22.157,0,0,1-2.7,4.26c-.3.36-.9,1.05-1,1.14s-.36.27-.39.3h0a.237.237,0,0,0,.06.09,8.3,8.3,0,0,1,1.38-1,8.007,8.007,0,0,1,4.53-1.47,3.641,3.641,0,0,1,3.993,3.249c0,.027.005.054.007.081,2.19-.87,3.9-1.5,5.22-2a6.6,6.6,0,0,0,2-.87l1,2.1a49.9,49.9,0,0,0-8,2.64c.06.78.06,1.08.06,1.83v3a6.5,6.5,0,0,0,.06,1.08h-2q.2-2.154.18-4.32a7.948,7.948,0,0,0,0-.9c-4.08,1.92-5.64,3.33-5.64,5.13,0,2,1.86,2.85,6.09,2.85a25.147,25.147,0,0,0,8-1.17l.27,2.31c-.4.03-.8.08-1.2.15a46.476,46.476,0,0,1-7.29.6c-5.37,0-8-1.53-8-4.62,0-1.65,1-3.21,3.06-4.74a23.314,23.314,0,0,1,4.47-2.4c-.24-1.65-1-2.37-2.37-2.37-1.89,0-4.26,1.11-6.69,3.18a9.936,9.936,0,0,0-2.31,2.49l-1.68-1.68a29.83,29.83,0,0,0,6.72-8.58l.27-.45a3.413,3.413,0,0,1-.57.06l-4.41-.09h-.48a5.191,5.191,0,0,0-.66,0v-2.07a42,42,0,0,0,6.42.33Z"/><path class="cls-2" d="M219.73,319.97c0-1.53,0-1.74.09-3.63a22.03,22.03,0,0,1-2.7,4.32,6.138,6.138,0,0,0-1.2-1.65,27.305,27.305,0,0,0,5-8.76,17.424,17.424,0,0,0,1.14-4.26l2.07.54c-.21.6-.3.87-.54,1.65a45.146,45.146,0,0,1-2,5.25v16.44a30.7,30.7,0,0,0,.15,3.51h-2.19a30.922,30.922,0,0,0,.18-3.6Zm7.8,2.16a22.815,22.815,0,0,0-2.64.12,14.532,14.532,0,0,0,.12-2v-4.11a12.94,12.94,0,0,0-.12-2.1c.81.06,1.23.09,2.7.09h4.92v-3h-5.7a17.2,17.2,0,0,0-2.76.15v-2a19.534,19.534,0,0,0,2.88.18h5.55a20.1,20.1,0,0,0-.18-3.45h2.16a22.6,22.6,0,0,0-.15,3.45h6.34a21.5,21.5,0,0,0,3-.18v2a18.466,18.466,0,0,0-2.82-.15h-6.51v2.95h4.86a24.071,24.071,0,0,0,2.79-.09q-.09,1-.09,2.25v3.6a15.642,15.642,0,0,0,.09,2.4,26.363,26.363,0,0,0-3-.12h-5.19a12.73,12.73,0,0,1-1.68,5c3.15,2.16,6.84,3.39,11.79,3.9a8,8,0,0,0-.93,2,27.474,27.474,0,0,1-11.91-4.5c-1.8,2.07-3.78,3.36-7.38,4.71a6.465,6.465,0,0,0-1.17-1.65c3.48-1.14,5.64-2.37,7.26-4.08a19.006,19.006,0,0,1-2.61-2.85c-.24-.27-.27-.33-.48-.54l1.68-1a10.144,10.144,0,0,0,2.4,3,11.448,11.448,0,0,0,1.23-3.93Zm-.69-6.36v4.68h5.37c.12-1.17.21-2.61.27-4.68Zm7.41,0c-.06,2-.12,3.3-.24,4.68h6v-4.68Z"/><path class="cls-2" d="M252.58,309.86a21.746,21.746,0,0,0-.21,3.57,51.374,51.374,0,0,0,.78,9.33c.66,3.06,1.89,5.13,3,5.13.54,0,1.05-.51,1.5-1.5a21.6,21.6,0,0,0,1.56-5.13,9.588,9.588,0,0,0,1.77,1.71c-1.47,5.25-2.85,7.26-5,7.26-1.68,0-3.24-1.68-4.26-4.56s-1.47-6.69-1.62-14.07a16.354,16.354,0,0,0-.09-1.77Zm14.49,1.59a26.022,26.022,0,0,1,4.29,6.84,28.721,28.721,0,0,1,2.25,8l-2.13.87a26.5,26.5,0,0,0-6.24-14.79Z"/><path class="cls-2" d="M287.65,312.68a34.684,34.684,0,0,1,4,2.7,28.456,28.456,0,0,0,5.7-5.52h-8.13a31.824,31.824,0,0,1-8.58,6,5.777,5.777,0,0,0-1.17-1.5,27.188,27.188,0,0,0,8.88-6.09,10.919,10.919,0,0,0,2.1-2.73l2.16.54c-.27.33-.3.33-1,1.14-.36.42-.48.57-1,1.11h5.7a21.862,21.862,0,0,0,2.79-.15l1,1.14a41.143,41.143,0,0,1-2.7,3.21,39.126,39.126,0,0,1-8.46,6.84,42.59,42.59,0,0,1-8.64,3.87,5.5,5.5,0,0,0-1-1.77,34,34,0,0,0,10.77-4.95,23.323,23.323,0,0,0-3.84-2.7Zm6,8a29.624,29.624,0,0,1-9.81,5.73,5.47,5.47,0,0,0-1.14-1.62,27.881,27.881,0,0,0,9.42-5,14.291,14.291,0,0,0,3.27-3.6l1.95.75c-1.29,1.47-1.38,1.56-2,2.22h5.31a22.148,22.148,0,0,0,2.82-.15l1.08,1.17-.87,1.11a27.615,27.615,0,0,1-8.79,7.89c-3.42,2-6.51,3.12-12.18,4.53a6.674,6.674,0,0,0-1.08-1.89,34.816,34.816,0,0,0,12.75-4.47,19.092,19.092,0,0,0-4-2.85l1.53-1.11a36.751,36.751,0,0,1,4.11,2.91,25.825,25.825,0,0,0,5.76-5.58Z"/><path class="cls-2" d="M315.1,330.14a18.857,18.857,0,0,0,.18,3.15h-2.16c.09-.93.15-2,.15-3.15v-9.15a35.762,35.762,0,0,1-4.05,3.81,7.328,7.328,0,0,0-1.05-1.71,24.487,24.487,0,0,0,5-4.41,23.806,23.806,0,0,0,3.81-5.82h-5.37a20.72,20.72,0,0,0-2.31.12v-1.95a18.385,18.385,0,0,0,2.25.12h1.74v-2.79a20.421,20.421,0,0,0-.15-2.37h2.22a12.866,12.866,0,0,0-.18,2.4v2.76h1.83a6.657,6.657,0,0,0,1.41-.09l.87,1.08a9.348,9.348,0,0,0-.57,1.08,28.987,28.987,0,0,1-3.27,5.25,24.6,24.6,0,0,0,4.38,3.66,7.386,7.386,0,0,0-.9,1.74,32,32,0,0,1-3.78-3.45Zm8.43-6.66a25.167,25.167,0,0,0-2.91.09c.06-.72.09-1.77.09-3V310.28a27.668,27.668,0,0,0-.12-3.06,22.2,22.2,0,0,0,2.94.12h8a21.638,21.638,0,0,0,2.88-.12,26.5,26.5,0,0,0-.12,3.06v10.3a27.9,27.9,0,0,0,.12,3.06,26.676,26.676,0,0,0-2.91-.12h-1.14v7c0,.51.33.6,1.92.6s1.92-.12,2.07-.63a16.355,16.355,0,0,0,.33-3.6,5.9,5.9,0,0,0,1.77.81c-.15,2.61-.42,3.93-.93,4.5s-1.41.69-3.57.69c-2.85,0-3.42-.3-3.42-1.74v-7.59h-2.61a10.913,10.913,0,0,1-1.14,4.38c-1.2,2.4-3.09,4-6.27,5.4a7.544,7.544,0,0,0-1.35-1.68c4.29-1.41,6.72-4.23,6.93-8.1Zm-1-11.28h10v-3.24h-10Zm0,4.71h10v-3.15h-10Zm0,5h10v-3.39h-10Z"/><path class="cls-2" d="M339.73,332.12a12.57,12.57,0,0,0,2.34-2.82,13.339,13.339,0,0,0,1.62-3.54l1.77.78a20.879,20.879,0,0,1-4,6.66Zm13.92-16.47h5.79a23.7,23.7,0,0,0,3.39-.15,16.422,16.422,0,0,0-.12,2.25v4.8a15.591,15.591,0,0,0,.12,2.16,30.646,30.646,0,0,0-3.09-.12H346.81a30.646,30.646,0,0,0-3.09.12,16.59,16.59,0,0,0,.12-2.16v-4.8a18.188,18.188,0,0,0-.12-2.25c.9.09,2,.15,3.39.15h4.59v-6.51a17.931,17.931,0,0,0-.21-3h2.37a16.005,16.005,0,0,0-.21,2.85v1h8.46a20.61,20.61,0,0,0,3-.18v2.07a24.649,24.649,0,0,0-3-.18h-8.46Zm-7.89,1.74v5.43h15v-5.43Zm3.48,15.84a29.873,29.873,0,0,0-.66-6.6l1.71-.3a36.992,36.992,0,0,1,.93,6.48Zm7.47,0a27.853,27.853,0,0,0-2.37-6.6l1.65-.54a45.726,45.726,0,0,1,2.64,6.33Zm7.65-.06a34.166,34.166,0,0,0-4-6.78l1.65-.75a50.137,50.137,0,0,1,4.11,6.45Z"/><path class="cls-2" d="M371.65,314.51a63.178,63.178,0,0,0,6.63-.78,36.685,36.685,0,0,0,.9-6.36v-.39l2.4.27a18.434,18.434,0,0,0-.57,2.88c-.15.87-.36,2-.63,3.42a17.439,17.439,0,0,1,1.77-.09c2.13,0,3.39.36,4.32,1.26s1.47,2.37,1.47,4.83c0,4.59-.78,8.58-2,10.32a3.129,3.129,0,0,1-2.94,1.41,11.285,11.285,0,0,1-4.53-1.17,6.432,6.432,0,0,0,.06-1,5.816,5.816,0,0,0-.09-1.2,11.222,11.222,0,0,0,4.47,1.38q1.129,0,1.71-1.44a23.2,23.2,0,0,0,1.26-8.34c0-3.18-.9-4.2-3.69-4.2a17.342,17.342,0,0,0-2.16.15,56.6,56.6,0,0,1-4.53,12.72c-.39.72-1,1.92-1.95,3.6l-2-1.2a28.781,28.781,0,0,0,3.12-5.43,49.529,49.529,0,0,0,3.3-9.51c-2.58.39-4,.63-4.29.69a17.276,17.276,0,0,0-1.74.39Zm19.71-2.76a27.129,27.129,0,0,1,6.27,10.62l-1.92,1.11a24.554,24.554,0,0,0-6.12-10.77Z"/><path class="cls-2" d="M409.06,312.74a25.084,25.084,0,0,0-.69,3.3c-.72,4.35-.78,4.56-.87,5.25a3.678,3.678,0,0,1-.12.69h.06a8.323,8.323,0,0,1,.93-.9,14.844,14.844,0,0,1,8.67-2.58c4.89,0,8,2.28,8,5.79a6.409,6.409,0,0,1-2.7,5.16,12.45,12.45,0,0,1-7.47,2,24.966,24.966,0,0,1-5.25-.54l-2.4-.6a4.927,4.927,0,0,0,0-.57,6.939,6.939,0,0,0-.21-1.86,21.3,21.3,0,0,0,7.65,1.5c4.95,0,8.1-2,8.1-5,0-2.46-2.16-3.9-5.82-3.9a14.529,14.529,0,0,0-8.4,2.61,5.21,5.21,0,0,0-1.2,1.23l-2.34-.06c.09-.54.12-.81.24-1.77.3-2.28.84-5.76,1.26-8.28a10.137,10.137,0,0,0,.21-1.59Zm1.32-5.22a36.189,36.189,0,0,0,10.17,3.33l-.84,2.1a46.3,46.3,0,0,1-5.85-1.71,33.351,33.351,0,0,1-4.59-1.89Z"/><path class="cls-2" d="M434.89,309.14a12.816,12.816,0,0,0-2.58.18v-2a16.052,16.052,0,0,0,2.7.18h4.89a11.7,11.7,0,0,0,2.52-.18v2a19.725,19.725,0,0,0-2.43-.12h-1.86a29.363,29.363,0,0,1-2.07,7.62h3.75a13.761,13.761,0,0,0,1.86-.09,22.36,22.36,0,0,0-.09,2.4v9.27a19.635,19.635,0,0,0,.12,2.52h-1.89v-1.5h-3.72v3.16h-2a18.163,18.163,0,0,0,.18-2.91v-6.66c0-1.08,0-2,.09-3.36a13.719,13.719,0,0,1-2.25,3.66,5.009,5.009,0,0,0-1.08-1.8,20.406,20.406,0,0,0,4.14-7.62,21.017,21.017,0,0,0,1-4.71Zm1.2,18.6h3.72v-9.39h-3.72Zm10.41-18.6a19.666,19.666,0,0,0-2.91.18v-2.07a18.355,18.355,0,0,0,3,.18h9.48a20.064,20.064,0,0,0,3-.18v2.07a15.746,15.746,0,0,0-2.91-.18h-.72v8.31h1a15.856,15.856,0,0,0,3-.18v2.13a19.546,19.546,0,0,0-3-.18h-1v10.77a22.673,22.673,0,0,0,.21,3.21h-2.31a22.381,22.381,0,0,0,.21-3.21V319.22h-4.9c-.3,6.69-1.59,10.32-5,14.28a5.445,5.445,0,0,0-1.74-1.35c3.15-3,4.56-6.75,4.83-12.93h-.84a16.735,16.735,0,0,0-3,.18v-2.1a19.538,19.538,0,0,0,3,.15h.9v-8.31Zm2.19,7.29v1h4.89v-8.31h-4.93Z"/><path class="cls-2" d="M478.99,321.11a26.557,26.557,0,0,0,3.36-.15c-.06.66-.09,1.29-.12,2.64l-.12,6.09c0,.9.33,1,2.67,1,2.1,0,2.7-.15,2.91-.69a17.526,17.526,0,0,0,.48-4.5,7.379,7.379,0,0,0,2,.78c-.48,6-.66,6.18-5.49,6.18-3.66,0-4.44-.39-4.44-2.4v-.15l.12-7h-5.58a11.51,11.51,0,0,1-2.34,5,13.234,13.234,0,0,1-3.21,2.88,20.239,20.239,0,0,1-5,2.46,4.628,4.628,0,0,0-1.32-1.71,18.726,18.726,0,0,0,5.76-2.7,9.8,9.8,0,0,0,4.17-5.88H468.1a21.4,21.4,0,0,0-3.24.18v-2.13a20.131,20.131,0,0,0,3.18.18h5.16a21.248,21.248,0,0,0,.21-2.52,9.989,9.989,0,0,0-.12-1.62h2.28a9.124,9.124,0,0,0-.24,1.89c-.06.72-.12,1.47-.24,2.22Zm-4-12.69a9.221,9.221,0,0,0-.21-2.16h2.34a8.765,8.765,0,0,0-.21,2.16v.93h8.91a25.477,25.477,0,0,0,3-.15,13.518,13.518,0,0,0-.12,2.07v1.53a13.911,13.911,0,0,0,.12,2.1h-2v-3.84h-7.47v4.35c0,.36.06.51.21.6a5.844,5.844,0,0,0,1.92.21,5.541,5.541,0,0,0,2.43-.33c.33-.24.48-1,.51-2.43a6.266,6.266,0,0,0,1.8.57c-.15,1.89-.39,2.73-.9,3.18s-1.74.66-3.87.66c-3.15,0-3.9-.33-3.9-1.65v-5.16h-3.69a8.216,8.216,0,0,1-1,3.33,8.443,8.443,0,0,1-4.74,3.81,27.718,27.718,0,0,1-2.79.87,8.237,8.237,0,0,0-1.14-1.65c3.21-.6,4.71-1.2,6-2.4a5.673,5.673,0,0,0,1.83-4h-6.37v3.81h-2a14.453,14.453,0,0,0,.12-2.1v-1.5a13.518,13.518,0,0,0-.12-2.07,25.054,25.054,0,0,0,3,.15h8.31Z"/><path class="cls-2" d="M503.65,307.1a52.224,52.224,0,0,0,2.25,9.93c1.77-.72,2.61-1,7.26-2.67a16.213,16.213,0,0,0,1.92-.78l.9,2.28a68.966,68.966,0,0,0-9,2.91c-5.13,2-7.35,4-7.35,6.51,0,2.73,2.31,3.78,8.19,3.78a29.78,29.78,0,0,0,8.58-1l.25,2.52a15.576,15.576,0,0,0-2.22.18,60.191,60.191,0,0,1-6.63.39,20.4,20.4,0,0,1-6.66-.81c-2.46-.9-3.72-2.55-3.72-4.92a6.492,6.492,0,0,1,2.67-5.1,18.7,18.7,0,0,1,3.93-2.43,61.177,61.177,0,0,1-2.19-8.4,10.055,10.055,0,0,0-.51-1.89Z"/><path class="cls-2" d="M541,321.17h-5.35a13.353,13.353,0,0,0-2.43.15v-1.65a30.486,30.486,0,0,1-3,1.44v9.84c0,1.65-.66,2.13-2.94,2.13a18.9,18.9,0,0,1-2.4-.12,6.325,6.325,0,0,0-.42-1.89,18.763,18.763,0,0,0,2.82.24c.87,0,1.11-.18,1.11-.84v-8.58c-2,.84-3.24,1.35-3.63,1.53l-.54-2a18.5,18.5,0,0,0,4.17-1.38v-6.3h-1.74a21.129,21.129,0,0,0-2.22.15v-2a13.46,13.46,0,0,0,2.25.18h1.71v-2.73a19.8,19.8,0,0,0-.18-3h2.19a18.818,18.818,0,0,0-.18,3v2.79h1.32a9.21,9.21,0,0,0,2.07-.15v1.95a12.385,12.385,0,0,0-2-.12h-1.35v5.52a27.963,27.963,0,0,0,3.24-1.56v1.74a17.373,17.373,0,0,0,2.28.12h12.48a16.564,16.564,0,0,0,2.67-.18v2a16.572,16.572,0,0,0-2.67-.18h-5.37v3.31h4a14.609,14.609,0,0,0,2.61-.15v1.89a15.393,15.393,0,0,0-2.61-.15h-4v4.41a24.034,24.034,0,0,0,3.78.27c1.5,0,3.12-.06,4.89-.21a5.53,5.53,0,0,0-.57,2h-2.7c-5.13,0-7.89-.54-9.81-1.89a11.72,11.72,0,0,1-2.55-2.52,19.277,19.277,0,0,1-3.48,5.16,4.87,4.87,0,0,0-1.53-1.14,15.345,15.345,0,0,0,3.75-5.46,13.557,13.557,0,0,0,1.11-4.14l1.95.48a12.057,12.057,0,0,0-.48,1.53c-.21.66-.39,1.26-.63,1.89a8.384,8.384,0,0,0,4.44,3.57Zm-3.27-3.9a23.2,23.2,0,0,0-2.7.09c.06-.87.09-1.74.09-2.82v-4.35a25.08,25.08,0,0,0-.09-2.79,25.525,25.525,0,0,0,2.82.12h8.16a24.147,24.147,0,0,0,2.82-.12,16.882,16.882,0,0,0-.12,2.4v4.86a21.173,21.173,0,0,0,.12,2.7c-.69-.06-1.68-.09-2.88-.09Zm-.84-5.64h10v-2.52h-10Zm0,4.08h10v-2.55h-10Z"/><path class="cls-2" d="M578.11,323.58a26.463,26.463,0,0,0,3.33-.18v2a26.463,26.463,0,0,0-3.33-.18H570.4a26.922,26.922,0,0,0,11.73,6,7.477,7.477,0,0,0-1.23,1.8,36.81,36.81,0,0,1-5.16-2.16,26.643,26.643,0,0,1-6.87-5c.06,1.2.12,2.61.12,3.24v1.29a16.076,16.076,0,0,0,.18,2.94h-2.16a17.632,17.632,0,0,0,.18-2.94V329.1c0-.63,0-1.5.09-3.21a25.98,25.98,0,0,1-6.57,4.83,43.447,43.447,0,0,1-4.95,2.22,5.825,5.825,0,0,0-1.29-1.71,33.348,33.348,0,0,0,6.78-2.79,19.273,19.273,0,0,0,4.47-3.24h-7.07a25.626,25.626,0,0,0-3.3.18v-2a25.164,25.164,0,0,0,3.27.18h8.58v-.36a13.93,13.93,0,0,0-.12-2h2a12.865,12.865,0,0,0-.12,2v.39Zm-3.18-9a11.692,11.692,0,0,1-3.45,3.42,80.592,80.592,0,0,1,8.55,2.67l-1.17,1.47a59.856,59.856,0,0,0-9.27-3.06c-3.45,1.65-7.14,2.46-13,2.85a4.573,4.573,0,0,0-.81-1.62,33.506,33.506,0,0,0,11.25-1.83c-1.95-.42-3.6-.69-6.75-1.11a25.371,25.371,0,0,0,2.85-2.79h-4.38a21.965,21.965,0,0,0-3,.18V312.9a18.07,18.07,0,0,0,2.94.18h5.73a10.872,10.872,0,0,0,1.77-2.85l2,.54-1.68,2.31h11.7a15.692,15.692,0,0,0,3-.18v1.86a20.752,20.752,0,0,0-3-.18Zm-7.71-6.51a10.887,10.887,0,0,0-.21-2.22h2.28a9.976,9.976,0,0,0-.21,2.22v.18h8.82a28.347,28.347,0,0,0,3-.12,9.39,9.39,0,0,0-.12,1.74v.57a13.964,13.964,0,0,0,.09,1.71h-1.92v-2.34h-21v2.31h-1.92a13.79,13.79,0,0,0,.09-1.65v-.6a10.56,10.56,0,0,0-.12-1.74c1,.09,1.77.12,3,.12h8.13Zm-1.92,6.51c-.69.78-.93,1-1.74,1.86,2.13.33,3.75.63,5.7,1.08a10.136,10.136,0,0,0,3.51-2.94Z"/><path class="cls-2" d="M595.12,310.91a12.729,12.729,0,0,0,1.44-4.11l2.4.42a6.372,6.372,0,0,0-.78,1.62,14.053,14.053,0,0,1-.93,2,5.093,5.093,0,0,1,.63,0c4.8-.24,7.8-.6,9.45-1.14l.18,2a9.3,9.3,0,0,0-1.2.15,97.034,97.034,0,0,1-9.9.78,22.157,22.157,0,0,1-2.7,4.26c-.3.36-.9,1.05-1,1.14s-.36.27-.39.3h0a.226.226,0,0,0,.06.09,8.3,8.3,0,0,1,1.38-1,8.007,8.007,0,0,1,4.53-1.47,3.641,3.641,0,0,1,3.993,3.249c0,.027,0,.054.007.081,2.19-.87,3.9-1.5,5.22-2a6.6,6.6,0,0,0,2-.87l1,2.1a49.862,49.862,0,0,0-8,2.64c.06.78.06,1.08.06,1.83v3a6.5,6.5,0,0,0,.06,1.08h-2q.2-2.154.18-4.32a7.948,7.948,0,0,0,0-.9c-4.08,1.92-5.64,3.33-5.64,5.13,0,2,1.86,2.85,6.09,2.85a25.147,25.147,0,0,0,8-1.17l.27,2.31c-.4.03-.8.08-1.2.15a46.486,46.486,0,0,1-7.29.6c-5.37,0-8-1.53-8-4.62,0-1.65,1-3.21,3.06-4.74a23.314,23.314,0,0,1,4.47-2.4c-.24-1.65-1-2.37-2.37-2.37-1.89,0-4.26,1.11-6.69,3.18a9.936,9.936,0,0,0-2.31,2.49l-1.68-1.68a29.865,29.865,0,0,0,6.72-8.58l.27-.45a3.413,3.413,0,0,1-.57.06l-4.41-.09h-.48a5.191,5.191,0,0,0-.66,0v-2.07a42,42,0,0,0,6.42.33Z"/><path class="cls-2" d="M621.1,322.91c0-1.29,0-2.16.09-3.6a17.337,17.337,0,0,1-3.42,3.36,5.729,5.729,0,0,0-1.17-1.71,24.569,24.569,0,0,0,6.06-5.91,10.32,10.32,0,0,0,1.44-2.58l1.86,1.05a12.771,12.771,0,0,0-.9,1.29,20.29,20.29,0,0,1-2,2.7v12.12a22.509,22.509,0,0,0,.21,3.66H620.9a22.736,22.736,0,0,0,.21-3.66Zm4.14-15.63a4.952,4.952,0,0,0-.54.66,29.265,29.265,0,0,1-6.66,6.51,5.8,5.8,0,0,0-1.35-1.47,20.6,20.6,0,0,0,4-3.18,11.718,11.718,0,0,0,2.73-3.66Zm4.35,10a23.163,23.163,0,0,0-3.33.18v-2.1a22.879,22.879,0,0,0,3.33.18h10.53a21.171,21.171,0,0,0,3.3-.18v2.1a22.909,22.909,0,0,0-3.27-.18h-1.71v13.14c0,1.92-.72,2.43-3.36,2.43-1,0-2.37-.06-3.66-.15a7.229,7.229,0,0,0-.48-2.07,29.967,29.967,0,0,0,4.23.36c1,0,1.26-.12,1.26-.72v-13Zm-2.1-9.45a21.27,21.27,0,0,0,3.12.18h8.4a21,21,0,0,0,3.09-.18v2.1a23.128,23.128,0,0,0-3.09-.18h-8.36a23.578,23.578,0,0,0-3.12.18Z"/><path class="cls-2" d="M650.35,316.82a23.612,23.612,0,0,0,3-.51,50.1,50.1,0,0,1,9.15-1.08,9.546,9.546,0,0,1,5.16,1.14,5.339,5.339,0,0,1,2.55,4.77c0,3.21-1.83,6.06-5.16,8.1-2.28,1.38-4.23,2-8.7,2.85a7.622,7.622,0,0,0-1-2.19,18.991,18.991,0,0,0,8.43-2.43,7.342,7.342,0,0,0,2.58-2.13,6.722,6.722,0,0,0,1.53-4.08,3.639,3.639,0,0,0-1.92-3.36,8.369,8.369,0,0,0-3.69-.66,41.874,41.874,0,0,0-11.43,2Zm4.41-9.36a37.854,37.854,0,0,0,12.21,1.86l-.33,2.16a54.58,54.58,0,0,1-12.6-2Z"/><path class="cls-2" d="M687.13,328.58a4.49,4.49,0,1,1,0-.02Zm-7.29,0a2.79,2.79,0,1,0,2.79-2.79A2.79,2.79,0,0,0,679.84,328.58Z"/></g></g></svg>