<svg xmlns="http://www.w3.org/2000/svg" viewBox="0 0 754.41 390.05"><defs><style>.cls-1{fill:none;}.cls-2{fill:#fff;}.cls-3{fill:#2c8ac8;}</style></defs><g id="レイヤー_2" data-name="レイヤー 2"><g id="レイヤー_1-2" data-name="レイヤー 1"><polygon class="cls-1" points="7.52 25.96 25.71 15.46 25.71 15.45 7.52 25.96"/><polygon class="cls-1" points="43.56 15.46 54.1 21.54 43.56 15.45 43.56 15.46"/><polygon class="cls-1" points="38.42 22.97 34.64 25.15 32.8 24.09 34.64 25.15 38.42 22.97"/><polygon class="cls-2" points="52.48 40 43.56 34.85 43.56 45.15 52.48 40"/><polygon class="cls-2" points="69.28 45.15 69.28 34.85 60.36 40 69.28 45.15"/><polygon class="cls-2" points="25.71 20 25.71 20 3.93 32.58 12.86 37.73 25.72 30.3 25.72 20.01 25.71 20"/><polygon class="cls-2" points="43.56 20.01 43.56 30.3 56.42 37.73 65.34 32.58 43.56 20 43.56 20 43.56 20.01"/><polygon class="cls-2" points="54.1 21.54 69.28 30.3 69.28 20 43.56 5.15 43.56 15.45 54.1 21.54"/><polygon class="cls-2" points="43.56 60 65.34 47.43 56.42 42.28 43.56 49.7 43.56 45.15 34.64 50.3 25.72 45.15 25.72 49.7 12.86 42.28 3.93 47.43 25.72 60 25.72 64.55 0 49.7 0 60 34.64 80 69.28 60 69.28 49.7 43.56 64.55 43.56 60"/><polygon class="cls-2" points="16.79 40 25.72 45.15 25.72 34.85 16.79 40"/><polygon class="cls-2" points="25.71 15.45 25.71 5.15 0 20 0 30.3 7.52 25.96 25.71 15.45"/><polygon class="cls-2" points="0 34.85 0 45.15 8.92 40 0 34.85"/><polygon class="cls-3" points="34.64 20.61 25.72 15.46 25.72 20 25.72 20 32.8 24.09 34.64 25.15 38.42 22.97 43.56 20 43.56 20 43.56 15.46 43.56 15.46 43.56 15.45 34.64 20.61"/><polygon class="cls-3" points="25.71 15.45 25.71 15.46 25.72 15.46 25.71 15.45"/><polygon class="cls-3" points="25.72 30.3 25.72 34.85 34.64 40 43.56 34.85 43.56 30.3 34.64 35.45 25.72 30.3"/><polygon points="25.72 15.46 25.72 15.46 25.72 15.46 34.64 20.61 43.56 15.45 43.56 5.15 34.64 0 25.71 5.15 25.71 15.45 25.72 15.46"/><polygon points="25.72 20.01 25.72 30.3 25.72 20.01 25.72 20.01"/><polygon points="43.56 20.01 43.56 30.3 43.56 20.01 43.56 20.01"/><polygon points="38.42 22.97 34.64 25.15 32.8 24.09 25.72 20.01 25.72 30.3 34.64 35.45 43.56 30.3 43.56 20.01 38.42 22.97"/><polygon points="32.8 24.09 25.72 20 25.72 20.01 32.8 24.09"/><polygon points="43.56 20 38.42 22.97 43.56 20.01 43.56 20"/><polygon points="25.72 34.85 25.72 34.85 25.72 45.15 34.64 50.3 43.56 45.15 43.56 34.85 34.64 40 25.72 34.85"/><polygon points="25.72 60 3.93 47.43 12.86 42.28 25.72 49.7 25.72 45.15 16.79 40 25.72 34.85 25.72 34.85 25.72 30.3 12.86 37.73 3.93 32.58 25.71 20 25.71 15.46 7.52 25.96 0 30.3 0 30.3 0 30.3 0 34.85 8.92 40 0 45.15 0 49.7 25.72 64.55 25.72 60"/><polygon points="7.52 25.96 0 30.3 0 30.3 7.52 25.96"/><polygon points="25.72 15.46 25.72 15.46 25.71 15.46 25.71 20 25.72 20 25.72 15.46"/><polygon points="69.28 30.3 69.28 30.3 54.1 21.54 43.56 15.46 43.56 20 65.34 32.58 56.42 37.73 43.56 30.3 43.56 34.85 52.48 40 43.56 45.15 43.56 49.7 56.42 42.28 65.34 47.43 43.56 60 43.56 64.55 69.28 49.7 69.28 45.15 60.36 40 69.28 34.85 69.28 30.3 69.28 30.3"/><polygon points="69.28 30.3 69.28 30.3 54.1 21.54 69.28 30.3"/><polygon points="42.443 19.757 44.642 15.774 44.642 15.774 42.443 19.757"/><path class="cls-2" d="M112.75,58.44c4.75-3.53,7.26-6.38,9.69-11.06a36.779,36.779,0,0,0,4-13.64c.23-2,.42-4.78.42-6.49a14.621,14.621,0,0,0-.12-2.17c1.33.15,2.39.27,3,.3,2.7.31,3.46.5,3.46.95s-.34.54-1.6,1v1.33a31.34,31.34,0,0,0,1.51,8.89,22.93,22.93,0,0,0,8.21,12.05,22.577,22.577,0,0,0,7.22,3.64v.38c-1.94.65-2.77,1.56-3.87,4-.15.38-.31.5-.5.5-.72,0-4-2.85-5.73-4.94a31.16,31.16,0,0,1-5.8-12.14,48,48,0,0,1-1.48-10c-.42,6.31-1.22,9.88-3.15,13.94a26.58,26.58,0,0,1-10.22,11.4,36.846,36.846,0,0,1-4.87,2.47Z"/><path class="cls-2" d="M159.38,35.91V57.83c0,.88-.42,1.07-2.62,1.07-1.49,0-1.71-.12-1.71-.88.19-5.58.22-9.69.22-18.88,0-10.07,0-12.69-.22-15.58,2,1,2.62,1.22,4.63,2.24h5.28l2.05-2.24,3,2.28c.34.27.49.46.49.61,0,.3-.3.57-1.18,1.06V30.7c0,1.94,0,3.35.08,5.85v.1a.641.641,0,0,1-.551.718l-.019,0a15.008,15.008,0,0,1-2.28.19c-1,0-1.18-.08-1.22-.68v-1Zm6-9.31h-6v3.8h6Zm0,4.6h-6v3.91h6Zm17.14,23.21c.49,0,.61-.11.61-.57V35.91h-6.24v.74c0,.69-.53.87-2.5.87-1.41,0-1.64-.07-1.64-.79.08-3.16.12-5.36.12-9.16,0-1.75,0-2.39-.12-3.88,1.94.88,2.55,1.14,4.49,2.13h5.58c1-1,1.22-1.29,2.09-2.24,1.37,1,1.79,1.29,3.12,2.28.38.3.53.49.53.68s-.31.61-1.29,1.22V45.09c0,2.31,0,6.53.07,9.72a4.49,4.49,0,0,1-.34,2.24c-.49.92-1.44,1.45-3.34,1.75a5.689,5.689,0,0,1-1.26.15c-.38,0-.49-.11-.53-.68a3.489,3.489,0,0,0-1.18-2.43,5.736,5.736,0,0,0-2.16-1c-.31.46-1.07.61-2.81.61-1,0-1.22-.12-1.26-.61V52.6h-6.82v2.05c0,.38-.08.53-.23.64a5.12,5.12,0,0,1-2.47.38c-1.14,0-1.37-.11-1.37-.76.12-3.68.16-5.47.16-8.66,0-4.67,0-6.08-.16-8,1.94.84,2.51,1.14,4.41,2.09h6.16c.87-.91,1.14-1.21,2-2.05,1.29.88,1.71,1.18,3,2.09.38.34.54.5.54.69s-.31.53-1.22,1v3.31c0,2.35,0,4.33.15,8.85,2.03.14,3.3.18,3.87.18Zm-8.06-13.26h-6.82v4.6h6.76Zm-6.82,5.4v5.24h6.76V46.55Zm15.45-19.9h-6.24v3.8h6.24Zm0,4.6h-6.24v3.91h6.24Z"/><path class="cls-2" d="M210.33,33.29V28.88a44.584,44.584,0,0,0-.26-4.86c5.85.57,6.3.64,6.3,1.17,0,.35-.49.65-1.67,1.11v7h5.4c1.25-1.56,1.63-2,2.92-3.57,2.05,1.59,2.66,2.09,4.68,3.8.15.15.22.26.22.34s-.15.23-.45.23H214.7v9.61h4.71c1.26-1.48,1.64-2,2.93-3.5,2,1.56,2.58,2.05,4.48,3.73.16.15.23.26.23.34s-.15.23-.42.23H214.7V55.87h6.84c1.33-1.6,1.75-2.09,3.12-3.61,2.05,1.63,2.73,2.16,4.79,3.87.11.15.19.23.19.31s-.16.22-.42.22H198.33a19.486,19.486,0,0,0-3.08.23l-.23-1.37a14.8,14.8,0,0,0,3.27.35h12V44.5h-7.75a10.94,10.94,0,0,0-2.54.22l-.19-1.29a12.012,12.012,0,0,0,2.7.27h7.82V34.09h-6.69c-3.12,4.9-4.33,6.34-8.06,9.49l-.38-.38a39.8,39.8,0,0,0,5-10.22,23.929,23.929,0,0,0,1.55-7c5.55,1.49,6.27,1.75,6.27,2.21s-.53.64-1.82.8c-1,2.16-1.37,3-2.13,4.33Z"/><path class="cls-2" d="M235.42,32.87a26.526,26.526,0,0,1,5,1.67c1.41.72,2,1.48,2,2.55,0,1.55-1.33,3.15-2.59,3.15-.68,0-.95-.3-1.44-1.71a14.751,14.751,0,0,0-3.19-5.36Zm.15,14a14.132,14.132,0,0,0,2.43.46c.68,0,.87-.23,2.09-2.44,1.59-2.88,3.27-6.27,6.53-13.37l.5.15-4.94,15.5a7.2,7.2,0,0,0-.5,2c0,.38,0,.38.5,1.75a10.126,10.126,0,0,1,.72,3.53,4,4,0,0,1-3.72,4.07c-.88,0-1.41-.46-1.41-1.14a13.377,13.377,0,0,1,.19-1.45,27.061,27.061,0,0,0,.53-4.44c0-2.55-.42-3.08-3-4.14Zm2.28-22.22c5.58,1.22,7.29,2.24,7.29,4.22,0,1.41-1.29,3-2.43,3-.57,0-.8-.26-1.48-1.74a17.008,17.008,0,0,0-3.53-5.1Zm17.06,5c-3.31.34-4.94.45-8.59.57v-.46a68.745,68.745,0,0,0,10.56-2.92c3.46-1.3,5.13-2.09,6.69-3.27,3.84,2.58,4.71,3.27,4.71,3.68,0,.23-.23.42-.57.42a5.974,5.974,0,0,1-1.67-.3,45.029,45.029,0,0,1-6.95,1.71v7.57h4.78c1-1.18,1.94-2.32,2.85-3.38,1.9,1.48,2.47,2,4.26,3.57.15.19.23.27.23.38s-.15.23-.46.23h-11.7v7.6h3.8c1-1.1,1.29-1.45,2.28-2.43,1.44.95,1.86,1.25,3.19,2.28.34.3.49.49.49.68,0,.34-.26.61-1.44,1.29v2.17c0,2.47,0,3.15.23,8.66,0,.38-.08.61-.35.72a5.773,5.773,0,0,1-2.69.38c-1.22,0-1.37-.07-1.37-.76v-1.9H251.26v1.71c0,.38,0,.53-.23.69a6.661,6.661,0,0,1-2.85.38c-1,0-1.33-.19-1.33-.76V58c.19-4.14.23-5.09.23-7.25,0-4-.08-6.16-.23-8.06,2.13,1,2.78,1.29,4.71,2.36h3.35v-7.6h-6.8a8.2,8.2,0,0,0-2,.19l-.27-1.22a10.718,10.718,0,0,0,2.28.23h6.77Zm-3.65,25.64h11.93V45.8H251.26Z"/><path class="cls-2" d="M295.76,54.41h7.88q1.61-1.93,3.19-3.76c2.05,1.63,2.7,2.17,4.71,3.88a1.371,1.371,0,0,1,.27.41c0,.16-.19.27-.49.27h-31.2a26.2,26.2,0,0,0-3.53.23l-.23-1.41a19.223,19.223,0,0,0,3.76.38h11.12V29.11h-9.35a18.581,18.581,0,0,0-3,.19l-.23-1.33a15.38,15.38,0,0,0,3.23.34h19.75c1.33-1.52,1.75-2,3.08-3.46,2,1.56,2.62,2,4.6,3.76a.6.6,0,0,1,.19.31c0,.11-.15.19-.38.19H295.76Z"/><path class="cls-2" d="M344.64,45.41l3-3.38c1.93,1.48,2.5,1.93,4.33,3.45a.912.912,0,0,1,.22.42c0,.19-.19.31-.53.31H336.64v9.11a2.746,2.746,0,0,1-1.44,2.85,9.838,9.838,0,0,1-4.11,1c-.49,0-.6-.11-.68-.72a2.869,2.869,0,0,0-1.06-2c-.73-.61-1.3-.8-5.21-1.71v-.5c5.28.34,5.28.34,7.49.42h.11c.38,0,.53-.15.53-.57V46.23h-12a18.954,18.954,0,0,0-3,.22l-.22-1.33a14.846,14.846,0,0,0,3.23.31h12v-.61a26.363,26.363,0,0,0-.19-3.8c1.94.23,1.94.23,4,.57a26.4,26.4,0,0,0,3.49-4.14H326.84a14.786,14.786,0,0,0-2.73.23l-.23-1.3a16.064,16.064,0,0,0,2.92.27h13c.87-.91,1.14-1.18,2-2.05,1.52,1,2,1.37,2.89,2.05a21.934,21.934,0,0,0,1.1-3.8H322.32v.34a15.147,15.147,0,0,1-.57,4.18,3.091,3.091,0,0,1-2.66,2.24c-1.1,0-2-1.33-2-2.88a1.448,1.448,0,0,1,.53-1.3c.11-.11.11-.11,1-.6,1.82-1,2.58-2.47,2.89-5.36H322a22.822,22.822,0,0,1,.3,2.58h16.34a32.146,32.146,0,0,0,3.46-7.94c2.69.84,4.86,1.56,5.47,1.86.34.16.49.35.49.54,0,.41-.53.6-1.56.6h-.34a49.111,49.111,0,0,1-6,4.94h5.28c1-1,1.33-1.33,2.4-2.28,1.71,1.26,2.24,1.68,3.87,2.93.42.34.57.57.57.8,0,.49-.65.68-2.36.68a35.731,35.731,0,0,1-3.83,2.51c-.15.07-.38.23-.72.45l.49.38c.38.35.57.57.57.76,0,.38-.46.57-1.44.57h-.57a47.707,47.707,0,0,1-6.77,3c.35.11.46.26.46.45,0,.38-.34.57-1.41.91v2.21Zm-21.65-20.9c4.52,1.71,6.27,2.93,6.27,4.48s-1.26,3-2.44,3c-.6,0-1-.38-1.29-1.52a13.213,13.213,0,0,0-2.77-5.63Zm7.86-.61c4.14,1.41,6.27,2.93,6.27,4.45s-1.4,3.23-2.73,3.23c-.65,0-.88-.31-1.3-1.94a12.322,12.322,0,0,0-2.54-5.4Z"/><path class="cls-2" d="M366.93,27.7a32.472,32.472,0,0,1-3.42,10l.31.31h3.11c.84-.95,1.1-1.26,2-2.25,1.14,1,1.49,1.22,2.55,2.17.27.27.38.42.38.57s-.19.38-.95.84v5.43c0,4.82,0,4.82.15,9a.79.79,0,0,1-.68.84,7.385,7.385,0,0,1-2,.27c-.91,0-1.14-.16-1.14-.76V52.79h-3v3.57a.72.72,0,0,1-.58.76,10.892,10.892,0,0,1-2.24.26c-.79,0-1.1-.19-1.1-.72.12-5.51.19-8.4.19-8.7V42.34a28.679,28.679,0,0,1-3.49,3.84l-.27-.31a46.578,46.578,0,0,0,5.74-18.2h-2.25a9.463,9.463,0,0,0-2.2.23l-.23-1.33a9.179,9.179,0,0,0,2.43.3h6.08c1.07-1.29,1.37-1.67,2.47-2.85,1.56,1.3,2,1.71,3.54,3.12.15.15.19.23.19.34s-.15.19-.42.19Zm-2.69,24.32h3.07V38.83h-3.07Zm24.12-13h.38c.87-1.22,1.18-1.56,2.13-2.74,1.33,1.25,1.71,1.67,3,3,.15.15.19.23.19.34s-.15.19-.38.19h-5.32v4.72c0,4.74,0,5.2.19,13.18a.74.74,0,0,1-.594.862l-.056.008a13.157,13.157,0,0,1-2.65.23c-1,0-1.26-.15-1.26-.8.19-8.13.19-8.7.19-13.48V39.81h-4.6c-.3,6.73-1,9.73-3.07,12.81s-4.45,4.79-8.78,6.61l-.23-.38a18.987,18.987,0,0,0,4.3-4.14,18.712,18.712,0,0,0,3.3-9c.19-1.41.3-3.39.38-5.86h-1.14a12.775,12.775,0,0,0-2,.19l-.23-1.25a9.156,9.156,0,0,0,2.36.27h1.06v-12h-.19a15.714,15.714,0,0,0-2.47.19l-.23-1.33a10.341,10.341,0,0,0,2.74.34h11.51c.91-1,1.82-1.94,2.66-2.81,1.6,1.22,2.05,1.63,3.61,3,.19.16.26.27.26.38s-.22.27-.49.27h-4.56Zm-8.62-12c0,6.61,0,9.57-.12,12h4.56v-12Z"/><path class="cls-2" d="M411.09,44.31a24.667,24.667,0,0,0,.34-4.07,11.726,11.726,0,0,0-.11-1.9c1.29.11,2.28.19,2.92.27h.15c2.28.19,3.19.45,3.19.83s-.53.69-1.74,1c-.23,2-.35,2.7-.53,3.8l4.75-.08,2.16-2.24,1.71,1.18c.34.27.84.61,1.52,1.06.38.31.53.5.53.69s-.26.49-.68.76a6.613,6.613,0,0,0-.8.49v7.64c0,.68.11.8,1.1.8a11.365,11.365,0,0,0,3.19-.27c.61-.19,1.11-1.1,1.71-3.12.38-1.32.42-1.44,1.33-4.52l.46.08-.23,6a.379.379,0,0,1,0,.15c0,.76.07.92.61,1.14A1.79,1.79,0,0,1,434,55.79c0,1.29-.95,2-2.89,2.09-1.71.15-4.26.23-6.08.23a8.832,8.832,0,0,1-3.72-.5,2.271,2.271,0,0,1-1-2.16L420.42,45l-5.28.08c-.87,4.14-2.39,6.83-5.2,9.19a19.01,19.01,0,0,1-6.42,3.46c-1.14.34-1.71.49-4.52,1.18l-.16-.35c7.45-3.34,10.64-6.91,12.05-13.41l-6.8.08a19.263,19.263,0,0,0-2.17.22l-.38-1.29a14.775,14.775,0,0,0,2.51.23h.19Zm3-14.44a12.774,12.774,0,0,1-.91,4c-1.75,4.44-6.54,7.33-13.64,8.2l-.19-.41c4.26-1.49,6.46-2.93,8.32-5.4a10.6,10.6,0,0,0,2.17-6.38h-5.2v.64a8,8,0,0,1-.65,3.54,3.65,3.65,0,0,1-3,2.24c-1.14,0-2-1.1-2-2.66a1.69,1.69,0,0,1,1.21-1.86c2.13-1.07,2.93-2.21,3.5-5.06h.42a13.011,13.011,0,0,1,.41,2.36h9.24V26.65a16.863,16.863,0,0,0-.16-2.47c4.79.46,5.13.49,5.59.65s.57.26.57.45c0,.38-.53.69-1.6,1v2.81h8.36c.95-1,1.26-1.33,2.28-2.32,1.79,1.37,2.32,1.83,4.07,3.31.34.34.45.45.45.64,0,.38-.45.61-1.25.61a12.814,12.814,0,0,1-1.45-.07c-1.86,1.14-3.95,2.35-5.12,2.92l-.35-.19a30.007,30.007,0,0,0,1.68-4.1h-5.3v5.76c0,.6.19.72,1.21.79h3.38c1.75,0,2.36-.15,2.78-.68a22.551,22.551,0,0,0,1.78-3.57h.38l-.15,2.59v.26c0,.72,0,.72,1,1.14a1.24,1.24,0,0,1,.91,1.22c0,1.14-.72,1.71-2.58,1.94-.54.07-3.65.19-4.72.19H425c-.45,0-1.71,0-3.61-.08-2.92,0-3.76-.61-3.76-2.43V29.84Z"/><path class="cls-2" d="M457.22,34.58a50.719,50.719,0,0,1-5.47,6c4.37-.08,5.13-.08,13-.57a29.472,29.472,0,0,0-4.1-4l.19-.27a36.548,36.548,0,0,1,6.76,2.47c2.32,1.22,3.19,2.25,3.19,3.73s-.87,3.11-1.82,3.11c-.46,0-.8-.34-1.6-1.67a20.066,20.066,0,0,0-1.82-2.47c-5.43,1.26-5.43,1.26-7.83,1.67-2.85.5-9,1.41-11.89,1.75-.15,1.06-.38,1.52-.8,1.52s-.83-1-1.74-5.51a55.753,55.753,0,0,0,6.64.23,32.782,32.782,0,0,0,2.06-6h-3.46a13.567,13.567,0,0,0-2.51.27l-.3-1.33a15.669,15.669,0,0,0,2.81.26h15.65c1-1.18,1.37-1.52,2.43-2.62l1.18.84a15.761,15.761,0,0,0,.53-2.59H445.64a9.668,9.668,0,0,1-.72,4.33,3.309,3.309,0,0,1-2.7,2.17,2.489,2.489,0,0,1-2.24-2.66,1.578,1.578,0,0,1,.57-1.37c.15-.11.15-.11,1.06-.68a6.561,6.561,0,0,0,2.36-2.28,7.859,7.859,0,0,0,.72-2.74h.46a8,8,0,0,1,.49,2.48h9.16V26.53a20.235,20.235,0,0,0-.16-2.88c5.16.35,6.19.54,6.19,1.07,0,.38-.53.68-1.79,1v2.93h9c.91-1,1.22-1.29,2.16-2.28,1.9,1.3,2.48,1.71,4.26,3.08.31.27.42.42.42.65a.529.529,0,0,1-.31.42,3.709,3.709,0,0,1-1,.19H472.2c-.45.27-.91.5-1.14.61-1.78.95-1.82.95-2.39,1.25l2,1.52c.15.08.23.19.23.27a.25.25,0,0,1-.23.19Zm7.71,14.59c1.45-1.56,1.45-1.56,2.78-3,1.82,1.32,2.39,1.74,4.25,3.26.11.12.15.19.15.27a.332.332,0,0,1-.3.23H459.04v6.72h8.48c1.25-1.4,1.63-1.82,2.92-3.15,1.82,1.33,2.43,1.79,4.41,3.38.15.15.26.27.26.38s-.11.19-.26.19H443.73a21.322,21.322,0,0,0-3.11.27l-.31-1.37a19.025,19.025,0,0,0,3.46.3h11.05V49.97h-8.28a15.748,15.748,0,0,0-2.81.22l-.3-1.29a20.255,20.255,0,0,0,3.11.27h8.28v-1.6a32.662,32.662,0,0,0-.18-3.83c1.14.11,2.12.22,2.66.3,2.81.27,3.3.38,3.3.8s-.23.49-1.56.95v3.38Z"/><path class="cls-2" d="M4.8,136.97a14.5,14.5,0,0,0,2.49.15H9.18a16.988,16.988,0,0,0,2.49-.15,49.126,49.126,0,0,0-.27,5v14.58a19.145,19.145,0,0,0,.24,3.39H8.79a18.86,18.86,0,0,0,.24-3.39V139.16H7.41a18.1,18.1,0,0,0-2.61.18Z"/><path class="cls-2" d="M24.84,154.94a4.762,4.762,0,0,0,1.08,1.92,4.89,4.89,0,0,0,3.78,1.41,5.18,5.18,0,0,0,4.83-2.76,11.989,11.989,0,0,0,1.29-3.86,33.771,33.771,0,0,0,.27-3.51,6,6,0,0,1-1.2,1.68,8.251,8.251,0,0,1-10.86.12,7.657,7.657,0,0,1-2-5.4c0-4.77,3.21-7.89,8.13-7.89a7.52,7.52,0,0,1,7.26,5,18.137,18.137,0,0,1,.87,6.24c0,4.17-.87,7.56-2.49,9.57a7.36,7.36,0,0,1-6.24,2.79,7.591,7.591,0,0,1-5-1.62,7.711,7.711,0,0,1-2.1-3Zm10.68-10.56a5.51,5.51,0,0,0-5.347-5.669c-.087,0-.175,0-.263,0a5.569,5.569,0,0,0-4.77,2.55,6.357,6.357,0,0,0-.78,3.15c0,3.39,2.07,5.52,5.34,5.52a5.549,5.549,0,0,0,5.813-5.273C35.518,144.565,35.52,144.472,35.52,144.38Z"/><path class="cls-2" d="M58.64,139.16a11.736,11.736,0,0,0-2.22,2.88,38.587,38.587,0,0,0-6.72,17.88H46.86a39.459,39.459,0,0,1,3.63-12,48.837,48.837,0,0,1,5.4-8.7H46.14a23.146,23.146,0,0,0-3.39.21v-2.55a23.555,23.555,0,0,0,3.42.21h9a26.264,26.264,0,0,0,3.48-.15Z"/><path class="cls-2" d="M65.76,154.94a4.762,4.762,0,0,0,1.08,1.92,4.89,4.89,0,0,0,3.78,1.41,5.179,5.179,0,0,0,4.83-2.76,11.989,11.989,0,0,0,1.29-3.86,33.771,33.771,0,0,0,.27-3.51,6,6,0,0,1-1.2,1.68,8.251,8.251,0,0,1-10.86.12,7.657,7.657,0,0,1-2-5.4c0-4.77,3.21-7.89,8.13-7.89a7.52,7.52,0,0,1,7.26,5,18.137,18.137,0,0,1,.87,6.24c0,4.17-.87,7.56-2.49,9.57a7.36,7.36,0,0,1-6.24,2.79,7.591,7.591,0,0,1-5-1.62,7.711,7.711,0,0,1-2.1-3Zm10.68-10.56a5.51,5.51,0,0,0-5.347-5.669c-.087,0-.175,0-.263,0a5.569,5.569,0,0,0-4.77,2.55,6.357,6.357,0,0,0-.78,3.15c0,3.39,2.07,5.52,5.34,5.52a5.549,5.549,0,0,0,5.813-5.273C76.438,144.565,76.44,144.472,76.44,144.38Z"/><path class="cls-2" d="M87.18,146.96a16.879,16.879,0,0,0-.09-1.77c.63.06,1.29.09,2.13.09h6.51v-4.89H88.64a24.671,24.671,0,0,1-5,6.12,4.71,4.71,0,0,0-1.44-1.44,19.555,19.555,0,0,0,6-8.07,11.845,11.845,0,0,0,.75-2.19l2.13.6c-.12.24-.21.45-.39.81l-1.05,2.43h14.88a15.729,15.729,0,0,0,2.7-.15v2a16.467,16.467,0,0,0-2.7-.15H97.74v4.89h5.43a16.214,16.214,0,0,0,2.67-.15v2a21.553,21.553,0,0,0-2.64-.12H97.74v5.88h7.56a20.2,20.2,0,0,0,3-.18v2.16a21.5,21.5,0,0,0-3-.18H97.74v5a13.656,13.656,0,0,0,.21,2.79H95.58a13.369,13.369,0,0,0,.18-2.79v-5H84.9a21.5,21.5,0,0,0-3,.18v-2.18a20.752,20.752,0,0,0,3,.18h2.28Zm8.55,5.91v-5.88h-6.6v5.88Z"/><path class="cls-2" d="M113.91,154.13a30.583,30.583,0,0,1,6,6.36l-1.68,1.59a29.952,29.952,0,0,0-5.91-6.54Z"/><path class="cls-2" d="M148.8,140.3a28.4,28.4,0,0,0-3.45.18V138.2a26.108,26.108,0,0,0,3.48.18h16a26.621,26.621,0,0,0,3.48-.18v2.28a28.806,28.806,0,0,0-3.45-.18h-7.22v17.13h9a22.394,22.394,0,0,0,3.51-.21v2.34a22.394,22.394,0,0,0-3.51-.21h-19.7a23.143,23.143,0,0,0-3.51.21v-2.34a22.533,22.533,0,0,0,3.54.21h8.46V140.3Z"/><path class="cls-2" d="M178.56,146.65a23.417,23.417,0,0,0-3.21.15v-1.85a21.794,21.794,0,0,0,3.21.15h4.35a18.06,18.06,0,0,0-1.59-3.39h-3.78a31.98,31.98,0,0,0-3.39.15v-1.92a23.454,23.454,0,0,0,3.33.18h2.07a15.78,15.78,0,0,0-2.46-3.18l1.71-.81a17.81,17.81,0,0,1,2.67,4h2.52v-2.31a14.559,14.559,0,0,0-.18-2.52h2a16.982,16.982,0,0,0-.12,2.49v2.34h3.18v-2.34a17.555,17.555,0,0,0-.12-2.49h2a13.989,13.989,0,0,0-.18,2.52v2.31h2.88a19.293,19.293,0,0,0,2.37-4.14l1.83.78a29.811,29.811,0,0,1-2.25,3.36h1.8a23.291,23.291,0,0,0,3.36-.18v1.92a31.98,31.98,0,0,0-3.39-.15h-3.54a33.963,33.963,0,0,1-1.62,3.39h4.26a22.486,22.486,0,0,0,3.24-.15v1.86a23.7,23.7,0,0,0-3.24-.15h-8.16v2.19h6.3a22.486,22.486,0,0,0,3.24-.15v1.83a23.381,23.381,0,0,0-3.24-.15h-6.3v2.26h9.09a22.472,22.472,0,0,0,3.42-.18v1.95a28.643,28.643,0,0,0-3.39-.18h-7.86c2.58,2.43,6.84,4.29,11.91,5.19a7.024,7.024,0,0,0-1.17,1.86,32.159,32.159,0,0,1-7.35-2.82,19.644,19.644,0,0,1-4.77-3.66c.09,1.35.12,1.89.12,2.55v2a22.6,22.6,0,0,0,.18,3.12h-2.16a19.755,19.755,0,0,0,.18-3.15v-2a21.429,21.429,0,0,1,.12-2.52c-2.94,3.06-5.79,4.68-11.28,6.45a6.231,6.231,0,0,0-1.23-1.74c4.95-1.11,8.16-2.64,11.13-5.31H177.7a28.224,28.224,0,0,0-3.39.18v-1.95a22.865,22.865,0,0,0,3.39.18h8.61v-2.31h-5.94a22.951,22.951,0,0,0-3.21.15v-1.83a22.951,22.951,0,0,0,3.21.15h5.94v-2.13Zm11.58-1.56a15.388,15.388,0,0,0,1.53-3.39h-8.34a24.6,24.6,0,0,1,1.41,3.39Z"/><path class="cls-2" d="M219.72,147.02c-.36,7.77-2.88,11.43-9.66,14.07a5.252,5.252,0,0,0-1.41-2c6.21-2.07,8.55-5.28,8.79-12.12h-8.13a23.672,23.672,0,0,0-3.45.15v-2.17a19.851,19.851,0,0,0,3.48.18h17.55a19.659,19.659,0,0,0,3.48-.18v2.22a23.672,23.672,0,0,0-3.45-.15Zm-10.83-9.51a15.577,15.577,0,0,0,3.45.21h9.06a27.231,27.231,0,0,0,3.45-.15v2.16q-.581,0-3.42-.09h-9.12a20.905,20.905,0,0,0-3.42.15Zm17.58-2.52a23.339,23.339,0,0,1,2.94,4.74l-1.53.84a22.866,22.866,0,0,0-2.91-4.86Zm3.69-1.14a24.96,24.96,0,0,1,2.94,4.74l-1.53.84a23.473,23.473,0,0,0-2.93-4.78Z"/><path class="cls-2" d="M253.26,142.7v-2.94a21.123,21.123,0,0,0-.09-3.06h2.34a22.987,22.987,0,0,0-.12,2.85v3.15h2.58a20.5,20.5,0,0,0,3.51-.18v2.28a24.084,24.084,0,0,0-3.48-.15h-2.64c0,5.79-.36,8-1.47,10.17-1.62,3-4.32,5.1-8.37,6.48a5.379,5.379,0,0,0-1.35-1.89c3.93-1,7-3.33,8.16-6.36.66-1.8.84-3.6.9-8.4h-9.12v5a15.665,15.665,0,0,0,.12,2.43H241.8a14.347,14.347,0,0,0,.12-2.52v-4.91H239.4a24.084,24.084,0,0,0-3.48.15v-2.28a20.5,20.5,0,0,0,3.51.18h2.49v-3.48a14.743,14.743,0,0,0-.12-2.52h2.43a15.917,15.917,0,0,0-.12,2.43v3.57Zm5-7.89a23.843,23.843,0,0,1,2.13,4.92l-1.59.54a23.116,23.116,0,0,0-2.13-5Zm3.45-1a23.269,23.269,0,0,1,2.13,4.89l-1.56.54a24,24,0,0,0-2.1-4.92Z"/><path class="cls-2" d="M290.28,137.75a6.8,6.8,0,0,0-1.32,1.26,52.809,52.809,0,0,1-7,6v12.78a19.882,19.882,0,0,0,.15,3.18H279.5a15.665,15.665,0,0,0,.18-3.12v-11.4a46.884,46.884,0,0,1-11.58,5.25,7,7,0,0,0-1.17-2,42.225,42.225,0,0,0,15.57-7.77,25.189,25.189,0,0,0,5.73-5.67Z"/><path class="cls-2" d="M299.7,157.49a26.114,26.114,0,0,0,8.73-2.31c5.79-2.58,9.81-7,12.24-13.35a5.989,5.989,0,0,0,1.83,1.77c-2.4,5.22-5.19,8.73-9.15,11.46-3.09,2.1-6.18,3.33-11.19,4.47a15.753,15.753,0,0,0-1.8.48Zm1.92-18.6a39.087,39.087,0,0,1,7.23,5.64l-1.56,1.86a33.149,33.149,0,0,0-7.14-5.88Z"/><path class="cls-2" d="M328.92,140.24H330a14.725,14.725,0,0,0,1.71-.09c1.68-.12,1.86-.15,5.55-.36l4.71-.3c3.69-.21,4.08-.24,5.07-.27l1.71-.06a20.264,20.264,0,0,0,3.57-.33l.18,2.22a12.573,12.573,0,0,0-3.36.42,14.76,14.76,0,0,0-5.76,3,9.17,9.17,0,0,0-3.69,6.93c0,2.52,1.53,4.53,4.2,5.55a15.381,15.381,0,0,0,4.5,1h.3l-.39,2.43c-.33-.06-.39-.09-.93-.18a15.131,15.131,0,0,1-6.48-2.31,7.261,7.261,0,0,1-3.33-6.12c0-3.48,2-6.78,5.61-9.21a19.612,19.612,0,0,1,2.85-1.59,61.378,61.378,0,0,1-6.6.66,99.711,99.711,0,0,0-10.35,1Zm20.07,4.47a22.736,22.736,0,0,1,3.09,4.65l-1.53.9a21.1,21.1,0,0,0-3.06-4.77Zm3.39-1.65a24.326,24.326,0,0,1,3.09,4.68l-1.5.84a23.706,23.706,0,0,0-3.06-4.71Z"/><path class="cls-2" d="M362.22,139.65a20.932,20.932,0,0,0-.15-2.94,24.591,24.591,0,0,0,3.21.15h13.5a21.853,21.853,0,0,0,3.09-.15,18.865,18.865,0,0,0-.15,2.76V158.7a22.957,22.957,0,0,0,.18,3.21h-2.19v-1.95H364.23v1.95h-2.19a23.154,23.154,0,0,0,.18-3.18Zm2,7.44H379.7v-8.4H364.23Zm0,11H379.7v-9.21H364.23Z"/><path class="cls-2" d="M393.09,142.28a29.83,29.83,0,0,0-3.3.18v-2.19a22.34,22.34,0,0,0,3.3.21h8.4v-2.55a16.98,16.98,0,0,0-.21-2.73h2.36a16.07,16.07,0,0,0-.21,2.7v2.58h8.85a19.674,19.674,0,0,0,3.36-.21v2.19a32.513,32.513,0,0,0-3.36-.18h-8.1c3.36,6.06,7.38,10.26,12.36,13a8.008,8.008,0,0,0-1.38,1.95,34,34,0,0,1-6.24-5.25,28.556,28.556,0,0,1-5.61-8.43c.09,1.8.12,2.91.12,3.9v6.81h3.27a17.7,17.7,0,0,0,2.91-.15v2.1a16.547,16.547,0,0,0-3-.18h-3.17v2.85a22.363,22.363,0,0,0,.21,3.45h-2.37a23.815,23.815,0,0,0,.21-3.48v-2.82h-2.85a16.922,16.922,0,0,0-3,.18v-2.1a18.128,18.128,0,0,0,3,.15h2.94v-6.81c0-1.11,0-2.25.12-3.87a27.984,27.984,0,0,1-5.67,8.67,32.077,32.077,0,0,1-5.7,5,5.662,5.662,0,0,0-1.41-1.77,27.368,27.368,0,0,0,7-6.09,32.8,32.8,0,0,0,4.89-7.11Z"/><path class="cls-2" d="M421.17,140.24h1.08a14.725,14.725,0,0,0,1.71-.09c1.68-.12,1.86-.15,5.55-.36l4.71-.3c3.69-.21,4.08-.24,5.07-.27l1.71-.06a20.264,20.264,0,0,0,3.57-.33l.18,2.22a12.573,12.573,0,0,0-3.36.42,14.76,14.76,0,0,0-5.76,3,9.17,9.17,0,0,0-3.69,6.93c0,2.52,1.53,4.53,4.2,5.55a15.381,15.381,0,0,0,4.5,1h.3l-.39,2.43c-.33-.06-.39-.09-.93-.18a15.131,15.131,0,0,1-6.48-2.31,7.261,7.261,0,0,1-3.33-6.12c0-3.48,2-6.78,5.61-9.21a19.612,19.612,0,0,1,2.85-1.59,61.378,61.378,0,0,1-6.6.66,99.711,99.711,0,0,0-10.35,1Zm20.07,4.47a22.736,22.736,0,0,1,3.09,4.65l-1.53.9a21.1,21.1,0,0,0-3.06-4.77Zm3.39-1.65a24.326,24.326,0,0,1,3.09,4.68l-1.5.84a23.706,23.706,0,0,0-3.06-4.71Z"/><path class="cls-2" d="M453.42,148.25a14.88,14.88,0,0,0-2.7.18v-1.95a12.869,12.869,0,0,0,2.73.18h21.54a13.717,13.717,0,0,0,2.79-.18v1.95a15.365,15.365,0,0,0-2.76-.18H463.56v11.4a13.575,13.575,0,0,0,.18,2.79h-2.1a16.083,16.083,0,0,0,.18-2.79v-.75c-3.81.69-3.81.69-8.43,1.32-.78.12-1.35.21-2.22.42l-.48-2h.51c.51,0,1.53-.06,2.79-.18V148.25Zm20.82-5.6a17.374,17.374,0,0,0,.12,2.37c-1-.09-1.92-.12-3.09-.12H457.53a27.148,27.148,0,0,0-3.24.12,18.039,18.039,0,0,0,.12-2.37v-4.08a18.15,18.15,0,0,0-.12-2.4c1,.09,1.89.12,3.27.12h13.56a26.146,26.146,0,0,0,3.24-.12,17.653,17.653,0,0,0-.12,2.4Zm-18.45,7.77h6.06v-2.17h-6.06Zm0,3.63h6.06v-2.22h-6.06Zm0,4.23c2.55-.27,3.45-.42,6.06-.9v-1.92h-6.06Zm.39-18.36h16.29v-2.1H456.18Zm0,3.54h16.29v-2.1H456.18Zm19.86,7.92a9.269,9.269,0,0,0-.54.87,21.264,21.264,0,0,1-3.69,5.16,17.9,17.9,0,0,0,5.79,3.06,8.865,8.865,0,0,0-1.14,1.65,20.831,20.831,0,0,1-5.91-3.54,20.237,20.237,0,0,1-5.19,3.3,5,5,0,0,0-1.17-1.53,17.684,17.684,0,0,0,5.16-2.94,15.147,15.147,0,0,1-3.3-5.49l-1.47.12v-1.77a18.724,18.724,0,0,0,2.55.12h5.58a13.371,13.371,0,0,0,2.28-.12Zm-8.31.54a13.46,13.46,0,0,0,2.82,4.38,17.759,17.759,0,0,0,3.15-4.38Z"/><path class="cls-2" d="M494.4,146.36a48.026,48.026,0,0,1-3.45,4.29c.87.6,1.32.87,2.46,1.53a6.414,6.414,0,0,0-1.08,1.47,32.19,32.19,0,0,1-4.47-3.54v8.67a23,23,0,0,0,.18,3.48h-2.16a27.258,27.258,0,0,0,.18-3.51V150.2a27.8,27.8,0,0,1-4.32,3.69,5.859,5.859,0,0,0-1.08-1.62,25.785,25.785,0,0,0,4.89-3.93,20.922,20.922,0,0,0,4.44-6.48h-5.28a21.893,21.893,0,0,0-2.85.15v-2a12.591,12.591,0,0,0,2.85.15h1.35v-2.51a15.007,15.007,0,0,0-.18-2.46h2.22a11.029,11.029,0,0,0-.18,2.46v2.61h1.23a15.109,15.109,0,0,0,2.25-.12l.93,1.11c-.12.18-.33.63-.6,1.14a26.088,26.088,0,0,1-3.81,5.79,12.668,12.668,0,0,0,1.74,1.59,20.451,20.451,0,0,0,3.24-4.47Zm1.74-7.11a24,24,0,0,0-3.39.18v-2.07a24,24,0,0,0,3.39.18h8.37a21.553,21.553,0,0,0,2.94-.15,28.2,28.2,0,0,0-.15,3.21c-.15,9.09-.57,15.45-1.2,18.21-.45,2.07-1.26,2.7-3.48,2.7a33.414,33.414,0,0,1-4-.21,6.153,6.153,0,0,0-.48-2.07,31.8,31.8,0,0,0,4.2.42c1.44,0,1.71-.27,2-2a140.677,140.677,0,0,0,1-18.42h-5.6a45.938,45.938,0,0,1-1.2,10.86,22.38,22.38,0,0,1-7,11.79,7.064,7.064,0,0,0-1.5-1.5,18.8,18.8,0,0,0,6.48-10.32,41.543,41.543,0,0,0,1.2-10.83Z"/><path class="cls-2" d="M518.91,137.06a42.5,42.5,0,0,0-1.26,4.8,44.326,44.326,0,0,0-.9,9.39c0,2.34.06,4.11.18,5.7a27.872,27.872,0,0,1,2-5.85l1.44.69c-1.35,3-2.43,6.57-2.43,8.25v.45l-2.16.18c-.06-.48-.09-.63-.18-1.2a42.96,42.96,0,0,1-.78-8.49,49.654,49.654,0,0,1,1.35-11.88,16.693,16.693,0,0,0,.42-2.4Zm7.65,12.06c-1.5,1.65-2.25,3.09-2.25,4.41,0,2.22,1.89,3.3,5.76,3.3a19.734,19.734,0,0,0,6.9-1l.3,2.31a5.15,5.15,0,0,0-1,.15,31.048,31.048,0,0,1-6.15.6c-3.42,0-5.58-.72-6.87-2.28a4.244,4.244,0,0,1-.9-2.76c0-1.83.75-3.45,2.61-5.58Zm-3.81-8.88a20.368,20.368,0,0,0,5.1.45,32.224,32.224,0,0,0,8-.81l.15,2.13-2.07.27a50.75,50.75,0,0,1-6.45.39,40.114,40.114,0,0,1-4.8-.3Z"/><path class="cls-2" d="M552.24,135.35a12.3,12.3,0,0,0,2.19,2.34,21.521,21.521,0,0,0,4.35,3,7.017,7.017,0,0,0-1,1.65,23.58,23.58,0,0,1-6.48-5.49,19.836,19.836,0,0,1-3.06,3.75,30.22,30.22,0,0,1-4.56,3.69,5.408,5.408,0,0,0-1.26-1.5,25.641,25.641,0,0,0,5.82-4.74,13.978,13.978,0,0,0,2-2.7Zm-5.31,16.95a21.739,21.739,0,0,1-2.94,8.88,7.009,7.009,0,0,0-1.53-1.35c2.19-3.39,3-7,3-13.14a23.717,23.717,0,0,0-.12-2.82,27.707,27.707,0,0,0,2.91.12h6.72a19.458,19.458,0,0,0,2.34-.12,16.386,16.386,0,0,0-.12,2.28v4a15.382,15.382,0,0,0,.12,2.25c-.72-.06-1.2-.09-2.16-.09Zm1.86,8.46v1.47H546.9a20.319,20.319,0,0,0,.15-2.49v-3.3a17.193,17.193,0,0,0-.09-2.37,20.125,20.125,0,0,0,2.25.09h6.3a15.965,15.965,0,0,0,2.13-.12,15.666,15.666,0,0,0-.12,2.25v3a14.773,14.773,0,0,0,.15,2.46h-1.89v-1Zm-1.59-12a16.813,16.813,0,0,1-.15,2.07h8.49v-2.07Zm8.34-1.44v-1.86h-8.31v1.86Zm-7.26-6.67a9.519,9.519,0,0,0,1.8.12h3.09a9.207,9.207,0,0,0,1.77-.12v1.68a8.292,8.292,0,0,0-1.65-.12h-3.27a8.894,8.894,0,0,0-1.74.12Zm.54,18.63h6.93v-3.63h-6.93Zm13.82-21.95a17.04,17.04,0,0,0-.18,3.27v11.46a20.289,20.289,0,0,0,.15,3.36h-2.19a21.2,21.2,0,0,0,.15-3.36V140.65a21.281,21.281,0,0,0-.18-3.27Zm6.36-1.95a21.4,21.4,0,0,0-.21,3.63v19.92c0,2.19-.6,2.64-3.54,2.64a27,27,0,0,1-2.76-.12,5.8,5.8,0,0,0-.54-1.92,22.189,22.189,0,0,0,3.63.3c1.05,0,1.29-.18,1.29-.9V139.04a21.961,21.961,0,0,0-.21-3.66Z"/><path class="cls-2" d="M588.24,158.48c2.31-4.83,4.59-11.52,5-14.88l2.31.78a33.305,33.305,0,0,0-1.2,3.63,79.938,79.938,0,0,1-4,10.47h6.93a24.592,24.592,0,0,0,3.3-.18v2.28a19.8,19.8,0,0,0-3.3-.21h-20a21.631,21.631,0,0,0-3.45.21V158.3a26.869,26.869,0,0,0,3.45.18Zm-2.25-20.61a14.081,14.081,0,0,0-.21-2.46h2.37a13.742,13.742,0,0,0-.21,2.43v2.46h8a21.287,21.287,0,0,0,3.45-.21v2.25a27.612,27.612,0,0,0-3.45-.18H578.37a25.731,25.731,0,0,0-3.33.18v-2.25a18.935,18.935,0,0,0,3.33.21h7.62Zm-5,6.06a69.468,69.468,0,0,1,3.24,11.85l-1.95.75a58.412,58.412,0,0,0-3.22-11.88Z"/><path class="cls-2" d="M607.38,142.04a13.131,13.131,0,0,0,2.31.15,70,70,0,0,0,8.94-.63c-.45-1-.93-2.22-1.47-3.57-.33-.78-.51-1.2-.78-1.74l2.37-.33a9.584,9.584,0,0,0,.89,2.73,24.606,24.606,0,0,0,1.08,2.64,35.146,35.146,0,0,0,7.26-1.89l.3,2.13c-.63.12-.87.18-1.77.42-1.8.48-2.16.57-4.05.93l-1,.21a55.558,55.558,0,0,0,5.4,8.73l-2,1.14a6,6,0,0,0-2.07-1.23,16.26,16.26,0,0,0-5.25-.78,10.629,10.629,0,0,0-5.7,1.26,3.409,3.409,0,0,0-1.62,2.79,3,3,0,0,0,1.14,2.34c1.11.87,3.27,1.38,5.85,1.38a19.772,19.772,0,0,0,8.52-1.92l.33,2.31a24.868,24.868,0,0,1-8.82,1.62c-3.66,0-6.42-.81-7.8-2.25a4.843,4.843,0,0,1-1.35-3.3,5.611,5.611,0,0,1,3.39-4.89,12.751,12.751,0,0,1,5.82-1.11,14.994,14.994,0,0,1,6.21,1.08,36.583,36.583,0,0,1-3.6-5.88c-.33-.63-.33-.69-.51-1a88.32,88.32,0,0,1-10.68.78,6.648,6.648,0,0,0-1.17.09Z"/><path class="cls-2" d="M635.82,154.22a46.073,46.073,0,0,0,5.28-5.07c0-1.2.09-3.09.18-5.73a30.6,30.6,0,0,0-4.71.42l-.12-2.07a6.029,6.029,0,0,0,.93.06l3.93-.24c.09-2.28.12-3.63.12-4a12.139,12.139,0,0,0-.09-1.5h2.37a34.943,34.943,0,0,0-.36,5.34,2,2,0,0,0,.6-.15l.78.93a10.343,10.343,0,0,0-1.53,1.86,5.215,5.215,0,0,1,0,.75c0,.6,0,.6-.06,2a1.522,1.522,0,0,1,0,.27v.48h.06a21.393,21.393,0,0,1,3.81-3.51c2.73-2.19,5-3.3,6.78-3.3a3.26,3.26,0,0,1,3.51,3.51,19.983,19.983,0,0,1-.69,4.38c-1.11,4.83-1.29,5.88-1.29,7.11s.63,2.13,1.8,2.13a3.622,3.622,0,0,0,2.55-1.65,12.354,12.354,0,0,0,1.71-3.45,9.851,9.851,0,0,0,1.38,2,14.8,14.8,0,0,1-1.86,3,5.162,5.162,0,0,1-4.14,2.16,3.7,3.7,0,0,1-2.1-.63c-1-.69-1.41-1.74-1.41-3.42,0-1.53.06-1.86,1.14-7a22.492,22.492,0,0,0,.75-4.5,1.519,1.519,0,0,0-1.41-1.622,1.48,1.48,0,0,0-.24,0c-1.17,0-2.61.66-4.53,2a48.616,48.616,0,0,0-5.79,5.1v6.48a46.339,46.339,0,0,0,.09,5h-2.34a25.605,25.605,0,0,0,.21-4.95c0-3.51,0-3.51.09-4.86h-.06a3.357,3.357,0,0,1-.54.72l-1.47,1.65-1.26,1.41a6.292,6.292,0,0,0-.78,1Z"/><path class="cls-2" d="M667.8,141.26a20.652,20.652,0,0,0,3.75.27c.6,0,.93,0,1.8-.06a29.373,29.373,0,0,0,.66-5.52l2.37.24a28.115,28.115,0,0,0-.54,2.85c-.15,1-.24,1.38-.39,2.28a24.731,24.731,0,0,0,5.4-1l.15,2.07a2.574,2.574,0,0,0-.84.15,43.75,43.75,0,0,1-5.07.72c-.45,2.37-1.29,5.76-2.1,8.49a79.015,79.015,0,0,1-3.45,9.15l-2.19-.93c2.22-3.87,4.53-10.71,5.64-16.59h-2.07c-1.07,0-1.32,0-2.49-.06h-.12a4.339,4.339,0,0,0-.51,0Zm13.41,10.89a10.086,10.086,0,0,0-.9,1.14,3.615,3.615,0,0,0-.75,2.13c0,1.8,1.83,2.76,5.25,2.76a22.276,22.276,0,0,0,6.63-1l.21,2.25-1.32.21a29.988,29.988,0,0,1-5.34.51c-4.92,0-7.47-1.53-7.47-4.5,0-1.35.42-2.28,2-4.32Zm9.27-5.19a30.134,30.134,0,0,0-3.54-.21,26.087,26.087,0,0,0-7.5,1l-.21-2a33.983,33.983,0,0,1,7.95-1c.57,0,1,0,3.27.09Z"/><path class="cls-2" d="M711.39,135.53a20.545,20.545,0,0,0-.15,2.67,38.971,38.971,0,0,0,.66,6.51,24.633,24.633,0,0,0,8.31,13.14,22.043,22.043,0,0,0,3.48,2.34,6.83,6.83,0,0,0-1.56,1.89,27.469,27.469,0,0,1-8-7.68,25.866,25.866,0,0,1-3.9-9.54,25.43,25.43,0,0,1-2.07,6.69,20.17,20.17,0,0,1-4.29,6.15,25.507,25.507,0,0,1-5.52,4.38,5.724,5.724,0,0,0-1.62-1.77,21.191,21.191,0,0,0,6.12-4.53c4.17-4.47,6.21-10.23,6.21-17.61a20.423,20.423,0,0,0-.12-2.64Z"/><path class="cls-2" d="M730.74,158.87a21.693,21.693,0,0,0,.18,3.36H728.7a22.464,22.464,0,0,0,.18-3.36V139.49a25.934,25.934,0,0,0-.12-3.3,27.61,27.61,0,0,0,3.15.12h4.29a26.5,26.5,0,0,0,3.06-.12c-.06.84-.09,1.74-.09,2.85v3.72a24.894,24.894,0,0,0,.09,2.79c-.81-.06-1.83-.09-3-.09h-5.52Zm0-18.69h6.72v-2.4h-6.72Zm0,3.84h6.72v-2.43h-6.72Zm15.75,11.37a23.758,23.758,0,0,0,.09,2.73c-.84-.06-1.83-.09-3.06-.09h-6.57v2.1h-1.86a18.466,18.466,0,0,0,.15-2.82v-6.66a26.9,26.9,0,0,0-.09-2.82,26.833,26.833,0,0,0,3,.12h5.49a26.363,26.363,0,0,0,3-.12c-.06.84-.09,1.62-.09,2.82Zm-9.54-3.27h7.83v-2.67h-7.83Zm0,4.41h7.83v-2.88h-7.83Zm16.08,2.79c0,2-.63,2.49-3.06,2.49-.63,0-2.25-.06-3-.12a6.892,6.892,0,0,0-.54-1.92,32.57,32.57,0,0,0,3.3.3c1.23,0,1.47-.15,1.47-.87V145.46h-6.15a28.386,28.386,0,0,0-3,.09c.06-.78.09-1.68.09-2.79v-3.72c0-1,0-1.95-.09-2.85a26.05,26.05,0,0,0,3.06.12h4.95a27.61,27.61,0,0,0,3.15-.12,28.411,28.411,0,0,0-.15,3.3Zm-9.21-19.14h7.38v-2.4h-7.38Zm0,3.84h7.38v-2.43h-7.38Z"/><path class="cls-2" d="M7.05,197.3a28.4,28.4,0,0,0-3.45.18V195.2a26.108,26.108,0,0,0,3.48.18h16a26.621,26.621,0,0,0,3.48-.18v2.28a28.806,28.806,0,0,0-3.45-.18H15.84v17.13H24.9a22.394,22.394,0,0,0,3.51-.21v2.34a22.394,22.394,0,0,0-3.51-.21H5.19a23.143,23.143,0,0,0-3.51.21v-2.34a22.533,22.533,0,0,0,3.54.21h8.42V197.3Z"/><path class="cls-2" d="M48.23,216.83c0,1.86-.57,2.22-3.36,2.22-.84,0-2.4-.06-3.45-.18a9,9,0,0,0-.63-1.92,31.153,31.153,0,0,0,3.93.33c1.38,0,1.59-.09,1.59-.72v-6h-9a23.035,23.035,0,0,0-3.15.18v-2.09a22.293,22.293,0,0,0,3.12.18h9v-.51a11.863,11.863,0,0,0-.09-1.77h1.26a25.193,25.193,0,0,0,5.37-3.39h-11a26.605,26.605,0,0,0-2.85.15v-1.96a27.2,27.2,0,0,0,2.91.15H52.76a12.977,12.977,0,0,0,2.22-.12l1.14,1.2a9.515,9.515,0,0,0-1,.87,34.115,34.115,0,0,1-6.84,4.44v.93h8.86a21.965,21.965,0,0,0,3.15-.18v2.07a22.835,22.835,0,0,0-3.18-.18H48.23ZM40.13,197a20.071,20.071,0,0,0-2.82-3.9l1.8-.57a28.565,28.565,0,0,1,3.06,4.44h4.38a17.744,17.744,0,0,0-2.19-4.32l1.86-.51a25.68,25.68,0,0,1,2.28,4.83h3.3a17.888,17.888,0,0,0,3.09-4.83l1.89.81a28.031,28.031,0,0,1-2.88,4h2.34a34.245,34.245,0,0,0,3.45-.12,19.541,19.541,0,0,0-.12,2.49v2.22a16.4,16.4,0,0,0,.15,2.1h-2v-5H36.56v5h-2a15.692,15.692,0,0,0,.15-2.1v-2.22a19.4,19.4,0,0,0-.07-2.47,26.76,26.76,0,0,0,3.42.15Z"/><path class="cls-2" d="M78.07,209.12c-1.74,4-3.51,5.76-5.67,5.76-2.85,0-5-3.12-5-7.32a12.179,12.179,0,0,1,12.072-12.287q.384,0,.768.017a11.611,11.611,0,0,1,8.25,3,10,10,0,0,1,2.91,7.32,10.921,10.921,0,0,1-6.87,10.35,23.212,23.212,0,0,1-4.56,1.38,4.766,4.766,0,0,0-1-2,18.022,18.022,0,0,0,5-1.41,9.058,9.058,0,0,0,5.31-8.4A7.91,7.91,0,0,0,84.51,198a8.622,8.622,0,0,0-3.48-.75A45.02,45.02,0,0,1,78.07,209.12Zm-3.69-10.47a10.367,10.367,0,0,0-4.89,8.94c0,2.88,1.26,5.1,2.88,5.1,1.26,0,2.46-1.41,3.75-4.35a41.217,41.217,0,0,0,2.73-11.1A9.469,9.469,0,0,0,74.38,198.65Z"/><path class="cls-2" d="M101.01,195.14a12.816,12.816,0,0,0-2.58.18v-2a16.052,16.052,0,0,0,2.7.18h4.89a11.7,11.7,0,0,0,2.52-.18v2a19.725,19.725,0,0,0-2.43-.12h-1.86a29.363,29.363,0,0,1-2.07,7.62h3.75a13.761,13.761,0,0,0,1.86-.09,22.36,22.36,0,0,0-.09,2.4v9.27a19.644,19.644,0,0,0,.12,2.52h-1.89v-1.5h-3.72v3.18h-2a18.163,18.163,0,0,0,.18-2.91v-6.66c0-1.08,0-2,.09-3.36a13.719,13.719,0,0,1-2.25,3.66,5.009,5.009,0,0,0-1.08-1.8,20.406,20.406,0,0,0,4.14-7.62,21.006,21.006,0,0,0,1-4.71Zm1.2,18.6h3.72v-9.39h-3.72Zm10.43-18.6a19.531,19.531,0,0,0-2.91.18v-2.07a18.355,18.355,0,0,0,3,.18h9.48a20.064,20.064,0,0,0,3-.18v2.07a15.746,15.746,0,0,0-2.91-.18h-.66v8.31h1a15.856,15.856,0,0,0,3-.18v2.13a19.546,19.546,0,0,0-3-.18h-1v10.77a22.673,22.673,0,0,0,.21,3.21h-2.31a22.381,22.381,0,0,0,.21-3.21V205.22H114.8c-.3,6.69-1.59,10.32-5,14.28a5.445,5.445,0,0,0-1.74-1.35c3.15-3,4.56-6.75,4.83-12.93h-.84a16.735,16.735,0,0,0-3,.18v-2.1a19.538,19.538,0,0,0,3,.15h.9v-8.31Zm2.19,7.29v1h4.89v-8.31h-4.89Z"/><path class="cls-2" d="M146.57,207.11a26.557,26.557,0,0,0,3.36-.15c-.06.66-.09,1.29-.12,2.64l-.12,6.09c0,.9.33,1,2.67,1,2.1,0,2.7-.15,2.91-.69a17.522,17.522,0,0,0,.48-4.5,7.335,7.335,0,0,0,1.95.78c-.48,6-.66,6.18-5.49,6.18-3.66,0-4.44-.39-4.44-2.4v-.15l.12-7h-5.58a11.5,11.5,0,0,1-2.34,4.95,13.234,13.234,0,0,1-3.21,2.88,20.2,20.2,0,0,1-5,2.46,4.628,4.628,0,0,0-1.32-1.71,18.726,18.726,0,0,0,5.76-2.7,9.8,9.8,0,0,0,4.17-5.88h-4.73a21.4,21.4,0,0,0-3.24.18v-2.13a20.251,20.251,0,0,0,3.18.18h5.16a21.266,21.266,0,0,0,.21-2.52,9.989,9.989,0,0,0-.12-1.62h2.28a9.116,9.116,0,0,0-.24,1.89c-.06.72-.12,1.47-.24,2.22Zm-4-12.69a9.275,9.275,0,0,0-.21-2.16h2.34a8.765,8.765,0,0,0-.21,2.16v.93h8.91a25.477,25.477,0,0,0,3-.15,13.518,13.518,0,0,0-.12,2.07v1.53a13.911,13.911,0,0,0,.12,2.1h-2v-3.84h-7.47v4.35c0,.36.06.51.21.6a5.9,5.9,0,0,0,1.92.21,5.541,5.541,0,0,0,2.43-.33c.33-.24.48-1,.51-2.43a6.266,6.266,0,0,0,1.8.57c-.15,1.89-.39,2.73-.9,3.18s-1.74.66-3.87.66c-3.15,0-3.9-.33-3.9-1.65v-5.16h-3.69a8.236,8.236,0,0,1-1.05,3.33,8.451,8.451,0,0,1-4.74,3.81,27.718,27.718,0,0,1-2.79.87,8.181,8.181,0,0,0-1.14-1.65c3.21-.6,4.71-1.2,6-2.4a5.673,5.673,0,0,0,1.83-4h-6.39v3.81h-2a14.453,14.453,0,0,0,.12-2.1v-1.5a13.518,13.518,0,0,0-.12-2.07,25.477,25.477,0,0,0,3,.15h8.31Z"/><path class="cls-2" d="M183.12,210.47a21.663,21.663,0,0,0,3.18-.15v2a22.231,22.231,0,0,0-3.18-.15h-6.36v4.23h8.82a22.826,22.826,0,0,0,3.75-.21v2.1a32.483,32.483,0,0,0-3.87-.18H166.74a32.739,32.739,0,0,0-3.86.18v-2.1a23.076,23.076,0,0,0,3.77.21h8.22v-4.25h-5.76a22.358,22.358,0,0,0-3.21.15v-2a21.523,21.523,0,0,0,3.21.15h5.76V210a14.922,14.922,0,0,0-.17-2.37h2.24a14.358,14.358,0,0,0-.18,2.37v.45Zm-8.34-16.44a10.821,10.821,0,0,0-.18-2h2.31a10.733,10.733,0,0,0-.17,2v.78h7.82a34.393,34.393,0,0,0,4-.12,13.547,13.547,0,0,0-.12,2.13v1.5a13.115,13.115,0,0,0,.12,2h-2v-3.87h-21v3.87h-2v-.36a13.964,13.964,0,0,0,.09-1.71v-1.59a15.188,15.188,0,0,0-.12-2q1.855.153,3.72.12h7.46Zm-4.44,7a24.213,24.213,0,0,0-3.51.15v-1.92a23.263,23.263,0,0,0,3.42.15h11.64a23.813,23.813,0,0,0,3.45-.15v1.92a23.828,23.828,0,0,0-3.42-.15h-7.71a28.6,28.6,0,0,1-2.43,4.17c3.33-.09,5.85-.24,10-.54a30.62,30.62,0,0,0-2.75-2.16l1.43-.93a52.245,52.245,0,0,1,6.36,5.37l-1.44,1.23a24.2,24.2,0,0,0-2.07-2.13c-5.34.45-11.49.81-17.06,1a7.032,7.032,0,0,0-1.14.12l-.3-1.92a18.053,18.053,0,0,0,1.86.09c.95,0,1.68,0,3.11-.06a27.334,27.334,0,0,0,2.46-4.26Z"/><path class="cls-2" d="M202.41,214.55a4.49,4.49,0,1,1,0-.02Zm-7.29,0a2.79,2.79,0,1,0,2.79-2.79h0a2.8,2.8,0,0,0-2.79,2.79Z"/><path class="cls-2" d="M231.09,203.65c5-.87,11.94-3.69,14.22-5.79l1.53,2a10.515,10.515,0,0,0-1.29.66,45.664,45.664,0,0,1-14.46,5.1V210a.774.774,0,0,1,0,.18v.36c0,2.1.11,2.79.62,3.3a3.79,3.79,0,0,0,2.28.78,31.248,31.248,0,0,0,3.54.18,59.347,59.347,0,0,0,6.87-.48,20.015,20.015,0,0,0,3-.6l.18,2.37-2.82.3c-1.92.21-5.88.42-7.95.42-3.54,0-5.52-.36-6.57-1.23a4,4,0,0,1-1.23-2.88c0-.51-.06-1.11-.06-2.34V196.52a18.01,18.01,0,0,0-.12-2.49h2.46a13.8,13.8,0,0,0-.15,2.52Z"/><path class="cls-2" d="M263.64,218.03a19.292,19.292,0,0,0,.18-3.15V196.25a17.8,17.8,0,0,0-.18-3.06h2.58a18.812,18.812,0,0,0-.15,3.12v5.61a74.394,74.394,0,0,1,13.35,6.33l-1.29,2.22a61.119,61.119,0,0,0-11.19-5.94,3.321,3.321,0,0,1-.93-.51h-.06a10.491,10.491,0,0,1,.12,1.77v9a20.359,20.359,0,0,0,.15,3.18Z"/><path class="cls-2" d="M300.64,209.12c-1.74,4-3.51,5.76-5.67,5.76-2.85,0-5-3.12-5-7.32a12.179,12.179,0,0,1,12.072-12.287q.384,0,.768.017a11.611,11.611,0,0,1,8.25,3,10,10,0,0,1,2.91,7.32,10.921,10.921,0,0,1-6.87,10.35,23.212,23.212,0,0,1-4.56,1.38,4.774,4.774,0,0,0-1.05-2,18.022,18.022,0,0,0,5-1.41,9.058,9.058,0,0,0,5.31-8.4,7.91,7.91,0,0,0-4.77-7.53,8.622,8.622,0,0,0-3.48-.75A45.02,45.02,0,0,1,300.64,209.12Zm-3.72-10.47a10.367,10.367,0,0,0-4.89,8.94c0,2.88,1.26,5.1,2.88,5.1,1.26,0,2.46-1.41,3.75-4.35a41.217,41.217,0,0,0,2.73-11.1A9.469,9.469,0,0,0,296.92,198.65Z"/><path class="cls-2" d="M320.58,197.06a12.439,12.439,0,0,0,2.4.15h5.19a11.906,11.906,0,0,0,2.4-.15v1.92c-.72-.06-1.23-.09-2.16-.09h-5.43a18.506,18.506,0,0,0-2.4.12Zm1.08-4.14a10.853,10.853,0,0,0,2.16.15h4a10.853,10.853,0,0,0,2.16-.15v1.89a14.713,14.713,0,0,0-2.16-.12h-4a15,15,0,0,0-2.16.12Zm.09,8.34a11.945,11.945,0,0,0,2,.12h4.11a11.536,11.536,0,0,0,2-.12v1.83a12.865,12.865,0,0,0-2-.12h-4.11a11.737,11.737,0,0,0-2,.12Zm0,4.14a11.945,11.945,0,0,0,2,.12h4.11a11.342,11.342,0,0,0,2-.12v1.83a12.385,12.385,0,0,0-2-.12h-4.11a12.617,12.617,0,0,0-2,.12Zm.09,13.5a28.007,28.007,0,0,0,.15-2.91v-4a19.819,19.819,0,0,0-.12-2.46,17.932,17.932,0,0,0,2.43.12h3.48a18.2,18.2,0,0,0,2.19-.09,21.311,21.311,0,0,0-.09,2.37v4.11a14.773,14.773,0,0,0,.15,2.46h-1.86v-1.2H323.7v1.59Zm1.86-3.15h4.47v-4.53H323.7Zm9.54-12.87a20.708,20.708,0,0,0-2.49.12v-2a14.461,14.461,0,0,0,2.58.15h3.51v-3.9h-2.4a17.025,17.025,0,0,0-2.28.12v-1.86a15.382,15.382,0,0,0,2.25.12h2.43v-1.38a12.52,12.52,0,0,0-.18-2.43h2.13a10.212,10.212,0,0,0-.18,2.43v1.4h1.8a12.713,12.713,0,0,0,2.1-.12v1.86a13.647,13.647,0,0,0-2-.12h-1.87v3.9h1.26a32.9,32.9,0,0,0,3.12-3.72l.33-.42a18.969,18.969,0,0,0,2.34-4.2l1.89,1.08a17.3,17.3,0,0,0-1.35,2,47.466,47.466,0,0,1-4.17,5.28h3.27a13.948,13.948,0,0,0,2.55-.15v2a15.043,15.043,0,0,0-2.58-.15h-4.89a36.908,36.908,0,0,1-3.84,3.21h6.51a22.815,22.815,0,0,0,2.79-.12,19.924,19.924,0,0,0-.12,2.43v8a22.454,22.454,0,0,0,.18,3h-2v-1.59h-8.52v1.59h-1.92a21.5,21.5,0,0,0,.18-3v-8.34a33.345,33.345,0,0,1-3.06,2,6.5,6.5,0,0,0-1.11-1.44,34.5,34.5,0,0,0,8.64-5.7Zm2.19,8.13h8.52v-3.36h-8.52Zm0,5.13h8.52v-3.57h-8.52Z"/><path class="cls-2" d="M355.49,200.21a21.521,21.521,0,0,1-1.32,4.53,7.865,7.865,0,0,0-1.65-.84,19.121,19.121,0,0,0,1.47-4.86,20.974,20.974,0,0,0,.42-3.78v-.81l1.92.3c-.06.36-.06.45-.12,1-.06.75-.18,1.59-.36,2.82h2.13v-4a12.676,12.676,0,0,0-.21-2.49h2.25a12.234,12.234,0,0,0-.21,2.49v4h.66a15.2,15.2,0,0,0,2.61-.18v2a21.306,21.306,0,0,0-2.55-.15h-.72v5.91c1.23-.57,1.74-.81,3.15-1.56v1.8l-.12.06a17.216,17.216,0,0,0,2.76.15h8.7v-3.48h-8.66a20.6,20.6,0,0,0-3.06.18v-2a20.073,20.073,0,0,0,3.06.18h4.23v-4h-3.3a25.121,25.121,0,0,0-2.85.15v-2a17.881,17.881,0,0,0,2.85.18h3.3v-1.23a15.2,15.2,0,0,0-.18-2.43h2.19a14.539,14.539,0,0,0-.18,2.43v1.23h4.14a17.881,17.881,0,0,0,2.85-.18v2a25.592,25.592,0,0,0-2.85-.15h-4.2v4h5.16a20.6,20.6,0,0,0,3.06-.18v2a20.61,20.61,0,0,0-3-.18h-.75v3.48h.78a18.163,18.163,0,0,0,2.91-.18v2a20.515,20.515,0,0,0-2.91-.18h-.78v8.52c0,1.68-.72,2.19-3.12,2.19-.84,0-1.92-.06-3.06-.12a6.147,6.147,0,0,0-.45-2,21.967,21.967,0,0,0,3.45.39c1.11,0,1.32-.12,1.32-.81v-8.16h-8.82a20.515,20.515,0,0,0-2.91.18v-1.86c-1.2.66-1.35.75-2.79,1.44v8.28a21.273,21.273,0,0,0,.21,3.15h-2.2a18.349,18.349,0,0,0,.21-3.15v-7.44l-1.11.45c-.75.3-1.41.57-1.89.78-.18.06-.18.06-.75.3a7.8,7.8,0,0,0-.72.33l-.66-2.1a25.5,25.5,0,0,0,5.13-1.68v-6.72Zm10.59,9.15a31.73,31.73,0,0,1,4.29,4.89l-1.59,1.17a25.012,25.012,0,0,0-4.17-5Z"/><path class="cls-2" d="M384.64,205.76a26.083,26.083,0,0,0,1.47-7.86l1.59.27a33.036,33.036,0,0,1-1.5,8.22Zm3.87,13.68a24.88,24.88,0,0,0,.21-3.45V195.08a19.81,19.81,0,0,0-.21-3h2.34a19.064,19.064,0,0,0-.21,3v21a22.074,22.074,0,0,0,.21,3.33Zm4.17-17.07a15.456,15.456,0,0,0-1.26-4.62l1.38-.54a23.953,23.953,0,0,1,1.38,4.59Zm4.5-1.92a22.537,22.537,0,0,1-2.7,5.61,11.7,11.7,0,0,0-1.68-.93,20.762,20.762,0,0,0,3.57-8.55,13.947,13.947,0,0,0,.27-2.34l2.07.42a11.536,11.536,0,0,0-.48,2c-.15.75-.3,1.29-.51,2.1h3.92v-3.6a19.555,19.555,0,0,0-.21-3h2.31a18.712,18.712,0,0,0-.21,3v3.6h4.65a18.149,18.149,0,0,0,3.09-.18v2.07a26.973,26.973,0,0,0-3.06-.18h-4.68v6.18h4.11a19.8,19.8,0,0,0,3-.18v2a21.151,21.151,0,0,0-3.06-.18h-4.05v7.89h5.11a23.828,23.828,0,0,0,3.27-.18v2.13a21.674,21.674,0,0,0-3.27-.21H396.28a21.674,21.674,0,0,0-3.27.21V216a23.828,23.828,0,0,0,3.27.18h5.36v-7.89h-3.3a21.439,21.439,0,0,0-3.06.18v-2a18.637,18.637,0,0,0,2.91.18h3.45v-6.2Z"/><path class="cls-2" d="M426.64,196.91a12.473,12.473,0,0,0,1.44-4.11l2.4.42a7.22,7.22,0,0,0-.78,1.62,14.053,14.053,0,0,1-.93,2,5.093,5.093,0,0,1,.63,0c4.8-.24,7.8-.6,9.45-1.14l.18,2a9.3,9.3,0,0,0-1.2.15,96.817,96.817,0,0,1-9.89.78,22.124,22.124,0,0,1-2.71,4.26c-.29.36-.9,1.05-1,1.14a4.17,4.17,0,0,0-.4.3h0c0,.06,0,.06.05.09a9.415,9.415,0,0,1,1.38-1,8.007,8.007,0,0,1,4.53-1.47,3.66,3.66,0,0,1,4,3.29l0,.04c2.18-.87,3.89-1.5,5.21-2a6.6,6.6,0,0,0,2-.87l1,2.1a49.9,49.9,0,0,0-8,2.64c.06.78.06,1.08.06,1.83v3a6.5,6.5,0,0,0,.06,1.08h-2a39.679,39.679,0,0,0,.19-4.32,5.878,5.878,0,0,0,0-.9c-4.08,1.92-5.63,3.33-5.63,5.13,0,2,1.85,2.85,6.09,2.85a25.091,25.091,0,0,0,8-1.17l.27,2.31c-.4.03-.8.08-1.2.15a46.486,46.486,0,0,1-7.29.6c-5.36,0-8-1.53-8-4.62,0-1.65,1-3.21,3.05-4.74a23.6,23.6,0,0,1,4.47-2.4c-.24-1.65-1-2.37-2.37-2.37-1.88,0-4.25,1.11-6.69,3.18a9.843,9.843,0,0,0-2.3,2.49l-1.85-1.6a30.014,30.014,0,0,0,6.71-8.58l.27-.45a3.2,3.2,0,0,1-.56.06l-4.42-.09h-.47a5.191,5.191,0,0,0-.66,0v-2.07a42,42,0,0,0,6.42.33Z"/><path class="cls-2" d="M455.29,200.3a28.409,28.409,0,0,1-4.11,6.42,5.891,5.891,0,0,0-1.71-1.26,24.559,24.559,0,0,0,5.37-9.21,8.987,8.987,0,0,0,.66-2.82l2.25.6a12.182,12.182,0,0,0-.6,1.59c-.09.27-.45,1.26-1.08,2.91h6.3v-3.18a21.687,21.687,0,0,0-.21-3.18h2.48a20.14,20.14,0,0,0-.21,3.18v3.18h7.38a28.309,28.309,0,0,0,3.42-.18v2.13a29.319,29.319,0,0,0-3.39-.18h-7.41v6.45h6.06a21.008,21.008,0,0,0,3.21-.18v2.08a22.657,22.657,0,0,0-3.21-.18h-6.06v7.86h8.37a23.025,23.025,0,0,0,3.54-.21v2.19a24.234,24.234,0,0,0-3.51-.21H453.49a24.354,24.354,0,0,0-3.54.21v-2.19a23.143,23.143,0,0,0,3.51.21h8.91v-7.86h-5.49a22.237,22.237,0,0,0-3.18.18v-2.1a20.872,20.872,0,0,0,3.18.18h5.49v-6.45Z"/><path class="cls-2" d="M484.02,195.53a12.8,12.8,0,0,0-2.38.12v-2a11.569,11.569,0,0,0,2.52.18h4.56a11.089,11.089,0,0,0,2.46-.18v2a17.832,17.832,0,0,0-2.31-.12H487.4v7h1.24a10.154,10.154,0,0,0,2-.15v1.89a14.532,14.532,0,0,0-2-.12h-1.2v7.62c1.47-.63,2-.87,3.51-1.65l.12,1.89a81.992,81.992,0,0,1-7.8,3.39,11.833,11.833,0,0,0-1.2.51l-.6-2.1a30.11,30.11,0,0,0,4.14-1.29v-8.37h-1.59a10,10,0,0,0-2,.15v-1.92a9.787,9.787,0,0,0,2,.15h1.56v-7Zm11.73,11.43a35.528,35.528,0,0,0-3.72.12,8.118,8.118,0,0,0,.06-1.08c0-.78,0-.78.06-2.37v-6.39a36.712,36.712,0,0,0-.15-3.81,29.077,29.077,0,0,0,3.87.15h7.89a27.361,27.361,0,0,0,3.84-.15c-.09.84-.12,2-.12,3.78v6a36.725,36.725,0,0,0,.12,3.84c-1.08-.09-1.89-.12-3.6-.12h-3.42v3.45h4.44a18.289,18.289,0,0,0,2.94-.15v2a19.265,19.265,0,0,0-2.94-.15h-4.44v4.41h5.58a18.516,18.516,0,0,0,2.94-.15v2a19.794,19.794,0,0,0-3-.15H492.69a19.289,19.289,0,0,0-3,.15v-2a17.078,17.078,0,0,0,2.85.15h6.24v-4.41h-4a17.548,17.548,0,0,0-2.88.15v-2a16.808,16.808,0,0,0,2.88.15h4v-3.45Zm-1.8-11.73v4.26h4.86v-4.26Zm0,5.85v4.23h4.86v-4.23Zm6.63-1.59h5.06v-4.26h-5.07Zm0,5.82h5.06v-4.23h-5.07Z"/><path class="cls-2" d="M528.44,216.83c0,1.86-.57,2.22-3.36,2.22-.84,0-2.4-.06-3.45-.18a9,9,0,0,0-.63-1.92,31.153,31.153,0,0,0,3.93.33c1.38,0,1.59-.09,1.59-.72v-6h-9a23.035,23.035,0,0,0-3.15.18v-2.09a22.293,22.293,0,0,0,3.12.18h9v-.51a11.863,11.863,0,0,0-.09-1.77h1.26a25.193,25.193,0,0,0,5.37-3.39h-11a26.605,26.605,0,0,0-2.85.15v-1.96a27.2,27.2,0,0,0,2.91.15h10.83a13.08,13.08,0,0,0,2.22-.12l1.14,1.2c-.39.3-.39.3-1.05.87a34.143,34.143,0,0,1-6.84,4.44v.93h8.91a21.965,21.965,0,0,0,3.15-.18v2.07a22.843,22.843,0,0,0-3.18-.18h-8.83ZM520.34,197a20.071,20.071,0,0,0-2.82-3.9l1.8-.57a28.565,28.565,0,0,1,3.06,4.44h4.38a17.744,17.744,0,0,0-2.19-4.32l1.86-.51a25.651,25.651,0,0,1,2.28,4.83h3.3a17.888,17.888,0,0,0,3.09-4.83l1.89.81a28.031,28.031,0,0,1-2.88,4h2.34a34.245,34.245,0,0,0,3.45-.12,19.541,19.541,0,0,0-.12,2.49v2.22a16.4,16.4,0,0,0,.15,2.1h-2v-5H516.77v5h-2a15.7,15.7,0,0,0,.15-2.1v-2.22a19.541,19.541,0,0,0-.12-2.49,26.76,26.76,0,0,0,3.42.15Z"/><path class="cls-2" d="M550.45,196.79a21.17,21.17,0,0,0,1.29-4.53l2.13.39c-.57,1.71-1,2.82-1.53,4.14h1.95l2.64-.09c-.06.78-.09,1.56-.09,2.64v15.31a25.721,25.721,0,0,0,.15,3.09h-2v-1.92h-5.85v2.64h-2a26.79,26.79,0,0,0,.15-3.66V199.55a22.236,22.236,0,0,0-.12-2.85,16.911,16.911,0,0,0,1.8.09h1.48Zm-1.29,8.34h5.85v-6.69h-5.85Zm0,9h5.85v-7.32h-5.85Zm12.66-15.57a28.521,28.521,0,0,1-3.45,5.46,6.118,6.118,0,0,0-1.44-1.35,21.78,21.78,0,0,0,4.41-7.56,13.311,13.311,0,0,0,.78-2.91l2.07.39a10.517,10.517,0,0,0-.42,1.14c-.42,1.2-.69,1.89-1.14,3.06h7.26a19.4,19.4,0,0,0,2.64-.12,11.952,11.952,0,0,0-.12,1.89c-.27,11.88-.66,15.9-1.74,18.3-.6,1.38-1.56,1.92-3.33,1.92-1.11,0-1.92-.06-3.84-.21a5.548,5.548,0,0,0-.51-2.13,22.527,22.527,0,0,0,4.26.51c1.11,0,1.53-.27,1.89-1.23a34.086,34.086,0,0,0,1.11-8.28c.15-2.4.18-4.47.21-8.88Zm3.3,12.36a31.5,31.5,0,0,0-4.56-7.59l1.53-.93a34.729,34.729,0,0,1,4.74,7.47Z"/><path class="cls-2" d="M592.81,205.7a2.46,2.46,0,1,1-2.46-2.46A2.46,2.46,0,0,1,592.81,205.7Z"/><path class="cls-2" d="M607.21,213.41a19.14,19.14,0,0,0,2.31-5,32.845,32.845,0,0,0,1.56-6.93l2,.54a45.638,45.638,0,0,1-1.71,7.26,24.088,24.088,0,0,1-2.25,5.28Zm10.53,1.92c0,.93.69,1.11,4.17,1.11a13.894,13.894,0,0,0,3.84-.36c.6-.18.9-.66,1.11-1.74a28.69,28.69,0,0,0,.42-5,8.161,8.161,0,0,0,2,.78c-.3,3.72-.57,5.37-1.14,6.48-.72,1.41-1.8,1.68-6.45,1.68-5.16,0-6-.36-6-2.58V201.38a20.284,20.284,0,0,0-.21-2.85h2.43a16.339,16.339,0,0,0-.21,2.82Zm7.77-16.74a38.62,38.62,0,0,0-9.72-4.83l1.17-1.65a46.6,46.6,0,0,1,9.9,4.71Zm7.77,15.15a45.507,45.507,0,0,0-2.22-6.27,34.683,34.683,0,0,0-2.76-5.31l1.77-.93a49.636,49.636,0,0,1,5.16,11.4Z"/><path class="cls-2" d="M642.15,195.53a12.878,12.878,0,0,0-2.37.15v-2a11.569,11.569,0,0,0,2.52.18h4.56a11.089,11.089,0,0,0,2.46-.18v2a17.832,17.832,0,0,0-2.31-.12h-1.47v7h1.2a10.154,10.154,0,0,0,2-.15v1.89a14.532,14.532,0,0,0-2-.12h-1.2v7.62c1.47-.63,2-.87,3.51-1.65l.12,1.89a81.992,81.992,0,0,1-7.8,3.39,11.833,11.833,0,0,0-1.2.51l-.6-2.1a30.11,30.11,0,0,0,4.14-1.29v-8.37h-1.59a10,10,0,0,0-2,.15v-1.92a9.787,9.787,0,0,0,2,.15h1.56v-7Zm11.73,11.43a35.528,35.528,0,0,0-3.72.12,8.118,8.118,0,0,0,.06-1.08c0-.78,0-.78.06-2.37v-6.39a36.712,36.712,0,0,0-.15-3.81,29.077,29.077,0,0,0,3.87.15h7.89a27.361,27.361,0,0,0,3.84-.15c-.09.84-.12,2-.12,3.78v6a36.725,36.725,0,0,0,.12,3.84c-1.08-.09-1.89-.12-3.6-.12h-3.42v3.45h4.44a18.289,18.289,0,0,0,2.94-.15v2a19.265,19.265,0,0,0-2.94-.15h-4.44v4.41h5.58a18.516,18.516,0,0,0,2.94-.15v2a19.794,19.794,0,0,0-3-.15H650.82a19.289,19.289,0,0,0-3,.15v-2a17.078,17.078,0,0,0,2.85.15h6.24v-4.41h-4a17.548,17.548,0,0,0-2.88.15v-2a16.808,16.808,0,0,0,2.88.15h4v-3.45Zm-1.8-11.73v4.26h4.86v-4.26Zm0,5.85v4.23h4.86v-4.23Zm6.63-1.59h5.07v-4.26h-5.07Zm0,5.82h5.07v-4.23h-5.07Z"/><path class="cls-2" d="M686.56,216.83c0,1.86-.57,2.22-3.36,2.22-.84,0-2.4-.06-3.45-.18a9,9,0,0,0-.63-1.92,31.153,31.153,0,0,0,3.93.33c1.38,0,1.59-.09,1.59-.72v-6h-9a23.022,23.022,0,0,0-3.16.18v-2.09a22.293,22.293,0,0,0,3.12.18h9v-.51a11.863,11.863,0,0,0-.09-1.77h1.26a25.193,25.193,0,0,0,5.37-3.39h-11a26.605,26.605,0,0,0-2.85.15v-1.96a27.2,27.2,0,0,0,2.91.15h10.83a13.08,13.08,0,0,0,2.22-.12l1.14,1.2a9.515,9.515,0,0,0-1,.87,34.115,34.115,0,0,1-6.84,4.44v.93h8.91a22.093,22.093,0,0,0,3.18-.17v2.07a22.843,22.843,0,0,0-3.18-.18h-8.88ZM678.46,197a20.432,20.432,0,0,0-2.81-3.9l1.79-.57a28.565,28.565,0,0,1,3.06,4.44h4.38a17.744,17.744,0,0,0-2.19-4.32l1.86-.51a25.651,25.651,0,0,1,2.28,4.83h3.3a17.888,17.888,0,0,0,3.09-4.83l1.89.81a28.031,28.031,0,0,1-2.88,4h2.34a34.245,34.245,0,0,0,3.45-.12,19.541,19.541,0,0,0-.12,2.49v2.22a16.4,16.4,0,0,0,.15,2.1h-2v-5H674.9v5h-2a15.7,15.7,0,0,0,.16-2.1v-2.22a19.179,19.179,0,0,0-.13-2.49,27.131,27.131,0,0,0,3.42.15Z"/><path class="cls-2" d="M708.57,196.79a21.17,21.17,0,0,0,1.29-4.53l2.13.39c-.57,1.71-1,2.82-1.53,4.14h1.95l2.64-.09c-.06.78-.09,1.56-.09,2.64v15.31a25.721,25.721,0,0,0,.15,3.09h-2v-1.92h-5.85v2.64h-2a26.79,26.79,0,0,0,.15-3.66V199.55a22.236,22.236,0,0,0-.12-2.85,16.911,16.911,0,0,0,1.8.09h1.48Zm-1.29,8.34h5.85v-6.69h-5.85Zm0,9h5.85v-7.32h-5.85Zm12.66-15.57a28.521,28.521,0,0,1-3.45,5.46,6.118,6.118,0,0,0-1.44-1.35,21.78,21.78,0,0,0,4.41-7.56,13.311,13.311,0,0,0,.78-2.91l2.07.39a10.517,10.517,0,0,0-.42,1.14c-.42,1.2-.69,1.89-1.14,3.06h7.26a19.419,19.419,0,0,0,2.63-.14,11.952,11.952,0,0,0-.12,1.89c-.27,11.88-.66,15.9-1.74,18.3-.6,1.38-1.56,1.92-3.33,1.92-1.11,0-1.92-.06-3.84-.21a5.548,5.548,0,0,0-.51-2.13,22.527,22.527,0,0,0,4.26.51c1.11,0,1.53-.27,1.89-1.23a34.086,34.086,0,0,0,1.11-8.28c.15-2.4.18-4.47.21-8.88Zm3.3,12.36a31.5,31.5,0,0,0-4.56-7.59l1.53-.93a34.729,34.729,0,0,1,4.74,7.47Z"/><path class="cls-2" d="M750.93,205.7a2.46,2.46,0,1,1-2.46-2.46A2.46,2.46,0,0,1,750.93,205.7Z"/><path class="cls-2" d="M4.98,252.29a15.043,15.043,0,0,0-2.58.15v-2.07a18.6,18.6,0,0,0,2.73.18h9.42a17.933,17.933,0,0,0,2.7-.18v2.07a14.5,14.5,0,0,0-2.55-.15h-.66v7.44h.93a15.138,15.138,0,0,0,2.64-.15v2.07a15.335,15.335,0,0,0-2.64-.15h-.93v11.25a21,21,0,0,0,.18,3.12H12a18.928,18.928,0,0,0,.18-3.12V261.53H7.64a35.329,35.329,0,0,1-.51,5.49,17.411,17.411,0,0,1-4.47,9,6.006,6.006,0,0,0-1.59-1.35c3.27-3.15,4.59-6.87,4.71-13.17H4.56a17.563,17.563,0,0,0-2.73.18v-2.13a16.743,16.743,0,0,0,2.73.18H5.79v-7.44Zm2.66,7.44h4.53v-7.44H7.64Zm21.63,6.3a23.95,23.95,0,0,0-2.07,2.25,32.027,32.027,0,0,1-5.1,4.59,30.974,30.974,0,0,1-5.31,3.12,9.332,9.332,0,0,0-1.15-1.74,27.61,27.61,0,0,0,9.81-6.81,15.2,15.2,0,0,0,2.13-2.85Zm-2.09-15.38c-.36.3-.6.54-1.56,1.44a31.544,31.544,0,0,1-8,5.79,6.539,6.539,0,0,0-1.2-1.71,23.156,23.156,0,0,0,6.93-4.62,12.445,12.445,0,0,0,2-2.22Zm1.08,7.59A10.184,10.184,0,0,0,27,259.41a33.774,33.774,0,0,1-9.24,6.93,8.24,8.24,0,0,0-1.12-1.75,24.437,24.437,0,0,0,7.71-5.1,13.843,13.843,0,0,0,2.28-2.64Z"/><path class="cls-2" d="M33.24,253.58c.48,0,.84.06,1.5.06h1.05a17.22,17.22,0,0,0,2.43-4.71l2,.54c-1.14,2-1.65,2.88-2.49,4.11,2.67-.09,3.48-.15,6.06-.39a16.728,16.728,0,0,0-1.95-2.22l1.38-.81a38.859,38.859,0,0,1,4,4.92l-1.47.93c-.48-.75-.63-1-1-1.56-4.14.51-4.83.57-9.69.84a13.155,13.155,0,0,0-1.56.15Zm.12,21.07a13.461,13.461,0,0,0,3.21-5.31l1.68.78a17.423,17.423,0,0,1-3.24,5.67Zm3.54-9.15a21.638,21.638,0,0,0,.12,2.88h-2a20.065,20.065,0,0,0,.15-3.06v-6.48a23.489,23.489,0,0,0-.09-2.46c.66.06,1.44.09,2.67.09h5a19.4,19.4,0,0,0,2.64-.12,23.481,23.481,0,0,0-.12,3v6.51c0,1-.27,1.65-.78,1.86a6.252,6.252,0,0,1-2.31.33c-.45,0-1.11,0-1.83-.06a3.907,3.907,0,0,0-.39-1.62,19.131,19.131,0,0,0,2.68.28c.9,0,1.05-.12,1.05-.78v-1.56H36.9Zm6.74-5.8v-1.8H36.9v1.8Zm0,3.18v-1.8H36.9v1.8Zm-1.1,6.27a8.3,8.3,0,0,0-.18,2v2.34c0,.66.6.78,3.87.78,4,0,5-.12,5.37-.66a5.57,5.57,0,0,0,.51-2.76,5.843,5.843,0,0,0,1.86.72c-.21,2.19-.57,3.21-1.29,3.75s-2,.63-5.64.63c-5.79,0-6.48-.21-6.48-2v-2.64a9.995,9.995,0,0,0-.18-2.19Zm6,3.42a15.757,15.757,0,0,0-4-3.06l1.26-1.05a18.954,18.954,0,0,1,4,2.88Zm1.1-10.47c3.24-.63,6.12-1.62,7.43-2.58l1.36,1.47c-.37.12-.45.15-1.2.45a41,41,0,0,1-7.59,2.21v1.71c0,.78.54.93,3.69.93,2.67,0,3.51-.09,3.9-.39s.5-1,.59-2.94a5.093,5.093,0,0,0,1.72.75c-.24,2.25-.45,2.88-1.06,3.42s-1.94.75-5.27.75c-4.35,0-5.34-.39-5.34-2.07v-4.46a9.452,9.452,0,0,0-.18-2.22h2.13a8.656,8.656,0,0,0-.18,2.16Zm.09-9.39a23.128,23.128,0,0,0,7.71-2.76l1.44,1.47c-.9.39-2.94,1.14-4,1.5a49.212,49.212,0,0,1-5.13,1.29v1.44c0,.45.09.6.51.75a20.264,20.264,0,0,0,3.74.21c3.55,0,3.61,0,3.75-3.36a6.247,6.247,0,0,0,1.72.75c-.22,2.22-.48,3-1.2,3.51s-1.69.63-5.16.63c-4.17,0-5.13-.39-5.13-2.1v-4.59a9.452,9.452,0,0,0-.18-2.22h2.13a8.9,8.9,0,0,0-.18,2.16Zm8.46,22.83a24.517,24.517,0,0,0-3.78-5.61l1.49-.78a28.337,28.337,0,0,1,3.94,5.37Z"/><path class="cls-2" d="M79.31,273.83c0,1.86-.57,2.22-3.36,2.22-.84,0-2.4-.06-3.45-.18a9,9,0,0,0-.63-1.92,31.153,31.153,0,0,0,3.93.33c1.38,0,1.59-.09,1.59-.72v-6h-9a23.035,23.035,0,0,0-3.15.18v-2.09a22.293,22.293,0,0,0,3.12.18h9v-.51a11.863,11.863,0,0,0-.09-1.77h1.26a25.193,25.193,0,0,0,5.37-3.39h-11a26.605,26.605,0,0,0-2.85.15v-1.96a27.2,27.2,0,0,0,2.91.15H83.84a12.977,12.977,0,0,0,2.22-.12l1.14,1.2c-.39.3-.39.3-1.05.87a34.115,34.115,0,0,1-6.84,4.44v.93h8.91a21.965,21.965,0,0,0,3.15-.18v2.07a22.835,22.835,0,0,0-3.18-.18H79.31ZM71.21,254a20.071,20.071,0,0,0-2.82-3.9l1.8-.57a28.565,28.565,0,0,1,3.06,4.44h4.39a17.8,17.8,0,0,0-2.2-4.32l1.86-.51a25.68,25.68,0,0,1,2.28,4.83h3.3a17.888,17.888,0,0,0,3.09-4.83l1.89.81a28.031,28.031,0,0,1-2.88,4h2.34a34.245,34.245,0,0,0,3.45-.12,19.541,19.541,0,0,0-.12,2.49v2.22a16.4,16.4,0,0,0,.15,2.1h-2v-5H67.64v5h-2a15.692,15.692,0,0,0,.15-2.1v-2.22a19.541,19.541,0,0,0-.12-2.49,26.76,26.76,0,0,0,3.42.15Z"/><path class="cls-2" d="M100.75,253.79a21.17,21.17,0,0,0,1.29-4.53l2.13.39c-.57,1.71-1,2.82-1.53,4.14h2l2.64-.09c-.06.78-.09,1.56-.09,2.64v15.31a25.721,25.721,0,0,0,.15,3.09h-2v-1.92H99.49v2.64h-2a26.79,26.79,0,0,0,.15-3.66V256.55a22.236,22.236,0,0,0-.12-2.85,16.911,16.911,0,0,0,1.8.09h1.43Zm-1.29,8.34h5.85v-6.69H99.46Zm0,9h5.85v-7.32H99.46Zm12.66-15.57a28.521,28.521,0,0,1-3.45,5.46,6.118,6.118,0,0,0-1.44-1.35,21.78,21.78,0,0,0,4.41-7.56,13.326,13.326,0,0,0,.78-2.91l2.07.39a10.517,10.517,0,0,0-.42,1.14c-.42,1.2-.69,1.89-1.14,3.06h7.26a19.4,19.4,0,0,0,2.64-.12,11.952,11.952,0,0,0-.12,1.89c-.27,11.88-.66,15.9-1.74,18.3-.6,1.38-1.56,1.92-3.33,1.92-1.11,0-1.92-.06-3.84-.21a5.548,5.548,0,0,0-.51-2.13,22.537,22.537,0,0,0,4.26.51c1.11,0,1.53-.27,1.89-1.23a34.086,34.086,0,0,0,1.11-8.28c.15-2.4.18-4.47.21-8.88Zm3.3,12.36a31.5,31.5,0,0,0-4.56-7.59l1.53-.93a34.729,34.729,0,0,1,4.74,7.47Z"/><path class="cls-2" d="M134.74,251.06a38.764,38.764,0,0,0-1.26,4.8,43.742,43.742,0,0,0-.91,9.39c0,2.34.07,4.11.18,5.7a27.92,27.92,0,0,1,1.95-5.85l1.45.69c-1.36,3-2.43,6.57-2.43,8.25v.45l-2.16.18c-.07-.48-.09-.63-.19-1.2a43.734,43.734,0,0,1-.78-8.49,49.149,49.149,0,0,1,1.36-11.88,16.135,16.135,0,0,0,.41-2.4Zm7.64,12.06c-1.5,1.65-2.25,3.09-2.25,4.41,0,2.22,1.89,3.3,5.76,3.3a19.734,19.734,0,0,0,6.9-1l.3,2.31a5.15,5.15,0,0,0-1,.15,31.048,31.048,0,0,1-6.15.6c-3.42,0-5.57-.72-6.87-2.28a4.244,4.244,0,0,1-.9-2.76c0-1.83.75-3.45,2.62-5.58Zm-3.81-8.88a20.368,20.368,0,0,0,5.1.45,32.224,32.224,0,0,0,8-.81l.15,2.13-2.07.27a50.762,50.762,0,0,1-6.45.39,40.114,40.114,0,0,1-4.8-.3Z"/><path class="cls-2" d="M162.64,252.14a12.816,12.816,0,0,0-2.58.18v-2a16.052,16.052,0,0,0,2.7.18h4.88a11.7,11.7,0,0,0,2.52-.18v2a19.725,19.725,0,0,0-2.43-.12h-1.89a29.363,29.363,0,0,1-2.07,7.62h3.75a13.761,13.761,0,0,0,1.86-.09,22.36,22.36,0,0,0-.09,2.4v9.27a19.644,19.644,0,0,0,.12,2.52h-1.89v-1.5H163.8v3.18h-2a18.163,18.163,0,0,0,.18-2.91v-6.66c0-1.08,0-2,.09-3.36a13.719,13.719,0,0,1-2.25,3.66,5.009,5.009,0,0,0-1.08-1.8,20.406,20.406,0,0,0,4.14-7.62,21.006,21.006,0,0,0,1-4.71Zm1.2,18.6h3.72v-9.39h-3.72Zm10.41-18.6a19.531,19.531,0,0,0-2.91.18v-2.07a18.355,18.355,0,0,0,3,.18h9.48a20.064,20.064,0,0,0,3-.18v2.07a15.746,15.746,0,0,0-2.91-.18h-.72v8.31h1a15.856,15.856,0,0,0,3-.18v2.13a19.546,19.546,0,0,0-3-.18h-1v10.77a22.673,22.673,0,0,0,.21,3.21h-2.31a22.381,22.381,0,0,0,.21-3.21V262.22h-5c-.3,6.69-1.59,10.32-5,14.28a5.46,5.46,0,0,0-1.66-1.35c3.15-3,4.56-6.75,4.83-12.93h-.84a16.735,16.735,0,0,0-3,.18v-2.1a19.538,19.538,0,0,0,3,.15h.9v-8.31Zm2.19,7.29v1h4.89v-8.31h-4.89Z"/><path class="cls-2" d="M207.64,264.11a26.557,26.557,0,0,0,3.36-.15c-.06.66-.09,1.29-.12,2.64l-.12,6.09c0,.9.33,1,2.67,1,2.1,0,2.7-.15,2.91-.69a17.522,17.522,0,0,0,.48-4.5,7.335,7.335,0,0,0,1.95.78c-.48,6-.66,6.18-5.49,6.18-3.66,0-4.44-.39-4.44-2.4v-.15l.12-7h-5.58a11.5,11.5,0,0,1-2.34,4.95,13.234,13.234,0,0,1-3.21,2.88,20.2,20.2,0,0,1-5,2.46,4.628,4.628,0,0,0-1.32-1.71,18.726,18.726,0,0,0,5.76-2.7,9.8,9.8,0,0,0,4.17-5.88h-4.8a21.4,21.4,0,0,0-3.24.18v-2.13a20.251,20.251,0,0,0,3.18.18h5.16a21.266,21.266,0,0,0,.21-2.52,9.989,9.989,0,0,0-.12-1.62h2.28a9.116,9.116,0,0,0-.24,1.89c-.06.72-.12,1.47-.24,2.22Zm-4-12.69a9.221,9.221,0,0,0-.21-2.16h2.34a8.765,8.765,0,0,0-.21,2.16v.93h8.91a25.477,25.477,0,0,0,3-.15,13.518,13.518,0,0,0-.12,2.07v1.53a13.911,13.911,0,0,0,.12,2.1h-2v-3.84H208v4.35c0,.36.06.51.21.6a5.9,5.9,0,0,0,1.92.21,5.541,5.541,0,0,0,2.43-.33c.33-.24.48-1,.51-2.43a6.266,6.266,0,0,0,1.8.57c-.15,1.89-.39,2.73-.9,3.18s-1.74.66-3.87.66c-3.15,0-3.9-.33-3.9-1.65v-5.16h-3.69a8.216,8.216,0,0,1-1,3.33,8.451,8.451,0,0,1-4.74,3.81,27.718,27.718,0,0,1-2.79.87,8.181,8.181,0,0,0-1.14-1.65c3.21-.6,4.71-1.2,6-2.4a5.673,5.673,0,0,0,1.83-4h-6.43v3.81h-2a14.453,14.453,0,0,0,.12-2.1v-1.5a13.518,13.518,0,0,0-.12-2.07,25.477,25.477,0,0,0,3,.15h8.4Z"/><path class="cls-2" d="M238,251.75a10.134,10.134,0,0,0-.12-1.74h2.25a24.724,24.724,0,0,0-.15,3.75v.33c5.67,0,8-.09,9-.21v2.13a53.187,53.187,0,0,0-5.73-.15c-.45,0-.78,0-3.21.06v5.94a8.6,8.6,0,0,1,.72,3.54,9.658,9.658,0,0,1-4,7.83,19.059,19.059,0,0,1-4.74,2.43,6.594,6.594,0,0,0-1.32-1.89,15.392,15.392,0,0,0,4.86-2.25,7.772,7.772,0,0,0,3.36-6.33,4.206,4.206,0,0,1-.81,1.47,4.923,4.923,0,1,1-3.66-8.08c.09,0,.18,0,.27.01a4.608,4.608,0,0,1,3.48,1.35v-3.99c-6,.12-12.09.42-14.1.75l-.09-2.19h1.2c.87,0,.87,0,5.7-.18,2.88-.12,5.22-.18,7.26-.24Zm-1.29,9a3.838,3.838,0,0,0-2-.48,3.169,3.169,0,0,0-3.326,3.006c0,.048,0,.1,0,.144a2.9,2.9,0,0,0,2.792,3,2.694,2.694,0,0,0,.3,0,3.359,3.359,0,0,0,3.511-3.2,3.2,3.2,0,0,0,0-.339,2.169,2.169,0,0,0-1.27-2.1Z"/><path class="cls-2" d="M260.23,251.75a13.867,13.867,0,0,0,2.82.18c2.49,0,6.48-.18,9.18-.39a3.062,3.062,0,0,0,1.44-.33l1.26,1.65a5.532,5.532,0,0,0-1.53,1.26,76.993,76.993,0,0,1-9.87,8.52l.06.09a15.2,15.2,0,0,1,7.35-1.86c5,0,8.21,2.46,8.21,6.3,0,4.68-4.34,7.77-11,7.77-4.23,0-6.66-1.56-6.66-4.32,0-2,1.86-3.51,4.35-3.51a6,6,0,0,1,4.95,2.46,8.586,8.586,0,0,1,1.38,2.88c3.15-.87,4.8-2.7,4.8-5.25,0-2.88-2.4-4.59-6.45-4.59a19.25,19.25,0,0,0-12.63,5.13l-1.35-1.92a33.311,33.311,0,0,0,4.2-3.06c3.21-2.55,7.95-6.72,10-8.76l.42-.42.12-.12.12-.12-.06-.06h-.27c-1,.18-4.56.39-9.12.54a14.666,14.666,0,0,0-1.62.15Zm5.64,17.07c-1.5,0-2.43.72-2.43,1.86a2,2,0,0,0,1.2,1.83,7.661,7.661,0,0,0,3.36.69,10.809,10.809,0,0,0,2.19-.21C269.53,270.26,268.03,268.82,265.87,268.82Z"/><path class="cls-2" d="M295.14,263.48c-1.95,1.62-2.85,3-2.85,4.41s.87,2.37,2.55,2.94a19.1,19.1,0,0,0,5.49.6c3.75,0,7.32-.45,9-1.14l.27,2.46a8.434,8.434,0,0,0-1,.15,48.971,48.971,0,0,1-8.1.69,21.158,21.158,0,0,1-6.9-.93c-2.25-.93-3.42-2.46-3.42-4.53s1.14-3.84,3.45-5.79Zm-3.15-11a34.277,34.277,0,0,0,8,.72,32.825,32.825,0,0,0,7.59-.63l.15,2a42.731,42.731,0,0,0-7.56,4.56l-1.53-1.2a46.417,46.417,0,0,1,4-2.49l.75-.39c.21-.12.27-.12.57-.3a23.648,23.648,0,0,1-4.53.39,58.692,58.692,0,0,1-6.6-.39,6.986,6.986,0,0,0-1-.09Z"/><path class="cls-2" d="M328.07,250.1a52.147,52.147,0,0,0,2.25,9.93c1.77-.72,2.61-1,7.26-2.67a16.213,16.213,0,0,0,1.92-.78l.9,2.28a68.966,68.966,0,0,0-9,2.91c-5.13,2-7.35,4-7.35,6.51,0,2.73,2.31,3.78,8.19,3.78a29.815,29.815,0,0,0,8.58-1l.24,2.49a15.576,15.576,0,0,0-2.22.18,60.205,60.205,0,0,1-6.63.39,20.4,20.4,0,0,1-6.66-.81c-2.46-.9-3.72-2.55-3.72-4.92a6.489,6.489,0,0,1,2.67-5.1,18.669,18.669,0,0,1,3.93-2.43,61.139,61.139,0,0,1-2.19-8.4,10.055,10.055,0,0,0-.51-1.89Z"/><path class="cls-2" d="M356.24,251.06a38.764,38.764,0,0,0-1.26,4.8,43.742,43.742,0,0,0-.91,9.39c0,2.34.07,4.11.18,5.7a27.92,27.92,0,0,1,1.95-5.85l1.45.69c-1.36,3-2.43,6.57-2.43,8.25v.45l-2.16.18c-.07-.48-.09-.63-.19-1.2a43.734,43.734,0,0,1-.78-8.49,49.149,49.149,0,0,1,1.36-11.88,16.135,16.135,0,0,0,.41-2.4Zm7.64,12.06c-1.5,1.65-2.25,3.09-2.25,4.41,0,2.22,1.89,3.3,5.76,3.3a19.734,19.734,0,0,0,6.9-1l.3,2.31a6.172,6.172,0,0,0-1.05.15,31.048,31.048,0,0,1-6.15.6c-3.42,0-5.57-.72-6.87-2.28a4.244,4.244,0,0,1-.9-2.76c0-1.83.75-3.45,2.62-5.58Zm-3.81-8.88a20.368,20.368,0,0,0,5.1.45,32.224,32.224,0,0,0,8-.81l.15,2.13-2.07.27a50.75,50.75,0,0,1-6.45.39,40.114,40.114,0,0,1-4.8-.3Z"/><path class="cls-2" d="M395.53,249.92a21.574,21.574,0,0,0-.18,4c0,.66,0,1,.06,3.12a29.881,29.881,0,0,0,8.79-1.14l.27,2.22a16.507,16.507,0,0,0-1.8.21,51.827,51.827,0,0,1-7.23.66c.09,2.91.24,5.82.39,7.74a25.918,25.918,0,0,1,8,4.26,13.766,13.766,0,0,0,1.38.93l-1.41,2.1a13.292,13.292,0,0,0-3.12-2.61,30.113,30.113,0,0,0-4.05-2.31,5.923,5.923,0,0,1-.72-.33,8.455,8.455,0,0,1,.12,1.29,5.364,5.364,0,0,1-.75,3c-.93,1.32-2.85,2.07-5.34,2.07-3.87,0-6.24-1.68-6.24-4.44s2.79-4.74,7.05-4.74a12.933,12.933,0,0,1,2.61.27c.15,0,.15.06.27.06s.06,0,.15.06a.816.816,0,0,0,0-.27v-.18c-.24-3.45-.45-9.24-.48-13.53a13.721,13.721,0,0,0-.15-2.43Zm-4.8,17.91c-3.06,0-4.92,1.08-4.92,2.82a2,2,0,0,0,.45,1.29,4.841,4.841,0,0,0,3.6,1.2,5.07,5.07,0,0,0,3.33-1,2.78,2.78,0,0,0,.72-2.25,16.241,16.241,0,0,0-.09-1.65,10.22,10.22,0,0,0-3.09-.41Z"/><path class="cls-2" d="M421.64,250.04a16.936,16.936,0,0,0-.69,3.09c-.48,3-.9,6.3-1,7.83h.12l.21-.87a13.387,13.387,0,0,1,1.83-4.47c1.68-2.58,3.66-3.87,6-3.87a5.651,5.651,0,0,1,4.8,2.67c1.26,1.86,1.8,4.08,1.8,7.29,0,5.43-2.43,9.54-6.93,11.79a22.7,22.7,0,0,1-5.34,1.77,6.2,6.2,0,0,0-1.2-2,15.852,15.852,0,0,0,6.09-1.89c3.51-2,5.16-5.16,5.16-10s-1.68-7.62-4.56-7.62c-2.28,0-4.2,1.71-5.91,5.22a15.648,15.648,0,0,0-1.62,6.69v.72l-2.16.09v-.87l-.06-3.12v-.69a75.787,75.787,0,0,1,1-11.07,5.987,5.987,0,0,0,.09-1Z"/><path class="cls-2" d="M445.02,268.13a30.583,30.583,0,0,1,6,6.36l-1.68,1.59a29.952,29.952,0,0,0-5.91-6.54Z"/><path class="cls-2" d="M489,249.53a20.545,20.545,0,0,0-.15,2.67,38.971,38.971,0,0,0,.66,6.51,24.633,24.633,0,0,0,8.31,13.14,22.043,22.043,0,0,0,3.48,2.34,6.83,6.83,0,0,0-1.56,1.89,27.469,27.469,0,0,1-8-7.68,25.866,25.866,0,0,1-3.9-9.54,25.43,25.43,0,0,1-2.07,6.69,20.17,20.17,0,0,1-4.29,6.15,25.507,25.507,0,0,1-5.52,4.38,5.724,5.724,0,0,0-1.62-1.77,21.191,21.191,0,0,0,6.12-4.53c4.17-4.47,6.21-10.23,6.21-17.61a20.423,20.423,0,0,0-.12-2.64Z"/><path class="cls-2" d="M509.24,272.87a21.693,21.693,0,0,0,.18,3.36H507.2a22.464,22.464,0,0,0,.18-3.36V253.49a25.934,25.934,0,0,0-.12-3.3,27.61,27.61,0,0,0,3.15.12h4.29a26.5,26.5,0,0,0,3.06-.12c-.06.84-.09,1.74-.09,2.85v3.72a24.894,24.894,0,0,0,.09,2.79c-.81-.06-1.83-.09-3-.09h-5.52Zm0-18.69h6.72v-2.4h-6.72Zm0,3.84h6.72v-2.43h-6.72Zm15.75,11.37a23.758,23.758,0,0,0,.09,2.73c-.84-.06-1.83-.09-3.06-.09h-6.57v2.1h-1.81a18.466,18.466,0,0,0,.15-2.82v-6.66a26.9,26.9,0,0,0-.09-2.82,26.833,26.833,0,0,0,3,.12h5.49a26.363,26.363,0,0,0,3-.12c-.06.84-.09,1.62-.09,2.82Zm-9.54-3.27h7.83v-2.67h-7.83Zm0,4.41h7.83v-2.88h-7.83Zm16.08,2.79c0,2-.63,2.49-3.06,2.49-.63,0-2.25-.06-3-.12a6.892,6.892,0,0,0-.54-1.92,32.57,32.57,0,0,0,3.3.3c1.23,0,1.47-.15,1.47-.87V259.46h-6.15a28.386,28.386,0,0,0-3,.09c.06-.78.09-1.68.09-2.79v-3.72c0-1,0-1.95-.09-2.85a26.05,26.05,0,0,0,3.06.12h4.95a27.61,27.61,0,0,0,3.15-.12,28.411,28.411,0,0,0-.15,3.3Zm-9.21-19.14h7.38v-2.4h-7.38Zm0,3.84h7.38v-2.43h-7.38Z"/><path class="cls-2" d="M547.79,250.1a52.224,52.224,0,0,0,2.25,9.93c1.77-.72,2.61-1,7.26-2.67a16.213,16.213,0,0,0,1.92-.78l.9,2.28a68.966,68.966,0,0,0-9,2.91c-5.13,2-7.35,4-7.35,6.51,0,2.73,2.31,3.78,8.19,3.78a29.815,29.815,0,0,0,8.58-1l.23,2.49a15.571,15.571,0,0,0-2.21.18,60.191,60.191,0,0,1-6.63.39,20.4,20.4,0,0,1-6.66-.81c-2.46-.9-3.72-2.55-3.72-4.92a6.492,6.492,0,0,1,2.67-5.1,18.7,18.7,0,0,1,3.93-2.43,61.139,61.139,0,0,1-2.19-8.4,10.055,10.055,0,0,0-.51-1.89Z"/><path class="cls-2" d="M572.41,252.29a18.389,18.389,0,0,0-.15-3.12h2.07a25.309,25.309,0,0,0-.12,3.09v3h.81a10.973,10.973,0,0,0,2-.12v1.89a12.843,12.843,0,0,0-1.92-.12h-.72a11.688,11.688,0,0,0,2.22,3.63,10.19,10.19,0,0,0-.84,1.56,10.363,10.363,0,0,1-1.62-3.21c.06,2.07.12,3.36.12,4.41v9.84a24.373,24.373,0,0,0,.15,3.48h-2.1a25.288,25.288,0,0,0,.18-3.48v-8.19c0-1.17.12-3.51.3-5.79a25.877,25.877,0,0,1-3.39,9.39,6.331,6.331,0,0,0-1.08-1.74,25.524,25.524,0,0,0,3.9-9.9h-1a13.03,13.03,0,0,0-2.07.12v-1.89a11.847,11.847,0,0,0,2.07.12h1.29ZM581.2,266c-.06.78-.06.84-.12,1.44a11.839,11.839,0,0,0,3.9,3.21,6.312,6.312,0,0,0-1,1.44,13.375,13.375,0,0,1-3.27-2.85,12.359,12.359,0,0,1-4.11,6.78,4.552,4.552,0,0,0-1.44-1.29c2.76-1.92,4-4.44,4.32-8.73h-.33a17.918,17.918,0,0,0-2.7.15v-1.89a16.579,16.579,0,0,0,2.7.15h6.84a34.265,34.265,0,0,1-.51-3.75,77.914,77.914,0,0,1-.45-9.39,11.73,11.73,0,0,0-.15-1.89h2.1a16.067,16.067,0,0,0-.15,2.94,77.026,77.026,0,0,0,.84,12.09h5.31a15.744,15.744,0,0,0,3.18-.18v1.95a19,19,0,0,0-3.18-.18h-5a14.174,14.174,0,0,0,1.5,4,10.759,10.759,0,0,0,2.79-3.36l1.53,1a35.608,35.608,0,0,1-3.48,3.66c1.29,1.83,2.52,2.91,3.3,2.91.36,0,.54-.24.81-1a13.713,13.713,0,0,0,.54-3,6.037,6.037,0,0,0,1.53,1c-.69,3.78-1.29,4.89-2.7,4.89s-3.09-1.26-4.8-3.72a23.5,23.5,0,0,1-7.44,3.78,4.533,4.533,0,0,0-1.2-1.53,20.871,20.871,0,0,0,7.77-3.63,17.219,17.219,0,0,1-1.83-5.07Zm1-15.9a27.4,27.4,0,0,1-2.82,4.62,14.713,14.713,0,0,1,1.44,1.74,24.626,24.626,0,0,0,1.8-3.3l1.44,1a54.157,54.157,0,0,1-4.65,6.6c1.47-.18,2.79-.36,3.75-.54a11.212,11.212,0,0,0-1-1.86l1.2-.45a18.848,18.848,0,0,1,1.95,4.29l-1.35.57c-.15-.6-.21-.78-.36-1.32-1.26.27-2.85.57-5.73,1a8.253,8.253,0,0,0-.84.15l-.36-1.71a1.8,1.8,0,0,0,.36,0,3.339,3.339,0,0,0,.51,0,38.437,38.437,0,0,0,2.4-3.15,19.756,19.756,0,0,0-3.54-3.75l1.08-1.2c.24.24.51.51.84.81a15.491,15.491,0,0,0,2.28-4.32Zm5.49,10a2.817,2.817,0,0,0,.45,0,1.159,1.159,0,0,0,.3,0c1-1.17,1.26-1.47,2.22-2.7a17.269,17.269,0,0,0-3.45-3.63l1-1.26c.48.45.6.57.93.9a16.664,16.664,0,0,0,2.19-4l1.56.84a34.135,34.135,0,0,1-2.73,4.14c.6.66.87,1,1.44,1.71a30.491,30.491,0,0,0,2.31-3.6l1.38,1.08c-2.73,3.66-3.57,4.74-5,6.39a32.591,32.591,0,0,0,3.66-.42,10.2,10.2,0,0,0-.9-1.68l1.23-.48a25.728,25.728,0,0,1,2.19,4.62l-1.38.54c-.27-.9-.39-1.23-.6-1.77-.69.15-2.67.42-5.91.84a4.857,4.857,0,0,0-.51.09Zm3.24,1.44a10.347,10.347,0,0,1,2.28,1.83l-1.08,1a10.875,10.875,0,0,0-2.25-2Z"/><path class="cls-2" d="M611.04,260.57a10.171,10.171,0,0,0,1.65-2.52c-.63-.06-1.14-.06-2.43-.06h-4.68a22.088,22.088,0,0,0-2.52.12,19.667,19.667,0,0,0,.12-2.34V252.5a20.624,20.624,0,0,0-.12-2.46,20.883,20.883,0,0,0,2.55.12h4.65a19.563,19.563,0,0,0,2.55-.12c-.06.69-.09,1.44-.09,2.43v5.48c.09-.27.12-.36.18-.6l2,.54a25.718,25.718,0,0,1-1.86,2.73h11.6a19.8,19.8,0,0,0,3-.18v2a21.807,21.807,0,0,0-3-.18h-6a21.891,21.891,0,0,0,9.93,5.22,6.675,6.675,0,0,0-1,1.68c-1.26-.48-1.74-.69-2.73-1.14v5.63a15.969,15.969,0,0,0,.18,2.64h-2v-1.44h-5.88v1.44h-1.92a16.6,16.6,0,0,0,.15-2.25v-5.58a20.126,20.126,0,0,0-.12-2.43,19.541,19.541,0,0,0,2.49.12h3.6a20,20,0,0,1-4.89-4h-4.62a22.311,22.311,0,0,1-4.71,4h3.48a19.439,19.439,0,0,0,2.46-.12,18.262,18.262,0,0,0-.12,2.43v5.31a12.794,12.794,0,0,0,.15,2.28H611.2v-1.2h-5.43v1.47h-2a17.8,17.8,0,0,0,.18-2.67v-5.7c-.93.45-1.26.63-2.43,1.14a3.8,3.8,0,0,0-1-1.62,21.316,21.316,0,0,0,9.06-5.28h-5.43a20.064,20.064,0,0,0-3,.18v-2a19.546,19.546,0,0,0,3,.18Zm-6.09-4.08h6v-4.84h-6Zm.75,16.8h5.43v-5.58H605.7Zm19.74-17.52a17.939,17.939,0,0,0,.12,2.34,23.15,23.15,0,0,0-2.58-.12h-4.92a20.974,20.974,0,0,0-2.58.12,16.767,16.767,0,0,0,.12-2.16v-3.51a19.436,19.436,0,0,0-.12-2.4,19.563,19.563,0,0,0,2.55.12h4.92a21.874,21.874,0,0,0,2.61-.12,18.9,18.9,0,0,0-.12,2.46Zm-8.37,17.52h5.88v-5.58h-5.88Zm.3-16.8h6.27v-4.84h-6.27Z"/><path class="cls-2" d="M639.23,251.18a12.08,12.08,0,0,0,.57,1.83c.6,1.77.9,2.61,1.32,4a53.327,53.327,0,0,1,6.45-1.68,41.641,41.641,0,0,0-.12-5.31h2.25a28.424,28.424,0,0,0-.15,4v1a15.136,15.136,0,0,1,2.25-.18c4,0,6.6,2.16,6.6,5.52,0,3.6-2.94,6.18-7,6.18a12.7,12.7,0,0,1-5.07-1.11,4.422,4.422,0,0,0,0-.54,13.273,13.273,0,0,0-.18-1.71,10.2,10.2,0,0,0,5,1.38,6.081,6.081,0,0,0,3.6-1.17,3.639,3.639,0,0,0,1.44-3.06c0-2.28-1.77-3.63-4.8-3.63-2.19,0-5.43.72-9.78,2.13,1.53,5.1,2.61,9.33,3.87,15a9.488,9.488,0,0,0,.39,1.29l-2.43.54c-.15-2.46-1.83-9.69-3.78-16.2a13.038,13.038,0,0,1-1.62.54,28,28,0,0,0-4.1,1.65l-.79-2.13a32.948,32.948,0,0,0,4.49-1.47c.75-.27,1-.33,1.53-.48a31.026,31.026,0,0,0-2.15-5.7Z"/><path class="cls-2" d="M666.47,252.41a13.2,13.2,0,0,0-2.4.15v-2a11.385,11.385,0,0,0,2.52.18h3a11.7,11.7,0,0,0,2.52-.18v2a12.794,12.794,0,0,0-2.28-.15h-.48v7.08h.42a9.375,9.375,0,0,0,1.95-.15v1.89a12.977,12.977,0,0,0-1.95-.12h-.42v7.11a38.2,38.2,0,0,0,3.54-1.53v1.86a72.988,72.988,0,0,1-7,2.85c-.63.24-1.17.48-1.59.66l-.6-2.13a15.858,15.858,0,0,0,3.78-1v-7.8h-.93a10.468,10.468,0,0,0-2,.15v-1.92a10.154,10.154,0,0,0,2,.15h.93v-7.08Zm24,15.87a1.752,1.752,0,0,0-.39.27l-.57.45a32.753,32.753,0,0,1-3.09,2.28,20.264,20.264,0,0,0,5.61,2.55,7.7,7.7,0,0,0-1,1.74,21.79,21.79,0,0,1-5.88-3.36,13.244,13.244,0,0,1-3.33-3.69c.06.69.12,1.89.12,2.94v2.28a16.721,16.721,0,0,0,.18,2.88h-2.1a17.488,17.488,0,0,0,.18-2.91v-2.19c0-.84.06-2.07.12-2.85a18,18,0,0,1-4.14,3.75,31.422,31.422,0,0,1-4.8,2.7,5.912,5.912,0,0,0-1.29-1.59,21.835,21.835,0,0,0,9.9-6.42h-3.72a22.848,22.848,0,0,0-2.34.09,16.054,16.054,0,0,0,.09-1.86v-2a17,17,0,0,0-.09-1.86c.72.06,1.38.09,2.4.09h10.53a19.4,19.4,0,0,0,2.49-.09,16.511,16.511,0,0,0-.09,1.86v2a15.532,15.532,0,0,0,.09,1.83,1.7,1.7,0,0,0-.39,0Zm-18.03-10.32a18.611,18.611,0,0,0,2.85.18h13.08a25.058,25.058,0,0,0,2.82-.15v1.86a25.454,25.454,0,0,0-2.76-.15H675.26a25.8,25.8,0,0,0-2.82.15Zm.72-6.09a12.385,12.385,0,0,0-.12-2,16.593,16.593,0,0,0,2.4.12h12.45a17.493,17.493,0,0,0,2.4-.12,12.989,12.989,0,0,0-.12,2v2.58a12.736,12.736,0,0,0,.12,2c-.66-.06-1.38-.09-2.31-.09H675.44a19.75,19.75,0,0,0-2.37.09,15.535,15.535,0,0,0,.09-2Zm5.22-.42h-3.51v3.42h3.51Zm-2.61,14.2h11.61v-2.61H675.77Zm7.5-14.19h-3.3v3.42h3.3Zm-1.11,15.66a16.968,16.968,0,0,0,3,3.18,13.426,13.426,0,0,0,3.75-3.12c-.48,0-1.17-.06-1.8-.06Zm6.33-15.66h-3.63v3.42h3.63Z"/><path class="cls-2" d="M699.34,252.71a24.927,24.927,0,0,0-.18-3.3h2.19a23.948,23.948,0,0,0-.18,3.3v4.38h.47a16.757,16.757,0,0,0,2.37-.12v1.92a17.653,17.653,0,0,0-2.4-.12h-.39v8.61c1.26-.57,1.8-.81,3.3-1.59l.12,1.86c-2.37,1.2-4,1.92-7.38,3.3-.39.18-.87.39-1.23.57l-.54-2.07a18.216,18.216,0,0,0,3.87-1.29V258.8h-1a18.367,18.367,0,0,0-2.61.15v-2a17.278,17.278,0,0,0,2.67.15h.93Zm8.88,16a19.691,19.691,0,0,0-2.55.12,12.292,12.292,0,0,0,.12-2.1V261.9a16.052,16.052,0,0,0-.12-2.34,24.293,24.293,0,0,0,2.88.12H718a24.138,24.138,0,0,0,2.82-.12,15.283,15.283,0,0,0-.12,2.4v4.59a14.485,14.485,0,0,0,.12,2.28,20.624,20.624,0,0,0-2.46-.12h-2.37v4.68c0,.57.33.66,2.64.66,1.62,0,2.16-.12,2.4-.48a8.391,8.391,0,0,0,.42-3.18,5.719,5.719,0,0,0,1.77.75c-.18,2.55-.45,3.54-1.14,4s-1.38.57-3.84.57c-2,0-2.7-.09-3.39-.42-.48-.24-.69-.66-.69-1.44v-5.19H711.1a8.08,8.08,0,0,1-.42,2.22,7.278,7.278,0,0,1-3.3,3.84,13.565,13.565,0,0,1-4.68,1.71,4.872,4.872,0,0,0-1.2-1.77c3.36-.54,5.1-1.23,6.33-2.49a5.1,5.1,0,0,0,1.44-3.51Zm10.65-17a20.888,20.888,0,0,0,3-.15v1.8a28.347,28.347,0,0,0-3-.12h-.3a26.351,26.351,0,0,1-1.47,3h2.61a19.04,19.04,0,0,0,3-.15v1.89a20.6,20.6,0,0,0-3-.15H707.35a25.59,25.59,0,0,0-2.85.12v-1.86a18.725,18.725,0,0,0,2.82.15h1.92a15.393,15.393,0,0,0-1.26-3h-.27a23.476,23.476,0,0,0-2.73.12v-1.8a20.19,20.19,0,0,0,3,.15h4.26v-.84a9.311,9.311,0,0,0-.15-2h2.16a9.311,9.311,0,0,0-.15,2v.81ZM707.5,263.35h11.43v-2.13H707.5Zm0,3.87h11.43v-2.37H707.5Zm7.77-11a18.541,18.541,0,0,0,1.44-3h-6.87a29.077,29.077,0,0,1,1.2,3Z"/><path class="cls-2" d="M739.64,266.12c-1.74,4-3.51,5.76-5.67,5.76-2.85,0-5-3.12-5-7.32a12.179,12.179,0,0,1,12.072-12.287q.384,0,.768.017a11.611,11.611,0,0,1,8.25,3,10,10,0,0,1,2.91,7.32,10.921,10.921,0,0,1-6.87,10.35,23.212,23.212,0,0,1-4.56,1.38,4.766,4.766,0,0,0-1-2,18.022,18.022,0,0,0,5-1.41,9.058,9.058,0,0,0,5.31-8.4,7.91,7.91,0,0,0-4.77-7.53,8.622,8.622,0,0,0-3.48-.75A45.02,45.02,0,0,1,739.64,266.12Zm-3.68-10.47a10.369,10.369,0,0,0-4.89,8.94c0,2.88,1.26,5.1,2.88,5.1,1.26,0,2.46-1.41,3.75-4.35a41.217,41.217,0,0,0,2.73-11.1A9.469,9.469,0,0,0,735.96,255.65Z"/><path class="cls-2" d="M4.14,310.65a20.986,20.986,0,0,0,5.61.48h.75a16.406,16.406,0,0,1,.15-2.25c0-.33.09-1.5.09-1.71a3.072,3.072,0,0,0,0-.45l2.34.15a20.016,20.016,0,0,0-.63,4.2,46.079,46.079,0,0,0,11.43-1.68l.12,2.1-1,.15a83.974,83.974,0,0,1-10.62,1.2c-.18,2.55-.18,2.55-.21,4a15.866,15.866,0,0,1,4.44-.6,12,12,0,0,1,1.74.09,11.28,11.28,0,0,0,.72-2.7l2.07.63c-.09.18-.42,1-.93,2.4,4.14,1,6.45,3.51,6.45,7,0,2.94-1.62,5.31-4.71,6.93a16.523,16.523,0,0,1-6.12,1.71,6.181,6.181,0,0,0-1-2,14,14,0,0,0,4.5-.81c3.27-1.14,5.16-3.33,5.16-6s-1.71-4.38-5-5.22a26.992,26.992,0,0,1-5.7,9c-2.31,2.4-4.59,3.63-6.69,3.63s-3.87-1.89-3.87-4.56c0-3.69,2.61-7,7-8.94a38.125,38.125,0,0,1,.18-4.53H9.21c-.3,0-1.65-.06-4-.15a4.864,4.864,0,0,0-.54,0,2.959,2.959,0,0,0-.48,0Zm2.88,11.1a7.093,7.093,0,0,0-1.83,4.47c0,1.65.87,2.73,2.16,2.73a5.419,5.419,0,0,0,3.45-1.53,42.5,42.5,0,0,1-.6-8.13,10.736,10.736,0,0,0-3.18,2.48Zm5.49,4.44a3.238,3.238,0,0,1,.57-.78,27.11,27.11,0,0,0,4.59-7.5c-1-.06-1.11-.06-1.44-.06a13.465,13.465,0,0,0-4.17.69,50.541,50.541,0,0,0,.33,6.87,1.966,1.966,0,0,1,0,.42v.33Z"/><path class="cls-2" d="M38.73,308.75a13.867,13.867,0,0,0,2.82.18c2.49,0,6.48-.18,9.18-.39a3.062,3.062,0,0,0,1.44-.33l1.26,1.65a5.532,5.532,0,0,0-1.53,1.26,76.993,76.993,0,0,1-9.87,8.52l.06.09a15.2,15.2,0,0,1,7.35-1.86c5,0,8.21,2.46,8.21,6.3,0,4.68-4.34,7.77-11,7.77-4.23,0-6.66-1.56-6.66-4.32,0-2,1.86-3.51,4.35-3.51a6,6,0,0,1,5,2.46,8.591,8.591,0,0,1,1.3,2.88c3.15-.87,4.8-2.7,4.8-5.25,0-2.88-2.4-4.59-6.45-4.59a19.25,19.25,0,0,0-12.63,5.13l-1.35-1.92a33.41,33.41,0,0,0,4.2-3.06c3.21-2.55,8-6.72,10-8.76l.42-.42.12-.12.12-.12-.06-.06h-.27c-1,.18-4.56.39-9.12.54a14.666,14.666,0,0,0-1.62.15Zm5.64,17.07c-1.5,0-2.43.72-2.43,1.86a2,2,0,0,0,1.2,1.83,7.675,7.675,0,0,0,3.36.69,10.809,10.809,0,0,0,2.19-.21c-.66-2.73-2.16-4.17-4.32-4.17Z"/><path class="cls-2" d="M65,321.41c1-.63,3.39-3.24,6-6.69a12.845,12.845,0,0,1,1.5-1.8,3.119,3.119,0,0,1,5,.21c.3.27.81.84,2.19,2.43,3.66,4.32,10.32,10.35,11.91,10.8l-1,2.58a5.389,5.389,0,0,0-.72-.63,92.034,92.034,0,0,1-13.11-12.93c-.81-.93-1.29-1.29-1.8-1.29s-.93.24-2.37,2.16a79.084,79.084,0,0,1-5.25,6.39c-.54.6-.6.66-.87,1Zm19.44-11.34a22.736,22.736,0,0,1,3.09,4.65l-1.5.9a22.222,22.222,0,0,0-3.09-4.77Zm3.39-1.65a25.26,25.26,0,0,1,3.09,4.68l-1.5.87a21.887,21.887,0,0,0-3.06-4.74Z"/><path class="cls-2" d="M99.46,311.65c.72.06,1.23.09,2.25.09a59.28,59.28,0,0,0,7.11-.42,38.75,38.75,0,0,0-1.8-4.11l2.25-.39a24.948,24.948,0,0,0,1.59,4.23,37.964,37.964,0,0,0,8-2l.18,1.95c-2.67.72-5.88,1.41-7.56,1.68.45,1,1.26,2.58,1.71,3.39,4-.81,5.64-1.26,6.87-1.86l.24,2c-.51.12-.63.12-1.62.39-2.1.54-3.6.87-4.71,1.08a35.116,35.116,0,0,0,4.41,6l-1.77,1.26a8.14,8.14,0,0,0-3.3-1.14,30.4,30.4,0,0,0-3.93-.27c-4.32,0-7.11,1.35-7.11,3.42s2.28,3.06,6.39,3.06c3.12,0,7.08-.9,8.88-2l.42,2.34a17.49,17.49,0,0,0-1.8.51,26.143,26.143,0,0,1-7.68,1.11,12.1,12.1,0,0,1-6.18-1.26,4.189,4.189,0,0,1-2.25-3.72c0-3.24,3.45-5.19,9.15-5.19a18,18,0,0,1,6.06.87,27.471,27.471,0,0,1-3.21-4.62,62.443,62.443,0,0,1-10.53.87c-1.44.06-1.56.06-2.1.12l-.06-2a23.447,23.447,0,0,0,2.4.09,59.7,59.7,0,0,0,9.45-.75,37.587,37.587,0,0,1-1.71-3.42,63.781,63.781,0,0,1-8.1.54,16.511,16.511,0,0,0-1.86.09Z"/><path class="cls-2" d="M131.34,329.87a19.672,19.672,0,0,0,.19,3.36h-2.22a23.877,23.877,0,0,0,.18-3.36V310.22a32.742,32.742,0,0,0-.13-3.3,27.713,27.713,0,0,0,3.13.12h4.5a26.318,26.318,0,0,0,3.05-.12c-.05.84-.09,1.74-.09,2.85v3.27a24.323,24.323,0,0,0,.09,2.76c-.84-.06-1.77-.09-3-.09h-5.7Zm0-19.23h6.9v-2.19h-6.9Zm0,3.66h6.9v-2.28h-6.9Zm11.19,10.86a11.3,11.3,0,0,0,6.66,4.2,7.008,7.008,0,0,0-.9,1.68,18.1,18.1,0,0,0,2.61.21c.81,0,1.05-.18,1.05-.87V315.71h-6.21a29.626,29.626,0,0,0-3.06.09c.06-.78.09-1.68.09-2.76v-3.27c0-1,0-2-.09-2.85a26.5,26.5,0,0,0,3.06.12h5.07a27.61,27.61,0,0,0,3.15-.12,28.411,28.411,0,0,0-.15,3.3v20.25c0,2-.51,2.49-2.91,2.49-.84,0-1.83-.06-2.82-.12a5.656,5.656,0,0,0-.45-1.89,5.628,5.628,0,0,0,.66.09,13.14,13.14,0,0,1-6.89-5c-1.15,2.88-3,4.41-7.33,6a4.46,4.46,0,0,0-1.1-1.56,12.688,12.688,0,0,0,5.3-2.55,5.878,5.878,0,0,0,1.68-2.73h-3.78a17.061,17.061,0,0,0-2.72.15v-1.77a15.274,15.274,0,0,0,2.66.15h4.21a20.742,20.742,0,0,0,.17-2.67h-3.85a18.91,18.91,0,0,0-2.54.12v-1.71a13.84,13.84,0,0,0,2.54.15h1.53a14.512,14.512,0,0,0-1.83-2.52l1.53-.63a22.885,22.885,0,0,1,2.1,3.15h3.06a15.37,15.37,0,0,0,1.8-3.18l1.68.51a23.7,23.7,0,0,1-1.68,2.67h1.71a14.5,14.5,0,0,0,2.55-.15v1.71a19.389,19.389,0,0,0-2.55-.12h-4.3a19.435,19.435,0,0,1-.25,2.67h5.1a15.892,15.892,0,0,0,2.67-.15v1.77a16.037,16.037,0,0,0-2.7-.15Zm2-14.52h7.44v-2.19h-7.44Zm0,3.66h7.44v-2.28h-7.44Z"/><path class="cls-2" d="M162.72,320.65c0-1.47,0-2.7.12-4.44a18.855,18.855,0,0,1-2.64,4.14,18.332,18.332,0,0,0-1.17-1.68,25.719,25.719,0,0,0,5-8.49,19.971,19.971,0,0,0,1.14-4.2l2.1.54a8.97,8.97,0,0,0-.51,1.47,45.976,45.976,0,0,1-2.16,5.4v16.32a30.546,30.546,0,0,0,.12,3.72h-2.18a30.116,30.116,0,0,0,.18-3.69Zm9.72,3.54a21.1,21.1,0,0,1-4.65,7.5,6.3,6.3,0,0,0-1.59-1.17,14.179,14.179,0,0,0,2.61-3,15.861,15.861,0,0,0,1.89-4Zm-6.18-3.75a22.7,22.7,0,0,0,2.88.12h2.55a26.767,26.767,0,0,0,2.52-2.19,40.734,40.734,0,0,0-6.3-4.44l1.08-1.38c1.14.69,1.47.9,2.31,1.47a17.4,17.4,0,0,0,3.09-3.72c-2.16.27-3.87.45-6.09.57a4.589,4.589,0,0,0-.69-1.74c6.33-.15,14.43-1.44,16.35-2.55l1.26,1.65-1.68.42a67.3,67.3,0,0,1-6.69,1.32,33.964,33.964,0,0,1-4.2,5c1.14.81,1.71,1.23,2.85,2.19a28.559,28.559,0,0,0,5.1-6.3l1.89,1a26.868,26.868,0,0,0-1.71,2.1,58.267,58.267,0,0,1-6.51,6.54c5.16-.18,5.7-.21,8.64-.51a39.063,39.063,0,0,0-2.64-3.12l1.44-.78a36.138,36.138,0,0,1,5,6.57l-1.62,1c-.57-1.08-.78-1.44-1.2-2.16-2.22.21-2.22.21-6.93.51v8.31a22.532,22.532,0,0,0,.18,3.18h-2.25a22.868,22.868,0,0,0,.18-3.15V322.1c-2.49.15-4.89.24-7.2.3a8.962,8.962,0,0,0-1.35.09Zm15.18,2.91a22.492,22.492,0,0,0,2.61,4.35,18.837,18.837,0,0,0,2.52,2.73c-.54.39-1.05.78-1.56,1.23a28.307,28.307,0,0,1-5.16-7.47Z"/><path class="cls-2" d="M200.72,310.91a12.705,12.705,0,0,0,1.44-4.11l2.4.42a6.372,6.372,0,0,0-.78,1.62,14.053,14.053,0,0,1-.93,2,5.093,5.093,0,0,1,.63,0c4.8-.24,7.8-.6,9.45-1.14l.18,2a9.3,9.3,0,0,0-1.2.15,97.012,97.012,0,0,1-9.9.78,22.157,22.157,0,0,1-2.7,4.26c-.3.36-.9,1-1,1.14a1.759,1.759,0,0,1-.39.3h0a.237.237,0,0,0,.06.09c1.08-.84,1.08-.84,1.38-1.05a8.007,8.007,0,0,1,4.53-1.47,3.641,3.641,0,0,1,3.993,3.249c0,.027,0,.054.007.081,2.19-.87,3.9-1.5,5.22-2a6.6,6.6,0,0,0,2-.87l1,2.1a49.8,49.8,0,0,0-8,2.64c.06.78.06,1.08.06,1.83v3a6.5,6.5,0,0,0,.06,1.08h-2q.2-2.154.18-4.32a7.948,7.948,0,0,0,0-.9c-4.08,1.92-5.64,3.33-5.64,5.13,0,2,1.86,2.85,6.09,2.85a25.147,25.147,0,0,0,8-1.17l.27,2.31a11.811,11.811,0,0,0-1.2.15,46.6,46.6,0,0,1-7.29.6c-5.37,0-8-1.53-8-4.62,0-1.65,1-3.21,3.06-4.74a23.259,23.259,0,0,1,4.47-2.4c-.24-1.65-1-2.37-2.37-2.37-1.89,0-4.26,1.11-6.69,3.18a9.919,9.919,0,0,0-2.31,2.49l-1.68-1.68a29.83,29.83,0,0,0,6.72-8.58l.27-.45a3.413,3.413,0,0,1-.57.06l-4.41-.09h-.48a5.191,5.191,0,0,0-.66,0v-2.07a42,42,0,0,0,6.42.33Z"/><path class="cls-2" d="M226.64,309.41a18.116,18.116,0,0,0-.21-3.06h2.21a17.507,17.507,0,0,0-.18,3v2.94H229a9.707,9.707,0,0,0,2.07-.15v2a13.93,13.93,0,0,0-2-.12h-.57v5.63c1-.42,1.53-.66,2.88-1.35l.15,1.71c-1.26.66-1.62.84-3,1.5v9.54c0,1.71-.75,2.19-3.45,2.19h-1.11a6.988,6.988,0,0,0-.45-1.89,12.3,12.3,0,0,0,2.1.15c.75,0,1.05-.18,1.05-.69v-8.46l-1.59.66a10.554,10.554,0,0,0-1.77.81l-.6-2a20.186,20.186,0,0,0,4-1.32v-6.45h-1.5a16.809,16.809,0,0,0-2.22.12v-2a12.846,12.846,0,0,0,2.25.18h1.4Zm7.44,12.84a18.19,18.19,0,0,0-2.73.15v-2a17.881,17.881,0,0,0,2.85.18h4.86v-1a12.153,12.153,0,0,0-.21-2.61h2.16a13.177,13.177,0,0,0-.15,2.43v1.2h6.21a17.812,17.812,0,0,0,2.73-.18v2a19.539,19.539,0,0,0-2.67-.15h-5.55a20.521,20.521,0,0,0,3.66,3.84,21.747,21.747,0,0,0,5.37,3.24,7.033,7.033,0,0,0-1.2,1.77,21.509,21.509,0,0,1-8.7-7.8,16.983,16.983,0,0,1,.15,2.55v4.74a14.092,14.092,0,0,0,.18,2.76h-2.2a14.252,14.252,0,0,0,.21-2.79v-4.77a22.475,22.475,0,0,1,.09-2.46,22.65,22.65,0,0,1-8.28,7.62,5.192,5.192,0,0,0-1.32-1.59,20.81,20.81,0,0,0,8.55-7.11Zm-.57-12.9v3.3h-1.87a18.053,18.053,0,0,0,.09-1.86v-1.32a16.765,16.765,0,0,0-.09-1.82c.69.06,1.38.09,2.64.09h12.24a21.886,21.886,0,0,0,2.7-.09,10.712,10.712,0,0,0-.09,1.86v1a9.077,9.077,0,0,0,.09,1.68h-1.89v-2.82h-4.14v5.37c0,.57.33.66,2.4.66,2.58,0,2.67-.09,2.7-2.52a4.312,4.312,0,0,0,1.62.54c-.3,3.33-.69,3.63-4.53,3.63-3.27,0-3.93-.3-3.93-1.83v-5.85h-2.61a10.8,10.8,0,0,1-1.44,5.49,9.461,9.461,0,0,1-4.41,3.45,5.84,5.84,0,0,0-1.26-1.53c3.78-1.26,5.22-3.24,5.37-7.41Z"/><path class="cls-2" d="M270.88,321.11a26.935,26.935,0,0,0,3.36-.15c-.06.66-.09,1.29-.12,2.64l-.12,6.09c0,.9.32,1,2.66,1,2.11,0,2.71-.15,2.91-.69a16.924,16.924,0,0,0,.49-4.5,7.271,7.271,0,0,0,1.94.78c-.47,6-.65,6.18-5.48,6.18-3.66,0-4.44-.39-4.44-2.4v-.15l.12-7h-5.56a11.5,11.5,0,0,1-2.34,5,13.234,13.234,0,0,1-3.21,2.88,20.239,20.239,0,0,1-5,2.46,4.628,4.628,0,0,0-1.32-1.71,18.726,18.726,0,0,0,5.76-2.7,9.8,9.8,0,0,0,4.17-5.88h-4.74a21.4,21.4,0,0,0-3.24.18v-2.13a20.131,20.131,0,0,0,3.18.18h5.16a21.248,21.248,0,0,0,.21-2.52,9.989,9.989,0,0,0-.12-1.62h2.28a9.116,9.116,0,0,0-.24,1.89c-.06.72-.12,1.47-.24,2.22Zm-4-12.69a9.221,9.221,0,0,0-.21-2.16h2.34a8.765,8.765,0,0,0-.21,2.16v.93h8.91a25.263,25.263,0,0,0,3-.15,13.639,13.639,0,0,0-.11,2.07v1.53a14.035,14.035,0,0,0,.11,2.1h-2v-3.84h-7.47v4.35c0,.36.06.51.21.6a5.871,5.871,0,0,0,1.92.21,5.541,5.541,0,0,0,2.43-.33c.33-.24.48-1,.51-2.43a6.266,6.266,0,0,0,1.79.57c-.14,1.89-.38,2.73-.89,3.18s-1.74.66-3.87.66c-3.15,0-3.9-.33-3.9-1.65v-5.16h-3.69a8.221,8.221,0,0,1-1.05,3.33,8.451,8.451,0,0,1-4.74,3.81,27.718,27.718,0,0,1-2.79.87,8.237,8.237,0,0,0-1.14-1.65c3.21-.6,4.71-1.2,6-2.4a5.673,5.673,0,0,0,1.83-4h-6.39v3.81h-2a14.453,14.453,0,0,0,.12-2.1v-1.5a13.518,13.518,0,0,0-.12-2.07,25.054,25.054,0,0,0,3,.15h8.31Z"/><path class="cls-2" d="M294.33,307.7a46.206,46.206,0,0,0-.39,6.33c-.12,3.6-.21,7.68-.21,9,0,.36,0,1.11.06,1.8a4.721,4.721,0,0,0,1.41,3.6,5.661,5.661,0,0,0,3.75,1.17,8.619,8.619,0,0,0,8-5.22,17.805,17.805,0,0,0,1.47-4.71,8.469,8.469,0,0,0,2.16,1.44c-1.14,3.51-2,5.28-3.33,6.81a10.5,10.5,0,0,1-8.46,3.75c-2.55,0-4.44-.72-5.64-2.1s-1.65-3-1.65-6.15c0-2,0-2.76.27-12.21v-2a9.21,9.21,0,0,0-.12-1.59Z"/><path class="cls-2" d="M318.45,325.13a30.607,30.607,0,0,1,6,6.36l-1.68,1.59a29.93,29.93,0,0,0-5.91-6.54Z"/><path class="cls-2" d="M362.1,306.92a21.574,21.574,0,0,0-.18,4c0,.66,0,1,.06,3.12a29.881,29.881,0,0,0,8.79-1.14l.27,2.22a16.507,16.507,0,0,0-1.8.21,51.841,51.841,0,0,1-7.23.66c.09,2.91.24,5.82.39,7.74a25.918,25.918,0,0,1,8,4.26,13.766,13.766,0,0,0,1.38.93l-1.41,2.1a13.292,13.292,0,0,0-3.12-2.61,30.113,30.113,0,0,0-4.05-2.31,5.923,5.923,0,0,1-.72-.33,8.455,8.455,0,0,1,.12,1.29,5.364,5.364,0,0,1-.75,3c-.93,1.32-2.85,2.07-5.34,2.07-3.87,0-6.24-1.68-6.24-4.44s2.79-4.74,7.05-4.74a12.933,12.933,0,0,1,2.61.27c.15,0,.15.06.27.06s.06,0,.15.06a.816.816,0,0,0,0-.27v-.18c-.24-3.45-.45-9.24-.48-13.53a13.721,13.721,0,0,0-.15-2.43Zm-4.8,17.91c-3.06,0-4.92,1.08-4.92,2.82a2,2,0,0,0,.45,1.29,4.841,4.841,0,0,0,3.6,1.2,5.07,5.07,0,0,0,3.33-1,2.78,2.78,0,0,0,.72-2.25,16.241,16.241,0,0,0-.09-1.65A10.22,10.22,0,0,0,357.3,324.83Z"/><path class="cls-2" d="M388.22,307.04a16.936,16.936,0,0,0-.69,3.09c-.48,3-.9,6.3-1,7.83h.12l.21-.87a13.387,13.387,0,0,1,1.83-4.47c1.68-2.58,3.66-3.87,6-3.87a5.651,5.651,0,0,1,4.8,2.67c1.26,1.86,1.8,4.08,1.8,7.29,0,5.43-2.43,9.54-6.93,11.79a22.7,22.7,0,0,1-5.34,1.77,6.2,6.2,0,0,0-1.2-2,15.852,15.852,0,0,0,6.09-1.89c3.51-2,5.16-5.16,5.16-10s-1.68-7.62-4.56-7.62c-2.28,0-4.2,1.71-5.91,5.22a15.651,15.651,0,0,0-1.62,6.69v.72l-2.16.09v-.87l-.06-3.12v-.69a75.787,75.787,0,0,1,1-11.07,5.987,5.987,0,0,0,.09-1Z"/><path class="cls-2" d="M417.32,321.35v8.73c3.08-.72,5.09-1.26,7.7-2.1v1.86a104.46,104.46,0,0,1-11.73,3.06,15.923,15.923,0,0,0-1.67.39l-.6-2.19a29.023,29.023,0,0,0,4.31-.63V312.02a23.052,23.052,0,0,0-.12-2.73,20.309,20.309,0,0,0,2.61.12h5.55v-1.17a9.984,9.984,0,0,0-.21-2.16h2.38a8.961,8.961,0,0,0-.22,2.19v1.14h5.88a20.423,20.423,0,0,0,2.64-.12c-.06.66-.12,1.65-.12,2.76v6.69a21.35,21.35,0,0,0,.09,2.67c-.75,0-1.89-.06-2.55-.06h-6.8a11.363,11.363,0,0,0,2.9,4.56c3.51-1.83,5.55-3.21,6.9-4.71l1.5,1.44c-.33.24-.36.24-1.11.78a35.487,35.487,0,0,1-6,3.63,23.088,23.088,0,0,0,9.36,4.32,7.619,7.619,0,0,0-1.08,2c-4.74-1.56-7.89-3.3-10.44-5.79a14.944,14.944,0,0,1-4-6.21Zm0-7h14.57v-3.27H417.32Zm0,5.28h14.57V316H417.32Z"/><path class="cls-2" d="M447.79,309.86a21.746,21.746,0,0,0-.21,3.57,51.374,51.374,0,0,0,.78,9.33c.66,3.06,1.89,5.13,3,5.13.54,0,1.05-.51,1.5-1.5a21.614,21.614,0,0,0,1.56-5.13,9.588,9.588,0,0,0,1.77,1.71c-1.47,5.25-2.85,7.26-5,7.26-1.68,0-3.24-1.68-4.26-4.56s-1.47-6.69-1.62-14.07a16.354,16.354,0,0,0-.09-1.77Zm14.49,1.59a26.022,26.022,0,0,1,4.29,6.84,28.712,28.712,0,0,1,2.25,8l-2.13.87a26.5,26.5,0,0,0-6.24-14.79Z"/><path class="cls-2" d="M489.33,318.02c-.36,7.77-2.88,11.43-9.66,14.07a5.252,5.252,0,0,0-1.41-2c6.21-2.07,8.55-5.28,8.79-12.12h-8.13a23.672,23.672,0,0,0-3.45.15V315.9a19.856,19.856,0,0,0,3.48.18H496.5a19.659,19.659,0,0,0,3.48-.18v2.22a23.672,23.672,0,0,0-3.45-.15Zm-10.83-9.51a15.577,15.577,0,0,0,3.45.21h9.06a27.231,27.231,0,0,0,3.45-.15v2.16q-.589,0-3.42-.09h-9.12a20.905,20.905,0,0,0-3.42.15Zm17.58-2.52a23.339,23.339,0,0,1,2.94,4.74l-1.53.84a22.866,22.866,0,0,0-2.91-4.86Zm3.69-1.14a24.96,24.96,0,0,1,2.94,4.74l-1.53.84a23.521,23.521,0,0,0-2.91-4.83Z"/><path class="cls-2" d="M523.76,313.7v-2.94a21.128,21.128,0,0,0-.09-3.06h2.34a23,23,0,0,0-.12,2.85v3.15h2.58a20.5,20.5,0,0,0,3.51-.18v2.28a24.084,24.084,0,0,0-3.48-.15h-2.64c0,5.79-.36,8-1.47,10.17-1.62,3-4.32,5.1-8.37,6.48a5.367,5.367,0,0,0-1.35-1.89c3.93-1,7-3.33,8.16-6.36.66-1.8.84-3.6.9-8.4h-9.09v5a15.665,15.665,0,0,0,.12,2.43h-2.43a14.347,14.347,0,0,0,.12-2.52v-4.91h-2.52a24.084,24.084,0,0,0-3.48.15v-2.28a20.5,20.5,0,0,0,3.51.18h2.49v-3.48a14.642,14.642,0,0,0-.12-2.52h2.43a15.917,15.917,0,0,0-.12,2.43v3.57Zm5-7.89a23.843,23.843,0,0,1,2.13,4.92l-1.59.54a23.137,23.137,0,0,0-2.13-5Zm3.45-1a23.269,23.269,0,0,1,2.13,4.89l-1.56.54a24,24,0,0,0-2.1-4.92Z"/><path class="cls-2" d="M561.64,308.75a6.8,6.8,0,0,0-1.32,1.26,52.809,52.809,0,0,1-7,6v12.78a19.882,19.882,0,0,0,.15,3.18h-2.61a15.661,15.661,0,0,0,.18-3.12v-11.4a46.884,46.884,0,0,1-11.58,5.25,7,7,0,0,0-1.17-2,42.225,42.225,0,0,0,15.57-7.77,25.189,25.189,0,0,0,5.73-5.67Z"/><path class="cls-2" d="M571.99,328.49a26.114,26.114,0,0,0,8.73-2.31c5.79-2.58,9.81-7,12.24-13.35a5.989,5.989,0,0,0,1.83,1.77c-2.4,5.22-5.19,8.73-9.15,11.46-3.09,2.1-6.18,3.33-11.19,4.47a15.753,15.753,0,0,0-1.8.48Zm1.92-18.6a39.087,39.087,0,0,1,7.23,5.64l-1.56,1.86a33.149,33.149,0,0,0-7.14-5.88Z"/><path class="cls-2" d="M613.08,323.12c-1.74,4-3.51,5.76-5.67,5.76-2.85,0-5-3.12-5-7.32a12.179,12.179,0,0,1,12.072-12.287q.384,0,.768.017a11.611,11.611,0,0,1,8.25,3,10,10,0,0,1,2.91,7.32,10.921,10.921,0,0,1-6.87,10.35,23.212,23.212,0,0,1-4.56,1.38,4.774,4.774,0,0,0-1.05-2,18.022,18.022,0,0,0,5-1.41,9.059,9.059,0,0,0,5.31-8.4,7.91,7.91,0,0,0-4.77-7.53,8.622,8.622,0,0,0-3.48-.75A45.02,45.02,0,0,1,613.08,323.12Zm-3.69-10.47a10.367,10.367,0,0,0-4.89,8.94c0,2.88,1.26,5.1,2.88,5.1,1.26,0,2.46-1.41,3.75-4.35a41.217,41.217,0,0,0,2.73-11.1A9.469,9.469,0,0,0,609.39,312.65Z"/><path class="cls-2" d="M649.31,321.17h-5.4a13.239,13.239,0,0,0-2.42.15v-1.67a31.613,31.613,0,0,1-3,1.44v9.84c0,1.65-.66,2.13-2.94,2.13a18.983,18.983,0,0,1-2.4-.12,6.014,6.014,0,0,0-.42-1.89,18.763,18.763,0,0,0,2.82.24c.88,0,1.11-.18,1.11-.84v-8.58c-2,.84-3.23,1.35-3.62,1.53l-.55-2a18.354,18.354,0,0,0,4.17-1.38v-6.3h-1.73a21.129,21.129,0,0,0-2.22.15v-2a13.46,13.46,0,0,0,2.25.18h1.68v-2.73a19.8,19.8,0,0,0-.18-3h2.2a17.408,17.408,0,0,0-.19,3v2.79h1.32a9.21,9.21,0,0,0,2.07-.15v2a12.385,12.385,0,0,0-2-.12h-1.35v5.52a27.177,27.177,0,0,0,3.24-1.56v1.74a17.2,17.2,0,0,0,2.28.12h12.48a16.572,16.572,0,0,0,2.67-.18v2a16.687,16.687,0,0,0-2.67-.18h-5.37v3.35h4a14.609,14.609,0,0,0,2.61-.15v1.89a15.393,15.393,0,0,0-2.61-.15h-4v4.32a24.154,24.154,0,0,0,3.78.27c1.5,0,3.12-.06,4.89-.21a5.53,5.53,0,0,0-.57,2h-2.7c-5.13,0-7.89-.54-9.8-1.89a11.5,11.5,0,0,1-2.56-2.52,18.976,18.976,0,0,1-3.48,5.16,4.752,4.752,0,0,0-1.53-1.14,15.221,15.221,0,0,0,3.75-5.46,13.557,13.557,0,0,0,1.11-4.14l2,.48a10.243,10.243,0,0,0-.49,1.53c-.21.66-.39,1.26-.63,1.89a8.384,8.384,0,0,0,4.44,3.57Zm-3.27-3.9a23.649,23.649,0,0,0-2.7.09c.06-.87.09-1.74.09-2.82v-4.35a25.08,25.08,0,0,0-.09-2.79,25.525,25.525,0,0,0,2.82.12h8.16a24.147,24.147,0,0,0,2.82-.12,16.882,16.882,0,0,0-.12,2.4v4.85a21.173,21.173,0,0,0,.12,2.7c-.69-.06-1.68-.09-2.88-.09Zm-.84-5.64h10v-2.52h-10Zm0,4.08h10v-2.55h-10Z"/><path class="cls-2" d="M687.32,323.57a26.463,26.463,0,0,0,3.33-.18v2a26.463,26.463,0,0,0-3.33-.18h-7.68a26.922,26.922,0,0,0,11.73,6,7.477,7.477,0,0,0-1.23,1.8,36.81,36.81,0,0,1-5.16-2.16,26.643,26.643,0,0,1-6.87-4.95c.06,1.2.12,2.61.12,3.24v1.29a16.071,16.071,0,0,0,.18,2.94h-2.16a17.632,17.632,0,0,0,.18-2.94v-1.29c0-.63,0-1.5.09-3.21a25.98,25.98,0,0,1-6.57,4.83,43.447,43.447,0,0,1-4.95,2.22,5.825,5.825,0,0,0-1.29-1.71,33.348,33.348,0,0,0,6.78-2.79,19.273,19.273,0,0,0,4.47-3.24h-7.08a25.626,25.626,0,0,0-3.3.18v-2a25.164,25.164,0,0,0,3.27.18h8.58v-.36a13.787,13.787,0,0,0-.12-2h2a12.865,12.865,0,0,0-.12,2v.39Zm-3.18-9a11.692,11.692,0,0,1-3.45,3.42,80.824,80.824,0,0,1,8.55,2.67l-1.17,1.47a59.856,59.856,0,0,0-9.27-3.06c-3.45,1.65-7.14,2.46-13,2.85a4.573,4.573,0,0,0-.81-1.62,33.506,33.506,0,0,0,11.25-1.83c-1.95-.42-3.6-.69-6.75-1.11a25.371,25.371,0,0,0,2.85-2.79h-4.38a21.965,21.965,0,0,0-3,.18v-1.86a18.07,18.07,0,0,0,2.94.18h5.74a10.872,10.872,0,0,0,1.77-2.85l2,.54-1.68,2.31h11.7a15.687,15.687,0,0,0,3-.18v1.86a20.752,20.752,0,0,0-3-.18Zm-7.71-6.51a10.887,10.887,0,0,0-.21-2.22h2.28a9.976,9.976,0,0,0-.21,2.22v.18h8.82a28.347,28.347,0,0,0,3-.12,9.39,9.39,0,0,0-.12,1.74v.57a13.964,13.964,0,0,0,.09,1.71h-1.92V309.8h-21v2.31h-1.92a13.79,13.79,0,0,0,.09-1.65v-.6a10.56,10.56,0,0,0-.12-1.74c1,.09,1.77.12,3,.12h8.13Zm-1.92,6.51c-.69.78-.93,1-1.74,1.86,2.13.33,3.75.63,5.7,1.08a10.145,10.145,0,0,0,3.51-2.94Z"/><path class="cls-2" d="M705.22,310.91a12.705,12.705,0,0,0,1.44-4.11l2.4.42a6.372,6.372,0,0,0-.78,1.62,14.053,14.053,0,0,1-.93,2,5.093,5.093,0,0,1,.63,0c4.8-.24,7.8-.6,9.45-1.14l.18,2a9.3,9.3,0,0,0-1.2.15,97.012,97.012,0,0,1-9.9.78,22.157,22.157,0,0,1-2.7,4.26c-.3.36-.9,1-1,1.14a1.759,1.759,0,0,1-.39.3h0a.237.237,0,0,0,.06.09c1.08-.84,1.08-.84,1.38-1.05a8.007,8.007,0,0,1,4.53-1.47,3.641,3.641,0,0,1,3.993,3.249c0,.027,0,.054.007.081,2.19-.87,3.9-1.5,5.22-2a6.6,6.6,0,0,0,2-.87l1,2.1a49.8,49.8,0,0,0-8,2.64c.06.78.06,1.08.06,1.83v3a6.5,6.5,0,0,0,.06,1.08h-2q.2-2.154.18-4.32a7.948,7.948,0,0,0,0-.9c-4.08,1.92-5.64,3.33-5.64,5.13,0,2,1.86,2.85,6.09,2.85a25.147,25.147,0,0,0,8-1.17l.27,2.31a11.811,11.811,0,0,0-1.2.15,46.6,46.6,0,0,1-7.29.6c-5.37,0-8-1.53-8-4.62,0-1.65,1-3.21,3.06-4.74a23.259,23.259,0,0,1,4.47-2.4c-.24-1.65-1-2.37-2.37-2.37-1.89,0-4.26,1.11-6.69,3.18a9.919,9.919,0,0,0-2.31,2.49l-1.68-1.68a29.848,29.848,0,0,0,6.72-8.58l.27-.45a3.413,3.413,0,0,1-.57.06l-4.41-.09h-.48a5.191,5.191,0,0,0-.66,0v-2.07a42,42,0,0,0,6.42.33Z"/><path class="cls-2" d="M732.09,322.91c0-1.29,0-2.16.09-3.6a17.337,17.337,0,0,1-3.42,3.36,5.729,5.729,0,0,0-1.17-1.71,24.569,24.569,0,0,0,6.06-5.91,10.32,10.32,0,0,0,1.44-2.58l1.86,1a12.771,12.771,0,0,0-.9,1.29,20.29,20.29,0,0,1-2,2.7v12.19a22.509,22.509,0,0,0,.21,3.66h-2.37a22.736,22.736,0,0,0,.21-3.66Zm4.14-15.63a4.952,4.952,0,0,0-.54.66,29.265,29.265,0,0,1-6.66,6.51,5.8,5.8,0,0,0-1.35-1.47,20.6,20.6,0,0,0,4-3.18,11.718,11.718,0,0,0,2.73-3.66Zm4.35,10a23.163,23.163,0,0,0-3.33.18v-2.1a22.739,22.739,0,0,0,3.33.18h10.53a21.171,21.171,0,0,0,3.3-.18v2.1a22.909,22.909,0,0,0-3.27-.18h-1.71v13.14c0,1.92-.72,2.43-3.36,2.43-1,0-2.37-.06-3.66-.15a7.229,7.229,0,0,0-.48-2.07,29.967,29.967,0,0,0,4.23.36c1,0,1.26-.12,1.26-.72v-13Zm-2.1-9.45a21.27,21.27,0,0,0,3.12.18H750a21,21,0,0,0,3.09-.18v2.1a23.128,23.128,0,0,0-3.09-.18h-8.36a23.578,23.578,0,0,0-3.12.18Z"/><path class="cls-2" d="M4.64,373.82a23.612,23.612,0,0,0,3-.51,50.1,50.1,0,0,1,9.15-1.08,9.546,9.546,0,0,1,5.16,1.14,5.339,5.339,0,0,1,2.55,4.77c0,3.21-1.83,6.06-5.16,8.1-2.28,1.38-4.23,2-8.7,2.85a7.622,7.622,0,0,0-1-2.19,18.991,18.991,0,0,0,8.43-2.43,7.342,7.342,0,0,0,2.58-2.13,6.722,6.722,0,0,0,1.53-4.08,3.64,3.64,0,0,0-1.92-3.36,8.369,8.369,0,0,0-3.69-.66,41.874,41.874,0,0,0-11.43,2Zm4.41-9.36a37.854,37.854,0,0,0,12.21,1.86l-.33,2.16a54.58,54.58,0,0,1-12.6-2Z"/><path class="cls-2" d="M41.37,385.55a4.49,4.49,0,1,1,0-.02Zm-7.29,0a2.79,2.79,0,1,0,2.79-2.79A2.79,2.79,0,0,0,34.08,385.55Z"/></g></g></svg>