<svg xmlns="http://www.w3.org/2000/svg" viewBox="0 0 678 366.82"><defs><style>.cls-1{fill:#fff;}</style></defs><g id="レイヤー_2" data-name="レイヤー 2"><g id="レイヤー_2-2" data-name="レイヤー 2"><polygon class="cls-1" points="344.88 192.68 330.2 184.2 330.2 201.15 344.88 192.68"/><path class="cls-1" d="M270.47,170.48v4.42h2a1.44,1.44,0,0,0,1-.31,2.08,2.08,0,0,0,.44-1.23h.31v3.81H274a2.22,2.22,0,0,0-.17-1,1.05,1.05,0,0,0-.45-.46,1.76,1.76,0,0,0-.85-.16h-2v3.54a3.49,3.49,0,0,0,.11,1.13.74.74,0,0,0,.35.35,1.49,1.49,0,0,0,.76.2h.41v.31h-4.83v-.31h.4a1.2,1.2,0,0,0,1-.4,2.59,2.59,0,0,0,.2-1.28v-7.27a3.77,3.77,0,0,0-.11-1.13.78.78,0,0,0-.34-.36,1.57,1.57,0,0,0-.76-.2h-.4v-.3h8.37l.11,2.47h-.29a3.56,3.56,0,0,0-.5-1.16,1.69,1.69,0,0,0-.71-.53,3.76,3.76,0,0,0-1.3-.17Z"/><path class="cls-1" d="M280.05,173.29V175c.64-1.14,1.29-1.71,2-1.71a1.09,1.09,0,0,1,.75.28.86.86,0,0,1,.3.64.77.77,0,0,1-.21.55.71.71,0,0,1-.52.23,1.11,1.11,0,0,1-.65-.29,1.11,1.11,0,0,0-.53-.29.53.53,0,0,0-.33.17,4.12,4.12,0,0,0-.77,1.12v3.64a2.22,2.22,0,0,0,.16,1,.85.85,0,0,0,.38.37,1.65,1.65,0,0,0,.79.15v.3h-3.89v-.3a1.64,1.64,0,0,0,.86-.18.72.72,0,0,0,.29-.43,5.11,5.11,0,0,0,0-.8v-2.95a14.1,14.1,0,0,0-.05-1.58.69.69,0,0,0-.2-.37.61.61,0,0,0-.36-.11,1.63,1.63,0,0,0-.58.12l-.09-.3,2.3-.93Z"/><path class="cls-1" d="M287,173.29v6.11a2.72,2.72,0,0,0,.11.95.67.67,0,0,0,.31.35,1.57,1.57,0,0,0,.74.12v.3h-3.69v-.3a1.68,1.68,0,0,0,.74-.11.7.7,0,0,0,.3-.35,2.57,2.57,0,0,0,.12-1v-2.93a10.07,10.07,0,0,0-.08-1.6.67.67,0,0,0-.18-.37.51.51,0,0,0-.34-.1,1.71,1.71,0,0,0-.56.12l-.12-.3,2.29-.93Zm-.68-4a.81.81,0,0,1,.59.24.85.85,0,0,1,.24.6.81.81,0,0,1-.24.59.85.85,0,0,1-1.44-.59.82.82,0,0,1,.85-.84Z"/><path class="cls-1" d="M291.5,179.51a.86.86,0,0,1,.65.27.92.92,0,0,1,0,1.3.89.89,0,0,1-.65.27.92.92,0,0,1-.92-.92.91.91,0,0,1,.92-.92Z"/><path class="cls-1" d="M244.74,192.65l10.18-5h1V223a19.2,19.2,0,0,0,.29,4.38,2.28,2.28,0,0,0,1.22,1.32,10.28,10.28,0,0,0,3.76.53v1.14H245.48v-1.14a10.56,10.56,0,0,0,3.83-.51,2.58,2.58,0,0,0,1.2-1.2,16.21,16.21,0,0,0,.34-4.52V200.42a32.77,32.77,0,0,0-.31-5.86,2.38,2.38,0,0,0-.79-1.44,2.09,2.09,0,0,0-1.37-.47,8.13,8.13,0,0,0-3.17,1Z"/><path class="cls-1" d="M276.6,209.31q-5-4.08-6.4-6.54a10.06,10.06,0,0,1-1.44-5.12,9.28,9.28,0,0,1,3.15-7,13.41,13.41,0,0,1,16.5-.2,8.23,8.23,0,0,1,3.08,6.26,8.46,8.46,0,0,1-1.66,4.78q-1.66,2.44-6.94,5.74,5.43,4.18,7.18,6.6a10.86,10.86,0,0,1,2.35,6.63,9.94,9.94,0,0,1-3.36,7.54,12.45,12.45,0,0,1-8.82,3.13q-6,0-9.29-3.73a9.24,9.24,0,0,1-.78-12A26.45,26.45,0,0,1,276.6,209.31Zm1.45,1.17a14.5,14.5,0,0,0-3.8,4.7,12.49,12.49,0,0,0-1.23,5.51,9.07,9.07,0,0,0,2.17,6.36,7.14,7.14,0,0,0,5.54,2.39,7.47,7.47,0,0,0,5.34-1.88,6,6,0,0,0,2-4.56,7,7,0,0,0-1.17-4Q284.71,215.75,278.05,210.48Zm3.39-4.48a22,22,0,0,0,4.69-5.25,9.56,9.56,0,0,0,1-4.37,6.85,6.85,0,0,0-1.82-5.07,6.67,6.67,0,0,0-5-1.84,7.27,7.27,0,0,0-5.12,1.82,5.63,5.63,0,0,0-2,4.26,7.07,7.07,0,0,0,.81,3.21,11.58,11.58,0,0,0,2.33,3.05Z"/><path class="cls-1" d="M210.69,211.06a.45.45,0,0,1-.32-.13.46.46,0,0,1,0-.65l55.9-55.9a.46.46,0,1,1,.65.65L211,210.93A.46.46,0,0,1,210.69,211.06Z"/><path class="cls-1" d="M223.77,161a6.81,6.81,0,0,1,4.95,2,6.92,6.92,0,0,1,2,5.14,9.2,9.2,0,0,1-1.11,4.47,9.31,9.31,0,0,1-3.56,3.48,12.66,12.66,0,0,1-4.89,1.76v.93h1a11.69,11.69,0,0,1,4.71,1,12.85,12.85,0,0,1,3.64,2.23,8.52,8.52,0,0,1,1.76,2.62,11.43,11.43,0,0,1,.95,3.19l4.46-4.46a10.62,10.62,0,0,0-1.74-4.28,12.39,12.39,0,0,0-5.83-4.31q5.74-4.87,5.74-9.44a8,8,0,0,0-2-5.21q-2.68-3.27-7.71-3.27a10.16,10.16,0,0,0-6.8,2.3,17,17,0,0,0-4.52,6.52l1,.49Q219,161,223.77,161Z"/><path class="cls-1" d="M215.64,199.2c.94.65,2.67,1,5.14,1l2.88-2.88c-.19,0-.39-.07-.57-.12a15,15,0,0,1-2.56-1.16,17.27,17.27,0,0,0-2.37-1.12,5.2,5.2,0,0,0-1.58-.25,2.46,2.46,0,0,0-1.74.68,2.1,2.1,0,0,0-.72,1.57A2.85,2.85,0,0,0,215.64,199.2Z"/><path class="cls-1" d="M443.52,169.58v3.9h-.31a4.8,4.8,0,0,0-.54-1.79,2.72,2.72,0,0,0-1.1-1.05,3,3,0,0,0-1.47-.39,2,2,0,0,0-1.43.53,1.58,1.58,0,0,0-.56,1.19,1.39,1.39,0,0,0,.35.94,9,9,0,0,0,2.45,1.66,17.4,17.4,0,0,1,2.15,1.3,3.13,3.13,0,0,1,.89,1.07,2.75,2.75,0,0,1,.31,1.28,2.92,2.92,0,0,1-1,2.21,3.61,3.61,0,0,1-2.55.92,5.37,5.37,0,0,1-.92-.07,9.35,9.35,0,0,1-1.07-.31,5.09,5.09,0,0,0-1-.26.42.42,0,0,0-.33.13,1,1,0,0,0-.18.51h-.31v-3.86h.31a5.47,5.47,0,0,0,.58,1.82,2.82,2.82,0,0,0,1.12,1,3.51,3.51,0,0,0,1.64.39,2.35,2.35,0,0,0,1.64-.54,1.72,1.72,0,0,0,.61-1.3,1.84,1.84,0,0,0-.23-.84,2.45,2.45,0,0,0-.71-.78,20.59,20.59,0,0,0-1.77-1.06,16.89,16.89,0,0,1-2.05-1.29,3.43,3.43,0,0,1-.93-1.07,2.6,2.6,0,0,1-.31-1.27,2.77,2.77,0,0,1,.93-2.09,3.31,3.31,0,0,1,2.36-.88,4.79,4.79,0,0,1,1.9.44,1.94,1.94,0,0,0,.66.21.48.48,0,0,0,.35-.13,1.06,1.06,0,0,0,.22-.52Z"/><path class="cls-1" d="M453.22,173.49v4.61a11.84,11.84,0,0,0,.06,1.61.68.68,0,0,0,.2.41.47.47,0,0,0,.32.12,1.53,1.53,0,0,0,.58-.14l.12.29-2.28.94h-.37v-1.61a7,7,0,0,1-1.49,1.33,2.36,2.36,0,0,1-1.09.28,1.79,1.79,0,0,1-1.11-.37,2,2,0,0,1-.65-1,5.88,5.88,0,0,1-.18-1.65V175a1.64,1.64,0,0,0-.12-.75.76.76,0,0,0-.34-.32,2.06,2.06,0,0,0-.83-.1v-.31h2.67v5.09a1.92,1.92,0,0,0,.36,1.39,1.28,1.28,0,0,0,.9.34,1.86,1.86,0,0,0,.81-.23,4.3,4.3,0,0,0,1.07-.85v-4.31a1.24,1.24,0,0,0-.24-.88,1.51,1.51,0,0,0-1-.24v-.31Z"/><path class="cls-1" d="M458.12,174.88a3.6,3.6,0,0,1,2.54-1.61,1.83,1.83,0,0,1,1.08.31,2.18,2.18,0,0,1,.71,1,4.89,4.89,0,0,1,.18,1.53v3.25a2.69,2.69,0,0,0,.12,1,.74.74,0,0,0,.29.32,1.64,1.64,0,0,0,.75.12v.29H460v-.29h.16a1.22,1.22,0,0,0,.74-.17.79.79,0,0,0,.3-.47,5.5,5.5,0,0,0,0-.78v-3.12a3.13,3.13,0,0,0-.27-1.5,1,1,0,0,0-.91-.47,2.73,2.73,0,0,0-2,1.08v4a2.88,2.88,0,0,0,.09,1,.73.73,0,0,0,.32.35,1.83,1.83,0,0,0,.82.12v.29h-3.76v-.29h.17a.87.87,0,0,0,.78-.3,2.09,2.09,0,0,0,.21-1.12v-2.83a12.6,12.6,0,0,0-.06-1.66.82.82,0,0,0-.19-.41.56.56,0,0,0-.35-.11,1.53,1.53,0,0,0-.56.13l-.12-.3,2.29-.93h.36Z"/><path class="cls-1" d="M466.84,179.48a.9.9,0,0,1,.66.27.93.93,0,0,1,.26.66.89.89,0,0,1-.27.65.88.88,0,0,1-.65.27.93.93,0,0,1,0-1.85Z"/><path class="cls-1" d="M437.12,222.32l-2.93,8.05H409.51v-1.14Q420.4,219.3,424.84,213t4.44-11.51a9.09,9.09,0,0,0-2.43-6.53,7.77,7.77,0,0,0-5.83-2.56,9.14,9.14,0,0,0-5.54,1.8,10.49,10.49,0,0,0-3.62,5.29h-1.14q.76-5.7,4-8.76a11.11,11.11,0,0,1,8-3.05,11.78,11.78,0,0,1,8.5,3.27,10.35,10.35,0,0,1,3.41,7.71,15.05,15.05,0,0,1-1.48,6.35,42.16,42.16,0,0,1-7.4,10.58q-7.69,8.39-9.6,10.11H427a30.58,30.58,0,0,0,4.67-.24,6.05,6.05,0,0,0,2.42-1,6.54,6.54,0,0,0,1.89-2.14Z"/><path class="cls-1" d="M440.72,209.71a31.83,31.83,0,0,1,2.16-12.32,17.28,17.28,0,0,1,5.73-7.7,9.74,9.74,0,0,1,5.74-2q4.81,0,8.63,4.9,4.78,6.07,4.78,16.47a32.68,32.68,0,0,1-2.09,12.37,16.35,16.35,0,0,1-5.35,7.38,11,11,0,0,1-6.28,2.3q-6,0-10-7.06A28.75,28.75,0,0,1,440.72,209.71Zm6,.77q0,8.64,2.13,14.09,1.75,4.6,5.24,4.6a5.5,5.5,0,0,0,3.46-1.5,9.58,9.58,0,0,0,2.71-5q1.43-5.31,1.42-15a40.82,40.82,0,0,0-1.48-11.93,10.61,10.61,0,0,0-2.87-5,4.7,4.7,0,0,0-3.05-1,4.86,4.86,0,0,0-3.73,1.88q-2.22,2.57-3,8.05A75.51,75.51,0,0,0,446.76,210.48Z"/><path class="cls-1" d="M380.21,211.21a.46.46,0,0,1-.33-.78l55.91-55.9a.45.45,0,0,1,.64,0,.46.46,0,0,1,0,.65l-55.9,55.9A.44.44,0,0,1,380.21,211.21Z"/><path class="cls-1" d="M393.28,161.62a6.74,6.74,0,0,1,5,2,6.85,6.85,0,0,1,2,5.13,9.17,9.17,0,0,1-1.11,4.47,9.33,9.33,0,0,1-3.56,3.49,12.93,12.93,0,0,1-4.89,1.76v.92h1a11.78,11.78,0,0,1,4.72,1,13,13,0,0,1,3.64,2.24,8.39,8.39,0,0,1,1.75,2.62,11.35,11.35,0,0,1,1,3.19l4.46-4.46a10.58,10.58,0,0,0-1.75-4.28,12.42,12.42,0,0,0-5.83-4.32q5.75-4.87,5.74-9.44a8,8,0,0,0-2-5.21q-2.69-3.27-7.71-3.27a10.2,10.2,0,0,0-6.8,2.3,17,17,0,0,0-4.52,6.52l1,.5Q388.5,161.61,393.28,161.62Z"/><path class="cls-1" d="M385.16,199.8c.93.64,2.67,1,5.13,1l2.88-2.87c-.19,0-.38-.07-.57-.13a15.22,15.22,0,0,1-2.55-1.15,18.36,18.36,0,0,0-2.38-1.13,5.52,5.52,0,0,0-1.57-.25,2.5,2.5,0,0,0-1.75.68,2.12,2.12,0,0,0-.72,1.58A2.87,2.87,0,0,0,385.16,199.8Z"/><path class="cls-1" d="M222,275.08l-1.25,3.44H210.24V278a47,47,0,0,0,6.55-6.94,8.72,8.72,0,0,0,1.9-4.92,3.86,3.86,0,0,0-1-2.79,3.32,3.32,0,0,0-2.49-1.1,3.93,3.93,0,0,0-2.37.77,4.48,4.48,0,0,0-1.55,2.26h-.49a6.09,6.09,0,0,1,1.7-3.74,4.73,4.73,0,0,1,3.41-1.31,5,5,0,0,1,3.63,1.4A4.43,4.43,0,0,1,221,265a6.46,6.46,0,0,1-.63,2.72,18,18,0,0,1-3.17,4.52c-2.19,2.39-3.56,3.84-4.1,4.33h4.67a12.73,12.73,0,0,0,2-.11,2.54,2.54,0,0,0,1-.43,2.65,2.65,0,0,0,.8-.91Z"/><path class="cls-1" d="M227.65,269.68a13.57,13.57,0,0,1,.93-5.27,7.34,7.34,0,0,1,2.45-3.29,4.16,4.16,0,0,1,2.46-.86,4.66,4.66,0,0,1,3.69,2.1,11.12,11.12,0,0,1,2,7.05,13.9,13.9,0,0,1-.9,5.29,6.94,6.94,0,0,1-2.29,3.15,4.66,4.66,0,0,1-2.68,1q-2.56,0-4.27-3A12.42,12.42,0,0,1,227.65,269.68Zm2.59.33a17,17,0,0,0,.91,6c.5,1.31,1.25,2,2.24,2a2.37,2.37,0,0,0,1.48-.64,4.05,4.05,0,0,0,1.16-2.15,25.74,25.74,0,0,0,.61-6.4,17.59,17.59,0,0,0-.63-5.1,4.57,4.57,0,0,0-1.23-2.15,2,2,0,0,0-2.9.37,6.68,6.68,0,0,0-1.3,3.44A31.87,31.87,0,0,0,230.24,270Z"/><path class="cls-1" d="M256.09,275.08l-1.25,3.44H244.28V278a47.2,47.2,0,0,0,6.56-6.94,8.72,8.72,0,0,0,1.9-4.92,3.9,3.9,0,0,0-1-2.79,3.35,3.35,0,0,0-2.5-1.1,3.9,3.9,0,0,0-2.36.77,4.48,4.48,0,0,0-1.55,2.26h-.49a6.13,6.13,0,0,1,1.69-3.74,4.75,4.75,0,0,1,3.41-1.31,5.07,5.07,0,0,1,3.64,1.4A4.43,4.43,0,0,1,255,265a6.47,6.47,0,0,1-.64,2.72,17.89,17.89,0,0,1-3.16,4.52c-2.19,2.39-3.56,3.84-4.11,4.33h4.67a12.64,12.64,0,0,0,2-.11,2.53,2.53,0,0,0,1-.43,2.76,2.76,0,0,0,.8-.91Z"/><path class="cls-1" d="M273.12,275.08l-1.26,3.44H261.31V278a47,47,0,0,0,6.55-6.94,8.72,8.72,0,0,0,1.9-4.92,3.86,3.86,0,0,0-1-2.79,3.32,3.32,0,0,0-2.49-1.1,3.93,3.93,0,0,0-2.37.77,4.48,4.48,0,0,0-1.55,2.26h-.49a6.14,6.14,0,0,1,1.7-3.74,4.73,4.73,0,0,1,3.41-1.31,5,5,0,0,1,3.63,1.4A4.43,4.43,0,0,1,272,265a6.46,6.46,0,0,1-.63,2.72,18,18,0,0,1-3.17,4.52c-2.19,2.39-3.56,3.84-4.1,4.33h4.67a12.73,12.73,0,0,0,2-.11,2.54,2.54,0,0,0,1-.43,2.65,2.65,0,0,0,.8-.91Z"/><path class="cls-1" d="M314.08,264.24l3.87-1.89h.38v13.41a7.38,7.38,0,0,0,.11,1.66.85.85,0,0,0,.47.5,3.73,3.73,0,0,0,1.43.2v.44h-6v-.44a4.05,4.05,0,0,0,1.46-.19,1,1,0,0,0,.45-.46,6,6,0,0,0,.13-1.71v-8.57a12.36,12.36,0,0,0-.12-2.23.89.89,0,0,0-.3-.55.8.8,0,0,0-.51-.17,3.12,3.12,0,0,0-1.21.36Z"/><path class="cls-1" d="M329.19,264.24l3.86-1.89h.39v13.41a7.38,7.38,0,0,0,.11,1.66.84.84,0,0,0,.46.5,3.77,3.77,0,0,0,1.43.2v.44h-6v-.44a4,4,0,0,0,1.45-.19,1,1,0,0,0,.46-.46,6.4,6.4,0,0,0,.13-1.71v-8.57a12.36,12.36,0,0,0-.12-2.23,1,1,0,0,0-.3-.55.83.83,0,0,0-.52-.17,3.17,3.17,0,0,0-1.21.36Z"/><path class="cls-1" d="M344.84,274.34a1.3,1.3,0,0,1,1.31,1.31,1.24,1.24,0,0,1-.38.92,1.3,1.3,0,0,1-.93.38,1.3,1.3,0,0,1-1.3-1.3,1.3,1.3,0,0,1,.38-.93A1.28,1.28,0,0,1,344.84,274.34Zm0-8.77a1.3,1.3,0,0,1,1.3,1.3,1.28,1.28,0,0,1-.38.92,1.29,1.29,0,0,1-.92.38,1.26,1.26,0,0,1-.92-.38,1.24,1.24,0,0,1-.38-.92,1.3,1.3,0,0,1,1.3-1.3Z"/><path class="cls-1" d="M352.13,270.71A12.05,12.05,0,0,1,353,266a6.51,6.51,0,0,1,2.18-2.92,3.69,3.69,0,0,1,2.17-.76,4.15,4.15,0,0,1,3.28,1.86,9.88,9.88,0,0,1,1.82,6.26,12.32,12.32,0,0,1-.8,4.69,6.29,6.29,0,0,1-2,2.81,4.16,4.16,0,0,1-2.38.87c-1.52,0-2.78-.9-3.78-2.68A10.93,10.93,0,0,1,352.13,270.71Zm2.29.3a15,15,0,0,0,.81,5.35c.45,1.16,1.11,1.74,2,1.74a2.07,2.07,0,0,0,1.31-.57,3.6,3.6,0,0,0,1-1.9,23.1,23.1,0,0,0,.54-5.68,15.71,15.71,0,0,0-.56-4.53,4,4,0,0,0-1.09-1.91,1.84,1.84,0,0,0-2.57.33,5.89,5.89,0,0,0-1.15,3.06A27.28,27.28,0,0,0,354.42,271Z"/><path class="cls-1" d="M367.23,270.71a12.24,12.24,0,0,1,.82-4.68,6.58,6.58,0,0,1,2.18-2.92,3.72,3.72,0,0,1,2.18-.76,4.15,4.15,0,0,1,3.28,1.86,9.87,9.87,0,0,1,1.81,6.26,12.13,12.13,0,0,1-.8,4.69,6.21,6.21,0,0,1-2,2.81,4.14,4.14,0,0,1-2.38.87c-1.51,0-2.77-.9-3.78-2.68A10.93,10.93,0,0,1,367.23,270.71Zm2.3.3a15,15,0,0,0,.81,5.35c.44,1.16,1.1,1.74,2,1.74a2.07,2.07,0,0,0,1.31-.57,3.67,3.67,0,0,0,1-1.9,23.1,23.1,0,0,0,.54-5.68,15.34,15.34,0,0,0-.57-4.53,4.07,4.07,0,0,0-1.08-1.91,1.85,1.85,0,0,0-2.58.33,6.07,6.07,0,0,0-1.15,3.06A28.62,28.62,0,0,0,369.53,271Z"/><path class="cls-1" d="M404.35,264.19l3.86-1.88h.39v13.4a6.74,6.74,0,0,0,.11,1.66.88.88,0,0,0,.46.51,4.24,4.24,0,0,0,1.43.2v.43h-6v-.43a3.92,3.92,0,0,0,1.45-.2,1,1,0,0,0,.46-.45,6.5,6.5,0,0,0,.13-1.72v-8.57a13.37,13.37,0,0,0-.12-2.22.92.92,0,0,0-.3-.55.8.8,0,0,0-.52-.18,3.17,3.17,0,0,0-1.21.36Z"/><path class="cls-1" d="M417.91,278.84v-.44a6.12,6.12,0,0,0,2.83-.71,7.48,7.48,0,0,0,2.53-2.39,10.44,10.44,0,0,0,1.71-3.76,6.34,6.34,0,0,1-3.33,1.19,3.73,3.73,0,0,1-2.86-1.3,4.85,4.85,0,0,1-1.2-3.43,6.08,6.08,0,0,1,1.2-3.71,4.44,4.44,0,0,1,3.75-2,4.29,4.29,0,0,1,3.35,1.61,7.35,7.35,0,0,1,1.71,4.94,9.81,9.81,0,0,1-1.3,4.94,10.94,10.94,0,0,1-3.62,3.8,7.37,7.37,0,0,1-4.1,1.24Zm7.25-8.16a18.87,18.87,0,0,0,.21-2.44,8.67,8.67,0,0,0-.38-2.45,4.57,4.57,0,0,0-1.1-2,2.2,2.2,0,0,0-1.61-.7,2.33,2.33,0,0,0-1.82.93,4.3,4.3,0,0,0-.78,2.79,6.28,6.28,0,0,0,1,3.86,2.26,2.26,0,0,0,1.87,1,4.53,4.53,0,0,0,2.57-1Z"/><path class="cls-1" d="M435.11,274.29a1.31,1.31,0,0,1,1.31,1.31,1.23,1.23,0,0,1-.39.92,1.3,1.3,0,0,1-1.84,0,1.31,1.31,0,0,1,.92-2.23Zm0-8.77a1.3,1.3,0,0,1,1.3,1.3,1.26,1.26,0,0,1-.38.92,1.28,1.28,0,0,1-.92.38,1.3,1.3,0,0,1-1.3-1.3,1.28,1.28,0,0,1,.38-.92A1.26,1.26,0,0,1,435.13,265.52Z"/><path class="cls-1" d="M442.39,270.67a12.24,12.24,0,0,1,.82-4.68,6.6,6.6,0,0,1,2.18-2.92,3.66,3.66,0,0,1,2.18-.76,4.13,4.13,0,0,1,3.27,1.86,9.79,9.79,0,0,1,1.82,6.25,12.49,12.49,0,0,1-.79,4.69,6.24,6.24,0,0,1-2,2.81,4.14,4.14,0,0,1-2.38.87q-2.26,0-3.78-2.68A10.92,10.92,0,0,1,442.39,270.67Zm2.3.29a14.91,14.91,0,0,0,.81,5.35c.44,1.16,1.1,1.74,2,1.74a2.09,2.09,0,0,0,1.31-.57,3.63,3.63,0,0,0,1-1.9,23.54,23.54,0,0,0,.54-5.68,15.34,15.34,0,0,0-.57-4.53,4,4,0,0,0-1.09-1.9,1.74,1.74,0,0,0-1.15-.39,1.84,1.84,0,0,0-1.42.71,6.07,6.07,0,0,0-1.15,3.06A28.83,28.83,0,0,0,444.69,271Z"/><path class="cls-1" d="M457.5,270.67a12.05,12.05,0,0,1,.82-4.68,6.45,6.45,0,0,1,2.18-2.92,3.63,3.63,0,0,1,2.17-.76,4.15,4.15,0,0,1,3.28,1.86,9.84,9.84,0,0,1,1.81,6.25,12.3,12.3,0,0,1-.79,4.69,6.23,6.23,0,0,1-2,2.81,4.16,4.16,0,0,1-2.38.87q-2.28,0-3.79-2.68A10.91,10.91,0,0,1,457.5,270.67Zm2.29.29a14.91,14.91,0,0,0,.81,5.35c.44,1.16,1.11,1.74,2,1.74a2.07,2.07,0,0,0,1.31-.57,3.56,3.56,0,0,0,1-1.9,23,23,0,0,0,.54-5.68,15.71,15.71,0,0,0-.56-4.53,4,4,0,0,0-1.09-1.9,1.79,1.79,0,0,0-1.16-.39,1.84,1.84,0,0,0-1.41.71,5.89,5.89,0,0,0-1.15,3.06A27.47,27.47,0,0,0,459.79,271Z"/><path class="cls-1" d="M396.18,270.61a.56.56,0,0,1-.56.56h-9.28a.56.56,0,1,1,0-1.12h9.28A.56.56,0,0,1,396.18,270.61Z"/><path class="cls-1" d="M39.07,353.92a17.54,17.54,0,0,0,3-2.43A29,29,0,0,0,46.57,346a5.84,5.84,0,0,0,.68-1.49c2.25.51,2.41.57,2.41.73s-.32.35-.77.37A13.47,13.47,0,0,0,53.32,350a14.35,14.35,0,0,0,4.93,2v.21c-.84.22-1.08.51-1.47,1.67a17.68,17.68,0,0,1-4.56-3.27,23.57,23.57,0,0,1-2.82-3.35,7.15,7.15,0,0,1-.86-1.54,24.18,24.18,0,0,1-4.42,5.14,21.29,21.29,0,0,1-4.85,3.31Zm8.83,2.19a35.26,35.26,0,0,1-3.49,4.74c3.19,0,6.29-.2,8.32-.42a20.37,20.37,0,0,0-2.66-3.17l.16-.21a22.86,22.86,0,0,1,4.09,3.07,2,2,0,0,1,.78,1.43,3.06,3.06,0,0,1-.33,1.27.44.44,0,0,1-.34.2c-.15,0-.23-.08-.35-.31A18.27,18.27,0,0,0,53,360.85a101,101,0,0,1-11,1.58c-.21.61-.27.72-.43.72s-.17,0-.25-.39c-.12-.56-.31-1.39-.41-2l1.66.06c.34,0,.61,0,.86,0a1.93,1.93,0,0,0,.36,0A26.94,26.94,0,0,0,46,356.11H41.87a6.65,6.65,0,0,0-1.45.12l-.16-.75a6.65,6.65,0,0,0,1.61.16h11.8c.49-.65.63-.84,1.12-1.43.88.65,1.15.88,2,1.57,0,.09.1.17.1.19s-.08.14-.19.14Zm-4.64-4a8.5,8.5,0,0,0,1.66.17h5.15c.49-.62.63-.8,1.15-1.37.81.65,1.08.86,1.88,1.53a.24.24,0,0,1,.12.18c0,.09-.08.13-.27.13H44.81c-.34,0-.65,0-1.41.08Z"/><path class="cls-1" d="M68.63,350.8c.43-.52.55-.68,1-1.15.63.53.84.72,1.43,1.29.08.1.12.14.12.2s-.08.13-.22.13H67.69v5.17c.9-.37,1.29-.55,2.33-1l.14.28c-1.16.84-1.82,1.29-2.37,1.62-2.09,1.28-2.09,1.28-2.6,1.61,0,.76-.1,1-.3,1s-.17-.06-.23-.2-.28-.69-.79-2c.69-.19,1.45-.41,2.49-.8v-5.66H65.17a5.85,5.85,0,0,0-1.3.1l-.15-.74a5.15,5.15,0,0,0,1.45.17h1.19v-3.62c0-.74,0-1.15-.08-1.91,2,.25,2.23.31,2.23.51s-.19.27-.82.44v4.58Zm7,5.52a12.94,12.94,0,0,1-2.23,2.74,13.94,13.94,0,0,1-5.07,2.9l-.16-.31a14.34,14.34,0,0,0,4.34-3,10.58,10.58,0,0,0,1.67-2.35H72.45a17.24,17.24,0,0,1-4.74,3.23l-.16-.31A14,14,0,0,0,71,356.32,10.41,10.41,0,0,0,72.68,354H70.94a7.47,7.47,0,0,0-1.7.13l-.14-.78a7.21,7.21,0,0,0,1.84.18h8.79c.51-.55.68-.71,1.19-1.22a18.92,18.92,0,0,1,1.67,1.37c.09.08.13.14.13.2s-.08.12-.25.12H74.23a18.66,18.66,0,0,1-1.35,1.87h7a6.76,6.76,0,0,1,.75-.76,10.32,10.32,0,0,1,1.19.9c.12.08.16.16.16.22s-.18.31-.65.51a20.56,20.56,0,0,1-1.09,5.42A2.9,2.9,0,0,1,78,363.35c-.18-1-.4-1.19-2.43-1.47l0-.35c1.25.12,2.11.18,2.64.18s.73-.1.92-.51a20.35,20.35,0,0,0,.82-4.88H78.89a10.9,10.9,0,0,1-2.29,3.49A16.13,16.13,0,0,1,73,362.49a19.78,19.78,0,0,1-2,1l-.21-.28a15.62,15.62,0,0,0,4.79-3.75,9.83,9.83,0,0,0,2-3.1Zm-2.57-4.11c0,.28-.23.36-1,.36-.29,0-.37-.06-.37-.26,0-1.45.06-2.19.06-2.87,0-2.43,0-3.68-.06-4.41a16.55,16.55,0,0,1,1.55.9h4.77c.34-.37.45-.49.79-.84.53.37.7.49,1.17.86.14.12.2.2.2.29s-.06.18-.65.49v1.2c0,.84,0,1.92,0,4.11,0,.19,0,.25-.21.31a4.73,4.73,0,0,1-.85.1c-.19,0-.27-.06-.27-.22v-.51H73.09Zm5.21-5.81H73.09v2.1H78.3ZM73.09,349v2.28H78.3V349Z"/><path class="cls-1" d="M118.09,351.47h7.79c.83-1,1.09-1.27,2-2.25.83.71,1.8,1.51,2.9,2.42a.44.44,0,0,1,.17.27.25.25,0,0,1-.23.24H118.09v5.7c0,3,0,5.16.11,7.82-.08.47-.41.59-1.44.62h-.36c-.44,0-.64-.18-.68-.56.12-1.6.15-3.69.15-7.88v-5.7h-8.09a33.42,33.42,0,0,0-3.75.14l-.2-1.15a26.84,26.84,0,0,0,4,.33h8.09v-7.18a62.87,62.87,0,0,1-9.89,1.18l-.09-.47a87.91,87.91,0,0,0,12.26-2.89,21.15,21.15,0,0,0,5.81-2.39c2,1.41,2.69,2,2.69,2.21s-.15.21-.35.21a6.92,6.92,0,0,1-1.3-.21,52.74,52.74,0,0,1-6.91,1.95Z"/><path class="cls-1" d="M151.22,357.64a14.64,14.64,0,0,0-.12-2c2.65.33,3.13.45,3.13.77s-.21.32-1.09.59v1.27h8a25.09,25.09,0,0,1,1.83-1.89c1.18.91,1.53,1.21,2.65,2.16a.55.55,0,0,1,.15.26c0,.09-.12.15-.29.15h-12a15.46,15.46,0,0,0,2.89,2c2.9,1.5,5,2,10.37,2.59v.45c-1.21.29-1.63.68-2.25,2.09a25.84,25.84,0,0,1-7.11-3.1,13.39,13.39,0,0,1-4.25-3.75v2.46c0,1.56,0,1.56.11,4.43,0,.47-.26.55-1.38.55-.62,0-.74-.05-.74-.41.09-3.07.09-3.07.09-4.4v-1.92a24.28,24.28,0,0,1-5.7,4,28.46,28.46,0,0,1-6.53,2.42l-.15-.38a34.91,34.91,0,0,0,7.27-3.93,24.93,24.93,0,0,0,3.6-3.1h-7.35a14.88,14.88,0,0,0-2.6.21l-.15-1.13a10.69,10.69,0,0,0,2.75.24h8.86Zm.06-9.8c0-1.33,0-1.69-.09-2.72,2.83.41,3,.44,3,.74s-.12.26-1,.53v1.45H158c0-1.1,0-1.51-.06-2.72a12.4,12.4,0,0,1,2.8.47c.18.09.3.18.3.3s-.24.32-1.15.53v1.42h1.95c.67-.77.88-1,1.59-1.78,1.12.86,1.45,1.13,2.54,2.07a.31.31,0,0,1,.12.24c0,.09-.09.15-.27.15H159.9c0,2.27,0,2.27,0,3.83v.09c0,.3-.3.39-1.3.39-.47,0-.62-.06-.62-.24v-.71h-4.87v.68c0,.32-.21.38-1.33.38-.53,0-.62-.06-.62-.32.06-1.36.06-1.36.06-4.1h-4.91v5.78h14.21c.76-.77,1-1,1.77-1.74a29.08,29.08,0,0,1,2.48,2c.12.12.18.21.18.26s-.12.18-.3.18H146.34v.36c0,.38-.17.44-1.27.44-.65,0-.7,0-.7-.33.08-3.24.08-3.24.08-5.81v-1.12h-2.77a14.85,14.85,0,0,0-2.39.17l-.15-1.15a10.3,10.3,0,0,0,2.66.3h2.65c0-1.48,0-1.75-.08-2.72.79.12,1.68.23,2.33.35s.74.18.74.36-.27.38-1.1.56v1.45ZM147.52,341c0-.57,0-.86-.05-1.63,3.1.41,3.1.41,3.1.71s-.24.35-1.18.62v1.57h5.9v-1.13a17.55,17.55,0,0,0-.06-1.8c3,.42,3.19.48,3.19.77s-.35.41-1.27.62v1.54h4c.82-.92,1.09-1.19,1.89-2,1.21.94,1.56,1.24,2.74,2.24.12.12.15.18.15.24s-.12.17-.33.17h-8.5v.42c0,.29,0,.68,0,1.21,0,.32-.18.38-1.45.38-.41,0-.47-.06-.47-.32,0-.8,0-1.07,0-1.69h-5.9v1.78c0,.32-.24.38-1.22.38-.61,0-.7,0-.7-.33s.05-1,.05-1.83h-5.16a15.28,15.28,0,0,0-2.75.18l-.17-1.09a14.16,14.16,0,0,0,2.92.24h5.16Zm5.62,7.53v2.68H158v-2.68Z"/><path class="cls-1" d="M188.57,348.75a23.46,23.46,0,0,0,3.48,7.62,20.9,20.9,0,0,0,6.23,5.79,14.19,14.19,0,0,0,3.87,1.65l-.06.41c-1.65.21-2.07.54-2.69,2a19.32,19.32,0,0,1-5.05-4.16,25.83,25.83,0,0,1-4.75-7.74,32.49,32.49,0,0,1-1.45-5A19.25,19.25,0,0,1,184,359.74a22.68,22.68,0,0,1-6,4.93,23.88,23.88,0,0,1-3.84,1.74l-.24-.41a28,28,0,0,0,5.46-3.76,20.06,20.06,0,0,0,6.74-13.49h-8.57a12.87,12.87,0,0,0-2.74.21l-.18-1.12a15.57,15.57,0,0,0,3,.23h8.48c.14-1.74.23-4,.23-5.81a12.49,12.49,0,0,0-.15-2c3.43.32,3.67.35,3.67.71s-.39.53-1.27.82c-.12,3.43-.18,4.58-.33,6.32h8.3c.71-1,.94-1.36,1.71-2.33a32.7,32.7,0,0,1,2.92,2.48q.18.18.18.27a.3.3,0,0,1-.32.26Z"/><path class="cls-1" d="M232.21,356.37c.76-1,1-1.3,1.89-2.27,1.18,1,1.53,1.35,2.68,2.45a.6.6,0,0,1,.12.29c0,.12-.15.21-.35.21H224.41v3.45c0,1.27,0,2.13,0,4a1.67,1.67,0,0,1-1.06,1.68,6.5,6.5,0,0,1-2.57.65c-.33-1.59-.5-1.68-4.64-2.33v-.44c2.25.17,2.45.17,5.58.32.39,0,.47-.09.47-.41v-6.91h-9.89a21.2,21.2,0,0,0-2.42.12l-.17-1a11.86,11.86,0,0,0,2.53.24h9.95v-.5c0-.59,0-.77-.05-2.42.59.08,1.33.2,2.24.38a18.48,18.48,0,0,0,3.13-3.54H217.18a14.11,14.11,0,0,0-2.13.14l-.18-1a12.4,12.4,0,0,0,2.28.21h10.6c.56-.59.74-.77,1.3-1.33.91.68,1.21.89,2.06,1.56.27.21.39.36.39.51s-.36.38-1.51.47a32.76,32.76,0,0,1-4.81,3.19c.26.09.38.17.38.32s-.29.36-1.15.53v1.51Zm.44-10.42c.62-.68.8-.89,1.45-1.51,1.06.71,1.38.91,2.42,1.71.29.21.41.36.41.5,0,.36-.5.54-1.83.57-.59.62-.59.62-1.48,1.62-.56.62-.56.62-1.18,1.24l-.29-.12a17.33,17.33,0,0,0,.82-3.33H213.69a6.67,6.67,0,0,1-1.3,3.92,2.07,2.07,0,0,1-1.3.92c-.2,0-.41-.15-.53-.48a3.64,3.64,0,0,1-.32-1.21c0-.41.15-.61.88-1.18,1.18-.88,1.78-2.15,2.07-4.34h.56c0,.89,0,1.07,0,1.69h13.35a26.14,26.14,0,0,0,3.19-5.88c2.8,1.09,3.1,1.24,3.1,1.51s-.36.44-.83.44c-.15,0-.41,0-.65,0a35.55,35.55,0,0,1-4.07,4Zm-17.3-5.55a18.7,18.7,0,0,1,2.8,2.09,1.72,1.72,0,0,1,.71,1.24,3.11,3.11,0,0,1-.62,1.68.57.57,0,0,1-.44.24c-.3,0-.42-.18-.71-1a14.11,14.11,0,0,0-2-4Zm6-.68c2.54,1.86,3.6,2.95,3.6,3.72a3.74,3.74,0,0,1-.56,1.62.72.72,0,0,1-.62.38c-.35,0-.44-.14-.74-1.21a11,11,0,0,0-2-4.25Z"/><path class="cls-1" d="M251.58,361.63a10.2,10.2,0,0,0-2.28.2l-.17-1.09a11.67,11.67,0,0,0,2.45.2h6v-1.32c0-.62,0-1.15-.12-2.39,2.45.23,3.16.38,3.16.71s-.33.41-1.18.61v2.39h6.05c.8-.82,1-1.09,1.69-1.85,1.12.91,1.44,1.21,2.5,2.15.09.09.12.15.12.18s-.15.21-.26.21h-10.1v3.27h8.74c.86-1,1.12-1.27,1.95-2.15,1.21,1,1.59,1.3,2.74,2.3.15.12.21.21.21.3a.33.33,0,0,1-.26.23H248.5a14.92,14.92,0,0,0-2.86.24l-.24-1.24a13.7,13.7,0,0,0,3.1.32h9.1v-3.27Zm7.76-11h6.58c.74-.74,1-1,1.63-1.65,1,.79,1.24,1.06,2.21,1.89a.71.71,0,0,1,.15.26c0,.09-.15.18-.29.18H259.34v2.51h8.74l1.74-1.8a31.11,31.11,0,0,1,2.6,2c.15.09.21.17.21.26s-.21.21-.42.21H248.48a12.79,12.79,0,0,0-2.4.26l-.23-1.21a11,11,0,0,0,2.63.27h9.12v-2.51h-6.71a8.72,8.72,0,0,0-2.24.21l-.21-1.16a8.08,8.08,0,0,0,2.45.27h6.71v-2.54h-6.53v.65c0,.39-.29.47-1.44.47-.33,0-.45-.08-.48-.35.12-1.77.15-2.63.15-4.16,0-1.95-.06-3.46-.15-4.93l2.1,1.2h14.62l1.06-1.2c.71.53.94.67,1.62,1.2.24.21.36.33.36.42s-.27.38-1,.79v1.07c0,.94,0,1.36.12,5a.46.46,0,0,1-.23.41,6.88,6.88,0,0,1-1.36.12c-.18,0-.27-.06-.33-.27v-.41h-6.73Zm-8.68,4.73a7,7,0,0,1-1.59,3.72,3.26,3.26,0,0,1-2,1.29c-.42,0-.68-.5-.68-1.24a1.05,1.05,0,0,1,.91-1.21,4.57,4.57,0,0,0,3-2.65Zm6.94-13.71h-6.53v2.48h6.53Zm0,3.16h-6.53v2.6h6.53ZM254.11,355a5.85,5.85,0,0,1,1.89,3c0,.74-.7,1.74-1.24,1.74-.2,0-.32-.17-.32-.56a14.89,14.89,0,0,0-.62-4Zm12-10.87v-2.48h-6.73v2.48Zm-6.73,3.28h6.73v-2.6h-6.73Zm1.6,7.44c1.77,1.6,2.48,2.54,2.48,3.28s-.77,1.59-1.24,1.59c-.3,0-.42-.2-.51-1.12a9.25,9.25,0,0,0-1.06-3.57Zm5.67.21c3.42,1.74,4.51,2.6,4.51,3.6,0,.74-.53,1.71-.94,1.71s-.39-.14-.86-1.15a15.13,15.13,0,0,0-3-3.86Z"/><path class="cls-1" d="M284.79,365.37c0,.27-.06.36-.29.45a6.13,6.13,0,0,1-1.21.12c-.42,0-.54-.09-.54-.48.06-2.51.09-8.44.09-15.62,0-3.33-.06-7.35-.15-8.56a15,15,0,0,1,2.49,1.27h17.65c.56-.65.74-.86,1.33-1.45.86.62,1.12.83,1.95,1.45a.52.52,0,0,1,.24.41c0,.24-.15.36-1.12.86l0,6.11c0,6,.08,11.22.23,15.36-.09.41-.47.56-1.53.56-.51,0-.68-.09-.71-.44v-2.25h-18.4ZM293,351.94v-8.71h-8.21v8.71Zm0,.71h-8.21v9.83H293Zm10.19-9.42h-8.27v8.71h8.27Zm-8.27,9.42v9.83h8.27v-9.83Z"/><path class="cls-1" d="M325.36,365.32a15.44,15.44,0,0,0,5.67-6c1.06-2.24,1.51-4.75,1.65-9.48a47,47,0,0,0-6.58.89v1c0,.12,0,1.27.06,3.37,0,.09,0,.5,0,1.12a7.18,7.18,0,0,1,0,.74c0,1.06-.27,1.62-.77,1.62s-1.51-1.47-1.51-2.36a1.33,1.33,0,0,1,.15-.59,5.52,5.52,0,0,0,.33-1.42c0-.29.08-1.35.12-3.16a15.19,15.19,0,0,0-3.82,1.16,3.11,3.11,0,0,1-1.09.32c-.91,0-2.65-2-2.65-3.13a.73.73,0,0,1,.08-.26,3.2,3.2,0,0,0,2.42,1.38c.33,0,1.22-.11,2.07-.23s.8-.12,1.95-.33a9.25,9.25,0,0,1,1-.17,18.93,18.93,0,0,0-.42-4,2.73,2.73,0,0,0-1-1.36l-.83-.47a.7.7,0,0,1,.65-.24,5.62,5.62,0,0,1,2.51.92c.71.41,1,.85,1,1.36a2.68,2.68,0,0,1-.11.65,11.9,11.9,0,0,0-.27,2.89c2.51-.35,2.51-.35,6.61-.8,0-.74,0-.85,0-1.89,0-2.33-.11-3.25-.5-3.75a3.37,3.37,0,0,0-2-1.09,2.14,2.14,0,0,1,1.16-.33,7.66,7.66,0,0,1,2.8.68c.68.3,1,.71,1,1.16a1.45,1.45,0,0,1-.14.53,15,15,0,0,0-.56,4.51,10,10,0,0,0,3.57-.61,1.59,1.59,0,0,1,.83-.21c1,0,2.65,1.12,2.65,1.74a.56.56,0,0,1-.62.53,3.72,3.72,0,0,1-.53,0,31.06,31.06,0,0,0-3.45-.23h-1.1l-1.38,0c-.18,5.55-.71,8.18-2,10.39a15.13,15.13,0,0,1-6.79,5.58Z"/><path class="cls-1" d="M356.86,365.37a21.48,21.48,0,0,0,4.26-7,20.37,20.37,0,0,0,1.41-6,1.49,1.49,0,0,0-.73-1.44,23.42,23.42,0,0,0-6.56,1.86,1.9,1.9,0,0,1-.94.29,3.62,3.62,0,0,1-2.31-1.68,3.16,3.16,0,0,1-.59-1.3,2,2,0,0,1,.12-.56A2.8,2.8,0,0,0,354,351c.8,0,1,0,5.05-.74,1.8-.3,5.14-.71,9.1-1.1a12.34,12.34,0,0,0,2.3-.5,1.81,1.81,0,0,1,.74-.14,3.65,3.65,0,0,1,1.56.44c.8.38,1.39.94,1.39,1.36s-.32.59-.83.59a2.69,2.69,0,0,1-.74-.09,27.45,27.45,0,0,0-4.75-.39,34.14,34.14,0,0,0-4.84.3c1.36.77,1.92,1.36,1.92,2a18,18,0,0,1-1.86,5.79,17.55,17.55,0,0,1-5.85,7.2Zm-.56-22.79a4.61,4.61,0,0,0,3.52,1.59,15.69,15.69,0,0,0,6.23-1.44,1.7,1.7,0,0,1,.88-.24c.77,0,2,1,2,1.57,0,.35-.35.53-1.53.79a44.54,44.54,0,0,1-6.73.77c-2.22,0-3.37-.65-4.79-2.75Z"/><path class="cls-1" d="M390.47,365.08a34.56,34.56,0,0,0,6.73-6.58,28.43,28.43,0,0,0,5-9,51.45,51.45,0,0,0-8.59,1.36,15.48,15.48,0,0,0-3.08.91,1.57,1.57,0,0,1-.88.27c-1,0-2.72-2.13-2.72-3.43a.7.7,0,0,1,.18-.5,2.84,2.84,0,0,0,2.57,1.71c1.15,0,6.14-.62,10-1.27a5.55,5.55,0,0,0,2.42-.67,1,1,0,0,1,.47-.18c.27,0,.71.29,1.39.88.83.77,1.18,1.24,1.18,1.63a1.1,1.1,0,0,1-.44.74c-.41.29-.59.56-1.09,1.53-3.19,6-7.95,10.81-12.82,13Zm-.39-22.86a3.83,3.83,0,0,0,3.16,1.6,19.06,19.06,0,0,0,6.67-1.42,1.26,1.26,0,0,1,.63-.18c.82,0,2.3,1,2.3,1.63,0,.35-.27.53-1.12.65a55.57,55.57,0,0,1-7.53.77c-2.22,0-3.1-.56-4.52-2.78Z"/><path class="cls-1" d="M417.45,357.46a50.06,50.06,0,0,0,11.11-8.38c2.92-2.87,4.81-5.26,4.81-6.12,0-.56-.47-1-1.65-1.68a1.25,1.25,0,0,1,.59-.12,4.45,4.45,0,0,1,2.54.89c1,.68,1.53,1.36,1.53,1.92,0,.26,0,.32-1.18,1.3a31.94,31.94,0,0,0-2.39,2.24c-2.07,2-2.24,2.13-3.52,3.19,1.16.86,1.66,1.3,1.81,1.65a28,28,0,0,1,.2,4.34c0,2.07.09,4,.15,5.64,0,.65,0,1.51,0,1.69,0,1-.21,1.47-.68,1.47-.68,0-2-1.62-2-2.48a2,2,0,0,1,.18-.77,40.61,40.61,0,0,0,.53-7.26,13.44,13.44,0,0,0-.18-2.8,2.13,2.13,0,0,0-.64-.92,59.46,59.46,0,0,1-5.67,4.05,37.79,37.79,0,0,1-5.32,2.57Z"/><path class="cls-1" d="M457.85,341.1a5.84,5.84,0,0,1,2.18.51c1.24.47,2,1.06,2,1.62,0,.21,0,.21-.18.65-.35.8-.53,3-.53,6.44a26.38,26.38,0,0,1,6.88,1.65c1.33.62,1.83,1.21,1.83,2.27,0,.86-.26,1.36-.71,1.36-.29,0-.32,0-1.09-.71a17,17,0,0,0-6.94-3.84c0,1.86,0,2.78,0,3.67V359c0,.88,0,.88.06,3.36,0,.62,0,1.13,0,1.57a1.85,1.85,0,0,1-.15,1,.66.66,0,0,1-.53.27c-.71,0-1.89-1.6-1.89-2.57a2.22,2.22,0,0,1,.15-.83c.44-1.42.62-5.25.62-12.78a47.3,47.3,0,0,0-.21-5.08,3,3,0,0,0-2.24-2.63A1.17,1.17,0,0,1,457.85,341.1Z"/><path class="cls-1" d="M486,347.75a5.14,5.14,0,0,0,3,1,18.2,18.2,0,0,0,5.07-1.12,14.8,14.8,0,0,0-1.5-4.55c-.47-.68-1-.91-2.39-1a2,2,0,0,1,1.71-.56,11,11,0,0,1,2.39.29c.74.21,1.15.56,1.15,1a1.21,1.21,0,0,1,0,.29,3.73,3.73,0,0,0-.11.92,17.31,17.31,0,0,0,.35,3.1,16.93,16.93,0,0,0,4.46-2c.38-.33.47-.36.73-.36a4,4,0,0,1,1.39.3c.45.18.65.41.65.68,0,.44-.38.68-1.65,1.09-3.34,1.1-3.63,1.18-5.32,1.69.27,1.5.63,3.15,1,4.69a43.72,43.72,0,0,0,4.52-1.39,9.3,9.3,0,0,0,1.89-.85.92.92,0,0,1,.59-.21c1.18,0,2.63.71,2.63,1.27a.51.51,0,0,1-.33.47,11.22,11.22,0,0,1-2.07.3,48.28,48.28,0,0,0-6.94,1.56c1,3.93,1.69,6.67,2.13,8.27a6,6,0,0,1,.32,1.74c0,.68-.23,1-.67,1-.71,0-2.19-1.62-2.19-2.42a3.87,3.87,0,0,1,.06-.41c0-.18,0-.59,0-.74a43,43,0,0,0-1.12-7,34.3,34.3,0,0,0-6.11,2.42,3,3,0,0,1-1.3.51c-1.1,0-3.13-1.77-3.13-2.69a.9.9,0,0,1,.08-.35,3.22,3.22,0,0,0,2.22,1.09c.91,0,1.39-.12,5.46-1.39.27-.09.8-.26,2.51-.77-.35-1.59-.83-3.72-1.09-4.72-3.1.85-3.75,1-4.87,1a5.26,5.26,0,0,1-3.81-1.83Z"/><path class="cls-1" d="M531.78,356.52c1.74-1.8,4.05-4.79,4.05-5.23,0-.09-.06-.12-.15-.12a48,48,0,0,0-7.27,2c.65,2.75,2.13,8.39,2.72,10.39a3.17,3.17,0,0,1,.21,1.1c0,.47-.21.74-.59.74a2.5,2.5,0,0,1-1.16-.77,1.91,1.91,0,0,1-.82-1.45,1.13,1.13,0,0,1,0-.3v-.29a64.51,64.51,0,0,0-1.66-9c-.35.15-.35.15-1.53.56a20.4,20.4,0,0,0-2.37,1.1,1.92,1.92,0,0,1-.88.32c-.53,0-1.21-.53-1.86-1.42a2.93,2.93,0,0,1-.68-1.44.61.61,0,0,1,.15-.41,2.73,2.73,0,0,0,2.15,1.26,24.82,24.82,0,0,0,4.73-1.15c-1.07-4.25-1.36-4.69-3.25-5.14.24-.35.47-.41,1.27-.41a6.62,6.62,0,0,1,2.66.68.85.85,0,0,1,.41.71,1,1,0,0,1-.09.41,3,3,0,0,0-.06.54,15.11,15.11,0,0,0,.39,2.86c.53-.18.53-.18,2-.59l3-.89a7.14,7.14,0,0,0,2.36-.94,1.22,1.22,0,0,1,.53-.18c.35,0,1,.41,1.89,1.18.62.56.86.86.86,1.18s-.12.44-.92.71c-.29.09-.29.09-3.16,2.36-.91.71-1.59,1.21-2.74,2Z"/><path class="cls-1" d="M553,344.71a16.65,16.65,0,0,1,5.7,2.21,2.26,2.26,0,0,1,1,2c0,1-.32,1.65-.83,1.65-.32,0-.47-.15-1.26-1.18a15.43,15.43,0,0,0-4.82-4.34Zm21,1.68a30.27,30.27,0,0,1-6.2,7.94,56.83,56.83,0,0,1-8.3,6.73,8.37,8.37,0,0,0-1.74,1.36c-.47.56-.65.71-1,.71-1.21,0-3.46-2.83-3.46-4.34a1.4,1.4,0,0,1,.15-.59,4.4,4.4,0,0,0,1.07,1.3,1.91,1.91,0,0,0,1.18.62,7.3,7.3,0,0,0,2.86-1.24,43.22,43.22,0,0,0,7.06-4.87,47.06,47.06,0,0,0,7.94-7.89Z"/><path class="cls-1" d="M582.18,360.92a30.92,30.92,0,0,0,7.26-8.18c.92-1.57,1.21-2.28,1.21-2.93,0-.47-.41-.94-1.47-1.68a2.1,2.1,0,0,1,.65-.12,5.58,5.58,0,0,1,2.42,1c1,.68,1.41,1.12,1.41,1.59a.8.8,0,0,1-.35.65,5.7,5.7,0,0,0-1.24,1.36,28.26,28.26,0,0,1-6.2,6.47,17.84,17.84,0,0,1-3.46,2.15ZM598,348a27.14,27.14,0,0,1,7.76,6.88A4.89,4.89,0,0,1,607,358c0,1.21-.47,2.16-1.12,2.16-.41,0-.53-.18-1-1.36a25.74,25.74,0,0,0-7.23-10.45Zm9.83-2.92a3.24,3.24,0,0,1-3.22,3.25,3.28,3.28,0,0,1-3.25-3.25,3.24,3.24,0,0,1,6.47,0Zm-5.49,0a2.29,2.29,0,0,0,2.27,2.27,2.26,2.26,0,1,0-2.27-2.27Z"/><path class="cls-1" d="M617.17,363.37a43.12,43.12,0,0,0,7.94-6.47,52.22,52.22,0,0,0,5.64-7.35,19.54,19.54,0,0,0,2-3.81,31.32,31.32,0,0,0-6.23,1.3,14.21,14.21,0,0,0-2.48.8,1.64,1.64,0,0,1-.5.09c-.65,0-1.27-.54-1.92-1.69a3.58,3.58,0,0,1-.62-1.77,1.24,1.24,0,0,1,.2-.59c.86,1.53,1.48,2,2.78,2a47.58,47.58,0,0,0,6.2-.83,7.47,7.47,0,0,0,2.78-.83,1.19,1.19,0,0,1,.67-.26c.63,0,2.31,1.5,2.31,2.06a.7.7,0,0,1-.39.57c-.62.41-.62.41-1.68,2-1.42,2.13-1.42,2.13-3.72,5.14,4.17,2.19,6.5,3.69,7.65,5a3.91,3.91,0,0,1,1.12,2.93c0,.94-.3,1.53-.8,1.53a1,1,0,0,1-.68-.47,8.77,8.77,0,0,1-.71-1.18,25.29,25.29,0,0,0-7-7.24,31.88,31.88,0,0,1-7.15,6.65,26.32,26.32,0,0,1-5.17,2.89Z"/><path class="cls-1" d="M15.94,14.32h6.52c1.18-1.28,1.53-1.69,2.64-3,1.69,1.27,2.23,1.72,4,3.18a.42.42,0,0,1,.19.25c0,.1-.13.19-.26.19H15.94v3.89C16,25,16,28.54,16.1,29.4v.22c0,.64-.77.89-2.77.89-1,0-1.3-.19-1.3-.73v-.26c.19-4.26.25-7.22.25-10.62V15H3.18c-.92,0-2,.07-3,.16L0,14a21.81,21.81,0,0,0,3.18.29h9.1V6.81A87.1,87.1,0,0,1,1.69,7.7l-.07-.35A91.35,91.35,0,0,0,14.51,4a22.17,22.17,0,0,0,6.23-2.93C24.53,3.4,25,3.76,25,4.14c0,.22-.26.35-.67.35a9.28,9.28,0,0,1-1.15-.16A51.78,51.78,0,0,1,15.94,6.2Z"/><path class="cls-1" d="M49.2,20.33a19.12,19.12,0,0,0-.13-2l2,.16c2.1.12,2.54.25,2.54.6s-.28.45-1.15.73V21h7.1c1-1.05,1.34-1.37,2.39-2.35,1.46,1.11,1.94,1.46,3.37,2.6.13.13.16.19.16.26s-.13.16-.32.16H52.92a9.45,9.45,0,0,0,3.56,2.19,30.2,30.2,0,0,0,10,1.75l0,.35a4,4,0,0,0-2.19,2.68c-.26.79-.29.85-.58.85a18.07,18.07,0,0,1-5.05-1.84,18.16,18.16,0,0,1-4.84-3.79A10.27,10.27,0,0,1,52.5,22v2.54c0,1.62,0,2.8.13,5.15,0,.71-.41.87-2.19.87-1.21,0-1.37-.1-1.37-.77.09-2,.13-3,.13-4.61V23.48a22.23,22.23,0,0,1-6.59,4.36A35,35,0,0,1,36,30l-.09-.35a33.08,33.08,0,0,0,7.16-4.39,22.74,22.74,0,0,0,3.59-3.53H39.56a11.33,11.33,0,0,0-2.52.22l-.15-1.14a10.81,10.81,0,0,0,2.7.25H49.2ZM41.43,10.18A23.53,23.53,0,0,0,41.28,7c4.45.38,4.58.41,4.58.79s-.29.45-1.15.7v1.69h4.17c0-2.1,0-2.1-.1-3.08,1,.09,1.72.16,2.2.22,1.78.13,2.26.28,2.26.63s-.23.39-1.08.61v1.62h4.39V9.93c0-1.18,0-1.69-.1-2.83,3.85.35,4.49.47,4.49.88,0,.23-.26.36-1.12.61v1.59H61c.83-1,1.11-1.3,2-2.29a36.54,36.54,0,0,1,3,2.55c.13.12.16.19.16.25s-.13.16-.32.16h-6c0,1.78,0,3.12,0,4a.66.66,0,0,1-.12.48,3.72,3.72,0,0,1-2,.32c-1,0-1.14-.07-1.14-.48v-.67H52.16v.54c0,.54-.39.67-2.07.67-1.12,0-1.21-.06-1.24-.61,0-1.33,0-1.87,0-2.76V10.85H44.71v6.27H59.44c.92-1,1.21-1.24,2.17-2.2,1.39,1,1.81,1.31,3.14,2.42.13.13.16.19.16.25s-.12.19-.35.19H44.71v.55c0,.6-.35.73-2.29.73-1,0-1.14-.1-1.14-.64.09-2.83.09-2.83.15-7.57H39a12.22,12.22,0,0,0-2.26.19l-.15-1.15a10.54,10.54,0,0,0,2.44.29ZM44.62,4V3.05A19.89,19.89,0,0,0,44.55.92c1,.1,1.75.16,2.23.19,1.91.16,2.42.29,2.42.64s-.26.41-1.21.7c0,.76,0,.79,0,1.53h5.72V3.66l0-.64a16.12,16.12,0,0,0-.12-2.1c.92.1,1.75.16,2.22.19,2,.19,2.45.32,2.45.67s-.35.48-1.21.7V4h3.06c1-1.12,1.3-1.43,2.26-2.45,1.49,1.11,2,1.46,3.4,2.64a.42.42,0,0,1,.16.28c0,.13-.13.19-.38.19h-8.5c0,.48,0,.8,0,1.56,0,.61-.26.67-2.26.67-1,0-1.18-.06-1.18-.51V6.3c0-.86,0-1,0-1.66H48c0,.32,0,.87,0,1.63,0,.51-.32.6-2.2.6-1.08,0-1.24-.06-1.24-.57,0-.76,0-1,.07-1.66H39.3a10.06,10.06,0,0,0-2.41.23l-.2-1.15A12.42,12.42,0,0,0,39.3,4Zm7.54,6.87v3h4.39v-3Z"/><path class="cls-1" d="M88.6,10.69a19.29,19.29,0,0,0,4.8,9.39,19.65,19.65,0,0,0,5.79,4.1,19.13,19.13,0,0,0,3.69,1.24l0,.41a5.33,5.33,0,0,0-3.09,3.25c-.16.44-.28.57-.48.57a5.4,5.4,0,0,1-2-1.11,21.15,21.15,0,0,1-7.22-9.8,33.08,33.08,0,0,1-1.78-7C87.74,17,86.05,20.9,83,24a23.73,23.73,0,0,1-6.74,4.71,36.73,36.73,0,0,1-3.82,1.52l-.19-.41c4.74-3,7.06-5.22,9.07-8.43a24.47,24.47,0,0,0,3.28-10.69H76.12a17.49,17.49,0,0,0-3,.22L73,9.73a16,16,0,0,0,3.15.29h8.46c.13-1.56.16-3,.16-5.12a27.21,27.21,0,0,0-.16-3.37c1.14.09,2,.16,2.58.22,2.22.16,2.89.35,2.89.76s-.35.54-1.37.89c-.09,3.41-.12,4.65-.28,6.62h7.12L98,6.94c1.78,1.33,2.29,1.75,4,3.15.16.19.22.28.22.38s-.16.22-.38.22Z"/><path class="cls-1" d="M132.42,19.25c1.49-1.69,1.49-1.69,2.51-2.83,1.62,1.24,2.1,1.62,3.62,2.89a.8.8,0,0,1,.2.35c0,.16-.16.26-.45.26H125.77v3.56l0,4.07a2.36,2.36,0,0,1-1.21,2.39,8.35,8.35,0,0,1-3.44.79c-.41,0-.51-.09-.57-.6a2.39,2.39,0,0,0-.89-1.66c-.6-.51-1.08-.66-4.36-1.43v-.41c4.42.29,4.42.29,6.27.35h.09c.32,0,.45-.13.45-.48V19.92h-10a15.28,15.28,0,0,0-2.52.19L109.38,19a12.71,12.71,0,0,0,2.71.26h10v-.51a21.46,21.46,0,0,0-.16-3.18c1.62.19,1.62.19,3.37.47a22.3,22.3,0,0,0,2.93-3.46H117.53a13,13,0,0,0-2.3.19L115,11.68a13.5,13.5,0,0,0,2.45.22h10.88c.74-.77,1-1,1.69-1.72,1.27.86,1.69,1.15,2.42,1.72a17.61,17.61,0,0,0,.92-3.18H113.74V9a12.61,12.61,0,0,1-.48,3.5A2.58,2.58,0,0,1,111,14.38c-.93,0-1.69-1.11-1.69-2.42a1.19,1.19,0,0,1,.45-1.08c.09-.09.09-.09.82-.51,1.53-.86,2.17-2.07,2.42-4.48h.41a18.53,18.53,0,0,1,.26,2.16h13.71a26.16,26.16,0,0,0,2.89-6.65A48.25,48.25,0,0,1,134.9,3c.28.13.41.28.41.44,0,.36-.45.51-1.3.51h-.29a41.59,41.59,0,0,1-5.06,4.14h4.42c.86-.86,1.12-1.11,2-1.91,1.43,1.05,1.87,1.4,3.24,2.45.35.29.48.48.48.67,0,.41-.54.57-2,.57a29.58,29.58,0,0,1-3.22,2.1l-.6.38.41.32c.32.29.48.48.48.64,0,.32-.38.48-1.21.48h-.48a38.89,38.89,0,0,1-5.66,2.51c.29.09.38.22.38.38,0,.32-.28.48-1.17.76v1.85ZM114.28,1.75c3.79,1.43,5.25,2.45,5.25,3.76s-1,2.51-2,2.51c-.51,0-.79-.32-1.08-1.28A11.08,11.08,0,0,0,114.09,2Zm6.59-.51c3.47,1.18,5.25,2.45,5.25,3.72a2.79,2.79,0,0,1-2.29,2.71c-.55,0-.74-.26-1.09-1.62a10.21,10.21,0,0,0-2.13-4.52Z"/><path class="cls-1" d="M162.27,26.79h6.59q1.33-1.62,2.67-3.15c1.72,1.37,2.26,1.81,3.94,3.24a1.25,1.25,0,0,1,.23.35c0,.13-.16.23-.42.23H149.16a21.35,21.35,0,0,0-3,.19L146,26.47a16.31,16.31,0,0,0,3.15.32h9.32V5.6h-7.82a15.19,15.19,0,0,0-2.52.16L148,4.64a12.49,12.49,0,0,0,2.71.29h16.57c1.12-1.27,1.47-1.65,2.58-2.89,1.69,1.3,2.19,1.72,3.85,3.15a.49.49,0,0,1,.16.25c0,.1-.13.16-.32.16H162.27Z"/><path class="cls-1" d="M205.55,19.25c1.49-1.69,1.49-1.69,2.51-2.83,1.63,1.24,2.1,1.62,3.63,2.89a.75.75,0,0,1,.19.35c0,.16-.16.26-.44.26H198.9v3.56l0,4.07a2.34,2.34,0,0,1-1.21,2.39,8.34,8.34,0,0,1-3.43.79c-.42,0-.51-.09-.58-.6a2.42,2.42,0,0,0-.88-1.66c-.61-.51-1.09-.66-4.37-1.43v-.41c4.43.29,4.43.29,6.27.35h.1c.32,0,.44-.13.44-.48V19.92H185.22a15.15,15.15,0,0,0-2.51.19L182.52,19a12.56,12.56,0,0,0,2.7.26h10.05v-.51a21.46,21.46,0,0,0-.16-3.18c1.63.19,1.63.19,3.38.47a22.28,22.28,0,0,0,2.92-3.46H190.66a12.79,12.79,0,0,0-2.29.19l-.19-1.08a13.35,13.35,0,0,0,2.45.22h10.88c.73-.77,1-1,1.69-1.72,1.27.86,1.68,1.15,2.41,1.72a18.46,18.46,0,0,0,.93-3.18H186.87V9a13,13,0,0,1-.47,3.5,2.6,2.6,0,0,1-2.23,1.88c-.92,0-1.69-1.11-1.69-2.42a1.19,1.19,0,0,1,.45-1.08,4.58,4.58,0,0,1,.83-.51c1.52-.86,2.16-2.07,2.42-4.48h.41a18.12,18.12,0,0,1,.25,2.16h13.71a26.58,26.58,0,0,0,2.9-6.65c2.26.7,4.07,1.3,4.58,1.56.29.13.41.28.41.44,0,.36-.44.51-1.3.51h-.29a41.59,41.59,0,0,1-5.06,4.14h4.43c.86-.86,1.11-1.11,2-1.91,1.43,1.05,1.88,1.4,3.25,2.45.35.29.47.48.47.67,0,.41-.54.57-2,.57a30.11,30.11,0,0,1-3.21,2.1c-.13.07-.32.19-.6.38l.41.32c.32.29.47.48.47.64,0,.32-.38.48-1.2.48h-.48a39.37,39.37,0,0,1-5.66,2.51c.28.09.38.22.38.38,0,.32-.29.48-1.18.76v1.85ZM187.42,1.75c3.78,1.43,5.25,2.45,5.25,3.76S191.61,8,190.63,8c-.51,0-.8-.32-1.08-1.28A11.09,11.09,0,0,0,187.22,2ZM194,1.24c3.47,1.18,5.25,2.45,5.25,3.72A2.79,2.79,0,0,1,197,7.67c-.54,0-.73-.26-1.08-1.62a10.32,10.32,0,0,0-2.13-4.52Z"/><path class="cls-1" d="M231.62,14.38l2-2.19c1.21,1,1.56,1.27,2.64,2.25a.63.63,0,0,1,.23.39c0,.12-.13.22-.32.22H221.5a13.91,13.91,0,0,0-2.51.19l-.23-1.11a12.9,12.9,0,0,0,2.65.25h6.52A38.32,38.32,0,0,0,230,6.81c3.72,1.08,4.48,1.37,4.48,1.75s-.35.44-1.33.57A35.61,35.61,0,0,1,229,14.38Zm-.32-8.81c.86-.93,1.15-1.21,2-2.13,1.21.95,1.59,1.27,2.77,2.29a.75.75,0,0,1,.19.28c0,.16-.16.23-.44.23H222.14a15.89,15.89,0,0,0-2.55.15l-.19-1.08a12.9,12.9,0,0,0,2.74.26h3.56V3.72a24.7,24.7,0,0,0-.16-2.54c4.2.35,4.61.41,4.61.89,0,.32-.31.51-1.11.73V5.57ZM224.49,29a.79.79,0,0,1-.19.63,4.18,4.18,0,0,1-2.1.35c-1,0-1.24-.13-1.24-.73.1-3.18.13-5,.13-7.76,0-1.82,0-2.58-.13-4.84a37.94,37.94,0,0,1,3.88,1.94h5.41c.76-.83,1-1.08,1.72-1.81,1.08.73,1.4,1,2.39,1.75.25.22.38.38.38.54s-.26.51-1,.86v4.87c0,.15,0,.15,0,1.52,0,1.21,0,1.28,0,2.42,0,.38-.09.54-.38.67a6.23,6.23,0,0,1-2,.28c-.86,0-1.05-.09-1.05-.6V27.55h-5.89ZM221.66,6.84c3.18,1.72,4.61,3.09,4.61,4.36A2.79,2.79,0,0,1,224,13.78c-.54,0-.73-.29-.79-1.18a11.4,11.4,0,0,0-1.79-5.54Zm2.83,20h5.89v-7.6h-5.89Zm15.4-2.64c0,.83,0,.93.06,5.32a.74.74,0,0,1-.28.7,6.63,6.63,0,0,1-2.26.28c-.83,0-1-.16-1-.79.13-7,.19-12,.19-18.17,0-5-.06-7.32-.22-10a30,30,0,0,1,3.82,1.85h3.53c.67-.86.86-1.12,1.52-1.95,1.44,1,1.85,1.34,3.15,2.39.29.23.39.38.39.57s-.35.51-1.31.67A62.38,62.38,0,0,1,242,13c2.67,2,3.94,3.25,4.86,5a8.33,8.33,0,0,1,1,4,4.77,4.77,0,0,1-2,4.26,5.24,5.24,0,0,1-2.45.71c-.45,0-.51-.07-.58-.67a3.54,3.54,0,0,0-.73-1.66,4.34,4.34,0,0,0-2.13-.92Zm0-1.08c1.84.19,2.64.26,3.12.26,1.05,0,1.3-.51,1.3-2.71,0-3.12-.79-5.06-3.11-7.6a64.51,64.51,0,0,0,2.57-9h-3.88Z"/><path class="cls-1" d="M259.44,16.7c-1,.29-1.24.35-2.26.61-.1.7-.29,1.05-.54,1.05s-.48-.67-1-4c.7,0,1,.06,1.33.06a6.77,6.77,0,0,0,.7,0h1.05a41.41,41.41,0,0,0,2.52-3.88C263.67,6,263.67,6,264.08,4.84c3.72,1.62,3.92,1.71,3.92,2s-.39.45-1.34.45a50,50,0,0,1-6.71,7c1.62,0,2.13-.07,4.61-.29a11.14,11.14,0,0,0-1.12-2.7l.23-.13c2.8,1.91,3.78,3,3.78,4.17s-.92,2.35-1.75,2.35c-.35,0-.47-.22-.57-.86-.13-.83-.19-1.24-.32-1.81l-.66.19a8.53,8.53,0,0,1-.86.29v7c0,5.09,0,5.09.09,7.12v.1c0,.6-.41.73-2.26.73-.76,0-.92-.1-.92-.7.13-4.26.13-4.39.13-6.84V20.52c-.23,0-.32.07-.58.1-1.46,4.67-2.06,6-4,8.62l-.35-.19a42,42,0,0,0,1.65-10.34c1.94.51,2.51.67,3.28.92V16.42ZM256,5.41c1.34.6,1.78.83,2.35,1.14a22.34,22.34,0,0,0,2-5.53c4.42,1.34,4.55,1.4,4.55,1.75s-.45.51-1.37.51a31,31,0,0,1-4.23,3.82c1.27.85,1.62,1.33,1.62,2.13,0,1.27-.92,2.48-1.84,2.48-.36,0-.55-.19-.71-.7a14.17,14.17,0,0,0-2.51-5.35Zm7.73,12.28c2.17,1.53,3.21,2.83,3.21,4s-.85,2.45-1.68,2.45c-.42,0-.57-.35-.61-1.24a11.18,11.18,0,0,0-1.08-5.06Zm5,2.93a12.1,12.1,0,0,1,.41,3.08c0,2.61-1.3,4.81-2.8,4.81-.83,0-1.4-.89-1.4-2.17a1.39,1.39,0,0,1,.57-1.24l.83-.57c1.18-.73,1.69-1.78,2-3.94ZM265.93,12a28,28,0,0,0,4.55-10.37c.89.32,1.65.57,2.1.73,1.62.54,2.16.8,2.16,1.08s-.35.45-1.27.55a24.85,24.85,0,0,1-7.26,8.33Zm11.26-1.78c4.45,2.39,5.57,3.37,5.57,4.9,0,1.34-1,2.67-1.91,2.67-.42,0-.61-.22-.77-.76a17.59,17.59,0,0,0-.76-2.45c-1.56.54-5.28,1.43-9.45,2.29-.28.83-.47,1.08-.73,1.08s-.35,0-1.27-4.13a21.67,21.67,0,0,0,2.45.16h.6a31.81,31.81,0,0,0,2.48-7.67c4.24,1,4.39,1.08,4.39,1.46s-.38.48-1.36.54a27.42,27.42,0,0,1-4.17,5.6c1.17,0,5-.16,6.62-.28a20.18,20.18,0,0,0-1.95-3.19Zm-6.81,12.06a27.2,27.2,0,0,0-.16-3l2.13.28c1.72.19,2.17.32,2.17.64s-.35.51-1.15.67v5.34c0,.38,0,.51.13.57s.22.13,2.26.13c1.56,0,1.72,0,2.07-.51a20.4,20.4,0,0,0,1.68-4.07l.35,0-.09,3.18v.23c0,.47.06.57.47.76.7.29,1,.67,1,1.27a1.6,1.6,0,0,1-1.37,1.62,22.07,22.07,0,0,1-5,.29c-2.51,0-3.11-.06-3.62-.32s-.83-.76-.86-1.81c0-2.07,0-2.07,0-3.31Zm2.29-5.19c4.23,1.18,5.47,1.94,5.47,3.38,0,1.14-.86,2.38-1.65,2.38-.32,0-.54-.22-.8-.79a11.7,11.7,0,0,0-3.21-4.68ZM277.6,1.27a1.29,1.29,0,0,0-.06.38c0,.9.92,2.39,2.19,3.6a12.31,12.31,0,0,0,5.92,3v.38a2.71,2.71,0,0,0-1.3,1.37,7.54,7.54,0,0,0-.58,1.49c-.06.29-.12.42-.28.42-.35,0-1.11-.58-2.2-1.59-1.75-1.72-2.83-3.66-4.2-7.35a3.69,3.69,0,0,0-.66-1.31ZM280.24,20c3.53,2.07,5.09,3.66,5.09,5.19s-1.11,3.05-2.1,3.05a.62.62,0,0,1-.57-.35c-.09-.16-.13-.22-.22-1A16.83,16.83,0,0,0,280,20.3Z"/><path class="cls-1" d="M291.74,16.32a38.64,38.64,0,0,0,8.11-8,24.31,24.31,0,0,0,4.08-7.23c5.28,1.12,5.47,1.18,5.47,1.59s-.45.51-1.44.64A17.29,17.29,0,0,0,314.45,9a25.53,25.53,0,0,0,7.93,2.7l0,.41c-1.34.45-2.07,1.31-2.81,3.47a.39.39,0,0,1-.38.32,10.13,10.13,0,0,1-2.61-1.37c-4.16-2.73-6.42-5.44-9-10.81A28,28,0,0,1,300,12.09a30.92,30.92,0,0,1-8.11,4.58Zm8.75,13a.77.77,0,0,1-.51.86,9.24,9.24,0,0,1-2.1.22c-.89,0-1.18-.19-1.18-.76V29.4c.1-2.39.16-4.84.16-7.73s0-4.14-.13-5.51a38.77,38.77,0,0,1,4.2,2h11.43l1.9-2.1c1.25.86,1.63,1.14,2.8,2.07.29.25.42.41.42.54s-.26.47-1.18.89c0,4.13,0,5.6.16,9.57v.19A.63.63,0,0,1,316,30a9.64,9.64,0,0,1-2.29.29c-.79,0-1.05-.19-1.05-.7V28.28H300.49Zm-1-16.51a12.13,12.13,0,0,0,2.14.25h6.14L310,10.5c1.56,1.14,2,1.5,3.5,2.7.13.16.19.23.19.32s-.13.19-.41.19H301.57a8.06,8.06,0,0,0-1.78.19Zm1,14.83h12.18V18.87H300.49Z"/><path class="cls-1" d="M345.11,26.79h6.58q1.33-1.62,2.67-3.15c1.72,1.37,2.26,1.81,3.95,3.24a1.42,1.42,0,0,1,.22.35c0,.13-.16.23-.41.23H332a21.25,21.25,0,0,0-3,.19l-.19-1.18a16.31,16.31,0,0,0,3.15.32h9.32V5.6h-7.83a15.14,15.14,0,0,0-2.51.16l-.19-1.12a12.4,12.4,0,0,0,2.7.29h16.58c1.11-1.27,1.46-1.65,2.57-2.89,1.69,1.3,2.2,1.72,3.85,3.15a.43.43,0,0,1,.16.25c0,.1-.12.16-.32.16H345.11Z"/><path class="cls-1" d="M388.39,19.25c1.49-1.69,1.49-1.69,2.51-2.83,1.62,1.24,2.1,1.62,3.62,2.89a.8.8,0,0,1,.2.35c0,.16-.16.26-.45.26H381.74v3.56l0,4.07a2.36,2.36,0,0,1-1.21,2.39,8.35,8.35,0,0,1-3.44.79c-.41,0-.51-.09-.57-.6a2.39,2.39,0,0,0-.89-1.66c-.61-.51-1.08-.66-4.36-1.43v-.41c4.42.29,4.42.29,6.27.35h.09c.32,0,.45-.13.45-.48V19.92H368.05a15.24,15.24,0,0,0-2.51.19L365.35,19a12.62,12.62,0,0,0,2.7.26h10.06v-.51a21.46,21.46,0,0,0-.16-3.18c1.62.19,1.62.19,3.37.47a22.3,22.3,0,0,0,2.93-3.46H373.5a13,13,0,0,0-2.3.19L371,11.68a13.5,13.5,0,0,0,2.45.22h10.88c.74-.77,1-1,1.69-1.72,1.27.86,1.69,1.15,2.42,1.72a17.61,17.61,0,0,0,.92-3.18H369.71V9a12.61,12.61,0,0,1-.48,3.5A2.58,2.58,0,0,1,367,14.38c-.93,0-1.69-1.11-1.69-2.42a1.19,1.19,0,0,1,.45-1.08c.09-.09.09-.09.82-.51,1.53-.86,2.17-2.07,2.42-4.48h.41a18.53,18.53,0,0,1,.26,2.16h13.71a26.16,26.16,0,0,0,2.89-6.65c2.26.7,4.08,1.3,4.59,1.56.28.13.41.28.41.44,0,.36-.45.51-1.3.51h-.29a41.59,41.59,0,0,1-5.06,4.14h4.42c.86-.86,1.12-1.11,2-1.91,1.43,1.05,1.87,1.4,3.24,2.45.35.29.48.48.48.67,0,.41-.54.57-2,.57a29.58,29.58,0,0,1-3.22,2.1l-.6.38.41.32c.32.29.48.48.48.64,0,.32-.38.48-1.21.48h-.48a38.89,38.89,0,0,1-5.66,2.51c.29.09.38.22.38.38,0,.32-.28.48-1.17.76v1.85ZM370.25,1.75C374,3.18,375.5,4.2,375.5,5.51S374.45,8,373.46,8c-.51,0-.79-.32-1.08-1.28A11.08,11.08,0,0,0,370.06,2Zm6.59-.51c3.46,1.18,5.25,2.45,5.25,3.72a2.79,2.79,0,0,1-2.3,2.71c-.54,0-.73-.26-1.08-1.62a10.21,10.21,0,0,0-2.13-4.52Z"/><path class="cls-1" d="M410.51,10.4h.73c.8-1,1.05-1.24,1.84-2.16,1.18,1,1.53,1.3,2.58,2.29.13.16.19.22.19.32s-.19.22-.41.22h-4.93V13.2c3.09,1.28,4.55,2.52,4.55,3.82s-1,2.61-1.91,2.61c-.48,0-.7-.29-.86-1.24a8.36,8.36,0,0,0-1.78-4.49v7.54c0,1.15,0,3.85,0,8.08,0,.8-.41,1-2.45,1-.92,0-1.11-.1-1.11-.64.09-3.5.22-7.38.28-9.35l.07-3.37A20,20,0,0,1,402,23.54l-.22-.19a38.51,38.51,0,0,0,5.06-12.28h-2.61a9.28,9.28,0,0,0-1.84.19l-.19-1.11a8.55,8.55,0,0,0,2,.25h2.93V5.66a35,35,0,0,1-4.52.42l-.06-.32a31.24,31.24,0,0,0,5.79-2.52,14.38,14.38,0,0,0,3.24-2.16C413,2,413,2,414.8,3.44c.29.25.42.41.42.57s-.19.32-.42.32a4.42,4.42,0,0,1-1.3-.22c-1.5.47-2,.63-3,.88Zm17.08,9c.7-1.28.93-1.66,1.62-2.87,1.25.9,1.63,1.18,2.81,2.14a.85.85,0,0,1,.22.31c0,.1-.13.16-.29.19l-4.74,1c0,3.5,0,3.5.13,9.32a.4.4,0,0,0,0,.13c0,.7-.57.89-2.51.89-1.08,0-1.27-.13-1.27-.73.09-4.65.12-6.24.12-8.88l-9.1,1.81a7.28,7.28,0,0,0-1.62.58l-.48-1.12h.32a13.3,13.3,0,0,0,1.88-.19l9-1.78V13c0-7.76,0-9.41-.16-11.42,1,.1,1.69.19,2.13.22,2.39.2,2.8.29,2.8.67s-.35.51-1.3.8l0,16.19Zm-12.82-7.19c4.55,1,6.33,2.13,6.33,3.78,0,1.4-.86,2.64-1.75,2.64-.41,0-.66-.28-1.14-1.27a13,13,0,0,0-3.57-4.87Zm1.24-8c4.3,1.18,6,2.26,6,3.79,0,1.3-1,2.7-1.88,2.7-.42,0-.61-.22-1-1.24a16.49,16.49,0,0,0-3.22-5Z"/><path class="cls-1" d="M445.55,30.1a23.89,23.89,0,0,0,4.77-7.61,23.41,23.41,0,0,0,1.62-6.77,1.76,1.76,0,0,0-.51-1.5,26.23,26.23,0,0,0-6.65,1.91,2.67,2.67,0,0,1-1.36.41c-.8,0-1.75-.7-2.81-2.1a3.21,3.21,0,0,1-.88-2,2.51,2.51,0,0,1,.12-.64,3.51,3.51,0,0,0,3.06,1.75c1,0,1.27,0,6-.76,2.86-.44,4.26-.64,9.67-1.24a8.34,8.34,0,0,0,2.77-.67,1.91,1.91,0,0,1,.92-.25,4.92,4.92,0,0,1,2,.66c1.21.61,1.81,1.28,1.81,1.91s-.51,1.09-1.33,1.09a2.57,2.57,0,0,1-.58-.07,37.32,37.32,0,0,0-6-.51,38.17,38.17,0,0,0-4.61.26c1.81,1,2.16,1.43,2.16,2.26,0,1.4-1.33,4.83-2.8,7.22a19.79,19.79,0,0,1-7.19,6.9ZM445.1,4.23A5.07,5.07,0,0,0,449,6a16.36,16.36,0,0,0,4.43-.73A9.82,9.82,0,0,0,456.21,4a1.89,1.89,0,0,1,1-.28,3.06,3.06,0,0,1,1.69.66c.8.51,1.18,1,1.18,1.56s-.45.92-1.85,1.24a43.32,43.32,0,0,1-7.89,1c-2.48,0-4.13-1.12-5.53-3.73Zm15.3-2c3.25,1.14,5.29,2.92,5.29,4.61,0,.79-.42,1.3-1,1.3s-.61-.09-1.4-1.59a14.39,14.39,0,0,0-3.18-3.78ZM463.68,0a11.36,11.36,0,0,1,3.66,1.59c1.18.83,1.69,1.59,1.69,2.52,0,.73-.39,1.24-1,1.24-.38,0-.57-.16-1.05-.93A13.64,13.64,0,0,0,463.4.48Z"/><path class="cls-1" d="M484,30a14.78,14.78,0,0,0,6-6.71c1.11-2.61,1.62-5.76,1.65-10.38a38.5,38.5,0,0,0-6.42.83v1.72c0,1,0,3.63.06,4.52v.22c0,1.59-.41,2.36-1.3,2.36-.54,0-1.09-.42-1.63-1.18a4,4,0,0,1-.7-1.88,2.61,2.61,0,0,1,.23-.89,12.31,12.31,0,0,0,.54-4.23,11.38,11.38,0,0,0-3.37,1.21,3.27,3.27,0,0,1-1.28.38c-.79,0-2-1-2.86-2.51a4,4,0,0,1-.57-1.66,2.59,2.59,0,0,1,.06-.38A3.64,3.64,0,0,0,477.57,13a32.1,32.1,0,0,0,4.9-.7c0-4.77-.38-5.63-2.61-6.68a1.65,1.65,0,0,1,1.05-.32,8.47,8.47,0,0,1,3.88,1.37c.83.54,1.11,1,1.11,1.5a2.52,2.52,0,0,1-.22,1,11.55,11.55,0,0,0-.38,2.74c1.46-.22,3.59-.51,6.42-.83,0-.47,0-1.3,0-2.51,0-2.26-.16-3.21-.64-3.79a3.87,3.87,0,0,0-2.32-1.24,2.17,2.17,0,0,1,1.53-.44,9.65,9.65,0,0,1,4,1c1,.45,1.37.92,1.37,1.56a1.64,1.64,0,0,1-.19.76c-.48,1.09-.54,1.56-.7,4.33a8.29,8.29,0,0,0,3.53-.7,1.82,1.82,0,0,1,.86-.22,4.75,4.75,0,0,1,2.23.83c.83.5,1.17,1,1.17,1.49a.93.93,0,0,1-1,.95,3.68,3.68,0,0,1-.51,0,52.78,52.78,0,0,0-5.32-.22h-1c-.16,6.74-.7,9.35-2.48,11.9a15.78,15.78,0,0,1-8,5.57ZM496.56,1.62a8.78,8.78,0,0,1,2.93,1.78,4,4,0,0,1,1.43,2.77c0,.8-.38,1.31-1,1.31-.41,0-.67-.29-1-1.18A12.23,12.23,0,0,0,496.11,2ZM499.93.1a9.35,9.35,0,0,1,3,1.55,3.6,3.6,0,0,1,1.59,2.74c0,.76-.35,1.24-.92,1.24s-.61-.19-1-1.08a11.25,11.25,0,0,0-3.05-4Z"/><path class="cls-1" d="M510.79,21.16a59.3,59.3,0,0,0,11.87-9.45c3.4-3.44,5.34-6,5.34-7,0-.67-.73-1.5-1.91-2.1a3.62,3.62,0,0,1,1-.13,6.41,6.41,0,0,1,3.22,1.08c1.46.86,2.32,1.82,2.32,2.55,0,.57-.16.76-1.27,1.56-.13.09-.13.09-2.07,1.94-2.23,2.06-2.23,2.06-4.49,4a7.85,7.85,0,0,1,2.2,1.87c.28.45.32.77.35,3.12,0,1.46,0,1.88.22,7.92,0,.45,0,.89,0,1.21,0,1.31-.41,1.94-1.3,1.94-1.18,0-2.93-1.94-2.93-3.28a2.73,2.73,0,0,1,.19-1,36.51,36.51,0,0,0,.7-8.21c0-1.62-.09-2.07-.54-2.67A53.2,53.2,0,0,1,516.93,19a39.64,39.64,0,0,1-6,2.52Z"/><path class="cls-1" d="M549.24,6c3.56.57,5.47,1.11,7,2.07a3,3,0,0,1,1.56,2.73c0,1.5-.74,2.64-1.72,2.64-.54,0-.86-.25-1.34-1.08a15,15,0,0,0-5.63-6Zm24.18,1.84a34.11,34.11,0,0,1-7.16,9.87A50.87,50.87,0,0,1,557,24.91a7.17,7.17,0,0,0-1.71,1.4,1.76,1.76,0,0,1-1.34.8c-.83,0-2-.9-3.12-2.33a6,6,0,0,1-1.52-3.53,2.67,2.67,0,0,1,.15-.86c.86,1.47,1.91,2.36,2.77,2.36,1.34,0,5.51-2.2,9.29-4.9A62.86,62.86,0,0,0,573,7.6Z"/><path class="cls-1" d="M587.27,8.49a3.23,3.23,0,0,0,2,.55c1.43,0,6.58-.55,9.89-1.06a5.48,5.48,0,0,0,2-.69,1.37,1.37,0,0,1,.76-.23,5.9,5.9,0,0,1,2.93,1.85c.82.79,1.14,1.27,1.14,1.78,0,.35-.09.51-.51,1a4.63,4.63,0,0,0-.79,2c-.29,1.18-.35,1.4-1.21,5-.22.95-.38,1.65-.51,2.19,1.18.83,1.78,1.62,1.78,2.32s-.35.89-1,.89c-.25,0-.44,0-1.49-.15a21.55,21.55,0,0,0-2.71-.13,27.72,27.72,0,0,0-10.43,1.81,2.5,2.5,0,0,1-.77.16c-1.43,0-3.65-2.77-3.65-4.58a4.39,4.39,0,0,1,.09-.73,4,4,0,0,0,3.37,2.13c.35,0,1.09-.06,1.69-.13,1.43-.19,1.43-.19,4-.48,1.56-.15,3.59-.38,6.07-.6a101,101,0,0,0,1.31-11c0-.44-.19-.57-.7-.57a40.75,40.75,0,0,0-5.86.73,34.14,34.14,0,0,0-4.35,1.18,2.58,2.58,0,0,1-1.21.35c-.8,0-1.78-.76-2.61-2.07a4.3,4.3,0,0,1-.89-2.38,1.89,1.89,0,0,1,.16-.74A5.12,5.12,0,0,0,587.27,8.49Z"/><path class="cls-1" d="M620,13.75c.71.5,1.44.66,3.19.66,1.27,0,7.09-.09,12.6-.22.54,0,2.6,0,3.56,0,3.18,0,4.17.13,4.68.57a1.26,1.26,0,0,1,.38,1c0,.79-.7,1.3-2.07,1.49-1.78.22-4.58.32-14.19.38-1.46,0-1.62,0-3.94.13a3.71,3.71,0,0,0-1.41.28,2.67,2.67,0,0,1-1.08.26c-.76,0-1.62-.7-2.35-2A7.07,7.07,0,0,1,618.2,13a1.19,1.19,0,0,1,.39-1A5.07,5.07,0,0,0,620,13.75Z"/><path class="cls-1" d="M652.77,27.71a43.71,43.71,0,0,0,9.45-8.11,51.34,51.34,0,0,0,7.89-12,33,33,0,0,0-8.53,2.48,2.28,2.28,0,0,1-1.21.38c-.73,0-1.46-.57-2.29-1.78A5.41,5.41,0,0,1,657,6a1.31,1.31,0,0,1,.22-.79c1,1.59,1.82,2.16,3.35,2.16a53.73,53.73,0,0,0,6.9-1c2.1-.41,2.29-.51,3.09-1a1.39,1.39,0,0,1,.86-.28,4.83,4.83,0,0,1,2.32,1.43c.7.67,1,1.14,1,1.59a.91.91,0,0,1-.51.8,6.48,6.48,0,0,0-1.85,2.32,56.45,56.45,0,0,1-4,5.63c4.17,1.81,6.81,3.34,8.24,4.74A4.14,4.14,0,0,1,678,24.72c0,1.62-.73,2.83-1.72,2.83-.54,0-.92-.38-1.3-1.27a22.64,22.64,0,0,0-7.13-8.75,34.26,34.26,0,0,1-7.6,7A28.79,28.79,0,0,1,653,28.06Z"/><path class="cls-1" d="M212.29,90.56v1.08c0,2.67,0,4.07.09,7,0,.38-.09.54-.35.67a8.68,8.68,0,0,1-2.19.22c-1.11,0-1.27-.1-1.31-.73.1-2.2.13-3.09.13-5.25,0-1.37,0-1.37,0-3h-9.86a13.21,13.21,0,0,0-2.33.22l-.25-1.14a13.55,13.55,0,0,0,2.48.25h10a19.74,19.74,0,0,0-.16-3.18,1,1,0,0,1-.54.22.84.84,0,0,1-.7-.44c-.19-.26-.19-.26-.7-1.88a7.88,7.88,0,0,0-1.85-3c-2.38,3.82-3.59,5.06-7.31,7.38l-.26-.19a29.35,29.35,0,0,0,4.49-7.92,19.23,19.23,0,0,0,1.27-4.78c4.84,1.21,5.06,1.28,5.06,1.69a.38.38,0,0,1-.16.29,6,6,0,0,1-1.34.35A19.74,19.74,0,0,1,205,81.08a19.34,19.34,0,0,1,2.71,1c1.43.67,2.06,1.37,2.06,2.32a2.36,2.36,0,0,1-.66,1.62c1,.1,1,.1,1.52.13a25.24,25.24,0,0,0,2.55-4.71,25.76,25.76,0,0,0,1.72-5.34C220,77.29,220,77.29,220,77.74s-.32.51-1.5.67a25.36,25.36,0,0,1-1.88,2.7c1.44.45,2,.67,3.31,1.18,2.23.89,3.06,1.68,3.06,2.89a2.75,2.75,0,0,1-1,2.17c1.53,1.05,1.94,1.33,3.5,2.54.16.16.22.26.22.35a.39.39,0,0,1-.41.32Zm6.62-15.94,2.41-2.86c1.59,1.17,2.07,1.59,3.66,2.86.22.16.32.32.32.42s-.16.25-.35.25H199.63a18.26,18.26,0,0,0-2.64.25l-.32-1.21a21.88,21.88,0,0,0,2.92.29h8.91V72.27a14.61,14.61,0,0,0-.19-2.39c4.07.35,4.61.41,5.06.64a.55.55,0,0,1,.29.38l-.16.28a1.46,1.46,0,0,1-.58.29,4.94,4.94,0,0,0-.73.32v2.83Zm.38,15.27c.82-1,.82-1,1.81-2.07a1,1,0,0,1-.32,0c-.41,0-.6-.29-1.05-1.4a10.78,10.78,0,0,0-3.47-4.87,27,27,0,0,1-5,4.71l.7.09c1.05.1,1.05.1,1.31.23a.43.43,0,0,1,.22.34c0,.26-.26.42-1.24.77v2.16Z"/><path class="cls-1" d="M251.34,76.66c4.1,1.52,4.1,1.52,4.1,1.87s-.38.45-1.24.45a.73.73,0,0,1-.22,0c-2.67,1.87-2.67,1.87-3.57,2.42h5l2.19-2.2c1.4,1,1.85,1.34,3.15,2.45.1.1.16.16.16.25s-.16.16-.35.16h-11.8V84.9h4.87c.92-1,1.21-1.24,2.1-2.13,1.33,1,1.71,1.27,2.95,2.32a.44.44,0,0,1,.2.28c0,.13-.16.19-.39.19h-9.73v3.06h7.32c1-1.05,1.33-1.34,2.32-2.32,1.43,1,1.84,1.4,3.18,2.51a.37.37,0,0,1,.19.29c0,.12-.16.19-.41.19H249.14A12.17,12.17,0,0,0,252.83,92a25.69,25.69,0,0,0,9.45,2.1v.45c-1.11.47-1.62,1.08-2.23,2.73-.19.54-.22.57-.47.57a16.9,16.9,0,0,1-3.53-1.27,17.15,17.15,0,0,1-7.32-6.77V93c0,1.52,0,2.67.09,5.53,0,.67-.41.8-2.35.8-1.05,0-1.21-.1-1.21-.64.06-1.72.16-4.8.16-5.53v-2a23.29,23.29,0,0,1-6.2,4.52A30.89,30.89,0,0,1,232.63,98l-.19-.39a30.33,30.33,0,0,0,7-4.77,25.53,25.53,0,0,0,3.34-3.59h-6.93a11.89,11.89,0,0,0-2.3.22l-.15-1.18a9.84,9.84,0,0,0,2.45.29h9.54V85.56H238.8a16.25,16.25,0,0,0-2.48.2l-.19-1.15a12.55,12.55,0,0,0,2.67.29h6.62V82h-8.5a10.66,10.66,0,0,0-2.13.19l-.19-1.14a8.87,8.87,0,0,0,2.32.29h5.41a1.66,1.66,0,0,1-.44-1,7.87,7.87,0,0,0-1.56-3.5l.25-.25H235.3a13.73,13.73,0,0,0-2.25.16l-.2-1.15a9.76,9.76,0,0,0,2.45.32h7.54V73a24.89,24.89,0,0,0-.15-3.12c3.53.25,3.78.29,4.13.41s.35.19.35.35-.26.45-1.21.7V76h2.36V72.93c0-1.2,0-1.78-.1-3,4,.26,4.45.32,4.45.76,0,.26-.25.42-1.2.71V76h1.24a30.91,30.91,0,0,0,2.54-5.79c3.37,1.24,4.36,1.69,4.36,2s-.38.42-1.27.42h-.26A28.5,28.5,0,0,1,253.91,76h3.15c1-1,1-1,2.17-2.29,1.4,1,1.81,1.37,3.18,2.54a.44.44,0,0,1,.16.26c0,.09-.16.16-.38.16Zm-15.21-6.33c3.66,1.21,4.9,2,4.9,3.3a2.42,2.42,0,0,1-2,2.26c-.54,0-.86-.38-1.05-1.27a9.81,9.81,0,0,0-2.13-4Zm4.45,6.33c3.22,1.11,4.39,1.91,4.39,3a2.1,2.1,0,0,1-1.08,1.75h5A16.25,16.25,0,0,0,251,76.66Z"/><path class="cls-1" d="M276.74,73.22a27.25,27.25,0,0,1-2.87,8.4l.26.25h2.61c.7-.79.92-1.05,1.71-1.87,1,.79,1.24,1,2.14,1.81.22.22.32.35.32.48s-.16.32-.8.7v4.55c0,4,0,4,.13,7.54a.67.67,0,0,1-.58.7A6.34,6.34,0,0,1,278,96c-.76,0-.95-.13-.95-.64V94.25h-2.58v3a.6.6,0,0,1-.48.64,9.23,9.23,0,0,1-1.88.22c-.67,0-.92-.16-.92-.6.1-4.62.16-7,.16-7.29V85.5a23.13,23.13,0,0,1-2.93,3.21l-.22-.25A38.84,38.84,0,0,0,273,73.22h-1.87a7.9,7.9,0,0,0-1.85.19l-.19-1.11a7.84,7.84,0,0,0,2,.25h5.09c.89-1.08,1.14-1.4,2.07-2.38,1.3,1.08,1.68,1.43,2.95,2.61.13.12.16.19.16.28s-.12.16-.35.16Zm-2.26,20.36h2.58v-11h-2.58Zm20.2-10.91H295c.73-1,1-1.3,1.78-2.29,1.11,1.05,1.43,1.4,2.51,2.51.13.13.16.19.16.29s-.12.16-.31.16h-4.46v3.94c0,4,0,4.36.16,11a.62.62,0,0,1-.54.73,11,11,0,0,1-2.23.2c-.83,0-1.05-.13-1.05-.67.16-6.81.16-7.29.16-11.3V83.34h-3.85c-.25,5.63-.86,8.14-2.58,10.72s-3.72,4-7.34,5.54l-.19-.32a14.6,14.6,0,0,0,6.36-11c.16-1.18.25-2.83.32-4.9h-1a10.32,10.32,0,0,0-1.69.16l-.19-1a7.65,7.65,0,0,0,2,.22h.89v-10h-.16a12.69,12.69,0,0,0-2.07.16l-.19-1.12a8.7,8.7,0,0,0,2.29.29h9.64c.76-.83,1.53-1.62,2.23-2.36,1.33,1,1.72,1.37,3,2.49.16.12.22.22.22.31s-.19.23-.41.23h-3.82Zm-7.22-10c0,5.53,0,8-.1,10h3.82v-10Z"/><path class="cls-1" d="M316.07,87.12a19.76,19.76,0,0,0,.29-3.4,15.56,15.56,0,0,0-.09-1.59c1.08.09,1.9.16,2.44.22h.13c1.91.16,2.67.38,2.67.7s-.44.57-1.46.83c-.19,1.68-.29,2.26-.44,3.18l4-.06,1.81-1.88c.64.44,1.12.76,1.44,1s.7.51,1.27.89c.32.25.44.41.44.57s-.22.41-.57.64a6,6,0,0,0-.67.41V95c0,.58.1.67.93.67a9.58,9.58,0,0,0,2.67-.22c.51-.16.92-.92,1.43-2.61.32-1.11.35-1.21,1.11-3.79l.39.07-.2,5a.29.29,0,0,1,0,.13c0,.64.06.77.51,1a1.47,1.47,0,0,1,1.11,1.49c0,1.08-.8,1.66-2.42,1.75-1.43.13-3.56.19-5.09.19a7.52,7.52,0,0,1-3.12-.41,1.92,1.92,0,0,1-.86-1.81l.1-8.75-4.42.06a12.53,12.53,0,0,1-4.36,7.7,15.94,15.94,0,0,1-5.38,2.9c-.95.28-1.43.41-3.78,1l-.13-.29c6.23-2.79,8.91-5.78,10.08-11.23l-5.69.07a14.32,14.32,0,0,0-1.81.19L308.09,87a14,14,0,0,0,2.1.19h.16ZM318.55,75a10.5,10.5,0,0,1-.76,3.34c-1.46,3.72-5.47,6.14-11.42,6.87l-.16-.35c3.56-1.24,5.41-2.45,7-4.52A8.86,8.86,0,0,0,315,75h-4.33v.53a6.59,6.59,0,0,1-.54,3,3,3,0,0,1-2.51,1.88c-.95,0-1.65-.92-1.65-2.23a1.42,1.42,0,0,1,1-1.55c1.79-.9,2.46-1.85,2.93-4.24h.35a10.78,10.78,0,0,1,.35,2h7.73V72.3a14.12,14.12,0,0,0-.13-2.07c4,.38,4.3.41,4.68.54s.48.22.48.38c0,.32-.45.58-1.34.86v2.36h7c.8-.86,1.05-1.12,1.91-2,1.5,1.15,1.94,1.53,3.41,2.77.28.29.38.38.38.54,0,.32-.38.51-1.05.51-.26,0-.67,0-1.21-.06-1.56.95-3.31,2-4.3,2.45l-.28-.16a26.45,26.45,0,0,0,1.4-3.43h-4.46v4.8c0,.51.16.6,1,.67l2.83,0c1.46,0,2-.13,2.33-.57a21,21,0,0,0,1.49-3l.32,0-.13,2.16v.22c0,.61,0,.61.86,1a1,1,0,0,1,.76,1c0,.95-.6,1.43-2.16,1.62-.45.06-3.05.16-3.95.16h-.44c-.38,0-1.43,0-3-.07-2.45,0-3.15-.51-3.15-2V75Z"/><path class="cls-1" d="M360.4,84.64A3.39,3.39,0,1,1,357,81.27,3.35,3.35,0,0,1,360.4,84.64Z"/><path class="cls-1" d="M386.31,76.08c0-3.11,0-3.11-.13-6,4,.42,4.58.54,4.58,1s-.25.48-1.27.83l0,4.16h1.91a28.84,28.84,0,0,1,2-2.35c1.27,1.08,1.66,1.43,2.9,2.61a.32.32,0,0,1,.12.22c0,.13-.12.19-.35.19h-6.55V81H392c.86-1.09,1.14-1.4,2.06-2.45,1.25,1.11,1.63,1.46,2.87,2.64a.4.4,0,0,1,.13.25c0,.13-.16.22-.35.22h-7.29l0,3.82h2.33c.73-.76.95-1,1.71-1.75,1,.73,1.34.92,2.39,1.69.28.19.41.35.41.51s-.25.51-.95,1v4.58c0,.1,0,.67,0,1.43v1.31A2.25,2.25,0,0,1,394,96.57a6.27,6.27,0,0,1-2.16.45c-.42,0-.48-.13-.57-.92-.16-1.28-.48-1.63-1.79-2,0,1.15,0,2,.07,4.39,0,.8-.42,1-2.33,1-.85,0-1.08-.13-1.08-.7v-.22c.1-3.6.13-7.7.16-12.38h-2.7V96.54c0,.45-.06.6-.32.73a4.34,4.34,0,0,1-1.78.23c-1,0-1.18-.13-1.18-.8.07-2.9.1-5.09.1-10,0-1.24,0-1.81-.13-3.09,1.59.8,2.07,1,3.63,1.91h2.38V81.68H380.9a16.42,16.42,0,0,0-1.84.19l-.23-1.11c.64.1,1.85.26,2.23.26h5.28l0-4.27h-3.69a16.32,16.32,0,0,1-3.18,3.66l-.26-.19a32.64,32.64,0,0,0,2.55-9.39c.92.29,1.65.48,2.1.61,1.94.51,2.32.67,2.32,1s-.41.51-1.3.64a17,17,0,0,1-1.78,3Zm3.21,17.66c1,0,1.79.06,2.2.06s.51-.12.51-.47V86.17h-2.74Zm11.3-12.63c0,1.62,0,1.62.06,10.21,0,.86-.38,1-2.51,1-.7,0-.89-.19-.89-.86.12-3,.16-4.07.16-6.65,0-6.71-.07-11-.13-12.31,4.17.51,4.55.57,4.55,1,0,.28-.06.32-1.21.86Zm2.61-7.6c0-1,0-1.75-.16-3.25,4.39.45,4.87.54,4.87,1s-.29.51-1.21.86V92.79l0,2.86v.25a2.42,2.42,0,0,1-1.62,2.68,9.43,9.43,0,0,1-3.15.6c-.32,0-.35-.06-.35-.6,0-1.59-.9-2.23-3.92-3v-.41c3.47.31,3.47.31,5,.38H403c.35,0,.45-.13.45-.51Z"/><path class="cls-1" d="M415.12,85.69a41.32,41.32,0,0,0,4.35-7.63c1.66-3.63,2.52-6.21,2.71-8.18,4.71,1.15,5.28,1.3,5.28,1.72s-.38.51-1.65.73a32.06,32.06,0,0,1-4.49,7.51c2.23.25,2.64.35,2.64.7s-.22.38-1,.76v9.26c0,.8,0,1,0,4.39v3.47a.66.66,0,0,1-.22.6,4.52,4.52,0,0,1-2.19.35c-1,0-1.18-.12-1.21-.67.06-2,.19-7,.19-8.14V82a30,30,0,0,1-4.11,4Zm16.16-8.91a31.05,31.05,0,0,1-7.35,8.31l-.26-.26a41.22,41.22,0,0,0,4.52-8.49A23.11,23.11,0,0,0,430,70l2.45.6c2.32.54,2.86.76,2.86,1.08s-.38.51-1.69.76c-.86,1.72-1.2,2.39-2,3.7h7c1-1.31,1.4-1.72,2.39-3,1.78,1.33,2.29,1.78,3.91,3.18a.41.41,0,0,1,.16.29c0,.06-.13.15-.29.15H435v5.51h3.69L441,79.62c1.47,1.17,1.91,1.55,3.34,2.79a.63.63,0,0,1,.22.36c0,.12-.12.19-.28.19H435V89h3.66L441,86.27c1.53,1.27,2,1.65,3.47,3,.13.12.16.19.16.28s-.13.16-.38.16H435v1c0,1.14,0,1.3.06,4.52.07,1.62.07,1.62.07,3.18a.77.77,0,0,1-.54.79,11.14,11.14,0,0,1-2.23.19c-.76,0-1-.19-1-.76v-.06c.1-2.45.19-6.78.19-7.86V76.78Z"/><path class="cls-1" d="M474.65,87.47c3.53,1.59,3.79,1.72,3.79,2s-.41.48-1.69.48a29.68,29.68,0,0,1-5,1.84A17.49,17.49,0,0,0,476.24,94a21,21,0,0,0,5.57,1v.29a4.33,4.33,0,0,0-2.61,3.27.37.37,0,0,1-.38.29,3.7,3.7,0,0,1-.92-.26,19.56,19.56,0,0,1-6.78-4.42A86.14,86.14,0,0,1,459,98.26c-.16.89-.35,1.21-.67,1.21s-.35,0-1.43-4.52c.54,0,.89,0,1.05,0a30.91,30.91,0,0,0,3.21-.22V87.47h-3.53a20.89,20.89,0,0,1-5.75,11.78l-.32-.26c2.51-5.47,3.08-9.61,3.08-22,0-3.5,0-5.09-.16-7.23,1.82.83,2.39,1.08,4.14,2h16.61c.73-.77.95-1,1.68-1.81,1.21.79,1.56,1,2.64,1.81.26.19.35.32.35.44,0,.29-.25.51-1.05,1,0,1.56,0,1.56.1,4.48,0,.61-.57.8-2.42.8-.89,0-1.05-.1-1.08-.61v-.57H458.27c-.1,6.49-.13,6.75-.48,9.55h4.58V82.35h-1.68a8.08,8.08,0,0,0-1.88.16l-.16-1a11.07,11.07,0,0,0,2,.19h1.68V80.16a18.2,18.2,0,0,0-.13-2.2c.86.1,1.53.13,2,.16,1.91.16,2.54.32,2.54.67s-.22.35-1.08.67v2.22h4V79.9a15.14,15.14,0,0,0-.13-2c1,.1,1.69.19,2.17.22,1.81.16,2.38.32,2.38.64s-.28.41-1.14.7v2.19h1.75c.82-1,1.08-1.3,1.87-2.26a38,38,0,0,1,3.34,2.49c.13.12.16.19.16.25s-.12.19-.31.19H473v4.46h2.45c.82-1,1.11-1.34,2-2.36,1.53,1,2,1.4,3.5,2.55a.69.69,0,0,1,.16.28c0,.1-.13.19-.32.19Zm.83-15H458.33c0,1.18,0,1.18-.06,4.17h17.21Zm-11,15v7.07c2.2-.19,3.79-.39,6.33-.8a13.76,13.76,0,0,1-3.34-6.27Zm1.21-.66h4V82.35h-4Zm2.45.66a9.18,9.18,0,0,0,3,3.85,13.28,13.28,0,0,0,3.4-3.85Z"/></g></g></svg>