<svg xmlns="http://www.w3.org/2000/svg" viewBox="0 0 435.99 82.67"><defs><style>.cls-1{fill:#fff;}.cls-2{fill:none;stroke:#fff;stroke-linecap:round;stroke-miterlimit:10;stroke-width:0.47px;}</style></defs><g id="レイヤー_2" data-name="レイヤー 2"><g id="レイヤー_1-2" data-name="レイヤー 1"><path class="cls-1" d="M8.05,6.3h2.87c.52-.56.67-.74,1.17-1.3.74.56,1,.76,1.75,1.4a.21.21,0,0,1,.08.11s-.06.09-.11.09H8.05V8.31c0,2.7,0,4.26.07,4.63V13c0,.28-.34.39-1.22.39-.43,0-.57-.08-.57-.32V13c.08-1.88.11-3.18.11-4.68V6.6h-4c-.4,0-.88,0-1.3.07L1,6.18a10.14,10.14,0,0,0,1.4.12h4V3a37.07,37.07,0,0,1-4.66.39l0-.15A40.39,40.39,0,0,0,7.42,1.75,9.86,9.86,0,0,0,10.17.46C11.83,1.5,12,1.65,12,1.82s-.11.16-.29.16a4.37,4.37,0,0,1-.51-.07,23,23,0,0,1-3.19.82Z"/><path class="cls-1" d="M22.69,9a8.08,8.08,0,0,0-.05-.87l.89.07c.93.06,1.13.11,1.13.27s-.13.2-.51.32v.52h3.12c.45-.46.59-.6,1.06-1,.64.49.85.65,1.48,1.15.06.06.07.09.07.11s-.06.07-.14.07H24.33a4.08,4.08,0,0,0,1.57,1,13.3,13.3,0,0,0,4.41.77v.15a1.79,1.79,0,0,0-1,1.18c-.11.35-.12.38-.25.38a8,8,0,0,1-2.23-.81,8.56,8.56,0,0,1-2.13-1.67,4.52,4.52,0,0,1-.57-.83v1.12c0,.72,0,1.24.06,2.27,0,.31-.19.38-1,.38-.53,0-.6,0-.6-.34,0-.86.05-1.33.05-2v-.75a9.83,9.83,0,0,1-2.9,1.92,15.45,15.45,0,0,1-2.9.94l0-.16A14.82,14.82,0,0,0,20,11.11a10.17,10.17,0,0,0,1.58-1.56H18.45a5,5,0,0,0-1.11.1l-.07-.5a5,5,0,0,0,1.19.11h4.23ZM19.28,4.48a10.72,10.72,0,0,0-.07-1.4c2,.17,2,.18,2,.35s-.12.2-.5.31v.74h1.83c0-.92,0-.92,0-1.36l1,.1c.78.06,1,.13,1,.28s-.09.17-.47.27v.71h1.93V4.37c0-.52,0-.74,0-1.25,1.69.16,2,.21,2,.4s-.11.15-.49.26v.7h.52c.37-.45.49-.57.87-1,.59.47.77.62,1.32,1.12.05.06.07.09.07.12s-.06.07-.14.07H27.36c0,.78,0,1.37,0,1.78a.3.3,0,0,1-.05.21,1.7,1.7,0,0,1-.89.14c-.43,0-.5,0-.5-.21V6.4H24v.24c0,.24-.17.29-.91.29-.49,0-.54,0-.55-.26,0-.59,0-.83,0-1.22V4.78H20.72V7.54H27.2l1-1a15.34,15.34,0,0,1,1.38,1.06c.06.06.07.09.07.12s-.05.08-.15.08H20.72v.24c0,.26-.16.32-1,.32-.42,0-.5,0-.5-.28,0-1.25,0-1.25.07-3.33h-1.1a5.16,5.16,0,0,0-1,.08l-.07-.5a5.18,5.18,0,0,0,1.08.12Zm1.4-2.73V1.34a8.83,8.83,0,0,0,0-.93l1,.08c.84.07,1.06.13,1.06.28s-.11.18-.53.31c0,.34,0,.35,0,.67h2.52V1.33a6.9,6.9,0,0,0-.05-.92l1,.08c.87.08,1.08.14,1.08.29s-.16.22-.54.31v.66H27.5c.43-.49.57-.63,1-1.08.66.49.87.65,1.5,1.16a.18.18,0,0,1,.07.13c0,.06,0,.08-.17.08H26.15c0,.22,0,.36,0,.69s-.11.3-1,.3c-.45,0-.51,0-.51-.23v0c0-.37,0-.43,0-.73H22.15c0,.15,0,.38,0,.72S22,3,21.2,3c-.48,0-.55,0-.55-.26s0-.44,0-.73H18.34a4.68,4.68,0,0,0-1.07.1l-.08-.5a5.67,5.67,0,0,0,1.15.11Zm3.32,3V6.11h1.93V4.78Z"/><path class="cls-1" d="M40,4.71a8.59,8.59,0,0,0,2.12,4.13,8.73,8.73,0,0,0,2.55,1.81,8.75,8.75,0,0,0,1.62.54v.18A2.36,2.36,0,0,0,45,12.8c-.07.2-.13.26-.21.26a2.4,2.4,0,0,1-.89-.49,9.48,9.48,0,0,1-3.18-4.32,15.47,15.47,0,0,1-.78-3.08,8.41,8.41,0,0,1-2.34,5.39,10.18,10.18,0,0,1-3,2.07,17.76,17.76,0,0,1-1.68.68l-.08-.19a11.23,11.23,0,0,0,4-3.71,10.67,10.67,0,0,0,1.44-4.7H34.55a7.81,7.81,0,0,0-1.3.09l-.07-.51a7.7,7.7,0,0,0,1.38.12h3.73c.06-.68.07-1.33.07-2.25A11.64,11.64,0,0,0,38.29.67l1.14.1c1,.07,1.27.15,1.27.34s-.15.23-.6.39C40.05,3,40,3.54,40,4.41h3.14l1.06-1.36c.79.59,1,.77,1.75,1.39.07.08.1.13.1.17s-.07.1-.17.1Z"/><path class="cls-1" d="M59.33,8.47l1.11-1.24c.72.54.93.71,1.6,1.27a.38.38,0,0,1,.08.16c0,.07-.07.11-.19.11H56.41v3.36a1,1,0,0,1-.53,1,3.69,3.69,0,0,1-1.51.35c-.19,0-.23,0-.26-.26a1,1,0,0,0-.39-.73c-.26-.23-.47-.3-1.92-.63v-.19c1.95.13,1.95.13,2.76.16h0c.14,0,.2-.06.2-.21V8.77H50.38a7.48,7.48,0,0,0-1.1.08l-.09-.49a5.17,5.17,0,0,0,1.19.11h4.43V8.25a9.05,9.05,0,0,0-.07-1.4c.71.08.71.08,1.48.21a9,9,0,0,0,1.29-1.53H52.78a5.42,5.42,0,0,0-1,.09l-.08-.48a5.92,5.92,0,0,0,1.07.1h4.79l.75-.76c.56.38.74.51,1.06.76a8.18,8.18,0,0,0,.41-1.4H51.11V4A5.71,5.71,0,0,1,50.9,5.5a1.13,1.13,0,0,1-1,.83c-.41,0-.74-.49-.74-1.06a.51.51,0,0,1,.2-.48s0,0,.36-.22a2.18,2.18,0,0,0,1.06-2H51c.07.48.09.65.11,1h6A11.51,11.51,0,0,0,58.41.62c1,.3,1.79.57,2,.68s.18.13.18.2-.2.22-.58.22h-.12a18.31,18.31,0,0,1-2.23,1.82h2c.38-.37.49-.49.88-.84l1.43,1.08c.15.13.21.21.21.3s-.24.25-.87.25a14.29,14.29,0,0,1-1.41.92l-.27.17.18.14c.14.13.21.21.21.28s-.17.21-.53.21h-.21a17.4,17.4,0,0,1-2.49,1.11c.12,0,.17.1.17.17s-.13.21-.52.33v.81Zm-8-7.7c1.67.63,2.31,1.08,2.31,1.65s-.46,1.11-.9,1.11c-.22,0-.35-.14-.47-.56a4.9,4.9,0,0,0-1-2.07Zm2.9-.22c1.53.51,2.31,1.07,2.31,1.64a1.23,1.23,0,0,1-1,1.19c-.24,0-.32-.12-.47-.72a4.55,4.55,0,0,0-.94-2Z"/><path class="cls-1" d="M72.48,11.79h2.9l1.17-1.38c.76.6,1,.8,1.74,1.43,0,.05.1.12.1.15s-.07.1-.18.1H66.71a10.84,10.84,0,0,0-1.31.08l-.08-.52a6.75,6.75,0,0,0,1.39.14h4.1V2.47H67.37a6.41,6.41,0,0,0-1.11.07L66.18,2a5.29,5.29,0,0,0,1.19.13h7.29c.49-.56.65-.73,1.14-1.27.74.57,1,.75,1.69,1.38a.19.19,0,0,1,.07.12s0,.07-.14.07H72.48Z"/><path class="cls-1" d="M91.53,8.47l1.11-1.24c.72.54.93.71,1.6,1.27a.38.38,0,0,1,.08.16c0,.07-.07.11-.19.11H88.61v3.36a1,1,0,0,1-.53,1,3.69,3.69,0,0,1-1.51.35c-.19,0-.23,0-.26-.26a1,1,0,0,0-.39-.73c-.26-.23-.47-.3-1.92-.63v-.19c1.95.13,1.95.13,2.76.16h0c.14,0,.2-.06.2-.21V8.77H82.58a7.48,7.48,0,0,0-1.1.08l-.09-.49a5.17,5.17,0,0,0,1.19.11H87V8.25a9.05,9.05,0,0,0-.07-1.4c.71.08.71.08,1.49.21a9.46,9.46,0,0,0,1.28-1.53H85a5.42,5.42,0,0,0-1,.09l-.08-.48a6,6,0,0,0,1.08.1h4.79c.32-.34.42-.44.74-.76.56.38.74.51,1.06.76A8.18,8.18,0,0,0,92,3.84H83.31V4A5.71,5.71,0,0,1,83.1,5.5a1.13,1.13,0,0,1-1,.83c-.4,0-.74-.49-.74-1.06a.51.51,0,0,1,.2-.48s0,0,.36-.22a2.18,2.18,0,0,0,1.06-2h.19c.07.48.09.65.11,1h6A11.82,11.82,0,0,0,90.61.62c1,.3,1.79.57,2,.68s.18.13.18.2-.2.22-.58.22h-.12a18.31,18.31,0,0,1-2.23,1.82h2c.38-.37.49-.49.88-.84l1.43,1.08c.15.13.21.21.21.3s-.24.25-.87.25a14.29,14.29,0,0,1-1.41.92l-.27.17.18.14c.14.13.21.21.21.28s-.17.21-.53.21h-.21A17.4,17.4,0,0,1,89,7.16c.12,0,.17.1.17.17s-.13.21-.52.33v.81Zm-8-7.7c1.67.63,2.31,1.08,2.31,1.65S85.4,3.53,85,3.53c-.23,0-.36-.14-.48-.56a4.9,4.9,0,0,0-1-2.07Zm2.9-.22c1.53.51,2.31,1.07,2.31,1.64a1.23,1.23,0,0,1-1,1.19c-.24,0-.32-.12-.47-.72a4.55,4.55,0,0,0-.94-2Z"/><path class="cls-1" d="M103,6.33c.44-.47.44-.47.88-1,.54.43.69.56,1.17,1a.28.28,0,0,1,.1.17s-.06.1-.15.1H98.56a6.17,6.17,0,0,0-1.11.08l-.1-.49a5.93,5.93,0,0,0,1.17.11h2.87A16.6,16.6,0,0,0,102.3,3c1.64.47,2,.6,2,.77s-.15.19-.59.25a15,15,0,0,1-1.83,2.31Zm-.14-3.88c.38-.41.51-.53.87-.94.53.42.7.56,1.22,1a.32.32,0,0,1,.08.13c0,.07-.07.1-.19.1h-6a6.14,6.14,0,0,0-1.12.07l-.09-.48a6.26,6.26,0,0,0,1.21.11h1.57V1.64c0-.28,0-.52-.07-1.12,1.85.15,2,.18,2,.39s-.14.22-.49.32V2.45Zm-3,10.33a.35.35,0,0,1-.08.28,1.94,1.94,0,0,1-.92.15c-.47,0-.55-.06-.55-.32,0-1.4.06-2.2.06-3.42,0-.8,0-1.14-.06-2.13a18.13,18.13,0,0,1,1.71.85h2.38c.34-.36.43-.47.76-.79.47.32.61.43,1,.77.11.09.16.16.16.23s-.11.23-.43.38v2.15c0,.07,0,.07,0,.67s0,.56,0,1.06c0,.17,0,.24-.17.3a2.77,2.77,0,0,1-.88.12c-.38,0-.46,0-.46-.26v-.69h-2.6ZM98.63,3c1.4.76,2,1.36,2,1.92a1.24,1.24,0,0,1-1,1.14c-.24,0-.33-.13-.35-.52a5.07,5.07,0,0,0-.79-2.44Zm1.24,8.83h2.6V8.49h-2.6Zm6.78-1.17c0,.37,0,.41,0,2.34,0,.17,0,.26-.12.31a2.92,2.92,0,0,1-1,.13c-.36,0-.45-.07-.45-.35.06-3.07.09-5.3.09-8,0-2.19,0-3.22-.1-4.4a13,13,0,0,1,1.68.81h1.56c.29-.38.37-.49.67-.85.63.45.81.59,1.38,1,.13.1.17.17.17.25s-.15.23-.57.3a27.72,27.72,0,0,1-2.43,3.45,6.59,6.59,0,0,1,2.15,2.19,3.71,3.71,0,0,1,.43,1.77,2.1,2.1,0,0,1-.89,1.87,2.39,2.39,0,0,1-1.08.31c-.2,0-.23,0-.26-.29a1.48,1.48,0,0,0-.32-.73,1.87,1.87,0,0,0-.94-.41Zm0-.47c.82.08,1.17.11,1.38.11.46,0,.57-.22.57-1.19a4.39,4.39,0,0,0-1.37-3.35,28.26,28.26,0,0,0,1.13-4h-1.71Z"/><path class="cls-1" d="M115.26,7.35l-1,.27c0,.31-.13.46-.24.46s-.21-.29-.47-1.76l.59,0a2,2,0,0,0,.31,0h.46A16.8,16.8,0,0,0,116,4.62a16.29,16.29,0,0,0,1.27-2.49c1.64.71,1.73.76,1.73.88s-.17.2-.59.2a21.69,21.69,0,0,1-3,3.09,19.89,19.89,0,0,0,2-.12A4.41,4.41,0,0,0,117,5l.1-.06c1.24.84,1.67,1.32,1.67,1.84s-.41,1-.77,1c-.15,0-.21-.1-.25-.38s-.09-.54-.14-.79l-.3.08-.37.13V9.92c0,2.24,0,2.24,0,3.14v0c0,.26-.19.32-1,.32-.33,0-.4,0-.4-.31.05-1.88.05-1.93.05-3V9l-.25,0a9.92,9.92,0,0,1-1.77,3.79l-.15-.08a18.26,18.26,0,0,0,.73-4.55c.85.22,1.11.29,1.44.4V7.23Zm-1.51-5c.59.27.78.37,1,.51a9.56,9.56,0,0,0,.87-2.44c1.95.59,2,.61,2,.77s-.2.22-.61.22a12.59,12.59,0,0,1-1.86,1.68c.56.38.71.59.71.94,0,.56-.4,1.1-.81,1.1-.15,0-.24-.09-.31-.31a6.24,6.24,0,0,0-1.1-2.36Zm3.4,5.41c.95.67,1.42,1.25,1.42,1.78s-.38,1.08-.75,1.08c-.18,0-.25-.16-.26-.55a5.07,5.07,0,0,0-.48-2.23Zm2.2,1.29a5.14,5.14,0,0,1,.18,1.36c0,1.14-.57,2.11-1.23,2.11-.36,0-.62-.39-.62-1a.6.6,0,0,1,.26-.55l.36-.25c.52-.32.74-.78.87-1.74Zm-1.23-3.81a12.39,12.39,0,0,0,2-4.57l.93.32c.71.24,1,.35,1,.48s-.16.2-.56.24a11,11,0,0,1-3.2,3.67Zm5-.79c2,1,2.45,1.49,2.45,2.16s-.42,1.18-.84,1.18c-.18,0-.27-.1-.34-.34A7.72,7.72,0,0,0,124,6.4a42.58,42.58,0,0,1-4.16,1c-.12.36-.21.48-.32.48s-.15,0-.56-1.82a10.2,10.2,0,0,0,1.08.07h.27a14.19,14.19,0,0,0,1.09-3.38c1.86.45,1.93.48,1.93.64s-.17.21-.6.24a12.44,12.44,0,0,1-1.83,2.47c.51,0,2.19-.07,2.91-.13a8.87,8.87,0,0,0-.86-1.4Zm-3,5.31c0-.45,0-.73-.07-1.33l.94.13c.75.08,1,.14,1,.28s-.15.22-.5.29v2.35c0,.17,0,.23,0,.26s.1.05,1,.05c.68,0,.75,0,.91-.22a9.94,9.94,0,0,0,.74-1.79h.15l0,1.4v.1c0,.21,0,.25.21.33s.44.3.44.56a.72.72,0,0,1-.61.72,9.7,9.7,0,0,1-2.21.13,3.91,3.91,0,0,1-1.6-.14c-.26-.13-.36-.34-.38-.8,0-.91,0-.91,0-1.46Zm1-2.28C123,8,123.5,8.36,123.5,9s-.38,1-.73,1c-.14,0-.24-.09-.35-.35A5.27,5.27,0,0,0,121,7.63ZM123.26.56a.52.52,0,0,0,0,.17,2.84,2.84,0,0,0,1,1.58,5.28,5.28,0,0,0,2.6,1.3v.17a1.19,1.19,0,0,0-.57.6A3.47,3.47,0,0,0,126,5c0,.13-.06.18-.13.18s-.49-.25-1-.7A8,8,0,0,1,123,1.29a1.53,1.53,0,0,0-.29-.58Zm1.16,8.27c1.56.91,2.24,1.61,2.24,2.28s-.49,1.34-.92,1.34a.26.26,0,0,1-.25-.15c0-.07-.06-.1-.1-.44a7.48,7.48,0,0,0-1.09-2.92Z"/><path class="cls-1" d="M129.48,7.19a16.8,16.8,0,0,0,3.57-3.52,10.85,10.85,0,0,0,1.8-3.18c2.32.49,2.41.52,2.41.7s-.2.23-.63.28A7.51,7.51,0,0,0,139.48,4,11.2,11.2,0,0,0,143,5.17v.18c-.59.2-.91.58-1.24,1.53a.16.16,0,0,1-.16.14,4.37,4.37,0,0,1-1.15-.6,10.32,10.32,0,0,1-4-4.77,12.35,12.35,0,0,1-3.29,3.67,13.46,13.46,0,0,1-3.57,2Zm3.86,5.71a.34.34,0,0,1-.23.38,4.2,4.2,0,0,1-.92.1c-.4,0-.52-.09-.52-.34v-.1c0-1,.07-2.13.07-3.4s0-1.82-.06-2.42a16.59,16.59,0,0,1,1.85.89h5l.84-.92c.55.38.71.5,1.23.91.13.11.18.18.18.24s-.11.21-.51.39c0,1.82,0,2.46.07,4.21v.09a.27.27,0,0,1-.2.29,4.14,4.14,0,0,1-1,.13c-.35,0-.46-.08-.46-.31v-.59h-5.36Zm-.43-7.27a5.43,5.43,0,0,0,.94.11h2.71l1-1.12c.69.51.89.66,1.54,1.19.06.07.09.1.09.14S139.09,6,139,6h-5.16a3.27,3.27,0,0,0-.78.08Zm.43,6.53h5.36V8.31h-5.36Z"/><path class="cls-1" d="M153,11.79h2.9q.59-.7,1.17-1.38c.76.6,1,.8,1.74,1.43,0,.05.1.12.1.15s-.07.1-.18.1h-11.5a10.84,10.84,0,0,0-1.31.08l-.08-.52a6.75,6.75,0,0,0,1.39.14h4.1V2.47h-3.44a6.41,6.41,0,0,0-1.11.07l-.08-.5a5.29,5.29,0,0,0,1.19.13h7.29c.49-.56.65-.73,1.14-1.27.74.57,1,.75,1.69,1.38a.19.19,0,0,1,.07.12s-.05.07-.14.07H153Z"/><path class="cls-1" d="M172,8.47l1.11-1.24c.72.54.93.71,1.6,1.27a.38.38,0,0,1,.08.16c0,.07-.07.11-.19.11h-5.52v3.36a1,1,0,0,1-.53,1,3.69,3.69,0,0,1-1.51.35c-.19,0-.23,0-.26-.26a1,1,0,0,0-.39-.73c-.26-.23-.47-.3-1.92-.63v-.19c2,.13,2,.13,2.76.16h0c.14,0,.2-.06.2-.21V8.77h-4.43a7.48,7.48,0,0,0-1.1.08l-.09-.49a5.17,5.17,0,0,0,1.19.11h4.43V8.25a9.05,9.05,0,0,0-.07-1.4c.71.08.71.08,1.49.21a9.46,9.46,0,0,0,1.28-1.53h-4.73a5.42,5.42,0,0,0-1,.09l-.08-.48a6,6,0,0,0,1.08.1h4.79c.32-.34.42-.44.74-.76.56.38.74.51,1.06.76a8.18,8.18,0,0,0,.41-1.4h-8.66V4a5.71,5.71,0,0,1-.21,1.54,1.13,1.13,0,0,1-1,.83c-.4,0-.74-.49-.74-1.06a.51.51,0,0,1,.2-.48s0,0,.36-.22a2.18,2.18,0,0,0,1.06-2h.19c.07.48.09.65.11,1h6A11.82,11.82,0,0,0,171.11.62c1,.3,1.79.57,2,.68s.18.13.18.2-.2.22-.58.22h-.12a18.31,18.31,0,0,1-2.23,1.82h2c.38-.37.49-.49.88-.84l1.43,1.08c.15.13.21.21.21.3s-.24.25-.87.25a14.29,14.29,0,0,1-1.41.92l-.27.17.18.14c.14.13.21.21.21.28s-.17.21-.53.21H172a17.4,17.4,0,0,1-2.49,1.11c.12,0,.17.1.17.17s-.13.21-.52.33v.81Zm-8-7.7c1.67.63,2.31,1.08,2.31,1.65s-.46,1.11-.89,1.11c-.23,0-.36-.14-.48-.56A4.9,4.9,0,0,0,164,.9ZM167,.55c1.53.51,2.31,1.07,2.31,1.64a1.23,1.23,0,0,1-1,1.19c-.24,0-.32-.12-.47-.72a4.55,4.55,0,0,0-.94-2Z"/><path class="cls-1" d="M181.77,4.58h.33c.35-.42.46-.55.81-1,.52.43.67.57,1.13,1,.06.07.09.09.09.14s-.09.1-.18.1h-2.18v.93c1.36.56,2,1.11,2,1.68s-.44,1.15-.84,1.15c-.21,0-.31-.12-.38-.54a3.58,3.58,0,0,0-.79-2V9.44c0,.51,0,1.7,0,3.56,0,.35-.18.42-1.08.42-.41,0-.49,0-.49-.28,0-1.54.1-3.25.13-4.12l0-1.48A8.93,8.93,0,0,1,178,10.37l-.1-.09a17.07,17.07,0,0,0,2.22-5.4H179a4,4,0,0,0-.82.08l-.08-.49a3.82,3.82,0,0,0,.9.11h1.28V2.49a16.41,16.41,0,0,1-2,.19l0-.14a14.28,14.28,0,0,0,2.55-1.11,6.69,6.69,0,0,0,1.42-.95c.59.42.59.42,1.41,1,.12.11.18.19.18.26s-.09.14-.18.14a1.86,1.86,0,0,1-.58-.1c-.66.21-.89.28-1.32.39Zm7.53,4c.3-.56.4-.72.71-1.26.55.4.72.52,1.23.94a.28.28,0,0,1,.1.14s-.05.07-.12.09l-2.09.42c0,1.54,0,1.54.05,4.1a.13.13,0,0,0,0,.06c0,.3-.25.39-1.11.39-.47,0-.56-.06-.56-.32,0-2,.06-2.75.06-3.91l-4,.8a2.76,2.76,0,0,0-.71.25l-.21-.49h.14a6.29,6.29,0,0,0,.82-.08l4-.79V5.73c0-3.42,0-4.15-.07-5l.94.1c1,.08,1.23.12,1.23.29s-.15.23-.58.35l0,7.13Zm-5.65-3.16c2,.46,2.79.94,2.79,1.67s-.38,1.16-.77,1.16c-.18,0-.29-.13-.51-.56A5.64,5.64,0,0,0,183.6,5.5Zm.55-3.5c1.89.52,2.65,1,2.65,1.66s-.42,1.19-.83,1.19c-.18,0-.27-.09-.46-.54A7.42,7.42,0,0,0,184.14,2Z"/><path class="cls-1" d="M197.2,13.25a10.38,10.38,0,0,0,2.1-3.35,10,10,0,0,0,.72-3,.76.76,0,0,0-.23-.66,11.46,11.46,0,0,0-2.92.84,1.21,1.21,0,0,1-.61.18c-.35,0-.77-.3-1.23-.92a1.42,1.42,0,0,1-.39-.88,1,1,0,0,1,.05-.28A1.58,1.58,0,0,0,196,6a17.42,17.42,0,0,0,2.65-.34c1.26-.19,1.87-.28,4.26-.55a3.36,3.36,0,0,0,1.21-.29.9.9,0,0,1,.41-.11,2.2,2.2,0,0,1,.9.29c.53.27.79.56.79.84s-.22.48-.58.48a1.08,1.08,0,0,1-.25,0A16.69,16.69,0,0,0,202.79,6a17.62,17.62,0,0,0-2,.11c.8.46,1,.63,1,1a8.69,8.69,0,0,1-1.23,3.18,8.58,8.58,0,0,1-3.17,3ZM197,1.86a2.2,2.2,0,0,0,1.71.77,7.17,7.17,0,0,0,1.94-.32,4,4,0,0,0,1.23-.53.87.87,0,0,1,.45-.13,1.37,1.37,0,0,1,.75.3c.35.22.51.45.51.68s-.19.41-.81.55a19.42,19.42,0,0,1-3.47.42A2.58,2.58,0,0,1,196.88,2ZM203.74,1c1.43.5,2.33,1.29,2.33,2,0,.35-.18.57-.45.57s-.27,0-.62-.7a6.25,6.25,0,0,0-1.4-1.66Zm1.45-1a5.09,5.09,0,0,1,1.61.7,1.35,1.35,0,0,1,.74,1.11c0,.32-.17.54-.42.54s-.25-.07-.46-.4a6.13,6.13,0,0,0-1.6-1.74Z"/><path class="cls-1" d="M214.14,13.2a6.51,6.51,0,0,0,2.66-3,11.4,11.4,0,0,0,.73-4.57A16.79,16.79,0,0,0,214.7,6v.75c0,.45,0,1.6,0,2v.1c0,.7-.18,1-.57,1-.24,0-.48-.18-.72-.52a1.75,1.75,0,0,1-.31-.83,1.15,1.15,0,0,1,.1-.39,5.16,5.16,0,0,0,.24-1.86,5.13,5.13,0,0,0-1.48.53,1.41,1.41,0,0,1-.56.17c-.35,0-.89-.46-1.26-1.11a1.65,1.65,0,0,1-.26-.73s0-.1,0-.17a1.61,1.61,0,0,0,1.36.72,13.92,13.92,0,0,0,2.16-.31c0-2.1-.17-2.48-1.15-2.94a.73.73,0,0,1,.46-.14,3.75,3.75,0,0,1,1.71.6c.36.24.49.42.49.66a1,1,0,0,1-.1.43,5.15,5.15,0,0,0-.17,1.21c.65-.1,1.59-.23,2.83-.36,0-.21,0-.58,0-1.11,0-1-.07-1.42-.28-1.67a1.71,1.71,0,0,0-1-.55,1,1,0,0,1,.68-.19,4.13,4.13,0,0,1,1.76.42c.42.2.6.41.6.69a.7.7,0,0,1-.08.33,4.55,4.55,0,0,0-.31,1.91,3.83,3.83,0,0,0,1.56-.31.71.71,0,0,1,.38-.1,2,2,0,0,1,1,.37c.36.22.51.43.51.65a.4.4,0,0,1-.44.42h-.23a23.22,23.22,0,0,0-2.34-.1h-.45c-.07,3-.3,4.12-1.09,5.24a6.87,6.87,0,0,1-3.53,2.45ZM219.66.71A3.92,3.92,0,0,1,221,1.5a1.72,1.72,0,0,1,.63,1.22c0,.35-.17.57-.43.57s-.3-.12-.44-.52A5.55,5.55,0,0,0,219.47.88ZM221.15,0a4,4,0,0,1,1.3.69,1.57,1.57,0,0,1,.7,1.2c0,.34-.15.55-.41.55s-.26-.08-.44-.48A5.06,5.06,0,0,0,221,.22Z"/><path class="cls-1" d="M225.93,9.32a26.34,26.34,0,0,0,5.22-4.16c1.5-1.52,2.36-2.64,2.36-3.1,0-.29-.33-.66-.84-.93a1.65,1.65,0,0,1,.44,0,2.82,2.82,0,0,1,1.42.47c.64.38,1,.8,1,1.13s-.07.33-.56.68l-.91.86c-1,.91-1,.91-2,1.76a3.4,3.4,0,0,1,1,.83c.13.19.14.33.16,1.37,0,.65,0,.83.1,3.49,0,.19,0,.39,0,.53,0,.58-.18.86-.58.86a1.76,1.76,0,0,1-1.28-1.45,1.22,1.22,0,0,1,.08-.45,16.29,16.29,0,0,0,.31-3.61c0-.71,0-.91-.24-1.18a22.54,22.54,0,0,1-3,2A16.26,16.26,0,0,1,226,9.47Z"/><path class="cls-1" d="M242.86,2.62a7.77,7.77,0,0,1,3.06.91,1.3,1.3,0,0,1,.69,1.2c0,.66-.32,1.17-.76,1.17-.23,0-.37-.11-.58-.48a6.69,6.69,0,0,0-2.48-2.65Zm10.64.81a15.06,15.06,0,0,1-3.15,4.34,22.35,22.35,0,0,1-4.06,3.2,3.19,3.19,0,0,0-.76.61.76.76,0,0,1-.59.35c-.36,0-.88-.39-1.37-1a2.63,2.63,0,0,1-.67-1.55A1,1,0,0,1,243,9c.38.64.84,1,1.22,1a12.35,12.35,0,0,0,4.09-2.16,27.82,27.82,0,0,0,5.05-4.51Z"/><path class="cls-1" d="M259.6,3.74a1.44,1.44,0,0,0,.9.24c.63,0,2.9-.24,4.35-.46a2.47,2.47,0,0,0,.9-.31.61.61,0,0,1,.34-.1,2.65,2.65,0,0,1,1.29.81c.36.35.5.56.5.79s0,.22-.23.42a2.06,2.06,0,0,0-.35.89c-.12.52-.15.62-.53,2.2-.1.42-.17.73-.22,1,.52.36.78.71.78,1s-.15.39-.45.39a5.37,5.37,0,0,1-.65-.07,10.46,10.46,0,0,0-1.19,0,12.1,12.1,0,0,0-4.6.8,1.57,1.57,0,0,1-.34.07c-.63,0-1.61-1.22-1.61-2a1.81,1.81,0,0,1,.05-.32A1.74,1.74,0,0,0,260,10c.16,0,.48,0,.74-.06l1.75-.21,2.68-.27a43.61,43.61,0,0,0,.57-4.83c0-.2-.08-.25-.3-.25a18.44,18.44,0,0,0-2.58.32,15.77,15.77,0,0,0-1.92.52,1.13,1.13,0,0,1-.53.15c-.35,0-.79-.33-1.15-.91a1.88,1.88,0,0,1-.39-1.05A.74.74,0,0,1,259,3,2.41,2.41,0,0,0,259.6,3.74Z"/><path class="cls-1" d="M274,6.05a2.1,2.1,0,0,0,1.4.3c.56,0,3.13,0,5.55-.1.24,0,1.15,0,1.57,0,1.4,0,1.83.06,2.06.26a.54.54,0,0,1,.17.42c0,.35-.31.57-.91.65-.79.1-2,.14-6.25.17-.65,0-.72,0-1.74.06a1.78,1.78,0,0,0-.62.12,1.19,1.19,0,0,1-.47.12c-.34,0-.72-.31-1-.87a3.1,3.1,0,0,1-.49-1.46.53.53,0,0,1,.17-.46A2.13,2.13,0,0,0,274,6.05Z"/><path class="cls-1" d="M288.44,12.2a19,19,0,0,0,4.16-3.57,22.17,22.17,0,0,0,3.47-5.27,14.5,14.5,0,0,0-3.75,1.1,1.08,1.08,0,0,1-.53.16c-.32,0-.65-.25-1-.78a2.33,2.33,0,0,1-.46-1.21.61.61,0,0,1,.09-.35,1.56,1.56,0,0,0,1.48,1,24.22,24.22,0,0,0,3-.45,2.9,2.9,0,0,0,1.35-.45.62.62,0,0,1,.38-.13,2.16,2.16,0,0,1,1,.63c.31.3.45.51.45.7a.38.38,0,0,1-.22.35,2.85,2.85,0,0,0-.81,1,25.14,25.14,0,0,1-1.77,2.48A12.64,12.64,0,0,1,299,9.48a1.83,1.83,0,0,1,.59,1.4c0,.72-.32,1.25-.76,1.25-.24,0-.41-.17-.57-.56a10,10,0,0,0-3.14-3.85,15.09,15.09,0,0,1-3.35,3.07,12.63,12.63,0,0,1-3.21,1.56Z"/><path class="cls-1" d="M317.32,9.58v.48c0,1.17,0,1.79.05,3.06a.28.28,0,0,1-.16.3,3.41,3.41,0,0,1-1,.1c-.49,0-.56,0-.58-.32,0-1,.06-1.36.06-2.32,0-.6,0-.6,0-1.3h-4.34a5.82,5.82,0,0,0-1,.1l-.11-.51a5.59,5.59,0,0,0,1.09.12h4.38a8.33,8.33,0,0,0-.07-1.4.4.4,0,0,1-.23.09.37.37,0,0,1-.31-.19c-.09-.11-.09-.11-.31-.83A3.67,3.67,0,0,0,314,5.63a8.12,8.12,0,0,1-3.22,3.25l-.12-.08a13.06,13.06,0,0,0,2-3.49,9,9,0,0,0,.56-2.1c2.13.53,2.23.56,2.23.74a.19.19,0,0,1-.07.13,2.94,2.94,0,0,1-.59.15,9.4,9.4,0,0,1-.63,1.18,8,8,0,0,1,1.19.46c.63.29.91.6.91,1a1,1,0,0,1-.3.72l.68,0a11.78,11.78,0,0,0,1.12-2.07,11.88,11.88,0,0,0,.75-2.35c2.25.5,2.25.5,2.25.7s-.15.22-.66.29a12.6,12.6,0,0,1-.83,1.19,15.47,15.47,0,0,1,1.46.52c1,.39,1.34.74,1.34,1.27a1.22,1.22,0,0,1-.43,1c.67.46.85.58,1.54,1.12.07.07.1.11.1.15s-.09.14-.19.14Zm2.92-7L321.3,1.3c.7.52.91.7,1.61,1.26.1.07.14.14.14.19s-.07.11-.15.11H311.75a8.08,8.08,0,0,0-1.16.11l-.14-.53a9.51,9.51,0,0,0,1.29.12h3.92v-1a6.61,6.61,0,0,0-.09-1,8.12,8.12,0,0,1,2.23.28.23.23,0,0,1,.13.16l-.07.13a1,1,0,0,1-.26.13,2.41,2.41,0,0,0-.32.14V2.56Zm.17,6.73c.36-.42.36-.42.8-.91h-.15c-.18,0-.26-.13-.46-.62a4.82,4.82,0,0,0-1.52-2.14,11.42,11.42,0,0,1-2.19,2.07l.31,0c.46,0,.46,0,.57.09a.19.19,0,0,1,.1.16c0,.11-.11.18-.55.33v1Z"/><path class="cls-1" d="M334.52,3.46c1.81.67,1.81.67,1.81.83s-.17.19-.55.19h-.1c-1.18.82-1.18.82-1.57,1.06h2.19l1-1a14.73,14.73,0,0,1,1.39,1.08s.07.06.07.11-.07.07-.15.07h-5.2V7.09h2.14l.93-.94c.59.43.75.56,1.3,1a.17.17,0,0,1,.08.13s-.07.08-.16.08h-4.29V8.73h3.22c.45-.47.59-.59,1-1,.63.47.82.62,1.4,1.11.06,0,.09.08.09.13S339,9,338.92,9h-5.37a5.17,5.17,0,0,0,1.63,1.18,11.28,11.28,0,0,0,4.16.92v.2c-.49.21-.72.47-1,1.2-.09.24-.1.26-.21.26a7.37,7.37,0,0,1-1.56-.57,7.54,7.54,0,0,1-3.22-3v1.4c0,.67,0,1.18,0,2.44,0,.29-.18.35-1,.35-.47,0-.54,0-.54-.28,0-.76.07-2.12.07-2.44V9.85a10.33,10.33,0,0,1-2.73,2,13.3,13.3,0,0,1-2.9,1l-.08-.16a13.72,13.72,0,0,0,3.09-2.11A10.33,10.33,0,0,0,330.76,9h-3.05a5.23,5.23,0,0,0-1,.1l-.07-.52a4.45,4.45,0,0,0,1.08.13h4.2V7.38H329a6.77,6.77,0,0,0-1.09.09L327.82,7a5.14,5.14,0,0,0,1.18.13h2.91V5.83h-3.74a4.42,4.42,0,0,0-.94.08l-.08-.5a4.16,4.16,0,0,0,1,.12h2.38a.66.66,0,0,1-.19-.42,3.47,3.47,0,0,0-.69-1.54l.11-.11h-2.32a6.68,6.68,0,0,0-1,.07l-.08-.5a4.64,4.64,0,0,0,1.08.14h3.32V1.83a11.49,11.49,0,0,0-.07-1.37,9.61,9.61,0,0,1,1.82.18c.1,0,.15.09.15.16s-.11.2-.53.31V3.17h1V1.82c0-.53,0-.78,0-1.33,1.76.11,2,.14,2,.34s-.12.18-.54.3v2h.55A13.61,13.61,0,0,0,336.24.62c1.49.54,1.92.74,1.92.89s-.17.19-.56.19h-.11a13.55,13.55,0,0,1-1.84,1.47H337l.95-1c.62.46.8.6,1.4,1.12a.2.2,0,0,1,.07.11s-.07.07-.17.07ZM327.82.67c1.61.54,2.16.9,2.16,1.46a1.06,1.06,0,0,1-.87,1c-.24,0-.38-.16-.46-.56a4.35,4.35,0,0,0-.94-1.78Zm2,2.79c1.42.49,1.94.84,1.94,1.3a.93.93,0,0,1-.48.77h2.21a6.86,6.86,0,0,0,.91-2.07Z"/><path class="cls-1" d="M345.7,2a11.89,11.89,0,0,1-1.26,3.7l.11.11h1.15c.31-.35.41-.47.76-.83l.94.8c.09.1.14.15.14.21s-.07.14-.35.31v2c0,1.78,0,1.78.05,3.32,0,.18-.07.25-.25.31a2.92,2.92,0,0,1-.73.1c-.33,0-.42-.06-.42-.28v-.49h-1.13v1.31c0,.17-.06.23-.21.28a4.08,4.08,0,0,1-.83.1c-.29,0-.41-.07-.41-.27.05-2,.07-3.09.07-3.2V7.35a10.64,10.64,0,0,1-1.28,1.42l-.1-.11A17.23,17.23,0,0,0,344.06,2h-.82a3.49,3.49,0,0,0-.82.08l-.08-.49a3.57,3.57,0,0,0,.9.11h2.24c.39-.47.5-.61.91-1,.57.48.74.63,1.3,1.15.06.06.07.08.07.13s-.06.07-.15.07Zm-1,9h1.13V6.05h-1.13Zm8.89-4.8h.14c.32-.45.44-.58.79-1,.49.46.63.61,1.1,1.11.06,0,.07.08.07.12s-.05.07-.14.07h-2V8.14c0,1.75,0,1.92.07,4.86,0,.2-.05.27-.24.32a5,5,0,0,1-1,.09c-.36,0-.46-.06-.46-.3.07-3,.07-3.21.07-5V6.4h-1.69c-.12,2.48-.38,3.59-1.14,4.72A6.57,6.57,0,0,1,346,13.56l-.09-.14a6.6,6.6,0,0,0,1.58-1.53,6.83,6.83,0,0,0,1.22-3.33c.07-.52.11-1.25.14-2.16h-.42a5.56,5.56,0,0,0-.74.07L347.61,6a3.28,3.28,0,0,0,.86.1h.4V1.68h-.07a6.43,6.43,0,0,0-.91.07l-.09-.49a4,4,0,0,0,1,.13h4.24c.34-.37.68-.72,1-1,.58.45.75.6,1.33,1.09.07.06.09.1.09.14s-.08.1-.18.1H353.6Zm-3.18-4.43c0,2.44,0,3.53,0,4.43h1.68V1.68Z"/><path class="cls-1" d="M363,8.07a9.6,9.6,0,0,0,.13-1.5,6.06,6.06,0,0,0,0-.7l1.08.1h.06c.84.07,1.18.17,1.18.31s-.2.25-.65.36c-.08.74-.13,1-.19,1.4l1.75,0,.79-.82.64.43c.12.1.3.22.55.39s.2.18.2.25-.1.19-.25.28a2,2,0,0,0-.29.19v2.81c0,.25,0,.3.4.3a4.21,4.21,0,0,0,1.18-.1c.22-.07.4-.41.63-1.15.14-.49.15-.53.49-1.67l.17,0-.09,2.21a.12.12,0,0,1,0,.06c0,.28,0,.34.22.42a.65.65,0,0,1,.49.66c0,.48-.35.73-1.06.77s-1.57.08-2.24.08A3.3,3.3,0,0,1,366.8,13a.84.84,0,0,1-.38-.8l.05-3.85-2,0a5.49,5.49,0,0,1-1.92,3.39A6.77,6.77,0,0,1,360.23,13c-.42.13-.63.19-1.66.44l-.06-.13c2.75-1.23,3.92-2.55,4.44-4.94l-2.51,0a7.79,7.79,0,0,0-.8.09L359.5,8a5.48,5.48,0,0,0,.93.09h.07Zm1.09-5.32a4.78,4.78,0,0,1-.33,1.47c-.65,1.64-2.41,2.7-5,3l-.07-.15a5.79,5.79,0,0,0,3.07-2,3.92,3.92,0,0,0,.79-2.35h-1.9V3a3,3,0,0,1-.24,1.31,1.35,1.35,0,0,1-1.11.82c-.42,0-.72-.4-.72-1a.62.62,0,0,1,.44-.68,2.18,2.18,0,0,0,1.29-1.87h.16a5.89,5.89,0,0,1,.15.87H364V1.54A6.85,6.85,0,0,0,364,.63,12.85,12.85,0,0,1,366,.87c.15.05.21.1.21.17s-.2.25-.59.38v1h3.08c.35-.38.46-.49.84-.85.66.5.86.67,1.5,1.22.13.12.17.16.17.23s-.17.23-.46.23l-.54,0c-.68.42-1.45.87-1.89,1.08l-.12-.07a11.54,11.54,0,0,0,.61-1.51h-2V4.86c0,.22.07.27.45.3h1.25c.64,0,.87-.06,1-.25a8.61,8.61,0,0,0,.66-1.32h.14l-.06,1v.1c0,.26,0,.26.38.41a.47.47,0,0,1,.34.45c0,.42-.27.63-1,.72-.19,0-1.34.07-1.73.07h-.2c-.17,0-.63,0-1.33,0-1.08,0-1.39-.22-1.39-.9V2.75Z"/><path class="cls-1" d="M382.54,7a1.5,1.5,0,1,1-1.49-1.49A1.49,1.49,0,0,1,382.54,7Z"/><path class="cls-1" d="M393.94,3.21c0-1.38,0-1.38-.05-2.64,1.75.19,2,.24,2,.44s-.12.21-.56.36l0,1.84h.84c.35-.46.48-.6.87-1,.56.48.73.63,1.27,1.15.05,0,.06.07.06.1s-.06.08-.15.08h-2.89V5.38h1.14c.37-.48.5-.62.91-1.08l1.26,1.16a.17.17,0,0,1,.05.12s-.07.09-.15.09h-3.21l0,1.68h1l.75-.77c.45.33.59.41,1.06.75.12.08.18.15.18.22s-.11.22-.42.42v2s0,.29,0,.63v.57c0,.58-.18.84-.6,1a2.87,2.87,0,0,1-1,.19c-.19,0-.21-.05-.26-.4-.07-.56-.21-.72-.78-.87,0,.5,0,.9,0,1.93,0,.35-.18.42-1,.42-.37,0-.47-.05-.47-.3v-.1c0-1.59.05-3.39.07-5.45h-1.19v4.56c0,.2,0,.27-.14.33a2,2,0,0,1-.79.09c-.44,0-.51-.05-.51-.34,0-1.28,0-2.25,0-4.42,0-.54,0-.8-.06-1.36.7.35.91.47,1.6.84h1V5.67h-2.4a7,7,0,0,0-.81.09l-.1-.49c.28,0,.82.11,1,.11H394l0-1.88h-1.62a7,7,0,0,1-1.4,1.61L390.81,5A14.4,14.4,0,0,0,391.93.9l.92.26c.86.23,1,.3,1,.44s-.18.22-.57.28a8.15,8.15,0,0,1-.78,1.33ZM395.36,11l1,0c.16,0,.22-.06.22-.21V7.65h-1.2Zm5-5.56c0,.72,0,.72,0,4.5,0,.38-.17.45-1.11.45-.3,0-.39-.09-.39-.38.06-1.31.07-1.8.07-2.93,0-3,0-4.86-.05-5.42,1.83.22,2,.25,2,.45s0,.14-.53.38Zm1.15-3.35a13.6,13.6,0,0,0-.07-1.43c1.93.2,2.14.24,2.14.42s-.12.23-.53.38v9.12l0,1.26v.11a1.07,1.07,0,0,1-.72,1.18,4,4,0,0,1-1.39.27c-.14,0-.15,0-.15-.27,0-.7-.39-1-1.72-1.3v-.18c1.52.14,1.52.14,2.18.16h0c.16,0,.2,0,.2-.22Z"/><path class="cls-1" d="M406.63,7.44a19.21,19.21,0,0,0,1.92-3.36,12.75,12.75,0,0,0,1.19-3.6c2.07.5,2.32.57,2.32.75s-.17.23-.73.32a13.74,13.74,0,0,1-2,3.31c1,.11,1.16.15,1.16.31s-.1.17-.46.33V9.58c0,.35,0,.44,0,1.93V13c0,.14,0,.21-.1.27a2,2,0,0,1-1,.15c-.42,0-.52-.05-.53-.29,0-.87.08-3.07.08-3.59V5.81a12.3,12.3,0,0,1-1.81,1.74Zm7.11-3.92a13.79,13.79,0,0,1-3.23,3.65l-.11-.11a18.61,18.61,0,0,0,2-3.74,10.17,10.17,0,0,0,.82-2.8l1.08.26c1,.24,1.26.34,1.26.48s-.17.23-.75.34c-.37.75-.53,1-.86,1.62H417c.46-.57.62-.75,1.05-1.3.79.59,1,.78,1.72,1.4a.16.16,0,0,1,.07.13.12.12,0,0,1-.12.07h-4.36V5.94H417l1-1.18c.64.52.84.69,1.47,1.24a.24.24,0,0,1,.09.15c0,.06-.05.08-.12.08h-4.08V8.91H417l1-1.22c.67.56.86.73,1.52,1.32.06.05.07.08.07.12s-.05.07-.17.07h-4.06v.45c0,.51,0,.58,0,2,0,.71,0,.71,0,1.4a.34.34,0,0,1-.24.35,5.16,5.16,0,0,1-1,.09c-.34,0-.45-.09-.45-.34v0c0-1.08.09-3,.09-3.46V3.52Z"/><path class="cls-1" d="M432.84,8.22c1.56.7,1.67.76,1.67.9s-.18.21-.75.21a12.71,12.71,0,0,1-2.18.81,7.75,7.75,0,0,0,2,.94,9.64,9.64,0,0,0,2.45.42v.13a1.93,1.93,0,0,0-1.15,1.44.16.16,0,0,1-.16.13,1.86,1.86,0,0,1-.41-.12,8.63,8.63,0,0,1-3-1.94A38.9,38.9,0,0,1,426,13c-.07.39-.15.53-.29.53s-.16,0-.63-2l.46,0a13.3,13.3,0,0,0,1.42-.1V8.22h-1.56a9.24,9.24,0,0,1-2.53,5.19l-.15-.12C423.79,10.88,424,9.06,424,3.6c0-1.54,0-2.24-.07-3.18.8.36,1,.48,1.83.88h7.31c.32-.33.42-.45.74-.8.53.35.69.45,1.16.8.11.09.16.14.16.2s-.12.22-.47.42c0,.69,0,.69.05,2,0,.27-.26.35-1.07.35-.39,0-.46,0-.48-.26V3.73h-7.57a30,30,0,0,1-.21,4.2h2V6h-.74a3.47,3.47,0,0,0-.83.07l-.06-.45a4.53,4.53,0,0,0,.89.08h.74V5a9,9,0,0,0-.05-1c.38,0,.67.06.87.07.84.07,1.12.14,1.12.3s-.1.15-.48.29v1h1.77V4.89A7.48,7.48,0,0,0,430.6,4l.95.1c.8.07,1.05.14,1.05.28s-.12.18-.5.31v1h.77l.82-1a16.52,16.52,0,0,1,1.48,1.09c.05.06.07.09.07.11s-.06.09-.14.09h-3v2h1.08c.36-.45.49-.59.87-1,.67.46.86.62,1.54,1.12,0,.06.07.1.07.13s-.06.08-.14.08Zm.36-6.62h-7.55c0,.52,0,.52,0,1.83h7.57Zm-4.84,6.62v3.11c1-.08,1.66-.17,2.79-.35a6,6,0,0,1-1.47-2.76Zm.53-.29h1.77V6h-1.77Zm1.08.29a4.08,4.08,0,0,0,1.3,1.7,6,6,0,0,0,1.5-1.7Z"/><path class="cls-1" d="M178.16,58.87v.61h-6v-.61Zm0,1.6v.62h-2.7v3.62h-.6V61.09h-2.68v-.62Z"/><path class="cls-1" d="M180.67,59.69l1.29-.63h.13v4.47a2.07,2.07,0,0,0,0,.56.28.28,0,0,0,.15.17,1.25,1.25,0,0,0,.48.06v.15h-2v-.15a1.18,1.18,0,0,0,.48-.06.31.31,0,0,0,.15-.15,2,2,0,0,0,0-.58V60.67a4.92,4.92,0,0,0,0-.74.32.32,0,0,0-.1-.18.28.28,0,0,0-.18-.06,1.06,1.06,0,0,0-.4.12Z"/><path class="cls-1" d="M184.71,60.18a2.18,2.18,0,0,1,.57-.83,1.31,1.31,0,0,1,.86-.29,1.19,1.19,0,0,1,1,.42,1,1,0,0,1,.26.66,1.66,1.66,0,0,1-.73,1.19,1.57,1.57,0,0,1,.74.55,1.38,1.38,0,0,1,.25.83,1.8,1.8,0,0,1-.44,1.2,2.09,2.09,0,0,1-1.65.65,1.38,1.38,0,0,1-.73-.13.35.35,0,0,1-.19-.29.28.28,0,0,1,.09-.2.33.33,0,0,1,.22-.08.69.69,0,0,1,.2,0l.3.14.32.15a1.06,1.06,0,0,0,.31,0,.93.93,0,0,0,.7-.31,1,1,0,0,0,.29-.73,1.44,1.44,0,0,0-.13-.6,1.12,1.12,0,0,0-.23-.33,1.34,1.34,0,0,0-.46-.28,1.38,1.38,0,0,0-.6-.13h-.12v-.12a1.6,1.6,0,0,0,.62-.22,1.19,1.19,0,0,0,.45-.44,1.2,1.2,0,0,0,.14-.57.87.87,0,0,0-.25-.65.89.89,0,0,0-.63-.25,1.19,1.19,0,0,0-1,.65Z"/><path class="cls-1" d="M189.81,59.69l1.29-.63h.13v4.47a3,3,0,0,0,0,.56.33.33,0,0,0,.16.17,1.22,1.22,0,0,0,.47.06v.15h-2v-.15a1.28,1.28,0,0,0,.49-.06.36.36,0,0,0,.15-.15,2.16,2.16,0,0,0,0-.58V60.67a3.82,3.82,0,0,0,0-.74.32.32,0,0,0-.1-.18.24.24,0,0,0-.17-.06,1,1,0,0,0-.4.12Z"/><path class="cls-1" d="M193.39,61.66h2v.59h-2Z"/><path class="cls-1" d="M197,61.85a4.11,4.11,0,0,1,.27-1.56,2.2,2.2,0,0,1,.73-1,1.25,1.25,0,0,1,.73-.26,1.39,1.39,0,0,1,1.09.62,3.33,3.33,0,0,1,.61,2.09,4,4,0,0,1-.27,1.56,2.05,2.05,0,0,1-.68.94,1.4,1.4,0,0,1-.79.29,1.45,1.45,0,0,1-1.26-.89A3.6,3.6,0,0,1,197,61.85Zm.77.1a4.94,4.94,0,0,0,.27,1.78c.14.39.37.59.66.59a.74.74,0,0,0,.44-.19,1.25,1.25,0,0,0,.34-.64,7.71,7.71,0,0,0,.18-1.89,5.07,5.07,0,0,0-.19-1.52,1.29,1.29,0,0,0-.36-.63.58.58,0,0,0-.39-.13.62.62,0,0,0-.47.24,2,2,0,0,0-.38,1A9.12,9.12,0,0,0,197.73,62Z"/><path class="cls-1" d="M201.53,61.85a4.11,4.11,0,0,1,.27-1.56,2.13,2.13,0,0,1,.73-1,1.23,1.23,0,0,1,.73-.26,1.39,1.39,0,0,1,1.09.62,3.33,3.33,0,0,1,.6,2.09,4,4,0,0,1-.26,1.56,2.05,2.05,0,0,1-.68.94,1.4,1.4,0,0,1-.79.29,1.48,1.48,0,0,1-1.27-.89A3.71,3.71,0,0,1,201.53,61.85Zm.76.1a4.94,4.94,0,0,0,.27,1.78c.15.39.37.59.67.59a.76.76,0,0,0,.44-.19,1.25,1.25,0,0,0,.34-.64,7.71,7.71,0,0,0,.18-1.89,5.07,5.07,0,0,0-.19-1.52,1.29,1.29,0,0,0-.36-.63.59.59,0,0,0-.39-.13.61.61,0,0,0-.47.24,1.86,1.86,0,0,0-.38,1A9.14,9.14,0,0,0,202.29,62Z"/><path class="cls-1" d="M209.53,62.51v.56h-.71v1.4h-.64v-1.4h-2.25v-.5l2.46-3.51h.43v3.45Zm-1.35,0V59.89l-1.86,2.62Z"/><path class="cls-1" d="M214.1,62.51v.56h-.71v1.4h-.65v-1.4H210.5v-.5L213,59.06h.43v3.45Zm-1.36,0V59.89l-1.86,2.62Z"/><path class="cls-1" d="M224.47,62.13a3.82,3.82,0,0,0,1.13,1,5.52,5.52,0,0,0,2.28.83v.09a.66.66,0,0,0-.52.58,3.84,3.84,0,0,1-1-.48,6.23,6.23,0,0,1-2-2v.88c0,.34,0,1.14,0,1.7,0,.07,0,.08-.07.1a2.63,2.63,0,0,1-.43,0c-.08,0-.12,0-.12-.1s0-.77.05-1.7v-.65a8,8,0,0,1-1.64,1.4,8.41,8.41,0,0,1-1.7.84l-.06-.11a8.08,8.08,0,0,0,2-1.37,6.38,6.38,0,0,0,1-1.12h-1.36v.21a.1.1,0,0,1-.08.1l-.33,0q-.15,0-.15-.09a.18.18,0,0,1,0-.06c0-.58,0-1.08,0-2.06a8.36,8.36,0,0,0-.05-1,4,4,0,0,1,.61.33h1.67v-.84h-2.55a4.49,4.49,0,0,0-.68,0l-.07-.32a4.78,4.78,0,0,0,.86.09h2.44v-.05a5.39,5.39,0,0,0-.06-1c.74.09.9.12.9.21s-.06.1-.31.2v.61h2.07l.51-.57.78.64a.09.09,0,0,1,0,.06.07.07,0,0,1-.07.06h-3.32v.84H226a3.34,3.34,0,0,1,.32-.33,4.38,4.38,0,0,1,.45.33c.07,0,.09.07.09.11s-.06.11-.29.2c0,1.31,0,1.42,0,2.37,0,.07,0,.1-.08.11l-.37,0c-.07,0-.1,0-.1-.11v-.21Zm-.66-2.33h-1.72v1h1.72Zm0,1.16h-1.72v1h1.72Zm2.28-1.16h-1.75v1h1.75Zm0,1.16h-1.75v1h1.75Z"/><path class="cls-1" d="M229,64.48a6.86,6.86,0,0,0,1.38-1.36,4.56,4.56,0,0,0,.56-.87c.6.24.78.33.78.39s-.11.1-.41.11a6.13,6.13,0,0,1-2.24,1.83Zm6-5.73a3.72,3.72,0,0,1,.48-.57c.36.27.46.36.81.66,0,0,0,0,0,0s0,.06-.09.06H229.7a2.65,2.65,0,0,0-.56.05l-.08-.31a4,4,0,0,0,.63.07h2.66v-.64a3.62,3.62,0,0,0,0-.54c.81.07,1,.1,1,.2s-.08.1-.35.18v.8Zm-2.06,4.16v1.26c0,.35-.15.43-.92.58-.07-.24-.13-.32-.33-.4a2.94,2.94,0,0,0-.76-.15V64l1.36.07h0c.07,0,.09,0,.09-.11V61.58h-1.49v.33c0,.09-.13.12-.42.12-.1,0-.14,0-.14-.1,0-.58,0-.82,0-1.41s0-.82,0-1.15a4.23,4.23,0,0,1,.62.37h3.31l.3-.32a3.46,3.46,0,0,1,.49.35c.05,0,.06.06.06.08s-.07.12-.26.23c0,.89,0,1.13,0,1.81,0,0,0,.08-.07.09a1.58,1.58,0,0,1-.38.05c-.08,0-.12,0-.12-.09v-.36h-1.39Zm-2-1.51h3.41V59.93h-3.41Zm2.8,1a8.11,8.11,0,0,1,1.68,1c.33.26.42.39.42.65s-.09.52-.21.52-.11,0-.2-.2a8.87,8.87,0,0,0-.7-.85,7.94,7.94,0,0,0-1.06-1Z"/><path class="cls-1" d="M239.83,60.25a9.47,9.47,0,0,0,1.38-2.32c.58.25.73.33.73.41s-.06.09-.23.09h-.12a13.09,13.09,0,0,1-1.25,1.82h.55a6.26,6.26,0,0,1,.39-.51,8,8,0,0,1,.6.56s0,.05,0,.07,0,.06-.09.06h-1.64a10.28,10.28,0,0,1-1,1h1.53l.26-.31.44.31c.06,0,.09.08.09.11s-.06.1-.22.18c0,1.07,0,2.46,0,2.93,0,.1-.08.13-.36.13s-.16,0-.16-.09v-.4H239v.47c0,.12-.06.14-.37.14-.13,0-.16,0-.16-.12,0-.69,0-.69,0-2.78a8.11,8.11,0,0,1-1,.66l-.06-.1a10.49,10.49,0,0,0,1.08-.9c0-.2,0-.27,0-.51l.39.17a9.71,9.71,0,0,0,.81-.88h-1.52a3.37,3.37,0,0,0-.58,0l-.05-.28a4.77,4.77,0,0,0,.63.06h1V59h-.76a2.33,2.33,0,0,0-.48,0l-.05-.28a2.86,2.86,0,0,0,.58.06h.71v-.58c0-.28,0-.4,0-.65l.41,0c.37,0,.46.08.46.15s-.09.11-.33.18v.85h.24l.3-.43.49.49a.13.13,0,0,1,0,.07s0,0-.08,0h-1v1.27Zm1,1.36H239v1h1.78ZM239,62.82V64.1h1.78V62.82Zm3.17-4.21c0-.31,0-.52,0-.86.27.15.36.19.61.35H244l.32-.33a5.21,5.21,0,0,1,.49.37c.08.08.11.12.11.15s-.09.1-.32.16a18.39,18.39,0,0,1-1.2,2.14,2.56,2.56,0,0,1,1,.82,2.34,2.34,0,0,1,.42,1.34A1.12,1.12,0,0,1,243.78,64c-.05-.26-.1-.35-.26-.42a5.76,5.76,0,0,0-.66-.15v-.12c.7,0,.85,0,1.09,0s.25,0,.29-.17a2.07,2.07,0,0,0,.08-.57A2.72,2.72,0,0,0,244,61.4a2.69,2.69,0,0,0-.76-.78,17.81,17.81,0,0,0,.84-2.33h-1.36v5.79c0,.16,0,.4,0,.71,0,0,0,.07,0,.09a.93.93,0,0,1-.37.05c-.12,0-.14,0-.14-.1,0-.51,0-.66,0-1.09V58.61Z"/><path class="cls-1" d="M247.86,63.52a3.27,3.27,0,0,0-.61,0l-.05-.29a3,3,0,0,0,.66,0h1.63V63a6,6,0,0,0,0-.64c.67.06.86.1.86.19s-.09.11-.32.17v.64h1.64c.21-.22.27-.29.45-.5.31.25.39.33.68.58,0,0,0,0,0,.05s0,.06-.07.06H250v.88h2.36l.53-.58c.33.26.43.35.74.62.05,0,.06.06.06.08a.08.08,0,0,1-.07.07H247a3.88,3.88,0,0,0-.77.06l-.07-.33a3.86,3.86,0,0,0,.84.08h2.46v-.88Zm2.11-3h1.78l.44-.45.6.51s0,.06,0,.08,0,0-.08,0H250v.68h2.36l.47-.48a7.38,7.38,0,0,1,.71.54.08.08,0,0,1,.05.07s-.05.06-.11.06H247a3.22,3.22,0,0,0-.64.07l-.07-.33a3,3,0,0,0,.71.07h2.47v-.68h-1.81a2.39,2.39,0,0,0-.61.06l-.06-.31a2.5,2.5,0,0,0,.67.07h1.81v-.69h-1.76V60c0,.1-.08.13-.4.13-.08,0-.11,0-.12-.1,0-.48,0-.71,0-1.13s0-.93,0-1.33c.24.13.32.18.56.33h4c.15-.16.15-.16.29-.33.19.14.26.18.44.33s.1.08.1.11-.08.1-.28.21v.29c0,.26,0,.37,0,1.35,0,.07,0,.09-.07.11a1.49,1.49,0,0,1-.36,0,.08.08,0,0,1-.09-.08v-.11H250Zm-2.36,1.28a1.79,1.79,0,0,1-.43,1,.89.89,0,0,1-.54.35c-.11,0-.18-.14-.18-.34s0-.27.24-.32a1.26,1.26,0,0,0,.82-.72Zm1.88-3.71h-1.76v.67h1.76Zm0,.86h-1.76v.7h1.76Zm-.94,2.75a1.57,1.57,0,0,1,.51.83c0,.2-.19.47-.33.47s-.09-.05-.09-.15a4.2,4.2,0,0,0-.17-1.1Zm3.24-2.94v-.67H250v.67Zm-1.82.89h1.82V59H250Zm.43,2c.48.44.67.69.67.89s-.21.43-.34.43-.11,0-.13-.3a2.65,2.65,0,0,0-.29-1Zm1.53.06c.93.47,1.23.7,1.23,1s-.15.46-.26.46-.1,0-.23-.31a4.26,4.26,0,0,0-.82-1.05Z"/><path class="cls-1" d="M255.83,64.53c0,.07,0,.1-.08.12a1.42,1.42,0,0,1-.33,0c-.11,0-.14,0-.14-.12,0-.68,0-2.29,0-4.23,0-.91,0-2,0-2.32a4.22,4.22,0,0,1,.67.34h4.79c.15-.17.2-.23.36-.39l.52.39s.07.07.07.11,0,.1-.31.24v1.65c0,1.62,0,3,.06,4.16,0,.11-.13.15-.42.15-.13,0-.18,0-.19-.12v-.61h-5Zm2.22-3.64V58.54h-2.22v2.35Zm0,.2h-2.22v2.66h2.22Zm2.76-2.55h-2.24v2.35h2.24Zm-2.24,2.55v2.66h2.24V61.09Z"/><path class="cls-1" d="M264.45,64.58c0,.06,0,.09-.08.11l-.33,0c-.14,0-.19,0-.19-.1v0c0-.84,0-3,0-5.14,0-.7,0-1.13,0-1.68a3.32,3.32,0,0,1,.68.34H269c.16-.23.22-.3.4-.53l.73.62a.09.09,0,0,1,0,0s0,0,0,0h-5.68V64h4.71a6.47,6.47,0,0,1,.45-.56c.35.27.45.35.78.64a.15.15,0,0,1,0,.05s0,0-.07,0h-5.9Zm.94-5.29a15.85,15.85,0,0,1,2,1.36,8.45,8.45,0,0,0,.6-1.08,4.13,4.13,0,0,0,.38-1c.77.28.88.33.88.41s-.13.12-.43.12a11.3,11.3,0,0,1-1,1.83c.24.18.9.79,1.11,1a.61.61,0,0,1,.17.37c0,.07,0,.14,0,.22,0,.24,0,.37-.15.37s-.12,0-.22-.2a8.47,8.47,0,0,0-1.2-1.41,7.23,7.23,0,0,1-.9.94,7.36,7.36,0,0,1-1.72,1.21l-.06-.1a10.46,10.46,0,0,0,2.33-2.4c-.48-.46-.74-.69-1.84-1.59Z"/><path class="cls-1" d="M277.4,59.24a7.53,7.53,0,0,1-.5,1.54,7,7,0,0,1-1,1.56,7.49,7.49,0,0,0,1.63,1.09,5.74,5.74,0,0,0,1.76.55v.08c-.38.09-.51.21-.62.63a6.51,6.51,0,0,1-1.79-.89,7.14,7.14,0,0,1-1.28-1.1,6.68,6.68,0,0,1-1.18,1,8.25,8.25,0,0,1-2.55,1.17l0-.13a8,8,0,0,0,2.52-1.48,7.11,7.11,0,0,0,.91-.91,7.48,7.48,0,0,1-1.22-2.15,7,7,0,0,1-.28-.94h-1.1a4.76,4.76,0,0,0-.72,0l-.06-.32a5,5,0,0,0,.76.09h2.46v-.92c0-.21,0-.32,0-.57.93.12,1,.13,1,.22s-.07.11-.36.22v1.05h2l.53-.64c.35.29.46.38.8.68a.21.21,0,0,1,0,.09.06.06,0,0,1-.06.05Zm-3.44,0A6.77,6.77,0,0,0,275.57,62a7.69,7.69,0,0,0,1.19-2.74Z"/><path class="cls-1" d="M280.39,62.67a9.83,9.83,0,0,0,1.3-1.68,6.14,6.14,0,0,0,.65-1.39l.8.29s.07,0,.07.07-.12.1-.33.1h-.05a9.18,9.18,0,0,1-.71,1c.5.09.61.13.61.2s-.06.1-.31.17v3.22c0,.09-.07.11-.29.12H282c-.08,0-.12,0-.12-.11,0-1.65,0-1.65,0-1.92V61.39a7.6,7.6,0,0,1-1.42,1.38Zm4.36-4.11v-.5a3.62,3.62,0,0,0,0-.48c.86.12.86.12.86.2s-.1.12-.32.16v.62h1.06l.52-.57c.34.27.44.36.77.65,0,0,0,0,0,0s0,.05-.07.05h-2.3c0,.43,0,.43,0,.73a.15.15,0,0,1-.06.11,1.37,1.37,0,0,1-.34,0c-.1,0-.13,0-.14-.11,0-.34,0-.34,0-.77h-1.61v.73c0,.09-.06.11-.27.11h-.13c-.09,0-.13,0-.13-.1,0-.3,0-.3,0-.75h-1.41a3.28,3.28,0,0,0-.67.07l-.05-.33a3.29,3.29,0,0,0,.72.08h1.41v-.12c0-.35,0-.69,0-.87.87.1.87.1.87.18s0,.08-.33.19v.62Zm-.07,3.58a6.47,6.47,0,0,0,.86-.77,5.4,5.4,0,0,0,1-1.27c.76.43.77.44.77.51s-.06.08-.14.08l-.23,0a9.51,9.51,0,0,1-2.24,1.66V64s0,.06.12.07l1.11,0a6,6,0,0,0,.77-.05c.08,0,.11-.06.2-.3s.23-.68.4-1.32h.11l-.11,1.28c0,.12,0,.19,0,.2s0,.07.13.11.18.1.18.2-.1.22-.31.27a13.54,13.54,0,0,1-1.45.06,3.7,3.7,0,0,1-1.47-.12c-.15-.08-.21-.2-.22-.45,0-1.31,0-1.31,0-1.49v-2c0-.25,0-.61,0-.81.82.12.9.13.9.2s-.12.12-.32.17Z"/><path class="cls-1" d="M291.56,59.44l1.29-.63H293v4.48a2,2,0,0,0,0,.55.28.28,0,0,0,.15.17,1.25,1.25,0,0,0,.48.06v.15h-2v-.15a1.24,1.24,0,0,0,.49-.06.36.36,0,0,0,.15-.15,2.11,2.11,0,0,0,0-.57V60.43a5.56,5.56,0,0,0,0-.75.39.39,0,0,0-.1-.18.28.28,0,0,0-.18-.06,1.06,1.06,0,0,0-.4.12Z"/><path class="cls-1" d="M301.45,61.73c0,1,0,1.48,0,2.35a.51.51,0,0,1-.32.56,2.46,2.46,0,0,1-.76.18.54.54,0,0,0-.27-.42c-.15-.1-.23-.12-1-.26V64a15,15,0,0,0,1.65.08c.11,0,.14,0,.14-.13V58.38h-2.33a7.56,7.56,0,0,0-.88,0l-.06-.32a4.48,4.48,0,0,0,.94.09h4.91l.5-.62c.37.29.49.37.85.69,0,0,.05.05.05.07s0,.05-.12.05h-3.28Z"/><path class="cls-1" d="M307.91,64.67c0,.06,0,.09-.09.09a2.11,2.11,0,0,1-.38,0,.14.14,0,0,1-.15-.1c0-1.42,0-2.37,0-3.93,0-1.35,0-2.07,0-3a8,8,0,0,1,.73.45h3.49l.36-.37.47.37c.06.05.08.08.08.11s-.05.09-.26.24c0,4.8,0,4.8,0,6a.15.15,0,0,1-.07.12,1.63,1.63,0,0,1-.42,0c-.07,0-.09,0-.12-.1v-.54h-3.69Zm3.69-6.22h-3.69v1.66h3.69Zm-3.69,1.84v1.65h3.69V60.29Zm0,1.84V64h3.69V62.13Z"/><path class="cls-1" d="M317.26,59.46l1.29-.63h.13v4.48a2.58,2.58,0,0,0,0,.55.28.28,0,0,0,.15.17,1.41,1.41,0,0,0,.48.07v.14h-2V64.1a1.32,1.32,0,0,0,.48-.07.34.34,0,0,0,.16-.15,2.61,2.61,0,0,0,0-.57V60.45a3.75,3.75,0,0,0,0-.74.31.31,0,0,0-.1-.19.27.27,0,0,0-.17-.06,1.1,1.1,0,0,0-.41.12Z"/><path class="cls-1" d="M321.32,64.35v-.14a2.15,2.15,0,0,0,.94-.24,2.52,2.52,0,0,0,.85-.8,3.64,3.64,0,0,0,.57-1.25,2.13,2.13,0,0,1-1.11.39,1.26,1.26,0,0,1-1-.43,1.61,1.61,0,0,1-.4-1.15,2,2,0,0,1,.4-1.23,1.47,1.47,0,0,1,1.25-.67,1.42,1.42,0,0,1,1.12.54,2.47,2.47,0,0,1,.57,1.65,3.28,3.28,0,0,1-.43,1.65,3.67,3.67,0,0,1-1.21,1.27,2.47,2.47,0,0,1-1.37.41Zm2.42-2.72a5.74,5.74,0,0,0,.07-.81,2.74,2.74,0,0,0-.13-.82,1.67,1.67,0,0,0-.36-.68.78.78,0,0,0-.54-.23.77.77,0,0,0-.61.31,1.39,1.39,0,0,0-.26.93,2.06,2.06,0,0,0,.35,1.29.75.75,0,0,0,.62.34,1.32,1.32,0,0,0,.43-.09A1.64,1.64,0,0,0,323.74,61.63Z"/><path class="cls-1" d="M326.25,61.66h2v.59h-2Z"/><path class="cls-1" d="M329.63,59.46l1.29-.63h.13v4.48a2,2,0,0,0,0,.55.25.25,0,0,0,.15.17,1.41,1.41,0,0,0,.48.07v.14h-2V64.1a1.32,1.32,0,0,0,.48-.07.31.31,0,0,0,.15-.15,1.9,1.9,0,0,0,.05-.57V60.45a4.81,4.81,0,0,0,0-.74.31.31,0,0,0-.1-.19.28.28,0,0,0-.18-.06,1.06,1.06,0,0,0-.4.12Z"/><path class="cls-1" d="M171.17,45.2a7.38,7.38,0,0,0,1.32-1.07,12.59,12.59,0,0,0,2-2.43,2.29,2.29,0,0,0,.3-.66c1,.23,1.06.25,1.06.33s-.14.15-.34.16a5.93,5.93,0,0,0,1.95,1.94,6.25,6.25,0,0,0,2.17.9v.09c-.37.1-.47.23-.64.74a7.84,7.84,0,0,1-2-1.44,9.84,9.84,0,0,1-1.24-1.47,2.94,2.94,0,0,1-.38-.68,10.59,10.59,0,0,1-2,2.26,9.55,9.55,0,0,1-2.13,1.46Zm3.89,1a15.64,15.64,0,0,1-1.54,2.08c1.4,0,2.77-.09,3.66-.18a8.51,8.51,0,0,0-1.17-1.4l.07-.09a9.72,9.72,0,0,1,1.8,1.35.87.87,0,0,1,.35.63,1.29,1.29,0,0,1-.15.56.2.2,0,0,1-.15.09c-.06,0-.1,0-.15-.14a8.43,8.43,0,0,0-.47-.82,44.43,44.43,0,0,1-4.84.7c-.09.27-.11.31-.18.31s-.08,0-.11-.17-.14-.61-.18-.86l.73,0h.54a12.85,12.85,0,0,0,1-2.08H172.4a2.64,2.64,0,0,0-.64,0l-.07-.33a3.11,3.11,0,0,0,.71.07h5.2c.21-.29.28-.37.49-.63.39.29.51.39.88.69a.56.56,0,0,0,0,.08.08.08,0,0,1-.08.07ZM173,44.39a3.68,3.68,0,0,0,.73.07H176c.22-.27.28-.35.51-.6l.82.68a.09.09,0,0,1,.06.08s0,.05-.12.05H173.7l-.62,0Z"/><path class="cls-1" d="M184.18,43.83c.19-.23.25-.3.44-.51.27.23.36.32.63.57,0,0,.05.06.05.09s0,.05-.1.05h-1.43v2.28c.4-.16.57-.24,1-.46l.06.13c-.51.37-.8.56-1.05.71l-1.14.71c0,.33,0,.44-.13.44a.11.11,0,0,1-.1-.09s-.13-.31-.35-.87c.3-.08.63-.18,1.09-.35V44h-.52a2.27,2.27,0,0,0-.57,0l-.07-.33a2,2,0,0,0,.64.08h.52v-1.6a8,8,0,0,0,0-.84c.87.11,1,.14,1,.23s-.08.12-.36.19v2Zm3.1,2.43a5.63,5.63,0,0,1-1,1.2,6.06,6.06,0,0,1-2.23,1.28l-.08-.13a6.27,6.27,0,0,0,1.91-1.32,4.48,4.48,0,0,0,.74-1h-.77a7.72,7.72,0,0,1-2.09,1.42l-.07-.14a6.39,6.39,0,0,0,1.53-1.28,4.78,4.78,0,0,0,.73-1h-.77a4,4,0,0,0-.75.05l-.06-.34a3.27,3.27,0,0,0,.81.08h3.87l.52-.54c.33.25.43.33.74.6,0,0,.06.07.06.1s0,0-.11,0h-3.63c-.31.46-.4.58-.59.82h3.07a2.61,2.61,0,0,1,.34-.33,4.7,4.7,0,0,1,.52.39s.07.07.07.1-.08.14-.29.23a8.88,8.88,0,0,1-.47,2.38,1.31,1.31,0,0,1-1,.53c-.08-.46-.18-.52-1.07-.65v-.15a11.37,11.37,0,0,0,1.17.08c.24,0,.32,0,.4-.22a8.4,8.4,0,0,0,.36-2.15h-.47a4.68,4.68,0,0,1-1,1.53A6.71,6.71,0,0,1,186.1,49a7.85,7.85,0,0,1-.9.43l-.09-.13a7,7,0,0,0,2.11-1.65,4.33,4.33,0,0,0,.86-1.36Zm-1.13-1.81c0,.12-.1.16-.43.16-.12,0-.16,0-.16-.12,0-.64,0-1,0-1.26,0-1.07,0-1.62,0-1.94a6.51,6.51,0,0,1,.69.39h2.09l.35-.37.52.38c.06.06.09.09.09.13s0,.08-.29.21v.53c0,.37,0,.85,0,1.81,0,.09,0,.11-.09.14a2,2,0,0,1-.38,0c-.08,0-.12,0-.12-.09v-.23h-2.29Zm2.29-2.56h-2.29v.93h2.29ZM186.15,43v1h2.29V43Z"/><path class="cls-1" d="M173.39,72.61a5,5,0,0,1,.27-.51c.23.24.29.31.5.56a.18.18,0,0,1,0,.09s0,0-.07,0h-.88v1.63a7.67,7.67,0,0,0,.84-.32l0,.12c-.33.2-.47.28-.89.51V76.5c0,.13,0,.21,0,1.08A.39.39,0,0,1,173,78a3.16,3.16,0,0,1-.62.17c-.06-.36-.2-.44-.87-.55v-.15c.51.06.68.07,1.11.09.09,0,.11,0,.11-.13V75c-.24.13-.27.13-.68.32,0,.28-.07.32-.14.32s-.08-.06-.11-.16l-.1-.27a2.69,2.69,0,0,0-.1-.32c.22,0,.86-.2,1.13-.29V72.79h-.5a2.77,2.77,0,0,0-.56,0l0-.29a2.74,2.74,0,0,0,.61.06h.5v-1a6.37,6.37,0,0,0,0-.8,6.55,6.55,0,0,1,.83.15.1.1,0,0,1,.06.07c0,.06-.07.1-.32.18v1.42Zm3.12,2.5c0,1.81,0,1.87,0,2.82h0c0,.07,0,.08-.07.1a1.87,1.87,0,0,1-.4,0c-.09,0-.12,0-.13-.11,0-1,0-1.32,0-2.87h-1.19v.47c0,.06,0,.08-.07.1a1.74,1.74,0,0,1-.38,0c-.08,0-.11,0-.11-.1,0-1.33,0-1.33,0-1.74,0-1.48,0-2.43,0-2.83a4.67,4.67,0,0,1,.6.38h2.92a3,3,0,0,1,.34-.37c.2.15.27.2.47.37s.1.08.1.12-.06.1-.29.26v.82c0,1.39,0,2.39,0,2.94v0c0,.08-.13.12-.43.12-.12,0-.14,0-.14-.09v-.5ZM176,71.6h-1.18v1.55H176Zm0,1.73h-1.18v1.6H176Zm1.85-.18V71.6h-1.31v1.55Zm-1.31,1.78h1.31v-1.6h-1.31Z"/><path class="cls-1" d="M185.57,73.81l.51-.62c.36.3.47.39.8.69,0,0,0,.05,0,.07s0,0-.08,0h-3.07v3.46h2.33c.22-.3.3-.39.51-.65.37.3.48.4.83.72a.09.09,0,0,1,0,.06s0,0-.07,0h-6.47a3.52,3.52,0,0,0-.66.06l-.06-.31a2.75,2.75,0,0,0,.72.07h2.26V71.94a5,5,0,0,0-.07-1l.43.06c.43,0,.51.08.51.14s-.07.11-.3.17v2.48Z"/><path class="cls-1" d="M189.15,75.6a2.7,2.7,0,0,1,0,.37,2.3,2.3,0,0,1-.16,1c-.1.23-.23.37-.35.37s-.16-.16-.16-.4,0-.22.18-.35a1.32,1.32,0,0,0,.36-1Zm2.07-3.13.33-.39c.24.19.31.26.54.47,0,0,0,.06,0,.07s0,0-.09,0h-1.19v1h.33c.16-.18.21-.23.38-.4.23.2.29.27.5.48l0,0s0,0-.1,0h-1.15v1.06h.51l.31-.3.39.35c0,.07.07.1.07.12s0,.07-.26.19a6.59,6.59,0,0,1-.37,2.29,1,1,0,0,1-.36.34,2,2,0,0,1-.57.11c-.06-.36-.11-.4-.89-.59l0-.13c.4.06,1,.14,1.23.14s.2-.11.26-.39a8.3,8.3,0,0,0,.21-1.94H189.6v.17c0,.09-.08.12-.35.12-.12,0-.16,0-.16-.09v0c0-.72,0-1,0-2,0-1.46,0-1.78,0-2.22a4.76,4.76,0,0,1,.54.34h1.56l.36-.46a6.31,6.31,0,0,1,.62.54.17.17,0,0,1,0,.07s0,0-.09,0h-1.27v1Zm-1.69,3.09a1.93,1.93,0,0,1,.38,1c0,.15-.18.39-.3.39s-.09-.06-.09-.18v-.05c0-.25,0-.38,0-.45a2.16,2.16,0,0,0-.1-.66Zm.85-4h-.78v1h.78Zm-.78,1.15v1h.78v-1Zm0,1.14v1.06h.78V73.8Zm.43,1.64a1.66,1.66,0,0,1,.58.86c0,.16-.13.37-.24.37s-.08,0-.08-.11a3.21,3.21,0,0,0-.34-1.07Zm.54-.11c.38.32.58.57.58.73s-.13.34-.22.34-.06,0-.08-.1a2,2,0,0,0-.08-.32,1.49,1.49,0,0,0-.27-.59ZM193,74a8.34,8.34,0,0,1-.28,2.17,4.71,4.71,0,0,1-.63,1.38,2.3,2.3,0,0,1-.46.53l-.09-.07a5.06,5.06,0,0,0,.79-2,16,16,0,0,0,.19-2.45c0-1.55,0-2.18,0-2.57l.59.39h1.79l.32-.34c.21.16.27.21.45.37s.09.08.09.12,0,0-.29.18c0,.19,0,.34,0,.46v.33c0,.3,0,.59,0,.87,0,.07,0,.13,0,.51s0,.24,0,.45v0c0,.1-.1.13-.42.13-.1,0-.13,0-.13-.09V74h-1a3.81,3.81,0,0,0,.51,1.77,4.2,4.2,0,0,0,1,1.18,2.71,2.71,0,0,0,.7.38v.12c-.31.06-.37.11-.61.49a3.75,3.75,0,0,1-1.05-1.24,5.46,5.46,0,0,1-.67-2c0-.18,0-.28-.07-.66Zm1.92-.19V71.51H193v.6c0,.56,0,1,0,1.69Z"/><path class="cls-1" d="M200.19,71.25a2.22,2.22,0,0,1,.64.1c.27.07.4.18.4.34s0,.06-.06.22a4.1,4.1,0,0,0-.16,1.16v.15a.27.27,0,0,0,.21.09,2.6,2.6,0,0,0,1.22-.48.28.28,0,0,1,.17-.08,1,1,0,0,1,.35.1c.12.07.16.12.16.19s-.1.19-.47.32a3.37,3.37,0,0,1-1.11.25.69.69,0,0,1-.53-.2v.35c0,.63,0,1.57.08,2.09a5,5,0,0,1,1.69.58.79.79,0,0,1,.5.69c0,.19-.06.3-.16.3s-.11,0-.2-.1a4.29,4.29,0,0,0-1.79-1c0,.38,0,.38,0,.52a.79.79,0,0,1-.57.8,2.69,2.69,0,0,1-.81.11c-.84,0-1.37-.33-1.37-.87,0-.38.27-.68.78-.88a3.4,3.4,0,0,1,1.16-.19h.3c0-3.21,0-3.21-.11-3.75s-.18-.59-.7-.68A.48.48,0,0,1,200.19,71.25ZM200,76.17c-.82,0-1.41.28-1.41.68s.33.5.89.5a1.29,1.29,0,0,0,1-.33c.11-.12.13-.29.13-.84Z"/><path class="cls-1" d="M208.57,78a4.2,4.2,0,0,0,2.11-3.81,3.72,3.72,0,0,0-.3-1.65.65.65,0,0,0-.57-.35c-.4,0-.76.34-1.05,1a4.52,4.52,0,0,0-.38,1.72c0,.13,0,.22,0,.49a1,1,0,0,1,0,.17c0,.15-.07.24-.21.24-.3,0-.5-.65-.5-1.64a9.49,9.49,0,0,1,.26-2.14,3.44,3.44,0,0,0,.08-.58c0-.26-.11-.41-.43-.57a.68.68,0,0,1,.15,0,1.27,1.27,0,0,1,.64.26c.22.16.31.29.31.45a.5.5,0,0,1-.11.3,5.69,5.69,0,0,0-.58,2.39c0,.07,0,.15,0,.29h0a4.49,4.49,0,0,1,.93-2.09,1.31,1.31,0,0,1,1-.47c.76,0,1.31.94,1.31,2.27a4,4,0,0,1-.87,2.62,4,4,0,0,1-1.77,1.26Z"/><path class="cls-1" d="M215.27,74.44a5.94,5.94,0,0,1-1.05,1l-.1-.1a7.69,7.69,0,0,0,1.13-1.46c.12-.2.36-.65.48-.88s.08-.21.15-.42c.65.23.88.34.87.39s-.16.12-.31.12h-.09a8.36,8.36,0,0,1-.79,1.06c.38.05.5.08.5.15s-.05.09-.27.17v2.16c0,.13,0,.43,0,.87v.23c0,.07,0,.16,0,.29v0c0,.06,0,.07-.06.1a2.61,2.61,0,0,1-.39,0c-.09,0-.11,0-.12-.09,0-.54,0-.57,0-2.12ZM214.22,73a7,7,0,0,0,1.18-1.42,3.79,3.79,0,0,0,.42-.85l.4.18c.32.13.44.21.44.26s-.09.1-.38.11a6.93,6.93,0,0,1-.85.94,6.65,6.65,0,0,1-1.09.9Zm6.37.63a5.7,5.7,0,0,1,.42-.55l.72.59a.2.2,0,0,1,.06.09s0,0-.1,0H219.2v1.3h1c.18-.24.24-.31.43-.53.29.25.39.33.68.6a.15.15,0,0,1,0,.06s0,.06-.1.06H219.2v1.88a6.24,6.24,0,0,0,1.4.12,9.25,9.25,0,0,0,1.2-.08v.12a.61.61,0,0,0-.47.53l-.61,0a3.38,3.38,0,0,1-2.21-.54A4.24,4.24,0,0,1,217.37,76a5.18,5.18,0,0,1-1.32,2.12l-.11-.08a6.4,6.4,0,0,0,.88-1.78,7.33,7.33,0,0,0,.27-1.73s0-.12,0-.24c.73.11.9.15.9.24s0,.08-.33.16a8.21,8.21,0,0,1-.19,1.08A3,3,0,0,0,218.68,77V73.8h-1.75a3,3,0,0,0-.58,0l-.07-.3a2.61,2.61,0,0,0,.69.07h1.71V72.3h-1.33a2.18,2.18,0,0,0-.5,0l-.06-.31a2,2,0,0,0,.56.07h1.33v-.68a4.74,4.74,0,0,0-.06-.63c.7.08.88.13.88.23s-.08.1-.3.16v.92h1.11l.41-.53.69.59a.2.2,0,0,1,0,.08s0,0-.09,0H219.2v1.32Z"/><path class="cls-1" d="M223,76.5A7.41,7.41,0,0,0,224.32,75a2.77,2.77,0,0,0,.46-.92c.75.29.86.35.86.42s-.09.1-.37.11a6.86,6.86,0,0,1-2.19,2Zm4-2v.39c0,.15,0,.15,0,.78,0,.44-.22.61-1,.76,0-.27-.09-.34-.22-.41a2.16,2.16,0,0,0-.74-.15v-.12c.79,0,.8,0,1.24.06.12,0,.16,0,.16-.09v-2H223.8a2.93,2.93,0,0,0-.67,0l0-.32a2.56,2.56,0,0,0,.78.08h.71V72.15a6.62,6.62,0,0,0,0-.71c.76.08.88.11.88.19s-.1.11-.32.18v1.7h1.34v-1.9a6.12,6.12,0,0,0,0-.74l.37,0c.39,0,.5.07.5.14s-.08.1-.31.18v.94h1.29c.22-.26.28-.34.5-.58.32.27.42.36.73.66a.09.09,0,0,1,0,0s0,0-.08,0H227v1.15h2a7.91,7.91,0,0,1,.52-.61,10.41,10.41,0,0,1,.81.68.07.07,0,0,1,0,.06s0,.06-.08.06H227Zm-3.75,3.53a8.63,8.63,0,0,0,3.2-1.15,5.06,5.06,0,0,0,1.73-1.71c.53.29.73.42.73.48s-.07.09-.2.09h-.17a6.59,6.59,0,0,1-1.33,1.19,7.81,7.81,0,0,1-3.93,1.26Zm4.5-3.89a7.11,7.11,0,0,1,1.72.7.69.69,0,0,1,.38.65c0,.19-.06.33-.15.33s-.11,0-.19-.14a5.21,5.21,0,0,0-.72-.69,9.13,9.13,0,0,0-1.08-.75Z"/><path class="cls-1" d="M234.08,72.33l1.29-.62h.13v4.47a2,2,0,0,0,0,.55.25.25,0,0,0,.15.17,1.41,1.41,0,0,0,.48.07v.14h-2V77a1.39,1.39,0,0,0,.49-.07.31.31,0,0,0,.15-.15,2,2,0,0,0,0-.57V73.32a3.75,3.75,0,0,0,0-.74.31.31,0,0,0-.09-.19.28.28,0,0,0-.18-.06,1.07,1.07,0,0,0-.4.13Z"/><path class="cls-1" d="M241.3,71.71v.14a2.24,2.24,0,0,0-.84.21,2.27,2.27,0,0,0-.65.47,3,3,0,0,0-.53.7,4.53,4.53,0,0,0-.35.93,2,2,0,0,1,1.13-.39,1.19,1.19,0,0,1,.94.44,1.57,1.57,0,0,1,.4,1.12,2,2,0,0,1-.4,1.21,1.52,1.52,0,0,1-1.28.67,1.28,1.28,0,0,1-.92-.36,2.38,2.38,0,0,1-.75-1.82,3.31,3.31,0,0,1,.29-1.35,3.56,3.56,0,0,1,.81-1.13,2.83,2.83,0,0,1,1-.67,2.55,2.55,0,0,1,.9-.17Zm-2.43,2.73a6.23,6.23,0,0,0-.07.85,2.57,2.57,0,0,0,.14.82,1.57,1.57,0,0,0,.41.69.65.65,0,0,0,.48.19.79.79,0,0,0,.61-.32,1.4,1.4,0,0,0,.27-.92,2.33,2.33,0,0,0-.27-1.15.82.82,0,0,0-.75-.49,1,1,0,0,0-.32.06A2.91,2.91,0,0,0,238.87,74.44Z"/><path class="cls-1" d="M244.52,74.46a8.06,8.06,0,0,0,1.65-1.87,6,6,0,0,0,.82-1.7l.4.14c.41.14.48.17.48.23s-.09.1-.39.14a7.86,7.86,0,0,1-1.33,1.91,7,7,0,0,1-1.56,1.25Zm3.52-.27a5.53,5.53,0,0,1-.61,2,3.86,3.86,0,0,1-1.58,1.48,5.13,5.13,0,0,1-.92.4l-.06-.11A4.53,4.53,0,0,0,247,75.84a5.39,5.39,0,0,0,.42-1.65h-1a4.62,4.62,0,0,0-.64.06l-.05-.3a4.27,4.27,0,0,0,.68.06h3.41a3.17,3.17,0,0,1,.34-.3,3.59,3.59,0,0,1,.49.35c.07,0,.09.08.09.12s-.06.1-.28.21a10.73,10.73,0,0,1-.42,3.15c-.16.34-.45.44-1.4.47a.41.41,0,0,0-.25-.41,4.42,4.42,0,0,0-.95-.22v-.15a17.25,17.25,0,0,0,1.79.17c.31,0,.4-.13.5-.75a21.31,21.31,0,0,0,.18-2.46Zm1-3.27a.56.56,0,0,0,0,.2,4.23,4.23,0,0,0,1.22,1.56,5,5,0,0,0,1.81.93v.1a.87.87,0,0,0-.65.55A6.62,6.62,0,0,1,249.93,73a6.42,6.42,0,0,1-1-1.56,1,1,0,0,0-.25-.37Z"/><path class="cls-1" d="M257.39,71.44h.39l-2.71,7.08h-.4Z"/><path class="cls-1" d="M265,75a3.74,3.74,0,0,0,.56,1.09,3.43,3.43,0,0,0,.86-.77l.55.25c.1.06.16.11.16.15s0,0,0,.07-.06,0-.37,0a6.51,6.51,0,0,1-.8.64,4.31,4.31,0,0,0,1.63.88c.13-.31.41-1,.59-1.45l.1,0L268,77.12a1.67,1.67,0,0,0,0,.24c0,.06,0,.11.13.17s.15.13.15.22-.12.23-.3.23a4.71,4.71,0,0,1-1.67-.61,4.45,4.45,0,0,1-.84-.64,9.22,9.22,0,0,1-1.58.69,8.6,8.6,0,0,1-2.67.47l0-.13A10.77,10.77,0,0,0,264,77a9.85,9.85,0,0,0,1.16-.62,4.09,4.09,0,0,1-.68-1.37h-2.1v.46c0,.08,0,.09-.08.11l-.32,0c-.13,0-.18,0-.18-.08h0c0-.7,0-1,0-1.54,0-1.34,0-1.76,0-2.17.27.15.35.21.62.37h1.77c0-1,0-1,0-1.35.69.07.88.11.88.19s-.06.1-.3.2v1h1.88a4.12,4.12,0,0,1,.35-.37l.5.37c.06,0,.08.08.08.12s0,.08-.27.2v1c0,.6,0,.86,0,1.52h0c0,.08,0,.1-.07.11a1.25,1.25,0,0,1-.38,0c-.09,0-.11,0-.12-.06V75Zm-.77-1.52c0-.23,0-.6,0-1.12h-1.82v1.12Zm.19,1.33a6.79,6.79,0,0,1-.18-1.14h-1.87v1.14Zm2.29-2.45h-2c0,.42,0,.61,0,1.12h2Zm0,1.31h-1.95a5.66,5.66,0,0,0,.19,1.14h1.76Z"/><path class="cls-1" d="M275.61,74.43c.18-.27.23-.35.42-.6l.76.6a.16.16,0,0,1,0,.1.09.09,0,0,1-.09.09h-1.47v.68c0,.09,0,.32,0,.64,0,.57,0,.57,0,1.49a.5.5,0,0,1-.31.46,1.79,1.79,0,0,1-.69.19c-.15-.43-.22-.47-1.15-.62v-.13l.8,0,.62,0c.14,0,.18-.06.18-.16l0-2.63H273.3v1c0,1,0,1,0,1.33,0,.13-.09.16-.36.16h-.08c-.09,0-.13,0-.14-.11,0-.4,0-.78,0-1.38v-1H271.5a4.22,4.22,0,0,1-.36,1.76,3.84,3.84,0,0,1-1.39,1.7l-.09-.07a4.6,4.6,0,0,0,1.15-2.12,6.21,6.21,0,0,0,.16-1.27h-.61a5.6,5.6,0,0,0-.75,0l0-.3a5.15,5.15,0,0,0,.86.07H271c0-.41,0-1.21,0-1.84a8.15,8.15,0,0,0,0-.88,3.67,3.67,0,0,1,.67.39h.84a5.69,5.69,0,0,0,.37-1.3c.38.08.78.15.86.19a.08.08,0,0,1,.07.08c0,.08,0,.09-.39.17-.44.57-.44.57-.69.86h1.88l.34-.36.5.33c.08.07.11.09.11.12s0,0-.3.28l0,2Zm-.9-2.15h-3.15c0,.92,0,1.55-.05,2.15h3.21Zm-2.36.36a4.42,4.42,0,0,1,1.29.69.55.55,0,0,1,.13.39c0,.25-.08.42-.19.42s-.13,0-.26-.27a3.92,3.92,0,0,0-.6-.79,2.08,2.08,0,0,0-.43-.36Z"/><path class="cls-1" d="M278.53,75.6a3,3,0,0,1,0,.37,2.47,2.47,0,0,1-.16,1c-.11.23-.23.37-.35.37s-.16-.16-.16-.4a.36.36,0,0,1,.17-.35,1.28,1.28,0,0,0,.36-1Zm2.07-3.13.33-.39c.24.19.31.26.54.47,0,0,0,.06,0,.07s0,0-.09,0h-1.19v1h.34c.16-.18.2-.23.37-.4a5.88,5.88,0,0,1,.51.48l0,0s0,0-.1,0h-1.15v1.06h.51l.32-.3.38.35c.05.07.07.1.07.12s0,.07-.26.19a6.65,6.65,0,0,1-.36,2.29,1.09,1.09,0,0,1-.37.34,2,2,0,0,1-.57.11c-.05-.36-.11-.4-.89-.59l0-.13c.4.06,1.05.14,1.23.14s.2-.11.27-.39a9,9,0,0,0,.2-1.94H279v.17c0,.09-.08.12-.34.12s-.16,0-.16-.09v0c0-.72,0-1,0-2,0-1.46,0-1.78,0-2.22a4.76,4.76,0,0,1,.54.34h1.56l.36-.46a6.31,6.31,0,0,1,.62.54.27.27,0,0,1,0,.07s0,0-.1,0h-1.27v1Zm-1.69,3.09a1.84,1.84,0,0,1,.38,1c0,.15-.17.39-.29.39s-.1-.06-.1-.18v-.05c0-.25,0-.38,0-.45a2.21,2.21,0,0,0-.11-.66Zm.86-4H279v1h.79ZM279,72.66v1h.79v-1Zm0,1.14v1.06h.79V73.8Zm.43,1.64a1.66,1.66,0,0,1,.58.86c0,.16-.13.37-.23.37s-.08,0-.09-.11a3,3,0,0,0-.34-1.07Zm.55-.11c.37.32.57.57.57.73s-.12.34-.22.34-.06,0-.07-.1,0-.18-.08-.32a1.84,1.84,0,0,0-.27-.59ZM282.39,74a8.34,8.34,0,0,1-.28,2.17,5.29,5.29,0,0,1-.63,1.38,2.67,2.67,0,0,1-.47.53l-.08-.07a5.2,5.2,0,0,0,.79-2,17.32,17.32,0,0,0,.19-2.45c0-1.55,0-2.18,0-2.57l.6.39h1.79l.32-.34a5.7,5.7,0,0,1,.44.37c.07,0,.09.08.09.12s0,0-.28.18v2.17c0,.24,0,.24,0,.45v0c0,.1-.1.13-.43.13-.1,0-.12,0-.13-.09V74h-1a3.81,3.81,0,0,0,.51,1.77,4.08,4.08,0,0,0,1,1.18,2.49,2.49,0,0,0,.69.38v.12c-.31.06-.36.11-.6.49a3.66,3.66,0,0,1-1.06-1.24,5.46,5.46,0,0,1-.67-2c0-.18,0-.28-.06-.66Zm1.91-.19V71.51h-1.88c0,.25,0,.48,0,.6,0,.56,0,1,0,1.69Z"/><path class="cls-1" d="M289.57,71.25a2.22,2.22,0,0,1,.64.1c.27.07.4.18.4.34s0,.06-.06.22a4.1,4.1,0,0,0-.16,1.16v.15a.27.27,0,0,0,.21.09,2.56,2.56,0,0,0,1.22-.48c.09-.06.13-.08.18-.08a.9.9,0,0,1,.34.1c.13.07.17.12.17.19s-.11.19-.47.32a3.47,3.47,0,0,1-1.12.25.69.69,0,0,1-.53-.2v.35c0,.63,0,1.57.09,2.09a5.06,5.06,0,0,1,1.68.58.77.77,0,0,1,.5.69c0,.19-.06.3-.16.3a.29.29,0,0,1-.19-.1,4.33,4.33,0,0,0-1.8-1c0,.38,0,.38,0,.52a.79.79,0,0,1-.56.8,2.81,2.81,0,0,1-.82.11c-.84,0-1.37-.33-1.37-.87,0-.38.28-.68.78-.88a3.4,3.4,0,0,1,1.16-.19h.3c-.05-3.21-.05-3.21-.11-3.75s-.18-.59-.7-.68A.49.49,0,0,1,289.57,71.25Zm-.17,4.92c-.83,0-1.42.28-1.42.68s.33.5.9.5a1.33,1.33,0,0,0,1-.33c.1-.12.12-.29.12-.84Z"/><path class="cls-1" d="M298,78a4.23,4.23,0,0,0,1.27-1.12,4.34,4.34,0,0,0,.84-2.69,3.72,3.72,0,0,0-.3-1.65.64.64,0,0,0-.56-.35c-.4,0-.77.34-1.06,1a4.52,4.52,0,0,0-.38,1.72,4.15,4.15,0,0,0,0,.49v.17c0,.15-.07.24-.2.24-.31,0-.51-.65-.51-1.64a9.49,9.49,0,0,1,.26-2.14,3.92,3.92,0,0,0,.09-.58c0-.26-.11-.41-.43-.57l.14,0a1.24,1.24,0,0,1,.64.26c.22.16.31.29.31.45a.44.44,0,0,1-.11.3,5.69,5.69,0,0,0-.58,2.39c0,.07,0,.15,0,.29h0a4.49,4.49,0,0,1,.92-2.09,1.31,1.31,0,0,1,1-.47c.77,0,1.31.94,1.31,2.27a4,4,0,0,1-.87,2.62A4,4,0,0,1,298,78.14Z"/><path class="cls-1" d="M304.65,74.44a5.87,5.87,0,0,1-1,1l-.11-.1a7.78,7.78,0,0,0,1.14-1.46c.12-.2.36-.65.47-.88a2.79,2.79,0,0,0,.15-.42c.66.23.88.34.87.39s-.16.12-.31.12h-.09a8.36,8.36,0,0,1-.79,1.06c.38.05.5.08.5.15s0,.09-.27.17v2.16c0,.13,0,.43,0,.87v.23c0,.07,0,.16,0,.29v0a.09.09,0,0,1-.05.1,2.78,2.78,0,0,1-.4,0c-.09,0-.11,0-.12-.09,0-.54,0-.57,0-2.12Zm-1-1.45a7.32,7.32,0,0,0,1.17-1.42,3.32,3.32,0,0,0,.43-.85l.39.18c.32.13.44.21.44.26s-.08.1-.38.11a6.93,6.93,0,0,1-.85.94,6.6,6.6,0,0,1-1.08.9Zm6.36.63c.18-.25.23-.32.42-.55.32.25.41.33.72.59a.14.14,0,0,1,.06.09s0,0-.1,0h-2.48v1.3h1c.18-.24.25-.31.43-.53.3.25.39.33.68.6a.15.15,0,0,1,0,.06s0,.06-.1.06h-2.08v1.88a6.12,6.12,0,0,0,1.4.12,9.47,9.47,0,0,0,1.2-.08v.12a.62.62,0,0,0-.48.53l-.61,0a3.4,3.4,0,0,1-2.21-.54A4.09,4.09,0,0,1,306.76,76a5.2,5.2,0,0,1-1.33,2.12l-.11-.08a6.14,6.14,0,0,0,.88-1.78,7.33,7.33,0,0,0,.27-1.73s0-.12,0-.24c.74.11.91.15.91.24s0,.08-.33.16a10.09,10.09,0,0,1-.2,1.08A3,3,0,0,0,308.06,77V73.8h-1.74a3.07,3.07,0,0,0-.59,0l-.07-.3a2.65,2.65,0,0,0,.7.07h1.7V72.3h-1.33a2.18,2.18,0,0,0-.5,0l-.06-.31a2,2,0,0,0,.56.07h1.33v-.68a4.74,4.74,0,0,0-.06-.63c.71.08.88.13.88.23s-.08.1-.29.16v.92h1.1c.18-.24.24-.32.42-.53l.68.59a.12.12,0,0,1,0,.08s0,0-.08,0h-2.16v1.32Z"/><path class="cls-1" d="M312.39,76.5A7.11,7.11,0,0,0,313.7,75a2.65,2.65,0,0,0,.47-.92c.74.29.85.35.85.42s-.09.1-.37.11a6.66,6.66,0,0,1-2.19,2Zm4-2v1.17c0,.44-.22.61-1,.76-.05-.27-.09-.34-.22-.41a2.16,2.16,0,0,0-.74-.15v-.12c.79,0,.81,0,1.24.06.13,0,.16,0,.16-.09v-2h-2.65a2.78,2.78,0,0,0-.66,0l0-.32a2.56,2.56,0,0,0,.78.08H314V72.15a4.53,4.53,0,0,0,0-.71c.76.08.88.11.88.19s-.09.11-.32.18v1.7h1.34v-1.9c0-.3,0-.44,0-.74l.36,0c.39,0,.5.07.5.14s-.08.1-.3.18v.94h1.28c.22-.26.28-.34.5-.58.32.27.42.36.73.66a.09.09,0,0,1,0,0s0,0-.08,0h-2.46v1.15h2c.22-.28.3-.36.52-.61a10.41,10.41,0,0,1,.81.68.09.09,0,0,1,0,.06s0,.06-.09.06h-3.29Zm-3.76,3.53a8.63,8.63,0,0,0,3.2-1.15,5.06,5.06,0,0,0,1.73-1.71c.54.29.74.42.74.48s-.08.09-.2.09h-.18a6.59,6.59,0,0,1-1.33,1.19,7.81,7.81,0,0,1-3.93,1.26Zm4.5-3.89a7.21,7.21,0,0,1,1.73.7.7.7,0,0,1,.37.65c0,.19-.06.33-.15.33s-.11,0-.19-.14a5.21,5.21,0,0,0-.72-.69,8.38,8.38,0,0,0-1.08-.75Z"/><path class="cls-1" d="M323.46,72.33l1.29-.62h.13v4.47a2,2,0,0,0,0,.55.28.28,0,0,0,.15.17,1.41,1.41,0,0,0,.48.07v.14h-2V77a1.32,1.32,0,0,0,.48-.07.25.25,0,0,0,.15-.15,1.85,1.85,0,0,0,.05-.57V73.32a4.81,4.81,0,0,0,0-.74.31.31,0,0,0-.1-.19.27.27,0,0,0-.17-.06,1.1,1.1,0,0,0-.41.13Z"/><path class="cls-1" d="M330.68,71.71v.14a2.35,2.35,0,0,0-.84.21,2.41,2.41,0,0,0-.65.47,3,3,0,0,0-.52.7,4,4,0,0,0-.35.93,2,2,0,0,1,1.13-.39,1.22,1.22,0,0,1,.94.44,1.61,1.61,0,0,1,.4,1.12,2,2,0,0,1-.41,1.21,1.52,1.52,0,0,1-1.28.67,1.28,1.28,0,0,1-.92-.36,2.4,2.4,0,0,1-.74-1.82,3.3,3.3,0,0,1,.28-1.35,3.6,3.6,0,0,1,.82-1.13,2.81,2.81,0,0,1,1-.67,2.63,2.63,0,0,1,.9-.17Zm-2.43,2.73a6.23,6.23,0,0,0-.07.85,2.88,2.88,0,0,0,.14.82,1.57,1.57,0,0,0,.41.69.67.67,0,0,0,.49.19.79.79,0,0,0,.6-.32,1.4,1.4,0,0,0,.27-.92,2.44,2.44,0,0,0-.26-1.15.83.83,0,0,0-.76-.49,1,1,0,0,0-.32.06A2.91,2.91,0,0,0,328.25,74.44Z"/><path class="cls-1" d="M333.9,74.46a7.62,7.62,0,0,0,1.65-1.87,6,6,0,0,0,.82-1.7l.4.14c.41.14.48.17.48.23s-.09.1-.38.14a8.15,8.15,0,0,1-1.34,1.91A7,7,0,0,1,334,74.56Zm3.52-.27a5.53,5.53,0,0,1-.61,2,3.89,3.89,0,0,1-1.57,1.48,5.61,5.61,0,0,1-.93.4l-.06-.11a4.44,4.44,0,0,0,2.15-2.16,5.12,5.12,0,0,0,.42-1.65h-1a4.62,4.62,0,0,0-.63.06l-.06-.3a4.39,4.39,0,0,0,.69.06h3.4c.15-.14.19-.18.34-.3a3.06,3.06,0,0,1,.49.35c.07,0,.09.08.09.12s-.05.1-.28.21a10.73,10.73,0,0,1-.42,3.15c-.16.34-.45.44-1.39.47a.42.42,0,0,0-.26-.41,4.23,4.23,0,0,0-.95-.22v-.15a16.94,16.94,0,0,0,1.78.17c.31,0,.4-.13.51-.75a21.73,21.73,0,0,0,.17-2.46Zm1-3.27a.56.56,0,0,0,0,.2,4.26,4.26,0,0,0,1.23,1.56,5,5,0,0,0,1.8.93v.1c-.33.08-.45.2-.65.55A6.55,6.55,0,0,1,339.32,73a6.13,6.13,0,0,1-1-1.56,1,1,0,0,0-.26-.37Z"/><path class="cls-1" d="M346.47,71.56l-1.92,5.66h-.31l1.92-5.66Z"/><path class="cls-1" d="M349.3,76.42a9.66,9.66,0,0,0,1.22-2.16,9.22,9.22,0,0,0,.49-1.41,7.17,7.17,0,0,1,.85.31c.05,0,.07,0,.07.08s-.1.14-.35.14h0a10,10,0,0,1-1,1.81,6.45,6.45,0,0,1-1.12,1.31Zm3.42-4.6a6.41,6.41,0,0,0,0-.85c.95.13,1,.14,1,.25s-.09.14-.36.21v3.82c0,.34,0,1,0,1.91,0,.52-.23.67-1.09.81,0-.43-.19-.52-1.33-.73V77.1a15.9,15.9,0,0,0,1.69.14c.1,0,.12,0,.12-.14Zm1.66,1.09a11.32,11.32,0,0,1,1.56,1.65c.38.49.51.74.51,1,0,.43-.14.83-.29.83s-.12-.07-.18-.27a14.73,14.73,0,0,0-.74-1.71,7.64,7.64,0,0,0-1-1.45Z"/><path class="cls-1" d="M360.18,72.63c.18-.22.22-.28.41-.48a6.53,6.53,0,0,1,.61.56.09.09,0,0,1,0,.06s0,0-.1,0h-1.2v.69c.84.53,1.11.8,1.11,1.09s-.12.52-.24.52-.1,0-.14-.14a4.16,4.16,0,0,0-.73-1.31c0,2.17,0,2.78,0,4.26,0,.11-.06.13-.48.13-.08,0-.1,0-.1-.09l.05-2.92.09-1.41a9.32,9.32,0,0,1-.71,1.59,6.1,6.1,0,0,1-.76,1.09l-.08,0a12,12,0,0,0,1-2.12,12.22,12.22,0,0,0,.38-1.33h-.6a3.37,3.37,0,0,0-.55,0l0-.28a2.27,2.27,0,0,0,.59.07h.72v-.76a5.83,5.83,0,0,0,0-1c.85.1.9.1.9.18s-.11.12-.34.2v1.36ZM364,75.37c0,1.35,0,1.35,0,2,0,.27-.05.38-.18.49a1.53,1.53,0,0,1-.74.27c-.11-.45-.19-.49-1.11-.62v-.13l.76,0,.54,0h0c.09,0,.12,0,.12-.13V72.81h-1.55a4.29,4.29,0,0,0-.55,0l0-.3a1.79,1.79,0,0,0,.59.08h1.55V72c0-.56,0-.77,0-1.16.78.1.94.14.94.22s-.05.1-.35.18v1.36h.16a5.4,5.4,0,0,1,.43-.52c.29.25.39.33.67.6,0,0,0,0,0,.06s0,0-.06,0H364Zm-2.62-1.74c.87.7,1.37,1.27,1.37,1.59a1,1,0,0,1-.18.49c-.06.08-.12.12-.17.12s-.12,0-.16-.21a5,5,0,0,0-.31-.84,6.24,6.24,0,0,0-.63-1.08Z"/><path class="cls-1" d="M371,72.67a15.43,15.43,0,0,0-.05-1.82,6.56,6.56,0,0,1,.83.1c.05,0,.08.06.08.09s-.07.1-.31.19v1.44h.87l.44-.58a8.53,8.53,0,0,1,.73.65.11.11,0,0,1,0,.05s0,.06-.07.06h-2l0,2.15h1.06c.23-.27.3-.36.52-.64.33.3.43.39.75.7a.15.15,0,0,1,0,.06s0,.06-.08.06h-2.28c0,1.84,0,1.84,0,2.6,0,.07,0,.09,0,.11a1.42,1.42,0,0,1-.47,0c-.08,0-.12,0-.13-.1,0-1.22,0-1.93,0-2.12v-.54h-1.93a3.17,3.17,0,0,1-.8,1.72A3.88,3.88,0,0,1,366.67,78l-.07-.1a3.77,3.77,0,0,0,1.46-1.35,3.7,3.7,0,0,0,.46-1.33h-.78a9.79,9.79,0,0,0-1.14.06l0-.31a8.91,8.91,0,0,0,1.18.07h.8a11.63,11.63,0,0,0,.08-1.38v-.77h-.54a10.18,10.18,0,0,0-1.28.06l0-.32a11.47,11.47,0,0,0,1.31.08h.55c0-.26,0-.48,0-.6a9.39,9.39,0,0,0,0-1.22c.91.1,1,.11,1,.19s-.06.1-.36.21v1.42Zm-1.8.18a12.21,12.21,0,0,1-.09,2.15H371V72.85Z"/><path class="cls-1" d="M375.57,75.6a3,3,0,0,1,0,.37,2.47,2.47,0,0,1-.16,1c-.11.23-.23.37-.35.37s-.16-.16-.16-.4a.36.36,0,0,1,.17-.35,1.28,1.28,0,0,0,.36-1Zm2.07-3.13.33-.39c.24.19.31.26.54.47,0,0,0,.06,0,.07s0,0-.09,0h-1.19v1h.34c.16-.18.2-.23.37-.4.23.2.3.27.51.48l0,0s0,0-.1,0h-1.15v1.06h.51l.31-.3.39.35c0,.07.07.1.07.12s0,.07-.26.19a6.65,6.65,0,0,1-.36,2.29,1.09,1.09,0,0,1-.37.34A2,2,0,0,1,377,78c-.05-.36-.11-.4-.89-.59l0-.13c.4.06,1.05.14,1.23.14s.2-.11.26-.39a8.3,8.3,0,0,0,.21-1.94H376v.17c0,.09-.08.12-.34.12s-.16,0-.16-.09v0c0-.72,0-1,0-2,0-1.46,0-1.78,0-2.22a4.76,4.76,0,0,1,.54.34h1.56l.36-.46a6.31,6.31,0,0,1,.62.54.27.27,0,0,1,0,.07s0,0-.1,0h-1.27v1ZM376,75.56a1.84,1.84,0,0,1,.38,1c0,.15-.17.39-.29.39s-.1-.06-.1-.18v-.05c0-.25,0-.38,0-.45a2.21,2.21,0,0,0-.11-.66Zm.85-4H376v1h.78ZM376,72.66v1h.78v-1Zm0,1.14v1.06h.78V73.8Zm.43,1.64a1.66,1.66,0,0,1,.58.86c0,.16-.13.37-.23.37s-.08,0-.09-.11a3,3,0,0,0-.34-1.07Zm.55-.11c.37.32.57.57.57.73s-.13.34-.22.34-.06,0-.07-.1,0-.18-.08-.32a1.84,1.84,0,0,0-.27-.59ZM379.43,74a8.34,8.34,0,0,1-.28,2.17,5.29,5.29,0,0,1-.63,1.38,2.67,2.67,0,0,1-.47.53L378,78a5.06,5.06,0,0,0,.8-2A17.32,17.32,0,0,0,379,73.5c0-1.55,0-2.18,0-2.57l.59.39h1.8l.32-.34.44.37c.07,0,.09.08.09.12s0,0-.29.18c0,.19,0,.34,0,.46v.33c0,.3,0,.59,0,.87,0,.07,0,.13,0,.51s0,.24,0,.45v0c0,.1-.11.13-.43.13-.1,0-.12,0-.13-.09V74h-1a3.81,3.81,0,0,0,.51,1.77,4.08,4.08,0,0,0,1,1.18,2.49,2.49,0,0,0,.69.38v.12c-.31.06-.36.11-.6.49a3.66,3.66,0,0,1-1.06-1.24,5.46,5.46,0,0,1-.67-2l-.07-.66Zm1.91-.19V71.51h-1.88c0,.25,0,.48,0,.6,0,.56,0,1,0,1.69Z"/><path class="cls-1" d="M386.61,71.25a2.22,2.22,0,0,1,.64.1c.27.07.4.18.4.34s0,.06-.06.22a4.1,4.1,0,0,0-.16,1.16v.15a.27.27,0,0,0,.21.09,2.56,2.56,0,0,0,1.22-.48c.09-.06.13-.08.18-.08a.9.9,0,0,1,.34.1c.13.07.17.12.17.19s-.11.19-.47.32a3.47,3.47,0,0,1-1.12.25.69.69,0,0,1-.53-.2v.35c0,.63,0,1.57.09,2.09a5.06,5.06,0,0,1,1.68.58.77.77,0,0,1,.5.69c0,.19-.06.3-.16.3a.29.29,0,0,1-.19-.1,4.33,4.33,0,0,0-1.8-1c0,.38,0,.38,0,.52a.79.79,0,0,1-.56.8,2.81,2.81,0,0,1-.82.11c-.84,0-1.37-.33-1.37-.87,0-.38.28-.68.78-.88a3.4,3.4,0,0,1,1.16-.19h.3c-.05-3.21-.05-3.21-.11-3.75s-.18-.59-.7-.68A.49.49,0,0,1,386.61,71.25Zm-.17,4.92c-.83,0-1.42.28-1.42.68s.33.5.9.5a1.33,1.33,0,0,0,1-.33c.1-.12.12-.29.12-.84Z"/><path class="cls-1" d="M395,78a4.23,4.23,0,0,0,1.27-1.12,4.34,4.34,0,0,0,.84-2.69,3.72,3.72,0,0,0-.3-1.65.64.64,0,0,0-.56-.35c-.4,0-.77.34-1.06,1a4.52,4.52,0,0,0-.38,1.72,4.15,4.15,0,0,0,0,.49v.17c0,.15-.07.24-.2.24-.31,0-.51-.65-.51-1.64a9.49,9.49,0,0,1,.26-2.14,3.92,3.92,0,0,0,.09-.58c0-.26-.12-.41-.44-.57l.15,0a1.24,1.24,0,0,1,.64.26c.22.16.31.29.31.45a.5.5,0,0,1-.11.3,5.69,5.69,0,0,0-.58,2.39c0,.07,0,.15,0,.29h0a4.49,4.49,0,0,1,.92-2.09,1.31,1.31,0,0,1,1-.47c.77,0,1.31.94,1.31,2.27a4,4,0,0,1-.87,2.62,4,4,0,0,1-1.77,1.26Z"/><path class="cls-1" d="M401.69,74.44a5.87,5.87,0,0,1-1,1l-.11-.1a7.78,7.78,0,0,0,1.14-1.46c.12-.2.36-.65.47-.88a2.79,2.79,0,0,0,.15-.42c.66.23.88.34.87.39s-.16.12-.31.12h-.09A8.36,8.36,0,0,1,402,74.1c.38.05.5.08.5.15s0,.09-.27.17v2.16c0,.13,0,.43,0,.87v.23c0,.07,0,.16,0,.29v0a.09.09,0,0,1-.05.1,2.78,2.78,0,0,1-.4,0c-.09,0-.11,0-.12-.09,0-.54,0-.57,0-2.12Zm-1-1.45a7.32,7.32,0,0,0,1.17-1.42,3.32,3.32,0,0,0,.43-.85l.39.18c.32.13.44.21.44.26s-.08.1-.38.11a6.93,6.93,0,0,1-.85.94,6.6,6.6,0,0,1-1.08.9Zm6.36.63c.18-.25.23-.32.42-.55.32.25.41.33.72.59a.14.14,0,0,1,.06.09s0,0-.1,0h-2.48v1.3h1c.18-.24.25-.31.43-.53.3.25.39.33.68.6a.15.15,0,0,1,0,.06s0,.06-.1.06h-2.08v1.88a6.12,6.12,0,0,0,1.4.12,9.47,9.47,0,0,0,1.2-.08v.12a.62.62,0,0,0-.48.53l-.61,0a3.4,3.4,0,0,1-2.21-.54A4.09,4.09,0,0,1,403.8,76a5.2,5.2,0,0,1-1.33,2.12l-.11-.08a6.14,6.14,0,0,0,.88-1.78,7.33,7.33,0,0,0,.27-1.73s0-.12,0-.24c.74.11.91.15.91.24s0,.08-.33.16a10.09,10.09,0,0,1-.2,1.08A3,3,0,0,0,405.1,77V73.8h-1.74a3.07,3.07,0,0,0-.59,0l-.07-.3a2.7,2.7,0,0,0,.7.07h1.7V72.3h-1.33a2.18,2.18,0,0,0-.5,0l-.06-.31a2,2,0,0,0,.56.07h1.33v-.68a4.74,4.74,0,0,0-.06-.63c.71.08.88.13.88.23s-.08.1-.29.16v.92h1.1c.18-.24.24-.32.42-.53l.68.59a.12.12,0,0,1,0,.08s0,0-.08,0h-2.16v1.32Z"/><path class="cls-1" d="M409.43,76.5A7.41,7.41,0,0,0,410.74,75a2.59,2.59,0,0,0,.46-.92c.75.29.86.35.86.42s-.09.1-.37.11a6.76,6.76,0,0,1-2.19,2Zm4-2v.39c0,.15,0,.15,0,.78,0,.44-.22.61-1,.76-.05-.27-.09-.34-.22-.41a2.16,2.16,0,0,0-.74-.15v-.12c.79,0,.81,0,1.24.06.13,0,.16,0,.16-.09v-2h-2.65a2.78,2.78,0,0,0-.66,0l-.05-.32a2.56,2.56,0,0,0,.78.08H411V72.15a4.74,4.74,0,0,0,0-.71c.76.08.88.11.88.19s-.09.11-.32.18v1.7h1.34v-1.9c0-.3,0-.44,0-.74l.36,0c.39,0,.5.07.5.14s-.08.1-.31.18v.94h1.29c.22-.26.28-.34.5-.58.32.27.42.36.73.66a.09.09,0,0,1,0,0s0,0-.08,0h-2.47v1.15h2a7.91,7.91,0,0,1,.52-.61,10.41,10.41,0,0,1,.81.68.09.09,0,0,1,0,.06s0,.06-.09.06h-3.3Zm-3.75,3.53a8.63,8.63,0,0,0,3.2-1.15,5.06,5.06,0,0,0,1.73-1.71c.54.29.74.42.74.48s-.08.09-.2.09h-.18a6.59,6.59,0,0,1-1.33,1.19,7.81,7.81,0,0,1-3.93,1.26Zm4.5-3.89a7.21,7.21,0,0,1,1.73.7.7.7,0,0,1,.37.65c0,.19-.06.33-.15.33s-.11,0-.19-.14a5.21,5.21,0,0,0-.72-.69,8.38,8.38,0,0,0-1.08-.75Z"/><path class="cls-1" d="M420.42,71.77h2.84v.15l-1.77,5.26h-.44l1.59-4.77h-1.46a1.36,1.36,0,0,0-.63.1,1.31,1.31,0,0,0-.53.56l-.11,0Z"/><path class="cls-1" d="M426.37,74.46A7.62,7.62,0,0,0,428,72.59a6,6,0,0,0,.82-1.7l.4.14c.41.14.48.17.48.23s-.08.1-.38.14A8.45,8.45,0,0,1,428,73.31a7.43,7.43,0,0,1-1.56,1.25Zm3.52-.27a5.35,5.35,0,0,1-.61,2,3.83,3.83,0,0,1-1.57,1.48,5.61,5.61,0,0,1-.93.4l0-.11a4.53,4.53,0,0,0,2.15-2.16,5.42,5.42,0,0,0,.41-1.65h-1a4.62,4.62,0,0,0-.64.06l-.06-.3a4.39,4.39,0,0,0,.69.06h3.41c.14-.14.19-.18.33-.3a3.7,3.7,0,0,1,.5.35c.06,0,.08.08.08.12s0,.1-.28.21a10.73,10.73,0,0,1-.42,3.15c-.16.34-.45.44-1.39.47a.42.42,0,0,0-.26-.41,4.23,4.23,0,0,0-.95-.22v-.15a17.18,17.18,0,0,0,1.78.17c.31,0,.4-.13.51-.75a19.6,19.6,0,0,0,.17-2.46Zm1-3.27a.4.4,0,0,0,0,.2,4.12,4.12,0,0,0,1.22,1.56,4.92,4.92,0,0,0,1.81.93v.1a.87.87,0,0,0-.64.55A6.62,6.62,0,0,1,431.79,73a6.13,6.13,0,0,1-1-1.56,1,1,0,0,0-.26-.37Z"/><path class="cls-1" d="M206,44.12h3.43c.37-.41.48-.56.86-1,.36.32.79.67,1.27,1.07a.16.16,0,0,1,.08.12.11.11,0,0,1-.1.1H206v2.51c0,1.32,0,2.27,0,3.44,0,.21-.18.26-.64.28h-.15c-.2,0-.29-.08-.3-.25.05-.7.06-1.62.06-3.47V44.42h-3.56a12,12,0,0,0-1.65.07l-.09-.51a12.19,12.19,0,0,0,1.74.14H205V41a26.57,26.57,0,0,1-4.35.52l0-.21A37.91,37.91,0,0,0,206,40a9.43,9.43,0,0,0,2.56-1c.87.62,1.18.88,1.18,1s-.07.09-.16.09a2.9,2.9,0,0,1-.57-.09,22.91,22.91,0,0,1-3,.86Z"/><path class="cls-1" d="M220.55,46.84a6.48,6.48,0,0,0-.06-.9c1.17.14,1.38.2,1.38.34s-.09.14-.48.26v.56h3.54a10.45,10.45,0,0,1,.8-.83c.52.4.68.53,1.17.95a.3.3,0,0,1,.07.11s-.05.07-.13.07h-5.29a7,7,0,0,0,1.27.87,10.84,10.84,0,0,0,4.56,1.14v.2c-.53.13-.71.3-1,.92a11.94,11.94,0,0,1-3.14-1.36,6.06,6.06,0,0,1-1.87-1.66v1.08c0,.69,0,.69.05,1.95,0,.21-.11.25-.61.25-.27,0-.32,0-.32-.18,0-1.35,0-1.35,0-1.94v-.84A10.79,10.79,0,0,1,218,49.59a12.6,12.6,0,0,1-2.88,1.07l-.06-.17a15.13,15.13,0,0,0,3.2-1.73,10.38,10.38,0,0,0,1.58-1.36h-3.23a6.23,6.23,0,0,0-1.15.09l-.06-.5a4.75,4.75,0,0,0,1.21.11h3.9Zm0-4.32c0-.58,0-.74,0-1.19,1.25.18,1.32.19,1.32.32s-.06.12-.46.23v.64h2.15c0-.48,0-.66,0-1.19a6.11,6.11,0,0,1,1.23.2c.08,0,.13.08.13.13s-.1.15-.5.24v.62h.86c.29-.34.39-.44.7-.78.49.38.63.5,1.12.91a.14.14,0,0,1,0,.11s0,.06-.12.06h-2.61c0,1,0,1,0,1.69v0c0,.13-.13.17-.57.17-.21,0-.27,0-.27-.1V44.3h-2.15v.3c0,.15-.09.17-.58.17-.24,0-.28,0-.28-.14,0-.6,0-.6,0-1.81H218.4v2.55h6.25l.78-.77c.5.37.65.48,1.1.87.05.06.07.09.07.12s0,.08-.13.08H218.4v.15c0,.17-.08.2-.56.2-.29,0-.31,0-.31-.14,0-1.43,0-1.43,0-2.56v-.5h-1.22a7,7,0,0,0-1.06.08l-.06-.51a4.33,4.33,0,0,0,1.17.13h1.17c0-.65,0-.77,0-1.19l1,.15c.26,0,.32.08.32.16s-.12.17-.48.24v.64Zm-1.65-3a6.55,6.55,0,0,0,0-.72c1.37.18,1.37.18,1.37.31s-.1.16-.52.28v.69h2.6v-.5a6.78,6.78,0,0,0,0-.79c1.3.18,1.41.21,1.41.34s-.16.18-.56.27v.68h1.78c.36-.41.48-.53.83-.88.53.42.69.55,1.21,1,.05,0,.07.08.07.11s-.06.07-.15.07h-3.74v.19c0,.13,0,.29,0,.53s-.08.17-.64.17c-.18,0-.2,0-.2-.14,0-.36,0-.47,0-.75h-2.6v.78c0,.15-.11.17-.53.17s-.32,0-.32-.14,0-.46,0-.81h-2.27a7.28,7.28,0,0,0-1.21.08l-.08-.48a6.13,6.13,0,0,0,1.29.11h2.27Zm2.47,3.31V44h2.15V42.82Z"/><path class="cls-1" d="M237,42.92a10.4,10.4,0,0,0,1.53,3.36,9.31,9.31,0,0,0,2.75,2.55,6.15,6.15,0,0,0,1.7.73l0,.18c-.72.09-.91.23-1.18.87a8.75,8.75,0,0,1-2.22-1.83,11.09,11.09,0,0,1-2.09-3.41,13.59,13.59,0,0,1-.64-2.2A8.46,8.46,0,0,1,235,47.76a9.67,9.67,0,0,1-2.62,2.17,10.82,10.82,0,0,1-1.69.77l-.11-.18A13.35,13.35,0,0,0,233,48.87a8.85,8.85,0,0,0,3-5.95h-3.77a5.64,5.64,0,0,0-1.21.1l-.08-.5a6.8,6.8,0,0,0,1.34.11h3.74c.06-.77.1-1.77.1-2.56a4.79,4.79,0,0,0-.07-.9c1.51.14,1.62.15,1.62.31s-.17.23-.56.36c-.05,1.51-.08,2-.15,2.79h3.66c.31-.46.41-.6.75-1a16.53,16.53,0,0,1,1.29,1.09c.05.05.08.09.08.12s-.07.11-.15.11Z"/><path class="cls-1" d="M256.2,46.28c.34-.43.46-.57.84-1,.52.45.67.6,1.18,1.08a.24.24,0,0,1,0,.13s-.06.09-.15.09h-5.35V48.1c0,.56,0,.94,0,1.75a.76.76,0,0,1-.47.75,2.93,2.93,0,0,1-1.13.28c-.15-.7-.22-.74-2.05-1v-.19c1,.08,1.08.08,2.46.14.17,0,.21,0,.21-.18v-3h-4.35a9.25,9.25,0,0,0-1.07.05l-.08-.46a5.19,5.19,0,0,0,1.12.11h4.38v-.22c0-.26,0-.34,0-1.07.26,0,.59.09,1,.17a7.93,7.93,0,0,0,1.38-1.56h-4.56a5,5,0,0,0-.94.07l-.08-.46a5.15,5.15,0,0,0,1,.09h4.67l.57-.58c.41.3.54.39.91.69.12.09.17.15.17.22s-.15.17-.66.2a13.68,13.68,0,0,1-2.12,1.41c.12,0,.17.08.17.14s-.13.16-.51.24v.66Zm.2-4.59A8,8,0,0,1,257,41c.46.31.61.4,1.06.75.13.09.18.16.18.22s-.22.24-.8.25c-.26.27-.26.27-.65.71-.25.28-.25.28-.52.55l-.13,0a7.25,7.25,0,0,0,.36-1.47h-8.49a3,3,0,0,1-.57,1.73.93.93,0,0,1-.57.4c-.09,0-.18-.06-.23-.21a1.53,1.53,0,0,1-.15-.53c0-.18.07-.27.39-.52a2.58,2.58,0,0,0,.91-1.91h.25c0,.39,0,.47,0,.74h5.87a11.22,11.22,0,0,0,1.41-2.59c1.23.48,1.36.55,1.36.67s-.16.19-.36.19h-.29a16.11,16.11,0,0,1-1.79,1.74Zm-7.62-2.44a8.15,8.15,0,0,1,1.24.92.77.77,0,0,1,.31.54,1.35,1.35,0,0,1-.28.75.23.23,0,0,1-.19.1c-.13,0-.18-.08-.31-.44a6.29,6.29,0,0,0-.9-1.77Zm2.65-.3c1.12.82,1.59,1.3,1.59,1.63a1.68,1.68,0,0,1-.25.72.32.32,0,0,1-.27.17c-.16,0-.2-.07-.33-.53a4.81,4.81,0,0,0-.88-1.88Z"/><path class="cls-1" d="M264.73,48.59a5.09,5.09,0,0,0-1,.09l-.08-.48a5.13,5.13,0,0,0,1.08.09h2.65v-.58c0-.27,0-.51-.05-1.05,1.08.1,1.39.17,1.39.31s-.14.18-.52.27v1h2.67c.35-.36.44-.48.74-.81.49.4.64.53,1.1.94a.21.21,0,0,1,.06.08s-.07.09-.12.09H268.2V50h3.85c.38-.43.5-.56.86-.95.53.43.7.57,1.21,1,.06,0,.09.09.09.13s-.07.1-.12.1H263.38a6.49,6.49,0,0,0-1.26.11l-.11-.55a5.64,5.64,0,0,0,1.37.15h4V48.59Zm3.42-4.82h2.9c.33-.32.43-.43.72-.73l1,.83s.07.09.07.12-.07.08-.13.08h-4.53v1.1H272l.77-.79c.5.37.66.48,1.14.89.07,0,.09.07.09.11s-.09.09-.18.09H263.37a5.72,5.72,0,0,0-1.06.12l-.1-.53a4.91,4.91,0,0,0,1.16.11h4v-1.1h-2.95a3.61,3.61,0,0,0-1,.09l-.1-.51a3.66,3.66,0,0,0,1.08.12h2.95V42.65h-2.87v.29c0,.17-.13.21-.64.21-.14,0-.19,0-.2-.16.05-.78.06-1.16.06-1.83,0-.86,0-1.52-.06-2.17l.92.53H271c.24-.26.24-.26.47-.53l.72.53c.1.09.15.14.15.18s-.11.17-.45.35v.47c0,.42,0,.6,0,2.2a.21.21,0,0,1-.1.18,3.72,3.72,0,0,1-.6.05c-.08,0-.12,0-.14-.12v-.18h-3Zm-3.82,2.08a3.09,3.09,0,0,1-.7,1.64,1.43,1.43,0,0,1-.89.57c-.18,0-.3-.22-.3-.55a.47.47,0,0,1,.41-.53,2,2,0,0,0,1.32-1.17Zm3.05-6h-2.87v1.09h2.87Zm0,1.39h-2.87v1.14h2.87Zm-1.53,4.48a2.6,2.6,0,0,1,.83,1.34c0,.33-.31.77-.54.77s-.15-.08-.15-.25a6.52,6.52,0,0,0-.27-1.78Zm5.27-4.78V39.82h-3v1.09Zm-3,1.44h3V41.21h-3Zm.7,3.28c.78.7,1.1,1.12,1.1,1.44s-.34.7-.55.7-.18-.09-.22-.49a4.07,4.07,0,0,0-.47-1.57Zm2.5.09c1.51.77,2,1.14,2,1.59s-.24.75-.42.75-.17-.06-.37-.51a7,7,0,0,0-1.33-1.7Z"/><path class="cls-1" d="M279.36,50.24c0,.12,0,.16-.13.2a2.54,2.54,0,0,1-.54.05c-.18,0-.23,0-.23-.21,0-1.1,0-3.71,0-6.87,0-1.47,0-3.24-.07-3.77a5.7,5.7,0,0,1,1.1.56h7.77c.25-.29.33-.38.59-.64l.85.64a.21.21,0,0,1,.11.18c0,.1-.07.15-.5.37v2.7c0,2.63,0,4.94.1,6.76,0,.18-.2.24-.67.24-.22,0-.3,0-.31-.19v-1h-8.1ZM283,44.33V40.49h-3.61v3.84Zm0,.31h-3.61V49H283Zm4.49-4.15h-3.64v3.84h3.64Zm-3.64,4.15V49h3.64V44.64Z"/><path class="cls-1" d="M297.22,50.22a7,7,0,0,0,2.5-2.65,10.14,10.14,0,0,0,.72-4.18,21.67,21.67,0,0,0-2.9.39v.45c0,.05,0,.55,0,1.48,0,0,0,.22,0,.49a2.13,2.13,0,0,1,0,.33c0,.46-.12.71-.34.71s-.67-.65-.67-1a.63.63,0,0,1,.07-.26,2.29,2.29,0,0,0,.14-.62c0-.13,0-.6.06-1.39a6.79,6.79,0,0,0-1.68.5,1.46,1.46,0,0,1-.48.15c-.41,0-1.17-.9-1.17-1.38a.24.24,0,0,1,0-.12,1.39,1.39,0,0,0,1.06.61c.15,0,.54,0,.91-.1l.86-.14a2.72,2.72,0,0,1,.43-.08,8.58,8.58,0,0,0-.18-1.76,1.27,1.27,0,0,0-.43-.6l-.37-.2a.3.3,0,0,1,.29-.11,2.46,2.46,0,0,1,1.11.41c.31.18.45.37.45.59a1,1,0,0,1-.05.29,5,5,0,0,0-.12,1.27c1.11-.15,1.11-.15,2.91-.35,0-.32,0-.37,0-.83,0-1-.06-1.43-.22-1.65a1.51,1.51,0,0,0-.89-.48.91.91,0,0,1,.51-.15,3.34,3.34,0,0,1,1.23.3c.3.13.46.32.46.51a.46.46,0,0,1-.07.23,6.72,6.72,0,0,0-.24,2,4.3,4.3,0,0,0,1.57-.27.68.68,0,0,1,.36-.09c.43,0,1.17.49,1.17.77a.24.24,0,0,1-.27.23h-.23a13.06,13.06,0,0,0-1.52-.11h-.49l-.61,0c-.07,2.44-.31,3.6-.89,4.57a6.67,6.67,0,0,1-3,2.46Z"/><path class="cls-1" d="M311.09,50.24A9.34,9.34,0,0,0,313,47.18a8.72,8.72,0,0,0,.63-2.66.65.65,0,0,0-.33-.63,10.21,10.21,0,0,0-2.88.82.91.91,0,0,1-.42.13,1.6,1.6,0,0,1-1-.75,1.32,1.32,0,0,1-.27-.57,1,1,0,0,1,.06-.24,1.22,1.22,0,0,0,1.09.62,12.58,12.58,0,0,0,2.22-.32c.79-.13,2.26-.32,4-.49a5.39,5.39,0,0,0,1-.22.84.84,0,0,1,.33-.06,1.6,1.6,0,0,1,.68.19c.36.17.62.42.62.6s-.15.26-.37.26a1.13,1.13,0,0,1-.32,0,12.74,12.74,0,0,0-2.1-.17,15.42,15.42,0,0,0-2.13.13c.6.34.85.6.85.9a8.08,8.08,0,0,1-.82,2.55,7.72,7.72,0,0,1-2.58,3.17Zm-.25-10a2,2,0,0,0,1.55.7,6.72,6.72,0,0,0,2.74-.64.87.87,0,0,1,.39-.1c.34,0,.89.43.89.69s-.16.23-.68.35a19.78,19.78,0,0,1-3,.34,2.21,2.21,0,0,1-2.11-1.21Z"/><path class="cls-1" d="M325.88,50.11a14.88,14.88,0,0,0,3-2.89,12.44,12.44,0,0,0,2.18-4,21.93,21.93,0,0,0-3.78.6,6.15,6.15,0,0,0-1.35.4.67.67,0,0,1-.39.12c-.46,0-1.2-.94-1.2-1.51a.29.29,0,0,1,.08-.22,1.25,1.25,0,0,0,1.13.75c.51,0,2.7-.27,4.39-.56a2.44,2.44,0,0,0,1.07-.29.4.4,0,0,1,.21-.08c.11,0,.31.13.61.39s.52.54.52.71a.48.48,0,0,1-.2.33c-.18.13-.26.24-.48.67A12.65,12.65,0,0,1,326,50.27Zm-.16-10.06a1.68,1.68,0,0,0,1.39.7,8.27,8.27,0,0,0,2.93-.62.6.6,0,0,1,.28-.08c.36,0,1,.46,1,.72s-.12.23-.49.28a23.5,23.5,0,0,1-3.32.34c-1,0-1.36-.25-2-1.22Z"/><path class="cls-1" d="M337.77,46.76a21.93,21.93,0,0,0,4.88-3.69c1.29-1.26,2.12-2.32,2.12-2.69s-.2-.46-.72-.74a.5.5,0,0,1,.26-.06,1.94,1.94,0,0,1,1.11.39c.45.3.68.6.68.85s0,.14-.52.57c-.13.11-.13.11-1.05,1a20.12,20.12,0,0,1-1.55,1.4c.51.38.73.58.79.73a11.46,11.46,0,0,1,.09,1.91c0,.91,0,1.74.07,2.49,0,.28,0,.66,0,.74,0,.45-.09.65-.3.65s-.88-.72-.88-1.1c0-.09,0-.09.08-.33a18.59,18.59,0,0,0,.23-3.2,5.51,5.51,0,0,0-.08-1.24c0-.13-.09-.19-.28-.4a24.66,24.66,0,0,1-2.5,1.78,15.08,15.08,0,0,1-2.34,1.13Z"/><path class="cls-1" d="M355.55,39.56a2.53,2.53,0,0,1,1,.22c.55.21.86.47.86.71,0,.09,0,.09-.08.29a10.13,10.13,0,0,0-.23,2.83,12.45,12.45,0,0,1,3,.73c.58.28.8.54.8,1s-.11.6-.31.6-.14,0-.48-.31a7.54,7.54,0,0,0-3.05-1.69c0,.82,0,1.22,0,1.61v1.9c0,.39,0,.39,0,1.48,0,.27,0,.5,0,.69a.82.82,0,0,1-.07.44.28.28,0,0,1-.23.12c-.31,0-.83-.7-.83-1.13a1.05,1.05,0,0,1,.06-.37,28.08,28.08,0,0,0,.27-5.62,19.27,19.27,0,0,0-.09-2.24,1.32,1.32,0,0,0-1-1.16A.49.49,0,0,1,355.55,39.56Z"/><path class="cls-1" d="M368,42.48a2.23,2.23,0,0,0,1.33.44,8,8,0,0,0,2.24-.49,6.43,6.43,0,0,0-.66-2c-.21-.3-.43-.4-1.05-.46a.89.89,0,0,1,.75-.24,4.57,4.57,0,0,1,1.05.13c.33.09.51.24.51.45a.66.66,0,0,1,0,.13,1.76,1.76,0,0,0-.06.4,7.58,7.58,0,0,0,.16,1.37,7.49,7.49,0,0,0,2-.88c.17-.15.21-.16.33-.16a1.76,1.76,0,0,1,.61.13c.19.08.29.18.29.3s-.17.3-.73.48c-1.47.48-1.6.52-2.34.74.11.66.27,1.39.44,2.07a19.74,19.74,0,0,0,2-.61,4.47,4.47,0,0,0,.83-.38.4.4,0,0,1,.26-.09c.52,0,1.16.31,1.16.56a.24.24,0,0,1-.15.21,4.57,4.57,0,0,1-.91.13,21.07,21.07,0,0,0-3.05.69c.43,1.72.74,2.93.93,3.64a2.65,2.65,0,0,1,.15.76c0,.3-.11.44-.3.44s-1-.71-1-1.06l0-.18c0-.08,0-.26,0-.33a18.61,18.61,0,0,0-.5-3.07,15,15,0,0,0-2.69,1.07,1.21,1.21,0,0,1-.57.22c-.48,0-1.38-.78-1.38-1.18a.41.41,0,0,1,0-.16,1.41,1.41,0,0,0,1,.48,8.14,8.14,0,0,0,2.41-.61c.12,0,.35-.12,1.11-.34-.16-.7-.37-1.63-.49-2.08a7.47,7.47,0,0,1-2.14.45,2.32,2.32,0,0,1-1.68-.81Z"/><path class="cls-1" d="M388.1,46.34a10.76,10.76,0,0,0,1.78-2.3s0,0-.06,0a20.83,20.83,0,0,0-3.2.89c.29,1.2.94,3.69,1.2,4.57a1.64,1.64,0,0,1,.09.48c0,.21-.09.33-.26.33a1.12,1.12,0,0,1-.51-.34.85.85,0,0,1-.36-.64.62.62,0,0,1,0-.13V49a28,28,0,0,0-.73-4,5.24,5.24,0,0,1-.68.25,10.25,10.25,0,0,0-1,.48.78.78,0,0,1-.38.15c-.24,0-.54-.24-.82-.63a1.22,1.22,0,0,1-.3-.64.29.29,0,0,1,.06-.18,1.2,1.2,0,0,0,1,.56,10.6,10.6,0,0,0,2.08-.51c-.47-1.87-.6-2.06-1.43-2.26.11-.15.21-.18.56-.18a2.81,2.81,0,0,1,1.17.3.36.36,0,0,1,.18.31.46.46,0,0,1,0,.18,1.79,1.79,0,0,0,0,.24,6.52,6.52,0,0,0,.17,1.26c.23-.08.23-.08.89-.26l1.33-.39a3,3,0,0,0,1-.42.57.57,0,0,1,.23-.08c.16,0,.43.19.84.52s.37.38.37.52-.05.2-.4.32c-.13,0-.13,0-1.39,1-.4.31-.7.53-1.21.87Z"/><path class="cls-1" d="M397.45,41.14a7.46,7.46,0,0,1,2.51,1,1,1,0,0,1,.44.88c0,.43-.14.73-.36.73s-.21-.06-.56-.52a6.91,6.91,0,0,0-2.12-1.91Zm9.24.74a13.37,13.37,0,0,1-2.73,3.5,25.4,25.4,0,0,1-3.65,3,3.94,3.94,0,0,0-.77.59c-.2.25-.28.32-.45.32-.54,0-1.52-1.25-1.52-1.91a.69.69,0,0,1,.06-.27,2,2,0,0,0,.47.58.87.87,0,0,0,.52.27,3.24,3.24,0,0,0,1.26-.55A19,19,0,0,0,403,45.24a20.11,20.11,0,0,0,3.49-3.47Z"/><path class="cls-1" d="M410.29,48.28a13.32,13.32,0,0,0,3.2-3.6,2.79,2.79,0,0,0,.53-1.29c0-.2-.18-.41-.65-.74a1,1,0,0,1,.29,0,2.46,2.46,0,0,1,1.07.44c.44.3.62.5.62.7a.35.35,0,0,1-.16.29,2.56,2.56,0,0,0-.54.6,12.64,12.64,0,0,1-2.73,2.85,7.78,7.78,0,0,1-1.52.94Zm7-5.71a12.06,12.06,0,0,1,3.42,3,2.19,2.19,0,0,1,.55,1.39c0,.54-.21.95-.5.95s-.23-.07-.43-.59a11.4,11.4,0,0,0-3.18-4.61Zm4.33-1.28a1.43,1.43,0,0,1-1.42,1.43,1.44,1.44,0,0,1-1.43-1.43,1.43,1.43,0,0,1,2.85,0Zm-2.42,0a1,1,0,0,0,1,1,1,1,0,1,0-1-1Z"/><path class="cls-1" d="M425.7,49.36a18.78,18.78,0,0,0,3.5-2.85,23.68,23.68,0,0,0,2.48-3.23,8.78,8.78,0,0,0,.88-1.68,13.94,13.94,0,0,0-2.74.57,6.7,6.7,0,0,0-1.09.35.57.57,0,0,1-.22,0c-.29,0-.56-.23-.85-.74a1.61,1.61,0,0,1-.27-.78.47.47,0,0,1,.09-.26c.38.68.65.87,1.22.87a21.42,21.42,0,0,0,2.73-.36,3.24,3.24,0,0,0,1.22-.37.52.52,0,0,1,.3-.11c.28,0,1,.66,1,.91,0,.09-.06.16-.17.24-.28.19-.28.19-.74.89-.63.93-.63.93-1.64,2.26a12.67,12.67,0,0,1,3.37,2.2,1.7,1.7,0,0,1,.49,1.28c0,.42-.13.68-.35.68a.42.42,0,0,1-.3-.21,3.45,3.45,0,0,1-.31-.52,11.05,11.05,0,0,0-3.1-3.18,14.12,14.12,0,0,1-3.14,2.92,11.66,11.66,0,0,1-2.28,1.28Z"/><line class="cls-2" x1="159.97" y1="33.88" x2="159.97" y2="82.44"/><polygon class="cls-1" points="57.66 58.28 52.47 55.29 52.47 61.28 57.66 58.28"/><path class="cls-1" d="M34.55,47.67v2.08h1A.68.68,0,0,0,36,49.6a1,1,0,0,0,.21-.58h.14v1.79h-.14a1.21,1.21,0,0,0-.08-.45.58.58,0,0,0-.22-.22,1,1,0,0,0-.4-.07h-1v1.67a2,2,0,0,0,.05.53.35.35,0,0,0,.16.16.7.7,0,0,0,.36.1h.2v.14H33v-.14h.19a.59.59,0,0,0,.48-.19,1.27,1.27,0,0,0,.09-.6V48.31a1.9,1.9,0,0,0,0-.53.42.42,0,0,0-.16-.17.74.74,0,0,0-.36-.09H33v-.14H37L37,48.54H36.9a1.53,1.53,0,0,0-.24-.54.75.75,0,0,0-.33-.26,1.88,1.88,0,0,0-.61-.07Z"/><path class="cls-1" d="M39.06,49v.8c.3-.53.6-.8.92-.8a.52.52,0,0,1,.36.13.42.42,0,0,1,.14.3.4.4,0,0,1-.1.26.34.34,0,0,1-.25.11.51.51,0,0,1-.3-.14.51.51,0,0,0-.26-.13.25.25,0,0,0-.15.07,2.09,2.09,0,0,0-.36.53v1.72a1.09,1.09,0,0,0,.07.45.42.42,0,0,0,.18.17.76.76,0,0,0,.37.07v.14H37.85v-.14a.87.87,0,0,0,.41-.08.43.43,0,0,0,.14-.2,3.06,3.06,0,0,0,0-.38V50.48c0-.42,0-.66,0-.74a.38.38,0,0,0-.09-.18.34.34,0,0,0-.17-.05.74.74,0,0,0-.28.06l0-.14L38.9,49Z"/><path class="cls-1" d="M42.31,49v2.87a1.35,1.35,0,0,0,0,.45.34.34,0,0,0,.14.17.92.92,0,0,0,.35.05v.14H41.11v-.14a.75.75,0,0,0,.36-.05.35.35,0,0,0,.14-.17,1.35,1.35,0,0,0,0-.45V50.49a5.86,5.86,0,0,0,0-.76.3.3,0,0,0-.09-.17.25.25,0,0,0-.16-.05.83.83,0,0,0-.27.06l0-.14L42.14,49ZM42,47.12a.39.39,0,0,1,.28.11.38.38,0,0,1,.12.28.41.41,0,0,1-.4.4.39.39,0,0,1-.39-.4.38.38,0,0,1,.39-.39Z"/><path class="cls-1" d="M44.45,51.92a.41.41,0,0,1,.43.43.42.42,0,0,1-.13.31.41.41,0,0,1-.3.12.45.45,0,0,1-.31-.12.46.46,0,0,1-.13-.31.44.44,0,0,1,.13-.31A.45.45,0,0,1,44.45,51.92Z"/><path class="cls-1" d="M99.22,47.17V49h-.14a2.27,2.27,0,0,0-.25-.83,1.39,1.39,0,0,0-.52-.5,1.49,1.49,0,0,0-.7-.18,1,1,0,0,0-.67.24.76.76,0,0,0-.26.57.66.66,0,0,0,.16.44,4.32,4.32,0,0,0,1.16.78,9.06,9.06,0,0,1,1,.61,1.54,1.54,0,0,1,.42.5,1.47,1.47,0,0,1,.14.61,1.38,1.38,0,0,1-.46,1,1.68,1.68,0,0,1-1.2.43,3,3,0,0,1-.44,0,4.65,4.65,0,0,1-.5-.15,2.2,2.2,0,0,0-.48-.12.21.21,0,0,0-.16.06.59.59,0,0,0-.08.24h-.14V50.9h.14a2.73,2.73,0,0,0,.27.85,1.36,1.36,0,0,0,.53.47,1.66,1.66,0,0,0,.77.19,1.13,1.13,0,0,0,.78-.26.78.78,0,0,0,.17-1,1.16,1.16,0,0,0-.33-.38c-.1-.07-.38-.24-.83-.49a8.35,8.35,0,0,1-1-.61,1.71,1.71,0,0,1-.44-.5,1.21,1.21,0,0,1-.15-.6,1.3,1.3,0,0,1,.44-1,1.54,1.54,0,0,1,1.12-.42,2.21,2.21,0,0,1,.89.21.86.86,0,0,0,.31.1.21.21,0,0,0,.16-.06.49.49,0,0,0,.11-.25Z"/><path class="cls-1" d="M103.79,49v2.17a5.34,5.34,0,0,0,0,.76.34.34,0,0,0,.09.19.24.24,0,0,0,.15.06.61.61,0,0,0,.28-.07l0,.14-1.07.44h-.17v-.76a3,3,0,0,1-.71.63,1,1,0,0,1-.51.13.85.85,0,0,1-.52-.17.94.94,0,0,1-.31-.45,3,3,0,0,1-.08-.77v-1.6a.7.7,0,0,0-.06-.35.29.29,0,0,0-.16-.15.77.77,0,0,0-.39-.05V49h1.26v2.4c0,.33,0,.55.17.65a.6.6,0,0,0,.42.16.89.89,0,0,0,.38-.11,2.11,2.11,0,0,0,.51-.4v-2a.54.54,0,0,0-.12-.41.68.68,0,0,0-.46-.11V49Z"/><path class="cls-1" d="M106.1,49.67a1.68,1.68,0,0,1,1.2-.76.92.92,0,0,1,.5.14,1,1,0,0,1,.34.49,2.42,2.42,0,0,1,.08.71v1.53a1.16,1.16,0,0,0,.06.46.29.29,0,0,0,.13.16,1,1,0,0,0,.36.05v.14H107v-.14h.07a.58.58,0,0,0,.35-.08.38.38,0,0,0,.14-.22,2.11,2.11,0,0,0,0-.37V50.32a1.54,1.54,0,0,0-.13-.71.46.46,0,0,0-.43-.22,1.26,1.26,0,0,0-.92.51v1.88a1.37,1.37,0,0,0,0,.45.42.42,0,0,0,.15.17,1,1,0,0,0,.39.05v.14h-1.77v-.14H105a.44.44,0,0,0,.37-.14,1.06,1.06,0,0,0,.09-.53V50.45a5.5,5.5,0,0,0,0-.78.34.34,0,0,0-.09-.19.21.21,0,0,0-.16,0,.73.73,0,0,0-.26.06l-.06-.15,1.08-.43h.17Z"/><path class="cls-1" d="M110.2,51.83a.42.42,0,0,1,.31.13.4.4,0,0,1,.13.31.38.38,0,0,1-.13.3.4.4,0,0,1-.31.13.44.44,0,0,1-.43-.43.39.39,0,0,1,.13-.31A.42.42,0,0,1,110.2,51.83Z"/><path class="cls-1" d="M18.85,58.05l5.56-2.71H25V74.63A10.67,10.67,0,0,0,25.12,77a1.27,1.27,0,0,0,.67.72,5.54,5.54,0,0,0,2.05.29v.62H19.25V78a5.77,5.77,0,0,0,2.09-.28,1.36,1.36,0,0,0,.66-.66,9.08,9.08,0,0,0,.18-2.46V62.3A18.85,18.85,0,0,0,22,59.09a1.4,1.4,0,0,0-.43-.79,1.15,1.15,0,0,0-.75-.25,4.43,4.43,0,0,0-1.74.52Z"/><path class="cls-1" d="M36.25,67.15a16.06,16.06,0,0,1-3.5-3.57,5.54,5.54,0,0,1-.78-2.8A5.05,5.05,0,0,1,33.69,57a6.35,6.35,0,0,1,4.56-1.61,6.44,6.44,0,0,1,4.45,1.5,4.49,4.49,0,0,1,1.68,3.42,4.61,4.61,0,0,1-.91,2.61A13.21,13.21,0,0,1,39.68,66a21.38,21.38,0,0,1,3.93,3.61,6,6,0,0,1,1.28,3.62,5.42,5.42,0,0,1-1.84,4.12,6.78,6.78,0,0,1-4.82,1.71,6.46,6.46,0,0,1-5.07-2,5.06,5.06,0,0,1-.42-6.58A14.56,14.56,0,0,1,36.25,67.15Zm.79.64A7.83,7.83,0,0,0,35,70.36a6.74,6.74,0,0,0-.68,3,5,5,0,0,0,1.19,3.48,3.91,3.91,0,0,0,3,1.31,4.11,4.11,0,0,0,2.92-1,3.3,3.3,0,0,0,1.09-2.49,3.82,3.82,0,0,0-.64-2.18A23.73,23.73,0,0,0,37,67.79Zm1.85-2.45a11.92,11.92,0,0,0,2.56-2.87A5.12,5.12,0,0,0,42,60.09a3.77,3.77,0,0,0-1-2.77,3.64,3.64,0,0,0-2.71-1,4,4,0,0,0-2.8,1,3.07,3.07,0,0,0-1.08,2.32,3.77,3.77,0,0,0,.45,1.75,6.12,6.12,0,0,0,1.27,1.67Z"/><path class="cls-1" d="M94.24,74.26l-1.6,4.39H79.16V78a60.32,60.32,0,0,0,8.37-8.86A11.2,11.2,0,0,0,90,62.88a5,5,0,0,0-1.33-3.57,4.25,4.25,0,0,0-3.18-1.39,5,5,0,0,0-3,1,5.77,5.77,0,0,0-2,2.89h-.62A7.82,7.82,0,0,1,82,57a6,6,0,0,1,4.36-1.67A6.44,6.44,0,0,1,91,57.12a5.66,5.66,0,0,1,1.86,4.22A8.18,8.18,0,0,1,92,64.81a22.85,22.85,0,0,1-4,5.77c-2.8,3.06-4.54,4.9-5.24,5.53h6A16.16,16.16,0,0,0,91.27,76a3.48,3.48,0,0,0,1.32-.54,3.83,3.83,0,0,0,1-1.17Z"/><path class="cls-1" d="M96.21,67.37a17.5,17.5,0,0,1,1.17-6.73,9.5,9.5,0,0,1,3.14-4.21,5.27,5.27,0,0,1,3.13-1.09A6,6,0,0,1,108.37,58Q111,61.33,111,67a17.66,17.66,0,0,1-1.15,6.76,8.89,8.89,0,0,1-2.92,4,6,6,0,0,1-3.43,1.26q-3.27,0-5.44-3.86A15.74,15.74,0,0,1,96.21,67.37Zm3.3.42a21.42,21.42,0,0,0,1.16,7.7c.64,1.67,1.59,2.51,2.86,2.51a3,3,0,0,0,1.89-.82,5.19,5.19,0,0,0,1.48-2.74,33,33,0,0,0,.78-8.17,22.36,22.36,0,0,0-.81-6.52A5.77,5.77,0,0,0,105.3,57a2.57,2.57,0,0,0-1.67-.56,2.62,2.62,0,0,0-2,1,8.55,8.55,0,0,0-1.65,4.4A39.58,39.58,0,0,0,99.51,67.79Z"/><path class="cls-1" d="M.25,68.11A.27.27,0,0,1,.07,68a.26.26,0,0,1,0-.35L30.61,37.15a.25.25,0,0,1,.35.35L.43,68A.27.27,0,0,1,.25,68.11Z"/><path class="cls-1" d="M7.39,40.77a3.69,3.69,0,0,1,2.7,1.07,3.76,3.76,0,0,1,1.09,2.81,5,5,0,0,1-.6,2.44A5.1,5.1,0,0,1,8.63,49,7,7,0,0,1,6,50v.5H6.5A6.37,6.37,0,0,1,9.08,51a6.79,6.79,0,0,1,2,1.22,4.44,4.44,0,0,1,1,1.43,5.89,5.89,0,0,1,.52,1.74L15,53a5.83,5.83,0,0,0-1-2.33,6.79,6.79,0,0,0-3.19-2.36Q14,45.61,14,43.12a4.37,4.37,0,0,0-1.11-2.85,5.14,5.14,0,0,0-4.21-1.79,5.55,5.55,0,0,0-3.72,1.26A9.31,9.31,0,0,0,2.47,43.3l.56.27C4.2,41.71,5.65,40.77,7.39,40.77Z"/><path class="cls-1" d="M3,61.63a5.59,5.59,0,0,0,2.81.56l1.57-1.57L7,60.55a8.92,8.92,0,0,1-1.4-.63,10,10,0,0,0-1.29-.62,3,3,0,0,0-.86-.13,1.36,1.36,0,0,0-1,.37,1.15,1.15,0,0,0-.39.86A1.57,1.57,0,0,0,3,61.63Z"/><path class="cls-1" d="M63.15,68.19a.23.23,0,0,1-.17-.07.25.25,0,0,1,0-.36L93.51,37.23a.25.25,0,0,1,.36,0,.26.26,0,0,1,0,.35L63.33,68.12A.24.24,0,0,1,63.15,68.19Z"/><path class="cls-1" d="M70.3,41.1A3.71,3.71,0,0,1,73,42.17,3.77,3.77,0,0,1,74.09,45a5.11,5.11,0,0,1-.61,2.45,5,5,0,0,1-2,1.9,6.85,6.85,0,0,1-2.67,1v.5h.54a6.5,6.5,0,0,1,2.58.55,7.08,7.08,0,0,1,2,1.22,4.68,4.68,0,0,1,1,1.43,6.73,6.73,0,0,1,.52,1.75l2.44-2.44a5.89,5.89,0,0,0-1-2.34,6.73,6.73,0,0,0-3.18-2.35q3.14-2.67,3.13-5.16a4.39,4.39,0,0,0-1.11-2.85,5.14,5.14,0,0,0-4.21-1.78,5.59,5.59,0,0,0-3.71,1.25,9.25,9.25,0,0,0-2.47,3.57l.55.26A5.11,5.11,0,0,1,70.3,41.1Z"/><path class="cls-1" d="M65.86,62a5.47,5.47,0,0,0,2.8.56l1.57-1.57-.3-.06a8,8,0,0,1-1.4-.64,9.89,9.89,0,0,0-1.3-.61,2.92,2.92,0,0,0-.86-.14,1.36,1.36,0,0,0-1,.37,1.18,1.18,0,0,0-.4.86A1.56,1.56,0,0,0,65.86,62Z"/><path class="cls-1" d="M126.92,44.83l-.53,1.44H122v-.21a19.65,19.65,0,0,0,2.74-2.89,3.71,3.71,0,0,0,.79-2.05,1.62,1.62,0,0,0-.44-1.17,1.36,1.36,0,0,0-1-.46,1.64,1.64,0,0,0-1,.32,1.84,1.84,0,0,0-.65.95h-.2a2.58,2.58,0,0,1,.7-1.57,2,2,0,0,1,1.43-.54,2.08,2.08,0,0,1,1.51.58,1.84,1.84,0,0,1,.61,1.38,2.7,2.7,0,0,1-.26,1.13,7.56,7.56,0,0,1-1.33,1.89c-.91,1-1.48,1.6-1.71,1.81h2a4.88,4.88,0,0,0,.83,0,1.14,1.14,0,0,0,.44-.18,1,1,0,0,0,.33-.38Z"/><path class="cls-1" d="M129.26,42.58a5.66,5.66,0,0,1,.38-2.2,3.09,3.09,0,0,1,1-1.37,1.71,1.71,0,0,1,1-.36,1.94,1.94,0,0,1,1.54.88,4.6,4.6,0,0,1,.85,2.93,5.77,5.77,0,0,1-.37,2.21,2.93,2.93,0,0,1-1,1.32,2,2,0,0,1-1.12.41,2,2,0,0,1-1.77-1.26A5.13,5.13,0,0,1,129.26,42.58Zm1.08.14a7.11,7.11,0,0,0,.37,2.51c.21.55.53.82.94.82a1,1,0,0,0,.62-.27,1.66,1.66,0,0,0,.48-.89,10.83,10.83,0,0,0,.25-2.67,7.2,7.2,0,0,0-.26-2.13,1.91,1.91,0,0,0-.51-.9.85.85,0,0,0-.55-.18.86.86,0,0,0-.66.34,2.68,2.68,0,0,0-.54,1.44A12.62,12.62,0,0,0,130.34,42.72Z"/><path class="cls-1" d="M141.12,44.83l-.53,1.44h-4.4v-.21a19.65,19.65,0,0,0,2.74-2.89,3.71,3.71,0,0,0,.79-2.05,1.62,1.62,0,0,0-.44-1.17,1.36,1.36,0,0,0-1-.46,1.64,1.64,0,0,0-1,.32,1.84,1.84,0,0,0-.65.95h-.2a2.58,2.58,0,0,1,.7-1.57,2,2,0,0,1,1.43-.54,2.08,2.08,0,0,1,1.51.58,1.84,1.84,0,0,1,.61,1.38,2.7,2.7,0,0,1-.26,1.13,7.56,7.56,0,0,1-1.33,1.89c-.91,1-1.48,1.6-1.71,1.81h1.95a5.11,5.11,0,0,0,.84,0,1.16,1.16,0,0,0,.43-.18,1,1,0,0,0,.33-.38Z"/><path class="cls-1" d="M148.22,44.83l-.53,1.44h-4.4v-.21A19.65,19.65,0,0,0,146,43.17a3.71,3.71,0,0,0,.79-2.05,1.62,1.62,0,0,0-.44-1.17,1.36,1.36,0,0,0-1-.46,1.64,1.64,0,0,0-1,.32,1.84,1.84,0,0,0-.65.95h-.2a2.58,2.58,0,0,1,.7-1.57,2,2,0,0,1,1.43-.54,2.08,2.08,0,0,1,1.51.58,1.84,1.84,0,0,1,.61,1.38,2.7,2.7,0,0,1-.26,1.13,7.77,7.77,0,0,1-1.32,1.89c-.92,1-1.49,1.6-1.72,1.81h1.95a5.11,5.11,0,0,0,.84,0,1.16,1.16,0,0,0,.43-.18,1,1,0,0,0,.33-.38Z"/><path class="cls-1" d="M121.77,56.77l1.61-.79h.16v5.59a3.26,3.26,0,0,0,0,.7.41.41,0,0,0,.2.21,1.69,1.69,0,0,0,.59.08v.18h-2.49v-.18a1.69,1.69,0,0,0,.61-.08.44.44,0,0,0,.19-.19,2.51,2.51,0,0,0,0-.72V58a4.61,4.61,0,0,0,0-.93.39.39,0,0,0-.12-.23.32.32,0,0,0-.22-.07,1.28,1.28,0,0,0-.5.15Z"/><path class="cls-1" d="M128.07,56.77l1.61-.79h.16v5.59a3.26,3.26,0,0,0,0,.7.41.41,0,0,0,.2.21,1.69,1.69,0,0,0,.59.08v.18h-2.49v-.18a1.69,1.69,0,0,0,.61-.08.44.44,0,0,0,.19-.19,2.51,2.51,0,0,0,.05-.72V58a4.61,4.61,0,0,0-.05-.93.39.39,0,0,0-.12-.23.32.32,0,0,0-.22-.07,1.28,1.28,0,0,0-.5.15Z"/><path class="cls-1" d="M134.6,61a.49.49,0,0,1,.38.16.53.53,0,0,1,.16.39.55.55,0,0,1-.54.54.53.53,0,0,1-.39-.16.55.55,0,0,1-.16-.38.57.57,0,0,1,.16-.39A.53.53,0,0,1,134.6,61Zm0-3.66a.55.55,0,1,1-.39.16A.57.57,0,0,1,134.61,57.32Z"/><path class="cls-1" d="M137.63,59.47a5,5,0,0,1,.35-1.95,2.71,2.71,0,0,1,.9-1.22,1.57,1.57,0,0,1,.91-.32,1.72,1.72,0,0,1,1.37.78,4.07,4.07,0,0,1,.76,2.61,4.93,4.93,0,0,1-.34,2,2.57,2.57,0,0,1-.84,1.17,1.72,1.72,0,0,1-1,.37,1.83,1.83,0,0,1-1.57-1.12A4.51,4.51,0,0,1,137.63,59.47Zm1,.12a6.08,6.08,0,0,0,.34,2.23c.18.49.46.73.83.73a.88.88,0,0,0,.55-.24,1.55,1.55,0,0,0,.43-.79,10.21,10.21,0,0,0,.22-2.37,6.78,6.78,0,0,0-.23-1.89,1.63,1.63,0,0,0-.46-.79.72.72,0,0,0-.48-.17.76.76,0,0,0-.59.3,2.42,2.42,0,0,0-.48,1.28A11.13,11.13,0,0,0,138.59,59.59Z"/><path class="cls-1" d="M143.93,59.47a5,5,0,0,1,.35-1.95,2.71,2.71,0,0,1,.9-1.22,1.57,1.57,0,0,1,.91-.32,1.72,1.72,0,0,1,1.37.78,4.13,4.13,0,0,1,.76,2.61,4.93,4.93,0,0,1-.34,2,2.57,2.57,0,0,1-.84,1.17,1.72,1.72,0,0,1-1,.37,1.83,1.83,0,0,1-1.57-1.12A4.51,4.51,0,0,1,143.93,59.47Zm1,.12a6.08,6.08,0,0,0,.34,2.23c.18.49.46.73.83.73a.88.88,0,0,0,.55-.24,1.55,1.55,0,0,0,.43-.79,10.21,10.21,0,0,0,.22-2.37,6.78,6.78,0,0,0-.23-1.89,1.63,1.63,0,0,0-.46-.79.72.72,0,0,0-.48-.17.76.76,0,0,0-.59.3,2.42,2.42,0,0,0-.48,1.28A11.13,11.13,0,0,0,144.89,59.59Z"/><path class="cls-1" d="M121.77,73.09l1.61-.79h.16v5.59a2.43,2.43,0,0,0,0,.69.35.35,0,0,0,.19.21,1.62,1.62,0,0,0,.59.09v.18h-2.49v-.18a1.62,1.62,0,0,0,.61-.09.42.42,0,0,0,.19-.18,2.51,2.51,0,0,0,0-.72V74.32a5.84,5.84,0,0,0,0-.93.42.42,0,0,0-.13-.23.32.32,0,0,0-.22-.07,1.28,1.28,0,0,0-.5.15Z"/><path class="cls-1" d="M127.42,79.19V79a2.48,2.48,0,0,0,1.18-.29,3.17,3.17,0,0,0,1.06-1,4.38,4.38,0,0,0,.71-1.57,2.6,2.6,0,0,1-1.39.49,1.59,1.59,0,0,1-1.19-.53,2.05,2.05,0,0,1-.5-1.44,2.59,2.59,0,0,1,.5-1.55,1.85,1.85,0,0,1,1.57-.82,1.76,1.76,0,0,1,1.39.67,3.05,3.05,0,0,1,.71,2.06,4,4,0,0,1-.54,2.06,4.5,4.5,0,0,1-1.51,1.59,3.06,3.06,0,0,1-1.71.51Zm3-3.4a7.54,7.54,0,0,0,.09-1,4,4,0,0,0-.16-1,1.87,1.87,0,0,0-.46-.84.91.91,0,0,0-.67-.29,1,1,0,0,0-.76.39,1.75,1.75,0,0,0-.33,1.16,2.63,2.63,0,0,0,.43,1.61,1,1,0,0,0,.78.42,1.73,1.73,0,0,0,.54-.11A1.78,1.78,0,0,0,130.45,75.79Z"/><path class="cls-1" d="M134.6,77.3a.49.49,0,0,1,.38.16.51.51,0,0,1,.16.38.53.53,0,0,1-.16.39.55.55,0,0,1-.38.16.55.55,0,0,1-.55-.55.55.55,0,0,1,.16-.38A.53.53,0,0,1,134.6,77.3Zm0-3.66a.51.51,0,0,1,.38.16.49.49,0,0,1,.16.38.53.53,0,0,1-.16.39.54.54,0,0,1-.38.15.56.56,0,0,1-.39-.15.57.57,0,0,1-.16-.39.55.55,0,0,1,.55-.54Z"/><path class="cls-1" d="M137.63,75.79a5,5,0,0,1,.35-2,2.75,2.75,0,0,1,.9-1.21,1.51,1.51,0,0,1,.91-.32,1.72,1.72,0,0,1,1.37.78,4.06,4.06,0,0,1,.76,2.6,5.18,5.18,0,0,1-.33,2,2.66,2.66,0,0,1-.85,1.17,1.78,1.78,0,0,1-1,.36,1.82,1.82,0,0,1-1.57-1.11A4.51,4.51,0,0,1,137.63,75.79Zm1,.12a6.34,6.34,0,0,0,.34,2.23c.19.48.46.73.83.73a.86.86,0,0,0,.55-.24,1.59,1.59,0,0,0,.43-.79,10.21,10.21,0,0,0,.22-2.37,6.68,6.68,0,0,0-.23-1.89,1.67,1.67,0,0,0-.46-.8.71.71,0,0,0-.48-.16.76.76,0,0,0-.59.3,2.38,2.38,0,0,0-.48,1.27A11.16,11.16,0,0,0,138.59,75.91Z"/><path class="cls-1" d="M143.94,75.79a5.05,5.05,0,0,1,.34-2,2.63,2.63,0,0,1,.91-1.21,1.46,1.46,0,0,1,.9-.32,1.72,1.72,0,0,1,1.37.78,4.12,4.12,0,0,1,.76,2.6,5,5,0,0,1-.34,2,2.57,2.57,0,0,1-.84,1.17,1.75,1.75,0,0,1-1,.36,1.82,1.82,0,0,1-1.57-1.11A4.51,4.51,0,0,1,143.94,75.79Zm.95.12a6.12,6.12,0,0,0,.34,2.23c.18.48.46.73.83.73a.88.88,0,0,0,.55-.24,1.59,1.59,0,0,0,.43-.79,9.69,9.69,0,0,0,.22-2.37,6.68,6.68,0,0,0-.23-1.89,1.67,1.67,0,0,0-.46-.8.71.71,0,0,0-.48-.16.76.76,0,0,0-.59.3,2.38,2.38,0,0,0-.48,1.27A11.16,11.16,0,0,0,144.89,75.91Z"/><path class="cls-1" d="M134.57,70a.23.23,0,0,1-.24-.23V65.86a.23.23,0,0,1,.24-.23.23.23,0,0,1,.23.23v3.87A.23.23,0,0,1,134.57,70Z"/><path class="cls-1" d="M148.22,51.28H121.76a.24.24,0,0,1-.24-.24.23.23,0,0,1,.24-.23h26.46a.23.23,0,0,1,.23.23A.23.23,0,0,1,148.22,51.28Z"/></g></g></svg>