<svg xmlns="http://www.w3.org/2000/svg" viewBox="0 0 752.219 333.38"><defs><style>.cls-1{fill:#fff;}.cls-2{fill:#2c8ac8;}</style></defs><g id="レイヤー_2" data-name="レイヤー 2"><g id="レイヤー_1-2" data-name="レイヤー 1"><polygon class="cls-1" points="53.099 10.66 18.459 30.65 16.199 29.35 50.839 9.35 44.449 5.66 9.809 25.66 7.549 24.36 42.189 4.36 34.649 0 0.009 20 0.009 38.69 34.649 58.69 34.649 61.3 0.009 41.3 0.009 48.73 34.649 68.74 34.649 71.34 34.649 71.34 0.009 51.35 0.009 60 34.649 80 50.839 70.65 50.839 30.65 53.089 29.35 53.089 29.35 53.089 69.35 53.089 69.35 59.479 65.66 59.479 25.66 59.479 25.66 61.739 24.36 61.739 24.36 61.739 64.36 69.289 60 69.289 20 53.099 10.66"/><polygon points="61.739 64.36 61.739 64.36 59.479 65.66 61.739 64.36"/><polygon points="59.507 25.641 61.767 24.335 61.767 24.335 59.507 25.641"/><polygon points="9.809 25.66 44.449 5.66 42.189 4.36 7.549 24.36 9.809 25.66"/><polygon class="cls-2" points="18.459 30.65 53.099 10.66 50.839 9.35 16.199 29.35 18.459 30.65"/><polygon points="34.649 58.69 0.009 38.69 0.009 41.3 34.649 61.3 34.649 58.69"/><rect class="cls-1" x="17.321" y="41.36" height="40"/><polygon points="34.649 68.74 0.009 48.73 0.009 51.35 34.649 71.34 34.649 68.74"/><polygon class="cls-1" points="53.089 29.35 50.839 30.65 53.089 29.35 53.089 29.35"/><polygon class="cls-1" points="50.839 70.65 53.089 69.35 53.089 69.35 50.839 70.65"/><polygon points="53.089 29.35 50.839 30.65 50.839 70.65 53.089 69.35 53.089 29.35"/><polygon points="59.479 25.66 59.479 65.66 61.739 64.36 61.739 24.36 59.479 25.66"/><path class="cls-1" d="M124.839,57.76a17.828,17.828,0,0,0,7.22-8c1.37-3.12,1.9-6.61,2-12.39a48.081,48.081,0,0,0-7.68,1v2c0,1.22,0,4.11.08,5.36v.23c0,2-.49,2.88-1.56,2.88-.64,0-1.29-.49-1.94-1.4a4.7,4.7,0,0,1-.83-2.24,3,3,0,0,1,.26-1.07,14.548,14.548,0,0,0,.65-5,12.653,12.653,0,0,0-4,1.44,3.738,3.738,0,0,1-1.52.46c-.95,0-2.39-1.25-3.42-3a4.786,4.786,0,0,1-.68-2,2.635,2.635,0,0,1,.08-.45,4.34,4.34,0,0,0,3.68,1.93,38.981,38.981,0,0,0,5.85-.83,22.691,22.691,0,0,0-.45-5.36,4.222,4.222,0,0,0-2.66-2.62,2,2,0,0,1,1.25-.38,10.007,10.007,0,0,1,4.64,1.63c1,.65,1.33,1.14,1.33,1.79a3.005,3.005,0,0,1-.27,1.18,12.969,12.969,0,0,0-.46,3.26c1.33-.22,2.28-.38,3.92-.56a17.767,17.767,0,0,0,2.69-.31,3.513,3.513,0,0,0,1.07-.11v-3c0-2.7-.19-3.84-.76-4.53a4.589,4.589,0,0,0-2.78-1.48,2.61,2.61,0,0,1,1.83-.53,11.467,11.467,0,0,1,4.78,1.14c1.14.53,1.64,1.1,1.64,1.86a2.019,2.019,0,0,1-.23.91c-.53,1.18-.68,2.21-.84,5.17a11.011,11.011,0,0,0,4.22-.83,2.135,2.135,0,0,1,1-.27,5.633,5.633,0,0,1,2.66,1c1,.61,1.4,1.17,1.4,1.78a1.13,1.13,0,0,1-1.117,1.143l-.093,0a3.882,3.882,0,0,1-.61,0c-1.86-.18-4-.26-6.35-.26h-1.19a55.281,55.281,0,0,1-.53,7.83,14.2,14.2,0,0,1-6.58,10.37,18.22,18.22,0,0,1-5.43,2.66Z"/><path class="cls-1" d="M154.449,55.51a52.137,52.137,0,0,0,11.28-9.68,60.876,60.876,0,0,0,9.43-14.29,39.7,39.7,0,0,0-10.19,3,2.783,2.783,0,0,1-1.44.46c-.87,0-1.75-.69-2.74-2.13a6.46,6.46,0,0,1-1.25-3.27,1.575,1.575,0,0,1,.27-.95c1.13,1.9,2.16,2.59,4,2.59a62.567,62.567,0,0,0,8.25-1.22c2.51-.49,2.73-.61,3.68-1.21a1.655,1.655,0,0,1,1-.35,5.8,5.8,0,0,1,2.77,1.71c.84.8,1.22,1.37,1.22,1.9a1.06,1.06,0,0,1-.61,1,7.874,7.874,0,0,0-2.2,2.78,67.285,67.285,0,0,1-4.79,6.72c5,2.17,8.13,4,9.84,5.66a5,5,0,0,1,1.6,3.8c0,1.94-.88,3.38-2.05,3.38-.65,0-1.11-.45-1.56-1.52a27,27,0,0,0-8.51-10.44,41.094,41.094,0,0,1-9.08,8.32,34.761,34.761,0,0,1-8.7,4.25Z"/><path class="cls-1" d="M203.319,57.95a28.259,28.259,0,0,0,5.69-9.09,27.382,27.382,0,0,0,1.94-8.09,2.151,2.151,0,0,0-.61-1.75,28.509,28.509,0,0,0-7.94,2.25,3.306,3.306,0,0,1-1.63.49c-1,0-2.05-.8-3.34-2.47a4.315,4.315,0,0,1-1.11-2.43,2.132,2.132,0,0,1,.19-.8,4.1,4.1,0,0,0,3.69,2.09c1.18,0,1.82-.08,7.14-.91,3-.46,6.54-.91,11.55-1.45A9.982,9.982,0,0,0,222.2,35a2.525,2.525,0,0,1,1.1-.31,5.844,5.844,0,0,1,2.43.8c1.44.72,2.17,1.52,2.17,2.28s-.61,1.29-1.6,1.29a3.165,3.165,0,0,1-.68-.07,47.029,47.029,0,0,0-7.07-.57,51.214,51.214,0,0,0-5.58.26c2.24,1.33,2.58,1.71,2.58,2.7,0,1.71-1.6,5.77-3.34,8.62a24,24,0,0,1-8.59,8.29Zm-.54-30.89a6.1,6.1,0,0,0,4.56,2.05,21.89,21.89,0,0,0,5.32-.84,11.524,11.524,0,0,0,3.38-1.4,2.167,2.167,0,0,1,1.18-.35,3.8,3.8,0,0,1,2.05.76c.95.65,1.41,1.26,1.41,1.87s-.5,1.1-2.21,1.48a50.709,50.709,0,0,1-9.42,1.14c-3,0-4.9-1.29-6.61-4.45Z"/><path class="cls-1" d="M239.649,49.85a42.26,42.26,0,0,0,6.84-5,61.342,61.342,0,0,0,8.36-8.63,3.4,3.4,0,0,0,.84-1.86c0-.8-.53-1.45-1.82-2.2a2,2,0,0,1,.83-.16,7.813,7.813,0,0,1,3.95,1.65c1.18.8,1.75,1.44,1.75,2a1.31,1.31,0,0,1-.72,1.26,12.625,12.625,0,0,0-2.03,1.74c-2.05,1.9-2.32,2.13-4.67,4.15a5.876,5.876,0,0,1,1.93,1.71c.31.57.31.57.35,3.49,0,2.39.07,3,.15,5.7,0,.84.07,1.86.07,2.55,0,1.14-.45,1.78-1.29,1.78-1.25,0-2.92-1.9-2.92-3.34a2.59,2.59,0,0,1,.15-.84,7.532,7.532,0,0,0,.42-1.82c.15-1.29.34-4.37.34-5.78a4.7,4.7,0,0,0-.38-2.54,39.138,39.138,0,0,1-12.05,6.61Z"/><path class="cls-1" d="M283.649,57.91a22.718,22.718,0,0,0,6.38-8.47,30.482,30.482,0,0,0,2.36-11.21,28.784,28.784,0,0,0-8.55,2.24,3.227,3.227,0,0,1-1.52.45c-.8,0-1.6-.49-2.62-1.63a5.9,5.9,0,0,1-1.83-3.46,2.457,2.457,0,0,1,.19-.87c1.22,1.59,2.24,2.2,3.84,2.2.91,0,1.52-.07,7.1-.91,1.11-.15,1.68-.23,3.46-.42a20.762,20.762,0,0,0,.08-2.58c0-5.24-.46-6-3.76-6.8a2.939,2.939,0,0,1,2.28-.72,13.2,13.2,0,0,1,5.58,1.33,1.641,1.641,0,0,1,1.06,1.59,2.714,2.714,0,0,1-.41,1.33,17.92,17.92,0,0,0-.69,5.36c6-.49,6.42-.53,7.9-1.18a2.007,2.007,0,0,1,1-.23,5.621,5.621,0,0,1,2.32.69c1.37.72,2.13,1.55,2.13,2.32a1.3,1.3,0,0,1-1.3,1.3,1.244,1.244,0,0,1-.137-.008,7.248,7.248,0,0,1-1.37-.16,38.714,38.714,0,0,0-6.8-.49c-1.26,0-1.68,0-3.84.15a36.7,36.7,0,0,1-1.25,8.1c-1.68,5.43-5.4,9.49-11.33,12.42Z"/><path class="cls-1" d="M322.829,58.33a41.528,41.528,0,0,0,7.67-7.22,58.9,58.9,0,0,0,9.46-15.77,9.644,9.644,0,0,0,.72-2.36c0-.3-.19-.41-.68-.41a41.779,41.779,0,0,0-8.09,1.55,28.024,28.024,0,0,0-6.05,2.21,2.826,2.826,0,0,1-1.29.34c-1.14,0-2.43-1-3.57-2.85a5.239,5.239,0,0,1-1.06-2.7,2.672,2.672,0,0,1,.22-1,4,4,0,0,0,4,2.51,102.624,102.624,0,0,0,12.27-1.67c2.82-.49,3.16-.57,4.15-1.14a2.547,2.547,0,0,1,.83-.23,6,6,0,0,1,2.81,1.67c1.3,1.18,2,2.17,2,2.85a1.763,1.763,0,0,1-.69,1.37,7.543,7.543,0,0,0-1.59,2.36c-5.66,10.9-12.12,17.36-20.9,20.86Zm20.28-33.25a14.526,14.526,0,0,1,4.07,1.82c1.75,1.18,2.55,2.28,2.55,3.5,0,.87-.46,1.48-1.18,1.48-.5,0-.8-.23-1.3-1.1a16.5,16.5,0,0,0-4.48-5Zm3.88-2.62a13.3,13.3,0,0,1,4.44,1.67c1.52,1,2.21,1.86,2.21,2.93,0,.91-.46,1.52-1.14,1.52-.42,0-.69-.23-1.25-1a16.774,16.774,0,0,0-4.56-4.48Z"/><path class="cls-1" d="M358.549,55.65a20.343,20.343,0,0,0,3.53-4.83,33.629,33.629,0,0,0,3.76-10.79,24.561,24.561,0,0,0,.46-3.88c0-1.63-.84-2.62-2.81-3.3a2.168,2.168,0,0,1,1.44-.38,10.327,10.327,0,0,1,4.25,1.56c1.3.8,2,1.56,2,2.24a3.092,3.092,0,0,1-.46,1.44c-.22.42-.22.46-1.48,4.83a23.066,23.066,0,0,1-5.77,10,22.539,22.539,0,0,1-4.6,3.46Zm34.91-16.95a28.446,28.446,0,0,1-4.48,6.65,52.66,52.66,0,0,1-8.28,7.14,9.772,9.772,0,0,0-2,1.6,1.561,1.561,0,0,1-1.1.57c-1.25,0-3.31-2.66-3.31-4.3a1.684,1.684,0,0,1,.19-.79c.38-1.07.46-2.44.46-10.79,0-3.57-.15-7.22-.3-8.32-.27-1.49-1.18-2.32-2.93-2.78a1.641,1.641,0,0,1,1.37-.57,11.138,11.138,0,0,1,4.59,1.37c1.45.72,2.13,1.44,2.13,2.2a2.928,2.928,0,0,1-.49,1.49,12.21,12.21,0,0,0-.5,3c-.26,2.69-.68,10.75-.68,12.88a8.632,8.632,0,0,0,0,.91,43,43,0,0,0,14.93-10.53Z"/><path class="cls-1" d="M407.259,58.36a28.516,28.516,0,0,0,5.7-9.08,28.025,28.025,0,0,0,1.94-8.09,2.143,2.143,0,0,0-.61-1.79,31.116,31.116,0,0,0-7.94,2.25,3.264,3.264,0,0,1-1.63.5c-1,0-2.09-.84-3.35-2.51a3.814,3.814,0,0,1-1.06-2.39,2.986,2.986,0,0,1,.15-.76,4.208,4.208,0,0,0,3.65,2.09c1.18,0,1.52,0,7.18-.92,3.42-.53,5.09-.75,11.55-1.48a9.633,9.633,0,0,0,3.3-.8,2.409,2.409,0,0,1,1.11-.3,5.755,5.755,0,0,1,2.43.8c1.44.72,2.16,1.52,2.16,2.28s-.6,1.29-1.59,1.29a3.135,3.135,0,0,1-.69-.08,45.94,45.94,0,0,0-12.65-.3c2.17,1.25,2.59,1.71,2.59,2.7,0,1.67-1.6,5.77-3.35,8.62a23.56,23.56,0,0,1-8.58,8.25Zm-.53-30.89a6,6,0,0,0,4.63,2.09,19.572,19.572,0,0,0,5.29-.91,11.916,11.916,0,0,0,3.34-1.44,2.261,2.261,0,0,1,1.21-.35,3.645,3.645,0,0,1,2,.8c.95.61,1.4,1.22,1.4,1.86s-.53,1.11-2.2,1.49a52.469,52.469,0,0,1-9.42,1.14c-3,0-4.94-1.33-6.61-4.45ZM425,25.04c3.88,1.37,6.31,3.5,6.31,5.51,0,1-.49,1.56-1.22,1.56s-.72-.11-1.67-1.9a17.085,17.085,0,0,0-3.77-4.56Zm3.92-2.62a13.517,13.517,0,0,1,4.37,1.9c1.4,1,2,1.9,2,3,0,.88-.46,1.48-1.14,1.48-.45,0-.68-.19-1.25-1.1a16.386,16.386,0,0,0-4.33-4.71Z"/><path class="cls-1" d="M451.529,58.21a17.583,17.583,0,0,0,7.22-8c1.33-3.11,1.94-6.87,2-12.38a45.12,45.12,0,0,0-7.67,1v2.05c0,1.21,0,4.33.08,5.39v.27c0,1.9-.5,2.81-1.56,2.81-.65,0-1.29-.49-1.94-1.41a4.718,4.718,0,0,1-.84-2.24,3.042,3.042,0,0,1,.27-1.06,14.738,14.738,0,0,0,.65-5.05,13.706,13.706,0,0,0-4,1.44,3.723,3.723,0,0,1-1.52.46c-.95,0-2.4-1.26-3.42-3a4.593,4.593,0,0,1-.68-2,2.391,2.391,0,0,1,.07-.46,4.367,4.367,0,0,0,3.69,1.94,37.979,37.979,0,0,0,5.85-.84c0-5.69-.46-6.72-3.12-8a1.93,1.93,0,0,1,1.26-.38,10.094,10.094,0,0,1,4.63,1.63c1,.65,1.33,1.14,1.33,1.79a3.014,3.014,0,0,1-.27,1.17,14.378,14.378,0,0,0-.45,3.27c1.75-.27,4.29-.61,7.67-1v-3c0-2.7-.19-3.84-.76-4.52a4.59,4.59,0,0,0-2.77-1.48,2.6,2.6,0,0,1,1.82-.53,11.353,11.353,0,0,1,4.79,1.14c1.14.53,1.63,1.1,1.63,1.86a2.015,2.015,0,0,1-.22.91c-.57,1.29-.65,1.86-.84,5.17a10.239,10.239,0,0,0,4.22-.84,2.071,2.071,0,0,1,1-.26,5.669,5.669,0,0,1,2.66,1c1,.61,1.41,1.18,1.41,1.79a1.13,1.13,0,0,1-1.117,1.143.886.886,0,0,1-.1,0,4.006,4.006,0,0,1-.6,0,63.2,63.2,0,0,0-6.35-.27h-1.22c-.19,8.06-.83,11.17-3,14.21a18.727,18.727,0,0,1-9.57,6.65Zm15-33.85a10.218,10.218,0,0,1,3.5,2.13,4.7,4.7,0,0,1,1.71,3.3c0,1-.46,1.56-1.18,1.56-.5,0-.8-.34-1.18-1.41A14.9,14.9,0,0,0,466,24.81Zm4-1.83a10.932,10.932,0,0,1,3.53,1.87,4.271,4.271,0,0,1,1.9,3.26c0,.92-.42,1.49-1.1,1.49s-.72-.23-1.22-1.3A13.376,13.376,0,0,0,470,23.03Z"/><path class="cls-1" d="M481.819,47.65a70.818,70.818,0,0,0,14.17-11.29c4.06-4.1,6.38-7.14,6.38-8.39,0-.8-.87-1.79-2.28-2.51a4.292,4.292,0,0,1,1.22-.15,7.611,7.611,0,0,1,3.84,1.34c1.74,1,2.77,2.16,2.77,3,0,.68-.19.91-1.52,1.86-.15.11-.15.11-2.47,2.32-2.66,2.47-2.66,2.47-5.36,4.78a9.316,9.316,0,0,1,2.62,2.25c.35.53.39.91.42,3.72,0,1.75,0,2.24.27,9.46v1.44c0,1.56-.5,2.32-1.56,2.32-1.41,0-3.5-2.32-3.5-3.91a3.353,3.353,0,0,1,.23-1.22,44.27,44.27,0,0,0,.84-9.8c0-1.94-.12-2.47-.65-3.19a62.516,62.516,0,0,1-8.13,5.39,47.63,47.63,0,0,1-7.14,3Z"/><path class="cls-1" d="M526.049,29.53c4.25.68,6.53,1.33,8.32,2.47a3.572,3.572,0,0,1,1.86,3.26c0,1.79-.87,3.16-2.05,3.16-.65,0-1-.31-1.6-1.3a17.9,17.9,0,0,0-6.72-7.18Zm28.87,2.2a40.784,40.784,0,0,1-8.54,11.78,61.2,61.2,0,0,1-11,8.66,8.751,8.751,0,0,0-2.05,1.67,2.091,2.091,0,0,1-1.6.95c-1,0-2.39-1.06-3.72-2.77a7.236,7.236,0,0,1-1.83-4.22,3.047,3.047,0,0,1,.19-1c1,1.75,2.28,2.82,3.31,2.82,1.59,0,6.57-2.62,11.09-5.85a75.015,75.015,0,0,0,13.72-12.24Z"/><path class="cls-1" d="M571.189,27.7a32.5,32.5,0,0,1-3.42,10l.31.31h3.11c.84-.95,1.1-1.26,2.05-2.25,1.14,1,1.49,1.22,2.55,2.17.27.27.38.42.38.57s-.19.38-.95.84v5.43c0,4.82,0,4.82.15,9a.79.79,0,0,1-.68.84,7.39,7.39,0,0,1-2,.27c-.91,0-1.14-.16-1.14-.76V52.79h-3.07v3.57a.72.72,0,0,1-.58.76,10.9,10.9,0,0,1-2.24.26c-.79,0-1.1-.19-1.1-.72.12-5.51.19-8.4.19-8.7V42.34a28.814,28.814,0,0,1-3.49,3.84l-.27-.31a46.578,46.578,0,0,0,5.74-18.2h-2.25a9.458,9.458,0,0,0-2.2.23l-.23-1.33a9.179,9.179,0,0,0,2.43.3h6.08c1.07-1.29,1.37-1.67,2.47-2.85,1.56,1.3,2,1.71,3.54,3.12.15.15.19.23.19.34s-.15.19-.42.19ZM568.5,52.02h3.07V38.83H568.5Zm24.12-13H593c.87-1.22,1.18-1.56,2.13-2.74,1.33,1.25,1.71,1.67,3,3,.15.15.19.23.19.34s-.15.19-.38.19h-5.29v4.72c0,4.74,0,5.2.19,13.18a.74.74,0,0,1-.594.862l-.056.008a13.17,13.17,0,0,1-2.65.23c-1,0-1.26-.15-1.26-.8.19-8.13.19-8.7.19-13.48V39.81h-4.6c-.3,6.73-1,9.73-3.07,12.81s-4.45,4.79-8.78,6.61l-.23-.38a19.028,19.028,0,0,0,4.3-4.14,18.712,18.712,0,0,0,3.3-9c.19-1.41.3-3.39.38-5.86h-1.12a12.764,12.764,0,0,0-2,.19l-.23-1.25a9.151,9.151,0,0,0,2.36.27h1.06v-12h-.19a15.714,15.714,0,0,0-2.47.19l-.23-1.33a10.336,10.336,0,0,0,2.74.34H591.2c.91-1,1.82-1.94,2.66-2.81,1.6,1.22,2.05,1.63,3.61,3,.19.16.26.27.26.38s-.22.27-.49.27h-4.59Zm-8.62-12c0,6.61,0,9.57-.12,12h4.56v-12Z"/><path class="cls-1" d="M615.349,44.31a24.776,24.776,0,0,0,.34-4.07,11.726,11.726,0,0,0-.11-1.9c1.29.11,2.28.19,2.92.27h.15c2.28.19,3.19.45,3.19.83s-.53.69-1.74,1c-.23,2-.35,2.7-.53,3.8l4.75-.08,2.16-2.24,1.71,1.18c.34.27.84.61,1.52,1.06.38.31.53.5.53.69s-.26.49-.68.76a6.613,6.613,0,0,0-.8.49v7.64c0,.68.11.8,1.1.8a11.371,11.371,0,0,0,3.19-.27c.61-.19,1.11-1.1,1.71-3.12.38-1.32.42-1.44,1.33-4.52l.46.08-.23,6a.379.379,0,0,1,0,.15c0,.76.07.92.61,1.14a1.79,1.79,0,0,1,1.33,1.79c0,1.29-.95,2-2.89,2.09-1.71.15-4.26.23-6.08.23a8.824,8.824,0,0,1-3.64-.46,2.269,2.269,0,0,1-1-2.16l.11-10.45-5.28.08c-.87,4.14-2.39,6.83-5.2,9.19a19.01,19.01,0,0,1-6.42,3.46c-1.14.34-1.71.49-4.52,1.18l-.16-.35c7.45-3.34,10.64-6.91,12-13.41l-6.8.08a19.239,19.239,0,0,0-2.17.22l-.38-1.29a14.766,14.766,0,0,0,2.51.23h.19Zm3-14.44a12.8,12.8,0,0,1-.91,4c-1.75,4.44-6.54,7.33-13.64,8.2l-.19-.41c4.26-1.49,6.46-2.93,8.32-5.4a10.6,10.6,0,0,0,2.17-6.38h-5.17v.64a8.01,8.01,0,0,1-.65,3.54,3.65,3.65,0,0,1-3,2.24c-1.14,0-2-1.1-2-2.66a1.69,1.69,0,0,1,1.21-1.86c2.13-1.07,2.93-2.21,3.5-5.06h.42a13.011,13.011,0,0,1,.41,2.36h9.24V26.65a16.863,16.863,0,0,0-.16-2.47c4.79.46,5.13.49,5.59.65s.57.26.57.45c0,.38-.53.69-1.6,1v2.81h8.36c1-1,1.26-1.33,2.28-2.32,1.79,1.37,2.32,1.83,4.07,3.31.34.34.45.45.45.64,0,.38-.45.61-1.25.61a12.814,12.814,0,0,1-1.45-.07c-1.86,1.14-4,2.35-5.12,2.92l-.35-.19a30.007,30.007,0,0,0,1.68-4.1h-5.32v5.76c0,.6.19.72,1.21.79h3.38c1.75,0,2.36-.15,2.78-.68a22.637,22.637,0,0,0,1.78-3.57h.38l-.15,2.59v.26c0,.72,0,.72,1,1.14a1.241,1.241,0,0,1,.91,1.22c0,1.14-.72,1.71-2.58,1.94-.54.07-3.65.19-4.72.19h-.53c-.45,0-1.71,0-3.61-.08-2.92,0-3.76-.61-3.76-2.43V29.84Z"/><path class="cls-1" d="M661.479,34.58a50.892,50.892,0,0,1-5.47,6c4.37-.08,5.13-.08,13-.57a29.528,29.528,0,0,0-4.1-4l.19-.27a36.548,36.548,0,0,1,6.76,2.47c2.32,1.22,3.19,2.25,3.19,3.73s-.87,3.11-1.82,3.11c-.46,0-.8-.34-1.6-1.67a20.066,20.066,0,0,0-1.82-2.47c-5.43,1.26-5.43,1.26-7.83,1.67-2.85.5-9,1.41-11.89,1.75-.15,1.06-.38,1.52-.8,1.52s-.83-1-1.74-5.51a55.753,55.753,0,0,0,6.64.23,32.782,32.782,0,0,0,2.06-6h-3.46a13.558,13.558,0,0,0-2.51.27l-.3-1.33a15.669,15.669,0,0,0,2.81.26h15.65c1-1.18,1.37-1.52,2.43-2.62l1.18.84a15.761,15.761,0,0,0,.53-2.59h-22.69a9.682,9.682,0,0,1-.72,4.33,3.311,3.311,0,0,1-2.7,2.17,2.489,2.489,0,0,1-2.24-2.66,1.578,1.578,0,0,1,.57-1.37c.15-.11.15-.11,1.06-.68a6.561,6.561,0,0,0,2.36-2.28,7.859,7.859,0,0,0,.72-2.74h.46a8.026,8.026,0,0,1,.45,2.43h9.16V26.48a20.276,20.276,0,0,0-.11-2.82c5.16.35,6.19.54,6.19,1.07,0,.38-.53.68-1.79,1v2.92h9c.91-1,1.22-1.29,2.16-2.28,1.9,1.3,2.48,1.71,4.26,3.08.31.27.42.42.42.65a.531.531,0,0,1-.31.42,3.709,3.709,0,0,1-1,.19h-1.37c-.45.27-.91.5-1.14.61-1.78.95-1.82.95-2.39,1.25l2,1.52c.15.08.23.19.23.27a.251.251,0,0,1-.23.19Zm7.71,14.59c1.45-1.56,1.45-1.56,2.78-3,1.82,1.32,2.39,1.74,4.25,3.26.11.12.15.19.15.27a.332.332,0,0,1-.3.23H663.3v6.72h8.48c1.25-1.4,1.63-1.82,2.92-3.15,1.82,1.33,2.43,1.79,4.41,3.38.15.15.26.27.26.38s-.11.19-.26.19h-31.12a21.309,21.309,0,0,0-3.11.27l-.31-1.37a19.025,19.025,0,0,0,3.46.3h11V49.97h-8.28a15.74,15.74,0,0,0-2.81.22l-.3-1.29a20.255,20.255,0,0,0,3.11.27h8.28v-1.6a32.662,32.662,0,0,0-.18-3.83c1.14.11,2.12.22,2.66.3,2.81.27,3.3.38,3.3.8s-.23.49-1.56.95v3.38Z"/><path class="cls-1" d="M4.349,142.28a29.8,29.8,0,0,0-3.3.18v-2.19a22.34,22.34,0,0,0,3.3.21h8.4v-2.55a17.1,17.1,0,0,0-.21-2.73h2.37a16.07,16.07,0,0,0-.21,2.7v2.58h8.85a19.674,19.674,0,0,0,3.36-.21v2.19a32.513,32.513,0,0,0-3.36-.18h-8.1c3.36,6.06,7.38,10.26,12.36,13a7.981,7.981,0,0,0-1.38,1.95,34,34,0,0,1-6.24-5.25,28.517,28.517,0,0,1-5.61-8.43c.09,1.8.12,2.91.12,3.9v6.81h3.27a17.7,17.7,0,0,0,2.91-.15v2.1a16.552,16.552,0,0,0-3-.18H14.7v2.85a22.239,22.239,0,0,0,.21,3.45h-2.37a23.815,23.815,0,0,0,.21-3.48v-2.82H9.869a16.91,16.91,0,0,0-3,.18v-2.1a18.122,18.122,0,0,0,3,.15h2.88v-6.81c0-1.11,0-2.25.12-3.87a28,28,0,0,1-5.67,8.67,32.077,32.077,0,0,1-5.7,5,5.662,5.662,0,0,0-1.41-1.77,27.368,27.368,0,0,0,7-6.09,32.8,32.8,0,0,0,4.89-7.11Z"/><path class="cls-1" d="M34.959,138.14a12.811,12.811,0,0,0-2.58.18v-2a16.045,16.045,0,0,0,2.7.18h4.89a11.7,11.7,0,0,0,2.52-.18v2a19.735,19.735,0,0,0-2.43-.12H38.2a29.4,29.4,0,0,1-2.07,7.62h3.75a13.769,13.769,0,0,0,1.86-.09,21.853,21.853,0,0,0-.09,2.4v9.27a19.644,19.644,0,0,0,.12,2.52h-1.89v-1.5h-3.72v3.18h-2a18.279,18.279,0,0,0,.18-2.91v-6.66c0-1.08,0-2,.09-3.36a13.745,13.745,0,0,1-2.25,3.66,5.009,5.009,0,0,0-1.08-1.8,20.406,20.406,0,0,0,4.14-7.62,21.061,21.061,0,0,0,1-4.71Zm1.2,18.6h3.72v-9.39h-3.72Zm10.41-18.6a19.531,19.531,0,0,0-2.91.18v-2.07a18.349,18.349,0,0,0,3,.18h9.48a20.064,20.064,0,0,0,3-.18v2.07a15.752,15.752,0,0,0-2.91-.18h-.72v8.31h1a15.856,15.856,0,0,0,3-.18v2.13a19.546,19.546,0,0,0-3-.18h-1v10.77a22.673,22.673,0,0,0,.21,3.21h-2.28a22.673,22.673,0,0,0,.21-3.21V148.22h-5c-.3,6.69-1.59,10.32-5,14.28a5.445,5.445,0,0,0-1.74-1.35c3.15-3,4.56-6.75,4.83-12.93H45.9a16.724,16.724,0,0,0-3,.18v-2.1a19.526,19.526,0,0,0,3,.15h.9v-8.31Zm2.19,7.29v1h4.89v-8.31h-4.89Z"/><path class="cls-1" d="M79.869,150.11a26.557,26.557,0,0,0,3.36-.15c-.06.66-.09,1.29-.12,2.64l-.12,6.09c0,.9.33,1,2.67,1,2.1,0,2.7-.15,2.91-.69a17.566,17.566,0,0,0,.48-4.5,7.335,7.335,0,0,0,1.95.78c-.48,6-.66,6.18-5.49,6.18-3.66,0-4.44-.39-4.44-2.4v-.15l.12-7h-5.54a11.5,11.5,0,0,1-2.34,4.95,13.252,13.252,0,0,1-3.21,2.88,20.221,20.221,0,0,1-5,2.46,4.638,4.638,0,0,0-1.32-1.71,18.726,18.726,0,0,0,5.76-2.7,9.8,9.8,0,0,0,4.17-5.88h-4.76a21.4,21.4,0,0,0-3.24.18v-2.13a20.244,20.244,0,0,0,3.18.18h5.16a21.266,21.266,0,0,0,.21-2.52,10.219,10.219,0,0,0-.12-1.62h2.28a9.049,9.049,0,0,0-.24,1.89c-.06.72-.12,1.47-.24,2.22Zm-4-12.69a9.275,9.275,0,0,0-.21-2.16H78a8.717,8.717,0,0,0-.21,2.16v.93H86.7a25.477,25.477,0,0,0,3-.15,13.393,13.393,0,0,0-.12,2.07v1.53a13.911,13.911,0,0,0,.12,2.1h-2v-3.84h-7.47v4.35c0,.36.06.51.21.6a5.9,5.9,0,0,0,1.92.21,5.541,5.541,0,0,0,2.43-.33c.33-.24.48-1,.51-2.43a6.247,6.247,0,0,0,1.8.57c-.15,1.89-.39,2.73-.9,3.18s-1.74.66-3.87.66c-3.15,0-3.9-.33-3.9-1.65v-5.16h-3.69a8.236,8.236,0,0,1-1.05,3.33,8.454,8.454,0,0,1-4.74,3.81,27.8,27.8,0,0,1-2.79.87,8.181,8.181,0,0,0-1.14-1.65c3.21-.6,4.71-1.2,6-2.4a5.673,5.673,0,0,0,1.83-4h-6.39v3.81h-2a14.453,14.453,0,0,0,.12-2.1v-1.5a13.518,13.518,0,0,0-.12-2.07,25.477,25.477,0,0,0,3,.15h8.31Z"/><path class="cls-1" d="M115.789,153.47a21.663,21.663,0,0,0,3.18-.15v2a22.231,22.231,0,0,0-3.18-.15h-6.36v4.23h8.82a22.832,22.832,0,0,0,3.75-.21v2.1a32.493,32.493,0,0,0-3.87-.18H99.409a32.685,32.685,0,0,0-3.87.18v-2.1a23.191,23.191,0,0,0,3.78.21h8.22v-4.25h-5.76a22.066,22.066,0,0,0-3.21.15v-2a21.247,21.247,0,0,0,3.21.15h5.76V153a14.931,14.931,0,0,0-.18-2.37h2.29a14.25,14.25,0,0,0-.18,2.37v.45Zm-8.34-16.44a11.758,11.758,0,0,0-.18-2h2.31a10.651,10.651,0,0,0-.18,2v.78h7.83a34.393,34.393,0,0,0,4-.12,13.547,13.547,0,0,0-.12,2.13v1.5a12.989,12.989,0,0,0,.12,2h-2v-3.87h-21v3.87h-2v-.36a13.964,13.964,0,0,0,.09-1.71v-1.59a15.188,15.188,0,0,0-.12-2q1.856.153,3.72.12h7.47Zm-4.44,7a24.213,24.213,0,0,0-3.51.15v-1.92a22.985,22.985,0,0,0,3.42.15h11.64a23.813,23.813,0,0,0,3.45-.15v1.92a23.828,23.828,0,0,0-3.42-.15h-7.71a29.562,29.562,0,0,1-2.43,4.17c3.33-.09,5.85-.24,10-.54a29.419,29.419,0,0,0-2.8-2.11l1.44-.93a52.321,52.321,0,0,1,6.36,5.37l-1.44,1.23a24.2,24.2,0,0,0-2.07-2.13c-5.34.45-11.49.81-17.07,1a7.032,7.032,0,0,0-1.14.12l-.3-1.92q.927.092,1.86.09c1,0,1.68,0,3.12-.06a28.316,28.316,0,0,0,2.46-4.26Z"/><path class="cls-1" d="M127.939,140.24h1.08a14.725,14.725,0,0,0,1.71-.09c1.68-.12,1.86-.15,5.55-.36l4.71-.3c3.69-.21,4.08-.24,5.07-.27l1.71-.06a20.264,20.264,0,0,0,3.57-.33l.18,2.22a12.573,12.573,0,0,0-3.36.42,14.76,14.76,0,0,0-5.76,3,9.17,9.17,0,0,0-3.69,6.93c0,2.52,1.53,4.53,4.2,5.55a15.381,15.381,0,0,0,4.5,1h.3l-.39,2.43c-.33-.06-.39-.09-.93-.18a15.131,15.131,0,0,1-6.48-2.31,7.257,7.257,0,0,1-3.33-6.12c0-3.48,2-6.78,5.61-9.21a19.612,19.612,0,0,1,2.85-1.59,61.378,61.378,0,0,1-6.6.66,99.711,99.711,0,0,0-10.35,1Zm20.07,4.47a22.777,22.777,0,0,1,3.09,4.65l-1.53.9a21.1,21.1,0,0,0-3.06-4.77Zm3.39-1.65a24.326,24.326,0,0,1,3.09,4.68l-1.5.84a23.75,23.75,0,0,0-3.06-4.71Z"/><path class="cls-1" d="M164.849,136.94c-1.29,3-2.31,9.15-2.31,14.07,0,1,.06,2.82.12,4.2v1.44h.12a26.628,26.628,0,0,1,1.77-5.28,4.265,4.265,0,0,0,.24-.6l1.47.69c-1.41,2.94-2.58,6.75-2.58,8.52a3.187,3.187,0,0,0,.06.6l-2.13.21a7.551,7.551,0,0,0-.18-1.11,47.652,47.652,0,0,1-.84-8.91,50.77,50.77,0,0,1,1.56-12.33,13.915,13.915,0,0,0,.33-1.89Zm3,5.58a20.759,20.759,0,0,0,5.4.48c1.17,0,2,0,3.21-.09v-5.1a6.665,6.665,0,0,0-.09-1.23h2.28a30.631,30.631,0,0,0-.21,4.71v1.47a20.428,20.428,0,0,0,5.21-1.11l.09,2c-.06,0-.06,0-2.1.42a28.7,28.7,0,0,1-3.18.48c0,3,.09,4.5.33,8.49a21.742,21.742,0,0,1,5,2.94c.36.24.42.3.75.51l-.89,2.16a16.2,16.2,0,0,0-4.26-3.12,1.892,1.892,0,0,1-.3-.18l-.27-.18a4.434,4.434,0,0,1,.06.78,5.18,5.18,0,0,1-.36,2c-.72,1.59-2.55,2.52-5,2.52-3.48,0-5.67-1.65-5.67-4.26s2.37-4.26,5.7-4.26a8.471,8.471,0,0,1,3.33.6c-.09-.63-.21-3.45-.3-7.83-1.35.06-2.28.09-3.42.09s-2.34,0-3.39-.09a7.965,7.965,0,0,0-1-.06,4.339,4.339,0,0,0-.51,0,1.368,1.368,0,0,0-.3,0h-.12Zm5.8,11.25c-2.34,0-3.87,1-3.87,2.49s1.37,2.39,3.47,2.39a4.13,4.13,0,0,0,3.06-1,3.5,3.5,0,0,0,.57-2.34v-.9A7.764,7.764,0,0,0,173.649,153.77Z"/><path class="cls-1" d="M192.209,138.53a12.873,12.873,0,0,0-2.37.15v-2a11.569,11.569,0,0,0,2.52.18h4.56a11.089,11.089,0,0,0,2.46-.18v2a18.047,18.047,0,0,0-2.3-.12h-1.43v7h1.2a10.154,10.154,0,0,0,2-.15v1.89a14.541,14.541,0,0,0-2-.12h-1.2v7.62c1.48-.63,2-.87,3.51-1.65l.12,1.89a81.992,81.992,0,0,1-7.8,3.39,11.356,11.356,0,0,0-1.19.51l-.61-2.1a29.267,29.267,0,0,0,4.14-1.29v-8.37h-1.59a9.858,9.858,0,0,0-2,.15v-1.92a9.712,9.712,0,0,0,2,.15h1.56v-7Zm11.73,11.43a35.519,35.519,0,0,0-3.72.12,8.118,8.118,0,0,0,.06-1.08c0-.78,0-.78.06-2.37v-6.39a36.712,36.712,0,0,0-.15-3.81,29.077,29.077,0,0,0,3.87.15h7.89a27.361,27.361,0,0,0,3.84-.15c-.09.84-.12,2-.12,3.78v6a36.725,36.725,0,0,0,.12,3.84c-1.08-.09-1.89-.12-3.6-.12h-3.42v3.45h4.44a18.3,18.3,0,0,0,2.94-.15v2a19.265,19.265,0,0,0-2.94-.15h-4.44v4.41h5.58a18.528,18.528,0,0,0,2.94-.15v2a19.794,19.794,0,0,0-3-.15h-13.41a19.277,19.277,0,0,0-3,.15v-2a17.186,17.186,0,0,0,2.85.15h6.24v-4.41h-4a17.548,17.548,0,0,0-2.88.15v-2a16.808,16.808,0,0,0,2.88.15h4v-3.45Zm-1.8-11.73v4.26H207v-4.26Zm0,5.85v4.23H207v-4.23Zm6.63-1.59h5.07v-4.26h-5.07Zm0,5.82h5.07v-4.23h-5.07Z"/><path class="cls-1" d="M229.449,140.93a14.929,14.929,0,0,0,4.86,4.92,6.5,6.5,0,0,0-1,1.62,15.689,15.689,0,0,1-4.29-5c.12,1.56.18,2.46.18,3.66v2.76a16.281,16.281,0,0,0,.18,3.15h-2.1a16.441,16.441,0,0,0,.18-3.15v-2.73c0-.66.06-1.86.15-3.6a24.512,24.512,0,0,1-5.34,7.44,5.387,5.387,0,0,0-1.23-1.59,22.008,22.008,0,0,0,5.91-7.5h-2.67a15.645,15.645,0,0,0-2.31.12v-1.89a15.374,15.374,0,0,0,2.34.12h3.15v-1.5a12.665,12.665,0,0,0-.18-2.49h2.1a10.188,10.188,0,0,0-.15,2.28v1.71h2.42a14.576,14.576,0,0,0,2.19-.12v1.89a15.916,15.916,0,0,0-2.16-.12Zm-7.8,18.9a15.12,15.12,0,0,0,3.48-6.69l1.74.72A20.008,20.008,0,0,1,223.3,161Zm9.42-1.23c0,1.14.45,1.29,4.05,1.29,3.3,0,4.44-.12,4.92-.6s.6-1.38.66-3.36a5.266,5.266,0,0,0,1.95.72c-.33,2.82-.54,3.6-1.26,4.17s-2.16.81-6.33.81c-2.7,0-3.87-.12-4.77-.51s-1.05-.9-1.05-2.16v-3.31a19.907,19.907,0,0,0-.18-2.76h2.25a13.5,13.5,0,0,0-.18,2.76Zm6-1.17a24.915,24.915,0,0,0-4.32-4.5l1.32-1a28.454,28.454,0,0,1,4.41,4.2Zm6.33-21a30.657,30.657,0,0,0,3.09-.12,23.18,23.18,0,0,0-.12,2.91v9.51a27.321,27.321,0,0,0,.15,3c-.87-.06-2.16-.12-3.15-.12h-5.49c-1.11,0-2.1,0-3.12.09.09-.93.15-1.89.15-3v-9.51a25.251,25.251,0,0,0-.12-2.91,30.044,30.044,0,0,0,3.06.12Zm-6.72,4.5h7.97v-2.91h-7.89Zm0,4.53h7.97v-3h-7.89Zm0,4.56h7.97v-3h-7.89Zm10,10.74a28.373,28.373,0,0,0-4.38-6.81l1.62-.9a38.912,38.912,0,0,1,4.5,6.48Z"/><path class="cls-1" d="M257.349,139.79a21.824,21.824,0,0,0,1.3-4.53l2.12.39c-.56,1.71-.95,2.82-1.52,4.14h1.94l2.64-.09c-.06.78-.08,1.56-.08,2.64v15.31a23.809,23.809,0,0,0,.15,3.09h-2v-1.92h-5.84v2.64h-2a28.672,28.672,0,0,0,.15-3.66V142.55a22.055,22.055,0,0,0-.13-2.85,16.57,16.57,0,0,0,1.81.09Zm-1.28,8.34h5.84v-6.69h-5.84Zm0,9h5.84v-7.32h-5.84Zm12.65-15.57a28.521,28.521,0,0,1-3.45,5.46,6.118,6.118,0,0,0-1.44-1.35,22,22,0,0,0,4.42-7.56,13.816,13.816,0,0,0,.77-2.91l2.07.39a10.517,10.517,0,0,0-.42,1.14c-.42,1.2-.69,1.89-1.14,3.06h7.26a19.413,19.413,0,0,0,2.64-.12,11.72,11.72,0,0,0-.12,1.89c-.27,11.88-.66,15.9-1.74,18.3-.6,1.38-1.56,1.92-3.32,1.92-1.12,0-1.92-.06-3.84-.21a5.753,5.753,0,0,0-.52-2.13,22.527,22.527,0,0,0,4.26.51c1.11,0,1.53-.27,1.89-1.23a34.135,34.135,0,0,0,1.11-8.28c.15-2.4.18-4.47.21-8.88Zm3.3,12.36a31.563,31.563,0,0,0-4.56-7.59l1.54-.93a35.148,35.148,0,0,1,4.73,7.47Z"/><path class="cls-1" d="M295.339,136.1a9.4,9.4,0,0,0-.48,1.92c-.21,1-.39,1.74-.81,3.27a25.017,25.017,0,0,0,5.37-1l.09,2.07-1.05.18a36.213,36.213,0,0,1-4.92.63,55.955,55.955,0,0,1-3.33,8.76c-.72,1.44-1,2-2.13,3.93-.27.42-.45.78-.6,1l-2-1.2a26.507,26.507,0,0,0,2.88-4.68,44.968,44.968,0,0,0,3.12-7.74c-.75,0-1.77.06-2.22.06h-3.05v-2.07a18.961,18.961,0,0,0,3.57.24h2.16a30.92,30.92,0,0,0,1-5.64Zm14.25,23.28a17.18,17.18,0,0,0-5.25-4.08,6.2,6.2,0,0,1,.06,1c0,3.09-2,4.8-5.7,4.8s-5.85-1.68-5.85-4.35a4.25,4.25,0,0,1,2.79-3.81,8.78,8.78,0,0,1,3.54-.66,9.909,9.909,0,0,1,3,.45c-.15-1.95-.21-3.36-.21-4.11a12.121,12.121,0,0,1,.3-2.91l2,.21a9.188,9.188,0,0,0-.39,2.79,35.663,35.663,0,0,0,.33,4.56,21.572,21.572,0,0,1,5.88,3.63,3.008,3.008,0,0,0,.54.48Zm-10.56-5.37c-2.55,0-4.17,1-4.17,2.7s1.44,2.46,3.81,2.46c2.58,0,3.75-1,3.75-3.27,0-.36-.06-1.29-.06-1.29a8.9,8.9,0,0,0-3.33-.6Zm10.53-8.16a32.577,32.577,0,0,0-8-4.08l1.11-1.68a41.384,41.384,0,0,1,7.92,4Z"/><path class="cls-1" d="M318.869,142.91a16.8,16.8,0,0,0-2.22.12v-2a13.452,13.452,0,0,0,2.25.18h1.75v-2.86a18.145,18.145,0,0,0-.21-3h2.31a16.932,16.932,0,0,0-.21,3v2.91h1a9.253,9.253,0,0,0,2-.15v2a13.123,13.123,0,0,0-2-.12h-1v5.94a33.438,33.438,0,0,0,3.21-1.53v1.83c-1.35.69-1.83.93-3.21,1.56v9.3c0,1.71-.67,2.13-3.3,2.13-.48,0-.9,0-1.95-.06a6.14,6.14,0,0,0-.42-1.89,22.579,22.579,0,0,0,2.7.21c.84,0,1.08-.18,1.08-.87v-8l-2.46,1a11.56,11.56,0,0,0-1.17.51l-.54-2a16.88,16.88,0,0,0,4.17-1.47v-6.72Zm10.41-2.26a20.435,20.435,0,0,0-2.82.15v-2a17.494,17.494,0,0,0,2.82.18h3.45v-1.2a15.309,15.309,0,0,0-.19-2.4h2.22a15.553,15.553,0,0,0-.18,2.4v1.2H339a17.756,17.756,0,0,0,2.84-.18v2a20.421,20.421,0,0,0-2.84-.15h-4.42v4h5.25a20.332,20.332,0,0,0,3.06-.18v2a21.159,21.159,0,0,0-3.06-.18h-.72v3.45h.9a16.107,16.107,0,0,0,2.91-.18v2a19.95,19.95,0,0,0-2.91-.18h-.9v8.52c0,1.68-.75,2.22-3.06,2.22-.87,0-1.76-.06-3.09-.15a7.266,7.266,0,0,0-.5-2,16.455,16.455,0,0,0,3.47.39c1,0,1.32-.18,1.32-.87v-8.07h-8.49a22.207,22.207,0,0,0-3.05.18v-2a17.678,17.678,0,0,0,3.05.18h8.49v-3.45h-8.91a27.735,27.735,0,0,0-3.05.15v-2a20.464,20.464,0,0,0,3.05.18h4.39v-4Zm-.21,12.09a33.872,33.872,0,0,1,4.22,4.56l-1.53,1.26a24.157,24.157,0,0,0-4.22-4.8Z"/><path class="cls-1" d="M347.579,148.22a6.353,6.353,0,0,0,1.05.06h1.2c1.23-1.65,1.23-1.65,2.07-2.88a32.651,32.651,0,0,0-4.25-4.75l1-1.41,1.47,1.47a21.677,21.677,0,0,0,2.61-5.67l1.83.87a7.263,7.263,0,0,0-.57,1,34.223,34.223,0,0,1-2.82,4.95c.9,1,1,1.14,1.77,2.07a23.813,23.813,0,0,0,2.85-5.34l1.71,1c-.33.48-.33.48-1.5,2.46a74.1,74.1,0,0,1-4.2,6.12c2.64-.21,3.21-.24,4.2-.39a15.346,15.346,0,0,0-1.08-2.49l1.29-.57a26.17,26.17,0,0,1,2.1,5.43l-1.41.63c-.18-.75-.24-1-.42-1.56-1,.18-1.26.21-2.25.33v10a20.61,20.61,0,0,0,.18,3h-2.1a22.454,22.454,0,0,0,.18-3v-9.9c-1.41.15-2,.21-2.61.24a12.282,12.282,0,0,0-1.95.24Zm3.33,3.6a31.9,31.9,0,0,1-1.62,8.67l-1.64-.84c1-2.61,1.26-4,1.59-8.16Zm5.88-.54a46.607,46.607,0,0,1,1.41,6.21l-1.56.54a28.65,28.65,0,0,0-1.26-6.27Zm8-1.14a12.344,12.344,0,0,0-.18,1.86,12.361,12.361,0,0,1-1.86,6.33,9.939,9.939,0,0,1-4.86,3.78,4.373,4.373,0,0,0-1.32-1.59c2.52-.9,3.84-1.86,4.86-3.51a10.743,10.743,0,0,0,1.38-5.52,6.946,6.946,0,0,0-.12-1.35Zm-3.57-10.38a17.3,17.3,0,0,0-3,.18v-1.95a20.6,20.6,0,0,0,3.06.18H365v-.66a14.468,14.468,0,0,0-.18-2.46h2.1a14.314,14.314,0,0,0-.18,2.49v.63h4.5a20.479,20.479,0,0,0,3-.18v1.95a19.8,19.8,0,0,0-3-.18h-4.53v3.15h3.72a20.064,20.064,0,0,0,3-.18v1.92a19.532,19.532,0,0,0-2.94-.18h-8.67a20.334,20.334,0,0,0-3,.18V142.7a19.8,19.8,0,0,0,3,.18H365v-3.15Zm-2.76,12.36a13.846,13.846,0,0,0,.12-1.92v-1.5a10.973,10.973,0,0,0-.12-2c.6.06,1.38.09,2.85.09h9.72a21.394,21.394,0,0,0,3.15-.15,17.57,17.57,0,0,0-.09,2v1.71a13.2,13.2,0,0,0,.09,1.8h-1.89v-3.69h-12v3.69Zm10.68-2a14.174,14.174,0,0,0-.18,2.52v6.48c0,.6.3.72,1.71.72s1.71-.12,2-.63a11.558,11.558,0,0,0,.54-3.93,4.216,4.216,0,0,0,1.8.75,11.383,11.383,0,0,1-.87,4.29c-.54,1-1.23,1.23-3.42,1.23-2.88,0-3.48-.33-3.48-1.95v-7a14.364,14.364,0,0,0-.18-2.52Z"/><path class="cls-1" d="M382.929,138.35a24.383,24.383,0,0,0-3.15.18V136.4a22.868,22.868,0,0,0,3.15.18h20.09a23.952,23.952,0,0,0,3.19-.18v2.13a24.086,24.086,0,0,0-3.13-.18h-.59v21.3c0,2-.7,2.4-3.6,2.4-1,0-2.38-.06-4-.15a7.222,7.222,0,0,0-.49-2,37.184,37.184,0,0,0,4.75.36c1.1,0,1.34-.15,1.34-.84V138.35Zm12.06,13.71a14.711,14.711,0,0,0,.12,2.22c-.61-.06-1.65-.09-2.53-.09h-7.1v2.73h-2.13a16.338,16.338,0,0,0,.18-2.4v-9.48a15.709,15.709,0,0,0-.15-2.61,22.794,22.794,0,0,0,2.79.12h6.15a23.717,23.717,0,0,0,2.82-.12,13.98,13.98,0,0,0-.15,2.52Zm-9.51.42h7.56v-8.22h-7.56Z"/><path class="cls-1" d="M410.829,141.35h2.37a23.475,23.475,0,0,0,1.32-2.34,17.133,17.133,0,0,0,1.65-4.05l2.1.6a7.175,7.175,0,0,0-.6,1.17,50.282,50.282,0,0,1-2.49,4.53c3-.21,4.17-.33,6.3-.6a26.337,26.337,0,0,0-1.89-2.94L421,137a46.8,46.8,0,0,1,3.87,6l-1.59.93c-.45-.93-.54-1.11-.93-1.8-2.22.36-6.54.84-9.48,1a11.958,11.958,0,0,0-1.77.21Zm2,6.18a24.941,24.941,0,0,0-.12-2.76,18.262,18.262,0,0,0,2.43.12h5.25a22.324,22.324,0,0,0,2.76-.12c-.06.57-.09,1.47-.09,2v12.75c0,1.92-.48,2.22-3.69,2.22h-.93a8.443,8.443,0,0,0-.45-1.86,17.49,17.49,0,0,0,2.31.15c.81,0,1-.12,1-.66V155.5h-6.65v3.75a20.324,20.324,0,0,0,.15,3.06h-2.15a20.056,20.056,0,0,0,.15-3Zm1.83,1.83h6.63v-2.82h-6.64Zm0,4.53h6.63v-2.94h-6.64Zm13.08-13.8a24.225,24.225,0,0,0,7.95-3.81l1.32,1.59c-.48.24-.48.24-1.68.9a35.584,35.584,0,0,1-7.59,3.09v2.7c0,.84.33.93,3.18.93s3.63-.06,4.05-.33.63-1.08.75-3.75a6.519,6.519,0,0,0,1.77.75c-.21,2.52-.48,3.66-1,4.26s-1.68.78-5.55.78c-4.29,0-5-.3-5-2v-7.08a16.289,16.289,0,0,0-.18-2.61h2.19a11.77,11.77,0,0,0-.18,2.61Zm0,13.17a22.077,22.077,0,0,0,8.07-3.75l1.41,1.56c-1.32.75-3.63,1.92-4.68,2.37a33.161,33.161,0,0,1-4.8,1.62v3.59c0,.6.21.81,1,.93a16.123,16.123,0,0,0,2.88.15c2.37,0,3.33-.18,3.72-.66s.54-1.71.63-3.87a8.077,8.077,0,0,0,1.8.78c-.24,2.85-.57,4-1.29,4.71s-1.68.78-5,.78c-2.88,0-3.78-.09-4.59-.45s-1-.75-1-1.74v-7.5a13.706,13.706,0,0,0-.15-2.7h2.13a12.812,12.812,0,0,0-.15,2.61Z"/><path class="cls-1" d="M453.169,136.1a9.4,9.4,0,0,0-.48,1.92c-.21,1-.39,1.74-.81,3.27a25.017,25.017,0,0,0,5.37-1l.09,2.07-1.05.18a36.213,36.213,0,0,1-4.92.63,55.955,55.955,0,0,1-3.33,8.76c-.72,1.44-1,2-2.13,3.93-.27.42-.45.78-.6,1l-2-1.2a26.566,26.566,0,0,0,2.88-4.68,44.968,44.968,0,0,0,3.12-7.74c-.75,0-1.77.06-2.22.06h-3.05v-2.07a18.961,18.961,0,0,0,3.57.24h2.16a30.92,30.92,0,0,0,1-5.64Zm14.24,23.28a16.92,16.92,0,0,0-5.25-4.08,5.4,5.4,0,0,1,.07,1c0,3.09-2,4.8-5.7,4.8s-5.85-1.68-5.85-4.35a4.25,4.25,0,0,1,2.79-3.81,8.78,8.78,0,0,1,3.54-.66,9.909,9.909,0,0,1,3,.45c-.15-1.95-.21-3.36-.21-4.11a12.121,12.121,0,0,1,.3-2.91l2,.21a9.472,9.472,0,0,0-.38,2.79,35.663,35.663,0,0,0,.33,4.56,21.716,21.716,0,0,1,5.88,3.63,3.008,3.008,0,0,0,.54.48Zm-10.55-5.37c-2.55,0-4.17,1-4.17,2.7s1.44,2.46,3.81,2.46c2.58,0,3.75-1,3.75-3.27,0-.36-.06-1.29-.06-1.29a8.9,8.9,0,0,0-3.33-.6Zm10.53-8.16a32.727,32.727,0,0,0-7.95-4.08l1.11-1.68a41.384,41.384,0,0,1,7.92,4Z"/><path class="cls-1" d="M480.649,159.44a19.274,19.274,0,0,0,.18,2.94h-2.18a20.61,20.61,0,0,0,.18-3v-9.33a30.756,30.756,0,0,1-4.18,3.6,5.672,5.672,0,0,0-1.11-1.68,25.88,25.88,0,0,0,5.4-4.44,20.346,20.346,0,0,0,3.72-5.58h-5.61a20.908,20.908,0,0,0-2.4.12v-2a19.879,19.879,0,0,0,2.34.12h1.77V137.4a17.332,17.332,0,0,0-.15-2.31h2.25a12.74,12.74,0,0,0-.18,2.34v2.76h1.74a11.006,11.006,0,0,0,1.74-.09l.93,1c-.21.33-.39.66-.72,1.29a25.872,25.872,0,0,1-3.3,5.1,18.178,18.178,0,0,0,4.83,4.08,7.217,7.217,0,0,0-1,1.65,19.5,19.5,0,0,1-4.23-3.78Zm10.41-21.54a17.822,17.822,0,0,0-.21-2.73h2.37a14.03,14.03,0,0,0-.21,2.73v6.48h3.93a19.4,19.4,0,0,0,2.94-.18v2.1c-.93-.09-1.89-.15-2.94-.15h-3.93v12.81h4.74a20.9,20.9,0,0,0,3.24-.18v2.25a20.428,20.428,0,0,0-3.24-.21h-10.8a19.81,19.81,0,0,0-3.21.21v-2.25a20.888,20.888,0,0,0,3.24.18h4.08V146.15h-3c-1,0-2,.06-2.94.15v-2.1a19.014,19.014,0,0,0,2.94.18h3Z"/><path class="cls-1" d="M520.049,135.29a20.155,20.155,0,0,0,5,5.37,32.381,32.381,0,0,0,8.28,4.8,6.341,6.341,0,0,0-1.17,1.92,41.185,41.185,0,0,1-8.34-5.22,24.888,24.888,0,0,1-4.8-5.13,26.018,26.018,0,0,1-4.5,4.92,33.02,33.02,0,0,1-8.1,5.28,6.02,6.02,0,0,0-1.26-1.71,31.475,31.475,0,0,0,8-4.89,22.064,22.064,0,0,0,4.77-5.34Zm-10.14,16.74a25.705,25.705,0,0,0-3.42.18v-2.16a25.705,25.705,0,0,0,3.42.18h18.48a25.39,25.39,0,0,0,3.42-.18v2.16a26.064,26.064,0,0,0-3.42-.18h-10.74a45.167,45.167,0,0,1-3.75,7.08c4.14-.27,7.26-.57,11.7-1.11a45.174,45.174,0,0,0-3.66-3.72l1.56-1a64.987,64.987,0,0,1,7.26,7.92l-1.65,1.23c-1.17-1.65-1.56-2.16-2.19-2.94-5.34.72-9.87,1.2-14.55,1.56a35.942,35.942,0,0,0-5.07.54l-.36-2.28a13.958,13.958,0,0,0,1.53.09c.48,0,.48,0,3.18-.18a45.256,45.256,0,0,0,3.81-7.23Zm1.92-7.47a15.909,15.909,0,0,0,2.37.12h9.69a18.3,18.3,0,0,0,2.52-.12v2a18.622,18.622,0,0,0-2.52-.12h-9.72a17.257,17.257,0,0,0-2.34.12Z"/><path class="cls-1" d="M549.269,152.12c-1.74,4-3.51,5.76-5.67,5.76-2.85,0-5-3.12-5-7.32a12.179,12.179,0,0,1,12.071-12.287q.386,0,.769.017a11.614,11.614,0,0,1,8.25,3,10,10,0,0,1,2.91,7.32,10.922,10.922,0,0,1-6.87,10.35,23.212,23.212,0,0,1-4.56,1.38,4.766,4.766,0,0,0-1-2,18.022,18.022,0,0,0,5-1.41,9.062,9.062,0,0,0,5.31-8.4,7.911,7.911,0,0,0-4.77-7.53,8.63,8.63,0,0,0-3.48-.75A45.02,45.02,0,0,1,549.269,152.12Zm-3.69-10.47a10.367,10.367,0,0,0-4.89,8.94c0,2.88,1.26,5.1,2.88,5.1,1.26,0,2.46-1.41,3.75-4.35a41.217,41.217,0,0,0,2.73-11.1A9.469,9.469,0,0,0,545.579,141.65Z"/><path class="cls-1" d="M571.329,139.65a20.986,20.986,0,0,0,5.61.48h.75a16.406,16.406,0,0,1,.15-2.25c0-.33.09-1.5.09-1.71a3.379,3.379,0,0,0,0-.45l2.34.15a19.951,19.951,0,0,0-.63,4.2,46.086,46.086,0,0,0,11.43-1.68l.12,2.1-1,.15a83.974,83.974,0,0,1-10.62,1.2c-.18,2.55-.18,2.55-.21,4a15.866,15.866,0,0,1,4.44-.6,12,12,0,0,1,1.74.09,11.28,11.28,0,0,0,.72-2.7l2.07.63c-.09.18-.42,1-.93,2.4,4.14,1,6.45,3.51,6.45,7,0,2.94-1.62,5.31-4.71,6.93a16.5,16.5,0,0,1-6.12,1.71,6.181,6.181,0,0,0-1-2,13.982,13.982,0,0,0,4.5-.81c3.27-1.14,5.16-3.33,5.16-6s-1.71-4.38-5-5.22a27.008,27.008,0,0,1-5.7,9c-2.31,2.4-4.59,3.63-6.69,3.63s-3.87-1.89-3.87-4.56c0-3.69,2.61-7.05,7-8.94a38.125,38.125,0,0,1,.18-4.53h-1.2c-.3,0-1.65-.06-4.05-.15a4.864,4.864,0,0,0-.54,0,3.2,3.2,0,0,0-.48,0Zm2.88,11.1a7.087,7.087,0,0,0-1.83,4.47c0,1.65.87,2.73,2.16,2.73a5.419,5.419,0,0,0,3.45-1.53,42.343,42.343,0,0,1-.6-8.13,10.71,10.71,0,0,0-3.18,2.48Zm5.49,4.44a3.238,3.238,0,0,1,.57-.78,27.11,27.11,0,0,0,4.59-7.5c-1-.06-1.11-.06-1.44-.06a13.465,13.465,0,0,0-4.17.69,50.38,50.38,0,0,0,.33,6.87,2.105,2.105,0,0,1,0,.42v.33Z"/><path class="cls-1" d="M605.829,137.75a13.867,13.867,0,0,0,2.82.18c2.49,0,6.48-.18,9.18-.39a3.065,3.065,0,0,0,1.44-.33l1.26,1.65a5.532,5.532,0,0,0-1.53,1.26,77.061,77.061,0,0,1-9.87,8.52l.06.09a15.194,15.194,0,0,1,7.35-1.86c5,0,8.22,2.46,8.22,6.3,0,4.68-4.35,7.77-11,7.77-4.23,0-6.66-1.56-6.66-4.32,0-2,1.86-3.51,4.35-3.51a6,6,0,0,1,5,2.46,8.586,8.586,0,0,1,1.38,2.88c3.15-.87,4.8-2.7,4.8-5.25,0-2.88-2.4-4.59-6.45-4.59a19.25,19.25,0,0,0-12.63,5.13l-1.35-1.92a33.383,33.383,0,0,0,4.2-3.06c3.21-2.55,7.95-6.72,10-8.76l.42-.42.12-.12.12-.12-.06-.06h-.27c-1,.18-4.56.39-9.12.54a14.621,14.621,0,0,0-1.62.15Zm5.64,17.07c-1.5,0-2.43.72-2.43,1.86a2,2,0,0,0,1.2,1.83,7.658,7.658,0,0,0,3.36.69,10.809,10.809,0,0,0,2.19-.21C615.129,156.26,613.649,154.82,611.469,154.82Z"/><path class="cls-1" d="M632.029,150.41c1-.63,3.39-3.24,6-6.69a12.845,12.845,0,0,1,1.5-1.8,3.121,3.121,0,0,1,4.389-.455,3.166,3.166,0,0,1,.611.665c.3.27.81.84,2.19,2.43,3.66,4.32,10.32,10.35,11.91,10.8l-1,2.58a5.389,5.389,0,0,0-.72-.63,91.929,91.929,0,0,1-13.11-12.93c-.81-.93-1.29-1.29-1.8-1.29-.66,0-.93.24-2.37,2.16a79.084,79.084,0,0,1-5.25,6.39c-.54.6-.6.66-.87,1Zm19.44-11.34a22.777,22.777,0,0,1,3.09,4.65l-1.5.9a22.222,22.222,0,0,0-3.09-4.77Zm3.39-1.65a25.26,25.26,0,0,1,3.09,4.68l-1.5.87a21.925,21.925,0,0,0-3.06-4.74Z"/><path class="cls-1" d="M666.409,140.65c.72.06,1.23.09,2.25.09a59.292,59.292,0,0,0,7.11-.42,39.163,39.163,0,0,0-1.8-4.11l2.25-.39a24.948,24.948,0,0,0,1.59,4.23,37.98,37.98,0,0,0,8-2l.18,1.95c-2.67.72-5.88,1.41-7.56,1.68.45,1,1.26,2.58,1.71,3.39,4-.81,5.64-1.26,6.87-1.86l.24,2c-.51.12-.63.12-1.62.39-2.1.54-3.6.87-4.71,1.08a35.063,35.063,0,0,0,4.41,6l-1.77,1.26a8.15,8.15,0,0,0-3.3-1.14,30.4,30.4,0,0,0-3.93-.27c-4.32,0-7.11,1.35-7.11,3.42s2.28,3.06,6.39,3.06c3.12,0,7.08-.9,8.88-2l.42,2.34a17.49,17.49,0,0,0-1.8.51,26.148,26.148,0,0,1-7.68,1.11,12.1,12.1,0,0,1-6.18-1.26,4.188,4.188,0,0,1-2.25-3.72c0-3.24,3.45-5.19,9.15-5.19a18,18,0,0,1,6.06.87,27.471,27.471,0,0,1-3.21-4.62,62.443,62.443,0,0,1-10.53.87c-1.44.06-1.56.06-2.1.12l-.06-2a23.447,23.447,0,0,0,2.4.09,59.7,59.7,0,0,0,9.45-.75,37.587,37.587,0,0,1-1.71-3.42,63.793,63.793,0,0,1-8.1.54,16.511,16.511,0,0,0-1.86.09Z"/><path class="cls-1" d="M703.919,144.5a43.907,43.907,0,0,1-6.84,3.24,7.6,7.6,0,0,0-1,.45l-.78-1.95a27.265,27.265,0,0,0,8.13-3.42Zm15.57,17.67a74.245,74.245,0,0,0-9.75-3.54c-3.21,1.89-6.69,2.82-13,3.42a6.9,6.9,0,0,0-.93-1.8c5.34-.27,8.52-.9,11.64-2.28-4.74-1.2-4.74-1.2-7.56-1.74a38.744,38.744,0,0,0,3.51-3.45h-4.89a21.488,21.488,0,0,0-3,.18v-2a18.382,18.382,0,0,0,2.91.18h6.39a10.5,10.5,0,0,0,2-3.18l2.13.54a3.514,3.514,0,0,0-.36.42,3.785,3.785,0,0,1-.42.6l-1.14,1.62h11.49a18.637,18.637,0,0,0,2.91-.18v2a21.5,21.5,0,0,0-3-.18h-3.18a13.627,13.627,0,0,1-3.75,4.68,96.779,96.779,0,0,1,9.36,3.15Zm-22.05-26.16a23.911,23.911,0,0,1,5.34,3.12l-1.08,1.52a20.471,20.471,0,0,0-5.34-3.18Zm9.78,3.42a16.028,16.028,0,0,1-3.06,3.33,4.721,4.721,0,0,0-1.41-1.11,14.271,14.271,0,0,0,4.32-5.34,7.613,7.613,0,0,0,.6-1.41l1.89.51-.63,1.14c-.27.54-.45.87-.72,1.35h10.32a11.669,11.669,0,0,0,1.77-.15l1.11.9c-.09.12-.36.48-.75,1.08a15.682,15.682,0,0,1-2.88,3.12,5.728,5.728,0,0,0-1.65-.84,10.715,10.715,0,0,0,2.64-2.55h-6.33a6.758,6.758,0,0,0,2.55,5.19,15.234,15.234,0,0,0,7.11,3.27,5.287,5.287,0,0,0-1,1.8c-5.34-1.77-8-3.75-9.57-7.26a8.892,8.892,0,0,1-3.84,4.68,20.13,20.13,0,0,1-6,2.52,4.83,4.83,0,0,0-1.08-1.71q9.81-1.89,10.08-8.49Zm-1.57,13.35a35.006,35.006,0,0,1-2.49,2.64c2.52.51,4.47,1,6.27,1.47a11.006,11.006,0,0,0,3.66-4.11Z"/><path class="cls-1" d="M735.869,139.91a12.753,12.753,0,0,0,1.44-4.11l2.4.42a6.339,6.339,0,0,0-.78,1.62,14.053,14.053,0,0,1-.93,2,5.093,5.093,0,0,1,.63,0c4.8-.24,7.8-.6,9.45-1.14l.18,2a9.3,9.3,0,0,0-1.2.15,97.034,97.034,0,0,1-9.9.78,22.157,22.157,0,0,1-2.7,4.26c-.3.36-.9,1.05-1,1.14s-.36.27-.39.3h0a.226.226,0,0,0,.06.09,8.3,8.3,0,0,1,1.38-1,8,8,0,0,1,4.53-1.47,3.64,3.64,0,0,1,3.992,3.249c0,.027.006.054.008.081,2.19-.87,3.9-1.5,5.22-2a6.6,6.6,0,0,0,2-.87l1,2.1a49.862,49.862,0,0,0-8,2.64c.06.78.06,1.08.06,1.83v3a6.5,6.5,0,0,0,.06,1.08h-2q.2-2.154.18-4.32a7.948,7.948,0,0,0,0-.9c-4.08,1.92-5.64,3.33-5.64,5.13,0,2,1.86,2.85,6.09,2.85a25.147,25.147,0,0,0,8-1.17l.27,2.31a12.064,12.064,0,0,0-1.2.15,46.486,46.486,0,0,1-7.29.6c-5.37,0-8-1.53-8-4.62,0-1.65,1-3.21,3.06-4.74a23.314,23.314,0,0,1,4.47-2.4c-.24-1.65-1-2.37-2.37-2.37-1.89,0-4.26,1.11-6.69,3.18a9.917,9.917,0,0,0-2.31,2.49l-1.88-1.6a29.865,29.865,0,0,0,6.72-8.58l.27-.45a3.413,3.413,0,0,1-.57.06l-4.41-.09h-.43a5.191,5.191,0,0,0-.66,0v-2.07a42,42,0,0,0,6.42.33Z"/><path class="cls-1" d="M4.2,202.25a27.324,27.324,0,0,0-3.42.18v-2.07a21.581,21.581,0,0,0,3.39.18h7.62v-3.42H7.139a23.814,23.814,0,0,0-3.27.15v-2a20.313,20.313,0,0,0,3.27.18h4.65v-.54a18.6,18.6,0,0,0-.18-2.82h2.22a13.8,13.8,0,0,0-.18,2.82v.54h2.88a20.929,20.929,0,0,0,3.3-.18v2a20.365,20.365,0,0,0-3.18-.15h-3v3.42h2.46a33.392,33.392,0,0,0,6.09-5.4,11.422,11.422,0,0,0,1.65-2.28l1.74,1.26c-.18.21-.24.27-.51.6a48.339,48.339,0,0,1-6.24,5.82h5.07a21.171,21.171,0,0,0,3.3-.18v2.07a26,26,0,0,0-3.3-.18h-7.35a47.549,47.549,0,0,1-5.07,3.12c-.12.42-.15.54-.24.93,6.45-.72,10.68-1.5,12.18-2.25l1.22,1.77a115.37,115.37,0,0,1-13.92,2.13c-.27.81-.42,1.2-.78,2.13h10a26.289,26.289,0,0,0,3.39-.12,12.632,12.632,0,0,0-.24,1.71,23.427,23.427,0,0,1-1.2,6.06c-.48,1.08-1.35,1.47-3.36,1.47a49.744,49.744,0,0,1-5-.33,7,7,0,0,0-.39-2,33.557,33.557,0,0,0,5.43.6c1.11,0,1.5-.3,1.83-1.44a21.9,21.9,0,0,0,.72-4.23H9.269c-.27.57-.45,1-1,2.1l-2.07-.33a33.722,33.722,0,0,0,3.12-7.08,77.719,77.719,0,0,1-8.07,3.45,5.291,5.291,0,0,0-1-1.77,58.6,58.6,0,0,0,13.38-5.91Z"/><path class="cls-1" d="M36.749,200.65c.75.06,1.14.06,1.8.06a102.421,102.421,0,0,0,10.53-.72,5.7,5.7,0,0,0,1.44-.33l1.32,1.65a27.572,27.572,0,0,0-2.67,2.49,66.6,66.6,0,0,1-5.94,5.4c1.68-.81,2.19-1,3-1a2.784,2.784,0,0,1,2,.78c.6.6.81,1.29.93,3,.12,1.89.21,2.34.54,2.82s1.11.81,2.49.81a16.169,16.169,0,0,0,6.06-1.11l.33,2.31a15.508,15.508,0,0,0-2.43.36,23.815,23.815,0,0,1-4.11.39c-2.25,0-3.57-.54-4.2-1.71a7.588,7.588,0,0,1-.66-3.3,5.2,5.2,0,0,0-.33-2.07,1.471,1.471,0,0,0-1.38-.72c-1.56,0-3,.84-5.52,3.15-1.47,1.35-3.45,3.39-4.5,4.59l-1.64-1.85a21.655,21.655,0,0,0,3.24-2.76c2.16-2,4.65-4.41,7.08-6.81.87-.87,2.4-2.37,4.56-4.44a57.63,57.63,0,0,1-8.94,1c-1.44.09-2.07.15-2.85.24Zm3.48-7.38a36.7,36.7,0,0,0,10.86,1.86l-.42,2a42.712,42.712,0,0,1-11.19-2Z"/><path class="cls-1" d="M64.409,211.13a30.583,30.583,0,0,1,6,6.36l-1.68,1.59a29.952,29.952,0,0,0-5.91-6.54Z"/><path class="cls-1" d="M108.479,210.38a13.97,13.97,0,0,0,3.9,3.75,22.847,22.847,0,0,0,8.31,3.06,7.717,7.717,0,0,0-1.14,2c-6.36-1.68-10.05-4.08-12.93-8.43a11.572,11.572,0,0,1-4.71,5.61,20.685,20.685,0,0,1-6.81,2.76,7.021,7.021,0,0,0-1.11-1.89,18.212,18.212,0,0,0,6.42-2.16,10,10,0,0,0,4.41-4.65H97.2a19.718,19.718,0,0,0-2.79.18v-2a16.653,16.653,0,0,0,2.76.18h8.22a17.714,17.714,0,0,0,.42-2.88h-5.43a14.6,14.6,0,0,0-2.61.15v-1.89a14.8,14.8,0,0,0,2.61.15h5.58c.06-1.17.06-1.5.09-2.67h-5.79a18.491,18.491,0,0,0-2.88.18v-2a17.778,17.778,0,0,0,2.88.18h5.82a11,11,0,0,0-.18-2.43h2.22a10.753,10.753,0,0,0-.15,2.43h6.27a17.569,17.569,0,0,0,2.88-.18v2a15.778,15.778,0,0,0-2.88-.18h-6.3c0,1-.06,1.68-.12,2.67h5.94a14.466,14.466,0,0,0,2.58-.15v1.89a14.466,14.466,0,0,0-2.58-.15H107.7a22.574,22.574,0,0,1-.45,2.88h10.26a17.029,17.029,0,0,0,2.79-.18v2a19.563,19.563,0,0,0-2.82-.18Zm-2.46-16.44a7.868,7.868,0,0,0-.21-1.86h2.34a9.526,9.526,0,0,0-.18,1.86v1.14h8.82a29.467,29.467,0,0,0,3-.12,13.647,13.647,0,0,0-.12,2v1.77a13.393,13.393,0,0,0,.12,2.07h-1.95v-4.08H96.719v4.08h-2a13.776,13.776,0,0,0,.12-2.07v-1.74a13.93,13.93,0,0,0-.12-2,29.444,29.444,0,0,0,3,.12h8.25Z"/><path class="cls-1" d="M128.189,195.65a14.55,14.55,0,0,0-2.52.15v-2a12.122,12.122,0,0,0,2.58.18h4.4a11.42,11.42,0,0,0,2.49-.18v2a18.515,18.515,0,0,0-2.4-.12h-1.35v7h1.26a9.648,9.648,0,0,0,2-.15v1.92a14.233,14.233,0,0,0-2-.12h-1.29v7.2a41.919,41.919,0,0,0,3.87-1.89v1.89a56.28,56.28,0,0,1-7.68,3.51c-.66.24-1.2.48-1.62.66l-.63-2.1a23.563,23.563,0,0,0,4.17-1.29v-8h-1.41a10.549,10.549,0,0,0-2,.15v-2a10.078,10.078,0,0,0,2,.15h1.38v-7Zm11,14.07a27.15,27.15,0,0,0-2.91.09c.06-.78.09-1.65.09-3V196.1a26.5,26.5,0,0,0-.12-3.06,23.086,23.086,0,0,0,2.94.12h8.46a22.613,22.613,0,0,0,2.85-.12,26.059,26.059,0,0,0-.12,3.06v10.55a27.546,27.546,0,0,0,.12,3.12,24.809,24.809,0,0,0-2.91-.12h-1.2v6.84c0,.57.18.63,2.19.63,1.5,0,2-.12,2.13-.51a13.258,13.258,0,0,0,.36-3.66,7.113,7.113,0,0,0,1.8.81c-.39,4.86-.6,5.1-4.53,5.1-3.21,0-3.81-.3-3.81-1.89v-7.32h-2.78a10.539,10.539,0,0,1-1.74,5.28c-1.47,2.16-3.51,3.57-6.72,4.68a6.014,6.014,0,0,0-1.32-1.68,11.118,11.118,0,0,0,5.94-3.33,7.672,7.672,0,0,0,2-5Zm-1-11.55h10.32V194.9h-10.3Zm0,4.89h10.32v-3.24h-10.3Zm0,5.1h10.32v-3.51h-10.3Z"/><path class="cls-1" d="M172.219,194.75a10.134,10.134,0,0,0-.12-1.74h2.25a24.724,24.724,0,0,0-.15,3.75v.33c5.67,0,8-.09,9-.21v2.13a53.187,53.187,0,0,0-5.73-.15c-.45,0-.78,0-3.21.06v5.94a8.6,8.6,0,0,1,.72,3.54,9.663,9.663,0,0,1-4,7.83,19.059,19.059,0,0,1-4.74,2.43,6.613,6.613,0,0,0-1.32-1.89,15.392,15.392,0,0,0,4.86-2.25,7.772,7.772,0,0,0,3.36-6.33,4.222,4.222,0,0,1-.81,1.47,4.923,4.923,0,1,1-3.66-8.08c.09,0,.18,0,.27.01a4.608,4.608,0,0,1,3.48,1.35v-3.99c-6,.12-12.09.42-14.1.75l-.09-2.19h1.2c.87,0,.87,0,5.7-.18,2.88-.12,5.22-.18,7.26-.24Zm-1.29,9a3.838,3.838,0,0,0-2-.48,3.169,3.169,0,0,0-3.326,3.006c0,.048,0,.1,0,.144a2.9,2.9,0,0,0,2.791,3,2.712,2.712,0,0,0,.3,0,3.36,3.36,0,0,0,3.511-3.2c.005-.113.005-.226,0-.339a2.171,2.171,0,0,0-1.27-2.1Z"/><path class="cls-1" d="M194.539,194.75a13.867,13.867,0,0,0,2.82.18c2.49,0,6.48-.18,9.18-.39a3.065,3.065,0,0,0,1.44-.33l1.26,1.65a5.532,5.532,0,0,0-1.53,1.26,76.993,76.993,0,0,1-9.87,8.52l.06.09a15.194,15.194,0,0,1,7.35-1.86c5,0,8.22,2.46,8.22,6.3,0,4.68-4.35,7.77-11,7.77-4.23,0-6.66-1.56-6.66-4.32,0-2,1.86-3.51,4.35-3.51a6,6,0,0,1,4.95,2.46,8.586,8.586,0,0,1,1.38,2.88c3.15-.87,4.8-2.7,4.8-5.25,0-2.88-2.4-4.59-6.45-4.59a19.25,19.25,0,0,0-12.63,5.13l-1.35-1.92a33.383,33.383,0,0,0,4.2-3.06c3.21-2.55,7.95-6.72,10-8.76l.42-.42.12-.12.12-.12-.06-.06h-.27c-1,.18-4.56.39-9.12.54a14.644,14.644,0,0,0-1.62.15Zm5.64,17.07c-1.5,0-2.43.72-2.43,1.86a2,2,0,0,0,1.2,1.83,7.658,7.658,0,0,0,3.36.69,10.809,10.809,0,0,0,2.19-.21C203.839,213.26,202.339,211.82,200.179,211.82Z"/><path class="cls-1" d="M222.5,198.26a20.652,20.652,0,0,0,3.75.27c.6,0,.93,0,1.8-.06a29.373,29.373,0,0,0,.66-5.52l2.37.24a28.115,28.115,0,0,0-.54,2.85c-.15,1-.24,1.38-.39,2.28a24.742,24.742,0,0,0,5.4-1l.15,2.07a2.574,2.574,0,0,0-.84.15,43.78,43.78,0,0,1-5.07.72c-.45,2.37-1.29,5.76-2.1,8.49a79.2,79.2,0,0,1-3.45,9.15l-2.19-.93c2.22-3.87,4.53-10.71,5.64-16.59h-2.07c-1.07,0-1.32,0-2.49-.06h-.12a4.339,4.339,0,0,0-.51,0Zm13.41,10.89a10.086,10.086,0,0,0-.9,1.14,3.6,3.6,0,0,0-.75,2.13c0,1.8,1.83,2.76,5.25,2.76a22.281,22.281,0,0,0,6.63-1l.21,2.25-1.32.21a30.006,30.006,0,0,1-5.34.51c-4.92,0-7.47-1.53-7.47-4.5,0-1.35.42-2.28,2-4.32Zm9.27-5.19a30.134,30.134,0,0,0-3.54-.21,26.082,26.082,0,0,0-7.5,1l-.21-2a34.026,34.026,0,0,1,8-1c.57,0,1,0,3.27.09Z"/><path class="cls-1" d="M259.779,194.51a38.847,38.847,0,0,0,.81,5.22,14.287,14.287,0,0,1,6.42-1.5h1a33.75,33.75,0,0,0,.93-4.83l2.25.48a23.592,23.592,0,0,0-.81,3.15c-.15.51-.21.84-.36,1.41,5,.93,7.95,4.2,7.95,8.73a9.433,9.433,0,0,1-3.27,7.2,15.937,15.937,0,0,1-6.06,3c-.45.12-.6.15-1.89.45a5,5,0,0,0-1.17-2,13.608,13.608,0,0,0,4.47-1.11,9.762,9.762,0,0,0,4.5-3.27,7.378,7.378,0,0,0,1.32-4.26c0-3.66-2.19-6.06-6.33-6.93a33.957,33.957,0,0,1-5.82,11.76c-1.92,2.34-3.6,3.42-5.34,3.42-2.61,0-4.32-2.34-4.32-5.88a10.764,10.764,0,0,1,1.74-5.73,11.535,11.535,0,0,1,3-3.06c-.21-1-.57-2.73-.84-4.23a7.08,7.08,0,0,0-.39-1.59Zm-2.58,10.74a8.933,8.933,0,0,0-1.2,4.2c0,2.37,1,3.93,2.43,3.93,1.05,0,2.34-.9,3.69-2.55a41.41,41.41,0,0,1-2.82-8.07,8.85,8.85,0,0,0-2.1,2.49Zm6.3,3.93a4.845,4.845,0,0,1,.36-.66,34.279,34.279,0,0,0,3.66-8.49h-.75a11.21,11.21,0,0,0-5.79,1.53,42.447,42.447,0,0,0,2.25,7,4.941,4.941,0,0,1,.24.69Z"/><path class="cls-1" d="M290.829,194.06a42.5,42.5,0,0,0-1.26,4.8,44.326,44.326,0,0,0-.9,9.39c0,2.34.06,4.11.18,5.7a27.8,27.8,0,0,1,1.95-5.85l1.44.69c-1.35,3-2.43,6.57-2.43,8.25v.45l-2.16.16c-.06-.48-.09-.63-.18-1.2a42.96,42.96,0,0,1-.78-8.49,49.6,49.6,0,0,1,1.35-11.88,16.833,16.833,0,0,0,.42-2.4Zm7.65,12.06c-1.5,1.65-2.25,3.09-2.25,4.41,0,2.22,1.89,3.3,5.76,3.3a19.737,19.737,0,0,0,6.9-1l.3,2.31a6.172,6.172,0,0,0-1.05.15,31.048,31.048,0,0,1-6.15.6c-3.42,0-5.58-.72-6.87-2.28a4.239,4.239,0,0,1-.9-2.76c0-1.83.75-3.45,2.61-5.58Zm-3.83-8.88a20.368,20.368,0,0,0,5.1.45,32.228,32.228,0,0,0,8-.81l.15,2.13-2.07.27a50.578,50.578,0,0,1-6.45.39,39.9,39.9,0,0,1-4.8-.3Z"/><path class="cls-1" d="M319.569,199.37a20.9,20.9,0,0,0-3,.18v-2.07a20.724,20.724,0,0,0,3.08.17h8.73v-2.3a22.364,22.364,0,0,0-.18-3.21h2.28a22.957,22.957,0,0,0-.18,3.21v2.3h8.91a21,21,0,0,0,3.09-.18v2.07a20.731,20.731,0,0,0-3.09-.18h-8.85a24.558,24.558,0,0,0,3.09,7.08,21.927,21.927,0,0,0,5.19-5.67l1.68,1.29-1.77,2a38.56,38.56,0,0,1-4.14,3.84,25.972,25.972,0,0,0,3.18,3.57,20.394,20.394,0,0,0,5.16,3.63,9.621,9.621,0,0,0-1.41,1.77,24.157,24.157,0,0,1-5.22-4.17,26.624,26.624,0,0,1-4.08-5.49,19.572,19.572,0,0,1-1.92-4.41c0,.84.15,4.08.18,5v8.85c0,1.74-.66,2.25-3,2.25-1.2,0-2.55-.06-3.78-.18a6.831,6.831,0,0,0-.48-2,25,25,0,0,0,3.93.36c1.14,0,1.38-.15,1.38-.84V199.37Zm7.95,10.44a62.571,62.571,0,0,1-8.34,5.1,15.722,15.722,0,0,0-1.47.87l-1-2a19.831,19.831,0,0,0,4.5-2,39.04,39.04,0,0,0,5.76-3.75Zm-6.66-8.79a30.094,30.094,0,0,1,4.2,5.16l-1.59,1.26a22.275,22.275,0,0,0-4.08-5.28Zm13.29-8.64a24.028,24.028,0,0,1,4.65,3.39l-1.35,1.29a18.294,18.294,0,0,0-4.59-3.51Z"/><path class="cls-1" d="M354.989,194.51a38.847,38.847,0,0,0,.81,5.22,14.287,14.287,0,0,1,6.42-1.5h1a33.75,33.75,0,0,0,.93-4.83l2.25.48a23.592,23.592,0,0,0-.81,3.15c-.15.51-.21.84-.36,1.41,5,.93,7.95,4.2,7.95,8.73a9.433,9.433,0,0,1-3.27,7.2,15.937,15.937,0,0,1-6.06,3c-.45.12-.6.15-1.89.45a5,5,0,0,0-1.17-2,13.608,13.608,0,0,0,4.47-1.11,9.762,9.762,0,0,0,4.5-3.27,7.378,7.378,0,0,0,1.32-4.26c0-3.66-2.19-6.06-6.33-6.93a33.957,33.957,0,0,1-5.82,11.76c-1.92,2.34-3.6,3.42-5.34,3.42-2.61,0-4.32-2.34-4.32-5.88a10.764,10.764,0,0,1,1.74-5.73,11.535,11.535,0,0,1,3-3.06c-.21-1-.57-2.73-.84-4.23a7.08,7.08,0,0,0-.39-1.59Zm-2.58,10.74a8.933,8.933,0,0,0-1.2,4.2c0,2.37,1,3.93,2.43,3.93,1.05,0,2.34-.9,3.69-2.55a41.41,41.41,0,0,1-2.82-8.07A8.85,8.85,0,0,0,352.409,205.25Zm6.3,3.93a4.845,4.845,0,0,1,.36-.66,34.279,34.279,0,0,0,3.66-8.49h-.75a11.21,11.21,0,0,0-5.79,1.53,42.447,42.447,0,0,0,2.25,7,4.941,4.941,0,0,1,.24.69Z"/><path class="cls-1" d="M387.179,198.74a25.084,25.084,0,0,0-.69,3.3c-.72,4.35-.78,4.56-.87,5.25a3.678,3.678,0,0,1-.12.69h.06a8.413,8.413,0,0,1,.93-.9,14.844,14.844,0,0,1,8.67-2.58c4.89,0,8,2.28,8,5.79a6.412,6.412,0,0,1-2.7,5.16,12.45,12.45,0,0,1-7.47,2,24.959,24.959,0,0,1-5.25-.54l-2.4-.6a4.927,4.927,0,0,0,0-.57,6.98,6.98,0,0,0-.21-1.86,21.3,21.3,0,0,0,7.65,1.5c4.95,0,8.1-2,8.1-5,0-2.46-2.16-3.9-5.82-3.9a14.527,14.527,0,0,0-8.4,2.61,5.191,5.191,0,0,0-1.2,1.23l-2.34-.06c.09-.54.12-.81.24-1.77.3-2.28.84-5.76,1.26-8.28a10.137,10.137,0,0,0,.21-1.59Zm1.32-5.22a36.157,36.157,0,0,0,10.15,3.33l-.84,2.1a46.252,46.252,0,0,1-5.85-1.71,33.351,33.351,0,0,1-4.59-1.89Z"/><path class="cls-1" d="M411.649,211.22a46.155,46.155,0,0,0,5.28-5.07c0-1.2.09-3.09.18-5.73a30.583,30.583,0,0,0-4.71.42l-.12-2.07a6.029,6.029,0,0,0,.93.06l3.93-.24c.09-2.28.12-3.63.12-4a12.541,12.541,0,0,0-.09-1.5h2.37a34.816,34.816,0,0,0-.36,5.34,2.011,2.011,0,0,0,.6-.15l.78.93a10.343,10.343,0,0,0-1.53,1.86,5.215,5.215,0,0,1,0,.75c0,.6,0,.6-.06,2a1.522,1.522,0,0,1,0,.27v.48h.06a21.359,21.359,0,0,1,3.81-3.51c2.73-2.19,5-3.3,6.78-3.3a3.26,3.26,0,0,1,3.51,3.51,20.042,20.042,0,0,1-.69,4.38c-1.11,4.83-1.29,5.88-1.29,7.11s.63,2.13,1.8,2.13a3.624,3.624,0,0,0,2.55-1.65,12.354,12.354,0,0,0,1.71-3.45,9.851,9.851,0,0,0,1.38,2,14.844,14.844,0,0,1-1.86,3,5.162,5.162,0,0,1-4.14,2.16,3.7,3.7,0,0,1-2.1-.63c-1-.69-1.41-1.74-1.41-3.42,0-1.53.06-1.86,1.14-7a22.492,22.492,0,0,0,.75-4.5,1.52,1.52,0,0,0-1.411-1.622,1.466,1.466,0,0,0-.239,0c-1.17,0-2.61.66-4.53,2a48.616,48.616,0,0,0-5.79,5.1v6.48a46.339,46.339,0,0,0,.09,5h-2.34a25.685,25.685,0,0,0,.21-4.95c0-3.51,0-3.51.09-4.86h-.06a3.39,3.39,0,0,1-.54.72l-1.47,1.65-1.33,1.5a6.383,6.383,0,0,0-.78,1Z"/><path class="cls-1" d="M448.439,194.75a13.769,13.769,0,0,0,2.81.18c2.5,0,6.49-.18,9.18-.39a3,3,0,0,0,1.44-.33l1.26,1.65a5.682,5.682,0,0,0-1.53,1.26,77.794,77.794,0,0,1-9.86,8.52l.06.09a15.172,15.172,0,0,1,7.35-1.86c5,0,8.21,2.46,8.21,6.3,0,4.68-4.35,7.77-11,7.77-4.23,0-6.65-1.56-6.65-4.32,0-2,1.86-3.51,4.34-3.51a6.062,6.062,0,0,1,5,2.46,8.6,8.6,0,0,1,1.37,2.88c3.15-.87,4.8-2.7,4.8-5.25,0-2.88-2.4-4.59-6.44-4.59a19.25,19.25,0,0,0-12.63,5.13l-1.35-1.92a33.383,33.383,0,0,0,4.2-3.06c3.21-2.55,7.95-6.72,10-8.76l.42-.42.12-.12.12-.12-.05-.06h-.28c-1,.18-4.55.39-9.12.54a14.465,14.465,0,0,0-1.61.15Zm5.64,17.07c-1.5,0-2.43.72-2.43,1.86a2.05,2.05,0,0,0,1.19,1.83,7.673,7.673,0,0,0,3.37.69,10.809,10.809,0,0,0,2.19-.21c-.66-2.73-2.16-4.17-4.32-4.17Z"/><path class="cls-1" d="M495.949,196.13a3.161,3.161,0,0,1-.12-.87,3.41,3.41,0,1,1,3.43,3.39h-.04a3.551,3.551,0,0,1-1.05-.15l-.06.18c-1.47,5.34-3.39,9.09-6.12,11.94a27.854,27.854,0,0,1-10.92,7.11,5.945,5.945,0,0,0-1.42-2.08,22.5,22.5,0,0,0,16.23-17.49h-15.32a22.2,22.2,0,0,0-3.36.18v-2.4a21.343,21.343,0,0,0,3.39.18h15.36Zm1.14-.9a2.15,2.15,0,1,0,2.17-2.13h-.01a2.15,2.15,0,0,0-2.16,2.13Z"/><path class="cls-1" d="M511.759,214.65v2.13h-2.31a15.666,15.666,0,0,0,.12-2.25v-16.3a15.511,15.511,0,0,0-.12-2.34,21.763,21.763,0,0,0,2.34.09h16a15.5,15.5,0,0,0,2.34-.09,16.187,16.187,0,0,0-.09,2.34v16.23a17.622,17.622,0,0,0,.09,2.31h-2.28v-2.12Zm16.08-16.68h-16.08v14.68h16.08Z"/><path class="cls-1" d="M550.429,193.01a7.915,7.915,0,0,0-.45.75q-.111.18-.6,1.26c-.3.57-.63,1.14-.93,1.65a6.444,6.444,0,0,1,1.11-.09l7.23-.06a14.734,14.734,0,0,0,1.83-.12l1.73,1.92a3.283,3.283,0,0,1-.14.42l-.15.42-.15.45c-3.78,9.93-8.25,14.82-17.28,19a5.083,5.083,0,0,0-1.47-1.86c4.44-1.65,9.09-4.92,11.4-8a38.215,38.215,0,0,0-6.72-4.83l1.38-1.53a41.056,41.056,0,0,1,6.62,4.65,36.88,36.88,0,0,0,4.17-8.7l-10.49.12a31.034,31.034,0,0,1-7.14,8,5.145,5.145,0,0,0-1.74-1.44,26.436,26.436,0,0,0,7.65-8.58,15.511,15.511,0,0,0,1.77-4.08Zm9.57-.51a21.141,21.141,0,0,1,3.06,4.53l-1.5.9a20.955,20.955,0,0,0-3.06-4.62Zm3.35-1.68a22.7,22.7,0,0,1,3.09,4.56l-1.5.87a20.026,20.026,0,0,0-3-4.59Z"/><path class="cls-1" d="M583.479,193.28a5.716,5.716,0,0,0-.66,1.23,28.665,28.665,0,0,1-1.38,2.67c.39-.09.39-.09,9.06-.24a3,3,0,0,0,1.56-.21l1.29,1.26c-.27.36-.27.39-.6,1.47a31.738,31.738,0,0,1-6,11.28,29.386,29.386,0,0,1-10.44,7.5,4.528,4.528,0,0,0-1.5-1.77,25.519,25.519,0,0,0,10.59-7.59,27.579,27.579,0,0,0,5.16-10.05l-10.11.18a28.931,28.931,0,0,1-7.17,7.8,4.466,4.466,0,0,0-1.63-1.56,22.234,22.234,0,0,0,7.53-8.22,13.6,13.6,0,0,0,1.89-4.38Z"/><path class="cls-1" d="M608.889,218.03a19.292,19.292,0,0,0,.18-3.15V196.25a17.8,17.8,0,0,0-.18-3.06h2.58a18.7,18.7,0,0,0-.15,3.12v5.61a74.382,74.382,0,0,1,13.33,6.33l-1.29,2.22a61.184,61.184,0,0,0-11.19-5.94,3.294,3.294,0,0,1-.93-.51h-.06a10.491,10.491,0,0,1,.12,1.77v9a20.359,20.359,0,0,0,.15,3.18Z"/><path class="cls-1" d="M633.7,211.13a30.583,30.583,0,0,1,6,6.36l-1.68,1.59a29.952,29.952,0,0,0-5.91-6.54Z"/><path class="cls-1" d="M667.029,201.2a45.8,45.8,0,0,1,7.62,3.93l-1.17,2a33.311,33.311,0,0,0-7.65-4.11Zm-.78,13.71a25.951,25.951,0,0,0,8.07-1.86,19.763,19.763,0,0,0,9-6.69,22.335,22.335,0,0,0,3.6-6.72,8.979,8.979,0,0,0,1.86,1.59c-2.61,6.24-6.27,10.32-11.55,12.93a34.278,34.278,0,0,1-7.59,2.58l-1.62.33a6.963,6.963,0,0,0-1.17.33Zm3.12-20.88a44.35,44.35,0,0,1,7.44,3.78l-1.23,2a31.573,31.573,0,0,0-7.38-4Z"/><path class="cls-1" d="M718.569,217.37a55.827,55.827,0,0,0-9.6-9.27,32.581,32.581,0,0,1-5.73,5.37,38.62,38.62,0,0,1-5.88,3.6,6.691,6.691,0,0,0-1.47-2,24.135,24.135,0,0,0,6.09-3.45,32.53,32.53,0,0,0,10.67-13.51c.06-.18.09-.21.15-.36a.642.642,0,0,0,.09-.21,5.089,5.089,0,0,1-.72,0l-10,.15a20.227,20.227,0,0,0-3.09.24l-.06-2.43a14.022,14.022,0,0,0,2.37.15h.78l10.71-.12a5.6,5.6,0,0,0,1.92-.24l1.26,1.29a5.6,5.6,0,0,0-.84,1.47,36.279,36.279,0,0,1-5,8.4,74.7,74.7,0,0,1,10,9Z"/><path class="cls-1" d="M741.569,204.08a28.274,28.274,0,0,1-.33,3.18,11.8,11.8,0,0,1-4.05,7.92,17.639,17.639,0,0,1-5.28,3,5.252,5.252,0,0,0-1.41-2c3.93-1.26,6.36-3.18,7.59-5.91a17.175,17.175,0,0,0,1.2-6.21h-8.13a27.222,27.222,0,0,0-3.45.15v-2.22a21.535,21.535,0,0,0,3.48.18h17.55a21.541,21.541,0,0,0,3.48-.18v2.22a27.231,27.231,0,0,0-3.45-.15Zm-10.83-9.51a16.6,16.6,0,0,0,3.45.21h11.67a16.609,16.609,0,0,0,3.45-.21v2.28a24.121,24.121,0,0,0-3.42-.15h-11.73a24.121,24.121,0,0,0-3.42.15Z"/><path class="cls-1" d="M14.219,250.88a11.8,11.8,0,0,0-.81,2.16,162.783,162.783,0,0,1-6.24,17.55c4-.27,11-1.2,14.58-1.89a58.438,58.438,0,0,0-4.62-7.77l1.86-1a77.768,77.768,0,0,1,7.47,13.56l-2.1,1.16a40.879,40.879,0,0,0-1.77-4.05,185.108,185.108,0,0,1-18.45,2.49,20.824,20.824,0,0,0-2.55.33l-.3-2.49h.84c.21,0,1.86-.09,2.55-.15a114.5,114.5,0,0,0,4.53-11.88,57.023,57.023,0,0,0,2.37-8.64Z"/><path class="cls-1" d="M44.309,266.12c-1.74,4-3.51,5.76-5.67,5.76-2.85,0-5-3.12-5-7.32A12.179,12.179,0,0,1,45.71,252.273q.386,0,.769.017a11.614,11.614,0,0,1,8.25,3,10,10,0,0,1,2.91,7.32,10.922,10.922,0,0,1-6.87,10.35,23.212,23.212,0,0,1-4.56,1.38,4.766,4.766,0,0,0-1-2,18.022,18.022,0,0,0,5-1.41,9.062,9.062,0,0,0,5.31-8.4,7.922,7.922,0,0,0-4.77-7.53,8.63,8.63,0,0,0-3.48-.75A45.02,45.02,0,0,1,44.309,266.12Zm-3.66-10.47a10.367,10.367,0,0,0-4.89,8.94c0,2.88,1.26,5.1,2.88,5.1,1.26,0,2.46-1.41,3.75-4.35a41.217,41.217,0,0,0,2.73-11.1A9.469,9.469,0,0,0,40.649,255.65Z"/><path class="cls-1" d="M78.769,261.02c-.36,7.77-2.88,11.43-9.66,14.07a5.252,5.252,0,0,0-1.41-2c6.21-2.07,8.55-5.28,8.79-12.12h-8.13a23.666,23.666,0,0,0-3.45.15v-2.17a19.851,19.851,0,0,0,3.48.18h17.55a19.664,19.664,0,0,0,3.48-.18v2.22a23.672,23.672,0,0,0-3.45-.15Zm-10.83-9.51a15.57,15.57,0,0,0,3.45.21h9.06a27.231,27.231,0,0,0,3.45-.15v2.16q-.591,0-3.42-.09h-9.12a20.9,20.9,0,0,0-3.42.15Zm17.58-2.52a23.339,23.339,0,0,1,2.94,4.74l-1.53.84a22.908,22.908,0,0,0-2.91-4.86Zm3.69-1.14a25.01,25.01,0,0,1,2.94,4.74l-1.53.84a23.521,23.521,0,0,0-2.91-4.83Z"/><path class="cls-1" d="M113.2,256.7v-2.94a21.123,21.123,0,0,0-.09-3.06h2.34a22.8,22.8,0,0,0-.12,2.85v3.15h2.58a20.5,20.5,0,0,0,3.51-.18v2.28a24.084,24.084,0,0,0-3.48-.15H115.3c0,5.79-.36,8-1.47,10.17-1.62,3-4.32,5.1-8.37,6.48a5.379,5.379,0,0,0-1.35-1.89c3.93-1,7-3.33,8.16-6.36.66-1.8.84-3.6.9-8.4h-9.12v5a15.665,15.665,0,0,0,.12,2.43h-2.43a14.542,14.542,0,0,0,.12-2.52v-4.91h-2.52a24.084,24.084,0,0,0-3.48.15v-2.28a20.492,20.492,0,0,0,3.51.18h2.49v-3.48a14.743,14.743,0,0,0-.12-2.52h2.43a15.917,15.917,0,0,0-.12,2.43v3.57Zm5-7.89a23.9,23.9,0,0,1,2.13,4.92l-1.59.54a23.215,23.215,0,0,0-2.13-5Zm3.45-1a23.269,23.269,0,0,1,2.13,4.89l-1.56.54a24.05,24.05,0,0,0-2.1-4.92Z"/><path class="cls-1" d="M151.109,251.75a6.8,6.8,0,0,0-1.32,1.26,52.872,52.872,0,0,1-7,6v12.78a19.882,19.882,0,0,0,.15,3.18h-2.61a15.519,15.519,0,0,0,.19-3.12v-11.4a47.041,47.041,0,0,1-11.59,5.25,6.929,6.929,0,0,0-1.16-2,42.2,42.2,0,0,0,15.56-7.77,25.189,25.189,0,0,0,5.73-5.67Z"/><path class="cls-1" d="M161.429,271.49a26.114,26.114,0,0,0,8.73-2.31c5.79-2.58,9.81-7,12.24-13.35a5.989,5.989,0,0,0,1.83,1.77c-2.4,5.22-5.19,8.73-9.15,11.46-3.09,2.1-6.18,3.33-11.19,4.47a15.753,15.753,0,0,0-1.8.48Zm1.92-18.6a39.12,39.12,0,0,1,7.23,5.64l-1.56,1.86a33.173,33.173,0,0,0-7.14-5.88Z"/><path class="cls-1" d="M199.729,253.91a12.753,12.753,0,0,0,1.44-4.11l2.4.42a6.339,6.339,0,0,0-.78,1.62,14.053,14.053,0,0,1-.93,2,5.093,5.093,0,0,1,.63,0c4.8-.24,7.8-.6,9.45-1.14l.18,2a9.3,9.3,0,0,0-1.2.15,97.034,97.034,0,0,1-9.9.78,22.157,22.157,0,0,1-2.7,4.26c-.3.36-.9,1.05-1,1.14s-.36.27-.39.3h0a.226.226,0,0,0,.06.09,8.3,8.3,0,0,1,1.38-1,8,8,0,0,1,4.53-1.47,3.64,3.64,0,0,1,3.992,3.249c0,.027.006.054.008.081,2.19-.87,3.9-1.5,5.22-2a6.6,6.6,0,0,0,2-.87l1,2.1a49.862,49.862,0,0,0-8,2.64c.06.78.06,1.08.06,1.83v3a6.5,6.5,0,0,0,.06,1.08h-2q.2-2.154.18-4.32a7.948,7.948,0,0,0,0-.9c-4.08,1.92-5.64,3.33-5.64,5.13,0,2,1.86,2.85,6.09,2.85a25.147,25.147,0,0,0,8-1.17l.27,2.31a12.064,12.064,0,0,0-1.2.15,46.486,46.486,0,0,1-7.29.6c-5.37,0-8-1.53-8-4.62,0-1.65,1-3.21,3.06-4.74a23.314,23.314,0,0,1,4.47-2.4c-.24-1.65-1-2.37-2.37-2.37-1.89,0-4.26,1.11-6.69,3.18a9.917,9.917,0,0,0-2.31,2.49l-1.88-1.6a29.865,29.865,0,0,0,6.72-8.58l.27-.45a3.413,3.413,0,0,1-.57.06l-4.41-.09h-.48a5.191,5.191,0,0,0-.66,0v-2.07a42,42,0,0,0,6.42.33Z"/><path class="cls-1" d="M238.749,264.17h-5.4a13.348,13.348,0,0,0-2.43.15v-1.67a30.486,30.486,0,0,1-3,1.44v9.84c0,1.65-.66,2.13-2.94,2.13a18.9,18.9,0,0,1-2.4-.12,6.356,6.356,0,0,0-.42-1.89,18.622,18.622,0,0,0,2.82.24c.87,0,1.11-.18,1.11-.84v-8.58c-2,.84-3.24,1.35-3.63,1.53l-.54-2a18.52,18.52,0,0,0,4.17-1.38v-6.3h-1.74a21.129,21.129,0,0,0-2.22.15v-2a13.452,13.452,0,0,0,2.25.18h1.71v-2.73a20.064,20.064,0,0,0-.18-3h2.19a18.7,18.7,0,0,0-.18,3v2.79h1.32a9.21,9.21,0,0,0,2.07-.15v2a12.391,12.391,0,0,0-2-.12h-1.36v5.52a28.042,28.042,0,0,0,3.24-1.56v1.74a17.025,17.025,0,0,0,2.28.12h12.48a16.459,16.459,0,0,0,2.67-.18v2a16.8,16.8,0,0,0-2.67-.18h-5.37v3.35h4a14.614,14.614,0,0,0,2.61-.15v1.89a15.4,15.4,0,0,0-2.61-.15h-4v4.32a24.034,24.034,0,0,0,3.78.27c1.5,0,3.12-.06,4.89-.21a5.523,5.523,0,0,0-.57,1.95h-2.7c-5.13,0-7.89-.54-9.81-1.89a11.676,11.676,0,0,1-2.55-2.52,19.277,19.277,0,0,1-3.48,5.16,4.87,4.87,0,0,0-1.53-1.14,15.358,15.358,0,0,0,3.75-5.46,13.557,13.557,0,0,0,1.11-4.14l1.95.48a11.9,11.9,0,0,0-.48,1.53c-.21.66-.39,1.26-.63,1.89a8.376,8.376,0,0,0,4.44,3.57Zm-3.27-3.9a23.649,23.649,0,0,0-2.7.09c.06-.87.09-1.74.09-2.82v-4.35a25.08,25.08,0,0,0-.09-2.79,25.525,25.525,0,0,0,2.82.12h8.16a24.147,24.147,0,0,0,2.82-.12,16.736,16.736,0,0,0-.12,2.4v4.85a21.173,21.173,0,0,0,.12,2.7c-.69-.06-1.68-.09-2.88-.09Zm-.83-5.62h10v-2.52h-10Zm0,4.08h10v-2.55h-10Z"/><path class="cls-1" d="M276.749,266.57a26.1,26.1,0,0,0,3.33-.18v2a26.286,26.286,0,0,0-3.33-.18h-7.7a26.906,26.906,0,0,0,11.73,6,7.477,7.477,0,0,0-1.23,1.8,35.8,35.8,0,0,1-5.16-2.16,26.6,26.6,0,0,1-6.87-5c.06,1.2.12,2.61.12,3.24v1.29a15.9,15.9,0,0,0,.18,2.94h-2.17a17.632,17.632,0,0,0,.18-2.94v-1.29c0-.63,0-1.5.09-3.21a26,26,0,0,1-6.57,4.83,43.6,43.6,0,0,1-4.95,2.22,5.825,5.825,0,0,0-1.29-1.71,33.338,33.338,0,0,0,6.78-2.79,19.294,19.294,0,0,0,4.47-3.24h-7.08a25.626,25.626,0,0,0-3.3.18v-2a25.164,25.164,0,0,0,3.27.18h8.58v-.36a13.93,13.93,0,0,0-.12-2h2a12.865,12.865,0,0,0-.12,2v.39Zm-3.17-9a11.7,11.7,0,0,1-3.45,3.42,79.8,79.8,0,0,1,8.52,2.66l-1.17,1.47a59.388,59.388,0,0,0-9.26-3.06c-3.45,1.65-7.14,2.46-13,2.85a4.59,4.59,0,0,0-.81-1.62,33.506,33.506,0,0,0,11.25-1.83c-1.95-.42-3.6-.69-6.75-1.11a25.542,25.542,0,0,0,2.85-2.79h-4.38a21.8,21.8,0,0,0-3,.18v-1.86a18.063,18.063,0,0,0,2.94.18h5.73a10.925,10.925,0,0,0,1.77-2.85l1.95.54-1.68,2.31h11.7a15.692,15.692,0,0,0,3-.18v1.86a20.9,20.9,0,0,0-3-.18Zm-7.71-6.51a10.958,10.958,0,0,0-.21-2.22h2.28a9.976,9.976,0,0,0-.21,2.22v.18h8.82a28.347,28.347,0,0,0,3-.12,9.39,9.39,0,0,0-.12,1.74v.57a13.964,13.964,0,0,0,.09,1.71h-1.87V252.8h-21v2.31h-1.92a14.219,14.219,0,0,0,.09-1.65v-.6a10.56,10.56,0,0,0-.12-1.74c1,.09,1.77.12,3,.12h8.13Zm-1.92,6.59c-.69.78-.93,1-1.74,1.86,2.13.33,3.75.63,5.7,1.08a10,10,0,0,0,3.5-2.94Z"/><path class="cls-1" d="M300.3,251.75a10.134,10.134,0,0,0-.12-1.74h2.25a24.724,24.724,0,0,0-.15,3.75v.33c5.67,0,8-.09,9-.21v2.13a53.187,53.187,0,0,0-5.73-.15c-.45,0-.78,0-3.21.06v5.94a8.6,8.6,0,0,1,.72,3.54,9.663,9.663,0,0,1-4,7.83,19.059,19.059,0,0,1-4.74,2.43,6.613,6.613,0,0,0-1.32-1.89,15.392,15.392,0,0,0,4.86-2.25,7.772,7.772,0,0,0,3.36-6.33,4.222,4.222,0,0,1-.81,1.47,4.923,4.923,0,1,1-3.66-8.08c.09,0,.18,0,.27.01a4.608,4.608,0,0,1,3.48,1.35v-3.99c-6,.12-12.09.42-14.1.75l-.09-2.19h1.2c.87,0,.87,0,5.7-.18,2.88-.12,5.22-.18,7.26-.24Zm-1.29,9a3.838,3.838,0,0,0-2-.48,3.171,3.171,0,0,0-3.355,2.974c0,.069-.006.137,0,.206a2.9,2.9,0,0,0,2.791,3,2.712,2.712,0,0,0,.3,0,3.36,3.36,0,0,0,3.511-3.2c0-.113,0-.226,0-.339a2.171,2.171,0,0,0-1.24-2.13Z"/><path class="cls-1" d="M322.519,251.75a13.867,13.867,0,0,0,2.82.18c2.49,0,6.48-.18,9.18-.39a3.065,3.065,0,0,0,1.44-.33l1.26,1.65a5.532,5.532,0,0,0-1.53,1.26,76.993,76.993,0,0,1-9.87,8.52l.06.09a15.194,15.194,0,0,1,7.35-1.86c5,0,8.22,2.46,8.22,6.3,0,4.68-4.35,7.77-11,7.77-4.23,0-6.66-1.56-6.66-4.32,0-2,1.86-3.51,4.35-3.51a6,6,0,0,1,4.95,2.46,8.586,8.586,0,0,1,1.38,2.88c3.15-.87,4.8-2.7,4.8-5.25,0-2.88-2.4-4.59-6.45-4.59a19.25,19.25,0,0,0-12.63,5.13l-1.35-1.92a33.383,33.383,0,0,0,4.2-3.06c3.21-2.55,7.95-6.72,10-8.76l.42-.42.12-.12.12-.12-.06-.06h-.27c-1,.18-4.56.39-9.12.54a14.644,14.644,0,0,0-1.62.15Zm5.64,17.07c-1.5,0-2.43.72-2.43,1.86a2,2,0,0,0,1.2,1.83,7.658,7.658,0,0,0,3.36.69,10.809,10.809,0,0,0,2.19-.21C331.819,270.26,330.319,268.82,328.159,268.82Z"/><path class="cls-1" d="M356.809,271.55a4.5,4.5,0,1,1-4.5-4.5h0a4.49,4.49,0,0,1,4.5,4.48Zm-7.29,0a2.79,2.79,0,1,0,2.79-2.79h0A2.8,2.8,0,0,0,349.519,271.55Z"/><path class="cls-1" d="M384.649,252.38a17.209,17.209,0,0,0-.18-3h2.18a22.11,22.11,0,0,0-.15,3v2h2.85a18.2,18.2,0,0,0,2.76-.18v2a21.105,21.105,0,0,0-2.73-.12,28.8,28.8,0,0,1-2.13,9.45,58.682,58.682,0,0,1,4.29,6.3l-1.5,1.44a56.007,56.007,0,0,0-3.66-5.88,24.412,24.412,0,0,1-6.66,8,5.29,5.29,0,0,0-1.5-1.44,21,21,0,0,0,6.93-8.19,52.232,52.232,0,0,0-5.43-6.12l1.41-1.2a68.52,68.52,0,0,1,4.83,5.43,27.549,27.549,0,0,0,1.47-7.8h-6.24a15.787,15.787,0,0,0-2.67.15v-2a18.2,18.2,0,0,0,2.76.18h3.37Zm8.7,8a34.132,34.132,0,0,1,4.44,6.69l-1.65,1.14a26.366,26.366,0,0,0-4.32-6.9Zm1.89-2.49a18.474,18.474,0,0,0-2.82.18v-2a17.294,17.294,0,0,0,2.85.15h4.68v-3.36a17.212,17.212,0,0,0-.21-3.27h2.31a20.313,20.313,0,0,0-.18,3.27v3.36h.75a18.637,18.637,0,0,0,2.91-.18v2.07a18.077,18.077,0,0,0-2.94-.18h-.72v15.45c0,2-.6,2.43-3.3,2.43-1.35,0-2.1,0-3.42-.09a7.234,7.234,0,0,0-.63-2,28.711,28.711,0,0,0,3.84.33c1.35,0,1.59-.12,1.59-.75V257.93Z"/><path class="cls-1" d="M427.059,261.65a16.831,16.831,0,0,0,1.89,4.41,16.523,16.523,0,0,0,4.74-3.75l1.59,1.35c-.39.27-.66.45-1.92,1.44a27.666,27.666,0,0,1-3.45,2.34,26.143,26.143,0,0,0,2.16,2.46,13.993,13.993,0,0,0,5.37,3.42,7.215,7.215,0,0,0-1.35,1.83,18.254,18.254,0,0,1-5.7-4.14,22.5,22.5,0,0,1-5.16-9.36h-.58a15.08,15.08,0,0,1-2,1.29,12.7,12.7,0,0,1,3.6,8.91c0,2.37-.66,3.78-2,4.26a8.523,8.523,0,0,1-2.71.3,15.712,15.712,0,0,1-2-.09,5.739,5.739,0,0,0-.52-2,14.882,14.882,0,0,0,2.88.27c1.17,0,1.59-.12,1.92-.57a4.51,4.51,0,0,0,.51-2.52,13.332,13.332,0,0,0-.09-1.44,41.306,41.306,0,0,1-12.51,5.4,8.3,8.3,0,0,0-1.08-1.65,37.957,37.957,0,0,0,13.23-5.37,12.9,12.9,0,0,0-.72-1.83,37.865,37.865,0,0,1-10.94,4.35,5.685,5.685,0,0,0-1-1.65,31.635,31.635,0,0,0,11.21-4.08,8.339,8.339,0,0,0-1.26-1.56,33.683,33.683,0,0,1-9.18,3,5.144,5.144,0,0,0-1-1.59,31.827,31.827,0,0,0,10.92-3.43h-5c-1.32,0-2.35,0-3.28.09a13.957,13.957,0,0,0,.13-2.46v-2.7c-1,.66-1.42.9-2.59,1.59a5.335,5.335,0,0,0-1.1-1.47,22.17,22.17,0,0,0,7.16-5.22,10.654,10.654,0,0,0,2.16-2.88l2.07.63c-.24.27-.24.27-.62.75-.22.24-.33.39-.88,1h5.49a16.766,16.766,0,0,0,2.76-.15l1.05,1.05c-.48.51-.48.51-1.14,1.26a28.536,28.536,0,0,1-2.13,2.13h5.52a30.641,30.641,0,0,0,3.36-.12,18.384,18.384,0,0,0-.12,2.46v1.68a17.734,17.734,0,0,0,.12,2.46q-1.311-.1-3.22-.1Zm-3.36-6.39a15.982,15.982,0,0,0,2.76-2.79h-7.81a29.28,29.28,0,0,1-3.09,2.79Zm-.62,4.83v-3.24h-7.5v3.24Zm9.83,0v-3.24h-8.07v3.24Z"/><path class="cls-1" d="M448.239,250.94c-1.29,3-2.31,9.15-2.31,14.07,0,1,.06,2.82.12,4.2v1.44h.12a26.628,26.628,0,0,1,1.77-5.28,4.265,4.265,0,0,0,.24-.6l1.47.69c-1.41,2.94-2.58,6.75-2.58,8.52a3.187,3.187,0,0,0,.06.6l-2.13.21a7.551,7.551,0,0,0-.18-1.11,47.652,47.652,0,0,1-.84-8.91,50.77,50.77,0,0,1,1.56-12.33,13.915,13.915,0,0,0,.33-1.89Zm3,5.58a20.759,20.759,0,0,0,5.4.48c1.17,0,2,0,3.21-.09v-5.1a6.665,6.665,0,0,0-.09-1.23h2.25a30.631,30.631,0,0,0-.21,4.71v1.47a20.449,20.449,0,0,0,5.19-1.11l.09,2c-.06,0-.06,0-2.1.42a28.668,28.668,0,0,1-3.18.48c0,3,.09,4.5.33,8.49a21.742,21.742,0,0,1,5,2.94c.36.24.42.3.75.51l-.93,2.1a16.2,16.2,0,0,0-4.26-3.12,1.892,1.892,0,0,1-.3-.18l-.27-.18a4.434,4.434,0,0,1,.06.78,5.18,5.18,0,0,1-.36,2c-.72,1.59-2.55,2.52-5,2.52-3.48,0-5.67-1.65-5.67-4.26s2.37-4.26,5.7-4.26a8.471,8.471,0,0,1,3.33.6c-.09-.63-.21-3.45-.3-7.83-1.35.06-2.28.09-3.42.09s-2.34,0-3.39-.09a7.965,7.965,0,0,0-1-.06,4.339,4.339,0,0,0-.51,0,1.368,1.368,0,0,0-.3,0h-.12ZM457,267.77c-2.34,0-3.87,1-3.87,2.49s1.41,2.39,3.52,2.39a4.13,4.13,0,0,0,3.06-1,3.5,3.5,0,0,0,.57-2.34v-.9a7.761,7.761,0,0,0-3.25-.64Z"/><path class="cls-1" d="M487.649,269.3h8a21.564,21.564,0,0,0,3.51-.18v2.34a27.7,27.7,0,0,0-3.48-.15H477.9a27.409,27.409,0,0,0-3.45.15v-2.34a21.309,21.309,0,0,0,3.48.18h7.5V256.01h-5.22a27.324,27.324,0,0,0-3.48.15v-2.31a21.791,21.791,0,0,0,3.51.18h13.17a21.8,21.8,0,0,0,3.51-.18v2.31a27.332,27.332,0,0,0-3.48-.15h-5.79Z"/><path class="cls-1" d="M516.979,275.65a15.11,15.11,0,0,0,.18-2.55v-8.45a1.216,1.216,0,0,1,0-.33,39.718,39.718,0,0,1-10.14,4.38,6.3,6.3,0,0,0-1.11-2,40.761,40.761,0,0,0,8.74-3.05,33.629,33.629,0,0,0,10-7.43c-.78.06-1.26.09-1.71.09l-11.46.06a25.242,25.242,0,0,0-2.91.12v-2.25a15.247,15.247,0,0,0,2.91.21h5.58v-2.7a12.161,12.161,0,0,0-.12-2h2.4a9.311,9.311,0,0,0-.15,2v2.76h6.3a3.2,3.2,0,0,0,1.32-.21l1.11,1.32a5.128,5.128,0,0,0-.81.81,33.128,33.128,0,0,1-7,6.21,65.433,65.433,0,0,1,11,5.22l-1.23,2a62.3,62.3,0,0,0-9.9-5.25,8.32,8.32,0,0,1-.87-.45,7.008,7.008,0,0,1,.12,1.53v7.44a15.49,15.49,0,0,0,.12,2.61Z"/><path class="cls-1" d="M545.649,251.39a14.852,14.852,0,0,0-.18,2.58c-.24,8.13-.48,10.35-1.62,13.38a18.343,18.343,0,0,1-5.19,7.41,5.555,5.555,0,0,0-1.8-1.62,14.847,14.847,0,0,0,5.07-6.9c.93-2.61,1.35-6.54,1.35-12.87a13.428,13.428,0,0,0-.12-2.13Zm7.44-.33a11.565,11.565,0,0,0-.18,2.64l-.18,18.12a13.866,13.866,0,0,0,5.58-3.48,15.006,15.006,0,0,0,3.54-6,7.88,7.88,0,0,0,1.68,1.74,17.117,17.117,0,0,1-6,7.71,19.768,19.768,0,0,1-4.29,2.19l-1,.36a5.019,5.019,0,0,0-.69.33l-1.2-1.38a5.072,5.072,0,0,0,.21-2l.18-17.55a12.051,12.051,0,0,0-.12-2.67Z"/><path class="cls-1" d="M578.919,252.98a9.533,9.533,0,0,0-.66-2.55l2.37-.42a13.579,13.579,0,0,0,.33,2.58l.6,3.3,5.43-.84a14.668,14.668,0,0,0,2.64-.6l.42,2.16c-.57.06-.75.06-1.17.12-.18,0-.66.12-1.5.24l-5.46.87,1.14,6,7.44-1.2a16.382,16.382,0,0,0,3-.66l.42,2.22a8.987,8.987,0,0,0-1.32.12l-.93.18-.69.09-7.53,1.2,1.23,6.66a19.9,19.9,0,0,0,.66,2.82l-2.4.48a19.645,19.645,0,0,0-.36-2.88l-1.23-6.72-8,1.26a16.572,16.572,0,0,0-2.88.63l-.39-2.28h.18a16.966,16.966,0,0,0,2.79-.27l8-1.29-1.08-6.06-6.18,1a18.4,18.4,0,0,0-3,.66l-.42-2.28a20.794,20.794,0,0,0,3.12-.3l6.12-1Zm11.19-3.21a22.777,22.777,0,0,1,3.09,4.65l-1.53.9a21.814,21.814,0,0,0-3.02-4.77Zm3.39-1.62a24.172,24.172,0,0,1,3.09,4.65l-1.5.87a21.743,21.743,0,0,0-3.06-4.71Z"/><path class="cls-1" d="M601.019,261.35a21.223,21.223,0,0,0,3.72.18h17.43a23.673,23.673,0,0,0,3.63-.15v2.43a34.393,34.393,0,0,0-3.66-.12h-17.4a32.748,32.748,0,0,0-3.72.12Z"/><path class="cls-1" d="M634.939,272.81a20.968,20.968,0,0,0,.18,3.36h-2.21a24.654,24.654,0,0,0,.17-3.36V253.34a30.3,30.3,0,0,0-.12-3.3,27.537,27.537,0,0,0,3.12.12h4.29a26.5,26.5,0,0,0,3.06-.12c-.06.9-.09,1.68-.09,2.85v4a24.05,24.05,0,0,0,.09,2.76c-.66-.06-1.8-.09-3-.09h-5.47Zm0-18.72h6.71v-2.44h-6.69Zm0,4h6.71v-2.52h-6.69Zm15.42,10.86a15.038,15.038,0,0,0,.09,1.8,17.546,17.546,0,0,0-1.89-.09h-7.2v2.37h-2a18.459,18.459,0,0,0,.16-2.79v-6a18.649,18.649,0,0,0-.1-1.89c.61.06,1.27.09,2.07.09h6.72a21.637,21.637,0,0,0,2.19-.09,16.95,16.95,0,0,0-.09,1.83Zm-9,.12h7.23v-5h-7.23Zm15.78,4.2c0,1.95-.57,2.49-2.64,2.49-1.17,0-2.25,0-3.57-.12a5.712,5.712,0,0,0-.54-1.92,33.955,33.955,0,0,0,3.81.3c.87,0,1.08-.18,1.08-.87V259.58h-6a28.432,28.432,0,0,0-3.06.09c.06-.87.09-1.65.09-2.76v-4c0-1,0-2-.09-2.85a26.481,26.481,0,0,0,3.06.12h4.86a28.077,28.077,0,0,0,3.15-.12,27.975,27.975,0,0,0-.15,3.3Zm-9.09-19.17h7.23v-2.45h-7.23Zm0,4h7.23v-2.52h-7.23Z"/><path class="cls-1" d="M669.649,263.42h-3.51a17.408,17.408,0,0,0-2.94.15v-1.92a18.29,18.29,0,0,0,2.94.18h7.62a16.828,16.828,0,0,0,2.7-.18v1.95a19.571,19.571,0,0,0-2.79-.15h-2.28v3.2h1.83a14.718,14.718,0,0,0,2.4-.15v1.89a13.187,13.187,0,0,0-2.43-.18h-1.8v4.5a12.363,12.363,0,0,0,4.68.9c1.5.12,4.26.21,6.21.21a70.925,70.925,0,0,0,8.91-.45,6.433,6.433,0,0,0-.66,2.07c-1.65.12-4.68.18-7.23.18-6.51,0-10-.33-12.18-1.17a10.094,10.094,0,0,1-4.71-3.78,15.387,15.387,0,0,1-2.37,5.22,5,5,0,0,0-1.56-1.17,13.213,13.213,0,0,0,2.34-4.56,22.238,22.238,0,0,0,.6-4.44,3.551,3.551,0,0,0-.06-.81l1.92.24c-.06.48-.09.63-.12,1a25.732,25.732,0,0,1-.33,2.58,10.907,10.907,0,0,0,2.82,3Zm-4.53-10.56a22.541,22.541,0,0,0-.12-2.7,21.3,21.3,0,0,0,2.79.12h4.53a21.32,21.32,0,0,0,2.79-.12,21.46,21.46,0,0,0-.12,2.73v4.53a20.131,20.131,0,0,0,.12,2.61,23.217,23.217,0,0,0-2.79-.12h-4.53a23.2,23.2,0,0,0-2.79.12,21.26,21.26,0,0,0,.12-2.67Zm1.71,1.44h6.45v-2.52h-6.45Zm0,4.17h6.45V255.8h-6.45Zm14.73,11.07a17.458,17.458,0,0,1-5.31,3.81,5.367,5.367,0,0,0-1.38-1.35,12.3,12.3,0,0,0,5.22-3.42Zm-2.25-17.52a23.866,23.866,0,0,0-3,.15v-1.89a21.439,21.439,0,0,0,3.06.18h8a17.934,17.934,0,0,0,2.91-.18v1.89a26.569,26.569,0,0,0-2.82-.15h-3.41a18.907,18.907,0,0,1-1,2.76h3.21a20.738,20.738,0,0,0,2.64-.09,21.359,21.359,0,0,0-.12,2.7v7.89a24.082,24.082,0,0,0,.12,2.88c-.87-.06-1.5-.09-2.55-.09h-6.18a22.124,22.124,0,0,0-2.67.09,20.175,20.175,0,0,0,.12-2.67v-8.13a23.346,23.346,0,0,0-.12-2.67c.72.06,1.29.09,2.64.09h1.2a22.4,22.4,0,0,0,.9-2.76Zm0,6.63h7.77v-2.37h-7.77Zm0,3.93h7.77v-2.46h-7.77Zm0,4h7.77v-2.53h-7.77Zm6.24,2.07a17.941,17.941,0,0,0,5.19,3.15,6.21,6.21,0,0,0-1.14,1.47,20.977,20.977,0,0,1-5.4-3.66Z"/><path class="cls-1" d="M696.009,257.51a63.178,63.178,0,0,0,6.63-.78,36.782,36.782,0,0,0,.9-6.36v-.39l2.4.27a18.319,18.319,0,0,0-.57,2.88c-.15.87-.36,2-.63,3.42a17.439,17.439,0,0,1,1.77-.09c2.13,0,3.39.36,4.32,1.26s1.47,2.37,1.47,4.83c0,4.59-.78,8.58-2,10.32a3.13,3.13,0,0,1-2.94,1.41,11.281,11.281,0,0,1-4.53-1.17,6.585,6.585,0,0,0,.06-1.05,5.886,5.886,0,0,0-.09-1.2,11.217,11.217,0,0,0,4.47,1.38q1.13,0,1.71-1.44a23.248,23.248,0,0,0,1.26-8.34c0-3.18-.9-4.2-3.69-4.2a17.329,17.329,0,0,0-2.16.15,56.6,56.6,0,0,1-4.53,12.72c-.39.72-1,1.92-2,3.6l-2-1.2a28.835,28.835,0,0,0,3.12-5.43,49.6,49.6,0,0,0,3.3-9.51c-2.58.39-4,.63-4.29.69a17.215,17.215,0,0,0-1.74.39Zm19.71-2.76a27.141,27.141,0,0,1,6.27,10.62l-1.92,1.11a24.573,24.573,0,0,0-6.12-10.77Z"/><path class="cls-1" d="M734.309,255.74a24.923,24.923,0,0,0-.69,3.3c-.72,4.35-.78,4.56-.87,5.25a3.678,3.678,0,0,1-.12.69h.06a8.413,8.413,0,0,1,.93-.9,14.844,14.844,0,0,1,8.67-2.58c4.89,0,8,2.28,8,5.79a6.412,6.412,0,0,1-2.7,5.16,12.45,12.45,0,0,1-7.47,2,24.959,24.959,0,0,1-5.25-.54l-2.4-.6a4.927,4.927,0,0,0,0-.57,6.98,6.98,0,0,0-.21-1.86,21.3,21.3,0,0,0,7.65,1.5c4.95,0,8.1-2,8.1-5,0-2.46-2.16-3.9-5.82-3.9a14.527,14.527,0,0,0-8.4,2.61,5.191,5.191,0,0,0-1.2,1.23l-2.34-.06c.09-.54.12-.81.24-1.77.3-2.28.84-5.76,1.26-8.28a10.137,10.137,0,0,0,.21-1.59Zm1.32-5.22a36.178,36.178,0,0,0,10.17,3.33l-.84,2.1a46.252,46.252,0,0,1-5.85-1.71,33.351,33.351,0,0,1-4.59-1.89Z"/><path class="cls-1" d="M24.809,311.12c-.21.33-.21.33-.63,1.86-1.59,5.76-3.87,9.69-7.53,13a27.558,27.558,0,0,1-9.42,5.64,5.692,5.692,0,0,0-1.47-2.1,22.291,22.291,0,0,0,6.78-3.18c4.92-3.27,7.74-7.56,9.45-14.28H6.719a20.853,20.853,0,0,0-3.36.18v-2.43a17.976,17.976,0,0,0,3.39.21h14.76a4,4,0,0,0,1.92-.24Z"/><path class="cls-1" d="M32.339,318.35a21.223,21.223,0,0,0,3.72.18h17.43a23.673,23.673,0,0,0,3.63-.15v2.43a34.393,34.393,0,0,0-3.66-.12h-17.4a32.981,32.981,0,0,0-3.72.12Z"/><path class="cls-1" d="M69.359,332.03a19.992,19.992,0,0,0,.18-3.15V310.25a17.7,17.7,0,0,0-.18-3.06h2.58a16.957,16.957,0,0,0-.15,3.12v5.61a78.756,78.756,0,0,1,13.35,6.33l-1.29,2.22a62.515,62.515,0,0,0-11.19-5.94,3.775,3.775,0,0,1-.93-.51h-.06a10.084,10.084,0,0,1,.12,1.77v9a18.578,18.578,0,0,0,.15,3.18Zm11.52-23.64a22.777,22.777,0,0,1,3.09,4.65l-1.5.9a22.222,22.222,0,0,0-3.09-4.77Zm3.39-1.65a25.26,25.26,0,0,1,3.09,4.68l-1.5.87a21.925,21.925,0,0,0-3.06-4.74Z"/><path class="cls-1" d="M98.189,328.65v2.13h-2.31a15.666,15.666,0,0,0,.12-2.25V312.24a15.511,15.511,0,0,0-.12-2.34,21.753,21.753,0,0,0,2.34.09h16a15.5,15.5,0,0,0,2.34-.09,16.187,16.187,0,0,0-.09,2.34v16.23a17.622,17.622,0,0,0,.09,2.31h-2.28v-2.13Zm16.08-16.68H98.189v14.68h16.08Z"/><path class="cls-1" d="M147.3,331.37a55.827,55.827,0,0,0-9.6-9.27,32.581,32.581,0,0,1-5.73,5.37,38.62,38.62,0,0,1-5.88,3.6,6.691,6.691,0,0,0-1.47-2,24.152,24.152,0,0,0,6.09-3.45,32.525,32.525,0,0,0,10.71-13.53c.06-.18.09-.21.15-.36a.642.642,0,0,0,.09-.21,5.089,5.089,0,0,1-.72,0l-10,.15a20.227,20.227,0,0,0-3.09.24l-.06-2.43a14.022,14.022,0,0,0,2.37.15h.78l10.71-.12a5.6,5.6,0,0,0,1.92-.24l1.26,1.29a5.6,5.6,0,0,0-.84,1.47,36.321,36.321,0,0,1-4.95,8.4,74.7,74.7,0,0,1,10,9Z"/><path class="cls-1" d="M157.649,329.81a20.968,20.968,0,0,0,.18,3.36h-2.22a22.733,22.733,0,0,0,.18-3.36V310.34a25.934,25.934,0,0,0-.12-3.3,27.537,27.537,0,0,0,3.12.12h4.29a26.277,26.277,0,0,0,3.06-.12c-.06.9-.09,1.68-.09,2.85v4a24.05,24.05,0,0,0,.09,2.76c-.66-.06-1.8-.09-3-.09h-5.49Zm0-18.72h6.69v-2.44h-6.69Zm0,4h6.69v-2.52h-6.69Zm15.42,10.86a15.038,15.038,0,0,0,.09,1.8,17.546,17.546,0,0,0-1.89-.09h-7.2v2.37h-1.95a18.583,18.583,0,0,0,.15-2.79v-6a18.638,18.638,0,0,0-.09-1.89,20.437,20.437,0,0,0,2.07.09h6.72a21.637,21.637,0,0,0,2.19-.09,16.95,16.95,0,0,0-.09,1.83Zm-9,.12h7.23v-5h-7.23Zm15.78,4.2c0,2-.57,2.49-2.64,2.49-1.17,0-2.25,0-3.57-.12a5.712,5.712,0,0,0-.54-1.92,33.955,33.955,0,0,0,3.81.3c.87,0,1.08-.18,1.08-.87V316.59h-6a28.432,28.432,0,0,0-3.06.09c.06-.87.09-1.65.09-2.76v-4c0-1,0-2-.09-2.85a26.481,26.481,0,0,0,3.06.12h4.86a28.077,28.077,0,0,0,3.15-.12,27.975,27.975,0,0,0-.15,3.3Zm-9.09-19.17h7.23v-2.45h-7.23Zm0,4h7.23v-2.52h-7.23Z"/><path class="cls-1" d="M191.459,320.42h-3.51a17.408,17.408,0,0,0-2.94.15v-2a18.29,18.29,0,0,0,2.94.18h7.62a16.828,16.828,0,0,0,2.7-.18v2a19.571,19.571,0,0,0-2.79-.15H193.2v3.23h1.83a14.718,14.718,0,0,0,2.4-.15v1.89a13.187,13.187,0,0,0-2.43-.18h-1.8v4.5a12.382,12.382,0,0,0,4.68.9c1.5.12,4.26.21,6.21.21a70.925,70.925,0,0,0,8.91-.45,6.433,6.433,0,0,0-.66,2.07c-1.65.12-4.68.18-7.23.18-6.51,0-10.05-.33-12.18-1.17a10.094,10.094,0,0,1-4.71-3.78,15.387,15.387,0,0,1-2.37,5.22,5,5,0,0,0-1.56-1.17,13.222,13.222,0,0,0,2.34-4.56,22.31,22.31,0,0,0,.6-4.44,3.547,3.547,0,0,0-.06-.81l1.92.24c-.06.48-.09.63-.12,1a25.732,25.732,0,0,1-.33,2.58,10.907,10.907,0,0,0,2.82,3Zm-4.53-10.56a22.541,22.541,0,0,0-.12-2.7,21.3,21.3,0,0,0,2.79.12h4.53a21.32,21.32,0,0,0,2.79-.12,21.46,21.46,0,0,0-.12,2.73v4.53a20.131,20.131,0,0,0,.12,2.61,23.217,23.217,0,0,0-2.79-.12h-4.48a23.2,23.2,0,0,0-2.79.12,21.26,21.26,0,0,0,.12-2.67Zm1.71,1.44h6.45v-2.52h-6.44Zm0,4.17h6.45V312.8h-6.44Zm14.73,11.07a17.458,17.458,0,0,1-5.31,3.81,5.367,5.367,0,0,0-1.38-1.35,12.3,12.3,0,0,0,5.22-3.42Zm-2.25-17.52a23.866,23.866,0,0,0-3,.15v-1.89a21.439,21.439,0,0,0,3.06.18h8a17.934,17.934,0,0,0,2.91-.18v1.89a26.569,26.569,0,0,0-2.82-.15h-3.48a18.907,18.907,0,0,1-1,2.76H208a20.738,20.738,0,0,0,2.64-.09,21.359,21.359,0,0,0-.12,2.7v7.89a23.876,23.876,0,0,0,.12,2.88c-.87-.06-1.5-.09-2.55-.09h-6.18a22.124,22.124,0,0,0-2.67.09,20.175,20.175,0,0,0,.12-2.67v-8.13a23.335,23.335,0,0,0-.12-2.67c.72.06,1.29.09,2.64.09h1.2a22.4,22.4,0,0,0,.9-2.76Zm0,6.63h7.77v-2.37h-7.77Zm0,3.93h7.77v-2.46h-7.77Zm0,4h7.77v-2.52h-7.77Zm6.24,2.07a17.941,17.941,0,0,0,5.19,3.15,6.21,6.21,0,0,0-1.14,1.47,20.977,20.977,0,0,1-5.4-3.66Z"/><path class="cls-1" d="M239.279,330.8a24.158,24.158,0,0,0-6.12-4.29c-.51-.27-1.2-.57-2-.9a8.852,8.852,0,0,1,.06,1.08,5.218,5.218,0,0,1-.75,3.27c-.87,1.23-2.7,1.89-5.07,1.89a7.814,7.814,0,0,1-4.65-1.2,3.917,3.917,0,0,1-1.62-3.15c0-2,1.56-3.54,4.2-4.14a13.03,13.03,0,0,1,3.12-.3,13.3,13.3,0,0,1,2.7.24v-.36a2.272,2.272,0,0,1,0-.33c0-.27,0-.9-.06-1.77,0-.39,0-1-.06-1.74-1.08,0-2.58.06-3.54.06-1.8,0-3.21-.06-5.07-.21h-.99v-2a36.842,36.842,0,0,0,6.87.48h2.67l-.06-4.11h-2c-2.19,0-4.62-.09-7.32-.3a3.743,3.743,0,0,0-.54,0,2.454,2.454,0,0,0-.42,0v-2a37.236,37.236,0,0,0,7.68.6h2.61c0-3.66,0-3.66-.15-4.32h2.31a33.209,33.209,0,0,0-.21,4.23,42.307,42.307,0,0,0,8.88-1.23l.15,2a10.522,10.522,0,0,0-2.07.24,62.249,62.249,0,0,1-7,.72c0,2.46,0,2.46.06,4a36.2,36.2,0,0,0,8.31-1.23l.12,2.07a13.46,13.46,0,0,0-1.74.21c-2.07.33-4.44.57-6.66.72.06,1.68.06,1.68.18,4.59a26.275,26.275,0,0,1,8.37,4.38,10.259,10.259,0,0,0,1,.69Zm-10.14-5.67a11,11,0,0,0-3.06-.33c-3,0-4.92,1.08-4.92,2.67s1.5,2.49,4.11,2.49c1.59,0,2.73-.33,3.3-1,.42-.42.6-1.26.6-2.7Z"/><path class="cls-1" d="M247.649,311.24h1.08a14.725,14.725,0,0,0,1.71-.09c1.68-.12,1.86-.15,5.55-.36l4.71-.3c3.69-.21,4.08-.24,5.07-.27l1.71-.06a20.264,20.264,0,0,0,3.57-.33l.18,2.22a12.573,12.573,0,0,0-3.36.42,14.76,14.76,0,0,0-5.76,3,9.17,9.17,0,0,0-3.69,6.93c0,2.52,1.53,4.53,4.2,5.55a15.349,15.349,0,0,0,4.5,1h.3l-.39,2.43c-.33-.06-.39-.09-.93-.18a15.131,15.131,0,0,1-6.48-2.31,7.257,7.257,0,0,1-3.33-6.12c0-3.48,2-6.78,5.61-9.21a19.612,19.612,0,0,1,2.85-1.59,61.378,61.378,0,0,1-6.6.66,99.711,99.711,0,0,0-10.35,1Zm20.07,4.47a22.777,22.777,0,0,1,3.09,4.65l-1.53.9a21.1,21.1,0,0,0-3.06-4.77Zm3.39-1.65a24.326,24.326,0,0,1,3.09,4.68l-1.5.84a23.779,23.779,0,0,0-3.06-4.71Z"/><path class="cls-1" d="M283.2,330.26a15.372,15.372,0,0,0,.18,3.12h-2.13a15.816,15.816,0,0,0,.18-3.12v-17H279.3v10.59a26.949,26.949,0,0,0,.09,3.24h-1.95c.09-.87.15-2.19.15-3.3v-9.45a26.367,26.367,0,0,0-.12-2.88,19.563,19.563,0,0,0,2.55.12h1.41v-2.34a18.7,18.7,0,0,0-.18-3h2.13a14.349,14.349,0,0,0-.18,3v2.41h1.62a16.955,16.955,0,0,0,2.34-.12,26.023,26.023,0,0,0-.09,2.82v10.26c0,1.47-.42,1.83-2.07,1.83a6,6,0,0,1-1-.06,7.13,7.13,0,0,0-.27-1.83,3.714,3.714,0,0,0,1.17.18c.36,0,.48-.09.48-.36v-11h-2.19Zm4.74-23.13a16.077,16.077,0,0,0,2.79.18h10.2a17.114,17.114,0,0,0,2.94-.18v2a15.231,15.231,0,0,0-2.94-.18h-10.2a17.578,17.578,0,0,0-2.79.15Zm.63,15.27a26.363,26.363,0,0,0-.12-3,25.892,25.892,0,0,0,3,.12h9.36a24.887,24.887,0,0,0,2.94-.12,25.251,25.251,0,0,0-.12,2.91v7.53a26.584,26.584,0,0,0,.18,3.42h-2v-1.47h-11.5v1.44h-1.89a29.858,29.858,0,0,0,.15-3.33Zm1.23-8.85a21.463,21.463,0,0,0-.12-2.61,23.285,23.285,0,0,0,2.82.12h7a21.843,21.843,0,0,0,2.73-.12,20.214,20.214,0,0,0-.12,2.58v1.41a20.318,20.318,0,0,0,.12,2.61,23.8,23.8,0,0,0-2.85-.12H292.6a25.242,25.242,0,0,0-2.91.12,20.779,20.779,0,0,0,.12-2.58Zm.51,11.25h4.8v-3.63h-4.8Zm0,5.4h4.8v-3.87h-4.8Zm1.29-14.34h8.67v-3.21h-8.62Zm5.19,8.94h5.07v-3.63h-5.07Zm0,5.4h5.07v-3.87h-5.07Z"/><path class="cls-1" d="M321.419,308.24a7.377,7.377,0,0,0-.18-1.92h2.31a7.156,7.156,0,0,0-.18,2v1.74h8.13a20.9,20.9,0,0,0,3.24-.18v2.1a20.4,20.4,0,0,0-3.24-.15h-18.63c0,7-.3,10.74-1,14.19a21.018,21.018,0,0,1-2.67,7,7.41,7.41,0,0,0-1.65-1.44,17.9,17.9,0,0,0,2.31-5.46,58.381,58.381,0,0,0,1-12.51,36.665,36.665,0,0,0-.12-3.75,22.768,22.768,0,0,0,3,.15h7.65Zm-9,21.54a4.992,4.992,0,0,0,1,.06,22.5,22.5,0,0,0,2.37-.09c2.58-5,5.1-12.3,5.7-16.44l2.37.6c-.21.57-.33.93-.6,1.83a88.2,88.2,0,0,1-5.31,13.89c3.24-.3,5.34-.51,6.36-.63,2.58-.3,3.78-.48,5.82-.87a50.926,50.926,0,0,0-4.71-6.51l1.65-1a61.319,61.319,0,0,1,7.5,11.46l-1.77,1.17a36.649,36.649,0,0,0-1.74-3.57,126.85,126.85,0,0,1-16.86,2.16,7.98,7.98,0,0,0-1.29.15Z"/><path class="cls-1" d="M343.829,309.86a21.746,21.746,0,0,0-.21,3.57,51.284,51.284,0,0,0,.78,9.33c.66,3.06,1.89,5.13,3,5.13.54,0,1.05-.51,1.5-1.5a21.614,21.614,0,0,0,1.56-5.13,9.588,9.588,0,0,0,1.77,1.71c-1.47,5.25-2.85,7.26-5,7.26-1.68,0-3.24-1.68-4.26-4.56s-1.47-6.69-1.62-14.07a16.354,16.354,0,0,0-.09-1.77Zm14.49,1.59a26.022,26.022,0,0,1,4.29,6.84,28.78,28.78,0,0,1,2.25,8l-2.13.87a26.5,26.5,0,0,0-6.24-14.79Z"/><path class="cls-1" d="M378.649,328.55a4.49,4.49,0,1,1,0-.02Zm-7.29,0a2.8,2.8,0,1,0-.02,0h.02Z"/></g></g></svg>