<svg xmlns="http://www.w3.org/2000/svg" xmlns:xlink="http://www.w3.org/1999/xlink" viewBox="0 0 756.46 412.86"><defs><style>.cls-1{fill:none;}.cls-2{fill:#fff;}.cls-3{clip-path:url(#clip-path);}.cls-4{fill:#2b89c7;}.cls-5{fill:#231815;}</style><clipPath id="clip-path" transform="translate(1.31 22.49)"><polygon class="cls-1" points="34.64 0 69.28 20 69.28 60 34.64 80 0 60 0 20 34.64 0"/></clipPath></defs><g id="レイヤー_2" data-name="レイヤー 2"><g id="レイヤー_1-2" data-name="レイヤー 1"><path class="cls-2" d="M141.21,45.75c.87-1.06,1.14-1.33,1.9-2.17a8.543,8.543,0,0,1-2.74.61c-.3,0-.41-.11-.45-.42-.23-1.86-.8-2.24-4.45-3.26v-.38c1.83.11,2.36.15,5.25.19.53,0,.64-.19.64-.76V28.27c-.07-2.28-.11-3.57-.11-4,1.18.12,2.13.23,2.7.27,2.2.19,3,.38,3,.76s-.34.57-1.56,1.1l.08,14.4c-.12,1.33-.38,1.71-1.71,2.47,1.67,1.1,2.12,1.41,3.87,2.66a.853.853,0,0,1,.15.27.37.37,0,0,1-.38.34H131.9a12.6,12.6,0,0,0,4,4.37,20.289,20.289,0,0,0,3.35-4.33c4.63,2.12,4.63,2.12,4.63,2.54,0,.27-.23.42-.64.42h-.23a1.274,1.274,0,0,0-.38,0h-.42A37.688,37.688,0,0,1,137,51.63c2.66,1.48,5.51,2.17,11.29,2.74v.41a4.649,4.649,0,0,0-3.19,3.39c-.08.3-.23.41-.46.41a13.485,13.485,0,0,1-2.73-.83,18.11,18.11,0,0,1-8.67-7,25.818,25.818,0,0,1-2.05-4.18h-.3a21.826,21.826,0,0,1-3.46,2.47v4.61a64.84,64.84,0,0,0,6.53-.8l.08.57c-4.18,1.83-6.8,2.7-13.94,4.64-.19,1-.42,1.37-.76,1.37s-.54-.31-1.6-5.21h1.06c1,0,2.7-.08,4.64-.19V50.95a42.108,42.108,0,0,1-10.83,2.93l-.15-.38a46.468,46.468,0,0,0,9.08-4.29,22.711,22.711,0,0,0,3.69-2.66h-9a21.505,21.505,0,0,0-2.39.22l-.34-1.36c.34.07,1.29.19,2.73.34h12.39V44.53c0-.26-.08-1.29-.08-1.67h-.42a1.344,1.344,0,0,1-.38,0c-.22,0-.26-.08-.3-.34,0-1.49-.38-2-1.52-2.51v-.34a14.349,14.349,0,0,0,1.67.11c.42,0,.53-.15.53-.65v-3h-2.69c0,5.21,0,5.21.07,7a.618.618,0,0,1-.53.69,15.4,15.4,0,0,1-2.47.26c-.53,0-.8-.19-.87-.68l.11-7.26h-2.66v6.51c-.07.61-.45.76-2,.84h-.92c-.57,0-.76-.15-.83-.65.07-2.81.11-3.84.11-5.39s0-2.17-.07-3.73c1.82.69,2.39.91,4.21,1.71h2.17V32.77h-5.89a12.939,12.939,0,0,0-2.28.27l-.34-1.41a18.241,18.241,0,0,0,2.58.35h5.93V29.09h-3.91a24.883,24.883,0,0,1-2.81,2.47l-.42-.34a23.291,23.291,0,0,0,2-6.77c4.48,1.22,4.56,1.22,4.56,1.64s-.38.49-1.22.6a18.133,18.133,0,0,1-1.33,1.6h3.08a23.878,23.878,0,0,0-.15-4.26c1,.08,1.74.19,2.24.23,2.35.19,3,.38,3,.76s-.3.5-1.4,1V28.3h1.93l2-2.32c1.41,1.07,1.82,1.45,3.19,2.66a.319.319,0,0,1,.11.19c0,.15-.18.27-.49.27h-6.72v2.89h2.77c.84-1,1.1-1.22,2-2.17a37.393,37.393,0,0,1,3,2.55.32.32,0,0,1,.12.19c0,.11-.16.22-.38.22h-7.56v2.66h2.58l1.56-1.71c1.21.8,1.59,1,2.77,1.83.23.19.3.3.3.45,0,.34-.18.53-.94,1v3.64c-.19,1.18-.49,1.48-2.05,2,1.33.11,3.72.38,4,.45s.49.19.49.38c0,.34-.37.57-1.52.91V45.8Zm-1.79-19c0,.31-.34.57-1.4,1,0,2.62,0,6.2.07,10.26,0,.42-.11.53-.49.65a18.644,18.644,0,0,1-2.74.26c-.49,0-.64-.15-.64-.61.11-2.31.11-2.69.11-6.61a59.193,59.193,0,0,0-.15-6c4.75.48,5.24.6,5.24,1.01Z" transform="translate(1.31 22.49)"/><path class="cls-2" d="M159.57,57.22c0,.46-.08.65-.34.8a7.157,7.157,0,0,1-2.47.34c-1.11,0-1.37-.19-1.37-.87.11-4.41.15-5.47.15-6.88,0-7.29,0-8.24-.15-10.26,2.05,1,2.62,1.3,4.52,2.4h5.32c.87-1.07,1.18-1.37,2.09-2.36,1.33,1,1.71,1.29,2.85,2.21.38.3.49.49.49.72s-.26.53-1.21,1.06c0,3,0,8.78.11,12.39,0,.87-.68,1.14-2.77,1.14-1,0-1.3-.19-1.33-.76V55.29h-5.89Zm0-2.73h5.89V43.55h-5.89Zm5.62-15.92c0,.42-.08.61-.27.76a6.677,6.677,0,0,1-2.54.34c-1.18,0-1.45-.15-1.48-.8.07-3.15.11-4.75.11-8.58,0-3.08,0-3.92-.11-6.16a40.433,40.433,0,0,1,4.82,2.32h11.29c.95-1,1.25-1.33,2.24-2.28a37.654,37.654,0,0,1,3.15,2.39c.34.31.46.5.46.69s-.23.53-1.41,1.14v1.93c0,1.41,0,3.12.15,8.06,0,.53-.15.76-.57.91a9.8,9.8,0,0,1-2.5.3c-.92,0-1.22-.19-1.22-.83V36.9H165.19Zm0-2.47h12.12V27.25H165.19Zm11.55,20.93a.714.714,0,0,1-.57.8,10.337,10.337,0,0,1-2.28.23c-.87,0-1.18-.19-1.22-.84.12-4.52.12-5.43.12-7.29,0-5.66,0-7.56-.12-9.58a44.429,44.429,0,0,1,4.45,2.4h5.4c.91-1,1.21-1.37,2.12-2.32,1.41,1.06,1.83,1.37,3.08,2.39.34.27.46.46.46.65s-.31.53-1.26,1c0,5.39,0,10.44.12,12.57a.719.719,0,0,1-.31.69,5.081,5.081,0,0,1-2.35.41c-1.18,0-1.45-.11-1.48-.76V55.26h-6.16Zm0-2.54h6.16V43.55h-6.16Z" transform="translate(1.31 22.49)"/><path class="cls-2" d="M203,58.36a28.5,28.5,0,0,0,5.7-9.08,27.992,27.992,0,0,0,1.94-8.09,2.14,2.14,0,0,0-.61-1.79,31.063,31.063,0,0,0-7.94,2.28,3.261,3.261,0,0,1-1.63.5c-1,0-2.09-.84-3.35-2.51a3.82,3.82,0,0,1-1.06-2.39,2.986,2.986,0,0,1,.15-.76,4.21,4.21,0,0,0,3.65,2.09c1.18,0,1.52,0,7.18-.92,3.42-.53,5.09-.75,11.55-1.48a9.627,9.627,0,0,0,3.3-.8,2.409,2.409,0,0,1,1.11-.3,5.75,5.75,0,0,1,2.43.8c1.44.72,2.16,1.52,2.16,2.28s-.6,1.29-1.59,1.29a3.142,3.142,0,0,1-.69-.08,45.94,45.94,0,0,0-12.65-.3c2.17,1.25,2.59,1.71,2.59,2.7,0,1.67-1.6,5.77-3.35,8.62a23.552,23.552,0,0,1-8.58,8.25Zm-.53-30.89a6,6,0,0,0,4.63,2.09,19.582,19.582,0,0,0,5.29-.87,11.9,11.9,0,0,0,3.34-1.44,2.264,2.264,0,0,1,1.21-.35,3.645,3.645,0,0,1,2,.8c.95.61,1.4,1.22,1.4,1.86s-.53,1.11-2.2,1.49a52.469,52.469,0,0,1-9.42,1.14c-3,0-4.94-1.33-6.61-4.45Zm18.27-2.43c3.88,1.37,6.31,3.5,6.31,5.51,0,1-.49,1.56-1.22,1.56s-.72-.11-1.67-1.9a17.047,17.047,0,0,0-3.8-4.52Zm3.92-2.62a13.508,13.508,0,0,1,4.37,1.9c1.4,1,2,1.9,2,3,0,.88-.46,1.48-1.14,1.48-.45,0-.68-.19-1.25-1.1a16.372,16.372,0,0,0-4.33-4.71Z" transform="translate(1.31 22.49)"/><path class="cls-2" d="M247.27,58.21a17.578,17.578,0,0,0,7.22-8c1.33-3.11,1.94-6.87,2-12.38a45.12,45.12,0,0,0-7.67,1v2.05c0,1.21,0,4.33.08,5.39v.27c0,1.9-.5,2.81-1.56,2.81-.65,0-1.29-.49-1.94-1.41a4.729,4.729,0,0,1-.84-2.24,3.042,3.042,0,0,1,.27-1.06,14.738,14.738,0,0,0,.65-5.05,13.706,13.706,0,0,0-4,1.44,3.718,3.718,0,0,1-1.52.46c-.95,0-2.4-1.26-3.42-3a4.619,4.619,0,0,1-.68-2,2.471,2.471,0,0,1,.07-.46,4.367,4.367,0,0,0,3.69,1.94,37.961,37.961,0,0,0,5.85-.84c0-5.69-.46-6.72-3.12-8a1.931,1.931,0,0,1,1.26-.38,10.09,10.09,0,0,1,4.63,1.63c1,.65,1.33,1.14,1.33,1.79a3,3,0,0,1-.27,1.17,14.378,14.378,0,0,0-.45,3.27c1.75-.27,4.29-.61,7.67-1v-3c0-2.7-.19-3.84-.76-4.52a4.587,4.587,0,0,0-2.77-1.48,2.6,2.6,0,0,1,1.82-.53,11.349,11.349,0,0,1,4.79,1.14c1.14.53,1.63,1.1,1.63,1.86a2,2,0,0,1-.22.91c-.57,1.29-.65,1.86-.84,5.17a10.236,10.236,0,0,0,4.22-.84,2.071,2.071,0,0,1,1-.26,5.665,5.665,0,0,1,2.66,1c1,.61,1.41,1.18,1.41,1.79a1.129,1.129,0,0,1-1.116,1.143.9.9,0,0,1-.1,0,4.006,4.006,0,0,1-.6,0,63.2,63.2,0,0,0-6.35-.27h-1.22c-.19,8.06-.83,11.17-3,14.21a18.723,18.723,0,0,1-9.57,6.65Zm15-33.85a10.208,10.208,0,0,1,3.5,2.13,4.7,4.7,0,0,1,1.71,3.3c0,1-.46,1.56-1.18,1.56-.5,0-.8-.34-1.18-1.41a14.9,14.9,0,0,0-3.38-5.13Zm4-1.83a10.922,10.922,0,0,1,3.53,1.87,4.271,4.271,0,0,1,1.9,3.26c0,.92-.42,1.49-1.1,1.49-.53,0-.72-.23-1.22-1.3a13.376,13.376,0,0,0-3.64-4.82Z" transform="translate(1.31 22.49)"/><path class="cls-2" d="M277.56,47.65a70.789,70.789,0,0,0,14.17-11.29c4.06-4.1,6.38-7.14,6.38-8.39,0-.8-.87-1.79-2.28-2.51a4.292,4.292,0,0,1,1.22-.15,7.609,7.609,0,0,1,3.84,1.29c1.74,1,2.77,2.16,2.77,3,0,.68-.19.91-1.52,1.86-.15.11-.15.11-2.47,2.32-2.66,2.47-2.66,2.47-5.36,4.78a9.3,9.3,0,0,1,2.62,2.25c.35.53.39.91.42,3.72,0,1.75,0,2.24.27,9.46v1.44c0,1.56-.5,2.32-1.56,2.32-1.41,0-3.5-2.32-3.5-3.91a3.353,3.353,0,0,1,.23-1.22,44.21,44.21,0,0,0,.84-9.8c0-1.94-.12-2.47-.65-3.19a62.448,62.448,0,0,1-8.13,5.39,47.734,47.734,0,0,1-7.14,3Z" transform="translate(1.31 22.49)"/><path class="cls-2" d="M321.79,29.53c4.25.68,6.53,1.33,8.32,2.47a3.572,3.572,0,0,1,1.86,3.26c0,1.79-.87,3.16-2.05,3.16-.65,0-1-.31-1.6-1.3a17.89,17.89,0,0,0-6.72-7.18Zm28.87,2.2a40.766,40.766,0,0,1-8.54,11.78,61.162,61.162,0,0,1-11,8.66,8.76,8.76,0,0,0-2,1.67,2.089,2.089,0,0,1-1.6.95c-1,0-2.39-1.06-3.72-2.77a7.236,7.236,0,0,1-1.83-4.22,3.047,3.047,0,0,1,.19-1c1,1.75,2.28,2.82,3.31,2.82,1.59,0,6.57-2.62,11.09-5.85a75.015,75.015,0,0,0,13.72-12.24Z" transform="translate(1.31 22.49)"/><path class="cls-2" d="M366.93,27.7a32.472,32.472,0,0,1-3.42,10l.31.31h3.11c.84-.95,1.1-1.26,2-2.25,1.14,1,1.49,1.22,2.55,2.17.27.27.38.42.38.57s-.19.38-.95.84v5.43c0,4.82,0,4.82.15,9a.79.79,0,0,1-.68.84,7.385,7.385,0,0,1-2,.27c-.91,0-1.14-.16-1.14-.76V52.79h-3v3.57a.72.72,0,0,1-.58.76,10.892,10.892,0,0,1-2.24.26c-.79,0-1.1-.19-1.1-.72.12-5.51.19-8.4.19-8.7V42.34a28.679,28.679,0,0,1-3.49,3.84l-.27-.31a46.578,46.578,0,0,0,5.74-18.2h-2.25a9.463,9.463,0,0,0-2.2.23l-.23-1.33a9.179,9.179,0,0,0,2.43.3h6.08c1.07-1.29,1.37-1.67,2.47-2.85,1.56,1.3,2,1.71,3.54,3.12.15.15.19.23.19.34s-.15.19-.42.19Zm-2.69,24.32h3.07V38.83h-3.07Zm24.12-13h.38c.87-1.22,1.18-1.56,2.13-2.74,1.33,1.25,1.71,1.67,3,3,.15.15.19.23.19.34s-.15.19-.38.19h-5.32v4.72c0,4.74,0,5.2.19,13.18a.74.74,0,0,1-.594.862l-.056.008a13.157,13.157,0,0,1-2.65.23c-1,0-1.26-.15-1.26-.8.19-8.13.19-8.7.19-13.48V39.81h-4.6c-.3,6.73-1,9.73-3.07,12.81s-4.45,4.79-8.78,6.61l-.23-.38a18.987,18.987,0,0,0,4.3-4.14,18.712,18.712,0,0,0,3.3-9c.19-1.41.3-3.39.38-5.86h-1.14a12.775,12.775,0,0,0-2,.19l-.23-1.25a9.156,9.156,0,0,0,2.36.27h1.06v-12h-.19a15.714,15.714,0,0,0-2.47.19l-.23-1.33a10.341,10.341,0,0,0,2.74.34h11.51c.91-1,1.82-1.94,2.66-2.81,1.6,1.22,2.05,1.63,3.61,3,.19.16.26.27.26.38s-.22.27-.49.27h-4.56Zm-8.62-12c0,6.61,0,9.57-.12,12h4.56v-12Z" transform="translate(1.31 22.49)"/><path class="cls-2" d="M411.09,44.31a24.667,24.667,0,0,0,.34-4.07,11.726,11.726,0,0,0-.11-1.9c1.29.11,2.28.19,2.92.27h.15c2.28.19,3.19.45,3.19.83s-.53.69-1.74,1c-.23,2-.35,2.7-.53,3.8l4.75-.08,2.16-2.24,1.71,1.18c.34.27.84.61,1.52,1.06.38.31.53.5.53.69s-.26.49-.68.76a6.613,6.613,0,0,0-.8.49v7.64c0,.68.11.8,1.1.8a11.365,11.365,0,0,0,3.19-.27c.61-.19,1.11-1.1,1.71-3.12.38-1.32.42-1.44,1.33-4.52l.46.08-.23,6a.379.379,0,0,1,0,.15c0,.76.07.92.61,1.14A1.79,1.79,0,0,1,434,55.79c0,1.29-.95,2-2.89,2.09-1.71.15-4.26.23-6.08.23a8.832,8.832,0,0,1-3.72-.5,2.271,2.271,0,0,1-1-2.16L420.42,45l-5.28.08c-.87,4.14-2.39,6.83-5.2,9.19a19.01,19.01,0,0,1-6.42,3.46c-1.14.34-1.71.49-4.52,1.18l-.16-.35c7.45-3.34,10.64-6.91,12.05-13.41l-6.8.08a19.263,19.263,0,0,0-2.17.22l-.38-1.29a14.775,14.775,0,0,0,2.51.23h.19Zm3-14.44a12.774,12.774,0,0,1-.91,4c-1.75,4.44-6.54,7.33-13.64,8.2l-.19-.41c4.26-1.49,6.46-2.93,8.32-5.4a10.6,10.6,0,0,0,2.17-6.38h-5.2v.64a8,8,0,0,1-.65,3.54,3.65,3.65,0,0,1-3,2.24c-1.14,0-2-1.1-2-2.66a1.69,1.69,0,0,1,1.21-1.86c2.13-1.07,2.93-2.21,3.5-5.06h.42a13.011,13.011,0,0,1,.41,2.36h9.24V26.65a16.863,16.863,0,0,0-.16-2.47c4.79.46,5.13.49,5.59.65s.57.26.57.45c0,.38-.53.69-1.6,1v2.81h8.36c.95-1,1.26-1.33,2.28-2.32,1.79,1.37,2.32,1.83,4.07,3.31.34.34.45.45.45.64,0,.38-.45.61-1.25.61a12.814,12.814,0,0,1-1.45-.07c-1.86,1.14-3.95,2.35-5.12,2.92l-.35-.19a30.007,30.007,0,0,0,1.68-4.1h-5.3v5.76c0,.6.19.72,1.21.79h3.38c1.75,0,2.36-.15,2.78-.68a22.551,22.551,0,0,0,1.78-3.57h.38l-.15,2.59v.26c0,.72,0,.72,1,1.14a1.24,1.24,0,0,1,.91,1.22c0,1.14-.72,1.71-2.58,1.94-.54.07-3.65.19-4.72.19H425c-.45,0-1.71,0-3.61-.08-2.92,0-3.76-.61-3.76-2.43V29.84Z" transform="translate(1.31 22.49)"/><path class="cls-2" d="M457.22,34.58a50.719,50.719,0,0,1-5.47,6c4.37-.08,5.13-.08,13-.57a29.472,29.472,0,0,0-4.1-4l.19-.27a36.548,36.548,0,0,1,6.76,2.47c2.32,1.22,3.19,2.25,3.19,3.73s-.87,3.11-1.82,3.11c-.46,0-.8-.34-1.6-1.67a20.066,20.066,0,0,0-1.82-2.47c-5.43,1.26-5.43,1.26-7.83,1.67-2.85.5-9,1.41-11.89,1.75-.15,1.06-.38,1.52-.8,1.52s-.83-1-1.74-5.51a55.753,55.753,0,0,0,6.64.23,32.782,32.782,0,0,0,2.06-6h-3.46a13.567,13.567,0,0,0-2.51.27l-.3-1.33a15.669,15.669,0,0,0,2.81.26h15.65c1-1.18,1.37-1.52,2.43-2.62l1.18.84a15.761,15.761,0,0,0,.53-2.59H445.64a9.668,9.668,0,0,1-.72,4.33,3.309,3.309,0,0,1-2.7,2.17,2.489,2.489,0,0,1-2.24-2.66,1.578,1.578,0,0,1,.57-1.37c.15-.11.15-.11,1.06-.68a6.561,6.561,0,0,0,2.36-2.28,7.859,7.859,0,0,0,.72-2.74h.46a8,8,0,0,1,.49,2.48h9.16V26.53a20.235,20.235,0,0,0-.16-2.88c5.16.35,6.19.54,6.19,1.07,0,.38-.53.68-1.79,1v2.93h9c.91-1,1.22-1.29,2.16-2.28,1.9,1.3,2.48,1.71,4.26,3.08.31.27.42.42.42.65a.529.529,0,0,1-.31.42,3.709,3.709,0,0,1-1,.19H472.2c-.45.27-.91.5-1.14.61-1.78.95-1.82.95-2.39,1.25l2,1.52c.15.08.23.19.23.27a.25.25,0,0,1-.23.19Zm7.71,14.59c1.45-1.56,1.45-1.56,2.78-3,1.82,1.32,2.39,1.74,4.25,3.26.11.12.15.19.15.27a.332.332,0,0,1-.3.23H459.04v6.72h8.48c1.25-1.4,1.63-1.82,2.92-3.15,1.82,1.33,2.43,1.79,4.41,3.38.15.15.26.27.26.38s-.11.19-.26.19H443.73a21.322,21.322,0,0,0-3.11.27l-.31-1.37a19.025,19.025,0,0,0,3.46.3h11.05V49.97h-8.28a15.748,15.748,0,0,0-2.81.22l-.3-1.29a20.255,20.255,0,0,0,3.11.27h8.28v-1.6a32.662,32.662,0,0,0-.18-3.83c1.14.11,2.12.22,2.66.3,2.81.27,3.3.38,3.3.8s-.23.49-1.56.95v3.38Z" transform="translate(1.31 22.49)"/><path class="cls-2" d="M5.34,142.28a29.83,29.83,0,0,0-3.3.18v-2.19a22.34,22.34,0,0,0,3.3.21h8.4v-2.55a16.98,16.98,0,0,0-.21-2.73H15.9a16.07,16.07,0,0,0-.21,2.7v2.58h8.85a19.674,19.674,0,0,0,3.36-.21v2.19a32.513,32.513,0,0,0-3.36-.18h-8.1c3.36,6.06,7.38,10.26,12.36,13a8.008,8.008,0,0,0-1.38,1.95,34,34,0,0,1-6.24-5.25,28.556,28.556,0,0,1-5.61-8.43c.09,1.8.12,2.91.12,3.9v6.81h3.27a17.7,17.7,0,0,0,2.91-.15v2.1a16.547,16.547,0,0,0-3-.18H15.69v2.85a22.363,22.363,0,0,0,.21,3.45H13.53a23.815,23.815,0,0,0,.21-3.48v-2.82H10.86a16.922,16.922,0,0,0-3,.18v-2.1a18.128,18.128,0,0,0,3,.15h2.88v-6.81c0-1.11,0-2.25.12-3.87a27.984,27.984,0,0,1-5.67,8.67,32.077,32.077,0,0,1-5.7,5,5.662,5.662,0,0,0-1.41-1.77,27.368,27.368,0,0,0,7-6.09,32.8,32.8,0,0,0,4.89-7.11Z" transform="translate(1.31 22.49)"/><path class="cls-2" d="M35.95,138.14a12.816,12.816,0,0,0-2.58.18v-2a16.052,16.052,0,0,0,2.7.18h4.89a11.7,11.7,0,0,0,2.52-.18v2a19.725,19.725,0,0,0-2.43-.12H39.19a29.363,29.363,0,0,1-2.07,7.62h3.75a13.761,13.761,0,0,0,1.86-.09,22.36,22.36,0,0,0-.09,2.4v9.27a19.644,19.644,0,0,0,.12,2.52H40.87v-1.5H37.15v3.18h-2a18.163,18.163,0,0,0,.18-2.91v-6.66c0-1.08,0-2,.09-3.36a13.719,13.719,0,0,1-2.25,3.66,5.009,5.009,0,0,0-1.08-1.8,20.406,20.406,0,0,0,4.14-7.62,21.006,21.006,0,0,0,1-4.71Zm1.2,18.6h3.72v-9.39H37.15Zm10.41-18.6a19.531,19.531,0,0,0-2.91.18v-2.07a18.355,18.355,0,0,0,3,.18h9.48a20.064,20.064,0,0,0,3-.18v2.07a15.746,15.746,0,0,0-2.91-.18H56.5v8.31h1a15.856,15.856,0,0,0,3-.18v2.13a19.546,19.546,0,0,0-3-.18h-1v10.77a22.673,22.673,0,0,0,.21,3.21H54.43a22.381,22.381,0,0,0,.21-3.21V148.22h-5c-.3,6.69-1.59,10.32-5,14.28a5.445,5.445,0,0,0-1.74-1.35c3.15-3,4.56-6.75,4.83-12.93h-.84a16.735,16.735,0,0,0-3,.18v-2.1a19.538,19.538,0,0,0,3,.15h.9v-8.31Zm2.19,7.29v1h4.89v-8.31H49.75Z" transform="translate(1.31 22.49)"/><path class="cls-2" d="M80.86,150.11a26.557,26.557,0,0,0,3.36-.15c-.06.66-.09,1.29-.12,2.64l-.12,6.09c0,.9.33,1,2.67,1,2.1,0,2.7-.15,2.91-.69a17.522,17.522,0,0,0,.48-4.5,7.335,7.335,0,0,0,1.95.78c-.48,6-.66,6.18-5.49,6.18-3.66,0-4.44-.39-4.44-2.4v-.15l.12-7H76.64a11.5,11.5,0,0,1-2.34,4.95,13.234,13.234,0,0,1-3.21,2.88,20.2,20.2,0,0,1-5,2.46,4.628,4.628,0,0,0-1.32-1.71,18.726,18.726,0,0,0,5.76-2.7,9.8,9.8,0,0,0,4.17-5.88H69.94a21.4,21.4,0,0,0-3.24.18v-2.13a20.251,20.251,0,0,0,3.18.18h5.16a21.266,21.266,0,0,0,.21-2.52,9.989,9.989,0,0,0-.12-1.62h2.28a9.116,9.116,0,0,0-.24,1.89c-.06.72-.12,1.47-.24,2.22Zm-4-12.69a9.221,9.221,0,0,0-.21-2.16h2.34a8.765,8.765,0,0,0-.21,2.16v.93h8.91a25.477,25.477,0,0,0,3-.15,13.518,13.518,0,0,0-.12,2.07v1.53a13.911,13.911,0,0,0,.12,2.1h-2v-3.84H81.22v4.35c0,.36.06.51.21.6a5.9,5.9,0,0,0,1.92.21,5.541,5.541,0,0,0,2.43-.33c.33-.24.48-1,.51-2.43a6.266,6.266,0,0,0,1.8.57c-.15,1.89-.39,2.73-.9,3.18s-1.74.66-3.87.66c-3.15,0-3.9-.33-3.9-1.65v-5.16H75.73a8.221,8.221,0,0,1-1.05,3.33,8.451,8.451,0,0,1-4.74,3.81,27.718,27.718,0,0,1-2.79.87,8.181,8.181,0,0,0-1.14-1.65c3.21-.6,4.71-1.2,6-2.4a5.673,5.673,0,0,0,1.83-4H67.45v3.81h-2a14.453,14.453,0,0,0,.12-2.1v-1.5a13.518,13.518,0,0,0-.12-2.07,25.477,25.477,0,0,0,3,.15h8.31Z" transform="translate(1.31 22.49)"/><path class="cls-2" d="M116.78,153.47a21.663,21.663,0,0,0,3.18-.15v2a22.231,22.231,0,0,0-3.18-.15h-6.36v4.23h8.82a22.826,22.826,0,0,0,3.75-.21v2.1a32.483,32.483,0,0,0-3.87-.18H100.4a32.7,32.7,0,0,0-3.87.18v-2.1a23.191,23.191,0,0,0,3.78.21h8.22v-4.25h-5.76a22.073,22.073,0,0,0-3.21.15v-2a21.259,21.259,0,0,0,3.21.15h5.76V153a14.931,14.931,0,0,0-.18-2.37h2.29a14.358,14.358,0,0,0-.18,2.37v.45Zm-8.34-16.44a11.758,11.758,0,0,0-.18-2h2.31a10.735,10.735,0,0,0-.18,2v.78h7.83a34.393,34.393,0,0,0,4-.12,13.547,13.547,0,0,0-.12,2.13v1.5a13.115,13.115,0,0,0,.12,2h-2v-3.87h-21v3.87h-2v-.36a13.964,13.964,0,0,0,.09-1.71v-1.59a15.188,15.188,0,0,0-.12-2q1.856.153,3.72.12h7.47Zm-4.44,7a24.213,24.213,0,0,0-3.51.15v-1.92a22.991,22.991,0,0,0,3.42.15h11.64a23.813,23.813,0,0,0,3.45-.15v1.92a23.828,23.828,0,0,0-3.42-.15h-7.71a29.466,29.466,0,0,1-2.43,4.17c3.33-.09,5.85-.24,10-.54a29.168,29.168,0,0,0-2.8-2.11l1.44-.93a52.245,52.245,0,0,1,6.36,5.37L119,151.22a24.2,24.2,0,0,0-2.07-2.13c-5.34.45-11.49.81-17.07,1a7.032,7.032,0,0,0-1.14.12l-.3-1.92q.927.092,1.86.09c1,0,1.68,0,3.12-.06a28.146,28.146,0,0,0,2.46-4.26Z" transform="translate(1.31 22.49)"/><path class="cls-2" d="M134.27,136.94c-1.29,3-2.31,9.15-2.31,14.07,0,1,.06,2.82.12,4.2v1.44h.12a26.628,26.628,0,0,1,1.77-5.28,4.037,4.037,0,0,0,.24-.6l1.47.69c-1.41,2.94-2.58,6.75-2.58,8.52a3.272,3.272,0,0,0,.06.6l-2.13.21a7.551,7.551,0,0,0-.18-1.11,47.821,47.821,0,0,1-.84-8.91,50.855,50.855,0,0,1,1.63-12.33,13.762,13.762,0,0,0,.33-1.89Zm3,5.58a20.763,20.763,0,0,0,5.4.48c1.17,0,2,0,3.21-.09v-5.1a6.665,6.665,0,0,0-.09-1.23h2.25a30.631,30.631,0,0,0-.21,4.71v1.47a20.44,20.44,0,0,0,5.19-1.11l.09,2c-.06,0-.06,0-2.1.42a28.668,28.668,0,0,1-3.18.48c0,3,.09,4.5.33,8.49a21.721,21.721,0,0,1,5,2.94c.36.24.42.3.75.51l-.93,2.1a16.2,16.2,0,0,0-4.26-3.12,1.938,1.938,0,0,1-.3-.18l-.27-.18a4.251,4.251,0,0,1,.06.78,5.18,5.18,0,0,1-.36,2c-.72,1.59-2.55,2.52-5,2.52-3.48,0-5.67-1.65-5.67-4.26s2.37-4.26,5.7-4.26a8.468,8.468,0,0,1,3.33.6c-.09-.63-.21-3.45-.3-7.83-1.35.06-2.28.09-3.42.09s-2.34,0-3.39-.09a7.965,7.965,0,0,0-1-.06,4.339,4.339,0,0,0-.51,0,1.368,1.368,0,0,0-.3,0h-.12Zm5.76,11.25c-2.34,0-3.87,1-3.87,2.49s1.41,2.39,3.48,2.39a4.13,4.13,0,0,0,3.06-1,3.5,3.5,0,0,0,.57-2.34v-.9a7.751,7.751,0,0,0-3.21-.64Z" transform="translate(1.31 22.49)"/><path class="cls-2" d="M166.64,161.03a19.292,19.292,0,0,0,.18-3.15V139.25a17.8,17.8,0,0,0-.18-3.06h2.58a18.921,18.921,0,0,0-.15,3.12v5.61a74.394,74.394,0,0,1,13.35,6.33l-1.29,2.22a61.119,61.119,0,0,0-11.19-5.94,3.321,3.321,0,0,1-.93-.51h-.06a10.491,10.491,0,0,1,.12,1.77v9a20.359,20.359,0,0,0,.15,3.18Z" transform="translate(1.31 22.49)"/><path class="cls-2" d="M193.5,144.35a21.677,21.677,0,0,0,3.51.18H212.4a5.068,5.068,0,0,0,1.95-.21l1.11,1.29a8.71,8.71,0,0,0-.84,1.89c-2.55,7-6.69,10.83-14.46,13.44a6.531,6.531,0,0,0-1.29-2.07c4-1.14,6.66-2.49,8.91-4.56s3.48-4.17,4.86-7.86H196.99a27.864,27.864,0,0,0-3.49.15Zm2.58-7a13.83,13.83,0,0,0,3.16.21h10a13.74,13.74,0,0,0,3.15-.21v2.31a20.088,20.088,0,0,0-3.12-.15H199.2a20.088,20.088,0,0,0-3.12.15Z" transform="translate(1.31 22.49)"/><path class="cls-2" d="M225.16,157.49a26.114,26.114,0,0,0,8.73-2.31c5.79-2.58,9.81-7,12.24-13.35a5.989,5.989,0,0,0,1.83,1.77c-2.4,5.22-5.19,8.73-9.15,11.46-3.09,2.1-6.18,3.33-11.19,4.47a15.753,15.753,0,0,0-1.8.48Zm1.92-18.6a39.087,39.087,0,0,1,7.23,5.64l-1.56,1.86a33.149,33.149,0,0,0-7.14-5.88Z" transform="translate(1.31 22.49)"/><path class="cls-2" d="M277.81,160.37a55.827,55.827,0,0,0-9.6-9.27,32.561,32.561,0,0,1-5.72,5.37,39.608,39.608,0,0,1-5.88,3.6,6.674,6.674,0,0,0-1.47-2,24.293,24.293,0,0,0,6.09-3.45,32.566,32.566,0,0,0,10.7-13.53c.06-.18.09-.21.15-.36a.393.393,0,0,0,.09-.21,5.089,5.089,0,0,1-.72,0l-10,.15a20.227,20.227,0,0,0-3.09.24l-.06-2.43a14.213,14.213,0,0,0,2.34.17h.78l10.72-.12a5.7,5.7,0,0,0,1.92-.24l1.25,1.29a5.337,5.337,0,0,0-.83,1.47,36.279,36.279,0,0,1-5,8.4,74.572,74.572,0,0,1,10,9Z" transform="translate(1.31 22.49)"/><path class="cls-2" d="M293.57,146.75a3.549,3.549,0,0,0-.18.51l-.18.6-.15.66a26.8,26.8,0,0,1-5.25,10.35,6.643,6.643,0,0,0-2-1.29,19.13,19.13,0,0,0,4.41-7.38,15.316,15.316,0,0,0,1-4.08Zm4.2-7.35a13.408,13.408,0,0,0-.18-3.06h2.46a17.315,17.315,0,0,0-.15,3.12v2h7.56a19.62,19.62,0,0,0,3.51-.18v2.28a23.4,23.4,0,0,0-3.45-.15H299.9v14.94a18.177,18.177,0,0,0,.15,3.18h-2.41a16.687,16.687,0,0,0,.18-3.15v-15h-7.35a23.4,23.4,0,0,0-3.45.15v-2.28a19.287,19.287,0,0,0,3.48.18h7.32Zm8.43,6.75a21.361,21.361,0,0,0,1.11,3.39,26.674,26.674,0,0,0,4.65,8,6.476,6.476,0,0,0-1.89,1.41,35.982,35.982,0,0,1-5.22-10.3c-.27-.81-.54-1.47-.75-1.95Zm6.69-8.88a3.41,3.41,0,1,1-3.43-3.39h.04a3.37,3.37,0,0,1,3.39,3.35Zm-5.55,0a2.15,2.15,0,1,0,2.17-2.13h-.01A2.149,2.149,0,0,0,307.34,137.27Z" transform="translate(1.31 22.49)"/><path class="cls-2" d="M318.24,147.35a21.223,21.223,0,0,0,3.72.18h17.42a23.668,23.668,0,0,0,3.63-.15v2.43a34.393,34.393,0,0,0-3.66-.12H321.96a32.762,32.762,0,0,0-3.72.12Z" transform="translate(1.31 22.49)"/><path class="cls-2" d="M363.78,147.08a28.043,28.043,0,0,1-.33,3.18,11.8,11.8,0,0,1-4.05,7.92,17.626,17.626,0,0,1-5.28,3,5.252,5.252,0,0,0-1.41-2c3.93-1.26,6.36-3.18,7.59-5.91a17.175,17.175,0,0,0,1.2-6.21h-8.13a27.231,27.231,0,0,0-3.45.15v-2.22a21.535,21.535,0,0,0,3.48.18h17.55a21.535,21.535,0,0,0,3.48-.18v2.22a27.231,27.231,0,0,0-3.45-.15Zm-10.83-9.51a16.609,16.609,0,0,0,3.45.21h11.67a16.605,16.605,0,0,0,3.45-.21v2.28a24.121,24.121,0,0,0-3.42-.15H356.37a24.121,24.121,0,0,0-3.42.15Z" transform="translate(1.31 22.49)"/><path class="cls-2" d="M381.37,147.35a21.223,21.223,0,0,0,3.72.18h17.43a23.668,23.668,0,0,0,3.63-.15v2.43a34.393,34.393,0,0,0-3.66-.12h-17.4a32.762,32.762,0,0,0-3.72.12Z" transform="translate(1.31 22.49)"/><path class="cls-2" d="M415.84,144.2a45.756,45.756,0,0,1,7.62,3.93l-1.17,2a33.311,33.311,0,0,0-7.65-4.11Zm-.78,13.71a25.951,25.951,0,0,0,8.07-1.86,19.763,19.763,0,0,0,9-6.69,22.335,22.335,0,0,0,3.6-6.72,9.031,9.031,0,0,0,1.86,1.59c-2.61,6.24-6.27,10.32-11.55,12.93a34.261,34.261,0,0,1-7.59,2.58l-1.62.33a6.99,6.99,0,0,0-1.17.33Zm3.12-20.88a44.35,44.35,0,0,1,7.44,3.78l-1.23,2a31.573,31.573,0,0,0-7.38-4Z" transform="translate(1.31 22.49)"/><path class="cls-2" d="M450.95,160.22a13.4,13.4,0,0,0-2.61.12v-2.1a15.4,15.4,0,0,0,2.61.18h11.52v-5.64H451.91a13.252,13.252,0,0,0-2.58.12v-2a15,15,0,0,0,2.61.18h10.53v-5.22H451.25a13.561,13.561,0,0,0-2.61.12v-2.07a14.9,14.9,0,0,0,2.61.18H462.4a18.669,18.669,0,0,0,2.05-.06V159.9a9.5,9.5,0,0,0,.12,1.86H462.5v-1.5Z" transform="translate(1.31 22.49)"/><path class="cls-2" d="M477.64,157.49a26.114,26.114,0,0,0,8.73-2.31c5.79-2.58,9.81-7,12.24-13.35a5.989,5.989,0,0,0,1.83,1.77c-2.4,5.22-5.19,8.73-9.15,11.46-3.09,2.1-6.18,3.33-11.19,4.47a15.753,15.753,0,0,0-1.8.48Zm1.92-18.6a39.087,39.087,0,0,1,7.23,5.64l-1.56,1.86a33.149,33.149,0,0,0-7.14-5.88Z" transform="translate(1.31 22.49)"/><path class="cls-2" d="M521.52,147.02c-.36,7.77-2.88,11.43-9.66,14.07a5.252,5.252,0,0,0-1.41-2c6.21-2.07,8.55-5.28,8.79-12.12h-8.13a23.672,23.672,0,0,0-3.45.15v-2.17a19.856,19.856,0,0,0,3.48.18h17.55a19.659,19.659,0,0,0,3.48-.18v2.22a23.672,23.672,0,0,0-3.45-.15Zm-10.83-9.51a15.577,15.577,0,0,0,3.45.21h9.06a27.231,27.231,0,0,0,3.45-.15v2.16q-.59,0-3.42-.09h-9.12a20.905,20.905,0,0,0-3.42.15Zm17.58-2.52a23.339,23.339,0,0,1,2.94,4.74l-1.53.84a22.866,22.866,0,0,0-2.91-4.86Zm3.69-1.14a24.96,24.96,0,0,1,2.94,4.74l-1.53.84a23.521,23.521,0,0,0-2.91-4.83Z" transform="translate(1.31 22.49)"/><path class="cls-2" d="M555.87,142.7v-2.94a21.123,21.123,0,0,0-.09-3.06h2.34a22.987,22.987,0,0,0-.12,2.85v3.15h2.58a20.5,20.5,0,0,0,3.51-.18v2.28a23.956,23.956,0,0,0-3.45-.15H558c0,5.79-.36,8-1.47,10.17-1.62,3-4.32,5.1-8.37,6.48a5.367,5.367,0,0,0-1.35-1.89c3.93-1,7-3.33,8.16-6.36.66-1.8.84-3.6.9-8.4h-9.12v5a15.665,15.665,0,0,0,.12,2.43h-2.43a14.347,14.347,0,0,0,.12-2.52v-4.91h-2.52a24.084,24.084,0,0,0-3.48.15v-2.28a20.5,20.5,0,0,0,3.51.18h2.49v-3.48a14.642,14.642,0,0,0-.12-2.52h2.43a15.917,15.917,0,0,0-.12,2.43v3.57Zm5-7.89a23.843,23.843,0,0,1,2.13,4.92l-1.59.54a23.116,23.116,0,0,0-2.13-5Zm3.45-1a23.269,23.269,0,0,1,2.13,4.89l-1.56.54a24,24,0,0,0-2.1-4.92Z" transform="translate(1.31 22.49)"/><path class="cls-2" d="M593.71,137.75a6.8,6.8,0,0,0-1.32,1.26,52.809,52.809,0,0,1-7,6v12.78a19.882,19.882,0,0,0,.15,3.18h-2.61a15.665,15.665,0,0,0,.18-3.12v-11.4a46.884,46.884,0,0,1-11.58,5.25,7,7,0,0,0-1.17-2,42.225,42.225,0,0,0,15.57-7.77,25.189,25.189,0,0,0,5.73-5.67Z" transform="translate(1.31 22.49)"/><path class="cls-2" d="M603.94,157.49a26.114,26.114,0,0,0,8.73-2.31c5.79-2.58,9.81-7,12.24-13.35a6.006,6.006,0,0,0,1.83,1.82c-2.4,5.22-5.19,8.73-9.15,11.46-3.09,2.1-6.18,3.33-11.19,4.47a15.753,15.753,0,0,0-1.8.48Zm1.92-18.6a39.087,39.087,0,0,1,7.23,5.64l-1.56,1.86a33.149,33.149,0,0,0-7.14-5.88Z" transform="translate(1.31 22.49)"/><path class="cls-2" d="M642.17,139.91a12.705,12.705,0,0,0,1.44-4.11l2.4.42a6.372,6.372,0,0,0-.78,1.62,14.053,14.053,0,0,1-.93,2,5.093,5.093,0,0,1,.63,0c4.8-.24,7.8-.6,9.45-1.14l.18,2a9.3,9.3,0,0,0-1.2.15,97.012,97.012,0,0,1-9.9.78,22.157,22.157,0,0,1-2.7,4.26c-.3.36-.9,1.05-1,1.14s-.36.27-.39.3h0a.237.237,0,0,0,.06.09,8.3,8.3,0,0,1,1.38-1,8.007,8.007,0,0,1,4.53-1.47,3.641,3.641,0,0,1,3.993,3.249c0,.027,0,.054.007.081,2.19-.87,3.9-1.5,5.22-2a6.6,6.6,0,0,0,2-.87l1,2.1a49.9,49.9,0,0,0-8,2.64c.06.78.06,1.08.06,1.83v3a6.5,6.5,0,0,0,.06,1.08h-2q.2-2.154.18-4.32a7.948,7.948,0,0,0,0-.9c-4.08,1.92-5.64,3.33-5.64,5.13,0,2,1.86,2.85,6.09,2.85a25.147,25.147,0,0,0,8-1.17l.27,2.31c-.4.03-.8.08-1.2.15a46.476,46.476,0,0,1-7.29.6c-5.37,0-8-1.53-8-4.62,0-1.65,1-3.21,3.06-4.74a23.314,23.314,0,0,1,4.47-2.4c-.24-1.65-1-2.37-2.37-2.37-1.89,0-4.26,1.11-6.69,3.18a9.936,9.936,0,0,0-2.31,2.49l-1.88-1.6a29.848,29.848,0,0,0,6.72-8.58l.27-.45a3.413,3.413,0,0,1-.57.06l-4.41-.09h-.48a5.191,5.191,0,0,0-.66,0v-2.07a42,42,0,0,0,6.42.33Z" transform="translate(1.31 22.49)"/><path class="cls-2" d="M668.84,142.97a19.51,19.51,0,0,0-3.15.15v-2.1a21.68,21.68,0,0,0,3.15.18h17.8a22.258,22.258,0,0,0,3.15-.18v2.1a20.99,20.99,0,0,0-3.15-.15h-8v6.39h6.54a18.148,18.148,0,0,0,2.91-.15v2.07a18.388,18.388,0,0,0-2.91-.15h-6.54v7.8H688a24.365,24.365,0,0,0,3.24-.18v2.19a22.508,22.508,0,0,0-3.24-.21H667.82a22.071,22.071,0,0,0-3.3.21v-2.19a23.828,23.828,0,0,0,3.27.18h8.7v-7.8h-5.94a19.413,19.413,0,0,0-3,.15v-2.07a17.7,17.7,0,0,0,2.91.15h6v-6.39Zm5.52-8a33.912,33.912,0,0,1,7.17,3.72l-1.23,1.62a28.545,28.545,0,0,0-7.26-3.87Z" transform="translate(1.31 22.49)"/><path class="cls-2" d="M706.08,136.1a52.224,52.224,0,0,0,2.25,9.93c1.77-.72,2.61-1,7.26-2.67a16.213,16.213,0,0,0,1.92-.78l.9,2.28a68.966,68.966,0,0,0-9,2.91c-5.13,2-7.35,4-7.35,6.51,0,2.73,2.31,3.78,8.19,3.78a29.815,29.815,0,0,0,8.58-1l.24,2.49a15.576,15.576,0,0,0-2.22.18,60.191,60.191,0,0,1-6.63.39,20.4,20.4,0,0,1-6.66-.81c-2.46-.9-3.72-2.55-3.72-4.92a6.492,6.492,0,0,1,2.67-5.1,18.721,18.721,0,0,1,3.93-2.43,61.139,61.139,0,0,1-2.19-8.4,10.055,10.055,0,0,0-.51-1.89Z" transform="translate(1.31 22.49)"/><path class="cls-2" d="M742.5,137.75a10.134,10.134,0,0,0-.12-1.74h2.26a24.724,24.724,0,0,0-.15,3.75v.33c5.67,0,8-.09,9-.21v2.13a53.187,53.187,0,0,0-5.73-.15c-.45,0-.78,0-3.21.06v5.94a8.6,8.6,0,0,1,.72,3.54,9.658,9.658,0,0,1-4,7.83,19.059,19.059,0,0,1-4.74,2.43,6.594,6.594,0,0,0-1.32-1.89,15.392,15.392,0,0,0,4.86-2.25,7.772,7.772,0,0,0,3.36-6.33,4.206,4.206,0,0,1-.81,1.47,4.923,4.923,0,1,1-3.66-8.08c.09,0,.18,0,.27.01a4.608,4.608,0,0,1,3.48,1.35v-3.99c-6,.12-12.09.42-14.1.75l-.09-2.19h1.2c.87,0,.87,0,5.7-.18,2.88-.12,5.22-.18,7.26-.24Zm-1.29,9a3.838,3.838,0,0,0-2-.48,3.169,3.169,0,0,0-3.326,3.006c0,.048,0,.1,0,.144a2.9,2.9,0,0,0,2.792,3,2.694,2.694,0,0,0,.3,0,3.359,3.359,0,0,0,3.511-3.2,3.2,3.2,0,0,0,0-.339,2.169,2.169,0,0,0-1.27-2.1Z" transform="translate(1.31 22.49)"/><path class="cls-2" d="M7.08,194.75a13.867,13.867,0,0,0,2.82.18c2.49,0,6.48-.18,9.18-.39a3.062,3.062,0,0,0,1.44-.33l1.26,1.65a5.532,5.532,0,0,0-1.53,1.26,77.07,77.07,0,0,1-9.87,8.53l.06.09a15.2,15.2,0,0,1,7.35-1.86c5,0,8.22,2.46,8.22,6.3,0,4.68-4.35,7.77-11,7.77-4.23,0-6.66-1.56-6.66-4.32,0-2,1.86-3.51,4.35-3.51a6,6,0,0,1,5,2.46,8.586,8.586,0,0,1,1.38,2.88c3.15-.87,4.8-2.7,4.8-5.25,0-2.88-2.4-4.59-6.45-4.59A19.25,19.25,0,0,0,4.8,210.75l-1.35-1.92a33.311,33.311,0,0,0,4.2-3.06c3.21-2.55,7.95-6.72,10-8.76l.42-.42.12-.12.12-.12-.06-.06h-.27c-1,.18-4.56.39-9.12.54a14.666,14.666,0,0,0-1.62.15Zm5.64,17.07c-1.5,0-2.43.72-2.43,1.86a2,2,0,0,0,1.2,1.83,7.661,7.661,0,0,0,3.36.69,10.809,10.809,0,0,0,2.19-.21C16.38,213.26,14.88,211.82,12.72,211.82Z" transform="translate(1.31 22.49)"/><path class="cls-2" d="M36.12,195.14a12.816,12.816,0,0,0-2.58.18v-2a16.052,16.052,0,0,0,2.7.18h4.89a11.7,11.7,0,0,0,2.52-.18v2a19.725,19.725,0,0,0-2.43-.12H39.36a29.363,29.363,0,0,1-2.07,7.62h3.75a13.761,13.761,0,0,0,1.86-.09,22.36,22.36,0,0,0-.09,2.4v9.27a19.644,19.644,0,0,0,.12,2.52H41.04v-1.5H37.32v3.18h-2a18.163,18.163,0,0,0,.18-2.91v-6.66c0-1.08,0-2,.09-3.36a13.719,13.719,0,0,1-2.25,3.66,5.009,5.009,0,0,0-1.08-1.8,20.406,20.406,0,0,0,4.14-7.62,21.006,21.006,0,0,0,1-4.71Zm1.2,18.6h3.72v-9.39H37.32Zm10.41-18.6a19.531,19.531,0,0,0-2.91.18v-2.07a18.355,18.355,0,0,0,3,.18H57.3a20.064,20.064,0,0,0,3-.18v2.07a15.746,15.746,0,0,0-2.91-.18h-.72v8.31h1a15.856,15.856,0,0,0,3-.18v2.13a19.546,19.546,0,0,0-3-.18h-1v10.77a22.673,22.673,0,0,0,.21,3.21H54.64a22.381,22.381,0,0,0,.21-3.21V205.22h-5c-.3,6.69-1.59,10.32-5,14.28a5.445,5.445,0,0,0-1.74-1.35c3.15-3,4.56-6.75,4.83-12.93H47.1a16.735,16.735,0,0,0-3,.18v-2.1a19.538,19.538,0,0,0,3,.15H48v-8.31Zm2.19,7.29v1h4.89v-8.31H49.92Z" transform="translate(1.31 22.49)"/><path class="cls-2" d="M81.21,207.11a26.557,26.557,0,0,0,3.36-.15c-.06.66-.09,1.29-.12,2.64l-.12,6.09c0,.9.33,1,2.67,1,2.1,0,2.7-.15,2.91-.69a17.522,17.522,0,0,0,.48-4.5,7.335,7.335,0,0,0,1.95.78c-.48,6-.66,6.18-5.49,6.18-3.66,0-4.44-.39-4.44-2.4v-.15l.12-7H76.95a11.5,11.5,0,0,1-2.34,4.95,13.234,13.234,0,0,1-3.21,2.88,20.2,20.2,0,0,1-5,2.46,4.628,4.628,0,0,0-1.32-1.71,18.726,18.726,0,0,0,5.76-2.7,9.8,9.8,0,0,0,4.17-5.88H70.27a21.4,21.4,0,0,0-3.24.18v-2.13a20.251,20.251,0,0,0,3.18.18h5.16a21.266,21.266,0,0,0,.21-2.52,9.989,9.989,0,0,0-.12-1.62h2.28a9.116,9.116,0,0,0-.24,1.89c-.06.72-.12,1.47-.24,2.22Zm-4-12.69a9.221,9.221,0,0,0-.21-2.16h2.34a8.765,8.765,0,0,0-.21,2.16v.93h8.91a25.477,25.477,0,0,0,3-.15,13.518,13.518,0,0,0-.12,2.07v1.53a13.911,13.911,0,0,0,.12,2.1h-2v-3.84h-7.4v4.35c0,.36.06.51.21.6a5.9,5.9,0,0,0,1.92.21,5.541,5.541,0,0,0,2.43-.33c.33-.24.48-1,.51-2.43a6.266,6.266,0,0,0,1.8.57c-.15,1.89-.39,2.73-.9,3.18s-1.74.66-3.87.66c-3.15,0-3.9-.33-3.9-1.65v-5.16h-3.7a8.216,8.216,0,0,1-1,3.33,8.451,8.451,0,0,1-4.74,3.81,27.718,27.718,0,0,1-2.79.87,8.181,8.181,0,0,0-1.14-1.65c3.21-.6,4.71-1.2,6-2.4a5.673,5.673,0,0,0,1.83-4H67.91v3.81h-2a14.453,14.453,0,0,0,.12-2.1v-1.5a13.518,13.518,0,0,0-.12-2.07,25.477,25.477,0,0,0,3,.15h8.31Z" transform="translate(1.31 22.49)"/><path class="cls-2" d="M117.29,210.47a21.663,21.663,0,0,0,3.18-.15v2a22.231,22.231,0,0,0-3.18-.15h-6.36v4.23h8.82a22.826,22.826,0,0,0,3.75-.21v2.1a32.483,32.483,0,0,0-3.87-.18H100.91a32.7,32.7,0,0,0-3.87.18v-2.1a23.191,23.191,0,0,0,3.78.21h8.22v-4.25h-5.76a22.073,22.073,0,0,0-3.21.15v-2a21.259,21.259,0,0,0,3.21.15h5.76V210a14.931,14.931,0,0,0-.18-2.37h2.25a14.358,14.358,0,0,0-.18,2.37v.45Zm-8.34-16.44a11.758,11.758,0,0,0-.18-2h2.31a10.735,10.735,0,0,0-.18,2v.78h7.83a34.393,34.393,0,0,0,4-.12,13.547,13.547,0,0,0-.12,2.13v1.5a13.115,13.115,0,0,0,.12,2h-2v-3.87h-21v3.87h-2v-.36a13.964,13.964,0,0,0,.09-1.71v-1.59a15.188,15.188,0,0,0-.12-2q1.855.153,3.72.12h7.47Zm-4.44,7a24.213,24.213,0,0,0-3.51.15v-1.92a22.991,22.991,0,0,0,3.42.15h11.64a23.813,23.813,0,0,0,3.45-.15v1.92a23.828,23.828,0,0,0-3.42-.15h-7.71a29.466,29.466,0,0,1-2.43,4.17c3.33-.09,5.85-.24,10-.54a29.35,29.35,0,0,0-2.76-2.16l1.45-.85a52.155,52.155,0,0,1,6.36,5.37l-1.44,1.23a24.2,24.2,0,0,0-2.07-2.13c-5.34.45-11.49.81-17.07,1a7.032,7.032,0,0,0-1.14.12l-.3-1.92q.927.091,1.86.09c1,0,1.68,0,3.12-.06a28.146,28.146,0,0,0,2.46-4.26Z" transform="translate(1.31 22.49)"/><path class="cls-2" d="M129.64,197.24h1.08a14.725,14.725,0,0,0,1.71-.09c1.68-.12,1.86-.15,5.55-.36l4.71-.3c3.69-.21,4.08-.24,5.07-.27l1.71-.06a20.264,20.264,0,0,0,3.57-.33l.18,2.22a12.573,12.573,0,0,0-3.36.42,14.76,14.76,0,0,0-5.76,3,9.17,9.17,0,0,0-3.69,6.93c0,2.52,1.53,4.53,4.2,5.55a15.381,15.381,0,0,0,4.5,1h.3l-.39,2.43c-.33-.06-.39-.09-.93-.18a15.131,15.131,0,0,1-6.48-2.31,7.261,7.261,0,0,1-3.33-6.12c0-3.48,2-6.78,5.61-9.21a19.664,19.664,0,0,1,2.85-1.59,61.352,61.352,0,0,1-6.6.66,99.711,99.711,0,0,0-10.35,1Zm20.07,4.47a22.736,22.736,0,0,1,3.09,4.65l-1.53.9a21.1,21.1,0,0,0-3.06-4.77Zm3.39-1.65a24.326,24.326,0,0,1,3.09,4.68l-1.5.84a23.706,23.706,0,0,0-3.06-4.71Z" transform="translate(1.31 22.49)"/><path class="cls-2" d="M162.83,196.65a20.986,20.986,0,0,0,5.61.48h.75a16.406,16.406,0,0,1,.15-2.25c0-.33.09-1.5.09-1.71a3.072,3.072,0,0,0,0-.45l2.34.15a20.016,20.016,0,0,0-.63,4.2,46.079,46.079,0,0,0,11.43-1.68l.12,2.1-1.05.16a83.974,83.974,0,0,1-10.62,1.2c-.18,2.55-.18,2.55-.21,4a15.866,15.866,0,0,1,4.44-.6,12,12,0,0,1,1.74.09,11.264,11.264,0,0,0,.65-2.69l2.07.63c-.09.18-.42,1-.93,2.4,4.14,1,6.45,3.51,6.45,7,0,2.94-1.62,5.31-4.71,6.93a16.523,16.523,0,0,1-6.12,1.71,6.181,6.181,0,0,0-1-2,13.977,13.977,0,0,0,4.5-.81c3.27-1.14,5.16-3.33,5.16-6s-1.71-4.38-4.95-5.22a26.992,26.992,0,0,1-5.7,9c-2.31,2.4-4.59,3.63-6.69,3.63-2.25,0-3.87-1.89-3.87-4.56,0-3.69,2.61-7.05,7-8.94a38.125,38.125,0,0,1,.18-4.53h-1.2c-.3,0-1.65-.06-4-.15a4.864,4.864,0,0,0-.54,0,3.2,3.2,0,0,0-.48,0Zm2.88,11.1a7.093,7.093,0,0,0-1.83,4.47c0,1.65.87,2.73,2.16,2.73a5.419,5.419,0,0,0,3.45-1.53,42.5,42.5,0,0,1-.6-8.13,10.736,10.736,0,0,0-3.18,2.48Zm5.49,4.44a3.238,3.238,0,0,1,.57-.78,27.086,27.086,0,0,0,4.59-7.5c-1-.06-1.11-.06-1.44-.06a13.465,13.465,0,0,0-4.17.69,50.541,50.541,0,0,0,.33,6.87,1.966,1.966,0,0,1,0,.42v.33Z" transform="translate(1.31 22.49)"/><path class="cls-2" d="M197.5,194.75a13.867,13.867,0,0,0,2.82.18c2.49,0,6.48-.18,9.18-.39a3.062,3.062,0,0,0,1.44-.33l1.26,1.65a5.532,5.532,0,0,0-1.53,1.26,76.993,76.993,0,0,1-9.87,8.52l.06.09a15.2,15.2,0,0,1,7.35-1.86c5,0,8.22,2.46,8.22,6.3,0,4.68-4.35,7.77-11,7.77-4.23,0-6.66-1.56-6.66-4.32,0-2,1.86-3.51,4.35-3.51a6,6,0,0,1,4.95,2.46,8.586,8.586,0,0,1,1.38,2.88c3.15-.87,4.8-2.7,4.8-5.25,0-2.88-2.4-4.59-6.45-4.59a19.25,19.25,0,0,0-12.63,5.13l-1.35-1.92a33.311,33.311,0,0,0,4.2-3.06c3.21-2.55,7.95-6.72,10-8.76l.42-.42.12-.12.12-.12-.06-.06h-.27c-1,.18-4.56.39-9.12.54a14.666,14.666,0,0,0-1.62.15Zm5.64,17.07c-1.5,0-2.43.72-2.43,1.86a2,2,0,0,0,1.2,1.83,7.661,7.661,0,0,0,3.36.69,10.809,10.809,0,0,0,2.19-.21C206.8,213.26,205.3,211.82,203.14,211.82Z" transform="translate(1.31 22.49)"/><path class="cls-2" d="M231.79,214.55a4.49,4.49,0,1,1,0-.02Zm-7.29,0a2.79,2.79,0,1,0,2.79-2.79h0A2.8,2.8,0,0,0,224.5,214.55Z" transform="translate(1.31 22.49)"/><path class="cls-2" d="M259.21,200.3a28.409,28.409,0,0,1-4.11,6.42,5.891,5.891,0,0,0-1.71-1.26,24.559,24.559,0,0,0,5.37-9.21,8.987,8.987,0,0,0,.66-2.82l2.25.6a12.182,12.182,0,0,0-.6,1.59c-.09.27-.45,1.26-1.08,2.91h6.3v-3.18a21.687,21.687,0,0,0-.21-3.18h2.43a20.14,20.14,0,0,0-.21,3.18v3.18h7.34a28.309,28.309,0,0,0,3.42-.18v2.13a29.307,29.307,0,0,0-3.39-.18h-7.41v6.45h6.06a21.008,21.008,0,0,0,3.21-.18v2.08a22.657,22.657,0,0,0-3.21-.18h-6.06v7.86h8.38a23.025,23.025,0,0,0,3.54-.21v2.19a24.225,24.225,0,0,0-3.51-.21H257.41a24.354,24.354,0,0,0-3.54.21v-2.19a23.143,23.143,0,0,0,3.51.21h8.91v-7.86H260.8a22.259,22.259,0,0,0-3.16.18v-2.1a20.872,20.872,0,0,0,3.18.18h5.49v-6.45Z" transform="translate(1.31 22.49)"/><path class="cls-2" d="M286,200.12a26.517,26.517,0,0,1,5.52,3.45l-1.05,1.74a24.124,24.124,0,0,0-5.52-3.72Zm5.82,9.69a56.04,56.04,0,0,1-5,8.94l-1.71-1.56a8,8,0,0,0,.93-1,30.261,30.261,0,0,0,4.23-7.56Zm-4.5-17.25a35.54,35.54,0,0,1,5.16,4l-1.17,1.59a31.482,31.482,0,0,0-5.22-4.2Zm13.86,3.78a59.992,59.992,0,0,1-6.87.75,5.873,5.873,0,0,0-.78-1.83,54.458,54.458,0,0,0,12.69-1.71,14.025,14.025,0,0,0,3.45-1.2l1.38,1.8-1,.27c-1.74.51-4.08,1.05-7,1.59v5.19h5.85a20.6,20.6,0,0,0,3.06-.18v2.13a22.048,22.048,0,0,0-3.06-.18h-5.85v5.1h4.8a14.39,14.39,0,0,0,2.31-.12,19.756,19.756,0,0,0-.12,2.73v5.7a23.193,23.193,0,0,0,.15,2.91h-2v-1.71H296.64v1.71h-2a20.064,20.064,0,0,0,.15-2.94v-5.76a22.815,22.815,0,0,0-.12-2.64,14.446,14.446,0,0,0,2.19.12h4.41v-5.1h-5.7a22.126,22.126,0,0,0-3,.18v-2.13a20.2,20.2,0,0,0,3,.18h5.7Zm-4.54,19.47h11.61v-6H296.64Z" transform="translate(1.31 22.49)"/><path class="cls-2" d="M329.05,209.12c-1.74,4-3.51,5.76-5.67,5.76-2.85,0-5-3.12-5-7.32a12.179,12.179,0,0,1,12.072-12.287q.384,0,.768.017a11.611,11.611,0,0,1,8.25,3,10,10,0,0,1,2.91,7.32,10.921,10.921,0,0,1-6.87,10.35,23.212,23.212,0,0,1-4.56,1.38,4.774,4.774,0,0,0-1.05-2,18.022,18.022,0,0,0,5-1.41,9.058,9.058,0,0,0,5.31-8.4,7.91,7.91,0,0,0-4.77-7.53,8.622,8.622,0,0,0-3.48-.75A45.02,45.02,0,0,1,329.05,209.12Zm-3.69-10.47a10.369,10.369,0,0,0-4.89,8.94c0,2.88,1.26,5.1,2.88,5.1,1.26,0,2.46-1.41,3.75-4.35a41.217,41.217,0,0,0,2.73-11.1A9.469,9.469,0,0,0,325.36,198.65Z" transform="translate(1.31 22.49)"/><path class="cls-2" d="M357.72,217.04a12.669,12.669,0,0,0-1.62-2.25l1.71-.66a16.971,16.971,0,0,1,1.77,2.91h5.31a11.6,11.6,0,0,0,1.62-2.91l1.77.69a15.844,15.844,0,0,1-1.44,2.22h5.46a22.258,22.258,0,0,0,3.15-.18v2a18.552,18.552,0,0,0-3.15-.21H352.14a20.017,20.017,0,0,0-3.3.21v-2a25.1,25.1,0,0,0,3.3.18Zm17.4-10.17a24.707,24.707,0,0,0-3.33-.18H352.41a22.957,22.957,0,0,0-3.21.18v-2a17.777,17.777,0,0,0,3.21.21h19.38a18.935,18.935,0,0,0,3.33-.21Zm-5.22-12.75a25.158,25.158,0,0,0,3.27-.15,15.909,15.909,0,0,0-.12,2.37v4.68a15.646,15.646,0,0,0,.12,2.37c-1.057-.093-2.119-.133-3.18-.12h-15.5a26.135,26.135,0,0,0-3.19.12,14.667,14.667,0,0,0,.12-2.37v-4.68a15.266,15.266,0,0,0-.12-2.37,25.051,25.051,0,0,0,3.24.15h3.39a10.822,10.822,0,0,0-.18-2.43h2.13a10.332,10.332,0,0,0-.21,2.28v.15h4.77a10.822,10.822,0,0,0-.18-2.43h2.13a11.452,11.452,0,0,0-.21,2.43Zm-17.16,16.26a10.7,10.7,0,0,0-.15-2.1,28.888,28.888,0,0,0,3.48.15h12.09a27.9,27.9,0,0,0,3.42-.15,10.406,10.406,0,0,0-.15,2.1v1.65a10.8,10.8,0,0,0,.15,2.07c-1-.09-2-.12-3.36-.12H356.01a32,32,0,0,0-3.42.12,11.043,11.043,0,0,0,.15-2.07Zm.48-14.79v2.31h4.71v-2.31Zm0,3.69v2.58h4.71v-2.58Zm1.42,13.23h14.9V209.9h-14.9Zm5-14.61h4.77v-2.31h-4.77Zm0,4h4.77v-2.58h-4.77Zm6.51-4h5.07v-2.31h-5.07Zm0,4h5.07v-2.58h-5.07Z" transform="translate(1.31 22.49)"/><path class="cls-2" d="M381.51,200.51a63.178,63.178,0,0,0,6.63-.78,36.685,36.685,0,0,0,.9-6.36v-.39l2.4.27a18.434,18.434,0,0,0-.57,2.88c-.15.87-.36,2-.63,3.42a17.439,17.439,0,0,1,1.77-.09c2.13,0,3.39.36,4.32,1.26s1.47,2.37,1.47,4.83c0,4.59-.78,8.58-2,10.32a3.129,3.129,0,0,1-2.94,1.41,11.285,11.285,0,0,1-4.53-1.17,6.585,6.585,0,0,0,.06-1.05,5.816,5.816,0,0,0-.09-1.2,11.222,11.222,0,0,0,4.47,1.38q1.13,0,1.71-1.44a23.2,23.2,0,0,0,1.26-8.34c0-3.18-.9-4.2-3.69-4.2a17.342,17.342,0,0,0-2.16.15,56.6,56.6,0,0,1-4.53,12.72c-.39.72-1,1.92-1.95,3.6l-2-1.2a28.781,28.781,0,0,0,3.12-5.43,49.529,49.529,0,0,0,3.3-9.51c-2.58.39-4,.63-4.29.69a17.276,17.276,0,0,0-1.74.39Zm19.71-2.76a27.129,27.129,0,0,1,6.27,10.62l-1.92,1.11a24.554,24.554,0,0,0-6.12-10.77Z" transform="translate(1.31 22.49)"/><path class="cls-2" d="M414.99,199.04a13.131,13.131,0,0,0,2.31.15,69.985,69.985,0,0,0,8.94-.63c-.45-1-.93-2.22-1.47-3.57-.33-.78-.51-1.2-.78-1.74l2.37-.33a9.551,9.551,0,0,0,.87,2.7,24.606,24.606,0,0,0,1.08,2.64,35.083,35.083,0,0,0,7.26-1.89l.3,2.13c-.63.12-.87.18-1.77.42-1.8.48-2.16.57-4,.93l-1,.21a55.558,55.558,0,0,0,5.4,8.73l-2,1.14a6,6,0,0,0-2.07-1.23,16.26,16.26,0,0,0-5.25-.78,10.629,10.629,0,0,0-5.7,1.26,3.409,3.409,0,0,0-1.62,2.79,3,3,0,0,0,1.14,2.34c1.11.87,3.27,1.38,5.85,1.38a19.772,19.772,0,0,0,8.52-1.92l.33,2.31a24.868,24.868,0,0,1-8.82,1.62c-3.66,0-6.42-.81-7.8-2.25a4.839,4.839,0,0,1-1.35-3.3,5.609,5.609,0,0,1,3.39-4.89,12.751,12.751,0,0,1,5.82-1.11,14.994,14.994,0,0,1,6.21,1.08,36.583,36.583,0,0,1-3.6-5.88c-.33-.63-.33-.69-.51-1a88.335,88.335,0,0,1-10.68.78,6.648,6.648,0,0,0-1.17.09Z" transform="translate(1.31 22.49)"/><path class="cls-2" d="M453.21,196.91a12.705,12.705,0,0,0,1.44-4.11l2.4.42a6.593,6.593,0,0,0-.79,1.62,18.327,18.327,0,0,1-.93,2,5.256,5.256,0,0,1,.64,0c4.79-.24,7.79-.6,9.44-1.14l.18,2a9.15,9.15,0,0,0-1.19.15,96.639,96.639,0,0,1-9.91.78,21.612,21.612,0,0,1-2.69,4.26c-.31.36-.9,1.05-1,1.14a3.543,3.543,0,0,0-.39.3h0v.09a7.666,7.666,0,0,1,1.39-1,8.006,8.006,0,0,1,4.52-1.47,3.631,3.631,0,0,1,3.991,3.229l.009.1c2.2-.87,3.9-1.5,5.22-2a6.346,6.346,0,0,0,2-.87l1,2.1a49.9,49.9,0,0,0-8,2.64,16.2,16.2,0,0,1,.07,1.83v3a5.577,5.577,0,0,0,.07,1.08h-2.05a39.428,39.428,0,0,0,.19-4.32,5.878,5.878,0,0,0,0-.9c-4.08,1.92-5.63,3.33-5.63,5.13,0,2,1.86,2.85,6.08,2.85a25.147,25.147,0,0,0,8-1.17l.28,2.31a11.69,11.69,0,0,0-1.21.15,46.356,46.356,0,0,1-7.29.6c-5.36,0-8-1.53-8-4.62,0-1.65,1-3.21,3.06-4.74a23.149,23.149,0,0,1,4.46-2.4c-.23-1.65-1-2.37-2.37-2.37-1.88,0-4.26,1.11-6.68,3.18a9.936,9.936,0,0,0-2.31,2.49l-1.81-1.6c2.08-1.59,4.57-4.74,6.73-8.58l.27-.45a3.317,3.317,0,0,1-.58.06l-4.41-.09h-.47a5.191,5.191,0,0,0-.66,0v-2.07a41.876,41.876,0,0,0,6.42.33Z" transform="translate(1.31 22.49)"/><path class="cls-2" d="M495.77,193.7a21.978,21.978,0,0,0,3.12-.15,19,19,0,0,0-.15,2.76V215.9a22.532,22.532,0,0,0,.18,3.18h-2.19v-2H481.28v2h-2.19a21.151,21.151,0,0,0,.18-3.06v-19.5a21.181,21.181,0,0,0-.15-3,24.591,24.591,0,0,0,3.21.15Zm1,7v-5.16H481.28v5.16Zm-15.45,7.17h15.45V202.5H481.28Zm0,7.38h15.45v-5.6H481.28Z" transform="translate(1.31 22.49)"/><path class="cls-2" d="M511.91,195.14a18.881,18.881,0,0,0-.21-3.06h2.31a18.145,18.145,0,0,0-.21,3v3h1.08a15.311,15.311,0,0,0,2.43-.15v2a16.318,16.318,0,0,0-2.46-.15H513.8v6.12c1.11-.33,1.77-.57,3.54-1.26v1.74c-1.5.63-2,.81-3.57,1.38v9.18c0,1.62-.72,2.07-3.27,2.07a19.587,19.587,0,0,1-2.22-.09,5.191,5.191,0,0,0-.42-2,15.9,15.9,0,0,0,3,.3c.81,0,1-.18,1-.81v-8l-2.1.69a14.365,14.365,0,0,0-1.92.63l-.48-2.1a22.77,22.77,0,0,0,4.5-1.11V199.8h-1.8a16.318,16.318,0,0,0-2.46.15v-2a14.864,14.864,0,0,0,2.43.18h1.83Zm8.61,1c4.89-.69,9.15-1.89,10.86-3.06l1.5,1.68a51.074,51.074,0,0,1-12.36,3v2c0,1.17.51,1.29,5.4,1.29,5.79,0,5.85,0,6.12-3.81a6.465,6.465,0,0,0,1.83.81c-.3,2.43-.69,3.45-1.59,4.05s-2.19.69-6.81.69c-5.82,0-6.81-.39-6.81-2.61v-5.16a16.922,16.922,0,0,0-.18-3h2.22a18.5,18.5,0,0,0-.18,2.88Zm-1.83,11.55a16.632,16.632,0,0,0-.12-2.34,20.064,20.064,0,0,0,2.64.12h8.43a19.726,19.726,0,0,0,2.64-.12,16.182,16.182,0,0,0-.12,2.37v8.46a17.4,17.4,0,0,0,.15,3h-2v-1.65H520.5v1.68h-2a18.573,18.573,0,0,0,.15-3Zm1.83,2.82h9.81v-3.39h-9.81Zm0,5.37h9.81v-3.75h-9.81Z" transform="translate(1.31 22.49)"/><path class="cls-2" d="M547.1,193.7a46.206,46.206,0,0,0-.39,6.33c-.12,3.6-.21,7.68-.21,9,0,.36,0,1.11.06,1.8a4.717,4.717,0,0,0,1.41,3.6,5.638,5.638,0,0,0,3.75,1.17,8.59,8.59,0,0,0,8-5.22,17.469,17.469,0,0,0,1.48-4.71,8.316,8.316,0,0,0,2.16,1.44c-1.15,3.51-2,5.28-3.33,6.81a10.5,10.5,0,0,1-8.46,3.75c-2.55,0-4.45-.72-5.64-2.1s-1.65-3-1.65-6.15c0-2,0-2.76.27-12.21v-2a9.2,9.2,0,0,0-.12-1.59Z" transform="translate(1.31 22.49)"/><path class="cls-2" d="M571.22,211.13a30.583,30.583,0,0,1,6,6.36l-1.68,1.59a29.952,29.952,0,0,0-5.91-6.54Z" transform="translate(1.31 22.49)"/><path class="cls-2" d="M619.82,204.89c-2.37,4-2.88,4.68-4.42,6.42a24.87,24.87,0,0,0,3.79,2.73,30.229,30.229,0,0,0,8.28,3.24,5.063,5.063,0,0,0-1.08,2,32.294,32.294,0,0,1-8.61-3.72,21.79,21.79,0,0,1-3.75-2.88,24.982,24.982,0,0,1-3.9,3,30.341,30.341,0,0,1-8,3.6,5.537,5.537,0,0,0-1.11-1.86,30.009,30.009,0,0,0,7.38-2.91,19.7,19.7,0,0,0,4.35-3.18c-2-2.19-2.37-2.73-4.41-6.45l1.83-.93a12.083,12.083,0,0,0,.81,1.77,28.463,28.463,0,0,0,3.09,4.29,19.552,19.552,0,0,0,2.82-3.84,8.151,8.151,0,0,0,1-2.25Zm-7-10.26a12.75,12.75,0,0,0-.21-2.52h2.37a10.557,10.557,0,0,0-.21,2.52v1.35h8.87a19.735,19.735,0,0,0,3.4-.21v2.16a22.344,22.344,0,0,0-3.42-.18H604.49a22.464,22.464,0,0,0-3.36.18v-2.16a19.674,19.674,0,0,0,3.36.21h8.37Zm-2.25,5.1a23.13,23.13,0,0,1-3.93,4.92,28.7,28.7,0,0,1-4,3.18,5.776,5.776,0,0,0-1.47-1.5,22.6,22.6,0,0,0,4.35-3.27,16.355,16.355,0,0,0,3.3-4.26Zm8.07-1a16.628,16.628,0,0,0,3.47,3.9,21.494,21.494,0,0,0,4.86,3.15,7.591,7.591,0,0,0-1.31,1.71,27.022,27.022,0,0,1-4.74-3.42,25.643,25.643,0,0,1-3.84-4.32Z" transform="translate(1.31 22.49)"/><path class="cls-2" d="M632.08,204.02a10.556,10.556,0,0,0,2.13.15h1.43a12.836,12.836,0,0,0,2.25-.15,22.4,22.4,0,0,0-.15,3.15v5.88a5.072,5.072,0,0,0,2.43,2.58c1.32.78,3.27,1,7.44,1a100.647,100.647,0,0,0,12-.63,11.725,11.725,0,0,0-.69,2.22c-3.27.12-6.9.21-9.69.21-5.94,0-7.71-.21-9.63-1.2a8.107,8.107,0,0,1-2.96-2.58,21.6,21.6,0,0,1-2,2.19c-.48.42-.6.54-1.11,1-.33.27-.42.36-.84.72l-1-1.95a16.217,16.217,0,0,0,4.26-3.51v-7.2h-1.8a9.441,9.441,0,0,0-2,.15Zm1.62-11.37a34.454,34.454,0,0,1,4.8,5.31l-1.53,1.38a28.415,28.415,0,0,0-4.65-5.46Zm14.58,6.06a29.139,29.139,0,0,0-4-2.52l1.35-1a44.226,44.226,0,0,1,4,2.67,25.037,25.037,0,0,0,4.65-3.15h-11.1a20.056,20.056,0,0,0-3,.15v-1.89a17.263,17.263,0,0,0,3.18.18h10.47a20.857,20.857,0,0,0,3.06-.12l.75,1.08a7.153,7.153,0,0,0-.75.57,34.043,34.043,0,0,1-6,4h3.9a20.776,20.776,0,0,0,3.27-.15,36.645,36.645,0,0,0-.12,3.69v9.9c0,1.89-.48,2.31-2.58,2.31-.69,0-1.2,0-2.1-.06a6.441,6.441,0,0,0-.42-1.74,15.506,15.506,0,0,0,2.49.21c.69,0,.84-.12.84-.84v-2.85H649.9v1.89a21.4,21.4,0,0,0,.18,3.24h-2.04a21.664,21.664,0,0,0,.18-3.24v-1.89h-5.64v2.31a19.072,19.072,0,0,0,.18,3.15h-2.12a19.992,19.992,0,0,0,.18-3.15v-9.48a28.636,28.636,0,0,0-.12-3.39,23.7,23.7,0,0,0,3.24.15Zm-5.7,1.5v3h5.64v-3Zm0,7.44h5.64v-3h-5.64Zm7.35-4.47h6.27v-3h-6.27Zm6.27,1.44h-6.27v3h6.27Z" transform="translate(1.31 22.49)"/><path class="cls-2" d="M670.69,194.18a12.08,12.08,0,0,0,.57,1.83c.6,1.77.9,2.61,1.32,4a53.327,53.327,0,0,1,6.45-1.68,41.641,41.641,0,0,0-.12-5.31h2.25a28.424,28.424,0,0,0-.15,4v1a15.136,15.136,0,0,1,2.25-.18c4,0,6.6,2.16,6.6,5.52,0,3.6-2.94,6.18-7,6.18a12.7,12.7,0,0,1-5.07-1.11,4.422,4.422,0,0,0,0-.54,13.273,13.273,0,0,0-.18-1.71,10.2,10.2,0,0,0,5,1.38,6.081,6.081,0,0,0,3.6-1.17,3.639,3.639,0,0,0,1.44-3.06c0-2.28-1.77-3.63-4.8-3.63-2.19,0-5.43.72-9.78,2.13,1.53,5.1,2.61,9.33,3.87,15a9.488,9.488,0,0,0,.39,1.29l-2.43.54c-.15-2.46-1.83-9.69-3.78-16.2a13.038,13.038,0,0,1-1.62.54,28.622,28.622,0,0,0-4.11,1.65l-.78-2.13a32.928,32.928,0,0,0,4.41-1.41c.75-.27,1.05-.33,1.53-.48a30.156,30.156,0,0,0-2.16-5.7Z" transform="translate(1.31 22.49)"/><path class="cls-2" d="M700.57,194.36a14.881,14.881,0,0,0-.18-2.28h2a14.039,14.039,0,0,0-.18,2.28v1h1.92a13.177,13.177,0,0,0,2.43-.15v1.83a17.653,17.653,0,0,0-2.4-.12h-2v2.64h1.23a25.313,25.313,0,0,0,2.67-.09v.18a15.842,15.842,0,0,0,3.21-2.25,14.467,14.467,0,0,0,3.9-4.89H715a17.881,17.881,0,0,0,8.28,6.81,8.286,8.286,0,0,0-1.17,1.62,23.594,23.594,0,0,1-7.95-6.75,22.359,22.359,0,0,1-6.93,6.9,5.346,5.346,0,0,0-1.17-1.41,24.108,24.108,0,0,0-.06,2.55v5a28.245,28.245,0,0,0,.09,2.88,4.571,4.571,0,0,1-.75-.06h-3.11v2.76h1.92a13.027,13.027,0,0,0,2.4-.15v1.86a13.573,13.573,0,0,0-2.4-.15h-1.92v2.28a19,19,0,0,0,.18,2.82h-2a16.778,16.778,0,0,0,.18-2.85v-2.25h-2.37a14.6,14.6,0,0,0-2.49.15v-1.87a14.111,14.111,0,0,0,2.49.15h2.37v-2.76h-1a28.256,28.256,0,0,0-2.88.12,24.632,24.632,0,0,0,.12-3v-4.83a23.18,23.18,0,0,0-.12-2.91,27.073,27.073,0,0,0,2.79.12h1.14V196.9h-2.19a14.06,14.06,0,0,0-2.46.15v-1.86a13.5,13.5,0,0,0,2.46.15h2.19Zm-2.31,6.63v3h2.31v-3Zm0,4.35v3.18h2.31v-3.18Zm6.18-1.38v-3h-2.31v3Zm0,4.56v-3.18h-2.31v3.18Zm4.71,8a23.939,23.939,0,0,0,.15,2.73h-1.89a26.51,26.51,0,0,0,.15-2.76V205.65a26.5,26.5,0,0,0-.09-2.79,15.39,15.39,0,0,0,2.37.12h2.1a16.043,16.043,0,0,0,2.4-.12c-.06.72-.09,1.56-.09,2.82v11.4c0,1-.18,1.35-.75,1.65a3.65,3.65,0,0,1-1.56.21h-1.29a5,5,0,0,0-.36-1.74,8.265,8.265,0,0,0,1.8.21c.42,0,.57-.15.57-.6v-3.76h-3.51Zm3.51-9.24V204.4h-3.51v2.88Zm0,4.29v-2.85h-3.51v2.93Zm-2.43-12.72a15.242,15.242,0,0,0,2.28.12h3.78a14.846,14.846,0,0,0,2.25-.12v1.83a15.666,15.666,0,0,0-2.25-.12h-3.78a15.794,15.794,0,0,0-2.28.12Zm7.86,4.2a12.61,12.61,0,0,0-.15,2.28v6.15a21.082,21.082,0,0,0,.15,2.61h-2a21.391,21.391,0,0,0,.15-2.58v-6.15a12.942,12.942,0,0,0-.15-2.31Zm3.75,13.47c0,1.92-.51,2.4-2.52,2.4a18.045,18.045,0,0,1-2.13-.12,5.854,5.854,0,0,0-.36-1.86,11.393,11.393,0,0,0,2.46.3c.75,0,.93-.18.93-.93V205.19a22.965,22.965,0,0,0-.18-3h2a21.807,21.807,0,0,0-.18,3Z" transform="translate(1.31 22.49)"/><path class="cls-2" d="M727.64,203.75a11.989,11.989,0,0,0,2.31.15h1.56a17.849,17.849,0,0,0,2.31-.15,22.829,22.829,0,0,0-.15,3.18v5.82a5.63,5.63,0,0,0,3.24,3.06c1.17.45,3.15.63,6.63.63a81.908,81.908,0,0,0,11.61-.6,7.357,7.357,0,0,0-.69,2.19c-4.14.15-6.57.21-9.57.21-4.56,0-6.36-.12-7.89-.6a7,7,0,0,1-4.32-3.3,31.258,31.258,0,0,1-3.63,3.18c-.27.21-.72.6-1.08.93l-1-2a18.429,18.429,0,0,0,4.83-3.66v-7.23h-2a11.81,11.81,0,0,0-2.19.15Zm2.07-11a40.553,40.553,0,0,1,4.8,5.31l-1.53,1.35a28.54,28.54,0,0,0-4.65-5.43Zm9.57,6.66a19.4,19.4,0,0,0-2.85.18v-2a19.541,19.541,0,0,0,2.85.18h6.36a32.308,32.308,0,0,0,2.79-5.58l1.83.75a41.079,41.079,0,0,1-2.64,4.83h2.7a18.733,18.733,0,0,0,2.82-.18v2a20.251,20.251,0,0,0-2.88-.18h-5.1a32.274,32.274,0,0,1-.33,4.71h6.33a18.747,18.747,0,0,0,2.88-.18v2.07a20.61,20.61,0,0,0-3-.18h-5.4a12.316,12.316,0,0,0,2.28,3.36,14.4,14.4,0,0,0,6.24,3.75,4.884,4.884,0,0,0-1.11,1.8,16.014,16.014,0,0,1-5.52-3.42,13.013,13.013,0,0,1-3.21-4.56c-1.08,3.27-3.39,5.73-7.32,7.77a4.183,4.183,0,0,0-1.35-1.56c4-1.83,6.09-3.93,7-7.14h-4.2a20.641,20.641,0,0,0-2.94.18v-2.07a20.352,20.352,0,0,0,2.94.18h4.56a30.794,30.794,0,0,0,.3-4.71Zm.78-7.35a24.518,24.518,0,0,1,2.64,4.41l-1.62.93a22.2,22.2,0,0,0-2.64-4.47Z" transform="translate(1.31 22.49)"/><path class="cls-2" d="M4.64,252.29a18.389,18.389,0,0,0-.15-3.12H6.54a25.309,25.309,0,0,0-.12,3.09v3h.81a10.97,10.97,0,0,0,1.95-.12v1.89a12.843,12.843,0,0,0-1.92-.12H6.54a11.688,11.688,0,0,0,2.22,3.63,10.19,10.19,0,0,0-.84,1.56,10.363,10.363,0,0,1-1.62-3.21c.06,2.07.12,3.36.12,4.41v9.84a24.373,24.373,0,0,0,.15,3.48H4.47a25.288,25.288,0,0,0,.18-3.48v-8.19c0-1.17.12-3.51.3-5.79a25.9,25.9,0,0,1-3.39,9.39,6.331,6.331,0,0,0-1.08-1.74,25.524,25.524,0,0,0,3.9-9.9H3.33a13.03,13.03,0,0,0-2.07.12v-1.89a11.847,11.847,0,0,0,2.07.12H4.64ZM13.43,266c-.06.78-.06.84-.12,1.44a11.839,11.839,0,0,0,3.9,3.21,6.312,6.312,0,0,0-1,1.44,13.375,13.375,0,0,1-3.27-2.85,12.359,12.359,0,0,1-4.11,6.78,4.552,4.552,0,0,0-1.44-1.29c2.76-1.92,4-4.44,4.32-8.73h-.33a17.918,17.918,0,0,0-2.7.15v-1.89a16.579,16.579,0,0,0,2.7.15h6.84a34.265,34.265,0,0,1-.51-3.75,77.914,77.914,0,0,1-.45-9.39,11.73,11.73,0,0,0-.15-1.89h2.1a16.156,16.156,0,0,0-.15,2.94,77.026,77.026,0,0,0,.84,12.09h5.31a15.744,15.744,0,0,0,3.18-.18v1.95a19,19,0,0,0-3.18-.18h-5a14.174,14.174,0,0,0,1.5,4,10.781,10.781,0,0,0,2.77-3.35l1.53,1a35.608,35.608,0,0,1-3.48,3.66c1.29,1.83,2.52,2.91,3.3,2.91.36,0,.54-.24.81-1a13.713,13.713,0,0,0,.54-3,6.037,6.037,0,0,0,1.53,1c-.69,3.78-1.29,4.89-2.7,4.89s-3.09-1.26-4.8-3.72a23.5,23.5,0,0,1-7.44,3.78,4.533,4.533,0,0,0-1.2-1.53,20.871,20.871,0,0,0,7.77-3.63,17.229,17.229,0,0,1-1.83-5.07Zm1-15.9a27.4,27.4,0,0,1-2.82,4.62,14.713,14.713,0,0,1,1.44,1.74,24.626,24.626,0,0,0,1.8-3.3l1.44,1a54.157,54.157,0,0,1-4.65,6.6c1.47-.18,2.79-.36,3.75-.54a11.212,11.212,0,0,0-1-1.86l1.2-.45a18.768,18.768,0,0,1,2,4.29l-1.35.57c-.15-.6-.21-.78-.36-1.32-1.26.27-2.85.57-5.73,1a8.253,8.253,0,0,0-.84.15l-.36-1.71a1.8,1.8,0,0,0,.36,0,3.339,3.339,0,0,0,.51,0,38.437,38.437,0,0,0,2.4-3.15,19.752,19.752,0,0,0-3.58-3.71l1.08-1.2c.24.24.51.51.84.81a15.478,15.478,0,0,0,2.28-4.32Zm5.49,10a2.817,2.817,0,0,0,.45,0,1.159,1.159,0,0,0,.3,0c1-1.17,1.26-1.47,2.22-2.7a17.269,17.269,0,0,0-3.45-3.63l1-1.26c.48.45.6.57.93.9a16.664,16.664,0,0,0,2.19-4l1.56.84a34.135,34.135,0,0,1-2.73,4.14c.6.66.87,1,1.44,1.71a30.491,30.491,0,0,0,2.31-3.6l1.34,1.15c-2.73,3.66-3.57,4.74-5,6.39a32.591,32.591,0,0,0,3.66-.42,10.122,10.122,0,0,0-.9-1.68l1.23-.48a25.686,25.686,0,0,1,2.17,4.58l-1.38.54c-.27-.9-.39-1.23-.6-1.77-.69.15-2.67.42-5.91.84a4.857,4.857,0,0,0-.51.09Zm3.24,1.44a10.347,10.347,0,0,1,2.28,1.83l-1.08,1a10.875,10.875,0,0,0-2.25-2Z" transform="translate(1.31 22.49)"/><path class="cls-2" d="M43.26,260.57a10.171,10.171,0,0,0,1.65-2.52c-.63-.06-1.14-.06-2.43-.06H37.8a22.088,22.088,0,0,0-2.52.12,19.879,19.879,0,0,0,.12-2.34V252.5a20.624,20.624,0,0,0-.12-2.46,20.883,20.883,0,0,0,2.55.12h4.65a19.563,19.563,0,0,0,2.55-.12c-.06.69-.09,1.44-.09,2.43v5.48c.09-.27.12-.36.18-.6l2,.54a25.718,25.718,0,0,1-1.86,2.73H56.85a20.064,20.064,0,0,0,3-.18v2a21.807,21.807,0,0,0-3-.18h-6a21.842,21.842,0,0,0,9.92,5.22,6.914,6.914,0,0,0-1,1.68c-1.26-.48-1.74-.69-2.73-1.14v5.63a15.969,15.969,0,0,0,.18,2.64h-2v-1.44H49.29v1.44H47.37a16.6,16.6,0,0,0,.15-2.25v-5.58a20.126,20.126,0,0,0-.12-2.43,19.541,19.541,0,0,0,2.49.12h3.6a20,20,0,0,1-4.89-4H43.98a22.311,22.311,0,0,1-4.71,4h3.48a19.439,19.439,0,0,0,2.46-.12,18.262,18.262,0,0,0-.12,2.43v5.31a12.794,12.794,0,0,0,.15,2.28H43.35v-1.2H37.92v1.47h-2a17.8,17.8,0,0,0,.18-2.67v-5.7c-.93.45-1.26.63-2.43,1.14a3.8,3.8,0,0,0-1-1.62,21.316,21.316,0,0,0,9.06-5.28h-5.4a20.064,20.064,0,0,0-3,.18v-2a19.546,19.546,0,0,0,3,.18Zm-6.09-4.08h6v-4.84h-6Zm.75,16.8h5.43v-5.58H37.92Zm19.72-17.52a17.6,17.6,0,0,0,.13,2.34,23.64,23.64,0,0,0-2.58-.12H50.28a20.974,20.974,0,0,0-2.58.12,16.767,16.767,0,0,0,.12-2.16v-3.51a19.436,19.436,0,0,0-.12-2.4,19.389,19.389,0,0,0,2.55.12h4.91a22.042,22.042,0,0,0,2.62-.12,18.721,18.721,0,0,0-.13,2.46Zm-8.36,17.52h5.87v-5.58H49.29Zm.3-16.8h6.27v-4.84H49.64Z" transform="translate(1.31 22.49)"/><path class="cls-2" d="M71.45,251.06a42.5,42.5,0,0,0-1.26,4.8,44.326,44.326,0,0,0-.9,9.39c0,2.34.06,4.11.18,5.7a27.872,27.872,0,0,1,2-5.85l1.44.69c-1.35,3-2.43,6.57-2.43,8.25v.45l-2.16.18c-.06-.48-.09-.63-.18-1.2a42.96,42.96,0,0,1-.78-8.49,49.624,49.624,0,0,1,1.28-11.88,16.693,16.693,0,0,0,.42-2.4Zm7.65,12.06c-1.5,1.65-2.25,3.09-2.25,4.41,0,2.22,1.89,3.3,5.76,3.3a19.734,19.734,0,0,0,6.9-1l.3,2.31a5.15,5.15,0,0,0-1,.15,31.048,31.048,0,0,1-6.15.6c-3.42,0-5.58-.72-6.87-2.28a4.244,4.244,0,0,1-.9-2.76c0-1.83.75-3.45,2.61-5.58Zm-3.81-8.88a20.368,20.368,0,0,0,5.1.45,32.224,32.224,0,0,0,8-.81l.15,2.13-2.07.27a50.762,50.762,0,0,1-6.45.39,40.114,40.114,0,0,1-4.8-.3Z" transform="translate(1.31 22.49)"/><path class="cls-2" d="M99.7,272.87a21.085,21.085,0,0,0,.18,3.36H97.64a22.464,22.464,0,0,0,.18-3.36V253.22a25.934,25.934,0,0,0-.12-3.3,27.546,27.546,0,0,0,3.12.12h4.5a26.5,26.5,0,0,0,3.06-.12c-.06.84-.09,1.74-.09,2.85v3.27a24.323,24.323,0,0,0,.09,2.76c-.84-.06-1.77-.09-3-.09H99.71Zm0-19.23h6.94v-2.19h-6.9Zm0,3.66h6.94v-2.28h-6.9Zm11.19,10.86a11.3,11.3,0,0,0,6.66,4.2,7.008,7.008,0,0,0-.9,1.68,18.1,18.1,0,0,0,2.61.21c.81,0,1-.18,1-.87V258.71h-6.21a29.626,29.626,0,0,0-3.06.09c.06-.78.09-1.68.09-2.76v-3.27c0-1,0-2-.09-2.85a26.5,26.5,0,0,0,3.06.12h5.07a27.61,27.61,0,0,0,3.15-.12,28.411,28.411,0,0,0-.15,3.3v20.25c0,2-.51,2.49-2.91,2.49-.84,0-1.83-.06-2.82-.12a5.656,5.656,0,0,0-.45-1.89,5.628,5.628,0,0,0,.66.09,13.157,13.157,0,0,1-6.9-5c-1.14,2.88-3,4.41-7.32,6a4.49,4.49,0,0,0-1.11-1.56,12.672,12.672,0,0,0,5.31-2.55,6,6,0,0,0,1.68-2.73h-3.78a17.3,17.3,0,0,0-2.73.15v-1.77a15.285,15.285,0,0,0,2.67.15h4.22a18.931,18.931,0,0,0,.18-2.67h-3.78a19.389,19.389,0,0,0-2.55.12v-1.71a13.948,13.948,0,0,0,2.55.15h1.53a15.09,15.09,0,0,0-1.83-2.52l1.53-.63a22.885,22.885,0,0,1,2.1,3.15h3.06a15.37,15.37,0,0,0,1.8-3.18l1.68.51a23.7,23.7,0,0,1-1.68,2.67h1.71a14.407,14.407,0,0,0,2.55-.15v1.71a19.563,19.563,0,0,0-2.55-.12h-4.3a18.1,18.1,0,0,1-.24,2.67h5.1a15.684,15.684,0,0,0,2.67-.15v1.77a16.249,16.249,0,0,0-2.7-.15Zm2-14.52h7.44v-2.19h-7.44Zm0,3.66h7.44v-2.28h-7.44Z" transform="translate(1.31 22.49)"/><path class="cls-2" d="M143.07,251.75a10.134,10.134,0,0,0-.12-1.74h2.25a24.855,24.855,0,0,0-.15,3.75v.33c5.67,0,8-.09,9-.21v2.13a53.187,53.187,0,0,0-5.73-.15c-.45,0-.78,0-3.21.06v5.94a8.6,8.6,0,0,1,.72,3.54,9.658,9.658,0,0,1-4,7.83,18.909,18.909,0,0,1-4.79,2.42,6.788,6.788,0,0,0-1.31-1.89,15.308,15.308,0,0,0,4.85-2.25,7.772,7.772,0,0,0,3.36-6.33,4.206,4.206,0,0,1-.81,1.47,4.923,4.923,0,1,1-3.66-8.08c.09,0,.18,0,.27.01a4.608,4.608,0,0,1,3.48,1.35v-3.98c-6,.12-12.09.42-14.09.75l-.09-2.19h1.19c.88,0,.88,0,5.7-.18,2.88-.12,5.22-.18,7.26-.24Zm-1.29,9a3.838,3.838,0,0,0-2-.48,3.169,3.169,0,0,0-3.326,3.006c0,.048,0,.1,0,.144a2.9,2.9,0,0,0,2.792,3,2.694,2.694,0,0,0,.3,0,3.359,3.359,0,0,0,3.511-3.2,3.2,3.2,0,0,0,0-.339,2.169,2.169,0,0,0-1.27-2.1Z" transform="translate(1.31 22.49)"/><path class="cls-2" d="M165.3,251.75a13.867,13.867,0,0,0,2.82.18c2.49,0,6.48-.18,9.18-.39a3.062,3.062,0,0,0,1.44-.33l1.26,1.65a5.532,5.532,0,0,0-1.53,1.26,76.95,76.95,0,0,1-9.83,8.53l.06.09a15.2,15.2,0,0,1,7.35-1.86c5,0,8.22,2.46,8.22,6.3,0,4.68-4.35,7.77-11,7.77-4.23,0-6.66-1.56-6.66-4.32,0-2,1.86-3.51,4.35-3.51a6,6,0,0,1,4.95,2.46,8.586,8.586,0,0,1,1.38,2.88c3.15-.87,4.8-2.7,4.8-5.25,0-2.88-2.4-4.59-6.45-4.59a19.25,19.25,0,0,0-12.63,5.13l-1.37-1.93a33.41,33.41,0,0,0,4.2-3.06c3.21-2.55,8-6.72,10-8.76l.42-.42.12-.12.12-.12-.06-.06h-.27c-1,.18-4.56.39-9.12.54a14.666,14.666,0,0,0-1.62.15Zm5.64,17.07c-1.5,0-2.43.72-2.43,1.86a2,2,0,0,0,1.2,1.83,7.661,7.661,0,0,0,3.36.69,10.809,10.809,0,0,0,2.19-.21C174.64,270.26,173.1,268.82,170.94,268.82Z" transform="translate(1.31 22.49)"/><path class="cls-2" d="M194.24,252.14a12.816,12.816,0,0,0-2.58.18v-2a16.052,16.052,0,0,0,2.7.18h4.89a11.7,11.7,0,0,0,2.52-.18v2a19.725,19.725,0,0,0-2.43-.12h-1.86a29.363,29.363,0,0,1-2.07,7.62h3.75a13.761,13.761,0,0,0,1.86-.09,22.36,22.36,0,0,0-.09,2.4v9.27a19.644,19.644,0,0,0,.12,2.52h-1.89v-1.5h-3.72v3.18h-2a18.089,18.089,0,0,0,.2-2.95v-6.66c0-1.08,0-2,.09-3.36a13.719,13.719,0,0,1-2.25,3.66,5.009,5.009,0,0,0-1.08-1.8,20.406,20.406,0,0,0,4.14-7.62,21.006,21.006,0,0,0,1-4.71Zm1.2,18.6h3.72v-9.39h-3.72Zm10.41-18.6a19.531,19.531,0,0,0-2.91.18v-2.07a18.355,18.355,0,0,0,3,.18h9.48a20.064,20.064,0,0,0,3-.18v2.07a15.746,15.746,0,0,0-2.91-.18h-.72v8.31h1a15.856,15.856,0,0,0,3-.18v2.13a19.546,19.546,0,0,0-3-.18h-1v10.77a22.673,22.673,0,0,0,.21,3.21h-2.31a22.381,22.381,0,0,0,.21-3.21V262.22h-4.95c-.3,6.69-1.59,10.32-5,14.28a5.445,5.445,0,0,0-1.74-1.35c3.15-3,4.56-6.75,4.83-12.93h-.84a16.735,16.735,0,0,0-3,.18v-2.1a19.538,19.538,0,0,0,3,.15h.9v-8.31Zm2.19,7.29v1h4.89v-8.31h-4.89Z" transform="translate(1.31 22.49)"/><path class="cls-2" d="M239.23,264.11a26.557,26.557,0,0,0,3.36-.15c-.06.66-.09,1.29-.12,2.64l-.12,6.09c0,.9.33,1,2.67,1,2.1,0,2.7-.15,2.91-.69a17.522,17.522,0,0,0,.48-4.5,7.379,7.379,0,0,0,2,.78c-.48,6-.66,6.18-5.49,6.18-3.66,0-4.44-.39-4.44-2.4v-.15l.12-7h-5.58a11.5,11.5,0,0,1-2.34,4.95,13.234,13.234,0,0,1-3.21,2.88,20.2,20.2,0,0,1-5,2.46,4.628,4.628,0,0,0-1.32-1.71,18.726,18.726,0,0,0,5.76-2.7,9.8,9.8,0,0,0,4.17-5.88h-4.74a21.4,21.4,0,0,0-3.24.18v-2.13a20.251,20.251,0,0,0,3.18.18h5.16a21.266,21.266,0,0,0,.21-2.52,9.989,9.989,0,0,0-.12-1.62h2.28a9.116,9.116,0,0,0-.24,1.89c-.06.72-.12,1.47-.24,2.22Zm-4-12.69a9.221,9.221,0,0,0-.21-2.16h2.34a8.765,8.765,0,0,0-.21,2.16v.93h8.91a25.477,25.477,0,0,0,3-.15,13.518,13.518,0,0,0-.12,2.07v1.53a13.911,13.911,0,0,0,.12,2.1h-2v-3.84h-7.42v4.35c0,.36.06.51.21.6a5.9,5.9,0,0,0,1.92.21,5.541,5.541,0,0,0,2.43-.33c.33-.24.48-1,.51-2.43a6.266,6.266,0,0,0,1.8.57c-.15,1.89-.39,2.73-.9,3.18s-1.74.66-3.87.66c-3.15,0-3.9-.33-3.9-1.65v-5.16h-3.69a8.216,8.216,0,0,1-1,3.33,8.451,8.451,0,0,1-4.74,3.81,27.718,27.718,0,0,1-2.79.87,8.181,8.181,0,0,0-1.14-1.65c3.21-.6,4.71-1.2,6-2.4a5.673,5.673,0,0,0,1.83-4h-6.39v3.81h-2a14.453,14.453,0,0,0,.12-2.1v-1.5a13.518,13.518,0,0,0-.12-2.07,25.477,25.477,0,0,0,3,.15h8.31Z" transform="translate(1.31 22.49)"/><path class="cls-2" d="M269.64,262.7a2.46,2.46,0,1,1-2.46-2.46A2.46,2.46,0,0,1,269.64,262.7Z" transform="translate(1.31 22.49)"/><path class="cls-2" d="M287.71,272.87a21.944,21.944,0,0,0,.18,3.36h-2.25a22.464,22.464,0,0,0,.18-3.36V253.16a25.934,25.934,0,0,0-.12-3.3,27.61,27.61,0,0,0,3.15.12h4.56a25.91,25.91,0,0,0,3-.12c-.06.84-.09,1.74-.09,2.85v3.69a24.894,24.894,0,0,0,.09,2.79c-.72-.06-1.74-.09-3-.09h-5.73Zm0-19.11h7v-2.31h-7Zm0,3.87h7V255.2h-7Zm5.58,5.37a23.382,23.382,0,0,0-2.85.12v-1.77a17.99,17.99,0,0,0,2.85.15h9.51a18.49,18.49,0,0,0,2.88-.15v1.77a23.382,23.382,0,0,0-2.85-.12h-1.08v3.72h1.5a17.548,17.548,0,0,0,2.88-.15v1.8a18.248,18.248,0,0,0-2.88-.15h-1.5v4.62a10.433,10.433,0,0,0,.18,2.58h-2.07a11.158,11.158,0,0,0,.18-2.58v-4.62h-4.53a10.1,10.1,0,0,1-4,7.44,5.491,5.491,0,0,0-1.5-1.23,8,8,0,0,0,3.75-6.21h-1.05a18.248,18.248,0,0,0-2.88.15v-1.8a17.777,17.777,0,0,0,2.88.15h1.2c.09-1.44.09-1.44.12-3.72Zm2.49,0v.65c0,.93-.06,2-.12,3h4.38v-3.72Zm14.4,10.26c0,1.29-.3,1.92-1.08,2.25a6.1,6.1,0,0,1-2.13.21c-.36,0-1.95-.06-2.55-.09a5.945,5.945,0,0,0-.57-1.92,25.109,25.109,0,0,0,3.33.3c1,0,1.17-.15,1.17-.84V259.1H302.2a30.235,30.235,0,0,0-3.06.09c.06-.87.09-1.59.09-2.79v-3.69c0-1.11,0-1.86-.09-2.85a27.02,27.02,0,0,0,3.09.12h5a28.077,28.077,0,0,0,3.15-.12,27.763,27.763,0,0,0-.15,3.3Zm-9.21-19.5h7.38v-2.31h-7.38Zm0,3.87h7.38V255.2h-7.38Z" transform="translate(1.31 22.49)"/><path class="cls-2" d="M325.06,265.65a31.176,31.176,0,0,0,.21-4.32,19.439,19.439,0,0,0-2.46.12v-1.47a25.064,25.064,0,0,1-5.82,3.45,5.826,5.826,0,0,0-1.2-1.56,22.263,22.263,0,0,0,6.84-4.08,26.47,26.47,0,0,0-4.53-3.93l1.41-1.17a40.945,40.945,0,0,1,4.44,3.87,19.617,19.617,0,0,0,3.78-4.68h-5.67a12.986,12.986,0,0,0-1.95.15v-1.92a12.593,12.593,0,0,0,2.16.15h5.7a18.045,18.045,0,0,0,2.67-.12,8.843,8.843,0,0,0,2.31,4.08,18.448,18.448,0,0,0,3.12-3.84l1.65,1.08a4.792,4.792,0,0,0-.63.69,29.021,29.021,0,0,1-3.09,3.24c.84.84,1.56,1.5,2.55,2.34a19.883,19.883,0,0,0,3.57-4.14l1.65,1.08-1.45,1.59a27.479,27.479,0,0,1-2.48,2.43,22.688,22.688,0,0,0,5.64,3,7,7,0,0,0-1.17,1.74,29.836,29.836,0,0,1-5.74-3.39v1.44a21.125,21.125,0,0,0-2.54-.12h-.51v4.29h5.34a19.546,19.546,0,0,0,3-.18v2a20.9,20.9,0,0,0-3-.18h-5.34v5.67c0,.48.12.66.6.81a10,10,0,0,0,2.31.18c2.34,0,3.18-.15,3.6-.63s.6-1.5.78-3.39a5.108,5.108,0,0,0,1.92.87c-.36,2.19-.73,3.33-1.33,4s-1.94,1-5.18,1c-3.72,0-4.56-.42-4.56-2.25v-6.2h-5a10.222,10.222,0,0,1-2.13,4.71,13.694,13.694,0,0,1-3.42,2.85,16.13,16.13,0,0,1-3,1.38,6.8,6.8,0,0,0-1.41-1.71,14.192,14.192,0,0,0,4.59-2.13,7.8,7.8,0,0,0,3.48-5.1h-4.44a20.61,20.61,0,0,0-3,.18v-2a19.3,19.3,0,0,0,3,.18Zm8.88-5.94a19.424,19.424,0,0,0,2.13-.09,22.817,22.817,0,0,1-6.45-7.47,27.16,27.16,0,0,1-6.36,7.47,22.236,22.236,0,0,0,2.25.09Zm-6.78,1.62a33.341,33.341,0,0,1-.21,4.32h4.69v-4.3Z" transform="translate(1.31 22.49)"/><path class="cls-2" d="M357.15,253.91a12.705,12.705,0,0,0,1.44-4.11l2.4.42a6.372,6.372,0,0,0-.78,1.62,14.053,14.053,0,0,1-.93,2,5.093,5.093,0,0,1,.63,0c4.8-.24,7.8-.6,9.45-1.14l.18,2a9.3,9.3,0,0,0-1.2.15,97.012,97.012,0,0,1-9.9.78,22.157,22.157,0,0,1-2.7,4.26c-.3.36-.9,1.05-1,1.14s-.36.27-.39.3h0a.237.237,0,0,0,.06.09,8.3,8.3,0,0,1,1.38-1,8.007,8.007,0,0,1,4.53-1.47,3.641,3.641,0,0,1,3.993,3.249c0,.027,0,.054.007.081,2.19-.87,3.9-1.5,5.22-2a6.6,6.6,0,0,0,2-.87l1,2.1a49.9,49.9,0,0,0-8,2.64c.06.78.06,1.08.06,1.83v3a6.5,6.5,0,0,0,.06,1.08h-2q.2-2.154.18-4.32a7.948,7.948,0,0,0,0-.9c-4.08,1.92-5.64,3.33-5.64,5.13,0,2,1.86,2.85,6.09,2.85a25.147,25.147,0,0,0,8-1.17l.27,2.31c-.4.03-.8.08-1.2.15a46.486,46.486,0,0,1-7.29.6c-5.37,0-8-1.53-8-4.62,0-1.65,1-3.21,3.06-4.74a23.314,23.314,0,0,1,4.47-2.4c-.24-1.65-1-2.37-2.37-2.37-1.89,0-4.26,1.11-6.69,3.18a9.936,9.936,0,0,0-2.31,2.49l-1.88-1.6a29.83,29.83,0,0,0,6.72-8.58l.27-.45a3.413,3.413,0,0,1-.57.06l-4.41-.09h-.48a5.191,5.191,0,0,0-.66,0v-2.07a42,42,0,0,0,6.42.33Z" transform="translate(1.31 22.49)"/><path class="cls-2" d="M384.02,265.91c0-1.29,0-2.16.09-3.6a17.337,17.337,0,0,1-3.42,3.36,5.729,5.729,0,0,0-1.17-1.71,24.587,24.587,0,0,0,6.06-5.91,10.32,10.32,0,0,0,1.44-2.58l1.86,1a12.771,12.771,0,0,0-.9,1.29,20.29,20.29,0,0,1-2,2.7v12.19a22.509,22.509,0,0,0,.21,3.66h-2.37a22.736,22.736,0,0,0,.21-3.66Zm4.14-15.63a4.952,4.952,0,0,0-.54.66,29.265,29.265,0,0,1-6.66,6.51,5.8,5.8,0,0,0-1.35-1.47,20.6,20.6,0,0,0,4-3.18,11.718,11.718,0,0,0,2.73-3.66Zm4.35,10a23.163,23.163,0,0,0-3.33.18v-2.1a22.879,22.879,0,0,0,3.33.18h10.53a21.171,21.171,0,0,0,3.3-.18v2.1a22.909,22.909,0,0,0-3.27-.18h-1.71v13.14c0,1.92-.72,2.43-3.36,2.43-1,0-2.37-.06-3.66-.15a7.229,7.229,0,0,0-.48-2.07,30.116,30.116,0,0,0,4.23.36c1,0,1.26-.12,1.26-.72v-13Zm-2.1-9.45a21.27,21.27,0,0,0,3.12.18h8.4a21,21,0,0,0,3.09-.18v2.1a23.128,23.128,0,0,0-3.09-.18h-8.4a23.578,23.578,0,0,0-3.12.18Z" transform="translate(1.31 22.49)"/><path class="cls-2" d="M416.15,252.86a20.5,20.5,0,0,0-.22,3.57,50.4,50.4,0,0,0,.79,9.33c.65,3.06,1.88,5.13,3,5.13.54,0,1-.51,1.5-1.5a21.6,21.6,0,0,0,1.56-5.13,9.917,9.917,0,0,0,1.77,1.71c-1.47,5.25-2.84,7.26-5,7.26-1.68,0-3.24-1.68-4.26-4.56s-1.47-6.69-1.61-14.07a7.371,7.371,0,0,0-.1-1.77Zm14.49,1.59a26.022,26.022,0,0,1,4.29,6.84,28.712,28.712,0,0,1,2.25,8l-2.13.87a26.5,26.5,0,0,0-6.24-14.79Z" transform="translate(1.31 22.49)"/><path class="cls-2" d="M442.96,268.07a22.018,22.018,0,0,0,3.09.18h20.46a21.566,21.566,0,0,0,3.09-.18v2.13a22.684,22.684,0,0,0-3.06-.18H446.05a22.481,22.481,0,0,0-3.09.18Zm10.5,3.69c-2.79,2.37-4.56,3.3-8.7,4.53a6.409,6.409,0,0,0-1.35-1.68,22.587,22.587,0,0,0,5.25-1.74,13.8,13.8,0,0,0,3.12-2.19Zm8.85-21.27a23.809,23.809,0,0,0,3.09-.15,17.835,17.835,0,0,0-.15,2.94v9.93a18.573,18.573,0,0,0,.15,3c-1-.09-2-.15-3.18-.15h-12c-1.14,0-2.19.06-3.18.15a20.2,20.2,0,0,0,.15-3.09v-10a17.963,17.963,0,0,0-.15-2.82,26.745,26.745,0,0,0,3.36.15Zm-13.29,1.65v2.91h14.37v-2.91Zm0,4.53v3h14.37v-3Zm0,4.65v3.12h14.37v-3.12Zm11.31,9.3c2.61,1.92,4.44,2.7,8.76,3.81a10.586,10.586,0,0,0-1.32,1.74,25.216,25.216,0,0,1-9.09-4.44Z" transform="translate(1.31 22.49)"/><path class="cls-2" d="M477.81,263.12c0-1.35,0-2.19.09-3.66a22.366,22.366,0,0,1-3.09,4.38,7.1,7.1,0,0,0-1.2-1.71,28.649,28.649,0,0,0,5.82-9.15,18.109,18.109,0,0,0,1.14-3.93l2.1.63c-.27.63-.42,1-.81,2.07a43.077,43.077,0,0,1-2.16,5v16a29.386,29.386,0,0,0,.15,3.51h-2.21a29.85,29.85,0,0,0,.18-3.6Zm9.84,7.17a13.535,13.535,0,0,0-2.43.15v-2a13.546,13.546,0,0,0,2.42.21h2.49v-6.3c0-1.38,0-2.4.06-3.69a29.714,29.714,0,0,1-8.67,11.85,5.326,5.326,0,0,0-1.44-1.59,25.213,25.213,0,0,0,6.24-6.36,24.652,24.652,0,0,0,3-5.25h-4.68a22.454,22.454,0,0,0-3,.18v-2.1a20.334,20.334,0,0,0,3,.18h5.46v-3.3a23.709,23.709,0,0,0-.21-2.94h2.25a15.661,15.661,0,0,0-.24,2.94v3.3h6.39a22.009,22.009,0,0,0,3.09-.18v2.1a22.684,22.684,0,0,0-3.06-.18h-5.67a34.127,34.127,0,0,0,4.23,6.6,25.027,25.027,0,0,0,5.43,5,6.861,6.861,0,0,0-1.47,1.68,31.636,31.636,0,0,1-9-12c.06,1.74.09,2.55.09,3.75v6.31h2.73a13.535,13.535,0,0,0,2.43-.15v2a13.721,13.721,0,0,0-2.43-.15h-2.73v2.94a26.156,26.156,0,0,0,.18,3.09h-2.19a25.755,25.755,0,0,0,.21-3.09v-2.94Z" transform="translate(1.31 22.49)"/><path class="cls-2" d="M510.32,253.79a21.17,21.17,0,0,0,1.29-4.53l2.13.39c-.57,1.71-1,2.82-1.53,4.14h1.95l2.64-.09c-.06.78-.09,1.56-.09,2.64v15.31a25.721,25.721,0,0,0,.15,3.09h-2v-1.92h-5.85v2.64h-2a26.79,26.79,0,0,0,.15-3.66V256.55a22.236,22.236,0,0,0-.12-2.85,16.911,16.911,0,0,0,1.8.09h1.48Zm-1.29,8.34h5.85v-6.69h-5.85Zm0,9h5.85v-7.32h-5.85Zm12.66-15.57a28.521,28.521,0,0,1-3.45,5.46,6.118,6.118,0,0,0-1.44-1.35,21.78,21.78,0,0,0,4.41-7.56,13.311,13.311,0,0,0,.78-2.91l2.07.39a10.517,10.517,0,0,0-.42,1.14c-.42,1.2-.69,1.89-1.14,3.06h7.26a19.4,19.4,0,0,0,2.64-.12,11.952,11.952,0,0,0-.12,1.89c-.27,11.88-.66,15.9-1.74,18.3-.6,1.38-1.56,1.92-3.33,1.92-1.11,0-1.92-.06-3.84-.21a5.548,5.548,0,0,0-.51-2.13,22.527,22.527,0,0,0,4.26.51c1.11,0,1.53-.27,1.89-1.23a34.086,34.086,0,0,0,1.11-8.28c.15-2.4.18-4.47.21-8.88Zm3.3,12.36a31.5,31.5,0,0,0-4.56-7.59l1.53-.93a34.729,34.729,0,0,1,4.74,7.47Z" transform="translate(1.31 22.49)"/><path class="cls-2" d="M548.39,250.1a9.4,9.4,0,0,0-.48,1.92c-.21,1-.39,1.74-.81,3.27a25.017,25.017,0,0,0,5.37-1l.09,2.07-1,.18a36.193,36.193,0,0,1-4.92.63,55.955,55.955,0,0,1-3.33,8.76c-.72,1.44-1,2-2.13,3.93-.27.42-.45.78-.6,1l-2-1.2a26.448,26.448,0,0,0,2.88-4.68,44.888,44.888,0,0,0,3.12-7.74c-.75,0-1.77.06-2.22.06h-3.05v-2.07a18.967,18.967,0,0,0,3.57.24h2.16a30.92,30.92,0,0,0,1-5.64Zm14.25,23.28a17.266,17.266,0,0,0-5.25-4.08,6.2,6.2,0,0,1,.06,1c0,3.09-2,4.8-5.7,4.8s-5.85-1.68-5.85-4.35a4.25,4.25,0,0,1,2.79-3.81,8.783,8.783,0,0,1,3.54-.66,9.909,9.909,0,0,1,3,.45c-.15-1.95-.21-3.36-.21-4.11a12.121,12.121,0,0,1,.3-2.91l2,.21a9.219,9.219,0,0,0-.39,2.79,37.593,37.593,0,0,0,.32,4.56,21.64,21.64,0,0,1,5.89,3.63,3.447,3.447,0,0,0,.53.48Zm-10.56-5.37c-2.55,0-4.17,1-4.17,2.7s1.44,2.46,3.81,2.46c2.58,0,3.75-1,3.75-3.27,0-.36-.07-1.29-.07-1.29A8.826,8.826,0,0,0,552.08,268.01Zm10.56-8.16a32.438,32.438,0,0,0-8-4.08l1.12-1.68a41.7,41.7,0,0,1,7.92,4Z" transform="translate(1.31 22.49)"/><path class="cls-2" d="M584.26,261.02c-.36,7.77-2.88,11.43-9.66,14.07a5.252,5.252,0,0,0-1.41-2c6.21-2.07,8.55-5.28,8.79-12.12h-8.13a23.672,23.672,0,0,0-3.45.15v-2.17a19.856,19.856,0,0,0,3.48.18h17.55a19.659,19.659,0,0,0,3.48-.18v2.22a23.672,23.672,0,0,0-3.45-.15Zm-10.83-9.51a15.577,15.577,0,0,0,3.45.21h9.06a27.231,27.231,0,0,0,3.45-.15v2.16q-.59,0-3.42-.09h-9.12a20.905,20.905,0,0,0-3.42.15Zm17.58-2.52a23.339,23.339,0,0,1,2.94,4.74l-1.53.84a22.866,22.866,0,0,0-2.91-4.86Zm3.69-1.14a24.96,24.96,0,0,1,2.94,4.74l-1.53.84a23.521,23.521,0,0,0-2.91-4.83Z" transform="translate(1.31 22.49)"/><path class="cls-2" d="M618.69,256.7v-2.94a21.123,21.123,0,0,0-.09-3.06h2.34a22.987,22.987,0,0,0-.12,2.85v3.15h2.58a20.5,20.5,0,0,0,3.51-.18v2.28a24.084,24.084,0,0,0-3.48-.15h-2.64c0,5.79-.36,8-1.47,10.17-1.62,3-4.32,5.1-8.37,6.48a5.367,5.367,0,0,0-1.35-1.89c3.93-1,7-3.33,8.16-6.36.66-1.8.84-3.6.9-8.4h-9.12v5a15.665,15.665,0,0,0,.12,2.43h-2.43a14.347,14.347,0,0,0,.12-2.52v-4.91h-2.52a24.084,24.084,0,0,0-3.48.15v-2.28a20.5,20.5,0,0,0,3.51.18h2.49v-3.48a14.642,14.642,0,0,0-.12-2.52h2.41a15.917,15.917,0,0,0-.12,2.43v3.57Zm5-7.89a23.843,23.843,0,0,1,2.13,4.92l-1.59.54a23.116,23.116,0,0,0-2.13-5Zm3.45-1a23.269,23.269,0,0,1,2.13,4.89l-1.56.54a24,24,0,0,0-2.1-4.92Z" transform="translate(1.31 22.49)"/><path class="cls-2" d="M656.64,251.75a6.8,6.8,0,0,0-1.32,1.26,52.809,52.809,0,0,1-7,6v12.78a19.882,19.882,0,0,0,.15,3.18h-2.61a15.446,15.446,0,0,0,.19-3.12v-11.4a47.025,47.025,0,0,1-11.59,5.25,6.929,6.929,0,0,0-1.16-2,42.2,42.2,0,0,0,15.56-7.77,25.189,25.189,0,0,0,5.73-5.67Z" transform="translate(1.31 22.49)"/><path class="cls-2" d="M666.92,271.49a26.114,26.114,0,0,0,8.73-2.31c5.79-2.58,9.81-7,12.24-13.35a5.989,5.989,0,0,0,1.83,1.77c-2.4,5.22-5.19,8.73-9.15,11.46-3.09,2.1-6.18,3.33-11.19,4.47a15.753,15.753,0,0,0-1.8.48Zm1.92-18.6a39.087,39.087,0,0,1,7.23,5.64l-1.56,1.86a33.149,33.149,0,0,0-7.14-5.88Z" transform="translate(1.31 22.49)"/><path class="cls-2" d="M702.46,271.94a24.234,24.234,0,0,0-3.21.12v-2.41a14.686,14.686,0,0,0,3.27.21H716.8V255.41H703.15a25.163,25.163,0,0,0-3.45.15v-2.4a16.4,16.4,0,0,0,3.45.21h14.4c.39,0,.81,0,1.56-.06-.06.75-.06,1.26-.06,2.34v15.36a20.087,20.087,0,0,0,.15,2.73h-2.4v-1.8Z" transform="translate(1.31 22.49)"/><path class="cls-2" d="M730.2,271.49a26.114,26.114,0,0,0,8.73-2.31c5.79-2.58,9.81-7,12.24-13.35A5.989,5.989,0,0,0,753,257.6c-2.4,5.22-5.19,8.73-9.15,11.46-3.09,2.1-6.18,3.33-11.19,4.47a15.753,15.753,0,0,0-1.8.48Zm1.92-18.6a39.087,39.087,0,0,1,7.23,5.64l-1.56,1.86a33.149,33.149,0,0,0-7.14-5.88Z" transform="translate(1.31 22.49)"/><path class="cls-2" d="M9.18,310.55a17.2,17.2,0,0,0-.12-2.76h2.43a17.216,17.216,0,0,0-.15,2.76v4.38l12.18-1.62a3.339,3.339,0,0,0,1.71-.42l1.47,1.23a9.055,9.055,0,0,0-.48.84,20.209,20.209,0,0,1-2.28,3.84,23.017,23.017,0,0,1-5.1,4.68,5.1,5.1,0,0,0-1.8-1.44,16.591,16.591,0,0,0,6.81-7l-.69.15-.36.06c-4.2.57-8,1.11-11.46,1.59v7.08c0,2.79.12,3.42.75,4s1.89.75,4.35.75a34.057,34.057,0,0,0,8.73-1l.15,2.43a12.031,12.031,0,0,0-1.8.15,53.37,53.37,0,0,1-7.11.54c-3.42,0-5.16-.42-6.12-1.41s-1.11-1.89-1.11-5v-7.23l-3.63.51a19.254,19.254,0,0,0-2.94.51l-.27-2.25h.45c.51,0,1.56-.09,2.58-.21l3.81-.51Z" transform="translate(1.31 22.49)"/><path class="cls-2" d="M54.64,310.13a3.2,3.2,0,0,1-.12-.87,3.41,3.41,0,1,1,3.43,3.39h-.04a3.526,3.526,0,0,1-1-.15l-.06.18c-1.47,5.34-3.39,9.09-6.12,11.94a27.847,27.847,0,0,1-10.92,7.11,5.944,5.944,0,0,0-1.47-2.07,24.089,24.089,0,0,0,11-6.81,24.306,24.306,0,0,0,5.25-10.68H39.21a22.2,22.2,0,0,0-3.36.18v-2.4a21.343,21.343,0,0,0,3.39.18Zm1.14-.9a2.15,2.15,0,1,0,2.17-2.13h-.01a2.15,2.15,0,0,0-2.2,2.1v.031Z" transform="translate(1.31 22.49)"/><path class="cls-2" d="M72.33,332.03a19.292,19.292,0,0,0,.18-3.15V310.25a17.8,17.8,0,0,0-.18-3.06h2.58a18.921,18.921,0,0,0-.15,3.12v5.61a74.394,74.394,0,0,1,13.35,6.33l-1.29,2.22a61.119,61.119,0,0,0-11.19-5.94,3.321,3.321,0,0,1-.93-.51h-.06a10.491,10.491,0,0,1,.12,1.77v9a20.359,20.359,0,0,0,.15,3.18Z" transform="translate(1.31 22.49)"/><path class="cls-2" d="M111.64,319.7a2.46,2.46,0,1,1-2.46-2.46h0A2.471,2.471,0,0,1,111.64,319.7Z" transform="translate(1.31 22.49)"/><path class="cls-2" d="M126.64,318.2a12.151,12.151,0,0,0,2.31.15h1.56a13.732,13.732,0,0,0,2.31-.15,22.829,22.829,0,0,0-.15,3.18v5.88a4.529,4.529,0,0,0,2.67,2.73c1.5.66,3.24.87,6.75.87a87.094,87.094,0,0,0,12.06-.6,7.563,7.563,0,0,0-.69,2.19c-3.15.15-6.6.21-10.14.21-5.1,0-6.78-.21-8.58-1a6.933,6.933,0,0,1-3.09-2.82,26.56,26.56,0,0,1-3.6,3.15c-.27.21-.6.48-1.08.93l-1-2a20.063,20.063,0,0,0,4.83-3.63v-7.23h-2a11.389,11.389,0,0,0-2.19.15Zm1.92-11.37a37.006,37.006,0,0,1,4.86,5.34l-1.53,1.35a27.184,27.184,0,0,0-4.74-5.49Zm9.48,5.22a20.41,20.41,0,0,1-2,3,4.553,4.553,0,0,0-1.59-1,16.658,16.658,0,0,0,3.51-5.76,8.158,8.158,0,0,0,.39-1.53l1.92.57a1.209,1.209,0,0,1-.12.27c-.18.36-.18.36-.54,1.23a15.867,15.867,0,0,1-.69,1.59h4v-1a18.461,18.461,0,0,0-.18-3.09h2.16a14.94,14.94,0,0,0-.18,3.09v1h4.32a13.668,13.668,0,0,0,2.85-.18v1.95a24.138,24.138,0,0,0-2.82-.12h-4.43v4h5.61a15.2,15.2,0,0,0,2.73-.15v2a27.062,27.062,0,0,0-2.73-.15H136.92a24.816,24.816,0,0,0-2.67.15v-2a15.483,15.483,0,0,0,2.73.15h5.82v-4Zm1.65,16a21.482,21.482,0,0,0-3,.15,18.976,18.976,0,0,0,.12-2.88V322.8a17.911,17.911,0,0,0-.12-2.7,22.377,22.377,0,0,0,3.18.15h7.86a23.26,23.26,0,0,0,3.21-.15,16.27,16.27,0,0,0-.12,2.91v2.28a16.266,16.266,0,0,0,.12,2.91,23.675,23.675,0,0,0-3.15-.15Zm-1.08-1.68h10.35v-4.44H138.57Z" transform="translate(1.31 22.49)"/><path class="cls-2" d="M161.69,309.29a15.043,15.043,0,0,0-2.58.15v-2.07a18.6,18.6,0,0,0,2.73.18h9.42a17.933,17.933,0,0,0,2.7-.18v2.07a14.5,14.5,0,0,0-2.55-.15h-.66v7.44h.89a15.138,15.138,0,0,0,2.64-.15v2.1a15.335,15.335,0,0,0-2.64-.15h-.93v11.25a21,21,0,0,0,.18,3.12h-2.22a18.928,18.928,0,0,0,.18-3.12V318.5h-4.53a35.34,35.34,0,0,1-.51,5.49,17.414,17.414,0,0,1-4.47,9,5.988,5.988,0,0,0-1.59-1.35c3.27-3.15,4.59-6.87,4.71-13.17h-1.23a17.563,17.563,0,0,0-2.73.18v-2.16a16.856,16.856,0,0,0,2.73.18h1.23v-7.44Zm2.67,7.44h4.53v-7.44h-4.53Zm21.63,6.3a23.95,23.95,0,0,0-2.07,2.25,32.027,32.027,0,0,1-5.1,4.59,30.974,30.974,0,0,1-5.31,3.12,9.316,9.316,0,0,0-1.17-1.74,27.61,27.61,0,0,0,9.81-6.81,15.2,15.2,0,0,0,2.13-2.85Zm-2.1-15.36c-.36.3-.6.54-1.56,1.44a31.517,31.517,0,0,1-7.95,5.79,6.556,6.556,0,0,0-1.2-1.71,23.156,23.156,0,0,0,6.93-4.62,12.445,12.445,0,0,0,2-2.22Zm1.08,7.59a10.184,10.184,0,0,0-1.26,1.17,33.774,33.774,0,0,1-9.24,6.93,8.22,8.22,0,0,0-1.17-1.77,24.437,24.437,0,0,0,7.71-5.1,13.843,13.843,0,0,0,2.28-2.64Z" transform="translate(1.31 22.49)"/><path class="cls-2" d="M199.1,306.65c-.36.81-.45,1.08-.69,1.68a39.068,39.068,0,0,1-2.22,5v16.32a25.183,25.183,0,0,0,.21,3.6h-2.34a26.979,26.979,0,0,0,.21-3.66v-10c0-1.29,0-2.1.12-3.87a22.343,22.343,0,0,1-3.72,4.74,5.885,5.885,0,0,0-1.26-1.59,26,26,0,0,0,6.33-9,15.912,15.912,0,0,0,1.26-4Zm4.59,5.91a33.807,33.807,0,0,1-4.77,7.32,4.326,4.326,0,0,0-1.5-1.44,26.012,26.012,0,0,0,5.31-8.22,16.51,16.51,0,0,0,1.26-4.26l2.1.69a14.975,14.975,0,0,0-.6,1.53c-.42,1.23-.57,1.62-1,2.67H214a14.5,14.5,0,0,0,2.73-.18v2a16.611,16.611,0,0,0-2.73-.15h-7v4.86h6.09a16.9,16.9,0,0,0,2.64-.18v2.07a18.51,18.51,0,0,0-2.64-.18H207v4.86h6.18a17.15,17.15,0,0,0,2.64-.18v2.07a17.15,17.15,0,0,0-2.64-.18H207v4.59a16.37,16.37,0,0,0,.21,3.15H204.9a18.857,18.857,0,0,0,.18-3.15V312.52Z" transform="translate(1.31 22.49)"/><path class="cls-2" d="M222.64,323.03a27.718,27.718,0,0,0-.12-2.91,24.453,24.453,0,0,0,2.76.12h5.67a20.025,20.025,0,0,0,2.43-.09,26.023,26.023,0,0,0-.09,2.82v6.93a23.271,23.271,0,0,0,.12,2.94h-1.95v-1.32h-7v1.89h-2a20.338,20.338,0,0,0,.15-3.12Zm1.86,6.81h7v-7.92h-7Zm2.46-20.25a20.794,20.794,0,0,0-.12-2.52,24.81,24.81,0,0,0,3.36.15h9.81a22.858,22.858,0,0,0,3.39-.15,19.726,19.726,0,0,0-.12,2.49v5.09a21.162,21.162,0,0,0,.12,2.64,28.559,28.559,0,0,0-3.15-.12H230.06a29.1,29.1,0,0,0-3.18.12,22.746,22.746,0,0,0,.12-2.61Zm1.89,5.85h12.51v-6.51H228.89Zm7.41,7.29a18.838,18.838,0,0,0-.09-2.58c.75.06,1.41.09,2.43.09h6.6a19.855,19.855,0,0,0,2.58-.12,26,26,0,0,0-.12,2.94v7.23a19.369,19.369,0,0,0,.15,3.12h-2v-1.89h-7.68v1.89h-1.95a24.878,24.878,0,0,0,.12-2.94Zm1.83,7.11h7.71v-7.92h-7.71Z" transform="translate(1.31 22.49)"/><path class="cls-2" d="M262.78,310.91a12.705,12.705,0,0,0,1.44-4.11l2.4.42a6.372,6.372,0,0,0-.78,1.62,14.053,14.053,0,0,1-.93,2,5.093,5.093,0,0,1,.63,0c4.8-.24,7.8-.6,9.45-1.14l.18,2a9.3,9.3,0,0,0-1.2.15,97.012,97.012,0,0,1-9.9.78,22.157,22.157,0,0,1-2.7,4.26c-.3.36-.9,1-1,1.14a1.759,1.759,0,0,1-.39.3h0a.237.237,0,0,0,.06.09c1.08-.84,1.08-.84,1.38-1.05a8.007,8.007,0,0,1,4.53-1.47,3.641,3.641,0,0,1,3.993,3.249c0,.027,0,.054.007.081,2.19-.87,3.9-1.5,5.22-2a6.6,6.6,0,0,0,2-.87l1,2.1a49.8,49.8,0,0,0-8,2.64c.06.78.06,1.08.06,1.83v3a6.5,6.5,0,0,0,.06,1.08h-2q.2-2.154.18-4.32a7.948,7.948,0,0,0,0-.9c-4.08,1.92-5.64,3.33-5.64,5.13,0,2,1.86,2.85,6.09,2.85a25.147,25.147,0,0,0,8-1.17l.27,2.31a11.811,11.811,0,0,0-1.2.15,46.607,46.607,0,0,1-7.29.6c-5.37,0-8-1.53-8-4.62,0-1.65,1-3.21,3.06-4.74a23.259,23.259,0,0,1,4.47-2.4c-.24-1.65-1-2.37-2.37-2.37-1.89,0-4.26,1.11-6.69,3.18a9.919,9.919,0,0,0-2.31,2.49l-1.68-1.68a29.848,29.848,0,0,0,6.72-8.58l.27-.45a3.413,3.413,0,0,1-.57.06l-4.41-.09h-.48a5.191,5.191,0,0,0-.66,0v-2.07a42,42,0,0,0,6.42.33Z" transform="translate(1.31 22.49)"/><path class="cls-2" d="M301.9,321.17h-5.4a13.353,13.353,0,0,0-2.43.15v-1.67a30.486,30.486,0,0,1-3,1.44v9.84c0,1.65-.66,2.13-2.94,2.13a18.9,18.9,0,0,1-2.4-.12,6.325,6.325,0,0,0-.42-1.89,18.763,18.763,0,0,0,2.82.24c.87,0,1.11-.18,1.11-.84v-8.58c-2,.84-3.24,1.35-3.63,1.53l-.54-2a18.5,18.5,0,0,0,4.17-1.38v-6.3H287.5a21.129,21.129,0,0,0-2.22.15v-2a13.46,13.46,0,0,0,2.25.18h1.71v-2.73a19.8,19.8,0,0,0-.18-3h2.19a18.818,18.818,0,0,0-.18,3v2.79h1.32a9.21,9.21,0,0,0,2.07-.15v2a12.385,12.385,0,0,0-2-.12h-1.35v5.52a27.963,27.963,0,0,0,3.24-1.56v1.74a17.2,17.2,0,0,0,2.28.12h12.48a16.572,16.572,0,0,0,2.67-.18v2a16.687,16.687,0,0,0-2.67-.18h-5.37v3.35h4a14.609,14.609,0,0,0,2.61-.15v1.89a15.393,15.393,0,0,0-2.61-.15h-4v4.32a24.154,24.154,0,0,0,3.78.27c1.5,0,3.12-.06,4.89-.21a5.53,5.53,0,0,0-.57,2h-2.7c-5.13,0-7.89-.54-9.81-1.89a11.72,11.72,0,0,1-2.55-2.52,19.277,19.277,0,0,1-3.48,5.16,4.87,4.87,0,0,0-1.53-1.14,15.358,15.358,0,0,0,3.75-5.46,13.557,13.557,0,0,0,1.11-4.14l1.95.48a12.057,12.057,0,0,0-.48,1.53c-.21.66-.39,1.26-.63,1.89a8.384,8.384,0,0,0,4.44,3.57Zm-3.27-3.9a23.649,23.649,0,0,0-2.7.09c.06-.87.09-1.74.09-2.82v-4.35a25.08,25.08,0,0,0-.09-2.79,25.535,25.535,0,0,0,2.82.12h8.16a24.138,24.138,0,0,0,2.82-.12,16.882,16.882,0,0,0-.12,2.4v4.85a21.173,21.173,0,0,0,.12,2.7c-.69-.06-1.68-.09-2.88-.09Zm-.84-5.64h10v-2.52h-10Zm0,4.08h10v-2.55h-10Z" transform="translate(1.31 22.49)"/><path class="cls-2" d="M340,323.57a26.463,26.463,0,0,0,3.33-.18v2a26.463,26.463,0,0,0-3.33-.18h-7.71a26.922,26.922,0,0,0,11.73,6,7.477,7.477,0,0,0-1.23,1.8,36.81,36.81,0,0,1-5.16-2.16,26.626,26.626,0,0,1-6.87-4.95c.06,1.2.12,2.61.12,3.24v1.29a15.982,15.982,0,0,0,.18,2.94H328.9a17.632,17.632,0,0,0,.18-2.94v-1.29c0-.63,0-1.5.09-3.21a25.982,25.982,0,0,1-6.53,4.72,43.447,43.447,0,0,1-4.95,2.22,5.838,5.838,0,0,0-1.29-1.71,33.314,33.314,0,0,0,6.78-2.79,19.273,19.273,0,0,0,4.47-3.24h-7.08a25.626,25.626,0,0,0-3.3.18v-2a25.164,25.164,0,0,0,3.27.18h8.58v-.36a13.93,13.93,0,0,0-.12-2h2a12.865,12.865,0,0,0-.12,2v.39Zm-3.18-9a11.692,11.692,0,0,1-3.45,3.42,80.824,80.824,0,0,1,8.55,2.67l-1.17,1.47a59.856,59.856,0,0,0-9.27-3.06c-3.45,1.65-7.14,2.46-13,2.85a4.573,4.573,0,0,0-.81-1.62,33.506,33.506,0,0,0,11.25-1.83c-1.95-.42-3.6-.69-6.75-1.11a25.371,25.371,0,0,0,2.85-2.79h-4.38a21.965,21.965,0,0,0-3,.18v-1.86a18.07,18.07,0,0,0,2.94.18h5.73a10.872,10.872,0,0,0,1.77-2.85l1.95.54-1.68,2.31h11.7a15.692,15.692,0,0,0,3-.18v1.86a20.752,20.752,0,0,0-3-.18Zm-7.71-6.51a10.887,10.887,0,0,0-.21-2.22h2.28a9.976,9.976,0,0,0-.21,2.22v.18h8.82a28.347,28.347,0,0,0,3-.12,9.477,9.477,0,0,0-.12,1.74v.57a13.964,13.964,0,0,0,.09,1.71h-1.92V309.8h-21v2.31h-1.92a14.219,14.219,0,0,0,.09-1.65v-.6a10.56,10.56,0,0,0-.12-1.74c1,.09,1.77.12,3,.12h8.13Zm-1.92,6.51c-.69.78-.93,1-1.74,1.86,2.13.33,3.75.63,5.7,1.08a10.148,10.148,0,0,0,3.49-2.86Z" transform="translate(1.31 22.49)"/><path class="cls-2" d="M363.64,308.75a10.134,10.134,0,0,0-.12-1.74h2.25a24.855,24.855,0,0,0-.15,3.75v.33c5.67,0,8-.09,9-.21v2.13a53.187,53.187,0,0,0-5.73-.15c-.45,0-.78,0-3.21.06v5.94a8.6,8.6,0,0,1,.72,3.54,9.658,9.658,0,0,1-4,7.83,19.086,19.086,0,0,1-4.76,2.42,6.594,6.594,0,0,0-1.32-1.89,15.392,15.392,0,0,0,4.86-2.25,7.772,7.772,0,0,0,3.36-6.33,4.2,4.2,0,0,1-.81,1.47,4.936,4.936,0,1,1-3.71-8.13c.107,0,.214,0,.32.01a4.608,4.608,0,0,1,3.48,1.35v-3.99c-6,.12-12.09.42-14.1.75l-.09-2.19h1.21c.86,0,.86,0,5.69-.18,2.88-.12,5.22-.18,7.26-.24Zm-1.29,9a3.838,3.838,0,0,0-2-.48,3.169,3.169,0,0,0-3.326,3.006c0,.048,0,.1,0,.144a2.9,2.9,0,0,0,2.792,3,2.694,2.694,0,0,0,.3,0,3.359,3.359,0,0,0,3.511-3.2,3.2,3.2,0,0,0,0-.339,2.171,2.171,0,0,0-1.28-2.1Z" transform="translate(1.31 22.49)"/><path class="cls-2" d="M385.95,308.75a13.867,13.867,0,0,0,2.82.18c2.49,0,6.48-.18,9.18-.39a3.062,3.062,0,0,0,1.44-.33l1.26,1.65a5.532,5.532,0,0,0-1.53,1.26,76.993,76.993,0,0,1-9.87,8.52l.06.09a15.2,15.2,0,0,1,7.35-1.86c5,0,8.22,2.46,8.22,6.3,0,4.68-4.35,7.77-11,7.77-4.23,0-6.66-1.56-6.66-4.32,0-2,1.86-3.51,4.35-3.51a6,6,0,0,1,4.95,2.46,8.586,8.586,0,0,1,1.38,2.88c3.15-.87,4.8-2.7,4.8-5.25,0-2.88-2.4-4.59-6.45-4.59a19.25,19.25,0,0,0-12.63,5.13l-1.35-1.92a33.41,33.41,0,0,0,4.2-3.06c3.21-2.55,7.95-6.72,10-8.76l.42-.42.12-.12.12-.12-.06-.06h-.27c-1,.18-4.56.39-9.12.54a14.666,14.666,0,0,0-1.62.15Zm5.64,17.07c-1.5,0-2.43.72-2.43,1.86a2,2,0,0,0,1.2,1.83,7.675,7.675,0,0,0,3.36.69,10.809,10.809,0,0,0,2.19-.21c-.66-2.73-2.16-4.17-4.27-4.17Z" transform="translate(1.31 22.49)"/><path class="cls-2" d="M420.24,328.55a4.49,4.49,0,1,1,0-.02Zm-7.29,0a2.79,2.79,0,1,0,2.79-2.79A2.79,2.79,0,0,0,412.95,328.55Z" transform="translate(1.31 22.49)"/><path class="cls-2" d="M444.39,322.52a11.029,11.029,0,0,0-2.46.18v-2a11.031,11.031,0,0,0,2.52.18h3.66v-1.59a5.541,5.541,0,0,0-.15-1.23h2a5.525,5.525,0,0,0-.12,1.23v1.59h3.3a11.64,11.64,0,0,0,2.43-.18v2a13.177,13.177,0,0,0-2.43-.15h-2.85a12.688,12.688,0,0,0,4.23,3.81,7.533,7.533,0,0,0-1.05,1.62,15.4,15.4,0,0,1-3.75-4.14c.06.66.09,1.53.12,2.64v4.35a16.61,16.61,0,0,0,.15,2.58h-2.07a16.627,16.627,0,0,0,.18-2.58v-4.26c0-.72,0-1.5.09-2.49a17.776,17.776,0,0,1-5.67,6.66,6.136,6.136,0,0,0-1.14-1.68,20.049,20.049,0,0,0,3.9-3.3,14.222,14.222,0,0,0,2.19-3.21Zm5.34-6.69a15.943,15.943,0,0,0,2-4.92l1.8.57a31.783,31.783,0,0,1-2,4.35h1.77a13.177,13.177,0,0,0,2.43-.15v2a14.011,14.011,0,0,0-2.43-.15h-8.91a13.651,13.651,0,0,0-2.49.15v-2a13.3,13.3,0,0,0,2.49.15Zm3.06-6.9a13.8,13.8,0,0,0,2.52-.15v2a15.313,15.313,0,0,0-2.55-.15h-7.68a15.189,15.189,0,0,0-2.61.15v-2a14.574,14.574,0,0,0,2.64.15h3v-.81a10.406,10.406,0,0,0-.15-2.1h2.19a9.988,9.988,0,0,0-.15,2.1v.81Zm-6.87,6.63a16.694,16.694,0,0,0-1.71-4l1.59-.6a17.866,17.866,0,0,1,1.71,4Zm20.55.06a15.178,15.178,0,0,0,2.76-.18v2.07a15.538,15.538,0,0,0-2.64-.15h-1.11v13.08a15,15,0,0,0,.18,3h-2.31a18.136,18.136,0,0,0,.18-3V317.36h-4.71v1.17a32.96,32.96,0,0,1-1.71,10.77,15.585,15.585,0,0,1-2.22,4.11,6.3,6.3,0,0,0-1.71-1.26c2.88-3.54,3.78-7.74,3.78-17.76,0-3.39-.06-4.68-.15-5.55h.36a29.014,29.014,0,0,0,7.11-1.38,9.509,9.509,0,0,0,2.76-1.29l1.53,1.68a9.968,9.968,0,0,0-1.08.42,36.519,36.519,0,0,1-8.64,2.22v5.16Z" transform="translate(1.31 22.49)"/><path class="cls-2" d="M481.64,307.7a46.206,46.206,0,0,0-.39,6.33c-.12,3.6-.21,7.68-.21,9,0,.36,0,1.11.06,1.8a4.717,4.717,0,0,0,1.41,3.6,5.661,5.661,0,0,0,3.75,1.17,8.619,8.619,0,0,0,8-5.22,17.805,17.805,0,0,0,1.47-4.71,8.469,8.469,0,0,0,2.16,1.44c-1.14,3.51-2,5.28-3.33,6.81a10.5,10.5,0,0,1-8.46,3.75c-2.55,0-4.44-.72-5.64-2.1s-1.65-3-1.65-6.15c0-2,0-2.76.27-12.21v-2a9.21,9.21,0,0,0-.12-1.59Z" transform="translate(1.31 22.49)"/><path class="cls-2" d="M510.41,309.86a23.287,23.287,0,0,0-.2,3.57,51.374,51.374,0,0,0,.78,9.33c.66,3.06,1.89,5.13,3,5.13.54,0,1-.51,1.5-1.5a21.144,21.144,0,0,0,1.55-5.13,9.917,9.917,0,0,0,1.77,1.71c-1.46,5.25-2.85,7.26-5,7.26-1.68,0-3.24-1.68-4.26-4.56s-1.47-6.69-1.62-14.07a16.354,16.354,0,0,0-.09-1.77Zm14.49,1.59a26.022,26.022,0,0,1,4.29,6.84,28.712,28.712,0,0,1,2.25,8l-2.12.87a26.584,26.584,0,0,0-6.25-14.79Z" transform="translate(1.31 22.49)"/><path class="cls-2" d="M552.05,318.02c-.36,7.77-2.88,11.43-9.66,14.07a5.252,5.252,0,0,0-1.41-2c6.21-2.07,8.55-5.28,8.79-12.12h-8.13a23.672,23.672,0,0,0-3.45.15V315.9a19.856,19.856,0,0,0,3.48.18h17.55a19.659,19.659,0,0,0,3.48-.18v2.22a23.672,23.672,0,0,0-3.45-.15Zm-10.83-9.51a15.577,15.577,0,0,0,3.45.21h9.06a27.231,27.231,0,0,0,3.45-.15v2.16q-.589,0-3.42-.09h-9.12a20.905,20.905,0,0,0-3.42.15Zm17.58-2.52a23.339,23.339,0,0,1,2.94,4.74l-1.53.84a22.866,22.866,0,0,0-2.91-4.86Zm3.69-1.14a24.96,24.96,0,0,1,2.94,4.74l-1.53.84a23.521,23.521,0,0,0-2.91-4.83Z" transform="translate(1.31 22.49)"/><path class="cls-2" d="M586.58,313.7v-2.94a21.128,21.128,0,0,0-.09-3.06h2.34a23,23,0,0,0-.12,2.85v3.15h2.58a20.5,20.5,0,0,0,3.51-.18v2.28a24.084,24.084,0,0,0-3.48-.15h-2.68c0,5.79-.36,8-1.47,10.17-1.62,3-4.32,5.1-8.37,6.48a5.367,5.367,0,0,0-1.35-1.89c3.93-1,7-3.33,8.16-6.36.66-1.8.84-3.6.9-8.4h-9.12v5a15.665,15.665,0,0,0,.12,2.43h-2.43a14.347,14.347,0,0,0,.12-2.52v-4.91h-2.52a24.084,24.084,0,0,0-3.48.15v-2.28a20.5,20.5,0,0,0,3.51.18h2.49v-3.48a14.642,14.642,0,0,0-.12-2.52h2.43a15.917,15.917,0,0,0-.12,2.43v3.57Zm5-7.89a23.843,23.843,0,0,1,2.13,4.92l-1.59.54a23.137,23.137,0,0,0-2.13-5Zm3.45-1a23.269,23.269,0,0,1,2.13,4.89l-1.56.54a24,24,0,0,0-2.1-4.92Z" transform="translate(1.31 22.49)"/><path class="cls-2" d="M624.58,308.75a6.8,6.8,0,0,0-1.31,1.26,53.011,53.011,0,0,1-7,6v12.78a19.653,19.653,0,0,0,.16,3.18h-2.61a15.661,15.661,0,0,0,.18-3.12v-11.4a46.884,46.884,0,0,1-11.58,5.25,7,7,0,0,0-1.17-2,42.225,42.225,0,0,0,15.57-7.77,25.623,25.623,0,0,0,5.73-5.67Z" transform="translate(1.31 22.49)"/><path class="cls-2" d="M634.99,328.49a26.114,26.114,0,0,0,8.73-2.31c5.79-2.58,9.81-7,12.24-13.35a5.989,5.989,0,0,0,1.83,1.77c-2.4,5.22-5.19,8.73-9.15,11.46-3.09,2.1-6.18,3.33-11.19,4.47a15.753,15.753,0,0,0-1.8.48Zm1.92-18.6a39.087,39.087,0,0,1,7.23,5.64l-1.56,1.86a33.149,33.149,0,0,0-7.14-5.88Z" transform="translate(1.31 22.49)"/><path class="cls-2" d="M676.64,310.31a86.65,86.65,0,0,1-9.84.78,5.479,5.479,0,0,0-.78-1.86,78.639,78.639,0,0,0,12.42-1,29.143,29.143,0,0,0,7.65-2l1.65,1.77a53.1,53.1,0,0,1-9.15,2v5h7.26a22.237,22.237,0,0,0,3.18-.18v2.1a22.843,22.843,0,0,0-3.18-.18h-7.21v4.71h8.58a22.111,22.111,0,0,0,3.15-.18v2.13a22.722,22.722,0,0,0-3.15-.18h-8.58v6.93c0,1.86-.72,2.37-3.27,2.37a43.926,43.926,0,0,1-4.5-.27,7.068,7.068,0,0,0-.54-2.07,32.441,32.441,0,0,0,5.1.51c1,0,1.26-.21,1.26-.87v-6.6h-9.24a22.722,22.722,0,0,0-3.15.18v-2.13a21.4,21.4,0,0,0,3.15.18h9.19v-4.71h-7.56a24.667,24.667,0,0,0-3.18.18v-2.1a22.093,22.093,0,0,0,3.18.18h7.56Z" transform="translate(1.31 22.49)"/><path class="cls-2" d="M696.7,313.65a37.247,37.247,0,0,1,5.13,3.75l-1.17,1.65a24.472,24.472,0,0,0-5.1-4Zm5.34,9.81a52.9,52.9,0,0,1-3.93,8.1c-.18.3-.27.51-.6,1.14l-1.74-1.56a13.009,13.009,0,0,0,1.83-2.61,37.711,37.711,0,0,0,2.88-6.24Zm-3.54-16.89a26.372,26.372,0,0,1,4.83,3.93l-1.23,1.56a23.4,23.4,0,0,0-4.83-4.17Zm8.58,6.39a20.824,20.824,0,0,0-2.91.18v-2.1a18.776,18.776,0,0,0,2.94.18h4.2v-2.07a17.308,17.308,0,0,0-.18-3h2.28a16.552,16.552,0,0,0-.18,3v2.07h5.7a17.425,17.425,0,0,0,2.7-.18v2.1a17.034,17.034,0,0,0-2.67-.18h-5.73v5.49h6.78a17.693,17.693,0,0,0,2.76-.18v2.1a18.068,18.068,0,0,0-2.73-.18h-7.77a66.688,66.688,0,0,1-4.2,9.36c5.25-.51,7.35-.75,10.29-1.29a43.655,43.655,0,0,0-3.69-5.07l1.62-.87a59.525,59.525,0,0,1,6.39,9.42l-1.83,1.08c-.78-1.56-1-2-1.59-3.06-2.37.42-2.37.42-5.4.87-2.19.33-2.19.33-8.76,1-1.23.12-1.65.18-2.31.3l-.48-2.16a6.558,6.558,0,0,0,1,.06,24.676,24.676,0,0,0,2.52-.15,54.177,54.177,0,0,0,4.35-9.54h-4.44a21.1,21.1,0,0,0-2.94.18v-2.1a19.8,19.8,0,0,0,3,.18h5.52v-5.49Z" transform="translate(1.31 22.49)"/><path class="cls-2" d="M739.64,323.12c-1.74,4-3.51,5.76-5.67,5.76-2.85,0-5-3.12-5-7.32a12.179,12.179,0,0,1,12.072-12.287q.384,0,.768.017a11.611,11.611,0,0,1,8.25,3,10,10,0,0,1,2.91,7.32,10.921,10.921,0,0,1-6.87,10.35,23.212,23.212,0,0,1-4.56,1.38,4.772,4.772,0,0,0-1-2,18.022,18.022,0,0,0,5-1.41,9.059,9.059,0,0,0,5.31-8.4,7.91,7.91,0,0,0-4.77-7.53,8.622,8.622,0,0,0-3.48-.75A45.02,45.02,0,0,1,739.64,323.12Zm-3.68-10.47a10.369,10.369,0,0,0-4.89,8.94c0,2.88,1.26,5.1,2.88,5.1,1.26,0,2.46-1.41,3.75-4.35a41.217,41.217,0,0,0,2.73-11.1A9.469,9.469,0,0,0,735.96,312.65Z" transform="translate(1.31 22.49)"/><path class="cls-2" d="M18.24,378.17h-5.4a13.353,13.353,0,0,0-2.43.15v-1.67a30.486,30.486,0,0,1-3,1.44v9.84c0,1.65-.66,2.13-2.94,2.13a18.9,18.9,0,0,1-2.4-.12,6.325,6.325,0,0,0-.42-1.89,18.763,18.763,0,0,0,2.82.24c.87,0,1.11-.18,1.11-.84v-8.58c-2,.84-3.24,1.35-3.63,1.53l-.54-2a18.5,18.5,0,0,0,4.17-1.38v-6.3H3.87a21.129,21.129,0,0,0-2.22.15v-2a13.46,13.46,0,0,0,2.25.18H5.64v-2.73a19.932,19.932,0,0,0-.18-3H7.64a18.818,18.818,0,0,0-.18,3v2.79H8.78a9.21,9.21,0,0,0,2.07-.15v2a12.385,12.385,0,0,0-2-.12H7.44v5.52a27.9,27.9,0,0,0,3.2-1.71v1.74a17.025,17.025,0,0,0,2.28.12H25.44a16.459,16.459,0,0,0,2.67-.18v2a16.687,16.687,0,0,0-2.67-.18H20.07v3.5h4a14.609,14.609,0,0,0,2.61-.15v1.89a15.393,15.393,0,0,0-2.61-.15h-4v4.32a24.154,24.154,0,0,0,3.78.27c1.5,0,3.12-.06,4.89-.21a5.53,5.53,0,0,0-.57,2h-2.7c-5.13,0-7.89-.54-9.81-1.89a11.7,11.7,0,0,1-2.55-2.52,19.277,19.277,0,0,1-3.48,5.16,4.87,4.87,0,0,0-1.53-1.14,15.358,15.358,0,0,0,3.75-5.46,13.557,13.557,0,0,0,1.11-4.14l2,.48a12.057,12.057,0,0,0-.48,1.53c-.21.66-.39,1.26-.63,1.89a8.38,8.38,0,0,0,4.44,3.57Zm-3.27-3.9a23.649,23.649,0,0,0-2.7.09c.06-.87.09-1.74.09-2.82v-4.35a25.08,25.08,0,0,0-.09-2.79,25.525,25.525,0,0,0,2.82.12h8.16a24.138,24.138,0,0,0,2.82-.12,16.882,16.882,0,0,0-.12,2.4v4.85a21.173,21.173,0,0,0,.12,2.7c-.69-.06-1.68-.09-2.88-.09Zm-.84-5.64h10v-2.52h-10Zm0,4.08h10v-2.55h-10Z" transform="translate(1.31 22.49)"/><path class="cls-2" d="M55.35,380.57a26.463,26.463,0,0,0,3.33-.18v2a26.463,26.463,0,0,0-3.33-.18H47.64a26.922,26.922,0,0,0,11.73,6,7.477,7.477,0,0,0-1.23,1.8,36.81,36.81,0,0,1-5.16-2.16,26.626,26.626,0,0,1-6.87-4.95c.06,1.2.12,2.61.12,3.24v1.29a15.982,15.982,0,0,0,.18,2.94H44.25a17.632,17.632,0,0,0,.18-2.94v-1.29c0-.63,0-1.5.09-3.21a25.98,25.98,0,0,1-6.57,4.83,43.4,43.4,0,0,1-5,2.22,5.825,5.825,0,0,0-1.29-1.71,33.371,33.371,0,0,0,6.78-2.79,19.273,19.273,0,0,0,4.47-3.24H35.88a25.626,25.626,0,0,0-3.3.18v-2a25.164,25.164,0,0,0,3.27.18h8.58v-.36a13.93,13.93,0,0,0-.12-2h2a12.865,12.865,0,0,0-.12,2v.39Zm-3.18-9a11.692,11.692,0,0,1-3.45,3.42,80.824,80.824,0,0,1,8.55,2.67l-1.17,1.47a59.856,59.856,0,0,0-9.27-3.06c-3.45,1.65-7.14,2.46-13,2.85a4.573,4.573,0,0,0-.81-1.62,33.506,33.506,0,0,0,11.25-1.83c-2-.42-3.6-.69-6.75-1.11a25.371,25.371,0,0,0,2.85-2.79H36.03a21.965,21.965,0,0,0-3,.18v-1.86a18.07,18.07,0,0,0,2.94.18h5.67a10.872,10.872,0,0,0,1.77-2.85l2,.54-1.68,2.31h11.7a15.692,15.692,0,0,0,3-.18v1.86a20.9,20.9,0,0,0-3-.18Zm-7.71-6.51a10.887,10.887,0,0,0-.21-2.22h2.28a9.976,9.976,0,0,0-.21,2.22v.18h8.82a28.347,28.347,0,0,0,3-.12,9.477,9.477,0,0,0-.12,1.74v.57a13.964,13.964,0,0,0,.09,1.71H56.22V366.8h-21v2.31H33.33a14,14,0,0,0,.09-1.65v-.6a10.56,10.56,0,0,0-.12-1.74c1,.09,1.77.12,3,.12h8.13Zm-1.92,6.59c-.69.78-.93,1-1.74,1.86,2.13.33,3.75.63,5.7,1.08a10.145,10.145,0,0,0,3.51-2.94Z" transform="translate(1.31 22.49)"/><path class="cls-2" d="M65.49,375.98a20.028,20.028,0,0,0,5.37,1.2c.15-1.47.45-3.81.69-5.4a39.841,39.841,0,0,1-4.47-.81l-.93-.21.27-2a19.372,19.372,0,0,0,5.4,1.17,47.132,47.132,0,0,0,.72-5.64v-.24l2.4.27a15.4,15.4,0,0,0-.48,2,10.659,10.659,0,0,1-.3,1.92c-.09.66-.15,1-.3,1.8H75.6a24.394,24.394,0,0,0,5.49-.51L81,371.6l-2.1.18c-.93.09-1.83.12-2.7.12-.48,0-1,0-2.64-.06-.48,3.45-.51,3.75-.69,5.43h2a26.281,26.281,0,0,0,5.52-.48l-.06,2-.81.06a34.562,34.562,0,0,1-4.23.24c-.75,0-1.23,0-2.58-.06a5.459,5.459,0,0,1,0,.6c-.06.72-.12,1.71-.12,2.22a4.43,4.43,0,0,0,1.38,3.6,6.313,6.313,0,0,0,4.23,1.29c4,0,6.63-2.07,6.63-5.25,0-1.89-.93-3.57-2.85-5.22a5.934,5.934,0,0,0,2.19-.6c2.13,2.31,2.82,3.78,2.82,6,0,4.23-3.54,7.08-8.79,7.08-3.15,0-5.55-1.08-6.72-3a8.129,8.129,0,0,1-.93-4.14,15.906,15.906,0,0,1,.12-2,2.267,2.267,0,0,1,.06-.72,31.567,31.567,0,0,1-4.53-.75,3.112,3.112,0,0,0-.93-.18Z" transform="translate(1.31 22.49)"/><path class="cls-2" d="M98.34,379.91c0-1.29,0-2.16.09-3.6a17.337,17.337,0,0,1-3.42,3.36,5.729,5.729,0,0,0-1.17-1.71,24.587,24.587,0,0,0,6.06-5.91,10.32,10.32,0,0,0,1.44-2.58l1.86,1a12.771,12.771,0,0,0-.9,1.29,20.29,20.29,0,0,1-2,2.7v12.19a22.509,22.509,0,0,0,.21,3.66H98.14a22.736,22.736,0,0,0,.21-3.66Zm4.14-15.63a4.952,4.952,0,0,0-.54.66,29.245,29.245,0,0,1-6.66,6.51,5.8,5.8,0,0,0-1.35-1.47,20.6,20.6,0,0,0,4-3.18,11.718,11.718,0,0,0,2.73-3.66Zm4.35,10a23.163,23.163,0,0,0-3.33.18v-2.1a22.739,22.739,0,0,0,3.33.18h10.53a21.171,21.171,0,0,0,3.3-.18v2.1a22.909,22.909,0,0,0-3.27-.18h-1.75v13.14c0,1.92-.72,2.43-3.36,2.43-1,0-2.37-.06-3.66-.15a7.229,7.229,0,0,0-.48-2.07,29.967,29.967,0,0,0,4.23.36c1,0,1.26-.12,1.26-.72v-13Zm-2.1-9.45a21.133,21.133,0,0,0,3.12.18h8.4a21,21,0,0,0,3.09-.18v2.1a23.128,23.128,0,0,0-3.09-.18h-8.4a23.578,23.578,0,0,0-3.12.18Z" transform="translate(1.31 22.49)"/><path class="cls-2" d="M127.64,373.82a23.612,23.612,0,0,0,3-.51,50.1,50.1,0,0,1,9.15-1.08,9.546,9.546,0,0,1,5.16,1.14,5.339,5.339,0,0,1,2.55,4.77c0,3.21-1.83,6.06-5.16,8.1-2.28,1.38-4.23,2-8.7,2.85a7.622,7.622,0,0,0-1-2.19,18.991,18.991,0,0,0,8.43-2.43,7.351,7.351,0,0,0,2.58-2.13,6.722,6.722,0,0,0,1.53-4.08,3.64,3.64,0,0,0-1.92-3.36,8.369,8.369,0,0,0-3.69-.66,41.874,41.874,0,0,0-11.43,2Zm4.41-9.36a37.854,37.854,0,0,0,12.21,1.86l-.33,2.16a54.58,54.58,0,0,1-12.6-2Z" transform="translate(1.31 22.49)"/><polygon class="cls-2" points="35.95 22.49 70.59 42.49 70.59 82.49 35.95 102.49 1.31 82.49 1.31 42.49 35.95 22.49"/><g class="cls-3"><polygon class="cls-2" points="18.25 21.41 18.25 41.84 0.56 52.05 0.56 31.63 18.25 21.41"/><polygon class="cls-4" points="18.25 41.84 18.25 62.27 0.56 72.48 0.56 52.05 18.25 41.84"/><polygon class="cls-2" points="18.25 62.27 18.25 82.7 0.56 92.92 0.56 72.48 18.25 62.27"/><polygon class="cls-2" points="18.25 82.7 18.25 103.14 0.56 113.35 0.56 92.92 18.25 82.7"/><polygon class="cls-2" points="71.33 11.2 71.33 31.63 53.64 41.84 53.64 21.41 71.33 11.2"/><polygon class="cls-2" points="71.33 31.63 71.33 52.05 53.64 62.27 53.64 41.84 71.33 31.63"/><polygon class="cls-2" points="71.33 52.05 71.33 72.48 53.64 82.7 53.64 62.27 71.33 52.05"/><polygon class="cls-2" points="71.33 72.48 71.33 92.92 53.64 103.14 53.64 82.7 71.33 72.48"/><polygon class="cls-2" points="71.33 92.92 71.33 113.35 53.64 123.56 53.64 103.14 71.33 92.92"/><polygon class="cls-2" points="53.64 41.84 53.64 62.27 35.95 52.05 35.95 31.63 53.64 41.84"/><polygon class="cls-2" points="53.64 62.27 53.64 82.7 35.95 72.48 35.95 52.05 53.64 62.27"/><polygon class="cls-2" points="53.64 82.7 53.64 103.14 35.95 92.92 35.95 72.48 53.64 82.7"/><polygon class="cls-4" points="35.95 52.05 35.95 72.48 18.25 62.27 18.25 41.84 35.95 52.05"/><polygon class="cls-2" points="35.95 92.92 35.95 113.35 18.25 103.14 18.25 82.7 35.95 92.92"/><polygon class="cls-2" points="18.25 0.98 18.25 21.41 0.56 31.63 0.56 11.2 18.25 0.98"/><polygon class="cls-2" points="35.95 11.2 35.95 31.63 18.25 21.41 18.25 0.98 35.95 11.2"/><polygon class="cls-2" points="53.64 21.41 53.64 41.84 35.95 31.63 35.95 11.2 53.64 21.41"/><polygon class="cls-2" points="35.95 31.63 35.95 52.05 18.25 41.84 18.25 21.41 35.95 31.63"/><polygon class="cls-2" points="35.95 72.48 35.95 92.92 18.25 82.7 18.25 62.27 35.95 72.48"/><polygon class="cls-2" points="53.64 103.14 53.64 123.56 35.95 113.35 35.95 92.92 53.64 103.14"/><path class="cls-5" d="M52.33-1.73,34.07-12.27h0L17.51-21.83v-.66l-.57.33-.56-.33v.66L-1.31-11.62V91.84L16.94,81.3,35.2,91.84h0l16.56,9.56v.65l.57-.32.56.32v-.65L70.58,91.19V-12.27Zm-.57,22.06V38.8l-8.28-4.78L35.2,29.24V10.11l8.28,4.78,8.28,4.76Zm0,20.43V59.23l-8.28-4.78-8.28-4.8V30.54l8.28,4.78,8.28,4.79Zm0,20.43V79.65l-8.28-4.78L35.2,70.09V50.97l8.28,4.78,8.28,4.79ZM17.51,59.88V40.76l8.28,4.78,8.28,4.78V69.45l-8.28-4.8Zm0-21.08V20.33l8.28,4.78,8.28,4.78V49.02l-8.28-4.78-8.28-4.79Zm0-20.43V-.1l8.28,4.75,8.28,4.78V28.56l-8.28-4.78-8.28-4.79Zm34.25,0-8.28-4.78L35.2,8.81V-10.35L51.76-.78ZM34.07-10.97V8.16L25.79,3.38,17.51-1.41V-20.53ZM-.18,8.16V-10.97l16.56-9.56V-1.41L8.1,3.38Zm0,20.43V9.46L8.1,4.65,16.38-.13V18.99L8.1,23.78Zm0,20.43V29.89L8.1,25.11l8.28-4.78V39.45L8.1,44.24Zm0,1.3L8.1,45.54l8.28-4.78V59.88L8.1,64.65-.18,69.43Zm0,20.44L8.1,65.97l8.28-4.78V80.32L-.18,89.88Zm17.69-9.57,8.28,4.78,8.28,4.79V89.88L17.51,80.32ZM35.2,90.54V71.41l8.28,4.78,8.28,4.78V100.1ZM69.46,71.41V90.54L52.89,100.1V80.97l8.28-4.78Zm0-20.44V70.11l-8.29,4.78-8.28,4.76V60.54l8.28-4.79Zm0-20.43V49.65l-8.29,4.78-8.28,4.78V40.11l8.28-4.79Zm0-20.43V29.24l-8.29,4.78L52.89,38.8V19.65l8.28-4.79Zm-8.29,3.48-8.28,4.78V-.75l16.57-9.6V8.78Z" transform="translate(1.31 22.49)"/></g></g></g></svg>