<svg xmlns="http://www.w3.org/2000/svg" viewBox="0 0 754.22 333.56"><defs><style>.cls-1{fill:#fff;}.cls-2{fill:#2c8ac8;}</style></defs><g id="レイヤー_2" data-name="レイヤー 2"><g id="レイヤー_1-2" data-name="レイヤー 1"><path d="M70.63,20v2.65a7.845,7.845,0,0,0-3.87.92l-21,12.15a10.427,10.427,0,0,0-1.15-2L65.66,21.56a7.99,7.99,0,0,0,2.73-2.89l2.27,1.31Z"/><path d="M27.41,33.74a10.986,10.986,0,0,0-1.14,2h0l-21-12.15a7.883,7.883,0,0,0-3.88-.92V20.03h0l2.24-1.38a8,8,0,0,0,2.74,2.89Z"/><path d="M38.27,78.65,36,80l-2.29-1.35a7.866,7.866,0,0,0,1.14-3.82V50.53a10.571,10.571,0,0,0,1.15.12,10.59,10.59,0,0,0,1.14-.06v24.3A8,8,0,0,0,38.27,78.65Z"/><path class="cls-1" d="M3.35,54.38l-2-1.15V60l5.87,3.39v-2.3A8.591,8.591,0,0,0,3.35,54.38Z"/><path class="cls-1" d="M34.85,45.13V74.87a7.876,7.876,0,0,1-1.14,3.78L27.93,75.3V49.13a8.58,8.58,0,0,0-3.88-6.7L1.35,29.32V22.65a7.883,7.883,0,0,1,3.88.92l21,12.15h0L31,38.44A8.578,8.578,0,0,1,34.85,45.13Z"/><path class="cls-1" d="M12.56,49.06,1.35,42.59v8l4.28,2.47A8.571,8.571,0,0,1,9.5,59.77v4.94l6.93,4V55.77A8.591,8.591,0,0,0,12.56,49.06Z"/><path class="cls-1" d="M21.77,43.74,1.35,31.96v8l13.49,7.78a8.61,8.61,0,0,1,3.87,6.71V70.02l6.93,4V50.45A8.591,8.591,0,0,0,21.77,43.74Z"/><path d="M27.93,49.13V75.34l-2.29-1.32V50.45a8.591,8.591,0,0,0-3.87-6.71L1.35,31.96V29.32l22.7,13.11A8.58,8.58,0,0,1,27.93,49.13Z"/><path d="M14.84,47.74,1.35,39.96v2.63l11.21,6.47a8.591,8.591,0,0,1,3.87,6.71V68.71l2.28,1.31V54.45A8.61,8.61,0,0,0,14.84,47.74Z"/><path d="M5.63,53.06,1.35,50.59v2.64l2,1.15a8.591,8.591,0,0,1,3.87,6.71v2.3L9.5,64.71V59.77A8.571,8.571,0,0,0,5.63,53.06Z"/><path class="cls-1" d="M32.12,25.82a8.642,8.642,0,0,0,7.74,0L60.28,14.03l-6.93-4L39.86,17.82a8.579,8.579,0,0,1-7.74,0L18.63,10.03l-6.93,4Z"/><path class="cls-1" d="M68.35,18.65a7.99,7.99,0,0,1-2.73,2.89L44.57,33.74h0l-4.71,2.72h0a8.642,8.642,0,0,1-7.71,0h0l-4.7-2.72h0l-21-12.16a8,8,0,0,1-2.82-2.93L9.42,15.3l22.7,13.11a8,8,0,0,0,3.84.92H36a8,8,0,0,0,3.84-.92L62.54,15.3Z"/><path class="cls-1" d="M39.86,15.18,51.07,8.71l-6.93-4L39.86,7.18a8.579,8.579,0,0,1-7.74,0L27.84,4.71l-6.93,4,11.21,6.47A8.579,8.579,0,0,0,39.86,15.18Z"/><path class="cls-1" d="M39.86,4.54l2-1.15L36,0,30.13,3.39l2,1.15A8.583,8.583,0,0,0,39.86,4.54Z"/><path d="M62.56,15.34,39.86,28.45a8,8,0,0,1-3.84.92H36a8,8,0,0,1-3.84-.92L9.46,15.34l2.28-1.31L32.16,25.82a8.642,8.642,0,0,0,7.74,0L60.32,14.03Z"/><path d="M39.86,17.81l13.49-7.79L51.07,8.71,39.86,15.18a8.579,8.579,0,0,1-7.74,0L20.91,8.71l-2.28,1.31,13.49,7.79A8.579,8.579,0,0,0,39.86,17.81Z"/><path d="M39.86,7.18l4.28-2.47L41.86,3.39l-2,1.15a8.579,8.579,0,0,1-7.74,0l-2-1.15L27.84,4.71l4.28,2.47A8.579,8.579,0,0,0,39.86,7.18Z"/><path class="cls-1" d="M70.63,22.65v6.68L47.93,42.44a8.57,8.57,0,0,0-3.87,6.7V75.35l-5.79,3.3a8.009,8.009,0,0,1-1.14-3.82V45.1A8.559,8.559,0,0,1,41,38.45l4.75-2.74,21-12.15A7.857,7.857,0,0,1,70.63,22.65Z"/><path class="cls-1" d="M50.21,43.74a8.621,8.621,0,0,0-3.87,6.71V74.02l6.93-4V54.45a8.61,8.61,0,0,1,3.87-6.71l13.49-7.78v-8Z"/><path class="cls-1" d="M68.63,54.38a8.591,8.591,0,0,0-3.87,6.71v2.3L70.63,60V53.23Z"/><path class="cls-1" d="M55.55,55.77V68.71l6.93-4V59.77a8.591,8.591,0,0,1,3.87-6.71l4.28-2.47v-8l-11.2,6.47A8.582,8.582,0,0,0,55.55,55.77Z"/><path d="M70.63,29.32v2.64L50.21,43.74a8.621,8.621,0,0,0-3.87,6.71V74.02l-2.28,1.32V49.13a8.57,8.57,0,0,1,3.87-6.7Z"/><path d="M53.27,54.45V70.02l2.28-1.31V55.77a8.582,8.582,0,0,1,3.88-6.71l11.2-6.47V39.96L57.14,47.74A8.61,8.61,0,0,0,53.27,54.45Z"/><path d="M66.35,53.06a8.591,8.591,0,0,0-3.87,6.71v4.94l2.28-1.32v-2.3a8.591,8.591,0,0,1,3.87-6.71l2-1.15V50.59Z"/><polygon class="cls-2" points="32.12 36.45 27.41 33.74 27.42 33.73 32.12 36.45"/><path class="cls-2" d="M44.57,33.73h0l-4.71,2.71Z"/><path class="cls-2" d="M45.72,35.71,41,38.45a8.56,8.56,0,0,0-3.84,6.65v5.47a10.463,10.463,0,0,1-1.16.08,10.854,10.854,0,0,1-1.14-.06V45.15A8.579,8.579,0,0,0,31,38.44l-4.73-2.73a10.986,10.986,0,0,1,1.14-2l4.71,2.71h0a8.642,8.642,0,0,0,7.71,0h0l4.71-2.71A10.5,10.5,0,0,1,45.72,35.71Z"/><path class="cls-1" d="M122.66,58.36a28.5,28.5,0,0,0,5.7-9.08,27.992,27.992,0,0,0,1.94-8.09,2.14,2.14,0,0,0-.61-1.79,31.063,31.063,0,0,0-7.94,2.28,3.267,3.267,0,0,1-1.64.5c-.94,0-2.09-.84-3.34-2.51a3.82,3.82,0,0,1-1.06-2.39,2.986,2.986,0,0,1,.15-.76,4.21,4.21,0,0,0,3.65,2.09c1.17,0,1.52,0,7.18-.92,3.42-.53,5.09-.75,11.55-1.48a9.627,9.627,0,0,0,3.3-.8,2.409,2.409,0,0,1,1.11-.3,5.75,5.75,0,0,1,2.43.8c1.44.72,2.16,1.52,2.16,2.28s-.6,1.29-1.59,1.29a3.142,3.142,0,0,1-.69-.08,45.94,45.94,0,0,0-12.65-.3c2.17,1.25,2.58,1.71,2.58,2.7,0,1.67-1.59,5.77-3.34,8.62A23.5,23.5,0,0,1,123,58.65Zm-.53-30.89a6,6,0,0,0,4.63,2.09,19.582,19.582,0,0,0,5.29-.87,11.9,11.9,0,0,0,3.34-1.44,2.264,2.264,0,0,1,1.21-.35,3.645,3.645,0,0,1,2,.8c.95.61,1.4,1.22,1.4,1.86s-.53,1.11-2.2,1.49a52.469,52.469,0,0,1-9.42,1.14c-3,0-4.94-1.33-6.61-4.45Zm18.27-2.43c3.88,1.37,6.31,3.5,6.31,5.51,0,1-.49,1.56-1.21,1.56s-.73-.11-1.68-1.9A17.087,17.087,0,0,0,140,25.65Zm3.92-2.62a13.508,13.508,0,0,1,4.37,1.9c1.4,1,2,1.9,2,3,0,.88-.46,1.48-1.14,1.48-.46,0-.68-.19-1.25-1.1a16.372,16.372,0,0,0-4.33-4.71Z"/><path class="cls-1" d="M166.93,58.21a17.578,17.578,0,0,0,7.22-8c1.33-3.11,1.94-6.87,2-12.38a45.12,45.12,0,0,0-7.67,1v2.05c0,1.21,0,4.33.08,5.39v.27c0,1.9-.5,2.81-1.56,2.81-.65,0-1.29-.49-1.94-1.41a4.729,4.729,0,0,1-.84-2.24,3.042,3.042,0,0,1,.27-1.06,14.738,14.738,0,0,0,.65-5.05,13.706,13.706,0,0,0-4,1.44,3.718,3.718,0,0,1-1.52.46c-.95,0-2.39-1.26-3.42-3a4.619,4.619,0,0,1-.68-2,2.471,2.471,0,0,1,.07-.46,4.367,4.367,0,0,0,3.69,1.94,37.961,37.961,0,0,0,5.85-.84c0-5.69-.46-6.72-3.12-8a1.931,1.931,0,0,1,1.26-.38,10.09,10.09,0,0,1,4.63,1.63c1,.65,1.33,1.14,1.33,1.79a3.084,3.084,0,0,1-.26,1.17,13.845,13.845,0,0,0-.46,3.27c1.75-.27,4.29-.61,7.67-1v-3c0-2.7-.19-3.84-.76-4.52a4.587,4.587,0,0,0-2.77-1.48,2.6,2.6,0,0,1,1.82-.53,11.349,11.349,0,0,1,4.79,1.14c1.14.53,1.63,1.1,1.63,1.86a2,2,0,0,1-.22.91c-.57,1.29-.65,1.86-.84,5.17a10.236,10.236,0,0,0,4.22-.84,2.071,2.071,0,0,1,1-.26,5.665,5.665,0,0,1,2.66,1c1,.61,1.41,1.18,1.41,1.79A1.129,1.129,0,0,1,188,37.993a.9.9,0,0,1-.1,0,4.006,4.006,0,0,1-.6,0q-3.14-.327-6.3-.34h-1.22c-.19,8.06-.83,11.17-3,14.21a18.723,18.723,0,0,1-9.57,6.65Zm15-33.85a10.208,10.208,0,0,1,3.5,2.13,4.692,4.692,0,0,1,1.7,3.3c0,1-.45,1.56-1.17,1.56-.5,0-.8-.34-1.18-1.41a14.9,14.9,0,0,0-3.38-5.13Zm4-1.83a10.922,10.922,0,0,1,3.53,1.87,4.271,4.271,0,0,1,1.9,3.26c0,.92-.42,1.49-1.1,1.49-.53,0-.72-.23-1.22-1.3a13.376,13.376,0,0,0-3.64-4.82Z"/><path class="cls-1" d="M197.22,47.65a70.789,70.789,0,0,0,14.17-11.29c4.06-4.1,6.38-7.14,6.38-8.39,0-.8-.87-1.79-2.28-2.51a4.292,4.292,0,0,1,1.22-.15,7.609,7.609,0,0,1,3.84,1.29c1.74,1,2.77,2.16,2.77,3,0,.68-.19.91-1.52,1.86-.15.11-.15.11-2.47,2.32-2.66,2.47-2.66,2.47-5.36,4.78a9.558,9.558,0,0,1,2.63,2.25c.34.53.37.91.41,3.72,0,1.75,0,2.24.27,9.46v1.44c0,1.56-.5,2.32-1.56,2.32-1.41,0-3.5-2.32-3.5-3.91a3.353,3.353,0,0,1,.23-1.22c.5-1.56.84-5.7.84-9.8,0-1.94-.12-2.47-.65-3.19a62.448,62.448,0,0,1-8.13,5.39,47.734,47.734,0,0,1-7.14,3Z"/><path class="cls-1" d="M241.45,29.53c4.25.68,6.53,1.33,8.32,2.47a3.572,3.572,0,0,1,1.86,3.26c0,1.79-.87,3.16-2.05,3.16-.65,0-1-.31-1.6-1.3a17.89,17.89,0,0,0-6.72-7.18Zm28.87,2.2a40.766,40.766,0,0,1-8.54,11.78,61.527,61.527,0,0,1-11,8.66,8.771,8.771,0,0,0-2.05,1.67,2.089,2.089,0,0,1-1.6.95c-1,0-2.39-1.06-3.72-2.77a7.242,7.242,0,0,1-1.83-4.22,3.047,3.047,0,0,1,.19-1c1,1.75,2.28,2.82,3.31,2.82,1.59,0,6.57-2.62,11.09-5.85a75.015,75.015,0,0,0,13.72-12.24Z"/><path class="cls-1" d="M283.25,37.09a30.191,30.191,0,0,1,.61,5.89c0,3.26-.61,5.81-1.75,7.4a3,3,0,0,1-2.32,1.56c-1.21,0-2.24-1.52-2.24-3.34a2.437,2.437,0,0,1,.49-1.63,8.522,8.522,0,0,1,1.33-1.18,9.637,9.637,0,0,0,2.66-4.37,18.541,18.541,0,0,0,.73-4.33Zm4.06.57c0-2.55-.07-4.34-.19-5.82,5.86.73,6.23.84,6.23,1.41,0,.34-.3.53-1.63,1V52.91c0,.87,0,.87,4.87.87,3.26,0,3.87-.11,4.29-.83s1.33-3.57,2.73-9l.57.07-.3,8.09v.12c0,.53.15.64,1,.91a1.84,1.84,0,0,1,1.4,1.86c0,1.29-.95,2.13-2.69,2.4a77.118,77.118,0,0,1-8.1.3c-4.94,0-6.27-.11-7.22-.65-.68-.41-.95-1-1-2.43l.07-5.85Zm.92-13c9.38,1.52,12,2.78,12,5.74,0,1.9-.68,3.19-1.71,3.19-.45,0-.83-.23-1.37-.87a28.221,28.221,0,0,0-9.11-7.6Zm16,11.89c5.4,4,8.25,7.34,8.25,9.69s-1.64,4.56-3.2,4.56c-.76,0-1.06-.42-1.25-1.74a29.326,29.326,0,0,0-4.22-12.24Z"/><path class="cls-1" d="M343.32,42.22v6.3h3.23c.92-1,1.83-2,2.66-2.92,1.68,1.37,2.17,1.78,3.8,3.19.15.15.19.23.19.34s-.11.19-.45.19h-9.43v7h4c1.22-1.44,1.6-1.86,2.82-3.23,1.78,1.41,2.31,1.86,4.06,3.42.15.19.23.27.23.38s-.15.23-.49.23H329.57a13.332,13.332,0,0,0-2.36.19l-.3-1.29a10.976,10.976,0,0,0,2.66.3h9.69v-7H333.6a14.491,14.491,0,0,0-2.47.19l-.27-1.29a11,11,0,0,0,2.7.3h5.7v-6.3h-3.8v1.43c0,.72-.72,1-2.81,1-1.1,0-1.41-.15-1.41-.76h0c.12-2.2.12-2.2.15-5.77-.11.11-.15.11-.38.11h-4.52v9c2.28-.72,3.23-1.06,5.44-1.89l.19.41a79.239,79.239,0,0,1-10.95,7.41c0,1.26-.19,1.67-.57,1.67s-.57-.19-2.47-5.39a31.279,31.279,0,0,0,4.37-1V38.15h-1.59a13.531,13.531,0,0,0-2.05.15l-.23-1.21a10.847,10.847,0,0,0,2.32.26h1.55V27.93h-1.59a15.52,15.52,0,0,0-2.28.15l-.23-1.21a9.854,9.854,0,0,0,2.55.26h4.67l2.39-2.62c1.52,1.22,1.9,1.56,3.38,2.93a31.283,31.283,0,0,0-.19-3.31,50.125,50.125,0,0,1,4.53,2.24h11.32c.91-1,1.18-1.29,2.13-2.28,1.44,1,1.86,1.29,3.19,2.32.34.3.49.53.49.72s-.26.53-1.41,1.18V31.5c0,3.23,0,5.55.26,11.78a.68.68,0,0,1-.545.792.521.521,0,0,1-.055.008,13.5,13.5,0,0,1-2.48.26c-.91,0-1.17-.19-1.17-.76V42.22ZM331.17,27.93h-4.68v9.42h.19c.8-1.14,1.07-1.44,1.9-2.5,1.22,1.21,1.56,1.59,2.66,2.84l.15.19V27.89Zm8.09-.76h-3.8v6.69h3.8Zm0,7.48h-3.8v6.77h3.8Zm8.17-7.48h-4.11v6.69h4.11Zm0,7.48h-4.11v6.77h4.11Z"/><path class="cls-1" d="M386.83,45.41l3-3.38c1.93,1.48,2.5,1.93,4.33,3.45a.912.912,0,0,1,.22.42c0,.19-.19.31-.53.31h-15v9.11a2.746,2.746,0,0,1-1.44,2.85,9.838,9.838,0,0,1-4.11,1c-.49,0-.6-.11-.68-.72a2.869,2.869,0,0,0-1.06-2c-.73-.61-1.3-.8-5.21-1.71v-.5c5.28.34,5.28.34,7.49.42H374c.38,0,.53-.15.53-.57V46.23h-12a18.954,18.954,0,0,0-3,.22l-.22-1.33a14.846,14.846,0,0,0,3.23.31h12v-.61a26.363,26.363,0,0,0-.19-3.8c1.94.23,1.94.23,4,.57a26.4,26.4,0,0,0,3.49-4.14H369.05a14.786,14.786,0,0,0-2.73.23l-.23-1.3a16.143,16.143,0,0,0,2.91.27h13c.87-.91,1.14-1.18,2-2.05,1.52,1,2,1.37,2.89,2.05a21.934,21.934,0,0,0,1.1-3.8H364.53v.34a15.539,15.539,0,0,1-.57,4.18,3.089,3.089,0,0,1-2.66,2.24c-1.1,0-2-1.33-2-2.88a1.448,1.448,0,0,1,.53-1.3c.11-.11.11-.11,1-.6,1.82-1,2.58-2.47,2.88-5.36h.5a22.822,22.822,0,0,1,.3,2.58h16.38a32.146,32.146,0,0,0,3.46-7.94c2.69.84,4.86,1.56,5.47,1.86.34.16.49.35.49.54,0,.41-.53.6-1.56.6h-.34a49.019,49.019,0,0,1-6,4.94h5.28c1-1,1.33-1.33,2.39-2.28,1.72,1.26,2.25,1.68,3.88,2.93.42.34.57.57.57.8,0,.49-.65.68-2.36.68a35.731,35.731,0,0,1-3.83,2.51c-.15.07-.38.23-.72.45l.49.38c.38.35.57.57.57.76,0,.38-.46.57-1.44.57h-.57a47.707,47.707,0,0,1-6.77,3c.34.11.46.26.46.45,0,.38-.34.57-1.41.91v2.21Zm-21.65-20.9c4.52,1.71,6.27,2.93,6.27,4.48s-1.26,3-2.44,3c-.6,0-.95-.38-1.29-1.52A13.21,13.21,0,0,0,365,24.85Zm7.86-.61c4.14,1.41,6.27,2.93,6.27,4.45s-1.4,3.23-2.73,3.23c-.65,0-.88-.31-1.3-1.94a12.322,12.322,0,0,0-2.54-5.4Z"/><path class="cls-1" d="M409.14,27.7a32.211,32.211,0,0,1-3.42,10l.31.31h3.11c.84-.95,1.1-1.26,2.05-2.25,1.14,1,1.49,1.22,2.55,2.17.27.27.38.42.38.57s-.19.38-.95.84v5.43c0,4.82,0,4.82.15,9a.79.79,0,0,1-.68.84,7.385,7.385,0,0,1-2,.27c-.91,0-1.14-.16-1.14-.76V52.79h-3.08v3.57a.7.7,0,0,1-.56.76,11.129,11.129,0,0,1-2.25.26c-.79,0-1.1-.19-1.1-.72.12-5.51.19-8.4.19-8.7V42.34a28.679,28.679,0,0,1-3.49,3.84l-.27-.31a46.578,46.578,0,0,0,5.74-18.2h-2.24a9.494,9.494,0,0,0-2.21.23L400,26.65a9.171,9.171,0,0,0,2.44.3h6.07c1.07-1.29,1.37-1.67,2.47-2.85,1.56,1.3,2,1.71,3.54,3.12.15.15.19.23.19.34s-.15.19-.42.19Zm-2.7,24.32h3.08V38.83h-3.08Zm24.13-13H431c.88-1.22,1.18-1.56,2.13-2.74,1.33,1.25,1.71,1.67,3,3,.15.15.19.23.19.34s-.15.19-.38.19h-5.32v4.72c0,4.74,0,5.2.19,13.18a.74.74,0,0,1-.592.863l-.048.007a13.262,13.262,0,0,1-2.66.23c-1,0-1.26-.15-1.26-.8.19-8.13.19-8.7.19-13.48V39.81h-4.6c-.3,6.73-1,9.73-3.07,12.81s-4.45,4.79-8.78,6.61l-.23-.38a18.983,18.983,0,0,0,4.24-4.2,18.8,18.8,0,0,0,3.3-9c.19-1.41.31-3.39.38-5.86h-1.14a12.775,12.775,0,0,0-2,.19l-.23-1.25a9.156,9.156,0,0,0,2.36.27h1.06V27h-.19a15.714,15.714,0,0,0-2.47.19l-.23-1.33a10.336,10.336,0,0,0,2.74.34h11.51c.91-1,1.82-1.94,2.66-2.81,1.6,1.22,2.05,1.63,3.61,3,.19.16.26.27.26.38s-.22.27-.49.27h-4.56Zm-8.62-12c0,6.61,0,9.57-.12,12h4.56v-12Z"/><path class="cls-1" d="M453.3,44.31a24.667,24.667,0,0,0,.34-4.07,11.726,11.726,0,0,0-.11-1.9c1.29.11,2.28.19,2.92.27h.15c2.28.19,3.19.45,3.19.83s-.53.69-1.74,1c-.23,2-.35,2.7-.54,3.8l4.75-.08,2.17-2.24,1.71,1.18c.34.27.84.61,1.52,1.06.38.31.53.5.53.69s-.26.49-.68.76a6.613,6.613,0,0,0-.8.49v7.64c0,.68.11.8,1.1.8a11.365,11.365,0,0,0,3.19-.27c.61-.19,1.1-1.1,1.71-3.12.38-1.32.42-1.44,1.33-4.52l.46.08-.23,6a.379.379,0,0,1,0,.15c0,.76.07.92.61,1.14a1.79,1.79,0,0,1,1.33,1.79c0,1.29-1,2-2.89,2.09-1.71.15-4.26.23-6.08.23a8.834,8.834,0,0,1-3.72-.5,2.271,2.271,0,0,1-1-2.16L462.63,45l-5.28.08c-.87,4.14-2.39,6.83-5.2,9.19a19,19,0,0,1-6.42,3.46c-1.14.34-1.71.49-4.52,1.18l-.16-.35c7.45-3.34,10.64-6.91,12.05-13.41l-6.8.08a19.263,19.263,0,0,0-2.17.22l-.38-1.29a14.775,14.775,0,0,0,2.51.23h.19Zm3-14.44a12.774,12.774,0,0,1-.91,4c-1.75,4.44-6.54,7.33-13.64,8.2l-.19-.41c4.25-1.49,6.46-2.93,8.32-5.4a10.6,10.6,0,0,0,2.17-6.38h-5.17v.64a8,8,0,0,1-.65,3.54,3.65,3.65,0,0,1-3,2.24c-1.14,0-2-1.1-2-2.66a1.69,1.69,0,0,1,1.21-1.86c2.13-1.07,2.93-2.21,3.5-5.06h.42a13.011,13.011,0,0,1,.41,2.36H456V26.65a16.863,16.863,0,0,0-.16-2.47c4.79.46,5.13.49,5.59.65s.57.26.57.45c0,.38-.53.69-1.6,1v2.81h8.36c1-1,1.25-1.33,2.28-2.32,1.79,1.37,2.32,1.83,4.07,3.31.34.34.45.45.45.64,0,.38-.45.61-1.25.61a12.814,12.814,0,0,1-1.45-.07c-1.86,1.14-3.95,2.35-5.12,2.92l-.35-.19a30.007,30.007,0,0,0,1.68-4.1h-5.32v5.76c0,.6.19.72,1.21.79h3.38c1.75,0,2.36-.15,2.78-.68a22.551,22.551,0,0,0,1.78-3.57h.38l-.15,2.59v.26c0,.72,0,.72,1,1.14a1.261,1.261,0,0,1,.91,1.22c0,1.14-.72,1.71-2.59,1.94-.53.07-3.64.19-4.71.19h-.53c-.45,0-1.71,0-3.61-.08-2.92,0-3.76-.61-3.76-2.43V29.84Z"/><path class="cls-1" d="M499.43,34.58a50.719,50.719,0,0,1-5.47,6c4.37-.08,5.13-.08,13-.57a29.472,29.472,0,0,0-4.1-4l.19-.27a36.548,36.548,0,0,1,6.76,2.47c2.32,1.22,3.19,2.25,3.19,3.73s-.87,3.11-1.82,3.11c-.46,0-.8-.34-1.6-1.67a20.066,20.066,0,0,0-1.82-2.47c-5.43,1.26-5.43,1.26-7.83,1.67-2.85.5-9,1.41-11.89,1.75-.15,1.06-.38,1.52-.8,1.52s-.83-1-1.74-5.51a55.753,55.753,0,0,0,6.64.23,32.782,32.782,0,0,0,2.06-6h-3.46a13.576,13.576,0,0,0-2.51.27l-.3-1.33a15.669,15.669,0,0,0,2.81.26h15.65c1-1.18,1.37-1.52,2.43-2.62l1.18.84a15.761,15.761,0,0,0,.53-2.59H487.84a9.668,9.668,0,0,1-.72,4.33,3.309,3.309,0,0,1-2.7,2.17,2.489,2.489,0,0,1-2.24-2.66,1.578,1.578,0,0,1,.57-1.37c.15-.11.15-.11,1.06-.68a6.561,6.561,0,0,0,2.36-2.28,7.859,7.859,0,0,0,.72-2.74h.46a8,8,0,0,1,.45,2.43H497V26.48a20.276,20.276,0,0,0-.11-2.82c5.16.35,6.19.54,6.19,1.07,0,.38-.53.68-1.79,1v2.92h9c.91-1,1.21-1.29,2.17-2.28,1.89,1.3,2.46,1.71,4.25,3.08.3.27.42.42.42.65a.57.57,0,0,1-.3.42,3.878,3.878,0,0,1-1,.19h-1.37c-.45.27-.91.5-1.14.61-1.79.95-1.82.95-2.39,1.25l2,1.52c.15.08.23.19.23.27a.25.25,0,0,1-.23.19Zm7.71,14.59c1.45-1.56,1.45-1.56,2.78-3,1.82,1.32,2.39,1.74,4.25,3.26.11.12.15.19.15.27a.332.332,0,0,1-.3.23H501.25v6.72h8.48c1.25-1.4,1.63-1.82,2.92-3.15,1.82,1.33,2.43,1.79,4.41,3.38.15.15.26.27.26.38s-.11.19-.26.19H485.94a21.322,21.322,0,0,0-3.11.27l-.31-1.37a19.025,19.025,0,0,0,3.46.3H497V49.97h-8.29a15.564,15.564,0,0,0-2.81.22l-.3-1.29a20.255,20.255,0,0,0,3.11.27H497v-1.6a32.671,32.671,0,0,0-.19-3.83c1.14.11,2.12.22,2.66.3,2.81.27,3.3.38,3.3.8s-.23.49-1.56.95v3.38Z"/><path class="cls-1" d="M4.58,139.65a20.932,20.932,0,0,0-.15-2.94,24.591,24.591,0,0,0,3.21.15h13.5a21.853,21.853,0,0,0,3.09-.15,18.865,18.865,0,0,0-.15,2.76V158.7a22.957,22.957,0,0,0,.18,3.21H22.07v-1.95H6.59v1.95H4.4a23.154,23.154,0,0,0,.18-3.18Zm2,7.44H22.07v-8.4H6.59Zm0,11H22.07v-9.21H6.59Z"/><path class="cls-1" d="M35.45,142.28a29.83,29.83,0,0,0-3.3.18v-2.19a22.34,22.34,0,0,0,3.3.21h8.4v-2.55a16.98,16.98,0,0,0-.21-2.73H46a16.07,16.07,0,0,0-.21,2.7v2.58h8.85a19.674,19.674,0,0,0,3.36-.21v2.19a32.513,32.513,0,0,0-3.36-.18h-8.1c3.36,6.06,7.38,10.26,12.36,13a8.008,8.008,0,0,0-1.38,1.95,34,34,0,0,1-6.24-5.25,28.556,28.556,0,0,1-5.61-8.43c.09,1.8.12,2.91.12,3.9v6.81h3.27a17.7,17.7,0,0,0,2.91-.15v2.1a16.547,16.547,0,0,0-3-.18H45.8v2.85a22.363,22.363,0,0,0,.21,3.45H43.64a23.815,23.815,0,0,0,.21-3.48v-2.82H41a16.922,16.922,0,0,0-3,.18v-2.1a18.128,18.128,0,0,0,3,.15h2.94v-6.81c0-1.11,0-2.25.12-3.87a27.984,27.984,0,0,1-5.67,8.67,32.077,32.077,0,0,1-5.7,5,5.662,5.662,0,0,0-1.41-1.77,27.368,27.368,0,0,0,7-6.09,32.8,32.8,0,0,0,4.89-7.11Z"/><path class="cls-1" d="M63.53,140.24h1.08a14.725,14.725,0,0,0,1.71-.09c1.68-.12,1.86-.15,5.55-.36l4.71-.3c3.69-.21,4.08-.24,5.07-.27l1.71-.06a20.264,20.264,0,0,0,3.57-.33l.18,2.22a12.573,12.573,0,0,0-3.36.42,14.76,14.76,0,0,0-5.76,3,9.17,9.17,0,0,0-3.69,6.93c0,2.52,1.53,4.53,4.2,5.55a15.381,15.381,0,0,0,4.5,1h.3l-.39,2.43c-.33-.06-.39-.09-.93-.18a15.131,15.131,0,0,1-6.48-2.31,7.261,7.261,0,0,1-3.33-6.12c0-3.48,2-6.78,5.61-9.21a19.664,19.664,0,0,1,2.85-1.59,61.378,61.378,0,0,1-6.6.66,99.711,99.711,0,0,0-10.35,1Zm20.07,4.47a22.736,22.736,0,0,1,3.09,4.65l-1.53.9a21.1,21.1,0,0,0-3.06-4.77Zm3.39-1.65a24.326,24.326,0,0,1,3.09,4.68l-1.5.84a23.706,23.706,0,0,0-3.06-4.71Z"/><path class="cls-1" d="M113.42,152.51h2.82a20.489,20.489,0,0,0,2.94-.15v2a17.215,17.215,0,0,0-2.94-.18h-2.82v5.07h3.66a19.8,19.8,0,0,0,3-.18v2a21.5,21.5,0,0,0-3-.18H106.46v1.38h-2a22.048,22.048,0,0,0,.18-3.06v-15.1a30.549,30.549,0,0,1-1.95,2.58,4.344,4.344,0,0,0-1.08-1.47v9.54a31.975,31.975,0,0,0,.09,3.3H99.81v-2.73H96v3.57H94a29.892,29.892,0,0,0,.18-3.54V140.45c0-1.2-.06-2.19-.12-2.88a18.287,18.287,0,0,0,2.52.12h2.76a18.97,18.97,0,0,0,2.43-.12,19.843,19.843,0,0,0-.09,2.79v4.74a24.941,24.941,0,0,0,5.82-10l2,.6a49.836,49.836,0,0,1-2.4,4.68h4.71a17.585,17.585,0,0,0,2.25-5l1.95.6a27.707,27.707,0,0,1-2.31,4.41h3a21.345,21.345,0,0,0,3-.18v2a18.818,18.818,0,0,0-3-.18h-3.18v4.35h2.82a20.782,20.782,0,0,0,2.94-.15v2a21.238,21.238,0,0,0-2.94-.15h-2.82ZM96,153.65h3.87V139.37H96Zm15.69-7.23v-4.35h-5.22v4.35Zm-5.22,6.09h5.22v-4.44h-5.22Zm0,6.72h5.22v-5.07h-5.22Z"/><path class="cls-1" d="M150.53,149.65a26.871,26.871,0,0,0-4-.21H128.09a28.144,28.144,0,0,0-4,.21v-2.49a27.28,27.28,0,0,0,4,.21h18.48a26.089,26.089,0,0,0,4-.21Z"/><path class="cls-1" d="M166.76,152.12c-1.74,4-3.51,5.76-5.67,5.76-2.85,0-5-3.12-5-7.32a12.179,12.179,0,0,1,12.068-12.291q.422,0,.842.021a11.611,11.611,0,0,1,8.25,3,10,10,0,0,1,2.91,7.32,10.92,10.92,0,0,1-6.87,10.35,23.212,23.212,0,0,1-4.56,1.38,4.774,4.774,0,0,0-1.05-2,18.022,18.022,0,0,0,5-1.41,9.058,9.058,0,0,0,5.31-8.4,7.91,7.91,0,0,0-4.77-7.53,8.622,8.622,0,0,0-3.48-.75A45,45,0,0,1,166.76,152.12Zm-3.69-10.47a10.369,10.369,0,0,0-4.89,8.94c0,2.88,1.26,5.1,2.88,5.1,1.26,0,2.46-1.41,3.75-4.35a41.217,41.217,0,0,0,2.73-11.1A9.469,9.469,0,0,0,163.07,141.65Z"/><path class="cls-1" d="M200.33,147.02c-.36,7.77-2.88,11.43-9.66,14.07a5.252,5.252,0,0,0-1.41-2c6.21-2.07,8.55-5.28,8.79-12.12h-8.13a23.672,23.672,0,0,0-3.45.15v-2.17a19.851,19.851,0,0,0,3.48.18H207.5a19.659,19.659,0,0,0,3.48-.18v2.22a23.672,23.672,0,0,0-3.45-.15Zm-10.83-9.51a15.577,15.577,0,0,0,3.45.21H202a27.231,27.231,0,0,0,3.45-.15v2.16q-.589,0-3.42-.09h-9.12a20.905,20.905,0,0,0-3.42.15Zm17.58-2.52a23.339,23.339,0,0,1,2.94,4.74l-1.53.84a22.866,22.866,0,0,0-2.91-4.86Zm3.69-1.14a24.96,24.96,0,0,1,2.94,4.74l-1.53.84a23.521,23.521,0,0,0-2.91-4.83Z"/><path class="cls-1" d="M233.87,142.7v-2.94a21.123,21.123,0,0,0-.09-3.06h2.34a22.987,22.987,0,0,0-.12,2.85v3.15h2.58a20.5,20.5,0,0,0,3.51-.18v2.28a24.084,24.084,0,0,0-3.48-.15H236c0,5.79-.36,8-1.47,10.17-1.62,3-4.32,5.1-8.37,6.48a5.379,5.379,0,0,0-1.35-1.89c3.93-1,7-3.33,8.16-6.36.66-1.8.84-3.6.9-8.4h-9.12v5a15.665,15.665,0,0,0,.12,2.43h-2.43a14.347,14.347,0,0,0,.12-2.52v-4.91H220a24.084,24.084,0,0,0-3.48.15v-2.28a20.5,20.5,0,0,0,3.51.18h2.49v-3.48a14.642,14.642,0,0,0-.12-2.52h2.43a15.917,15.917,0,0,0-.12,2.43v3.57Zm5-7.89a23.843,23.843,0,0,1,2.13,4.92l-1.59.54a23.116,23.116,0,0,0-2.13-5Zm3.45-1a23.269,23.269,0,0,1,2.13,4.89l-1.56.54a24,24,0,0,0-2.1-4.92Z"/><path class="cls-1" d="M270.89,137.75a6.8,6.8,0,0,0-1.32,1.26,52.809,52.809,0,0,1-7,6v12.78a19.882,19.882,0,0,0,.15,3.18h-2.61a15.665,15.665,0,0,0,.18-3.12v-11.4a46.884,46.884,0,0,1-11.58,5.25,7,7,0,0,0-1.17-2,42.225,42.225,0,0,0,15.57-7.77,25.189,25.189,0,0,0,5.73-5.67Z"/><path class="cls-1" d="M280.31,157.49a26.114,26.114,0,0,0,8.73-2.31c5.79-2.58,9.81-7,12.24-13.35a5.989,5.989,0,0,0,1.83,1.77c-2.4,5.22-5.19,8.73-9.15,11.46-3.09,2.1-6.18,3.33-11.19,4.47a15.753,15.753,0,0,0-1.8.48Zm1.92-18.6a39.087,39.087,0,0,1,7.23,5.64l-1.56,1.86a33.149,33.149,0,0,0-7.14-5.88Z"/><path class="cls-1" d="M307.94,156.41a19.14,19.14,0,0,0,2.31-5,32.845,32.845,0,0,0,1.56-6.93l2,.54a45.638,45.638,0,0,1-1.71,7.26,24.088,24.088,0,0,1-2.25,5.28Zm10.53,1.92c0,.93.69,1.11,4.17,1.11a13.894,13.894,0,0,0,3.84-.36c.6-.18.9-.66,1.11-1.74a28.69,28.69,0,0,0,.42-5,8.161,8.161,0,0,0,2,.78c-.3,3.72-.57,5.37-1.14,6.48-.72,1.41-1.8,1.68-6.45,1.68-5.16,0-6-.36-6-2.58V144.38a20.284,20.284,0,0,0-.21-2.85h2.43a16.339,16.339,0,0,0-.21,2.82Zm7.77-16.74a38.636,38.636,0,0,0-9.72-4.83l1.17-1.65a46.6,46.6,0,0,1,9.9,4.71ZM334,156.74a45.507,45.507,0,0,0-2.22-6.27,34.683,34.683,0,0,0-2.76-5.31l1.77-.93A49.658,49.658,0,0,1,336,155.65Z"/><path class="cls-1" d="M341.42,138.53a12.878,12.878,0,0,0-2.37.15v-2a11.569,11.569,0,0,0,2.52.18h4.56a11.089,11.089,0,0,0,2.46-.18v2a17.832,17.832,0,0,0-2.31-.12h-1.47v7H346a10.154,10.154,0,0,0,2-.15v1.89a14.532,14.532,0,0,0-2-.12h-1.2v7.62c1.47-.63,2-.87,3.51-1.65l.12,1.89a81.992,81.992,0,0,1-7.8,3.39,11.833,11.833,0,0,0-1.2.51l-.6-2.1a30.11,30.11,0,0,0,4.14-1.29v-8.37h-1.59a10,10,0,0,0-2,.15v-1.92a9.787,9.787,0,0,0,2,.15H343v-7Zm11.73,11.43a35.528,35.528,0,0,0-3.72.12,8.118,8.118,0,0,0,.06-1.08c0-.78,0-.78.06-2.37v-6.39a36.712,36.712,0,0,0-.15-3.81,29.077,29.077,0,0,0,3.87.15h7.89a27.361,27.361,0,0,0,3.84-.15c-.09.84-.12,2-.12,3.78v6a36.725,36.725,0,0,0,.12,3.84c-1.08-.09-1.89-.12-3.6-.12H358v3.45h4.44a18.289,18.289,0,0,0,2.94-.15v2a19.265,19.265,0,0,0-2.94-.15H358v4.41h5.58a18.522,18.522,0,0,0,2.94-.15v2a19.794,19.794,0,0,0-3-.15H350.09a19.289,19.289,0,0,0-3,.15v-2a17.078,17.078,0,0,0,2.85.15h6.24v-4.41h-4a17.548,17.548,0,0,0-2.88.15v-2a16.808,16.808,0,0,0,2.88.15h4v-3.45Zm-1.8-11.73v4.26h4.86v-4.26Zm0,5.85v4.23h4.86v-4.23Zm6.63-1.59h5.07v-4.26H358Zm0,5.82h5.07v-4.23H358Z"/><path class="cls-1" d="M384.38,159.83c0,1.86-.57,2.22-3.36,2.22-.84,0-2.4-.06-3.45-.18a9,9,0,0,0-.63-1.92,31.153,31.153,0,0,0,3.93.33c1.38,0,1.59-.09,1.59-.72v-6h-9a23.035,23.035,0,0,0-3.15.18v-2.09a22.293,22.293,0,0,0,3.12.18h9v-.51a11.863,11.863,0,0,0-.09-1.77h1.26a25.19,25.19,0,0,0,5.4-3.4H378a26.867,26.867,0,0,0-2.85.15v-1.95a27.2,27.2,0,0,0,2.91.15h10.83a12.977,12.977,0,0,0,2.22-.12l1.14,1.2a9.515,9.515,0,0,0-1,.87,34.115,34.115,0,0,1-6.84,4.44v.93h8.91a21.965,21.965,0,0,0,3.15-.18v2.07a22.843,22.843,0,0,0-3.18-.18h-8.88ZM376.28,140a20.071,20.071,0,0,0-2.82-3.9l1.8-.57a28.565,28.565,0,0,1,3.06,4.44h4.38a17.744,17.744,0,0,0-2.19-4.32l1.86-.51a25.651,25.651,0,0,1,2.28,4.83H388a17.888,17.888,0,0,0,3.09-4.83l1.89.81a28.031,28.031,0,0,1-2.88,4h2.34a34.245,34.245,0,0,0,3.45-.12,19.541,19.541,0,0,0-.12,2.49v2.22a16.4,16.4,0,0,0,.15,2.1h-2v-5H372.71v5h-2a15.7,15.7,0,0,0,.15-2.1v-2.22a19.541,19.541,0,0,0-.12-2.49,26.76,26.76,0,0,0,3.42.15Z"/><path class="cls-1" d="M403.49,138.14a12.816,12.816,0,0,0-2.58.18v-2a16.052,16.052,0,0,0,2.7.18h4.89a11.7,11.7,0,0,0,2.52-.18v2a19.725,19.725,0,0,0-2.43-.12h-1.86a29.363,29.363,0,0,1-2.07,7.62h3.75a13.761,13.761,0,0,0,1.86-.09,22.36,22.36,0,0,0-.09,2.4v9.27a19.644,19.644,0,0,0,.12,2.52h-1.89v-1.5h-3.72v3.18h-2a18.163,18.163,0,0,0,.18-2.91v-6.66c0-1.08,0-2,.09-3.36a13.719,13.719,0,0,1-2.25,3.66,5.009,5.009,0,0,0-1.08-1.8,20.406,20.406,0,0,0,4.14-7.62,21.006,21.006,0,0,0,1-4.71Zm1.2,18.6h3.72v-9.39h-3.72Zm10.41-18.6a19.531,19.531,0,0,0-2.91.18v-2.07a18.355,18.355,0,0,0,3,.18h9.48a20.064,20.064,0,0,0,3-.18v2.07a15.746,15.746,0,0,0-2.91-.18h-.72v8.31h1a15.856,15.856,0,0,0,3-.18v2.13a19.546,19.546,0,0,0-3-.18h-1v10.77a22.673,22.673,0,0,0,.21,3.21H422a22.381,22.381,0,0,0,.21-3.21V148.22h-4.95c-.3,6.69-1.59,10.32-5,14.28a5.445,5.445,0,0,0-1.74-1.35c3.15-3,4.56-6.75,4.83-12.93h-.84a16.735,16.735,0,0,0-3,.18v-2.1a19.538,19.538,0,0,0,3,.15h.9v-8.31Zm2.19,7.29v1h4.89v-8.31h-4.89Z"/><path class="cls-1" d="M447.59,150.11a26.557,26.557,0,0,0,3.36-.15c-.06.66-.09,1.29-.12,2.64l-.12,6.09c0,.9.33,1,2.67,1,2.1,0,2.7-.15,2.91-.69a17.522,17.522,0,0,0,.48-4.5,7.379,7.379,0,0,0,2,.78c-.48,6-.66,6.18-5.49,6.18-3.66,0-4.44-.39-4.44-2.4v-.15l.12-7h-5.58a11.5,11.5,0,0,1-2.34,4.95,13.234,13.234,0,0,1-3.21,2.88,20.2,20.2,0,0,1-5,2.46,4.628,4.628,0,0,0-1.32-1.71,18.726,18.726,0,0,0,5.76-2.7,9.8,9.8,0,0,0,4.17-5.88H436.7a21.4,21.4,0,0,0-3.24.18v-2.13a20.251,20.251,0,0,0,3.18.18h5.16a21.266,21.266,0,0,0,.21-2.52,9.989,9.989,0,0,0-.12-1.62h2.28a9.116,9.116,0,0,0-.24,1.89c-.06.72-.12,1.47-.24,2.22Zm-4-12.69a9.221,9.221,0,0,0-.21-2.16h2.34a8.765,8.765,0,0,0-.21,2.16v.93h8.91a25.477,25.477,0,0,0,3-.15,13.518,13.518,0,0,0-.12,2.07v1.53a13.911,13.911,0,0,0,.12,2.1h-2v-3.84H448v4.35c0,.36.06.51.21.6a5.9,5.9,0,0,0,1.92.21,5.541,5.541,0,0,0,2.43-.33c.33-.24.48-1,.51-2.43a6.266,6.266,0,0,0,1.8.57c-.15,1.89-.39,2.73-.9,3.18s-1.74.66-3.87.66c-3.15,0-3.9-.33-3.9-1.65v-5.16h-3.69a8.216,8.216,0,0,1-1,3.33,8.451,8.451,0,0,1-4.74,3.81,27.718,27.718,0,0,1-2.79.87,8.181,8.181,0,0,0-1.14-1.65c3.21-.6,4.71-1.2,6-2.4a5.673,5.673,0,0,0,1.83-4h-6.39v3.81h-2a14.453,14.453,0,0,0,.12-2.1v-1.5a13.518,13.518,0,0,0-.12-2.07,25.477,25.477,0,0,0,3,.15h8.31Z"/><path class="cls-1" d="M482.69,153.47a21.663,21.663,0,0,0,3.18-.15v2a22.231,22.231,0,0,0-3.18-.15h-6.36v4.23h8.82a22.826,22.826,0,0,0,3.75-.21v2.1a32.483,32.483,0,0,0-3.87-.18H466.31a32.7,32.7,0,0,0-3.87.18v-2.1a23.191,23.191,0,0,0,3.78.21h8.22v-4.25h-5.76a22.073,22.073,0,0,0-3.21.15v-2a21.259,21.259,0,0,0,3.21.15h5.76V153a14.931,14.931,0,0,0-.18-2.37h2.25a14.358,14.358,0,0,0-.18,2.37v.45Zm-8.34-16.44a11.758,11.758,0,0,0-.18-2h2.31a10.735,10.735,0,0,0-.18,2v.78h7.83a34.393,34.393,0,0,0,4-.12,13.547,13.547,0,0,0-.12,2.13v1.5a13.115,13.115,0,0,0,.12,2h-2v-3.87h-21v3.87h-2v-.36a13.964,13.964,0,0,0,.09-1.71v-1.59a15.188,15.188,0,0,0-.12-2q1.855.153,3.72.12h7.47Zm-4.44,7a24.213,24.213,0,0,0-3.51.15v-1.92a22.991,22.991,0,0,0,3.42.15h11.64a23.813,23.813,0,0,0,3.45-.15v1.92a23.828,23.828,0,0,0-3.42-.15h-7.71a29.466,29.466,0,0,1-2.43,4.17c3.33-.09,5.85-.24,10-.54a29.35,29.35,0,0,0-2.76-2.16l1.41-.85a52.155,52.155,0,0,1,6.36,5.37l-1.44,1.23a24.2,24.2,0,0,0-2.07-2.13c-5.34.45-11.49.81-17.07,1a7.032,7.032,0,0,0-1.14.12l-.3-1.92q.927.091,1.86.09c1,0,1.68,0,3.12-.06a28.146,28.146,0,0,0,2.46-4.26Z"/><path class="cls-1" d="M499.37,136.94c-1.29,3-2.31,9.15-2.31,14.07,0,1,.06,2.82.12,4.2v1.44h.12a26.628,26.628,0,0,1,1.77-5.28,4.037,4.037,0,0,0,.24-.6l1.47.69c-1.41,2.94-2.58,6.75-2.58,8.52a3.187,3.187,0,0,0,.06.6l-2.13.21a7.551,7.551,0,0,0-.18-1.11,47.736,47.736,0,0,1-.84-8.91,50.869,50.869,0,0,1,1.56-12.33,13.762,13.762,0,0,0,.33-1.89Zm3,5.58a20.763,20.763,0,0,0,5.4.48c1.17,0,2,0,3.21-.09v-5.1a6.665,6.665,0,0,0-.09-1.23h2.25a30.631,30.631,0,0,0-.21,4.71v1.47a20.44,20.44,0,0,0,5.19-1.11l.09,2c-.06,0-.06,0-2.1.42a28.668,28.668,0,0,1-3.18.48c0,3,.09,4.5.33,8.49a21.721,21.721,0,0,1,5,2.94c.36.24.42.3.75.51l-.93,2.1a16.2,16.2,0,0,0-4.26-3.12,1.938,1.938,0,0,1-.3-.18l-.27-.18a4.251,4.251,0,0,1,.06.78,5.162,5.162,0,0,1-.36,2c-.72,1.59-2.55,2.52-5,2.52-3.48,0-5.67-1.65-5.67-4.26s2.37-4.26,5.7-4.26a8.468,8.468,0,0,1,3.33.6c-.09-.63-.21-3.45-.3-7.83-1.35.06-2.28.09-3.42.09s-2.34,0-3.39-.09a7.965,7.965,0,0,0-1-.06,4.339,4.339,0,0,0-.51,0,1.368,1.368,0,0,0-.3,0h-.12Zm5.76,11.25c-2.34,0-3.87,1-3.87,2.49s1.38,2.43,3.48,2.43a4.13,4.13,0,0,0,3.06-1,3.5,3.5,0,0,0,.57-2.34v-.9a7.754,7.754,0,0,0-3.21-.68Z"/><path class="cls-1" d="M525,154.13a30.583,30.583,0,0,1,6,6.36l-1.68,1.59a29.952,29.952,0,0,0-5.91-6.54Z"/><path class="cls-1" d="M557.09,137.12l-.57,7.59H555l-.57-7.59Zm4.83,0-.54,7.59h-1.56l-.54-7.59Z"/><path class="cls-1" d="M589.64,147.02c-.36,7.77-2.88,11.43-9.66,14.07a5.252,5.252,0,0,0-1.41-2c6.21-2.07,8.55-5.28,8.79-12.12h-8.13a23.672,23.672,0,0,0-3.45.15v-2.17a19.856,19.856,0,0,0,3.48.18h17.55a19.659,19.659,0,0,0,3.48-.18v2.22a23.672,23.672,0,0,0-3.45-.15Zm-10.83-9.51a15.577,15.577,0,0,0,3.45.21h9.06a27.231,27.231,0,0,0,3.45-.15v2.16q-.59,0-3.42-.09h-9.12a20.905,20.905,0,0,0-3.42.15Zm17.58-2.52a23.339,23.339,0,0,1,2.94,4.74l-1.53.84a22.866,22.866,0,0,0-2.91-4.86Zm3.69-1.14a24.96,24.96,0,0,1,2.94,4.74l-1.53.84a23.521,23.521,0,0,0-2.91-4.83Z"/><path class="cls-1" d="M623.18,142.7v-2.94a21.123,21.123,0,0,0-.09-3.06h2.34a22.987,22.987,0,0,0-.12,2.85v3.15h2.58a20.5,20.5,0,0,0,3.51-.18v2.28a24.084,24.084,0,0,0-3.48-.15h-2.64c0,5.79-.36,8-1.47,10.17-1.62,3-4.32,5.1-8.37,6.48a5.367,5.367,0,0,0-1.35-1.89c3.93-1,7-3.33,8.16-6.36.66-1.8.84-3.6.9-8.4H614v5a15.665,15.665,0,0,0,.12,2.43h-2.43a14.347,14.347,0,0,0,.12-2.52v-4.91h-2.52a24.084,24.084,0,0,0-3.48.15v-2.28a20.5,20.5,0,0,0,3.51.18h2.49v-3.48a14.642,14.642,0,0,0-.12-2.52h2.43a15.917,15.917,0,0,0-.12,2.43v3.57Zm5-7.89a23.843,23.843,0,0,1,2.13,4.92l-1.59.54a23.116,23.116,0,0,0-2.13-5Zm3.45-1a23.269,23.269,0,0,1,2.13,4.89l-1.56.54a24,24,0,0,0-2.1-4.92Z"/><path class="cls-1" d="M660.2,137.75a6.8,6.8,0,0,0-1.32,1.26,52.809,52.809,0,0,1-7,6v12.78a19.882,19.882,0,0,0,.15,3.18H649.4a15.665,15.665,0,0,0,.18-3.12v-11.4A46.909,46.909,0,0,1,638,151.73a7,7,0,0,0-1.17-2,42.225,42.225,0,0,0,15.57-7.77,25.189,25.189,0,0,0,5.73-5.67Z"/><path class="cls-1" d="M669.62,157.49a26.114,26.114,0,0,0,8.73-2.31c5.79-2.58,9.81-7,12.24-13.35a5.989,5.989,0,0,0,1.83,1.77c-2.4,5.22-5.19,8.73-9.15,11.46-3.09,2.1-6.18,3.33-11.19,4.47a15.753,15.753,0,0,0-1.8.48Zm1.92-18.6a39.087,39.087,0,0,1,7.23,5.64l-1.56,1.86a33.149,33.149,0,0,0-7.14-5.88Z"/><path class="cls-1" d="M709.28,137.12l-.57,7.59h-1.53l-.57-7.59Zm4.83,0-.54,7.59H712l-.54-7.59Z"/><path class="cls-1" d="M739,152.12c-1.74,4-3.51,5.76-5.67,5.76-2.85,0-5-3.12-5-7.32A12.179,12.179,0,0,1,740.4,138.273q.384,0,.768.017a11.611,11.611,0,0,1,8.25,3,10,10,0,0,1,2.91,7.32,10.921,10.921,0,0,1-6.87,10.35,23.212,23.212,0,0,1-4.56,1.38,4.766,4.766,0,0,0-1-2,18.022,18.022,0,0,0,5-1.41,9.058,9.058,0,0,0,5.31-8.4,7.91,7.91,0,0,0-4.77-7.53,8.622,8.622,0,0,0-3.48-.75A45.02,45.02,0,0,1,739,152.12Zm-3.68-10.47a10.369,10.369,0,0,0-4.89,8.94c0,2.88,1.26,5.1,2.88,5.1,1.26,0,2.46-1.41,3.75-4.35a41.217,41.217,0,0,0,2.73-11.1A9.469,9.469,0,0,0,735.32,141.65Z"/><path class="cls-1" d="M8.15,192.65a17.373,17.373,0,0,0,5.37,6.63,5.605,5.605,0,0,0-1.08,1.62,19.063,19.063,0,0,1-5.1-6.39,20.2,20.2,0,0,1-6.24,7.83A5.265,5.265,0,0,0,0,200.72a17,17,0,0,0,6.3-8.1Zm-4.47,14a16.414,16.414,0,0,0-2.64.15v-2a17.119,17.119,0,0,0,2.79.15H9.68a19.841,19.841,0,0,0,2.67-.12,22.8,22.8,0,0,0-.12,2.79v5.34c0,1.59-.57,2-2.58,2-.33,0-.45,0-1.29-.06a4.65,4.65,0,0,0-.42-1.86,12.5,12.5,0,0,0,1.86.21c.48,0,.66-.12.66-.48v-6.12H6.8v9.93a15.976,15.976,0,0,0,.18,2.64H4.79a17.15,17.15,0,0,0,.18-2.64v-9.93Zm-.06-6.24a14.181,14.181,0,0,0,2.16.12H9a14.181,14.181,0,0,0,2.16-.12v1.86a13.911,13.911,0,0,0-2.1-.12H5.69a14.615,14.615,0,0,0-2.07.12Zm14.73,14.64a21.213,21.213,0,0,1-6.33,4.5,5.731,5.731,0,0,0-1.26-1.53,15.6,15.6,0,0,0,3.6-2,11.8,11.8,0,0,0,2.49-2.16Zm-2.43-20.13a15.939,15.939,0,0,0-3,.18v-2a15.387,15.387,0,0,0,2.94.18h8.82a14.316,14.316,0,0,0,2.88-.18v2a15.42,15.42,0,0,0-2.88-.18H21.32a22.371,22.371,0,0,1-1.2,3.24h3.66a18.734,18.734,0,0,0,2.7-.12c-.06.75-.09,1.56-.09,2.76v9.85a27.7,27.7,0,0,0,.09,2.85c-.78-.06-1.56-.09-2.58-.09H16.73a23.77,23.77,0,0,0-2.55.09c.06-.84.09-1.83.09-2.79v-9.87a25,25,0,0,0-.12-2.79c.81.06,1.38.09,2.61.09h1.53a22,22,0,0,0,1.14-3.24Zm.08,7.73h8.61V199.8H16Zm0,4.56h8.61v-3H16Zm0,4.65h8.61V208.8H16Zm6.6,2.1a19.376,19.376,0,0,0,6,4.17,8.328,8.328,0,0,0-1.25,1.52A22.121,22.121,0,0,1,21.23,215Z"/><path class="cls-1" d="M35,195.77a24.592,24.592,0,0,0-.18-3.3H37a20.686,20.686,0,0,0-.18,3.3v4.59h.57a18.49,18.49,0,0,0,2.49-.12v1.92a18.49,18.49,0,0,0-2.49-.12h-.57v8.88A28.493,28.493,0,0,0,40,209.09l.15,1.89a78.15,78.15,0,0,1-7.44,3.84,6.151,6.151,0,0,0-1,.51l-.6-2a24.028,24.028,0,0,0,3.84-1.5v-9.75h-.87a21.654,21.654,0,0,0-2.52.15v-2a16.61,16.61,0,0,0,2.58.15H35Zm14.34,16.88c-2.67.87-4.53,1.38-8.25,2.28-.66.18-1.47.39-1.86.51l-.48-2c1.65,0,6.45-1.11,10.56-2.43Zm-6.48-13.74a31.267,31.267,0,0,0-3.18.15v-2a21.53,21.53,0,0,0,3.21.18h7.32a33.966,33.966,0,0,0-.24-5h2.22a16.222,16.222,0,0,0-.18,3.09v1.89h3.06a20.6,20.6,0,0,0,3.12-.18v2a31.716,31.716,0,0,0-3.18-.15H52.07a52.03,52.03,0,0,0,1.17,9.76,22.019,22.019,0,0,0,2.34-6.6l2,.66c-.3.72-.39.93-.66,1.74a34.086,34.086,0,0,1-3,6.51c1,3,2.16,5.28,2.94,5.55.48-.42.81-1.92.87-4.14a5.409,5.409,0,0,0,1.59,1.14,12.308,12.308,0,0,1-1,4.26c-.39.72-.87,1.08-1.38,1.08-1.41,0-3.15-2.37-4.38-5.94a23.066,23.066,0,0,1-6.78,6.06,5.091,5.091,0,0,0-1.47-1.41,20.137,20.137,0,0,0,7.65-6.69,49.736,49.736,0,0,1-1.68-12Zm-1.77,4.38c0-.66-.06-1.35-.09-1.86a15.535,15.535,0,0,0,2,.09h3.54a19.082,19.082,0,0,0,2-.09,10.566,10.566,0,0,0-.06,1.53v5a13.075,13.075,0,0,0,.06,1.77,15.626,15.626,0,0,0-2.08-.08H43a15.183,15.183,0,0,0-2,.09,16.453,16.453,0,0,0,.09-1.83Zm1.71,4.8h4v-5h-4ZM56.48,196.6a14.191,14.191,0,0,0-3.48-3l1.17-1a19.917,19.917,0,0,1,3.54,2.79Z"/><path class="cls-1" d="M69,194.06a42.5,42.5,0,0,0-1.26,4.8,44.326,44.326,0,0,0-.9,9.39c0,2.34.06,4.11.18,5.7a27.92,27.92,0,0,1,1.95-5.85l1.44.69c-1.35,3-2.43,6.57-2.43,8.25v.45l-2.16.18c-.06-.48-.09-.63-.18-1.2a42.96,42.96,0,0,1-.78-8.49,49.654,49.654,0,0,1,1.35-11.88,16.693,16.693,0,0,0,.42-2.4Zm7.65,12.06c-1.5,1.65-2.25,3.09-2.25,4.41,0,2.22,1.89,3.3,5.76,3.3a19.734,19.734,0,0,0,6.9-1l.3,2.31a5.15,5.15,0,0,0-1,.15,31.048,31.048,0,0,1-6.15.6c-3.42,0-5.58-.72-6.87-2.28a4.244,4.244,0,0,1-.9-2.76c0-1.83.75-3.45,2.61-5.58Zm-3.81-8.88a20.368,20.368,0,0,0,5.1.45,32.224,32.224,0,0,0,8-.81l.15,2.13-2.07.27a50.762,50.762,0,0,1-6.45.39,40.114,40.114,0,0,1-4.8-.3Z"/><path class="cls-1" d="M109.28,199.34c-.36.06-.48.09-.9.18a52.686,52.686,0,0,1-5.31.9v5.23a21.236,21.236,0,0,1,6.45-1.08,10.165,10.165,0,0,1,5.31,1.26,6.17,6.17,0,0,1-3,11.52,4.42,4.42,0,0,1-4.62-3.39,11.008,11.008,0,0,1-.36-3.39,6.5,6.5,0,0,0,2-.78,8.793,8.793,0,0,0-.06,1.17c0,3.12.9,4.41,3.09,4.41a4,4,0,0,0,4.007-3.993c0-.079,0-.158-.007-.237,0-2.94-2.49-4.77-6.42-4.77a20.263,20.263,0,0,0-6.36,1.17v7.5c0,1.62-.72,2.4-2.19,2.4a7.92,7.92,0,0,1-4.95-1.92,3.619,3.619,0,0,1-1.38-2.82c0-1.32.75-2.61,2.37-4a16,16,0,0,1,4.23-2.46v-5.67l-1.18.08H95.26v-2a17.041,17.041,0,0,0,3.06.21c.81,0,2,0,2.88-.09v-3a19.962,19.962,0,0,0-.15-2.85h2.22a17.125,17.125,0,0,0-.15,2.79v2.94a30.315,30.315,0,0,0,6.12-1.29Zm-8.13,8.85c-3,1.44-4.65,3.06-4.65,4.5,0,.63.42,1.23,1.29,1.8a5.609,5.609,0,0,0,2.67.87c.6,0,.69-.18.69-1.47Zm16.47-5.64a24.588,24.588,0,0,0-6.06-5.88l1.56-1.17a25.2,25.2,0,0,1,6.06,5.7Z"/><path class="cls-1" d="M130.52,193.97a51.856,51.856,0,0,0-1.83,13.08c0,1.65.12,3.87.24,4.89a10.5,10.5,0,0,1,.18,1.62,32.816,32.816,0,0,1,2.52-6.36l1.53.72q-1.24,2.568-2.22,5.25a11.713,11.713,0,0,0-.84,3.81l-2.07.18a7.994,7.994,0,0,0-.24-1,34.148,34.148,0,0,1-1.11-8.88,61.637,61.637,0,0,1,1.2-11.55,15.347,15.347,0,0,0,.27-2.07Zm3.06,6.06a24.291,24.291,0,0,0,5.1.39c1.2,0,2.31-.06,3.81-.18a57.85,57.85,0,0,0-.36-7h2.31a6.986,6.986,0,0,0-.09,1v.9c0,.54,0,.69.18,4.86a15.816,15.816,0,0,0,4.77-1.26l.15,2.16a15.164,15.164,0,0,0-1.59.36,28.53,28.53,0,0,1-3.27.6v2.16c0,5.7-.54,8.16-2.31,10.56a14.511,14.511,0,0,1-4.71,3.87,6.921,6.921,0,0,0-1.62-1.62,12.3,12.3,0,0,0,4.59-3.45c1.53-2,2-4.14,2-8.94,0-.84,0-1.5-.06-2.37-1.32.12-3.06.18-4.38.18-.84,0-2.55-.06-3.63-.12a4.422,4.422,0,0,0-.54,0,3.072,3.072,0,0,0-.45,0Z"/><path class="cls-1" d="M160.19,194.75a13.867,13.867,0,0,0,2.82.18c2.49,0,6.48-.18,9.18-.39a3.062,3.062,0,0,0,1.44-.33l1.26,1.65a5.532,5.532,0,0,0-1.53,1.26,76.993,76.993,0,0,1-9.87,8.52l.06.09a15.2,15.2,0,0,1,7.35-1.86c5,0,8.22,2.46,8.22,6.3,0,4.68-4.35,7.77-11,7.77-4.23,0-6.66-1.56-6.66-4.32,0-2,1.86-3.51,4.35-3.51a6,6,0,0,1,4.95,2.46,8.586,8.586,0,0,1,1.38,2.88c3.15-.87,4.8-2.7,4.8-5.25,0-2.88-2.4-4.59-6.45-4.59a19.25,19.25,0,0,0-12.63,5.13l-1.35-1.92a33.311,33.311,0,0,0,4.2-3.06c3.21-2.55,8-6.72,10-8.76l.42-.42.12-.12.12-.12-.06-.06h-.27c-1,.18-4.56.39-9.12.54a14.666,14.666,0,0,0-1.62.15Zm5.64,17.07c-1.5,0-2.43.72-2.43,1.86a2,2,0,0,0,1.2,1.83,7.661,7.661,0,0,0,3.36.69,10.809,10.809,0,0,0,2.19-.21C169.49,213.26,168,211.82,165.83,211.82Z"/><path class="cls-1" d="M188.72,215.81a21.085,21.085,0,0,0,.18,3.36h-2.22a22.733,22.733,0,0,0,.18-3.36V196.34a25.934,25.934,0,0,0-.12-3.3,27.546,27.546,0,0,0,3.12.12h4.29a26.5,26.5,0,0,0,3.06-.12c-.06.9-.09,1.68-.09,2.85v4a24.05,24.05,0,0,0,.09,2.76c-.66-.06-1.8-.09-3-.09h-5.46Zm0-18.72h6.69v-2.44h-6.69Zm0,4h6.69v-2.52h-6.69Zm15.42,10.86a15.466,15.466,0,0,0,.09,1.8,17.546,17.546,0,0,0-1.89-.09h-7.2v2.37h-1.95a18.59,18.59,0,0,0,.15-2.79v-6a18.638,18.638,0,0,0-.09-1.89,20.437,20.437,0,0,0,2.07.09H202a21.637,21.637,0,0,0,2.19-.09,16.95,16.95,0,0,0-.09,1.83Zm-9,.12h7.23v-5h-7.23Zm15.78,4.2c0,1.95-.57,2.49-2.64,2.49-1.17,0-2.25,0-3.57-.12a5.689,5.689,0,0,0-.54-1.92,33.955,33.955,0,0,0,3.81.3c.87,0,1.08-.18,1.08-.87V202.58h-6a28.432,28.432,0,0,0-3.06.09c.06-.87.09-1.65.09-2.76v-4c0-1,0-2-.09-2.85a26.5,26.5,0,0,0,3.06.12h4.86a28.077,28.077,0,0,0,3.15-.12,27.975,27.975,0,0,0-.15,3.3Zm-9.09-19.17h7.23v-2.45h-7.23Zm0,4h7.23v-2.52h-7.23Z"/><path class="cls-1" d="M222.56,206.42h-3.51a17.413,17.413,0,0,0-2.94.15v-1.92a18.3,18.3,0,0,0,2.94.18h7.62a16.828,16.828,0,0,0,2.7-.18v1.95a19.563,19.563,0,0,0-2.79-.15H224.3v3.2h1.83a14.711,14.711,0,0,0,2.4-.15v1.89a13.187,13.187,0,0,0-2.43-.18h-1.8v4.5a12.363,12.363,0,0,0,4.68.9c1.5.12,4.26.21,6.21.21a70.925,70.925,0,0,0,8.91-.45,6.433,6.433,0,0,0-.66,2.07c-1.65.12-4.68.18-7.23.18-6.51,0-10-.33-12.18-1.17a10.1,10.1,0,0,1-4.71-3.78,15.387,15.387,0,0,1-2.37,5.22,4.992,4.992,0,0,0-1.56-1.17,13.178,13.178,0,0,0,2.34-4.56,22.238,22.238,0,0,0,.6-4.44,3.551,3.551,0,0,0-.06-.81l1.92.24c-.06.48-.09.63-.12,1a25.445,25.445,0,0,1-.33,2.58,10.907,10.907,0,0,0,2.82,3ZM218,195.86a22.541,22.541,0,0,0-.12-2.7,21.3,21.3,0,0,0,2.79.12h4.53a21.3,21.3,0,0,0,2.79-.12,21.46,21.46,0,0,0-.12,2.73v4.53a20.309,20.309,0,0,0,.12,2.61,23.208,23.208,0,0,0-2.79-.12h-4.5a23.208,23.208,0,0,0-2.79.12,20.888,20.888,0,0,0,.12-2.67Zm1.71,1.44h6.45v-2.52h-6.45Zm0,4.17h6.45V198.8h-6.45Zm14.73,11.07a17.446,17.446,0,0,1-5.31,3.81,5.367,5.367,0,0,0-1.38-1.35,12.3,12.3,0,0,0,5.22-3.42Zm-2.25-17.52a23.866,23.866,0,0,0-3,.15v-1.89a21.439,21.439,0,0,0,3.06.18h8a17.927,17.927,0,0,0,2.91-.18v1.89a26.569,26.569,0,0,0-2.82-.15h-3.48a18.791,18.791,0,0,1-1,2.76h3.21a20.738,20.738,0,0,0,2.64-.09,21.359,21.359,0,0,0-.12,2.7v7.89a24.293,24.293,0,0,0,.12,2.88c-.87-.06-1.5-.09-2.55-.09h-6.18a22.124,22.124,0,0,0-2.67.09,20.175,20.175,0,0,0,.12-2.67v-8.13a23.346,23.346,0,0,0-.12-2.67c.72.06,1.29.09,2.64.09h1.2a22.233,22.233,0,0,0,.9-2.76Zm0,6.63H240v-2.37h-7.77Zm0,3.93H240v-2.46h-7.77Zm0,4H240v-2.53h-7.77Zm6.24,2.07a17.954,17.954,0,0,0,5.19,3.15,6.21,6.21,0,0,0-1.14,1.47,20.977,20.977,0,0,1-5.4-3.66Z"/><path class="cls-1" d="M256.4,199.55a19,19,0,0,0,2.76-.15,20.522,20.522,0,0,0-.12,2.67v14.64c0,1.65-.57,2-3,2-.42,0-.63,0-2.31-.09a5.669,5.669,0,0,0-.36-1.83,25.547,25.547,0,0,0,2.79.24c.93,0,1.17-.12,1.17-.63v-5h-7.11a19.542,19.542,0,0,1-1.8,7.68,5.891,5.891,0,0,0-1.68-1.2,13.331,13.331,0,0,0,1.71-6.09c.18-2,.24-3.87.24-8.91v-2.31c-.27.36-.39.51-.78,1a4.675,4.675,0,0,0-1.41-1.2,18.6,18.6,0,0,0,4.35-6.63,12.783,12.783,0,0,0,.6-2l1.89.45c-.12.24-.15.3-.36.81-.3.75-.48,1.14-.51,1.2h2.85a9.253,9.253,0,0,0,1.68-.09l.9,1a15.09,15.09,0,0,0-1.08,1.89c-.33.72-1,1.86-1.38,2.52Zm-2.82,0a35.449,35.449,0,0,0,2-3.75h-3.84a27.852,27.852,0,0,1-2.25,3.72h2.16Zm-.48,10.29v-3.72h-2.67c0,2.34,0,2.34-.09,3.72Zm-2.64-8.7v3.47h2.67v-3.45Zm6.9,0h-2.7v3.45h2.7Zm0,5h-2.7v3.72h2.7Zm5.46-11.07a16.377,16.377,0,0,0-2.85.18v-1.92a18.136,18.136,0,0,0,3,.18h6.84a23.551,23.551,0,0,0,2.76-.12c-.06.48-.06.57-.12,1.14-.12,1.56-.33,3.3-.54,4.41-.39,2.07-1,2.61-2.79,2.61a22.355,22.355,0,0,1-2.76-.21,6.194,6.194,0,0,0-.36-1.77,13.654,13.654,0,0,0,2.67.36c.87,0,1.17-.18,1.35-.84a20.692,20.692,0,0,0,.57-4h-4.41a9.46,9.46,0,0,1-1.29,3.75c-.93,1.59-1.89,2.46-4.17,3.84a4.934,4.934,0,0,0-1.23-1.47,8.91,8.91,0,0,0,3.78-3.12,6.513,6.513,0,0,0,1-3Zm0,12a12.022,12.022,0,0,1-1.41,2.76,5.857,5.857,0,0,0-1.62-.81,11.876,11.876,0,0,0,2.19-4.59,5.716,5.716,0,0,0,.3-1.44l1.83.42c-.51,1.5-.51,1.5-.69,2h2.79v-.76a14.833,14.833,0,0,0-.18-2.4h2.07a19.43,19.43,0,0,0-.1,2.4v.75h2.28a14.627,14.627,0,0,0,2.82-.18v2a17.261,17.261,0,0,0-2.82-.15H268v3.63h3a19,19,0,0,0,2.82-.18v2a21.09,21.09,0,0,0-2.73-.12H268v4.14a16.8,16.8,0,0,0,.18,2.67H266a17.287,17.287,0,0,0,.18-2.67V212.4h-3.75a16.86,16.86,0,0,0-2.58.15v-2a16.406,16.406,0,0,0,2.61.18h3.72V207.1Z"/><path class="cls-1" d="M278.66,199.91a28.513,28.513,0,0,1,5.22,3.9l-1.17,1.68a24.018,24.018,0,0,0-5.19-4.17Zm5.4,9.72a49.566,49.566,0,0,1-3.93,8.16,8.619,8.619,0,0,0-.63,1.08l-1.74-1.59c1.62-1.65,3.15-4.53,4.74-8.82Zm-3.9-17a26.252,26.252,0,0,1,5,4.17l-1.23,1.56a22.544,22.544,0,0,0-5-4.38Zm14.61,14.46a17.937,17.937,0,0,0,9.9,10.08,7.409,7.409,0,0,0-1.2,2c-5.13-2.88-8.07-6.18-10-11.1a17.07,17.07,0,0,1-2.88,6.3,18.763,18.763,0,0,1-6.18,5,5.6,5.6,0,0,0-1.32-1.68c3.15-1.5,5-2.91,6.45-5a14.524,14.524,0,0,0,2.25-5.58H288.2a22.111,22.111,0,0,0-3.15.18v-2.1a21.693,21.693,0,0,0,3.12.18h4a51.322,51.322,0,0,0,.42-6.39h-3.24a19.39,19.39,0,0,0-2.91.15v-2a19.658,19.658,0,0,0,2.91.15h3.24v-2.13a17.124,17.124,0,0,0-.21-2.94h2.28a15.734,15.734,0,0,0-.21,2.94v2.13h4.89a18.045,18.045,0,0,0,2.67-.12,17.979,17.979,0,0,0-.12,2.52v5.73h.3a16.877,16.877,0,0,0,2.58-.18v2.1a21.336,21.336,0,0,0-3-.18Zm5.22-1.74v-6.39h-5.61a49.279,49.279,0,0,1-.39,6.39Z"/><path class="cls-1" d="M315,194.06a42.5,42.5,0,0,0-1.26,4.8,44.326,44.326,0,0,0-.9,9.39c0,2.34.06,4.11.18,5.7a27.92,27.92,0,0,1,1.95-5.85l1.44.69c-1.35,3-2.43,6.57-2.43,8.25v.45l-2.16.18c-.06-.48-.09-.63-.18-1.2a42.96,42.96,0,0,1-.78-8.49,49.654,49.654,0,0,1,1.35-11.88,16.693,16.693,0,0,0,.42-2.4Zm7.65,12.06c-1.5,1.65-2.25,3.09-2.25,4.41,0,2.22,1.89,3.3,5.76,3.3a19.734,19.734,0,0,0,6.9-1l.3,2.31a6.172,6.172,0,0,0-1.05.15,31.048,31.048,0,0,1-6.15.6c-3.42,0-5.58-.72-6.87-2.28a4.244,4.244,0,0,1-.9-2.76c0-1.83.75-3.45,2.61-5.58Zm-3.81-8.88a20.368,20.368,0,0,0,5.1.45,32.224,32.224,0,0,0,8-.81l.15,2.13-2.07.27a50.762,50.762,0,0,1-6.45.39,40.114,40.114,0,0,1-4.8-.3Z"/><path class="cls-1" d="M356.19,194.12l-.57,7.59h-1.53l-.57-7.59Zm4.83,0-.54,7.59h-1.56l-.54-7.59Z"/><path class="cls-1" d="M378.82,213.41a19.14,19.14,0,0,0,2.31-5,32.845,32.845,0,0,0,1.56-6.93l2,.54a45.638,45.638,0,0,1-1.71,7.26,24.088,24.088,0,0,1-2.25,5.28Zm10.53,1.92c0,.93.69,1.11,4.17,1.11a13.894,13.894,0,0,0,3.84-.36c.6-.18.9-.66,1.11-1.74a28.69,28.69,0,0,0,.42-5,8.161,8.161,0,0,0,2,.78c-.3,3.72-.57,5.37-1.14,6.48-.72,1.41-1.8,1.68-6.45,1.68-5.16,0-6-.36-6-2.58V201.38a20.284,20.284,0,0,0-.21-2.85h2.43a16.339,16.339,0,0,0-.21,2.82Zm7.77-16.74a38.62,38.62,0,0,0-9.72-4.83l1.17-1.65a46.6,46.6,0,0,1,9.9,4.71Zm7.77,15.15a45.507,45.507,0,0,0-2.22-6.27,34.683,34.683,0,0,0-2.76-5.31l1.77-.93a49.636,49.636,0,0,1,5.16,11.4Z"/><path class="cls-1" d="M412.3,195.53a12.878,12.878,0,0,0-2.37.15v-2a11.569,11.569,0,0,0,2.52.18H417a11.089,11.089,0,0,0,2.46-.18v2a17.832,17.832,0,0,0-2.31-.12h-1.47v7h1.2a10.154,10.154,0,0,0,2-.15v1.89a14.532,14.532,0,0,0-2-.12h-1.2v7.62c1.47-.63,2-.87,3.51-1.65l.12,1.89a81.992,81.992,0,0,1-7.8,3.39,11.833,11.833,0,0,0-1.2.51l-.6-2.1a30.11,30.11,0,0,0,4.14-1.29v-8.37h-1.59a10,10,0,0,0-2,.15v-1.92a9.787,9.787,0,0,0,2,.15h1.56v-7ZM424,206.96a35.528,35.528,0,0,0-3.72.12,8.118,8.118,0,0,0,.06-1.08c0-.78,0-.78.06-2.37v-6.39a36.712,36.712,0,0,0-.15-3.81,29.077,29.077,0,0,0,3.87.15H432a27.361,27.361,0,0,0,3.84-.15c-.09.84-.12,2-.12,3.78v6a36.725,36.725,0,0,0,.12,3.84c-1.08-.09-1.89-.12-3.6-.12h-3.42v3.45h4.44a18.289,18.289,0,0,0,2.94-.15v2a19.265,19.265,0,0,0-2.94-.15h-4.44v4.41h5.58a18.528,18.528,0,0,0,2.94-.15v2a19.794,19.794,0,0,0-3-.15H421a19.289,19.289,0,0,0-3,.15v-2a17.078,17.078,0,0,0,2.85.15h6.24v-4.41h-4a17.553,17.553,0,0,0-2.88.15v-2a16.808,16.808,0,0,0,2.88.15h4v-3.45Zm-1.8-11.73v4.26h4.86v-4.26Zm0,5.85v4.23h4.86v-4.23Zm6.63-1.59h5.07v-4.26h-5.07Zm0,5.82h5.07v-4.23h-5.07Z"/><path class="cls-1" d="M455.26,216.83c0,1.86-.57,2.22-3.36,2.22-.84,0-2.4-.06-3.45-.18a9,9,0,0,0-.63-1.92,31.153,31.153,0,0,0,3.93.33c1.38,0,1.59-.09,1.59-.72v-6h-9a23.035,23.035,0,0,0-3.15.18v-2.09a22.293,22.293,0,0,0,3.12.18h9v-.51a11.863,11.863,0,0,0-.09-1.77h1.26a25.193,25.193,0,0,0,5.37-3.39h-11a26.605,26.605,0,0,0-2.85.15v-1.96a27.2,27.2,0,0,0,2.91.15h10.83a12.977,12.977,0,0,0,2.22-.12l1.14,1.2a9.515,9.515,0,0,0-1,.87,34.115,34.115,0,0,1-6.84,4.44v.93h8.91a21.965,21.965,0,0,0,3.15-.18v2.07a22.835,22.835,0,0,0-3.18-.18h-8.88ZM447.16,197a20.071,20.071,0,0,0-2.82-3.9l1.8-.57a28.565,28.565,0,0,1,3.06,4.44h4.38a17.744,17.744,0,0,0-2.19-4.32l1.86-.51a25.651,25.651,0,0,1,2.28,4.83h3.3a17.888,17.888,0,0,0,3.09-4.83l1.89.81a28.031,28.031,0,0,1-2.88,4h2.34a34.245,34.245,0,0,0,3.45-.12,19.541,19.541,0,0,0-.12,2.49v2.22a16.4,16.4,0,0,0,.15,2.1h-2v-5H443.59v5h-2a15.7,15.7,0,0,0,.15-2.1v-2.22a19.541,19.541,0,0,0-.12-2.49,26.76,26.76,0,0,0,3.42.15Z"/><path class="cls-1" d="M488.57,194.12l-.57,7.59h-1.53l-.57-7.59Zm4.83,0-.54,7.59H491.3l-.54-7.59Z"/><path class="cls-1" d="M523.76,209.12c-1.74,4-3.51,5.76-5.67,5.76-2.85,0-5-3.12-5-7.32a12.179,12.179,0,0,1,12.068-12.291q.421,0,.842.021a11.611,11.611,0,0,1,8.25,3,10,10,0,0,1,2.91,7.32,10.92,10.92,0,0,1-6.87,10.35,23.212,23.212,0,0,1-4.56,1.38,4.772,4.772,0,0,0-1-2,18.022,18.022,0,0,0,5-1.41,9.06,9.06,0,0,0,5.31-8.4,7.91,7.91,0,0,0-4.77-7.53,8.622,8.622,0,0,0-3.48-.75A45.01,45.01,0,0,1,523.76,209.12Zm-3.69-10.47a10.369,10.369,0,0,0-4.89,8.94c0,2.88,1.26,5.1,2.88,5.1,1.26,0,2.46-1.41,3.75-4.35a41.217,41.217,0,0,0,2.73-11.1A9.469,9.469,0,0,0,520.07,198.65Z"/><path class="cls-1" d="M546.56,198.05a20.648,20.648,0,0,1-2.79,4.41,4,4,0,0,0-1.47-1.32,15.437,15.437,0,0,0,4-7.5,7.319,7.319,0,0,0,.27-1.65l2,.33c-.18.48-.24.72-.51,1.62a18.249,18.249,0,0,1-.78,2.37h5.43a16.626,16.626,0,0,0,2.94-.18v2.07c-.93-.09-1.92-.15-2.94-.15h-1.92c-.06,3.24-.06,3.6-.21,5.61h2.55a17.65,17.65,0,0,0,2.85-.18v2.1a18.361,18.361,0,0,0-2.85-.18h-2.7c-.09.69-.12,1-.24,1.77a18.093,18.093,0,0,0,5.7,6.84,6.09,6.09,0,0,0-1.2,1.8,23.845,23.845,0,0,1-5-6.36,15.766,15.766,0,0,1-6,8.64,5.324,5.324,0,0,0-1.5-1.56c4.11-2.91,5.85-5.91,6.45-11.13H545.9a18.486,18.486,0,0,0-3.18.18v-2.1a18.266,18.266,0,0,0,3.28.17h2.85c.12-1.65.15-2.28.18-5.61Zm12.33,20.16h-2.07a26.765,26.765,0,0,0,.18-3.42V198.14a26.307,26.307,0,0,0-.18-3.15,16.691,16.691,0,0,0,2.7.15h6a16.922,16.922,0,0,0,2.7-.15,22.707,22.707,0,0,0-.15,3.15v16.44a29.735,29.735,0,0,0,.18,3.63h-2.1v-2.13h-7.26Zm0-3.87h7.26V196.88h-7.26Z"/><path class="cls-1" d="M580.49,210.59c-1.68,0-2.46,0-3.39.09a23.343,23.343,0,0,0,.15-3.15V197.36a39.27,39.27,0,0,0-.15-4,25.688,25.688,0,0,0,3.21.15h12.54a31.858,31.858,0,0,0,3.21-.15,39.27,39.27,0,0,0-.15,4v10.17a22.707,22.707,0,0,0,.15,3.15c-.84-.06-1.74-.09-3.36-.09h-2.61v5.43c0,.93.3,1,3.36,1,2.85,0,3.54-.12,4-.75s.54-1.59.72-3.93a9.019,9.019,0,0,0,1.89.81c-.69,5.37-1,5.64-6.72,5.64-2.46,0-3.81-.15-4.41-.51s-.72-.72-.72-1.68v-6h-3.66a8.819,8.819,0,0,1-2.64,5.46c-1.77,1.71-4,2.73-7.68,3.54a5.993,5.993,0,0,0-1.05-1.8,17.888,17.888,0,0,0,4.59-1.26,7.5,7.5,0,0,0,4.13-3.89,7,7,0,0,0,.54-2.07Zm-1.38-12h14.94v-3.27H579.11Zm0,5.13h14.94v-3.45H579.11Zm0,5.25h14.94V205.4H579.11Z"/><path class="cls-1" d="M613.22,196.91a12.729,12.729,0,0,0,1.44-4.11l2.4.42a6.372,6.372,0,0,0-.78,1.62,14.053,14.053,0,0,1-.93,2,5.093,5.093,0,0,1,.63,0c4.8-.24,7.8-.6,9.45-1.14l.18,2a9.3,9.3,0,0,0-1.2.15,97.034,97.034,0,0,1-9.9.78,22.157,22.157,0,0,1-2.7,4.26c-.3.36-.9,1.05-1,1.14s-.36.27-.39.3h0a.226.226,0,0,0,.06.09,8.3,8.3,0,0,1,1.38-1,8.007,8.007,0,0,1,4.53-1.47,3.641,3.641,0,0,1,3.993,3.249c0,.027,0,.054.007.081,2.19-.87,3.9-1.5,5.22-2a6.6,6.6,0,0,0,2-.87l1,2.1a49.862,49.862,0,0,0-8,2.64c.06.78.06,1.08.06,1.83v3a6.5,6.5,0,0,0,.06,1.08h-2q.2-2.154.18-4.32a7.948,7.948,0,0,0,0-.9c-4.08,1.92-5.64,3.33-5.64,5.13,0,2,1.86,2.85,6.09,2.85a25.147,25.147,0,0,0,8-1.17l.27,2.31c-.4.03-.8.08-1.2.15a46.486,46.486,0,0,1-7.29.6c-5.37,0-8-1.53-8-4.62,0-1.65,1-3.21,3.06-4.74a23.314,23.314,0,0,1,4.47-2.4c-.24-1.65-1-2.37-2.37-2.37-1.89,0-4.26,1.11-6.69,3.18a9.936,9.936,0,0,0-2.31,2.49l-1.88-1.6a29.848,29.848,0,0,0,6.72-8.58l.27-.45a3.413,3.413,0,0,1-.57.06l-4.41-.09H607a5.191,5.191,0,0,0-.66,0v-2.07a42,42,0,0,0,6.42.33Z"/><path class="cls-1" d="M647.72,193.73a9.675,9.675,0,0,0-.18-1.89h2.31a6.707,6.707,0,0,0-.18,1.92v1.56h8.52a20.65,20.65,0,0,0,3.24-.18v2.07a23.075,23.075,0,0,0-3.24-.15H638.87c0,8.31-.18,11.7-.72,14.88a19.051,19.051,0,0,1-2.34,6.81,7.9,7.9,0,0,0-1.68-1.38c2.25-3.84,2.79-7.32,2.79-18.15a32.218,32.218,0,0,0-.15-4.05,23.135,23.135,0,0,0,3,.15h7.92ZM639.14,215c1.47-2.64,2.13-5.22,2.55-9.81l1.89.51c-.57,4.86-1.11,7-2.64,10.38Zm8.91-12.42a14.852,14.852,0,0,0-.18,2.73v10.74c0,.48.09.63.48.78a9.857,9.857,0,0,0,2.43.18c2.58,0,3.33-.18,3.63-.81a17.218,17.218,0,0,0,.51-4.65v-.75a6.941,6.941,0,0,0,1.92.75c-.21,3.75-.57,5.61-1.23,6.33s-1.8.93-4.71.93c-4.23,0-4.95-.3-4.95-2.07V205.28a14.7,14.7,0,0,0-.18-2.7Zm5.37,1.86a26.358,26.358,0,0,0-7.23-4.95l1.26-1.32a37.908,37.908,0,0,1,7.29,4.74Zm6.33,11.21a31.912,31.912,0,0,0-3.45-9.93l1.74-.75a43.374,43.374,0,0,1,3.66,9.84Z"/><path class="cls-1" d="M679.94,215.03a21.529,21.529,0,0,0,.15,3.27h-2.16a22.058,22.058,0,0,0,.15-3.27v-5.67h-8.22c-.45,4.53-1.23,7-3.24,9.84a7.287,7.287,0,0,0-1.74-1.29,12.058,12.058,0,0,0,2.43-5.07c.66-2.76.93-7.14.93-14.55a45.337,45.337,0,0,0-.12-4.89,31.886,31.886,0,0,0,3.3.12h16.14a29.1,29.1,0,0,0,3.18-.12,25.322,25.322,0,0,0-.12,2.94v20.13c0,1.89-.69,2.34-3.6,2.34-1,0-2.46-.06-3.72-.15a7.011,7.011,0,0,0-.45-2,38.491,38.491,0,0,0,4.29.33c1.32,0,1.59-.15,1.59-.9v-6.78h-8.79Zm-9.81-12.75v2a27.043,27.043,0,0,1-.12,3.36h8.1V202.3Zm8-7h-7.89v5.25h7.92Zm10.65,5.25v-5.25h-8.79v5.25Zm-8.84,7.12h8.79v-5.34h-8.79Z"/><path class="cls-1" d="M711.11,194.75a10.134,10.134,0,0,0-.12-1.74h2.25a24.724,24.724,0,0,0-.15,3.75v.33c5.67,0,8-.09,9-.21v2.13a53.187,53.187,0,0,0-5.73-.15c-.45,0-.78,0-3.21.06v5.94a8.6,8.6,0,0,1,.72,3.54,9.658,9.658,0,0,1-4,7.83,19.059,19.059,0,0,1-4.74,2.43,6.594,6.594,0,0,0-1.32-1.89,15.392,15.392,0,0,0,4.86-2.25,7.772,7.772,0,0,0,3.36-6.33,4.206,4.206,0,0,1-.81,1.47,4.923,4.923,0,1,1-3.66-8.08c.09,0,.18,0,.27.01a4.608,4.608,0,0,1,3.48,1.35v-3.99c-6,.12-12.09.42-14.1.75l-.09-2.19h1.2c.87,0,.87,0,5.7-.18,2.88-.12,5.22-.18,7.26-.24Zm-1.29,9a3.838,3.838,0,0,0-2-.48,3.169,3.169,0,0,0-3.326,3.006c0,.048,0,.1,0,.144a2.9,2.9,0,0,0,2.792,3,2.694,2.694,0,0,0,.3,0,3.359,3.359,0,0,0,3.511-3.2,3.2,3.2,0,0,0,0-.339,2.169,2.169,0,0,0-1.27-2.1Z"/><path class="cls-1" d="M732.44,194.75a13.867,13.867,0,0,0,2.82.18c2.49,0,6.48-.18,9.18-.39a3.062,3.062,0,0,0,1.44-.33l1.26,1.65a5.532,5.532,0,0,0-1.53,1.26,76.993,76.993,0,0,1-9.87,8.52l.06.09a15.2,15.2,0,0,1,7.35-1.86c5,0,8.22,2.46,8.22,6.3,0,4.68-4.35,7.77-11,7.77-4.23,0-6.66-1.56-6.66-4.32,0-2,1.86-3.51,4.35-3.51a6,6,0,0,1,5,2.46,8.586,8.586,0,0,1,1.38,2.88c3.15-.87,4.8-2.7,4.8-5.25,0-2.88-2.4-4.59-6.45-4.59a19.25,19.25,0,0,0-12.63,5.13l-1.35-1.92a33.383,33.383,0,0,0,4.2-3.06c3.21-2.55,7.95-6.72,10-8.76l.42-.42.12-.12.12-.12-.06-.06h-.27c-1,.18-4.56.39-9.12.54a14.666,14.666,0,0,0-1.62.15Zm5.64,17.07c-1.5,0-2.43.72-2.43,1.86a2,2,0,0,0,1.2,1.83,7.661,7.661,0,0,0,3.36.69,10.809,10.809,0,0,0,2.19-.21C741.74,213.26,740.24,211.82,738.08,211.82Z"/><path class="cls-1" d="M9.71,263.48c-2,1.62-2.85,3-2.85,4.41s.87,2.37,2.55,2.94a19.1,19.1,0,0,0,5.49.6c3.75,0,7.32-.45,9-1.14l.27,2.46a8.434,8.434,0,0,0-1,.15,48.971,48.971,0,0,1-8.1.69,21.158,21.158,0,0,1-6.9-.93c-2.25-.93-3.42-2.46-3.42-4.53s1.14-3.84,3.45-5.79Zm-3.15-11a34.277,34.277,0,0,0,8,.72,32.825,32.825,0,0,0,7.59-.63l.15,2a42.731,42.731,0,0,0-7.56,4.56l-1.53-1.23a46.417,46.417,0,0,1,4-2.49l.75-.39c.21-.12.27-.12.57-.3a23.729,23.729,0,0,1-4.53.39,58.692,58.692,0,0,1-6.6-.39,6.986,6.986,0,0,0-1-.09Z"/><path class="cls-1" d="M42.65,250.1a52.224,52.224,0,0,0,2.25,9.93c1.77-.72,2.61-1,7.26-2.67a16.213,16.213,0,0,0,1.92-.78l.9,2.28a68.966,68.966,0,0,0-9,2.91c-5.13,2-7.35,4-7.35,6.51,0,2.73,2.31,3.78,8.19,3.78a29.815,29.815,0,0,0,8.58-1l.23,2.49a15.571,15.571,0,0,0-2.21.18,60.191,60.191,0,0,1-6.63.39,20.4,20.4,0,0,1-6.66-.81c-2.46-.9-3.72-2.55-3.72-4.92a6.492,6.492,0,0,1,2.67-5.1A18.66,18.66,0,0,1,43,260.84a61.177,61.177,0,0,1-2.19-8.4,10.055,10.055,0,0,0-.51-1.89Z"/><path class="cls-1" d="M70.81,251.06a42.5,42.5,0,0,0-1.26,4.8,44.326,44.326,0,0,0-.9,9.39c0,2.34.06,4.11.18,5.7a27.872,27.872,0,0,1,2-5.85l1.44.69c-1.35,3-2.43,6.57-2.43,8.25v.45l-2.16.18c-.06-.48-.09-.63-.18-1.2a42.96,42.96,0,0,1-.78-8.49A49.624,49.624,0,0,1,68,253.1a16.693,16.693,0,0,0,.42-2.4Zm7.65,12.06c-1.5,1.65-2.25,3.09-2.25,4.41,0,2.22,1.89,3.3,5.76,3.3a19.734,19.734,0,0,0,6.9-1l.3,2.31a5.15,5.15,0,0,0-1,.15,31.048,31.048,0,0,1-6.15.6c-3.42,0-5.58-.72-6.87-2.28a4.244,4.244,0,0,1-.9-2.76c0-1.83.75-3.45,2.61-5.58Zm-3.81-8.88a20.368,20.368,0,0,0,5.1.45,32.224,32.224,0,0,0,8-.81l.15,2.13-2.07.27a50.762,50.762,0,0,1-6.45.39,40.114,40.114,0,0,1-4.8-.3Z"/><path class="cls-1" d="M110.1,249.92a21.574,21.574,0,0,0-.18,4c0,.66,0,1,.06,3.12a29.881,29.881,0,0,0,8.79-1.14l.27,2.22a16.507,16.507,0,0,0-1.8.21,51.841,51.841,0,0,1-7.23.66c.09,2.91.24,5.82.39,7.74a25.918,25.918,0,0,1,8,4.26,13.766,13.766,0,0,0,1.38.93l-1.41,2.1a13.292,13.292,0,0,0-3.12-2.61,30.222,30.222,0,0,0-4-2.31,5.923,5.923,0,0,1-.72-.33,8.455,8.455,0,0,1,.12,1.29,5.364,5.364,0,0,1-.75,3c-.93,1.32-2.85,2.07-5.34,2.07-3.87,0-6.24-1.68-6.24-4.44s2.79-4.74,7.05-4.74a12.933,12.933,0,0,1,2.61.27c.15,0,.15.06.27.06s.06,0,.15.06a.816.816,0,0,0,0-.27v-.18c-.24-3.45-.45-9.24-.48-13.53a13.721,13.721,0,0,0-.15-2.43Zm-4.8,17.91c-3.06,0-4.92,1.08-4.92,2.82a2,2,0,0,0,.45,1.29,4.841,4.841,0,0,0,3.6,1.2,5.07,5.07,0,0,0,3.33-1,2.78,2.78,0,0,0,.72-2.25,16.241,16.241,0,0,0-.09-1.65A10.22,10.22,0,0,0,105.3,267.83Z"/><path class="cls-1" d="M130.83,261.92a14.171,14.171,0,0,0,2.76-.54,38.624,38.624,0,0,1,9.14-1.32c3.09,0,5.22.93,6.36,2.79a6.555,6.555,0,0,1,.93,3.42c0,3.36-2.7,6.42-6.87,7.74a28.391,28.391,0,0,1-6.15,1.14,6.357,6.357,0,0,0-.78-2.07,2.266,2.266,0,0,0,.42,0,20.466,20.466,0,0,0,5.91-.93c3.42-1.11,5.49-3.39,5.49-6.06s-1.92-4.2-5.55-4.2a34.864,34.864,0,0,0-7.89,1.2,13.379,13.379,0,0,0-3.21,1Z"/><path class="cls-1" d="M160.49,254.3h1.08a14.725,14.725,0,0,0,1.71-.09c3.57-.27,13.17-.81,17-1a20.17,20.17,0,0,0,3.57-.33l.18,2.25a13.927,13.927,0,0,0-3.36.39,15.222,15.222,0,0,0-5.76,3,9.17,9.17,0,0,0-3.69,6.93c0,2.52,1.53,4.53,4.2,5.55a15.381,15.381,0,0,0,4.5,1h.3l-.39,2.43-.93-.18a15.131,15.131,0,0,1-6.48-2.31,7.3,7.3,0,0,1-3.33-6.12c0-3.48,2-6.81,5.61-9.21a19.664,19.664,0,0,1,2.85-1.59,58.187,58.187,0,0,1-6.6.66,87.991,87.991,0,0,0-10.35,1Z"/><path class="cls-1" d="M191.24,268.13a30.583,30.583,0,0,1,6,6.36l-1.68,1.59a29.952,29.952,0,0,0-5.91-6.54Z"/><path class="cls-1" d="M226,252.89c-1.56.33-2.28.45-4,.72a6.237,6.237,0,0,0-.87-1.65,28.637,28.637,0,0,0,8.55-1.95,8.08,8.08,0,0,0,1.38-.72l1.17,1.59a24.525,24.525,0,0,1-4.38,1.59v4.56H230a9.988,9.988,0,0,0,2.1-.15v2a11.1,11.1,0,0,0-2.13-.15h-2a12.644,12.644,0,0,0,4.29,5.25,6.993,6.993,0,0,0-1.11,1.62,14.066,14.066,0,0,1-3.39-4.74c0,.42.06,1.95.15,4.62v7.5a28.092,28.092,0,0,0,.18,3.48H225.9a29.1,29.1,0,0,0,.18-3.48v-6.93c0-1.14.06-2.85.15-4.8a22.1,22.1,0,0,1-4.56,8.82,5.618,5.618,0,0,0-1.17-1.68,24.835,24.835,0,0,0,5.31-9.66h-1.95a17.287,17.287,0,0,0-2.67.18v-2.06a16.828,16.828,0,0,0,2.7.18H226Zm8.31,17.52c-1.11.27-2.1.57-2.82.81l-.27-2.13a15.036,15.036,0,0,0,2.85-.48l8.25-2V252.47a19.072,19.072,0,0,0-.18-3.15h2.28a21.838,21.838,0,0,0-.18,3.12v13.74l.48-.12a16.679,16.679,0,0,0,2.82-.84l.24,2.1a21.89,21.89,0,0,0-2.85.54l-.69.18v5.1a22.339,22.339,0,0,0,.18,3.27h-2.28a17.6,17.6,0,0,0,.18-3.3v-4.62Zm-.21-11.46a28.6,28.6,0,0,1,5.52,4.65l-1.2,1.53a23.561,23.561,0,0,0-5.55-4.8Zm1-7.5a28.169,28.169,0,0,1,5.58,4.8l-1.2,1.56a22.906,22.906,0,0,0-5.61-4.92Z"/><path class="cls-1" d="M266.74,273.83c0,1.86-.57,2.22-3.36,2.22-.84,0-2.4-.06-3.45-.18a9,9,0,0,0-.63-1.92,31.153,31.153,0,0,0,3.93.33c1.38,0,1.59-.09,1.59-.72v-6h-9a23.035,23.035,0,0,0-3.15.18v-2.09a22.293,22.293,0,0,0,3.12.18h9v-.51a11.863,11.863,0,0,0-.09-1.77H266a25.193,25.193,0,0,0,5.37-3.39h-11a26.605,26.605,0,0,0-2.85.15v-1.96a27.2,27.2,0,0,0,2.91.15h10.83a12.977,12.977,0,0,0,2.22-.12l1.14,1.2c-.39.3-.39.3-1.05.87a34.115,34.115,0,0,1-6.84,4.44v.93h8.91a21.965,21.965,0,0,0,3.15-.18v2.07a22.835,22.835,0,0,0-3.18-.18h-8.88ZM258.64,254a20.071,20.071,0,0,0-2.82-3.9l1.8-.57a28.565,28.565,0,0,1,3.06,4.44h4.38a17.744,17.744,0,0,0-2.19-4.32l1.86-.51a25.651,25.651,0,0,1,2.28,4.83h3.3a17.888,17.888,0,0,0,3.09-4.83l1.89.81a28.031,28.031,0,0,1-2.88,4h2.34a34.245,34.245,0,0,0,3.45-.12,19.541,19.541,0,0,0-.12,2.49v2.22a16.4,16.4,0,0,0,.15,2.1h-2v-5H255.07v5h-2a15.7,15.7,0,0,0,.15-2.1v-2.22a19.541,19.541,0,0,0-.12-2.49,26.76,26.76,0,0,0,3.42.15Z"/><path class="cls-1" d="M288.18,253.79a21.17,21.17,0,0,0,1.29-4.53l2.13.39c-.57,1.71-1,2.82-1.53,4.14H292l2.64-.09c-.06.78-.09,1.56-.09,2.64v15.31a25.929,25.929,0,0,0,.15,3.09h-2v-1.92h-5.85v2.64h-2a26.79,26.79,0,0,0,.15-3.66V256.55a22.236,22.236,0,0,0-.12-2.85,16.911,16.911,0,0,0,1.8.09h1.5Zm-1.29,8.34h5.85v-6.69h-5.85Zm0,9h5.85v-7.32h-5.85Zm12.66-15.57a28.521,28.521,0,0,1-3.45,5.46,6.118,6.118,0,0,0-1.44-1.35,21.78,21.78,0,0,0,4.41-7.56,13.326,13.326,0,0,0,.78-2.91l2.07.39a10.517,10.517,0,0,0-.42,1.14c-.42,1.2-.69,1.89-1.14,3.06h7.26a19.4,19.4,0,0,0,2.64-.12,11.835,11.835,0,0,0-.12,1.89c-.27,11.88-.66,15.9-1.74,18.3-.6,1.38-1.56,1.92-3.33,1.92-1.11,0-1.92-.06-3.84-.21a5.548,5.548,0,0,0-.51-2.13,22.537,22.537,0,0,0,4.26.51c1.11,0,1.53-.27,1.89-1.23a34.086,34.086,0,0,0,1.11-8.28c.15-2.4.18-4.47.21-8.88Zm3.3,12.36a31.5,31.5,0,0,0-4.56-7.59l1.53-.93a34.729,34.729,0,0,1,4.74,7.47Z"/><path class="cls-1" d="M320.22,252.11a18.389,18.389,0,0,0-.15-3.12h2.16a19.46,19.46,0,0,0-.15,3.09v3.09h1.68a11.564,11.564,0,0,0,1.95-.12v1.89a16.5,16.5,0,0,0-1.95-.12h-1.59a18.667,18.667,0,0,0,3.78,6.09,8.394,8.394,0,0,0-1.23,1.5,19.548,19.548,0,0,1-2.79-5.07c.09,1.47.15,3.6.15,4.92v8.67a20.454,20.454,0,0,0,.18,3.48h-2.19a25.288,25.288,0,0,0,.18-3.48v-8c0-1.41,0-2.91.15-4.83a24.146,24.146,0,0,1-4.2,8.58,6.772,6.772,0,0,0-1.23-1.62,24,24,0,0,0,5-10.26h-2a18.831,18.831,0,0,0-2.07.12v-1.87a13.518,13.518,0,0,0,2.07.12h2.19Zm21.51,12.84a28.955,28.955,0,0,1-5.31,4.14,18.393,18.393,0,0,0,6.54,5.13,7.366,7.366,0,0,0-1.38,1.71,20.855,20.855,0,0,1-6.4-5.58,20.34,20.34,0,0,1-3.26-7.08H328.8v9.69c2.16-.54,3.33-.9,5.46-1.62l.17,1.74a74.793,74.793,0,0,1-8.66,2.46c-.75.21-1,.27-1.56.45l-.51-2.07a20.267,20.267,0,0,0,3.24-.51V253.73c0-1.17-.06-2.1-.12-3.12a27.824,27.824,0,0,0,3,.12h7.29a17.808,17.808,0,0,0,3-.15,27.878,27.878,0,0,0-.09,3.27v6.45a23.1,23.1,0,0,0,.09,3.09,25.472,25.472,0,0,0-3-.12h-3.46a14.811,14.811,0,0,0,1.78,4.41,17.8,17.8,0,0,0,4.86-4.11Zm-3.51-8.85v-3.72H328.8v3.72Zm-9.42,5.55h9.42v-3.9H328.8Z"/><path class="cls-1" d="M349.16,256.88a13.93,13.93,0,0,0-2,.12v-1.92a9,9,0,0,0,2,.15h1.17v-2.76a20.6,20.6,0,0,0-.18-3.06h2.16a20.326,20.326,0,0,0-.15,3v2.79h.51a9.775,9.775,0,0,0,1.8-.12v1.86a13.646,13.646,0,0,0-1.83-.09h-.48v5.85c.48-.27.78-.42,1.8-1v1.68a20.4,20.4,0,0,1-1.8,1.08v9.51c0,1.65-.54,2.1-2.43,2.1a19.622,19.622,0,0,1-2-.06,5.532,5.532,0,0,0-.36-1.86,13.919,13.919,0,0,0,2.25.21c.54,0,.75-.18.75-.69v-8.25c-1.8.87-2.73,1.32-2.85,1.41l-.54-2a14.59,14.59,0,0,0,3.39-1.26v-6.72Zm11.4-2.49a21.649,21.649,0,0,0,2.22-.09c-.12.84-.18,1.23-.24,2.19a34.086,34.086,0,0,1-3,12.57,8.671,8.671,0,0,0,4.92,3.72,27.89,27.89,0,0,0,7.59.84,20.709,20.709,0,0,0,2.73-.12,6.825,6.825,0,0,0-.63,2c-9.21,0-12.78-1.11-15.45-4.92a23.322,23.322,0,0,1-4.71,5.55,4.992,4.992,0,0,0-1.17-1.56,17.3,17.3,0,0,0,4.89-5.7,19.47,19.47,0,0,1-1.65-5.49,32.6,32.6,0,0,1-1.53,3.09,4.331,4.331,0,0,0-1.38-1.38,20.372,20.372,0,0,0,2.73-6.51,37.753,37.753,0,0,0,1.08-8.25v-.72l2,.24a29.817,29.817,0,0,0-.36,3.21c0,.27-.06.51-.15,1.32Zm-2.4,1.68a34.374,34.374,0,0,1-1.2,4.89,26.666,26.666,0,0,0,1.59,6.15,33.518,33.518,0,0,0,2.25-11Zm8.25-3.18a73.939,73.939,0,0,1-.51,11.28,14.165,14.165,0,0,1-2.76,7,5.658,5.658,0,0,0-1.59-1.2c2.52-3.12,3.12-6.06,3.12-15.81a19.794,19.794,0,0,0-.15-3,14.852,14.852,0,0,0,2,.12h2.58a11.648,11.648,0,0,0,1.77-.12,20.783,20.783,0,0,0-.09,2.52v14.57c0,.42.15.51.75.51s.78-.12.87-.54a27.422,27.422,0,0,0,.27-5,5.7,5.7,0,0,0,1.62.72c-.3,6.09-.45,6.42-3,6.42-1.74,0-2.25-.39-2.25-1.77v-15.7Z"/><path class="cls-1" d="M385.45,251.06a42.5,42.5,0,0,0-1.26,4.8,44.326,44.326,0,0,0-.9,9.39c0,2.34.06,4.11.18,5.7a27.92,27.92,0,0,1,1.95-5.85l1.44.69c-1.35,3-2.43,6.57-2.43,8.25v.45l-2.16.18c-.06-.48-.09-.63-.18-1.2a42.96,42.96,0,0,1-.78-8.49,49.654,49.654,0,0,1,1.35-11.88,16.693,16.693,0,0,0,.42-2.4Zm7.65,12.06c-1.5,1.65-2.25,3.09-2.25,4.41,0,2.22,1.89,3.3,5.76,3.3a19.734,19.734,0,0,0,6.9-1l.3,2.31a6.172,6.172,0,0,0-1.05.15,31.048,31.048,0,0,1-6.15.6c-3.42,0-5.58-.72-6.87-2.28a4.244,4.244,0,0,1-.9-2.76c0-1.83.75-3.45,2.61-5.58Zm-3.81-8.88a20.368,20.368,0,0,0,5.1.45,32.224,32.224,0,0,0,8-.81l.15,2.13-2.07.27a50.75,50.75,0,0,1-6.45.39,40.114,40.114,0,0,1-4.8-.3Z"/><path class="cls-1" d="M416.7,251.9a13.739,13.739,0,0,0-.18-2.61h2.16a23.236,23.236,0,0,0-.15,2.61v.18h10.56v-.18a14,14,0,0,0-.18-2.61h2.16a16.273,16.273,0,0,0-.15,2.61v.18h2.76a20.2,20.2,0,0,0,3-.18v2c-1-.09-1.89-.15-3-.15h-2.76v9.63h3.3a21.735,21.735,0,0,0,3.06-.18v2a21.5,21.5,0,0,0-3-.18h-4.53c2.07,2,4.5,3.18,8.37,4.14a8.015,8.015,0,0,0-1.05,1.83c-4.5-1.5-7-3.09-9.6-6h-7.41c-2.28,2.85-4.88,4.56-9.23,6.09a5.009,5.009,0,0,0-1.06-1.8c3.58-.84,6.4-2.34,8.08-4.29h-4.38a20.9,20.9,0,0,0-3,.18v-2a19.8,19.8,0,0,0,3,.18h3.27v-9.63h-2.25q-1.5,0-3,.15v-2a19.8,19.8,0,0,0,3,.18h2.25Zm6,16.47a15.053,15.053,0,0,0-.15-2.4h2.07a12.85,12.85,0,0,0-.15,2.4v.28h4.29a19.955,19.955,0,0,0,2.61-.12v1.86a20.309,20.309,0,0,0-2.61-.12H424.5v3.33h8.22a20.99,20.99,0,0,0,3.15-.15v2a24.6,24.6,0,0,0-3.21-.18H415.42a25.317,25.317,0,0,0-3.28.18v-2a24.946,24.946,0,0,0,3.21.15h7.38v-3.33H419a21.463,21.463,0,0,0-2.61.12v-1.86a19.955,19.955,0,0,0,2.61.12h3.69Zm6.36-12.51V253.7H418.53v2.16Zm0,3.69v-2.13H418.53v2.13Zm0,3.78v-2.22H418.53v2.22Z"/><path class="cls-1" d="M442.89,257.03a6.646,6.646,0,0,0,1.14-.12l1.41-.3c.21-.06,1.44-.33,3.69-.84a40.113,40.113,0,0,1,8.7-1.11c5.49,0,9,2.91,9,7.5,0,3.75-2.22,6.9-6.24,8.85-2.76,1.32-5.28,1.92-9.93,2.31a5.651,5.651,0,0,0-.93-2.25,25.991,25.991,0,0,0,8.27-1.42c4.11-1.5,6.42-4.2,6.42-7.56s-2.49-5.4-6.57-5.4a47.672,47.672,0,0,0-12.24,2.13,13.16,13.16,0,0,0-2.16.72Zm21-7.26a22.736,22.736,0,0,1,3.09,4.65l-1.53.9a22.978,22.978,0,0,0-3.06-4.77Zm3.36-1.62a22.926,22.926,0,0,1,3.12,4.65l-1.5.87a24.245,24.245,0,0,0-3.06-4.71Z"/><path class="cls-1" d="M478.79,252.86a21.746,21.746,0,0,0-.21,3.57,51.374,51.374,0,0,0,.78,9.33c.66,3.06,1.89,5.13,3,5.13.54,0,1.05-.51,1.5-1.5a21.6,21.6,0,0,0,1.56-5.13,9.588,9.588,0,0,0,1.77,1.71c-1.47,5.25-2.85,7.26-5,7.26-1.68,0-3.24-1.68-4.26-4.56s-1.47-6.69-1.62-14.07a16.354,16.354,0,0,0-.09-1.77Zm14.49,1.59a26.022,26.022,0,0,1,4.29,6.84,28.721,28.721,0,0,1,2.25,8l-2.13.87a26.5,26.5,0,0,0-6.24-14.79Z"/><path class="cls-1" d="M507.16,255.26a20.652,20.652,0,0,0,3.75.27c.6,0,.93,0,1.8-.06a29.373,29.373,0,0,0,.66-5.52l2.37.24a28.115,28.115,0,0,0-.54,2.85c-.15,1-.24,1.38-.39,2.28a24.731,24.731,0,0,0,5.4-1l.15,2.07a2.574,2.574,0,0,0-.84.15,43.75,43.75,0,0,1-5.07.72c-.45,2.37-1.29,5.76-2.1,8.49a79.015,79.015,0,0,1-3.45,9.15l-2.19-.93c2.22-3.87,4.53-10.71,5.64-16.59h-2.07c-1.07,0-1.32,0-2.49-.06h-.12a4.339,4.339,0,0,0-.51,0Zm13.41,10.89a10.086,10.086,0,0,0-.9,1.14,3.615,3.615,0,0,0-.75,2.13c0,1.8,1.83,2.76,5.25,2.76a22.276,22.276,0,0,0,6.63-1l.21,2.25-1.32.21a29.988,29.988,0,0,1-5.34.51c-4.92,0-7.47-1.53-7.47-4.5,0-1.35.42-2.28,2-4.32Zm9.27-5.19a30.134,30.134,0,0,0-3.54-.21,26.087,26.087,0,0,0-7.5,1l-.21-2a33.983,33.983,0,0,1,7.95-1c.57,0,1,0,3.27.09Z"/><path class="cls-1" d="M552,261.02c-.36,7.77-2.88,11.43-9.66,14.07a5.252,5.252,0,0,0-1.41-2c6.21-2.07,8.55-5.28,8.79-12.12h-8.13a23.672,23.672,0,0,0-3.45.15v-2.17a19.856,19.856,0,0,0,3.48.18h17.55a19.659,19.659,0,0,0,3.48-.18v2.22a23.672,23.672,0,0,0-3.45-.15Zm-10.83-9.51a15.577,15.577,0,0,0,3.45.21h9.06a26.7,26.7,0,0,0,3.44-.15v2.16c-.38,0-1.52-.06-3.41-.09h-9.12a20.905,20.905,0,0,0-3.42.15Zm17.58-2.52a23.811,23.811,0,0,1,2.94,4.74l-1.53.84a22.866,22.866,0,0,0-2.91-4.86Zm3.69-1.14a24.443,24.443,0,0,1,2.93,4.74l-1.52.84a24.019,24.019,0,0,0-2.91-4.83Z"/><path class="cls-1" d="M586.41,256.7v-2.94a21.123,21.123,0,0,0-.09-3.06h2.34a22.987,22.987,0,0,0-.12,2.85v3.15h2.58a20.5,20.5,0,0,0,3.51-.18v2.28a24.084,24.084,0,0,0-3.48-.15h-2.64c0,5.79-.36,8-1.47,10.17-1.62,3-4.32,5.1-8.37,6.48a5.367,5.367,0,0,0-1.35-1.89c3.93-1,7-3.33,8.16-6.36.66-1.8.84-3.6.9-8.4h-9.12v5a15.665,15.665,0,0,0,.12,2.43H575a14.347,14.347,0,0,0,.12-2.52v-4.91H572.6a24.084,24.084,0,0,0-3.48.15v-2.28a20.5,20.5,0,0,0,3.51.18h2.49v-3.48a14.642,14.642,0,0,0-.12-2.52h2.43a15.917,15.917,0,0,0-.12,2.43v3.57Zm5-7.89a23.843,23.843,0,0,1,2.13,4.92l-1.59.54a23.116,23.116,0,0,0-2.13-5Zm3.45-1a23.269,23.269,0,0,1,2.13,4.89l-1.56.54a24,24,0,0,0-2.1-4.92Z"/><path class="cls-1" d="M624.32,251.75a6.8,6.8,0,0,0-1.32,1.26,52.809,52.809,0,0,1-7,6v12.78a19.882,19.882,0,0,0,.15,3.18h-2.61a15.665,15.665,0,0,0,.18-3.12v-11.4a46.884,46.884,0,0,1-11.58,5.25,7,7,0,0,0-1.17-2,42.225,42.225,0,0,0,15.57-7.77,25.189,25.189,0,0,0,5.73-5.67Z"/><path class="cls-1" d="M634.64,271.49a26.106,26.106,0,0,0,8.72-2.31c5.79-2.58,9.81-7,12.24-13.35a5.989,5.989,0,0,0,1.83,1.77c-2.4,5.22-5.19,8.73-9.15,11.46-3.09,2.1-6.18,3.33-11.18,4.47a15.457,15.457,0,0,0-1.81.48Zm1.92-18.6a39.325,39.325,0,0,1,7.22,5.64l-1.56,1.86a33.309,33.309,0,0,0-7.13-5.88Z"/><path class="cls-1" d="M675.73,266.12c-1.74,4-3.51,5.76-5.67,5.76-2.85,0-5-3.12-5-7.32a12.179,12.179,0,0,1,12.072-12.287q.384,0,.768.017a11.611,11.611,0,0,1,8.25,3,10,10,0,0,1,2.91,7.32,10.921,10.921,0,0,1-6.87,10.35,23.212,23.212,0,0,1-4.56,1.38,4.766,4.766,0,0,0-1-2,18.022,18.022,0,0,0,5-1.41,9.06,9.06,0,0,0,5.31-8.4,7.91,7.91,0,0,0-4.77-7.53,8.622,8.622,0,0,0-3.48-.75A45.02,45.02,0,0,1,675.73,266.12ZM672,255.65a10.367,10.367,0,0,0-4.89,8.94c0,2.88,1.26,5.1,2.88,5.1,1.26,0,2.46-1.41,3.75-4.35a41.217,41.217,0,0,0,2.73-11.1A9.469,9.469,0,0,0,672,255.65Z"/><path class="cls-1" d="M710,267.38a14,14,0,0,0,3.9,3.75,22.847,22.847,0,0,0,8.31,3.06,7.746,7.746,0,0,0-1.14,2c-6.36-1.68-10-4.08-12.93-8.43a11.572,11.572,0,0,1-4.71,5.61,20.685,20.685,0,0,1-6.81,2.76,7,7,0,0,0-1.11-1.89,18.212,18.212,0,0,0,6.42-2.16,10,10,0,0,0,4.41-4.65h-7.62a19.727,19.727,0,0,0-2.79.18v-2a16.66,16.66,0,0,0,2.76.18h8.22a17.606,17.606,0,0,0,.42-2.88H701.9a14.609,14.609,0,0,0-2.61.15v-1.89a14.8,14.8,0,0,0,2.61.15h5.58c.06-1.17.06-1.5.09-2.67h-5.79a18.5,18.5,0,0,0-2.88.18v-2a17.792,17.792,0,0,0,2.88.18h5.82a10.94,10.94,0,0,0-.18-2.43h2.22a10.812,10.812,0,0,0-.15,2.43h6.27a17.562,17.562,0,0,0,2.88-.18v2a15.767,15.767,0,0,0-2.88-.18h-6.3c0,1-.06,1.68-.12,2.67h5.94a14.461,14.461,0,0,0,2.58-.15v1.89a14.461,14.461,0,0,0-2.58-.15h-6.06a22.4,22.4,0,0,1-.45,2.88H719a17.022,17.022,0,0,0,2.79-.18v2a19.553,19.553,0,0,0-2.82-.18Zm-2.46-16.44a7.868,7.868,0,0,0-.21-1.86h2.34a9.526,9.526,0,0,0-.18,1.86v1.14h8.82a29.455,29.455,0,0,0,3-.12,13.647,13.647,0,0,0-.12,2v1.77a13.518,13.518,0,0,0,.12,2.07h-2v-4.08H698.19v4.08h-2a13.776,13.776,0,0,0,.12-2.07v-1.74a13.93,13.93,0,0,0-.12-2,29.455,29.455,0,0,0,3,.12h8.25Z"/><path class="cls-1" d="M729.56,252.65a14.55,14.55,0,0,0-2.52.15v-2a12.122,12.122,0,0,0,2.58.18H734a11.42,11.42,0,0,0,2.49-.18v2a18.506,18.506,0,0,0-2.4-.12h-1.35v7h1.29a9.648,9.648,0,0,0,2-.15v1.92a14.224,14.224,0,0,0-2-.12h-1.29v7.2a41.8,41.8,0,0,0,3.87-1.89v1.89a56.28,56.28,0,0,1-7.68,3.51c-.66.24-1.2.48-1.62.66l-.63-2.1a23.563,23.563,0,0,0,4.17-1.29v-8H729.5a10.549,10.549,0,0,0-2,.15v-2a10.078,10.078,0,0,0,2,.15h1.38v-7Zm11,14.07a27.15,27.15,0,0,0-2.91.09c.06-.78.09-1.65.09-3V253.1a26.5,26.5,0,0,0-.12-3.06,23.086,23.086,0,0,0,2.94.12H749a22.605,22.605,0,0,0,2.85-.12,26.059,26.059,0,0,0-.12,3.06v10.55a27.546,27.546,0,0,0,.12,3.12,24.809,24.809,0,0,0-2.91-.12h-1.2v6.84c0,.57.18.63,2.19.63,1.5,0,2-.12,2.13-.51a13.22,13.22,0,0,0,.36-3.66,7.128,7.128,0,0,0,1.8.81c-.39,4.86-.6,5.1-4.53,5.1-3.21,0-3.81-.3-3.81-1.89v-7.32h-2.73a10.529,10.529,0,0,1-1.74,5.28c-1.47,2.16-3.51,3.57-6.72,4.68a6.014,6.014,0,0,0-1.32-1.68,11.114,11.114,0,0,0,5.94-3.33,7.667,7.667,0,0,0,2-5Zm-1-11.55H749.9V251.9H739.58Zm0,4.89H749.9v-3.24H739.58Zm0,5.1H749.9v-3.51H739.58Z"/><path class="cls-1" d="M10.22,310.91a12.705,12.705,0,0,0,1.44-4.11l2.4.42a6.372,6.372,0,0,0-.78,1.62,14.053,14.053,0,0,1-.93,2,5.093,5.093,0,0,1,.63,0c4.8-.24,7.8-.6,9.45-1.14l.18,2a9.3,9.3,0,0,0-1.2.15,97.012,97.012,0,0,1-9.9.78,22.157,22.157,0,0,1-2.7,4.26c-.3.36-.9,1-1,1.14a1.759,1.759,0,0,1-.39.3h0a.237.237,0,0,0,.06.09c1.08-.84,1.08-.84,1.38-1.05a8.007,8.007,0,0,1,4.53-1.47,3.641,3.641,0,0,1,3.993,3.249c0,.027.005.054.007.081,2.19-.87,3.9-1.5,5.22-2a6.6,6.6,0,0,0,2-.87l1,2.1a49.8,49.8,0,0,0-8,2.64c.06.78.06,1.08.06,1.83v3a6.5,6.5,0,0,0,.06,1.08h-2q.2-2.154.18-4.32a7.948,7.948,0,0,0,0-.9c-4.08,1.92-5.64,3.33-5.64,5.13,0,2,1.86,2.85,6.09,2.85a25.147,25.147,0,0,0,8-1.17l.27,2.31a11.811,11.811,0,0,0-1.2.15,46.6,46.6,0,0,1-7.29.6c-5.37,0-8-1.53-8-4.62,0-1.65,1-3.21,3.06-4.74a23.259,23.259,0,0,1,4.47-2.4c-.24-1.65-1-2.37-2.37-2.37-1.89,0-4.26,1.11-6.69,3.18A9.919,9.919,0,0,0,4.3,323.2l-1.88-1.55a29.83,29.83,0,0,0,6.72-8.58l.27-.45a3.413,3.413,0,0,1-.57.06l-4.41-.09H4a5.191,5.191,0,0,0-.66,0v-2.07a42,42,0,0,0,6.42.33Z"/><path class="cls-1" d="M51.8,307.7a21.978,21.978,0,0,0,3.12-.15,19,19,0,0,0-.15,2.76V329.9a22.532,22.532,0,0,0,.18,3.18H52.76v-2H37.31v2H35.12a21.151,21.151,0,0,0,.18-3.06v-19.5a21.181,21.181,0,0,0-.15-3,24.591,24.591,0,0,0,3.21.15Zm1,7v-5.16H37.31v5.16Zm-15.45,7.17H52.76V316.5H37.31Zm0,7.38H52.76v-5.6H37.31Z"/><path class="cls-1" d="M67,309.14a18.881,18.881,0,0,0-.21-3.06H69.1a18.145,18.145,0,0,0-.21,3v3h1.08a15.311,15.311,0,0,0,2.43-.15v2a16.318,16.318,0,0,0-2.46-.15h-1v6.12c1.11-.33,1.77-.57,3.54-1.26v1.74c-1.5.63-2,.81-3.57,1.38v9.18c0,1.62-.72,2.07-3.27,2.07a19.587,19.587,0,0,1-2.22-.09,5.191,5.191,0,0,0-.42-2,15.822,15.822,0,0,0,3,.3c.81,0,1-.18,1-.81v-8l-2.1.69a14.365,14.365,0,0,0-1.92.63l-.48-2.1a22.77,22.77,0,0,0,4.5-1.11V313.8H65.2a16.45,16.45,0,0,0-2.46.15v-2a14.864,14.864,0,0,0,2.43.18H67Zm8.61,1c4.89-.69,9.15-1.89,10.86-3.06l1.5,1.68a51.074,51.074,0,0,1-12.36,3v2c0,1.17.51,1.29,5.4,1.29,5.79,0,5.85,0,6.12-3.81a6.465,6.465,0,0,0,1.83.81c-.3,2.43-.69,3.45-1.59,4s-2.19.69-6.81.69c-5.82,0-6.81-.39-6.81-2.61v-5.16a16.922,16.922,0,0,0-.18-3h2.22a18.5,18.5,0,0,0-.18,2.88Zm-1.83,11.55a16.632,16.632,0,0,0-.12-2.34,20.064,20.064,0,0,0,2.64.12h8.46a19.561,19.561,0,0,0,2.64-.12,16.182,16.182,0,0,0-.12,2.37v8.46a17.4,17.4,0,0,0,.15,3h-2v-1.65H75.62v1.68h-2a18.567,18.567,0,0,0,.15-3Zm1.83,2.82h9.81v-3.39H75.61Zm0,5.37h9.81v-3.75H75.61Z"/><path class="cls-1" d="M108.11,308.75a10.134,10.134,0,0,0-.12-1.74h2.25a24.855,24.855,0,0,0-.15,3.75v.33c5.67,0,8-.09,9-.21v2.13a53.187,53.187,0,0,0-5.73-.15c-.45,0-.78,0-3.21.06v5.94a8.6,8.6,0,0,1,.72,3.54,9.658,9.658,0,0,1-4,7.83,19.059,19.059,0,0,1-4.74,2.43,6.594,6.594,0,0,0-1.32-1.89,15.392,15.392,0,0,0,4.86-2.25,7.772,7.772,0,0,0,3.36-6.33,4.2,4.2,0,0,1-.81,1.47,4.936,4.936,0,1,1-3.71-8.13c.107,0,.214,0,.32.01a4.608,4.608,0,0,1,3.48,1.35V312.9c-6,.12-12.09.42-14.1.75l-.09-2.19h1.2c.87,0,.87,0,5.7-.18,2.88-.12,5.22-.18,7.26-.24Zm-1.29,9a3.838,3.838,0,0,0-2-.48,3.17,3.17,0,0,0-3.326,3.006c0,.048,0,.1,0,.144a2.9,2.9,0,0,0,2.792,3,2.694,2.694,0,0,0,.3,0,3.359,3.359,0,0,0,3.511-3.2,3.2,3.2,0,0,0,0-.339,2.169,2.169,0,0,0-1.27-2.1Z"/><path class="cls-1" d="M134,307.1a52.147,52.147,0,0,0,2.25,9.93c1.77-.72,2.61-1.05,7.26-2.67a16.213,16.213,0,0,0,1.92-.78l.9,2.28a68.966,68.966,0,0,0-9,2.91c-5.13,2-7.35,4-7.35,6.51,0,2.73,2.31,3.78,8.19,3.78a29.815,29.815,0,0,0,8.58-1l.24,2.49a15.576,15.576,0,0,0-2.22.18,60.205,60.205,0,0,1-6.63.39,20.4,20.4,0,0,1-6.66-.81c-2.46-.9-3.72-2.55-3.72-4.92a6.489,6.489,0,0,1,2.67-5.1,18.669,18.669,0,0,1,3.93-2.43,61.177,61.177,0,0,1-2.19-8.4,10.055,10.055,0,0,0-.51-1.89Z"/><path class="cls-1" d="M159.68,309.86a21.746,21.746,0,0,0-.21,3.57,51.374,51.374,0,0,0,.78,9.33c.66,3.06,1.89,5.13,3,5.13.54,0,1.05-.51,1.5-1.5a21.614,21.614,0,0,0,1.56-5.13,9.588,9.588,0,0,0,1.77,1.71c-1.47,5.25-2.85,7.26-5,7.26-1.68,0-3.24-1.68-4.26-4.56s-1.47-6.69-1.62-14.07a16.354,16.354,0,0,0-.09-1.77Zm14.49,1.59a26.022,26.022,0,0,1,4.29,6.84,28.712,28.712,0,0,1,2.25,8l-2.13.87a26.5,26.5,0,0,0-6.24-14.79Z"/><path class="cls-1" d="M188.45,316.82a23.612,23.612,0,0,0,3-.51,50.1,50.1,0,0,1,9.15-1.08,9.546,9.546,0,0,1,5.16,1.14,5.339,5.339,0,0,1,2.55,4.77c0,3.21-1.83,6.06-5.16,8.1-2.28,1.38-4.23,2-8.7,2.85a7.622,7.622,0,0,0-1-2.19,18.991,18.991,0,0,0,8.43-2.43,7.342,7.342,0,0,0,2.58-2.13,6.722,6.722,0,0,0,1.53-4.08,3.64,3.64,0,0,0-1.92-3.36,8.369,8.369,0,0,0-3.69-.66,41.874,41.874,0,0,0-11.43,2Zm4.41-9.36a37.854,37.854,0,0,0,12.21,1.86l-.33,2.16a54.58,54.58,0,0,1-12.6-2Z"/><path class="cls-1" d="M235.4,312.65a13.316,13.316,0,0,0,.18,2.22c-1.05-.09-1.89-.12-2.52-.12h-2.82v2.37h6.36a23.1,23.1,0,0,0,3.21-.15,21.162,21.162,0,0,0-.12,2.64v2.04a19.218,19.218,0,0,0,.12,2.55,29.069,29.069,0,0,0-3.39-.12h-6.18v2.64h9a26.122,26.122,0,0,0,3.39-.18v2.1a26.2,26.2,0,0,0-3.36-.18h-9v1.8a20.6,20.6,0,0,0,.24,3.3h-2.25a22.9,22.9,0,0,0,.21-3.3v-1.8H220a26.3,26.3,0,0,0-3.39.18v-2.1a24.544,24.544,0,0,0,3.33.18h8.52v-2.64H223a29.144,29.144,0,0,0-3.42.12,19.389,19.389,0,0,0,.12-2.55v-2.07a21.162,21.162,0,0,0-.12-2.64,23.1,23.1,0,0,0,3.21.15h5.7v-2.37h-2.55c-.63,0-1.62.06-2.55.12a13.521,13.521,0,0,0,.15-2.22v-2h-3.6a24.81,24.81,0,0,0-3.36.15v-2a23.877,23.877,0,0,0,3.36.18h3.6v-.45a13.675,13.675,0,0,0-.18-2.25h2.19a13.675,13.675,0,0,0-.18,2.25v.45h8.25v-.45a13.675,13.675,0,0,0-.18-2.25h2.19a13.46,13.46,0,0,0-.18,2.25v.45h3.9a23.419,23.419,0,0,0,3.39-.18v2a25.253,25.253,0,0,0-3.39-.15h-3.9Zm-7,6.06h-6.93v3.78h6.93Zm-3.12-8v2.55h8.25v-2.61Zm12.51,11.82v-3.88H230.2v3.78Z"/><path class="cls-1" d="M249.38,322.52a11.029,11.029,0,0,0-2.46.18v-2a11.031,11.031,0,0,0,2.52.18h3.66v-1.59a5.541,5.541,0,0,0-.15-1.23h2a5.525,5.525,0,0,0-.12,1.23v1.59h3.3a11.64,11.64,0,0,0,2.43-.18v2a13.177,13.177,0,0,0-2.43-.15h-2.85a12.688,12.688,0,0,0,4.23,3.81,7.484,7.484,0,0,0-1,1.62,15.4,15.4,0,0,1-3.75-4.14c.06.66.09,1.53.12,2.64v4.35a16.61,16.61,0,0,0,.15,2.58h-2.07a16.627,16.627,0,0,0,.18-2.58v-4.26c0-.72,0-1.5.09-2.49a17.776,17.776,0,0,1-5.67,6.66,6.136,6.136,0,0,0-1.14-1.68,20.049,20.049,0,0,0,3.9-3.3,14.222,14.222,0,0,0,2.19-3.21Zm5.34-6.69a15.943,15.943,0,0,0,2-4.92l1.8.57a31.783,31.783,0,0,1-2,4.35h1.77a13.177,13.177,0,0,0,2.43-.15v2a14.011,14.011,0,0,0-2.43-.15h-8.91a13.651,13.651,0,0,0-2.49.15v-2a13.3,13.3,0,0,0,2.49.15Zm3.06-6.9a13.8,13.8,0,0,0,2.52-.15v2a15.313,15.313,0,0,0-2.55-.15h-7.68a15.189,15.189,0,0,0-2.61.15v-2a14.574,14.574,0,0,0,2.64.15h3v-.81a10.406,10.406,0,0,0-.15-2.1h2.19a9.988,9.988,0,0,0-.15,2.1v.81Zm-6.87,6.63a16.694,16.694,0,0,0-1.71-4l1.59-.6a17.866,17.866,0,0,1,1.71,4Zm20.55.06a15.178,15.178,0,0,0,2.76-.18v2.07a15.538,15.538,0,0,0-2.64-.15h-1.11v13.08a15,15,0,0,0,.18,3h-2.31a18.136,18.136,0,0,0,.18-3V317.36h-4.71v1.17a32.96,32.96,0,0,1-1.71,10.77,15.585,15.585,0,0,1-2.22,4.11,6.3,6.3,0,0,0-1.71-1.26c2.88-3.54,3.78-7.74,3.78-17.76,0-3.39-.06-4.68-.15-5.55h.36a29.014,29.014,0,0,0,7.11-1.38,9.509,9.509,0,0,0,2.76-1.29l1.53,1.68a9.968,9.968,0,0,0-1.08.42,36.519,36.519,0,0,1-8.64,2.22v5.16Z"/><path class="cls-1" d="M281.93,310.79a21.17,21.17,0,0,0,1.29-4.53l2.13.39c-.57,1.71-1,2.82-1.53,4.14h1.95l2.64-.09c-.06.78-.09,1.56-.09,2.64v15.31a25.929,25.929,0,0,0,.15,3.09h-2v-1.92h-5.85v2.64h-2a26.632,26.632,0,0,0,.15-3.66V313.55a22.236,22.236,0,0,0-.12-2.85,16.911,16.911,0,0,0,1.8.09h1.48Zm-1.29,8.34h5.85v-6.69h-5.85Zm0,9h5.85v-7.32h-5.85Zm12.66-15.57a28.552,28.552,0,0,1-3.45,5.46,6.118,6.118,0,0,0-1.44-1.35,21.789,21.789,0,0,0,4.41-7.56,13.326,13.326,0,0,0,.78-2.91l2.07.39a10.517,10.517,0,0,0-.42,1.14c-.42,1.2-.69,1.89-1.14,3.06h7.26a19.419,19.419,0,0,0,2.63-.14,11.952,11.952,0,0,0-.12,1.89c-.27,11.88-.66,15.9-1.74,18.3-.6,1.38-1.56,1.92-3.33,1.92-1.11,0-1.92-.06-3.84-.21a5.548,5.548,0,0,0-.51-2.13,22.455,22.455,0,0,0,4.26.51c1.11,0,1.53-.27,1.89-1.23a34.086,34.086,0,0,0,1.11-8.28c.15-2.4.18-4.47.21-8.88Zm3.3,12.36a31.5,31.5,0,0,0-4.56-7.59l1.53-.93a34.729,34.729,0,0,1,4.74,7.47Z"/><path class="cls-1" d="M319.1,307.1a9.4,9.4,0,0,0-.48,1.92c-.21,1-.39,1.74-.81,3.27a25.017,25.017,0,0,0,5.37-1l.09,2.07-1,.18a36.213,36.213,0,0,1-4.92.63,55.955,55.955,0,0,1-3.33,8.76c-.72,1.44-1,2-2.13,3.93-.27.42-.45.78-.6,1l-2-1.2a26.448,26.448,0,0,0,2.88-4.68,44.936,44.936,0,0,0,3.12-7.74c-.75,0-1.77.06-2.22.06H310v-2.07a18.967,18.967,0,0,0,3.57.24h2.16a30.92,30.92,0,0,0,1-5.64Zm14.25,23.28a17.169,17.169,0,0,0-5.25-4.08,6.2,6.2,0,0,1,.06,1c0,3.09-2,4.8-5.7,4.8s-5.85-1.68-5.85-4.35a4.25,4.25,0,0,1,2.79-3.81,8.783,8.783,0,0,1,3.54-.66,9.909,9.909,0,0,1,3,.45c-.15-2-.21-3.36-.21-4.11a12.115,12.115,0,0,1,.3-2.91l2,.21a9.215,9.215,0,0,0-.39,2.79,35.858,35.858,0,0,0,.33,4.56,21.572,21.572,0,0,1,5.88,3.63,3.008,3.008,0,0,0,.54.48Zm-10.56-5.37c-2.55,0-4.17,1.05-4.17,2.7s1.44,2.46,3.81,2.46c2.58,0,3.75-1,3.75-3.27,0-.36-.06-1.29-.06-1.29A8.9,8.9,0,0,0,322.79,325.01Zm10.53-8.16a32.551,32.551,0,0,0-7.95-4.08l1.11-1.68a41.3,41.3,0,0,1,7.92,4Z"/><path class="cls-1" d="M339.29,311.36a12.855,12.855,0,0,0,2.4.15h4.77a12.439,12.439,0,0,0,2.4-.15v1.92c-.72-.06-1.23-.09-2.19-.09h-5a18.867,18.867,0,0,0-2.4.12Zm1.08-4.14a10.706,10.706,0,0,0,2.16.15h3.87a10.853,10.853,0,0,0,2.16-.15v1.89a14.713,14.713,0,0,0-2.16-.12h-3.87a15.287,15.287,0,0,0-2.16.12Zm.06,26a28.86,28.86,0,0,0,.15-2.91v-4a19.074,19.074,0,0,0-.12-2.46,16.992,16.992,0,0,0,2.46.12h3.18a17.038,17.038,0,0,0,2.19-.09,21.258,21.258,0,0,0-.09,2.34v4.23a14.377,14.377,0,0,0,.15,2.4h-1.8v-1.2h-4.26v1.59Zm0-17.61a11.945,11.945,0,0,0,2,.12h3.69a11.063,11.063,0,0,0,2-.12v1.86a12.617,12.617,0,0,0-2-.12H342.5a12.385,12.385,0,0,0-2,.12Zm0,4.17a12.161,12.161,0,0,0,2,.12h3.69a11.248,11.248,0,0,0,2-.12v1.87a12.617,12.617,0,0,0-2-.12H342.5a12.617,12.617,0,0,0-2,.12Zm1.8,10.29h4.29v-4.62h-4.29Zm9.24-10.74a16.819,16.819,0,0,0-2.31.12v-1.89a14.039,14.039,0,0,0,2.37.18h4.05a12.075,12.075,0,0,0,2.31-.15v1.86a20.071,20.071,0,0,0-2.22-.12h-1.26v7.71c1.41-.45,2.22-.72,4.35-1.56l.09,1.62a57.267,57.267,0,0,1-8,2.7c-.63.18-1.05.3-1.56.48l-.51-1.95a26.03,26.03,0,0,0,3.84-.78v-8.22Zm1.2-5.88a22.454,22.454,0,0,0-3,.18v-2.07a20.9,20.9,0,0,0,3,.18h5.73c-.06-1.92-.06-1.92-.09-3.42a12.332,12.332,0,0,0-.15-1.86h2.16a10.433,10.433,0,0,0-.12,1.8v3.48h3.27a18.611,18.611,0,0,0,2.85-.18v2.09a22.126,22.126,0,0,0-3-.18H360.2a74.657,74.657,0,0,0,.69,8,21.392,21.392,0,0,0,2.49,7.59c.42.63.9,1.14,1.11,1.14s.63-1.71.72-4.35a6.18,6.18,0,0,0,1.68,1.14,14.728,14.728,0,0,1-.84,4.23c-.36.84-.84,1.26-1.47,1.26-.9,0-2.07-1-3-2.67-2-3.72-2.88-8.1-3.21-16.38Zm9.72-7a19.089,19.089,0,0,1,3.36,3.6l-1.32,1.14a15.843,15.843,0,0,0-3.3-3.72Z"/><path class="cls-1" d="M374.24,308.65a14.317,14.317,0,0,0,2.91.18c1.65,0,4.05-.09,5-.21a2.207,2.207,0,0,0,1.11-.36l1.59,1.26c-.39.54-.45.72-1.65,4.35-.66,2-.87,2.61-1.41,4.2a23.516,23.516,0,0,1,8.19,2.37,34,34,0,0,0,.36-6.09,7.247,7.247,0,0,0-.12-1.47h2.25a11.353,11.353,0,0,0-.12,1.86,41.031,41.031,0,0,1-.54,6.51c1.62.84,2.64,1.38,4.11,2.25a5.553,5.553,0,0,0,.87.45l-.81,2.31a34.6,34.6,0,0,0-4.68-3,14.168,14.168,0,0,1-3.09,5.43,16.214,16.214,0,0,1-4.77,3.66,7.734,7.734,0,0,0-1.59-1.56,13.189,13.189,0,0,0,4.86-3.45,11.668,11.668,0,0,0,2.76-5,22.106,22.106,0,0,0-8.28-2.49,58.184,58.184,0,0,1-2.82,7.23c-1.08,2.07-2.19,3-3.63,3-2.25,0-4-2.13-4-4.92a6.74,6.74,0,0,1,3.57-5.94,9.808,9.808,0,0,1,5.4-1.29c1-2.94,1.35-4.08,2.4-7.56-2.37.18-2.82.21-5.67.3a16.367,16.367,0,0,0-2.19.15Zm0,13a5,5,0,0,0-1.44,3.45c0,1.59.87,2.85,1.95,2.85,1.23,0,2.25-1.86,4.44-8.25A7.28,7.28,0,0,0,374.24,321.65Z"/><path class="cls-1" d="M410,310.91a12.705,12.705,0,0,0,1.44-4.11l2.4.42a6.372,6.372,0,0,0-.78,1.62,14.053,14.053,0,0,1-.93,2,5.093,5.093,0,0,1,.63,0c4.8-.24,7.8-.6,9.45-1.14l.18,2a9.3,9.3,0,0,0-1.2.15,97.012,97.012,0,0,1-9.9.78,22.157,22.157,0,0,1-2.7,4.26c-.3.36-.9,1-1,1.14a1.759,1.759,0,0,1-.39.3h0a.237.237,0,0,0,.06.09c1.08-.84,1.08-.84,1.38-1.05a8.007,8.007,0,0,1,4.53-1.47,3.641,3.641,0,0,1,3.993,3.249c0,.027,0,.054.007.081,2.19-.87,3.9-1.5,5.22-2a6.6,6.6,0,0,0,2-.87l1,2.1a49.8,49.8,0,0,0-8,2.64c.06.78.06,1.08.06,1.83v3a6.5,6.5,0,0,0,.06,1.08h-2q.2-2.154.18-4.32a7.948,7.948,0,0,0,0-.9c-4.08,1.92-5.64,3.33-5.64,5.13,0,2,1.86,2.85,6.09,2.85a25.147,25.147,0,0,0,8-1.17l.27,2.31a11.811,11.811,0,0,0-1.2.15,46.607,46.607,0,0,1-7.29.6c-5.37,0-8-1.53-8-4.62,0-1.65,1-3.21,3.06-4.74a23.259,23.259,0,0,1,4.47-2.4c-.24-1.65-1-2.37-2.37-2.37-1.89,0-4.26,1.11-6.69,3.18a9.919,9.919,0,0,0-2.31,2.49l-1.68-1.68a29.865,29.865,0,0,0,6.72-8.58l.27-.45a3.413,3.413,0,0,1-.57.06l-4.41-.09h-.48a5.191,5.191,0,0,0-.66,0v-2.07a42,42,0,0,0,6.42.33Z"/><path class="cls-1" d="M436,322.91c0-1.29,0-2.16.09-3.6a17.337,17.337,0,0,1-3.42,3.36,5.729,5.729,0,0,0-1.17-1.71,24.587,24.587,0,0,0,6.06-5.91,10.32,10.32,0,0,0,1.44-2.58l1.86,1a12.771,12.771,0,0,0-.9,1.29,20.29,20.29,0,0,1-2,2.7v12.19a22.509,22.509,0,0,0,.21,3.66H435.8a22.742,22.742,0,0,0,.2-3.66Zm4.14-15.63a4.952,4.952,0,0,0-.54.66,29.265,29.265,0,0,1-6.66,6.51,5.8,5.8,0,0,0-1.35-1.47,20.6,20.6,0,0,0,4-3.18,11.718,11.718,0,0,0,2.73-3.66Zm4.35,10a23.163,23.163,0,0,0-3.33.18v-2.1a22.739,22.739,0,0,0,3.33.18H455a21.171,21.171,0,0,0,3.3-.18v2.1a22.909,22.909,0,0,0-3.27-.18h-1.71v13.14c0,1.92-.72,2.43-3.36,2.43-1,0-2.37-.06-3.66-.15a7.229,7.229,0,0,0-.48-2.07,29.967,29.967,0,0,0,4.23.36c1,0,1.26-.12,1.26-.72v-13Zm-2.1-9.45a21.27,21.27,0,0,0,3.12.18h8.4a21,21,0,0,0,3.09-.18v2.1a23.128,23.128,0,0,0-3.09-.18h-8.4a23.578,23.578,0,0,0-3.12.18Z"/><path class="cls-1" d="M465.2,316.82a23.612,23.612,0,0,0,3-.51,50.1,50.1,0,0,1,9.15-1.08,9.546,9.546,0,0,1,5.16,1.14,5.339,5.339,0,0,1,2.55,4.77c0,3.21-1.83,6.06-5.16,8.1-2.28,1.38-4.23,2-8.7,2.85a7.622,7.622,0,0,0-1-2.19,18.991,18.991,0,0,0,8.43-2.43,7.342,7.342,0,0,0,2.58-2.13,6.722,6.722,0,0,0,1.53-4.08,3.64,3.64,0,0,0-1.92-3.36,8.369,8.369,0,0,0-3.69-.66,41.874,41.874,0,0,0-11.43,2Zm4.41-9.36a37.854,37.854,0,0,0,12.21,1.86l-.33,2.16a54.58,54.58,0,0,1-12.6-2Z"/><path class="cls-1" d="M502,328.55a4.49,4.49,0,1,1,0-.02Zm-7.29,0a2.8,2.8,0,1,0-.02,0h.02Z"/></g></g></svg>