<svg xmlns="http://www.w3.org/2000/svg" viewBox="0 0 754.75 333.31"><defs><style>.cls-1{fill:#fff;}.cls-2{fill:#2b89c7;}.cls-3{fill:#231815;}</style></defs><g id="レイヤー_2" data-name="レイヤー 2"><g id="レイヤー_1-2" data-name="レイヤー 1"><polygon class="cls-1" points="69.28 20 69.28 60 34.64 80 17.31 70 17.31 60 8.66 55 8.66 25 17.31 20 25.98 25 17.31 30 17.31 50 25.98 55 25.98 65 34.64 70 60.62 55 60.62 25 34.64 10 25.98 15 17.31 10 34.64 0 69.28 20"/><polygon class="cls-2" points="8.66 25 8.66 55 17.32 60 17.32 70 0 60 0 20 17.32 10 25.98 15 17.32 20 8.66 25"/><polygon class="cls-3" points="60.62 25 60.62 35 51.96 40 51.96 30 34.64 20 25.98 25 17.32 20 34.64 10 60.62 25"/><polygon class="cls-1" points="51.96 30 51.96 50 34.64 60 34.64 50 43.3 45 43.3 35 51.96 30"/><polygon class="cls-1" points="34.64 50 34.64 40 25.98 35 25.98 45 34.64 50"/><polygon class="cls-2" points="43.3 45 43.3 35 34.64 40 34.64 50 43.3 45"/><polygon class="cls-3" points="43.3 35 34.64 30 25.98 35 34.64 40 43.3 35"/><polygon class="cls-2" points="60.62 35 60.62 55 34.64 70 25.98 65 25.98 55 34.64 60 51.96 50 51.96 40 60.62 35"/><polygon class="cls-3" points="34.64 50 34.64 60 17.32 50 17.32 30 25.98 35 25.98 45 34.64 50"/><polygon class="cls-2" points="51.96 30 43.3 35 34.64 30 25.98 35 17.32 30 34.64 20 51.96 30"/><path class="cls-1" d="M116.21,35.49a19.744,19.744,0,0,1,7.64,1.94,3,3,0,0,1,1.63,2.77c0,1.52-.8,2.66-1.82,2.66-.65,0-.92-.19-1.56-1.21a23.5,23.5,0,0,0-2.81-3.39,16.147,16.147,0,0,0-3.23-2.43Zm30.81-1.37c-4.18,7.11-10.86,13.49-19.87,18.89-2.24,1.36-2.47,1.48-3.19,2.24a1.629,1.629,0,0,1-1.1.49c-1.9,0-5.17-4.29-5.17-6.8a3,3,0,0,1,.27-1.14c.87,1.75,2.16,2.81,3.38,2.81s4.29-1.33,8.24-3.61a82.478,82.478,0,0,0,17.06-13.18ZM120.54,28.2c3.72.41,6.35,1.14,7.9,2.24a2.89,2.89,0,0,1,1.45,2.66c0,1.48-.84,2.66-1.86,2.66-.65,0-.84-.19-1.64-1.45a17.176,17.176,0,0,0-6-5.73Z"/><path class="cls-1" d="M154.44,55.51a52.114,52.114,0,0,0,11.28-9.68,60.845,60.845,0,0,0,9.43-14.29,39.7,39.7,0,0,0-10.19,3,2.78,2.78,0,0,1-1.44.46c-.87,0-1.75-.69-2.74-2.13a6.469,6.469,0,0,1-1.25-3.27,1.582,1.582,0,0,1,.27-.95c1.13,1.9,2.16,2.59,4,2.59a62.567,62.567,0,0,0,8.25-1.22c2.51-.49,2.73-.61,3.68-1.21a1.655,1.655,0,0,1,1-.35,5.8,5.8,0,0,1,2.77,1.71c.84.8,1.22,1.37,1.22,1.9a1.059,1.059,0,0,1-.61,1,7.885,7.885,0,0,0-2.2,2.78,67.124,67.124,0,0,1-4.79,6.72c5,2.17,8.13,4,9.84,5.66a5,5,0,0,1,1.6,3.8c0,1.94-.88,3.38-2.05,3.38-.65,0-1.11-.45-1.56-1.52a27,27,0,0,0-8.51-10.44,41.072,41.072,0,0,1-9.08,8.32,34.745,34.745,0,0,1-8.7,4.25Z"/><path class="cls-1" d="M203.31,57.95A28.242,28.242,0,0,0,209,48.86a27.351,27.351,0,0,0,1.94-8.09,2.151,2.151,0,0,0-.61-1.75,28.518,28.518,0,0,0-7.94,2.25,3.3,3.3,0,0,1-1.63.49c-1,0-2.05-.8-3.34-2.47a4.322,4.322,0,0,1-1.11-2.43,2.151,2.151,0,0,1,.19-.8,4.1,4.1,0,0,0,3.69,2.09c1.18,0,1.82-.08,7.14-.91,3-.46,6.54-.91,11.55-1.45a9.982,9.982,0,0,0,3.31-.79,2.525,2.525,0,0,1,1.1-.31,5.844,5.844,0,0,1,2.43.8c1.44.72,2.17,1.52,2.17,2.28s-.61,1.29-1.6,1.29a3.165,3.165,0,0,1-.68-.07,47.018,47.018,0,0,0-7.07-.57,51.226,51.226,0,0,0-5.58.26c2.24,1.33,2.58,1.71,2.58,2.7,0,1.71-1.6,5.77-3.34,8.62a24,24,0,0,1-8.59,8.29Zm-.54-30.89a6.1,6.1,0,0,0,4.56,2.05,21.89,21.89,0,0,0,5.32-.84,11.524,11.524,0,0,0,3.38-1.4,2.167,2.167,0,0,1,1.18-.35,3.8,3.8,0,0,1,2.05.76c.95.65,1.41,1.26,1.41,1.87s-.5,1.1-2.21,1.48a50.689,50.689,0,0,1-9.42,1.14c-3,0-4.9-1.29-6.61-4.45Z"/><path class="cls-1" d="M256.77,39.33a32.852,32.852,0,0,1,8,6.42c1.71,1.94,2.35,3.31,2.35,4.94,0,2.16-1.21,4.1-2.54,4.1-.76,0-1.1-.42-1.49-1.82a22.255,22.255,0,0,0-1.1-3.57c-3.45,1.06-4.71,1.4-13.26,3.49-2,.5-3.19.84-4.33,1.18a3.186,3.186,0,0,0-1.1.53,1.92,1.92,0,0,1-1.14.38c-.95,0-1.82-.76-2.89-2.51a8,8,0,0,1-1.52-4,2.589,2.589,0,0,1,.27-1.14,5.289,5.289,0,0,0,1.71,2.2,3.122,3.122,0,0,0,2.05.57,5.071,5.071,0,0,0,.95-.08c1.25-2.54,3.38-7.71,4.9-11.89,1.75-4.75,2.55-7.44,2.55-8.55,0-1.33-.69-2.12-2.59-3.07a2.642,2.642,0,0,1,1.33-.31,10.368,10.368,0,0,1,4.75,1.64c1.45.87,2.25,1.78,2.25,2.54,0,.5-.2.84-.73,1.48-.76.92-.76.92-4.06,6.92-2.7,4.86-4.94,8.74-6.5,11.21,5.36-.38,13-1.29,16.83-2a28.6,28.6,0,0,0-5-8.4Z"/><path class="cls-1" d="M282.64,57.57a42.32,42.32,0,0,0,7.71-7.22,59.633,59.633,0,0,0,9.46-15.77,9.009,9.009,0,0,0,.73-2.39c0-.27-.23-.38-.69-.38a44.078,44.078,0,0,0-8.09,1.55,26.967,26.967,0,0,0-6,2.21,2.908,2.908,0,0,1-1.37.34c-1.1,0-2.35-1-3.57-2.85a5.4,5.4,0,0,1-1-2.7,2.4,2.4,0,0,1,.23-1,4,4,0,0,0,4,2.51,109.452,109.452,0,0,0,12.31-1.67c2.85-.49,3.15-.57,4.14-1.14a2.663,2.663,0,0,1,.84-.23,6,6,0,0,1,2.81,1.67c1.29,1.18,2,2.17,2,2.85a1.7,1.7,0,0,1-.68,1.37,7.729,7.729,0,0,0-1.6,2.36c-5.66,10.94-12.12,17.36-20.89,20.86Zm30.09-30.55a4.07,4.07,0,0,1-4.04,4.1h-.02a4.11,4.11,0,0,1-.405-8.21,3.908,3.908,0,0,1,.405,0,4.091,4.091,0,0,1,4.03,4.11Zm-6.84,0a2.76,2.76,0,1,0,2.74-2.78,2.72,2.72,0,0,0-2.77,2.669q0,.056,0,.111Z"/><path class="cls-1" d="M326.92,57.65a41.619,41.619,0,0,0,9-9.16,40.557,40.557,0,0,0,6-11.51,67.029,67.029,0,0,0-10.1,1.9,19.11,19.11,0,0,0-4.41,1.48,3.1,3.1,0,0,1-1.44.38c-1.6,0-4.3-3.3-4.3-5.35a1.868,1.868,0,0,1,.23-.88,4.27,4.27,0,0,0,4,2.47c1.44,0,8.17-1,13.15-1.82,2.28-.38,2.35-.42,3.23-1a1.775,1.775,0,0,1,1.06-.3,5.047,5.047,0,0,1,2.47,1.44c1.18,1,1.75,1.83,1.75,2.43s-.15.73-.72,1.18a6.909,6.909,0,0,0-1.75,2.47c-4.45,8.4-10.11,13.64-18,16.68Zm-1-30.74a5.372,5.372,0,0,0,4.18,1.94,20.4,20.4,0,0,0,8.74-2.2,1.524,1.524,0,0,1,1-.31,6.345,6.345,0,0,1,3,1.22c.68.49.95.91.95,1.44,0,.88-.61,1.18-2.93,1.56a82.9,82.9,0,0,1-9,1c-3,0-4.52-1.1-6.35-4.37Z"/><path class="cls-1" d="M362.64,29.53c4.26.68,6.53,1.33,8.32,2.47a3.572,3.572,0,0,1,1.86,3.26c0,1.79-.87,3.16-2.05,3.16-.65,0-1-.31-1.6-1.3a17.89,17.89,0,0,0-6.72-7.18Zm28.87,2.2a40.766,40.766,0,0,1-8.54,11.78,61.527,61.527,0,0,1-11,8.66,8.771,8.771,0,0,0-2.05,1.67,2.089,2.089,0,0,1-1.6.95c-1,0-2.39-1.06-3.72-2.77a7.242,7.242,0,0,1-1.83-4.22,3.047,3.047,0,0,1,.19-1c1,1.75,2.28,2.82,3.31,2.82,1.59,0,6.57-2.62,11.09-5.85a75.015,75.015,0,0,0,13.72-12.24Z"/><path class="cls-1" d="M404.71,48.26a48.523,48.523,0,0,0,5.77-.57c4-.5,6.57-.69,13.45-1.1a10.332,10.332,0,0,0,3.12-.5,4.456,4.456,0,0,1,1.25-.26,5.458,5.458,0,0,1,2.81,1.29,3.359,3.359,0,0,1,1.71,2.47,1.489,1.489,0,0,1-1.5,1.48h-.02a12.049,12.049,0,0,1-2.05-.34,40.256,40.256,0,0,0-8.66-1c-5.13,0-10.83,1-14.14,2.47a3.061,3.061,0,0,1-1.48.38c-1.22,0-2.73-1.14-3.91-3a7.2,7.2,0,0,1-1.18-3.19c0-.23,0-.23.23-.92A5,5,0,0,0,404.71,48.26Zm1.52-17.33c1.67,1.6,2.54,2,4.59,2a29.678,29.678,0,0,0,7.15-1,14.485,14.485,0,0,0,3.3-1.21,1.62,1.62,0,0,1,.91-.31,5.458,5.458,0,0,1,2.93,1.37,1.852,1.852,0,0,1,.87,1.48c0,1-.61,1.33-3.08,1.71a70.954,70.954,0,0,1-10.14,1,6.511,6.511,0,0,1-4.94-1.86,11.279,11.279,0,0,1-1.94-2.85Z"/><path class="cls-1" d="M444.34,29.53c4.25.68,6.53,1.33,8.32,2.47a3.572,3.572,0,0,1,1.86,3.26c0,1.79-.87,3.16-2.05,3.16-.65,0-1-.31-1.6-1.3a17.89,17.89,0,0,0-6.72-7.18Zm28.87,2.2a40.759,40.759,0,0,1-8.57,11.78,61.527,61.527,0,0,1-11,8.66,8.746,8.746,0,0,0-2.05,1.67,2.089,2.089,0,0,1-1.6.95c-1,0-2.39-1.06-3.72-2.77a7.242,7.242,0,0,1-1.83-4.22,3.047,3.047,0,0,1,.19-1c1,1.75,2.28,2.82,3.31,2.82,1.59,0,6.57-2.62,11.09-5.85a75.015,75.015,0,0,0,13.72-12.24Z"/><path class="cls-1" d="M482.64,44a45.416,45.416,0,0,0,9.73-11.74c1.18-2,1.63-3,1.63-3.76a1.86,1.86,0,0,0-.53-1.37,4.07,4.07,0,0,0-1.79-1.29,2.181,2.181,0,0,1,1-.23,10.132,10.132,0,0,1,5.06,2,2.49,2.49,0,0,1,1.21,1.78c0,.53-.08.69-1,1.9-.31.34-.5.61-1.07,1.37a4.8,4.8,0,0,0,.8.11,28.833,28.833,0,0,0,4.48-.68,5.859,5.859,0,0,0,2.4-.91,1.861,1.861,0,0,1,.79-.23,4.932,4.932,0,0,1,2.63,1.56c1,1,1.48,1.74,1.48,2.35a1.462,1.462,0,0,1-.73,1.22c-.75.57-.87.68-1.93,2.47-5.63,9.91-13.57,16.53-23.18,19.3l-.19-.42a44.616,44.616,0,0,0,10.94-8.59,47.483,47.483,0,0,0,9.5-14.17c.08-.22.12-.38.15-.45a.631.631,0,0,0,.08-.23.17.17,0,0,0-.11-.15h-.27a.256.256,0,0,0-.15,0,1.764,1.764,0,0,1-.61.11,16.163,16.163,0,0,0-2.7.65c-.53.19-1,.34-1.44.45a3.691,3.691,0,0,1-.5.08,3.632,3.632,0,0,1-2.35-1.33,35.147,35.147,0,0,1-13,10.56Zm23.71-18.24a14.239,14.239,0,0,1,4.07,1.83c1.74,1.18,2.54,2.28,2.54,3.49,0,.88-.45,1.49-1.14,1.49-.53,0-.8-.23-1.33-1.11a16.873,16.873,0,0,0-4.48-5Zm3.88-3a13.061,13.061,0,0,1,4.44,1.67c1.52,1,2.2,1.86,2.2,2.93,0,.91-.45,1.52-1.14,1.52-.41,0-.68-.23-1.25-1a15.989,15.989,0,0,0-4.56-4.48Z"/><path class="cls-1" d="M530.33,27.7a32.472,32.472,0,0,1-3.42,10l.31.31h3.11c.84-.95,1.1-1.26,2-2.25,1.14,1,1.49,1.22,2.55,2.17.27.27.38.42.38.57s-.19.38-.95.84v5.43c0,4.82,0,4.82.15,9a.79.79,0,0,1-.68.84,7.385,7.385,0,0,1-2,.27c-.91,0-1.14-.16-1.14-.76V52.79h-3v3.57a.719.719,0,0,1-.57.76,10.988,10.988,0,0,1-2.25.26c-.79,0-1.1-.19-1.1-.72.12-5.51.19-8.4.19-8.7V42.34a28.679,28.679,0,0,1-3.49,3.84l-.27-.31a46.578,46.578,0,0,0,5.74-18.2h-2.25a9.494,9.494,0,0,0-2.21.23l-.23-1.33a9.171,9.171,0,0,0,2.44.3h6.07c1.07-1.29,1.37-1.67,2.47-2.85,1.56,1.3,2,1.71,3.54,3.12.15.15.19.23.19.34s-.15.19-.42.19Zm-2.69,24.32h3.07V38.83h-3.07Zm24.12-13h.38c.88-1.22,1.18-1.56,2.13-2.74,1.33,1.25,1.71,1.67,3,3,.15.15.19.23.19.34s-.15.19-.38.19h-5.32v4.72c0,4.74,0,5.2.19,13.18a.74.74,0,0,1-.592.863l-.048.007a13.262,13.262,0,0,1-2.66.23c-1,0-1.26-.15-1.26-.8.19-8.13.19-8.7.19-13.48V39.81h-4.59c-.31,6.73-1,9.73-3.08,12.81s-4.45,4.79-8.78,6.61l-.23-.38a19.008,19.008,0,0,0,4.3-4.14,18.712,18.712,0,0,0,3.3-9c.19-1.41.31-3.39.38-5.86h-1.14a12.775,12.775,0,0,0-2,.19l-.23-1.25a9.156,9.156,0,0,0,2.36.27h1.06v-12h-.19a15.714,15.714,0,0,0-2.47.19l-.23-1.33a10.341,10.341,0,0,0,2.74.34h11.51c.91-1,1.82-1.94,2.66-2.81,1.59,1.22,2.05,1.63,3.61,3,.19.16.27.27.27.38s-.23.27-.5.27h-4.56Zm-8.62-12c0,6.61,0,9.57-.12,12h4.56v-12Z"/><path class="cls-1" d="M574.49,44.31a24.667,24.667,0,0,0,.34-4.07,11.726,11.726,0,0,0-.11-1.9c1.29.11,2.28.19,2.92.27h.15c2.28.19,3.2.45,3.2.83s-.54.69-1.75,1c-.23,2-.34,2.7-.53,3.8l4.74-.08,2.17-2.24,1.71,1.18c.34.27.84.61,1.52,1.06.38.31.53.5.53.69s-.26.49-.68.76a6.613,6.613,0,0,0-.8.49v7.64c0,.68.11.8,1.1.8a11.365,11.365,0,0,0,3.19-.27c.61-.19,1.11-1.1,1.71-3.12.38-1.32.42-1.44,1.33-4.52l.46.08-.23,6a.379.379,0,0,1,0,.15c0,.76.07.92.61,1.14a1.79,1.79,0,0,1,1.33,1.79c0,1.29-.95,2-2.89,2.09-1.71.15-4.26.23-6.08.23a8.834,8.834,0,0,1-3.72-.5,2.271,2.271,0,0,1-1-2.16L583.82,45l-5.28.08c-.87,4.14-2.39,6.83-5.2,9.19a19,19,0,0,1-6.42,3.46c-1.14.34-1.71.49-4.52,1.18l-.16-.35c7.45-3.34,10.64-6.91,12-13.41l-6.8.08a19.263,19.263,0,0,0-2.17.22l-.38-1.29a14.775,14.775,0,0,0,2.51.23h.24Zm3-14.44a12.774,12.774,0,0,1-.91,4c-1.75,4.44-6.54,7.33-13.64,8.2l-.19-.41c4.26-1.49,6.46-2.93,8.32-5.4a10.6,10.6,0,0,0,2.17-6.38h-5.17v.64a8,8,0,0,1-.65,3.54,3.65,3.65,0,0,1-3,2.24c-1.14,0-2-1.1-2-2.66a1.69,1.69,0,0,1,1.21-1.86c2.13-1.07,2.93-2.21,3.5-5.06h.41a12.357,12.357,0,0,1,.42,2.36h9.24V26.65a16.863,16.863,0,0,0-.16-2.47c4.79.46,5.13.49,5.59.65s.57.26.57.45c0,.38-.53.69-1.6,1v2.81h8.36c1-1,1.26-1.33,2.28-2.32,1.79,1.37,2.32,1.83,4.07,3.31.34.34.45.45.45.64,0,.38-.45.61-1.25.61a12.57,12.57,0,0,1-1.44-.07c-1.87,1.14-4,2.35-5.13,2.92l-.35-.19a30.007,30.007,0,0,0,1.68-4.1h-5.33v5.76c0,.6.19.72,1.21.79h3.38c1.75,0,2.36-.15,2.78-.68a22.551,22.551,0,0,0,1.78-3.57h.38l-.15,2.59v.26c0,.72,0,.72,1,1.14a1.261,1.261,0,0,1,.91,1.22c0,1.14-.72,1.71-2.59,1.94-.53.07-3.64.19-4.71.19h-.53c-.45,0-1.71,0-3.61-.08-2.92,0-3.76-.61-3.76-2.43V29.84Z"/><path class="cls-1" d="M620.64,34.58a50.719,50.719,0,0,1-5.47,6c4.37-.08,5.13-.08,13-.57a29.472,29.472,0,0,0-4.1-4l.19-.27a36.548,36.548,0,0,1,6.76,2.47c2.32,1.22,3.19,2.25,3.19,3.73s-.87,3.11-1.82,3.11c-.46,0-.8-.34-1.6-1.67a20.066,20.066,0,0,0-1.82-2.47c-5.43,1.26-5.43,1.26-7.83,1.67-2.85.5-9,1.41-11.89,1.75-.15,1.06-.38,1.52-.8,1.52s-.83-1-1.74-5.51a55.753,55.753,0,0,0,6.64.23,32.782,32.782,0,0,0,2.06-6h-3.46a13.576,13.576,0,0,0-2.51.27l-.3-1.33a15.669,15.669,0,0,0,2.81.26H627.6c1-1.18,1.37-1.52,2.43-2.62l1.18.84a15.761,15.761,0,0,0,.53-2.59H609.03a9.668,9.668,0,0,1-.72,4.33,3.309,3.309,0,0,1-2.7,2.17,2.489,2.489,0,0,1-2.24-2.66,1.578,1.578,0,0,1,.57-1.37c.15-.11.15-.11,1.06-.68a6.561,6.561,0,0,0,2.36-2.28,7.859,7.859,0,0,0,.72-2.74h.46a8,8,0,0,1,.45,2.43h9.16V26.48a20.276,20.276,0,0,0-.11-2.82c5.16.35,6.19.54,6.19,1.07,0,.38-.53.68-1.79,1v2.92h9c.91-1,1.22-1.29,2.16-2.28,1.91,1.3,2.48,1.71,4.26,3.08.31.27.42.42.42.65a.538.538,0,0,1-.3.42,3.878,3.878,0,0,1-1,.19h-1.37c-.45.27-.91.5-1.14.61-1.78.95-1.82.95-2.39,1.25l2,1.52c.15.08.23.19.23.27a.239.239,0,0,1-.23.19Zm7.71,14.59c1.45-1.56,1.45-1.56,2.78-3,1.82,1.32,2.39,1.74,4.25,3.26.12.12.15.19.15.27a.332.332,0,0,1-.3.23H622.44v6.72h8.48c1.25-1.4,1.63-1.82,2.92-3.15,1.82,1.33,2.43,1.79,4.41,3.38.15.15.26.27.26.38s-.11.19-.26.19H607.13a21.322,21.322,0,0,0-3.11.27l-.31-1.37a19.025,19.025,0,0,0,3.46.3h11.06V49.97h-8.29a15.748,15.748,0,0,0-2.81.22l-.3-1.29a20.255,20.255,0,0,0,3.11.27h8.29v-1.6a32.671,32.671,0,0,0-.19-3.83c1.14.11,2.12.22,2.66.3,2.81.27,3.3.38,3.3.8s-.23.49-1.56.95v3.38Z"/><path class="cls-1" d="M5.34,142.28a29.83,29.83,0,0,0-3.3.18v-2.19a22.34,22.34,0,0,0,3.3.21h8.4v-2.55a16.98,16.98,0,0,0-.21-2.73H15.9a16.07,16.07,0,0,0-.21,2.7v2.58h8.85a19.674,19.674,0,0,0,3.36-.21v2.19a32.513,32.513,0,0,0-3.36-.18h-8.1c3.36,6.06,7.38,10.26,12.36,13a8.008,8.008,0,0,0-1.38,1.95,34,34,0,0,1-6.24-5.25,28.556,28.556,0,0,1-5.61-8.43c.09,1.8.12,2.91.12,3.9v6.81h3.27a17.7,17.7,0,0,0,2.91-.15v2.1a16.547,16.547,0,0,0-3-.18H15.69v2.85a22.363,22.363,0,0,0,.21,3.45H13.53a23.815,23.815,0,0,0,.21-3.48v-2.82H10.86a16.922,16.922,0,0,0-3,.18v-2.1a18.128,18.128,0,0,0,3,.15h2.88v-6.81c0-1.11,0-2.25.12-3.87a27.984,27.984,0,0,1-5.67,8.67,32.077,32.077,0,0,1-5.7,5,5.662,5.662,0,0,0-1.41-1.77,27.368,27.368,0,0,0,7-6.09,32.8,32.8,0,0,0,4.89-7.11Z"/><path class="cls-1" d="M36.03,138.14a12.816,12.816,0,0,0-2.58.18v-2a16.052,16.052,0,0,0,2.7.18h4.89a11.7,11.7,0,0,0,2.52-.18v2a19.725,19.725,0,0,0-2.43-.12H39.27a29.363,29.363,0,0,1-2.07,7.62h3.75a13.761,13.761,0,0,0,1.86-.09,22.36,22.36,0,0,0-.09,2.4v9.27a19.644,19.644,0,0,0,.12,2.52H40.95v-1.5H37.23v3.18h-2a18.163,18.163,0,0,0,.18-2.91v-6.66c0-1.08,0-2,.09-3.36a13.719,13.719,0,0,1-2.25,3.66,5.009,5.009,0,0,0-1.08-1.8,20.406,20.406,0,0,0,4.14-7.62,21.006,21.006,0,0,0,1-4.71Zm1.2,18.6h3.72v-9.39H37.23Zm10.41-18.6a19.531,19.531,0,0,0-2.91.18v-2.07a18.355,18.355,0,0,0,3,.18h9.51a20.064,20.064,0,0,0,3-.18v2.07a15.854,15.854,0,0,0-2.92-.18h-.68v8.31h1a16.023,16.023,0,0,0,3-.18v2.13a19.673,19.673,0,0,0-3-.18h-1v10.77a21.274,21.274,0,0,0,.21,3.21H54.51a23.924,23.924,0,0,0,.21-3.21V148.22h-5c-.3,6.69-1.59,10.32-5,14.28a5.445,5.445,0,0,0-1.74-1.35c3.15-3,4.56-6.75,4.83-12.93h-.84a16.735,16.735,0,0,0-3,.18v-2.1a19.538,19.538,0,0,0,3,.15h.9v-8.31Zm2.19,7.29v1h4.89v-8.31H49.83Z"/><path class="cls-1" d="M81.02,150.11a26.557,26.557,0,0,0,3.36-.15c-.06.66-.09,1.29-.12,2.64l-.12,6.05c0,.9.33,1,2.67,1,2.1,0,2.7-.15,2.91-.69a17.526,17.526,0,0,0,.48-4.5,7.369,7.369,0,0,0,1.95.78c-.48,6-.66,6.18-5.49,6.18-3.66,0-4.44-.39-4.44-2.4v-.15l.12-7H76.76a11.5,11.5,0,0,1-2.34,4.95,13.234,13.234,0,0,1-3.21,2.88,20.239,20.239,0,0,1-5,2.46,4.628,4.628,0,0,0-1.32-1.71,18.726,18.726,0,0,0,5.76-2.7,9.8,9.8,0,0,0,4.17-5.88H70.08a21.4,21.4,0,0,0-3.24.18v-2.13a20.251,20.251,0,0,0,3.18.18h5.16a21.266,21.266,0,0,0,.21-2.52,9.989,9.989,0,0,0-.12-1.62h2.28a9.116,9.116,0,0,0-.24,1.89c-.06.72-.12,1.47-.24,2.22Zm-4-12.69a9.221,9.221,0,0,0-.21-2.16h2.34a8.765,8.765,0,0,0-.21,2.16v.93h8.91a25.477,25.477,0,0,0,3-.15,13.518,13.518,0,0,0-.12,2.07v1.53a13.911,13.911,0,0,0,.12,2.1h-2v-3.84H81.44v4.35c0,.36.06.51.21.6a5.9,5.9,0,0,0,1.92.21,5.541,5.541,0,0,0,2.43-.33c.33-.24.48-1,.51-2.43a6.266,6.266,0,0,0,1.8.57c-.15,1.89-.39,2.73-.9,3.18s-1.74.66-3.87.66c-3.15,0-3.9-.33-3.9-1.65v-5.16H75.95a8.216,8.216,0,0,1-1,3.33,8.451,8.451,0,0,1-4.74,3.81,27.718,27.718,0,0,1-2.79.87,8.181,8.181,0,0,0-1.14-1.65c3.21-.6,4.71-1.2,6-2.4a5.673,5.673,0,0,0,1.83-4H67.64v3.81h-2a14.453,14.453,0,0,0,.12-2.1v-1.5a13.518,13.518,0,0,0-.12-2.07,25.477,25.477,0,0,0,3,.15h8.31Z"/><path class="cls-1" d="M117.01,153.47a21.663,21.663,0,0,0,3.18-.15v2a22.231,22.231,0,0,0-3.18-.15h-6.37v4.23h8.82a22.826,22.826,0,0,0,3.75-.21v2.1a32.483,32.483,0,0,0-3.87-.18h-18.7a32.7,32.7,0,0,0-3.87.18v-2.1a23.191,23.191,0,0,0,3.78.21h8.22v-4.25h-5.76a22.073,22.073,0,0,0-3.21.15v-2a21.259,21.259,0,0,0,3.21.15h5.76V153a14.931,14.931,0,0,0-.18-2.37h2.25a14.358,14.358,0,0,0-.18,2.37v.45Zm-8.37-16.44a11.758,11.758,0,0,0-.18-2h2.31a10.735,10.735,0,0,0-.18,2v.78h7.83a34.393,34.393,0,0,0,4-.12,13.547,13.547,0,0,0-.12,2.13v1.5a13.115,13.115,0,0,0,.12,2h-2v-3.87h-21v3.87h-2v-.36a13.964,13.964,0,0,0,.09-1.71v-1.59a15.188,15.188,0,0,0-.12-2q1.855.153,3.72.12h7.53Zm-4.44,7a24.213,24.213,0,0,0-3.51.15v-1.92a22.991,22.991,0,0,0,3.42.15h11.64a23.813,23.813,0,0,0,3.45-.15v1.92a23.828,23.828,0,0,0-3.42-.15h-7.71a29.458,29.458,0,0,1-2.43,4.22c3.33-.09,5.85-.24,10-.54a29.35,29.35,0,0,0-2.76-2.16l1.44-.93a52.245,52.245,0,0,1,6.36,5.37l-1.44,1.23a24.2,24.2,0,0,0-2.07-2.13c-5.34.45-11.49.81-17.07,1a7.032,7.032,0,0,0-1.14.12l-.3-1.92q.927.092,1.86.09c1,0,1.68,0,3.12-.06a28.146,28.146,0,0,0,2.46-4.26Z"/><path class="cls-1" d="M129.24,140.24h1.08a14.633,14.633,0,0,0,1.71-.09c1.69-.12,1.87-.15,5.55-.36l4.71-.3c3.69-.21,4.08-.24,5.07-.27l1.71-.06a20.264,20.264,0,0,0,3.57-.33l.18,2.22a12.573,12.573,0,0,0-3.36.42,14.767,14.767,0,0,0-5.76,3,9.17,9.17,0,0,0-3.69,6.93c0,2.52,1.53,4.53,4.2,5.55a15.381,15.381,0,0,0,4.5,1h.3l-.39,2.43c-.33-.06-.39-.09-.93-.18a15.131,15.131,0,0,1-6.48-2.31,7.261,7.261,0,0,1-3.33-6.12c0-3.48,2-6.78,5.61-9.21a19.664,19.664,0,0,1,2.85-1.59,61.352,61.352,0,0,1-6.6.66,99.521,99.521,0,0,0-10.34,1Zm20.07,4.47a22.736,22.736,0,0,1,3.09,4.65l-1.53.9a21.1,21.1,0,0,0-3.06-4.77Zm3.39-1.65a24.326,24.326,0,0,1,3.09,4.68l-1.5.84a23.706,23.706,0,0,0-3.06-4.71Z"/><path class="cls-1" d="M166.23,136.94c-1.29,3-2.31,9.15-2.31,14.07,0,1,.06,2.82.12,4.2v1.44h.12a26.628,26.628,0,0,1,1.77-5.28,4.148,4.148,0,0,0,.24-.6l1.47.69c-1.41,2.94-2.58,6.75-2.58,8.52a3.272,3.272,0,0,0,.06.6l-2.13.21a7.551,7.551,0,0,0-.18-1.11,47.821,47.821,0,0,1-.84-8.91,50.869,50.869,0,0,1,1.56-12.33,13.762,13.762,0,0,0,.33-1.89Zm3,5.58a20.763,20.763,0,0,0,5.4.48c1.17,0,2,0,3.21-.09v-5.1a6.665,6.665,0,0,0-.09-1.23H180a30.631,30.631,0,0,0-.21,4.71v1.47a20.44,20.44,0,0,0,5.19-1.11l.09,2c-.06,0-.06,0-2.1.42a28.668,28.668,0,0,1-3.18.48c0,3,.09,4.5.33,8.49a21.721,21.721,0,0,1,5,2.94c.36.24.42.3.75.51l-.93,2.1a16.2,16.2,0,0,0-4.26-3.12,1.938,1.938,0,0,1-.3-.18l-.27-.18a4.251,4.251,0,0,1,.06.78,5.18,5.18,0,0,1-.36,2c-.72,1.59-2.55,2.52-5,2.52-3.48,0-5.67-1.65-5.67-4.26s2.37-4.26,5.7-4.26a8.468,8.468,0,0,1,3.33.6c-.09-.63-.21-3.45-.3-7.83-1.35.06-2.28.09-3.42.09s-2.34,0-3.39-.09a7.965,7.965,0,0,0-1-.06,4.339,4.339,0,0,0-.51,0,1.368,1.368,0,0,0-.3,0h-.12Zm5.76,11.25c-2.34,0-3.87,1-3.87,2.49s1.41,2.39,3.52,2.39a4.13,4.13,0,0,0,3.06-1,3.5,3.5,0,0,0,.57-2.34v-.9a7.758,7.758,0,0,0-3.25-.64Z"/><path class="cls-1" d="M212.72,139.13a3.2,3.2,0,0,1-.12-.87,3.41,3.41,0,1,1,3.43,3.39h-.04a3.555,3.555,0,0,1-1.05-.15l-.06.18c-1.47,5.34-3.39,9.09-6.12,11.94a27.847,27.847,0,0,1-10.92,7.11,5.944,5.944,0,0,0-1.47-2.07,22.5,22.5,0,0,0,16.27-17.49H197.33a22.2,22.2,0,0,0-3.36.18v-2.4a21.343,21.343,0,0,0,3.39.18Zm1.14-.9a2.15,2.15,0,1,0,2.17-2.13h-.01a2.15,2.15,0,0,0-2.16,2.13Z"/><path class="cls-1" d="M228.43,157.65v2.13h-2.31a15.666,15.666,0,0,0,.12-2.25v-16.3a15.381,15.381,0,0,0-.12-2.34,21.763,21.763,0,0,0,2.34.09h16a15.5,15.5,0,0,0,2.34-.09,16.331,16.331,0,0,0-.09,2.34v16.23a17.622,17.622,0,0,0,.09,2.31h-2.28v-2.12Zm16.08-16.68H228.43v14.68h16.08Z"/><path class="cls-1" d="M267.01,136.01a8.131,8.131,0,0,0-.45.75c-.06.12-.27.54-.6,1.26a15.454,15.454,0,0,1-.93,1.65,6.658,6.658,0,0,1,1.11-.09l7.23-.06a14.734,14.734,0,0,0,1.83-.12l1.74,1.92a2.837,2.837,0,0,1-.15.42l-.15.42-.15.45c-3.78,9.93-8.25,14.82-17.28,19a5.073,5.073,0,0,0-1.47-1.86c4.44-1.65,9.09-4.92,11.4-8a38.215,38.215,0,0,0-6.72-4.83l1.38-1.53a41.462,41.462,0,0,1,6.63,4.65,37.651,37.651,0,0,0,4.17-8.7l-10.5.12a31,31,0,0,1-7.14,8,5.136,5.136,0,0,0-1.74-1.44,26.413,26.413,0,0,0,7.65-8.58,15.462,15.462,0,0,0,1.77-4.09Zm9.56-.51a20.482,20.482,0,0,1,3.07,4.53l-1.5.9a20.6,20.6,0,0,0-3.07-4.62Zm3.37-1.68a23.074,23.074,0,0,1,3.09,4.56l-1.5.87a20.368,20.368,0,0,0-3.06-4.59Z"/><path class="cls-1" d="M299.97,136.28a5.76,5.76,0,0,0-.66,1.23,28.665,28.665,0,0,1-1.38,2.67c.39-.09.39-.09,9.06-.24a3,3,0,0,0,1.56-.21l1.29,1.26c-.27.36-.27.39-.6,1.47a31.738,31.738,0,0,1-6,11.28,29.386,29.386,0,0,1-10.44,7.5,4.52,4.52,0,0,0-1.5-1.77,25.519,25.519,0,0,0,10.59-7.59,27.579,27.579,0,0,0,5.16-10.05l-10.11.18a28.915,28.915,0,0,1-7.17,7.8,4.465,4.465,0,0,0-1.68-1.56,22.234,22.234,0,0,0,7.53-8.22,13.6,13.6,0,0,0,1.89-4.38Z"/><path class="cls-1" d="M325.28,161.03a19.292,19.292,0,0,0,.18-3.15V139.25a17.8,17.8,0,0,0-.18-3.06h2.58a18.921,18.921,0,0,0-.15,3.12v5.61a74.394,74.394,0,0,1,13.35,6.33l-1.29,2.22a61.119,61.119,0,0,0-11.19-5.94,3.321,3.321,0,0,1-.93-.51h-.06a10.491,10.491,0,0,1,.12,1.77v9a20.359,20.359,0,0,0,.15,3.18Z"/><path class="cls-1" d="M356.24,137.18a12.08,12.08,0,0,0,.57,1.83c.59,1.77.89,2.61,1.31,4a53.327,53.327,0,0,1,6.45-1.68,41.641,41.641,0,0,0-.12-5.31h2.25a28.424,28.424,0,0,0-.15,4v1a15.146,15.146,0,0,1,2.25-.18c4,0,6.6,2.16,6.6,5.52,0,3.6-2.94,6.18-7.05,6.18a12.619,12.619,0,0,1-5.06-1.11v-.54a11.546,11.546,0,0,0-.18-1.71,10.2,10.2,0,0,0,5,1.38,6.081,6.081,0,0,0,3.6-1.17,3.637,3.637,0,0,0,1.44-3.06c0-2.28-1.77-3.63-4.8-3.63-2.19,0-5.43.72-9.78,2.13,1.53,5.1,2.61,9.33,3.87,15a9.488,9.488,0,0,0,.39,1.29l-2.43.54c-.15-2.46-1.83-9.69-3.78-16.2A11.528,11.528,0,0,1,355,146a28.947,28.947,0,0,0-4.1,1.65l-.79-2.13a31.838,31.838,0,0,0,4.53-1.47c.75-.27,1-.33,1.54-.48a30.156,30.156,0,0,0-2.16-5.7Z"/><path class="cls-1" d="M399.25,142.46v-2.91a20.035,20.035,0,0,0-.09-3h2.34a20.631,20.631,0,0,0-.12,2.79v3.15h2.58a21.791,21.791,0,0,0,3.51-.18v2.28a27.7,27.7,0,0,0-3.48-.15h-2.64c-.06,6.09-.36,8-1.47,10.17a12.7,12.7,0,0,1-4.89,5,22.314,22.314,0,0,1-3.48,1.53,5.379,5.379,0,0,0-1.35-1.89,13.275,13.275,0,0,0,5.73-2.94c2.1-1.89,2.94-3.87,3.21-7.5.06-1,.09-1.89.12-4.32H390.1v5a16.445,16.445,0,0,0,.12,2.43h-2.43a17.113,17.113,0,0,0,.12-2.52v-4.92h-2.52a27.7,27.7,0,0,0-3.48.15v-2.28a21.791,21.791,0,0,0,3.51.18h2.49v-3.45a17.392,17.392,0,0,0-.12-2.52h2.43a12.992,12.992,0,0,0-.12,2.43v3.54Z"/><path class="cls-1" d="M413.94,147.35a21.223,21.223,0,0,0,3.72.18h17.43a23.668,23.668,0,0,0,3.63-.15v2.43a34.393,34.393,0,0,0-3.66-.12H417.64a32.762,32.762,0,0,0-3.72.12Z"/><path class="cls-1" d="M451.28,146.81c4.74-.81,12.06-3.78,14.07-5.76l1.53,2c-.45.21-.6.27-1.29.63a46.588,46.588,0,0,1-14.31,5.07v4.9c0,2.1.12,2.79.63,3.3a3.6,3.6,0,0,0,2.28.78,31.248,31.248,0,0,0,3.54.18,59.347,59.347,0,0,0,6.87-.48,14.412,14.412,0,0,0,3-.6l.18,2.4a3.8,3.8,0,0,0-1,.09h-.39l-1.44.15c-1.92.21-5.88.42-7.95.42-3.54,0-5.52-.36-6.57-1.23a4,4,0,0,1-1.23-2.88c0-.48-.06-1.08-.06-2.34V139.65a16.709,16.709,0,0,0-.12-2.49h2.46a13.281,13.281,0,0,0-.15,2.52Zm15-11.16a22.736,22.736,0,0,1,3.09,4.65l-1.5.9a22.222,22.222,0,0,0-3.09-4.77Zm3.39-1.65a25.907,25.907,0,0,1,3.12,4.68l-1.53.84a22.469,22.469,0,0,0-3.06-4.71Z"/><path class="cls-1" d="M499.94,160.37a55.827,55.827,0,0,0-9.6-9.27,32.512,32.512,0,0,1-5.73,5.37,38.62,38.62,0,0,1-5.88,3.6,6.674,6.674,0,0,0-1.47-2,24.135,24.135,0,0,0,6.09-3.45,32.518,32.518,0,0,0,10.71-13.53c.06-.18.09-.21.15-.36a.642.642,0,0,0,.09-.21,5.089,5.089,0,0,1-.72,0l-10,.15a20.237,20.237,0,0,0-3.09.24l-.06-2.43a14.133,14.133,0,0,0,2.37.15h.78l10.71-.12a5.6,5.6,0,0,0,1.92-.24l1.26,1.29a5.6,5.6,0,0,0-.84,1.47,36.279,36.279,0,0,1-5,8.4,74.572,74.572,0,0,1,10,9Z"/><path class="cls-1" d="M517.15,139.91a12.705,12.705,0,0,0,1.44-4.11l2.4.42a6.372,6.372,0,0,0-.78,1.62,14.053,14.053,0,0,1-.93,2,5.093,5.093,0,0,1,.63,0c4.8-.24,7.8-.6,9.45-1.14l.18,2a9.3,9.3,0,0,0-1.2.15,97.012,97.012,0,0,1-9.9.78,22.157,22.157,0,0,1-2.7,4.26c-.3.36-.9,1.05-1,1.14s-.36.27-.39.3h0a.237.237,0,0,0,.06.09,8.3,8.3,0,0,1,1.38-1,8.007,8.007,0,0,1,4.53-1.47,3.641,3.641,0,0,1,3.993,3.249c0,.027,0,.054.007.081,2.19-.87,3.9-1.5,5.22-2a6.6,6.6,0,0,0,2-.87l1,2.1a49.9,49.9,0,0,0-8,2.64c.06.78.06,1.08.06,1.83v3a6.5,6.5,0,0,0,.06,1.08h-2q.2-2.154.18-4.32a7.948,7.948,0,0,0,0-.9c-4.08,1.92-5.64,3.33-5.64,5.13,0,2,1.86,2.85,6.09,2.85a25.147,25.147,0,0,0,8-1.17l.27,2.31c-.4.03-.8.08-1.2.15a46.476,46.476,0,0,1-7.29.6c-5.37,0-8-1.53-8-4.62,0-1.65,1-3.21,3.06-4.74a23.314,23.314,0,0,1,4.47-2.4c-.24-1.65-1-2.37-2.37-2.37-1.89,0-4.26,1.11-6.69,3.18a9.936,9.936,0,0,0-2.31,2.49l-1.88-1.6a29.83,29.83,0,0,0,6.72-8.58l.27-.45a3.413,3.413,0,0,1-.57.06l-4.41-.09h-.48a5.191,5.191,0,0,0-.66,0v-2.07a42,42,0,0,0,6.42.33Z"/><path class="cls-1" d="M547.23,141.26a19.877,19.877,0,0,0,2.76-.12c-.33,3.42-.33,3.42-.54,4.74a28.063,28.063,0,0,1-2.28,8,40.5,40.5,0,0,1,3.18,3.09l-1.2,1.65a29.436,29.436,0,0,0-2.88-3.06,19.287,19.287,0,0,1-5.55,6.09,5.413,5.413,0,0,0-1.38-1.47,18.772,18.772,0,0,0,5.52-5.85,32.521,32.521,0,0,0-4.47-3.09,43.129,43.129,0,0,0,2.73-8.34h-1a14.833,14.833,0,0,0-2.4.18v-2a14.9,14.9,0,0,0,2.46.18h1.29a32.3,32.3,0,0,0,.81-5.73,1.666,1.666,0,0,0,0-.36l2.16.21a13.931,13.931,0,0,0-.33,1.74c-.18,1-.42,2.37-.78,4.14Zm-2.28,1.68a52.264,52.264,0,0,1-2.34,7.62c1.62,1.11,2.16,1.47,3.12,2.19,1.23-2.64,1.8-5,2.28-9.81Zm4.92,2.82c.42,0,.72.06,1.26.06h1c2.07-4.56,3.45-8.67,3.66-10.74l2.28.57a24.948,24.948,0,0,0-1.14,3.24c-.63,1.8-1.23,3.27-2.82,6.81,4.32-.36,5-.42,8.76-.9a35.655,35.655,0,0,0-3.3-4.74l1.65-.84a52.152,52.152,0,0,1,5.4,8.67l-1.71,1c-.57-1.26-.72-1.56-1.23-2.58-4.86.66-6.12.81-11.52,1.29a8.117,8.117,0,0,0-1.89.3Zm3.77,16.59h-2a19.517,19.517,0,0,0,.12-2.67v-7.14a22.22,22.22,0,0,0-.12-2.79,22.044,22.044,0,0,0,2.67.12h7.38a20.246,20.246,0,0,0,2.85-.12,14.46,14.46,0,0,0-.15,1.95v7.53a15.665,15.665,0,0,0,.18,3.12H562.5v-1.7h-8.86Zm0-3.45h8.88v-7.32h-8.88Z"/><path class="cls-1" d="M578.42,137.51a37.735,37.735,0,0,0,.82,5.22,14.216,14.216,0,0,1,6.41-1.5h1a33.75,33.75,0,0,0,.93-4.83l2.25.48a23.745,23.745,0,0,0-.81,3.15c-.15.51-.21.84-.36,1.41,5,.93,8,4.2,8,8.73a9.43,9.43,0,0,1-3.27,7.2,15.937,15.937,0,0,1-6.06,3c-.45.12-.6.15-1.89.45a5,5,0,0,0-1.17-2,13.608,13.608,0,0,0,4.47-1.11,9.762,9.762,0,0,0,4.5-3.27,7.378,7.378,0,0,0,1.32-4.26c0-3.66-2.19-6.06-6.33-6.93a33.957,33.957,0,0,1-5.82,11.76c-1.92,2.34-3.6,3.42-5.34,3.42-2.61,0-4.31-2.34-4.31-5.88a10.759,10.759,0,0,1,1.73-5.73,11.843,11.843,0,0,1,3-3.06c-.2-1-.57-2.73-.84-4.23a6.5,6.5,0,0,0-.39-1.59Zm-2.58,10.74a8.929,8.929,0,0,0-1.19,4.2c0,2.37,1,3.93,2.42,3.93,1.05,0,2.34-.9,3.69-2.55a41.444,41.444,0,0,1-2.81-8.07A8.9,8.9,0,0,0,575.84,148.25Zm6.31,3.93a3.824,3.824,0,0,1,.35-.66,33.884,33.884,0,0,0,3.66-8.49h-.75a11.213,11.213,0,0,0-5.79,1.53,42.447,42.447,0,0,0,2.25,7,4.815,4.815,0,0,1,.24.69Z"/><path class="cls-1" d="M603.24,154.13a30.788,30.788,0,0,1,6,6.36l-1.68,1.59a29.952,29.952,0,0,0-5.91-6.54Z"/><path class="cls-1" d="M641.96,141.65a34.813,34.813,0,0,1,4,2.7,28.456,28.456,0,0,0,5.7-5.52h-8.13a31.8,31.8,0,0,1-8.58,6,5.777,5.777,0,0,0-1.17-1.5,27.188,27.188,0,0,0,8.88-6.09,10.9,10.9,0,0,0,2.1-2.73l2.16.54c-.27.33-.3.33-1,1.14-.36.42-.48.57-1,1.11h5.72a21.681,21.681,0,0,0,2.79-.15l1,1.14a41.143,41.143,0,0,1-2.7,3.21,39.126,39.126,0,0,1-8.46,6.84,42.59,42.59,0,0,1-8.64,3.87,5.521,5.521,0,0,0-1-1.77,34.011,34.011,0,0,0,10.77-4.95,23.365,23.365,0,0,0-3.84-2.7Zm6,8a29.624,29.624,0,0,1-9.81,5.73,5.314,5.314,0,0,0-1.14-1.62,27.863,27.863,0,0,0,9.42-5,14.274,14.274,0,0,0,3.27-3.6l2,.75c-1.29,1.47-1.38,1.56-2,2.22h5.31a22.148,22.148,0,0,0,2.82-.15l1.08,1.17-.87,1.11a27.615,27.615,0,0,1-8.79,7.89c-3.42,2-6.51,3.12-12.17,4.53a6.988,6.988,0,0,0-1.09-1.89,34.831,34.831,0,0,0,12.65-4.44,19.092,19.092,0,0,0-4-2.85l1.53-1.11a36.751,36.751,0,0,1,4.11,2.91,25.847,25.847,0,0,0,5.76-5.58Z"/><path class="cls-1" d="M669.05,138.65a21.95,21.95,0,0,0-.18-3.18h2.1a20.872,20.872,0,0,0-.18,3.18V155.3h2.31V142.76a26.367,26.367,0,0,0-.15-3h2a21.181,21.181,0,0,0-.15,3v12.45a30.892,30.892,0,0,0,.12,3.36h-1.77v-1.62h-6.33v2.61h-1.89a23.474,23.474,0,0,0,.18-3.18V142.73a29.469,29.469,0,0,0-.15-3h2a20.888,20.888,0,0,0-.15,3V155.3h2.25Zm9.9,2.79a22.722,22.722,0,0,0-3.15.18v-2.07a21,21,0,0,0,3.12.18h3.3v-1.5a20.2,20.2,0,0,0-.18-3h2.19a19.546,19.546,0,0,0-.18,3v1.5h4.26a21.55,21.55,0,0,0,3.12-.18v2.1a22.17,22.17,0,0,0-3.09-.18h-4.29v4.56h2.73a11.562,11.562,0,0,0,2.07-.12l1,1.11c-.21.39-.24.48-.6,1.26a24.515,24.515,0,0,1-4.74,7.68,19.782,19.782,0,0,0,7.44,4.59,8.53,8.53,0,0,0-1.08,1.89,24.407,24.407,0,0,1-7.65-5.16,26.251,26.251,0,0,1-8.46,5.1,7.169,7.169,0,0,0-1.17-1.8,22.633,22.633,0,0,0,8.37-4.68,18.671,18.671,0,0,1-2.79-4.26,19.328,19.328,0,0,1-1.53-3.99,11.6,11.6,0,0,0-1.53.12v-1.92a18.961,18.961,0,0,0,2.52.15h3.6v-4.56Zm.51,6.24a17.669,17.669,0,0,0,3.81,6.9,20.992,20.992,0,0,0,4.23-6.9Z"/><path class="cls-1" d="M702.52,137.06a42.5,42.5,0,0,0-1.26,4.8,44.326,44.326,0,0,0-.9,9.39c0,2.34.06,4.11.18,5.7a27.872,27.872,0,0,1,2-5.85l1.44.69c-1.35,3-2.43,6.57-2.43,8.25v.45l-2.16.18c-.06-.48-.09-.63-.18-1.2a42.96,42.96,0,0,1-.78-8.49,49.654,49.654,0,0,1,1.35-11.88,16.693,16.693,0,0,0,.42-2.4Zm7.65,12.06c-1.5,1.65-2.25,3.09-2.25,4.41,0,2.22,1.89,3.3,5.76,3.3a19.734,19.734,0,0,0,6.9-1l.3,2.31a5.15,5.15,0,0,0-1,.15,31.048,31.048,0,0,1-6.15.6c-3.42,0-5.58-.72-6.87-2.28a4.244,4.244,0,0,1-.9-2.76c0-1.83.75-3.45,2.61-5.58Zm-3.81-8.88a20.368,20.368,0,0,0,5.1.45,32.224,32.224,0,0,0,8-.81l.15,2.13-2.07.27a50.762,50.762,0,0,1-6.45.39,40.114,40.114,0,0,1-4.8-.3Z"/><path class="cls-1" d="M728.55,142.85a25.59,25.59,0,0,1,4.8,3.63l-1.2,1.5a20.636,20.636,0,0,0-4.8-3.81Zm4.44,9.36a41.291,41.291,0,0,1-2.79,7.47c-.39.78-.51,1-.66,1.29a6.769,6.769,0,0,0-.33.66l-1.68-1.5c1.17-1.17,2.88-5,4-9.06Zm-3-16.62a20.661,20.661,0,0,1,4.35,3.81l-1.35,1.35a19.067,19.067,0,0,0-4.29-3.93Zm13.47,2.1a15.054,15.054,0,0,0-.15-2.7h2.16a14.871,14.871,0,0,0-.15,2.7h5.58a21.673,21.673,0,0,0,3.15-.15v2a24.645,24.645,0,0,0-3-.15H737.31v3.26a58.2,58.2,0,0,1-1.32,14.1,16.524,16.524,0,0,1-2.28,5.34,5.5,5.5,0,0,0-1.68-1.26,14.315,14.315,0,0,0,2.37-5.7,61.761,61.761,0,0,0,1.08-13.17,41.1,41.1,0,0,0-.18-4.41,17.042,17.042,0,0,0,2.82.15ZM752.13,152c-.45.57-.45.57-1,1.26a24.5,24.5,0,0,1-4,4.11,25.066,25.066,0,0,0,7.62,2.94,5.464,5.464,0,0,0-1,1.8,27.492,27.492,0,0,1-8-3.69,22.005,22.005,0,0,1-8.49,3.57,4.664,4.664,0,0,0-1-1.71,21.791,21.791,0,0,0,8.1-2.91,14.341,14.341,0,0,1-3.93-4.83,16.337,16.337,0,0,0-2.34.12v-1.89a14.07,14.07,0,0,0,2.46.18h8.09a19.37,19.37,0,0,0,2.31-.09Zm-2.19-4.83a17.153,17.153,0,0,0,.06,1.77h-6.81c-.6,0-1.5,0-2,.06,0-.54.06-1.23.06-1.8v-3h-.9a18.094,18.094,0,0,0-2.28.12v-1.83a16.27,16.27,0,0,0,2.25.15h.93v-.51a12.1,12.1,0,0,0-.15-1.92h2a13.693,13.693,0,0,0-.12,1.92v.51h5.19v-.48a14.336,14.336,0,0,0-.12-1.92h2a9.811,9.811,0,0,0-.15,1.92v.48h1.44a13.33,13.33,0,0,0,2.67-.15v1.86a19.226,19.226,0,0,0-2.67-.15h-1.4Zm-7.59,5.37a11.068,11.068,0,0,0,3.45,3.87,15.884,15.884,0,0,0,3.75-3.87Zm.66-8.4v3.24h5.19v-3.24Z"/><path class="cls-1" d="M7.08,194.75a13.867,13.867,0,0,0,2.82.18c2.49,0,6.48-.18,9.18-.39a3.062,3.062,0,0,0,1.44-.33l1.26,1.65a5.532,5.532,0,0,0-1.53,1.26,77.07,77.07,0,0,1-9.87,8.53l.06.09a15.2,15.2,0,0,1,7.35-1.86c5,0,8.22,2.46,8.22,6.3,0,4.68-4.35,7.77-11,7.77-4.23,0-6.66-1.56-6.66-4.32,0-2,1.86-3.51,4.35-3.51a6,6,0,0,1,5,2.46,8.586,8.586,0,0,1,1.38,2.88c3.15-.87,4.8-2.7,4.8-5.25,0-2.88-2.4-4.59-6.45-4.59A19.25,19.25,0,0,0,4.8,210.75l-1.35-1.92a33.311,33.311,0,0,0,4.2-3.06c3.21-2.55,7.95-6.72,10-8.76l.42-.42.12-.12.12-.12-.06-.06h-.27c-1,.18-4.56.39-9.12.54a14.666,14.666,0,0,0-1.62.15Zm5.64,17.07c-1.5,0-2.43.72-2.43,1.86a2,2,0,0,0,1.2,1.83,7.661,7.661,0,0,0,3.36.69,10.809,10.809,0,0,0,2.19-.21C16.38,213.26,14.88,211.82,12.72,211.82Z"/><path class="cls-1" d="M48.32,204.02c-.36,7.77-2.88,11.43-9.66,14.07a5.252,5.252,0,0,0-1.41-2c6.21-2.07,8.55-5.28,8.79-12.12H37.91a23.672,23.672,0,0,0-3.45.15v-2.17a19.856,19.856,0,0,0,3.48.18H55.49a19.659,19.659,0,0,0,3.48-.18v2.22a23.672,23.672,0,0,0-3.45-.15Zm-10.83-9.51a15.577,15.577,0,0,0,3.45.21H50a27.231,27.231,0,0,0,3.45-.15v2.16q-.59,0-3.42-.09H40.91a20.905,20.905,0,0,0-3.42.15Zm17.58-2.52a23.339,23.339,0,0,1,2.94,4.74l-1.53.84a22.866,22.866,0,0,0-2.91-4.86Zm3.69-1.14a24.96,24.96,0,0,1,2.94,4.74l-1.53.84a23.485,23.485,0,0,0-2.91-4.78Z"/><path class="cls-1" d="M82.95,199.7v-2.94a21.123,21.123,0,0,0-.09-3.06H85.2a22.987,22.987,0,0,0-.12,2.85v3.15h2.56a20.5,20.5,0,0,0,3.51-.18v2.28a24.084,24.084,0,0,0-3.48-.15H85.03c0,5.79-.36,8-1.47,10.17-1.62,3-4.32,5.1-8.37,6.48a5.379,5.379,0,0,0-1.35-1.89c3.93-1,7-3.33,8.16-6.36.66-1.8.84-3.6.9-8.4H73.78v5a15.665,15.665,0,0,0,.12,2.43H71.47a14.347,14.347,0,0,0,.12-2.52v-4.91H69.07a24.084,24.084,0,0,0-3.48.15v-2.28a20.6,20.6,0,0,0,3.51.18h2.54v-3.48a14.642,14.642,0,0,0-.12-2.52h2.43a15.917,15.917,0,0,0-.12,2.43v3.57Zm5-7.89a23.843,23.843,0,0,1,2.13,4.92l-1.59.54a23.116,23.116,0,0,0-2.13-5Zm3.45-1a23.269,23.269,0,0,1,2.13,4.89l-1.56.54a24,24,0,0,0-2.1-4.92Z"/><path class="cls-1" d="M121.07,194.75a6.8,6.8,0,0,0-1.32,1.26,52.809,52.809,0,0,1-7,6v12.78a19.882,19.882,0,0,0,.15,3.18h-2.61a15.665,15.665,0,0,0,.18-3.12v-11.4a46.884,46.884,0,0,1-11.58,5.25,7,7,0,0,0-1.17-2,42.232,42.232,0,0,0,15.57-7.77,25.189,25.189,0,0,0,5.73-5.67Z"/><path class="cls-1" d="M131.64,214.49a26.114,26.114,0,0,0,8.73-2.31c5.79-2.58,9.81-7,12.24-13.35a5.9,5.9,0,0,0,1.83,1.77c-2.4,5.22-5.19,8.73-9.15,11.46-3.09,2.1-6.18,3.33-11.19,4.47a15.753,15.753,0,0,0-1.8.48Zm1.92-18.6a39.087,39.087,0,0,1,7.23,5.64l-1.56,1.86a33.149,33.149,0,0,0-7.14-5.88Z"/><path class="cls-1" d="M170.09,196.91a12.705,12.705,0,0,0,1.44-4.11l2.4.42a6.372,6.372,0,0,0-.78,1.62,14.053,14.053,0,0,1-.93,2,5.093,5.093,0,0,1,.63,0c4.8-.24,7.8-.6,9.45-1.14l.18,2a9.3,9.3,0,0,0-1.2.15,97.012,97.012,0,0,1-9.9.78,22.157,22.157,0,0,1-2.7,4.26c-.3.36-.9,1.05-1,1.14s-.36.27-.39.3h0a.237.237,0,0,0,.06.09,8.3,8.3,0,0,1,1.38-1,8.007,8.007,0,0,1,4.53-1.47,3.641,3.641,0,0,1,3.993,3.249c0,.027.005.054.007.081,2.19-.87,3.9-1.5,5.22-2a6.6,6.6,0,0,0,2-.87l1,2.1a49.9,49.9,0,0,0-8,2.64c.06.78.06,1.08.06,1.83v3a6.5,6.5,0,0,0,.06,1.08h-2q.2-2.154.18-4.32a7.948,7.948,0,0,0,0-.9c-4.08,1.92-5.64,3.33-5.64,5.13,0,2,1.86,2.85,6.09,2.85a25.147,25.147,0,0,0,8-1.17l.27,2.31c-.4.03-.8.08-1.2.15a46.476,46.476,0,0,1-7.29.6c-5.37,0-8-1.53-8-4.62,0-1.65,1-3.21,3.06-4.74a23.314,23.314,0,0,1,4.47-2.4c-.24-1.65-1-2.37-2.37-2.37-1.89,0-4.26,1.11-6.69,3.18a9.936,9.936,0,0,0-2.31,2.49l-1.88-1.6a29.83,29.83,0,0,0,6.72-8.58l.27-.45a3.413,3.413,0,0,1-.57.06l-4.41-.09h-.48a5.191,5.191,0,0,0-.66,0v-2.07a42,42,0,0,0,6.42.33Z"/><path class="cls-1" d="M209.32,207.17h-5.4a13.353,13.353,0,0,0-2.43.15v-1.67a30.486,30.486,0,0,1-3,1.44v9.84c0,1.65-.66,2.13-2.94,2.13a18.9,18.9,0,0,1-2.4-.12,6.325,6.325,0,0,0-.42-1.89,18.633,18.633,0,0,0,2.82.24c.87,0,1.11-.18,1.11-.84v-8.58c-2,.84-3.24,1.35-3.63,1.53l-.54-2a18.5,18.5,0,0,0,4.17-1.38v-6.3h-1.74a21.129,21.129,0,0,0-2.22.15v-2a13.46,13.46,0,0,0,2.25.18h1.71v-2.73a19.8,19.8,0,0,0-.18-3h2.19a18.818,18.818,0,0,0-.18,3v2.79h1.32a9.21,9.21,0,0,0,2.07-.15v2a12.385,12.385,0,0,0-2-.12h-1.35v5.52a27.963,27.963,0,0,0,3.24-1.56v1.74a17.034,17.034,0,0,0,2.28.12h12.48a16.459,16.459,0,0,0,2.67-.18v2a16.8,16.8,0,0,0-2.67-.18h-5.37v3.35h4a14.609,14.609,0,0,0,2.61-.15v1.89a15.393,15.393,0,0,0-2.61-.15h-4v4.32a24.034,24.034,0,0,0,3.78.27c1.5,0,3.12-.06,4.89-.21a5.523,5.523,0,0,0-.57,1.95h-2.7c-5.13,0-7.89-.54-9.81-1.89a11.72,11.72,0,0,1-2.55-2.52,19.277,19.277,0,0,1-3.48,5.16,4.87,4.87,0,0,0-1.53-1.14,15.345,15.345,0,0,0,3.75-5.46,13.557,13.557,0,0,0,1.11-4.14l1.95.48a12.057,12.057,0,0,0-.48,1.53c-.21.66-.39,1.26-.63,1.89a8.384,8.384,0,0,0,4.44,3.57Zm-3.27-3.9a23.649,23.649,0,0,0-2.7.09c.06-.87.09-1.74.09-2.82v-4.35a25.08,25.08,0,0,0-.09-2.79,25.535,25.535,0,0,0,2.82.12h8.16a24.138,24.138,0,0,0,2.82-.12,16.882,16.882,0,0,0-.12,2.4v4.85a21.173,21.173,0,0,0,.12,2.7c-.69-.06-1.68-.09-2.88-.09Zm-.84-5.64h10v-2.52h-10Zm0,4.08h10v-2.55h-10Z"/><path class="cls-1" d="M247.52,209.57a26.463,26.463,0,0,0,3.33-.18v2a26.463,26.463,0,0,0-3.33-.18h-7.71a26.911,26.911,0,0,0,11.73,6,7.477,7.477,0,0,0-1.23,1.8,36.81,36.81,0,0,1-5.16-2.16,26.619,26.619,0,0,1-6.87-5c.06,1.2.12,2.61.12,3.24v1.29a15.982,15.982,0,0,0,.18,2.94h-2.16a17.632,17.632,0,0,0,.18-2.94v-1.29c0-.63,0-1.5.09-3.21a25.98,25.98,0,0,1-6.57,4.83,43.4,43.4,0,0,1-5,2.22,5.825,5.825,0,0,0-1.29-1.71,33.314,33.314,0,0,0,6.78-2.79,19.273,19.273,0,0,0,4.47-3.24H228a25.626,25.626,0,0,0-3.3.18v-2a25.164,25.164,0,0,0,3.27.18h8.67v-.36a13.93,13.93,0,0,0-.12-2h2a12.865,12.865,0,0,0-.12,2v.39Zm-3.18-9a11.692,11.692,0,0,1-3.45,3.42,80.843,80.843,0,0,1,8.55,2.66l-1.17,1.47a59.856,59.856,0,0,0-9.27-3.06c-3.45,1.65-7.14,2.46-13,2.85a4.573,4.573,0,0,0-.81-1.62,33.506,33.506,0,0,0,11.25-1.83c-1.95-.42-3.6-.69-6.75-1.11a25.371,25.371,0,0,0,2.85-2.79h-4.38a21.807,21.807,0,0,0-3,.18v-1.86a18.07,18.07,0,0,0,2.94.18h5.73a10.9,10.9,0,0,0,1.81-2.81l1.95.54-1.68,2.31h11.7a15.692,15.692,0,0,0,3-.18v1.86a20.752,20.752,0,0,0-3-.18Zm-7.7-6.48a10.887,10.887,0,0,0-.21-2.22h2.28a9.976,9.976,0,0,0-.21,2.22v.18h8.82a28.347,28.347,0,0,0,3-.12,9.477,9.477,0,0,0-.12,1.74v.57a13.964,13.964,0,0,0,.09,1.71h-1.92v-2.34h-21v2.31h-1.92a14.219,14.219,0,0,0,.09-1.65v-.6a10.56,10.56,0,0,0-.12-1.74c1,.09,1.77.12,3,.12h8.22Zm-1.93,6.56c-.69.78-.93,1-1.74,1.86,2.13.33,3.75.63,5.7,1.08a10.145,10.145,0,0,0,3.51-2.94Z"/><path class="cls-1" d="M271.27,194.75a10.134,10.134,0,0,0-.12-1.74h2.25a24.855,24.855,0,0,0-.15,3.75v.33c5.67,0,8-.09,9-.21v2.13a53.187,53.187,0,0,0-5.73-.15c-.45,0-.78,0-3.21.06v5.94a8.6,8.6,0,0,1,.72,3.54,9.658,9.658,0,0,1-4,7.83,19.092,19.092,0,0,1-4.79,2.42,6.594,6.594,0,0,0-1.32-1.89,15.392,15.392,0,0,0,4.86-2.25,7.772,7.772,0,0,0,3.36-6.33,4.206,4.206,0,0,1-.81,1.47,4.923,4.923,0,1,1-3.66-8.08c.09,0,.18,0,.27.01a4.608,4.608,0,0,1,3.48,1.35v-3.98c-6,.12-12.09.42-14.1.75l-.09-2.19h1.2c.87,0,.87,0,5.7-.18,2.88-.12,5.22-.18,7.26-.24Zm-1.29,9a3.838,3.838,0,0,0-2-.48,3.169,3.169,0,0,0-3.335,2.995c0,.062,0,.123,0,.185a2.9,2.9,0,0,0,2.792,3,2.694,2.694,0,0,0,.3,0,3.359,3.359,0,0,0,3.511-3.2,3.2,3.2,0,0,0,0-.339,2.17,2.17,0,0,0-1.26-2.13Z"/><path class="cls-1" d="M293.69,194.75a13.867,13.867,0,0,0,2.82.18c2.49,0,6.48-.18,9.18-.39a3.062,3.062,0,0,0,1.44-.33l1.26,1.65a5.532,5.532,0,0,0-1.53,1.26,76.993,76.993,0,0,1-9.87,8.52l.06.09a15.2,15.2,0,0,1,7.35-1.86c5,0,8.22,2.46,8.22,6.3,0,4.68-4.35,7.77-11,7.77-4.23,0-6.66-1.56-6.66-4.32,0-2,1.86-3.51,4.35-3.51a6,6,0,0,1,4.95,2.46,8.586,8.586,0,0,1,1.38,2.88c3.15-.87,4.8-2.7,4.8-5.25,0-2.88-2.4-4.59-6.45-4.59a19.25,19.25,0,0,0-12.63,5.13l-1.35-1.92a33.41,33.41,0,0,0,4.2-3.06c3.21-2.55,7.95-6.72,10-8.76l.42-.42.12-.12.12-.12-.06-.06h-.27c-1,.18-4.56.39-9.12.54a14.666,14.666,0,0,0-1.62.15Zm5.64,17.07c-1.5,0-2.43.72-2.43,1.86a2,2,0,0,0,1.2,1.83,7.661,7.661,0,0,0,3.36.69,10.809,10.809,0,0,0,2.19-.21C302.99,213.26,301.49,211.82,299.33,211.82Z"/><path class="cls-1" d="M327.98,214.55a4.5,4.5,0,1,1-4.5-4.5h.01a4.49,4.49,0,0,1,4.49,4.49Zm-7.29,0a2.79,2.79,0,1,0,2.8-2.79A2.79,2.79,0,0,0,320.69,214.55Z"/><path class="cls-1" d="M358.25,194.03a11.965,11.965,0,0,0-.18-2h2.31a11.177,11.177,0,0,0-.18,2v.62h8a19.9,19.9,0,0,0,3.18-.18v1.95a30.655,30.655,0,0,0-3.12-.12h-2.62a36.82,36.82,0,0,1-1.77,3.6h4.47a19.851,19.851,0,0,0,3.48-.18v2a25.126,25.126,0,0,0-3.48-.15H349.58c0,9.66-.84,13.77-3.36,17.43a5.492,5.492,0,0,0-1.47-1.53,12.439,12.439,0,0,0,2-4.5,41.047,41.047,0,0,0,.9-9.3,35.661,35.661,0,0,0-.12-3.93,23.265,23.265,0,0,0,3.45.18h3.39a20.459,20.459,0,0,0-1.44-3.6h-2.7a27.227,27.227,0,0,0-2.94.12v-1.95a17.712,17.712,0,0,0,3,.18h7.92Zm-4,12.87a22.4,22.4,0,0,1-3.09,4.59,5.625,5.625,0,0,0-1.47-1.23,14.622,14.622,0,0,0,3.33-4.77,12.1,12.1,0,0,0,1.08-3.12l1.95.45c-.21.45-.54,1.26-1.05,2.43h4.68v-.6a12.156,12.156,0,0,0-.15-2.31h2.11a12.407,12.407,0,0,0-.15,2.31v.6h6a16.828,16.828,0,0,0,3-.18v2a26.833,26.833,0,0,0-3-.12h-6v3.66h5a15.775,15.775,0,0,0,2.73-.15v1.89a23.476,23.476,0,0,0-2.73-.12h-5v4.38h7.74a16.268,16.268,0,0,0,2.79-.15v2a19.272,19.272,0,0,0-2.82-.18H352.1a19.308,19.308,0,0,0-2.76.18v-2a16.611,16.611,0,0,0,2.73.15h7.59v-4.38h-3.69a24.986,24.986,0,0,0-2.79.12v-1.86a20.31,20.31,0,0,0,2.79.12h3.69v-3.66Zm7.62-7a23.654,23.654,0,0,0,1.68-3.6h-8.61a24.91,24.91,0,0,1,1.44,3.6Z"/><path class="cls-1" d="M391.72,216.83c0,1.86-.57,2.22-3.36,2.22-.84,0-2.4-.06-3.45-.18a9,9,0,0,0-.63-1.92,31.153,31.153,0,0,0,3.93.33c1.38,0,1.59-.09,1.59-.72v-6h-9a23.035,23.035,0,0,0-3.15.18v-2.09a22.293,22.293,0,0,0,3.12.18h9v-.51a11.863,11.863,0,0,0-.09-1.77h1.26a25.193,25.193,0,0,0,5.37-3.39h-11a26.605,26.605,0,0,0-2.85.15v-1.96a27.2,27.2,0,0,0,2.91.15H396.2a12.977,12.977,0,0,0,2.22-.12l1.14,1.2c-.39.3-.39.3-1.05.87a34.115,34.115,0,0,1-6.84,4.44v.93h8.97a21.965,21.965,0,0,0,3.15-.18v2.07a22.843,22.843,0,0,0-3.18-.18h-8.88ZM383.64,197a20.071,20.071,0,0,0-2.82-3.9l1.8-.57a28.565,28.565,0,0,1,3.06,4.44h4.38a17.744,17.744,0,0,0-2.19-4.32l1.86-.51a25.651,25.651,0,0,1,2.28,4.83h3.3a17.888,17.888,0,0,0,3.09-4.83l1.89.81a28.031,28.031,0,0,1-2.88,4h2.34a34.245,34.245,0,0,0,3.45-.12,19.541,19.541,0,0,0-.12,2.49v2.22a16.4,16.4,0,0,0,.15,2.1h-2v-5H380.05v5h-2a15.7,15.7,0,0,0,.15-2.1v-2.22a19.541,19.541,0,0,0-.12-2.49,26.76,26.76,0,0,0,3.42.15Z"/><path class="cls-1" d="M412.11,194.78a13.73,13.73,0,0,0-.21-2.67h2.31a12.836,12.836,0,0,0-.21,2.64v5h.39a9.714,9.714,0,0,0,2.16-.15v2a14.583,14.583,0,0,0-2.13-.12H414v14.64a22.216,22.216,0,0,0,.21,3.24H411.9a20.1,20.1,0,0,0,.21-3.27V201.44h-.78a19.915,19.915,0,0,0-2.49.12v-2a13.3,13.3,0,0,0,2.49.15h.78Zm10.53,11.73a18.15,18.15,0,0,0,2.51-.12c-.06.57-.06.9-.08,1.68a58.631,58.631,0,0,1-.6,7.2c-.45,2.85-.9,3.27-3.57,3.27a11.885,11.885,0,0,1-1.44-.06,6,6,0,0,0-.39-1.89,10.862,10.862,0,0,0,2.25.27c.75,0,1.05-.21,1.2-.78a41.034,41.034,0,0,0,.75-7.92h-2.63c-.57,4.83-1.83,7.89-4.5,10.86a7.263,7.263,0,0,0-1.29-1.56c2.37-2.22,3.51-4.8,4.07-9.3h-1.4a9.9,9.9,0,0,0-1.77.12v-1.92a7.172,7.172,0,0,0,1.86.15h1.47c0-.66.06-1.14.06-1.65a9.628,9.628,0,0,0-.09-1.44h2a17.415,17.415,0,0,0-.19,2,9.914,9.914,0,0,1-.05,1.14Zm9-11.55a17.7,17.7,0,0,0,2.37-.12,11.075,11.075,0,0,0-.12,1.26,20.12,20.12,0,0,1-.87,5,2.141,2.141,0,0,1-1.29,1.17,6.707,6.707,0,0,1-1.92.18c-.84,0-1.85-.06-3-.15a6.705,6.705,0,0,0-.38-1.89,17.965,17.965,0,0,0,3.65.36c.81,0,1.14-.21,1.35-.81a14.256,14.256,0,0,0,.52-3.36h-6.61c-1.25,3.15-3.32,5-7.29,6.75a5.727,5.727,0,0,0-1.17-1.62c3.55-1.2,5.47-2.7,6.58-5.13h-3a18.382,18.382,0,0,0-2.91.15v-2a19.924,19.924,0,0,0,3,.15h3.51a10.163,10.163,0,0,0,.33-2.46,2.175,2.175,0,0,0,0-.51l2.19.12a12.025,12.025,0,0,0-.36,1.59c-.09.45-.14.72-.27,1.26Zm1.5,11.55a19.18,19.18,0,0,0,2.49-.12c0,.54-.06,1.14-.08,1.8-.25,5-.61,7.92-1.17,9.15-.4.87-1.2,1.2-2.95,1.2a12.378,12.378,0,0,1-2-.09,6,6,0,0,0-.39-1.89,13.828,13.828,0,0,0,2.69.3c.78,0,1.06-.15,1.2-.66a35.615,35.615,0,0,0,.81-8h-3.23a22.883,22.883,0,0,1-1.89,7,13.8,13.8,0,0,1-2.61,3.78,5.473,5.473,0,0,0-1.32-1.44c2.24-2,3.53-4.86,4.11-9.39h-.82a10.192,10.192,0,0,0-1.83.12v-1.92a7.877,7.877,0,0,0,1.92.15h.88c.06-.9.09-1.32.09-1.86a7.084,7.084,0,0,0-.07-1.26h2a14.774,14.774,0,0,0-.21,2.43,2.416,2.416,0,0,1-.07.69Z"/><path class="cls-1" d="M442.45,196.16a23.4,23.4,0,0,0-.12-2.7,23.791,23.791,0,0,0,2.85.12h18.51a22.713,22.713,0,0,0,2.76-.12,23.476,23.476,0,0,0-.12,2.73v20.34c0,1.8-.6,2.16-3.66,2.16-1.11,0-2.43-.06-3.9-.15a9.124,9.124,0,0,0-.45-1.95,30.415,30.415,0,0,0,4.62.36c1.14,0,1.41-.12,1.41-.66v-21H444.43v20.76a18.641,18.641,0,0,0,.21,3.21h-2.37a25.133,25.133,0,0,0,.18-3.21Zm4,2.25a12.2,12.2,0,0,0,2.43.15h11.16a12.2,12.2,0,0,0,2.43-.15v2a12.45,12.45,0,0,0-2.37-.15H448.87a13.2,13.2,0,0,0-2.4.15Zm13.71,12.63a14.88,14.88,0,0,0,.09,1.74,18.053,18.053,0,0,0-1.86-.09h-8v2.64h-2a23.993,23.993,0,0,0,.12-2.76v-7.2a17.477,17.477,0,0,0-.09-1.83c.63.06,1.23.09,2,.09h7.56a21.637,21.637,0,0,0,2.19-.09,12.891,12.891,0,0,0-.09,1.8Zm-9.75,0h7.89v-5.76h-7.89Z"/><path class="cls-1" d="M475.64,195.14a12.816,12.816,0,0,0-2.58.18v-2a16.052,16.052,0,0,0,2.7.18h4.88a11.7,11.7,0,0,0,2.52-.18v2a19.725,19.725,0,0,0-2.43-.12h-1.86a29.363,29.363,0,0,1-2.07,7.62h3.75a13.761,13.761,0,0,0,1.86-.09,22.36,22.36,0,0,0-.09,2.4v9.27a19.644,19.644,0,0,0,.12,2.52h-1.9v-1.5h-3.72v3.18h-2a18.163,18.163,0,0,0,.18-2.91v-6.66c0-1.08,0-2,.09-3.36a13.694,13.694,0,0,1-2.25,3.66,5.009,5.009,0,0,0-1.08-1.8,20.406,20.406,0,0,0,4.14-7.62,21.006,21.006,0,0,0,1-4.71Zm1.2,18.6h3.72v-9.39h-3.72Zm10.41-18.6a19.531,19.531,0,0,0-2.91.18v-2.07a18.355,18.355,0,0,0,3,.18h9.48a20.064,20.064,0,0,0,3-.18v2.07a15.746,15.746,0,0,0-2.91-.18h-.72v8.31h1a15.856,15.856,0,0,0,3-.18v2.13a19.546,19.546,0,0,0-3-.18h-1v10.77a22.822,22.822,0,0,0,.21,3.21h-2.31a22.381,22.381,0,0,0,.21-3.21V205.22h-4.95c-.3,6.69-1.59,10.32-5,14.28a5.45,5.45,0,0,0-1.71-1.35c3.15-3,4.56-6.75,4.83-12.93h-.83a16.735,16.735,0,0,0-3,.18v-2.1a19.538,19.538,0,0,0,3,.15h.9v-8.31Zm2.19,7.29v1h4.89v-8.31h-4.89Z"/><path class="cls-1" d="M520.81,207.11a26.557,26.557,0,0,0,3.36-.15c-.06.66-.09,1.29-.12,2.64l-.12,6.09c0,.9.33,1,2.67,1,2.1,0,2.7-.15,2.91-.69a17.522,17.522,0,0,0,.48-4.5,7.335,7.335,0,0,0,1.95.78c-.48,6-.66,6.18-5.49,6.18-3.66,0-4.44-.39-4.44-2.4v-.15l.12-7h-5.58a11.5,11.5,0,0,1-2.34,4.95,13.234,13.234,0,0,1-3.21,2.88,20.2,20.2,0,0,1-5,2.46,4.628,4.628,0,0,0-1.32-1.71,18.726,18.726,0,0,0,5.76-2.7,9.8,9.8,0,0,0,4.17-5.88h-4.74a21.4,21.4,0,0,0-3.24.18v-2.13a20.251,20.251,0,0,0,3.18.18h5.16a21.266,21.266,0,0,0,.21-2.52,10.1,10.1,0,0,0-.12-1.62h2.28a9.116,9.116,0,0,0-.24,1.89c-.06.72-.12,1.47-.24,2.22Zm-4-12.69a9.221,9.221,0,0,0-.21-2.16h2.34a8.765,8.765,0,0,0-.21,2.16v.93h8.91a25.477,25.477,0,0,0,3-.15,13.518,13.518,0,0,0-.12,2.07v1.53a13.911,13.911,0,0,0,.12,2.1h-2v-3.84h-7.47v4.35c0,.36.06.51.21.6a5.9,5.9,0,0,0,1.92.21,5.541,5.541,0,0,0,2.43-.33c.33-.24.48-1,.51-2.43a6.266,6.266,0,0,0,1.8.57c-.15,1.89-.39,2.73-.9,3.18s-1.74.66-3.87.66c-3.15,0-3.9-.33-3.9-1.65v-5.16h-3.63a8.236,8.236,0,0,1-1.05,3.33,8.451,8.451,0,0,1-4.74,3.81,27.718,27.718,0,0,1-2.79.87,8.181,8.181,0,0,0-1.14-1.65c3.21-.6,4.71-1.2,6-2.4a5.673,5.673,0,0,0,1.83-4h-6.39v3.81h-2a14.453,14.453,0,0,0,.12-2.1v-1.5a13.518,13.518,0,0,0-.12-2.07,25.477,25.477,0,0,0,3,.15h8.31Z"/><path class="cls-1" d="M548.58,209.12c-1.74,4-3.51,5.76-5.67,5.76-2.85,0-5-3.12-5-7.32a12.179,12.179,0,0,1,12.072-12.287q.384,0,.768.017a11.611,11.611,0,0,1,8.25,3,10,10,0,0,1,2.91,7.32,10.921,10.921,0,0,1-6.87,10.35,23.212,23.212,0,0,1-4.56,1.38,4.774,4.774,0,0,0-1.05-2,18.022,18.022,0,0,0,5-1.41,9.058,9.058,0,0,0,5.31-8.4,7.91,7.91,0,0,0-4.77-7.53,8.622,8.622,0,0,0-3.48-.75A45.02,45.02,0,0,1,548.58,209.12Zm-3.69-10.47a10.367,10.367,0,0,0-4.89,8.94c0,2.88,1.26,5.1,2.88,5.1,1.26,0,2.46-1.41,3.75-4.35a41.217,41.217,0,0,0,2.73-11.1A9.469,9.469,0,0,0,544.89,198.65Z"/><path class="cls-1" d="M589.64,196.13a3.2,3.2,0,0,1-.12-.87,3.41,3.41,0,1,1,3.43,3.39h-.04a3.526,3.526,0,0,1-1-.15l-.06.18c-1.47,5.34-3.39,9.09-6.12,11.94a27.847,27.847,0,0,1-10.92,7.11,5.944,5.944,0,0,0-1.47-2.07,22.5,22.5,0,0,0,16.23-17.49H574.24a22.2,22.2,0,0,0-3.36.18v-2.4a21.343,21.343,0,0,0,3.39.18Zm1.14-.9a2.15,2.15,0,1,0,2.17-2.13h-.01a2.15,2.15,0,0,0-2.17,2.13h.01Z"/><path class="cls-1" d="M605.55,214.65v2.13h-2.31a15.666,15.666,0,0,0,.12-2.25v-16.3a15.381,15.381,0,0,0-.12-2.34,21.763,21.763,0,0,0,2.34.09h16a15.5,15.5,0,0,0,2.34-.09,16.331,16.331,0,0,0-.09,2.34v16.23a17.622,17.622,0,0,0,.09,2.31h-2.28v-2.12Zm16.09-16.69H605.55v14.69h16.09Z"/><path class="cls-1" d="M635.75,201.32a48.086,48.086,0,0,1,7.62,3.9l-1.17,2a33.117,33.117,0,0,0-7.65-4.11Zm-.78,13.71h.18a27.245,27.245,0,0,0,7.89-1.86,21.471,21.471,0,0,0,12.6-13.44,9.487,9.487,0,0,0,1.85,1.62c-3.77,9.09-10,13.8-20.75,15.84a9.25,9.25,0,0,0-1.17.3Zm3.12-20.88a46.772,46.772,0,0,1,7.44,3.78l-1.23,2a32.4,32.4,0,0,0-7.38-4Zm15.72-1.38a23.37,23.37,0,0,1,3.05,4.65l-1.49.9a24.249,24.249,0,0,0-3.06-4.77Zm3.35-1.62a22.128,22.128,0,0,1,3.12,4.65l-1.5.87a23.029,23.029,0,0,0-3.08-4.71Z"/><path class="cls-1" d="M678.15,215.27h6.42a15.054,15.054,0,0,0,2.7-.15v2.1a21.835,21.835,0,0,0-2.73-.12H670.02a21.09,21.09,0,0,0-2.73.12v-2.13a12.216,12.216,0,0,0,2.7.18h6.09V204.89h-4.29a19.517,19.517,0,0,0-2.67.12v-2.1a15.7,15.7,0,0,0,2.67.18h11a15.2,15.2,0,0,0,2.67-.18v2.1a14.3,14.3,0,0,0-2.64-.12H678.2Z"/><path class="cls-1" d="M709.34,193.28a5.76,5.76,0,0,0-.66,1.23,28.665,28.665,0,0,1-1.38,2.67c.39-.09.39-.09,9.06-.24a3,3,0,0,0,1.56-.21l1.29,1.26c-.27.36-.27.39-.6,1.47a31.738,31.738,0,0,1-6,11.28,29.386,29.386,0,0,1-10.44,7.5,4.512,4.512,0,0,0-1.5-1.77,25.519,25.519,0,0,0,10.59-7.59,27.579,27.579,0,0,0,5.16-10.05l-10.11.18a28.915,28.915,0,0,1-7.17,7.8,4.457,4.457,0,0,0-1.68-1.56,22.234,22.234,0,0,0,7.53-8.22,13.6,13.6,0,0,0,1.89-4.38Z"/><path class="cls-1" d="M734.85,218.03a19.292,19.292,0,0,0,.18-3.15V196.25a17.8,17.8,0,0,0-.18-3.06h2.58a18.921,18.921,0,0,0-.15,3.12v5.61a74.417,74.417,0,0,1,13.36,6.33l-1.29,2.22a61.119,61.119,0,0,0-11.19-5.94,3.321,3.321,0,0,1-.93-.51h-.06a10.491,10.491,0,0,1,.12,1.77v9a20.359,20.359,0,0,0,.15,3.18Z"/><path class="cls-1" d="M8.16,251.18a12.08,12.08,0,0,0,.57,1.83c.6,1.77.9,2.61,1.32,4a53.327,53.327,0,0,1,6.45-1.68,41.641,41.641,0,0,0-.12-5.31h2.26a28.424,28.424,0,0,0-.15,4v1a15.136,15.136,0,0,1,2.25-.18c4,0,6.6,2.16,6.6,5.52,0,3.6-2.94,6.18-7,6.18a12.7,12.7,0,0,1-5.07-1.11,4.422,4.422,0,0,0,0-.54,13.273,13.273,0,0,0-.18-1.71,10.2,10.2,0,0,0,5,1.38,6.081,6.081,0,0,0,3.6-1.17,3.639,3.639,0,0,0,1.44-3.06c0-2.28-1.77-3.63-4.8-3.63-2.19,0-5.43.72-9.78,2.13,1.53,5.1,2.61,9.33,3.87,15a9.488,9.488,0,0,0,.39,1.29l-2.43.54c-.15-2.46-1.83-9.69-3.78-16.2a13.038,13.038,0,0,1-1.62.54,28.622,28.622,0,0,0-4.11,1.65l-.78-2.13a32.928,32.928,0,0,0,4.41-1.41c.75-.27,1.05-.33,1.53-.48a30.156,30.156,0,0,0-2.16-5.7Z"/><path class="cls-1" d="M33.69,257.06a27.74,27.74,0,0,1,4.89,3.78l-1.29,1.44a19.582,19.582,0,0,0-4.77-3.87Zm5.19,9.69a52.1,52.1,0,0,1-3.48,8.43c-.33.63-.33.63-.51,1l-1.71-1.35c1.14-1.2,2.82-5,4.14-9.33Zm-3.3-17.16a31.528,31.528,0,0,1,4.41,3.93l-1.35,1.41a18.861,18.861,0,0,0-4.38-4Zm20.33,2.58a23.022,23.022,0,0,0,3.91-.18v2a32.67,32.67,0,0,0-3.78-.12H44.22a26.021,26.021,0,0,1-3.9,5.46,5.354,5.354,0,0,0-1.47-1.38,17.664,17.664,0,0,0,4.56-6.57,9.539,9.539,0,0,0,.81-2.58l2.1.42a11.113,11.113,0,0,0-.45,1.17,15.407,15.407,0,0,1-.78,1.77ZM42.75,272c-.18.66-.27,1-.54,1.95l-2-.27a44.247,44.247,0,0,0,2.1-8.76h-.18a14.653,14.653,0,0,0-2.76.18v-2a16.721,16.721,0,0,0,2.88.18h.3a53.709,53.709,0,0,0,.51-5.52v-.87c.36,0,1.23.06,2.13.06h9.45a29.193,29.193,0,0,0,3.13-.12,28.959,28.959,0,0,0-.27,4.53,14.584,14.584,0,0,1-.1,1.92h.24a13.346,13.346,0,0,0,2.78-.18v2a20.185,20.185,0,0,0-2.78-.18h-.33a5.278,5.278,0,0,1-.06.84c-.09,1.26-.25,2.79-.48,4.56h.32a10.1,10.1,0,0,0,2.38-.18v2a18.97,18.97,0,0,0-2.43-.12H56.5c-.6,3.48-1.14,4.11-3.6,4.11-.69,0-1.68-.06-3.3-.18a5.156,5.156,0,0,0-.33-1.92,19.508,19.508,0,0,0,3.33.36c1.53,0,1.65-.15,2.1-2.37Zm1.38-7.08c-.18,1.44-.39,2.49-1,5.4h4.83a50.45,50.45,0,0,0,.81-5.4Zm4.86-1.68c.21-2.07.21-2.28.33-4.71h-4.5c-.15,2-.21,2.67-.45,4.71Zm1.56,1.68c-.3,2.46-.3,2.46-.81,5.4h5.25c.21-1.65.36-3,.54-5.4Zm5.1-1.68c.06-1.2.12-2.91.15-4.71H51.09q-.225,3-.36,4.71Z"/><path class="cls-1" d="M71.18,259.88a25.061,25.061,0,0,1,4.08,3.66,34.283,34.283,0,0,0,2.46-8.28H72.08a30.309,30.309,0,0,1-5.85,9.3,5.192,5.192,0,0,0-1.32-1.59,26.222,26.222,0,0,0,6.12-10.17,19.686,19.686,0,0,0,1-3.75l2.16.42a12.468,12.468,0,0,0-.6,1.71c-.24.78-.39,1.23-.81,2.37h4.68a17.424,17.424,0,0,0,2.37-.09c-.06.39-.09.51-.12.84a18.007,18.007,0,0,0,3.66,6.54v-8.43a20.354,20.354,0,0,0-.21-3.12h2.31a20.1,20.1,0,0,0-.21,3.12v10.24a25.845,25.845,0,0,0,7.38,4.7,7.689,7.689,0,0,0-1.26,1.89,23.545,23.545,0,0,1-6.18-4.2v7.61a25.154,25.154,0,0,0,.21,3.66H83.1a25.893,25.893,0,0,0,.21-3.66v-9.27a19.792,19.792,0,0,1-4.14-6.33,31.657,31.657,0,0,1-3.53,10.09,29.552,29.552,0,0,1-8.4,9,5.929,5.929,0,0,0-1.47-1.65,25.4,25.4,0,0,0,8.67-9.27,21.11,21.11,0,0,0-4.35-4Z"/><path class="cls-1" d="M99.76,262.22a16.176,16.176,0,0,0,.12-2.43v-5.14a16,16,0,0,0-.09-2.25c.66.06,1.59.12,2.31.12h15.54a5.3,5.3,0,0,0,2.13-.24l1.23,1.17a3.686,3.686,0,0,0-.45,1.68c-.9,6.87-2.4,10.62-5.64,14a22.846,22.846,0,0,1-8.58,5.49,6,6,0,0,0-1.44-2c4.86-1.68,8.07-4,10.2-7.32,1.68-2.61,2.52-5.58,3.12-10.77h-16v5.22a11.273,11.273,0,0,0,.09,2.49Z"/><path class="cls-1" d="M129.15,261.35a21.223,21.223,0,0,0,3.72.18H150.3a23.668,23.668,0,0,0,3.63-.15v2.43a34.393,34.393,0,0,0-3.66-.12h-17.4a33,33,0,0,0-3.72.12Z"/><path class="cls-1" d="M173.4,250.28a5.76,5.76,0,0,0-.66,1.23,28.665,28.665,0,0,1-1.38,2.67c.39-.09.39-.09,9.06-.24a3,3,0,0,0,1.56-.21l1.29,1.26c-.27.36-.27.39-.6,1.47a31.738,31.738,0,0,1-6,11.28,29.386,29.386,0,0,1-10.44,7.5,4.528,4.528,0,0,0-1.5-1.77,25.519,25.519,0,0,0,10.59-7.59,27.579,27.579,0,0,0,5.16-10.05l-10.11.18a28.915,28.915,0,0,1-7.17,7.8,4.465,4.465,0,0,0-1.68-1.56,22.234,22.234,0,0,0,7.53-8.22,13.6,13.6,0,0,0,1.89-4.38Z"/><path class="cls-1" d="M195.35,258.2a45.756,45.756,0,0,1,7.62,3.93l-1.17,2a33.311,33.311,0,0,0-7.65-4.11Zm-.78,13.71a25.951,25.951,0,0,0,8.07-1.86,19.763,19.763,0,0,0,9-6.69,22.335,22.335,0,0,0,3.6-6.72,9.031,9.031,0,0,0,1.86,1.59c-2.61,6.24-6.27,10.32-11.55,12.93a34.261,34.261,0,0,1-7.59,2.58l-1.62.33a6.99,6.99,0,0,0-1.17.33Zm3.12-20.88a44.35,44.35,0,0,1,7.44,3.78l-1.23,2a31.573,31.573,0,0,0-7.38-4Z"/><path class="cls-1" d="M230.53,274.22a13.4,13.4,0,0,0-2.61.12v-2.1a15.4,15.4,0,0,0,2.61.18h11.52v-5.64H231.49a13.252,13.252,0,0,0-2.58.12v-2a15,15,0,0,0,2.61.18h10.53v-5.22H230.83a13.561,13.561,0,0,0-2.61.12v-2.07a14.9,14.9,0,0,0,2.61.18h11.16a17.2,17.2,0,0,0,2-.06V273.9a9.5,9.5,0,0,0,.12,1.86h-2.07v-1.5Z"/><path class="cls-1" d="M260.64,257.65a32.94,32.94,0,0,1,3,6.66l-2,.69a24.76,24.76,0,0,0-2.82-6.72Zm16.92-.18a17.728,17.728,0,0,0-.66,2.43,27.019,27.019,0,0,1-2.66,6.75c-2.13,3.66-5.28,6.42-9.93,8.67a6.075,6.075,0,0,0-1.38-1.68c4.62-2.07,7.44-4.38,9.51-7.83a22.928,22.928,0,0,0,2.55-6.45,12.662,12.662,0,0,0,.33-2v-.3Zm-10.8-1a30.105,30.105,0,0,1,2.91,6.45l-2,.69a26.312,26.312,0,0,0-2.76-6.57Z"/><path class="cls-1" d="M307.64,253.13a3.2,3.2,0,0,1-.12-.87,3.41,3.41,0,1,1,3.43,3.39h-.04a3.526,3.526,0,0,1-1-.15l-.06.18c-1.47,5.34-3.39,9.09-6.12,11.94a27.847,27.847,0,0,1-10.92,7.11,5.944,5.944,0,0,0-1.47-2.07,22.5,22.5,0,0,0,16.23-17.49H292.26a22.2,22.2,0,0,0-3.36.18v-2.4a21.343,21.343,0,0,0,3.39.18Zm1.14-.9a2.15,2.15,0,1,0,2.17-2.13h-.01a2.15,2.15,0,0,0-2.15,2.13Z"/><path class="cls-1" d="M324.64,251.06a42.5,42.5,0,0,0-1.26,4.8,44.326,44.326,0,0,0-.9,9.39c0,2.34.06,4.11.18,5.7a27.92,27.92,0,0,1,1.95-5.85l1.44.69c-1.35,3-2.43,6.57-2.43,8.25v.45l-2.16.18c-.06-.48-.09-.63-.18-1.2a42.96,42.96,0,0,1-.78-8.49,49.654,49.654,0,0,1,1.35-11.88,16.693,16.693,0,0,0,.42-2.4Zm7.65,12.06c-1.5,1.65-2.25,3.09-2.25,4.41,0,2.22,1.89,3.3,5.76,3.3a19.734,19.734,0,0,0,6.9-1l.3,2.31a6.172,6.172,0,0,0-1.05.15,31.048,31.048,0,0,1-6.15.6c-3.42,0-5.58-.72-6.87-2.28a4.244,4.244,0,0,1-.9-2.76c0-1.83.75-3.45,2.61-5.58Zm-3.81-8.88a20.368,20.368,0,0,0,5.1.45,32.224,32.224,0,0,0,8-.81l.15,2.13-2.07.27a50.762,50.762,0,0,1-6.45.39,40.114,40.114,0,0,1-4.8-.3Z"/><path class="cls-1" d="M359.64,258.17a7.933,7.933,0,0,0,1.41-2.43l2.13.45c-.54.84-.87,1.35-1.34,2h11.21a21.033,21.033,0,0,0,3.27-.18v2a28.732,28.732,0,0,0-3.24-.15h-5.67c1.86,2.13,5.28,3.93,9.57,5a5.32,5.32,0,0,0-1.14,1.74c-4.89-1.65-8.58-4-10.62-6.75h-4.74c-2.55,2.85-5.22,4.53-9.93,6.3a4.767,4.767,0,0,0-1.22-1.59c4.1-1.23,6.53-2.52,8.84-4.71H353.1a30.821,30.821,0,0,0-3.3.15v-2a21.411,21.411,0,0,0,3.28.18Zm-7.86-4.41c.79.09,2.47.18,3.31.18h1.5a17.369,17.369,0,0,0,3.35-5.13l2,.63-.6.9a36.837,36.837,0,0,1-2.67,3.57c3.66-.06,7.56-.27,10.8-.54a39.367,39.367,0,0,0-3.5-2.46l1.4-.93a49.877,49.877,0,0,1,7.27,5.67l-1.47,1.17c-1.14-1.17-1.47-1.5-2.13-2.13-5.22.54-10.89.84-17.31.93a11.3,11.3,0,0,0-1.56.09Zm13.86,8.89c-2.37,1.62-2.37,1.62-3.45,2.25a27.933,27.933,0,0,1-8.13,3.15,4,4,0,0,0-.92-1.59,23.15,23.15,0,0,0,8.93-3.42,10.528,10.528,0,0,0,1.95-1.59Zm3.45,3.18c-.24.15-.24.15-1.17.81a33.761,33.761,0,0,1-13.53,5.55,4.165,4.165,0,0,0-1-1.68,30.008,30.008,0,0,0,11.46-3.9,9.283,9.283,0,0,0,2.58-2Zm3.81,3.45-1,.66a30,30,0,0,1-8,4.44,45.586,45.586,0,0,1-9,2.37,4.538,4.538,0,0,0-1-1.8,33.562,33.562,0,0,0,13.94-4.3,12.631,12.631,0,0,0,3.24-2.64Z"/><path class="cls-1" d="M399.64,255.53a19.541,19.541,0,0,0,2.49-.12,15.47,15.47,0,0,0-.12,2.13v10.68a15.351,15.351,0,0,0,.12,2.1,21.793,21.793,0,0,0-2.58-.12h-9.81a21.793,21.793,0,0,0-2.58.12,15.351,15.351,0,0,0,.12-2.1V257.54a15.47,15.47,0,0,0-.12-2.13,19.915,19.915,0,0,0,2.49.12h4v-3.66h-9.01a25.5,25.5,0,0,0-3.15.18v-2.07a22.568,22.568,0,0,0,3.15.18h20.22a23.69,23.69,0,0,0,3.15-.18v2.07a24.745,24.745,0,0,0-3.15-.18H395.5v3.66Zm7.74.69a23.128,23.128,0,0,0-.18,3.09v13.53a26.723,26.723,0,0,0,.18,3.6h-2.1v-1.71H384.19v1.71h-2.1a27.177,27.177,0,0,0,.18-3.63v-13.5a22.481,22.481,0,0,0-.18-3.09h2.25a17.344,17.344,0,0,0-.18,2.88v13.92h21.18v-14a18.361,18.361,0,0,0-.18-2.85Zm-18.39.93v4.56h4.65v-4.56Zm0,6.15v5.35h4.65v-5.31Zm6.45-1.59h4.83v-4.56h-4.83Zm0,6.9h4.83V263.3h-4.83Z"/><path class="cls-1" d="M420.9,250.7a46.206,46.206,0,0,0-.39,6.33c-.12,3.6-.21,7.68-.21,9,0,.36,0,1.11.06,1.8a4.721,4.721,0,0,0,1.41,3.6,5.661,5.661,0,0,0,3.75,1.17,8.619,8.619,0,0,0,8-5.22,17.805,17.805,0,0,0,1.47-4.71,8.469,8.469,0,0,0,2.16,1.44c-1.14,3.51-2,5.28-3.33,6.81a10.5,10.5,0,0,1-8.46,3.75c-2.55,0-4.44-.72-5.64-2.1s-1.65-3-1.65-6.15c0-2,0-2.76.27-12.21v-2a9.2,9.2,0,0,0-.12-1.59Z"/><path class="cls-1" d="M445.02,268.13a30.583,30.583,0,0,1,6,6.36l-1.68,1.59a29.952,29.952,0,0,0-5.91-6.54Z"/><path class="cls-1" d="M488.64,249.92a21.574,21.574,0,0,0-.18,4c0,.66,0,1,.06,3.12a29.881,29.881,0,0,0,8.79-1.14l.27,2.22a16.507,16.507,0,0,0-1.8.21,51.827,51.827,0,0,1-7.23.66c.09,2.91.24,5.82.39,7.74a25.918,25.918,0,0,1,8,4.26,13.766,13.766,0,0,0,1.38.93l-1.41,2.1a13.292,13.292,0,0,0-3.12-2.61,30.113,30.113,0,0,0-4.05-2.31,5.923,5.923,0,0,1-.72-.33,8.455,8.455,0,0,1,.12,1.29,5.364,5.364,0,0,1-.75,3c-.93,1.32-2.85,2.07-5.34,2.07-3.87,0-6.24-1.68-6.24-4.44s2.79-4.74,7-4.74a12.926,12.926,0,0,1,2.61.27c.15,0,.15.06.27.06s.06,0,.15.06a.816.816,0,0,0,0-.27v-.18c-.24-3.45-.45-9.24-.48-13.53a13.721,13.721,0,0,0-.15-2.43Zm-4.8,17.91c-3.06,0-4.92,1.08-4.92,2.82a2,2,0,0,0,.45,1.29,4.841,4.841,0,0,0,3.6,1.2,5.07,5.07,0,0,0,3.33-1,2.78,2.78,0,0,0,.72-2.25,16.241,16.241,0,0,0-.09-1.65,10.215,10.215,0,0,0-3.06-.41Z"/><path class="cls-1" d="M514.79,250.04a16.936,16.936,0,0,0-.69,3.09c-.48,3-.9,6.3-1,7.83h.12l.21-.87a13.387,13.387,0,0,1,1.83-4.47c1.68-2.58,3.66-3.87,6-3.87a5.651,5.651,0,0,1,4.8,2.67c1.26,1.86,1.8,4.08,1.8,7.29,0,5.43-2.43,9.54-6.93,11.79a22.689,22.689,0,0,1-5.34,1.77,6.2,6.2,0,0,0-1.2-2,15.852,15.852,0,0,0,6.09-1.89c3.51-2,5.16-5.16,5.16-10s-1.68-7.62-4.56-7.62c-2.28,0-4.2,1.71-5.91,5.22a15.662,15.662,0,0,0-1.62,6.69v.72l-2.16.09v-.87l-.06-3.12v-.69a75.787,75.787,0,0,1,1-11.07,5.987,5.987,0,0,0,.09-1Z"/><path class="cls-1" d="M552.38,267.38a14,14,0,0,0,3.9,3.75,22.853,22.853,0,0,0,8.3,3.06,8.008,8.008,0,0,0-1.13,2c-6.36-1.68-10-4.08-12.93-8.43a11.572,11.572,0,0,1-4.71,5.61,20.685,20.685,0,0,1-6.81,2.76,7,7,0,0,0-1.11-1.89,18.212,18.212,0,0,0,6.42-2.16,10,10,0,0,0,4.41-4.65H541.1a19.727,19.727,0,0,0-2.79.18v-2a16.66,16.66,0,0,0,2.76.18h8.22a17.606,17.606,0,0,0,.42-2.88h-5.43a14.609,14.609,0,0,0-2.61.15v-1.89a14.8,14.8,0,0,0,2.61.15h5.58c.06-1.17.06-1.5.09-2.67h-5.79a18.5,18.5,0,0,0-2.88.18v-2a17.792,17.792,0,0,0,2.88.18h5.82a10.94,10.94,0,0,0-.18-2.43h2.22a10.812,10.812,0,0,0-.15,2.43h6.27a17.562,17.562,0,0,0,2.88-.18v2a15.773,15.773,0,0,0-2.88-.18h-6.3c0,1-.06,1.68-.12,2.67h5.92a14.479,14.479,0,0,0,2.59-.15v1.89a14.479,14.479,0,0,0-2.59-.15h-6a22.4,22.4,0,0,1-.45,2.88h10.25a17.255,17.255,0,0,0,2.8-.18v2a19.553,19.553,0,0,0-2.82-.18Zm-2.46-16.44a7.868,7.868,0,0,0-.21-1.86h2.34a9.526,9.526,0,0,0-.18,1.86v1.14h8.82a29.455,29.455,0,0,0,3-.12,13.647,13.647,0,0,0-.12,2v1.77a13.518,13.518,0,0,0,.12,2.07h-1.95v-4.08h-21.1v4.08h-2a13.776,13.776,0,0,0,.12-2.07v-1.74a13.93,13.93,0,0,0-.12-2,29.455,29.455,0,0,0,3,.12h8.25Z"/><path class="cls-1" d="M574.57,259.4h-1.32a22.223,22.223,0,0,0-2.73.12,27.5,27.5,0,0,0,.12-2.87V253.2a27.227,27.227,0,0,0-.12-2.94,20.259,20.259,0,0,0,2.85.15h3.21a19.264,19.264,0,0,0,2.82-.15,26.24,26.24,0,0,0-.12,2.94v3.45a21.522,21.522,0,0,0,.09,2.85,25.263,25.263,0,0,0-2.61-.09h-.45v4.47h1.11a10.144,10.144,0,0,0,2-.12v1.83a10.973,10.973,0,0,0-2-.12h-1.11v6.06c1.5-.57,2.19-.87,4.14-1.71l.19,1.83c-3.63,1.56-6,2.46-9.48,3.66a11.153,11.153,0,0,0-1.47.54l-.66-2.07a6.828,6.828,0,0,0,1.74-.33v-8a16.22,16.22,0,0,0-.21-3.12h2a22.773,22.773,0,0,0-.12,3.09v7.44c1.2-.39,1.2-.39,2.13-.72Zm-2.16-1.62h5.13v-5.7h-5.13Zm21.93,9.3c-.33.27-.54.45-1,.87a31.781,31.781,0,0,1-3,2.73c1.26,2.07,2.73,3.51,3.6,3.51.69,0,1.14-1.53,1.41-4.95a4.814,4.814,0,0,0,1.65,1.11c-.51,4.26-1.29,5.82-2.85,5.82s-3.48-1.56-5.22-4.44a28.7,28.7,0,0,1-9.78,4.53,6.161,6.161,0,0,0-1.14-1.77,26.193,26.193,0,0,0,10.11-4.29,22.292,22.292,0,0,1-1.62-4.89l-3.24.36a18.161,18.161,0,0,0-2.73.48l-.24-2a2.817,2.817,0,0,0,.45,0c.45,0,1.65-.09,2.37-.15l3.09-.36c-.12-.78-.36-2.31-.48-3.21l-2.22.24a15.85,15.85,0,0,0-2.43.39l-.21-1.86a3.753,3.753,0,0,0,.45,0,18.074,18.074,0,0,0,2-.15l2.16-.21c-.09-1.08-.18-1.8-.27-3l-2.22.21a20.531,20.531,0,0,0-2.76.39l-.18-1.89h.6a19.974,19.974,0,0,0,2.16-.12l2.28-.21c0-.39,0-.39-.18-3.12a11.6,11.6,0,0,0-.24-1.74h2.16a5.969,5.969,0,0,0-.12,1.32c0,.57.06,1.89.15,3.36l5.16-.48a15.055,15.055,0,0,0,2.79-.45l.18,1.89a3.2,3.2,0,0,0-.48,0c-.36,0-1.32.06-2.37.18l-5.16.51c.06.54.15,1.53.3,3l4.44-.45a14.712,14.712,0,0,0,2.85-.48l.21,1.86h-.27c-.6,0-1.5.06-2.61.18l-4.44.45c.18,1.41.3,2.28.45,3.21l5.55-.6a22.168,22.168,0,0,0,2.76-.45l.21,1.92a1.654,1.654,0,0,0-.33,0c-.54,0-1.53.09-2.55.18l-5.31.6a17.845,17.845,0,0,0,1.29,4,12.981,12.981,0,0,0,3.21-3.33Zm-5.25-17.55a25.167,25.167,0,0,1,4.17,2.43l-1,1.38a17.35,17.35,0,0,0-4.17-2.58Z"/><path class="cls-1" d="M605.25,253.79a21.17,21.17,0,0,0,1.29-4.53l2.1.39c-.57,1.71-1,2.82-1.53,4.14h2l2.64-.09c-.06.78-.09,1.56-.09,2.64v15.31a25.721,25.721,0,0,0,.15,3.09h-2v-1.92h-5.85v2.64h-2a26.79,26.79,0,0,0,.15-3.66V256.55a22.236,22.236,0,0,0-.12-2.85,16.911,16.911,0,0,0,1.8.09h1.46Zm-1.29,8.34h5.85v-6.69h-5.85Zm0,9h5.85v-7.32h-5.85Zm12.68-15.6a28.521,28.521,0,0,1-3.45,5.46,6.118,6.118,0,0,0-1.44-1.35,21.789,21.789,0,0,0,4.41-7.56,13.311,13.311,0,0,0,.78-2.91l2.07.39a10.517,10.517,0,0,0-.42,1.14c-.42,1.2-.69,1.89-1.14,3.06h7.26a19.4,19.4,0,0,0,2.64-.12,11.952,11.952,0,0,0-.12,1.89c-.27,11.88-.66,15.9-1.74,18.3-.6,1.38-1.56,1.92-3.33,1.92-1.11,0-1.92-.06-3.84-.21a5.548,5.548,0,0,0-.51-2.13,22.527,22.527,0,0,0,4.26.51c1.11,0,1.53-.27,1.89-1.23a34.086,34.086,0,0,0,1.11-8.28c.15-2.4.18-4.47.21-8.88Zm3.3,12.36a31.5,31.5,0,0,0-4.56-7.59l1.53-.93a34.729,34.729,0,0,1,4.74,7.47Z"/><path class="cls-1" d="M643.32,250.1a8.594,8.594,0,0,0-.49,1.92c-.21,1-.39,1.74-.81,3.27a25.017,25.017,0,0,0,5.37-1l.1,2.07-1.06.18a36.213,36.213,0,0,1-4.92.63,55.955,55.955,0,0,1-3.33,8.76c-.71,1.44-1,2-2.12,3.93-.28.42-.45.78-.61,1l-2-1.2a26.463,26.463,0,0,0,2.89-4.68,45.629,45.629,0,0,0,3.11-7.74c-.75,0-1.76.06-2.21.06h-3.06v-2.07a18.856,18.856,0,0,0,3.56.24h2.16a30.92,30.92,0,0,0,1-5.64Zm14.24,23.28a17.169,17.169,0,0,0-5.25-4.08,6.2,6.2,0,0,1,.06,1c0,3.09-2,4.8-5.7,4.8s-5.85-1.68-5.85-4.35a4.25,4.25,0,0,1,2.79-3.81,8.783,8.783,0,0,1,3.54-.66,9.909,9.909,0,0,1,3,.45c-.15-1.95-.21-3.36-.21-4.11a12.121,12.121,0,0,1,.3-2.91l2,.21a9.219,9.219,0,0,0-.39,2.79,35.845,35.845,0,0,0,.33,4.56,21.572,21.572,0,0,1,5.88,3.63,3.008,3.008,0,0,0,.54.48ZM647,268.01c-2.55,0-4.17,1-4.17,2.7s1.44,2.46,3.81,2.46c2.58,0,3.75-1,3.75-3.27,0-.36-.06-1.29-.06-1.29a8.9,8.9,0,0,0-3.33-.6Zm10.53-8.16a32.551,32.551,0,0,0-7.95-4.08l1.11-1.68a41.355,41.355,0,0,1,7.92,4Z"/><path class="cls-1" d="M679.19,261.02c-.36,7.77-2.88,11.43-9.66,14.07a5.252,5.252,0,0,0-1.41-2c6.21-2.07,8.55-5.28,8.79-12.12h-8.13a23.672,23.672,0,0,0-3.45.15v-2.17a19.856,19.856,0,0,0,3.48.18h17.55a19.659,19.659,0,0,0,3.48-.18v2.22a23.672,23.672,0,0,0-3.45-.15Zm-10.83-9.51a15.577,15.577,0,0,0,3.45.21h9.06a27.231,27.231,0,0,0,3.45-.15v2.16q-.581,0-3.42-.09h-9.12a20.905,20.905,0,0,0-3.42.15Zm17.58-2.52a23.339,23.339,0,0,1,2.94,4.74l-1.53.84a22.866,22.866,0,0,0-2.91-4.86Zm3.7-1.14a24.96,24.96,0,0,1,2.94,4.74l-1.53.84a23.521,23.521,0,0,0-2.91-4.83Z"/><path class="cls-1" d="M713.64,256.7v-2.94a21.123,21.123,0,0,0-.09-3.06h2.34a22.987,22.987,0,0,0-.12,2.85v3.15h2.58a20.5,20.5,0,0,0,3.51-.18v2.28a24.084,24.084,0,0,0-3.48-.15h-2.64c0,5.79-.36,8-1.47,10.17-1.62,3-4.32,5.1-8.37,6.48a5.367,5.367,0,0,0-1.35-1.89c3.93-1,7-3.33,8.16-6.36.66-1.8.84-3.6.9-8.4h-9.12v5a15.665,15.665,0,0,0,.12,2.43h-2.43a14.347,14.347,0,0,0,.12-2.52v-4.91h-2.52a24.084,24.084,0,0,0-3.48.15v-2.28a20.5,20.5,0,0,0,3.51.18h2.49v-3.48a14.642,14.642,0,0,0-.12-2.52h2.46a15.917,15.917,0,0,0-.12,2.43v3.57Zm5-7.89a23.843,23.843,0,0,1,2.13,4.92l-1.59.54a23.116,23.116,0,0,0-2.13-5Zm3.45-1a23.269,23.269,0,0,1,2.13,4.89l-1.56.54a24,24,0,0,0-2.1-4.92Z"/><path class="cls-1" d="M751.53,251.75a6.8,6.8,0,0,0-1.32,1.26,52.809,52.809,0,0,1-7,6v12.78a19.882,19.882,0,0,0,.15,3.18h-2.61a15.665,15.665,0,0,0,.18-3.12v-11.4a46.884,46.884,0,0,1-11.58,5.25,7,7,0,0,0-1.17-2,42.225,42.225,0,0,0,15.57-7.77,25.189,25.189,0,0,0,5.73-5.67Z"/><path class="cls-1" d="M4.2,328.49a26.114,26.114,0,0,0,8.73-2.31c5.79-2.58,9.81-7,12.24-13.35A5.989,5.989,0,0,0,27,314.6c-2.4,5.22-5.19,8.73-9.15,11.46-3.09,2.1-6.18,3.33-11.19,4.47a15.753,15.753,0,0,0-1.8.48Zm1.92-18.6a39.087,39.087,0,0,1,7.23,5.64l-1.56,1.86a33.149,33.149,0,0,0-7.14-5.88Z"/><path class="cls-1" d="M35.58,319.22a16.176,16.176,0,0,0,.12-2.43v-5.14a16,16,0,0,0-.09-2.25c.66.06,1.59.12,2.31.12H53.43a5.3,5.3,0,0,0,2.13-.24l1.23,1.17a3.686,3.686,0,0,0-.45,1.68c-.9,6.87-2.4,10.62-5.64,14a22.846,22.846,0,0,1-8.58,5.49,6,6,0,0,0-1.44-2c4.86-1.68,8.07-4,10.2-7.32,1.68-2.61,2.52-5.58,3.12-10.77H38v5.22a11.273,11.273,0,0,0,.09,2.49Z"/><path class="cls-1" d="M64.08,318.35a21.223,21.223,0,0,0,3.72.18H85.23a23.668,23.668,0,0,0,3.63-.15v2.43a34.393,34.393,0,0,0-3.66-.12H67.8a33,33,0,0,0-3.72.12Z"/><path class="cls-1" d="M107.43,307.28a5.76,5.76,0,0,0-.66,1.23,28.665,28.665,0,0,1-1.38,2.67c.39-.09.39-.09,9.06-.24a3,3,0,0,0,1.56-.21l1.29,1.26c-.27.36-.27.39-.6,1.47a31.738,31.738,0,0,1-6,11.28,29.386,29.386,0,0,1-10.44,7.5,4.528,4.528,0,0,0-1.5-1.77,25.519,25.519,0,0,0,10.59-7.59,27.579,27.579,0,0,0,5.16-10.05l-10.11.18a28.915,28.915,0,0,1-7.17,7.8,4.473,4.473,0,0,0-1.68-1.56,22.234,22.234,0,0,0,7.53-8.22,13.6,13.6,0,0,0,1.89-4.38Z"/><path class="cls-1" d="M133.86,310.91a12.705,12.705,0,0,0,1.44-4.11l2.4.42a6.372,6.372,0,0,0-.78,1.62,14.053,14.053,0,0,1-.93,2,5.093,5.093,0,0,1,.63,0c4.8-.24,7.8-.6,9.45-1.14l.18,2a9.3,9.3,0,0,0-1.2.15,97.012,97.012,0,0,1-9.9.78,22.157,22.157,0,0,1-2.7,4.26c-.3.36-.9,1-1,1.14a1.759,1.759,0,0,1-.39.3h0a.237.237,0,0,0,.06.09c1.08-.84,1.08-.84,1.38-1.05a8.007,8.007,0,0,1,4.53-1.47,3.641,3.641,0,0,1,3.993,3.249c0,.027,0,.054.007.081,2.19-.87,3.9-1.5,5.22-2a6.6,6.6,0,0,0,2-.87l1,2.1a49.8,49.8,0,0,0-8,2.64c.06.78.06,1.08.06,1.83v3a6.5,6.5,0,0,0,.06,1.08h-2q.2-2.154.18-4.32a7.948,7.948,0,0,0,0-.9c-4.08,1.92-5.64,3.33-5.64,5.13,0,2,1.86,2.85,6.09,2.85a25.147,25.147,0,0,0,8-1.17l.27,2.31a11.811,11.811,0,0,0-1.2.15,46.6,46.6,0,0,1-7.29.6c-5.37,0-8-1.53-8-4.62,0-1.65,1-3.21,3.06-4.74a23.259,23.259,0,0,1,4.47-2.4c-.24-1.65-1-2.37-2.37-2.37-1.89,0-4.26,1.11-6.69,3.18a9.919,9.919,0,0,0-2.31,2.49l-1.68-1.68a29.83,29.83,0,0,0,6.72-8.58l.27-.45a3.413,3.413,0,0,1-.57.06l-4.41-.09h-.63a5.191,5.191,0,0,0-.66,0v-2.07a42,42,0,0,0,6.42.33Z"/><path class="cls-1" d="M159.84,322.91c0-1.29,0-2.16.09-3.6a17.337,17.337,0,0,1-3.42,3.36,5.729,5.729,0,0,0-1.17-1.71,24.587,24.587,0,0,0,6.06-5.91,10.32,10.32,0,0,0,1.44-2.58l1.86,1a12.771,12.771,0,0,0-.9,1.29,20.29,20.29,0,0,1-2,2.7v12.19a22.509,22.509,0,0,0,.21,3.66h-2.37a22.736,22.736,0,0,0,.21-3.66Zm4.14-15.63a4.952,4.952,0,0,0-.54.66,29.265,29.265,0,0,1-6.66,6.51,5.8,5.8,0,0,0-1.35-1.47,20.6,20.6,0,0,0,4-3.18,11.718,11.718,0,0,0,2.73-3.66Zm4.35,10a23.163,23.163,0,0,0-3.33.18v-2.1a22.739,22.739,0,0,0,3.33.18h10.53a21.171,21.171,0,0,0,3.3-.18v2.1a22.909,22.909,0,0,0-3.27-.18h-1.71v13.14c0,1.92-.72,2.43-3.36,2.43-1,0-2.37-.06-3.66-.15a7.229,7.229,0,0,0-.48-2.07,29.967,29.967,0,0,0,4.23.36c1,0,1.26-.12,1.26-.72v-13Zm-2.1-9.45a21.27,21.27,0,0,0,3.12.18h8.4a21,21,0,0,0,3.09-.18v2.1a23.128,23.128,0,0,0-3.09-.18h-8.4a23.578,23.578,0,0,0-3.12.18Z"/><path class="cls-1" d="M189.09,316.82a23.612,23.612,0,0,0,3-.51,50.1,50.1,0,0,1,9.15-1.08,9.546,9.546,0,0,1,5.16,1.14,5.339,5.339,0,0,1,2.55,4.77c0,3.21-1.83,6.06-5.16,8.1-2.28,1.38-4.23,2-8.7,2.85a7.622,7.622,0,0,0-1-2.19,18.991,18.991,0,0,0,8.43-2.43,7.342,7.342,0,0,0,2.58-2.13,6.722,6.722,0,0,0,1.53-4.08,3.64,3.64,0,0,0-1.92-3.36,8.369,8.369,0,0,0-3.69-.66,41.874,41.874,0,0,0-11.43,2Zm4.41-9.36a37.854,37.854,0,0,0,12.21,1.86l-.33,2.16a54.58,54.58,0,0,1-12.6-2Z"/><path class="cls-1" d="M225.87,328.55a4.49,4.49,0,1,1,0-.02Zm-7.29,0a2.79,2.79,0,1,0,2.79-2.79A2.79,2.79,0,0,0,218.58,328.55Z"/></g></g></svg>