<svg xmlns="http://www.w3.org/2000/svg" width="545.79" height="259.4" viewBox="0 0 545.79 259.4">
  <defs>
    <style>
      .cls-1 {
        fill: #fff;
      }
    </style>
  </defs>
  <g id="レイヤー_2" data-name="レイヤー 2">
    <g id="レイヤー_1-2" data-name="レイヤー 1">
      <g>
        <path class="cls-1" d="M3,5.25a19.39,19.39,0,0,0-2.31.13V3.84A15,15,0,0,0,3,4H8.86V2.2A11.42,11.42,0,0,0,8.71.29h1.66a11.85,11.85,0,0,0-.14,1.89V4h6.19a13.19,13.19,0,0,0,2.35-.15V5.38a21.08,21.08,0,0,0-2.35-.13H10.75a21.86,21.86,0,0,0,8.65,9.07,5.83,5.83,0,0,0-1,1.36A23.43,23.43,0,0,1,14.07,12a19.9,19.9,0,0,1-3.93-5.9c.06,1.26.09,2,.09,2.73v4.77h2.28a12.78,12.78,0,0,0,2-.11V15a12,12,0,0,0-2.08-.13H10.23v2a16.28,16.28,0,0,0,.14,2.41H8.71a15.89,15.89,0,0,0,.15-2.43v-2h-2A12.24,12.24,0,0,0,4.72,15V13.5a13,13,0,0,0,2.08.11H8.86V8.84c0-.78,0-1.58.08-2.71A19.51,19.51,0,0,1,5,12.2a23.17,23.17,0,0,1-4,3.53,4,4,0,0,0-1-1.24,19.17,19.17,0,0,0,4.91-4.27,22.76,22.76,0,0,0,3.43-5Z"/>
        <path class="cls-1" d="M26.61,8.52a9.7,9.7,0,0,0-.07-1.23c.44,0,.91.06,1.49.06h4.56V3.93H27.66a17.27,17.27,0,0,1-3.49,4.28,3.47,3.47,0,0,0-1-1,13.61,13.61,0,0,0,4.2-5.65A8.26,8.26,0,0,0,27.89,0l1.49.42c-.09.17-.15.32-.28.57l-.79,1.7H38.72a10.26,10.26,0,0,0,1.89-.11V4a12,12,0,0,0-1.89-.1H34V7.35h3.8a10.69,10.69,0,0,0,1.87-.11V8.63a15.72,15.72,0,0,0-1.85-.09H34v4.12h5.29a13.34,13.34,0,0,0,2.12-.13v1.52a14.22,14.22,0,0,0-2.12-.13H34v3.46a10.1,10.1,0,0,0,.14,2H32.46a9,9,0,0,0,.13-2V13.92H25a14.22,14.22,0,0,0-2.12.13V12.53a13.68,13.68,0,0,0,2.12.13h1.6Zm6,4.14V8.54H28v4.12Z"/>
        <path class="cls-1" d="M48.4,6.55c-.14,6.8-.6,9.28-2.33,12.45A4.29,4.29,0,0,0,45,18a11,11,0,0,0,1.49-3.8,49.59,49.59,0,0,0,.63-9.7A25.24,25.24,0,0,0,47,1.91c.67.06,1.34.11,2.16.11h5.52V1.41A7.2,7.2,0,0,0,54.56,0h1.55A8.32,8.32,0,0,0,56,1.41V2h5.76a15.22,15.22,0,0,0,2.29-.13V3.28a14.65,14.65,0,0,0-2.19-.11H48.43l0,2.25h3.83V5.08a8.66,8.66,0,0,0-.09-1.38h1.45a9.57,9.57,0,0,0-.08,1.36v.36h4.87V5.08a10.63,10.63,0,0,0-.09-1.38h1.45a8.62,8.62,0,0,0-.08,1.4v.32h2.52a10.38,10.38,0,0,0,1.91-.11V6.66a10.31,10.31,0,0,0-1.91-.11H59.66V8.61a11.83,11.83,0,0,0,.06,1.26,11.64,11.64,0,0,0-1.36,0H53.67a13,13,0,0,0-1.51,0c0-.4.07-.84.07-1.26V6.55Zm13.06,5.67c-.25.27-.35.38-.71.8a19.1,19.1,0,0,1-3.4,3.06,18.55,18.55,0,0,0,6.84,1.75,5.41,5.41,0,0,0-.63,1.38,19.47,19.47,0,0,1-7.43-2.39,22.53,22.53,0,0,1-7.62,2.47,4.25,4.25,0,0,0-.59-1.3A21.33,21.33,0,0,0,55,16.08a12.83,12.83,0,0,1-3.38-3.53,13.44,13.44,0,0,0-2.08.11v-1.3a13.21,13.21,0,0,0,2.12.1h7.62a13.74,13.74,0,0,0,1.45-.06Zm-8.39.33a9.11,9.11,0,0,0,3.08,2.86,14,14,0,0,0,3.36-2.86Zm.44-3.8h4.87V6.55H53.51Z"/>
        <path class="cls-1" d="M68.82,13.54A21.64,21.64,0,0,1,73,18l-1.18,1.12a20.77,20.77,0,0,0-4.13-4.58Z"/>
        <path class="cls-1" d="M90.38,18.06a9.08,9.08,0,0,0,2.52-3.83l1.2.55a12.48,12.48,0,0,1-2.58,4.1ZM99,1.43A7.92,7.92,0,0,0,98.82,0h1.62a8.36,8.36,0,0,0-.13,1.43v.4h5.17a13.72,13.72,0,0,0,2.16-.13V3c-.67-.06-1.24-.08-2.18-.08h-1.24a19.57,19.57,0,0,1-1,2.06h3.44a13.39,13.39,0,0,0,2.46-.13V6.19a18.26,18.26,0,0,0-2.48-.1H93a18.45,18.45,0,0,0-2.48.1V4.85A18.26,18.26,0,0,0,93.07,5h3.15a19.35,19.35,0,0,0-.86-2.06H94.08A19.94,19.94,0,0,0,92,3V1.7a12.56,12.56,0,0,0,2.08.13H99Zm-3.53,12c-1,0-1.61,0-2.31.06a10.9,10.9,0,0,0,.09-1.72V9.13a12.85,12.85,0,0,0-.09-1.84,23,23,0,0,0,2.31.08H104a22.31,22.31,0,0,0,2.37-.08,13.52,13.52,0,0,0-.08,1.82v2.63a14,14,0,0,0,.08,1.76c-.52,0-1.49-.06-2.24-.06Zm-1-3.59h10.62V8.42H94.44Zm0,2.54h10.62V10.85H94.44Zm2.37,4.83c0,.27.08.37.42.46a13,13,0,0,0,2.29.12c2.87,0,3.57-.06,3.9-.39a3.79,3.79,0,0,0,.3-2,2.06,2.06,0,0,0,0-.33,3.24,3.24,0,0,0,1.3.48c-.13,3.27-.3,3.38-5.06,3.38-3.87,0-4.43-.17-4.43-1.34V15.87a9.2,9.2,0,0,0-.13-1.59h1.55a7.08,7.08,0,0,0-.12,1.59Zm5-12.24a14.67,14.67,0,0,0,1-2.06H96.72A19.68,19.68,0,0,1,97.59,5Zm-.94,11.92a11.47,11.47,0,0,0-2.52-2.5l.9-.65a14.12,14.12,0,0,1,2.67,2.37Zm7.29,1.64a20.79,20.79,0,0,0-3.07-3.82l1.07-.61a26.18,26.18,0,0,1,3.09,3.63Z"/>
        <path class="cls-1" d="M131.62,18.46a11,11,0,0,0-2.05-.15H115.18v1h-1.51a14.62,14.62,0,0,0,.15-2.26V3.19c0-.88,0-1.49-.08-2.18a16.94,16.94,0,0,0,2.2.1h13.21a12,12,0,0,0,2-.15V2.48a13.67,13.67,0,0,0-2-.13h-14V17.07h14.37a13.6,13.6,0,0,0,2.07-.13ZM119.7,9.36a18,18,0,0,1-.48,3.36,8.69,8.69,0,0,1-1.85,3.64,5.75,5.75,0,0,0-1.07-1,7,7,0,0,0,1.57-2.75,18.14,18.14,0,0,0,.59-5.33,17.75,17.75,0,0,0-.13-2.5h.34c1,0,3.78-.21,5.29-.4a16.51,16.51,0,0,0,4.7-1.07l1,1.24a51.43,51.43,0,0,1-9.85,1.36V7c0,.32,0,.53,0,1.14h9.32A8.76,8.76,0,0,0,130.87,8V9.47a10.08,10.08,0,0,0-1.81-.11h-3.31v5.25a7.16,7.16,0,0,0,.12,1.7h-1.59a8.72,8.72,0,0,0,.12-1.7V9.36Z"/>
        <path class="cls-1" d="M138.22,12.51A15.51,15.51,0,0,1,136,19.38a4.25,4.25,0,0,0-1.11-1.05,10.66,10.66,0,0,0,1.83-4.41A55,55,0,0,0,137.36,4a27.6,27.6,0,0,0-.1-3c.71.06,1.38.08,2.54.08h10.93A19.91,19.91,0,0,0,153,1c0,.5-.06,1-.06,1.61V4.09A15.29,15.29,0,0,0,153,5.63c-.88,0-1.43-.07-2.1-.07H138.62c0,2.82-.08,3.78-.27,5.82h4.15V8.9h-1.3a14.85,14.85,0,0,0-1.89.09V7.68a10.25,10.25,0,0,0,1.91.11h1.28V7.52A14.18,14.18,0,0,0,142.42,6h1.45a7.29,7.29,0,0,0-.11,1.49v.27h4V7.52A9.28,9.28,0,0,0,147.69,6h1.49a7.12,7.12,0,0,0-.1,1.49v.27h1.8a10.52,10.52,0,0,0,2-.11V9a15,15,0,0,0-2-.09h-1.78v2.48h2.45a14.36,14.36,0,0,0,2.27-.13v1.39a16.55,16.55,0,0,0-2.25-.13h-5.64A6.79,6.79,0,0,0,148,15.16a12.77,12.77,0,0,0,2.92-2.5l1.18.78a27.68,27.68,0,0,1-3.15,2.41A13.8,13.8,0,0,0,154.37,18a3.7,3.7,0,0,0-.84,1.28A16.08,16.08,0,0,1,147.14,16a8.78,8.78,0,0,1-2.58-3.53h-2.12v4.75c1.77-.34,2.48-.51,4.37-1v1.22c-2.25.61-3.13.8-7.43,1.64l-.74.16-.33-1.44h.18a18.67,18.67,0,0,0,2.65-.34v-5Zm13.4-8.06V2.25h-13v2.2ZM147.8,8.9h-4v2.48h4Z"/>
        <path class="cls-1" d="M158.09,10.94a25.87,25.87,0,0,0,4.22-4.68A8.35,8.35,0,0,1,163.36,5a2.18,2.18,0,0,1,3.48.14c.21.19.57.59,1.54,1.7A55.4,55.4,0,0,0,175,13.31a7,7,0,0,0,1.68,1.09L176,16.21a3.44,3.44,0,0,0-.51-.44c-1.3-1-3.69-3.17-5.1-4.56-1.24-1.26-2-2.12-4.07-4.49-.57-.65-.9-.9-1.26-.9s-.65.16-1.66,1.51c-1.24,1.66-2.33,3-3.67,4.47-.38.42-.42.46-.61.69Z"/>
        <path class="cls-1" d="M188.89,12.13c-1.21,2.78-2.45,4-4,4-2,0-3.49-2.19-3.49-5.13a8.75,8.75,0,0,1,2.2-5.79,8.77,8.77,0,0,1,6.79-2.79,8.09,8.09,0,0,1,5.77,2.08,7,7,0,0,1,2,5.12,7.65,7.65,0,0,1-4.81,7.24,16.56,16.56,0,0,1-3.19,1,3.28,3.28,0,0,0-.74-1.41,12.23,12.23,0,0,0,3.51-1,6.33,6.33,0,0,0,3.72-5.88,5.55,5.55,0,0,0-3.34-5.27A6.14,6.14,0,0,0,191,3.8,31,31,0,0,1,188.89,12.13Zm-2.58-7.32a7.25,7.25,0,0,0-3.42,6.25c0,2,.88,3.57,2,3.57.89,0,1.73-1,2.63-3a28.71,28.71,0,0,0,1.91-7.77A6.69,6.69,0,0,0,186.31,4.81Z"/>
        <path class="cls-1" d="M208.78,10.29c-1.36,1.13-2,2.1-2,3.08s.61,1.66,1.78,2.06a13.11,13.11,0,0,0,3.84.42,19.66,19.66,0,0,0,6.3-.8l.19,1.73a7,7,0,0,0-.71.1,33.73,33.73,0,0,1-5.67.48,14.78,14.78,0,0,1-4.83-.65,3.33,3.33,0,0,1-2.39-3.17c0-1.36.79-2.69,2.41-4Zm-2.2-7.67a23.75,23.75,0,0,0,5.58.51,23.13,23.13,0,0,0,5.31-.44l.11,1.38a32.28,32.28,0,0,0-5.29,3.19l-1.07-.86a33.49,33.49,0,0,1,3.71-2.22,16.56,16.56,0,0,1-3.17.27,40.69,40.69,0,0,1-4.62-.27l-.69-.06Zm10.47,3.64a16.28,16.28,0,0,1,2.14,3.25l-1,.63A16.62,16.62,0,0,0,216,6.8ZM219.34,5a16.25,16.25,0,0,1,2.19,3.27l-1.05.59a18,18,0,0,0-2.15-3.3Z"/>
        <path class="cls-1" d="M237.21,9.34a20.36,20.36,0,0,0,2.5-4.8l1.3.52a29.93,29.93,0,0,1-2.33,4.28h3.11a11.82,11.82,0,0,0,2.31-.14v1.49a16.63,16.63,0,0,0-2.35-.13h-5.84a21.93,21.93,0,0,0,2.77,2.92A19.61,19.61,0,0,0,244.35,17a5.65,5.65,0,0,0-.9,1.3,22.69,22.69,0,0,1-5.29-3.57,19,19,0,0,1-3-3.53c.06,1.16.08,1.72.08,2.27v3.76a10.65,10.65,0,0,0,.15,2h-1.6a10.79,10.79,0,0,0,.15-2V13.5c0-.63,0-1,.08-2.25a17,17,0,0,1-3.94,4.52,24.67,24.67,0,0,1-3.76,2.56,5.08,5.08,0,0,0-1-1.22A21.71,21.71,0,0,0,231.25,13a18.55,18.55,0,0,0,2.14-2.46h-5.48a19.87,19.87,0,0,0-2.31.13V9.2a15.26,15.26,0,0,0,2.29.14H234V3.84h-5a17.66,17.66,0,0,0-2.24.13V2.5a15.57,15.57,0,0,0,2.28.14h5V2a10.12,10.12,0,0,0-.13-1.74h1.56A7.49,7.49,0,0,0,235.28,2v.69h5.36A12.48,12.48,0,0,0,243,2.5V4a15.53,15.53,0,0,0-2.29-.13h-5.4v5.5Zm-7.64-4.83a26,26,0,0,1,2.08,3.89L230.47,9a20.1,20.1,0,0,0-2-3.95Z"/>
        <path class="cls-1" d="M250.63,2.75a17.45,17.45,0,0,0-.12-2.31h1.55a15,15,0,0,0-.12,2.33v2.9h.5a11.18,11.18,0,0,0,1.74-.09V6.93a17.19,17.19,0,0,0-1.74-.09h-.5v5.4a20.41,20.41,0,0,0,1.78-1.07l.09,1.26a37.39,37.39,0,0,1-4.37,2.37c-.34.15-.93.44-1.12.55l-.39-1.47a10.52,10.52,0,0,0,2.7-1v-6h-.9A15.58,15.58,0,0,0,248,7V5.56a10.9,10.9,0,0,0,1.82.11h.86Zm5.9,9.6A13.35,13.35,0,0,1,253,15.14a4.16,4.16,0,0,0-.86-1A10.08,10.08,0,0,0,257,9.76h-1.28a9.7,9.7,0,0,0-1.89.13V8.52a9.7,9.7,0,0,0,1.93.13h9a11.24,11.24,0,0,0,2.08-.13V9.85a16.15,16.15,0,0,0-2.08-.09h-6.42a10.27,10.27,0,0,1-1,1.53h6.95a17.18,17.18,0,0,0,2.06-.08,10,10,0,0,0-.1,1.24,20.94,20.94,0,0,1-.93,5.61c-.38.75-.9,1-2.33,1-.48,0-1.18,0-1.83-.08a3.41,3.41,0,0,0-.42-1.37,14.37,14.37,0,0,0,2.5.23c.84,0,1-.16,1.26-1.42a26.36,26.36,0,0,0,.47-4h-1.41a12.29,12.29,0,0,1-1.87,3.17,22.45,22.45,0,0,1-2.58,2.58,16.79,16.79,0,0,1-1.7,1.17,3.76,3.76,0,0,0-1-1,13.3,13.3,0,0,0,4.11-3.19,10.41,10.41,0,0,0,1.73-2.75h-2.08a14.53,14.53,0,0,1-5.78,5.24,3,3,0,0,0-.9-1,11.93,11.93,0,0,0,5.31-4.26Zm.68-5.09a15.11,15.11,0,0,0-1.91.09,17,17,0,0,0,.08-1.89V2.73A14.84,14.84,0,0,0,255.3.88a14,14,0,0,0,2,.11h5.48A16,16,0,0,0,265,.88a14,14,0,0,0-.09,2V5.46A11.33,11.33,0,0,0,265,7.33c-.47,0-1.12-.07-1.94-.07Zm-.59-3.65h7V2.08h-7Zm0,2.63h7V4.64h-7Z"/>
        <path class="cls-1" d="M277,3.59a9.22,9.22,0,0,0,1-2.88l1.68.3a4.37,4.37,0,0,0-.55,1.13c-.27.67-.55,1.24-.65,1.43l.44,0a29.41,29.41,0,0,0,6.61-.8l.13,1.43a6.81,6.81,0,0,0-.84.1,67.69,67.69,0,0,1-6.93.55,15.11,15.11,0,0,1-1.89,3c-.21.25-.63.73-.71.8s-.25.19-.28.21a0,0,0,0,1,0,0v0s0,0,.05.06c.75-.59.75-.59,1-.73a5.62,5.62,0,0,1,3.17-1,2.54,2.54,0,0,1,2.77,2.33c1.54-.61,2.73-1.05,3.66-1.39A4.38,4.38,0,0,0,287,7.5L287.7,9a34.84,34.84,0,0,0-5.61,1.85c0,.55,0,.76,0,1.28,0,.28,0,.74,0,1.16s0,.75,0,.94a4.84,4.84,0,0,0,0,.76l-1.43,0a27.79,27.79,0,0,0,.13-3,5.74,5.74,0,0,0,0-.63c-2.86,1.34-3.95,2.33-3.95,3.59s1.3,2,4.26,2a17.43,17.43,0,0,0,5.61-.82l.19,1.62c-.32,0-.42,0-.84.1a31.79,31.79,0,0,1-5.1.42c-3.76,0-5.59-1.07-5.59-3.23,0-1.15.72-2.25,2.14-3.32A17.09,17.09,0,0,1,280.66,10c-.17-1.15-.67-1.66-1.66-1.66a7.89,7.89,0,0,0-4.68,2.23,6.83,6.83,0,0,0-1.61,1.74l-1.18-1.17a20.94,20.94,0,0,0,4.7-6,2.79,2.79,0,0,0,.19-.31,2.35,2.35,0,0,1-.4,0l-3.08-.06h-.34l-.46,0,0-1.45a28.93,28.93,0,0,0,4.49.23Z"/>
        <path class="cls-1" d="M309.52,2.2a26.52,26.52,0,0,1-5.69,4c.58.42.84.59,1.63,1.2l-.54.55h3.8a11.7,11.7,0,0,0,2.22-.11l.82.9c-.08.09-.33.38-.56.7a17.06,17.06,0,0,1-3.68,3.67,5.09,5.09,0,0,0-1.09-.86,14.28,14.28,0,0,0,3.36-3h-6.38v8.14c0,1.35-.51,1.7-2.46,1.7-.65,0-1.76,0-2.48-.1a5.45,5.45,0,0,0-.33-1.45,17.46,17.46,0,0,0,2.94.25c.71,0,.92-.14.92-.61V9.22h-6.51a16.54,16.54,0,0,0-2.16.12V7.83a14.88,14.88,0,0,0,2.33.13h8.4a30.47,30.47,0,0,0-5.8-3.57l.86-.93c1.85,1,2.56,1.37,3.57,2a20.34,20.34,0,0,0,4.47-3h-9.72a14.7,14.7,0,0,0-2.16.1V1.15a12,12,0,0,0,2.2.13h9.62a14.7,14.7,0,0,0,1.55-.06Z"/>
        <path class="cls-1" d="M324.34,7.64h-3.71a13.38,13.38,0,0,0-2.08.13V6.32a13.94,13.94,0,0,0,2.08.13h8.69a14,14,0,0,0,2.08-.13V7.77a13,13,0,0,0-2.08-.13h-3.67v3.42h4.05a13.13,13.13,0,0,0,2-.12v1.43a10.68,10.68,0,0,0-2-.13h-4.05V16.9a18.6,18.6,0,0,0,3.42.23c1.7,0,3.15-.06,4.91-.21a3.89,3.89,0,0,0-.46,1.47c-1.83,0-2,0-2.54,0a29.87,29.87,0,0,1-4.6-.16c-3.28-.47-5.33-1.73-6.45-3.95a14,14,0,0,1-3.19,4.76,3.78,3.78,0,0,0-1.09-1,11.16,11.16,0,0,0,2.83-3.74,13.18,13.18,0,0,0,1.29-4.79V9.36l1.47.3c-.07.27-.07.27-.26,1.09-.1.5-.42,1.72-.56,2.22a6.36,6.36,0,0,0,1.66,2.32,7.13,7.13,0,0,0,2.26,1.28ZM324,1.7A6.71,6.71,0,0,0,323.9.38h1.64a5.76,5.76,0,0,0-.15,1.3v1h6.13a19.25,19.25,0,0,0,2.1-.09,10,10,0,0,0-.08,1.43V5.38a10.69,10.69,0,0,0,.08,1.49h-1.36V3.93H317.6V6.87h-1.38a10.6,10.6,0,0,0,.08-1.49V4.05a10.06,10.06,0,0,0-.08-1.43,19.4,19.4,0,0,0,2.12.09H324Z"/>
        <path class="cls-1" d="M340,5.08a9.58,9.58,0,0,0,1.62.11,47.65,47.65,0,0,0,6.25-.45c-.31-.71-.65-1.55-1-2.49-.23-.55-.35-.84-.54-1.22L348,.8a6.51,6.51,0,0,0,.61,1.89,17.4,17.4,0,0,0,.75,1.85,24.19,24.19,0,0,0,5.08-1.33l.21,1.49c-.44.09-.61.13-1.24.3-1.26.33-1.51.4-2.83.65l-.72.14a39.72,39.72,0,0,0,3.78,6.11l-1.4.8a4.24,4.24,0,0,0-1.45-.86,11.31,11.31,0,0,0-3.68-.55,7.38,7.38,0,0,0-4,.89,2.36,2.36,0,0,0-1.14,2,2.12,2.12,0,0,0,.8,1.64,7.11,7.11,0,0,0,4.09,1,13.87,13.87,0,0,0,6-1.34L353,17a17.59,17.59,0,0,1-6.18,1.13c-2.56,0-4.49-.57-5.45-1.57a3.4,3.4,0,0,1-.95-2.31,3.93,3.93,0,0,1,2.37-3.43,9.06,9.06,0,0,1,4.08-.77,10.51,10.51,0,0,1,4.34.75,26.34,26.34,0,0,1-2.52-4.11c-.23-.44-.23-.49-.35-.7a60.29,60.29,0,0,1-7.48.55,4.91,4.91,0,0,0-.82.06Z"/>
        <path class="cls-1" d="M360.89,13.61a33.77,33.77,0,0,0,3.69-3.55c0-.84.06-2.17.13-4a22.89,22.89,0,0,0-3.3.29l-.08-1.45a4.4,4.4,0,0,0,.65,0l2.75-.16c.06-1.6.08-2.55.08-2.82a9,9,0,0,0-.06-1l1.66,0a24.11,24.11,0,0,0-.26,3.74,1.36,1.36,0,0,0,.42-.1l.55.65a7.32,7.32,0,0,0-1.07,1.3A3.64,3.64,0,0,1,366,7c0,.42,0,.42,0,1.41a1.18,1.18,0,0,1,0,.19c0,.17,0,.21,0,.33l0,0a14.49,14.49,0,0,1,2.66-2.46c1.91-1.53,3.49-2.31,4.75-2.31a2.28,2.28,0,0,1,2.46,2.46,13.93,13.93,0,0,1-.49,3.06,23.51,23.51,0,0,0-.9,5c0,1,.44,1.49,1.26,1.49a2.5,2.5,0,0,0,1.78-1.16,8.36,8.36,0,0,0,1.2-2.41,6.71,6.71,0,0,0,1,1.43,10.78,10.78,0,0,1-1.3,2.08,3.65,3.65,0,0,1-2.9,1.51A2.42,2.42,0,0,1,373,14.82c0-1.07,0-1.3.8-4.89a15.52,15.52,0,0,0,.52-3.15,1.06,1.06,0,0,0-1.15-1.13A5.94,5.94,0,0,0,370,7.08a33.09,33.09,0,0,0-4,3.56v4.54a34.27,34.27,0,0,0,.06,3.49h-1.64a17.42,17.42,0,0,0,.15-3.47c0-2.46,0-2.46.06-3.4h0a2.15,2.15,0,0,1-.38.5c-.31.36-.31.36-1,1.16l-.88,1a4,4,0,0,0-.54.67Z"/>
        <path class="cls-1" d="M384,3.86h.76c.29,0,.55,0,1.2-.06,2.5-.19,9.21-.57,11.92-.69a15.44,15.44,0,0,0,2.5-.23l.13,1.57a10.14,10.14,0,0,0-2.35.27,10.84,10.84,0,0,0-4,2.12,6.45,6.45,0,0,0-2.58,4.85,4.11,4.11,0,0,0,2.94,3.89,10.68,10.68,0,0,0,3.15.67h.21l-.27,1.7-.65-.12a10.65,10.65,0,0,1-4.54-1.62A5.11,5.11,0,0,1,390,11.93c0-2.44,1.43-4.77,3.93-6.45a12.91,12.91,0,0,1,2-1.11,41.58,41.58,0,0,1-4.62.46,61.36,61.36,0,0,0-7.24.69Z"/>
        <path class="cls-1" d="M409.06,2.86a14.53,14.53,0,0,0-.15,2.49,35.42,35.42,0,0,0,.55,6.53c.46,2.15,1.32,3.59,2.12,3.59q.57,0,1.05-1.05a15.07,15.07,0,0,0,1.09-3.59A6.43,6.43,0,0,0,415,12c-1,3.68-2,5.08-3.49,5.08-1.17,0-2.26-1.17-3-3.19s-1-4.68-1.13-9.85a9.11,9.11,0,0,0-.07-1.24ZM419.2,4a18.35,18.35,0,0,1,3,4.78,20.21,20.21,0,0,1,1.58,5.61l-1.49.61a18.5,18.5,0,0,0-4.37-10.35Z"/>
        <path class="cls-1" d="M431.93,2.08a10.07,10.07,0,0,0,2,.12c1.74,0,4.54-.12,6.42-.27a2.08,2.08,0,0,0,1-.23l.89,1.16c-.3.14-.4.23-1.08.88a54.12,54.12,0,0,1-6.9,6l0,.06a10.61,10.61,0,0,1,5.14-1.3c3.51,0,5.76,1.72,5.76,4.41,0,3.28-3.05,5.44-7.71,5.44-3,0-4.66-1.09-4.66-3,0-1.41,1.3-2.46,3-2.46a4.24,4.24,0,0,1,3.47,1.72,5.94,5.94,0,0,1,1,2c2.21-.61,3.36-1.89,3.36-3.68,0-2-1.68-3.21-4.51-3.21a13.46,13.46,0,0,0-8.84,3.59l-1-1.34a23.21,23.21,0,0,0,2.94-2.15c2.25-1.78,5.57-4.7,7-6.13l.29-.29.08-.08.09-.09,0,0-.19,0c-.67.13-3.19.27-6.38.38a10.73,10.73,0,0,0-1.14.1Zm3.94,12c-1.05,0-1.7.5-1.7,1.3a1.45,1.45,0,0,0,.84,1.28,5.44,5.44,0,0,0,2.35.48,7.37,7.37,0,0,0,1.54-.15C438.44,15,437.39,14,435.87,14Z"/>
        <path class="cls-1" d="M453.12,2.18A8.68,8.68,0,0,0,453,.25h1.57a11.32,11.32,0,0,0-.12,1.93v.59h3.46a8.57,8.57,0,0,0,1.75-.13V4.07A9.56,9.56,0,0,0,457.9,4h-3.46V7.37c2-.34,2.67-.48,5.31-1.09V7.41c-2.87.69-5.23,1.18-7.39,1.55a10.46,10.46,0,0,0-1.62.34l-.23-1.45a17.4,17.4,0,0,0,2.61-.27Zm11.08,8a17.55,17.55,0,0,0,2.27-.1,21.13,21.13,0,0,0-.08,2.31v4.78a14,14,0,0,0,.12,2.1h-1.43v-1H454.9v1h-1.41a12.9,12.9,0,0,0,.13-2.1V12.35a22.84,22.84,0,0,0-.08-2.31,17,17,0,0,0,2.24.1h2.52a8.71,8.71,0,0,0,.86-1.93l1.43.36a13.35,13.35,0,0,1-.86,1.57Zm-9.3,3.38h10.18V11.25H454.9Zm0,3.59h10.18v-2.5H454.9ZM462,6.57c0,.63.21.69,2.5.69,1.85,0,2.45-.08,2.71-.35a6.27,6.27,0,0,0,.52-2.84,3.13,3.13,0,0,0,1.24.55c-.21,2.31-.46,3.11-1.07,3.48s-1.28.36-3.78.36c-2.88,0-3.44-.25-3.44-1.47V2.1a12.06,12.06,0,0,0-.13-1.85h1.58A7.84,7.84,0,0,0,462,2.08V3.36a21.84,21.84,0,0,0,2.48-.82,13.86,13.86,0,0,0,3.29-1.6l.91,1.14c-1,.42-1,.42-2.17.92A34.17,34.17,0,0,1,462,4.51Z"/>
        <path class="cls-1" d="M476,2.39a13.16,13.16,0,0,0-.1-2.18h1.47a12.93,12.93,0,0,0-.11,2.16V4.43H478a8.07,8.07,0,0,0,1.33-.08V5.63A10.58,10.58,0,0,0,478,5.56h-.75A11.51,11.51,0,0,0,479.24,9a10.54,10.54,0,0,0-.74,1.13,14.86,14.86,0,0,1-1.36-2.94c.06,1.76.08,2.69.08,3.42V17a17.54,17.54,0,0,0,.13,2.44h-1.51A18.73,18.73,0,0,0,476,17V11A17.91,17.91,0,0,1,476,9.17c0-.12,0-.5.06-1,0-.17,0-.42,0-.78a17.42,17.42,0,0,1-1.34,4.05,17.52,17.52,0,0,1-1.39,2.37,5.32,5.32,0,0,0-.8-1.3,12.17,12.17,0,0,0,2-3.32,21.18,21.18,0,0,0,1.17-3.61h-1.09a8.24,8.24,0,0,0-1.47.09V4.35a9,9,0,0,0,1.47.08H476Zm5.48,1.91a9.87,9.87,0,0,0-1.82.11V3.09a11.45,11.45,0,0,0,1.85.1h1.11A10,10,0,0,0,481.21.88L482.33.4a13.69,13.69,0,0,1,1.51,2.79h2.43A13.21,13.21,0,0,0,487.7.36l1.24.44c-.34.67-1,1.89-1.34,2.39h1.84a11.6,11.6,0,0,0,1.91-.13V4.43a12.62,12.62,0,0,0-1.91-.13h-3.82V6.11h3.17A10.66,10.66,0,0,0,490.7,6V7.37a12.13,12.13,0,0,0-1.89-.11h-3.19V9.15h4.12A13.16,13.16,0,0,0,491.65,9v1.36a13.25,13.25,0,0,0-1.89-.12h-4a11.4,11.4,0,0,0,1.72,3.15,11.47,11.47,0,0,0,2.29-2.71l1.07.75a16.83,16.83,0,0,1-2.62,2.86,11.77,11.77,0,0,0,4,2.94,5.89,5.89,0,0,0-.88,1.22,14.68,14.68,0,0,1-3.08-2.42,13.26,13.26,0,0,1-2.78-4.28,17,17,0,0,1,.17,2.08V17.8c0,1.14-.4,1.43-2,1.43a16.76,16.76,0,0,1-1.72-.08,3.45,3.45,0,0,0-.38-1.32,13.81,13.81,0,0,0,2.08.18c.61,0,.73-.08.73-.46v-3a27.81,27.81,0,0,1-4.45,2.71,8.36,8.36,0,0,0-.94.57l-.61-1.39a21.91,21.91,0,0,0,6-3.19v-3h-3.27a11.06,11.06,0,0,0-1.81.1V9.07a15,15,0,0,0,1.83.08h3.25V7.26H482a10.7,10.7,0,0,0-1.82.11V6a9.4,9.4,0,0,0,1.78.11h2.37V4.3Zm-.77,6.45a18.7,18.7,0,0,1,2,2.54l-1,.69a12.93,12.93,0,0,0-2-2.58Z"/>
        <path class="cls-1" d="M500.22,1.6A27.62,27.62,0,0,0,499.34,5a31,31,0,0,0-.63,6.57c0,1.63,0,2.87.12,4a19.93,19.93,0,0,1,1.37-4.1l1,.48a18.23,18.23,0,0,0-1.71,5.78V18l-1.51.13c0-.34-.06-.44-.12-.84a30.06,30.06,0,0,1-.55-5.94A34.45,34.45,0,0,1,498.27,3a10.94,10.94,0,0,0,.29-1.68ZM505.57,10A4.85,4.85,0,0,0,504,13.12c0,1.56,1.32,2.31,4,2.31a13.87,13.87,0,0,0,4.83-.73l.21,1.61c-.27,0-.32.05-.74.11a21.9,21.9,0,0,1-4.3.42c-2.39,0-3.91-.51-4.81-1.6a3,3,0,0,1-.63-1.93,5.8,5.8,0,0,1,1.83-3.9Zm-2.66-6.22a14.24,14.24,0,0,0,3.57.32,22.32,22.32,0,0,0,5.62-.57l.11,1.49-1.45.19a35.2,35.2,0,0,1-4.52.27,27.22,27.22,0,0,1-3.35-.21Z"/>
        <path class="cls-1" d="M522.63,1.51A29.76,29.76,0,0,0,521,11.36c0,.73,0,2,.08,2.94,0,.17,0,.21,0,.59v.4l.09,0a18.28,18.28,0,0,1,1.24-3.7c.08-.19.12-.27.17-.42l1,.48a18.3,18.3,0,0,0-1.8,6,2.48,2.48,0,0,0,0,.42l-1.49.14c0-.19,0-.29-.13-.77a34.23,34.23,0,0,1-.58-6.24,35.51,35.51,0,0,1,1.09-8.63A9.22,9.22,0,0,0,521,1.24Zm2.12,3.91a14.67,14.67,0,0,0,3.78.33c.82,0,1.38,0,2.24-.06,0-2,0-2,0-3.57a4.85,4.85,0,0,0-.06-.86h1.57a22.56,22.56,0,0,0-.14,3.3c0,.23,0,.56,0,1a14.3,14.3,0,0,0,3.63-.77l.06,1.43-1.47.29a19.54,19.54,0,0,1-2.22.34c0,2.07.06,3.14.23,5.94a15.23,15.23,0,0,1,3.51,2.06l.52.35-.65,1.47a11.42,11.42,0,0,0-3-2.18.75.75,0,0,1-.21-.13l-.19-.12a3.07,3.07,0,0,1,0,.54,3.59,3.59,0,0,1-.25,1.43c-.51,1.11-1.79,1.76-3.51,1.76-2.43,0-4-1.15-4-3s1.66-3,4-3a6,6,0,0,1,2.33.42c-.06-.44-.14-2.41-.21-5.48-.94,0-1.59.06-2.39.06S526.76,7,526,7a5.83,5.83,0,0,0-.67,0l-.36,0-.21,0h-.08Zm4,7.87c-1.64,0-2.71.69-2.71,1.74s1,1.7,2.44,1.7a2.9,2.9,0,0,0,2.14-.73,2.48,2.48,0,0,0,.4-1.64c0-.15,0-.63,0-.63A5.33,5.33,0,0,0,528.78,13.29Z"/>
        <path class="cls-1" d="M541.57,13.54A21.64,21.64,0,0,1,545.79,18l-1.18,1.12a20.77,20.77,0,0,0-4.13-4.58Z"/>
        <path class="cls-1" d="M10.92,56.21a17.87,17.87,0,0,0-2.25.08V54.63a10,10,0,0,0,2.29.15H21V44.64H11.4a18.35,18.35,0,0,0-2.41.1V43.06a11.11,11.11,0,0,0,2.41.15H21.48l1.09,0c0,.53,0,.88,0,1.64V55.56a12.93,12.93,0,0,0,.11,1.91H21V56.21Z"/>
        <path class="cls-1" d="M32.61,56v1.49H31a11.45,11.45,0,0,0,.08-1.58V44.51A11.15,11.15,0,0,0,31,42.88a15.68,15.68,0,0,0,1.63.06H43.82a11.42,11.42,0,0,0,1.64-.06,11.8,11.8,0,0,0-.06,1.63V55.87c0,.63,0,1.18.06,1.62H43.87V56ZM43.87,44.32H32.61V54.63H43.87Z"/>
        <path class="cls-1" d="M66.8,46.36a12.34,12.34,0,0,0,2.45-.15v1.64a20.17,20.17,0,0,0-2.43-.1H62.07c-.16,2.94-.54,4.51-1.55,6.11a12.12,12.12,0,0,1-5.21,4.39,4.27,4.27,0,0,0-1.07-1.35,9.71,9.71,0,0,0,5.21-4.32,10.63,10.63,0,0,0,1.07-4.83H54.7a20.17,20.17,0,0,0-2.43.1V46.21a12.56,12.56,0,0,0,2.46.15h5.85c0-.78,0-1.2,0-1.85V43a10.51,10.51,0,0,0-.1-1.78h1.76a10.55,10.55,0,0,0-.1,1.78l0,1.51v1.85Z"/>
        <path class="cls-1" d="M88.37,44.32a4.89,4.89,0,0,0,1.76-.12L91,45c-.19.33-.19.33-.46,2.12a13.14,13.14,0,0,1-3.8,7.66,16.5,16.5,0,0,1-6.15,3.49,4.37,4.37,0,0,0-1-1.43,13.94,13.94,0,0,0,4.64-2c2.94-2,4.47-4.91,4.87-9.17H77.66V48.8c0,.67,0,1.15.06,1.55H76c0-.36.08-1,.08-1.57V45.94a14.37,14.37,0,0,0-.08-1.7,18.75,18.75,0,0,0,1.93.08h4.45V42.2a6.9,6.9,0,0,0-.1-1.34H84a8.66,8.66,0,0,0-.1,1.32v2.14Z"/>
        <path class="cls-1" d="M113.17,42.08a4.62,4.62,0,0,0-.93.88,36.69,36.69,0,0,1-4.91,4.22v8.94a14.7,14.7,0,0,0,.1,2.23h-1.82a11.49,11.49,0,0,0,.12-2.18v-8a32.76,32.76,0,0,1-8.1,3.67,4.92,4.92,0,0,0-.82-1.4A29.65,29.65,0,0,0,107.71,45a17.62,17.62,0,0,0,4-4Z"/>
        <path class="cls-1" d="M125.18,41.83a11.58,11.58,0,0,0-.13,1.8c-.16,5.69-.33,7.25-1.13,9.37a12.75,12.75,0,0,1-3.63,5.18A4,4,0,0,0,119,57.05a10.49,10.49,0,0,0,3.55-4.83c.65-1.83.94-4.58.94-9a9.81,9.81,0,0,0-.08-1.49Zm5.21-.23a7.74,7.74,0,0,0-.13,1.84l-.12,12.68a9.7,9.7,0,0,0,3.9-2.43,10.4,10.4,0,0,0,2.48-4.2,5.88,5.88,0,0,0,1.17,1.22,11.8,11.8,0,0,1-4.22,5.39,14,14,0,0,1-3,1.54l-.67.25a2.7,2.7,0,0,0-.48.23l-.84-1a3.64,3.64,0,0,0,.14-1.42l.13-12.29a8.92,8.92,0,0,0-.08-1.87Z"/>
        <path class="cls-1" d="M158,57.91a39.1,39.1,0,0,0-6.72-6.49,22.76,22.76,0,0,1-4,3.76,27.48,27.48,0,0,1-4.11,2.52,4.92,4.92,0,0,0-1-1.39,16.74,16.74,0,0,0,4.26-2.41,22.87,22.87,0,0,0,7.5-9.47,2.16,2.16,0,0,1,.1-.25.47.47,0,0,0,.06-.15,3.63,3.63,0,0,1-.5,0l-7,.11a14.61,14.61,0,0,0-2.16.16l-.05-1.7a9.3,9.3,0,0,0,1.66.11h.55l7.49-.09a4.13,4.13,0,0,0,1.35-.16l.88.9a3.78,3.78,0,0,0-.59,1,25.4,25.4,0,0,1-3.46,5.88,52.09,52.09,0,0,1,7,6.3Z"/>
        <path class="cls-1" d="M180.91,45.19l-.56,1.13a15.88,15.88,0,0,1-2,3.3c.84,1.36,1.81,2.26,2.42,2.26.4,0,.69-.79.92-2.56a3.64,3.64,0,0,0,1.05.84c-.44,2.19-1,3-1.95,3s-2.23-1-3.24-2.54a14.36,14.36,0,0,1-3,2.54,3.84,3.84,0,0,0-.92-.88A12.26,12.26,0,0,0,177,49.55a17.42,17.42,0,0,1-1.58-6.07h-8.54c0,6.07-.38,8.09-1.79,10.25a3.09,3.09,0,0,0-1.17-.84c1.34-1.93,1.67-3.61,1.67-8.61a20.1,20.1,0,0,0-.1-2c.67.06,1.47.1,2.48.1h7.33L175.16,41a3.57,3.57,0,0,0-.13-.84h1.49a7.37,7.37,0,0,0-.06,1c0,.32,0,.61.06,1.2h3.41a12.39,12.39,0,0,0-2.44-1.59l.86-.72a16.33,16.33,0,0,1,2.48,1.58l-.78.73a11.85,11.85,0,0,0,2.37-.13v1.37a17.73,17.73,0,0,0-2.35-.11h-3.42a16.61,16.61,0,0,0,1.18,5,11.85,11.85,0,0,0,1.84-3.8Zm-13.31,9a11.84,11.84,0,0,1-2.46,4.52l-1.13-.8a8.88,8.88,0,0,0,2.44-4.29Zm7.16-8a12.28,12.28,0,0,0-1.62-.08h-4a13.15,13.15,0,0,0-1.63.08V44.89a10.5,10.5,0,0,0,1.63.09h4a10.44,10.44,0,0,0,1.62-.09ZM168,48.57a10.18,10.18,0,0,0-.06-1.18,13.84,13.84,0,0,0,1.43.06h3.38a14.27,14.27,0,0,0,1.45-.06,7.53,7.53,0,0,0-.07,1.15v1.92c0,.48,0,.58,0,1.19a13.43,13.43,0,0,0-1.4,0h-3.42a12.05,12.05,0,0,0-1.41.06A9.09,9.09,0,0,0,168,50.5Zm2.35,8.67c0,.48.3.54,3.05.54,2.27,0,3.08-.12,3.38-.48a3.42,3.42,0,0,0,.33-1.81,4.09,4.09,0,0,0,1.28.53c-.29,2.79-.56,2.94-5.45,2.94-3.3,0-3.87-.21-3.87-1.45V55.12a8.6,8.6,0,0,0-.12-1.56h1.51a7,7,0,0,0-.11,1.43Zm-1.19-6.66H173v-2.1H169.2Zm5.67,5.57a15.17,15.17,0,0,0-3.41-2.48l.82-.78a17.34,17.34,0,0,1,3.45,2.35Zm4.72-2.4a22.38,22.38,0,0,1,2.85,4l-1.13.67a18.75,18.75,0,0,0-2.81-4.11Z"/>
        <path class="cls-1" d="M202.5,51.42a15,15,0,0,0,2.37-.13V52.7a20.3,20.3,0,0,0-2.37-.12h-5.19a12.71,12.71,0,0,0,2.52,2,21.24,21.24,0,0,0,5.76,2.44,5.74,5.74,0,0,0-.91,1.28,23.19,23.19,0,0,1-5.14-2.46,12.85,12.85,0,0,1-3.19-2.81c.06,1.13.08,1.91.08,2.37v1.79a8.39,8.39,0,0,0,.15,2.2H195a13.53,13.53,0,0,0,.13-2.2V55.45c0-.44,0-1.59.08-2.37a19.23,19.23,0,0,1-8,5.21,4.6,4.6,0,0,0-.95-1.22,19.11,19.11,0,0,0,8-4.49h-5a20.42,20.42,0,0,0-2.35.12V51.29a12.38,12.38,0,0,0,2.31.13h5.9v-.63a6.37,6.37,0,0,0-.11-1.43h1.54a8.52,8.52,0,0,0-.09,1.43v.63Zm-15-8.1A15.56,15.56,0,0,1,190.81,45l-.76,1a11.23,11.23,0,0,0-3.32-1.79Zm5.23,3.38a31.14,31.14,0,0,1-4.62,3.23,3.23,3.23,0,0,0-.51.34L186.9,49a17,17,0,0,0,5.38-3.42ZM189,40.57a15.13,15.13,0,0,1,3.36,1.82l-.76,1a12.47,12.47,0,0,0-3.4-1.87Zm10.52,2.12a16.39,16.39,0,0,0,1.85-.07,12.12,12.12,0,0,0-.09,1.73V47.6c0,.59.07.63,1,.63,1.09,0,1.41-.08,1.49-.44a10.53,10.53,0,0,0,.17-2.27,3.55,3.55,0,0,0,1.22.48c-.21,3.24-.36,3.41-3,3.41-1.81,0-2.15-.24-2.15-1.43V43.82h-2.41a7.89,7.89,0,0,1-5.14,6.43,3.45,3.45,0,0,0-.82-1,7.4,7.4,0,0,0,3.69-2.67,6.81,6.81,0,0,0,1-2.73h-1.18a13,13,0,0,0-2.12.11V42.56a10.4,10.4,0,0,0,2.14.13h1.31c0-.42,0-.76,0-1.24a6.75,6.75,0,0,0-.09-1.24l1.47,0a5.57,5.57,0,0,0-.08,1c0,.38-.06,1.05-.08,1.47Z"/>
        <path class="cls-1" d="M218.65,41.87a7.88,7.88,0,0,0-.13-1.68h1.6a7.35,7.35,0,0,0-.13,1.7v.33h5.25a18.43,18.43,0,0,0,2.33-.12v1.45a15.22,15.22,0,0,0-2.31-.11H213.19v3.85c0,6-.88,9.15-3.25,11.84a3.41,3.41,0,0,0-1.14-.93,10.79,10.79,0,0,0,2.9-7.09c-.4.25-1.15.69-2.27,1.3a3.34,3.34,0,0,0-.5.29l-.59-1.32a16.33,16.33,0,0,0,3.47-1.55c.06-1.08.08-1.64.08-2.36a36.91,36.91,0,0,0-.15-5.35,20.55,20.55,0,0,0,2.4.1h4.51Zm-9,2a20.88,20.88,0,0,1,1.56,3.89l-1.12.56a17.86,17.86,0,0,0-1.46-3.92ZM220,47.1h-3.66a20.11,20.11,0,0,0-2.08.08V45.79a13.31,13.31,0,0,0,2.08.11h8.86a13.73,13.73,0,0,0,2.06-.13V47.2a15.12,15.12,0,0,0-2.06-.1h-3.86v3.84h3.44a9.67,9.67,0,0,0,1.83-.11v1.43a11.44,11.44,0,0,0-1.81-.1h-3.46v5h4.2a16.34,16.34,0,0,0,2.2-.13v1.47a16.89,16.89,0,0,0-2.22-.13H214.43a17.72,17.72,0,0,0-2.33.13V57.09a13.24,13.24,0,0,0,2.1.11h1.43V51.67a16.57,16.57,0,0,0-.13-2.05h1.6a14.63,14.63,0,0,0-.13,2.05V57.2H220Z"/>
        <path class="cls-1" d="M235.75,42.52a12.19,12.19,0,0,0-.13-2.12h1.55a16.27,16.27,0,0,0-.1,2.12v1.41h2A13.11,13.11,0,0,0,241,43.8v1.41a13.33,13.33,0,0,0-1.91-.09,19.94,19.94,0,0,1-1.49,6.62,40.2,40.2,0,0,1,3,4.41l-1,1A39.34,39.34,0,0,0,237,53a16.94,16.94,0,0,1-4.66,5.6,3.47,3.47,0,0,0-1-1,14.61,14.61,0,0,0,4.85-5.74,36.47,36.47,0,0,0-3.8-4.28l1-.84a48.77,48.77,0,0,1,3.38,3.8,19.29,19.29,0,0,0,1-5.46h-4.37a10.42,10.42,0,0,0-1.87.11V43.8a13.36,13.36,0,0,0,1.94.13h2.33Zm6.08,5.63a23.22,23.22,0,0,1,3.11,4.68l-1.15.8a18.32,18.32,0,0,0-3-4.83Zm1.33-1.75a13.54,13.54,0,0,0-2,.13V45.1a11.44,11.44,0,0,0,2,.11h3.27V42.86a12.55,12.55,0,0,0-.14-2.29h1.61a14.9,14.9,0,0,0-.12,2.29v2.35h.52a13.64,13.64,0,0,0,2-.13v1.45a12.1,12.1,0,0,0-2.06-.13h-.5V57.22c0,1.38-.42,1.7-2.31,1.7-1,0-1.47,0-2.4-.07a4.8,4.8,0,0,0-.44-1.4,21.49,21.49,0,0,0,2.69.23c.95,0,1.11-.09,1.11-.53V46.4Z"/>
        <path class="cls-1" d="M257.1,43.32a14.37,14.37,0,0,1-2.24,2.54,4.16,4.16,0,0,0-1-.88,9.84,9.84,0,0,0,3.42-4.73l1.35.38c-.63,1.15-.63,1.15-.86,1.55h3.33a13.82,13.82,0,0,0,2.1-.12V43.4a17.89,17.89,0,0,0-1.93-.08h-1.47a19.25,19.25,0,0,1,1.14,2l-1.2.44a13.82,13.82,0,0,0-1.16-2.41Zm13.42,3.27a11.06,11.06,0,0,0,2.1-.14v1.4a16,16,0,0,0-2.1-.12h-6.68v1.55h4.79c.17,0,.59,0,1.26,0a5.87,5.87,0,0,0,.73-.06,14,14,0,0,0-.08,1.8v1.77c0,1-.44,1.38-1.81,1.38a12.23,12.23,0,0,1-1.36-.08,3.68,3.68,0,0,0-.31-1.16,7,7,0,0,0,1.51.17c.52,0,.71-.13.71-.5V50.41h-5.44v1.26a14.28,14.28,0,0,0,4.52,3.87,19.31,19.31,0,0,0,4.51,1.82,5.34,5.34,0,0,0-.92,1.26,18.5,18.5,0,0,1-8.21-5.46c0,.7.06,1.26.08,1.79v2.14a8.81,8.81,0,0,0,.17,2.27h-1.58a12.63,12.63,0,0,0,.15-2.27V55c0-.52,0-1.07,0-1.74a17.86,17.86,0,0,1-7.51,5.39,4.73,4.73,0,0,0-1-1.17,21.81,21.81,0,0,0,4.18-1.91,13.76,13.76,0,0,0,4.26-3.85V50.41h-4.95v2.38a14.28,14.28,0,0,0,.08,1.93h-1.47a18.93,18.93,0,0,0,.11-2V51c0-.71-.05-1.24-.09-1.82a19.29,19.29,0,0,0,1.95.08h4.37V47.73h-6.11a14.68,14.68,0,0,0-2,.12v-1.4a11.6,11.6,0,0,0,2,.14h6.09a8.64,8.64,0,0,0-.08-1.3h1.47a5.92,5.92,0,0,0-.09,1.3Zm-5.67-3.27a10.69,10.69,0,0,1-1.45,1.89,3.48,3.48,0,0,0-1-.72A8.91,8.91,0,0,0,265,40.23l1.3.4c-.36.78-.51,1-.76,1.55h5a16.86,16.86,0,0,0,2.25-.12v1.36a18.27,18.27,0,0,0-2.21-.1H268.1a13.33,13.33,0,0,1,1.16,2.06l-1.16.46a15.56,15.56,0,0,0-1.25-2.52Z"/>
        <path class="cls-1" d="M285,52.13c-1.22,2.78-2.46,4-4,4-2,0-3.49-2.19-3.49-5.13a8.53,8.53,0,0,1,9-8.58,8.09,8.09,0,0,1,5.77,2.08,7,7,0,0,1,2,5.12,7.64,7.64,0,0,1-4.81,7.24,16.34,16.34,0,0,1-3.19,1,3.38,3.38,0,0,0-.73-1.41,12.25,12.25,0,0,0,3.5-1,6.33,6.33,0,0,0,3.72-5.88,5.55,5.55,0,0,0-3.34-5.27A6.14,6.14,0,0,0,287,43.8,31.37,31.37,0,0,1,285,52.13Zm-2.59-7.32a7.25,7.25,0,0,0-3.42,6.25c0,2,.88,3.57,2,3.57.88,0,1.72-1,2.62-3a28.71,28.71,0,0,0,1.91-7.77A6.69,6.69,0,0,0,282.36,44.81Z"/>
        <path class="cls-1" d="M300.22,44.54a15.14,15.14,0,0,0,2.62.18c.42,0,.65,0,1.26,0a20.43,20.43,0,0,0,.46-3.86l1.66.17a17.45,17.45,0,0,0-.38,2c-.1.67-.17,1-.27,1.6a17.15,17.15,0,0,0,3.78-.72l.1,1.45a5.05,5.05,0,0,0-.58.11,30,30,0,0,1-3.55.5c-.32,1.66-.91,4-1.47,5.94a55.13,55.13,0,0,1-2.42,6.41l-1.53-.65a42.48,42.48,0,0,0,4-11.62c-.42,0-.67,0-1.45,0s-.92,0-1.74-.05h-.09l-.35,0Zm9.38,7.62A7.34,7.34,0,0,0,309,53a2.57,2.57,0,0,0-.52,1.5c0,1.26,1.28,1.93,3.67,1.93a15.58,15.58,0,0,0,4.64-.72l.15,1.58-.93.14a20.23,20.23,0,0,1-3.73.36c-3.45,0-5.23-1.07-5.23-3.15,0-.94.29-1.59,1.41-3Zm6.49-3.64a22.21,22.21,0,0,0-2.48-.14,18.44,18.44,0,0,0-5.25.71l-.14-1.43a24,24,0,0,1,5.56-.69c.4,0,.71,0,2.29.06Z"/>
        <path class="cls-1" d="M326.61,41.91a27.45,27.45,0,0,0,.57,3.65,10.06,10.06,0,0,1,4.49-1.05,6.5,6.5,0,0,1,.69,0,24.82,24.82,0,0,0,.66-3.39l1.57.34A15.66,15.66,0,0,0,334,43.7c-.1.35-.14.58-.25,1,3.49.65,5.57,2.94,5.57,6.11a6.61,6.61,0,0,1-2.29,5,11.22,11.22,0,0,1-4.24,2.08l-1.33.31a3.45,3.45,0,0,0-.82-1.4,9.67,9.67,0,0,0,3.13-.78,6.8,6.8,0,0,0,3.15-2.29,5.16,5.16,0,0,0,.93-3c0-2.56-1.54-4.24-4.43-4.85a23.81,23.81,0,0,1-4.08,8.23c-1.34,1.64-2.52,2.39-3.73,2.39-1.83,0-3-1.63-3-4.11a7.51,7.51,0,0,1,1.22-4,8,8,0,0,1,2.1-2.14c-.15-.67-.4-1.91-.59-3a5,5,0,0,0-.27-1.12Zm-1.8,7.52a6.17,6.17,0,0,0-.84,2.94c0,1.66.67,2.75,1.7,2.75.73,0,1.64-.63,2.58-1.79a28.62,28.62,0,0,1-2-5.65A5.89,5.89,0,0,0,324.81,49.43Zm4.41,2.75a3.13,3.13,0,0,1,.25-.47A24.06,24.06,0,0,0,332,45.77l-.53,0a7.88,7.88,0,0,0-4.05,1.07A29.29,29.29,0,0,0,329,51.69a3.75,3.75,0,0,1,.16.49Z"/>
        <path class="cls-1" d="M352.59,50.5h-4.94a13.91,13.91,0,0,0-2,.1V49.3a12.66,12.66,0,0,0,2,.11h4.89V48H348.2a13.87,13.87,0,0,0-1.72.08,10.35,10.35,0,0,0,.08-1.4v-.93a10.86,10.86,0,0,0-.08-1.42,14.65,14.65,0,0,0,1.74.08h4.37V43.06H346.5a18.52,18.52,0,0,0-2.35.13V41.8a14.58,14.58,0,0,0,2.39.13h6a8.12,8.12,0,0,0-.13-1.89H354a7.21,7.21,0,0,0-.14,1.89h6.42a15.1,15.1,0,0,0,2.42-.13v1.39a19.65,19.65,0,0,0-2.38-.13h-6.46v1.39h4.83a14.18,14.18,0,0,0,1.72-.08,10.6,10.6,0,0,0-.09,1.42v.93a10.19,10.19,0,0,0,.09,1.4,13.73,13.73,0,0,0-1.7-.08h-4.85v1.37h4.57a21,21,0,0,0,2.36-.09,14.21,14.21,0,0,0-.07,1.74V52a10.25,10.25,0,0,0,2.23-.13v1.32a15,15,0,0,0-2.23-.1V54.4a12.67,12.67,0,0,0,.13,2.1h-1.36v-.86h-5.63v1.74c0,1.45-.42,1.75-2.46,1.75-.44,0-.82,0-2-.09a3.68,3.68,0,0,0-.36-1.32,17.76,17.76,0,0,0,2.6.21c.76,0,.95-.1.95-.57V55.64h-5.06a13.11,13.11,0,0,0-2.06.11v-1.3a13.24,13.24,0,0,0,2,.1h5.1V53h-6.3a16,16,0,0,0-2.29.1V51.82a13.94,13.94,0,0,0,2.29.13h6.3Zm-4.77-5V47h4.77V45.48Zm6,1.55h5.21V45.48h-5.21ZM359.48,52V50.5h-5.63V52Zm-5.63,2.6h5.63V53h-5.63Z"/>
        <path class="cls-1" d="M372.9,43.32a16.4,16.4,0,0,0-2.25-2.92l1.26-.51a16.31,16.31,0,0,1,2.43,3.43h3a14.64,14.64,0,0,0,2.37-3.4l1.34.5a23.64,23.64,0,0,1-2.26,2.9h4.3a12.81,12.81,0,0,0,2.1-.13v1.43a15,15,0,0,0-2.1-.13H368.78a15.61,15.61,0,0,0-2.1.13V43.19a10,10,0,0,0,2.1.13Zm-3.47,13.6a12.9,12.9,0,0,0,.13,2.23H368a15,15,0,0,0,.11-2.27V48.06c0-1,0-1.38-.06-1.87a17.94,17.94,0,0,0,2,.09h3.3a10.84,10.84,0,0,0,1.91-.09c0,.49-.06,1-.06,2.23v8.9c0,1.26-.4,1.62-1.77,1.62-.44,0-.94,0-1.74-.09a5.76,5.76,0,0,0-.34-1.3,9.71,9.71,0,0,0,1.83.21c.61,0,.74-.1.74-.54V54.4h-4.54ZM374,49.78V47.47h-4.54v2.31Zm0,3.45V51h-4.54v2.27Zm5.46-6.78a9.82,9.82,0,0,0-.11,2v4.26a14.11,14.11,0,0,0,.08,2.37h-1.46A18.17,18.17,0,0,0,378,52.7V48.42a10.72,10.72,0,0,0-.11-2Zm4.51-.63a11.35,11.35,0,0,0-.13,2.26v9.09c0,1.47-.44,1.85-2.16,1.85-.71,0-1.41,0-2.46-.12a5.14,5.14,0,0,0-.39-1.41,16.45,16.45,0,0,0,2.7.27c.82,0,1-.08,1-.63V48a10.49,10.49,0,0,0-.13-2.22Z"/>
        <path class="cls-1" d="M405.57,42.2a26,26,0,0,1-5.69,4c.59.42.84.59,1.64,1.2L401,48h3.8a11.83,11.83,0,0,0,2.23-.11l.82.9a7.05,7.05,0,0,0-.57.7,16.84,16.84,0,0,1-3.68,3.67,4.85,4.85,0,0,0-1.09-.86,14.09,14.09,0,0,0,3.36-3h-6.38v8.14c0,1.35-.5,1.7-2.46,1.7-.65,0-1.76,0-2.47-.1a5.43,5.43,0,0,0-.34-1.45,17.62,17.62,0,0,0,2.94.25c.71,0,.92-.14.92-.61V49.22h-6.51a16.54,16.54,0,0,0-2.16.12V47.83a14.88,14.88,0,0,0,2.33.13h8.4a30.69,30.69,0,0,0-5.79-3.57l.86-.93c1.84,1,2.56,1.37,3.57,2a20.58,20.58,0,0,0,4.47-3H393.5a14.77,14.77,0,0,0-2.17.1V41.15a12.06,12.06,0,0,0,2.21.13h9.61a14.92,14.92,0,0,0,1.56-.06Z"/>
        <path class="cls-1" d="M411.45,49.38a4.06,4.06,0,0,0,.76.07l1.07,0c.78-.93,1-1.2,1.6-2a21,21,0,0,0-3.2-3.21l.78-1c.46.44.57.53.9.86a15.39,15.39,0,0,0,2.08-3.88l1.3.59a7.36,7.36,0,0,0-.48.79,32,32,0,0,1-2.08,3.3c.63.63,1,1,1.41,1.53a21,21,0,0,0,2.41-4l1.24.74c-.19.25-.31.44-.61.86a46.5,46.5,0,0,1-3.88,5.31c1.57-.1,1.95-.12,3.4-.31a15.26,15.26,0,0,0-.84-1.66l1-.38a22.77,22.77,0,0,1,1.84,4l-1.07.48c-.21-.67-.27-.86-.48-1.4a3.55,3.55,0,0,1-.52.06l-1.45.17v6.9a16.06,16.06,0,0,0,.12,2.15h-1.53a16.18,16.18,0,0,0,.13-2.17V50.39c-1.56.15-1.56.15-2.36.21a8.87,8.87,0,0,0-1.28.15ZM414,52a18.58,18.58,0,0,1-1.39,5.94l-1.16-.55a15.34,15.34,0,0,0,1.39-5.62Zm4.76-.36a33.52,33.52,0,0,1,1.24,5l-1.22.4A26.82,26.82,0,0,0,417.75,52ZM422.35,45a16.34,16.34,0,0,1-2.14,3.27,4,4,0,0,0-1.09-.82,13.69,13.69,0,0,0,2.35-3.59,12.85,12.85,0,0,0,1.17-3.46l1.43.36c-.17.39-.17.39-.54,1.44-.17.47-.34.89-.61,1.56h5.25a10.31,10.31,0,0,0,1.7-.09,27.84,27.84,0,0,0-.11,3.24,52.85,52.85,0,0,1-.9,9.51c-.48,2-1,2.46-3,2.46-.6,0-1.38-.05-2.22-.13a5,5,0,0,0-.36-1.45,16.55,16.55,0,0,0,2.8.27c1,0,1.21-.25,1.51-1.59a59.26,59.26,0,0,0,.9-11Zm2.22,8.42a20.19,20.19,0,0,0-2.87-5.21l1.09-.63a25.6,25.6,0,0,1,3,5.12Z"/>
        <path class="cls-1" d="M442.53,52.13c-1.22,2.78-2.46,4-4,4-2,0-3.48-2.19-3.48-5.13a8.52,8.52,0,0,1,9-8.58,8.13,8.13,0,0,1,5.78,2.08,7,7,0,0,1,2,5.12,7.64,7.64,0,0,1-4.8,7.24,16.69,16.69,0,0,1-3.2,1,3.27,3.27,0,0,0-.73-1.41,12.33,12.33,0,0,0,3.51-1,6.33,6.33,0,0,0,3.71-5.88A5.53,5.53,0,0,0,447,44.32a6.06,6.06,0,0,0-2.43-.52A31.37,31.37,0,0,1,442.53,52.13ZM440,44.81a7.25,7.25,0,0,0-3.42,6.25c0,2,.88,3.57,2,3.57.88,0,1.72-1,2.63-3a29.09,29.09,0,0,0,1.91-7.77A6.65,6.65,0,0,0,440,44.81Z"/>
        <path class="cls-1" d="M462.42,50.29c-1.37,1.13-2,2.1-2,3.08s.61,1.66,1.79,2.06a13.11,13.11,0,0,0,3.84.42,19.7,19.7,0,0,0,6.3-.8l.19,1.73a6.74,6.74,0,0,0-.72.1,33.61,33.61,0,0,1-5.66.48,14.78,14.78,0,0,1-4.83-.65,3.34,3.34,0,0,1-2.4-3.17c0-1.36.8-2.69,2.42-4Zm-2.21-7.67a23.9,23.9,0,0,0,5.59.51,23.13,23.13,0,0,0,5.31-.44l.11,1.38a32.28,32.28,0,0,0-5.29,3.19l-1.08-.86a34.5,34.5,0,0,1,3.72-2.22,16.56,16.56,0,0,1-3.17.27,40.69,40.69,0,0,1-4.62-.27l-.69-.06Zm10.48,3.64a16.28,16.28,0,0,1,2.14,3.25l-1.05.63a16.19,16.19,0,0,0-2.14-3.34ZM473,45a15.79,15.79,0,0,1,2.18,3.27l-1.05.59a17.45,17.45,0,0,0-2.14-3.3Z"/>
        <path class="cls-1" d="M481.19,42.1a10.11,10.11,0,0,0-.14-1.87h1.61a9.47,9.47,0,0,0-.14,1.85v3.48h.27a7,7,0,0,0,1.51-.1v1.38a10.51,10.51,0,0,0-1.49-.08h-.29V57a16.23,16.23,0,0,0,.14,2.26h-1.61a14.69,14.69,0,0,0,.14-2.28V46.76h-.54a14.83,14.83,0,0,0-1.75.08V45.46a9.92,9.92,0,0,0,1.75.1h.54Zm7.37,8.21a11.87,11.87,0,0,0,1.77-.09c-.05.4-.05.63-.07,1.18a41.27,41.27,0,0,1-.42,5c-.31,2-.63,2.29-2.49,2.29-.28,0-.68,0-1,0a4,4,0,0,0-.28-1.33,7.42,7.42,0,0,0,1.58.19c.52,0,.73-.14.84-.54a28.33,28.33,0,0,0,.52-5.55h-1.84a12.44,12.44,0,0,1-3.15,7.6A5.14,5.14,0,0,0,483.1,58c1.66-1.55,2.46-3.36,2.86-6.51h-1a6.29,6.29,0,0,0-1.24.09V50.2a4.86,4.86,0,0,0,1.31.11h1c0-.46.05-.8.05-1.16a5.64,5.64,0,0,0-.07-1h1.39a10.84,10.84,0,0,0-.13,1.36c0,.29,0,.4,0,.8Zm6.32-8.09a12.94,12.94,0,0,0,1.66-.08,8,8,0,0,0-.08.88,14.36,14.36,0,0,1-.61,3.51,1.52,1.52,0,0,1-.9.82,5,5,0,0,1-1.35.12c-.59,0-1.3,0-2.1-.1a4.77,4.77,0,0,0-.27-1.32,13.23,13.23,0,0,0,2.56.25c.57,0,.8-.15.95-.57a10.27,10.27,0,0,0,.35-2.35h-4.62c-.88,2.2-2.33,3.53-5.1,4.72a4,4,0,0,0-.82-1.13c2.48-.84,3.82-1.89,4.6-3.59H487a13.62,13.62,0,0,0-2,.1V42.12a14.7,14.7,0,0,0,2.1.1h2.46a6.91,6.91,0,0,0,.23-1.72,2.06,2.06,0,0,0,0-.35l1.53.08a10.66,10.66,0,0,0-.25,1.11c-.06.32-.1.51-.19.88Zm1.05,8.09a12.25,12.25,0,0,0,1.75-.09c0,.38-.05.8-.07,1.26-.17,3.51-.42,5.55-.82,6.41-.27.61-.84.84-2.05.84a9.19,9.19,0,0,1-1.41-.06,4.26,4.26,0,0,0-.27-1.33,9.45,9.45,0,0,0,1.89.21c.54,0,.73-.1.84-.46a25.16,25.16,0,0,0,.56-5.63h-2.27a15.59,15.59,0,0,1-1.32,4.94A9.2,9.2,0,0,1,490.94,59a3.85,3.85,0,0,0-.93-1c1.58-1.39,2.48-3.41,2.88-6.58h-.57a6.41,6.41,0,0,0-1.28.09V50.2a5.11,5.11,0,0,0,1.34.11H493c.05-.63.07-.93.07-1.3a8.53,8.53,0,0,0-.05-.89h1.37a14.41,14.41,0,0,0-.15,1.71c0,.18,0,.27,0,.48Z"/>
        <path class="cls-1" d="M516.43,44.66a17.92,17.92,0,0,0,2.46-.1c-.07.75-.07.75-.11,2.75a65.9,65.9,0,0,1-.73,8.86c-.38,1.82-1,2.39-2.69,2.39a25,25,0,0,1-3.74-.34,6.51,6.51,0,0,0-.36-1.57,18.7,18.7,0,0,0,4,.52c1.12,0,1.39-.52,1.7-3.06a77.83,77.83,0,0,0,.47-8.17h-6.49a18.46,18.46,0,0,1-2.08,7.41A14.3,14.3,0,0,1,503,58.79a3.31,3.31,0,0,0-1.11-1.17,13.12,13.12,0,0,0,3.53-2.27c2.43-2.21,3.61-4.92,4.09-9.41h-4.11a17.69,17.69,0,0,0-2.59.13V44.54a19.11,19.11,0,0,0,2.61.12h4.17c.07-.94.09-1.62.09-2.48a11.12,11.12,0,0,0-.13-2h1.66a15,15,0,0,0-.1,1.7c0,1,0,1-.11,2.81Z"/>
        <path class="cls-1" d="M530.63,43.59a9.22,9.22,0,0,0,1-2.88l1.67.3a5,5,0,0,0-.54,1.13c-.27.67-.55,1.24-.65,1.43l.44,0a29.41,29.41,0,0,0,6.61-.8l.13,1.43a6.81,6.81,0,0,0-.84.1,67.92,67.92,0,0,1-6.93.55,15.11,15.11,0,0,1-1.89,3c-.21.25-.63.73-.71.8a2.61,2.61,0,0,0-.28.21,0,0,0,0,1,0,0v0l0,.06c.76-.59.76-.59,1-.73a5.62,5.62,0,0,1,3.17-1,2.55,2.55,0,0,1,2.77,2.33c1.53-.61,2.73-1.05,3.65-1.39a4.48,4.48,0,0,0,1.43-.6l.67,1.46a34.82,34.82,0,0,0-5.6,1.85c0,.55,0,.76,0,1.28,0,.28,0,.74,0,1.16s0,.75,0,.94a4.84,4.84,0,0,0,0,.76l-1.43,0a27.79,27.79,0,0,0,.13-3,5.74,5.74,0,0,0,0-.63c-2.86,1.34-4,2.33-4,3.59s1.3,2,4.26,2a17.43,17.43,0,0,0,5.61-.82l.19,1.62c-.32,0-.42,0-.84.1a31.79,31.79,0,0,1-5.1.42c-3.76,0-5.59-1.07-5.59-3.23,0-1.15.71-2.25,2.14-3.32A17.09,17.09,0,0,1,534.3,50c-.17-1.15-.67-1.66-1.66-1.66A7.89,7.89,0,0,0,528,50.56a7.09,7.09,0,0,0-1.62,1.74l-1.17-1.17a20.94,20.94,0,0,0,4.7-6l.19-.31a2.35,2.35,0,0,1-.4,0l-3.09-.06h-.33l-.46,0,0-1.45a28.93,28.93,0,0,0,4.49.23Z"/>
        <path class="cls-1" d="M180.45,85.29c-.25,0-.34.06-.63.13-1.72.35-2.73.52-3.72.63v3.63a14.8,14.8,0,0,1,4.52-.76,7.15,7.15,0,0,1,3.71.88,4.32,4.32,0,0,1-2.12,8.07A3.1,3.1,0,0,1,179,95.49a7.64,7.64,0,0,1-.25-2.37,4.62,4.62,0,0,0,1.38-.54,6.37,6.37,0,0,0,0,.81c0,2.19.63,3.09,2.17,3.09a2.79,2.79,0,0,0,2.81-3c0-2.06-1.74-3.34-4.49-3.34a14.13,14.13,0,0,0-4.46.82v5.25c0,1.13-.5,1.68-1.53,1.68a5.53,5.53,0,0,1-3.46-1.34,2.55,2.55,0,0,1-1-2,3.82,3.82,0,0,1,1.66-2.79,11.44,11.44,0,0,1,3-1.72v-4l-.84.06c-.38,0-.73,0-1.34,0-.32,0-.88,0-1.12,0h-.86V84.81a12.4,12.4,0,0,0,2.15.15c.56,0,1.38,0,2-.07V82.81a14.56,14.56,0,0,0-.1-2h1.55a12.31,12.31,0,0,0-.11,2v2a21.12,21.12,0,0,0,4.29-.91Zm-5.69,6.19c-2.08,1-3.25,2.15-3.25,3.15,0,.44.29.86.9,1.26a3.89,3.89,0,0,0,1.87.61c.42,0,.48-.12.48-1Zm11.53-3.94a17.49,17.49,0,0,0-4.24-4.12l1.09-.82a17.91,17.91,0,0,1,4.24,4Z"/>
        <path class="cls-1" d="M197.13,84.58a15.17,15.17,0,0,0,.65-2.31h-3.85c0,10.56-.33,13.35-1.91,16.65a5.08,5.08,0,0,0-1-1c1.3-2.65,1.67-5.88,1.67-14.53,0-1,0-1.81-.08-2.37a16.84,16.84,0,0,0,2.12.1h4.39a15.29,15.29,0,0,0,2.25-.12v1.38a15.22,15.22,0,0,0-2.15-.1H199a17.24,17.24,0,0,1-.7,2.31h1a15.84,15.84,0,0,0,1.7-.07c0,.47-.06.89-.06,1.64v4.31A14,14,0,0,0,201,92c-.42,0-1,0-1.45,0h-.82v5.85c0,1-.33,1.24-1.76,1.24-.46,0-.76,0-1.18,0a4.09,4.09,0,0,0-.23-1.28,8,8,0,0,0,1.53.17c.36,0,.45-.07.45-.32V91.93h-1c-.46,0-1,0-1.47,0,0-.46.06-.91.06-1.51V86c0-.54,0-1-.06-1.49a16.58,16.58,0,0,0,1.76.07Zm-3.57,13a11.09,11.09,0,0,0,1.78-4.81l1.14.33a14,14,0,0,1-1.81,5Zm2.75-9.94h3.5v-2h-3.5Zm0,3.17h3.5v-2.1h-3.5Zm4.26,2a20.23,20.23,0,0,1,1.07,3.27l-1.09.45a16.38,16.38,0,0,0-1-3.36Zm4.53,3.55a13.84,13.84,0,0,1-3.9,3.06,3.92,3.92,0,0,0-1-1,9.78,9.78,0,0,0,3.89-2.8Zm-1.26-14.15a10.58,10.58,0,0,0-2,.12V81a10.22,10.22,0,0,0,2.06.13h4.6a9.66,9.66,0,0,0,2-.13v1.41a11.41,11.41,0,0,0-2-.12h-1.79a16.41,16.41,0,0,1-.86,2.26h1.95a14.06,14.06,0,0,0,1.89-.08c0,.63-.06,1.09-.06,1.93v6.93c0,.78,0,1.45.06,2-.54,0-1.13-.07-1.78-.07H204.1c-.68,0-1.24,0-1.81.07,0-.59.06-1.22.06-1.92v-7a17.64,17.64,0,0,0-.08-2c.52,0,.9.06,1.83.06h.54a14.31,14.31,0,0,0,.78-2.26Zm-.29,5.39h4.91v-2h-4.91Zm0,3.19h4.91v-2.1h-4.91Zm0,3.26h4.91V91.93h-4.91Zm3.82,1.59a12.25,12.25,0,0,0,3.55,2.75,4.92,4.92,0,0,0-.94,1,14.31,14.31,0,0,1-3.57-3.15Z"/>
        <path class="cls-1" d="M217.71,82.86a14.53,14.53,0,0,0-.15,2.49,36.45,36.45,0,0,0,.54,6.53c.47,2.15,1.33,3.59,2.13,3.59.37,0,.73-.35,1.05-1a15.55,15.55,0,0,0,1.09-3.59,6.43,6.43,0,0,0,1.24,1.2c-1,3.68-2,5.08-3.49,5.08-1.18,0-2.27-1.17-3-3.19s-1-4.68-1.13-9.85c0-.79,0-.86-.07-1.24ZM227.85,84a18.35,18.35,0,0,1,3,4.78,19.88,19.88,0,0,1,1.57,5.61l-1.49.61a18.49,18.49,0,0,0-4.36-10.35Z"/>
        <path class="cls-1" d="M242.3,81.34a32.54,32.54,0,0,0-.28,4.43c-.08,2.52-.14,5.38-.14,6.32,0,.26,0,.78,0,1.26a3.28,3.28,0,0,0,1,2.52,3.91,3.91,0,0,0,2.62.82A6,6,0,0,0,251.16,93a12.87,12.87,0,0,0,1-3.3,5.78,5.78,0,0,0,1.51,1,12.85,12.85,0,0,1-2.33,4.77,7.36,7.36,0,0,1-5.92,2.62,5,5,0,0,1-3.95-1.47c-.86-1-1.16-2.1-1.16-4.3,0-1.41,0-1.94.19-8.55,0-.63,0-1,0-1.36a6.87,6.87,0,0,0-.08-1.12Z"/>
        <path class="cls-1" d="M260.17,83.86h.75c.3,0,.55,0,1.2-.06,2.5-.19,9.22-.57,11.93-.69a15.72,15.72,0,0,0,2.5-.23l.12,1.57a10.2,10.2,0,0,0-2.35.27,10.72,10.72,0,0,0-4,2.12,6.42,6.42,0,0,0-2.58,4.85,4.11,4.11,0,0,0,2.94,3.89,10.62,10.62,0,0,0,3.15.67h.2l-.27,1.7-.65-.12a10.55,10.55,0,0,1-4.53-1.62,5.11,5.11,0,0,1-2.33-4.28c0-2.44,1.42-4.77,3.92-6.45a13,13,0,0,1,2-1.11,41.58,41.58,0,0,1-4.62.46,61.38,61.38,0,0,0-7.25.69Z"/>
        <path class="cls-1" d="M293,85.29c-.25,0-.34.06-.63.13-1.72.35-2.73.52-3.72.63v3.63a14.8,14.8,0,0,1,4.52-.76,7.21,7.21,0,0,1,3.72.88,4.33,4.33,0,0,1-2.13,8.07,3.1,3.1,0,0,1-3.23-2.38,7.64,7.64,0,0,1-.25-2.37,4.62,4.62,0,0,0,1.38-.54,6.37,6.37,0,0,0,0,.81c0,2.19.63,3.09,2.17,3.09a2.79,2.79,0,0,0,2.81-3c0-2.06-1.74-3.34-4.49-3.34a14.13,14.13,0,0,0-4.46.82v5.25c0,1.13-.5,1.68-1.53,1.68a5.53,5.53,0,0,1-3.46-1.34,2.55,2.55,0,0,1-1-2,3.82,3.82,0,0,1,1.66-2.79,11.44,11.44,0,0,1,3-1.72v-4l-.84.06c-.38,0-.73,0-1.34,0-.32,0-.89,0-1.12,0h-.86V84.81a12.4,12.4,0,0,0,2.15.15c.56,0,1.38,0,2-.07V82.81a14.56,14.56,0,0,0-.1-2h1.55a12.31,12.31,0,0,0-.11,2v2a21.12,21.12,0,0,0,4.29-.91Zm-5.69,6.19c-2.08,1-3.25,2.15-3.25,3.15,0,.44.29.86.9,1.26a3.89,3.89,0,0,0,1.87.61c.42,0,.48-.12.48-1Zm11.53-3.94a17.49,17.49,0,0,0-4.24-4.12l1.09-.82a17.91,17.91,0,0,1,4.24,4Z"/>
        <path class="cls-1" d="M310.36,80.88a11.08,11.08,0,0,0-.48,2.16c-.34,2.12-.64,4.41-.7,5.48l.09,0c0-.16,0-.16.14-.6a9.23,9.23,0,0,1,1.28-3.13c1.18-1.81,2.57-2.71,4.2-2.71A3.94,3.94,0,0,1,318.25,84a8.62,8.62,0,0,1,1.26,5.1,8.66,8.66,0,0,1-4.85,8.25,15.3,15.3,0,0,1-3.74,1.24,4.2,4.2,0,0,0-.84-1.43,11.09,11.09,0,0,0,4.27-1.32c2.45-1.41,3.61-3.61,3.61-7s-1.18-5.33-3.19-5.33c-1.6,0-2.94,1.19-4.14,3.65a11,11,0,0,0-1.13,4.68c0,.09,0,.19,0,.51l-1.51.06v-.23l0-.38,0-2.18v-.49a52.7,52.7,0,0,1,.72-7.75,4.36,4.36,0,0,0,.06-.67Z"/>
        <path class="cls-1" d="M343.18,97.51a16.88,16.88,0,0,0-4.28-3c-.36-.19-.84-.4-1.41-.63a6.25,6.25,0,0,1,0,.75,3.69,3.69,0,0,1-.52,2.29,4.24,4.24,0,0,1-3.55,1.33,5.54,5.54,0,0,1-3.26-.84,2.77,2.77,0,0,1-1.13-2.21c0-1.39,1.09-2.48,2.94-2.9a9.51,9.51,0,0,1,2.18-.21,9.09,9.09,0,0,1,1.89.17c0-.06,0-.06,0-.25a1.84,1.84,0,0,1,0-.23c0-.19,0-.63,0-1.24,0-.27,0-.67,0-1.22-.76,0-1.81,0-2.48,0-1.26,0-2.25,0-3.55-.14-.23,0-.4,0-.53,0h-.16l0-1.39a25.67,25.67,0,0,0,4.81.34c.54,0,1.28,0,1.87,0l-.05-2.87c-.61,0-.94,0-1.42,0-1.54,0-3.24-.06-5.13-.21a2.62,2.62,0,0,0-.38,0,1.8,1.8,0,0,0-.29,0l0-1.43a26.25,26.25,0,0,0,5.38.42l1.82,0a17.18,17.18,0,0,0-.1-3h1.61a24.59,24.59,0,0,0-.14,3,30.21,30.21,0,0,0,6.21-.86l.11,1.43c-.36,0-.36,0-1.45.16a43,43,0,0,1-4.87.51c0,1.72,0,1.72,0,2.83a25.45,25.45,0,0,0,5.82-.86l.08,1.45c-.27,0-.48,0-1.22.15-1.45.23-3.11.39-4.66.5,0,1.18,0,1.18.13,3.21a18.57,18.57,0,0,1,5.86,3.07A7.45,7.45,0,0,0,344,96Zm-7.1-4a7.68,7.68,0,0,0-2.14-.23c-2.08,0-3.44.76-3.44,1.87s1.05,1.74,2.87,1.74a3,3,0,0,0,2.31-.69c.3-.29.42-.88.42-1.89Z"/>
        <path class="cls-1" d="M359.73,82.08a6.39,6.39,0,0,0-.09-1.22h1.58a16.32,16.32,0,0,0-.11,2.62v.24c4,0,5.59-.07,6.28-.15v1.49a39.18,39.18,0,0,0-4-.1l-2.25,0v4.15a6,6,0,0,1,.51,2.48,6.75,6.75,0,0,1-2.82,5.48,13.39,13.39,0,0,1-3.31,1.7,4.68,4.68,0,0,0-.93-1.32,10.72,10.72,0,0,0,3.4-1.58,5.44,5.44,0,0,0,2.36-4.43,2.9,2.9,0,0,1-.57,1,3.51,3.51,0,0,1-6.09-2.18,3.49,3.49,0,0,1,3.72-3.46,3.21,3.21,0,0,1,2.43.94c0-.29,0-.38,0-1.15,0-.09,0-.3,0-.55V85c-4.22.08-8.46.29-9.87.52L349.86,84c.38,0,.52,0,.84,0,.61,0,.61,0,4-.13,2-.08,3.65-.12,5.08-.16Zm-.91,6.32a2.67,2.67,0,0,0-1.4-.34,2.23,2.23,0,0,0-2.33,2.21,2,2,0,0,0,2.16,2.08,2.36,2.36,0,0,0,2.46-2.48A1.51,1.51,0,0,0,358.82,88.4Z"/>
        <path class="cls-1" d="M378.13,95.94A3.15,3.15,0,1,1,375,92.79,3.14,3.14,0,0,1,378.13,95.94Zm-5.11,0a2,2,0,1,0,2-2A2,2,0,0,0,373,95.94Z"/>
        <path class="cls-1" d="M77,170.5H72.08a13.91,13.91,0,0,0-2,.1v-1.3a12.51,12.51,0,0,0,2,.11H77V168H72.63a13.87,13.87,0,0,0-1.72.08,10.35,10.35,0,0,0,.08-1.4v-.93a10.86,10.86,0,0,0-.08-1.42,14.54,14.54,0,0,0,1.74.08H77v-1.39H70.93a18.52,18.52,0,0,0-2.35.13V161.8a14.58,14.58,0,0,0,2.39.13h6a8.12,8.12,0,0,0-.13-1.89h1.53a7.21,7.21,0,0,0-.14,1.89H84.7a15.1,15.1,0,0,0,2.42-.13v1.39a19.65,19.65,0,0,0-2.38-.13H78.28v1.39H83.1a14.25,14.25,0,0,0,1.73-.08,9.17,9.17,0,0,0-.09,1.42v.93a8.83,8.83,0,0,0,.09,1.4,13.83,13.83,0,0,0-1.7-.08H78.28v1.37h4.57a20.7,20.7,0,0,0,2.35-.09,17.4,17.4,0,0,0-.06,1.74V172a10.25,10.25,0,0,0,2.23-.13v1.32a15.12,15.12,0,0,0-2.23-.1v1.36a11.64,11.64,0,0,0,.13,2.1H83.9v-.86H78.28v1.74c0,1.45-.42,1.75-2.46,1.75-.44,0-.82,0-2-.09a3.46,3.46,0,0,0-.35-1.32,17.66,17.66,0,0,0,2.6.21c.76,0,1-.1,1-.57v-1.72H72a13.11,13.11,0,0,0-2.06.11v-1.3a13.18,13.18,0,0,0,2,.1H77V173h-6.3a16,16,0,0,0-2.29.1v-1.32a13.94,13.94,0,0,0,2.29.13H77Zm-4.77-5V167H77v-1.55Zm6,1.55h5.2v-1.55h-5.2ZM83.9,172V170.5H78.28V172Zm-5.62,2.6H83.9V173H78.28Z"/>
        <path class="cls-1" d="M97.32,163.32a15.85,15.85,0,0,0-2.24-2.92l1.26-.51a16.31,16.31,0,0,1,2.43,3.43h3a14.67,14.67,0,0,0,2.38-3.4l1.34.5a22.66,22.66,0,0,1-2.27,2.9h4.31a12.9,12.9,0,0,0,2.1-.13v1.43a15,15,0,0,0-2.1-.13H93.21a15.61,15.61,0,0,0-2.1.13v-1.43a10,10,0,0,0,2.1.13Zm-3.46,13.6a12.9,12.9,0,0,0,.13,2.23H92.45a15,15,0,0,0,.11-2.27v-8.82a15.88,15.88,0,0,0-.07-1.87,18.23,18.23,0,0,0,2,.09h3.3a10.91,10.91,0,0,0,1.91-.09c0,.49-.06,1-.06,2.23v8.9c0,1.26-.4,1.62-1.77,1.62-.44,0-.94,0-1.74-.09a6.34,6.34,0,0,0-.34-1.3,9.71,9.71,0,0,0,1.83.21c.61,0,.73-.1.73-.54V174.4H93.86Zm4.53-7.14v-2.31H93.86v2.31Zm0,3.45V171H93.86v2.27Zm5.46-6.78a11,11,0,0,0-.1,2v4.26a14.11,14.11,0,0,0,.08,2.37h-1.47a15.79,15.79,0,0,0,.09-2.35v-4.28a10.72,10.72,0,0,0-.11-2Zm4.52-.63a11.35,11.35,0,0,0-.13,2.26v9.09c0,1.47-.44,1.85-2.16,1.85-.71,0-1.41,0-2.46-.12a5.18,5.18,0,0,0-.4-1.41,16.66,16.66,0,0,0,2.71.27c.82,0,1-.08,1-.63V168a10.49,10.49,0,0,0-.13-2.22Z"/>
        <path class="cls-1" d="M130,162.2a26.28,26.28,0,0,1-5.69,4c.59.42.84.59,1.64,1.2l-.55.55h3.8a11.9,11.9,0,0,0,2.23-.11l.81.9c-.08.09-.33.38-.56.7a17.06,17.06,0,0,1-3.68,3.67,5.09,5.09,0,0,0-1.09-.86,14.28,14.28,0,0,0,3.36-3h-6.38v8.14c0,1.35-.51,1.7-2.46,1.7-.65,0-1.76,0-2.48-.1a5.09,5.09,0,0,0-.33-1.45,17.46,17.46,0,0,0,2.94.25c.71,0,.92-.14.92-.61v-7.93H116a16.54,16.54,0,0,0-2.16.12v-1.51a14.88,14.88,0,0,0,2.33.13h8.4a30.47,30.47,0,0,0-5.8-3.57l.86-.93c1.85,1,2.57,1.37,3.57,2a20.42,20.42,0,0,0,4.48-3h-9.73a14.7,14.7,0,0,0-2.16.1v-1.43a12.06,12.06,0,0,0,2.21.13h9.61a14.92,14.92,0,0,0,1.56-.06Z"/>
        <path class="cls-1" d="M135.88,169.38a4.06,4.06,0,0,0,.76.07l1.07,0c.77-.93,1-1.2,1.59-2a20.45,20.45,0,0,0-3.19-3.21l.78-1c.46.44.57.53.9.86a15.39,15.39,0,0,0,2.08-3.88l1.3.59a6,6,0,0,0-.48.79,32,32,0,0,1-2.08,3.3c.63.63,1,1,1.41,1.53a21.6,21.6,0,0,0,2.41-4l1.24.74c-.19.25-.31.44-.61.86a46.5,46.5,0,0,1-3.88,5.31c1.57-.1,1.95-.12,3.4-.31a17.3,17.3,0,0,0-.84-1.66l1-.38a22.07,22.07,0,0,1,1.85,4l-1.07.48c-.21-.67-.27-.86-.48-1.4a3.51,3.51,0,0,1-.53.06l-1.45.17v6.9a15.86,15.86,0,0,0,.13,2.15h-1.53a16.38,16.38,0,0,0,.12-2.17v-6.76c-1.55.15-1.55.15-2.35.21a8.87,8.87,0,0,0-1.28.15Zm2.58,2.61a18.62,18.62,0,0,1-1.38,5.94l-1.16-.55a15.34,15.34,0,0,0,1.39-5.62Zm4.77-.36a33.52,33.52,0,0,1,1.24,5l-1.22.4a27.63,27.63,0,0,0-1.07-5.06Zm3.55-6.63a16.34,16.34,0,0,1-2.14,3.27,3.9,3.9,0,0,0-1.1-.82,13.47,13.47,0,0,0,2.36-3.59,13.21,13.21,0,0,0,1.17-3.46l1.43.36c-.17.39-.17.39-.55,1.44-.16.47-.33.89-.61,1.56h5.25a10.31,10.31,0,0,0,1.7-.09c-.06.61-.06.61-.1,3.24a52.85,52.85,0,0,1-.9,9.51c-.49,2-1,2.46-3,2.46-.61,0-1.38,0-2.22-.13a5.31,5.31,0,0,0-.36-1.45,16.44,16.44,0,0,0,2.79.27c1,0,1.22-.25,1.51-1.59a58.25,58.25,0,0,0,.91-11Zm2.22,8.42a20.19,20.19,0,0,0-2.87-5.21l1.09-.63a25.6,25.6,0,0,1,3,5.12Z"/>
        <path class="cls-1" d="M163,161.51a30,30,0,0,0-1.61,9.85c0,.73,0,2,.08,2.94,0,.17,0,.21,0,.59v.4l.08,0a18.92,18.92,0,0,1,1.24-3.7,2.17,2.17,0,0,0,.17-.42l1,.48a18.12,18.12,0,0,0-1.81,6,2,2,0,0,0,0,.42l-1.49.14c0-.19-.05-.29-.13-.77a33.36,33.36,0,0,1-.59-6.24,35.51,35.51,0,0,1,1.09-8.63,9.22,9.22,0,0,0,.23-1.32Zm2.12,3.91a14.67,14.67,0,0,0,3.78.33c.82,0,1.39,0,2.25-.06,0-2,0-2,0-3.57a4,4,0,0,0-.07-.86h1.58a20.71,20.71,0,0,0-.15,3.3c0,.23,0,.56,0,1a14.29,14.29,0,0,0,3.64-.77l.06,1.43-1.47.29a20.2,20.2,0,0,1-2.23.34c0,2.07.07,3.14.23,5.94a15,15,0,0,1,3.51,2.06l.53.35-.66,1.47a11.42,11.42,0,0,0-3-2.18l-.21-.13-.19-.12a2.46,2.46,0,0,1,.05.54,3.58,3.58,0,0,1-.26,1.43c-.5,1.11-1.78,1.76-3.5,1.76-2.44,0-4-1.15-4-3s1.66-3,4-3a6,6,0,0,1,2.33.42c-.06-.44-.15-2.41-.21-5.48-1,0-1.6.06-2.39.06s-1.64,0-2.38-.06a5.62,5.62,0,0,0-.67,0l-.36,0a1,1,0,0,0-.21,0h-.08Zm4,7.87c-1.63,0-2.7.69-2.7,1.74s1,1.7,2.43,1.7A2.9,2.9,0,0,0,171,176a2.43,2.43,0,0,0,.4-1.64c0-.15,0-.63,0-.63A5.37,5.37,0,0,0,169.16,173.29Z"/>
        <path class="cls-1" d="M186.47,177.59a15.4,15.4,0,0,0-2.31.11,9.42,9.42,0,0,1,.61-2.77,9.19,9.19,0,0,1,2.73-3.61,27.51,27.51,0,0,1,3.21-2.31c2.08-1.41,2.77-2.33,2.77-3.61,0-1.6-1.34-2.63-3.48-2.63a3.46,3.46,0,0,0-3.05,1.37,4.15,4.15,0,0,0-.73,2.12l-1.77-.3a5.7,5.7,0,0,1,1.33-3,5.36,5.36,0,0,1,4.22-1.62c3.17,0,5.2,1.6,5.2,4.08a4.39,4.39,0,0,1-1.24,3,16.76,16.76,0,0,1-3.56,2.71,11.4,11.4,0,0,0-3,2.58,5.88,5.88,0,0,0-1.19,2.43h6.69a19.13,19.13,0,0,0,2.56-.14v1.76a24.52,24.52,0,0,0-2.58-.13Z"/>
        <path class="cls-1" d="M207.09,172.37a14.56,14.56,0,0,1-.86,3.25,11.2,11.2,0,0,1-2.31,3.65,5,5,0,0,0-1.15-1.11,8.76,8.76,0,0,0,2.47-4.11c.59-2,.82-4.58.82-9.24,0-1.93,0-2.77-.08-3.57a18.61,18.61,0,0,0,2.2.1h7.9a17.66,17.66,0,0,0,2.18-.1,19.16,19.16,0,0,0-.08,2.16v13.82a1.61,1.61,0,0,1-.59,1.47,3.06,3.06,0,0,1-1.68.27c-.69,0-1.58,0-2.52-.08a5.62,5.62,0,0,0-.34-1.43,22.19,22.19,0,0,0,3,.21c.61,0,.77-.13.77-.65v-4.64Zm9.74-1.26v-3.74h-9.36c0,1.15-.06,1.95-.23,3.74Zm0-5v-3.49h-9.34l0,3v.5Z"/>
        <path class="cls-1" d="M233.4,162.39a12.63,12.63,0,0,0-.14-2.18h1.68a12,12,0,0,0-.15,2.14v1.85h6.15a12,12,0,0,0,1.6-.08,9.25,9.25,0,0,0-.11,1.65v5.74a12.34,12.34,0,0,0,.13,1.86h-1.51V172h-6.26v4.89a11.45,11.45,0,0,0,.15,2.39h-1.68a15.13,15.13,0,0,0,.14-2.39V172h-5.92v1.42H226a13.69,13.69,0,0,0,.13-1.86v-5.74a13.55,13.55,0,0,0-.11-1.65,12.11,12.11,0,0,0,1.58.08h5.83Zm-5.92,3.07v5.23h5.92v-5.23Zm13.57,5.23v-5.23h-6.26v5.23Z"/>
        <path class="cls-1" d="M251.74,164.28a21,21,0,0,1-3.76,4.85,4,4,0,0,0-1-1.07,17.27,17.27,0,0,0,4.62-6.49,5.64,5.64,0,0,0,.42-1.49l1.55.4a7.58,7.58,0,0,0-.4.84c-.23.61-.48,1.18-.75,1.74h10.73a15.21,15.21,0,0,0,2.24-.12,11.75,11.75,0,0,0-.08,1.45,76.41,76.41,0,0,1-.86,11.84c-.46,2.48-.95,2.94-3,2.94a29,29,0,0,1-3.22-.25,5.5,5.5,0,0,0-.23-1.45,18.57,18.57,0,0,0,3.57.42c1.13,0,1.37-.36,1.7-2.77a89.48,89.48,0,0,0,.67-10.84Zm8,9.43c0,.63,0,1.2.08,1.89-.71,0-1.32-.06-2.06-.06h-5.37v1.61H251c.06-.58.11-1.4.11-2.18v-6.3c0-.94,0-1.47-.09-2.2a15.91,15.91,0,0,0,2,.1h4.79a15.52,15.52,0,0,0,2-.1c-.06.63-.1,1.49-.1,2.26Zm-7.37-3.3h6.06v-2.7h-6.06Zm0,4h6.06v-2.89h-6.06Z"/>
        <path class="cls-1" d="M279.88,160.8a14.39,14.39,0,0,0-.13,2.77c0,.46,0,.69,0,2.18a21,21,0,0,0,6.15-.79l.19,1.55a11.07,11.07,0,0,0-1.26.15,36.44,36.44,0,0,1-5.06.46c.07,2,.17,4.07.28,5.41a18.18,18.18,0,0,1,5.6,3,10.85,10.85,0,0,0,1,.65l-1,1.47a9.31,9.31,0,0,0-2.18-1.83,21.76,21.76,0,0,0-2.84-1.62,3,3,0,0,1-.5-.23,6.29,6.29,0,0,1,.08.91,3.83,3.83,0,0,1-.52,2.12,4.45,4.45,0,0,1-3.74,1.44c-2.71,0-4.37-1.17-4.37-3.1s2-3.32,4.94-3.32a8.62,8.62,0,0,1,1.82.19.93.93,0,0,0,.19,0s0,0,.11,0a.65.65,0,0,0,0-.19V172c-.17-2.42-.32-6.47-.34-9.47a10.07,10.07,0,0,0-.1-1.7Zm-3.36,12.53c-2.15,0-3.45.76-3.45,2a1.43,1.43,0,0,0,.32.9,3.4,3.4,0,0,0,2.52.84,3.58,3.58,0,0,0,2.33-.69,2,2,0,0,0,.5-1.58c0-.31,0-1.15-.06-1.15A6.9,6.9,0,0,0,276.52,173.33Z"/>
        <path class="cls-1" d="M298.52,160.88A12.86,12.86,0,0,0,298,163c-.33,2.12-.63,4.41-.69,5.48l.08,0,.15-.6a9.23,9.23,0,0,1,1.28-3.13c1.18-1.81,2.56-2.71,4.2-2.71a4,4,0,0,1,3.36,1.87,9.89,9.89,0,0,1-3.59,13.35,15.45,15.45,0,0,1-3.74,1.24,4.37,4.37,0,0,0-.84-1.43,11,11,0,0,0,4.26-1.32c2.46-1.41,3.61-3.61,3.61-7s-1.17-5.33-3.19-5.33c-1.59,0-2.94,1.19-4.13,3.65a10.88,10.88,0,0,0-1.14,4.68c0,.09,0,.19,0,.51l-1.51.06v-.23l0-.38,0-2.18v-.49a53.81,53.81,0,0,1,.71-7.75,3.47,3.47,0,0,0,.07-.67Z"/>
        <path class="cls-1" d="M317.13,176.86a14.42,14.42,0,0,0,.13,2.35H315.7a14.83,14.83,0,0,0,.13-2.35v-13.8a20.86,20.86,0,0,0-.09-2.3,20.54,20.54,0,0,0,2.21.08h3.19a19.15,19.15,0,0,0,2.12-.08c0,.58-.06,1.21-.06,2v2.58c0,.84,0,1.43.06,2-.5,0-1.22-.07-2.12-.07h-4Zm0-13.38H322v-1.61h-4.87Zm0,2.71H322v-1.7h-4.87ZM321,170a14.79,14.79,0,0,0-2,.09V168.8a13.27,13.27,0,0,0,2,.1h6.65a13.57,13.57,0,0,0,2-.1V170a15,15,0,0,0-2-.09H327v2.6H328a12.78,12.78,0,0,0,2-.1v1.26a13.26,13.26,0,0,0-2-.1H327v3.23a7.58,7.58,0,0,0,.12,1.8h-1.45a7.46,7.46,0,0,0,.13-1.8v-3.23h-3.17a7.06,7.06,0,0,1-2.77,5.2,3.84,3.84,0,0,0-1.05-.86,5.8,5.8,0,0,0,1.82-1.85,6,6,0,0,0,.8-2.49h-.73a13.4,13.4,0,0,0-2,.1v-1.26a13.08,13.08,0,0,0,2,.1h.84c.06-1,.06-1,.08-2.6Zm1.74,0v.48c0,.66,0,1.41-.09,2.12h3.07V170Zm10.08,7.18c0,.91-.21,1.35-.76,1.58a4.45,4.45,0,0,1-1.49.14l-1.79-.06a4.07,4.07,0,0,0-.39-1.34,18.52,18.52,0,0,0,2.33.21c.67,0,.82-.11.82-.59v-9.85h-4.31c-.88,0-1.55,0-2.14.07,0-.61.06-1.12.06-2v-2.58c0-.78,0-1.3-.06-2a19.73,19.73,0,0,0,2.16.08h3.47a20.57,20.57,0,0,0,2.2-.08,20.19,20.19,0,0,0-.1,2.3Zm-6.45-13.65h5.17v-1.61h-5.17Zm0,2.71h5.17v-1.7h-5.17Z"/>
        <path class="cls-1" d="M342.86,164.54a14.21,14.21,0,0,0,1.93-.09c-.23,2.39-.23,2.39-.38,3.32a19.58,19.58,0,0,1-1.6,5.62,30,30,0,0,1,2.23,2.17l-.84,1.15a20.52,20.52,0,0,0-2-2.14,13.41,13.41,0,0,1-3.88,4.26,3.82,3.82,0,0,0-1-1,13.09,13.09,0,0,0,3.87-4.09,22.64,22.64,0,0,0-3.13-2.16,30.55,30.55,0,0,0,1.91-5.84h-.69a9.63,9.63,0,0,0-1.68.13v-1.43a10.86,10.86,0,0,0,1.72.13h.9a22.6,22.6,0,0,0,.57-4,1.29,1.29,0,0,0,0-.25l1.51.15a8.38,8.38,0,0,0-.23,1.22c-.13.71-.3,1.66-.55,2.9Zm-1.6,1.17a36.67,36.67,0,0,1-1.64,5.33c1.14.78,1.51,1,2.19,1.54a19.44,19.44,0,0,0,1.59-6.87Zm3.44,2a7.61,7.61,0,0,0,.88,0l.74,0a30.47,30.47,0,0,0,2.56-7.52l1.6.4a17.34,17.34,0,0,0-.8,2.27c-.44,1.26-.86,2.28-2,4.76,3-.25,3.48-.29,6.13-.63a26.63,26.63,0,0,0-2.31-3.32l1.15-.58a35.78,35.78,0,0,1,3.78,6.06l-1.2.72c-.39-.88-.5-1.09-.86-1.81-3.4.46-4.28.57-8.06.9a6.4,6.4,0,0,0-1.32.21Zm2.67,11.61H346a12.3,12.3,0,0,0,.09-1.86v-5a14.06,14.06,0,0,0-.09-2,16.27,16.27,0,0,0,1.87.08H353a14.85,14.85,0,0,0,2-.08,10.63,10.63,0,0,0-.1,1.36v5.27a11.43,11.43,0,0,0,.12,2.18h-1.45v-1.21h-6.21Zm0-2.41h6.21v-5.12h-6.21Z"/>
        <path class="cls-1" d="M363.46,162.86a14.53,14.53,0,0,0-.15,2.49,35.42,35.42,0,0,0,.55,6.53c.46,2.15,1.32,3.59,2.12,3.59.37,0,.73-.35,1-1.05a15.55,15.55,0,0,0,1.09-3.59,6.43,6.43,0,0,0,1.24,1.2c-1,3.68-2,5.08-3.49,5.08-1.17,0-2.27-1.17-3-3.19s-1-4.68-1.13-9.85c0-.79,0-.86-.07-1.24ZM373.6,164a18.35,18.35,0,0,1,3,4.78,19.88,19.88,0,0,1,1.57,5.61l-1.49.61a18.49,18.49,0,0,0-4.36-10.35Z"/>
        <path class="cls-1" d="M383.68,164.54a15.14,15.14,0,0,0,2.62.18c.42,0,.66,0,1.26,0a20.85,20.85,0,0,0,.47-3.86l1.65.17c-.12.5-.12.5-.37,2-.11.67-.17,1-.28,1.6a17,17,0,0,0,3.78-.72l.11,1.45a4.68,4.68,0,0,0-.59.11,30,30,0,0,1-3.55.5c-.31,1.66-.9,4-1.47,5.94a55,55,0,0,1-2.41,6.41l-1.54-.65A41.82,41.82,0,0,0,387.31,166c-.42,0-.67,0-1.45,0s-.92,0-1.74-.05H384l-.36,0Zm9.38,7.62a6.78,6.78,0,0,0-.62.79,2.52,2.52,0,0,0-.53,1.5c0,1.26,1.28,1.93,3.67,1.93a15.65,15.65,0,0,0,4.65-.72l.14,1.58-.92.14a20.41,20.41,0,0,1-3.74.36c-3.44,0-5.23-1.07-5.23-3.15,0-.94.3-1.59,1.41-3Zm6.49-3.64a22,22,0,0,0-2.48-.14,18.42,18.42,0,0,0-5.24.71l-.15-1.43a24,24,0,0,1,5.56-.69c.4,0,.72,0,2.29.06Z"/>
        <path class="cls-1" d="M410.56,161.34a31.54,31.54,0,0,0-.27,4.43c-.09,2.52-.15,5.38-.15,6.32,0,.26,0,.78,0,1.26a3.28,3.28,0,0,0,1,2.52,3.93,3.93,0,0,0,2.62.82,6,6,0,0,0,5.63-3.65,12.87,12.87,0,0,0,1-3.3,6,6,0,0,0,1.51,1,12.85,12.85,0,0,1-2.33,4.77,7.36,7.36,0,0,1-5.92,2.62,5,5,0,0,1-3.95-1.47c-.86-1-1.15-2.1-1.15-4.3,0-1.41,0-1.94.19-8.55,0-.63,0-1,0-1.36a5.91,5.91,0,0,0-.09-1.12Z"/>
        <path class="cls-1" d="M443.9,177.51a16.52,16.52,0,0,0-4.28-3c-.35-.19-.84-.4-1.4-.63a6.25,6.25,0,0,1,0,.75,3.61,3.61,0,0,1-.53,2.29,4.24,4.24,0,0,1-3.55,1.33,5.5,5.5,0,0,1-3.25-.84,2.77,2.77,0,0,1-1.13-2.21c0-1.39,1.09-2.48,2.93-2.9a9.61,9.61,0,0,1,2.19-.21,9.15,9.15,0,0,1,1.89.17c0-.06,0-.06,0-.25a1.84,1.84,0,0,1,0-.23c0-.19,0-.63,0-1.24,0-.27,0-.67-.05-1.22-.75,0-1.8,0-2.47,0-1.26,0-2.25,0-3.55-.14-.23,0-.4,0-.53,0H430l0-1.39a25.75,25.75,0,0,0,4.81.34c.55,0,1.28,0,1.87,0l0-2.87c-.61,0-.95,0-1.43,0-1.53,0-3.23-.06-5.12-.21a2.69,2.69,0,0,0-.38,0,1.74,1.74,0,0,0-.29,0l0-1.43a26.14,26.14,0,0,0,5.37.42l1.83,0a15.22,15.22,0,0,0-.11-3h1.62a26.11,26.11,0,0,0-.15,3,30.33,30.33,0,0,0,6.22-.86l.1,1.43c-.35,0-.35,0-1.44.16a43.17,43.17,0,0,1-4.88.51c0,1.72,0,1.72,0,2.83a25.24,25.24,0,0,0,5.81-.86l.09,1.45c-.28,0-.49,0-1.22.15-1.45.23-3.11.39-4.66.5,0,1.18,0,1.18.12,3.21a18.36,18.36,0,0,1,5.86,3.07c.34.25.44.31.71.48Zm-7.09-4a7.68,7.68,0,0,0-2.14-.23c-2.08,0-3.45.76-3.45,1.87s1,1.74,2.88,1.74a3,3,0,0,0,2.31-.69,2.76,2.76,0,0,0,.42-1.89Z"/>
        <path class="cls-1" d="M460.45,162.08a7.41,7.41,0,0,0-.08-1.22h1.57a18.21,18.21,0,0,0-.1,2.62v.24c4,0,5.58-.07,6.28-.15v1.49a39.18,39.18,0,0,0-4-.1l-2.25,0v4.15a6,6,0,0,1,.5,2.48,6.74,6.74,0,0,1-2.81,5.48,13.3,13.3,0,0,1-3.32,1.7,4.47,4.47,0,0,0-.92-1.32,10.83,10.83,0,0,0,3.4-1.58,5.43,5.43,0,0,0,2.35-4.43,2.9,2.9,0,0,1-.56,1,3.29,3.29,0,0,1-2.65,1.14,3.25,3.25,0,0,1-3.44-3.32,3.48,3.48,0,0,1,3.71-3.46,3.23,3.23,0,0,1,2.44.94c0-.29,0-.38,0-1.15,0-.09,0-.3,0-.55V165c-4.22.08-8.46.29-9.87.52l-.06-1.53c.37,0,.52,0,.84,0,.6,0,.6,0,4-.13,2-.08,3.66-.12,5.09-.16Zm-.9,6.32a2.69,2.69,0,0,0-1.4-.34,2.23,2.23,0,0,0-2.34,2.21,2,2,0,0,0,2.17,2.08,2.35,2.35,0,0,0,2.45-2.48A1.51,1.51,0,0,0,459.55,168.4Z"/>
        <path class="cls-1" d="M478.85,175.94a3.15,3.15,0,1,1-3.15-3.15A3.14,3.14,0,0,1,478.85,175.94Zm-5.1,0a2,2,0,1,0,1.95-2A2,2,0,0,0,473.75,175.94Z"/>
        <path class="cls-1" d="M59.16,242.18a8.68,8.68,0,0,0-.13-1.93h1.58a10.18,10.18,0,0,0-.13,1.93v.59h3.46a9.54,9.54,0,0,0,1.75-.12v1.42a9.56,9.56,0,0,0-1.75-.12H60.48v3.42c2-.34,2.67-.48,5.31-1.09v1.13c-2.87.69-5.23,1.18-7.39,1.55a11.84,11.84,0,0,0-1.62.34l-.23-1.45a17.4,17.4,0,0,0,2.61-.27Zm11.08,8a17.55,17.55,0,0,0,2.27-.1,21.13,21.13,0,0,0-.08,2.31v4.78a14,14,0,0,0,.12,2.1H71.12v-1H60.94v1H59.53a12.9,12.9,0,0,0,.13-2.1v-4.78a22.84,22.84,0,0,0-.08-2.31,17,17,0,0,0,2.24.1h2.52a8.71,8.71,0,0,0,.86-1.93l1.43.36a13.35,13.35,0,0,1-.86,1.57Zm-9.3,3.38H71.12v-2.27H60.94Zm0,3.59H71.12v-2.5H60.94Zm7.12-10.54c0,.63.21.69,2.5.69,1.85,0,2.45-.08,2.71-.35a6.27,6.27,0,0,0,.52-2.84,3.13,3.13,0,0,0,1.24.55c-.21,2.31-.46,3.11-1.07,3.48s-1.28.36-3.78.36c-2.88,0-3.44-.25-3.44-1.47V242.1a12.06,12.06,0,0,0-.13-1.85h1.58a7.84,7.84,0,0,0-.13,1.83v1.28a21.84,21.84,0,0,0,2.48-.82A14.33,14.33,0,0,0,73.83,241l.91,1.13c-1,.42-1,.42-2.17.92a32.76,32.76,0,0,1-4.51,1.51Z"/>
        <path class="cls-1" d="M82,242.39a13.16,13.16,0,0,0-.1-2.18h1.47a14.13,14.13,0,0,0-.11,2.16v2.06h.82a8.07,8.07,0,0,0,1.33-.08v1.28a10.58,10.58,0,0,0-1.33-.07h-.75a11.51,11.51,0,0,0,2,3.43,9.19,9.19,0,0,0-.73,1.13,14.34,14.34,0,0,1-1.37-2.94c.06,1.76.08,2.69.08,3.42V257a17.54,17.54,0,0,0,.13,2.44H81.88A18.73,18.73,0,0,0,82,257V251a17.63,17.63,0,0,1,.07-1.84c0-.13,0-.51.06-1,0-.17,0-.42,0-.78a16.66,16.66,0,0,1-2.73,6.42,5.59,5.59,0,0,0-.79-1.3,12.5,12.5,0,0,0,2-3.31,21.56,21.56,0,0,0,1.17-3.62H80.7a8.24,8.24,0,0,0-1.47.09v-1.3a9,9,0,0,0,1.47.08H82Zm5.48,1.91a10.85,10.85,0,0,0-1.82.11v-1.32a11.45,11.45,0,0,0,1.85.1h1.11a10.16,10.16,0,0,0-1.37-2.31l1.12-.48a13.69,13.69,0,0,1,1.51,2.79h2.43a13,13,0,0,0,1.43-2.83l1.24.44c-.34.67-1,1.89-1.34,2.39h1.84a13.21,13.21,0,0,0,1.92-.12v1.36a12.87,12.87,0,0,0-1.92-.13H91.66v1.81h3.17a10.66,10.66,0,0,0,1.91-.13v1.39a12,12,0,0,0-1.89-.11H91.66v1.89h4.12a13.06,13.06,0,0,0,1.91-.12v1.36a13.25,13.25,0,0,0-1.89-.12h-4a11.52,11.52,0,0,0,1.72,3.15,11.24,11.24,0,0,0,2.29-2.71l1.07.75a16.83,16.83,0,0,1-2.62,2.86,11.77,11.77,0,0,0,4,2.94,5.89,5.89,0,0,0-.88,1.22,14.68,14.68,0,0,1-3.08-2.42,13.09,13.09,0,0,1-2.77-4.28,18.38,18.38,0,0,1,.16,2.08v3.94c0,1.14-.4,1.43-2,1.43a16.76,16.76,0,0,1-1.72-.08,3.45,3.45,0,0,0-.38-1.32,13.81,13.81,0,0,0,2.08.18c.61,0,.73-.08.73-.46v-3A27.81,27.81,0,0,1,86,257.3a8.36,8.36,0,0,0-.94.57l-.61-1.39a21.91,21.91,0,0,0,6-3.19v-3H87.13a11.13,11.13,0,0,0-1.81.1v-1.3a15,15,0,0,0,1.83.08H90.4v-1.89H88.07a10.7,10.7,0,0,0-1.82.11V246a9.4,9.4,0,0,0,1.78.11H90.4V244.3Zm-.77,6.45a18.7,18.7,0,0,1,2,2.54l-1,.69a12.57,12.57,0,0,0-2-2.58Z"/>
        <path class="cls-1" d="M110.1,252.14c-1.22,2.77-2.45,4-4,4-2,0-3.48-2.19-3.48-5.13a8.52,8.52,0,0,1,9-8.58,8.11,8.11,0,0,1,5.78,2.08,7,7,0,0,1,2,5.12,7.64,7.64,0,0,1-4.8,7.24,16.79,16.79,0,0,1-3.19,1,3.28,3.28,0,0,0-.74-1.41,12.33,12.33,0,0,0,3.51-1,6.32,6.32,0,0,0,3.71-5.87,5.51,5.51,0,0,0-3.34-5.27,5.89,5.89,0,0,0-2.43-.53A31.54,31.54,0,0,1,110.1,252.14Zm-2.58-7.33a7.25,7.25,0,0,0-3.42,6.25c0,2,.88,3.57,2,3.57.88,0,1.72-1,2.63-3a29.09,29.09,0,0,0,1.91-7.77A6.65,6.65,0,0,0,107.52,244.81Z"/>
        <path class="cls-1" d="M130,250.29c-1.37,1.13-2,2.1-2,3.09s.61,1.65,1.79,2.05a13.11,13.11,0,0,0,3.84.42,19.7,19.7,0,0,0,6.3-.8l.19,1.73a6.6,6.6,0,0,0-.71.1,33.82,33.82,0,0,1-5.67.48,14.78,14.78,0,0,1-4.83-.65,3.34,3.34,0,0,1-2.4-3.17c0-1.36.8-2.68,2.42-4Zm-2.21-7.67a23.9,23.9,0,0,0,5.59.51,23.13,23.13,0,0,0,5.31-.44l.11,1.38a32.28,32.28,0,0,0-5.29,3.19l-1.08-.86a34.5,34.5,0,0,1,3.72-2.22,16.56,16.56,0,0,1-3.17.27,40.69,40.69,0,0,1-4.62-.27l-.69-.06Zm10.48,3.64a16.28,16.28,0,0,1,2.14,3.25l-1.05.63a16.19,16.19,0,0,0-2.14-3.34Zm2.29-1.24a15.79,15.79,0,0,1,2.18,3.27l-1,.59a17.45,17.45,0,0,0-2.14-3.3Z"/>
        <path class="cls-1" d="M158.42,249.34a20.36,20.36,0,0,0,2.5-4.8l1.3.52a29.93,29.93,0,0,1-2.33,4.28H163a11.89,11.89,0,0,0,2.31-.14v1.49a16.73,16.73,0,0,0-2.35-.13h-5.84a20.72,20.72,0,0,0,2.77,2.92,19.4,19.4,0,0,0,5.67,3.55,5.65,5.65,0,0,0-.9,1.3,22.69,22.69,0,0,1-5.29-3.57,18.58,18.58,0,0,1-3-3.53c.06,1.16.08,1.73.08,2.27v3.76a10.65,10.65,0,0,0,.15,2H155a10.79,10.79,0,0,0,.15-2V253.5c0-.63,0-1,.08-2.25a17.18,17.18,0,0,1-3.94,4.52,24.67,24.67,0,0,1-3.76,2.56,5.34,5.34,0,0,0-.95-1.22,21.87,21.87,0,0,0,5.84-4.09,19.32,19.32,0,0,0,2.14-2.46h-5.48a19.87,19.87,0,0,0-2.31.13V249.2a15.09,15.09,0,0,0,2.29.14h6.09v-5.5h-5a17.93,17.93,0,0,0-2.25.13V242.5a15.71,15.71,0,0,0,2.29.15h5V242a10.12,10.12,0,0,0-.13-1.74h1.56a7.49,7.49,0,0,0-.13,1.74v.7h5.35a12.1,12.1,0,0,0,2.33-.15V244a15.47,15.47,0,0,0-2.28-.13h-5.4v5.5Zm-7.64-4.83a26,26,0,0,1,2.08,3.89l-1.18.61a20.1,20.1,0,0,0-2-3.95Z"/>
        <path class="cls-1" d="M171.84,242.75a17.45,17.45,0,0,0-.12-2.31h1.55a14.81,14.81,0,0,0-.13,2.33v2.9h.51a11.18,11.18,0,0,0,1.74-.09v1.35a17.19,17.19,0,0,0-1.74-.09h-.51v5.4a17.12,17.12,0,0,0,1.79-1.07l.08,1.26a37.28,37.28,0,0,1-4.36,2.37c-.34.15-.93.44-1.12.55l-.4-1.47a10.4,10.4,0,0,0,2.71-1v-6h-.9a15.58,15.58,0,0,0-1.78.11v-1.39a10.9,10.9,0,0,0,1.82.11h.86Zm5.9,9.6a13.35,13.35,0,0,1-3.52,2.79,4,4,0,0,0-.87-.95,10.11,10.11,0,0,0,4.88-4.43h-1.29a9.58,9.58,0,0,0-1.88.13v-1.37a9.7,9.7,0,0,0,1.93.13h9a11.24,11.24,0,0,0,2.08-.13v1.33a16.15,16.15,0,0,0-2.08-.09h-6.42a10.89,10.89,0,0,1-1,1.54h6.95a15,15,0,0,0,2.06-.09,11.29,11.29,0,0,0-.11,1.24,20.64,20.64,0,0,1-.92,5.61c-.38.75-.9,1-2.33,1-.48,0-1.18,0-1.83-.08a3.58,3.58,0,0,0-.42-1.37,14.37,14.37,0,0,0,2.5.23c.84,0,1-.16,1.26-1.42a25.3,25.3,0,0,0,.46-4h-1.4a12.58,12.58,0,0,1-1.87,3.17,22.45,22.45,0,0,1-2.58,2.58,17.14,17.14,0,0,1-1.71,1.17,3.57,3.57,0,0,0-1-1,13.3,13.3,0,0,0,4.11-3.19,10.25,10.25,0,0,0,1.73-2.75h-2.08a14.53,14.53,0,0,1-5.78,5.24,3,3,0,0,0-.9-1,11.87,11.87,0,0,0,5.31-4.26Zm.67-5.09a15.22,15.22,0,0,0-1.91.09,14.66,14.66,0,0,0,.09-1.89v-2.73a12.83,12.83,0,0,0-.09-1.85,12.79,12.79,0,0,0,2,.11H184a14.27,14.27,0,0,0,2.18-.11,16.15,16.15,0,0,0-.08,2v2.63a13.06,13.06,0,0,0,.08,1.87c-.46,0-1.11-.07-1.93-.07Zm-.58-3.65h7v-1.53h-7Zm0,2.63h7v-1.6h-7Z"/>
        <path class="cls-1" d="M198.2,243.59a8.78,8.78,0,0,0,1-2.88l1.68.3a5,5,0,0,0-.54,1.13c-.27.67-.55,1.24-.65,1.43l.44,0a29.41,29.41,0,0,0,6.61-.8l.13,1.43a6.81,6.81,0,0,0-.84.1,65.18,65.18,0,0,1-6.93.55,15.58,15.58,0,0,1-1.89,3c-.21.25-.63.73-.71.8a2.61,2.61,0,0,0-.28.21,0,0,0,0,1,0,0v0a.15.15,0,0,0,0,.06l1-.73a5.62,5.62,0,0,1,3.17-1,2.55,2.55,0,0,1,2.77,2.33c1.53-.61,2.73-1.05,3.66-1.39a4.5,4.5,0,0,0,1.42-.6l.67,1.46a34.82,34.82,0,0,0-5.6,1.85c0,.55,0,.76,0,1.28,0,.28,0,.74,0,1.16s0,.75,0,.94a4.78,4.78,0,0,0,0,.76l-1.43,0a27.79,27.79,0,0,0,.13-3,5.74,5.74,0,0,0,0-.63c-2.86,1.34-4,2.33-4,3.59s1.3,2,4.26,2a17.43,17.43,0,0,0,5.61-.82l.19,1.62c-.32,0-.42,0-.84.1a31.79,31.79,0,0,1-5.1.42c-3.76,0-5.59-1.07-5.59-3.23,0-1.15.71-2.25,2.14-3.32a16.76,16.76,0,0,1,3.13-1.68c-.17-1.15-.67-1.65-1.66-1.65a7.87,7.87,0,0,0-4.68,2.22,7.09,7.09,0,0,0-1.62,1.74l-1.17-1.17a20.8,20.8,0,0,0,4.7-6l.19-.31a2.35,2.35,0,0,1-.4,0l-3.09-.06h-.33l-.46,0,0-1.45a28.93,28.93,0,0,0,4.49.23Z"/>
        <path class="cls-1" d="M213.86,255.14a13.4,13.4,0,0,0,1.62-3.49,22.56,22.56,0,0,0,1.09-4.85l1.41.38a31.58,31.58,0,0,1-1.2,5.08,16.69,16.69,0,0,1-1.57,3.7Zm7.37,1.34c0,.65.49.78,2.92.78a10.09,10.09,0,0,0,2.69-.25c.42-.13.63-.47.78-1.22a20.9,20.9,0,0,0,.29-3.47,5.61,5.61,0,0,0,1.43.55c-.21,2.6-.4,3.76-.8,4.54-.5,1-1.26,1.17-4.51,1.17-3.61,0-4.2-.25-4.2-1.8V246.72a13.59,13.59,0,0,0-.15-2h1.7a12.08,12.08,0,0,0-.15,2Zm5.44-11.71a26.77,26.77,0,0,0-6.8-3.38l.82-1.16a32.71,32.71,0,0,1,6.93,3.3Zm5.44,10.6a32.47,32.47,0,0,0-1.55-4.39,24.24,24.24,0,0,0-1.94-3.72l1.24-.65a34.74,34.74,0,0,1,3.61,8Z"/>
        <path class="cls-1" d="M246.69,240.8a14.39,14.39,0,0,0-.13,2.77c0,.46,0,.69,0,2.18a21,21,0,0,0,6.15-.79l.19,1.55a11.07,11.07,0,0,0-1.26.15,36.44,36.44,0,0,1-5.06.46c.07,2,.17,4.07.28,5.42a17.91,17.91,0,0,1,5.6,3,10.85,10.85,0,0,0,1,.65l-1,1.47a9.31,9.31,0,0,0-2.18-1.83,21.76,21.76,0,0,0-2.84-1.62,3,3,0,0,1-.5-.23,6.29,6.29,0,0,1,.08.91,3.83,3.83,0,0,1-.52,2.12,4.45,4.45,0,0,1-3.74,1.44c-2.71,0-4.37-1.17-4.37-3.1s2-3.32,4.94-3.32a8.62,8.62,0,0,1,1.82.19.93.93,0,0,0,.19,0s0,0,.11,0a.65.65,0,0,0,0-.19V252c-.17-2.42-.32-6.47-.34-9.47a10.07,10.07,0,0,0-.1-1.7Zm-3.36,12.53c-2.15,0-3.45.76-3.45,2a1.43,1.43,0,0,0,.32.9,3.4,3.4,0,0,0,2.52.84,3.56,3.56,0,0,0,2.33-.69,2,2,0,0,0,.5-1.58c0-.31,0-1.15-.06-1.15A7.17,7.17,0,0,0,243.33,253.33Z"/>
        <path class="cls-1" d="M265.33,240.88a12.86,12.86,0,0,0-.48,2.16c-.33,2.13-.63,4.41-.69,5.48l.08,0,.15-.6a9.23,9.23,0,0,1,1.28-3.13c1.18-1.81,2.56-2.71,4.2-2.71a4,4,0,0,1,3.36,1.87,9.89,9.89,0,0,1-3.59,13.35,15.45,15.45,0,0,1-3.74,1.24,4.37,4.37,0,0,0-.84-1.43,11,11,0,0,0,4.26-1.32c2.46-1.41,3.62-3.61,3.62-7s-1.18-5.33-3.2-5.33c-1.59,0-2.94,1.19-4.13,3.65a10.88,10.88,0,0,0-1.14,4.68c0,.09,0,.19,0,.51l-1.51.06v-.23l0-.38,0-2.18v-.49a53.58,53.58,0,0,1,.71-7.74,3.56,3.56,0,0,0,.07-.68Z"/>
        <path class="cls-1" d="M293,245.29c-.25,0-.33.06-.63.13-1.72.35-2.73.52-3.72.63v3.63a14.8,14.8,0,0,1,4.52-.76,7.21,7.21,0,0,1,3.72.88,4.33,4.33,0,0,1-2.13,8.07,3.1,3.1,0,0,1-3.23-2.37,7.74,7.74,0,0,1-.25-2.38,4.53,4.53,0,0,0,1.39-.54,5.22,5.22,0,0,0-.05.82c0,2.18.63,3.08,2.17,3.08a2.79,2.79,0,0,0,2.81-3c0-2.06-1.74-3.34-4.49-3.34a14.42,14.42,0,0,0-4.46.82v5.25c0,1.13-.5,1.68-1.53,1.68a5.53,5.53,0,0,1-3.46-1.34,2.55,2.55,0,0,1-1-2,3.82,3.82,0,0,1,1.66-2.79,11.44,11.44,0,0,1,3-1.72v-4l-.84.06c-.38,0-.73,0-1.34,0-.32,0-.88,0-1.12,0h-.86v-1.38a12.4,12.4,0,0,0,2.15.15c.56,0,1.38,0,2-.07v-2.08a14.56,14.56,0,0,0-.1-2h1.55a12.4,12.4,0,0,0-.11,2v2a21.12,21.12,0,0,0,4.29-.91Zm-5.69,6.19c-2.08,1-3.25,2.15-3.25,3.15a1.58,1.58,0,0,0,.9,1.26,3.89,3.89,0,0,0,1.87.61c.42,0,.48-.12.48-1Zm11.53-3.94a17.49,17.49,0,0,0-4.24-4.12l1.09-.82a17.91,17.91,0,0,1,4.24,4Z"/>
        <path class="cls-1" d="M306.62,251.84c0-.86,0-1.47.06-2.41a10,10,0,0,1-2.05,2.14,4.48,4.48,0,0,0-.78-1.18,14.5,14.5,0,0,0,4.77-5.73l1.23.74c-.16.23-.25.33-.58.86a15.92,15.92,0,0,1-1.33,1.89v8.65a16.87,16.87,0,0,0,.11,2.45h-1.56a20.75,20.75,0,0,0,.13-2.45Zm3.17-11c-.15.17-.15.17-.82,1a19,19,0,0,1-4.05,3.65,4.19,4.19,0,0,0-.84-1.07,12.34,12.34,0,0,0,4.54-4.37Zm2.81,3a14.08,14.08,0,0,0-2,.11V242.6a11.39,11.39,0,0,0,2,.13h2.79v-.84a10.29,10.29,0,0,0-.13-1.7h1.56a9.84,9.84,0,0,0-.11,1.7v.84h3.13a11.67,11.67,0,0,0,2-.13V244a14.1,14.1,0,0,0-2-.11h-3.15v2.78h3.93a15.06,15.06,0,0,0,2.12-.13v1.41a13.75,13.75,0,0,0-2.1-.13h-.86v2.48h.86a13.23,13.23,0,0,0,2.1-.13v1.43a15,15,0,0,0-2.1-.13h-.86v6c0,.73-.23,1.21-.7,1.38a6.39,6.39,0,0,1-1.86.21c-.51,0-1.2,0-1.94-.08a4.91,4.91,0,0,0-.33-1.43,19.83,19.83,0,0,0,2.22.25c1.14,0,1.26,0,1.26-.5v-5.78h-6.72a14.6,14.6,0,0,0-2.05.13v-1.43a12.2,12.2,0,0,0,2,.13h6.74v-2.48h-6.59a12.43,12.43,0,0,0-2,.13v-1.41a13.1,13.1,0,0,0,2,.13h3.53v-2.78Zm1.94,12.71a16.62,16.62,0,0,0-3.2-3.63l1-.78a26.08,26.08,0,0,1,3.3,3.53Z"/>
        <path class="cls-1" d="M328.19,244.09a18.66,18.66,0,0,0,4.53.36,17,17,0,0,0,.68-3.76l1.67.17a12.93,12.93,0,0,0-.33,1.35c-.3,1.21-.36,1.46-.57,2.22,4.12-.15,6.91-.44,8.27-.9l.11,1.51c-.36,0-.48,0-.92.1a68.53,68.53,0,0,1-7.79.61,29.14,29.14,0,0,1-2.1,5.4l0,0a10.78,10.78,0,0,1,6.11-1.76c3.31,0,5.44,1.51,5.44,3.86,0,2.86-2.8,4.72-7,4.72a15.89,15.89,0,0,1-5.19-.81,1.7,1.7,0,0,0,0-.34v-.13c0-.1-.05-.48-.11-1.15a12.89,12.89,0,0,0,5.25,1c3.32,0,5.5-1.32,5.5-3.34,0-1.59-1.51-2.56-4-2.56a11.48,11.48,0,0,0-4.87,1.13,4.5,4.5,0,0,0-1.77,1.35l-1.51-.61a31.64,31.64,0,0,0,2.82-6.85c-1.35,0-2.27-.06-3.49-.14a4.93,4.93,0,0,0-.59,0h-.16Z"/>
        <path class="cls-1" d="M354.86,241.34a32.54,32.54,0,0,0-.28,4.43c-.08,2.52-.14,5.38-.14,6.32,0,.26,0,.78,0,1.26a3.28,3.28,0,0,0,1,2.52,3.91,3.91,0,0,0,2.62.82,6,6,0,0,0,5.63-3.65,12.87,12.87,0,0,0,1-3.3,5.78,5.78,0,0,0,1.51,1,12.85,12.85,0,0,1-2.33,4.77,7.36,7.36,0,0,1-5.92,2.62,5,5,0,0,1-3.95-1.47c-.86-1-1.16-2.1-1.16-4.3,0-1.41,0-1.93.19-8.55,0-.63,0-1,0-1.36a6.87,6.87,0,0,0-.08-1.12Z"/>
        <path class="cls-1" d="M372.73,243.86h.75c.3,0,.55,0,1.2-.06,2.5-.19,9.22-.57,11.93-.69a14.57,14.57,0,0,0,2.5-.23l.12,1.57a10.2,10.2,0,0,0-2.35.27,10.72,10.72,0,0,0-4,2.12,6.42,6.42,0,0,0-2.58,4.86,4.11,4.11,0,0,0,2.94,3.88,10.62,10.62,0,0,0,3.15.67h.2l-.27,1.7-.65-.12a10.55,10.55,0,0,1-4.53-1.62,5.11,5.11,0,0,1-2.33-4.28c0-2.44,1.42-4.77,3.92-6.45a13.93,13.93,0,0,1,2-1.11,41.58,41.58,0,0,1-4.62.46,61.38,61.38,0,0,0-7.25.69Z"/>
        <path class="cls-1" d="M405.57,245.29c-.25,0-.34.06-.63.13-1.72.35-2.73.52-3.71.63v3.63a14.7,14.7,0,0,1,4.51-.76,7.21,7.21,0,0,1,3.72.88,4.33,4.33,0,0,1-2.13,8.07,3.1,3.1,0,0,1-3.23-2.37,7.74,7.74,0,0,1-.25-2.38,4.37,4.37,0,0,0,1.38-.54,6.51,6.51,0,0,0,0,.82c0,2.18.63,3.08,2.17,3.08a2.79,2.79,0,0,0,2.81-3c0-2.06-1.74-3.34-4.49-3.34a14.32,14.32,0,0,0-4.45.82v5.25c0,1.13-.51,1.68-1.54,1.68a5.53,5.53,0,0,1-3.46-1.34,2.55,2.55,0,0,1-1-2,3.82,3.82,0,0,1,1.66-2.79,11.44,11.44,0,0,1,3-1.72v-4l-.84.06c-.38,0-.73,0-1.34,0-.32,0-.89,0-1.12,0h-.86v-1.38a12.4,12.4,0,0,0,2.15.15c.56,0,1.38,0,2-.07v-2.08a14.56,14.56,0,0,0-.1-2h1.55a12.62,12.62,0,0,0-.1,2v2a21.16,21.16,0,0,0,4.28-.91Zm-5.69,6.19c-2.08,1-3.25,2.15-3.25,3.15a1.58,1.58,0,0,0,.9,1.26,3.89,3.89,0,0,0,1.87.61c.42,0,.48-.12.48-1Zm11.53-3.94a17.31,17.31,0,0,0-4.24-4.12l1.09-.82a17.91,17.91,0,0,1,4.24,4Z"/>
        <path class="cls-1" d="M422.92,240.88a11.08,11.08,0,0,0-.48,2.16c-.34,2.13-.63,4.41-.7,5.48l.09,0c0-.16,0-.16.14-.6a9.65,9.65,0,0,1,1.28-3.13c1.18-1.81,2.57-2.71,4.2-2.71a3.94,3.94,0,0,1,3.36,1.87,9.89,9.89,0,0,1-3.59,13.35,15.16,15.16,0,0,1-3.74,1.24,4.34,4.34,0,0,0-.83-1.43,11.09,11.09,0,0,0,4.26-1.32c2.45-1.41,3.61-3.61,3.61-7s-1.18-5.33-3.19-5.33c-1.6,0-2.94,1.19-4.14,3.65a11,11,0,0,0-1.13,4.68c0,.09,0,.19,0,.51l-1.51.06v-.23l0-.38-.05-2.18v-.49a52.48,52.48,0,0,1,.72-7.74,4.48,4.48,0,0,0,.06-.68Z"/>
        <path class="cls-1" d="M455.74,257.51a16.88,16.88,0,0,0-4.28-3c-.36-.19-.84-.4-1.41-.63a6.25,6.25,0,0,1,0,.75,3.69,3.69,0,0,1-.52,2.29,4.24,4.24,0,0,1-3.55,1.33,5.54,5.54,0,0,1-3.26-.84,2.77,2.77,0,0,1-1.13-2.21c0-1.38,1.09-2.48,2.94-2.9a9.51,9.51,0,0,1,2.18-.21,9.83,9.83,0,0,1,1.89.17c0-.06,0-.06,0-.25a1.84,1.84,0,0,1,0-.23c0-.19,0-.63,0-1.24,0-.27,0-.67,0-1.22-.76,0-1.81,0-2.48,0-1.26,0-2.25,0-3.55-.14-.23,0-.4,0-.52,0h-.17l0-1.39a25.67,25.67,0,0,0,4.81.34c.54,0,1.28,0,1.87,0l-.05-2.87c-.61,0-.94,0-1.42,0-1.54,0-3.24-.06-5.13-.21a2.62,2.62,0,0,0-.38,0,1.8,1.8,0,0,0-.29,0l0-1.43a26.25,26.25,0,0,0,5.38.42l1.82,0a17.18,17.18,0,0,0-.1-3H450a21.91,21.91,0,0,0-.15,3,29.4,29.4,0,0,0,6.21-.86l.11,1.43c-.36,0-.36,0-1.45.16a42.73,42.73,0,0,1-4.87.51c0,1.72,0,1.72,0,2.83a25.35,25.35,0,0,0,5.82-.86l.08,1.45c-.27,0-.48,0-1.22.15-1.45.23-3.1.4-4.66.5,0,1.18,0,1.18.13,3.21a18.57,18.57,0,0,1,5.86,3.07,7.45,7.45,0,0,0,.71.48Zm-7.1-4a7.68,7.68,0,0,0-2.14-.23c-2.08,0-3.44.76-3.44,1.87s1.05,1.74,2.87,1.74a3,3,0,0,0,2.31-.69c.3-.29.42-.88.42-1.89Z"/>
        <path class="cls-1" d="M472.29,242.08a6.39,6.39,0,0,0-.09-1.22h1.58a16.39,16.39,0,0,0-.11,2.63v.23c4,0,5.59-.07,6.28-.15v1.49a39.18,39.18,0,0,0-4-.1l-2.25,0v4.15a6,6,0,0,1,.51,2.48,6.75,6.75,0,0,1-2.81,5.48,13.67,13.67,0,0,1-3.32,1.7,4.68,4.68,0,0,0-.93-1.32,11.15,11.15,0,0,0,3.41-1.57,5.47,5.47,0,0,0,2.35-4.44,2.9,2.9,0,0,1-.57,1,3.51,3.51,0,0,1-6.09-2.18,3.5,3.5,0,0,1,3.72-3.46,3.19,3.19,0,0,1,2.43.94c0-.29,0-.38,0-1.15,0-.09,0-.3,0-.55V245c-4.22.08-8.46.29-9.87.52l-.06-1.53c.38,0,.52,0,.84,0,.61,0,.61,0,4-.12,2-.09,3.65-.13,5.08-.17Zm-.9,6.32a2.7,2.7,0,0,0-1.41-.34,2.23,2.23,0,0,0-2.33,2.21,2,2,0,0,0,2.16,2.08,2.36,2.36,0,0,0,2.46-2.48A1.53,1.53,0,0,0,471.39,248.4Z"/>
        <path class="cls-1" d="M490.68,255.94a3.15,3.15,0,1,1-3.14-3.15A3.14,3.14,0,0,1,490.68,255.94Zm-5.1,0a2,2,0,1,0,2-2A2,2,0,0,0,485.58,255.94Z"/>
      </g>
    </g>
  </g>
</svg>
