<svg xmlns="http://www.w3.org/2000/svg" viewBox="0 0 901.15 93.26"><defs><style>.cls-1{fill:#fff;}</style></defs><g id="レイヤー_2" data-name="レイヤー 2"><g id="レイヤー_1-2" data-name="レイヤー 1"><path class="cls-1" d="M4.79,10.73c-1.37,1.13-2,2.1-2,3.09s.61,1.65,1.79,2a13.11,13.11,0,0,0,3.84.42,20.1,20.1,0,0,0,6.3-.79l.19,1.72a6.74,6.74,0,0,0-.72.1,33.61,33.61,0,0,1-5.66.48,14.74,14.74,0,0,1-4.83-.65A3.34,3.34,0,0,1,1.3,14c0-1.36.8-2.68,2.42-4.05ZM2.58,3.07a24.47,24.47,0,0,0,5.59.5,23.19,23.19,0,0,0,5.31-.44l.1,1.38a32.14,32.14,0,0,0-5.29,3.2L7.22,6.84a33.55,33.55,0,0,1,3.72-2.22,16.56,16.56,0,0,1-3.17.27,40.56,40.56,0,0,1-4.62-.27l-.69-.06ZM13.06,6.7A16.73,16.73,0,0,1,15.2,10l-1,.63A16.19,16.19,0,0,0,12,7.24Zm2.29-1.24a16.2,16.2,0,0,1,2.18,3.27l-1.05.59A17.39,17.39,0,0,0,14.34,6Z"/><path class="cls-1" d="M33.22,9.78A20.17,20.17,0,0,0,35.72,5L37,5.5a31,31,0,0,1-2.33,4.28H37.8a11.89,11.89,0,0,0,2.31-.14v1.49A16.73,16.73,0,0,0,37.76,11H31.92a20.72,20.72,0,0,0,2.77,2.92,19.4,19.4,0,0,0,5.67,3.55,5.65,5.65,0,0,0-.9,1.3,22.69,22.69,0,0,1-5.29-3.57,18.58,18.58,0,0,1-3-3.53c.06,1.16.08,1.73.08,2.27V17.7a10.83,10.83,0,0,0,.15,2h-1.6a11,11,0,0,0,.15-2V13.94c0-.63,0-1,.08-2.24a17.13,17.13,0,0,1-3.95,4.51,24.1,24.1,0,0,1-3.75,2.56,5.34,5.34,0,0,0-.95-1.22,21.87,21.87,0,0,0,5.84-4.09A19.32,19.32,0,0,0,29.4,11H23.92a19.87,19.87,0,0,0-2.31.13V9.64a15.09,15.09,0,0,0,2.29.14H30V4.28H25a20,20,0,0,0-2.25.13V2.94A15.71,15.71,0,0,0,25,3.09h5v-.7A10.12,10.12,0,0,0,29.86.65h1.56a7.54,7.54,0,0,0-.13,1.74v.7h5.35A12.1,12.1,0,0,0,39,2.94V4.41a17,17,0,0,0-2.28-.13h-5.4v5.5ZM25.58,5a25.34,25.34,0,0,1,2.08,3.88l-1.18.61a19.6,19.6,0,0,0-2-3.95Z"/><path class="cls-1" d="M46.64,3.19A17.55,17.55,0,0,0,46.52.88h1.55a13.68,13.68,0,0,0-.13,2.33v2.9h.51A12.93,12.93,0,0,0,50.19,6V7.37a17.15,17.15,0,0,0-1.74-.08h-.51v5.39a15.54,15.54,0,0,0,1.79-1.07l.08,1.26a37.39,37.39,0,0,1-4.37,2.37c-.33.15-.92.44-1.11.55l-.4-1.47a10.4,10.4,0,0,0,2.71-1v-6h-.9a16.06,16.06,0,0,0-1.79.1V6a11,11,0,0,0,1.83.11h.86Zm5.9,9.6A13.24,13.24,0,0,1,49,15.58a3.74,3.74,0,0,0-.86-.95A10,10,0,0,0,53,10.2H51.74a10.58,10.58,0,0,0-1.89.13V9a11,11,0,0,0,1.94.12h9A12.5,12.5,0,0,0,62.83,9v1.32a18.46,18.46,0,0,0-2.08-.09H54.33a10.89,10.89,0,0,1-1,1.54h7a15,15,0,0,0,2.06-.09,9.27,9.27,0,0,0-.11,1.24,21.05,21.05,0,0,1-.92,5.61c-.38.75-.9,1-2.33,1-.48,0-1.18,0-1.83-.08A3.58,3.58,0,0,0,56.76,18a14.49,14.49,0,0,0,2.5.24c.84,0,1-.17,1.26-1.43a25.3,25.3,0,0,0,.46-4H59.57A12.27,12.27,0,0,1,57.71,16a21.76,21.76,0,0,1-2.59,2.58,17.08,17.08,0,0,1-1.7,1.18,3.46,3.46,0,0,0-1-1,13.3,13.3,0,0,0,4.11-3.19,10.21,10.21,0,0,0,1.72-2.75H56.21A14.52,14.52,0,0,1,50.44,18a3,3,0,0,0-.9-1,12,12,0,0,0,5.31-4.26Zm.67-5.08a15.51,15.51,0,0,0-1.91.08,14.66,14.66,0,0,0,.09-1.89V3.17a12.91,12.91,0,0,0-.09-1.85,12.71,12.71,0,0,0,2,.11H58.8A14.42,14.42,0,0,0,61,1.32a16.23,16.23,0,0,0-.08,2V5.9A13,13,0,0,0,61,7.77c-.46,0-1.11-.06-1.93-.06Zm-.59-3.66h7V2.52h-7Zm0,2.63h7V5.08h-7Z"/><path class="cls-1" d="M68.73,12.6c0-.72,0-1.2,0-1.49s0-.15,0-1.33a10.23,10.23,0,0,1-2.08,2.08,3.5,3.5,0,0,0-.78-1.15A14.59,14.59,0,0,0,69.59,7a9.55,9.55,0,0,0,1.24-2.14l1.2.74a6.63,6.63,0,0,0-.61.92A15.68,15.68,0,0,1,70,8.46v8.67c0,1.09,0,1.87.1,2.5H68.61a18.45,18.45,0,0,0,.12-2.43ZM71.82,1.28c-.17.21-.17.21-.48.63A16.69,16.69,0,0,1,67.16,6a3,3,0,0,0-.84-1A11.24,11.24,0,0,0,70.64.5Zm6.68,0A8.89,8.89,0,0,0,78,2a26,26,0,0,1-2.33,2.83c.86.73,1.18,1,1.89,1.7a20.77,20.77,0,0,0,3.36-4.26L82.21,3l-.84,1A44.63,44.63,0,0,1,76.86,8.8c2.92-.17,2.92-.17,5.6-.42a22.58,22.58,0,0,0-1.63-1.81l1-.67a41.29,41.29,0,0,1,3.64,4.37l-1.1.75c-.56-.84-.73-1.09-1.15-1.68-3.59.4-3.59.4-5.9.55a11.46,11.46,0,0,1-1,1.64h4A9.85,9.85,0,0,0,82,11.42l.86.8a4.19,4.19,0,0,0-.48.63,15.68,15.68,0,0,1-3,3.13,17.59,17.59,0,0,0,6.17,2.24,7,7,0,0,0-.69,1.33,19.35,19.35,0,0,1-4.73-1.72,12.46,12.46,0,0,1-1.85-1.08,18.57,18.57,0,0,1-6.67,2.86,4,4,0,0,0-.8-1.22A17.66,17.66,0,0,0,77.22,16a12.92,12.92,0,0,1-2.42-2.63,14.07,14.07,0,0,1-2.88,2.31,5.12,5.12,0,0,0-.94-1A11.31,11.31,0,0,0,75.91,10l-3.29.17a5.86,5.86,0,0,0-1,.11l-.23-1.41a10.11,10.11,0,0,0,1.51.08c.38,0,.38,0,2.25-.06,1.13-1.07,1.13-1.07,1.51-1.45A33.41,33.41,0,0,0,72.45,4l.9-1c.8.61,1.05.82,1.39,1.07a13.59,13.59,0,0,0,2.5-3.5ZM75.66,12.6a12,12,0,0,0,2.61,2.66,10.65,10.65,0,0,0,2.66-2.66Z"/><path class="cls-1" d="M99.37,18a15.88,15.88,0,0,0-2.31.1,9.77,9.77,0,0,1,.61-2.77,9.28,9.28,0,0,1,2.73-3.61,29.24,29.24,0,0,1,3.22-2.31c2.07-1.41,2.77-2.33,2.77-3.61,0-1.6-1.35-2.63-3.49-2.63a3.46,3.46,0,0,0-3,1.37,4.24,4.24,0,0,0-.74,2.12l-1.76-.3a5.7,5.7,0,0,1,1.32-3,5.37,5.37,0,0,1,4.22-1.62c3.17,0,5.21,1.6,5.21,4.08a4.37,4.37,0,0,1-1.24,3,17,17,0,0,1-3.57,2.71,11.32,11.32,0,0,0-3,2.58,5.9,5.9,0,0,0-1.2,2.43h6.7a19.23,19.23,0,0,0,2.56-.14v1.76a24.73,24.73,0,0,0-2.58-.12Z"/><path class="cls-1" d="M120.21,9.05a9,9,0,0,0,1.64.1h1.09a10.31,10.31,0,0,0,1.61-.1,16.51,16.51,0,0,0-.1,2.23v4.13a3,3,0,0,0,1,1.37c1.11.88,2.37,1.17,4.91,1.17a69.3,69.3,0,0,0,9.13-.42A5.31,5.31,0,0,0,139,19c-2.27.11-4.56.15-7,.15-3.59,0-4.81-.15-6.05-.73a5.09,5.09,0,0,1-2.2-2,22.05,22.05,0,0,1-2.46,2.18c-.29.24-.32.24-.76.61l-.73-1.32a14.33,14.33,0,0,0,3.36-2.54V10.33h-1.39a7.76,7.76,0,0,0-1.55.11Zm1.38-7.89A26.18,26.18,0,0,1,125,4.87l-1.07,1A19.31,19.31,0,0,0,120.63,2Zm6.32,2.39a69.79,69.79,0,0,1-.39,9.05,13.86,13.86,0,0,1-1.08,3.82,3.75,3.75,0,0,0-1.15-.8,12.13,12.13,0,0,0,1.11-4.45,69.35,69.35,0,0,0,.25-7.45,18.56,18.56,0,0,0-.12-2.4,15,15,0,0,0,2,.09h7.58a14.45,14.45,0,0,0,2-.09,16.78,16.78,0,0,0-.08,2V15.08c0,1.19-.51,1.53-2.23,1.53-.59,0-1.22,0-1.81,0a3.6,3.6,0,0,0-.27-1.31,16.24,16.24,0,0,0,2.35.17c.57,0,.7-.12.7-.61V2.54h-8.91Zm3.72,2.06h-.9a16.27,16.27,0,0,0-1.87.08V4.49a15.16,15.16,0,0,0,1.89.11h.88a8.12,8.12,0,0,0-.1-1.58h1.36a7.57,7.57,0,0,0-.1,1.58h1.11a14,14,0,0,0,1.82-.11v1.2a14.71,14.71,0,0,0-1.82-.08h-1.11V7.47h1.67a10.77,10.77,0,0,0,1.87-.1V8.61a12,12,0,0,0-1.84-.11h-4.25a13,13,0,0,0-1.88.11V7.37a11.26,11.26,0,0,0,1.88.1h1.39Zm-2.5,9.59a8.57,8.57,0,0,0,.09-1.53v-2.6a12.08,12.08,0,0,0-.07-1.35c.38,0,.91.06,1.41.06h3.27a13.39,13.39,0,0,0,1.47-.06c0,.46-.06.8-.06,1.26v2.1a8.84,8.84,0,0,0,.06,1.13,12.64,12.64,0,0,0-1.34-.06h-3.61v1Zm1.22-2.1h3.78V10.81h-3.78Z"/><path class="cls-1" d="M144.93,17.3a15.75,15.75,0,0,0,.12,2.35H143.5a16.41,16.41,0,0,0,.12-2.35V3.74c0-1,0-1.64-.08-2.31a20.33,20.33,0,0,0,2.2.08h3a19.32,19.32,0,0,0,2.14-.08c0,.59-.06,1.22-.06,2V6c0,.84,0,1.42.06,2-.57,0-1.28-.06-2.12-.06h-3.84Zm0-13.08h4.7V2.54h-4.7Zm0,2.69h4.7V5.21h-4.7Zm11,8c0,.79,0,1.36.06,1.91-.59-.05-1.28-.07-2.14-.07h-4.6v1.47H148a13.48,13.48,0,0,0,.1-2V11.55c0-.76,0-1.37-.06-2a17.14,17.14,0,0,0,2.08.09h3.84A16.84,16.84,0,0,0,156,9.57c0,.59-.06,1.14-.06,2Zm-6.68-2.29h5.48V10.71h-5.48Zm0,3.08h5.48v-2h-5.48Zm11.26,2c0,1.38-.45,1.74-2.15,1.74-.44,0-1.57,0-2.1-.09a4.68,4.68,0,0,0-.37-1.34,21.57,21.57,0,0,0,2.31.21c.86,0,1-.1,1-.61V7.92h-4.3c-.88,0-1.55,0-2.12.06,0-.55.06-1.18.06-1.95V3.42c0-.73,0-1.36-.06-2a19.09,19.09,0,0,0,2.14.08h3.47a20.33,20.33,0,0,0,2.2-.08,20.81,20.81,0,0,0-.1,2.31Zm-6.45-13.4h5.16V2.54h-5.16Zm0,2.69h5.16V5.21h-5.16Z"/><path class="cls-1" d="M167.5,3.61a11.77,11.77,0,0,0-.17-2.2H169a14.05,14.05,0,0,0-.12,2v.25l.1,10.65c1.16-.46,1.85-.78,2.75-1.22A26.25,26.25,0,0,0,175,11.3l.28,1.3A48,48,0,0,1,167,16.52a9.34,9.34,0,0,0-1.24.53l-.47-1.53a18.61,18.61,0,0,0,2.32-.7ZM182,1.39a18.55,18.55,0,0,0-.17,2.07A31.65,31.65,0,0,1,180.92,9a15.72,15.72,0,0,1-1.68,3.82,13.24,13.24,0,0,0,5.14,5.31,5.13,5.13,0,0,0-.94,1.34,15.48,15.48,0,0,1-3.24-2.91,15.3,15.3,0,0,1-1.76-2.52,16.78,16.78,0,0,1-7.69,5.6,4.15,4.15,0,0,0-.9-1.26,18.05,18.05,0,0,0,4.2-2.08A13.42,13.42,0,0,0,179.78,8a23,23,0,0,0,.68-5.56,8.35,8.35,0,0,0-.07-1.1Zm-9.18,1.44a31.89,31.89,0,0,1,4.08,5l-1.26.88a24.17,24.17,0,0,0-4-5.12Z"/><path class="cls-1" d="M197.57,5c0,.4-.06.54-.12.9a12.44,12.44,0,0,0,2.12,3.72A14,14,0,0,0,203.72,13a4.35,4.35,0,0,0-.92,1.21A14.13,14.13,0,0,1,197,7.79a10.13,10.13,0,0,1-1.18,2.65,11.91,11.91,0,0,1-4.37,3.92,4,4,0,0,0-.94-1.07,10.87,10.87,0,0,0,3.63-2.81A9.9,9.9,0,0,0,196.23,5h-6V17.26a14.5,14.5,0,0,0,.11,2.33h-1.64a15.3,15.3,0,0,0,.14-2.33V5.54a16.54,16.54,0,0,0-.08-1.89,15.29,15.29,0,0,0,2.08.11h5.56c0-.72,0-1,0-1.74A7.54,7.54,0,0,0,196.25.5h1.64A5.85,5.85,0,0,0,197.74,2c0,.94,0,1.23-.06,1.74h5.77a15.54,15.54,0,0,0,2.12-.11,15.79,15.79,0,0,0-.08,1.85V17.64c0,1.32-.45,1.57-2.67,1.57-.69,0-1.53,0-2.39-.1a5,5,0,0,0-.34-1.45,15.22,15.22,0,0,0,2.88.27c1,0,1.13-.06,1.13-.55V5Z"/><path class="cls-1" d="M214.85,2A31.9,31.9,0,0,0,214,5.4a31,31,0,0,0-.63,6.57c0,1.64,0,2.87.13,4a19.48,19.48,0,0,1,1.36-4.1l1,.49a18.32,18.32,0,0,0-1.7,5.77v.31l-1.51.13c0-.34-.06-.44-.13-.84a30,30,0,0,1-.54-5.94,34.94,34.94,0,0,1,.94-8.32,13.17,13.17,0,0,0,.3-1.67Zm5.36,8.44a4.87,4.87,0,0,0-1.58,3.08c0,1.56,1.33,2.31,4,2.31a13.81,13.81,0,0,0,4.82-.73l.21,1.61c-.27,0-.31.05-.73.11a22,22,0,0,1-4.3.42c-2.4,0-3.91-.5-4.81-1.6a3,3,0,0,1-.63-1.93,5.78,5.78,0,0,1,1.82-3.9Zm-2.67-6.22a14.29,14.29,0,0,0,3.57.32A22.46,22.46,0,0,0,226.74,4l.1,1.49-1.45.19a34.92,34.92,0,0,1-4.51.27,27.5,27.5,0,0,1-3.36-.21Z"/><path class="cls-1" d="M233.69,14a21.64,21.64,0,0,1,4.22,4.45l-1.17,1.12A20.8,20.8,0,0,0,232.6,15Z"/><path class="cls-1" d="M257.25,12.26a20.93,20.93,0,0,0,.15-3,14.29,14.29,0,0,0-1.72.08v-1a17.8,17.8,0,0,1-4.07,2.42,4.31,4.31,0,0,0-.84-1.09,15.66,15.66,0,0,0,4.78-2.86A18.52,18.52,0,0,0,252.38,4l1-.82a29.19,29.19,0,0,1,3.11,2.71,13.74,13.74,0,0,0,2.64-3.28h-4a9.87,9.87,0,0,0-1.36.11V1.39a9.3,9.3,0,0,0,1.51.1h4a13.34,13.34,0,0,0,1.87-.08,6.17,6.17,0,0,0,1.62,2.85A13.1,13.1,0,0,0,265,1.58l1.15.75a3.48,3.48,0,0,0-.44.48,18.82,18.82,0,0,1-2.16,2.27c.59.59,1.09,1,1.78,1.64a13.64,13.64,0,0,0,2.5-2.9l1.16.76-1,1.11a19,19,0,0,1-1.74,1.7,15.58,15.58,0,0,0,3.94,2.08,5.17,5.17,0,0,0-.81,1.22,20.23,20.23,0,0,1-4-2.38v1a15.56,15.56,0,0,0-1.79-.08h-.36v3h3.74a14.28,14.28,0,0,0,2.1-.12v1.42a15.36,15.36,0,0,0-2.1-.12h-3.74v4a.48.48,0,0,0,.42.56,6.74,6.74,0,0,0,1.62.13c1.64,0,2.23-.11,2.52-.44a5.25,5.25,0,0,0,.55-2.37,3.54,3.54,0,0,0,1.34.6,5.42,5.42,0,0,1-.92,2.78c-.44.5-1.37.67-3.64.67-2.6,0-3.19-.3-3.19-1.58V13.44h-3.5a7.26,7.26,0,0,1-1.49,3.29,9.52,9.52,0,0,1-2.4,2,10.66,10.66,0,0,1-2.1,1,4.7,4.7,0,0,0-1-1.19A10,10,0,0,0,254.61,17,5.48,5.48,0,0,0,257,13.44h-3.1a15.15,15.15,0,0,0-2.08.12V12.14a14.07,14.07,0,0,0,2.08.12Zm6.22-4.16A14.33,14.33,0,0,0,265,8a15.91,15.91,0,0,1-4.51-5.23A19,19,0,0,1,256,8c.49,0,.84.06,1.58.06Zm-4.75,1.14a24.35,24.35,0,0,1-.14,3h3.29v-3Z"/><path class="cls-1" d="M278,2a6,6,0,0,0-.13-1.35h1.43A7,7,0,0,0,279.16,2v.44H281a7.85,7.85,0,0,0,1.57-.11V3.59a11.06,11.06,0,0,0-1.49-.08h-1.95V5.19h2.45a14,14,0,0,0,1.58-.07V6.28a14.35,14.35,0,0,0-1.56-.07h-.94V7.64c0,.25.1.3.67.3.95,0,1.05-.09,1.18-1l0-.29a3.17,3.17,0,0,0,1,.38c-.26,1.55-.51,1.74-2.27,1.74-1.3,0-1.7-.19-1.7-.82V6.21h-1.91a4.29,4.29,0,0,1-.57,1.54,5.42,5.42,0,0,1-3,2.16,3.09,3.09,0,0,0-.68-1.09A4.28,4.28,0,0,0,276,7.35a2.47,2.47,0,0,0,.48-1.14H275a12.9,12.9,0,0,0-1.57.09V5.1a9.79,9.79,0,0,0,1.59.09H278V3.51h-1.91a10.45,10.45,0,0,0-1.45.08V2.35a8.22,8.22,0,0,0,1.47.11H278Zm-2,9a7.93,7.93,0,0,0-1.3.09V9.91A7.75,7.75,0,0,0,276,10h2V9.55a8.15,8.15,0,0,0-.09-1.4h1.33a7.63,7.63,0,0,0-.09,1.42V10h2a7.34,7.34,0,0,0,1.28-.08v1.2a11.17,11.17,0,0,0-1.28-.07h-2v1.79c1.45-.21,2-.32,3.57-.63l0,1c-1.89.42-5.37,1-7.64,1.3a7.51,7.51,0,0,0-1.11.17l-.28-1.33a3.19,3.19,0,0,0,.45,0,33.59,33.59,0,0,0,3.84-.38V11Zm-2.22,7.67a9,9,0,0,0,2.77-3.49l1.16.57a13.07,13.07,0,0,1-2.82,3.8Zm6.32.82a16.34,16.34,0,0,0-.46-3.74l1.19-.19a17.15,17.15,0,0,1,.59,3.76ZM288.67,4.3a13.07,13.07,0,0,0,1.63-.1,11.9,11.9,0,0,0-.08,1.7,35.44,35.44,0,0,0,.38,5.19,4.32,4.32,0,0,0,.78,2.08,7.47,7.47,0,0,0,.63-3,3,3,0,0,0,1,.66c-.35,2.62-.84,3.67-1.61,3.67-.59,0-1.18-.67-1.54-1.74A24.35,24.35,0,0,1,289,5.48h-1.82a19.72,19.72,0,0,1-.63,4.07,24.68,24.68,0,0,1,1.82,2.52l-.86,1c-.67-1.09-.94-1.51-1.4-2.16A9.93,9.93,0,0,1,283,15.16a3.86,3.86,0,0,0-.9-1,8,8,0,0,0,3.19-4.38A19.54,19.54,0,0,0,283.61,8l.77-.88c.66.67.8.82,1.26,1.34a18.7,18.7,0,0,0,.36-3h-.9a10.35,10.35,0,0,0-1.43.1V4.2a8.05,8.05,0,0,0,1.45.1H286c0-.58,0-.94,0-1.42a10.62,10.62,0,0,0-.14-2h1.47a22.92,22.92,0,0,0-.17,3.46ZM285,19.51a14.19,14.19,0,0,0-1.15-3.68l1.18-.31a15.49,15.49,0,0,1,1.25,3.65Zm6,.16a20.8,20.8,0,0,0-2.8-4l1.05-.58a23.45,23.45,0,0,1,2.92,3.82Z"/><path class="cls-1" d="M299.3,3.49a13.55,13.55,0,0,1-2.36,2.72,3.55,3.55,0,0,0-1-.86A10,10,0,0,0,299.38.63l1.34.4c-.31.59-.42.78-.71,1.32h3.19a13.62,13.62,0,0,0,2.08-.12V3.57a17.78,17.78,0,0,0-1.93-.08H302a12.68,12.68,0,0,1,1.11,2.12l-1.22.44a14,14,0,0,0-1.15-2.56Zm5.24,3.25a6.92,6.92,0,0,0-.12-1.3h1.51a7.49,7.49,0,0,0-.13,1.3h5a12.84,12.84,0,0,0,2.12-.13V8a15.06,15.06,0,0,0-2.1-.13h-5V10h6.79a14.92,14.92,0,0,0,2.16-.12v1.38a16.12,16.12,0,0,0-2.16-.12h-2.5v2.05h2.43a16.17,16.17,0,0,0,2.17-.12V14.4a16.7,16.7,0,0,0-2.17-.12h-2.43V18c0,1.23-.51,1.53-2.58,1.53-.59,0-1.33,0-2.06-.06a5.06,5.06,0,0,0-.38-1.33,18.88,18.88,0,0,0,2.73.17c.8,0,1-.1,1-.55V14.28H298.58a16.65,16.65,0,0,0-2.18.12V13a16.12,16.12,0,0,0,2.16.12h10.21V11.09H298.54a16.87,16.87,0,0,0-2.18.12V9.83a14.73,14.73,0,0,0,2.16.12h6V7.87h-4.22A15.06,15.06,0,0,0,298.2,8V6.61a13.17,13.17,0,0,0,2.12.13Zm-3.42,7.89a20,20,0,0,1,3.28,2.9l-1,1a13.82,13.82,0,0,0-3.17-3Zm6.22-11.17a12.71,12.71,0,0,1-1.6,2,2.67,2.67,0,0,0-1-.76,9.66,9.66,0,0,0,2.8-4.13l1.26.39c-.19.4-.32.61-.76,1.43h4.51a16.13,16.13,0,0,0,2.23-.12V3.57a17.68,17.68,0,0,0-2.21-.11h-2.33a17.19,17.19,0,0,1,1.16,2l-1.2.48a14.07,14.07,0,0,0-1.28-2.5Z"/><path class="cls-1" d="M327.06,12.58c-1.22,2.77-2.46,4-4,4-2,0-3.49-2.19-3.49-5.12a8.71,8.71,0,0,1,2.21-5.8,8.76,8.76,0,0,1,6.78-2.79A8.09,8.09,0,0,1,334.36,5a7,7,0,0,1,2,5.12,7.64,7.64,0,0,1-4.81,7.24,16.34,16.34,0,0,1-3.19,1,3.5,3.5,0,0,0-.73-1.41,12.51,12.51,0,0,0,3.5-1A6.34,6.34,0,0,0,334.89,10a5.53,5.53,0,0,0-3.34-5.27,6,6,0,0,0-2.43-.53A31.93,31.93,0,0,1,327.06,12.58Zm-2.59-7.33a7.26,7.26,0,0,0-3.42,6.26c0,2,.88,3.57,2,3.57.88,0,1.72-1,2.62-3.05a28.71,28.71,0,0,0,1.91-7.77A6.69,6.69,0,0,0,324.47,5.25Z"/><path class="cls-1" d="M350.81,2.31a7.88,7.88,0,0,0-.13-1.68h1.6a6.83,6.83,0,0,0-.13,1.7v.34h5.25a18.18,18.18,0,0,0,2.33-.13V4a16.67,16.67,0,0,0-2.31-.11H345.35V7.73c0,6-.88,9.15-3.26,11.84a3.5,3.5,0,0,0-1.13-.93,10.84,10.84,0,0,0,2.9-7.09c-.4.25-1.16.69-2.27,1.3a3.74,3.74,0,0,0-.5.29l-.59-1.32A16.3,16.3,0,0,0,344,10.27c.07-1.07.09-1.64.09-2.35a37,37,0,0,0-.15-5.36,18.08,18.08,0,0,0,2.39.11h4.52Zm-9,2a21.59,21.59,0,0,1,1.56,3.89l-1.12.57a17.46,17.46,0,0,0-1.47-3.93Zm10.37,3.24h-3.65a20.11,20.11,0,0,0-2.08.08V6.24a14.82,14.82,0,0,0,2.08.1h8.86a13.73,13.73,0,0,0,2.06-.13V7.64a15.12,15.12,0,0,0-2.06-.1h-3.86v3.84H357a11,11,0,0,0,1.83-.1V12.7a11.44,11.44,0,0,0-1.81-.1h-3.46v5h4.2a16.34,16.34,0,0,0,2.2-.13V19a16.94,16.94,0,0,0-2.23-.13H346.59a17.72,17.72,0,0,0-2.33.13V17.53a12.12,12.12,0,0,0,2.1.11h1.42V12.12a16.68,16.68,0,0,0-.12-2.06h1.59a16.45,16.45,0,0,0-.12,2.06v5.52h3.06Z"/><path class="cls-1" d="M367.34,2.67a12.67,12.67,0,0,0-.13-1.85h1.58a9.29,9.29,0,0,0-.13,1.85V17.83a9.16,9.16,0,0,0,.13,1.86h-1.58a13.41,13.41,0,0,0,.13-2V12.35c-.65.44-1.37.88-1.94,1.21l-1.49.86-.61-1.34a21.08,21.08,0,0,0,4-2.12Zm-2.55,1a20.73,20.73,0,0,1,1.54,4.5l-1.22.5a17.25,17.25,0,0,0-1.47-4.56Zm11.43,4.12a21.86,21.86,0,0,0,1.93,5.56,12.54,12.54,0,0,0,4.37,4.92,4.63,4.63,0,0,0-1,1.3A14.64,14.64,0,0,1,377,13.94a15.91,15.91,0,0,1-1.5-4.6,17.16,17.16,0,0,1-1.78,5.74A12.64,12.64,0,0,1,370,19.44a3.75,3.75,0,0,0-.94-1.15,10.46,10.46,0,0,0,3.25-3.38,15.91,15.91,0,0,0,2.17-7.14h-2.88a15.57,15.57,0,0,0-2.1.12V6.45a14.84,14.84,0,0,0,2.08.12h3c.06-1.43.08-1.89.08-4.07a9.16,9.16,0,0,0-.12-1.58h1.62A14.39,14.39,0,0,0,376,3.3c0,1.51-.07,2.18-.15,3.27h4.43a14.34,14.34,0,0,0,2.06-.12V7.89a14.12,14.12,0,0,0-2-.12Zm3.92-2.08a16,16,0,0,0-2.85-3.46l1-.68a21.52,21.52,0,0,1,2.91,3.34Z"/><path class="cls-1" d="M386.61,6.63a41.89,41.89,0,0,0,4.64-.54,25.71,25.71,0,0,0,.63-4.45V1.37l1.68.18a13.26,13.26,0,0,0-.39,2c-.09.52-.28,1.49-.45,2.39.49,0,.76-.06,1.24-.06a4,4,0,0,1,3,.88c.73.69,1,1.66,1,3.38,0,3.22-.55,6-1.41,7.22a2.19,2.19,0,0,1-2.06,1,7.89,7.89,0,0,1-3.17-.82,4.84,4.84,0,0,0,0-.75,4.06,4.06,0,0,0-.06-.82,7.81,7.81,0,0,0,3.13,1c.52,0,.92-.33,1.19-1a16.21,16.21,0,0,0,.89-5.84c0-2.23-.63-2.94-2.59-2.94a12.68,12.68,0,0,0-1.51.1,40.91,40.91,0,0,1-4.53,11.43l-1.43-.84A31,31,0,0,0,391,7.39a26.56,26.56,0,0,0-4.22.76Zm13.8-1.93a19.19,19.19,0,0,1,4.39,7.44l-1.35.75a17.75,17.75,0,0,0-4.28-7.54Zm.94-3.57a15.94,15.94,0,0,1,2.17,3.26l-1,.63a16.35,16.35,0,0,0-2.17-3.34ZM403.73,0a17.16,17.16,0,0,1,2.16,3.25l-1.05.61A15.13,15.13,0,0,0,402.7.57Z"/><path class="cls-1" d="M417.19,2.71A8.11,8.11,0,0,0,417,.8h1.7a10,10,0,0,0-.14,1.91V8h5.52v-4A10.24,10.24,0,0,0,424,2.52h1.58a9.71,9.71,0,0,0-.11,1.6V8.29c0,.42,0,.72,0,1.07-.42,0-.9,0-1.3,0H418.6V17h6.25V13a11.75,11.75,0,0,0-.1-1.81h1.59a12.27,12.27,0,0,0-.1,1.87v4.75a11,11,0,0,0,.12,1.76h-1.51V18.33H411.21v1.26h-1.52a10.36,10.36,0,0,0,.13-1.76V13.21a10.89,10.89,0,0,0-.11-1.87h1.6a11,11,0,0,0-.1,1.78V17h6V9.32h-5.25c-.38,0-.86,0-1.3,0,0-.39,0-.71,0-1.07V4.14a15.63,15.63,0,0,0-.1-1.62h1.57a11.25,11.25,0,0,0-.08,1.55V8h5.12Z"/><path class="cls-1" d="M432.37,5a15,15,0,0,0,2.63.19,12.34,12.34,0,0,0,1.26,0,20.43,20.43,0,0,0,.46-3.86l1.66.17a17.45,17.45,0,0,0-.38,2c-.11.67-.17,1-.27,1.6a17.15,17.15,0,0,0,3.78-.72l.1,1.45a4.68,4.68,0,0,0-.59.11,30,30,0,0,1-3.55.5c-.31,1.66-.9,4-1.46,5.94a57,57,0,0,1-2.42,6.41l-1.53-.65A42.53,42.53,0,0,0,436,6.45c-.42,0-.68,0-1.45,0s-.93,0-1.75,0h-.08a2.25,2.25,0,0,0-.36,0Zm9.39,7.62a7.08,7.08,0,0,0-.63.8,2.49,2.49,0,0,0-.53,1.49c0,1.26,1.28,1.93,3.68,1.93a15.63,15.63,0,0,0,4.64-.72l.14,1.58-.92.15a21.16,21.16,0,0,1-3.74.35c-3.44,0-5.22-1.07-5.22-3.15,0-.94.29-1.59,1.4-3ZM448.25,9a20.17,20.17,0,0,0-2.48-.15,18.44,18.44,0,0,0-5.25.71l-.15-1.43a24.06,24.06,0,0,1,5.57-.69c.4,0,.71,0,2.28.06Z"/><path class="cls-1" d="M456.33,3.19a17.55,17.55,0,0,0-.12-2.31h1.55a15,15,0,0,0-.12,2.33v2.9h.5A12.93,12.93,0,0,0,459.88,6V7.37a17.15,17.15,0,0,0-1.74-.08h-.5v5.39a16.4,16.4,0,0,0,1.78-1.07l.08,1.26a36.49,36.49,0,0,1-4.36,2.37c-.34.15-.93.44-1.12.55l-.4-1.47a10.4,10.4,0,0,0,2.71-1v-6h-.9a15.73,15.73,0,0,0-1.78.1V6a10.9,10.9,0,0,0,1.82.11h.86Zm5.9,9.6a13.35,13.35,0,0,1-3.52,2.79,3.94,3.94,0,0,0-.86-.95,10,10,0,0,0,4.87-4.43h-1.28a10.58,10.58,0,0,0-1.89.13V9a10.77,10.77,0,0,0,1.93.12h9A12.5,12.5,0,0,0,472.52,9v1.32a18.22,18.22,0,0,0-2.08-.09H464a10.89,10.89,0,0,1-1,1.54H470a14.87,14.87,0,0,0,2.06-.09,10.17,10.17,0,0,0-.1,1.24A20.94,20.94,0,0,1,471,18.5c-.38.75-.9,1-2.33,1-.48,0-1.17,0-1.83-.08a3.41,3.41,0,0,0-.42-1.37,14.49,14.49,0,0,0,2.5.24c.84,0,1-.17,1.26-1.43a25.3,25.3,0,0,0,.46-4h-1.4A12.29,12.29,0,0,1,467.4,16a22.45,22.45,0,0,1-2.58,2.58,18.37,18.37,0,0,1-1.7,1.18,3.64,3.64,0,0,0-1-1,13.47,13.47,0,0,0,4.12-3.19A10.47,10.47,0,0,0,468,12.79h-2.08A14.62,14.62,0,0,1,460.13,18a3,3,0,0,0-.9-1,11.87,11.87,0,0,0,5.31-4.26Zm.68-5.08a15.41,15.41,0,0,0-1.91.08,17,17,0,0,0,.08-1.89V3.17A14.94,14.94,0,0,0,461,1.32a12.58,12.58,0,0,0,2,.11h5.48a14.27,14.27,0,0,0,2.18-.11,16.23,16.23,0,0,0-.08,2V5.9a13,13,0,0,0,.08,1.87c-.46,0-1.11-.06-1.93-.06Zm-.59-3.66h7V2.52h-7Zm0,2.63h7V5.08h-7Z"/><path class="cls-1" d="M486.28.76a14.72,14.72,0,0,0,3.46,3.8A22.09,22.09,0,0,0,495.5,8a5.38,5.38,0,0,0-.84,1.32,29.3,29.3,0,0,1-5.92-3.86,17.38,17.38,0,0,1-3.24-3.53,19.51,19.51,0,0,1-4.41,4.6,24.19,24.19,0,0,1-4.45,2.73,3.79,3.79,0,0,0-.88-1.2,21.8,21.8,0,0,0,5.71-3.65A15.31,15.31,0,0,0,484.7.76ZM479,19.53a14.29,14.29,0,0,0,.13-2.06V12.83A12.33,12.33,0,0,0,479,10.9a11.67,11.67,0,0,0,1.64.08h9.85a11.6,11.6,0,0,0,1.63-.08,13.22,13.22,0,0,0-.1,1.93v4.64a13.73,13.73,0,0,0,.13,2.06H490.6V18.31H480.46v1.22Zm1.51-2.46H490.6V12.26H480.46Zm.15-9.93a11.27,11.27,0,0,0,1.66.08h6.51a13.07,13.07,0,0,0,1.76-.08V8.57a11.64,11.64,0,0,0-1.76-.09h-6.53a11,11,0,0,0-1.64.09Z"/><path class="cls-1" d="M509.8,10.18a1.72,1.72,0,1,1-1.72-1.72A1.73,1.73,0,0,1,509.8,10.18Z"/><path class="cls-1" d="M522.92,12.16a8.1,8.1,0,0,0-1.72.12V10.9A8.23,8.23,0,0,0,523,11h2.56V9.91a3.49,3.49,0,0,0-.11-.86h1.41a4,4,0,0,0-.08.86V11h2.31a8.58,8.58,0,0,0,1.7-.12v1.36a9.77,9.77,0,0,0-1.7-.1h-2a8.89,8.89,0,0,0,3,2.66,5.29,5.29,0,0,0-.73,1.14,10.82,10.82,0,0,1-2.63-2.9c0,.46.07,1.07.09,1.85v3a12.23,12.23,0,0,0,.1,1.81H525.4a11,11,0,0,0,.13-1.81V15c0-.5,0-1.05.06-1.74a12.49,12.49,0,0,1-4,4.66,4.51,4.51,0,0,0-.79-1.18,14.07,14.07,0,0,0,2.73-2.31,10.23,10.23,0,0,0,1.53-2.24Zm3.74-4.69A10.84,10.84,0,0,0,528.07,4l1.26.4a21.54,21.54,0,0,1-1.43,3h1.24a9.63,9.63,0,0,0,1.7-.1V8.78a9.11,9.11,0,0,0-1.7-.11H522.9a8.94,8.94,0,0,0-1.74.11V7.37a9.72,9.72,0,0,0,1.74.1Zm2.14-4.82a10,10,0,0,0,1.77-.11V4a10.11,10.11,0,0,0-1.79-.11h-5.37a10.06,10.06,0,0,0-1.83.11V2.54a10.42,10.42,0,0,0,1.85.11h2.1V2.08a6.82,6.82,0,0,0-.11-1.47H527a6.6,6.6,0,0,0-.11,1.47v.57ZM524,7.29a11.74,11.74,0,0,0-1.2-2.82l1.11-.42a12.49,12.49,0,0,1,1.2,2.84Zm14.38,0a10,10,0,0,0,1.93-.13V8.65a11.45,11.45,0,0,0-1.85-.1h-.77V17.7a11,11,0,0,0,.12,2.1h-1.62a12,12,0,0,0,.13-2.1V8.55H533v.81a23.15,23.15,0,0,1-1.19,7.54,10.88,10.88,0,0,1-1.56,2.88,4.37,4.37,0,0,0-1.19-.88c2-2.48,2.64-5.42,2.64-12.43,0-2.38,0-3.28-.1-3.89h.25a20.62,20.62,0,0,0,5-1,6.82,6.82,0,0,0,1.93-.91l1.07,1.18a6.27,6.27,0,0,0-.76.29,25.2,25.2,0,0,1-6,1.56V7.33Z"/><path class="cls-1" d="M546.36,2.69a16.53,16.53,0,0,0-1.93.08V1.45a14.37,14.37,0,0,0,2,.1h5.94a13.39,13.39,0,0,0,2-.1V2.77a16.37,16.37,0,0,0-1.91-.08h-.35v3H553a11.58,11.58,0,0,0,2-.11V6.91a11.74,11.74,0,0,0-2-.11h-.79V9.87a13.5,13.5,0,0,0,.08,1.83h1.45a5.8,5.8,0,0,0-.13,1.57v.34h4.56a12.82,12.82,0,0,0,2.31-.13v1.41a16.15,16.15,0,0,0-2.29-.11h-4.58v2.86H560a14.65,14.65,0,0,0,2.33-.11V19a20.51,20.51,0,0,0-2.4-.13H546.34A20.12,20.12,0,0,0,544,19V17.53a19.54,19.54,0,0,0,2.31.11h6V14.78h-4.07a16.46,16.46,0,0,0-2.31.11V13.48a11.89,11.89,0,0,0,2.22.13h4.16v-.34a9,9,0,0,0-.08-1.47h-1.41a11,11,0,0,0,.13-2v-3h-3a9.53,9.53,0,0,1-.79,3.13A7.35,7.35,0,0,1,545,12.6a3.77,3.77,0,0,0-1-1,5.54,5.54,0,0,0,2-2.41,6.83,6.83,0,0,0,.61-2.4h-.75a11.6,11.6,0,0,0-2,.11V5.54a11.88,11.88,0,0,0,2,.11h.84c.06-1.09.08-1.53.08-3Zm1.68,0c0,1.45,0,2-.08,3h3v-3Zm7.69,6.23A11.11,11.11,0,0,0,555.85,7V3.61a11.52,11.52,0,0,0-.12-1.89h1.53a9.72,9.72,0,0,0-.11,1.85V7.1a11.55,11.55,0,0,0,.09,1.82Zm5.73,1.49c0,1.26-.46,1.6-2.14,1.6-.68,0-1.37,0-2.08-.08a4.93,4.93,0,0,0-.36-1.39,12.63,12.63,0,0,0,1.89.19h.76c.48,0,.58-.11.58-.48V2.9a11.6,11.6,0,0,0-.12-2h1.59a12.66,12.66,0,0,0-.12,2.08Z"/><path class="cls-1" d="M570.8,16.65a17.51,17.51,0,0,0-2.24.08V15.08a10.72,10.72,0,0,0,2.29.14h10V5.08h-9.55a16.65,16.65,0,0,0-2.42.11V3.51a12.11,12.11,0,0,0,2.42.14h10.08l1.09,0c0,.53,0,.88,0,1.64V16a14.74,14.74,0,0,0,.1,1.91h-1.68V16.65Z"/><path class="cls-1" d="M592.5,16.44v1.49h-1.62a11.16,11.16,0,0,0,.09-1.57V5a10.92,10.92,0,0,0-.09-1.64,15.91,15.91,0,0,0,1.64.06h11.19a11.58,11.58,0,0,0,1.64-.06A10.2,10.2,0,0,0,605.28,5V16.31c0,.63,0,1.18.07,1.62h-1.6V16.44ZM603.75,4.77H592.5V15.08h11.25Z"/><path class="cls-1" d="M626.68,6.8a13.44,13.44,0,0,0,2.46-.14V8.29a20.25,20.25,0,0,0-2.44-.1H622c-.17,2.94-.55,4.51-1.55,6.11a12.18,12.18,0,0,1-5.21,4.39,4.7,4.7,0,0,0-1.07-1.35,9.64,9.64,0,0,0,5.2-4.32c.68-1.26.91-2.33,1.08-4.83h-5.82a20.45,20.45,0,0,0-2.44.1V6.66a13.63,13.63,0,0,0,2.46.14h5.86c0-.77,0-1.19,0-1.84V3.44a9.4,9.4,0,0,0-.11-1.78h1.77A9.32,9.32,0,0,0,622,3.44L622,5V6.8Z"/><path class="cls-1" d="M648.25,4.77A4.49,4.49,0,0,0,650,4.64l.87.82c-.19.33-.19.33-.47,2.12a13,13,0,0,1-3.8,7.66,16.42,16.42,0,0,1-6.15,3.49,4.34,4.34,0,0,0-1-1.43,13.74,13.74,0,0,0,4.64-2c2.94-2,4.47-4.91,4.87-9.17H637.54V9.24a12.71,12.71,0,0,0,.07,1.55h-1.73A13.46,13.46,0,0,0,636,9.22V6.38a12.47,12.47,0,0,0-.09-1.7,16.32,16.32,0,0,0,1.94.09h4.45V2.65a6.25,6.25,0,0,0-.11-1.35h1.76a8.66,8.66,0,0,0-.1,1.32V4.77Z"/><path class="cls-1" d="M673.05,2.52a4.38,4.38,0,0,0-.92.88,36.18,36.18,0,0,1-4.92,4.22v9a14.27,14.27,0,0,0,.11,2.22h-1.83a10.44,10.44,0,0,0,.13-2.18v-8a32.67,32.67,0,0,1-8.11,3.67,4.68,4.68,0,0,0-.81-1.4,29.61,29.61,0,0,0,10.89-5.44,17.41,17.41,0,0,0,4-4Z"/><path class="cls-1" d="M685.07,2.27a9.38,9.38,0,0,0-.13,1.8c-.17,5.69-.34,7.25-1.13,9.37a12.88,12.88,0,0,1-3.64,5.18,4,4,0,0,0-1.26-1.13,10.36,10.36,0,0,0,3.55-4.83c.65-1.83.95-4.58.95-9a8.56,8.56,0,0,0-.09-1.49Zm5.2-.23a8.47,8.47,0,0,0-.12,1.84L690,16.57a9.83,9.83,0,0,0,3.91-2.44,10.38,10.38,0,0,0,2.47-4.2,5.68,5.68,0,0,0,1.18,1.22,11.87,11.87,0,0,1-4.22,5.39,14.51,14.51,0,0,1-3,1.54l-.68.25a3.63,3.63,0,0,0-.48.23l-.84-1a3.39,3.39,0,0,0,.15-1.42l.12-12.29A8.74,8.74,0,0,0,688.55,2Z"/><path class="cls-1" d="M717.91,18.35a39.1,39.1,0,0,0-6.72-6.49,22.76,22.76,0,0,1-4,3.76,27.07,27.07,0,0,1-4.12,2.52,4.57,4.57,0,0,0-1-1.39,16.79,16.79,0,0,0,4.27-2.41,22.7,22.7,0,0,0,7.49-9.47,1.45,1.45,0,0,1,.11-.25.39.39,0,0,0,.06-.15,3.7,3.7,0,0,1-.5,0l-7,.11a13.39,13.39,0,0,0-2.16.17l0-1.7a10.35,10.35,0,0,0,1.66.1h.54l7.5-.08a4,4,0,0,0,1.34-.17l.89.9a3.68,3.68,0,0,0-.59,1,25.76,25.76,0,0,1-3.47,5.88,52.09,52.09,0,0,1,7,6.3Z"/><path class="cls-1" d="M740.8,5.63l-.57,1.13a15.21,15.21,0,0,1-2,3.3c.84,1.36,1.8,2.27,2.41,2.27.4,0,.69-.8.93-2.57a3.39,3.39,0,0,0,1,.84c-.45,2.19-1,3-2,3s-2.22-1-3.23-2.54a14.32,14.32,0,0,1-3,2.54,4.56,4.56,0,0,0-.93-.88A11.93,11.93,0,0,0,736.87,10a17.22,17.22,0,0,1-1.57-6.06h-8.55c0,6.06-.38,8.08-1.78,10.24a3,3,0,0,0-1.18-.84c1.34-1.93,1.68-3.61,1.68-8.61a17.49,17.49,0,0,0-.11-2c.68.06,1.47.1,2.48.1h7.33L735,1.45a4.25,4.25,0,0,0-.12-.84h1.49a7.52,7.52,0,0,0-.06,1c0,.31,0,.61.06,1.19h3.4a12.39,12.39,0,0,0-2.44-1.59l.87-.72a17,17,0,0,1,2.47,1.58l-.77.73a13,13,0,0,0,2.37-.12V4a18.16,18.16,0,0,0-2.35-.1h-3.43a16.83,16.83,0,0,0,1.18,5,12.1,12.1,0,0,0,1.85-3.8Zm-13.31,9A12,12,0,0,1,725,19.11l-1.13-.8A8.88,8.88,0,0,0,726.33,14Zm7.16-8A12.47,12.47,0,0,0,733,6.49h-4a13.42,13.42,0,0,0-1.64.08V5.33a10.56,10.56,0,0,0,1.64.09h4a10.6,10.6,0,0,0,1.62-.09ZM727.93,9a8.23,8.23,0,0,0-.07-1.18,13.84,13.84,0,0,0,1.43.06h3.38a14.27,14.27,0,0,0,1.45-.06A9.35,9.35,0,0,0,734.06,9V10.9c0,.48,0,.59,0,1.19a13.65,13.65,0,0,0-1.41,0h-3.42a9.91,9.91,0,0,0-1.41.07,7.6,7.6,0,0,0,.07-1.18Zm2.35,8.67c0,.48.29.54,3,.54,2.27,0,3.09-.12,3.38-.48a3.38,3.38,0,0,0,.34-1.8,4.11,4.11,0,0,0,1.28.52c-.29,2.79-.57,2.94-5.46,2.94-3.3,0-3.86-.21-3.86-1.45V15.56a7.77,7.77,0,0,0-.13-1.56h1.51a7.89,7.89,0,0,0-.1,1.43ZM729.08,11h3.82V8.92h-3.82Zm5.67,5.57a15.74,15.74,0,0,0-3.4-2.48l.82-.78a17.7,17.7,0,0,1,3.44,2.35Zm4.72-2.4a23,23,0,0,1,2.86,4l-1.13.67a18.78,18.78,0,0,0-2.82-4.11Z"/><path class="cls-1" d="M762.39,11.86a16.83,16.83,0,0,0,2.37-.12v1.4a20.54,20.54,0,0,0-2.37-.12H757.2a12.37,12.37,0,0,0,2.52,2,20.73,20.73,0,0,0,5.75,2.44,5.68,5.68,0,0,0-.9,1.28,22.84,22.84,0,0,1-5.15-2.46,13,13,0,0,1-3.19-2.81c.07,1.13.09,1.91.09,2.37v1.79a9,9,0,0,0,.14,2.2h-1.59a14.79,14.79,0,0,0,.13-2.2V15.89c0-.44,0-1.59.08-2.37a19.2,19.2,0,0,1-8,5.21,4.37,4.37,0,0,0-.94-1.22,19.13,19.13,0,0,0,8-4.49h-5a20.18,20.18,0,0,0-2.35.12v-1.4a13.35,13.35,0,0,0,2.3.12H755v-.63a6.86,6.86,0,0,0-.11-1.42h1.53a9.64,9.64,0,0,0-.08,1.42v.63Zm-15-8.1a16,16,0,0,1,3.32,1.72l-.76,1a11.3,11.3,0,0,0-3.31-1.79Zm5.23,3.38A30.14,30.14,0,0,1,748,10.37a3.13,3.13,0,0,0-.5.34l-.69-1.24a17,17,0,0,0,5.37-3.42ZM748.91,1a15.55,15.55,0,0,1,3.36,1.82l-.76,1A12.62,12.62,0,0,0,748.11,2Zm10.51,2.12c.87,0,1.45,0,1.85-.06a13.77,13.77,0,0,0-.08,1.72V8c0,.59.06.63,1,.63,1.09,0,1.4-.08,1.49-.44A11.44,11.44,0,0,0,763.81,6a3.91,3.91,0,0,0,1.22.49c-.21,3.23-.36,3.4-3,3.4-1.81,0-2.14-.23-2.14-1.43V4.26h-2.42a7.86,7.86,0,0,1-5.14,6.43,3.42,3.42,0,0,0-.82-1A7.37,7.37,0,0,0,755.25,7a6.81,6.81,0,0,0,1-2.73h-1.17a13,13,0,0,0-2.12.11V3a10.35,10.35,0,0,0,2.14.13h1.3c0-.42,0-.76,0-1.24a7.83,7.83,0,0,0-.08-1.24l1.47,0a6.72,6.72,0,0,0-.09,1c0,.38-.06,1.05-.08,1.47Z"/><path class="cls-1" d="M777.3,12.58c-1.22,2.77-2.46,4-4,4-2,0-3.49-2.19-3.49-5.12a8.71,8.71,0,0,1,2.21-5.8,8.76,8.76,0,0,1,6.78-2.79A8.09,8.09,0,0,1,784.6,5a7,7,0,0,1,2,5.12,7.64,7.64,0,0,1-4.81,7.24,16.34,16.34,0,0,1-3.19,1,3.5,3.5,0,0,0-.73-1.41,12.61,12.61,0,0,0,3.5-1A6.34,6.34,0,0,0,785.13,10a5.53,5.53,0,0,0-3.34-5.27,6,6,0,0,0-2.44-.53A31.55,31.55,0,0,1,777.3,12.58Zm-2.59-7.33a7.26,7.26,0,0,0-3.42,6.26c0,2,.88,3.57,2,3.57.88,0,1.72-1,2.62-3.05a28.71,28.71,0,0,0,1.91-7.77A6.69,6.69,0,0,0,774.71,5.25Z"/><path class="cls-1" d="M792.35,3.23c0-.63,0-1.3-.08-1.93a13.43,13.43,0,0,0,1.51.07h2.1a14.11,14.11,0,0,0,1.6-.07l.65.8a3.88,3.88,0,0,0-.25.5,29,29,0,0,1-2,4.06A10.34,10.34,0,0,1,797,8.48a6.11,6.11,0,0,1,.62,2.71c0,1.53-.65,2.1-2.39,2.1a8.18,8.18,0,0,1-1-.06,3.44,3.44,0,0,0-.26-1.3,6.28,6.28,0,0,0,1.51.19c.68,0,.91-.28.91-1.12,0-1.38-.49-2.48-1.91-4.26a22.4,22.4,0,0,0,2.08-4.24h-2.92V16.8a21.85,21.85,0,0,0,.12,2.75h-1.55a21.9,21.9,0,0,0,.12-2.77Zm11.41,9.45a10.09,10.09,0,0,1-2.21,2.86A14.75,14.75,0,0,1,797.81,18a4.37,4.37,0,0,0-.88-.94,11.14,11.14,0,0,0,3.78-2.25,7.5,7.5,0,0,0,1.72-2.1h-2a12.4,12.4,0,0,1-4,2.84,3.56,3.56,0,0,0-.82-.95,11.27,11.27,0,0,0,3.59-2.2,6.7,6.7,0,0,0,1.68-2.23h-.76a9.69,9.69,0,0,0-2,.11V8.92a14.32,14.32,0,0,0,2.22.13h7.58a13.11,13.11,0,0,0,2.33-.13v1.31a19.28,19.28,0,0,0-2.33-.09h-5.75a10.82,10.82,0,0,1-.86,1.51h6.3a15.81,15.81,0,0,0,2-.08c0,.27-.08.84-.12,1.51a21.64,21.64,0,0,1-.68,5.48c-.29.71-.75,1-1.86,1-.47,0-1.16-.05-1.79-.09a3.22,3.22,0,0,0-.36-1.32,12.23,12.23,0,0,0,2.17.21c.52,0,.71-.19.84-.86a31.41,31.41,0,0,0,.44-4.77h-1.3a11.61,11.61,0,0,1-2.15,3.84,13.64,13.64,0,0,1-3.88,3.11,3.65,3.65,0,0,0-.92-.92,12.16,12.16,0,0,0,4-3,9,9,0,0,0,1.81-3Zm-2.67-5a14.9,14.9,0,0,0-1.91.09,17.38,17.38,0,0,0,.08-1.91V3.09a14.68,14.68,0,0,0-.08-1.83,13.85,13.85,0,0,0,2,.11h5.13a15.88,15.88,0,0,0,2.18-.11,16,16,0,0,0-.08,1.93V5.86a13.59,13.59,0,0,0,.08,1.89c-.57,0-1.09-.07-1.93-.07ZM800.52,4h6.6V2.44h-6.6Zm0,2.64h6.6V5h-6.6Z"/><path class="cls-1" d="M813.52,10.23a18.25,18.25,0,0,0,1-5.51l1.12.19a23.76,23.76,0,0,1-1,5.76Zm2.71,9.57a16.63,16.63,0,0,0,.15-2.42V2.75a13.15,13.15,0,0,0-.15-2.12h1.64a12.66,12.66,0,0,0-.15,2.12V17.47a14.7,14.7,0,0,0,.15,2.33Zm2.92-12a10.93,10.93,0,0,0-.88-3.23l1-.38a17.35,17.35,0,0,1,1,3.21Zm3.15-1.34a16,16,0,0,1-1.89,3.93,7.75,7.75,0,0,0-1.17-.66,14.42,14.42,0,0,0,2.49-6,9.29,9.29,0,0,0,.19-1.64l1.45.3A8.53,8.53,0,0,0,823,3.84c-.11.53-.21.91-.36,1.47h2.71V2.79a14.3,14.3,0,0,0-.15-2.12h1.62a12.58,12.58,0,0,0-.15,2.12V5.31H830a13.54,13.54,0,0,0,2.17-.12V6.63A19.88,19.88,0,0,0,830,6.51h-3.28v4.37h2.86a14.45,14.45,0,0,0,2.12-.13v1.43a14,14,0,0,0-2.15-.13h-2.83v5.52h3.57a17.53,17.53,0,0,0,2.29-.12v1.49a14.59,14.59,0,0,0-2.29-.15h-8.63a14.51,14.51,0,0,0-2.29.15V17.45a17.53,17.53,0,0,0,2.29.12h3.74V12.05h-2.31a14.05,14.05,0,0,0-2.14.13V10.75a13.39,13.39,0,0,0,2,.13h2.42V6.51Z"/><path class="cls-1" d="M839,9.2a13,13,0,0,0-2,.12V7.87A8.81,8.81,0,0,0,839,8h2.35V2.79a11.84,11.84,0,0,0-.13-2.08h1.58a11.46,11.46,0,0,0-.13,2.08V8h2.1a8.78,8.78,0,0,0,2.08-.13V9.3a12.2,12.2,0,0,0-2.06-.1h-2.12v3.13h2.46a12.28,12.28,0,0,0,2.16-.11v1.43a12,12,0,0,0-2.14-.11h-2.48v3.84a14.67,14.67,0,0,0,.15,2.34h-1.62a14.36,14.36,0,0,0,.15-2.31V13.54h-3a11.12,11.12,0,0,0-2.14.13V12.2a11,11,0,0,0,2.16.13h2.94V9.2ZM838,1.83a22.75,22.75,0,0,1,2,4.38l-1.16.53a17.34,17.34,0,0,0-2-4.39Zm9.3.29A26.17,26.17,0,0,1,844.94,7l-1.11-.57a15,15,0,0,0,2.09-4.84Zm2.83.17A12.81,12.81,0,0,0,850,4.58v7.79a15.25,15.25,0,0,0,.1,2.35h-1.55a16.09,16.09,0,0,0,.1-2.35V4.58a14.73,14.73,0,0,0-.1-2.29ZM854.66.9a14.44,14.44,0,0,0-.15,2.54V17.36c0,1.47-.52,1.87-2.39,1.87-.74,0-1.53,0-2.42-.1a5.82,5.82,0,0,0-.37-1.33A18.37,18.37,0,0,0,852,18c1,0,1.18-.06,1.18-.65V3.46A15.15,15.15,0,0,0,853,.9Z"/><path class="cls-1" d="M867.72,8.08H864a14.75,14.75,0,0,0-2.08.13V6.76a13.94,13.94,0,0,0,2.08.13h8.69a14,14,0,0,0,2.08-.13V8.21a14.24,14.24,0,0,0-2.08-.13H869v3.43h4.06a12.91,12.91,0,0,0,2-.13v1.43a10.68,10.68,0,0,0-2-.13H869v4.66a18.79,18.79,0,0,0,3.43.23c1.7,0,3.15-.06,4.91-.21a3.89,3.89,0,0,0-.46,1.47c-1.83.05-2,.05-2.54.05a29.26,29.26,0,0,1-4.6-.17c-3.28-.46-5.33-1.72-6.45-4a14.18,14.18,0,0,1-3.19,4.77,3.94,3.94,0,0,0-1.09-1,11.16,11.16,0,0,0,2.83-3.74A13.19,13.19,0,0,0,863.15,10V9.81l1.47.29c-.07.27-.07.27-.26,1.09-.1.51-.42,1.72-.56,2.23a6.4,6.4,0,0,0,1.66,2.31A7.13,7.13,0,0,0,867.72,17Zm-.31-5.94a6.71,6.71,0,0,0-.13-1.32h1.64a5.24,5.24,0,0,0-.15,1.3v1h6.13c.82,0,1.43,0,2.1-.08a9.91,9.91,0,0,0-.08,1.42V5.82A10.51,10.51,0,0,0,877,7.31h-1.36V4.37H861V7.31H859.6a10.6,10.6,0,0,0,.08-1.49V4.49a9.82,9.82,0,0,0-.08-1.42c.67.06,1.28.08,2.12.08h5.69Z"/><path class="cls-1" d="M881.88,6.63a42.43,42.43,0,0,0,4.64-.54,25.71,25.71,0,0,0,.63-4.45V1.37l1.68.18a12.85,12.85,0,0,0-.4,2c-.08.52-.27,1.49-.44,2.39.48,0,.76-.06,1.24-.06a4,4,0,0,1,3,.88c.74.69,1,1.66,1,3.38,0,3.22-.55,6-1.41,7.22a2.17,2.17,0,0,1-2,1,7.82,7.82,0,0,1-3.17-.82,4.84,4.84,0,0,0,0-.75,3.49,3.49,0,0,0-.07-.82,7.85,7.85,0,0,0,3.13,1c.53,0,.93-.33,1.2-1a16.24,16.24,0,0,0,.88-5.84c0-2.23-.63-2.94-2.58-2.94a12.56,12.56,0,0,0-1.51.1,40.94,40.94,0,0,1-4.54,11.43l-1.43-.84a31,31,0,0,0,4.5-10.46,26.31,26.31,0,0,0-4.22.76ZM895.67,4.7a19.19,19.19,0,0,1,4.39,7.44l-1.34.75a17.87,17.87,0,0,0-4.29-7.54Zm1-3.57a16.31,16.31,0,0,1,2.16,3.26l-1,.63a15.93,15.93,0,0,0-2.16-3.34ZM899,0a16.69,16.69,0,0,1,2.16,3.25l-1,.61A15.13,15.13,0,0,0,898,.57Z"/><path class="cls-1" d="M7.5,39.46a8.7,8.7,0,0,0-.15-1.91h1.7a9.9,9.9,0,0,0-.15,1.91v5.31h5.52v-4a11.9,11.9,0,0,0-.08-1.53h1.58a9.71,9.71,0,0,0-.11,1.6V45c0,.42,0,.72,0,1.07-.42,0-.9,0-1.3,0H8.9v7.69h6.26v-4A10.49,10.49,0,0,0,15.05,48h1.6a12.1,12.1,0,0,0-.11,1.87v4.75a10.93,10.93,0,0,0,.13,1.76H15.16V55.08H1.51v1.26H0a11.4,11.4,0,0,0,.13-1.76V50A10.89,10.89,0,0,0,0,48.09h1.6a9.85,9.85,0,0,0-.11,1.78v3.89h6V46.07H2.25c-.38,0-.86,0-1.3,0,0-.39,0-.71,0-1.07V40.89a13.36,13.36,0,0,0-.11-1.62H2.46a9.71,9.71,0,0,0-.09,1.55v4H7.5Z"/><path class="cls-1" d="M22.8,41.73a15,15,0,0,0,2.63.19,12.34,12.34,0,0,0,1.26-.05A20.43,20.43,0,0,0,27.15,38l1.66.17a17.45,17.45,0,0,0-.38,2c-.11.67-.17,1-.27,1.6a17.27,17.27,0,0,0,3.78-.72L32,42.5a4.68,4.68,0,0,0-.59.11,30,30,0,0,1-3.55.5c-.31,1.66-.9,4-1.47,5.94A55,55,0,0,1,24,55.46l-1.53-.65A42.2,42.2,0,0,0,26.43,43.2c-.42,0-.67,0-1.44,0s-.93,0-1.75,0h-.08a2.25,2.25,0,0,0-.36,0Zm9.39,7.62a6,6,0,0,0-.63.8A2.49,2.49,0,0,0,31,51.64c0,1.26,1.28,1.93,3.68,1.93a15.63,15.63,0,0,0,4.64-.72l.14,1.58-.92.15a21.16,21.16,0,0,1-3.74.35c-3.44,0-5.23-1.07-5.23-3.15,0-.94.3-1.59,1.41-3Zm6.48-3.63a19.9,19.9,0,0,0-2.47-.15,18.44,18.44,0,0,0-5.25.71l-.15-1.43a24.06,24.06,0,0,1,5.57-.69c.39,0,.71,0,2.28.07Z"/><path class="cls-1" d="M46.88,39.94a17.55,17.55,0,0,0-.12-2.31h1.55A15,15,0,0,0,48.19,40v2.9h.5a12.93,12.93,0,0,0,1.74-.08v1.34A17.15,17.15,0,0,0,48.69,44h-.5v5.39A16.4,16.4,0,0,0,50,48.36l.08,1.26A36.49,36.49,0,0,1,45.69,52c-.34.15-.93.44-1.12.55l-.4-1.47a10.4,10.4,0,0,0,2.71-1V44H46a15.73,15.73,0,0,0-1.78.1V42.75a10.9,10.9,0,0,0,1.82.11h.86Zm5.9,9.6a13.35,13.35,0,0,1-3.52,2.79,4,4,0,0,0-.87-.95A10.06,10.06,0,0,0,53.27,47H52a10.5,10.5,0,0,0-1.89.13V45.72a10.77,10.77,0,0,0,1.93.12h9a12.5,12.5,0,0,0,2.08-.12V47A18.22,18.22,0,0,0,61,47H54.57a10.89,10.89,0,0,1-1,1.54h6.95a15,15,0,0,0,2.06-.09,11.6,11.6,0,0,0-.11,1.24,20.64,20.64,0,0,1-.92,5.61c-.38.75-.9,1-2.33,1-.48,0-1.18,0-1.83-.08A3.41,3.41,0,0,0,57,54.76a14.49,14.49,0,0,0,2.5.24c.84,0,1-.17,1.26-1.43a25.3,25.3,0,0,0,.46-4h-1.4A12.58,12.58,0,0,1,58,52.71a22.45,22.45,0,0,1-2.58,2.58,19.87,19.87,0,0,1-1.7,1.18,3.64,3.64,0,0,0-1-1,13.3,13.3,0,0,0,4.11-3.19,10.25,10.25,0,0,0,1.73-2.75H56.46a14.55,14.55,0,0,1-5.78,5.25,3.08,3.08,0,0,0-.9-1,11.87,11.87,0,0,0,5.31-4.26Zm.68-5.08a15.7,15.7,0,0,0-1.92.08,14.66,14.66,0,0,0,.09-1.89V39.92a12.91,12.91,0,0,0-.09-1.85,12.79,12.79,0,0,0,2,.11H59a14.27,14.27,0,0,0,2.18-.11,16.23,16.23,0,0,0-.08,2v2.62a13,13,0,0,0,.08,1.87c-.46,0-1.11-.06-1.93-.06Zm-.59-3.66h7V39.27h-7Zm0,2.63h7v-1.6h-7Z"/><path class="cls-1" d="M77,37.51a14.72,14.72,0,0,0,3.46,3.8,22.09,22.09,0,0,0,5.76,3.44,5.38,5.38,0,0,0-.84,1.32,29.3,29.3,0,0,1-5.92-3.86,17.38,17.38,0,0,1-3.24-3.53,19.32,19.32,0,0,1-4.41,4.6A24.53,24.53,0,0,1,67.31,46a3.79,3.79,0,0,0-.88-1.2,21.8,21.8,0,0,0,5.71-3.65,15.31,15.31,0,0,0,3.23-3.65ZM69.62,56.28a14.29,14.29,0,0,0,.13-2.06V49.58a12.33,12.33,0,0,0-.11-1.93,11.67,11.67,0,0,0,1.64.08h9.85a11.6,11.6,0,0,0,1.63-.08,13.22,13.22,0,0,0-.1,1.93v4.64a13.73,13.73,0,0,0,.13,2.06H81.27V55.06H71.13v1.22Zm1.51-2.46H81.27V49H71.13Zm.15-9.93a11.27,11.27,0,0,0,1.66.08h6.51a13.07,13.07,0,0,0,1.76-.08v1.43a11.64,11.64,0,0,0-1.76-.09H72.92a11,11,0,0,0-1.64.09Z"/><path class="cls-1" d="M100.47,46.93a1.72,1.72,0,1,1-1.72-1.72A1.73,1.73,0,0,1,100.47,46.93Z"/><path class="cls-1" d="M113.6,48.91a8.15,8.15,0,0,0-1.73.12V47.65a8.23,8.23,0,0,0,1.77.12h2.56V46.66a3.49,3.49,0,0,0-.11-.86h1.41a4,4,0,0,0-.08.86v1.11h2.31a8.58,8.58,0,0,0,1.7-.12V49a9.77,9.77,0,0,0-1.7-.1h-2a8.89,8.89,0,0,0,3,2.66,5.29,5.29,0,0,0-.73,1.14,10.82,10.82,0,0,1-2.63-2.9c0,.46.07,1.07.09,1.85v3a12.23,12.23,0,0,0,.1,1.81h-1.45a10.9,10.9,0,0,0,.13-1.81v-3c0-.5,0-1,.06-1.74a12.49,12.49,0,0,1-4,4.66,4.51,4.51,0,0,0-.79-1.18,14,14,0,0,0,2.72-2.31,9.59,9.59,0,0,0,1.54-2.24Zm3.73-4.68a11,11,0,0,0,1.41-3.45l1.26.4a22.27,22.27,0,0,1-1.43,3h1.24a9.46,9.46,0,0,0,1.7-.11v1.41a9.11,9.11,0,0,0-1.7-.11h-6.24a9,9,0,0,0-1.74.11V44.12a9.53,9.53,0,0,0,1.74.11Zm2.14-4.83a9.22,9.22,0,0,0,1.77-.11V40.7a10.11,10.11,0,0,0-1.79-.11h-5.37a10.06,10.06,0,0,0-1.83.11V39.29a9.59,9.59,0,0,0,1.85.11h2.1v-.57a6.82,6.82,0,0,0-.11-1.47h1.54a6.6,6.6,0,0,0-.11,1.47v.57ZM114.67,44a11.74,11.74,0,0,0-1.2-2.82l1.11-.42a12.49,12.49,0,0,1,1.2,2.84Zm14.38,0A10,10,0,0,0,131,44V45.4a11.45,11.45,0,0,0-1.85-.1h-.77v9.15a11,11,0,0,0,.12,2.1h-1.61a13.38,13.38,0,0,0,.12-2.1V45.3h-3.3v.81a23.15,23.15,0,0,1-1.19,7.54,10.88,10.88,0,0,1-1.56,2.88,4.37,4.37,0,0,0-1.19-.88c2-2.48,2.64-5.42,2.64-12.43,0-2.38,0-3.28-.1-3.89h.25a20.62,20.62,0,0,0,5-1,6.82,6.82,0,0,0,1.93-.91l1.07,1.18a6.27,6.27,0,0,0-.76.29,25.17,25.17,0,0,1-6,1.56v3.59Z"/><path class="cls-1" d="M137.15,39.44a16.64,16.64,0,0,0-1.93.08V38.2a14.37,14.37,0,0,0,2,.1h5.94a13.54,13.54,0,0,0,2-.1v1.32a16.48,16.48,0,0,0-1.91-.08H143v3h.78a11.52,11.52,0,0,0,2-.11v1.37a11.68,11.68,0,0,0-2-.11H143v3.07a13.5,13.5,0,0,0,.08,1.83h1.45a6.34,6.34,0,0,0-.12,1.57v.34h4.55a12.82,12.82,0,0,0,2.31-.13v1.41a16.15,16.15,0,0,0-2.29-.11h-4.57v2.86h6.4a14.65,14.65,0,0,0,2.33-.11v1.45a20.33,20.33,0,0,0-2.39-.13H137.13a20.12,20.12,0,0,0-2.35.13V54.28a19.54,19.54,0,0,0,2.31.11h6V51.53H139a16.46,16.46,0,0,0-2.31.11V50.23a12,12,0,0,0,2.23.13h4.15V50a9,9,0,0,0-.08-1.47h-1.41a11,11,0,0,0,.13-1.95V43.55h-3.05a9.53,9.53,0,0,1-.79,3.13,7.42,7.42,0,0,1-2.12,2.67,4,4,0,0,0-1-1,5.47,5.47,0,0,0,2-2.41,6.77,6.77,0,0,0,.61-2.4h-.75a11.6,11.6,0,0,0-2,.11V42.29a12,12,0,0,0,2,.11h.84c.06-1.09.08-1.53.08-3Zm1.68,0c0,1.45,0,2-.08,3h3v-3Zm7.69,6.23a11.11,11.11,0,0,0,.12-1.89V40.36a11.52,11.52,0,0,0-.12-1.89h1.53a9.72,9.72,0,0,0-.11,1.85v3.53a11.55,11.55,0,0,0,.09,1.82Zm5.73,1.5c0,1.25-.46,1.59-2.14,1.59-.67,0-1.37,0-2.08-.08a4.93,4.93,0,0,0-.36-1.39,12.63,12.63,0,0,0,1.89.19h.76c.48,0,.58-.11.58-.48V39.65a11.6,11.6,0,0,0-.12-2h1.6a11.39,11.39,0,0,0-.13,2.08Z"/><path class="cls-1" d="M161.72,53.4a17.87,17.87,0,0,0-2.25.08V51.83a10.78,10.78,0,0,0,2.29.14h10V41.83H162.2a16.41,16.41,0,0,0-2.41.11V40.26a11.93,11.93,0,0,0,2.41.14h10.08l1.09,0c0,.53,0,.88,0,1.64V52.75a14.74,14.74,0,0,0,.1,1.91h-1.68V53.4Z"/><path class="cls-1" d="M183.53,53.19v1.49h-1.62a9.83,9.83,0,0,0,.09-1.57V41.71a9.71,9.71,0,0,0-.09-1.64,15.91,15.91,0,0,0,1.64.06h11.19a11.42,11.42,0,0,0,1.64-.06,11.89,11.89,0,0,0-.06,1.64V53.06c0,.63,0,1.18.06,1.62h-1.59V53.19Zm11.26-11.67H183.53V51.83h11.26Z"/><path class="cls-1" d="M217.84,43.55a13.32,13.32,0,0,0,2.45-.14V45a20.17,20.17,0,0,0-2.43-.1h-4.75c-.16,2.94-.54,4.51-1.55,6.11a12.12,12.12,0,0,1-5.21,4.39,4.67,4.67,0,0,0-1.07-1.35,9.66,9.66,0,0,0,5.21-4.32,10.63,10.63,0,0,0,1.07-4.83h-5.82a20.17,20.17,0,0,0-2.43.1V43.41a13.57,13.57,0,0,0,2.46.14h5.85c0-.77,0-1.19,0-1.84V40.19a10.51,10.51,0,0,0-.1-1.78h1.76a10.63,10.63,0,0,0-.1,1.78l0,1.52v1.84Z"/><path class="cls-1" d="M239.53,41.52a4.53,4.53,0,0,0,1.76-.13l.86.82c-.19.34-.19.34-.46,2.12a13.14,13.14,0,0,1-3.8,7.66,16.5,16.5,0,0,1-6.15,3.49,4.37,4.37,0,0,0-1-1.43,13.65,13.65,0,0,0,4.64-2c2.94-2,4.47-4.91,4.87-9.17H228.82V46c0,.67,0,1.15.06,1.55h-1.72c0-.35.08-1,.08-1.57V43.13a14.47,14.47,0,0,0-.08-1.7,16.14,16.14,0,0,0,1.93.09h4.45V39.4a7,7,0,0,0-.1-1.35h1.76a8.69,8.69,0,0,0-.1,1.33v2.14Z"/><path class="cls-1" d="M264.45,39.27a4.62,4.62,0,0,0-.93.88,36.07,36.07,0,0,1-4.91,4.22v9a13,13,0,0,0,.11,2.22h-1.83a11.2,11.2,0,0,0,.13-2.18v-8a32.84,32.84,0,0,1-8.11,3.67,4.7,4.7,0,0,0-.82-1.4A29.65,29.65,0,0,0,259,42.21a17.62,17.62,0,0,0,4-4Z"/><path class="cls-1" d="M276.58,39a10.83,10.83,0,0,0-.12,1.8c-.17,5.69-.34,7.25-1.14,9.37a12.75,12.75,0,0,1-3.63,5.18,4,4,0,0,0-1.26-1.13A10.37,10.37,0,0,0,274,49.41c.65-1.83.94-4.58.94-9a9.9,9.9,0,0,0-.08-1.49Zm5.21-.23a7.74,7.74,0,0,0-.13,1.84l-.12,12.69a9.72,9.72,0,0,0,3.9-2.44,10.29,10.29,0,0,0,2.48-4.2,5.68,5.68,0,0,0,1.18,1.22,12,12,0,0,1-4.22,5.4,14.84,14.84,0,0,1-3,1.53c-.37.15-.37.15-.67.25a3.63,3.63,0,0,0-.48.23l-.84-1a3.57,3.57,0,0,0,.15-1.42l.12-12.29a8.74,8.74,0,0,0-.08-1.86Z"/><path class="cls-1" d="M309.55,55.1a39.47,39.47,0,0,0-6.72-6.49,22.76,22.76,0,0,1-4,3.76,27.07,27.07,0,0,1-4.12,2.52,4.57,4.57,0,0,0-1-1.39,16.79,16.79,0,0,0,4.27-2.41,22.78,22.78,0,0,0,7.49-9.47,1.45,1.45,0,0,1,.11-.25.39.39,0,0,0,.06-.15,3.79,3.79,0,0,1-.51,0l-7,.11a13.39,13.39,0,0,0-2.16.17l0-1.7a10.27,10.27,0,0,0,1.66.1h.54l7.5-.08a4,4,0,0,0,1.34-.17l.88.9a4.26,4.26,0,0,0-.59,1,25.4,25.4,0,0,1-3.46,5.88,52.09,52.09,0,0,1,7,6.3Z"/><path class="cls-1" d="M332.56,42.38,332,43.51a15.37,15.37,0,0,1-1.95,3.3c.84,1.36,1.8,2.27,2.41,2.27.4,0,.69-.8.93-2.57a3.39,3.39,0,0,0,1.05.84c-.45,2.19-1,3-2,3s-2.22-1-3.23-2.54a14.32,14.32,0,0,1-3,2.54,4.78,4.78,0,0,0-.92-.88,12.18,12.18,0,0,0,3.27-2.7,17.35,17.35,0,0,1-1.57-6.07h-8.55c0,6.07-.38,8.08-1.78,10.24a3,3,0,0,0-1.18-.84c1.34-1.93,1.68-3.61,1.68-8.61a17.49,17.49,0,0,0-.11-2c.68.06,1.47.1,2.48.1h7.33l-.13-1.34a4.25,4.25,0,0,0-.12-.84h1.49a7.52,7.52,0,0,0-.06,1c0,.31,0,.61.06,1.19h3.4A12.39,12.39,0,0,0,329.13,38l.87-.72a17,17,0,0,1,2.47,1.58l-.77.73a13,13,0,0,0,2.37-.12v1.36a18.16,18.16,0,0,0-2.35-.1h-3.43a16.83,16.83,0,0,0,1.18,5,12.1,12.1,0,0,0,1.85-3.8Zm-13.31,9a12,12,0,0,1-2.46,4.52l-1.14-.8a8.82,8.82,0,0,0,2.44-4.28Zm7.15-8a12.21,12.21,0,0,0-1.61-.08h-4a13.32,13.32,0,0,0-1.64.08V42.08a10.56,10.56,0,0,0,1.64.09h4a10.38,10.38,0,0,0,1.61-.09Zm-6.71,2.44a8.23,8.23,0,0,0-.07-1.18,13.45,13.45,0,0,0,1.43.07h3.38a13.87,13.87,0,0,0,1.45-.07,9.35,9.35,0,0,0-.06,1.16v1.91c0,.48,0,.59,0,1.19a13.54,13.54,0,0,0-1.41,0H321a9.91,9.91,0,0,0-1.41.07,7.6,7.6,0,0,0,.07-1.18ZM322,54.43c0,.48.29.55,3,.55,2.27,0,3.09-.13,3.38-.49a3.38,3.38,0,0,0,.34-1.8,4.11,4.11,0,0,0,1.28.52c-.29,2.79-.57,2.94-5.46,2.94-3.3,0-3.86-.21-3.86-1.45V52.31a8.59,8.59,0,0,0-.13-1.56h1.51a7.89,7.89,0,0,0-.1,1.43Zm-1.2-6.66h3.82v-2.1h-3.82Zm5.67,5.57a15.74,15.74,0,0,0-3.4-2.48l.82-.78a17.7,17.7,0,0,1,3.44,2.35Zm4.72-2.4a23,23,0,0,1,2.86,4l-1.13.67a18.78,18.78,0,0,0-2.82-4.11Z"/><path class="cls-1" d="M354.27,48.61a16.83,16.83,0,0,0,2.37-.12v1.4a20.54,20.54,0,0,0-2.37-.12h-5.19a12.37,12.37,0,0,0,2.52,2,20.43,20.43,0,0,0,5.75,2.44,5.68,5.68,0,0,0-.9,1.28,22.84,22.84,0,0,1-5.15-2.46,13,13,0,0,1-3.19-2.81c.07,1.13.09,1.91.09,2.37v1.79a9,9,0,0,0,.14,2.2h-1.59a14.79,14.79,0,0,0,.13-2.2V52.64c0-.44,0-1.59.08-2.37a19.2,19.2,0,0,1-8,5.21,4.37,4.37,0,0,0-.94-1.22A19.13,19.13,0,0,0,346,49.77h-5a20.18,20.18,0,0,0-2.35.12v-1.4a13.35,13.35,0,0,0,2.3.12h5.91V48a6.86,6.86,0,0,0-.11-1.42h1.53a9.64,9.64,0,0,0-.08,1.42v.63Zm-15-8.1a16,16,0,0,1,3.32,1.72l-.76,1a11.3,11.3,0,0,0-3.31-1.79Zm5.23,3.38a30.14,30.14,0,0,1-4.62,3.23,3.13,3.13,0,0,0-.5.34l-.69-1.24A17,17,0,0,0,344,42.8Zm-3.69-6.13a15.55,15.55,0,0,1,3.36,1.82l-.76,1A12.62,12.62,0,0,0,340,38.7Zm10.51,2.12c.87,0,1.45,0,1.85-.06a13.77,13.77,0,0,0-.08,1.72v3.25c0,.59.06.63,1,.63,1.09,0,1.4-.08,1.49-.44a11.44,11.44,0,0,0,.16-2.27,3.91,3.91,0,0,0,1.22.49c-.21,3.23-.36,3.4-3,3.4-1.81,0-2.14-.23-2.14-1.43V41h-2.42a7.86,7.86,0,0,1-5.14,6.43,3.42,3.42,0,0,0-.82-1,7.37,7.37,0,0,0,3.7-2.67,6.81,6.81,0,0,0,1-2.73h-1.17a13,13,0,0,0-2.12.11V39.75a10.35,10.35,0,0,0,2.14.13h1.3c0-.42,0-.76,0-1.24a7.83,7.83,0,0,0-.08-1.24l1.47,0a4.76,4.76,0,0,0-.09,1c0,.38-.06,1.05-.08,1.47Z"/><path class="cls-1" d="M363.42,45.11a18.76,18.76,0,0,0-2.31.12V43.78a13.57,13.57,0,0,0,2.33.13h5.29V41.29h-3.38a17,17,0,0,0-2.27.1V40a13.49,13.49,0,0,0,2.29.13h3.36V39.4a13.53,13.53,0,0,0-.12-2h1.57a10.31,10.31,0,0,0-.13,2v.73h2a14.26,14.26,0,0,0,2.31-.13v1.39a15.6,15.6,0,0,0-2.25-.1h-2v2.62h1.89a20.12,20.12,0,0,0,5.29-5.56l1.24.82c-.25.27-.37.41-.65.75a29.23,29.23,0,0,1-4.07,4h3.44a13.9,13.9,0,0,0,2.25-.13v1.45a19.34,19.34,0,0,0-2.31-.12h-5c-1.19.86-2.14,1.47-3.38,2.22,1.12,0,1.6,0,2.19,0h3.61c1,0,1.55,0,2.29-.08a15.09,15.09,0,0,0-.09,2.31v4.7a13.22,13.22,0,0,0,.11,2.16h-1.45v-1h-8.67v1h-1.47a15.69,15.69,0,0,0,.13-2.16V50.65c0-.44,0-1,0-1.51-1.2.63-2.36,1.13-4.12,1.87a4.34,4.34,0,0,0-.82-1.2,39.69,39.69,0,0,0,9.68-4.7Zm3.36,5.54h8.69V48.42h-8.69Zm0,3.61h8.69V51.78h-8.69Z"/><path class="cls-1" d="M391.93,49.33c-1.22,2.77-2.46,4-4,4-2,0-3.48-2.19-3.48-5.12a8.52,8.52,0,0,1,9-8.59,8.11,8.11,0,0,1,5.78,2.08,7,7,0,0,1,2,5.12,7.64,7.64,0,0,1-4.8,7.24,16.79,16.79,0,0,1-3.19,1,3.52,3.52,0,0,0-.74-1.41,12.69,12.69,0,0,0,3.51-1,6.34,6.34,0,0,0,3.71-5.88,5.53,5.53,0,0,0-3.34-5.27A5.89,5.89,0,0,0,394,41,31.54,31.54,0,0,1,391.93,49.33ZM389.35,42a7.26,7.26,0,0,0-3.42,6.26c0,2,.88,3.57,2,3.57.88,0,1.72-1,2.63-3A29.09,29.09,0,0,0,392.48,41,6.65,6.65,0,0,0,389.35,42Z"/><path class="cls-1" d="M406.71,42.78a17,17,0,0,1,3.4,2.58l-.82,1a14.31,14.31,0,0,0-3.38-2.69ZM410,49.64a23.84,23.84,0,0,1-2.21,5.08c-.56,1-.63,1.12-.71,1.28l-1.2-1.07A17.22,17.22,0,0,0,409,48.78Zm-2.35-12a17.09,17.09,0,0,1,3.19,2.8l-.95,1a14.72,14.72,0,0,0-3.15-2.87Zm10.81,13.57a5.57,5.57,0,0,0,1.91,2.16,10.37,10.37,0,0,0,2.48-1.93l.92.69A16.1,16.1,0,0,1,421.3,54a10.38,10.38,0,0,0,3.85,1.24,4.22,4.22,0,0,0-.63,1.21,11.81,11.81,0,0,1-5-2.33,7.85,7.85,0,0,1-2.27-2.85h-1.85V54.6c1.07-.26,1.58-.38,3.22-.88l.08,1.09c-1.81.54-2.42.69-4.35,1.13-1.15.27-1.53.36-2.05.5l-.38-1.28a15,15,0,0,0,2.27-.31V51.24h-2a10,10,0,0,1-2,5.12,3.11,3.11,0,0,0-1.07-.86c1.54-1.72,2.15-4,2.15-7.83a14.61,14.61,0,0,0-.09-2,14.38,14.38,0,0,0,1.83.08h9.82a10.7,10.7,0,0,0,2-.11V47a12.44,12.44,0,0,0-2-.1h-10.4V48c0,.72,0,1.31-.12,2.25h10.64a9.16,9.16,0,0,0,1.85-.11v1.22a11.15,11.15,0,0,0-1.85-.1ZM421.87,39a16.07,16.07,0,0,0,1.95-.09,13.71,13.71,0,0,0-.08,1.74v2.25a15.2,15.2,0,0,0,.08,1.83c-.58,0-1.11-.07-1.95-.07h-8.23c-.73,0-1.3,0-1.85.07a11.75,11.75,0,0,0,.09-1.79V40.63a12.05,12.05,0,0,0-.09-1.76,16.72,16.72,0,0,0,2,.09h1.63v-.13a6.32,6.32,0,0,0-.1-1.37h1.32a7.3,7.3,0,0,0-.08,1.35V39h2.39v-.15a7.3,7.3,0,0,0-.08-1.35h1.32a6.07,6.07,0,0,0-.11,1.37V39ZM413,39.9v1.41h2.39V39.9Zm0,2.33V43.7h2.39V42.23Zm10.5,6.87a11.18,11.18,0,0,0-1.62-.09h-6.74a10.42,10.42,0,0,0-1.59.09V47.94a11.28,11.28,0,0,0,1.59.09h6.76a11.54,11.54,0,0,0,1.6-.09Zm-7-7.79h2.39V39.9h-2.39Zm0,2.39h2.39V42.23h-2.39ZM420,41.31h2.56V39.9H420Zm0,2.39h2.56V42.23H420Z"/><path class="cls-1" d="M431.84,41c0,5.55-.31,9.26-1,11.76a13.23,13.23,0,0,1-1.43,3.4,5.35,5.35,0,0,0-1.05-1.07,11.75,11.75,0,0,0,1.41-3.61,49,49,0,0,0,.73-10.06,20.65,20.65,0,0,0-.13-3.31,24.19,24.19,0,0,0,2.59.1h11.9a15.57,15.57,0,0,0,2.35-.12v1.36a16.37,16.37,0,0,0-2.33-.1H431.84Zm7.23,10.42c0-.51-.05-.78-.07-1.07h.86a15.11,15.11,0,0,0,2.84-1.24h-7.22a13.87,13.87,0,0,0-2.1.1V47.92a12.56,12.56,0,0,0,2.08.13h7.47a9.47,9.47,0,0,0,1.66-.09l.73.84a24.91,24.91,0,0,1-4.91,2.35v.3h4.93a14.42,14.42,0,0,0,2.19-.13v1.37a15.63,15.63,0,0,0-2.19-.13h-4.93v2.08a1.59,1.59,0,0,1-.5,1.38,3.65,3.65,0,0,1-2,.32c-.61,0-1.45,0-2.35-.13a4.73,4.73,0,0,0-.36-1.26,19.87,19.87,0,0,0,2.94.26c.76,0,1-.13,1-.61v-2h-4.83a15.62,15.62,0,0,0-2.17.13V51.32a13.45,13.45,0,0,0,2.17.13Zm-5.15-9a14.68,14.68,0,0,0-.08-1.76c.69.06,1.26.08,2.29.08h7.2c1,0,1.59,0,2.29-.08a11.8,11.8,0,0,0-.09,1.76V45a12.68,12.68,0,0,0,.09,1.79c-.72-.06-1.37-.08-2.29-.08h-7.2c-.95,0-1.6,0-2.29.08a14.9,14.9,0,0,0,.08-1.76Zm1.28.78h9.05V41.79H435.2Zm0,2.52h9.05V44.23H435.2Z"/><path class="cls-1" d="M457.35,47.27c-.86.44-1.19.59-2.08,1v6.59c0,.77-.23,1.15-.79,1.32a8.06,8.06,0,0,1-1.73.17,5.07,5.07,0,0,1-.71,0,4.09,4.09,0,0,0-.36-1.3,10.16,10.16,0,0,0,1.43.12c.67,0,.86-.1.86-.5V48.76l-1.38.55a8.13,8.13,0,0,0-1.16.46l-.38-1.45a14.06,14.06,0,0,0,2.92-.88v-4.6h-1.09a12.22,12.22,0,0,0-1.55.08V41.54a9.37,9.37,0,0,0,1.57.12H454v-2a13.2,13.2,0,0,0-.14-2.12h1.59a12.66,12.66,0,0,0-.15,2.1v2H456a9.26,9.26,0,0,0,1.44-.08v1.34a9.47,9.47,0,0,0-1.42-.08h-.7v4.09a19.77,19.77,0,0,0,2-.92v-1.3a10.63,10.63,0,0,0,1.87.1h5.5a13.16,13.16,0,0,0,1.7-3.55l1.24.38a16.94,16.94,0,0,1-1.64,3.17h2.29a12.5,12.5,0,0,0,2.06-.1v1.36a12.75,12.75,0,0,0-2-.1h-9.09a14.28,14.28,0,0,0-1.83.08Zm9.89,2.2a8.6,8.6,0,0,1-2.41,3.66,36.89,36.89,0,0,1,4.78,2.41l-1,1.12A29.43,29.43,0,0,0,463.74,54a17.06,17.06,0,0,1-6.95,2.45,3.8,3.8,0,0,0-.7-1.23,14.51,14.51,0,0,0,6.32-1.79A36.51,36.51,0,0,0,458.26,52a16.5,16.5,0,0,0,2.1-2.57H459.1a12.17,12.17,0,0,0-2,.11V48.21a11.12,11.12,0,0,0,2,.11h2a9.81,9.81,0,0,0,1-2.08l1.43.32c-.15.29-.28.5-1,1.76h5.71a11.07,11.07,0,0,0,2-.11v1.37a12.33,12.33,0,0,0-2-.11Zm.42-9.61a11.84,11.84,0,0,0,2.1-.11v1.37a11.07,11.07,0,0,0-2-.11h-7.87a11,11,0,0,0-2,.11V39.75a11.73,11.73,0,0,0,2.07.11h2.94v-.67a8.92,8.92,0,0,0-.12-1.6h1.53a10.85,10.85,0,0,0-.1,1.62v.65Zm-6.93,1.49A16.75,16.75,0,0,1,462,44.14l-1.17.44a13.76,13.76,0,0,0-1.24-2.79Zm1.07,8.12a18,18,0,0,1-1.53,2c1.64.5,2.25.71,3.34,1.13a6.47,6.47,0,0,0,2.27-3.17Z"/><path class="cls-1" d="M480.74,42.65a14,14,0,0,0,1.93-.1,14.81,14.81,0,0,0-.08,1.86V54.6c0,1.26-.36,1.49-2.16,1.49-.38,0-.51,0-1.56-.07a3.83,3.83,0,0,0-.25-1.28,16.66,16.66,0,0,0,1.95.17c.7,0,.84-.08.84-.44V50.92h-5.1a12.87,12.87,0,0,1-1.24,5.4,4.7,4.7,0,0,0-1.19-.88c1.11-2,1.38-4,1.38-10.35,0-.89,0-.89,0-1.62,0,.08-.23.27-.5.63a4.42,4.42,0,0,0-1-.88,12.55,12.55,0,0,0,2.9-4.18,10.38,10.38,0,0,0,.65-1.83l1.34.38c-.1.17-.31.61-.65,1.34h1.89a7.12,7.12,0,0,0,1.2-.06l.61.65a14.47,14.47,0,0,0-.74,1.32c-.34.66-.76,1.39-1,1.81Zm-2.14,0a19.09,19.09,0,0,0,1.43-2.6h-2.58a18.07,18.07,0,0,1-1.56,2.58c.59,0,.72,0,1.43,0Zm-.25,7.18V47.25h-1.89c0,1.13,0,1.55-.08,2.58Zm-1.87-6.07v1.39l0,1h1.89V43.76Zm4.93,0h-2v2.42h2Zm0,3.49h-2v2.58h2Zm5.78-7.9a11.54,11.54,0,0,0-.13-1.84h1.47a12.06,12.06,0,0,0-.12,1.84v2.38h1.78a13.19,13.19,0,0,0,2-.11,17.77,17.77,0,0,0-.08,2V47.1a16.17,16.17,0,0,0,.08,2,16.16,16.16,0,0,0-1.93-.09h-1.82v4.69c1.19-.19,1.51-.26,2.56-.49a26.23,26.23,0,0,0-1.28-2.52l1.05-.44a37.19,37.19,0,0,1,2.43,5.21l-1.24.55c-.29-.95-.4-1.29-.56-1.77a62.8,62.8,0,0,1-6.43,1.28,12.06,12.06,0,0,0-1.36.28l-.28-1.52a26,26,0,0,0,3.89-.37v-4.9h-1.51a17.35,17.35,0,0,0-2,.09,16.48,16.48,0,0,0,.09-2V43.66a16.84,16.84,0,0,0-.09-2,13.54,13.54,0,0,0,2,.11h1.53ZM485,42.9v5h2.19v-5Zm5.84,5v-5h-2.43v5Z"/><path class="cls-1" d="M499.22,45.11a18.76,18.76,0,0,0-2.31.12V43.78a13.57,13.57,0,0,0,2.33.13h5.29V41.29h-3.38a17,17,0,0,0-2.27.1V40a13.41,13.41,0,0,0,2.29.13h3.36V39.4a12.13,12.13,0,0,0-.13-2H506a9.57,9.57,0,0,0-.13,2v.73h1.95a14.09,14.09,0,0,0,2.31-.13v1.39a15.36,15.36,0,0,0-2.24-.1h-2v2.62h1.89A20.27,20.27,0,0,0,513,38.35l1.24.82c-.25.27-.38.41-.65.75a29.23,29.23,0,0,1-4.07,4H513a13.9,13.9,0,0,0,2.25-.13v1.45a19.34,19.34,0,0,0-2.31-.12h-5c-1.19.86-2.14,1.47-3.38,2.22,1.11,0,1.6,0,2.19,0h3.61c1,0,1.55,0,2.28-.08a17,17,0,0,0-.08,2.31v4.7a13.22,13.22,0,0,0,.11,2.16h-1.45v-1h-8.67v1h-1.47a15.91,15.91,0,0,0,.12-2.16V50.65c0-.44,0-1,0-1.51-1.19.63-2.35,1.13-4.11,1.87a4.34,4.34,0,0,0-.82-1.2,39.69,39.69,0,0,0,9.68-4.7Zm3.36,5.54h8.69V48.42h-8.69Zm0,3.61h8.69V51.78h-8.69Z"/><path class="cls-1" d="M519.21,41.16a9.19,9.19,0,0,0,1.67.1h3.64a8.72,8.72,0,0,0,1.68-.1V42.5c-.44,0-.84-.06-1.54-.06h-3.78a12.82,12.82,0,0,0-1.67.08Zm.75-2.9a6.89,6.89,0,0,0,1.51.11h2.73a6.94,6.94,0,0,0,1.51-.11v1.32a11,11,0,0,0-1.51-.08h-2.73a10.63,10.63,0,0,0-1.51.08Zm.06,5.86a8.8,8.8,0,0,0,1.43.08h2.81a8.15,8.15,0,0,0,1.41-.08v1.3a9.25,9.25,0,0,0-1.41-.08h-2.81a8.8,8.8,0,0,0-1.43.08Zm0,2.9a9,9,0,0,0,1.43.08h2.81a8.3,8.3,0,0,0,1.41-.08v1.3a9.25,9.25,0,0,0-1.41-.08h-2.81a9.28,9.28,0,0,0-1.43.08Zm.07,9.42c.06-.65.1-1.32.1-2V51.55a14.61,14.61,0,0,0-.08-1.72,12.34,12.34,0,0,0,1.7.09H524a12.15,12.15,0,0,0,1.54-.07,12.77,12.77,0,0,0-.07,1.64v3a9.15,9.15,0,0,0,.11,1.72h-1.28v-.9h-2.94v1.17Zm1.28-2.26h3V51h-3Zm7.09-4.35a14.9,14.9,0,0,1-1.4,5.08l-1.14-.59a11.2,11.2,0,0,0,1.35-4.74Zm-.54-8.9a24.45,24.45,0,0,1,2.56,1,12.33,12.33,0,0,0,.46-2.25h-2a10.43,10.43,0,0,0-2.1.13V38.41a13.68,13.68,0,0,0,2.12.13h6.42a17.08,17.08,0,0,0,2-.09c0,.3,0,.42-.09,1-.17,3.48-.5,5.69-1,6.63-.31.59-.75.76-1.89.76-.52,0-1.13,0-1.72-.1a3.78,3.78,0,0,0-.31-1.33,9.25,9.25,0,0,0,2,.23c.74,0,.93-.19,1.16-1.09a25.11,25.11,0,0,0,.52-4.87h-3.8a13.16,13.16,0,0,1-.61,2.77c.84.44,1.24.65,2.31,1.32l-.69,1a13.88,13.88,0,0,0-2-1.3A10.07,10.07,0,0,1,527,47.79a3.89,3.89,0,0,0-.93-1,8,8,0,0,0,4-3.85,23.4,23.4,0,0,0-2.77-1.11Zm2.73,13.41c0,.45.21.53,1.28.53.48,0,1.45,0,1.66-.06.71-.09.88-.3,1-1.18a11.82,11.82,0,0,0,.17-1.78,4.06,4.06,0,0,0,1.2.44c-.17,1.91-.4,2.79-.82,3.21s-1,.52-3.15.52-2.58-.23-2.58-1.32V50.94a10,10,0,0,0-.13-1.7h1.49a6.8,6.8,0,0,0-.12,1.62Zm.19-7.72a17.37,17.37,0,0,1,3.38,2.75l-1,.88a11.59,11.59,0,0,0-3.34-2.88Zm5.5,2.67a18.85,18.85,0,0,1,2.56,4.43l-1.11.69a16.9,16.9,0,0,0-2.48-4.56Z"/><path class="cls-1" d="M550.74,44.83H547A14.7,14.7,0,0,0,545,45V43.51a13.79,13.79,0,0,0,2.07.13h8.7a13.79,13.79,0,0,0,2.07-.13V45a14,14,0,0,0-2.07-.13H552v3.43h4.05a13.06,13.06,0,0,0,2-.13v1.43a10.73,10.73,0,0,0-2-.13H552v4.66a18.67,18.67,0,0,0,3.42.23c1.71,0,3.15-.06,4.92-.21a3.77,3.77,0,0,0-.46,1.47c-1.83.05-2,.05-2.54.05a29.26,29.26,0,0,1-4.6-.17c-3.28-.46-5.34-1.72-6.45-4a14.33,14.33,0,0,1-3.19,4.77,3.94,3.94,0,0,0-1.09-1,11.16,11.16,0,0,0,2.83-3.74,13.16,13.16,0,0,0,1.28-4.78v-.21l1.47.29-.25,1.09c-.1.51-.42,1.72-.57,2.23a6.64,6.64,0,0,0,1.66,2.31,7.19,7.19,0,0,0,2.27,1.28Zm-.32-5.94a7.53,7.53,0,0,0-.12-1.32h1.64a5.24,5.24,0,0,0-.15,1.3v1h6.13c.82,0,1.43,0,2.1-.08a9.91,9.91,0,0,0-.08,1.42v1.33a10.51,10.51,0,0,0,.08,1.49h-1.36V41.12H544v2.94h-1.39a9.14,9.14,0,0,0,.09-1.49V41.24a8.47,8.47,0,0,0-.09-1.42c.68.06,1.29.08,2.13.08h5.68Z"/><path class="cls-1" d="M565,43.39c.75,0,1.55-.11,4.64-.55a26.74,26.74,0,0,0,.63-4.45v-.27l1.68.18a12.85,12.85,0,0,0-.4,2c-.09.52-.28,1.49-.44,2.39.48,0,.75-.06,1.24-.06a4,4,0,0,1,3,.88c.73.7,1,1.66,1,3.38,0,3.21-.55,6-1.41,7.23a2.19,2.19,0,0,1-2.06,1,7.89,7.89,0,0,1-3.17-.82,3.89,3.89,0,0,0,.05-.75,3.49,3.49,0,0,0-.07-.82,7.81,7.81,0,0,0,3.13,1c.53,0,.92-.33,1.2-1a16.46,16.46,0,0,0,.88-5.84c0-2.23-.63-2.94-2.58-2.94a12.7,12.7,0,0,0-1.52.1,40.91,40.91,0,0,1-4.53,11.43l-1.43-.84a31.16,31.16,0,0,0,4.5-10.46,26.78,26.78,0,0,0-4.23.76Zm13.79-1.94a19.19,19.19,0,0,1,4.39,7.44l-1.34.75a17.87,17.87,0,0,0-4.29-7.54Zm1-3.57a16.31,16.31,0,0,1,2.16,3.26l-1,.63a16.34,16.34,0,0,0-2.16-3.34Zm2.37-1.13A17.16,17.16,0,0,1,584.29,40l-1,.61a15.13,15.13,0,0,0-2.14-3.29Z"/><path class="cls-1" d="M589.14,42.27a8.64,8.64,0,0,0,1.62.11,49.4,49.4,0,0,0,6.25-.44c-.31-.72-.65-1.56-1-2.5-.24-.55-.36-.84-.55-1.22L597.1,38a6.33,6.33,0,0,0,.61,1.89,17.4,17.4,0,0,0,.75,1.85,24.19,24.19,0,0,0,5.08-1.33l.21,1.49c-.44.09-.61.13-1.24.3-1.26.33-1.51.4-2.83.65L599,43a39.12,39.12,0,0,0,3.78,6.11l-1.41.79a4.24,4.24,0,0,0-1.45-.86,11.58,11.58,0,0,0-3.67-.54,7.4,7.4,0,0,0-4,.88,2.38,2.38,0,0,0-1.14,2,2.12,2.12,0,0,0,.8,1.64,7.13,7.13,0,0,0,4.1,1,13.86,13.86,0,0,0,6-1.34l.23,1.62A17.35,17.35,0,0,1,596,55.33c-2.57,0-4.5-.57-5.46-1.57a3.39,3.39,0,0,1-.95-2.31A3.91,3.91,0,0,1,592,48a8.92,8.92,0,0,1,4.08-.78,10.51,10.51,0,0,1,4.34.75,26.34,26.34,0,0,1-2.52-4.11c-.23-.44-.23-.48-.35-.69a62.47,62.47,0,0,1-7.48.54,4,4,0,0,0-.82.07Z"/><path class="cls-1" d="M610.16,50.8a32.85,32.85,0,0,0,3.69-3.55c0-.84.07-2.16.13-4a22.89,22.89,0,0,0-3.3.29l-.08-1.45a3.53,3.53,0,0,0,.65.05L614,42c.06-1.6.08-2.54.08-2.82a9,9,0,0,0-.06-1l1.66,0a23.11,23.11,0,0,0-.25,3.73,1.43,1.43,0,0,0,.42-.1l.54.65a7.32,7.32,0,0,0-1.07,1.3,3.87,3.87,0,0,1,0,.53c0,.42,0,.42,0,1.4a1.09,1.09,0,0,1,0,.19c0,.17,0,.21,0,.34l0,0a14.88,14.88,0,0,1,2.66-2.46c1.91-1.53,3.49-2.31,4.75-2.31a2.29,2.29,0,0,1,2.46,2.46,13.93,13.93,0,0,1-.49,3.06,23.51,23.51,0,0,0-.9,5c0,1,.44,1.49,1.26,1.49a2.55,2.55,0,0,0,1.79-1.15A8.78,8.78,0,0,0,628,49.83a6.71,6.71,0,0,0,1,1.43,10.78,10.78,0,0,1-1.3,2.08,3.62,3.62,0,0,1-2.9,1.51,2.61,2.61,0,0,1-1.47-.44,2.64,2.64,0,0,1-1-2.4c0-1.07,0-1.3.8-4.89a15.52,15.52,0,0,0,.52-3.15,1.06,1.06,0,0,0-1.15-1.13,5.94,5.94,0,0,0-3.17,1.43,33.42,33.42,0,0,0-4,3.57v4.53a34.27,34.27,0,0,0,.06,3.49h-1.64a17.42,17.42,0,0,0,.15-3.47c0-2.45,0-2.45.06-3.4h0a2.37,2.37,0,0,1-.38.51l-1,1.15-.88,1a4,4,0,0,0-.54.67Z"/><path class="cls-1" d="M633.65,41.73a15,15,0,0,0,2.63.19,12.34,12.34,0,0,0,1.26-.05A20.43,20.43,0,0,0,638,38l1.66.17a17.45,17.45,0,0,0-.38,2c-.11.67-.17,1-.28,1.6a17,17,0,0,0,3.78-.72l.11,1.45a4.68,4.68,0,0,0-.59.11,30,30,0,0,1-3.55.5c-.31,1.66-.9,4-1.47,5.94a55,55,0,0,1-2.41,6.41l-1.53-.65a42.2,42.2,0,0,0,3.94-11.61c-.42,0-.67,0-1.45,0s-.92,0-1.74,0H634a2.25,2.25,0,0,0-.36,0ZM643,49.35a6,6,0,0,0-.63.8,2.49,2.49,0,0,0-.53,1.49c0,1.26,1.28,1.93,3.68,1.93a15.63,15.63,0,0,0,4.64-.72l.14,1.58-.92.15a21.24,21.24,0,0,1-3.74.35c-3.44,0-5.23-1.07-5.23-3.15,0-.94.3-1.59,1.41-3Zm6.48-3.63a19.9,19.9,0,0,0-2.47-.15,18.44,18.44,0,0,0-5.25.71l-.15-1.43a24,24,0,0,1,5.56-.69c.4,0,.72,0,2.29.07Z"/><path class="cls-1" d="M657.73,39.94a17.55,17.55,0,0,0-.12-2.31h1.55A14.81,14.81,0,0,0,659,40v2.9h.51a12.93,12.93,0,0,0,1.74-.08v1.34a17.15,17.15,0,0,0-1.74-.08H659v5.39a15.54,15.54,0,0,0,1.79-1.07l.08,1.26A38.1,38.1,0,0,1,656.54,52c-.34.15-.93.44-1.12.55l-.4-1.47a10.4,10.4,0,0,0,2.71-1V44h-.9a16.06,16.06,0,0,0-1.79.1V42.75a11.09,11.09,0,0,0,1.83.11h.86Zm5.9,9.6a13.24,13.24,0,0,1-3.53,2.79,3.74,3.74,0,0,0-.86-.95A10.11,10.11,0,0,0,664.12,47h-1.29a10.58,10.58,0,0,0-1.89.13V45.72a11,11,0,0,0,1.94.12h9a12.5,12.5,0,0,0,2.08-.12V47a18.22,18.22,0,0,0-2.08-.09h-6.42a10.89,10.89,0,0,1-1,1.54h6.95a15,15,0,0,0,2.06-.09,11.6,11.6,0,0,0-.11,1.24,20.64,20.64,0,0,1-.92,5.61c-.38.75-.9,1-2.33,1-.48,0-1.18,0-1.83-.08a3.58,3.58,0,0,0-.42-1.37,14.49,14.49,0,0,0,2.5.24c.84,0,1-.17,1.26-1.43a25.3,25.3,0,0,0,.46-4h-1.4a12.58,12.58,0,0,1-1.87,3.17,21.76,21.76,0,0,1-2.59,2.58,17.08,17.08,0,0,1-1.7,1.18,3.46,3.46,0,0,0-1-1,13.3,13.3,0,0,0,4.11-3.19,10.25,10.25,0,0,0,1.73-2.75h-2.08a14.55,14.55,0,0,1-5.78,5.25,3.08,3.08,0,0,0-.9-1,11.87,11.87,0,0,0,5.31-4.26Zm.67-5.08a15.62,15.62,0,0,0-1.91.08,14.66,14.66,0,0,0,.09-1.89V39.92a12.91,12.91,0,0,0-.09-1.85,12.79,12.79,0,0,0,2,.11h5.48a14.34,14.34,0,0,0,2.18-.11,16.23,16.23,0,0,0-.08,2v2.62a13,13,0,0,0,.08,1.87c-.46,0-1.11-.06-1.93-.06Zm-.58-3.66h7V39.27h-7Zm0,2.63h7v-1.6h-7Z"/><path class="cls-1" d="M687.8,37.51a14.72,14.72,0,0,0,3.46,3.8A22.2,22.2,0,0,0,697,44.75a6,6,0,0,0-.84,1.32,29.87,29.87,0,0,1-5.92-3.86A17.62,17.62,0,0,1,687,38.68a19.51,19.51,0,0,1-4.41,4.6A24.53,24.53,0,0,1,678.16,46a3.79,3.79,0,0,0-.88-1.2A21.8,21.8,0,0,0,683,41.16a15.31,15.31,0,0,0,3.23-3.65Zm-7.33,18.77a15.88,15.88,0,0,0,.13-2.06V49.58a12.33,12.33,0,0,0-.11-1.93,11.67,11.67,0,0,0,1.64.08H692a11.6,11.6,0,0,0,1.63-.08,13.22,13.22,0,0,0-.1,1.93v4.64a15.35,15.35,0,0,0,.12,2.06h-1.51V55.06H682v1.22ZM682,53.82h10.14V49H682Zm.15-9.93a11.27,11.27,0,0,0,1.66.08h6.51a13.07,13.07,0,0,0,1.76-.08v1.43a11.72,11.72,0,0,0-1.76-.09h-6.53a11,11,0,0,0-1.64.09Z"/><path class="cls-1" d="M704.85,38.7a29.76,29.76,0,0,0-1.62,9.85c0,.74,0,2,.08,2.94,0,.17,0,.21,0,.59v.4l.09,0a18.28,18.28,0,0,1,1.24-3.7c.08-.19.12-.27.17-.42l1,.49a18.19,18.19,0,0,0-1.8,6,2.48,2.48,0,0,0,0,.42l-1.49.15c0-.19,0-.3-.13-.78a33.28,33.28,0,0,1-.58-6.24A35.57,35.57,0,0,1,703,39.75a9.22,9.22,0,0,0,.23-1.32ZM707,42.61a14.67,14.67,0,0,0,3.78.33c.81,0,1.38,0,2.24-.06,0-2,0-2,0-3.57a4.93,4.93,0,0,0-.06-.86h1.57a22.56,22.56,0,0,0-.14,3.3c0,.23,0,.56,0,1A14.67,14.67,0,0,0,718,42l.06,1.43-1.47.29a19.54,19.54,0,0,1-2.22.34c0,2.08.06,3.15.23,5.94a15,15,0,0,1,3.5,2.06c.26.16.3.21.53.35L718,53.88a11.42,11.42,0,0,0-3-2.18.75.75,0,0,1-.21-.13l-.19-.12a3.07,3.07,0,0,1,0,.54,3.59,3.59,0,0,1-.25,1.43c-.51,1.11-1.79,1.76-3.51,1.76-2.43,0-4-1.15-4-3s1.66-3,4-3a6,6,0,0,1,2.33.42c-.06-.44-.14-2.41-.21-5.48-.94,0-1.59.07-2.39.07s-1.64,0-2.37-.07a5.83,5.83,0,0,0-.67,0l-.36,0-.21,0h-.09Zm4,7.87c-1.64,0-2.71.69-2.71,1.74s1,1.7,2.43,1.7a2.91,2.91,0,0,0,2.15-.73,2.47,2.47,0,0,0,.39-1.64c0-.14,0-.63,0-.63A5.49,5.49,0,0,0,711,50.48Z"/><path class="cls-1" d="M725.25,40.36a11.77,11.77,0,0,0-.17-2.2h1.68a14.15,14.15,0,0,0-.12,2v.25l.1,10.65c1.16-.46,1.85-.78,2.75-1.22a26.61,26.61,0,0,0,3.22-1.76l.27,1.3a48,48,0,0,1-8.23,3.92,9.34,9.34,0,0,0-1.24.53l-.46-1.53a18.47,18.47,0,0,0,2.31-.7Zm14.53-2.22a18.55,18.55,0,0,0-.17,2.07,31.65,31.65,0,0,1-.94,5.55A15.34,15.34,0,0,1,737,49.58a13.3,13.3,0,0,0,5.14,5.31,5,5,0,0,0-.94,1.35A15.48,15.48,0,0,1,738,53.32a14.76,14.76,0,0,1-1.77-2.52,16.8,16.8,0,0,1-7.68,5.6,4.17,4.17,0,0,0-.91-1.26,17.86,17.86,0,0,0,4.2-2.08,13.47,13.47,0,0,0,5.74-8.31,23,23,0,0,0,.67-5.56,6.92,6.92,0,0,0-.07-1.1Zm-9.17,1.44a31.85,31.85,0,0,1,4.07,5l-1.26.89a24,24,0,0,0-4-5.13Z"/><path class="cls-1" d="M748.18,40a21.6,21.6,0,0,0-2.46.12V38.6a20.64,20.64,0,0,0,2.46.12h13.61a20.8,20.8,0,0,0,2.43-.12v1.55a21.54,21.54,0,0,0-2.43-.12h-6.6v2.39a46.1,46.1,0,0,1,7.46,4.3L761.83,48a30.92,30.92,0,0,0-4.45-2.94,20,20,0,0,0-2.19-1.16v9.89a15.85,15.85,0,0,0,.15,2.48H753.6a16,16,0,0,0,.15-2.48V40Z"/><path class="cls-1" d="M776.69,49.33c-1.22,2.77-2.45,4-4,4-2,0-3.48-2.19-3.48-5.12a8.52,8.52,0,0,1,9-8.59A8.1,8.1,0,0,1,784,41.73a7,7,0,0,1,2,5.12,7.65,7.65,0,0,1-4.81,7.24,16.56,16.56,0,0,1-3.19,1,3.4,3.4,0,0,0-.74-1.41,12.69,12.69,0,0,0,3.51-1,6.34,6.34,0,0,0,3.71-5.88,5.52,5.52,0,0,0-3.33-5.27,6,6,0,0,0-2.44-.53A31.54,31.54,0,0,1,776.69,49.33ZM774.11,42a7.26,7.26,0,0,0-3.42,6.26c0,2,.88,3.57,2,3.57.88,0,1.72-1,2.63-3A28.71,28.71,0,0,0,777.24,41,6.69,6.69,0,0,0,774.11,42Z"/><path class="cls-1" d="M806,39.27a6.46,6.46,0,0,0-.65,1.28,34.29,34.29,0,0,1-3.08,6.13,53.7,53.7,0,0,1,4.83,4.52L806,52.5a30.14,30.14,0,0,0-4.58-4.56,25,25,0,0,1-8.44,7.31A3.71,3.71,0,0,0,791.85,54a22.46,22.46,0,0,0,8.36-7,39.8,39.8,0,0,0-5.65-3.81l1.05-1.11a58.5,58.5,0,0,1,5.46,3.66,30,30,0,0,0,2.48-4.9,9.53,9.53,0,0,0,.73-2.22Z"/><path class="cls-1" d="M814.21,46a15.6,15.6,0,0,0,2.6.12H829a17.3,17.3,0,0,0,2.54-.1v1.7a25.11,25.11,0,0,0-2.56-.08H816.81a24,24,0,0,0-2.6.08Z"/><path class="cls-1" d="M842.41,39a9.38,9.38,0,0,0-.13,1.8c-.17,5.69-.33,7.25-1.13,9.37a12.78,12.78,0,0,1-3.64,5.18,3.85,3.85,0,0,0-1.26-1.13,10.31,10.31,0,0,0,3.55-4.83c.65-1.83,1-4.58,1-9a9.9,9.9,0,0,0-.08-1.49Zm5.2-.23a8.47,8.47,0,0,0-.12,1.84l-.13,12.69a9.76,9.76,0,0,0,3.91-2.44,10.51,10.51,0,0,0,2.48-4.2,5.64,5.64,0,0,0,1.17,1.22,12,12,0,0,1-4.22,5.4,14.49,14.49,0,0,1-3,1.53l-.67.25a3.26,3.26,0,0,0-.49.23l-.84-1a3.39,3.39,0,0,0,.15-1.42L846,40.63a7.78,7.78,0,0,0-.09-1.86Z"/><path class="cls-1" d="M868.5,43.07a8,8,0,0,0-.08,1.47c-.06,3.51-.65,5.58-2.08,7.39A11.35,11.35,0,0,1,861,55.56a4.19,4.19,0,0,0-1-1.4,9.84,9.84,0,0,0,3.84-1.94c2.23-1.78,3-3.92,3-8a5,5,0,0,0-.09-1.13Zm8.3-2.65a4.4,4.4,0,0,0-.51.84,12.55,12.55,0,0,1-6.13,6,3.91,3.91,0,0,0-1-1.2,9.08,9.08,0,0,0,3.32-2,11.14,11.14,0,0,0,2.35-3.13H862.88a21.3,21.3,0,0,0-2.48.1V39.42a16.1,16.1,0,0,0,2.5.14h11.27c1.41,0,1.41,0,1.79-.14Z"/><path class="cls-1" d="M886.5,55.56a14.51,14.51,0,0,0,.12-2.2v-13a12.93,12.93,0,0,0-.12-2.14h1.8a12.48,12.48,0,0,0-.1,2.18v3.93a54.6,54.6,0,0,1,9.34,4.43l-.9,1.55a44.36,44.36,0,0,0-7.83-4.16,2.31,2.31,0,0,1-.65-.35l0,0A6.35,6.35,0,0,1,888.2,47v6.32a13.51,13.51,0,0,0,.1,2.22ZM894.56,39a16,16,0,0,1,2.16,3.25l-1.05.63a15.42,15.42,0,0,0-2.16-3.34Zm2.37-1.16a18.1,18.1,0,0,1,2.17,3.28l-1.05.61a15.74,15.74,0,0,0-2.15-3.32Z"/><path class="cls-1" d="M4.41,75.54a13.14,13.14,0,0,0-.11,1.87L4.24,90.07a15.86,15.86,0,0,0,6-2.1,12.74,12.74,0,0,0,4.72-5,5.61,5.61,0,0,0,1.15,1.32c-2.87,4.28-6,6.24-11.56,7.33a5.82,5.82,0,0,0-1.22.31l-.84-1a4.11,4.11,0,0,0,.15-1.36l0-12v-.78a9,9,0,0,0-.07-1.13Z"/><path class="cls-1" d="M38.07,91.85a39.1,39.1,0,0,0-6.72-6.49,22.76,22.76,0,0,1-4,3.76,27.48,27.48,0,0,1-4.11,2.52,4.92,4.92,0,0,0-1-1.39,16.91,16.91,0,0,0,4.26-2.41A22.8,22.8,0,0,0,34,78.37c0-.12.06-.15.1-.25a.39.39,0,0,0,.06-.15,3.7,3.7,0,0,1-.5,0l-7,.11a13.43,13.43,0,0,0-2.17.17l0-1.7a10.42,10.42,0,0,0,1.66.1h.55l7.49-.08a4.07,4.07,0,0,0,1.35-.17l.88.9a4,4,0,0,0-.59,1,25.76,25.76,0,0,1-3.46,5.88,52.7,52.7,0,0,1,7,6.3Z"/><path class="cls-1" d="M60.39,91.45a16.7,16.7,0,0,0-4.28-3c-.36-.19-.84-.4-1.41-.63a5.06,5.06,0,0,1,0,.76,3.6,3.6,0,0,1-.53,2.28c-.61.87-1.89,1.33-3.55,1.33a5.5,5.5,0,0,1-3.25-.84,2.75,2.75,0,0,1-1.14-2.21c0-1.38,1.1-2.47,2.94-2.89A9,9,0,0,1,51.41,86a9.86,9.86,0,0,1,1.89.16c0-.06,0-.06,0-.25a1.11,1.11,0,0,1,0-.23c0-.19,0-.63,0-1.24,0-.27,0-.67,0-1.22-.75,0-1.8,0-2.48,0-1.26,0-2.24,0-3.55-.15-.23,0-.39,0-.52,0h-.17l0-1.39a25.75,25.75,0,0,0,4.81.34c.55,0,1.28,0,1.87,0l0-2.88c-.61,0-1,0-1.43,0-1.53,0-3.23-.06-5.12-.21a2.76,2.76,0,0,0-.38,0,1.91,1.91,0,0,0-.3,0l0-1.43a25.43,25.43,0,0,0,5.37.42l1.83,0A15.22,15.22,0,0,0,53,75h1.62a23.83,23.83,0,0,0-.15,3,29.63,29.63,0,0,0,6.22-.86l.1,1.43c-.35,0-.35,0-1.45.16a42.73,42.73,0,0,1-4.87.51c0,1.72,0,1.72,0,2.83a25.25,25.25,0,0,0,5.82-.86l.08,1.45c-.27,0-.48,0-1.21.15-1.45.23-3.11.4-4.66.5,0,1.18,0,1.18.12,3.21a18.47,18.47,0,0,1,5.86,3.07c.34.25.44.31.71.48Zm-7.09-4a7.68,7.68,0,0,0-2.14-.23c-2.08,0-3.45.76-3.45,1.87s1,1.74,2.88,1.74a3,3,0,0,0,2.31-.69,2.76,2.76,0,0,0,.42-1.89Z"/><path class="cls-1" d="M67.26,77.76l.76,0c.29,0,.55,0,1.2-.06,1.17-.08,1.3-.1,3.88-.25l3.3-.21c2.58-.15,2.85-.17,3.55-.19l1.19,0a15.3,15.3,0,0,0,2.5-.23l.13,1.55a8.75,8.75,0,0,0-2.35.29,10.51,10.51,0,0,0-4,2.1,6.42,6.42,0,0,0-2.58,4.85,4.12,4.12,0,0,0,2.94,3.89,10.68,10.68,0,0,0,3.15.67h.21l-.27,1.7-.65-.12a10.65,10.65,0,0,1-4.54-1.62,5.09,5.09,0,0,1-2.33-4.28c0-2.44,1.43-4.75,3.93-6.45a12.91,12.91,0,0,1,2-1.11,43.54,43.54,0,0,1-4.62.46,68.38,68.38,0,0,0-7.24.69Zm14,3.13a16,16,0,0,1,2.16,3.26l-1.07.63a14.46,14.46,0,0,0-2.14-3.34Zm2.37-1.15A17,17,0,0,1,85.85,83l-1.06.59a16.52,16.52,0,0,0-2.14-3.3Z"/><path class="cls-1" d="M94.84,84.23c-1.37,1.13-2,2.1-2,3.09s.61,1.65,1.78,2.05a13.18,13.18,0,0,0,3.85.42,20.1,20.1,0,0,0,6.3-.79l.19,1.72a6.74,6.74,0,0,0-.72.1,33.65,33.65,0,0,1-5.67.49,14.78,14.78,0,0,1-4.83-.66,3.34,3.34,0,0,1-2.39-3.17c0-1.36.8-2.68,2.41-4Zm-2.21-7.66a24.41,24.41,0,0,0,5.59.5,23.25,23.25,0,0,0,5.31-.44l.1,1.38a32.14,32.14,0,0,0-5.29,3.2l-1.07-.87A33.55,33.55,0,0,1,101,78.12a16.63,16.63,0,0,1-3.17.27,40.56,40.56,0,0,1-4.62-.27l-.7-.06Zm10.48,3.63a16.73,16.73,0,0,1,2.14,3.25l-1,.63a16.9,16.9,0,0,0-2.14-3.34ZM105.4,79a16,16,0,0,1,2.18,3.28l-1,.58a17.39,17.39,0,0,0-2.14-3.29Z"/><path class="cls-1" d="M111.51,82.55a9.09,9.09,0,0,0,1.64.11h1.09a10.31,10.31,0,0,0,1.62-.11,14.76,14.76,0,0,0-.11,2.23v4.11a3,3,0,0,0,1,1.34c1.22.91,2.48,1.16,5.46,1.16a59.7,59.7,0,0,0,8.44-.4,5.17,5.17,0,0,0-.48,1.53c-1.87.09-4.83.15-7.31.15-3.48,0-4.74-.21-6.09-1A5.08,5.08,0,0,1,115.06,90a20.61,20.61,0,0,1-2.48,2.16,10.5,10.5,0,0,0-.82.7l-.69-1.39a13.43,13.43,0,0,0,3.38-2.52V83.83h-1.39a7.82,7.82,0,0,0-1.55.11Zm1.26-7.94a28.09,28.09,0,0,1,3.38,3.7l-1.07,1a19.88,19.88,0,0,0-3.28-3.82Zm6,2.63a11.47,11.47,0,0,0-2,.1V76a17.26,17.26,0,0,0,2.18.11h3.68a10.13,10.13,0,0,0-.15-1.89h1.47a10.89,10.89,0,0,0-.15,1.89h4.08a17.5,17.5,0,0,0,2.18-.11v1.3a13.39,13.39,0,0,0-2.1-.1h-4.16V78.9h3.51a11.56,11.56,0,0,0,1.64-.09,10.33,10.33,0,0,0-.09,1.43v4.2a9.21,9.21,0,0,0,.09,1.36,13.64,13.64,0,0,0-1.64-.08h-3.51v1.72H128a12.72,12.72,0,0,0,2.07-.1v1.3a12.12,12.12,0,0,0-2.1-.11h-4.22v.4a11.74,11.74,0,0,0,.15,1.91h-1.47a10.72,10.72,0,0,0,.15-1.91v-.4h-3.7a17.36,17.36,0,0,0-2.1.11v-1.3a13.15,13.15,0,0,0,2.1.1h3.7V85.72h-3.17a14.32,14.32,0,0,0-1.66.08,9.66,9.66,0,0,0,.08-1.36V80.2a10.4,10.4,0,0,0-.08-1.39,11,11,0,0,0,1.64.09h3.19V77.24Zm.36,2.71v1.78h3.53V80Zm0,2.79v1.93h3.53V82.74Zm4.7-1h3.85V80h-3.85Zm0,2.94h3.85V82.74h-3.85Z"/><path class="cls-1" d="M136.35,86a21.05,21.05,0,0,1-1.28,5.92l-1.15-.54a16.84,16.84,0,0,0,1.24-5.69Zm-2.41-2.66a4.72,4.72,0,0,0,.77,0l1,0c.23-.3.65-.91,1.3-1.83a23.28,23.28,0,0,0-3-3.63l.8-1c.46.51.61.67.94,1.07a13.88,13.88,0,0,0,1.79-3.92l1.34.54a9.35,9.35,0,0,0-.78,1.41,25.86,25.86,0,0,1-1.61,2.85c.59.72.69.87,1.24,1.62a20.9,20.9,0,0,0,2.2-4.07l1.26.67c-.08.1-.48.76-1.2,1.93s-2,3.09-2.93,4.24c1.34-.1,2-.16,3.17-.33a13.46,13.46,0,0,0-.78-1.64l1-.42a19.15,19.15,0,0,1,1.56,3.59,17.76,17.76,0,0,0,4.51-2.75,13.79,13.79,0,0,1-2.24-2.92A18.73,18.73,0,0,1,142,81.06a3.11,3.11,0,0,0-.92-.88A14.1,14.1,0,0,0,144.1,77a9.13,9.13,0,0,0,1.49-3l1.32.48c-.12.21-.21.36-.35.65-.28.53-.32.61-.55,1h3.09a9.58,9.58,0,0,0,2-.11l.76.82c-.15.19-.21.3-.51.76a18.54,18.54,0,0,1-3.06,4,16.16,16.16,0,0,0,5.33,2.71,4.11,4.11,0,0,0-.67,1.34,17.61,17.61,0,0,1-5.56-3.19,20.63,20.63,0,0,1-5.17,3.25,3.85,3.85,0,0,0-.48-.8l-.72.32c-.19-.63-.25-.86-.4-1.32-.6.1-.94.14-1.8.25v7a15,15,0,0,0,.12,2.1h-1.49a13.68,13.68,0,0,0,.13-2.12V84.33l-.63,0c-1.68.14-1.68.14-2.77.27Zm6.8,2.31a26.16,26.16,0,0,1,1,4.78l-1.15.32a19.71,19.71,0,0,0-1-4.81Zm3.78,7.62h-1.34a13.6,13.6,0,0,0,.1-2.12V87.21a14.55,14.55,0,0,0-.06-1.83,15,15,0,0,0,1.7.05h4.91c.88,0,1.3,0,1.72-.05,0,.47-.06.82-.06,1.83v3.88a12.5,12.5,0,0,0,.11,2.15h-1.37V92.12h-5.71Zm0-2.27h5.71V86.6h-5.71Zm.78-13.65c-.15.21-.21.27-.32.44a10.22,10.22,0,0,0,2.38,3.11A14.86,14.86,0,0,0,150,77.32Z"/><path class="cls-1" d="M169.89,75.83c-.23.19-.4.34-2.58,2.44-1.05,1-2.19,1.93-4.83,4-.78.58-.93.75-.93,1s.17.53,1.87,1.85a62.59,62.59,0,0,1,6.72,5.73,5.62,5.62,0,0,0,.59.53l-1.32,1.3a20.71,20.71,0,0,0-2.71-2.88c-1.41-1.3-2.25-2-5.32-4.38-1.17-.93-1.51-1.39-1.51-2.1a2,2,0,0,1,.61-1.41,16.27,16.27,0,0,1,1.79-1.43,33.74,33.74,0,0,0,6.15-5.75Z"/><path class="cls-1" d="M180.08,78.48a15,15,0,0,0,2.62.19,12.34,12.34,0,0,0,1.26,0,25.19,25.19,0,0,0,.46-3.71v-.15l1.66.17c-.08.33-.1.44-.17.73,0,.13-.08.55-.21,1.26s-.16,1-.27,1.6a16.94,16.94,0,0,0,3.78-.72l.1,1.45-.21,0-.37.09a28.21,28.21,0,0,1-3.55.5,55.83,55.83,0,0,1-3.89,12.35l-1.53-.65a42.77,42.77,0,0,0,4-11.61c-.42,0-.67,0-1.45,0s-.92,0-1.74,0h-.09a2.09,2.09,0,0,0-.35,0Zm9.38,7.62a7.08,7.08,0,0,0-.63.8,2.54,2.54,0,0,0-.52,1.49c0,1.26,1.28,1.93,3.67,1.93a15.63,15.63,0,0,0,4.64-.72l.15,1.58-.28,0-.65.13a22.91,22.91,0,0,1-3.73.33c-3.45,0-5.23-1.07-5.23-3.15,0-.94.29-1.59,1.41-3ZM196,82.47a20.17,20.17,0,0,0-2.48-.15,18.44,18.44,0,0,0-5.25.71l-.14-1.43a24,24,0,0,1,5.56-.69c.4,0,.71,0,2.29.07ZM192.8,75.1A16,16,0,0,1,195,78.35l-1.05.63a15.25,15.25,0,0,0-2.16-3.32ZM195.17,74a16.47,16.47,0,0,1,2.16,3.26l-1,.61a16.15,16.15,0,0,0-2.15-3.3Z"/><path class="cls-1" d="M203.53,79a8.71,8.71,0,0,0,1.62.11,49.69,49.69,0,0,0,6.26-.44c-.32-.72-.66-1.56-1-2.5-.23-.55-.36-.84-.55-1.22l1.66-.23a6.33,6.33,0,0,0,.61,1.89c.5,1.34.57,1.45.75,1.85a24.48,24.48,0,0,0,5.09-1.33l.21,1.49c-.44.09-.61.13-1.24.3-1.26.33-1.52.4-2.84.65l-.71.15a39.12,39.12,0,0,0,3.78,6.11l-1.41.79a4.24,4.24,0,0,0-1.45-.86,11.54,11.54,0,0,0-3.67-.54,7.4,7.4,0,0,0-4,.88,2.4,2.4,0,0,0-1.14,1.95,2.12,2.12,0,0,0,.8,1.64,7.13,7.13,0,0,0,4.1,1,13.79,13.79,0,0,0,6-1.34l.23,1.62a17.31,17.31,0,0,1-6.17,1.13c-2.56,0-4.5-.57-5.46-1.57A3.39,3.39,0,0,1,204,88.2a3.92,3.92,0,0,1,2.38-3.42,8.85,8.85,0,0,1,4.07-.78,10.56,10.56,0,0,1,4.35.75,24.91,24.91,0,0,1-2.52-4.11c-.23-.44-.23-.48-.36-.69a62.29,62.29,0,0,1-7.47.54,3.92,3.92,0,0,0-.82.07Z"/><path class="cls-1" d="M227.58,76.8a14.59,14.59,0,0,0-.15,2.5,35.59,35.59,0,0,0,.55,6.53c.46,2.14,1.32,3.59,2.12,3.59.37,0,.73-.36,1.05-1a15.7,15.7,0,0,0,1.09-3.59A6.69,6.69,0,0,0,233.48,86c-1,3.68-2,5.08-3.49,5.08-1.17,0-2.27-1.17-3-3.19s-1-4.68-1.13-9.85a8.81,8.81,0,0,0-.07-1.23Zm10.14,1.11a18.4,18.4,0,0,1,3,4.79,19.71,19.71,0,0,1,1.57,5.6l-1.49.61a18.55,18.55,0,0,0-4.36-10.35Z"/><path class="cls-1" d="M253.34,89.88a3.15,3.15,0,1,1-3.15-3.15A3.14,3.14,0,0,1,253.34,89.88Zm-5.1,0a2,2,0,1,0,1.95-2A2,2,0,0,0,248.24,89.88Z"/></g></g></svg>