<svg xmlns="http://www.w3.org/2000/svg" width="746.91" height="219.4" viewBox="0 0 746.91 219.4">
  <defs>
    <style>
      .cls-1 {
        fill: #fff;
      }
    </style>
  </defs>
  <g id="レイヤー_2" data-name="レイヤー 2">
    <g id="レイヤー_1-2" data-name="レイヤー 1">
      <g>
        <path class="cls-1" d="M101.62,5.25a19.39,19.39,0,0,0-2.31.13V3.84a14.94,14.94,0,0,0,2.31.15h5.88V2.2a11.42,11.42,0,0,0-.15-1.91H109a10.79,10.79,0,0,0-.15,1.89V4h6.2a13.19,13.19,0,0,0,2.35-.15V5.38a21.08,21.08,0,0,0-2.35-.13h-5.67A21.8,21.8,0,0,0,118,14.32a5.83,5.83,0,0,0-1,1.36A23.82,23.82,0,0,1,112.7,12a20.06,20.06,0,0,1-3.92-5.9c.06,1.26.08,2,.08,2.73v4.77h2.29a12.78,12.78,0,0,0,2-.11V15a12,12,0,0,0-2.08-.13h-2.25v2a14.87,14.87,0,0,0,.15,2.41h-1.66a15.89,15.89,0,0,0,.15-2.43v-2h-2a12.24,12.24,0,0,0-2.12.13V13.5a13,13,0,0,0,2.08.11h2.06V8.84c0-.78,0-1.58.08-2.71a19.54,19.54,0,0,1-4,6.07,22.06,22.06,0,0,1-4,3.53,3.87,3.87,0,0,0-1-1.24,19.46,19.46,0,0,0,4.91-4.26,23,23,0,0,0,3.42-5Z"/>
        <path class="cls-1" d="M125.24,8.52a12.07,12.07,0,0,0-.06-1.23c.44,0,.9.06,1.49.06h4.56V3.93h-4.94a17.46,17.46,0,0,1-3.48,4.28,3.47,3.47,0,0,0-1-1A13.63,13.63,0,0,0,126,1.55,8.13,8.13,0,0,0,126.52,0l1.5.42c-.09.17-.15.32-.28.57l-.8,1.7h10.42a10.4,10.4,0,0,0,1.89-.11V4a12.08,12.08,0,0,0-1.89-.1h-4.75V7.35h3.8a10.62,10.62,0,0,0,1.87-.11V8.63a15.9,15.9,0,0,0-1.85-.08h-3.82v4.11h5.29a13.17,13.17,0,0,0,2.12-.13v1.52a14,14,0,0,0-2.12-.13h-5.29v3.46a10,10,0,0,0,.15,2H131.1a9,9,0,0,0,.13-2V13.92h-7.58a14.22,14.22,0,0,0-2.12.13V12.53a13.6,13.6,0,0,0,2.12.13h1.59Zm6,4.14V8.55h-4.62v4.11Z"/>
        <path class="cls-1" d="M147,6.55c-.15,6.8-.61,9.28-2.33,12.45a4.45,4.45,0,0,0-1.11-1,11.16,11.16,0,0,0,1.49-3.8,49.59,49.59,0,0,0,.63-9.7,21.86,21.86,0,0,0-.09-2.56C146.31,2,147,2,147.8,2h5.52V1.41A6.44,6.44,0,0,0,153.19,0h1.56a7.35,7.35,0,0,0-.11,1.37V2h5.76a15,15,0,0,0,2.28-.13V3.28a14.5,14.5,0,0,0-2.18-.11H147.06l0,2.25h3.82V5.08a8.82,8.82,0,0,0-.08-1.38h1.45a8.24,8.24,0,0,0-.09,1.36v.36H157V5.08a13,13,0,0,0-.08-1.38h1.45a8.62,8.62,0,0,0-.08,1.4v.32h2.51a10.43,10.43,0,0,0,1.92-.11V6.66a10.43,10.43,0,0,0-1.92-.11H158.3V8.61a11.83,11.83,0,0,0,.06,1.26,11.74,11.74,0,0,0-1.37,0h-4.68a12.92,12.92,0,0,0-1.51,0c0-.4.06-.84.06-1.26V6.55Zm13.06,5.67c-.25.27-.36.38-.71.8a19.45,19.45,0,0,1-3.4,3.06,18.5,18.5,0,0,0,6.84,1.75,5.41,5.41,0,0,0-.63,1.38,19.41,19.41,0,0,1-7.43-2.39,22.83,22.83,0,0,1-7.62,2.48,4.43,4.43,0,0,0-.59-1.31,21.2,21.2,0,0,0,7.05-1.91,13.08,13.08,0,0,1-3.38-3.52,13.89,13.89,0,0,0-2.08.1v-1.3a13.29,13.29,0,0,0,2.12.1h7.63a13.74,13.74,0,0,0,1.45-.06Zm-8.4.34a9.32,9.32,0,0,0,3.09,2.85,14.17,14.17,0,0,0,3.36-2.85Zm.44-3.8H157V6.55h-4.87Z"/>
        <path class="cls-1" d="M167.45,13.54A21.12,21.12,0,0,1,171.67,18l-1.17,1.12a20.8,20.8,0,0,0-4.14-4.58Z"/>
        <path class="cls-1" d="M189,18.06a9.11,9.11,0,0,0,2.52-3.82l1.2.54a12.51,12.51,0,0,1-2.59,4.1Zm8.57-16.63A7.92,7.92,0,0,0,197.46,0h1.62A7.46,7.46,0,0,0,199,1.43v.4h5.17a13.81,13.81,0,0,0,2.16-.13V3c-.67-.06-1.24-.08-2.18-.08h-1.24A19.57,19.57,0,0,1,201.81,5h3.44a13.39,13.39,0,0,0,2.46-.13V6.19a18.26,18.26,0,0,0-2.48-.1H191.67a18.45,18.45,0,0,0-2.48.1V4.85a18.26,18.26,0,0,0,2.52.13h3.15A20.26,20.26,0,0,0,194,2.92h-1.28a19.81,19.81,0,0,0-2.06.08V1.7a12.56,12.56,0,0,0,2.08.13h4.85Zm-3.53,12c-1,0-1.62,0-2.31.06a12.6,12.6,0,0,0,.08-1.72V9.13a14.86,14.86,0,0,0-.08-1.84,23,23,0,0,0,2.31.08h8.59A22.55,22.55,0,0,0,205,7.29a13.52,13.52,0,0,0-.08,1.82v2.63A14,14,0,0,0,205,13.5c-.52,0-1.49-.06-2.25-.06Zm-1-3.59H203.7V8.42H193.07Zm0,2.54H203.7V10.85H193.07Zm2.38,4.83c0,.27.08.37.42.46a12.82,12.82,0,0,0,2.28.12c2.88,0,3.57-.06,3.91-.39a3.83,3.83,0,0,0,.29-2,2.06,2.06,0,0,0,0-.33,3.29,3.29,0,0,0,1.3.48c-.12,3.27-.29,3.38-5.06,3.38-3.86,0-4.43-.17-4.43-1.34V15.87a9.28,9.28,0,0,0-.12-1.59h1.55a7.08,7.08,0,0,0-.12,1.59Zm5-12.24a14.67,14.67,0,0,0,1-2.06h-6.09A17.8,17.8,0,0,1,196.22,5Zm-.94,11.92A11.7,11.7,0,0,0,197,14.4l.9-.65a14.12,14.12,0,0,1,2.67,2.37Zm7.28,1.64a20.75,20.75,0,0,0-3.06-3.82l1.07-.61a25.44,25.44,0,0,1,3.08,3.63Z"/>
        <path class="cls-1" d="M230.26,18.46a11,11,0,0,0-2.06-.15H213.82v1h-1.51a14.62,14.62,0,0,0,.15-2.26V3.19A20.33,20.33,0,0,0,212.37,1a17.2,17.2,0,0,0,2.21.1h13.2A13.25,13.25,0,0,0,229.84,1V2.48a13.67,13.67,0,0,0-2-.13h-14V17.07h14.36a13.83,13.83,0,0,0,2.08-.13Zm-11.92-9.1a17.83,17.83,0,0,1-.49,3.36A8.61,8.61,0,0,1,216,16.36a5.53,5.53,0,0,0-1.08-1,7.13,7.13,0,0,0,1.58-2.75,18.14,18.14,0,0,0,.59-5.33,17.75,17.75,0,0,0-.13-2.5h.34c1,0,3.78-.21,5.29-.4a16.51,16.51,0,0,0,4.7-1.07l.95,1.24a51.43,51.43,0,0,1-9.85,1.36V7c0,.32,0,.53,0,1.14h9.32A8.76,8.76,0,0,0,229.51,8V9.47a11.11,11.11,0,0,0-1.81-.11h-3.32v5.25a6.51,6.51,0,0,0,.13,1.7h-1.6a7.84,7.84,0,0,0,.13-1.7V9.36Z"/>
        <path class="cls-1" d="M236.86,12.51a15.51,15.51,0,0,1-2.27,6.87,4.41,4.41,0,0,0-1.11-1.05,10.65,10.65,0,0,0,1.82-4.41A53.94,53.94,0,0,0,236,4a24.67,24.67,0,0,0-.11-3c.72.06,1.39.08,2.54.08h10.94A19.91,19.91,0,0,0,251.6,1c0,.5-.07,1-.07,1.61V4.09a14.77,14.77,0,0,0,.07,1.54c-.88,0-1.43-.07-2.1-.07H237.26c0,2.82-.09,3.78-.28,5.82h4.16V8.9h-1.3A14.85,14.85,0,0,0,238,9V7.68a10.18,10.18,0,0,0,1.91.11h1.28V7.52A14.18,14.18,0,0,0,241.06,6h1.45a6.64,6.64,0,0,0-.11,1.49v.27h4V7.52a9.48,9.48,0,0,0-.1-1.49h1.49a6.38,6.38,0,0,0-.11,1.49v.27h1.81a10.33,10.33,0,0,0,2-.11V9a14.71,14.71,0,0,0-2-.09h-1.79v2.48h2.46a14.36,14.36,0,0,0,2.27-.13v1.39a18.34,18.34,0,0,0-2.25-.13h-5.65a6.84,6.84,0,0,0,2.08,2.65,12.77,12.77,0,0,0,2.92-2.5l1.18.78a27.68,27.68,0,0,1-3.15,2.41A13.81,13.81,0,0,0,253,18a4,4,0,0,0-.84,1.28A16.1,16.1,0,0,1,245.78,16a8.69,8.69,0,0,1-2.58-3.53h-2.12v4.75c1.76-.34,2.48-.51,4.37-1v1.22c-2.25.61-3.13.8-7.44,1.64l-.73.16-.34-1.44h.19a19,19,0,0,0,2.65-.34v-5Zm13.39-8.06V2.25h-13v2.2ZM246.43,8.9h-4v2.48h4Z"/>
        <path class="cls-1" d="M256.73,10.94A26.26,26.26,0,0,0,261,6.26,7.77,7.77,0,0,1,262,5a2.54,2.54,0,0,1,1.67-.8,2.59,2.59,0,0,1,1.81.94c.21.19.57.59,1.53,1.7a55.43,55.43,0,0,0,6.66,6.47,7,7,0,0,0,1.68,1.09l-.72,1.81a3.31,3.31,0,0,0-.5-.44c-1.3-1-3.69-3.17-5.1-4.56C267.79,10,267,9.09,265,6.72c-.57-.65-.91-.9-1.26-.9S263,6,262,7.33c-1.24,1.66-2.33,3-3.68,4.47-.38.42-.42.46-.61.69Z"/>
        <path class="cls-1" d="M287.53,12.14c-1.22,2.77-2.46,4-4,4-2,0-3.48-2.19-3.48-5.13a8.75,8.75,0,0,1,2.2-5.79,8.76,8.76,0,0,1,6.78-2.79,8.11,8.11,0,0,1,5.78,2.08,7,7,0,0,1,2,5.12,7.64,7.64,0,0,1-4.8,7.24,16.69,16.69,0,0,1-3.2,1,3.27,3.27,0,0,0-.73-1.41,12.33,12.33,0,0,0,3.51-1,6.32,6.32,0,0,0,3.71-5.87A5.53,5.53,0,0,0,292,4.33a5.89,5.89,0,0,0-2.43-.53A31.54,31.54,0,0,1,287.53,12.14ZM285,4.81a7.25,7.25,0,0,0-3.42,6.25c0,2,.88,3.57,2,3.57.88,0,1.72-1,2.63-3a29.09,29.09,0,0,0,1.91-7.77A6.65,6.65,0,0,0,285,4.81Z"/>
        <path class="cls-1" d="M307.42,10.29c-1.37,1.13-2,2.1-2,3.08s.61,1.66,1.79,2.06a13.11,13.11,0,0,0,3.84.42,19.75,19.75,0,0,0,6.3-.8l.19,1.73a6.74,6.74,0,0,0-.72.1,33.61,33.61,0,0,1-5.66.48,14.74,14.74,0,0,1-4.83-.65,3.34,3.34,0,0,1-2.4-3.17c0-1.36.8-2.69,2.42-4Zm-2.21-7.67a23.85,23.85,0,0,0,5.59.51,23.19,23.19,0,0,0,5.31-.44l.11,1.38a32.31,32.31,0,0,0-5.3,3.19l-1.07-.86a33.55,33.55,0,0,1,3.72-2.22,16.56,16.56,0,0,1-3.17.27,40.69,40.69,0,0,1-4.62-.27l-.69-.06Zm10.48,3.64a16.73,16.73,0,0,1,2.14,3.25l-1.05.63a16.19,16.19,0,0,0-2.14-3.34ZM318,5a16.2,16.2,0,0,1,2.18,3.27l-1.05.59A17.45,17.45,0,0,0,317,5.58Z"/>
        <path class="cls-1" d="M335.85,9.34a20.36,20.36,0,0,0,2.5-4.8l1.3.52a29.93,29.93,0,0,1-2.33,4.28h3.11a11.89,11.89,0,0,0,2.31-.14v1.49a16.73,16.73,0,0,0-2.35-.13h-5.84a20.72,20.72,0,0,0,2.77,2.92A19.4,19.4,0,0,0,343,17a5.65,5.65,0,0,0-.9,1.3,22.69,22.69,0,0,1-5.29-3.57,18.58,18.58,0,0,1-3-3.53c.06,1.16.08,1.72.08,2.27v3.76a10.83,10.83,0,0,0,.15,2h-1.6a11,11,0,0,0,.15-2V13.5c0-.63,0-1,.08-2.25a17,17,0,0,1-3.95,4.52A24.1,24.1,0,0,1,325,18.33a5.34,5.34,0,0,0-.95-1.22A21.87,21.87,0,0,0,329.89,13,19.32,19.32,0,0,0,332,10.56h-5.48a19.87,19.87,0,0,0-2.31.13V9.2a15.09,15.09,0,0,0,2.29.14h6.09V3.84h-5a17.93,17.93,0,0,0-2.25.13V2.5a15.71,15.71,0,0,0,2.29.15h5V2a10.12,10.12,0,0,0-.13-1.74h1.56A7.49,7.49,0,0,0,333.92,2v.7h5.35a12.1,12.1,0,0,0,2.33-.15V4a15.47,15.47,0,0,0-2.28-.13h-5.4v5.5Zm-7.64-4.83a26,26,0,0,1,2.08,3.89L329.11,9a19.6,19.6,0,0,0-2-3.95Z"/>
        <path class="cls-1" d="M349.27,2.75a17.45,17.45,0,0,0-.12-2.31h1.55a13.68,13.68,0,0,0-.13,2.33v2.9h.51a11.18,11.18,0,0,0,1.74-.09V6.93a17.19,17.19,0,0,0-1.74-.09h-.51v5.4a19.06,19.06,0,0,0,1.79-1.07l.08,1.26a37.39,37.39,0,0,1-4.37,2.37c-.33.15-.92.44-1.11.55l-.4-1.47a10.4,10.4,0,0,0,2.71-1v-6h-.9a15.92,15.92,0,0,0-1.79.11V5.56a11,11,0,0,0,1.83.11h.86Zm5.9,9.6a13.24,13.24,0,0,1-3.53,2.79,3.74,3.74,0,0,0-.86-1,10,10,0,0,0,4.87-4.43h-1.28a10.58,10.58,0,0,0-1.89.13V8.52a9.88,9.88,0,0,0,1.94.13h9a11.24,11.24,0,0,0,2.08-.13V9.85a16.34,16.34,0,0,0-2.08-.09H357a10.89,10.89,0,0,1-1,1.54h6.95a16.78,16.78,0,0,0,2.06-.09,9.07,9.07,0,0,0-.11,1.24,21.05,21.05,0,0,1-.92,5.61c-.38.75-.9,1-2.33,1-.48,0-1.18,0-1.83-.08a3.58,3.58,0,0,0-.42-1.37,14.37,14.37,0,0,0,2.5.23c.84,0,1-.16,1.26-1.42a25.3,25.3,0,0,0,.46-4h-1.4a12.58,12.58,0,0,1-1.87,3.17,21.76,21.76,0,0,1-2.59,2.58,15.71,15.71,0,0,1-1.7,1.17,3.57,3.57,0,0,0-1-1,13.3,13.3,0,0,0,4.11-3.19,10.21,10.21,0,0,0,1.72-2.75h-2.07a14.53,14.53,0,0,1-5.78,5.24,3,3,0,0,0-.9-1,12,12,0,0,0,5.31-4.26Zm.67-5.09a15.11,15.11,0,0,0-1.91.09A14.66,14.66,0,0,0,354,5.46V2.73a12.83,12.83,0,0,0-.09-1.85A12.71,12.71,0,0,0,356,1h5.48a14.42,14.42,0,0,0,2.18-.11,16.15,16.15,0,0,0-.08,2V5.46a13.06,13.06,0,0,0,.08,1.87c-.46,0-1.11-.07-1.93-.07Zm-.58-3.65h7V2.08h-7Zm0,2.63h7V4.64h-7Z"/>
        <path class="cls-1" d="M375.63,3.59a8.78,8.78,0,0,0,1-2.88l1.68.3a4.16,4.16,0,0,0-.54,1.13c-.28.67-.55,1.24-.65,1.43l.44,0a29.41,29.41,0,0,0,6.61-.8l.13,1.43a6.59,6.59,0,0,0-.84.1,65.18,65.18,0,0,1-6.93.55,15.58,15.58,0,0,1-1.89,3c-.21.25-.63.74-.71.8a2.61,2.61,0,0,0-.28.21,0,0,0,0,1,0,0v0a.15.15,0,0,0,0,.06l1-.73a5.59,5.59,0,0,1,3.17-1,2.55,2.55,0,0,1,2.77,2.33c1.53-.61,2.73-1.05,3.65-1.39a4.48,4.48,0,0,0,1.43-.6L386.33,9a33.49,33.49,0,0,0-5.6,1.84c0,.55,0,.76,0,1.28,0,.28,0,.74,0,1.16s0,.75,0,.94a4.78,4.78,0,0,0,0,.76l-1.43,0a27.79,27.79,0,0,0,.13-3,5.74,5.74,0,0,0,0-.63c-2.86,1.34-3.95,2.33-3.95,3.59s1.3,2,4.26,2a17.43,17.43,0,0,0,5.61-.82l.19,1.62c-.32,0-.42,0-.84.1a31.79,31.79,0,0,1-5.1.42c-3.76,0-5.59-1.07-5.59-3.23,0-1.15.71-2.25,2.14-3.32A16.76,16.76,0,0,1,379.3,10c-.17-1.15-.67-1.65-1.66-1.65A7.87,7.87,0,0,0,373,10.56a7.09,7.09,0,0,0-1.62,1.74l-1.17-1.17a20.8,20.8,0,0,0,4.7-6l.19-.31a2.35,2.35,0,0,1-.4,0l-3.09-.06h-.33l-.46,0,0-1.45a28.93,28.93,0,0,0,4.49.23Z"/>
        <path class="cls-1" d="M408.15,2.2a26,26,0,0,1-5.69,4c.59.42.84.59,1.64,1.2l-.54.55h3.8a11.7,11.7,0,0,0,2.22-.11l.82.91a6.79,6.79,0,0,0-.57.69,17,17,0,0,1-3.67,3.67,5.09,5.09,0,0,0-1.09-.86,14.48,14.48,0,0,0,3.36-3H402v8.14c0,1.35-.5,1.7-2.45,1.7-.65,0-1.77,0-2.48-.1a5.07,5.07,0,0,0-.34-1.45,17.62,17.62,0,0,0,2.94.25c.72,0,.93-.14.93-.61V9.22h-6.51a16.43,16.43,0,0,0-2.16.12V7.83A14.71,14.71,0,0,0,394.3,8h8.39a30.69,30.69,0,0,0-5.79-3.57l.86-.93c1.85,1,2.56,1.37,3.57,2a20.58,20.58,0,0,0,4.47-3h-9.72a14.7,14.7,0,0,0-2.16.1V1.15a11.94,11.94,0,0,0,2.2.13h9.62a14.7,14.7,0,0,0,1.55-.06Z"/>
        <path class="cls-1" d="M423,7.64h-3.72a13.33,13.33,0,0,0-2.07.13V6.32a13.79,13.79,0,0,0,2.07.13H428A14,14,0,0,0,430,6.32V7.77A13,13,0,0,0,428,7.64h-3.68v3.42h4.05a13.27,13.27,0,0,0,2-.12v1.43a10.73,10.73,0,0,0-2-.13h-4.05V16.9a18.67,18.67,0,0,0,3.42.23c1.71,0,3.15-.06,4.92-.21a3.72,3.72,0,0,0-.46,1.47c-1.83,0-2,0-2.54,0a29.87,29.87,0,0,1-4.6-.16c-3.28-.47-5.34-1.73-6.45-3.95a14.33,14.33,0,0,1-3.19,4.77,3.79,3.79,0,0,0-1.09-1,11.16,11.16,0,0,0,2.83-3.74,13.15,13.15,0,0,0,1.28-4.79V9.36l1.47.3-.25,1.09c-.1.5-.42,1.72-.57,2.23a6.64,6.64,0,0,0,1.66,2.31A7.19,7.19,0,0,0,423,16.57Zm-.31-5.94a7.56,7.56,0,0,0-.13-1.32h1.64a5.24,5.24,0,0,0-.15,1.3v1h6.13a19.25,19.25,0,0,0,2.1-.09,10.06,10.06,0,0,0-.08,1.43V5.38a10.69,10.69,0,0,0,.08,1.49H430.9V3.93H416.24V6.87h-1.39a9.14,9.14,0,0,0,.09-1.49V4.05a8.67,8.67,0,0,0-.09-1.43,19.71,19.71,0,0,0,2.13.09h5.69Z"/>
        <path class="cls-1" d="M438.63,5.08a8.53,8.53,0,0,0,1.61.11,49.56,49.56,0,0,0,6.26-.44c-.32-.72-.65-1.56-1-2.5-.23-.55-.36-.84-.55-1.22L446.58.8a7.28,7.28,0,0,0,.61,1.89A18.79,18.79,0,0,0,448,4.54,24.19,24.19,0,0,0,453,3.21l.21,1.49c-.44.09-.61.13-1.24.3-1.26.33-1.51.4-2.83.65l-.72.14a39,39,0,0,0,3.78,6.11l-1.4.8a4.33,4.33,0,0,0-1.45-.86,11.32,11.32,0,0,0-3.68-.54,7.45,7.45,0,0,0-4,.88,2.38,2.38,0,0,0-1.13,2,2.09,2.09,0,0,0,.8,1.64,7.09,7.09,0,0,0,4.09,1,13.79,13.79,0,0,0,6-1.34l.24,1.62a17.59,17.59,0,0,1-6.18,1.13c-2.56,0-4.49-.57-5.46-1.57a3.38,3.38,0,0,1-.94-2.31,3.93,3.93,0,0,1,2.37-3.43,9,9,0,0,1,4.07-.77,10.53,10.53,0,0,1,4.35.75,25.61,25.61,0,0,1-2.52-4.11c-.23-.44-.23-.49-.36-.7a60.12,60.12,0,0,1-7.47.55,4.91,4.91,0,0,0-.82.06Z"/>
        <path class="cls-1" d="M459.52,13.61a32.66,32.66,0,0,0,3.7-3.55c0-.84.06-2.17.12-4a22.83,22.83,0,0,0-3.29.29L460,4.89a4.47,4.47,0,0,0,.65,0l2.75-.16c.07-1.6.09-2.54.09-2.82a9,9,0,0,0-.06-1l1.65,0a26.62,26.62,0,0,0-.25,3.74,1.43,1.43,0,0,0,.42-.1l.55.65a6.9,6.9,0,0,0-1.07,1.3,3.64,3.64,0,0,1,0,.52c0,.42,0,.42-.05,1.41a1.18,1.18,0,0,1,0,.19c0,.17,0,.21,0,.34l0,0a14.71,14.71,0,0,1,2.67-2.46C469.2,5,470.78,4.22,472,4.22a2.28,2.28,0,0,1,2.45,2.46A13.74,13.74,0,0,1,474,9.74a22.78,22.78,0,0,0-.9,5c0,1,.44,1.49,1.26,1.49a2.52,2.52,0,0,0,1.78-1.16,8.36,8.36,0,0,0,1.2-2.41,7.13,7.13,0,0,0,1,1.43,9.88,9.88,0,0,1-1.3,2.08,3.63,3.63,0,0,1-2.9,1.51,2.57,2.57,0,0,1-1.46-.44,2.61,2.61,0,0,1-1-2.4c0-1.07,0-1.3.8-4.89A15.52,15.52,0,0,0,473,6.78a1.06,1.06,0,0,0-1.15-1.13,5.94,5.94,0,0,0-3.17,1.43,33.16,33.16,0,0,0-4.06,3.57v4.53a29.39,29.39,0,0,0,.07,3.49H463a17.42,17.42,0,0,0,.15-3.47c0-2.46,0-2.46.06-3.4h0a2.49,2.49,0,0,1-.38.5l-1,1.16-.88,1a4.16,4.16,0,0,0-.55.67Z"/>
        <path class="cls-1" d="M482.62,3.86h.76c.29,0,.54,0,1.2-.06,2.49-.19,9.21-.57,11.92-.69a14.45,14.45,0,0,0,2.5-.23l.12,1.57a10.27,10.27,0,0,0-2.35.27,10.87,10.87,0,0,0-4,2.12,6.42,6.42,0,0,0-2.58,4.85,4.11,4.11,0,0,0,2.94,3.89,10.68,10.68,0,0,0,3.15.67h.21l-.27,1.7-.66-.12A10.65,10.65,0,0,1,491,16.21a5.11,5.11,0,0,1-2.33-4.28c0-2.44,1.43-4.77,3.92-6.45a14.49,14.49,0,0,1,2-1.11,41.58,41.58,0,0,1-4.62.46,61.08,61.08,0,0,0-7.24.69Z"/>
        <path class="cls-1" d="M507.7,2.86a14.53,14.53,0,0,0-.15,2.49,36.45,36.45,0,0,0,.54,6.53c.47,2.15,1.33,3.59,2.12,3.59.38,0,.74-.35,1.05-1.05a15.06,15.06,0,0,0,1.1-3.59,6.67,6.67,0,0,0,1.23,1.2c-1,3.68-2,5.08-3.48,5.08-1.18,0-2.27-1.17-3-3.19s-1-4.68-1.13-9.85c0-.79,0-.86-.07-1.24ZM517.84,4a18.24,18.24,0,0,1,3,4.79,19.71,19.71,0,0,1,1.57,5.6l-1.49.61a18.56,18.56,0,0,0-4.36-10.35Z"/>
        <path class="cls-1" d="M530.56,2.08a10.24,10.24,0,0,0,2,.12c1.74,0,4.53-.12,6.42-.27a2.08,2.08,0,0,0,1-.23l.88,1.16a3.76,3.76,0,0,0-1.07.88,53.9,53.9,0,0,1-6.91,6l0,.06a10.61,10.61,0,0,1,5.14-1.3c3.51,0,5.75,1.72,5.75,4.41,0,3.28-3,5.44-7.7,5.44-3,0-4.66-1.09-4.66-3,0-1.41,1.3-2.46,3-2.46A4.22,4.22,0,0,1,538,14.55a5.76,5.76,0,0,1,1,2c2.2-.61,3.36-1.89,3.36-3.68,0-2-1.68-3.21-4.51-3.21a13.44,13.44,0,0,0-8.84,3.59L528,11.93a24,24,0,0,0,2.94-2.15c2.25-1.78,5.57-4.7,7-6.13l.3-.29.08-.08.09-.09,0,0-.18,0c-.68.13-3.2.27-6.39.38a10.77,10.77,0,0,0-1.13.1Zm4,12c-1,0-1.7.5-1.7,1.3a1.44,1.44,0,0,0,.84,1.28,5.44,5.44,0,0,0,2.35.48,7.23,7.23,0,0,0,1.53-.15C537.07,15,536,14,534.51,14Z"/>
        <path class="cls-1" d="M551.75,2.18a9.5,9.5,0,0,0-.12-1.93h1.57a11.32,11.32,0,0,0-.12,1.93v.59h3.46a9.34,9.34,0,0,0,1.74-.12V4.07A9.45,9.45,0,0,0,556.54,4h-3.46V7.37c2-.34,2.66-.48,5.31-1.09V7.41C555.51,8.1,553.16,8.59,551,9a10.81,10.81,0,0,0-1.62.33l-.23-1.45a17.19,17.19,0,0,0,2.6-.27Zm11.09,8a17.55,17.55,0,0,0,2.27-.1,18.29,18.29,0,0,0-.09,2.31v4.78a13.76,13.76,0,0,0,.13,2.1h-1.43v-1H553.54v1h-1.41a12.9,12.9,0,0,0,.13-2.1V12.35a19.74,19.74,0,0,0-.09-2.31,17.31,17.31,0,0,0,2.25.1h2.52a8.71,8.71,0,0,0,.86-1.93l1.43.36a14,14,0,0,1-.86,1.57Zm-9.3,3.38h10.18V11.25H553.54Zm0,3.59h10.18v-2.5H553.54Zm7.12-10.54c0,.63.21.69,2.5.69,1.84,0,2.45-.08,2.7-.35s.42-1.16.53-2.84a3.07,3.07,0,0,0,1.24.55c-.21,2.31-.46,3.11-1.07,3.48s-1.28.36-3.78.36c-2.88,0-3.45-.25-3.45-1.47V2.1a12.2,12.2,0,0,0-.12-1.85h1.57a8.58,8.58,0,0,0-.12,1.83V3.36a21.64,21.64,0,0,0,2.47-.82,13.78,13.78,0,0,0,3.3-1.6l.9,1.14c-1,.42-1,.42-2.16.92a32.76,32.76,0,0,1-4.51,1.51Z"/>
        <path class="cls-1" d="M574.6,2.39a13.16,13.16,0,0,0-.1-2.18H576a12.93,12.93,0,0,0-.11,2.16V4.43h.82A7.93,7.93,0,0,0,578,4.35V5.63a10.52,10.52,0,0,0-1.32-.07h-.76a11.78,11.78,0,0,0,2,3.43,8.18,8.18,0,0,0-.74,1.13,14.31,14.31,0,0,1-1.36-2.94c.06,1.76.08,2.69.08,3.42V17A16.08,16.08,0,0,0,576,19.4h-1.51A18.73,18.73,0,0,0,574.6,17V11a17.63,17.63,0,0,1,.07-1.84c0-.13,0-.51.06-1,0-.17,0-.42,0-.78a17.42,17.42,0,0,1-1.34,4.05A17.52,17.52,0,0,1,572,13.79a5.32,5.32,0,0,0-.8-1.3,12.25,12.25,0,0,0,2-3.31,21.56,21.56,0,0,0,1.17-3.62H573.3a8.24,8.24,0,0,0-1.47.09V4.35a9,9,0,0,0,1.47.08h1.3Zm5.48,1.91a11.06,11.06,0,0,0-1.83.11V3.09a11.53,11.53,0,0,0,1.85.1h1.12A10.32,10.32,0,0,0,579.85.88L581,.4a13.28,13.28,0,0,1,1.52,2.79h2.43A13.45,13.45,0,0,0,586.34.36l1.24.44c-.34.67-1,1.89-1.35,2.39h1.85A13.06,13.06,0,0,0,590,3.07V4.43a12.72,12.72,0,0,0-1.91-.13h-3.82V6.11h3.17A10.66,10.66,0,0,0,589.34,6V7.37a12.21,12.21,0,0,0-1.89-.11h-3.19V9.15h4.12A13.16,13.16,0,0,0,590.29,9v1.36a13.25,13.25,0,0,0-1.89-.12h-4a11.4,11.4,0,0,0,1.72,3.15,11.47,11.47,0,0,0,2.29-2.71l1.07.75a16.46,16.46,0,0,1-2.63,2.86,11.91,11.91,0,0,0,4,2.94,5.24,5.24,0,0,0-.88,1.22,15,15,0,0,1-3.09-2.42,13.42,13.42,0,0,1-2.77-4.28,17,17,0,0,1,.17,2.08V17.8c0,1.14-.4,1.43-2,1.43a17,17,0,0,1-1.73-.08,3.27,3.27,0,0,0-.37-1.32,13.69,13.69,0,0,0,2.07.18c.61,0,.74-.08.74-.46v-3a28.26,28.26,0,0,1-4.45,2.71,8.52,8.52,0,0,0-.95.57l-.6-1.39a21.91,21.91,0,0,0,6-3.19v-3h-3.28a11,11,0,0,0-1.8.1V9.07a14.89,14.89,0,0,0,1.83.08H583V7.26h-2.33a10.91,10.91,0,0,0-1.83.11V6a9.58,9.58,0,0,0,1.79.11H583V4.3Zm-.78,6.45a18.78,18.78,0,0,1,2,2.54l-1,.69a12.88,12.88,0,0,0-2-2.58Z"/>
        <path class="cls-1" d="M598.86,1.6A29.34,29.34,0,0,0,598,5a31,31,0,0,0-.63,6.57c0,1.63,0,2.87.13,4a19.29,19.29,0,0,1,1.36-4.1l1,.48a18.43,18.43,0,0,0-1.7,5.78V18l-1.51.13c0-.34-.06-.44-.13-.84a30.82,30.82,0,0,1-.54-5.94A34.94,34.94,0,0,1,596.9,3a11.36,11.36,0,0,0,.3-1.68ZM604.21,10a4.85,4.85,0,0,0-1.57,3.08c0,1.56,1.32,2.31,4,2.31a13.91,13.91,0,0,0,4.83-.73l.21,1.61c-.28,0-.32.05-.74.11a22,22,0,0,1-4.3.42c-2.4,0-3.91-.51-4.81-1.6a3,3,0,0,1-.63-1.93,5.76,5.76,0,0,1,1.83-3.9Zm-2.67-6.22a14.35,14.35,0,0,0,3.57.32,22.46,22.46,0,0,0,5.63-.57l.1,1.49-1.44.19a35.2,35.2,0,0,1-4.52.27,27.5,27.5,0,0,1-3.36-.21Z"/>
        <path class="cls-1" d="M621.26,1.51a30,30,0,0,0-1.61,9.85c0,.73,0,2,.08,2.94,0,.17,0,.21,0,.59v.4l.09,0a17.68,17.68,0,0,1,1.24-3.7,2.89,2.89,0,0,0,.16-.42l1,.48a18.06,18.06,0,0,0-1.8,6,2.48,2.48,0,0,0,0,.42L619,18.2c0-.19,0-.29-.13-.77a33.36,33.36,0,0,1-.59-6.24,35.58,35.58,0,0,1,1.1-8.63c.18-.92.2-1,.23-1.32Zm2.12,3.91a14.72,14.72,0,0,0,3.78.33c.82,0,1.39,0,2.25-.06,0-2,0-2,0-3.57a4.85,4.85,0,0,0-.06-.86h1.57a22,22,0,0,0-.15,3.3c0,.23,0,.56,0,1a14.29,14.29,0,0,0,3.64-.77l.06,1.43L633,6.53a19.81,19.81,0,0,1-2.23.34c0,2.07.07,3.15.24,5.94a15,15,0,0,1,3.5,2.06c.25.16.3.21.53.35l-.65,1.47a11.42,11.42,0,0,0-3-2.18.93.93,0,0,1-.22-.13l-.18-.12a3.07,3.07,0,0,1,0,.54,3.77,3.77,0,0,1-.25,1.43C630.29,17.34,629,18,627.29,18c-2.44,0-4-1.15-4-3s1.66-3,4-3a6,6,0,0,1,2.33.42c-.06-.44-.15-2.41-.21-5.48-.94,0-1.6.06-2.39.06S625.4,7,624.67,7a5.85,5.85,0,0,0-.68,0l-.35,0-.21,0h-.09Zm4,7.87c-1.64,0-2.71.69-2.71,1.74s1,1.7,2.43,1.7a2.87,2.87,0,0,0,2.14-.73,2.43,2.43,0,0,0,.4-1.64c0-.15,0-.63,0-.63A5.52,5.52,0,0,0,627.42,13.29Z"/>
        <path class="cls-1" d="M640.21,13.54A21.64,21.64,0,0,1,644.43,18l-1.18,1.12a20.56,20.56,0,0,0-4.14-4.58Z"/>
        <path class="cls-1" d="M2.25,56.21A17.87,17.87,0,0,0,0,56.29V54.63a10,10,0,0,0,2.29.15h10V44.64H2.73a16.65,16.65,0,0,0-2.42.11V43.07a12.11,12.11,0,0,0,2.42.14H12.81l1.09,0c0,.53,0,.88,0,1.64V55.56a14.85,14.85,0,0,0,.1,1.91H12.28V56.21Z"/>
        <path class="cls-1" d="M23.94,56v1.49H22.32a9.83,9.83,0,0,0,.09-1.57V44.51a9.65,9.65,0,0,0-.09-1.63,15.91,15.91,0,0,0,1.64.06H35.15a11.5,11.5,0,0,0,1.64-.06,11.8,11.8,0,0,0-.06,1.63V55.87c0,.63,0,1.18.06,1.62h-1.6V56ZM35.19,44.33H23.94v10.3H35.19Z"/>
        <path class="cls-1" d="M58.13,46.36a12.39,12.39,0,0,0,2.45-.15v1.64a20.17,20.17,0,0,0-2.43-.1H53.4c-.17,2.94-.54,4.51-1.55,6.11a12.18,12.18,0,0,1-5.21,4.39,4.57,4.57,0,0,0-1.07-1.35,9.66,9.66,0,0,0,5.21-4.32,10.63,10.63,0,0,0,1.07-4.83H46a20.17,20.17,0,0,0-2.43.1V46.21a12.45,12.45,0,0,0,2.45.15h5.86c0-.78,0-1.19,0-1.85V43a10.51,10.51,0,0,0-.1-1.78h1.76a10.55,10.55,0,0,0-.1,1.78l0,1.51v1.85Z"/>
        <path class="cls-1" d="M79.69,44.33a4.59,4.59,0,0,0,1.77-.13l.86.82c-.19.33-.19.33-.46,2.12a13.14,13.14,0,0,1-3.8,7.66,16.55,16.55,0,0,1-6.16,3.49,4.34,4.34,0,0,0-1-1.43,13.94,13.94,0,0,0,4.64-2c2.94-2,4.47-4.91,4.87-9.17H69V48.8a15.14,15.14,0,0,0,.07,1.55H67.33c0-.36.08-1,.08-1.57V45.94a14.47,14.47,0,0,0-.08-1.7,18.55,18.55,0,0,0,1.93.09h4.45V42.2a6.16,6.16,0,0,0-.11-1.34h1.77a7.49,7.49,0,0,0-.11,1.32v2.15Z"/>
        <path class="cls-1" d="M104.49,42.08a4.63,4.63,0,0,0-.92.88,36.69,36.69,0,0,1-4.91,4.22v8.94a14.7,14.7,0,0,0,.1,2.23H96.93a10.5,10.5,0,0,0,.13-2.18v-8A32.76,32.76,0,0,1,89,51.86a4.92,4.92,0,0,0-.82-1.4A29.61,29.61,0,0,0,99,45a17.2,17.2,0,0,0,4-4Z"/>
        <path class="cls-1" d="M116.51,41.83a9.38,9.38,0,0,0-.13,1.8c-.17,5.69-.33,7.25-1.13,9.37a12.85,12.85,0,0,1-3.63,5.18,4,4,0,0,0-1.26-1.13,10.4,10.4,0,0,0,3.54-4.83c.65-1.83.95-4.58.95-9a8.48,8.48,0,0,0-.09-1.49Zm5.2-.23a8.47,8.47,0,0,0-.12,1.84l-.13,12.68a9.67,9.67,0,0,0,3.91-2.43,10.51,10.51,0,0,0,2.48-4.2A5.64,5.64,0,0,0,129,50.71a11.87,11.87,0,0,1-4.22,5.39,14,14,0,0,1-3,1.54l-.67.25a2.51,2.51,0,0,0-.49.23l-.84-1a3.39,3.39,0,0,0,.15-1.42l.13-12.29a7.94,7.94,0,0,0-.09-1.87Z"/>
        <path class="cls-1" d="M149.35,57.91a39.1,39.1,0,0,0-6.72-6.49,22.76,22.76,0,0,1-4,3.76,27.07,27.07,0,0,1-4.12,2.52,4.71,4.71,0,0,0-1-1.39,16.91,16.91,0,0,0,4.26-2.41,22.76,22.76,0,0,0,7.49-9.47c.05-.13.07-.15.11-.25a.47.47,0,0,0,.06-.15,3.7,3.7,0,0,1-.5,0l-7,.11a13.43,13.43,0,0,0-2.17.17l0-1.71a9.3,9.3,0,0,0,1.66.11h.55l7.49-.08a4.23,4.23,0,0,0,1.34-.17l.89.9a3.78,3.78,0,0,0-.59,1,25.4,25.4,0,0,1-3.47,5.88,52.78,52.78,0,0,1,7,6.3Z"/>
        <path class="cls-1" d="M172.24,45.19l-.57,1.13a15.21,15.21,0,0,1-1.95,3.3c.84,1.36,1.81,2.26,2.41,2.26.4,0,.7-.79.93-2.56a3.64,3.64,0,0,0,1.05.84c-.44,2.19-1,3-2,3s-2.23-1-3.24-2.54a14.36,14.36,0,0,1-3,2.54,4,4,0,0,0-.92-.88,12.22,12.22,0,0,0,3.27-2.71,17.66,17.66,0,0,1-1.57-6.06h-8.55c0,6.06-.38,8.08-1.78,10.24a3,3,0,0,0-1.18-.84c1.35-1.93,1.68-3.61,1.68-8.61a20.25,20.25,0,0,0-.1-2c.67.06,1.47.1,2.47.1h7.33L166.49,41a4.18,4.18,0,0,0-.13-.84h1.49a7.37,7.37,0,0,0-.06,1c0,.32,0,.61.06,1.2h3.4a12,12,0,0,0-2.43-1.59l.86-.72a17.71,17.71,0,0,1,2.48,1.58l-.78.73a13,13,0,0,0,2.37-.12v1.36a18.16,18.16,0,0,0-2.35-.1H168a16.64,16.64,0,0,0,1.17,5A11.89,11.89,0,0,0,171,44.7Zm-13.31,9a12,12,0,0,1-2.46,4.52l-1.13-.8a8.87,8.87,0,0,0,2.43-4.29Zm7.16-8a12.47,12.47,0,0,0-1.62-.08h-4a13.42,13.42,0,0,0-1.64.08V44.89a10.72,10.72,0,0,0,1.64.09h4a10.6,10.6,0,0,0,1.62-.09Zm-6.72,2.44a10.18,10.18,0,0,0-.06-1.18,13.5,13.5,0,0,0,1.42.06h3.38a14.27,14.27,0,0,0,1.45-.06,9.35,9.35,0,0,0-.06,1.16v1.91c0,.48,0,.58,0,1.19a13.54,13.54,0,0,0-1.41,0h-3.42a11.85,11.85,0,0,0-1.4.06,9.09,9.09,0,0,0,.06-1.17Zm2.35,8.67c0,.48.29.54,3,.54,2.27,0,3.09-.12,3.39-.48a3.51,3.51,0,0,0,.33-1.8,4.11,4.11,0,0,0,1.28.52c-.29,2.79-.57,2.94-5.46,2.94-3.29,0-3.86-.21-3.86-1.45V55.12a7.71,7.71,0,0,0-.13-1.56h1.52a7,7,0,0,0-.11,1.43Zm-1.2-6.66h3.82v-2.1h-3.82Zm5.67,5.57a15.18,15.18,0,0,0-3.4-2.48l.82-.78a17,17,0,0,1,3.44,2.35Zm4.73-2.4a22.38,22.38,0,0,1,2.85,4l-1.13.67a18.44,18.44,0,0,0-2.82-4.11Z"/>
        <path class="cls-1" d="M193.83,51.42a16.83,16.83,0,0,0,2.37-.12v1.4a20.42,20.42,0,0,0-2.37-.12h-5.19a12.37,12.37,0,0,0,2.52,2,21.16,21.16,0,0,0,5.75,2.44,5.68,5.68,0,0,0-.9,1.28,23,23,0,0,1-5.14-2.46,12.85,12.85,0,0,1-3.19-2.81c.06,1.13.08,1.91.08,2.37v1.79a8.39,8.39,0,0,0,.15,2.2h-1.6a13.53,13.53,0,0,0,.13-2.2V55.45c0-.44,0-1.59.08-2.37a19.2,19.2,0,0,1-8,5.21,4.37,4.37,0,0,0-.94-1.22,19.11,19.11,0,0,0,8-4.49h-5a20.18,20.18,0,0,0-2.35.12V51.3a13.48,13.48,0,0,0,2.31.12h5.9v-.63a6.37,6.37,0,0,0-.11-1.43h1.53a9.88,9.88,0,0,0-.08,1.43v.63Zm-15-8.1A15.49,15.49,0,0,1,182.13,45l-.75,1a11.49,11.49,0,0,0-3.32-1.79ZM184,46.7a30.14,30.14,0,0,1-4.62,3.23,3.13,3.13,0,0,0-.5.34L178.23,49a16.88,16.88,0,0,0,5.37-3.42Zm-3.69-6.13a15.13,15.13,0,0,1,3.36,1.82l-.76,1a12.62,12.62,0,0,0-3.4-1.87Zm10.52,2.12a16.07,16.07,0,0,0,1.84-.07,14,14,0,0,0-.08,1.73V47.6c0,.59.06.63,1,.63,1.09,0,1.4-.08,1.49-.44a11.23,11.23,0,0,0,.17-2.27,3.51,3.51,0,0,0,1.21.48c-.21,3.24-.35,3.41-3,3.41-1.8,0-2.14-.23-2.14-1.43V43.82H189a7.89,7.89,0,0,1-5.15,6.43,3.3,3.3,0,0,0-.82-1,7.33,7.33,0,0,0,3.7-2.67,6.81,6.81,0,0,0,1-2.73H186.5a13,13,0,0,0-2.12.11V42.56a10.35,10.35,0,0,0,2.14.13h1.3c0-.42,0-.76,0-1.24a7.83,7.83,0,0,0-.08-1.24l1.47,0a5.57,5.57,0,0,0-.08,1c0,.38-.07,1.05-.09,1.47Z"/>
        <path class="cls-1" d="M210,41.87a7.88,7.88,0,0,0-.13-1.68h1.6a6.83,6.83,0,0,0-.13,1.7v.34h5.25a18.18,18.18,0,0,0,2.33-.13v1.45a15.22,15.22,0,0,0-2.31-.11H204.52v3.85c0,6-.88,9.15-3.26,11.84a3.38,3.38,0,0,0-1.13-.93,10.84,10.84,0,0,0,2.9-7.09c-.4.25-1.16.69-2.27,1.3a3.74,3.74,0,0,0-.5.29l-.59-1.32a16.3,16.3,0,0,0,3.46-1.55c.07-1.07.09-1.64.09-2.36a36.91,36.91,0,0,0-.15-5.35,20,20,0,0,0,2.39.11H210Zm-9,2a20.88,20.88,0,0,1,1.55,3.89l-1.11.56A17.37,17.37,0,0,0,200,44.39Zm10.37,3.24h-3.65a20.11,20.11,0,0,0-2.08.08V45.79a13.24,13.24,0,0,0,2.08.11h8.86a13.73,13.73,0,0,0,2.06-.13V47.2a15.12,15.12,0,0,0-2.06-.1h-3.86v3.84h3.44a9.8,9.8,0,0,0,1.83-.11v1.43a11.44,11.44,0,0,0-1.81-.1h-3.46v5h4.2a16.34,16.34,0,0,0,2.2-.13v1.47a16.89,16.89,0,0,0-2.22-.13H205.76a17.72,17.72,0,0,0-2.33.13V57.09a13.24,13.24,0,0,0,2.1.11H207V51.67a16.63,16.63,0,0,0-.12-2.05h1.59a16.4,16.4,0,0,0-.12,2.05V57.2h3.06Z"/>
        <path class="cls-1" d="M227.07,42.52A12.49,12.49,0,0,0,227,40.4h1.55a16.27,16.27,0,0,0-.1,2.12v1.41h2a13.21,13.21,0,0,0,1.93-.13v1.41a13.42,13.42,0,0,0-1.91-.09,20.2,20.2,0,0,1-1.49,6.62,41.51,41.51,0,0,1,3,4.41l-1,1A39.23,39.23,0,0,0,228.31,53a17.06,17.06,0,0,1-4.66,5.6,3.71,3.71,0,0,0-1.05-1,14.61,14.61,0,0,0,4.85-5.74,37.4,37.4,0,0,0-3.8-4.28l1-.84a48.77,48.77,0,0,1,3.38,3.8,19.57,19.57,0,0,0,1-5.46h-4.37a10.42,10.42,0,0,0-1.87.11V43.8a13.21,13.21,0,0,0,1.93.13h2.33Zm6.09,5.63a23.65,23.65,0,0,1,3.11,4.68l-1.16.8a18.29,18.29,0,0,0-3-4.83Zm1.32-1.75a13.5,13.5,0,0,0-2,.13V45.1a11.37,11.37,0,0,0,2,.11h3.27V42.86a11.5,11.5,0,0,0-.15-2.29h1.62a14.73,14.73,0,0,0-.13,2.29v2.35h.53a12.41,12.41,0,0,0,2-.13v1.45a12.1,12.1,0,0,0-2.06-.13h-.51V57.22c0,1.38-.42,1.7-2.31,1.7-.94,0-1.46,0-2.39-.07a4.8,4.8,0,0,0-.44-1.4,21.49,21.49,0,0,0,2.69.23c.94,0,1.11-.09,1.11-.53V46.4Z"/>
        <path class="cls-1" d="M248.43,43.32a13.72,13.72,0,0,1-2.25,2.54,4.13,4.13,0,0,0-1-.88,9.93,9.93,0,0,0,3.42-4.73l1.34.38c-.63,1.15-.63,1.15-.86,1.55h3.34a13.91,13.91,0,0,0,2.1-.12V43.4a18,18,0,0,0-1.93-.08h-1.47a19.23,19.23,0,0,1,1.13,2l-1.19.44a13.82,13.82,0,0,0-1.16-2.41Zm13.42,3.27a11.13,11.13,0,0,0,2.1-.14v1.4a16,16,0,0,0-2.1-.12h-6.68v1.55H260c.16,0,.58,0,1.26,0a5.87,5.87,0,0,0,.73-.06,14.05,14.05,0,0,0-.08,1.8v1.77c0,1-.44,1.38-1.81,1.38a12.23,12.23,0,0,1-1.36-.08,3.69,3.69,0,0,0-.32-1.16,7.13,7.13,0,0,0,1.51.17c.53,0,.72-.13.72-.5V50.41h-5.44v1.26a14.36,14.36,0,0,0,4.51,3.87,19.4,19.4,0,0,0,4.52,1.82,5.41,5.41,0,0,0-.93,1.26,18.5,18.5,0,0,1-8.21-5.46c.05.7.07,1.26.09,1.79v2.14a8.81,8.81,0,0,0,.17,2.27h-1.58a12.63,12.63,0,0,0,.15-2.27V55c0-.52,0-1.07,0-1.74a17.9,17.9,0,0,1-7.52,5.39,4.49,4.49,0,0,0-1-1.17,22.1,22.1,0,0,0,4.18-1.91,14,14,0,0,0,4.26-3.85V50.41h-5v2.38a12.38,12.38,0,0,0,.09,1.93h-1.47a19.18,19.18,0,0,0,.1-2V51c0-.71,0-1.24-.08-1.82a19.16,19.16,0,0,0,2,.08h4.37V47.73h-6.11a14.93,14.93,0,0,0-2.06.12v-1.4a11.8,11.8,0,0,0,2.06.14h6.09a7.19,7.19,0,0,0-.09-1.3h1.47a6.82,6.82,0,0,0-.08,1.3Zm-5.67-3.27a11.19,11.19,0,0,1-1.45,1.89,3.48,3.48,0,0,0-1-.72,8.9,8.9,0,0,0,2.6-4.26l1.3.4c-.35.78-.5,1-.75,1.55h5a16.8,16.8,0,0,0,2.24-.12v1.36a18,18,0,0,0-2.2-.1h-2.48a14.21,14.21,0,0,1,1.16,2.06l-1.16.46a15.6,15.6,0,0,0-1.26-2.52Z"/>
        <path class="cls-1" d="M276.27,52.14c-1.21,2.77-2.45,4-4,4-2,0-3.49-2.19-3.49-5.13a8.53,8.53,0,0,1,9-8.58,8.09,8.09,0,0,1,5.77,2.08,7,7,0,0,1,2,5.12,7.65,7.65,0,0,1-4.81,7.24,16.34,16.34,0,0,1-3.19,1,3.28,3.28,0,0,0-.74-1.41,12.23,12.23,0,0,0,3.51-1,6.33,6.33,0,0,0,3.72-5.87,5.53,5.53,0,0,0-3.34-5.27,6,6,0,0,0-2.44-.53A31.16,31.16,0,0,1,276.27,52.14Zm-2.58-7.33a7.25,7.25,0,0,0-3.42,6.25c0,2,.88,3.57,2,3.57.88,0,1.72-1,2.62-3a28.71,28.71,0,0,0,1.91-7.77A6.69,6.69,0,0,0,273.69,44.81Z"/>
        <path class="cls-1" d="M291.54,44.54a15.18,15.18,0,0,0,2.63.18c.42,0,.65,0,1.26,0a20.43,20.43,0,0,0,.46-3.86l1.66.17a17.45,17.45,0,0,0-.38,2c-.11.67-.17,1-.27,1.6a17.27,17.27,0,0,0,3.78-.72l.1,1.45a4.68,4.68,0,0,0-.59.11,30.12,30.12,0,0,1-3.54.5c-.32,1.66-.91,4-1.47,5.94a57,57,0,0,1-2.42,6.41l-1.53-.65A42.48,42.48,0,0,0,295.18,46c-.42,0-.68,0-1.45,0S292.8,46,292,46h-.08l-.36,0Zm9.39,7.62a7.34,7.34,0,0,0-.63.79,2.54,2.54,0,0,0-.53,1.5c0,1.26,1.28,1.93,3.68,1.93a15.63,15.63,0,0,0,4.64-.72l.14,1.58-.92.14a20.33,20.33,0,0,1-3.74.36c-3.44,0-5.22-1.07-5.22-3.15,0-.94.29-1.59,1.4-3Zm6.49-3.64a22.21,22.21,0,0,0-2.48-.14,18.44,18.44,0,0,0-5.25.71l-.15-1.43a24.06,24.06,0,0,1,5.57-.69c.4,0,.71,0,2.29.06Z"/>
        <path class="cls-1" d="M317.94,41.91a25.89,25.89,0,0,0,.57,3.65A10,10,0,0,1,323,44.51a6.5,6.5,0,0,1,.69,0,23,23,0,0,0,.65-3.39l1.58.34a15.66,15.66,0,0,0-.57,2.21c-.1.35-.15.58-.25,1,3.48.65,5.56,2.94,5.56,6.11a6.59,6.59,0,0,1-2.29,5,11.15,11.15,0,0,1-4.24,2.08l-1.32.31a3.45,3.45,0,0,0-.82-1.4,9.67,9.67,0,0,0,3.13-.78,6.8,6.8,0,0,0,3.15-2.29,5.15,5.15,0,0,0,.92-3c0-2.56-1.53-4.24-4.43-4.85a23.54,23.54,0,0,1-4.07,8.23c-1.34,1.64-2.52,2.39-3.74,2.39-1.82,0-3-1.63-3-4.11a7.51,7.51,0,0,1,1.22-4,7.85,7.85,0,0,1,2.1-2.14c-.15-.67-.4-1.91-.59-3a5.63,5.63,0,0,0-.27-1.12Zm-1.81,7.52a6.29,6.29,0,0,0-.84,2.94c0,1.66.68,2.75,1.7,2.75.74,0,1.64-.63,2.59-1.79a29.31,29.31,0,0,1-2-5.65A6.35,6.35,0,0,0,316.13,49.43Zm4.41,2.75c.11-.21.11-.23.25-.46a23.94,23.94,0,0,0,2.57-5.95l-.53,0a7.88,7.88,0,0,0-4.05,1.07,30.18,30.18,0,0,0,1.57,4.87,2.89,2.89,0,0,1,.17.49Z"/>
        <path class="cls-1" d="M343.92,50.5H339a13.91,13.91,0,0,0-2,.1V49.3a11.43,11.43,0,0,0,2,.11h4.9V48h-4.39a11.88,11.88,0,0,0-1.72.09,10.6,10.6,0,0,0,.08-1.41v-.93a10.86,10.86,0,0,0-.08-1.42,14.54,14.54,0,0,0,1.74.08h4.37V43.07h-6.09a18.78,18.78,0,0,0-2.35.12V41.81a16.2,16.2,0,0,0,2.39.12h6.05a8.12,8.12,0,0,0-.13-1.89h1.53a7.21,7.21,0,0,0-.14,1.89h6.42a16.78,16.78,0,0,0,2.42-.12v1.38a19.89,19.89,0,0,0-2.38-.12h-6.46v1.38H350a14.25,14.25,0,0,0,1.73-.08,9.17,9.17,0,0,0-.09,1.42v.93a9,9,0,0,0,.09,1.41A11.93,11.93,0,0,0,350,48h-4.85v1.37h4.57a18.53,18.53,0,0,0,2.35-.09,17.4,17.4,0,0,0-.06,1.74V52a10.25,10.25,0,0,0,2.23-.13v1.32A15.12,15.12,0,0,0,352,53V54.4a11.64,11.64,0,0,0,.13,2.1H350.8v-.86h-5.62v1.74c0,1.45-.42,1.75-2.46,1.75-.44,0-.82,0-2-.09a3.46,3.46,0,0,0-.35-1.32,17.66,17.66,0,0,0,2.6.21c.76,0,.95-.1.95-.57V55.64h-5.06a13.11,13.11,0,0,0-2.06.11v-1.3a13.18,13.18,0,0,0,2,.1h5.11V53h-6.3a16,16,0,0,0-2.29.1V51.82a13.94,13.94,0,0,0,2.29.13h6.3Zm-4.77-5V47h4.77V45.48Zm6,1.55h5.2V45.48h-5.2ZM350.8,52V50.5h-5.62V52Zm-5.62,2.6h5.62V53h-5.62Z"/>
        <path class="cls-1" d="M364.22,43.32A15.85,15.85,0,0,0,362,40.4l1.26-.5a16,16,0,0,1,2.43,3.42h3a14.67,14.67,0,0,0,2.38-3.4l1.34.5a22.66,22.66,0,0,1-2.27,2.9h4.31a12.9,12.9,0,0,0,2.1-.13v1.43a15,15,0,0,0-2.1-.13H360.11a15.61,15.61,0,0,0-2.1.13V43.19a10,10,0,0,0,2.1.13Zm-3.46,13.6a14.35,14.35,0,0,0,.12,2.23h-1.53a15,15,0,0,0,.11-2.27V48.06a15.88,15.88,0,0,0-.07-1.87,18.23,18.23,0,0,0,2,.09h3.3a10.91,10.91,0,0,0,1.91-.09c0,.49-.07,1-.07,2.23v8.9c0,1.26-.39,1.62-1.76,1.62-.44,0-.94,0-1.74-.09a6.34,6.34,0,0,0-.34-1.3,9.71,9.71,0,0,0,1.83.21c.61,0,.73-.1.73-.54V54.4h-4.53Zm4.53-7.14V47.47h-4.53v2.31Zm0,3.45V51h-4.53v2.27Zm5.46-6.78a11,11,0,0,0-.1,2v4.26a14.11,14.11,0,0,0,.08,2.37h-1.47a15.79,15.79,0,0,0,.09-2.35V48.42a10.72,10.72,0,0,0-.11-2Zm4.52-.63a11.35,11.35,0,0,0-.13,2.26v9.09c0,1.47-.44,1.85-2.16,1.85-.72,0-1.41,0-2.46-.12a5.18,5.18,0,0,0-.4-1.41,16.66,16.66,0,0,0,2.71.27c.82,0,1-.08,1-.63V48a10.49,10.49,0,0,0-.13-2.22Z"/>
        <path class="cls-1" d="M396.9,42.2a26.28,26.28,0,0,1-5.69,4c.59.42.84.59,1.63,1.2l-.54.55h3.8a11.9,11.9,0,0,0,2.23-.11l.81.91a7.15,7.15,0,0,0-.56.69,17.06,17.06,0,0,1-3.68,3.67,5.09,5.09,0,0,0-1.09-.86,14.28,14.28,0,0,0,3.36-3h-6.38v8.14c0,1.35-.51,1.7-2.46,1.7-.65,0-1.76,0-2.48-.1a5.09,5.09,0,0,0-.33-1.45,17.46,17.46,0,0,0,2.94.25c.71,0,.92-.14.92-.61V49.22h-6.51a16.54,16.54,0,0,0-2.16.12V47.83A14.88,14.88,0,0,0,383,48h8.4a30.47,30.47,0,0,0-5.8-3.57l.86-.93c1.85,1,2.57,1.37,3.57,2a20.66,20.66,0,0,0,4.48-3h-9.72a14.77,14.77,0,0,0-2.17.1V41.15a12.06,12.06,0,0,0,2.21.13h9.61a14.92,14.92,0,0,0,1.56-.06Z"/>
        <path class="cls-1" d="M402.78,49.39a5,5,0,0,0,.76.06l1.07,0c.77-.93,1-1.2,1.59-2A20.45,20.45,0,0,0,403,44.18l.78-1,.9.86a15.39,15.39,0,0,0,2.08-3.88l1.3.59a6.79,6.79,0,0,0-.48.79,32,32,0,0,1-2.08,3.3c.63.63,1,1,1.41,1.53a21.27,21.27,0,0,0,2.41-4l1.24.74c-.19.25-.32.44-.61.86a46.5,46.5,0,0,1-3.88,5.31c1.57-.1,1.95-.12,3.4-.31a17.3,17.3,0,0,0-.84-1.66l1-.38a22.77,22.77,0,0,1,1.85,4l-1.07.48c-.21-.67-.27-.86-.48-1.4a3.51,3.51,0,0,1-.53.06l-1.45.17v6.9a15.86,15.86,0,0,0,.13,2.15h-1.53a16.38,16.38,0,0,0,.12-2.17V50.39c-1.55.15-1.55.15-2.35.21a8.87,8.87,0,0,0-1.28.15Zm2.58,2.6A18.55,18.55,0,0,1,404,57.93l-1.16-.55a15.34,15.34,0,0,0,1.39-5.62Zm4.77-.36a33.82,33.82,0,0,1,1.24,5l-1.22.4A27.63,27.63,0,0,0,409.08,52ZM413.68,45a16.34,16.34,0,0,1-2.14,3.27,4.05,4.05,0,0,0-1.1-.82,13.71,13.71,0,0,0,2.36-3.59A13.21,13.21,0,0,0,414,40.4l1.43.36c-.17.39-.17.39-.55,1.44-.17.47-.33.89-.61,1.56h5.25a10.31,10.31,0,0,0,1.7-.09c-.06.61-.06.61-.1,3.24a52.85,52.85,0,0,1-.9,9.51c-.49,2-1,2.46-3,2.46-.61,0-1.38-.05-2.22-.13a5.31,5.31,0,0,0-.36-1.45,16.44,16.44,0,0,0,2.79.27c1,0,1.22-.25,1.51-1.59a58.25,58.25,0,0,0,.91-11Zm2.22,8.42A20.19,20.19,0,0,0,413,48.21l1.09-.63a25.6,25.6,0,0,1,3,5.12Z"/>
        <path class="cls-1" d="M433.86,52.14c-1.22,2.77-2.46,4-4,4-2,0-3.48-2.19-3.48-5.13a8.52,8.52,0,0,1,9-8.58,8.13,8.13,0,0,1,5.78,2.08,7,7,0,0,1,2,5.12,7.64,7.64,0,0,1-4.81,7.24,16.34,16.34,0,0,1-3.19,1,3.27,3.27,0,0,0-.73-1.41,12.16,12.16,0,0,0,3.5-1,6.33,6.33,0,0,0,3.72-5.87,5.53,5.53,0,0,0-3.34-5.27,5.89,5.89,0,0,0-2.43-.53A31.93,31.93,0,0,1,433.86,52.14Zm-2.58-7.33a7.26,7.26,0,0,0-3.43,6.25c0,2,.89,3.57,2,3.57.88,0,1.72-1,2.62-3a28.71,28.71,0,0,0,1.91-7.77A6.61,6.61,0,0,0,431.28,44.81Z"/>
        <path class="cls-1" d="M453.75,50.29c-1.37,1.13-2,2.1-2,3.08s.61,1.66,1.79,2.06a13.06,13.06,0,0,0,3.84.42,19.75,19.75,0,0,0,6.3-.8l.19,1.73a6.74,6.74,0,0,0-.72.1,33.64,33.64,0,0,1-5.67.48,14.71,14.71,0,0,1-4.82-.65,3.34,3.34,0,0,1-2.4-3.17c0-1.36.8-2.69,2.42-4Zm-2.21-7.67a23.85,23.85,0,0,0,5.59.51,23.25,23.25,0,0,0,5.31-.44l.1,1.38a32.7,32.7,0,0,0-5.29,3.19l-1.07-.86a33.55,33.55,0,0,1,3.72-2.22,16.63,16.63,0,0,1-3.17.27,40.56,40.56,0,0,1-4.62-.27l-.69-.06ZM462,46.26a16.73,16.73,0,0,1,2.14,3.25l-1.05.63A16.19,16.19,0,0,0,461,46.8ZM464.31,45a16.2,16.2,0,0,1,2.18,3.27l-1.05.59a17.45,17.45,0,0,0-2.14-3.3Z"/>
        <path class="cls-1" d="M472.52,42.1a9.24,9.24,0,0,0-.15-1.87H474a9.37,9.37,0,0,0-.15,1.85v3.48h.28a7.1,7.1,0,0,0,1.51-.1v1.38a10.6,10.6,0,0,0-1.49-.08h-.3V57a16.18,16.18,0,0,0,.15,2.26h-1.62a13.42,13.42,0,0,0,.15-2.28V46.76H472a14.83,14.83,0,0,0-1.75.08V45.46a9.85,9.85,0,0,0,1.75.1h.54Zm7.37,8.21a13.46,13.46,0,0,0,1.76-.08c0,.39,0,.62-.06,1.17a41.1,41.1,0,0,1-.42,5c-.31,2-.63,2.29-2.5,2.29-.27,0-.67,0-1,0a4.27,4.27,0,0,0-.28-1.33,7.35,7.35,0,0,0,1.58.19c.52,0,.73-.14.84-.54a28.33,28.33,0,0,0,.52-5.55h-1.85a12.44,12.44,0,0,1-3.15,7.6,4.84,4.84,0,0,0-.9-1.09c1.66-1.55,2.46-3.36,2.86-6.51h-1a6.23,6.23,0,0,0-1.24.09V50.2a4.77,4.77,0,0,0,1.3.11h1c0-.46,0-.8,0-1.16a7,7,0,0,0-.06-1h1.39a9.37,9.37,0,0,0-.13,1.36c0,.3,0,.4,0,.8Zm6.32-8.08a12.83,12.83,0,0,0,1.66-.09,8,8,0,0,0-.08.88,14.36,14.36,0,0,1-.61,3.51,1.54,1.54,0,0,1-.91.82,4.9,4.9,0,0,1-1.34.12c-.59,0-1.3,0-2.1-.1a4.77,4.77,0,0,0-.27-1.32,13.15,13.15,0,0,0,2.56.25c.57,0,.8-.15.94-.57a9.61,9.61,0,0,0,.36-2.35H481.8c-.88,2.2-2.33,3.53-5.1,4.72a4,4,0,0,0-.82-1.13c2.48-.84,3.82-1.89,4.6-3.59h-2.12a12.1,12.1,0,0,0-2,.11V42.12a14.44,14.44,0,0,0,2.1.11h2.46a7,7,0,0,0,.23-1.73,2.06,2.06,0,0,0,0-.35l1.53.08a8.53,8.53,0,0,0-.25,1.11c-.06.32-.11.51-.19.89Zm1.05,8.08a13.91,13.91,0,0,0,1.74-.08c0,.37,0,.79-.06,1.25-.17,3.51-.42,5.55-.82,6.41-.27.61-.84.84-2.06.84a9.12,9.12,0,0,1-1.4-.06,4.27,4.27,0,0,0-.28-1.33,9.6,9.6,0,0,0,1.89.21c.55,0,.74-.1.84-.46a24.41,24.41,0,0,0,.57-5.63h-2.27a15.59,15.59,0,0,1-1.32,4.94A9,9,0,0,1,482.26,59a3.65,3.65,0,0,0-.92-1c1.57-1.39,2.48-3.41,2.88-6.58h-.57a6.41,6.41,0,0,0-1.28.09V50.2a5.11,5.11,0,0,0,1.34.11h.61c0-.63.06-.92.06-1.3s0-.57,0-.88h1.37a10.48,10.48,0,0,0-.15,1.7c0,.19,0,.27,0,.48Z"/>
        <path class="cls-1" d="M507.76,44.66a17.66,17.66,0,0,0,2.45-.1c-.06.75-.06.75-.1,2.75a65.63,65.63,0,0,1-.74,8.86c-.37,1.82-1,2.39-2.68,2.39a24.88,24.88,0,0,1-3.74-.34,6.51,6.51,0,0,0-.36-1.57,18.7,18.7,0,0,0,4,.52c1.11,0,1.39-.52,1.7-3.06a78.24,78.24,0,0,0,.46-8.17h-6.49a18.46,18.46,0,0,1-2.07,7.41,14.36,14.36,0,0,1-5.84,5.44,3.31,3.31,0,0,0-1.11-1.17,13.05,13.05,0,0,0,3.52-2.27c2.44-2.21,3.62-4.91,4.1-9.41h-4.12a17.63,17.63,0,0,0-2.58.13V44.54a19,19,0,0,0,2.6.12h4.18c.07-.94.09-1.62.09-2.48a12.12,12.12,0,0,0-.13-2h1.66c-.06.5-.08.82-.11,1.7s0,1-.1,2.81Z"/>
        <path class="cls-1" d="M522,43.59a8.64,8.64,0,0,0,1-2.88l1.68.3a4.16,4.16,0,0,0-.54,1.13c-.28.67-.55,1.24-.65,1.43l.44,0a29.51,29.51,0,0,0,6.61-.8l.13,1.43a6.59,6.59,0,0,0-.84.1,65.18,65.18,0,0,1-6.93.55,15.58,15.58,0,0,1-1.89,3,10,10,0,0,1-.72.8l-.27.21a0,0,0,0,1,0,0v0l0,.06,1-.73a5.59,5.59,0,0,1,3.17-1,2.55,2.55,0,0,1,2.77,2.33c1.53-.61,2.73-1.05,3.65-1.39a4.48,4.48,0,0,0,1.43-.6l.67,1.47a33.49,33.49,0,0,0-5.6,1.84c0,.55,0,.76,0,1.28,0,.28,0,.74,0,1.16s0,.75,0,.94a4.78,4.78,0,0,0,0,.76l-1.43,0c.06-.46.13-1.74.13-3a5.74,5.74,0,0,0,0-.63c-2.86,1.34-3.95,2.33-3.95,3.59s1.3,2,4.26,2a17.43,17.43,0,0,0,5.61-.82l.19,1.62c-.32,0-.42,0-.84.1a31.82,31.82,0,0,1-5.11.42c-3.75,0-5.58-1.07-5.58-3.23,0-1.15.71-2.25,2.14-3.32A16.43,16.43,0,0,1,525.63,50c-.17-1.15-.67-1.65-1.66-1.65a7.87,7.87,0,0,0-4.68,2.22,7.09,7.09,0,0,0-1.62,1.74l-1.17-1.17a21,21,0,0,0,4.7-6l.19-.31a2.58,2.58,0,0,1-.4,0l-3.09-.06h-.33a4,4,0,0,0-.47,0l0-1.45a28.93,28.93,0,0,0,4.49.23Z"/>
        <path class="cls-1" d="M549.23,45.29c-.25,0-.33.06-.63.13-1.72.35-2.73.52-3.71.63v3.63a14.7,14.7,0,0,1,4.51-.76,7.11,7.11,0,0,1,3.72.89A4.32,4.32,0,0,1,551,57.87a3.1,3.1,0,0,1-3.24-2.37,7.74,7.74,0,0,1-.25-2.38,4.8,4.8,0,0,0,1.39-.54,5.16,5.16,0,0,0,0,.82c0,2.18.63,3.08,2.17,3.08a2.78,2.78,0,0,0,2.81-3c0-2.06-1.74-3.34-4.49-3.34a14.32,14.32,0,0,0-4.45.82v5.25c0,1.13-.51,1.68-1.54,1.68a5.53,5.53,0,0,1-3.46-1.34,2.55,2.55,0,0,1-1-2,3.82,3.82,0,0,1,1.66-2.79,11.44,11.44,0,0,1,3-1.72v-4l-.84.06c-.37,0-.73,0-1.34,0-.32,0-.88,0-1.11,0h-.86V44.81a12.2,12.2,0,0,0,2.14.15c.56,0,1.38,0,2-.07V42.81a14.56,14.56,0,0,0-.1-2H545a12.62,12.62,0,0,0-.1,2v2a21.16,21.16,0,0,0,4.28-.91Zm-5.69,6.19c-2.08,1-3.25,2.15-3.25,3.15a1.58,1.58,0,0,0,.9,1.26,3.89,3.89,0,0,0,1.87.61c.42,0,.48-.12.48-1Zm11.53-3.94a17.14,17.14,0,0,0-4.24-4.12l1.09-.82a17.91,17.91,0,0,1,4.24,4Z"/>
        <path class="cls-1" d="M565.91,44.58a15.17,15.17,0,0,0,.65-2.31h-3.84c0,10.56-.34,13.35-1.91,16.65a5.1,5.1,0,0,0-1-1c1.3-2.65,1.68-5.88,1.68-14.53a23.32,23.32,0,0,0-.09-2.37,16.84,16.84,0,0,0,2.12.1h4.39a15.29,15.29,0,0,0,2.25-.12v1.38a15.15,15.15,0,0,0-2.14-.1h-.19a15.89,15.89,0,0,1-.7,2.31h1a15.72,15.72,0,0,0,1.7-.07c0,.47-.06.89-.06,1.64v4.31a14,14,0,0,0,.06,1.51c-.42,0-1,0-1.45,0h-.82v5.85c0,1-.33,1.24-1.76,1.24-.46,0-.76,0-1.18,0a4.09,4.09,0,0,0-.23-1.28,8,8,0,0,0,1.54.17c.35,0,.44-.07.44-.32V51.93h-1c-.46,0-1,0-1.47,0,0-.46.06-.91.06-1.51V46c0-.54,0-1-.06-1.49a16.66,16.66,0,0,0,1.77.07Zm-3.57,13a11,11,0,0,0,1.78-4.81l1.14.33a13.79,13.79,0,0,1-1.81,5Zm2.75-9.94h3.5v-2h-3.5Zm0,3.17h3.5V48.76h-3.5Zm4.26,2a20.23,20.23,0,0,1,1.07,3.27l-1.09.45a16.57,16.57,0,0,0-1-3.36Zm4.54,3.55A14,14,0,0,1,570,59.46a3.92,3.92,0,0,0-1-1,9.78,9.78,0,0,0,3.89-2.8Zm-1.26-14.15a10.64,10.64,0,0,0-2,.12V41a11.19,11.19,0,0,0,2.06.12h4.6a10.7,10.7,0,0,0,2-.12v1.4a11.54,11.54,0,0,0-2-.12h-1.79a16.41,16.41,0,0,1-.86,2.26h2a14.25,14.25,0,0,0,1.89-.08c0,.63-.07,1.09-.07,1.93v6.93c0,.78,0,1.45.07,2-.55-.05-1.14-.07-1.79-.07h-3.86c-.67,0-1.24,0-1.81.07,0-.59.07-1.22.07-1.91v-7a17.27,17.27,0,0,0-.09-2c.53,0,.9.06,1.83.06h.54a14.31,14.31,0,0,0,.78-2.26Zm-.3,5.39h4.92v-2h-4.92Zm0,3.19h4.92v-2.1h-4.92Zm0,3.26h4.92V51.93h-4.92Zm3.82,1.59a12.52,12.52,0,0,0,3.55,2.75,4.92,4.92,0,0,0-.94,1,14.31,14.31,0,0,1-3.57-3.15Z"/>
        <path class="cls-1" d="M586.49,42.86a14.53,14.53,0,0,0-.15,2.49,35.42,35.42,0,0,0,.55,6.53c.46,2.15,1.32,3.59,2.12,3.59.37,0,.73-.35,1-1a15.07,15.07,0,0,0,1.09-3.59,6.43,6.43,0,0,0,1.24,1.2c-1,3.68-2,5.08-3.49,5.08-1.17,0-2.27-1.17-3-3.19s-1-4.68-1.13-9.85a9.11,9.11,0,0,0-.07-1.24ZM596.63,44a18.24,18.24,0,0,1,3,4.79,20,20,0,0,1,1.58,5.6l-1.5.61a18.49,18.49,0,0,0-4.36-10.35Z"/>
        <path class="cls-1" d="M611.08,41.34a31.54,31.54,0,0,0-.27,4.43c-.09,2.52-.15,5.38-.15,6.32,0,.26,0,.78,0,1.26a3.28,3.28,0,0,0,1,2.52,3.93,3.93,0,0,0,2.62.82A6,6,0,0,0,619.94,53a12.87,12.87,0,0,0,1-3.3,6,6,0,0,0,1.51,1,12.85,12.85,0,0,1-2.33,4.77,7.36,7.36,0,0,1-5.92,2.62,5,5,0,0,1-4-1.47c-.86-1-1.15-2.1-1.15-4.3,0-1.41,0-1.93.19-8.55,0-.63,0-1,0-1.36a5.91,5.91,0,0,0-.09-1.12Z"/>
        <path class="cls-1" d="M629,43.86h.76c.29,0,.54,0,1.19-.06,2.5-.19,9.22-.57,11.93-.69a14.57,14.57,0,0,0,2.5-.23l.12,1.57a10.2,10.2,0,0,0-2.35.27,10.8,10.8,0,0,0-4,2.12,6.42,6.42,0,0,0-2.58,4.85,4.11,4.11,0,0,0,2.94,3.89,10.68,10.68,0,0,0,3.15.67h.21l-.28,1.7-.65-.12a10.55,10.55,0,0,1-4.53-1.62A5.11,5.11,0,0,1,635,51.93c0-2.44,1.42-4.77,3.92-6.45a13.93,13.93,0,0,1,2-1.11,41.58,41.58,0,0,1-4.62.46,60.81,60.81,0,0,0-7.24.69Z"/>
        <path class="cls-1" d="M661.79,45.29c-.25,0-.33.06-.63.13-1.72.35-2.73.52-3.71.63v3.63a14.7,14.7,0,0,1,4.51-.76,7.11,7.11,0,0,1,3.72.89,4.32,4.32,0,0,1-2.12,8.06,3.1,3.1,0,0,1-3.24-2.37,7.74,7.74,0,0,1-.25-2.38,4.8,4.8,0,0,0,1.39-.54,5.16,5.16,0,0,0-.05.82c0,2.18.63,3.08,2.17,3.08a2.79,2.79,0,0,0,2.81-3c0-2.06-1.74-3.34-4.49-3.34a14.32,14.32,0,0,0-4.45.82v5.25c0,1.13-.51,1.68-1.54,1.68a5.53,5.53,0,0,1-3.46-1.34,2.55,2.55,0,0,1-1-2,3.82,3.82,0,0,1,1.66-2.79,11.44,11.44,0,0,1,3-1.72v-4l-.84.06c-.38,0-.73,0-1.34,0-.32,0-.88,0-1.11,0h-.87V44.81a12.4,12.4,0,0,0,2.15.15c.56,0,1.38,0,2-.07V42.81a14.56,14.56,0,0,0-.1-2h1.55a12.62,12.62,0,0,0-.1,2v2a21.16,21.16,0,0,0,4.28-.91Zm-5.69,6.19c-2.08,1-3.25,2.15-3.25,3.15a1.58,1.58,0,0,0,.9,1.26,3.89,3.89,0,0,0,1.87.61c.42,0,.48-.12.48-1Zm11.53-3.94a17.14,17.14,0,0,0-4.24-4.12l1.09-.82a17.91,17.91,0,0,1,4.24,4Z"/>
        <path class="cls-1" d="M679.14,40.88a11.9,11.9,0,0,0-.48,2.16c-.34,2.13-.63,4.41-.7,5.48l.09,0,.14-.61a9.45,9.45,0,0,1,1.29-3.13c1.17-1.81,2.56-2.71,4.19-2.71A3.93,3.93,0,0,1,687,44a8.55,8.55,0,0,1,1.26,5.1,8.66,8.66,0,0,1-4.85,8.25,15.22,15.22,0,0,1-3.73,1.24,4.56,4.56,0,0,0-.84-1.43,11.09,11.09,0,0,0,4.26-1.32c2.45-1.41,3.61-3.61,3.61-7s-1.18-5.33-3.19-5.33c-1.6,0-2.94,1.19-4.14,3.65a11,11,0,0,0-1.13,4.68c0,.09,0,.19,0,.51l-1.51.06v-.23l0-.38,0-2.18v-.49a52.17,52.17,0,0,1,.71-7.74,4.48,4.48,0,0,0,.06-.68Z"/>
        <path class="cls-1" d="M712,57.51a16.7,16.7,0,0,0-4.28-3c-.36-.19-.84-.4-1.41-.63a6.25,6.25,0,0,1,0,.75,3.62,3.62,0,0,1-.52,2.29,4.24,4.24,0,0,1-3.55,1.33,5.48,5.48,0,0,1-3.25-.84,2.75,2.75,0,0,1-1.14-2.21c0-1.38,1.09-2.48,2.94-2.9a9.51,9.51,0,0,1,2.18-.21,9.09,9.09,0,0,1,1.89.17c0-.06,0-.06,0-.25a1.84,1.84,0,0,1,0-.23c0-.19,0-.63,0-1.24,0-.27,0-.67,0-1.22-.76,0-1.81,0-2.48,0-1.26,0-2.25,0-3.55-.14-.23,0-.4,0-.52,0H698l0-1.39a25.75,25.75,0,0,0,4.81.34c.54,0,1.28,0,1.87,0l-.05-2.88c-.6,0-.94,0-1.42,0-1.54,0-3.24-.06-5.13-.21a2.56,2.56,0,0,0-.37,0,1.85,1.85,0,0,0-.3,0l0-1.43a26.32,26.32,0,0,0,5.38.42l1.82,0a17.18,17.18,0,0,0-.1-3h1.62a21.91,21.91,0,0,0-.15,3,29.4,29.4,0,0,0,6.21-.86l.11,1.43c-.36,0-.36,0-1.45.16a42.73,42.73,0,0,1-4.87.51c0,1.72,0,1.72,0,2.83a25.35,25.35,0,0,0,5.82-.86l.08,1.45c-.27,0-.48,0-1.22.15-1.44.23-3.1.4-4.66.5,0,1.18,0,1.18.13,3.21a18.47,18.47,0,0,1,5.86,3.07,7.45,7.45,0,0,0,.71.48Zm-7.1-4a7.6,7.6,0,0,0-2.14-.23c-2.08,0-3.44.76-3.44,1.87s1.05,1.74,2.88,1.74a3,3,0,0,0,2.3-.69c.3-.29.42-.88.42-1.89Z"/>
        <path class="cls-1" d="M728.51,42.08a6.39,6.39,0,0,0-.09-1.22H730a18.3,18.3,0,0,0-.1,2.63v.23c4,0,5.58-.07,6.27-.15v1.49a39.05,39.05,0,0,0-4-.1l-2.24,0v4.15a6.18,6.18,0,0,1,.5,2.48,6.75,6.75,0,0,1-2.81,5.48,13.48,13.48,0,0,1-3.32,1.7,4.67,4.67,0,0,0-.92-1.32,11.19,11.19,0,0,0,3.4-1.57,5.47,5.47,0,0,0,2.35-4.44,2.9,2.9,0,0,1-.57,1,3.51,3.51,0,0,1-6.09-2.18,3.5,3.5,0,0,1,3.72-3.46,3.19,3.19,0,0,1,2.43.94c0-.29,0-.38,0-1.15,0-.09,0-.3,0-.55V45c-4.22.08-8.46.29-9.87.52L718.64,44c.38,0,.53,0,.84,0,.61,0,.61,0,4-.12,2-.09,3.65-.13,5.08-.17Zm-.9,6.32a2.7,2.7,0,0,0-1.41-.34,2.23,2.23,0,0,0-2.33,2.21A2,2,0,0,0,726,52.35a2.36,2.36,0,0,0,2.46-2.48A1.51,1.51,0,0,0,727.61,48.4Z"/>
        <path class="cls-1" d="M746.91,55.94a3.15,3.15,0,1,1-3.15-3.15A3.15,3.15,0,0,1,746.91,55.94Zm-5.11,0a2,2,0,1,0,2-2A2,2,0,0,0,741.8,55.94Z"/>
        <path class="cls-1" d="M175.65,130.5h-4.93a13.82,13.82,0,0,0-2,.1v-1.3a11.36,11.36,0,0,0,2,.11h4.89V128h-4.38a12.12,12.12,0,0,0-1.73.09,9.12,9.12,0,0,0,.09-1.41v-.93a9.33,9.33,0,0,0-.09-1.42,14.83,14.83,0,0,0,1.75.08h4.36v-1.38h-6.09a18.89,18.89,0,0,0-2.35.12v-1.38a16.46,16.46,0,0,0,2.4.12h6a8.89,8.89,0,0,0-.12-1.89h1.53a6.69,6.69,0,0,0-.15,1.89h6.43a16.53,16.53,0,0,0,2.41-.12v1.38a19.59,19.59,0,0,0-2.37-.12h-6.47v1.38h4.83a14,14,0,0,0,1.72-.08,10.66,10.66,0,0,0-.08,1.42v.93a10.5,10.5,0,0,0,.08,1.41,11.76,11.76,0,0,0-1.7-.09h-4.85v1.37h4.58a18.63,18.63,0,0,0,2.35-.09,17.4,17.4,0,0,0-.06,1.74V132a10.14,10.14,0,0,0,2.22-.13v1.32a14.88,14.88,0,0,0-2.22-.1v1.36a13,13,0,0,0,.12,2.1h-1.36v-.86h-5.63v1.74c0,1.45-.42,1.75-2.45,1.75-.44,0-.82,0-2-.09a3.31,3.31,0,0,0-.36-1.32,17.89,17.89,0,0,0,2.61.21c.75,0,.94-.1.94-.57v-1.72h-5.06a13.05,13.05,0,0,0-2.05.11v-1.3a13,13,0,0,0,2,.1h5.1V133h-6.3a15.83,15.83,0,0,0-2.28.1v-1.32a13.88,13.88,0,0,0,2.28.13h6.3Zm-4.76-5V127h4.76v-1.55Zm6,1.55h5.21v-1.55h-5.21Zm5.63,4.92V130.5h-5.63V132Zm-5.63,2.6h5.63V133h-5.63Z"/>
        <path class="cls-1" d="M196,123.32a15.51,15.51,0,0,0-2.25-2.92l1.26-.5a16.52,16.52,0,0,1,2.44,3.42h3a14.34,14.34,0,0,0,2.37-3.4l1.35.5a23.59,23.59,0,0,1-2.27,2.9h4.31a12.68,12.68,0,0,0,2.09-.13v1.43a14.7,14.7,0,0,0-2.09-.13H191.85a15.5,15.5,0,0,0-2.1.13v-1.43a10,10,0,0,0,2.1.13Zm-3.46,13.6a14.35,14.35,0,0,0,.12,2.23h-1.53a16.81,16.81,0,0,0,.1-2.27v-8.82c0-1,0-1.38-.06-1.87a18.12,18.12,0,0,0,2,.09h3.29a11.05,11.05,0,0,0,1.92-.09,21.68,21.68,0,0,0-.07,2.23v8.9c0,1.26-.4,1.62-1.76,1.62-.44,0-1,0-1.74-.09a6.34,6.34,0,0,0-.34-1.3,9.63,9.63,0,0,0,1.83.21c.61,0,.73-.1.73-.54V134.4H192.5Zm4.53-7.14v-2.31H192.5v2.31Zm0,3.45V131H192.5v2.27Zm5.46-6.78a11,11,0,0,0-.1,2v4.26a14.11,14.11,0,0,0,.08,2.37H201a18.17,18.17,0,0,0,.08-2.35v-4.28a12,12,0,0,0-.1-2Zm4.51-.63a12.42,12.42,0,0,0-.12,2.26v9.09c0,1.47-.44,1.85-2.16,1.85-.72,0-1.41,0-2.46-.12a5.18,5.18,0,0,0-.4-1.41,16.56,16.56,0,0,0,2.71.27c.82,0,1-.08,1-.63V128a11.23,11.23,0,0,0-.13-2.22Z"/>
        <path class="cls-1" d="M228.63,122.2a26,26,0,0,1-5.69,4c.59.42.84.59,1.64,1.2L224,128h3.8a11.7,11.7,0,0,0,2.22-.11l.82.91a8.53,8.53,0,0,0-.57.69,16.8,16.8,0,0,1-3.67,3.67,5.09,5.09,0,0,0-1.09-.86,14.28,14.28,0,0,0,3.36-3h-6.39v8.14c0,1.35-.5,1.7-2.45,1.7-.65,0-1.77,0-2.48-.1a5.07,5.07,0,0,0-.34-1.45,17.62,17.62,0,0,0,2.94.25c.72,0,.93-.14.93-.61v-7.93h-6.51a16.54,16.54,0,0,0-2.16.12v-1.51a14.71,14.71,0,0,0,2.33.13h8.4a30.47,30.47,0,0,0-5.8-3.57l.86-.93c1.85,1,2.56,1.37,3.57,2a20.34,20.34,0,0,0,4.47-3h-9.72a14.7,14.7,0,0,0-2.16.1v-1.43a12,12,0,0,0,2.2.13h9.62a14.7,14.7,0,0,0,1.55-.06Z"/>
        <path class="cls-1" d="M234.52,129.39a4.93,4.93,0,0,0,.75.06l1.07,0c.78-.93,1-1.2,1.6-2a20.89,20.89,0,0,0-3.19-3.21l.78-1,.9.86a15.74,15.74,0,0,0,2.08-3.88l1.3.59a6.79,6.79,0,0,0-.48.79,32,32,0,0,1-2.08,3.3c.63.63,1,1,1.4,1.53a21,21,0,0,0,2.42-4l1.24.74c-.19.25-.32.44-.61.86a45.13,45.13,0,0,1-3.89,5.31c1.58-.1,2-.12,3.41-.31a17.3,17.3,0,0,0-.84-1.66l1-.38a22.77,22.77,0,0,1,1.85,4l-1.07.48c-.21-.67-.27-.86-.48-1.4a3.65,3.65,0,0,1-.53.06l-1.45.17v6.9a14.38,14.38,0,0,0,.13,2.15h-1.53a16.38,16.38,0,0,0,.12-2.17v-6.76c-1.55.15-1.55.15-2.35.21a8.87,8.87,0,0,0-1.28.15Zm2.58,2.6a18.51,18.51,0,0,1-1.39,5.94l-1.15-.55a15.54,15.54,0,0,0,1.39-5.62Zm4.77-.36a33.82,33.82,0,0,1,1.24,5l-1.22.4a28.49,28.49,0,0,0-1.07-5.06Zm3.55-6.63a16.37,16.37,0,0,1-2.15,3.27,3.86,3.86,0,0,0-1.09-.82,13.44,13.44,0,0,0,2.35-3.59,12.93,12.93,0,0,0,1.18-3.46l1.43.36c-.17.39-.17.39-.55,1.44-.17.47-.34.89-.61,1.56h5.25a10.31,10.31,0,0,0,1.7-.09c-.06.61-.06.61-.1,3.24a51.85,51.85,0,0,1-.91,9.51c-.48,2-1,2.46-3,2.46-.61,0-1.39,0-2.23-.13a5,5,0,0,0-.35-1.45,16.35,16.35,0,0,0,2.79.27c1,0,1.22-.25,1.51-1.59a58.4,58.4,0,0,0,.9-11Zm2.22,8.42a20.21,20.21,0,0,0-2.88-5.21l1.1-.63a25.6,25.6,0,0,1,3,5.12Z"/>
        <path class="cls-1" d="M261.65,121.51a30,30,0,0,0-1.62,9.85c0,.73,0,2,.09,2.94,0,.17,0,.21,0,.59v.4l.08,0a18.92,18.92,0,0,1,1.24-3.7,3.08,3.08,0,0,0,.17-.42l1,.48a18.12,18.12,0,0,0-1.81,6,2.48,2.48,0,0,0,0,.42l-1.49.14c0-.19,0-.29-.12-.77a33.36,33.36,0,0,1-.59-6.24,35.51,35.51,0,0,1,1.09-8.63,9.22,9.22,0,0,0,.23-1.32Zm2.12,3.91a14.67,14.67,0,0,0,3.78.33c.82,0,1.38,0,2.25-.06,0-2,0-2,0-3.57a4.85,4.85,0,0,0-.06-.86h1.58a20.71,20.71,0,0,0-.15,3.3c0,.23,0,.56,0,1a14.19,14.19,0,0,0,3.63-.77l.07,1.43-1.47.29a20.2,20.2,0,0,1-2.23.34c0,2.07.06,3.15.23,5.94a15.23,15.23,0,0,1,3.51,2.06c.25.16.29.21.52.35l-.65,1.47a11.42,11.42,0,0,0-3-2.18l-.21-.13-.19-.12a3.07,3.07,0,0,1,0,.54,3.59,3.59,0,0,1-.25,1.43c-.5,1.11-1.78,1.76-3.51,1.76-2.43,0-4-1.15-4-3s1.66-3,4-3a6,6,0,0,1,2.33.42c-.07-.44-.15-2.41-.21-5.48-.95,0-1.6.06-2.4.06s-1.63,0-2.37-.06a5.83,5.83,0,0,0-.67,0l-.36,0a1,1,0,0,0-.21,0h-.08Zm4,7.87c-1.64,0-2.71.69-2.71,1.74s1,1.7,2.44,1.7a2.9,2.9,0,0,0,2.14-.73,2.48,2.48,0,0,0,.4-1.64c0-.15,0-.63,0-.63A5.53,5.53,0,0,0,267.8,133.29Z"/>
        <path class="cls-1" d="M285.11,137.59a15.32,15.32,0,0,0-2.31.11,9.42,9.42,0,0,1,.61-2.77,9.09,9.09,0,0,1,2.73-3.61,27.51,27.51,0,0,1,3.21-2.31c2.08-1.41,2.77-2.33,2.77-3.61,0-1.6-1.34-2.63-3.49-2.63a3.46,3.46,0,0,0-3,1.37,4.24,4.24,0,0,0-.74,2.12l-1.76-.3a5.78,5.78,0,0,1,1.32-3,5.39,5.39,0,0,1,4.22-1.62c3.17,0,5.21,1.6,5.21,4.08a4.39,4.39,0,0,1-1.24,3,16.65,16.65,0,0,1-3.57,2.71,11.32,11.32,0,0,0-3,2.58,5.9,5.9,0,0,0-1.2,2.43h6.7a19.23,19.23,0,0,0,2.56-.14v1.76a24.52,24.52,0,0,0-2.58-.13Z"/>
        <path class="cls-1" d="M305.73,132.37a14.56,14.56,0,0,1-.86,3.25,11.37,11.37,0,0,1-2.31,3.65,4.88,4.88,0,0,0-1.16-1.11,8.78,8.78,0,0,0,2.48-4.11c.59-2,.82-4.58.82-9.24,0-1.93,0-2.77-.08-3.57a18.61,18.61,0,0,0,2.2.1h7.89a17.83,17.83,0,0,0,2.19-.1,16.67,16.67,0,0,0-.09,2.16v13.82a1.63,1.63,0,0,1-.58,1.47,3.06,3.06,0,0,1-1.68.27c-.7,0-1.58,0-2.52-.08a6.07,6.07,0,0,0-.34-1.43,22.16,22.16,0,0,0,3,.21c.61,0,.78-.13.78-.65v-4.64Zm9.74-1.26v-3.74h-9.36c0,1.15-.07,1.95-.23,3.74Zm0-5v-3.49h-9.34l0,3v.5Z"/>
        <path class="cls-1" d="M332,122.39a11.55,11.55,0,0,0-.15-2.18h1.68a13.13,13.13,0,0,0-.14,2.14v1.85h6.15a11.7,11.7,0,0,0,1.59-.08,10.37,10.37,0,0,0-.1,1.65v5.74a13.84,13.84,0,0,0,.12,1.86h-1.51V132h-6.25v4.89a12.36,12.36,0,0,0,.14,2.39h-1.68a13.84,13.84,0,0,0,.15-2.39V132h-5.92v1.42h-1.51a13.74,13.74,0,0,0,.12-1.86v-5.74a13.67,13.67,0,0,0-.1-1.65,12,12,0,0,0,1.57.08H332Zm-5.92,3.07v5.23H332v-5.23Zm13.56,5.23v-5.23h-6.25v5.23Z"/>
        <path class="cls-1" d="M350.37,124.28a21,21,0,0,1-3.75,4.85,4,4,0,0,0-1-1.07,17.27,17.27,0,0,0,4.62-6.49,6.06,6.06,0,0,0,.42-1.49l1.55.4a8.54,8.54,0,0,0-.4.84c-.23.61-.48,1.18-.76,1.75h10.73a15.25,15.25,0,0,0,2.25-.13,11.75,11.75,0,0,0-.08,1.45,77.58,77.58,0,0,1-.86,11.84c-.47,2.48-.95,2.94-3,2.94a29.05,29.05,0,0,1-3.21-.25,5.5,5.5,0,0,0-.23-1.45,18.57,18.57,0,0,0,3.57.42c1.13,0,1.36-.36,1.7-2.77a89.34,89.34,0,0,0,.67-10.84Zm8,9.43a17.8,17.8,0,0,0,.09,1.89c-.72,0-1.33-.06-2.06-.06H351v1.61h-1.4c.06-.58.1-1.4.1-2.18v-6.3c0-.94,0-1.47-.08-2.2a15.91,15.91,0,0,0,2,.1h4.78a15.59,15.59,0,0,0,2-.1c-.06.63-.11,1.49-.11,2.26Zm-7.37-3.3h6.07v-2.7H351Zm0,4h6.07v-2.89H351Z"/>
        <path class="cls-1" d="M378.51,120.8a15.73,15.73,0,0,0-.12,2.77c0,.46,0,.69,0,2.18a21,21,0,0,0,6.15-.79l.19,1.55a10.59,10.59,0,0,0-1.26.15,36.58,36.58,0,0,1-5.06.46c.06,2,.17,4.07.27,5.41a18.22,18.22,0,0,1,5.61,3c.44.31.44.33,1,.65l-1,1.47a9.2,9.2,0,0,0-2.19-1.83,21.72,21.72,0,0,0-2.83-1.62,2.69,2.69,0,0,1-.5-.23,6.29,6.29,0,0,1,.08.91,3.75,3.75,0,0,1-.53,2.12,4.43,4.43,0,0,1-3.73,1.44c-2.71,0-4.37-1.17-4.37-3.1s1.95-3.32,4.93-3.32a8.72,8.72,0,0,1,1.83.19.93.93,0,0,0,.19,0s0,0,.1,0a.65.65,0,0,0,0-.19V132c-.16-2.42-.31-6.47-.33-9.47a8.82,8.82,0,0,0-.11-1.7Zm-3.36,12.53c-2.14,0-3.44.76-3.44,2a1.48,1.48,0,0,0,.31.9,3.43,3.43,0,0,0,2.52.84,3.59,3.59,0,0,0,2.34-.69,2,2,0,0,0,.5-1.58c0-.31,0-1.15-.06-1.15A7.23,7.23,0,0,0,375.15,133.33Z"/>
        <path class="cls-1" d="M397.16,120.88a11.9,11.9,0,0,0-.48,2.16c-.34,2.13-.63,4.41-.69,5.48l.08,0,.15-.61a9.23,9.23,0,0,1,1.28-3.13c1.17-1.81,2.56-2.71,4.2-2.71a4,4,0,0,1,3.36,1.87,9.89,9.89,0,0,1-3.59,13.35,15.45,15.45,0,0,1-3.74,1.24,4.37,4.37,0,0,0-.84-1.43,11.09,11.09,0,0,0,4.26-1.32c2.46-1.41,3.61-3.61,3.61-7s-1.17-5.33-3.19-5.33c-1.59,0-2.94,1.19-4.14,3.65a11,11,0,0,0-1.13,4.68c0,.09,0,.19,0,.51l-1.51.06v-.23l0-.38,0-2.18v-.49a53.58,53.58,0,0,1,.71-7.74,4.48,4.48,0,0,0,.06-.68Z"/>
        <path class="cls-1" d="M415.77,136.86a16,16,0,0,0,.12,2.35h-1.55a16.16,16.16,0,0,0,.13-2.35V123.07c0-1,0-1.64-.09-2.31a20.54,20.54,0,0,0,2.21.08h3.19a19.15,19.15,0,0,0,2.12-.08c0,.58-.07,1.21-.07,2v2.58c0,.84,0,1.43.07,2-.51-.05-1.22-.07-2.12-.07h-4Zm0-13.37h4.87v-1.62h-4.87Zm0,2.7h4.87v-1.7h-4.87Zm3.9,3.76a14.71,14.71,0,0,0-2,.09V128.8a13.2,13.2,0,0,0,2,.1h6.66a13.42,13.42,0,0,0,2-.1V130a14.71,14.71,0,0,0-2-.09h-.76v2.61h1.05a12.57,12.57,0,0,0,2-.11v1.26a13.4,13.4,0,0,0-2-.1h-1.05v3.23a6.93,6.93,0,0,0,.13,1.8h-1.45a7.46,7.46,0,0,0,.13-1.8v-3.23h-3.17a7.09,7.09,0,0,1-2.77,5.2,3.84,3.84,0,0,0-1-.86,5.91,5.91,0,0,0,1.82-1.85,6.09,6.09,0,0,0,.8-2.49h-.74a13.26,13.26,0,0,0-2,.1v-1.26a12.68,12.68,0,0,0,2,.11h.84c.07-1,.07-1,.09-2.61Zm1.75,0v.49c0,.65-.05,1.4-.09,2.12h3.07V130Zm10.07,7.18c0,.91-.21,1.35-.75,1.58a4.49,4.49,0,0,1-1.49.14l-1.79-.06a4.08,4.08,0,0,0-.4-1.34,18.85,18.85,0,0,0,2.33.21c.68,0,.82-.11.82-.59v-9.85h-4.3c-.88,0-1.56,0-2.14.07,0-.61.06-1.12.06-2v-2.58c0-.78,0-1.3-.06-2a19.62,19.62,0,0,0,2.16.08h3.46a20.78,20.78,0,0,0,2.21-.08,18.07,18.07,0,0,0-.11,2.31Zm-6.44-13.64h5.16v-1.62h-5.16Zm0,2.7h5.16v-1.7h-5.16Z"/>
        <path class="cls-1" d="M441.49,124.54a14.11,14.11,0,0,0,1.93-.09c-.23,2.39-.23,2.39-.37,3.32a19.66,19.66,0,0,1-1.6,5.63,27.7,27.7,0,0,1,2.23,2.16l-.84,1.15a21.63,21.63,0,0,0-2-2.14,13.53,13.53,0,0,1-3.88,4.26,4,4,0,0,0-1-1,12.93,12.93,0,0,0,3.86-4.09,21.89,21.89,0,0,0-3.12-2.16,31.27,31.27,0,0,0,1.91-5.84h-.7a9.71,9.71,0,0,0-1.68.13v-1.43a11,11,0,0,0,1.73.13h.9a22.34,22.34,0,0,0,.56-4,1.29,1.29,0,0,0,0-.25l1.52.15a9.65,9.65,0,0,0-.24,1.22c-.12.71-.29,1.66-.54,2.9Zm-1.59,1.17a36.67,36.67,0,0,1-1.64,5.33c1.13.78,1.51,1,2.18,1.54a19.41,19.41,0,0,0,1.6-6.87Zm3.44,2a7.35,7.35,0,0,0,.88,0l.74,0a30.47,30.47,0,0,0,2.56-7.52l1.59.4a16.57,16.57,0,0,0-.79,2.27c-.44,1.26-.86,2.28-2,4.76,3-.25,3.49-.29,6.13-.63a25.29,25.29,0,0,0-2.31-3.32l1.16-.58a35.78,35.78,0,0,1,3.78,6.06l-1.2.72c-.4-.88-.5-1.09-.86-1.81-3.4.46-4.28.57-8.06.91a5.16,5.16,0,0,0-1.32.21ZM446,139.3h-1.39a14.09,14.09,0,0,0,.09-1.87v-5a15.84,15.84,0,0,0-.09-2,16.05,16.05,0,0,0,1.87.08h5.17a15,15,0,0,0,2-.08,10.67,10.67,0,0,0-.11,1.36v5.27a11.39,11.39,0,0,0,.13,2.19h-1.45v-1.22H446Zm0-2.42h6.21v-5.12H446Z"/>
        <path class="cls-1" d="M462.09,122.86a15.88,15.88,0,0,0-.14,2.49,36.45,36.45,0,0,0,.54,6.53c.46,2.15,1.33,3.59,2.12,3.59.38,0,.74-.35,1.05-1.05a14.63,14.63,0,0,0,1.09-3.59A7.06,7.06,0,0,0,468,132c-1,3.68-2,5.08-3.48,5.08-1.18,0-2.27-1.17-3-3.19s-1-4.68-1.14-9.85a12.13,12.13,0,0,0-.06-1.24ZM472.24,124a18.24,18.24,0,0,1,3,4.79,20,20,0,0,1,1.57,5.6l-1.49.61A18.5,18.5,0,0,0,471,124.62Z"/>
        <path class="cls-1" d="M482.32,124.54a15.14,15.14,0,0,0,2.62.18c.42,0,.65,0,1.26,0a20.43,20.43,0,0,0,.46-3.86l1.66.17c-.12.5-.12.5-.38,2-.1.67-.16,1-.27,1.6a17.15,17.15,0,0,0,3.78-.72l.11,1.45a4.68,4.68,0,0,0-.59.11,30,30,0,0,1-3.55.5c-.32,1.66-.9,4-1.47,5.94a53.37,53.37,0,0,1-2.42,6.41l-1.53-.65A42.15,42.15,0,0,0,486,126c-.42,0-.67,0-1.45,0s-.92,0-1.74,0h-.09l-.35,0Zm9.38,7.62a7.34,7.34,0,0,0-.63.79,2.6,2.6,0,0,0-.52,1.5c0,1.26,1.28,1.93,3.67,1.93a15.53,15.53,0,0,0,4.64-.72l.15,1.58-.93.14a20.23,20.23,0,0,1-3.73.36c-3.45,0-5.23-1.07-5.23-3.15,0-.94.29-1.59,1.41-3Zm6.49-3.64a22.21,22.21,0,0,0-2.48-.14,18.44,18.44,0,0,0-5.25.71l-.14-1.43a24,24,0,0,1,5.56-.69c.4,0,.71,0,2.29.06Z"/>
        <path class="cls-1" d="M509.2,121.34a32.54,32.54,0,0,0-.28,4.43c-.08,2.52-.14,5.38-.14,6.32,0,.26,0,.78,0,1.26a3.28,3.28,0,0,0,1,2.52,4,4,0,0,0,2.63.82,6,6,0,0,0,5.63-3.65,12.5,12.5,0,0,0,1-3.3,5.84,5.84,0,0,0,1.52,1,12.85,12.85,0,0,1-2.33,4.77,7.37,7.37,0,0,1-5.93,2.62,5,5,0,0,1-3.94-1.47c-.86-1-1.16-2.1-1.16-4.3,0-1.41,0-1.93.19-8.55,0-.63,0-1,0-1.36a6.87,6.87,0,0,0-.08-1.12Z"/>
        <path class="cls-1" d="M542.54,137.51a16.7,16.7,0,0,0-4.28-3c-.36-.19-.84-.4-1.41-.63a6.25,6.25,0,0,1,0,.75,3.62,3.62,0,0,1-.52,2.29,4.24,4.24,0,0,1-3.55,1.33,5.5,5.5,0,0,1-3.25-.84,2.75,2.75,0,0,1-1.14-2.21c0-1.38,1.09-2.48,2.94-2.9a9.55,9.55,0,0,1,2.19-.21,9.2,9.2,0,0,1,1.89.17c0-.06,0-.06,0-.25a1.84,1.84,0,0,1,0-.23c0-.19,0-.63,0-1.24,0-.27,0-.67,0-1.22-.76,0-1.81,0-2.48,0-1.26,0-2.24,0-3.55-.14-.23,0-.39,0-.52,0h-.17l0-1.39a25.75,25.75,0,0,0,4.81.34c.55,0,1.28,0,1.87,0l0-2.88c-.61,0-1,0-1.43,0-1.53,0-3.23-.06-5.12-.21a2.76,2.76,0,0,0-.38,0,1.85,1.85,0,0,0-.3,0l0-1.43a26.14,26.14,0,0,0,5.37.42l1.83,0a15.22,15.22,0,0,0-.11-3h1.62a21.91,21.91,0,0,0-.15,3,29.63,29.63,0,0,0,6.22-.86l.1,1.43c-.36,0-.36,0-1.45.16a42.73,42.73,0,0,1-4.87.51c0,1.72,0,1.72,0,2.83a25.25,25.25,0,0,0,5.82-.86l.08,1.45c-.27,0-.48,0-1.21.15-1.45.23-3.11.4-4.67.5.05,1.18.05,1.18.13,3.21a18.47,18.47,0,0,1,5.86,3.07,7.45,7.45,0,0,0,.71.48Zm-7.09-4a7.71,7.71,0,0,0-2.15-.23c-2.07,0-3.44.76-3.44,1.87s1,1.74,2.88,1.74a3,3,0,0,0,2.31-.69,2.76,2.76,0,0,0,.42-1.89Z"/>
        <path class="cls-1" d="M559.09,122.08a7.41,7.41,0,0,0-.08-1.22h1.57a18.3,18.3,0,0,0-.1,2.63v.23c4,0,5.58-.07,6.27-.15v1.49a38.93,38.93,0,0,0-4-.1l-2.25,0v4.15a6.18,6.18,0,0,1,.5,2.48,6.75,6.75,0,0,1-2.81,5.48,13.48,13.48,0,0,1-3.32,1.7,4.67,4.67,0,0,0-.92-1.32,11.19,11.19,0,0,0,3.4-1.57,5.45,5.45,0,0,0,2.35-4.44,2.76,2.76,0,0,1-.57,1,3.51,3.51,0,0,1-6.09-2.18,3.5,3.5,0,0,1,3.72-3.46,3.23,3.23,0,0,1,2.44.94,9.38,9.38,0,0,1,0-1.15c0-.09,0-.3,0-.55V125c-4.22.08-8.46.29-9.86.52l-.07-1.53c.38,0,.53,0,.84,0,.61,0,.61,0,4-.12,2-.09,3.66-.13,5.08-.17Zm-.9,6.32a2.7,2.7,0,0,0-1.41-.34,2.23,2.23,0,0,0-2.33,2.21,2,2,0,0,0,2.16,2.08,2.36,2.36,0,0,0,2.46-2.48A1.51,1.51,0,0,0,558.19,128.4Z"/>
        <path class="cls-1" d="M577.49,135.94a3.15,3.15,0,1,1-3.15-3.15A3.15,3.15,0,0,1,577.49,135.94Zm-5.1,0a2,2,0,1,0,2-2A2,2,0,0,0,572.39,135.94Z"/>
        <path class="cls-1" d="M157.79,202.18a9.5,9.5,0,0,0-.12-1.93h1.57a11.32,11.32,0,0,0-.12,1.93v.59h3.46a9.34,9.34,0,0,0,1.74-.12v1.42a9.45,9.45,0,0,0-1.74-.12h-3.46v3.42c2-.34,2.66-.48,5.31-1.09v1.13c-2.88.69-5.23,1.18-7.39,1.56a10.81,10.81,0,0,0-1.62.33l-.23-1.45a17.19,17.19,0,0,0,2.6-.27Zm11.09,8a17.65,17.65,0,0,0,2.27-.1,18.29,18.29,0,0,0-.09,2.31v4.78a13.76,13.76,0,0,0,.13,2.1h-1.43v-1H159.58v1h-1.41a12.9,12.9,0,0,0,.13-2.1v-4.78a19.74,19.74,0,0,0-.09-2.31,17.31,17.31,0,0,0,2.25.1H163a8.71,8.71,0,0,0,.86-1.93l1.43.36a14,14,0,0,1-.86,1.57Zm-9.3,3.38h10.18v-2.27H159.58Zm0,3.59h10.18v-2.5H159.58Zm7.12-10.54c0,.63.21.7,2.49.7,1.85,0,2.46-.09,2.71-.36s.42-1.16.53-2.84a3.07,3.07,0,0,0,1.24.55c-.21,2.31-.46,3.11-1.07,3.48s-1.28.36-3.78.36c-2.88,0-3.45-.25-3.45-1.47V202.1a12.2,12.2,0,0,0-.12-1.85h1.57a8.58,8.58,0,0,0-.12,1.83v1.28a21.64,21.64,0,0,0,2.47-.82,14.24,14.24,0,0,0,3.3-1.59l.9,1.13c-1,.42-1,.42-2.16.92a32.76,32.76,0,0,1-4.51,1.51Z"/>
        <path class="cls-1" d="M180.64,202.39a13.16,13.16,0,0,0-.1-2.18H182a12.93,12.93,0,0,0-.11,2.16v2.06h.82a7.93,7.93,0,0,0,1.32-.08v1.28a12.84,12.84,0,0,0-1.32-.07H182a11.65,11.65,0,0,0,2,3.43,8.18,8.18,0,0,0-.74,1.13,14.31,14.31,0,0,1-1.36-2.94c.06,1.76.08,2.69.08,3.42V217a16,16,0,0,0,.13,2.43h-1.51a18.66,18.66,0,0,0,.12-2.43V211a17.63,17.63,0,0,1,.07-1.84c0-.13,0-.51.06-1,0-.17,0-.42,0-.78a17.42,17.42,0,0,1-1.34,4,18.24,18.24,0,0,1-1.39,2.38,5.19,5.19,0,0,0-.8-1.31,12.25,12.25,0,0,0,2-3.31,21.27,21.27,0,0,0,1.17-3.62h-1.09a9.31,9.31,0,0,0-1.47.09v-1.3a9,9,0,0,0,1.47.08h1.3Zm5.48,1.92a11,11,0,0,0-1.82.1v-1.32a11.32,11.32,0,0,0,1.84.1h1.12a10.54,10.54,0,0,0-1.37-2.31l1.11-.48a13.28,13.28,0,0,1,1.52,2.79H191a13.45,13.45,0,0,0,1.43-2.83l1.24.44c-.34.67-1,1.89-1.35,2.39h1.85a13,13,0,0,0,1.91-.12v1.36a12.78,12.78,0,0,0-1.91-.12H190.3v1.8h3.17a10.66,10.66,0,0,0,1.91-.13v1.39a12.4,12.4,0,0,0-1.89-.1H190.3v1.88h4.12a13.16,13.16,0,0,0,1.91-.12v1.36a13.25,13.25,0,0,0-1.89-.12h-4a11.26,11.26,0,0,0,1.72,3.15,11.47,11.47,0,0,0,2.29-2.71l1.07.75a16.46,16.46,0,0,1-2.63,2.86,11.91,11.91,0,0,0,4,2.94,5.54,5.54,0,0,0-.88,1.22,15,15,0,0,1-3.09-2.42,13.42,13.42,0,0,1-2.77-4.28,17,17,0,0,1,.17,2.08v3.95c0,1.13-.4,1.42-2,1.42a17,17,0,0,1-1.73-.08,3.27,3.27,0,0,0-.37-1.32,13.82,13.82,0,0,0,2.08.19c.6,0,.73-.09.73-.47v-3a28.26,28.26,0,0,1-4.45,2.71,8.52,8.52,0,0,0-1,.57l-.6-1.39a21.91,21.91,0,0,0,6-3.19v-3h-3.27a11.06,11.06,0,0,0-1.81.1v-1.3a14.89,14.89,0,0,0,1.83.08H189v-1.88h-2.33a11.11,11.11,0,0,0-1.83.1V206a10.72,10.72,0,0,0,1.79.1H189v-1.8Zm-.77,6.44a19.53,19.53,0,0,1,2,2.54l-1,.69a12.88,12.88,0,0,0-2-2.58Z"/>
        <path class="cls-1" d="M208.74,212.14c-1.22,2.77-2.46,4-4,4-2,0-3.48-2.19-3.48-5.13a8.52,8.52,0,0,1,9-8.58,8.13,8.13,0,0,1,5.78,2.08,7,7,0,0,1,2,5.12,7.64,7.64,0,0,1-4.81,7.24,16.34,16.34,0,0,1-3.19,1,3.38,3.38,0,0,0-.73-1.41,12.51,12.51,0,0,0,3.5-1,6.36,6.36,0,0,0,3.72-5.88,5.53,5.53,0,0,0-3.34-5.27,5.89,5.89,0,0,0-2.43-.53A31.93,31.93,0,0,1,208.74,212.14Zm-2.58-7.33a7.26,7.26,0,0,0-3.43,6.25c0,2,.89,3.58,2,3.58.88,0,1.72-1,2.62-3a28.71,28.71,0,0,0,1.91-7.77A6.61,6.61,0,0,0,206.16,204.81Z"/>
        <path class="cls-1" d="M228.63,210.29c-1.37,1.13-2,2.1-2,3.09s.61,1.65,1.79,2.05a13.06,13.06,0,0,0,3.84.42,20.1,20.1,0,0,0,6.3-.79l.19,1.72a6.74,6.74,0,0,0-.72.1,33.64,33.64,0,0,1-5.67.48,14.82,14.82,0,0,1-4.83-.65,3.34,3.34,0,0,1-2.39-3.17c0-1.36.8-2.68,2.42-4Zm-2.21-7.66a24.41,24.41,0,0,0,5.59.5,23.25,23.25,0,0,0,5.31-.44l.1,1.38a32.14,32.14,0,0,0-5.29,3.2l-1.07-.87a33.55,33.55,0,0,1,3.72-2.22,16.63,16.63,0,0,1-3.17.27,40.56,40.56,0,0,1-4.62-.27l-.69-.06Zm10.48,3.63a16.73,16.73,0,0,1,2.14,3.25l-1,.63a16.19,16.19,0,0,0-2.14-3.34Zm2.29-1.24a16.2,16.2,0,0,1,2.18,3.27l-1.05.59a17.39,17.39,0,0,0-2.14-3.29Z"/>
        <path class="cls-1" d="M257.06,209.34a20.93,20.93,0,0,0,2.5-4.8l1.3.52a32,32,0,0,1-2.33,4.28h3.11a12,12,0,0,0,2.31-.14v1.49a16.88,16.88,0,0,0-2.36-.13h-5.83a20.72,20.72,0,0,0,2.77,2.92A19.4,19.4,0,0,0,264.2,217a6,6,0,0,0-.91,1.3,22.9,22.9,0,0,1-5.29-3.57,19.35,19.35,0,0,1-3-3.53c.07,1.16.09,1.73.09,2.27v3.76a11.85,11.85,0,0,0,.14,2h-1.59a11.9,11.9,0,0,0,.15-2V213.5c0-.63,0-1,.08-2.25a17,17,0,0,1-3.95,4.52,24.19,24.19,0,0,1-3.76,2.56,5,5,0,0,0-.94-1.22A21.87,21.87,0,0,0,251.1,213a20.16,20.16,0,0,0,2.14-2.46h-5.48a19.87,19.87,0,0,0-2.31.13V209.2a15.09,15.09,0,0,0,2.29.14h6.09v-5.5h-5a20,20,0,0,0-2.25.13V202.5a15.71,15.71,0,0,0,2.29.15h5V202a11.23,11.23,0,0,0-.13-1.74h1.55a8.2,8.2,0,0,0-.12,1.74v.7h5.35a12.1,12.1,0,0,0,2.33-.15V204a17.05,17.05,0,0,0-2.29-.13h-5.39v5.5Zm-7.64-4.83a26,26,0,0,1,2.08,3.89l-1.18.61a19.6,19.6,0,0,0-2-3.95Z"/>
        <path class="cls-1" d="M270.48,202.75a15.65,15.65,0,0,0-.13-2.31h1.56a13.68,13.68,0,0,0-.13,2.33v2.9h.51a13,13,0,0,0,1.74-.08v1.34a17.28,17.28,0,0,0-1.74-.08h-.51v5.39a18.22,18.22,0,0,0,1.79-1.07l.08,1.26a37.39,37.39,0,0,1-4.37,2.37c-.33.15-.92.44-1.11.55l-.4-1.47a10.4,10.4,0,0,0,2.71-1v-6h-.9a16.06,16.06,0,0,0-1.79.1v-1.39a11,11,0,0,0,1.83.11h.86Zm5.9,9.6a13.57,13.57,0,0,1-3.53,2.79,3.74,3.74,0,0,0-.86-.95,10,10,0,0,0,4.87-4.43h-1.28a10.58,10.58,0,0,0-1.89.13v-1.37a9.76,9.76,0,0,0,1.93.13h9a11.24,11.24,0,0,0,2.08-.13v1.33a16.34,16.34,0,0,0-2.08-.09h-6.43a10,10,0,0,1-1,1.54h6.95a15,15,0,0,0,2.06-.09,7.58,7.58,0,0,0-.11,1.24,21.05,21.05,0,0,1-.92,5.61c-.38.75-.91,1-2.33,1-.49,0-1.18,0-1.83-.08a3.58,3.58,0,0,0-.42-1.37,14.4,14.4,0,0,0,2.5.24c.84,0,1-.17,1.26-1.43a25.3,25.3,0,0,0,.46-4h-1.41a12,12,0,0,1-1.87,3.17A21,21,0,0,1,279,218.1a15.71,15.71,0,0,1-1.7,1.17,3.57,3.57,0,0,0-1-1,13.42,13.42,0,0,0,4.11-3.19,10.21,10.21,0,0,0,1.72-2.75h-2.08a14.52,14.52,0,0,1-5.77,5.25,3,3,0,0,0-.9-1,12,12,0,0,0,5.31-4.26Zm.67-5.08a15.51,15.51,0,0,0-1.91.08,16.72,16.72,0,0,0,.09-1.89v-2.73a14.48,14.48,0,0,0-.09-1.85,12.71,12.71,0,0,0,2,.11h5.48a14.42,14.42,0,0,0,2.18-.11,16.15,16.15,0,0,0-.08,2v2.63a13,13,0,0,0,.08,1.87c-.46,0-1.11-.06-1.93-.06Zm-.59-3.66h7v-1.53h-7Zm0,2.63h7v-1.6h-7Z"/>
        <path class="cls-1" d="M296.83,203.59a8.64,8.64,0,0,0,1-2.88l1.68.3a4.16,4.16,0,0,0-.54,1.13c-.28.67-.55,1.24-.66,1.43l.45,0a29.6,29.6,0,0,0,6.61-.8l.13,1.43a6.59,6.59,0,0,0-.84.1,65.18,65.18,0,0,1-6.93.55,15.58,15.58,0,0,1-1.89,3,10,10,0,0,1-.72.8l-.27.21a0,0,0,0,1,0,0v0l0,.06,1-.73a5.59,5.59,0,0,1,3.17-1,2.55,2.55,0,0,1,2.77,2.33c1.53-.61,2.73-1.05,3.65-1.39a4.61,4.61,0,0,0,1.43-.6l.67,1.47a33.49,33.49,0,0,0-5.6,1.84c0,.55,0,.76,0,1.28,0,.28,0,.74,0,1.16s0,.75,0,.94a4.78,4.78,0,0,0,0,.76l-1.43,0c.06-.46.13-1.74.13-3a5.74,5.74,0,0,0,0-.63c-2.86,1.34-4,2.33-4,3.59s1.3,2,4.26,2a17.43,17.43,0,0,0,5.61-.82l.19,1.62a6.49,6.49,0,0,0-.84.11,33,33,0,0,1-5.11.42c-3.76,0-5.58-1.08-5.58-3.24,0-1.15.71-2.25,2.14-3.32a16.43,16.43,0,0,1,3.13-1.68c-.17-1.15-.67-1.65-1.66-1.65a7.87,7.87,0,0,0-4.68,2.22,7.09,7.09,0,0,0-1.62,1.74l-1.17-1.17a21,21,0,0,0,4.7-6l.19-.31a2.58,2.58,0,0,1-.4,0l-3.09-.06h-.33a4,4,0,0,0-.47,0l0-1.45a29.17,29.17,0,0,0,4.5.23Z"/>
        <path class="cls-1" d="M312.5,215.14a13.4,13.4,0,0,0,1.62-3.49,22.56,22.56,0,0,0,1.09-4.85l1.41.38a31.58,31.58,0,0,1-1.2,5.08,17.17,17.17,0,0,1-1.57,3.7Zm7.37,1.34c0,.65.48.78,2.92.78a9.68,9.68,0,0,0,2.69-.25c.42-.13.63-.46.77-1.22a19.63,19.63,0,0,0,.3-3.47,5.47,5.47,0,0,0,1.43.55c-.21,2.61-.4,3.76-.8,4.54-.51,1-1.26,1.17-4.52,1.17-3.61,0-4.2-.25-4.2-1.8V206.72a14.72,14.72,0,0,0-.14-2H320a10.88,10.88,0,0,0-.15,2Zm5.44-11.71a26.94,26.94,0,0,0-6.8-3.38l.82-1.16a32.39,32.39,0,0,1,6.92,3.3Zm5.44,10.6a32.4,32.4,0,0,0-1.56-4.39,23.62,23.62,0,0,0-1.93-3.71l1.24-.66a34.74,34.74,0,0,1,3.61,8Z"/>
        <path class="cls-1" d="M345.32,200.8a15.73,15.73,0,0,0-.12,2.77c0,.46,0,.69,0,2.18a21,21,0,0,0,6.15-.79l.19,1.55a10.59,10.59,0,0,0-1.26.15,36.58,36.58,0,0,1-5.06.46c.06,2,.17,4.07.27,5.42a18,18,0,0,1,5.61,3c.44.31.44.33,1,.65l-1,1.47a9.2,9.2,0,0,0-2.19-1.83,21.72,21.72,0,0,0-2.83-1.62,2.69,2.69,0,0,1-.5-.23,6.29,6.29,0,0,1,.08.91,3.75,3.75,0,0,1-.53,2.12,4.43,4.43,0,0,1-3.73,1.45c-2.71,0-4.37-1.18-4.37-3.11S339,212,342,212a8.72,8.72,0,0,1,1.83.19.93.93,0,0,0,.19,0s0,0,.1,0a.65.65,0,0,0,0-.19V212c-.16-2.42-.31-6.47-.33-9.47a8.82,8.82,0,0,0-.11-1.7ZM342,213.33c-2.14,0-3.44.76-3.44,2a1.48,1.48,0,0,0,.31.9,3.43,3.43,0,0,0,2.52.84,3.59,3.59,0,0,0,2.34-.69,2,2,0,0,0,.5-1.58c0-.31,0-1.15-.06-1.15A7.23,7.23,0,0,0,342,213.33Z"/>
        <path class="cls-1" d="M364,200.88a11.86,11.86,0,0,0-.48,2.17c-.34,2.12-.63,4.4-.69,5.47l.08,0,.15-.61a9.23,9.23,0,0,1,1.28-3.13c1.17-1.81,2.56-2.71,4.2-2.71a4,4,0,0,1,3.36,1.87,9.89,9.89,0,0,1-3.59,13.35,15.45,15.45,0,0,1-3.74,1.24,4.37,4.37,0,0,0-.84-1.43,11.09,11.09,0,0,0,4.26-1.32c2.46-1.41,3.61-3.61,3.61-7s-1.17-5.33-3.19-5.33c-1.6,0-2.94,1.19-4.14,3.65a11,11,0,0,0-1.13,4.68c0,.09,0,.19,0,.51l-1.51.06v-.23l0-.38,0-2.18v-.49a53.58,53.58,0,0,1,.71-7.74,4.48,4.48,0,0,0,.06-.68Z"/>
        <path class="cls-1" d="M391.65,205.29c-.25,0-.34.06-.63.13-1.72.35-2.73.52-3.72.63v3.63a14.8,14.8,0,0,1,4.52-.76,7.05,7.05,0,0,1,3.71.89,4.21,4.21,0,0,1,2.17,3.71,4.25,4.25,0,0,1-4.29,4.35,3.09,3.09,0,0,1-3.23-2.37,7.74,7.74,0,0,1-.25-2.38,4.37,4.37,0,0,0,1.38-.54,6.51,6.51,0,0,0,0,.82c0,2.18.63,3.08,2.16,3.08a2.79,2.79,0,0,0,2.82-3c0-2.06-1.75-3.34-4.5-3.34a14.42,14.42,0,0,0-4.45.82v5.25c0,1.14-.5,1.68-1.53,1.68a5.51,5.51,0,0,1-3.46-1.34,2.52,2.52,0,0,1-1-2,3.79,3.79,0,0,1,1.66-2.79,11.27,11.27,0,0,1,3-1.72v-4l-.84.06c-.38,0-.74,0-1.35,0-.31,0-.88,0-1.11,0h-.86v-1.38a12.35,12.35,0,0,0,2.14.15c.57,0,1.39,0,2-.07v-2.08a13,13,0,0,0-.11-2h1.56a11.28,11.28,0,0,0-.11,2v2a21.62,21.62,0,0,0,4.28-.9ZM386,211.48c-2.08,1-3.26,2.15-3.26,3.16,0,.44.3.86.91,1.26a4,4,0,0,0,1.87.6c.42,0,.48-.12.48-1Zm11.53-3.94a17.35,17.35,0,0,0-4.25-4.12l1.1-.82a17.91,17.91,0,0,1,4.24,4Z"/>
        <path class="cls-1" d="M405.26,211.84c0-.86,0-1.47.06-2.41a9.85,9.85,0,0,1-2.06,2.14,4.23,4.23,0,0,0-.77-1.18,14.4,14.4,0,0,0,4.76-5.73l1.24.74c-.17.23-.25.33-.59.86a14.28,14.28,0,0,1-1.32,1.89v8.65a16.87,16.87,0,0,0,.11,2.45h-1.56a23.19,23.19,0,0,0,.13-2.45Zm3.17-11c-.15.17-.15.17-.82,1a19.28,19.28,0,0,1-4.05,3.65,4.42,4.42,0,0,0-.84-1.07,12.22,12.22,0,0,0,4.53-4.37Zm2.81,3a14.12,14.12,0,0,0-1.95.1V202.6a11.26,11.26,0,0,0,2,.13h2.8v-.84a11.5,11.5,0,0,0-.13-1.7h1.55a11,11,0,0,0-.1,1.7v.84h3.13a11.67,11.67,0,0,0,2-.13V204a14.25,14.25,0,0,0-2-.1h-3.15v2.77h3.92a14.85,14.85,0,0,0,2.12-.13v1.41a13.52,13.52,0,0,0-2.09-.13h-.87v2.48h.87a13,13,0,0,0,2.09-.13v1.43a14.7,14.7,0,0,0-2.09-.13h-.87v5.95c0,.73-.23,1.21-.69,1.38a6.47,6.47,0,0,1-1.87.21c-.5,0-1.19,0-1.93-.08a5.25,5.25,0,0,0-.33-1.43,19.59,19.59,0,0,0,2.22.25c1.14,0,1.26,0,1.26-.5v-5.78H410.4a14.76,14.76,0,0,0-2.06.13v-1.43a12.41,12.41,0,0,0,2,.13h6.74v-2.48h-6.59a12.64,12.64,0,0,0-2,.13v-1.41a13.34,13.34,0,0,0,2,.13h3.53v-2.77Zm1.93,12.7A16.33,16.33,0,0,0,410,213l1-.78a26.73,26.73,0,0,1,3.3,3.53Z"/>
        <path class="cls-1" d="M426.83,204.09a18.66,18.66,0,0,0,4.53.36,16.32,16.32,0,0,0,.67-3.76l1.68.17a12.93,12.93,0,0,0-.33,1.35c-.3,1.21-.36,1.46-.57,2.22,4.11-.15,6.91-.44,8.27-.9l.11,1.51c-.36,0-.49,0-.93.11a71,71,0,0,1-7.79.6,28.45,28.45,0,0,1-2.1,5.4l0,0a10.8,10.8,0,0,1,6.11-1.76c3.32,0,5.44,1.51,5.44,3.86,0,2.86-2.79,4.73-7,4.73a15.9,15.9,0,0,1-5.19-.82,2.53,2.53,0,0,0,0-.34v-.13c0-.1,0-.48-.1-1.15a12.89,12.89,0,0,0,5.25,1c3.31,0,5.5-1.32,5.5-3.34,0-1.59-1.51-2.56-4-2.56a11.44,11.44,0,0,0-4.87,1.13,4.42,4.42,0,0,0-1.77,1.35l-1.51-.61a31.66,31.66,0,0,0,2.81-6.85c-1.34,0-2.26-.06-3.48-.14-.27,0-.46,0-.59,0h-.17Z"/>
        <path class="cls-1" d="M453.5,201.34a30.85,30.85,0,0,0-.28,4.43c-.08,2.52-.14,5.38-.14,6.32,0,.26,0,.78,0,1.26a3.28,3.28,0,0,0,1,2.52,4,4,0,0,0,2.63.82,6,6,0,0,0,5.62-3.65,12.13,12.13,0,0,0,1-3.3,5.84,5.84,0,0,0,1.52,1,12.85,12.85,0,0,1-2.33,4.77,7.38,7.38,0,0,1-5.93,2.62,5,5,0,0,1-3.94-1.47c-.86-1-1.16-2.1-1.16-4.3,0-1.41,0-1.93.19-8.55,0-.63,0-1,0-1.36a6.87,6.87,0,0,0-.08-1.12Z"/>
        <path class="cls-1" d="M471.37,203.86h.75c.3,0,.55,0,1.2-.06,2.5-.19,9.22-.57,11.93-.69a14.3,14.3,0,0,0,2.49-.23l.13,1.57a9.69,9.69,0,0,0-2.35.28,10.44,10.44,0,0,0-4,2.12,6.4,6.4,0,0,0-2.59,4.85,4.11,4.11,0,0,0,2.94,3.88,10.68,10.68,0,0,0,3.15.67h.21l-.27,1.7-.65-.12a10.65,10.65,0,0,1-4.54-1.62,5.11,5.11,0,0,1-2.33-4.28c0-2.44,1.43-4.77,3.93-6.45a14.36,14.36,0,0,1,2-1.11,41.31,41.31,0,0,1-4.62.46,61.36,61.36,0,0,0-7.24.69Z"/>
        <path class="cls-1" d="M504.21,205.29c-.25,0-.34.06-.63.13-1.72.35-2.73.52-3.72.63v3.63a14.8,14.8,0,0,1,4.52-.76,7.05,7.05,0,0,1,3.71.89,4.2,4.2,0,0,1,2.16,3.71,4.24,4.24,0,0,1-4.28,4.35,3.09,3.09,0,0,1-3.23-2.37,7.74,7.74,0,0,1-.25-2.38,4.37,4.37,0,0,0,1.38-.54,6.51,6.51,0,0,0,0,.82c0,2.18.63,3.08,2.16,3.08a2.79,2.79,0,0,0,2.82-3c0-2.06-1.75-3.34-4.5-3.34a14.42,14.42,0,0,0-4.45.82v5.25c0,1.14-.5,1.68-1.53,1.68a5.55,5.55,0,0,1-3.47-1.34,2.54,2.54,0,0,1-1-2,3.79,3.79,0,0,1,1.66-2.79,11.27,11.27,0,0,1,3-1.72v-4l-.84.06c-.38,0-.74,0-1.35,0-.31,0-.88,0-1.11,0h-.86v-1.38a12.35,12.35,0,0,0,2.14.15c.57,0,1.39,0,2-.07v-2.08a13,13,0,0,0-.11-2H500a11.28,11.28,0,0,0-.11,2v2a21.9,21.9,0,0,0,4.29-.9Zm-5.69,6.19c-2.08,1-3.26,2.15-3.26,3.16,0,.44.3.86.91,1.26a4,4,0,0,0,1.87.6c.42,0,.48-.12.48-1ZM510,207.54a17.14,17.14,0,0,0-4.24-4.12l1.1-.82a17.91,17.91,0,0,1,4.24,4Z"/>
        <path class="cls-1" d="M521.56,200.88a11.62,11.62,0,0,0-.49,2.17c-.33,2.12-.63,4.4-.69,5.47l.08,0c0-.17,0-.17.15-.61a9.23,9.23,0,0,1,1.28-3.13c1.18-1.81,2.56-2.71,4.2-2.71a3.94,3.94,0,0,1,3.36,1.87,9.89,9.89,0,0,1-3.59,13.35,15.45,15.45,0,0,1-3.74,1.24,4.2,4.2,0,0,0-.84-1.43,11,11,0,0,0,4.26-1.32c2.46-1.41,3.62-3.61,3.62-7s-1.18-5.33-3.2-5.33c-1.59,0-2.93,1.19-4.13,3.65a10.88,10.88,0,0,0-1.14,4.68,4.68,4.68,0,0,0,0,.51l-1.52.06v-.23l0-.38,0-2.18v-.49a53.58,53.58,0,0,1,.71-7.74,3.56,3.56,0,0,0,.07-.68Z"/>
        <path class="cls-1" d="M554.38,217.51a16.77,16.77,0,0,0-4.29-3c-.35-.19-.84-.4-1.4-.63a6.31,6.31,0,0,1,0,.76,3.6,3.6,0,0,1-.53,2.28,4.23,4.23,0,0,1-3.54,1.33,5.51,5.51,0,0,1-3.26-.84,2.77,2.77,0,0,1-1.13-2.21c0-1.38,1.09-2.48,2.94-2.9a9.51,9.51,0,0,1,2.18-.21,9.9,9.9,0,0,1,1.89.17c0-.06,0-.06,0-.25a1.84,1.84,0,0,1,0-.23c0-.19,0-.63,0-1.24,0-.27,0-.67-.05-1.22-.75,0-1.8,0-2.47,0-1.26,0-2.25,0-3.55-.14-.23,0-.4,0-.53,0h-.17l0-1.39a25.55,25.55,0,0,0,4.8.34c.55,0,1.28,0,1.87,0l0-2.88c-.61,0-.94,0-1.43,0-1.53,0-3.23-.06-5.12-.21a2.69,2.69,0,0,0-.38,0,1.74,1.74,0,0,0-.29,0l0-1.43a25.5,25.5,0,0,0,5.37.42l1.83,0a17.18,17.18,0,0,0-.1-3h1.61a24.59,24.59,0,0,0-.14,3,29.51,29.51,0,0,0,6.21-.86l.11,1.43c-.36,0-.36,0-1.45.16a43,43,0,0,1-4.87.51c0,1.72,0,1.72,0,2.83a25.24,25.24,0,0,0,5.81-.86l.09,1.45c-.28,0-.48,0-1.22.15-1.45.23-3.11.4-4.66.5,0,1.18,0,1.18.12,3.21a18.36,18.36,0,0,1,5.86,3.07,7.46,7.46,0,0,0,.72.48Zm-7.1-4a7.68,7.68,0,0,0-2.14-.23c-2.08,0-3.45.76-3.45,1.87s1.06,1.74,2.88,1.74a3,3,0,0,0,2.31-.69,2.76,2.76,0,0,0,.42-1.89Z"/>
        <path class="cls-1" d="M570.92,202.08a7.41,7.41,0,0,0-.08-1.22h1.58a16.39,16.39,0,0,0-.11,2.63v.23c4,0,5.59-.07,6.28-.15v1.49a39.18,39.18,0,0,0-4-.1l-2.25,0v4.15a6,6,0,0,1,.51,2.48,6.74,6.74,0,0,1-2.82,5.48,13.06,13.06,0,0,1-3.31,1.7,4.68,4.68,0,0,0-.93-1.32,10.63,10.63,0,0,0,3.4-1.57,5.42,5.42,0,0,0,2.35-4.44,2.9,2.9,0,0,1-.56,1,3.51,3.51,0,0,1-6.09-2.18,3.49,3.49,0,0,1,3.71-3.46,3.23,3.23,0,0,1,2.44.94c0-.29,0-.38,0-1.15,0-.09,0-.3,0-.55V205c-4.22.08-8.46.29-9.87.52l-.06-1.53c.37,0,.52,0,.84,0,.61,0,.61,0,4-.12,2-.09,3.65-.13,5.08-.17Zm-.9,6.32a2.69,2.69,0,0,0-1.4-.34,2.22,2.22,0,0,0-2.33,2.21,2,2,0,0,0,2.16,2.08,2.35,2.35,0,0,0,2.45-2.48A1.51,1.51,0,0,0,570,208.4Z"/>
        <path class="cls-1" d="M589.32,215.94a3.15,3.15,0,1,1-3.15-3.15A3.14,3.14,0,0,1,589.32,215.94Zm-5.1,0a2,2,0,1,0,1.95-2A2,2,0,0,0,584.22,215.94Z"/>
      </g>
    </g>
  </g>
</svg>
