<svg xmlns="http://www.w3.org/2000/svg" width="582.26" height="139.76" viewBox="0 0 582.26 139.76">
  <defs>
    <style>
      .cls-1 {
        fill: #fff;
      }
    </style>
  </defs>
  <g id="レイヤー_2" data-name="レイヤー 2">
    <g id="レイヤー_2-2" data-name="レイヤー 2">
      <g>
        <path class="cls-1" d="M5.71,10.73c-1.36,1.13-2,2.1-2,3.09s.61,1.65,1.78,2a13.11,13.11,0,0,0,3.84.42,20,20,0,0,0,6.3-.79l.19,1.72a7,7,0,0,0-.71.1,33.73,33.73,0,0,1-5.67.48,14.78,14.78,0,0,1-4.83-.65A3.33,3.33,0,0,1,2.23,14c0-1.36.79-2.68,2.41-4.05ZM3.51,3.07a24.38,24.38,0,0,0,5.58.5,23.13,23.13,0,0,0,5.31-.44l.11,1.38a31.73,31.73,0,0,0-5.29,3.2L8.15,6.84a33.49,33.49,0,0,1,3.71-2.22,16.56,16.56,0,0,1-3.17.27,40.69,40.69,0,0,1-4.62-.27l-.69-.06ZM14,6.7A15.86,15.86,0,0,1,16.12,10l-1,.63a16.62,16.62,0,0,0-2.15-3.34Zm2.29-1.24a16.25,16.25,0,0,1,2.19,3.27l-1.05.59A18,18,0,0,0,15.26,6Z"/>
        <path class="cls-1" d="M34.14,9.78A20.17,20.17,0,0,0,36.64,5l1.3.52a29.93,29.93,0,0,1-2.33,4.28h3.11A11.82,11.82,0,0,0,41,9.64v1.49A16.63,16.63,0,0,0,38.68,11H32.84a22,22,0,0,0,2.77,2.92,19.4,19.4,0,0,0,5.67,3.55,5.65,5.65,0,0,0-.9,1.3,22.69,22.69,0,0,1-5.29-3.57,19,19,0,0,1-3-3.53c.06,1.16.08,1.73.08,2.27V17.7a10.83,10.83,0,0,0,.15,2h-1.6a11,11,0,0,0,.15-2V13.94c0-.63,0-1,.08-2.24a17.1,17.1,0,0,1-3.94,4.51,24.67,24.67,0,0,1-3.76,2.56,5.08,5.08,0,0,0-.95-1.22,21.71,21.71,0,0,0,5.84-4.09A18.55,18.55,0,0,0,30.32,11H24.84a19.87,19.87,0,0,0-2.31.13V9.64a15.26,15.26,0,0,0,2.29.14h6.09V4.28h-5a19.72,19.72,0,0,0-2.24.13V2.94a15.47,15.47,0,0,0,2.28.15h5v-.7A10.12,10.12,0,0,0,30.78.65h1.56a7.54,7.54,0,0,0-.13,1.74v.7h5.36a12.25,12.25,0,0,0,2.33-.15V4.41a17.05,17.05,0,0,0-2.29-.13h-5.4v5.5ZM26.5,5a25.34,25.34,0,0,1,2.08,3.88l-1.18.61a20.1,20.1,0,0,0-2-3.95Z"/>
        <path class="cls-1" d="M47.56,3.19A17.55,17.55,0,0,0,47.44.88H49a15,15,0,0,0-.12,2.33v2.9h.5A12.93,12.93,0,0,0,51.11,6V7.37a17.15,17.15,0,0,0-1.74-.08h-.5v5.39a18.18,18.18,0,0,0,1.78-1.07l.08,1.26a36.49,36.49,0,0,1-4.36,2.37c-.34.15-.93.44-1.12.55l-.39-1.47a10.52,10.52,0,0,0,2.7-1v-6h-.9a15.73,15.73,0,0,0-1.78.1V6a10.9,10.9,0,0,0,1.82.11h.86Zm5.9,9.6a13.35,13.35,0,0,1-3.52,2.79,3.94,3.94,0,0,0-.86-.95A10,10,0,0,0,54,10.2H52.67a10.58,10.58,0,0,0-1.89.13V9a9.7,9.7,0,0,0,1.93.13h9A11.24,11.24,0,0,0,63.75,9v1.33a16.15,16.15,0,0,0-2.08-.09H55.25a10.05,10.05,0,0,1-1,1.54h6.95a14.87,14.87,0,0,0,2.06-.09,10.17,10.17,0,0,0-.1,1.24,20.94,20.94,0,0,1-.93,5.61c-.38.75-.9,1-2.33,1-.48,0-1.17,0-1.83-.08A3.41,3.41,0,0,0,57.68,18a14.49,14.49,0,0,0,2.5.24c.84,0,1-.17,1.26-1.43a25.3,25.3,0,0,0,.46-4H60.5A12.29,12.29,0,0,1,58.63,16a22.45,22.45,0,0,1-2.58,2.58,16.79,16.79,0,0,1-1.7,1.17,3.76,3.76,0,0,0-1-1,13.47,13.47,0,0,0,4.12-3.19,10.47,10.47,0,0,0,1.72-2.75H57.14A14.62,14.62,0,0,1,51.36,18a3,3,0,0,0-.9-1,11.87,11.87,0,0,0,5.31-4.26Zm.68-5.08a15.51,15.51,0,0,0-1.91.08,17,17,0,0,0,.08-1.89V3.17a14.94,14.94,0,0,0-.08-1.85,12.65,12.65,0,0,0,2,.11h5.48a14.27,14.27,0,0,0,2.18-.11,16.23,16.23,0,0,0-.08,2V5.9a13,13,0,0,0,.08,1.87c-.46,0-1.11-.06-1.93-.06Zm-.59-3.66h7V2.52h-7Zm0,2.63h7V5.08h-7Z"/>
        <path class="cls-1" d="M69.66,12.6c0-.72,0-1.2,0-1.49s0-.15,0-1.33a10,10,0,0,1-2.08,2.08,3.5,3.5,0,0,0-.78-1.15A14.63,14.63,0,0,0,70.52,7a9.55,9.55,0,0,0,1.24-2.14L73,5.63a7.68,7.68,0,0,0-.61.92A14.66,14.66,0,0,1,71,8.46v8.67c0,1.09,0,1.87.1,2.5H69.53a18.11,18.11,0,0,0,.13-2.43ZM72.74,1.28l-.48.63A16.69,16.69,0,0,1,68.08,6a3,3,0,0,0-.84-1A11.27,11.27,0,0,0,71.57.5Zm6.68,0A8.18,8.18,0,0,0,78.9,2a25.32,25.32,0,0,1-2.34,2.84c.87.73,1.18,1,1.89,1.7a20.77,20.77,0,0,0,3.36-4.26L83.14,3c-.21.24-.34.38-.84,1A45.82,45.82,0,0,1,77.78,8.8c2.92-.17,2.92-.17,5.61-.42a23,23,0,0,0-1.64-1.81l1-.67a41.25,41.25,0,0,1,3.63,4.37L85.28,11c-.57-.84-.74-1.09-1.16-1.68-3.59.4-3.59.4-5.9.55a13.06,13.06,0,0,1-1,1.64h4a11.22,11.22,0,0,0,1.73-.11l.86.8a4.81,4.81,0,0,0-.49.63,15.68,15.68,0,0,1-3,3.13,17.73,17.73,0,0,0,6.17,2.24,8.36,8.36,0,0,0-.69,1.33A19.27,19.27,0,0,1,81,17.83a11.5,11.5,0,0,1-1.85-1.08,18.69,18.69,0,0,1-6.68,2.86,3.86,3.86,0,0,0-.8-1.22A17.66,17.66,0,0,0,78.14,16a13.52,13.52,0,0,1-2.42-2.63,14,14,0,0,1-2.87,2.31,5.19,5.19,0,0,0-.95-1A11.4,11.4,0,0,0,76.84,10l-3.3.17a5.86,5.86,0,0,0-1,.11L72.3,8.86a10.11,10.11,0,0,0,1.51.08c.38,0,.38,0,2.25-.06,1.13-1.07,1.13-1.07,1.51-1.45A32.7,32.7,0,0,0,73.37,4l.91-1,1.38,1.07a13.11,13.11,0,0,0,2.5-3.5ZM76.59,12.6a11.73,11.73,0,0,0,2.6,2.66,10.87,10.87,0,0,0,2.67-2.66Z"/>
        <path class="cls-1" d="M97.61,18a15.71,15.71,0,0,0-2.31.1,9.42,9.42,0,0,1,.61-2.77,9.09,9.09,0,0,1,2.73-3.61,27.51,27.51,0,0,1,3.21-2.31c2.08-1.41,2.77-2.33,2.77-3.61,0-1.6-1.34-2.63-3.49-2.63a3.46,3.46,0,0,0-3,1.37,4.15,4.15,0,0,0-.73,2.12l-1.77-.3a5.78,5.78,0,0,1,1.32-3,5.39,5.39,0,0,1,4.22-1.62c3.18,0,5.21,1.6,5.21,4.08a4.37,4.37,0,0,1-1.24,3,16.65,16.65,0,0,1-3.57,2.71,11.49,11.49,0,0,0-3,2.58,6,6,0,0,0-1.2,2.43H104a19.23,19.23,0,0,0,2.56-.14v1.76A24.73,24.73,0,0,0,104,18Z"/>
        <path class="cls-1" d="M115.75,9.05a9.09,9.09,0,0,0,1.64.1h1.09a10.52,10.52,0,0,0,1.62-.1,14.76,14.76,0,0,0-.11,2.23v4.13a3.18,3.18,0,0,0,1,1.37c1.11.88,2.37,1.17,4.91,1.17a69.57,69.57,0,0,0,9.14-.42,5,5,0,0,0-.49,1.51c-2.26.11-4.55.15-7,.15-3.59,0-4.81-.15-6-.73a5.09,5.09,0,0,1-2.2-2,22.05,22.05,0,0,1-2.46,2.18c-.29.24-.31.24-.75.61l-.74-1.32a13.94,13.94,0,0,0,3.36-2.54V10.33h-1.38a7.86,7.86,0,0,0-1.56.11Zm1.39-7.9a27.45,27.45,0,0,1,3.38,3.72l-1.07,1A20.06,20.06,0,0,0,116.17,2Zm6.32,2.4a69.3,69.3,0,0,1-.4,9.05A13.5,13.5,0,0,1,122,16.42a3.8,3.8,0,0,0-1.16-.8A12.12,12.12,0,0,0,122,11.17a72.16,72.16,0,0,0,.25-7.45,16.65,16.65,0,0,0-.13-2.4,15,15,0,0,0,2,.09h7.58a14.2,14.2,0,0,0,2-.09,16.78,16.78,0,0,0-.08,2V15.08c0,1.19-.5,1.53-2.23,1.53-.58,0-1.21,0-1.8,0a3.81,3.81,0,0,0-.27-1.31,16.14,16.14,0,0,0,2.35.17c.56,0,.69-.12.69-.61V2.54h-8.9Zm3.71,2.06h-.9a16.38,16.38,0,0,0-1.87.08V4.49a15.28,15.28,0,0,0,1.89.11h.88a8.12,8.12,0,0,0-.1-1.58h1.36a7.57,7.57,0,0,0-.1,1.58h1.11a14.28,14.28,0,0,0,1.83-.11v1.2a14.89,14.89,0,0,0-1.83-.08h-1.11V7.47H130a10.91,10.91,0,0,0,1.87-.1V8.61A12.11,12.11,0,0,0,130,8.5h-4.24a13.14,13.14,0,0,0-1.89.11V7.37a11.33,11.33,0,0,0,1.89.1h1.38Zm-2.49,9.59a9.9,9.9,0,0,0,.08-1.53V11.06c0-.48,0-.86-.06-1.34.37,0,.9.06,1.4.06h3.28a13.64,13.64,0,0,0,1.47-.06c0,.46-.06.8-.06,1.26v2.1a8.84,8.84,0,0,0,.06,1.13,13,13,0,0,0-1.35-.06h-3.61v1Zm1.21-2.1h3.78V10.81h-3.78Z"/>
        <path class="cls-1" d="M140.47,17.3a15.75,15.75,0,0,0,.12,2.35H139a16.07,16.07,0,0,0,.13-2.35V3.74a21,21,0,0,0-.09-2.31,20.54,20.54,0,0,0,2.21.08h3a19.32,19.32,0,0,0,2.14-.08c0,.59-.06,1.22-.06,2V6c0,.84,0,1.42.06,2-.57,0-1.28-.06-2.12-.06h-3.84Zm0-13.08h4.7V2.54h-4.7Zm0,2.69h4.7V5.21h-4.7Zm11,8c0,.79,0,1.36.06,1.91-.58-.05-1.28-.07-2.14-.07h-4.6v1.47h-1.3a12,12,0,0,0,.11-2V11.55c0-.76,0-1.37-.07-2a17.14,17.14,0,0,0,2.08.09h3.85a16.76,16.76,0,0,0,2.07-.09c0,.59-.06,1.14-.06,2Zm-6.68-2.29h5.48V10.71h-5.48Zm0,3.08h5.48v-2h-5.48Zm11.26,2c0,1.38-.44,1.74-2.14,1.74-.44,0-1.58,0-2.1-.09a5,5,0,0,0-.38-1.34,21.79,21.79,0,0,0,2.31.21c.86,0,1-.1,1-.61V7.92h-4.31c-.88,0-1.55,0-2.12.06,0-.55.07-1.18.07-1.95V3.42c0-.73,0-1.36-.07-2a19.09,19.09,0,0,0,2.14.08H154a20.33,20.33,0,0,0,2.2-.08,20.81,20.81,0,0,0-.1,2.31Zm-6.45-13.4h5.17V2.54h-5.17Zm0,2.69h5.17V5.21h-5.17Z"/>
        <path class="cls-1" d="M163,3.61a12.71,12.71,0,0,0-.16-2.2h1.68a12.57,12.57,0,0,0-.13,2v.25l.1,10.65c1.16-.46,1.85-.78,2.75-1.22a26.61,26.61,0,0,0,3.22-1.76l.27,1.3a48,48,0,0,1-8.23,3.92,9.34,9.34,0,0,0-1.24.53l-.46-1.53a18.47,18.47,0,0,0,2.31-.7Zm14.53-2.22a18.55,18.55,0,0,0-.17,2.07A31.65,31.65,0,0,1,176.46,9a15.34,15.34,0,0,1-1.68,3.82,13.37,13.37,0,0,0,5.14,5.31,5.13,5.13,0,0,0-.94,1.34,15.17,15.17,0,0,1-3.23-2.91A14.76,14.76,0,0,1,174,14.05a16.8,16.8,0,0,1-7.68,5.6,4.32,4.32,0,0,0-.9-1.26,18,18,0,0,0,4.19-2.08A13.47,13.47,0,0,0,175.33,8,23,23,0,0,0,176,2.44a8.55,8.55,0,0,0-.06-1.1ZM168.4,2.83a31.85,31.85,0,0,1,4.07,5l-1.26.88a23.85,23.85,0,0,0-4-5.12Z"/>
        <path class="cls-1" d="M193.11,5c0,.4-.06.54-.12.9a12.44,12.44,0,0,0,2.12,3.72A14.09,14.09,0,0,0,199.27,13a4.58,4.58,0,0,0-.93,1.21,14.29,14.29,0,0,1-5.77-6.38,9.81,9.81,0,0,1-1.18,2.65A12,12,0,0,1,187,14.36a4.21,4.21,0,0,0-.95-1.07,10.87,10.87,0,0,0,3.63-2.81A9.83,9.83,0,0,0,191.77,5h-6.05V17.26a14.5,14.5,0,0,0,.11,2.33h-1.64a14,14,0,0,0,.15-2.33V5.54a14.27,14.27,0,0,0-.09-1.89,15.37,15.37,0,0,0,2.08.11h5.57c0-.72,0-1,0-1.74A6.88,6.88,0,0,0,191.79.5h1.64A5.85,5.85,0,0,0,193.28,2c0,.94,0,1.23-.06,1.74H199a15.54,15.54,0,0,0,2.12-.11A15.79,15.79,0,0,0,201,5.5V17.64c0,1.32-.44,1.57-2.67,1.57-.69,0-1.53,0-2.39-.1a4.73,4.73,0,0,0-.34-1.45,15.22,15.22,0,0,0,2.88.27c1,0,1.13-.06,1.13-.55V5Z"/>
        <path class="cls-1" d="M210.4,2a27.62,27.62,0,0,0-.88,3.36,31,31,0,0,0-.63,6.57c0,1.64,0,2.87.12,4a20.13,20.13,0,0,1,1.37-4.1l1,.49a18.32,18.32,0,0,0-1.7,5.77v.31l-1.51.13c0-.34-.06-.44-.12-.84a30,30,0,0,1-.55-5.94,34.45,34.45,0,0,1,.95-8.32,11.08,11.08,0,0,0,.29-1.67Zm5.35,8.44a4.85,4.85,0,0,0-1.57,3.08c0,1.56,1.32,2.31,4,2.31a13.91,13.91,0,0,0,4.83-.73l.21,1.61c-.28,0-.32.05-.74.11a21.9,21.9,0,0,1-4.3.42c-2.4,0-3.91-.5-4.81-1.6a3,3,0,0,1-.63-1.93,5.8,5.8,0,0,1,1.83-3.9Zm-2.66-6.22a14.2,14.2,0,0,0,3.56.32A22.35,22.35,0,0,0,222.28,4l.11,1.49-1.45.19a35.2,35.2,0,0,1-4.52.27,27.5,27.5,0,0,1-3.36-.21Z"/>
        <path class="cls-1" d="M229.24,14a21.64,21.64,0,0,1,4.22,4.45l-1.18,1.12A20.56,20.56,0,0,0,228.14,15Z"/>
        <path class="cls-1" d="M257,12.26a22.86,22.86,0,0,0,.14-3,14.4,14.4,0,0,0-1.72.08v-1a17.38,17.38,0,0,1-4.07,2.42,3.76,3.76,0,0,0-.84-1.09,15.59,15.59,0,0,0,4.79-2.86A18.52,18.52,0,0,0,252.13,4l1-.82a29.19,29.19,0,0,1,3.11,2.71,13.78,13.78,0,0,0,2.65-3.28h-4a9.88,9.88,0,0,0-1.37.11V1.39a9.3,9.3,0,0,0,1.51.1h4a13.34,13.34,0,0,0,1.87-.08,6.17,6.17,0,0,0,1.62,2.85,12.86,12.86,0,0,0,2.18-2.69l1.16.76a3,3,0,0,0-.44.48,19.69,19.69,0,0,1-2.17,2.27c.59.59,1.1,1,1.79,1.64a14.25,14.25,0,0,0,2.5-2.9l1.15.76-1,1.11a17.75,17.75,0,0,1-1.74,1.7,15.49,15.49,0,0,0,3.95,2.08,4.89,4.89,0,0,0-.82,1.22,20.23,20.23,0,0,1-4-2.38v1a15.56,15.56,0,0,0-1.79-.08h-.35v3h3.73a14.19,14.19,0,0,0,2.1-.12v1.42a15.16,15.16,0,0,0-2.1-.12h-3.73v4c0,.33.08.46.42.56a6.59,6.59,0,0,0,1.61.13c1.64,0,2.23-.11,2.52-.44a5.12,5.12,0,0,0,.55-2.37,3.54,3.54,0,0,0,1.34.6,5.42,5.42,0,0,1-.92,2.78c-.44.5-1.37.67-3.63.67-2.61,0-3.19-.3-3.19-1.58V13.44h-3.51a7.16,7.16,0,0,1-1.49,3.29,9.64,9.64,0,0,1-2.39,2,11.28,11.28,0,0,1-2.1,1,5,5,0,0,0-1-1.19A10,10,0,0,0,254.35,17a5.46,5.46,0,0,0,2.44-3.57h-3.11a15.25,15.25,0,0,0-2.08.12V12.14a14.26,14.26,0,0,0,2.08.12Zm6.21-4.16A14.19,14.19,0,0,0,264.7,8a15.91,15.91,0,0,1-4.51-5.23A19,19,0,0,1,255.74,8c.48,0,.84.06,1.57.06Zm-4.74,1.14a25.73,25.73,0,0,1-.15,3h3.3v-3Z"/>
        <path class="cls-1" d="M277.72,2A6.7,6.7,0,0,0,277.6.67H279A6.25,6.25,0,0,0,278.9,2v.44h1.87a7.85,7.85,0,0,0,1.57-.11V3.59a11.06,11.06,0,0,0-1.49-.08h-2V5.19h2.46a13.76,13.76,0,0,0,1.57-.07V6.28a14.14,14.14,0,0,0-1.55-.07h-.95V7.64c0,.25.11.3.67.3.95,0,1-.09,1.18-1l0-.29a3.17,3.17,0,0,0,1,.38c-.25,1.55-.5,1.74-2.27,1.74-1.3,0-1.7-.19-1.7-.82V6.21h-1.91a4.11,4.11,0,0,1-.57,1.54,5.42,5.42,0,0,1-3,2.16,3.21,3.21,0,0,0-.67-1.09,4.28,4.28,0,0,0,2.6-1.47,2.37,2.37,0,0,0,.48-1.14h-1.47a13,13,0,0,0-1.57.09V5.1a9.79,9.79,0,0,0,1.59.09h2.94V3.51h-1.91a10.64,10.64,0,0,0-1.45.08V2.35a8.29,8.29,0,0,0,1.47.11h1.89Zm-2,9a6.83,6.83,0,0,0-1.3.09V9.91a7.6,7.6,0,0,0,1.3.08h2V9.55a9.36,9.36,0,0,0-.08-1.4h1.32a8.82,8.82,0,0,0-.08,1.42V10h2a7.2,7.2,0,0,0,1.28-.08v1.2a9.08,9.08,0,0,0-1.28-.07h-2v1.79c1.44-.21,2-.32,3.57-.63l0,1c-1.89.42-5.38,1-7.65,1.3a7.51,7.51,0,0,0-1.11.17l-.27-1.33a3,3,0,0,0,.44,0,33.39,33.39,0,0,0,3.84-.38V11Zm-2.23,7.67a9,9,0,0,0,2.77-3.49l1.16.57a12.86,12.86,0,0,1-2.81,3.8Zm6.32.82a16.34,16.34,0,0,0-.46-3.74l1.2-.19a18.44,18.44,0,0,1,.59,3.76ZM288.41,4.3a13.37,13.37,0,0,0,1.64-.1A11.57,11.57,0,0,0,290,5.9a35.44,35.44,0,0,0,.38,5.19,4.22,4.22,0,0,0,.78,2.07,7.35,7.35,0,0,0,.63-3,3,3,0,0,0,1,.66c-.36,2.62-.84,3.67-1.62,3.67-.59,0-1.18-.67-1.53-1.74a24.07,24.07,0,0,1-.84-7.31h-1.83a19.06,19.06,0,0,1-.63,4.07,24.73,24.73,0,0,1,1.83,2.52l-.86,1c-.68-1.09-.95-1.51-1.41-2.16a9.93,9.93,0,0,1-3.11,4.28,3.86,3.86,0,0,0-.9-1A8,8,0,0,0,285,9.8,19.5,19.5,0,0,0,283.35,8l.78-.88c.65.67.8.82,1.26,1.34a19.94,19.94,0,0,0,.36-3h-.91a10.46,10.46,0,0,0-1.43.1V4.2a8.12,8.12,0,0,0,1.45.1h.93c0-.58,0-.94,0-1.42a9.73,9.73,0,0,0-.15-2h1.47A27.15,27.15,0,0,0,287,4.3Zm-3.65,15.21a14.15,14.15,0,0,0-1.16-3.68l1.18-.31A15.47,15.47,0,0,1,286,19.17Zm6,.16a20.73,20.73,0,0,0-2.79-4l1.05-.58a24,24,0,0,1,2.92,3.82Z"/>
        <path class="cls-1" d="M299,3.49a13.5,13.5,0,0,1-2.35,2.72,3.73,3.73,0,0,0-1-.86A10,10,0,0,0,299.12.63l1.35.4c-.32.59-.42.78-.72,1.32h3.19A13.53,13.53,0,0,0,305,2.23V3.57a17.78,17.78,0,0,0-1.93-.08h-1.32a12.68,12.68,0,0,1,1.11,2.12l-1.22.44a13.39,13.39,0,0,0-1.15-2.56Zm5.25,3.25a6.07,6.07,0,0,0-.13-1.3h1.51a6.75,6.75,0,0,0-.12,1.3h5a13,13,0,0,0,2.12-.13V8a15.17,15.17,0,0,0-2.1-.13h-5V10h6.78a14.73,14.73,0,0,0,2.16-.12v1.38a16.12,16.12,0,0,0-2.16-.12h-2.5v2.05h2.44a16.12,16.12,0,0,0,2.16-.12V14.4a16.54,16.54,0,0,0-2.16-.12h-2.44V18c0,1.23-.5,1.53-2.58,1.53-.59,0-1.32,0-2.06-.06a4.71,4.71,0,0,0-.38-1.33,18.88,18.88,0,0,0,2.73.17c.8,0,1-.1,1-.55V14.28H298.33a16.71,16.71,0,0,0-2.19.12V13a16.12,16.12,0,0,0,2.16.12h10.21V11.09H298.28a16.87,16.87,0,0,0-2.18.12V9.83a14.92,14.92,0,0,0,2.16.12h6V7.87h-4.22A15.06,15.06,0,0,0,298,8V6.61a13,13,0,0,0,2.12.13Zm-3.42,7.89a20.37,20.37,0,0,1,3.27,2.9l-1.05,1a13.82,13.82,0,0,0-3.17-3Zm6.21-11.17a12.09,12.09,0,0,1-1.59,2,2.83,2.83,0,0,0-1-.76A9.64,9.64,0,0,0,307.25.53l1.26.39c-.19.4-.32.61-.76,1.43h4.52a16.07,16.07,0,0,0,2.22-.12V3.57a17.61,17.61,0,0,0-2.2-.11H310a18.62,18.62,0,0,1,1.15,2L309.92,6a14.13,14.13,0,0,0-1.29-2.5Z"/>
        <path class="cls-1" d="M326.8,12.58c-1.22,2.77-2.46,4-4,4-2,0-3.48-2.19-3.48-5.13a8.7,8.7,0,0,1,2.2-5.79,8.76,8.76,0,0,1,6.78-2.79A8.13,8.13,0,0,1,334.11,5a7,7,0,0,1,2,5.12,7.64,7.64,0,0,1-4.81,7.24,16.34,16.34,0,0,1-3.19,1,3.38,3.38,0,0,0-.73-1.41,12.69,12.69,0,0,0,3.51-1A6.35,6.35,0,0,0,334.63,10a5.53,5.53,0,0,0-3.34-5.27,5.89,5.89,0,0,0-2.43-.53A31.54,31.54,0,0,1,326.8,12.58Zm-2.58-7.33a7.27,7.27,0,0,0-3.43,6.26c0,2,.89,3.57,2,3.57.88,0,1.72-1,2.62-3.05a28.71,28.71,0,0,0,1.92-7.77A6.65,6.65,0,0,0,324.22,5.25Z"/>
        <path class="cls-1" d="M350.55,2.31a7.88,7.88,0,0,0-.13-1.68H352a7.35,7.35,0,0,0-.13,1.7v.34h5.25a18.18,18.18,0,0,0,2.33-.13V4a16.67,16.67,0,0,0-2.31-.11H345.09V7.73c0,6-.88,9.15-3.25,11.84a3.54,3.54,0,0,0-1.14-.93,10.79,10.79,0,0,0,2.9-7.09c-.4.25-1.15.69-2.27,1.3a4.52,4.52,0,0,0-.5.29l-.59-1.32a16.33,16.33,0,0,0,3.47-1.55c.06-1.07.08-1.64.08-2.35a37,37,0,0,0-.15-5.36,18.33,18.33,0,0,0,2.4.11h4.51Zm-9,2a20.88,20.88,0,0,1,1.56,3.89L342,8.76a18,18,0,0,0-1.46-3.93Zm10.38,3.24h-3.66a20.11,20.11,0,0,0-2.08.08V6.24a14.91,14.91,0,0,0,2.08.1h8.86a13.73,13.73,0,0,0,2.06-.13V7.64a15.12,15.12,0,0,0-2.06-.1h-3.86v3.84h3.44a10.89,10.89,0,0,0,1.83-.1V12.7a11.44,11.44,0,0,0-1.81-.1h-3.46v5h4.2a16.23,16.23,0,0,0,2.2-.13V19a16.89,16.89,0,0,0-2.22-.13H346.33A17.72,17.72,0,0,0,344,19V17.53a12.12,12.12,0,0,0,2.1.11h1.43V12.12a14.88,14.88,0,0,0-.13-2.06H349a14.68,14.68,0,0,0-.13,2.06v5.52h3.07Z"/>
        <path class="cls-1" d="M367.08,2.67A11.41,11.41,0,0,0,367,.82h1.58a9.29,9.29,0,0,0-.13,1.85V17.83a9.16,9.16,0,0,0,.13,1.86H367a12.13,12.13,0,0,0,.13-2V12.35c-.65.44-1.37.88-1.93,1.21-.72.4-1.22.7-1.49.86l-.61-1.34a21.35,21.35,0,0,0,4-2.12Zm-2.54,1a21.27,21.27,0,0,1,1.53,4.5l-1.22.5a16.89,16.89,0,0,0-1.47-4.56ZM376,7.77a22.25,22.25,0,0,0,1.93,5.56,12.62,12.62,0,0,0,4.37,4.92,5,5,0,0,0-1,1.3,14.64,14.64,0,0,1-4.51-5.61,15.93,15.93,0,0,1-1.49-4.6,17,17,0,0,1-1.79,5.74,12.5,12.5,0,0,1-3.71,4.36,3.91,3.91,0,0,0-.95-1.15,10.6,10.6,0,0,0,3.26-3.38,15.91,15.91,0,0,0,2.16-7.14h-2.88a15.57,15.57,0,0,0-2.1.12V6.45a14.84,14.84,0,0,0,2.08.12h3c.07-1.43.09-1.89.09-4.07A8.2,8.2,0,0,0,374.3.92h1.62a14.39,14.39,0,0,0-.15,2.38c0,1.51-.06,2.18-.15,3.27h4.43a14.24,14.24,0,0,0,2.06-.12V7.89a13.87,13.87,0,0,0-2-.12Zm3.93-2.08A16.09,16.09,0,0,0,377,2.23l1-.68a22.13,22.13,0,0,1,2.92,3.34Z"/>
        <path class="cls-1" d="M386.36,6.63A42.43,42.43,0,0,0,391,6.09a26.74,26.74,0,0,0,.63-4.45V1.37l1.68.18a12.85,12.85,0,0,0-.4,2c-.09.52-.27,1.49-.44,2.39.48,0,.75-.06,1.24-.06a4,4,0,0,1,3,.88c.73.69,1,1.66,1,3.38,0,3.22-.55,6-1.41,7.22a2.18,2.18,0,0,1-2.06,1,7.89,7.89,0,0,1-3.17-.82,3.89,3.89,0,0,0,.05-.75,3.49,3.49,0,0,0-.07-.82,7.85,7.85,0,0,0,3.13,1c.53,0,.93-.33,1.2-1a16.24,16.24,0,0,0,.88-5.84c0-2.23-.63-2.94-2.58-2.94a12.44,12.44,0,0,0-1.51.1,41.25,41.25,0,0,1-4.54,11.43l-1.43-.84a31,31,0,0,0,4.5-10.46,26.31,26.31,0,0,0-4.22.76ZM400.15,4.7a19.19,19.19,0,0,1,4.39,7.44l-1.34.75a17.81,17.81,0,0,0-4.29-7.54Zm1-3.57a16.31,16.31,0,0,1,2.16,3.26L402.21,5a16.34,16.34,0,0,0-2.16-3.34ZM403.47,0a16.85,16.85,0,0,1,2.16,3.25l-1.05.61A15.13,15.13,0,0,0,402.44.57Z"/>
        <path class="cls-1" d="M416.93,2.71A8.11,8.11,0,0,0,416.78.8h1.71a9.16,9.16,0,0,0-.15,1.91V8h5.52v-4a11.9,11.9,0,0,0-.08-1.53h1.57a10.91,10.91,0,0,0-.1,1.6V8.29c0,.42,0,.72,0,1.07-.42,0-.9,0-1.3,0h-5.65V17h6.25V13a11.75,11.75,0,0,0-.1-1.81h1.6a11,11,0,0,0-.11,1.87v4.75a9.89,9.89,0,0,0,.13,1.76h-1.52V18.33H411v1.26h-1.51a11.59,11.59,0,0,0,.12-1.76V13.21a12.19,12.19,0,0,0-.1-1.87h1.59a11,11,0,0,0-.1,1.78V17h6V9.32h-5.25c-.38,0-.86,0-1.3,0,0-.4,0-.71,0-1.07V4.14a15.63,15.63,0,0,0-.1-1.62h1.57a11.25,11.25,0,0,0-.08,1.55V8h5.12Z"/>
        <path class="cls-1" d="M432.12,5a15,15,0,0,0,2.62.19,12.34,12.34,0,0,0,1.26,0,20.43,20.43,0,0,0,.46-3.86l1.66.17c-.12.5-.12.5-.38,2-.1.67-.16,1-.27,1.6a17.15,17.15,0,0,0,3.78-.72l.1,1.45a5.05,5.05,0,0,0-.58.11,30,30,0,0,1-3.55.5c-.32,1.66-.9,4-1.47,5.94a53.37,53.37,0,0,1-2.42,6.41l-1.53-.65a42.53,42.53,0,0,0,3.95-11.61c-.42,0-.67,0-1.45,0s-.92,0-1.74,0h-.09a2.09,2.09,0,0,0-.35,0Zm9.38,7.62a6.25,6.25,0,0,0-.63.8,2.54,2.54,0,0,0-.52,1.49c0,1.26,1.28,1.93,3.67,1.93a15.63,15.63,0,0,0,4.64-.72l.15,1.58-.93.15a21.05,21.05,0,0,1-3.73.35c-3.45,0-5.23-1.07-5.23-3.15,0-.94.29-1.59,1.41-3ZM448,9a22.21,22.21,0,0,0-2.48-.14,18.44,18.44,0,0,0-5.25.71l-.14-1.43a24,24,0,0,1,5.56-.69c.4,0,.71,0,2.29.06Z"/>
        <path class="cls-1" d="M456.08,3.19A15.74,15.74,0,0,0,456,.88h1.55a15,15,0,0,0-.12,2.33v2.9h.5A13.19,13.19,0,0,0,459.63,6V7.37a17.34,17.34,0,0,0-1.75-.08h-.5v5.39a17.08,17.08,0,0,0,1.78-1.07l.09,1.26a37.39,37.39,0,0,1-4.37,2.37c-.34.15-.92.44-1.11.55l-.4-1.47a10.4,10.4,0,0,0,2.71-1v-6h-.91a15.87,15.87,0,0,0-1.78.1V6a11,11,0,0,0,1.83.11h.86Zm5.9,9.6a13.57,13.57,0,0,1-3.53,2.79,3.94,3.94,0,0,0-.86-.95,10,10,0,0,0,4.87-4.43h-1.28a10.58,10.58,0,0,0-1.89.13V9a9.7,9.7,0,0,0,1.93.13h9A11.19,11.19,0,0,0,472.26,9v1.33a16.07,16.07,0,0,0-2.07-.09h-6.43a10,10,0,0,1-1,1.54h6.95a14.79,14.79,0,0,0,2.05-.09,10.17,10.17,0,0,0-.1,1.24,20.94,20.94,0,0,1-.93,5.61c-.37.75-.9,1-2.33,1-.48,0-1.17,0-1.82-.08A3.76,3.76,0,0,0,466.2,18a14.32,14.32,0,0,0,2.5.24c.84,0,1-.17,1.26-1.43a26.52,26.52,0,0,0,.46-4H469A12.29,12.29,0,0,1,467.14,16a21.68,21.68,0,0,1-2.58,2.58,15.71,15.71,0,0,1-1.7,1.17,3.61,3.61,0,0,0-1-1A13.47,13.47,0,0,0,466,15.54a10.47,10.47,0,0,0,1.72-2.75h-2.08A14.59,14.59,0,0,1,459.88,18a2.91,2.91,0,0,0-.91-1,12,12,0,0,0,5.32-4.26Zm.67-5.08a15.51,15.51,0,0,0-1.91.08,17,17,0,0,0,.08-1.89V3.17a14.94,14.94,0,0,0-.08-1.85,12.65,12.65,0,0,0,2,.11h5.48a14.49,14.49,0,0,0,2.19-.11,14,14,0,0,0-.09,2V5.9a11.25,11.25,0,0,0,.09,1.87c-.46,0-1.12-.06-1.93-.06Zm-.59-3.66h7V2.52h-7Zm0,2.63h7V5.08h-7Z"/>
        <path class="cls-1" d="M486,.76a14.6,14.6,0,0,0,3.47,3.8A21.88,21.88,0,0,0,495.24,8a5.38,5.38,0,0,0-.84,1.32,29.3,29.3,0,0,1-5.92-3.86,17.33,17.33,0,0,1-3.23-3.53,19.55,19.55,0,0,1-4.42,4.6,24.19,24.19,0,0,1-4.45,2.73,3.54,3.54,0,0,0-.88-1.2,21.64,21.64,0,0,0,5.71-3.65A15.59,15.59,0,0,0,484.45.76Zm-7.33,18.77a14.29,14.29,0,0,0,.13-2.06V12.83a12.25,12.25,0,0,0-.11-1.93,11.85,11.85,0,0,0,1.64.08h9.85a11.67,11.67,0,0,0,1.64-.08,11.81,11.81,0,0,0-.11,1.93v4.64a13.73,13.73,0,0,0,.13,2.06h-1.51V18.31H480.21v1.22Zm1.52-2.46h10.14V12.26H480.21Zm.14-9.93a11.27,11.27,0,0,0,1.66.08h6.51a13.07,13.07,0,0,0,1.76-.08V8.57a11.64,11.64,0,0,0-1.76-.09H482a11,11,0,0,0-1.64.09Z"/>
        <path class="cls-1" d="M509.54,10.18a1.72,1.72,0,1,1-1.72-1.72A1.73,1.73,0,0,1,509.54,10.18Z"/>
        <path class="cls-1" d="M522.67,12.16a8,8,0,0,0-1.72.12V10.9a8.08,8.08,0,0,0,1.76.12h2.56V9.91a4,4,0,0,0-.1-.86h1.4a4,4,0,0,0-.08.86V11h2.31a8.58,8.58,0,0,0,1.7-.12v1.36a9.63,9.63,0,0,0-1.7-.1h-2a8.89,8.89,0,0,0,3,2.66A5.29,5.29,0,0,0,529,16a10.77,10.77,0,0,1-2.62-2.9c0,.46.06,1.07.08,1.85v3a12.23,12.23,0,0,0,.1,1.81h-1.44a12.29,12.29,0,0,0,.12-1.81V15c0-.5,0-1.05.06-1.74a12.45,12.45,0,0,1-4,4.66,4.31,4.31,0,0,0-.8-1.18,14.07,14.07,0,0,0,2.73-2.31,9.9,9.9,0,0,0,1.53-2.24Zm3.74-4.69A11,11,0,0,0,527.81,4l1.26.4a20.48,20.48,0,0,1-1.43,3h1.24a9.63,9.63,0,0,0,1.7-.1V8.78a9.11,9.11,0,0,0-1.7-.11h-6.23a8.94,8.94,0,0,0-1.74.11V7.37a9.72,9.72,0,0,0,1.74.1Zm2.14-4.82a9.92,9.92,0,0,0,1.76-.11V4a10.05,10.05,0,0,0-1.78-.11h-5.38a9.87,9.87,0,0,0-1.82.11V2.54a10.36,10.36,0,0,0,1.84.11h2.1V2.08a7.63,7.63,0,0,0-.1-1.47h1.53a7.26,7.26,0,0,0-.11,1.47v.57Zm-4.81,4.64a11.74,11.74,0,0,0-1.2-2.82l1.12-.42a12.46,12.46,0,0,1,1.19,2.84Zm14.38,0a10,10,0,0,0,1.93-.13V8.65a11.12,11.12,0,0,0-1.84-.11h-.78V17.7a11,11,0,0,0,.12,2.1h-1.61a13.38,13.38,0,0,0,.12-2.1V8.54h-3.29v.82a22.87,22.87,0,0,1-1.2,7.54A11.14,11.14,0,0,1,530,19.78a4.42,4.42,0,0,0-1.2-.88c2-2.48,2.65-5.42,2.65-12.43,0-2.38-.05-3.28-.11-3.89h.25a20.44,20.44,0,0,0,5-1,6.69,6.69,0,0,0,1.93-.91l1.07,1.18a6.27,6.27,0,0,0-.76.29,25.08,25.08,0,0,1-6,1.56V7.33Z"/>
        <path class="cls-1" d="M546.1,2.69a16.64,16.64,0,0,0-1.93.08V1.45a14.46,14.46,0,0,0,2,.1h5.94a13.54,13.54,0,0,0,2-.1V2.77a16.48,16.48,0,0,0-1.91-.08h-.36v3h.78a11.45,11.45,0,0,0,2-.11V6.91a11.68,11.68,0,0,0-2-.11h-.8V9.87A13.5,13.5,0,0,0,552,11.7h1.45a6.34,6.34,0,0,0-.12,1.57v.34h4.55a12.75,12.75,0,0,0,2.31-.13v1.41a16.15,16.15,0,0,0-2.29-.11h-4.57v2.86h6.4a14.5,14.5,0,0,0,2.33-.11V19a20.33,20.33,0,0,0-2.39-.13H546.08a20.12,20.12,0,0,0-2.35.13V17.53a19.68,19.68,0,0,0,2.31.11h6V14.78H548a16.46,16.46,0,0,0-2.31.11V13.48a12,12,0,0,0,2.23.13H552v-.34a9,9,0,0,0-.08-1.47h-1.41a11,11,0,0,0,.13-2v-3h-3a9.79,9.79,0,0,1-.8,3.13,7.31,7.31,0,0,1-2.12,2.67,4,4,0,0,0-1-1,5.56,5.56,0,0,0,2-2.41,7.07,7.07,0,0,0,.6-2.4h-.75a11.47,11.47,0,0,0-2,.11V5.54a11.75,11.75,0,0,0,2,.11h.84c.06-1.09.08-1.53.08-3Zm1.68,0c0,1.45,0,2-.08,3h3v-3Zm7.69,6.23A11.11,11.11,0,0,0,555.59,7V3.61a11.52,11.52,0,0,0-.12-1.89H557a10.86,10.86,0,0,0-.1,1.85V7.1A13.33,13.33,0,0,0,557,8.92Zm5.73,1.49c0,1.26-.46,1.6-2.14,1.6-.67,0-1.37,0-2.08-.08a4.61,4.61,0,0,0-.36-1.39,12.63,12.63,0,0,0,1.89.19h.76c.48,0,.59-.11.59-.48V2.9a11.46,11.46,0,0,0-.13-2h1.6a11.39,11.39,0,0,0-.13,2.08Z"/>
        <path class="cls-1" d="M570.55,16.65a17.87,17.87,0,0,0-2.25.08V15.08a10.78,10.78,0,0,0,2.29.14h10V5.08H571a16.41,16.41,0,0,0-2.41.11V3.51a12,12,0,0,0,2.41.14h10.08l1.09,0c0,.53,0,.88,0,1.64V16a14.74,14.74,0,0,0,.1,1.91h-1.68V16.65Z"/>
        <path class="cls-1" d="M3.63,56.44v1.49H2a11.38,11.38,0,0,0,.08-1.57V45A11.22,11.22,0,0,0,2,43.32a15.68,15.68,0,0,0,1.63.06H14.84a11.42,11.42,0,0,0,1.64-.06A11.89,11.89,0,0,0,16.42,45V56.31c0,.63,0,1.18.06,1.62H14.89V56.44ZM14.89,44.77H3.63V55.08H14.89Z"/>
        <path class="cls-1" d="M37.82,46.8a13.32,13.32,0,0,0,2.45-.14v1.63a20.17,20.17,0,0,0-2.43-.1H33.09c-.16,2.94-.54,4.51-1.55,6.11a12.12,12.12,0,0,1-5.21,4.39,4.38,4.38,0,0,0-1.07-1.35A9.66,9.66,0,0,0,30.47,53a10.63,10.63,0,0,0,1.07-4.83H25.72a20.17,20.17,0,0,0-2.43.1V46.66a13.57,13.57,0,0,0,2.46.14H31.6c0-.77,0-1.19,0-1.84V43.44a10.51,10.51,0,0,0-.1-1.78h1.76a10.63,10.63,0,0,0-.1,1.78l0,1.52V46.8Z"/>
        <path class="cls-1" d="M59.39,44.77a4.53,4.53,0,0,0,1.76-.13l.86.82c-.19.33-.19.33-.46,2.12a13.14,13.14,0,0,1-3.8,7.66,16.5,16.5,0,0,1-6.15,3.49,4.37,4.37,0,0,0-1-1.43,13.74,13.74,0,0,0,4.64-2c2.94-2,4.47-4.91,4.87-9.17H48.68v3.15c0,.67,0,1.15.06,1.55H47c0-.35.08-1,.08-1.57V46.38a14.47,14.47,0,0,0-.08-1.7,16.14,16.14,0,0,0,1.93.09H53.4V42.65a7,7,0,0,0-.1-1.35h1.76a8.66,8.66,0,0,0-.1,1.32v2.15Z"/>
        <path class="cls-1" d="M84.19,42.52a4.62,4.62,0,0,0-.93.88,36.69,36.69,0,0,1-4.91,4.22v9a14.63,14.63,0,0,0,.1,2.22H76.63a11.43,11.43,0,0,0,.12-2.18v-8a32.76,32.76,0,0,1-8.1,3.67,4.92,4.92,0,0,0-.82-1.4,29.65,29.65,0,0,0,10.9-5.44,17.62,17.62,0,0,0,4-4Z"/>
        <path class="cls-1" d="M96.2,42.27a11.58,11.58,0,0,0-.13,1.8c-.16,5.69-.33,7.25-1.13,9.37a12.75,12.75,0,0,1-3.63,5.18,4,4,0,0,0-1.26-1.13,10.49,10.49,0,0,0,3.55-4.83c.65-1.83.94-4.58.94-9a9.9,9.9,0,0,0-.08-1.49Zm5.21-.23a7.74,7.74,0,0,0-.13,1.84l-.13,12.69a9.69,9.69,0,0,0,3.91-2.44,10.51,10.51,0,0,0,2.48-4.2,5.88,5.88,0,0,0,1.17,1.22,11.87,11.87,0,0,1-4.22,5.39,14,14,0,0,1-3,1.54l-.67.25a3.1,3.1,0,0,0-.48.23l-.84-1a3.64,3.64,0,0,0,.14-1.42l.13-12.29A8.74,8.74,0,0,0,99.69,42Z"/>
        <path class="cls-1" d="M129,58.35a39.1,39.1,0,0,0-6.72-6.49,22.76,22.76,0,0,1-4,3.76,27.48,27.48,0,0,1-4.11,2.52,4.92,4.92,0,0,0-1-1.39,16.74,16.74,0,0,0,4.26-2.41,22.87,22.87,0,0,0,7.5-9.47c0-.12.06-.15.1-.25a.39.39,0,0,0,.06-.15,3.63,3.63,0,0,1-.5,0l-7,.11a13.19,13.19,0,0,0-2.16.17l0-1.7a10.42,10.42,0,0,0,1.66.1h.55l7.49-.08a4.07,4.07,0,0,0,1.35-.17l.88.9a4,4,0,0,0-.59,1,25.4,25.4,0,0,1-3.46,5.88,52.09,52.09,0,0,1,7,6.3Z"/>
        <path class="cls-1" d="M151.93,45.63l-.57,1.13a15.21,15.21,0,0,1-2,3.3c.84,1.36,1.81,2.26,2.42,2.26.4,0,.69-.79.92-2.56a3.64,3.64,0,0,0,1.05.84c-.44,2.19-1,3-2,3s-2.23-1-3.24-2.54a14.36,14.36,0,0,1-3,2.54,4.27,4.27,0,0,0-.92-.88A12.42,12.42,0,0,0,148,50a17.41,17.41,0,0,1-1.58-6.06h-8.54c0,6.06-.38,8.08-1.79,10.24a3,3,0,0,0-1.18-.84c1.35-1.93,1.68-3.61,1.68-8.61a20.25,20.25,0,0,0-.1-2c.67.06,1.47.1,2.48.1h7.32l-.12-1.34a3.65,3.65,0,0,0-.13-.84h1.49a7.52,7.52,0,0,0-.06,1c0,.31,0,.61.06,1.19h3.4a12,12,0,0,0-2.43-1.59l.86-.72a17.14,17.14,0,0,1,2.48,1.58l-.78.73a13,13,0,0,0,2.37-.12V44a18.07,18.07,0,0,0-2.35-.1h-3.42a16.53,16.53,0,0,0,1.18,5,11.85,11.85,0,0,0,1.84-3.8Zm-13.31,9a11.84,11.84,0,0,1-2.46,4.52l-1.13-.8A8.9,8.9,0,0,0,137.47,54Zm7.16-8a12.28,12.28,0,0,0-1.62-.08h-4a13.15,13.15,0,0,0-1.63.08V45.33a10.5,10.5,0,0,0,1.63.09h4a10.44,10.44,0,0,0,1.62-.09ZM139.06,49a10.18,10.18,0,0,0-.06-1.18,13.84,13.84,0,0,0,1.43.06h3.38a14.06,14.06,0,0,0,1.44-.06,9.35,9.35,0,0,0-.06,1.16V50.9c0,.48,0,.58,0,1.19a13.43,13.43,0,0,0-1.4,0H140.4a9.75,9.75,0,0,0-1.4.07,9.37,9.37,0,0,0,.06-1.18Zm2.35,8.67c0,.48.3.54,3.05.54,2.26,0,3.08-.12,3.38-.48a3.4,3.4,0,0,0,.33-1.8,4.31,4.31,0,0,0,1.28.52c-.29,2.79-.56,2.94-5.45,2.94-3.3,0-3.87-.21-3.87-1.45V55.56A8.68,8.68,0,0,0,140,54h1.51a7,7,0,0,0-.11,1.43ZM140.22,51H144v-2.1h-3.82Zm5.66,5.57a15.49,15.49,0,0,0-3.4-2.48l.82-.78a17.78,17.78,0,0,1,3.45,2.35Zm4.73-2.4a22.38,22.38,0,0,1,2.85,4l-1.13.67a18.75,18.75,0,0,0-2.81-4.11Z"/>
        <path class="cls-1" d="M173.52,51.86a16.83,16.83,0,0,0,2.37-.12v1.4a20.3,20.3,0,0,0-2.37-.12h-5.19a12.37,12.37,0,0,0,2.52,2,20.93,20.93,0,0,0,5.76,2.44,5.74,5.74,0,0,0-.91,1.28,22.55,22.55,0,0,1-5.14-2.46,12.65,12.65,0,0,1-3.19-2.81c.06,1.13.08,1.91.08,2.37v1.79a8.39,8.39,0,0,0,.15,2.2H166a13.53,13.53,0,0,0,.13-2.2V55.89c0-.44,0-1.59.08-2.37a19.2,19.2,0,0,1-8,5.21,4.37,4.37,0,0,0-.94-1.22,19.11,19.11,0,0,0,8-4.49h-5a20.3,20.3,0,0,0-2.35.12v-1.4a13.48,13.48,0,0,0,2.31.12h5.9v-.63A6.37,6.37,0,0,0,166,49.8h1.54a8.52,8.52,0,0,0-.09,1.43v.63Zm-15-8.1a16.29,16.29,0,0,1,3.32,1.72l-.76,1a11.36,11.36,0,0,0-3.32-1.79Zm5.23,3.38a31.14,31.14,0,0,1-4.62,3.23,2.83,2.83,0,0,0-.51.34l-.69-1.24a16.88,16.88,0,0,0,5.37-3.42ZM160,41a15.13,15.13,0,0,1,3.36,1.82l-.76,1a12.47,12.47,0,0,0-3.4-1.87Zm10.52,2.12c.86,0,1.45,0,1.85-.06a11.88,11.88,0,0,0-.09,1.72V48c0,.59.07.63,1,.63,1.09,0,1.41-.08,1.49-.44A11.23,11.23,0,0,0,175,46a3.82,3.82,0,0,0,1.22.49c-.21,3.23-.36,3.4-3,3.4-1.81,0-2.15-.23-2.15-1.43V44.26h-2.41a7.89,7.89,0,0,1-5.15,6.43,3.54,3.54,0,0,0-.81-1A7.34,7.34,0,0,0,166.38,47a6.81,6.81,0,0,0,1-2.73h-1.18a13,13,0,0,0-2.12.11V43a10.4,10.4,0,0,0,2.14.13h1.31c0-.42,0-.76,0-1.24a6.75,6.75,0,0,0-.09-1.24l1.47,0a5.66,5.66,0,0,0-.08,1c0,.38-.06,1.05-.09,1.47Z"/>
        <path class="cls-1" d="M188.43,52.58c-1.22,2.77-2.45,4-4,4-2,0-3.48-2.19-3.48-5.13a8.52,8.52,0,0,1,9-8.58A8.11,8.11,0,0,1,195.74,45a7,7,0,0,1,2,5.12,7.64,7.64,0,0,1-4.8,7.24,16.79,16.79,0,0,1-3.19,1A3.4,3.4,0,0,0,189,56.9a12.69,12.69,0,0,0,3.51-1A6.34,6.34,0,0,0,196.26,50a5.51,5.51,0,0,0-3.34-5.27,5.89,5.89,0,0,0-2.43-.53A31.54,31.54,0,0,1,188.43,52.58Zm-2.58-7.33a7.26,7.26,0,0,0-3.42,6.26c0,2,.88,3.57,2,3.57.88,0,1.72-1,2.63-3A29.09,29.09,0,0,0,189,44.26,6.65,6.65,0,0,0,185.85,45.25Z"/>
        <path class="cls-1" d="M203.49,43.23c0-.63,0-1.3-.08-1.93a13.17,13.17,0,0,0,1.51.07H207a14,14,0,0,0,1.59-.07l.65.8-.25.5a28,28,0,0,1-2,4.06,9.6,9.6,0,0,1,1.15,1.82,6.12,6.12,0,0,1,.63,2.71c0,1.53-.65,2.1-2.39,2.1a8.47,8.47,0,0,1-1-.06,3.27,3.27,0,0,0-.25-1.3,6.28,6.28,0,0,0,1.51.19c.67,0,.9-.28.9-1.12,0-1.38-.48-2.48-1.91-4.26a21.81,21.81,0,0,0,2.08-4.24h-2.92V56.8a19.64,19.64,0,0,0,.13,2.75h-1.56a19.69,19.69,0,0,0,.13-2.77Zm11.4,9.45a10.06,10.06,0,0,1-2.2,2.86A14.75,14.75,0,0,1,209,58a4.93,4.93,0,0,0-.88-.94,11.34,11.34,0,0,0,3.78-2.25,7.68,7.68,0,0,0,1.72-2.1h-2a12.19,12.19,0,0,1-4,2.84,3.24,3.24,0,0,0-.82-1,11.27,11.27,0,0,0,3.59-2.2A6.44,6.44,0,0,0,212,50.14h-.75a9.75,9.75,0,0,0-2,.11V48.92a14.47,14.47,0,0,0,2.23.13H219a13.18,13.18,0,0,0,2.33-.13v1.3a22.41,22.41,0,0,0-2.33-.08h-5.76a9.12,9.12,0,0,1-.86,1.51h6.3a16.1,16.1,0,0,0,2-.08c-.05.27-.09.84-.13,1.51a22.34,22.34,0,0,1-.67,5.48c-.3.71-.76.95-1.87.95-.46,0-1.15,0-1.78-.09a3.39,3.39,0,0,0-.36-1.32,12.12,12.12,0,0,0,2.16.21c.53,0,.71-.19.84-.86a30.11,30.11,0,0,0,.44-4.77H218a11.6,11.6,0,0,1-2.14,3.84A13.84,13.84,0,0,1,212,59.63a3.65,3.65,0,0,0-.92-.92,12.1,12.1,0,0,0,4-3,8.84,8.84,0,0,0,1.8-3Zm-2.67-5a14.9,14.9,0,0,0-1.91.09,15,15,0,0,0,.09-1.91V43.09a12.69,12.69,0,0,0-.09-1.83,13.91,13.91,0,0,0,2,.11h5.12a15.69,15.69,0,0,0,2.18-.11,16,16,0,0,0-.08,1.93v2.67a13.59,13.59,0,0,0,.08,1.89c-.56,0-1.09-.07-1.93-.07ZM211.66,44h6.59V42.44h-6.59Zm0,2.64h6.59V45h-6.59Z"/>
        <path class="cls-1" d="M224.66,50.22a18.43,18.43,0,0,0,1-5.5l1.11.19a23.29,23.29,0,0,1-1.05,5.76Zm2.71,9.58a18.24,18.24,0,0,0,.14-2.42V42.75a14.43,14.43,0,0,0-.14-2.12H229a13.88,13.88,0,0,0-.14,2.12V57.47A16.11,16.11,0,0,0,229,59.8Zm2.92-11.95a10.64,10.64,0,0,0-.89-3.23l1-.38a16.61,16.61,0,0,1,1,3.21Zm3.14-1.34a15.35,15.35,0,0,1-1.89,3.93,7.75,7.75,0,0,0-1.17-.66,14.56,14.56,0,0,0,2.5-6,10.34,10.34,0,0,0,.19-1.64l1.45.3a6.58,6.58,0,0,0-.34,1.38c-.11.53-.21.91-.36,1.47h2.71V42.79a13.06,13.06,0,0,0-.15-2.12H238a13.72,13.72,0,0,0-.15,2.12v2.52h3.26a13.31,13.31,0,0,0,2.16-.12v1.44a19.73,19.73,0,0,0-2.14-.12h-3.28v4.37h2.86a14.45,14.45,0,0,0,2.12-.13v1.43a14,14,0,0,0-2.14-.13h-2.84v5.52h3.57a17.53,17.53,0,0,0,2.29-.12v1.49a14.51,14.51,0,0,0-2.29-.15h-8.63a14.37,14.37,0,0,0-2.28.15V57.45a17.36,17.36,0,0,0,2.28.12h3.74V52.05h-2.31a14.14,14.14,0,0,0-2.14.13V50.75a13.54,13.54,0,0,0,2,.13h2.41V46.51Z"/>
        <path class="cls-1" d="M250.17,49.2a12.73,12.73,0,0,0-2,.12V47.87a8.66,8.66,0,0,0,2,.13h2.35V42.79a13.17,13.17,0,0,0-.12-2.08H254a12.75,12.75,0,0,0-.12,2.08V48H256a8.73,8.73,0,0,0,2.07-.13V49.3a12.06,12.06,0,0,0-2-.1h-2.12v3.12h2.45a12.86,12.86,0,0,0,2.17-.1v1.43a12.08,12.08,0,0,0-2.15-.11h-2.47v3.84a15.83,15.83,0,0,0,.14,2.33h-1.61a15.49,15.49,0,0,0,.14-2.3V53.54h-3a11.18,11.18,0,0,0-2.14.13V52.2a11.25,11.25,0,0,0,2.16.12h2.94V49.2Zm-1.09-7.37a22.75,22.75,0,0,1,2,4.38l-1.15.53a17.35,17.35,0,0,0-2-4.39Zm9.3.29A25.55,25.55,0,0,1,256.07,47L255,46.42a15.16,15.16,0,0,0,2.1-4.85Zm2.84.17a11.7,11.7,0,0,0-.13,2.29v7.79a13.66,13.66,0,0,0,.11,2.35h-1.56a14.41,14.41,0,0,0,.11-2.35V44.58a13.19,13.19,0,0,0-.11-2.29Zm4.57-1.39a15.76,15.76,0,0,0-.14,2.54V57.36c0,1.47-.53,1.87-2.4,1.87-.73,0-1.53,0-2.41-.1a5.81,5.81,0,0,0-.38-1.33,18.49,18.49,0,0,0,2.65.21c1.05,0,1.17-.06,1.17-.65V43.46a15.15,15.15,0,0,0-.15-2.56Z"/>
        <path class="cls-1" d="M278.86,48.08h-3.72a13.47,13.47,0,0,0-2.08.13V46.76a14,14,0,0,0,2.08.13h8.69a13.94,13.94,0,0,0,2.08-.13v1.45a12.87,12.87,0,0,0-2.08-.13h-3.67v3.43h4a13.15,13.15,0,0,0,2-.13v1.43a10.79,10.79,0,0,0-2-.13h-4v4.66a18.6,18.6,0,0,0,3.42.23c1.7,0,3.15-.06,4.92-.21a3.9,3.9,0,0,0-.47,1.47c-1.82.05-2,.05-2.54.05a29.26,29.26,0,0,1-4.6-.17c-3.27-.46-5.33-1.72-6.44-4a14.33,14.33,0,0,1-3.19,4.77,4.09,4.09,0,0,0-1.09-1A11.29,11.29,0,0,0,273,54.8,13.36,13.36,0,0,0,274.28,50V49.8l1.47.3-.25,1.09c-.11.51-.42,1.72-.57,2.23a6.52,6.52,0,0,0,1.66,2.31A7.19,7.19,0,0,0,278.86,57Zm-.32-5.94a7.53,7.53,0,0,0-.12-1.32h1.63a5.75,5.75,0,0,0-.14,1.3v1H286c.82,0,1.43,0,2.1-.08a9.78,9.78,0,0,0-.09,1.42v1.33a10.33,10.33,0,0,0,.09,1.49h-1.37V44.37H272.12v2.94h-1.39a10.43,10.43,0,0,0,.09-1.49V44.49a9.68,9.68,0,0,0-.09-1.42c.67.06,1.28.08,2.12.08h5.69Z"/>
        <path class="cls-1" d="M293,46.63a41.89,41.89,0,0,0,4.64-.54,25.71,25.71,0,0,0,.63-4.45v-.27l1.68.18a14.19,14.19,0,0,0-.4,2c-.08.52-.27,1.49-.44,2.39.49,0,.76-.06,1.24-.06a4,4,0,0,1,3,.88c.74.69,1,1.66,1,3.38,0,3.22-.54,6-1.4,7.22a2.19,2.19,0,0,1-2.06,1,7.89,7.89,0,0,1-3.17-.82,4.84,4.84,0,0,0,0-.75,4.06,4.06,0,0,0-.06-.82,7.76,7.76,0,0,0,3.13,1c.52,0,.92-.33,1.19-1A16.24,16.24,0,0,0,303,50.1c0-2.23-.63-2.94-2.58-2.94a12.68,12.68,0,0,0-1.51.1,40.64,40.64,0,0,1-4.54,11.43l-1.42-.84a31,31,0,0,0,4.49-10.46,26.56,26.56,0,0,0-4.22.76Zm13.8-1.93a19.31,19.31,0,0,1,4.39,7.44l-1.35.75a17.69,17.69,0,0,0-4.28-7.54Zm.94-3.57a16.36,16.36,0,0,1,2.17,3.26l-1.06.63a15.93,15.93,0,0,0-2.16-3.34ZM310.12,40a16.9,16.9,0,0,1,2.17,3.25l-1.05.61a15.13,15.13,0,0,0-2.14-3.29Z"/>
        <path class="cls-1" d="M323.59,42.71a8.7,8.7,0,0,0-.15-1.91h1.7a9.9,9.9,0,0,0-.15,1.91V48h5.53v-4a10.24,10.24,0,0,0-.09-1.53H332a9.71,9.71,0,0,0-.11,1.6v4.17c0,.42,0,.72,0,1.07-.42,0-.9,0-1.3,0H325V57h6.26V53a11.75,11.75,0,0,0-.1-1.81h1.59a12.27,12.27,0,0,0-.1,1.87v4.75a11,11,0,0,0,.12,1.76h-1.51V58.33H317.6v1.26h-1.51a11.5,11.5,0,0,0,.13-1.76V53.21a10.89,10.89,0,0,0-.11-1.87h1.6a9.79,9.79,0,0,0-.11,1.78V57h6V49.32h-5.25c-.38,0-.86,0-1.3,0,0-.4,0-.71,0-1.07V44.14a13.36,13.36,0,0,0-.11-1.62h1.58a11.05,11.05,0,0,0-.09,1.55v4h5.13Z"/>
        <path class="cls-1" d="M338.77,45a15,15,0,0,0,2.63.19,12.34,12.34,0,0,0,1.26-.05,20.43,20.43,0,0,0,.46-3.86l1.66.17a17.45,17.45,0,0,0-.38,2c-.11.67-.17,1-.28,1.6a17,17,0,0,0,3.78-.72l.11,1.45a4.68,4.68,0,0,0-.59.11,30,30,0,0,1-3.55.5c-.31,1.66-.9,4-1.47,5.94A55,55,0,0,1,340,58.71l-1.53-.65a42.2,42.2,0,0,0,3.94-11.61c-.42,0-.67,0-1.45,0s-.92,0-1.74,0h-.08a2.25,2.25,0,0,0-.36,0Zm9.39,7.62a5.41,5.41,0,0,0-.63.8,2.49,2.49,0,0,0-.53,1.49c0,1.26,1.28,1.93,3.68,1.93a15.63,15.63,0,0,0,4.64-.72l.14,1.58-.92.15a21.16,21.16,0,0,1-3.74.35c-3.44,0-5.23-1.07-5.23-3.15,0-.94.3-1.59,1.41-3ZM354.64,49a21.91,21.91,0,0,0-2.47-.14,18.44,18.44,0,0,0-5.25.71l-.15-1.43a24,24,0,0,1,5.56-.69c.4,0,.72,0,2.29.06Z"/>
        <path class="cls-1" d="M362.73,43.19a17.55,17.55,0,0,0-.12-2.31h1.55a14.81,14.81,0,0,0-.13,2.33v2.9h.51a12.93,12.93,0,0,0,1.74-.08v1.34a17.15,17.15,0,0,0-1.74-.08H364v5.39a17.12,17.12,0,0,0,1.79-1.07l.08,1.26a38.1,38.1,0,0,1-4.36,2.37c-.34.15-.93.44-1.12.55l-.4-1.47a10.4,10.4,0,0,0,2.71-1v-6h-.9a16.06,16.06,0,0,0-1.79.1V46a11.09,11.09,0,0,0,1.83.11h.86Zm5.9,9.6a13.24,13.24,0,0,1-3.53,2.79,3.74,3.74,0,0,0-.86-.95,10.06,10.06,0,0,0,4.88-4.43h-1.29a10.58,10.58,0,0,0-1.89.13V49a9.88,9.88,0,0,0,1.94.13h9a11.24,11.24,0,0,0,2.08-.13v1.33a16.15,16.15,0,0,0-2.08-.09h-6.42a10.89,10.89,0,0,1-1,1.54h6.95a15,15,0,0,0,2.06-.09,11.6,11.6,0,0,0-.11,1.24,20.64,20.64,0,0,1-.92,5.61c-.38.75-.9,1-2.33,1-.48,0-1.18,0-1.83-.08a3.58,3.58,0,0,0-.42-1.37,14.49,14.49,0,0,0,2.5.24c.84,0,1-.17,1.26-1.43a25.3,25.3,0,0,0,.46-4h-1.4A12.58,12.58,0,0,1,373.8,56a21.76,21.76,0,0,1-2.59,2.58,15.71,15.71,0,0,1-1.7,1.17,3.57,3.57,0,0,0-1-1,13.3,13.3,0,0,0,4.11-3.19,10.25,10.25,0,0,0,1.73-2.75h-2.08A14.62,14.62,0,0,1,366.53,58a3,3,0,0,0-.9-1,11.87,11.87,0,0,0,5.31-4.26Zm.67-5.08a15.62,15.62,0,0,0-1.91.08,14.66,14.66,0,0,0,.09-1.89V43.17a12.91,12.91,0,0,0-.09-1.85,12.79,12.79,0,0,0,2,.11h5.48a14.34,14.34,0,0,0,2.18-.11,16.23,16.23,0,0,0-.08,2V45.9a13,13,0,0,0,.08,1.87c-.46,0-1.11-.06-1.93-.06Zm-.58-3.66h7V42.52h-7Zm0,2.63h7v-1.6h-7Z"/>
        <path class="cls-1" d="M392.68,40.76a14.54,14.54,0,0,0,3.46,3.8A22.2,22.2,0,0,0,401.89,48a6,6,0,0,0-.84,1.32,29.3,29.3,0,0,1-5.92-3.86,17.33,17.33,0,0,1-3.23-3.53,19.51,19.51,0,0,1-4.41,4.6A24.53,24.53,0,0,1,383,49.26a3.68,3.68,0,0,0-.88-1.2,21.8,21.8,0,0,0,5.71-3.65,15.31,15.31,0,0,0,3.23-3.65Zm-7.33,18.77a15.88,15.88,0,0,0,.13-2.06V52.83a13.59,13.59,0,0,0-.11-1.93A11.67,11.67,0,0,0,387,51h9.84a11.67,11.67,0,0,0,1.64-.08,13.22,13.22,0,0,0-.1,1.93v4.64a15.35,15.35,0,0,0,.12,2.06H397V58.31H386.86v1.22Zm1.51-2.46H397V52.26H386.86Zm.15-9.93a11.27,11.27,0,0,0,1.66.08h6.5a13.24,13.24,0,0,0,1.77-.08v1.43a11.78,11.78,0,0,0-1.77-.09h-6.52a11,11,0,0,0-1.64.09Z"/>
        <path class="cls-1" d="M416.2,50.18a1.73,1.73,0,1,1-1.73-1.72A1.73,1.73,0,0,1,416.2,50.18Z"/>
        <path class="cls-1" d="M429.32,52.16a8,8,0,0,0-1.72.12V50.9a8.08,8.08,0,0,0,1.76.12h2.57V49.91a4,4,0,0,0-.11-.86h1.41a4,4,0,0,0-.09.86V51h2.31a8.47,8.47,0,0,0,1.7-.12v1.36a9.63,9.63,0,0,0-1.7-.1h-2a8.79,8.79,0,0,0,3,2.66,5.32,5.32,0,0,0-.74,1.14,10.94,10.94,0,0,1-2.62-2.9c0,.46.06,1.07.08,1.85v3a12.12,12.12,0,0,0,.11,1.81H431.8a12.2,12.2,0,0,0,.13-1.81V55c0-.5,0-1,.06-1.74a12.49,12.49,0,0,1-4,4.66,4.31,4.31,0,0,0-.8-1.18A13.78,13.78,0,0,0,430,54.4a9.91,9.91,0,0,0,1.54-2.24Zm3.74-4.69A11.33,11.33,0,0,0,434.47,44l1.26.4a22.71,22.71,0,0,1-1.43,3h1.24a9.77,9.77,0,0,0,1.7-.1v1.41a9.24,9.24,0,0,0-1.7-.11H429.3a8.94,8.94,0,0,0-1.74.11V47.37a9.72,9.72,0,0,0,1.74.1Zm2.14-4.82a10.12,10.12,0,0,0,1.77-.11V44a10.11,10.11,0,0,0-1.79-.11h-5.37A9.93,9.93,0,0,0,428,44V42.54a10.42,10.42,0,0,0,1.85.11h2.1v-.57a6.82,6.82,0,0,0-.11-1.47h1.53a7.38,7.38,0,0,0-.1,1.47v.57Zm-4.81,4.64a11.72,11.72,0,0,0-1.19-2.82l1.11-.42a12.49,12.49,0,0,1,1.2,2.84Zm14.39,0a10.11,10.11,0,0,0,1.93-.13v1.45a11.33,11.33,0,0,0-1.85-.11h-.78V57.7a10.08,10.08,0,0,0,.13,2.1h-1.62a12,12,0,0,0,.13-2.1V48.54h-3.3v.82a23.15,23.15,0,0,1-1.19,7.54,10.88,10.88,0,0,1-1.56,2.88,4.27,4.27,0,0,0-1.2-.88c2-2.48,2.65-5.42,2.65-12.43a37.21,37.21,0,0,0-.11-3.89h.26a20.46,20.46,0,0,0,5-1,6.69,6.69,0,0,0,1.93-.91l1.08,1.18a6.27,6.27,0,0,0-.76.29,25.17,25.17,0,0,1-6.05,1.56v3.59Z"/>
        <path class="cls-1" d="M452.76,42.69a16.53,16.53,0,0,0-1.93.08V41.45a14.3,14.3,0,0,0,2,.1h5.95a13.39,13.39,0,0,0,2-.1v1.32a16.37,16.37,0,0,0-1.91-.08h-.35v3h.77a11.58,11.58,0,0,0,2-.11v1.37a11.74,11.74,0,0,0-2-.11h-.79v3.07a13.5,13.5,0,0,0,.08,1.83h1.45a5.8,5.8,0,0,0-.13,1.57v.34h4.56a12.89,12.89,0,0,0,2.31-.13v1.41a16.15,16.15,0,0,0-2.29-.11H460v2.86h6.41a14.65,14.65,0,0,0,2.33-.11V59a20.51,20.51,0,0,0-2.4-.13H452.74a20,20,0,0,0-2.35.13V57.53a19.41,19.41,0,0,0,2.31.11h6V54.78h-4.07a16.46,16.46,0,0,0-2.31.11V53.48a11.82,11.82,0,0,0,2.22.13h4.16v-.34a9,9,0,0,0-.08-1.47h-1.41a12.06,12.06,0,0,0,.13-1.95V46.8h-3.05a9.54,9.54,0,0,1-.8,3.13,7.2,7.2,0,0,1-2.12,2.67,3.66,3.66,0,0,0-1-1,5.56,5.56,0,0,0,2-2.41,7.06,7.06,0,0,0,.61-2.4h-.76a11.54,11.54,0,0,0-2,.11V45.54a11.83,11.83,0,0,0,2,.11h.84c.07-1.09.09-1.53.09-3Zm1.68,0c0,1.45,0,2-.09,3h3v-3Zm7.68,6.23a10,10,0,0,0,.13-1.89V43.61a10.34,10.34,0,0,0-.13-1.89h1.54a9.72,9.72,0,0,0-.11,1.85V47.1a11.55,11.55,0,0,0,.09,1.82Zm5.74,1.49c0,1.26-.47,1.6-2.15,1.6-.67,0-1.36,0-2.07-.08a4.93,4.93,0,0,0-.36-1.39,12.51,12.51,0,0,0,1.89.19h.75c.49,0,.59-.11.59-.48V42.9a11.6,11.6,0,0,0-.12-2H468a12.66,12.66,0,0,0-.12,2.08Z"/>
        <path class="cls-1" d="M477.2,56.65a17.51,17.51,0,0,0-2.24.08V55.08a10.72,10.72,0,0,0,2.29.14h10V45.08h-9.55a16.65,16.65,0,0,0-2.42.11V43.51a12.11,12.11,0,0,0,2.42.14h10.07c.28,0,.57,0,1.1,0a15.59,15.59,0,0,0-.05,1.64V56a14.38,14.38,0,0,0,.11,1.91h-1.68V56.65Z"/>
        <path class="cls-1" d="M498.9,56.44v1.49h-1.62a11.38,11.38,0,0,0,.08-1.57V45a11.22,11.22,0,0,0-.08-1.64,15.91,15.91,0,0,0,1.64.06h11.19a11.58,11.58,0,0,0,1.64-.06,10.2,10.2,0,0,0-.07,1.64V56.31a15,15,0,0,0,.07,1.62h-1.6V56.44Zm11.25-11.67H498.9V55.08h11.25Z"/>
        <path class="cls-1" d="M533.08,46.8a13.5,13.5,0,0,0,2.46-.14v1.63a20.25,20.25,0,0,0-2.44-.1h-4.74c-.17,2.94-.55,4.51-1.56,6.11a12.08,12.08,0,0,1-5.2,4.39,4.7,4.7,0,0,0-1.07-1.35,9.64,9.64,0,0,0,5.2-4.32c.68-1.26.91-2.33,1.07-4.83H521a20.45,20.45,0,0,0-2.44.1V46.66a13.63,13.63,0,0,0,2.46.14h5.86c0-.77,0-1.19,0-1.84V43.44a9.4,9.4,0,0,0-.11-1.78h1.77a9.32,9.32,0,0,0-.11,1.78l0,1.52V46.8Z"/>
        <path class="cls-1" d="M554.65,44.77a4.53,4.53,0,0,0,1.76-.13l.86.82c-.19.33-.19.33-.46,2.12a13,13,0,0,1-3.8,7.66,16.42,16.42,0,0,1-6.15,3.49,4.22,4.22,0,0,0-1-1.43,13.56,13.56,0,0,0,4.64-2c2.94-2,4.48-4.91,4.88-9.17H543.94v3.15c0,.67,0,1.15.06,1.55h-1.72c0-.35.09-1,.09-1.57V46.38a14.31,14.31,0,0,0-.09-1.7,16.25,16.25,0,0,0,1.93.09h4.46V42.65a7,7,0,0,0-.11-1.35h1.76a8.66,8.66,0,0,0-.1,1.32v2.15Z"/>
        <path class="cls-1" d="M579.45,42.52a4.38,4.38,0,0,0-.92.88,36.8,36.8,0,0,1-4.92,4.22v9a13.1,13.1,0,0,0,.11,2.22h-1.83a10.44,10.44,0,0,0,.13-2.18v-8a32.84,32.84,0,0,1-8.11,3.67,4.7,4.7,0,0,0-.82-1.4A29.65,29.65,0,0,0,574,45.46a17.62,17.62,0,0,0,4-4Z"/>
        <path class="cls-1" d="M6.15,82.27A10.83,10.83,0,0,0,6,84.07c-.17,5.69-.34,7.25-1.14,9.37a12.75,12.75,0,0,1-3.63,5.18A4,4,0,0,0,0,97.49a10.42,10.42,0,0,0,3.55-4.83c.65-1.83.94-4.58.94-9a9.9,9.9,0,0,0-.08-1.49ZM11.36,82a7.74,7.74,0,0,0-.13,1.84l-.12,12.69A9.72,9.72,0,0,0,15,94.13a10.29,10.29,0,0,0,2.48-4.2,5.68,5.68,0,0,0,1.18,1.22,11.93,11.93,0,0,1-4.22,5.39,14.35,14.35,0,0,1-3,1.54l-.67.25a3.63,3.63,0,0,0-.48.23l-.84-1a3.57,3.57,0,0,0,.15-1.42l.12-12.29A8.74,8.74,0,0,0,9.64,82Z"/>
        <path class="cls-1" d="M39,98.35a39,39,0,0,0-6.71-6.49,22.76,22.76,0,0,1-4,3.76,27.57,27.57,0,0,1-4.12,2.52,4.74,4.74,0,0,0-1-1.39,16.58,16.58,0,0,0,4.26-2.41,22.79,22.79,0,0,0,7.5-9.47c0-.12.06-.15.1-.25a.3.3,0,0,0,.07-.15,3.86,3.86,0,0,1-.51,0l-7,.11a13.39,13.39,0,0,0-2.16.17l0-1.7a10.21,10.21,0,0,0,1.65.1h.55l7.5-.08a4,4,0,0,0,1.34-.17l.88.9a4,4,0,0,0-.59,1,25.4,25.4,0,0,1-3.46,5.88,52.09,52.09,0,0,1,7,6.3Z"/>
        <path class="cls-1" d="M61.88,85.63l-.56,1.13a15.62,15.62,0,0,1-2,3.3c.84,1.36,1.81,2.26,2.42,2.26.4,0,.69-.79.92-2.56a3.64,3.64,0,0,0,1,.84c-.44,2.19-1,3-2,3s-2.23-1-3.23-2.54a14.62,14.62,0,0,1-3,2.54,4.56,4.56,0,0,0-.93-.88A12.11,12.11,0,0,0,58,90a17.41,17.41,0,0,1-1.58-6.06H47.84c0,6.06-.38,8.08-1.79,10.24a3,3,0,0,0-1.17-.84c1.34-1.93,1.68-3.61,1.68-8.61a20,20,0,0,0-.11-2c.67.06,1.47.1,2.48.1h7.33l-.13-1.34a3.65,3.65,0,0,0-.13-.84h1.5a6.07,6.07,0,0,0-.07,1c0,.31,0,.61.07,1.19h3.4a12.39,12.39,0,0,0-2.44-1.59l.86-.72a16.61,16.61,0,0,1,2.48,1.58l-.78.73a13.16,13.16,0,0,0,2.38-.12V84a18.34,18.34,0,0,0-2.36-.1H57.62a16.53,16.53,0,0,0,1.18,5,12.1,12.1,0,0,0,1.85-3.8Zm-13.31,9a12,12,0,0,1-2.45,4.52L45,98.31A8.9,8.9,0,0,0,47.42,94Zm7.16-8a12.21,12.21,0,0,0-1.61-.08h-4a13.15,13.15,0,0,0-1.63.08V85.33a10.5,10.5,0,0,0,1.63.09h4a10.38,10.38,0,0,0,1.61-.09ZM49,89A10.18,10.18,0,0,0,49,87.83a13.84,13.84,0,0,0,1.43.06h3.38a14.27,14.27,0,0,0,1.45-.06A9.12,9.12,0,0,0,55.14,89V90.9a10.56,10.56,0,0,0,0,1.19,13.65,13.65,0,0,0-1.41,0H50.36a9.82,9.82,0,0,0-1.41.07A9.37,9.37,0,0,0,49,90.94Zm2.35,8.67c0,.48.3.54,3,.54,2.27,0,3.09-.12,3.38-.48a3.48,3.48,0,0,0,.34-1.8,4.11,4.11,0,0,0,1.28.52c-.3,2.79-.57,2.94-5.46,2.94-3.3,0-3.87-.21-3.87-1.45V95.56A8.68,8.68,0,0,0,50,94h1.51a7.84,7.84,0,0,0-.11,1.43ZM50.17,91H54v-2.1H50.17Zm5.67,5.57a15.74,15.74,0,0,0-3.4-2.48l.81-.78a17.78,17.78,0,0,1,3.45,2.35Zm4.72-2.4a23,23,0,0,1,2.86,4l-1.14.67a18.75,18.75,0,0,0-2.81-4.11Z"/>
        <path class="cls-1" d="M83.47,91.86a16.64,16.64,0,0,0,2.37-.12v1.4A20.3,20.3,0,0,0,83.47,93H78.29a11.84,11.84,0,0,0,2.52,2,20.73,20.73,0,0,0,5.75,2.44,5.68,5.68,0,0,0-.9,1.28,22.63,22.63,0,0,1-5.15-2.46,13,13,0,0,1-3.19-2.81c.06,1.13.08,1.91.08,2.37v1.79a8.88,8.88,0,0,0,.15,2.2H76a15.07,15.07,0,0,0,.12-2.2V95.89c0-.44,0-1.59.09-2.37a19.27,19.27,0,0,1-8,5.21,4.6,4.6,0,0,0-1-1.22,19.11,19.11,0,0,0,8-4.49h-5a20.42,20.42,0,0,0-2.35.12v-1.4a13.55,13.55,0,0,0,2.31.12h5.9v-.63A7.13,7.13,0,0,0,76,89.8h1.53a9.88,9.88,0,0,0-.08,1.43v.63Zm-15-8.1a16,16,0,0,1,3.32,1.72l-.76,1a11.23,11.23,0,0,0-3.32-1.79Zm5.23,3.38a31.14,31.14,0,0,1-4.62,3.23,3.23,3.23,0,0,0-.51.34l-.69-1.24a16.91,16.91,0,0,0,5.38-3.42ZM70,81a14.91,14.91,0,0,1,3.36,1.82l-.75,1A12.68,12.68,0,0,0,69.19,82Zm10.52,2.12c.86,0,1.45,0,1.85-.06a13.77,13.77,0,0,0-.08,1.72V88c0,.59.06.63,1,.63,1.09,0,1.41-.08,1.49-.44A10.53,10.53,0,0,0,84.9,86a3.91,3.91,0,0,0,1.22.49c-.21,3.23-.36,3.4-3,3.4-1.81,0-2.14-.23-2.14-1.43V84.26H78.6a7.88,7.88,0,0,1-5.14,6.43,3.42,3.42,0,0,0-.82-1A7.3,7.3,0,0,0,76.33,87a6.67,6.67,0,0,0,1-2.73H76.14a13.11,13.11,0,0,0-2.12.11V83a10.46,10.46,0,0,0,2.15.13h1.3c0-.42,0-.76,0-1.24a7.83,7.83,0,0,0-.08-1.24l1.47,0a4.69,4.69,0,0,0-.09,1c0,.38-.06,1-.08,1.47Z"/>
        <path class="cls-1" d="M92.5,88.36a19,19,0,0,0-2.31.12V87a13.79,13.79,0,0,0,2.34.13h5.29V84.54H94.44a17,17,0,0,0-2.27.1V83.25a13.33,13.33,0,0,0,2.29.13h3.36v-.73a13.34,13.34,0,0,0-.13-2h1.58a9.57,9.57,0,0,0-.13,2v.73h2a14.17,14.17,0,0,0,2.31-.13v1.39a15.52,15.52,0,0,0-2.25-.1h-2v2.62H101a20.27,20.27,0,0,0,5.29-5.56l1.24.81c-.25.28-.38.42-.65.76a29.35,29.35,0,0,1-4.08,4h3.45a13.68,13.68,0,0,0,2.24-.13v1.45a19.22,19.22,0,0,0-2.31-.12h-4.95c-1.2.86-2.14,1.47-3.38,2.22,1.11,0,1.6,0,2.18,0h3.61c1,0,1.56,0,2.29-.08a16.88,16.88,0,0,0-.08,2.31v4.7a14.87,14.87,0,0,0,.1,2.16h-1.44v-1H95.86v1H94.39a14.25,14.25,0,0,0,.13-2.16V93.9c0-.44,0-1,0-1.51-1.2.63-2.35,1.13-4.11,1.87a4.82,4.82,0,0,0-.82-1.2,40.05,40.05,0,0,0,9.68-4.7Zm3.36,5.54h8.7V91.67h-8.7Zm0,3.61h8.7V95h-8.7Z"/>
        <path class="cls-1" d="M120.9,92.58c-1.22,2.77-2.46,4-4,4-2,0-3.49-2.19-3.49-5.13a8.53,8.53,0,0,1,9-8.58A8.09,8.09,0,0,1,128.2,85a7,7,0,0,1,2,5.12,7.64,7.64,0,0,1-4.81,7.24,16.34,16.34,0,0,1-3.19,1,3.4,3.4,0,0,0-.74-1.41,12.59,12.59,0,0,0,3.51-1A6.34,6.34,0,0,0,128.73,90a5.53,5.53,0,0,0-3.34-5.27,6,6,0,0,0-2.44-.53A31.55,31.55,0,0,1,120.9,92.58Zm-2.59-7.33a7.26,7.26,0,0,0-3.42,6.26c0,2,.88,3.57,2,3.57.88,0,1.72-1,2.62-3a28.71,28.71,0,0,0,1.91-7.77A6.69,6.69,0,0,0,118.31,85.25Z"/>
        <path class="cls-1" d="M135.55,86A17.1,17.1,0,0,1,139,88.61l-.82,1A14.72,14.72,0,0,0,134.76,87Zm3.32,6.86a24.41,24.41,0,0,1-2.2,5.08L136,99.25l-1.19-1.07a17.24,17.24,0,0,0,3.1-6.15Zm-2.35-12a17.09,17.09,0,0,1,3.19,2.8l-.94,1a15,15,0,0,0-3.15-2.87Zm10.81,13.57a5.57,5.57,0,0,0,1.91,2.16,10.17,10.17,0,0,0,2.48-1.93l.93.69a17.89,17.89,0,0,1-2.5,1.81A10.39,10.39,0,0,0,154,98.46a4.79,4.79,0,0,0-.63,1.21,11.87,11.87,0,0,1-5-2.33,7.93,7.93,0,0,1-2.27-2.85h-1.84v3.36c1.07-.26,1.57-.38,3.21-.89l.08,1.1c-1.8.54-2.41.69-4.34,1.13-1.16.27-1.54.36-2.06.5l-.38-1.28A14.7,14.7,0,0,0,143,98.1V94.49h-2a10.17,10.17,0,0,1-2,5.12,3.31,3.31,0,0,0-1.07-.86c1.53-1.72,2.14-4,2.14-7.83a14.87,14.87,0,0,0-.09-2,12.43,12.43,0,0,0,1.83.09h9.83a10.58,10.58,0,0,0,2-.11V90.2a12.36,12.36,0,0,0-2-.1H141.27v1.13c0,.72-.05,1.31-.13,2.25h10.64a10.23,10.23,0,0,0,1.85-.1v1.21a11.08,11.08,0,0,0-1.85-.1Zm3.38-12.28a16.26,16.26,0,0,0,2-.09,11.76,11.76,0,0,0-.09,1.74v2.25a13.13,13.13,0,0,0,.09,1.83c-.59,0-1.12-.07-2-.07h-8.23c-.73,0-1.3,0-1.84.07a13.58,13.58,0,0,0,.08-1.79V83.88a14,14,0,0,0-.08-1.76,16.53,16.53,0,0,0,2,.09h1.64v-.13a5.66,5.66,0,0,0-.11-1.37h1.32a7.3,7.3,0,0,0-.08,1.35v.15h2.39v-.15a7.3,7.3,0,0,0-.08-1.35H149a6.79,6.79,0,0,0-.1,1.37v.13Zm-8.84.94v1.41h2.4V83.15Zm0,2.33V87h2.4V85.48Zm10.5,6.87a11,11,0,0,0-1.61-.09H144a10.48,10.48,0,0,0-1.6.09V91.19a11.34,11.34,0,0,0,1.6.09h6.76a11.48,11.48,0,0,0,1.59-.09Zm-7-7.79h2.39V83.15h-2.39Zm0,2.39h2.39V85.48h-2.39Zm3.49-2.39h2.56V83.15h-2.56Zm0,2.39h2.56V85.48h-2.56Z"/>
        <path class="cls-1" d="M160.57,84.28c0,5.55-.32,9.26-1,11.76a13.23,13.23,0,0,1-1.43,3.4,5.35,5.35,0,0,0-1.05-1.07,11.5,11.5,0,0,0,1.41-3.61,49,49,0,0,0,.73-10.06,22.59,22.59,0,0,0-.12-3.31,23.88,23.88,0,0,0,2.58.1h11.9a15.82,15.82,0,0,0,2.36-.12v1.36a16.24,16.24,0,0,0-2.34-.11H160.57Zm7.22,10.42c0-.51,0-.78-.06-1.07h.86a15.29,15.29,0,0,0,2.83-1.24H164.2a13.87,13.87,0,0,0-2.1.1V91.17a12.56,12.56,0,0,0,2.08.13h7.47a9.47,9.47,0,0,0,1.66-.09l.73.84a25.21,25.21,0,0,1-4.91,2.35v.3h4.94a14.36,14.36,0,0,0,2.18-.13v1.37a15.48,15.48,0,0,0-2.18-.13h-4.94v2.08a1.59,1.59,0,0,1-.5,1.38,3.63,3.63,0,0,1-2,.32c-.61,0-1.45,0-2.35-.13a4.62,4.62,0,0,0-.36-1.26,19.87,19.87,0,0,0,2.94.26c.76,0,1-.13,1-.61v-2H163a15.37,15.37,0,0,0-2.16.13V94.57a13.23,13.23,0,0,0,2.16.13Zm-5.15-9a14.68,14.68,0,0,0-.08-1.76c.69.06,1.26.08,2.29.08h7.2c1,0,1.6,0,2.29-.08a13.34,13.34,0,0,0-.09,1.76v2.6a14.4,14.4,0,0,0,.09,1.79C173.62,90,173,90,172.05,90h-7.2c-.95,0-1.6,0-2.29.09a15,15,0,0,0,.08-1.77Zm1.28.78H173V85h-9.05Zm0,2.52H173V87.47h-9.05Z"/>
        <path class="cls-1" d="M186,90.52c-.86.44-1.19.59-2.07,1v6.6c0,.77-.24,1.15-.8,1.32a8.74,8.74,0,0,1-1.72.17,5.2,5.2,0,0,1-.72,0,4.22,4.22,0,0,0-.35-1.31,8.78,8.78,0,0,0,1.42.13c.67,0,.86-.1.86-.5V92l-1.38.55A7.08,7.08,0,0,0,180,93l-.37-1.45a14.91,14.91,0,0,0,2.91-.88v-4.6h-1.09a12.22,12.22,0,0,0-1.55.08V84.79a9.37,9.37,0,0,0,1.57.12h1.07v-2a13.2,13.2,0,0,0-.14-2.12H184a12.77,12.77,0,0,0-.14,2.1v2h.67a9.48,9.48,0,0,0,1.45-.08v1.34a9.62,9.62,0,0,0-1.43-.08h-.69v4.09a20.68,20.68,0,0,0,2-.92V88a10.7,10.7,0,0,0,1.87.1h5.5a12.59,12.59,0,0,0,1.7-3.55l1.24.38a16.94,16.94,0,0,1-1.64,3.17h2.29a12.5,12.5,0,0,0,2.06-.1v1.36a12.67,12.67,0,0,0-2-.1h-9.09a14.28,14.28,0,0,0-1.83.08Zm9.89,2.2a8.6,8.6,0,0,1-2.41,3.66,37.59,37.59,0,0,1,4.79,2.41l-1,1.11a30.09,30.09,0,0,0-4.89-2.66,17.06,17.06,0,0,1-7,2.45,3.8,3.8,0,0,0-.7-1.23A14.65,14.65,0,0,0,191,96.67a35.84,35.84,0,0,0-4.15-1.38,16.5,16.5,0,0,0,2.1-2.57H187.7a11.18,11.18,0,0,0-2,.11V91.46a11.18,11.18,0,0,0,2,.11h2a9.81,9.81,0,0,0,1-2.08l1.43.31c-.15.3-.27.51-1,1.77h5.71a11.07,11.07,0,0,0,2-.11v1.37a11.29,11.29,0,0,0-2-.11Zm.42-9.61a11.84,11.84,0,0,0,2.1-.11v1.37a11,11,0,0,0-2-.11h-7.88a11,11,0,0,0-2,.11V83a11.86,11.86,0,0,0,2.08.11h2.94v-.67a8.82,8.82,0,0,0-.13-1.6h1.53a10.85,10.85,0,0,0-.1,1.62v.65Zm-6.93,1.49a16.8,16.8,0,0,1,1.29,2.79l-1.18.44A13.76,13.76,0,0,0,188.2,85Zm1.08,8.12a19.2,19.2,0,0,1-1.54,2c1.64.5,2.25.71,3.34,1.13a6.47,6.47,0,0,0,2.27-3.17Z"/>
        <path class="cls-1" d="M209.22,85.9a12.48,12.48,0,0,0,1.93-.11,15.1,15.1,0,0,0-.08,1.87V97.85c0,1.26-.36,1.49-2.16,1.49-.38,0-.51,0-1.56-.07A3.83,3.83,0,0,0,207.1,98a16.66,16.66,0,0,0,2,.17c.7,0,.84-.08.84-.44V94.17h-5.1a12.87,12.87,0,0,1-1.24,5.4,4.7,4.7,0,0,0-1.19-.88c1.11-2,1.38-4,1.38-10.35,0-.89,0-.89,0-1.62,0,.08-.23.27-.5.63a4.19,4.19,0,0,0-1-.88,12.55,12.55,0,0,0,2.9-4.18,10.38,10.38,0,0,0,.65-1.83l1.34.38c-.1.17-.31.61-.65,1.34h1.89a7.12,7.12,0,0,0,1.2-.06l.61.65a14.47,14.47,0,0,0-.74,1.32c-.34.66-.76,1.39-1,1.81Zm-2.14,0a19.09,19.09,0,0,0,1.43-2.6h-2.58a18.07,18.07,0,0,1-1.56,2.58c.59,0,.72,0,1.43,0Zm-.25,7.18V90.5h-1.89c0,1.13,0,1.55-.09,2.58ZM205,87V88.4l0,1h1.89V87Zm4.93,0h-2v2.42h2Zm0,3.49h-2v2.58h2Zm5.78-7.9a11.54,11.54,0,0,0-.13-1.84H217a12.06,12.06,0,0,0-.12,1.84V85h1.78a13.19,13.19,0,0,0,2-.11,17.77,17.77,0,0,0-.08,2v3.44a16.27,16.27,0,0,0,.08,2,14.28,14.28,0,0,0-1.93-.09h-1.82V97c1.19-.19,1.51-.26,2.56-.49A26.23,26.23,0,0,0,218.17,94l1.05-.44a37.19,37.19,0,0,1,2.43,5.21l-1.24.54c-.29-.94-.4-1.28-.56-1.76a62.8,62.8,0,0,1-6.43,1.28,12.06,12.06,0,0,0-1.36.28l-.28-1.52a26,26,0,0,0,3.89-.37V92.3h-1.51a15.3,15.3,0,0,0-2,.09,16.48,16.48,0,0,0,.09-2V86.91a16.84,16.84,0,0,0-.09-2,13.48,13.48,0,0,0,1.95.11h1.54Zm-2.19,3.55v5h2.19v-5Zm5.84,5v-5h-2.43v5Z"/>
        <path class="cls-1" d="M227.58,88.36a18.76,18.76,0,0,0-2.31.12V87a13.57,13.57,0,0,0,2.33.13h5.29V84.54h-3.38a17,17,0,0,0-2.27.1V83.25a13.41,13.41,0,0,0,2.29.13h3.36v-.73a12.13,12.13,0,0,0-.13-2h1.58a9.57,9.57,0,0,0-.13,2v.73h1.95a14.09,14.09,0,0,0,2.31-.13v1.39a15.36,15.36,0,0,0-2.24-.1h-2v2.62h1.89a20.27,20.27,0,0,0,5.29-5.56l1.24.81c-.25.28-.38.42-.65.76a29.23,29.23,0,0,1-4.07,4h3.44A13.9,13.9,0,0,0,243.6,87v1.45a19.46,19.46,0,0,0-2.31-.12h-5c-1.19.86-2.14,1.47-3.38,2.22,1.11,0,1.6,0,2.19,0h3.61c1,0,1.55,0,2.29-.08a15,15,0,0,0-.09,2.31v4.7a13.29,13.29,0,0,0,.11,2.16h-1.45v-1h-8.67v1h-1.47a15.91,15.91,0,0,0,.12-2.16V93.9c0-.44,0-1,0-1.51-1.19.63-2.35,1.13-4.11,1.87a4.34,4.34,0,0,0-.82-1.2,40.05,40.05,0,0,0,9.68-4.7Zm3.36,5.54h8.69V91.67h-8.69Zm0,3.61h8.69V95h-8.69Z"/>
        <path class="cls-1" d="M247.44,84.41a9.25,9.25,0,0,0,1.68.1h3.63a8.66,8.66,0,0,0,1.68-.1v1.34c-.44,0-.84-.06-1.53-.06h-3.78a13.08,13.08,0,0,0-1.68.08Zm.76-2.9a6.89,6.89,0,0,0,1.51.11h2.73a7,7,0,0,0,1.51-.11v1.32a11,11,0,0,0-1.51-.08h-2.73a10.63,10.63,0,0,0-1.51.08Zm.06,5.86a8.8,8.8,0,0,0,1.43.08h2.81a8.15,8.15,0,0,0,1.41-.08v1.3a9.33,9.33,0,0,0-1.41-.08h-2.81a8.8,8.8,0,0,0-1.43.08Zm0,2.9a9,9,0,0,0,1.43.08h2.81a8.3,8.3,0,0,0,1.41-.08v1.3a9.17,9.17,0,0,0-1.41-.09h-2.81a9.09,9.09,0,0,0-1.43.09Zm.06,9.42a18.84,18.84,0,0,0,.11-2V94.8a14.61,14.61,0,0,0-.08-1.72,12.64,12.64,0,0,0,1.7.08h2.22a12.47,12.47,0,0,0,1.53-.06,15.64,15.64,0,0,0-.06,1.64v3a9.15,9.15,0,0,0,.11,1.72h-1.28v-.9h-2.94v1.17Zm1.29-2.26h3V94.24h-3Zm7.09-4.35a14.9,14.9,0,0,1-1.4,5.08l-1.14-.59a11.2,11.2,0,0,0,1.35-4.74Zm-.54-8.9a25.36,25.36,0,0,1,2.56,1,12.33,12.33,0,0,0,.46-2.25h-2a10.37,10.37,0,0,0-2.1.13V81.66a13.68,13.68,0,0,0,2.12.13h6.42a16.77,16.77,0,0,0,2-.09c0,.29,0,.42-.08,1-.17,3.48-.5,5.69-1,6.63-.31.59-.75.76-1.89.76a15.14,15.14,0,0,1-1.72-.11,3.78,3.78,0,0,0-.31-1.32,9.25,9.25,0,0,0,2,.23c.73,0,.92-.19,1.15-1.09a24.91,24.91,0,0,0,.53-4.87h-3.8a13.82,13.82,0,0,1-.61,2.77c.84.44,1.24.65,2.31,1.32l-.69,1a14.43,14.43,0,0,0-2-1.3A10.1,10.1,0,0,1,255.27,91a3.7,3.7,0,0,0-.92-1,8,8,0,0,0,4-3.85,23.4,23.4,0,0,0-2.77-1.11Zm2.73,13.41c0,.45.21.53,1.28.53.48,0,1.45,0,1.66-.06.71-.09.88-.3,1-1.18A11.82,11.82,0,0,0,263,95.1a3.87,3.87,0,0,0,1.2.44c-.17,1.91-.4,2.79-.82,3.21s-1,.52-3.15.52S257.65,99,257.65,98V94.19a11.09,11.09,0,0,0-.13-1.7H259a6.8,6.8,0,0,0-.12,1.62Zm.18-7.72a17.15,17.15,0,0,1,3.39,2.75l-.95.88a11.59,11.59,0,0,0-3.34-2.88Zm5.51,2.67A19,19,0,0,1,267.14,97l-1.12.7a16.62,16.62,0,0,0-2.47-4.56Z"/>
        <path class="cls-1" d="M278.86,88.08h-3.72a13.47,13.47,0,0,0-2.08.13V86.76a14,14,0,0,0,2.08.13h8.69a13.94,13.94,0,0,0,2.08-.13v1.45a12.87,12.87,0,0,0-2.08-.13h-3.67v3.43h4a13.15,13.15,0,0,0,2-.13v1.43a10.79,10.79,0,0,0-2-.13h-4v4.66a18.6,18.6,0,0,0,3.42.23c1.7,0,3.15-.06,4.92-.21a3.9,3.9,0,0,0-.47,1.47c-1.82,0-2,0-2.54,0a29.26,29.26,0,0,1-4.6-.17c-3.27-.46-5.33-1.72-6.44-3.95a14.33,14.33,0,0,1-3.19,4.77,4.09,4.09,0,0,0-1.09-1A11.29,11.29,0,0,0,273,94.8,13.36,13.36,0,0,0,274.28,90V89.8l1.47.3-.25,1.09c-.11.51-.42,1.72-.57,2.23a6.52,6.52,0,0,0,1.66,2.31A7.19,7.19,0,0,0,278.86,97Zm-.32-5.94a7.53,7.53,0,0,0-.12-1.32h1.63a5.75,5.75,0,0,0-.14,1.3v1H286c.82,0,1.43,0,2.1-.08a9.78,9.78,0,0,0-.09,1.42v1.33a10.33,10.33,0,0,0,.09,1.49h-1.37V84.37H272.12v2.94h-1.39a10.43,10.43,0,0,0,.09-1.49V84.49a9.68,9.68,0,0,0-.09-1.42c.67.06,1.28.08,2.12.08h5.69Z"/>
        <path class="cls-1" d="M293,86.63a41.89,41.89,0,0,0,4.64-.54,25.71,25.71,0,0,0,.63-4.45v-.27l1.68.18a14.19,14.19,0,0,0-.4,2c-.08.52-.27,1.49-.44,2.39.49,0,.76-.06,1.24-.06a4,4,0,0,1,3,.88c.74.69,1,1.66,1,3.38,0,3.22-.54,6-1.4,7.22a2.19,2.19,0,0,1-2.06,1,7.89,7.89,0,0,1-3.17-.82,4.84,4.84,0,0,0,0-.75,4.06,4.06,0,0,0-.06-.82,7.76,7.76,0,0,0,3.13,1c.52,0,.92-.33,1.19-1A16.24,16.24,0,0,0,303,90.1c0-2.23-.63-2.94-2.58-2.94a12.68,12.68,0,0,0-1.51.1,40.64,40.64,0,0,1-4.54,11.43l-1.42-.84a31,31,0,0,0,4.49-10.46,26.56,26.56,0,0,0-4.22.76Zm13.8-1.93a19.31,19.31,0,0,1,4.39,7.44l-1.35.75a17.69,17.69,0,0,0-4.28-7.54Zm.94-3.57a16.36,16.36,0,0,1,2.17,3.26l-1.06.63a15.93,15.93,0,0,0-2.16-3.34ZM310.12,80a16.9,16.9,0,0,1,2.17,3.25l-1.05.61a15.13,15.13,0,0,0-2.14-3.29Z"/>
        <path class="cls-1" d="M317,85.52a8.71,8.71,0,0,0,1.62.11,49.56,49.56,0,0,0,6.26-.44c-.32-.72-.65-1.56-1-2.5-.23-.55-.36-.84-.55-1.22l1.66-.23a7.05,7.05,0,0,0,.61,1.89,16.35,16.35,0,0,0,.76,1.85,24.54,24.54,0,0,0,5.08-1.33l.21,1.49c-.44.09-.61.13-1.24.3-1.26.33-1.51.4-2.83.65l-.72.15a39.89,39.89,0,0,0,3.78,6.11l-1.41.79a4.15,4.15,0,0,0-1.45-.86,11.54,11.54,0,0,0-3.67-.54,7.45,7.45,0,0,0-4,.88A2.39,2.39,0,0,0,319,94.57a2.09,2.09,0,0,0,.8,1.64,7.07,7.07,0,0,0,4.09,1,13.79,13.79,0,0,0,6-1.34l.23,1.62a17.53,17.53,0,0,1-6.17,1.13c-2.56,0-4.49-.57-5.46-1.57a3.38,3.38,0,0,1-.94-2.31,3.91,3.91,0,0,1,2.37-3.42,8.85,8.85,0,0,1,4.07-.78,10.53,10.53,0,0,1,4.35.75,25.61,25.61,0,0,1-2.52-4.11c-.23-.44-.23-.48-.36-.69a62.29,62.29,0,0,1-7.47.54,4.83,4.83,0,0,0-.82.06Z"/>
        <path class="cls-1" d="M337.91,94.05a32.66,32.66,0,0,0,3.7-3.55c0-.84.06-2.16.12-4a23.4,23.4,0,0,0-3.3.29l-.08-1.45a3.59,3.59,0,0,0,.65,0l2.75-.17c.07-1.6.09-2.54.09-2.82a7.22,7.22,0,0,0-.07-1l1.66,0a24.56,24.56,0,0,0-.25,3.73,1.43,1.43,0,0,0,.42-.1l.55.65a6.52,6.52,0,0,0-1.07,1.3,2.44,2.44,0,0,1,0,.52c0,.42,0,.42,0,1.41a1.18,1.18,0,0,1,0,.19c0,.17,0,.21,0,.34l0,0A14.71,14.71,0,0,1,345.68,87c1.91-1.53,3.48-2.31,4.74-2.31a2.28,2.28,0,0,1,2.46,2.46,14.37,14.37,0,0,1-.48,3.06,22.78,22.78,0,0,0-.9,5c0,1,.44,1.49,1.25,1.49a2.53,2.53,0,0,0,1.79-1.15,9.11,9.11,0,0,0,1.2-2.42,6.73,6.73,0,0,0,1,1.43,10.78,10.78,0,0,1-1.3,2.08,3.6,3.6,0,0,1-2.9,1.51,2.41,2.41,0,0,1-2.45-2.84c0-1.07,0-1.3.79-4.89a15.88,15.88,0,0,0,.53-3.15,1.06,1.06,0,0,0-1.16-1.13A6,6,0,0,0,347,87.52,33.28,33.28,0,0,0,343,91.09v4.53a34.27,34.27,0,0,0,.06,3.49h-1.63a18.93,18.93,0,0,0,.14-3.47c0-2.45,0-2.45.07-3.4h-.05a2,2,0,0,1-.37.5l-1,1.16-.88,1a4.16,4.16,0,0,0-.55.67Z"/>
        <path class="cls-1" d="M361.28,85a15.19,15.19,0,0,0,2.63.19,12.34,12.34,0,0,0,1.26,0,20.43,20.43,0,0,0,.46-3.86l1.66.17a17.45,17.45,0,0,0-.38,2c-.1.67-.17,1-.27,1.6a17.15,17.15,0,0,0,3.78-.72l.1,1.45a4.68,4.68,0,0,0-.59.11,29.83,29.83,0,0,1-3.54.5c-.32,1.66-.91,4-1.47,5.94a57,57,0,0,1-2.42,6.41L361,98.06a42.53,42.53,0,0,0,3.95-11.61c-.42,0-.68,0-1.45,0s-.93,0-1.75,0h-.08a2.25,2.25,0,0,0-.36,0Zm9.39,7.62a6.25,6.25,0,0,0-.63.8,2.49,2.49,0,0,0-.53,1.49c0,1.26,1.28,1.93,3.68,1.93a15.63,15.63,0,0,0,4.64-.72l.15,1.58-.93.15a21.07,21.07,0,0,1-3.74.35c-3.44,0-5.22-1.07-5.22-3.15,0-.94.29-1.59,1.4-3ZM377.16,89a22.21,22.21,0,0,0-2.48-.14,18.44,18.44,0,0,0-5.25.71l-.15-1.43a24.06,24.06,0,0,1,5.57-.69c.4,0,.71,0,2.29.06Z"/>
        <path class="cls-1" d="M385.24,83.19a17.55,17.55,0,0,0-.12-2.31h1.55a15,15,0,0,0-.12,2.33v2.9h.5a12.93,12.93,0,0,0,1.74-.08v1.34a17.15,17.15,0,0,0-1.74-.08h-.5v5.39a18.18,18.18,0,0,0,1.78-1.07l.09,1.26a37.39,37.39,0,0,1-4.37,2.37c-.34.15-.93.44-1.12.55l-.39-1.47a10.52,10.52,0,0,0,2.7-1v-6h-.9a15.73,15.73,0,0,0-1.78.1V86a10.9,10.9,0,0,0,1.82.11h.86Zm5.9,9.6a13.35,13.35,0,0,1-3.52,2.79,4.16,4.16,0,0,0-.86-1,10,10,0,0,0,4.87-4.43h-1.28a10.58,10.58,0,0,0-1.89.13V89a9.7,9.7,0,0,0,1.93.13h9a11.24,11.24,0,0,0,2.08-.13v1.33a16.15,16.15,0,0,0-2.08-.09h-6.42a10.89,10.89,0,0,1-1,1.54h7a14.87,14.87,0,0,0,2.06-.09,10.17,10.17,0,0,0-.1,1.24,20.94,20.94,0,0,1-.93,5.61c-.38.75-.9,1-2.33,1-.48,0-1.18,0-1.83-.08a3.41,3.41,0,0,0-.42-1.37,14.49,14.49,0,0,0,2.5.24c.84,0,1-.17,1.26-1.43a25.3,25.3,0,0,0,.46-4h-1.4A12.29,12.29,0,0,1,396.31,96a22.45,22.45,0,0,1-2.58,2.58,16.79,16.79,0,0,1-1.7,1.17,3.76,3.76,0,0,0-1-1,13.3,13.3,0,0,0,4.11-3.19,10.25,10.25,0,0,0,1.73-2.75h-2.08A14.62,14.62,0,0,1,389,98a3,3,0,0,0-.9-1,11.87,11.87,0,0,0,5.31-4.26Zm.68-5.08a15.51,15.51,0,0,0-1.91.08A17,17,0,0,0,390,85.9V83.17a14.94,14.94,0,0,0-.08-1.85,12.65,12.65,0,0,0,2,.11h5.48a14.27,14.27,0,0,0,2.18-.11,16.23,16.23,0,0,0-.08,2V85.9a13,13,0,0,0,.08,1.87c-.46,0-1.11-.06-1.93-.06Zm-.59-3.66h7V82.52h-7Zm0,2.63h7v-1.6h-7Z"/>
        <path class="cls-1" d="M415.19,80.76a14.72,14.72,0,0,0,3.46,3.8A22.09,22.09,0,0,0,424.41,88a5.38,5.38,0,0,0-.84,1.32,29.3,29.3,0,0,1-5.92-3.86,17.38,17.38,0,0,1-3.24-3.53,19.51,19.51,0,0,1-4.41,4.6,24.19,24.19,0,0,1-4.45,2.73,3.68,3.68,0,0,0-.88-1.2,21.8,21.8,0,0,0,5.71-3.65,15.31,15.31,0,0,0,3.23-3.65Zm-7.33,18.77a15.88,15.88,0,0,0,.13-2.06V92.83a12.25,12.25,0,0,0-.11-1.93,11.67,11.67,0,0,0,1.64.08h9.85A11.6,11.6,0,0,0,421,90.9a13.22,13.22,0,0,0-.1,1.93v4.64a13.73,13.73,0,0,0,.13,2.06h-1.52V98.31H409.37v1.22Zm1.51-2.46h10.14V92.26H409.37Zm.15-9.93a11.27,11.27,0,0,0,1.66.08h6.51a13.07,13.07,0,0,0,1.76-.08v1.43a11.64,11.64,0,0,0-1.76-.09h-6.53a11,11,0,0,0-1.64.09Z"/>
        <path class="cls-1" d="M432.12,82a29.76,29.76,0,0,0-1.62,9.85c0,.74,0,2,.08,2.94,0,.17,0,.21,0,.59v.4l.09,0a18.28,18.28,0,0,1,1.24-3.7,2.89,2.89,0,0,0,.16-.42l1,.49a18.19,18.19,0,0,0-1.8,6,2.48,2.48,0,0,0,0,.42l-1.49.14c0-.18,0-.29-.13-.77a33.28,33.28,0,0,1-.58-6.24A35.51,35.51,0,0,1,430.25,83a9.22,9.22,0,0,0,.23-1.32Zm2.12,3.91a14.59,14.59,0,0,0,3.77.33c.82,0,1.39,0,2.25-.06,0-2,0-2,0-3.57a4.93,4.93,0,0,0-.06-.86h1.57a22.56,22.56,0,0,0-.14,3.3c0,.23,0,.56,0,1a14.67,14.67,0,0,0,3.63-.78l.06,1.43-1.47.29a19.54,19.54,0,0,1-2.22.34c0,2.07.06,3.15.23,5.94a15,15,0,0,1,3.5,2.06c.26.16.3.21.53.35l-.65,1.47a11.42,11.42,0,0,0-3-2.18.75.75,0,0,1-.21-.13l-.19-.12a3.07,3.07,0,0,1,0,.54,3.59,3.59,0,0,1-.25,1.43c-.51,1.11-1.79,1.76-3.51,1.76-2.43,0-4-1.15-4-3s1.66-3,4-3a6,6,0,0,1,2.33.42c-.06-.44-.14-2.41-.21-5.48-.94,0-1.59.06-2.39.06s-1.64,0-2.37-.06a5.85,5.85,0,0,0-.68,0l-.35,0-.21,0h-.09Zm4,7.87c-1.64,0-2.71.69-2.71,1.74s1,1.7,2.43,1.7a2.91,2.91,0,0,0,2.15-.73,2.49,2.49,0,0,0,.39-1.64c0-.14,0-.63,0-.63A5.49,5.49,0,0,0,438.27,93.73Z"/>
        <path class="cls-1" d="M452.4,83.61a11.77,11.77,0,0,0-.17-2.2h1.68a14.05,14.05,0,0,0-.12,2v.25l.1,10.65c1.16-.46,1.85-.78,2.75-1.22a26.61,26.61,0,0,0,3.22-1.76l.27,1.3a48,48,0,0,1-8.23,3.92,9.34,9.34,0,0,0-1.24.53l-.46-1.53a18.47,18.47,0,0,0,2.31-.7Zm14.53-2.22a18.55,18.55,0,0,0-.17,2.07,31.65,31.65,0,0,1-.94,5.55,15.34,15.34,0,0,1-1.68,3.82,13.37,13.37,0,0,0,5.14,5.31,5.13,5.13,0,0,0-.94,1.34,15.48,15.48,0,0,1-3.24-2.91,15.3,15.3,0,0,1-1.76-2.52,16.8,16.8,0,0,1-7.68,5.6,4.17,4.17,0,0,0-.91-1.26,18.05,18.05,0,0,0,4.2-2.08A13.42,13.42,0,0,0,464.68,88a22.46,22.46,0,0,0,.68-5.56,6.92,6.92,0,0,0-.07-1.1Zm-9.17,1.44a31.85,31.85,0,0,1,4.07,5l-1.26.88a24.17,24.17,0,0,0-4-5.12Z"/>
        <path class="cls-1" d="M475.21,83.28a21.6,21.6,0,0,0-2.46.12V81.85a20.53,20.53,0,0,0,2.46.12h13.6a20.86,20.86,0,0,0,2.44-.12V83.4a21.73,21.73,0,0,0-2.44-.12h-6.59v2.39a45.5,45.5,0,0,1,7.45,4.3l-.81,1.31a30.51,30.51,0,0,0-4.46-2.94,20.39,20.39,0,0,0-2.18-1.16v9.89a14.7,14.7,0,0,0,.15,2.48h-1.75a14.86,14.86,0,0,0,.15-2.48V83.28Z"/>
        <path class="cls-1" d="M503.6,92.58c-1.22,2.77-2.46,4-4,4-2,0-3.48-2.19-3.48-5.13a8.52,8.52,0,0,1,9-8.58A8.13,8.13,0,0,1,510.91,85a7,7,0,0,1,2,5.12,7.64,7.64,0,0,1-4.81,7.24,16.34,16.34,0,0,1-3.19,1,3.38,3.38,0,0,0-.73-1.41,12.51,12.51,0,0,0,3.5-1A6.34,6.34,0,0,0,511.43,90a5.53,5.53,0,0,0-3.34-5.27,5.89,5.89,0,0,0-2.43-.53A31.93,31.93,0,0,1,503.6,92.58ZM501,85.25a7.27,7.27,0,0,0-3.43,6.26c0,2,.89,3.57,2,3.57.88,0,1.72-1,2.62-3a28.71,28.71,0,0,0,1.91-7.77A6.61,6.61,0,0,0,501,85.25Z"/>
        <path class="cls-1" d="M532.83,82.52a6,6,0,0,0-.65,1.28,34.88,34.88,0,0,1-3.09,6.13,52.39,52.39,0,0,1,4.83,4.52l-1.17,1.3a30.61,30.61,0,0,0-4.58-4.56,25.22,25.22,0,0,1-8.44,7.31,3.82,3.82,0,0,0-1.09-1.26,22.36,22.36,0,0,0,8.35-7,40,40,0,0,0-5.65-3.8l1.06-1.11A61.68,61.68,0,0,1,527.85,89a28,28,0,0,0,2.48-4.89,9.23,9.23,0,0,0,.74-2.22Z"/>
        <path class="cls-1" d="M540.88,89.24a15.45,15.45,0,0,0,2.6.12h12.2a17.39,17.39,0,0,0,2.54-.1V91a25.24,25.24,0,0,0-2.56-.08H543.48a23.9,23.9,0,0,0-2.6.08Z"/>
        <path class="cls-1" d="M569,82.27a10.83,10.83,0,0,0-.12,1.8c-.17,5.69-.34,7.25-1.14,9.37a12.75,12.75,0,0,1-3.63,5.18,4,4,0,0,0-1.26-1.13,10.42,10.42,0,0,0,3.55-4.83c.65-1.83.94-4.58.94-9a9.9,9.9,0,0,0-.08-1.49Zm5.21-.23a7.74,7.74,0,0,0-.13,1.84l-.12,12.69a9.72,9.72,0,0,0,3.9-2.44,10.29,10.29,0,0,0,2.48-4.2,5.88,5.88,0,0,0,1.17,1.22,11.85,11.85,0,0,1-4.21,5.39,14.35,14.35,0,0,1-3,1.54l-.67.25a3.63,3.63,0,0,0-.48.23l-.84-1a3.64,3.64,0,0,0,.14-1.42l.13-12.29a8.74,8.74,0,0,0-.08-1.86Z"/>
        <path class="cls-1" d="M9.62,126.32a6.77,6.77,0,0,0-.09,1.47c-.06,3.51-.65,5.59-2.08,7.39a11.35,11.35,0,0,1-5.37,3.63,4,4,0,0,0-1-1.4A10,10,0,0,0,5,135.47c2.22-1.78,3-3.92,3-8a5.83,5.83,0,0,0-.08-1.13Zm8.29-2.65a4,4,0,0,0-.5.84,12.57,12.57,0,0,1-6.14,6,4.14,4.14,0,0,0-1-1.2,9.08,9.08,0,0,0,3.31-2,11.17,11.17,0,0,0,2.36-3.13H4a21.3,21.3,0,0,0-2.48.1v-1.61a16.19,16.19,0,0,0,2.5.14H15.29c1.4,0,1.4,0,1.78-.14Z"/>
        <path class="cls-1" d="M27.49,138.81a14.51,14.51,0,0,0,.12-2.2v-13a12.93,12.93,0,0,0-.12-2.14h1.8a12.48,12.48,0,0,0-.1,2.18v3.93A54.6,54.6,0,0,1,38.53,132l-.9,1.55a43.75,43.75,0,0,0-7.83-4.15,3,3,0,0,1-.65-.36l0,0a6.35,6.35,0,0,1,.09,1.24v6.32a13.51,13.51,0,0,0,.1,2.22Zm8.06-16.54a15.56,15.56,0,0,1,2.16,3.25l-1.05.63a15.42,15.42,0,0,0-2.16-3.34Zm2.37-1.16a18.1,18.1,0,0,1,2.17,3.28L39,125a15.35,15.35,0,0,0-2.15-3.32Z"/>
        <path class="cls-1" d="M50.36,122a11.78,11.78,0,0,0-.11,1.87l-.06,12.66a15.87,15.87,0,0,0,6-2.1,12.76,12.76,0,0,0,4.73-5,5.39,5.39,0,0,0,1.15,1.32c-2.87,4.28-6,6.24-11.57,7.33a5.85,5.85,0,0,0-1.21.31l-.84-1a4.14,4.14,0,0,0,.14-1.36l0-12v-.78c0-.42,0-.67-.07-1.13Z"/>
        <path class="cls-1" d="M84,138.35a39.1,39.1,0,0,0-6.72-6.49,22.76,22.76,0,0,1-4,3.76,27.07,27.07,0,0,1-4.12,2.52,4.54,4.54,0,0,0-1-1.38,17.28,17.28,0,0,0,4.26-2.42,22.7,22.7,0,0,0,7.49-9.47c0-.12.07-.15.11-.25a.39.39,0,0,0,.06-.15,3.7,3.7,0,0,1-.5,0l-7,.11a13.39,13.39,0,0,0-2.16.17l0-1.7a10.35,10.35,0,0,0,1.66.1h.54l7.5-.08a4,4,0,0,0,1.34-.17l.89.9a4,4,0,0,0-.59,1,25.76,25.76,0,0,1-3.47,5.88,52.09,52.09,0,0,1,7,6.3Z"/>
        <path class="cls-1" d="M106.34,138a16.7,16.7,0,0,0-4.28-3c-.36-.19-.84-.4-1.41-.63a6.31,6.31,0,0,1,0,.76,3.61,3.61,0,0,1-.52,2.28,4.24,4.24,0,0,1-3.55,1.33,5.48,5.48,0,0,1-3.25-.84,2.75,2.75,0,0,1-1.14-2.21c0-1.38,1.09-2.47,2.94-2.89a9,9,0,0,1,2.18-.21,9.73,9.73,0,0,1,1.89.16c0-.06,0-.06,0-.25a1.63,1.63,0,0,1,0-.23c0-.19,0-.63,0-1.24,0-.27,0-.67,0-1.22-.76,0-1.81.05-2.48.05-1.26,0-2.25-.05-3.55-.15-.23,0-.4,0-.52,0H92.4l0-1.39a25.75,25.75,0,0,0,4.81.34c.54,0,1.28,0,1.87,0l0-2.88c-.61,0-1,0-1.43,0-1.54,0-3.24-.06-5.13-.21a2.56,2.56,0,0,0-.37,0,1.85,1.85,0,0,0-.3,0l0-1.43a25.61,25.61,0,0,0,5.38.42l1.83,0a17.6,17.6,0,0,0-.11-3h1.62a21.91,21.91,0,0,0-.15,3,29.4,29.4,0,0,0,6.21-.86l.11,1.43c-.36,0-.36,0-1.45.16a42.73,42.73,0,0,1-4.87.51c0,1.72,0,1.72,0,2.83a25.35,25.35,0,0,0,5.82-.86l.08,1.45c-.27,0-.48,0-1.22.15-1.44.23-3.1.4-4.66.5,0,1.18,0,1.18.13,3.21a18.47,18.47,0,0,1,5.86,3.07,7.45,7.45,0,0,0,.71.48Zm-7.1-4a7.6,7.6,0,0,0-2.14-.23c-2.08,0-3.44.76-3.44,1.87s1,1.74,2.88,1.74a3,3,0,0,0,2.31-.69,2.76,2.76,0,0,0,.42-1.89Z"/>
        <path class="cls-1" d="M113.21,124.26l.76,0c.29,0,.54,0,1.19-.06,1.18-.08,1.31-.1,3.89-.25l3.29-.21c2.59-.15,2.86-.17,3.55-.19l1.2,0a15.48,15.48,0,0,0,2.5-.23l.12,1.55a8.8,8.8,0,0,0-2.35.29,10.54,10.54,0,0,0-4,2.1,6.42,6.42,0,0,0-2.58,4.85,4.12,4.12,0,0,0,2.94,3.89,10.68,10.68,0,0,0,3.15.67h.21l-.28,1.7-.65-.13a10.47,10.47,0,0,1-4.53-1.61,5.09,5.09,0,0,1-2.33-4.28c0-2.44,1.43-4.75,3.92-6.45a13,13,0,0,1,2-1.11,44.13,44.13,0,0,1-4.62.46,68.38,68.38,0,0,0-7.24.69Zm14.05,3.13a16.31,16.31,0,0,1,2.16,3.26l-1.07.63a14.46,14.46,0,0,0-2.14-3.34Zm2.37-1.15a17,17,0,0,1,2.16,3.27l-1,.59a16.52,16.52,0,0,0-2.14-3.3Z"/>
        <path class="cls-1" d="M140.78,130.73c-1.36,1.13-2,2.1-2,3.09s.61,1.65,1.78,2.05a13.18,13.18,0,0,0,3.85.42,20,20,0,0,0,6.29-.79l.19,1.72a7,7,0,0,0-.71.1,33.73,33.73,0,0,1-5.67.48,14.78,14.78,0,0,1-4.83-.65A3.34,3.34,0,0,1,137.3,134c0-1.36.8-2.68,2.41-4Zm-2.2-7.66a24.38,24.38,0,0,0,5.58.5,23.29,23.29,0,0,0,5.32-.44l.1,1.38a31.73,31.73,0,0,0-5.29,3.2l-1.07-.86a32.2,32.2,0,0,1,3.71-2.23,16.56,16.56,0,0,1-3.17.27,40.38,40.38,0,0,1-4.61-.27l-.7-.06Zm10.48,3.63A16.73,16.73,0,0,1,151.2,130l-1,.63a17.06,17.06,0,0,0-2.14-3.34Zm2.28-1.24a16.25,16.25,0,0,1,2.19,3.27l-1.05.59a17.89,17.89,0,0,0-2.14-3.29Z"/>
        <path class="cls-1" d="M157.46,129.05a9.16,9.16,0,0,0,1.64.1h1.09a10.15,10.15,0,0,0,1.61-.1,16.51,16.51,0,0,0-.1,2.23v4.11a3,3,0,0,0,1,1.34c1.22.91,2.48,1.16,5.46,1.16a59.79,59.79,0,0,0,8.44-.4,5.21,5.21,0,0,0-.49,1.53c-1.86.09-4.82.15-7.3.15-3.49,0-4.75-.21-6.09-1a5,5,0,0,1-1.74-1.72,20.61,20.61,0,0,1-2.48,2.16,7.77,7.77,0,0,0-.82.7l-.69-1.39a13.43,13.43,0,0,0,3.38-2.52v-5.08H159a7.76,7.76,0,0,0-1.55.11Zm1.26-7.94a28.8,28.8,0,0,1,3.38,3.7l-1.07,1a19.88,19.88,0,0,0-3.28-3.82Zm6,2.63a11.39,11.39,0,0,0-2,.1v-1.3a17.26,17.26,0,0,0,2.18.11h3.67a11.1,11.1,0,0,0-.14-1.89h1.47a10,10,0,0,0-.15,1.89h4.07a17.82,17.82,0,0,0,2.19-.11v1.3a13.46,13.46,0,0,0-2.1-.1h-4.16v1.66h3.51a11.33,11.33,0,0,0,1.63-.09,10.33,10.33,0,0,0-.08,1.43v4.2a9.3,9.3,0,0,0,.08,1.36,13.36,13.36,0,0,0-1.63-.08h-3.51v1.72H174a12.78,12.78,0,0,0,2.08-.1v1.3A12.12,12.12,0,0,0,174,135h-4.22v.4a10.72,10.72,0,0,0,.15,1.91h-1.47a11.76,11.76,0,0,0,.14-1.91V135h-3.69a17.36,17.36,0,0,0-2.1.11v-1.3a13.07,13.07,0,0,0,2.1.1h3.69v-1.72h-3.17a14.14,14.14,0,0,0-1.65.08,9.66,9.66,0,0,0,.08-1.36V126.7a10.4,10.4,0,0,0-.08-1.39,11,11,0,0,0,1.63.09h3.19v-1.66Zm.36,2.71v1.78h3.52v-1.78Zm0,2.79v1.93h3.52v-1.93Zm4.7-1h3.84v-1.78h-3.84Zm0,2.94h3.84v-1.93h-3.84Z"/>
        <path class="cls-1" d="M182.3,132.47a21.78,21.78,0,0,1-1.28,5.92l-1.15-.54a16.86,16.86,0,0,0,1.23-5.69Zm-2.41-2.66a4.72,4.72,0,0,0,.77,0l1,0c.23-.3.65-.91,1.3-1.83a22.82,22.82,0,0,0-3-3.63l.8-1c.46.51.6.67.94,1.07a13.88,13.88,0,0,0,1.79-3.92l1.34.54a9.35,9.35,0,0,0-.78,1.41,25.86,25.86,0,0,1-1.61,2.85c.58.72.69.86,1.23,1.62a20.52,20.52,0,0,0,2.21-4.07l1.26.67c-.09.1-.48.76-1.2,1.93a50.87,50.87,0,0,1-2.94,4.24c1.35-.1,2-.17,3.17-.33a12.69,12.69,0,0,0-.77-1.64l1-.42a19.83,19.83,0,0,1,1.56,3.59,17.76,17.76,0,0,0,4.51-2.75,14.15,14.15,0,0,1-2.25-2.92,18,18,0,0,1-2.24,2.29,3,3,0,0,0-.93-.88,14.13,14.13,0,0,0,3.07-3.15,9.13,9.13,0,0,0,1.49-3l1.32.48c-.12.21-.21.36-.36.65-.27.53-.31.61-.54,1h3.09a9.58,9.58,0,0,0,2-.11l.75.82c-.14.19-.21.3-.5.76a18.86,18.86,0,0,1-3.06,4,16.06,16.06,0,0,0,5.33,2.71,4.11,4.11,0,0,0-.67,1.34A18,18,0,0,1,193.3,129a20.39,20.39,0,0,1-5.16,3.25,3.49,3.49,0,0,0-.49-.8l-.71.32c-.19-.63-.25-.86-.4-1.32-.61.1-.94.14-1.8.25v6.95a15,15,0,0,0,.12,2.1h-1.49a13.68,13.68,0,0,0,.13-2.12v-6.81l-.63,0c-1.68.14-1.68.14-2.77.27Zm6.8,2.31a27,27,0,0,1,1,4.78l-1.16.32a20.21,20.21,0,0,0-.94-4.81Zm3.78,7.62h-1.35a12.17,12.17,0,0,0,.11-2.12v-3.91a14.55,14.55,0,0,0-.06-1.83,14.86,14.86,0,0,0,1.7.05h4.91c.88,0,1.3,0,1.72-.05,0,.47-.06.82-.06,1.83v3.89a13.9,13.9,0,0,0,.1,2.14h-1.36v-1.12h-5.71Zm0-2.27h5.71V133.1h-5.71Zm.78-13.65c-.15.21-.21.27-.32.44a10.34,10.34,0,0,0,2.37,3.11,14.64,14.64,0,0,0,2.69-3.55Z"/>
        <path class="cls-1" d="M215.84,122.33c-.24.19-.4.34-2.59,2.44a60.92,60.92,0,0,1-4.83,4c-.77.59-.92.76-.92,1.06s.17.52,1.87,1.84a63.58,63.58,0,0,1,6.72,5.73,4.14,4.14,0,0,0,.59.53l-1.33,1.3a20,20,0,0,0-2.71-2.88,67.93,67.93,0,0,0-5.31-4.38c-1.17-.93-1.51-1.39-1.51-2.1a2,2,0,0,1,.61-1.41,16.59,16.59,0,0,1,1.78-1.43,33.54,33.54,0,0,0,6.16-5.75Z"/>
        <path class="cls-1" d="M226,125a15,15,0,0,0,2.63.19,12.34,12.34,0,0,0,1.26,0,26.79,26.79,0,0,0,.46-3.71v-.15l1.66.17c-.09.33-.11.44-.17.73,0,.13-.08.55-.21,1.26s-.17,1-.27,1.6a17.05,17.05,0,0,0,3.78-.72l.1,1.45-.21,0-.38.09a27.72,27.72,0,0,1-3.55.5,56.35,56.35,0,0,1-3.88,12.35l-1.53-.65a42.77,42.77,0,0,0,3.95-11.61c-.42,0-.68,0-1.45,0s-.93,0-1.75,0h-.08l-.36,0Zm9.39,7.62a7.08,7.08,0,0,0-.63.8,2.49,2.49,0,0,0-.53,1.49c0,1.26,1.28,1.93,3.68,1.93a15.63,15.63,0,0,0,4.64-.72l.14,1.58-.27,0-.65.13a23,23,0,0,1-3.74.33c-3.44,0-5.22-1.07-5.22-3.15,0-.94.29-1.59,1.4-3ZM241.9,129a20.17,20.17,0,0,0-2.48-.15,18.44,18.44,0,0,0-5.25.71l-.15-1.42a23.61,23.61,0,0,1,5.57-.7c.4,0,.71,0,2.29.06Zm-3.15-7.37a16,16,0,0,1,2.16,3.25l-1,.63a15.63,15.63,0,0,0-2.16-3.32Zm2.37-1.14a16.92,16.92,0,0,1,2.16,3.26l-1.05.61a15.68,15.68,0,0,0-2.14-3.3Z"/>
        <path class="cls-1" d="M249.48,125.52a8.64,8.64,0,0,0,1.62.11,49.4,49.4,0,0,0,6.25-.44c-.31-.72-.65-1.56-1-2.5-.23-.55-.35-.84-.54-1.22l1.66-.23a6.33,6.33,0,0,0,.61,1.89,17.4,17.4,0,0,0,.75,1.85,24.19,24.19,0,0,0,5.08-1.33l.21,1.49c-.44.09-.61.13-1.24.3-1.26.33-1.51.4-2.83.65l-.71.15a39.76,39.76,0,0,0,3.77,6.11l-1.4.79a4.24,4.24,0,0,0-1.45-.86,11.58,11.58,0,0,0-3.67-.54,7.4,7.4,0,0,0-4,.88,2.38,2.38,0,0,0-1.14,1.95,2.12,2.12,0,0,0,.8,1.64,7.1,7.1,0,0,0,4.09,1,13.87,13.87,0,0,0,6-1.35l.23,1.62a17.57,17.57,0,0,1-6.17,1.13c-2.57,0-4.5-.56-5.46-1.57a3.39,3.39,0,0,1-.95-2.31,3.91,3.91,0,0,1,2.37-3.42,8.92,8.92,0,0,1,4.08-.78,10.51,10.51,0,0,1,4.34.75,26.34,26.34,0,0,1-2.52-4.11c-.23-.44-.23-.48-.35-.69a62.47,62.47,0,0,1-7.48.54,4.91,4.91,0,0,0-.82.06Z"/>
        <path class="cls-1" d="M273.52,123.3a15.88,15.88,0,0,0-.14,2.49,36.57,36.57,0,0,0,.54,6.54c.47,2.14,1.33,3.59,2.12,3.59.38,0,.74-.36,1-1a15.21,15.21,0,0,0,1.1-3.59,7,7,0,0,0,1.23,1.19c-1,3.68-2,5.08-3.48,5.08-1.18,0-2.27-1.17-3-3.19s-1-4.68-1.14-9.85a11.7,11.7,0,0,0-.06-1.23Zm10.15,1.11a18.4,18.4,0,0,1,3,4.79,20,20,0,0,1,1.57,5.6l-1.49.61a18.56,18.56,0,0,0-4.37-10.35Z"/>
        <path class="cls-1" d="M298.87,136.38a3.15,3.15,0,1,1-3.15-3.15A3.15,3.15,0,0,1,298.87,136.38Zm-5.1,0a2,2,0,1,0,2-2A2,2,0,0,0,293.77,136.38Z"/>
      </g>
    </g>
  </g>
</svg>
