<svg xmlns="http://www.w3.org/2000/svg" viewBox="0 0 753.12 276.62"><defs><style>.cls-1{fill:#fff;}.cls-2{fill:#231815;}.cls-3{fill:#2c8ac8;}</style></defs><g id="レイヤー_2" data-name="レイヤー 2"><g id="レイヤー_1-2" data-name="レイヤー 1"><polygon class="cls-1" points="69.28 49.15 69.28 60 34.64 80 34.64 69.19 34.64 69.15 69.28 49.15"/><polygon class="cls-1" points="56.66 41.87 44.03 49.15 34.64 54.58 34.64 65.42 62.81 49.15 66.05 47.28 69.28 45.42 69.28 34.57 56.66 41.87"/><polygon class="cls-1" points="56.66 27.29 44.03 34.57 44.03 34.57 34.64 40 34.64 49.15 34.64 50.85 34.64 50.85 37.58 49.15 53.43 40 62.83 34.57 66.05 32.71 69.28 30.85 69.28 20 56.66 27.29"/><polygon class="cls-2" points="34.64 69.19 34.64 80 0 60 0 49.16 34.64 69.15 34.64 69.19"/><polygon class="cls-3" points="34.64 0 0 20 12.62 27.29 25.24 34.57 25.25 34.57 34.64 40 44.03 34.57 44.03 34.57 56.66 27.29 69.28 20 34.64 0"/><polygon class="cls-2" points="25.25 49.15 12.62 41.87 0 34.58 0 45.43 3.23 47.29 6.45 49.15 34.64 65.42 34.64 54.58 25.25 49.15"/><polygon class="cls-2" points="25.25 34.57 25.24 34.57 12.62 27.29 0 20 0 30.85 3.22 32.71 6.44 34.57 15.85 40 31.7 49.15 34.64 50.85 34.64 50.85 34.64 49.15 34.64 40 25.25 34.57"/><polygon class="cls-3" points="66.05 47.28 62.81 49.15 34.64 65.42 6.45 49.15 3.23 47.29 0 49.15 0 49.16 34.64 69.15 69.28 49.15 66.05 47.28"/><polygon class="cls-3" points="66.05 32.71 62.83 34.57 53.43 40 37.58 49.15 34.64 50.85 31.7 49.15 15.85 40 6.44 34.57 3.22 32.71 0 34.57 0 34.58 12.62 41.87 25.25 49.15 34.64 54.58 44.03 49.15 56.66 41.87 69.28 34.57 66.05 32.71"/><path class="cls-1" d="M123.58,32.49l2-2.62c1.44,1.21,1.86,1.59,3.19,2.89a1.121,1.121,0,0,1,.19.3c0,.15-.15.23-.38.23h-5.51v3.15c4.1,1.6,6,3.19,6,5,0,1.48-1.21,3.08-2.32,3.08-.49,0-.79-.46-1-1.33-.65-3.12-1-3.92-2.7-6,0,12.5,0,13,.15,20.59,0,.88-.49,1.07-3.08,1.07-1.06,0-1.25-.12-1.25-.76.19-6.16.19-6.16.3-12.27l.08-4.11c-2.39,4.52-3.72,6.31-6.76,8.93l-.31-.27a53.911,53.911,0,0,0,4.33-9.34,44.318,44.318,0,0,0,2.17-7.75h-3.34a6.694,6.694,0,0,0-1.9.23l-.23-1.33a6.46,6.46,0,0,0,2.13.3h3.72V28.57c0-1.45-.08-2.51-.23-4.6,1.18.11,2.13.19,2.74.23,2.62.19,3.26.38,3.26.83s-.38.57-1.78,1.07v6.38ZM142.5,46.77c0,.54,0,1.6.08,3,.07,1.74.07,2.54.11,4.44s-.42,2.74-1.56,3.38a9.161,9.161,0,0,1-4.06,1c-.42,0-.53-.12-.57-.69a2.78,2.78,0,0,0-1.1-2c-.76-.57-1.71-.87-4.94-1.6v-.49c3.46.15,4.53.19,7.3.23.57,0,.68-.19.68-.8l-.07-11.17V39.33a31.808,31.808,0,0,1-6,7.45,33.01,33.01,0,0,1-7.53,5.17l-.26-.42a43.348,43.348,0,0,0,8.74-10.41,61.774,61.774,0,0,0,4.1-7.9h-5.85a10.018,10.018,0,0,0-1.9.19l-.23-1.26a7.882,7.882,0,0,0,2.09.27h6.61v-4a25.91,25.91,0,0,0-.38-4.44c1.26.11,2.24.19,2.85.26,2.55.19,3.19.34,3.19.8s-.45.68-1.67,1.06l.12,6.35H143c1.15-1.52,1.15-1.52,2.17-2.89,1.56,1.33,2,1.75,3.5,3.12.15.15.22.26.22.34s-.15.23-.38.23h-6.27Z"/><path class="cls-1" d="M164.2,40.39c4.11,1.64,5.51,2.74,5.51,4.45,0,1.52-1.1,3-2.2,3-.5,0-.72-.31-1-1.45-.65-2.73-1.41-4.4-2.32-5.32V57.98c0,.84-.42,1-2.7,1-1.25,0-1.44-.11-1.44-.72.15-5.28.26-8.7.3-10.34l.08-3.19a30.13,30.13,0,0,1-6.73,8.82l-.34-.31a57.224,57.224,0,0,0,6.2-15.2h-3.62a7.332,7.332,0,0,0-1.82.19l-.23-1.29a5.988,5.988,0,0,0,2,.31h4.37V29.08a38.259,38.259,0,0,0-.34-5.13c4.94.34,5.7.45,5.7,1,0,.34-.45.6-1.52.87V37.26h1.54a30.163,30.163,0,0,1,2-2.51,26.843,26.843,0,0,1,2.81,2.7c.11.15.23.26.23.38s-.19.22-.49.22h-6Zm-9.5-14c2.89,2.51,4.33,4.67,4.33,6.46,0,1.44-1.29,3.08-2.39,3.08a.6.6,0,0,1-.65-.54,10.564,10.564,0,0,1-.11-2.35,16.172,16.172,0,0,0-1.48-6.46Zm10.15,9.38a43.025,43.025,0,0,0,2.24-9.38,32.255,32.255,0,0,1,4.1,1.67c.27.15.42.31.42.46,0,.3-.38.45-1.29.57a32.284,32.284,0,0,1-5.17,6.84Zm20,10c.73-1.49.95-1.94,1.67-3.5a42.874,42.874,0,0,1,3.35,2.74c.19.15.3.26.3.37s-.15.23-.38.27l-5.43,1.06c.07,7,.07,7,.19,11.29,0,.76-.57,1-2.93,1-1.4,0-1.59-.11-1.59-.76,0-2.13,0-2.13.11-10.64l-10,2a4.986,4.986,0,0,0-1.71.6l-.53-1.33a3.192,3.192,0,0,0,.57,0,6.943,6.943,0,0,0,1.56-.19l10.18-2V37.41c0-8.21-.08-11.1-.31-13.53,4.79.46,5.1.49,5.51.65s.5.26.5.45c0,.38-.46.65-1.56.91v20Zm-13.86-8.82a18.273,18.273,0,0,1,5.16,2.17c1.22.76,1.64,1.4,1.64,2.43a3.6,3.6,0,0,1-.88,2.35,2.338,2.338,0,0,1-1.52.88c-.57,0-.87-.42-1.25-1.6a17.128,17.128,0,0,0-3.34-6Zm1.06-9.84c4.71,1.75,6.57,3.19,6.57,5.13,0,1.52-1.29,3.15-2.43,3.15a.828.828,0,0,1-.72-.34c-.19-.23-.19-.23-.53-1.52a16.681,16.681,0,0,0-3.08-6.12Z"/><path class="cls-1" d="M194.53,30.97a13.169,13.169,0,0,0,2.92.34h7.56c1.11-1.29,1.45-1.67,2.59-2.89,1.75,1.33,2.28,1.71,3.91,3.12.15.15.23.27.23.34s-.15.23-.46.23h-14a13.188,13.188,0,0,0-2.47.19Zm1.37,4.9a12.071,12.071,0,0,0,2.66.27h5.08c1-1.14,1.33-1.52,2.39-2.66,1.64,1.25,2.13,1.63,3.65,2.92a.6.6,0,0,1,.19.31c0,.11-.19.23-.42.23H198.48a11.45,11.45,0,0,0-2.36.18Zm.07,5a12.728,12.728,0,0,0,2.59.26h5.08c1-1.21,1.37-1.59,2.39-2.73a46.739,46.739,0,0,1,3.73,3c.15.15.19.23.19.34s-.19.23-.46.23h-10.9a12.783,12.783,0,0,0-2.36.19Zm0-14.86a9.573,9.573,0,0,0,2.55.3h5.12c1.11-1.29,1.49-1.67,2.63-2.92,1.74,1.29,2.28,1.71,4,3.08.15.19.22.3.22.38s-.19.26-.41.26H198.56a12.613,12.613,0,0,0-2.32.19Zm4.37,31.69c0,.83-.57,1.06-2.55,1.06-1.29,0-1.55-.15-1.59-.8.11-3.53.15-5,.15-7.67s0-3.91-.19-6.38a41,41,0,0,1,4.6,2.39h3.64c.88-1,1.14-1.29,2.09-2.32,1.37,1,1.79,1.29,3,2.28.27.23.38.42.38.57,0,.38-.34.72-1.21,1.29,0,4.49,0,4.68.15,9.12,0,.42-.08.65-.34.76a5.758,5.758,0,0,1-2.43.38c-1.14,0-1.37-.11-1.41-.68V56.22H200.3Zm0-2.28h4.33V47.1h-4.33Zm23-18.32c1.26-1.48,1.64-1.93,3-3.42,1.71,1.49,2.24,1.94,3.95,3.5.15.23.23.34.23.42a.505.505,0,0,1-.5.3h-8.89c0,10,0,14,.27,19.57a1,1,0,0,1-.34.87,7.093,7.093,0,0,1-2.82.38c-1.36,0-1.63-.11-1.63-.83.19-5.66.27-10.26.27-17.29V37.9h-4.1a13.036,13.036,0,0,0-2.47.23l-.23-1.33a11,11,0,0,0,2.7.3h4.1c0-10.82,0-11.05-.34-12.88,5.66.42,6.3.54,6.3,1.11,0,.34-.41.6-1.63,1V37.08Z"/><path class="cls-1" d="M247.35,51.18v1.47c0,.83-.5,1-2.63,1-.91,0-1.1-.15-1.1-.8.08-5.85.08-6.68.08-12.19,0-6.46,0-7.79-.15-10,1.86.88,2.43,1.18,4.18,2.09h3V26.94H239.29a23.14,23.14,0,0,0-3.49.19l-.19-1.33a17.619,17.619,0,0,0,3.68.34h23.48c1.29-1.44,1.71-1.9,3.08-3.3,2,1.44,2.58,1.9,4.56,3.45.15.19.23.27.23.38s-.19.27-.42.27H254.53v5.81h3.23c.76-.91,1-1.17,1.86-2.09,1.29,1,1.67,1.22,2.85,2.17.26.23.38.38.38.53s-.31.5-1.1,1v7.6c0,3.23,0,4.56.07,10.33,0,.42,0,.57-.19.73a5.863,5.863,0,0,1-2.58.41c-.84,0-1-.15-1.07-.76V51.19Zm-6.31,6.47c0,.88-.57,1.1-2.77,1.1-1.18,0-1.49-.19-1.49-.91v-.11c.16-5.17.19-8.66.19-17a81.392,81.392,0,0,0-.23-9.12c4.87.61,5.44.72,5.44,1.21,0,.27-.27.46-1.14.91V55.62h23.44V35.34a30.421,30.421,0,0,0-.19-3.76c1.14.15,2.09.23,2.66.3,2.36.23,3,.42,3,.84s-.42.64-1.37,1V44.06c0,6.38,0,8.47.19,13.49v.1c0,.84-.79,1.14-3,1.14-1.06,0-1.33-.19-1.33-.87V56.4h-23.4Zm9.69-24h-3.38v7.52h3.38Zm0,8.32h-3.38v8.47h3.38Zm7.25-8.32h-3.45v7.52h3.45Zm0,8.32h-3.45v8.47h3.45Z"/><path class="cls-1" d="M288.27,27.7a32.472,32.472,0,0,1-3.42,10l.31.31h3.11c.84-.95,1.1-1.26,2.05-2.25,1.14,1,1.49,1.22,2.55,2.17.27.27.38.42.38.57s-.19.38-.95.84v5.43c0,4.82,0,4.82.15,9a.79.79,0,0,1-.68.84,7.385,7.385,0,0,1-2,.27c-.91,0-1.14-.16-1.14-.76V52.79h-3.08v3.57a.7.7,0,0,1-.57.76,10.892,10.892,0,0,1-2.24.26c-.79,0-1.1-.19-1.1-.72.12-5.51.19-8.4.19-8.7V42.34a28.679,28.679,0,0,1-3.49,3.84l-.27-.31a46.578,46.578,0,0,0,5.74-18.2h-2.25a9.463,9.463,0,0,0-2.2.23l-.23-1.33a9.179,9.179,0,0,0,2.43.3h6.08c1.07-1.29,1.37-1.67,2.47-2.85,1.56,1.3,2,1.71,3.54,3.12.15.15.19.23.19.34s-.15.19-.42.19Zm-2.7,24.32h3.07V38.83h-3.08Zm24.13-13h.38c.87-1.22,1.18-1.56,2.13-2.74,1.33,1.25,1.71,1.67,3,3,.15.15.19.23.19.34s-.15.19-.38.19H309.7v4.72c0,4.74,0,5.2.19,13.18a.74.74,0,0,1-.594.862l-.056.008a13.157,13.157,0,0,1-2.65.23c-1,0-1.26-.15-1.26-.8.19-8.13.19-8.7.19-13.48V39.81h-4.6c-.3,6.73-1,9.73-3.07,12.81s-4.45,4.79-8.78,6.61l-.23-.38a19.008,19.008,0,0,0,4.3-4.14,18.712,18.712,0,0,0,3.3-9c.19-1.41.3-3.39.38-5.86h-1.18a12.775,12.775,0,0,0-2,.19l-.23-1.25a9.156,9.156,0,0,0,2.36.27h1.06v-12h-.19a15.714,15.714,0,0,0-2.47.19l-.23-1.33a10.341,10.341,0,0,0,2.74.34h11.51c.91-1,1.82-1.94,2.66-2.81,1.6,1.22,2.05,1.63,3.61,3,.19.16.26.27.26.38s-.22.27-.49.27h-4.56Zm-8.62-12c0,6.61,0,9.57-.12,12h4.56v-12Z"/><path class="cls-1" d="M332.43,44.31a24.667,24.667,0,0,0,.34-4.07,11.726,11.726,0,0,0-.11-1.9c1.29.11,2.28.19,2.92.27h.15c2.28.19,3.19.45,3.19.83s-.53.69-1.74,1c-.23,2-.35,2.7-.53,3.8l4.75-.08,2.16-2.24,1.71,1.18c.34.27.84.61,1.52,1.06.38.31.53.5.53.69s-.26.49-.68.76a6.613,6.613,0,0,0-.8.49v7.64c0,.68.11.8,1.1.8a11.365,11.365,0,0,0,3.19-.27c.61-.19,1.11-1.1,1.71-3.12.38-1.32.42-1.44,1.33-4.52l.46.08-.23,6a.379.379,0,0,1,0,.15c0,.76.07.92.61,1.14a1.79,1.79,0,0,1,1.33,1.79c0,1.29-.95,2-2.89,2.09-1.71.15-4.26.23-6.08.23a8.832,8.832,0,0,1-3.72-.5,2.271,2.271,0,0,1-1-2.16L341.76,45l-5.28.08c-.87,4.14-2.39,6.83-5.2,9.19a19.01,19.01,0,0,1-6.42,3.46c-1.14.34-1.71.49-4.52,1.18l-.16-.35c7.45-3.34,10.64-6.91,12.05-13.41l-6.8.08a19.263,19.263,0,0,0-2.17.22l-.38-1.29a14.775,14.775,0,0,0,2.51.23h.25Zm3-14.44a12.774,12.774,0,0,1-.91,4c-1.75,4.44-6.54,7.33-13.64,8.2l-.24-.42c4.25-1.49,6.46-2.93,8.32-5.4a10.6,10.6,0,0,0,2.17-6.38h-5.17v.64a8,8,0,0,1-.65,3.54,3.65,3.65,0,0,1-3,2.24c-1.14,0-2-1.1-2-2.66a1.69,1.69,0,0,1,1.21-1.86c2.13-1.07,2.93-2.21,3.5-5.06h.42a13.011,13.011,0,0,1,.41,2.36h9.24V26.65a16.863,16.863,0,0,0-.16-2.47c4.79.46,5.13.49,5.59.65s.57.26.57.45c0,.38-.53.69-1.6,1v2.81h8.36c.95-1,1.26-1.33,2.28-2.32,1.79,1.37,2.32,1.83,4.07,3.31.34.34.45.45.45.64,0,.38-.45.61-1.25.61a12.814,12.814,0,0,1-1.45-.07c-1.86,1.14-4,2.35-5.12,2.92l-.35-.19a30.007,30.007,0,0,0,1.68-4.1h-5.32v5.76c0,.6.19.72,1.21.79h3.38c1.75,0,2.36-.15,2.78-.68a22.551,22.551,0,0,0,1.78-3.57h.38l-.15,2.59v.26c0,.72,0,.72,1,1.14a1.24,1.24,0,0,1,.91,1.22c0,1.14-.72,1.71-2.59,1.94-.53.07-3.64.19-4.71.19h-.53c-.45,0-1.71,0-3.61-.08-2.92,0-3.76-.61-3.76-2.43V29.84Z"/><path class="cls-1" d="M378.56,34.58a50.719,50.719,0,0,1-5.47,6c4.37-.08,5.13-.08,13-.57a29.472,29.472,0,0,0-4.1-4l.19-.27a36.548,36.548,0,0,1,6.76,2.47c2.32,1.22,3.19,2.25,3.19,3.73s-.87,3.11-1.82,3.11c-.46,0-.8-.34-1.6-1.67a20.066,20.066,0,0,0-1.82-2.47c-5.43,1.26-5.43,1.26-7.83,1.67-2.85.5-9,1.41-11.89,1.75-.15,1.06-.38,1.52-.8,1.52s-.83-1-1.74-5.51a55.753,55.753,0,0,0,6.64.23,32.782,32.782,0,0,0,2.06-6h-3.46a13.576,13.576,0,0,0-2.51.27l-.3-1.33a15.669,15.669,0,0,0,2.81.26h15.65c1-1.18,1.37-1.52,2.43-2.62l1.18.84a15.761,15.761,0,0,0,.53-2.59H366.97a9.668,9.668,0,0,1-.72,4.33,3.311,3.311,0,0,1-2.7,2.17,2.489,2.489,0,0,1-2.24-2.66,1.578,1.578,0,0,1,.57-1.37c.15-.11.15-.11,1.06-.68a6.561,6.561,0,0,0,2.36-2.28,7.859,7.859,0,0,0,.72-2.74h.46a8,8,0,0,1,.45,2.43h9.16V26.48a20.276,20.276,0,0,0-.11-2.82c5.16.35,6.19.54,6.19,1.07,0,.38-.53.68-1.79,1v2.92h9c.91-1,1.22-1.29,2.17-2.28,1.89,1.3,2.47,1.71,4.25,3.08.3.27.42.42.42.65a.57.57,0,0,1-.3.42,3.878,3.878,0,0,1-1,.19h-1.37c-.45.27-.91.5-1.14.61-1.78.95-1.82.95-2.39,1.25l2,1.52c.15.08.23.19.23.27a.25.25,0,0,1-.23.19Zm7.71,14.59c1.45-1.56,1.45-1.56,2.78-3,1.82,1.32,2.39,1.74,4.25,3.26.11.12.15.19.15.27a.332.332,0,0,1-.3.23H380.38v6.72h8.48c1.25-1.4,1.63-1.82,2.92-3.15,1.83,1.33,2.43,1.79,4.41,3.38.15.15.26.27.26.38s-.11.19-.26.19H365.07a21.322,21.322,0,0,0-3.11.27l-.32-1.37a19.025,19.025,0,0,0,3.46.3h11.06V49.97h-8.29a15.655,15.655,0,0,0-2.81.22l-.3-1.29a20.255,20.255,0,0,0,3.11.27h8.29v-1.6a32.671,32.671,0,0,0-.19-3.83c1.14.11,2.12.22,2.66.3,2.81.27,3.3.38,3.3.8s-.23.49-1.56.95v3.38Z"/><path class="cls-1" d="M9.21,142.73a14.47,14.47,0,0,0,4.43,6.24,5.9,5.9,0,0,0-1.16,1.68,15.884,15.884,0,0,1-3.6-5.52c.15,1.95.21,3.69.21,5.85v8.28a21.95,21.95,0,0,0,.18,3.18H7.02a21.95,21.95,0,0,0,.18-3.18v-7.89c0-1.65.06-4.14.15-5.64a27.681,27.681,0,0,1-4.86,9.92,5.38,5.38,0,0,0-1.23-1.74c2.58-3,4.23-6.24,5.64-11.19H4.74a16.489,16.489,0,0,0-2.55.18v-2a12.016,12.016,0,0,0,2.61.18H7.2v-3.12a19,19,0,0,0-.18-2.82H9.27a13.717,13.717,0,0,0-.18,2.79v3.15h1.89a17.282,17.282,0,0,0,2.25-.15v2a17.282,17.282,0,0,0-2.25-.15Zm8.07,0a21.559,21.559,0,0,0-3.09.15v-2a20.864,20.864,0,0,0,3.06.15h5.39v-2.58a26.364,26.364,0,0,0-.18-3.3h2.18a21.672,21.672,0,0,0-.18,3.3v2.58h1.47a17.46,17.46,0,0,0,2.76-.18v2a17.46,17.46,0,0,0-2.76-.18H24.48l.16,16.74c0,1.92-.6,2.37-3.3,2.37a33.258,33.258,0,0,1-3.4-.13,6.656,6.656,0,0,0-.51-2,21.875,21.875,0,0,0,3.63.33c1.35,0,1.59-.12,1.59-.75V144.89a29.055,29.055,0,0,1-3.66,5.91,29.4,29.4,0,0,1-6.36,6,5.662,5.662,0,0,0-1.38-1.53,27.471,27.471,0,0,0,7.39-6.96,34.914,34.914,0,0,0,3.18-5.55Z"/><path class="cls-1" d="M36.43,147.2a14.8,14.8,0,0,0-2.61.15v-2a13.568,13.568,0,0,0,2.61.15H38.8v-7.08a21.266,21.266,0,0,0-.18-3.21h2.19a20.013,20.013,0,0,0-.18,3.18v7.11h1.8a14.454,14.454,0,0,0,2.22-.12v1.89a15.96,15.96,0,0,0-2.25-.12H40.75a17.942,17.942,0,0,0,4.29,5.55,10.486,10.486,0,0,0-1.05,1.62,17.768,17.768,0,0,1-3.51-5.28c.06,1.2.15,3.87.15,4.44v5.61a24.592,24.592,0,0,0,.18,3.3H38.64a26.463,26.463,0,0,0,.18-3.33v-5.1c0-1.38.06-3.06.15-4.65a22.78,22.78,0,0,1-4.62,8.58,6.32,6.32,0,0,0-1.14-1.68,19.017,19.017,0,0,0,3.57-5,24.144,24.144,0,0,0,1.68-4Zm-.9-10a35.172,35.172,0,0,1,2,6.42l-1.59.69a26.566,26.566,0,0,0-2-6.42Zm9.84.57a33.894,33.894,0,0,1-2.43,6.54l-1.47-.69a22.411,22.411,0,0,0,2.17-6.56Zm9.72.72a19.072,19.072,0,0,0-.18-3.15h2.28a21.55,21.55,0,0,0-.18,3.12v13.8l.45-.09a18.848,18.848,0,0,0,2.76-.84l.36,2.1a20.972,20.972,0,0,0-2.88.51l-.69.18v5a23.213,23.213,0,0,0,.18,3.27H54.91a17.6,17.6,0,0,0,.18-3.3v-4.53l-7.89,1.92a20.652,20.652,0,0,0-2.79.81l-.39-2.13a16.339,16.339,0,0,0,2.88-.48l8.19-2Zm-8,6.54a26.583,26.583,0,0,1,5.37,4.56l-1.26,1.5a22.089,22.089,0,0,0-5.43-4.68Zm.9-7.5a30.729,30.729,0,0,1,5.4,4.68l-1.23,1.56a25.378,25.378,0,0,0-5.46-4.86Z"/><path class="cls-1" d="M65.38,143.65a61.525,61.525,0,0,0,6.63-.78,37.075,37.075,0,0,0,.9-6.36v-.39l2.4.27a18.434,18.434,0,0,0-.57,2.88c-.12.75-.39,2.13-.63,3.42a17.439,17.439,0,0,1,1.77-.09c2.13,0,3.39.36,4.32,1.26s1.44,2.35,1.44,4.79c0,4.59-.78,8.58-2,10.32a3.128,3.128,0,0,1-2.94,1.41,11.285,11.285,0,0,1-4.53-1.17,6.726,6.726,0,0,0,.06-1.08,5.531,5.531,0,0,0-.09-1.17,11.206,11.206,0,0,0,4.47,1.38q1.129,0,1.71-1.44a23.2,23.2,0,0,0,1.26-8.34c0-3.18-.9-4.2-3.69-4.2a17.342,17.342,0,0,0-2.16.15,58.258,58.258,0,0,1-6.48,16.32l-2-1.2c2.49-3.27,5.07-9.27,6.42-14.94a39.022,39.022,0,0,0-6,1.08Zm19.71-2.76a27.471,27.471,0,0,1,6.27,10.62l-1.92,1.08a25.327,25.327,0,0,0-6.12-10.77Zm1.35-5.1a22.736,22.736,0,0,1,3.09,4.65l-1.5.9a23,23,0,0,0-3.09-4.77Zm3.39-1.62a24.08,24.08,0,0,1,3.09,4.65l-1.5.87a21.743,21.743,0,0,0-3.06-4.71Z"/><path class="cls-1" d="M102.47,147.2a32.163,32.163,0,0,1-5.49,5,4.392,4.392,0,0,0-1.32-1.53,27.041,27.041,0,0,0,5.91-5.1,23.192,23.192,0,0,0,3.39-4.89H99.77a26.092,26.092,0,0,0-3.33.18V138.7a25.039,25.039,0,0,0,3.33.18h6a14.367,14.367,0,0,0,1.11-3.84l2.19.27a16.09,16.09,0,0,0-.6,1.65c-.27.72-.42,1.17-.75,1.92h12a24.816,24.816,0,0,0,3.27-.18v2.16a25.521,25.521,0,0,0-3.27-.18H106.91a23.547,23.547,0,0,1-2,3.39h11a22.651,22.651,0,0,0,3.21-.15c-.09.9-.12,2-.12,3.51v12a2.13,2.13,0,0,1-.81,1.92,4.453,4.453,0,0,1-2.46.39c-.87,0-2.07,0-3.36-.12a6.676,6.676,0,0,0-.45-1.92,25.183,25.183,0,0,0,3.78.3c1.2,0,1.41-.15,1.41-.9v-3.66H104.36v3.21a26.76,26.76,0,0,0,.15,3.42h-2.22a29.6,29.6,0,0,0,.18-3.42Zm14.55-1.38H104.36V149h12.66Zm-12.66,4.83v3.27h12.66v-3.27Z"/><path class="cls-1" d="M135.8,136.7a46.206,46.206,0,0,0-.39,6.33c-.12,3.6-.21,7.68-.21,9,0,.36,0,1.11.06,1.8a4.721,4.721,0,0,0,1.41,3.6,5.661,5.661,0,0,0,3.75,1.17,8.619,8.619,0,0,0,8-5.22,17.805,17.805,0,0,0,1.47-4.71,8.469,8.469,0,0,0,2.16,1.44c-1.14,3.51-2,5.28-3.33,6.81a10.5,10.5,0,0,1-8.46,3.75c-2.55,0-4.44-.72-5.64-2.1s-1.65-3-1.65-6.15c0-2,0-2.76.27-12.21v-2a9.2,9.2,0,0,0-.12-1.59Z"/><path class="cls-1" d="M160.74,140.3h1.08a14.725,14.725,0,0,0,1.71-.09c3.57-.27,13.17-.81,17-1a20.17,20.17,0,0,0,3.57-.33l.18,2.25a13.927,13.927,0,0,0-3.36.39,15.222,15.222,0,0,0-5.76,3,9.17,9.17,0,0,0-3.69,6.93c0,2.52,1.53,4.53,4.2,5.55a15.381,15.381,0,0,0,4.5,1h.3l-.39,2.43-.93-.18a15.131,15.131,0,0,1-6.48-2.31,7.3,7.3,0,0,1-3.33-6.12c0-3.48,2-6.81,5.61-9.21a19.664,19.664,0,0,1,2.85-1.59,58.187,58.187,0,0,1-6.6.66,87.991,87.991,0,0,0-10.35,1Z"/><path class="cls-1" d="M195.96,138.86a22.914,22.914,0,0,0-.21,3.57,51.374,51.374,0,0,0,.78,9.33c.66,3.06,1.89,5.13,3,5.13.53,0,1-.51,1.5-1.5a21.591,21.591,0,0,0,1.55-5.13,9.588,9.588,0,0,0,1.77,1.71c-1.47,5.25-2.85,7.26-5,7.26-1.67,0-3.24-1.68-4.26-4.56s-1.45-6.69-1.56-14.02a9.18,9.18,0,0,0-.08-1.77Zm14.49,1.59a26.022,26.022,0,0,1,4.29,6.84,28.721,28.721,0,0,1,2.25,8l-2.13.87a26.5,26.5,0,0,0-6.22-14.78Z"/><path class="cls-1" d="M228.04,137.75a13.867,13.867,0,0,0,2.82.18c2.49,0,6.48-.18,9.18-.39a3.062,3.062,0,0,0,1.44-.33l1.26,1.65a5.532,5.532,0,0,0-1.53,1.26,77.07,77.07,0,0,1-9.87,8.53l.06.09a15.2,15.2,0,0,1,7.35-1.86c5,0,8.22,2.46,8.22,6.3,0,4.68-4.35,7.77-11,7.77-4.23,0-6.66-1.56-6.66-4.32,0-2,1.86-3.51,4.35-3.51a6,6,0,0,1,4.95,2.46,8.586,8.586,0,0,1,1.38,2.88c3.15-.87,4.8-2.7,4.8-5.25,0-2.88-2.4-4.59-6.45-4.59a19.25,19.25,0,0,0-12.63,5.13l-1.35-1.92a33.311,33.311,0,0,0,4.2-3.06c3.21-2.55,7.95-6.72,10-8.76l.42-.42.12-.12.12-.12-.06-.06h-.27c-1,.18-4.56.39-9.12.54a14.666,14.666,0,0,0-1.62.15Zm5.6,17.07c-1.5,0-2.43.72-2.43,1.86a2,2,0,0,0,1.2,1.83,7.661,7.661,0,0,0,3.36.69,10.809,10.809,0,0,0,2.19-.21C237.34,156.26,235.84,154.82,233.64,154.82Z"/><path class="cls-1" d="M277.87,162.41v-1.76H257.24v1.8h-2.1a27.4,27.4,0,0,0,.18-3.6V140.03a35.528,35.528,0,0,0-.18-3.69,28.974,28.974,0,0,0,3.51.15H276.4a30.4,30.4,0,0,0,3.57-.15,32.027,32.027,0,0,0-.18,3.69v18.81a23.8,23.8,0,0,0,.18,3.57Zm-20.63-3.51h20.63V138.2H257.24Zm16.4-15.78a18.6,18.6,0,0,0,2.85-.15v1.89a18.214,18.214,0,0,0-2.82-.15h-5.4v3.78h2.61a24.249,24.249,0,0,0,2.89-.12,16.744,16.744,0,0,0-.13,2.4v3.54a13.8,13.8,0,0,0,.13,2.28c-.85-.06-1.72-.09-2.8-.09h-6.9a25.718,25.718,0,0,0-2.76.09,17.726,17.726,0,0,0,.12-2.28v-3.66a18.194,18.194,0,0,0-.12-2.31,21.09,21.09,0,0,0,2.73.12h2.43v-3.78h-4.91a16.5,16.5,0,0,0-2.73.15v-1.89a16.182,16.182,0,0,0,2.73.15h4.91v-1.44a14.55,14.55,0,0,0-.15-2.52h2.11a12.888,12.888,0,0,0-.16,2.52v1.5Zm-10.44,6.93v4.86h8.65v-4.86Z"/><path class="cls-1" d="M291.86,147.2a32.163,32.163,0,0,1-5.49,5,4.392,4.392,0,0,0-1.32-1.53,27.041,27.041,0,0,0,5.91-5.1,23.192,23.192,0,0,0,3.39-4.89h-5.19a26.092,26.092,0,0,0-3.33.18V138.7a25.039,25.039,0,0,0,3.33.18h6a14.367,14.367,0,0,0,1.11-3.84l2.19.27a16.09,16.09,0,0,0-.6,1.65c-.27.72-.42,1.17-.75,1.92h12a24.816,24.816,0,0,0,3.27-.18v2.16a25.521,25.521,0,0,0-3.27-.18H296.3a23.547,23.547,0,0,1-2,3.39h10.95a22.651,22.651,0,0,0,3.21-.15c-.09.9-.12,2-.12,3.51v12a2.13,2.13,0,0,1-.81,1.92,4.453,4.453,0,0,1-2.46.39c-.87,0-2.07,0-3.36-.12a6.676,6.676,0,0,0-.45-1.92,25.183,25.183,0,0,0,3.78.3c1.2,0,1.41-.15,1.41-.9v-3.66h-12.7v3.21a26.76,26.76,0,0,0,.15,3.42h-2.26a29.6,29.6,0,0,0,.18-3.42Zm14.55-1.38H293.75V149h12.66Zm-12.66,4.83v3.27h12.66v-3.27Z"/><path class="cls-1" d="M319.77,143.21a21.521,21.521,0,0,1-1.32,4.53,7.865,7.865,0,0,0-1.65-.84,19.528,19.528,0,0,0,1.47-4.86,20.974,20.974,0,0,0,.42-3.78,6.439,6.439,0,0,0,0-.81l1.92.3c-.05.36-.05.45-.11,1-.06.75-.18,1.59-.36,2.82h2.13v-4a13.5,13.5,0,0,0-.21-2.49h2.25a12.234,12.234,0,0,0-.21,2.49v4h.66a14.99,14.99,0,0,0,2.6-.18v2a20.936,20.936,0,0,0-2.54-.15h-.72v5.91c1.23-.57,1.74-.81,3.15-1.56v1.8l-.12.06a16.982,16.982,0,0,0,2.76.15h8.69v-3.48h-8.69a20.6,20.6,0,0,0-3.06.18v-2a20.073,20.073,0,0,0,3.06.18h4.23v-4h-3.3a25.133,25.133,0,0,0-2.85.15v-2a17.765,17.765,0,0,0,2.85.18h3.3v-1.23a13.931,13.931,0,0,0-.19-2.43h2.19a14.645,14.645,0,0,0-.18,2.43v1.23h4.14a17.881,17.881,0,0,0,2.85-.18v2a25.592,25.592,0,0,0-2.85-.15h-4.14v4h5.16a20.6,20.6,0,0,0,3.06-.18v2a20.61,20.61,0,0,0-3-.18h-.75v3.48h.78a18.163,18.163,0,0,0,2.91-.18v2a20.515,20.515,0,0,0-2.91-.18h-.78v8.52c0,1.68-.72,2.19-3.11,2.19-.84,0-1.92-.06-3.07-.12a6.159,6.159,0,0,0-.44-2,21.737,21.737,0,0,0,3.44.39c1.11,0,1.32-.12,1.32-.81v-8.16h-8.82a20.229,20.229,0,0,0-2.9.18v-1.86c-1.2.66-1.36.75-2.79,1.44v8.28a21.273,21.273,0,0,0,.21,3.15H322a19.3,19.3,0,0,0,.21-3.15v-7.44l-1.11.45c-.75.3-1.41.57-1.89.78-.18.06-.18.06-.75.3-.245.1-.486.208-.72.33l-.66-2.1a25.646,25.646,0,0,0,5.13-1.68v-6.72Zm10.59,9.15a32.221,32.221,0,0,1,4.28,4.89l-1.59,1.17a25.72,25.72,0,0,0-4.17-5Z"/><path class="cls-1" d="M348.3,148.76a26.083,26.083,0,0,0,1.47-7.86l1.59.27a33.036,33.036,0,0,1-1.5,8.22Zm3.87,13.68a24.88,24.88,0,0,0,.21-3.45V138.08a19.81,19.81,0,0,0-.21-3h2.34a19.064,19.064,0,0,0-.21,3v21a22.074,22.074,0,0,0,.21,3.33Zm4.17-17.07a15.456,15.456,0,0,0-1.26-4.62l1.38-.54a23.953,23.953,0,0,1,1.38,4.59Zm4.5-1.92a22.537,22.537,0,0,1-2.7,5.61,11.7,11.7,0,0,0-1.68-.93,20.762,20.762,0,0,0,3.57-8.55,13.947,13.947,0,0,0,.27-2.34l2.07.42a11.536,11.536,0,0,0-.48,2c-.15.75-.3,1.29-.51,2.1h3.87v-3.6a19.555,19.555,0,0,0-.21-3h2.31a18.712,18.712,0,0,0-.21,3v3.6h4.65a18.149,18.149,0,0,0,3.09-.18v2.07a26.973,26.973,0,0,0-3.06-.18h-4.68v6.18h4.08a19.8,19.8,0,0,0,3-.18v2a21.151,21.151,0,0,0-3.06-.18h-4.02v7.89h5.1a23.828,23.828,0,0,0,3.27-.18v2.13a21.674,21.674,0,0,0-3.27-.21H359.91a21.674,21.674,0,0,0-3.27.21V159a23.828,23.828,0,0,0,3.27.18h5.34v-7.89h-3.3a21.439,21.439,0,0,0-3.06.18v-2a18.637,18.637,0,0,0,2.91.18h3.45v-6.2Z"/><path class="cls-1" d="M390.43,136.1a51.42,51.42,0,0,0,2.25,9.93c1.77-.72,2.61-1,7.26-2.67a17.072,17.072,0,0,0,1.92-.78l.89,2.28a68.966,68.966,0,0,0-9,2.91c-5.13,2-7.35,4-7.35,6.51,0,2.73,2.31,3.78,8.19,3.78a29.815,29.815,0,0,0,8.58-1l.24,2.49a15.7,15.7,0,0,0-2.23.18,60.024,60.024,0,0,1-6.62.39,20.4,20.4,0,0,1-6.66-.81c-2.46-.9-3.72-2.55-3.72-4.92a6.492,6.492,0,0,1,2.67-5.1,18.669,18.669,0,0,1,3.93-2.43,61.139,61.139,0,0,1-2.19-8.4,10.055,10.055,0,0,0-.51-1.89Z"/><path class="cls-1" d="M416.53,141.65c-.15,7.17-.45,10.83-1.17,14.07a24.161,24.161,0,0,1-2.25,6.45,6.834,6.834,0,0,0-1.59-1.53c2.4-4.2,3.18-9.51,3.18-21.66a20.932,20.932,0,0,0-.15-2.94c1.14.09,2,.12,3.66.12h15.81a28.559,28.559,0,0,0,3.15-.12c-.06.69-.09,1.23-.09,2v1.74a14.583,14.583,0,0,0,.09,2c-.93-.06-1.74-.09-3-.09Zm18.75-1.53v-2.4H416.53v2.4Zm-9,14.58h-7v4.8a23.092,23.092,0,0,0,.12,2.82h-2.1a23.135,23.135,0,0,0,.15-3v-3.67a23,23,0,0,0-.09-2.49,23.083,23.083,0,0,0,2.88.12h6.06v-1.8h-5.13a17.177,17.177,0,0,0-2.4.09c.06-.69.09-1.11.09-1.8v-1.62a11.2,11.2,0,0,0-.09-1.83,16.7,16.7,0,0,0,2.49.09h5v-1.8c-2.61.18-4.8.3-7.41.33a5.853,5.853,0,0,0-.75-1.5h1.92c5.13,0,11.7-.66,13.95-1.38l1.29,1.38a70.735,70.735,0,0,1-7.32,1v1.92h5.7a24.036,24.036,0,0,0,2.43-.09,11.343,11.343,0,0,0-.09,1.86v1.59a9.849,9.849,0,0,0,.09,1.8,17.927,17.927,0,0,0-2.43-.09h-5.7v1.8h7.08a24.293,24.293,0,0,0,2.88-.12,22.223,22.223,0,0,0-.12,2.73v4.17c0,1.71-.6,2.19-2.85,2.19-.78,0-1.77,0-2.88-.09a6.944,6.944,0,0,0-.36-1.74,21.957,21.957,0,0,0,3.3.24c.78,0,1-.18,1-.84v-5h-8v2.64a34.617,34.617,0,0,0,3.57-.48c-.48-.45-.63-.63-1.2-1.11l1.23-.81a22.382,22.382,0,0,1,3.51,3.9l-1.32,1a14.442,14.442,0,0,0-1.2-1.8,86.67,86.67,0,0,1-10.83,1.35,7.019,7.019,0,0,0-1.2.15l-.33-1.8a12.411,12.411,0,0,0,1.59.06c1.08,0,2.25-.06,4.5-.27Zm-5.7-7v2.31h5.7V147.7Zm13.65,2.31V147.7h-6.27v2.31Z"/><path class="cls-1" d="M443,148.76a26.083,26.083,0,0,0,1.47-7.86l1.59.27a33.036,33.036,0,0,1-1.5,8.22Zm3.87,13.68a24.88,24.88,0,0,0,.21-3.45V138.08a19.81,19.81,0,0,0-.21-3h2.34a19.064,19.064,0,0,0-.21,3v21a22.074,22.074,0,0,0,.21,3.33Zm4.17-17.07a15.456,15.456,0,0,0-1.26-4.62l1.38-.54a23.953,23.953,0,0,1,1.38,4.59Zm4.5-1.92a22.537,22.537,0,0,1-2.7,5.61,11.758,11.758,0,0,0-1.68-.93,20.762,20.762,0,0,0,3.57-8.55,13.947,13.947,0,0,0,.27-2.34l2.07.42a11.536,11.536,0,0,0-.48,2c-.15.75-.3,1.29-.51,2.1h3.87v-3.6a19.555,19.555,0,0,0-.21-3h2.31a18.712,18.712,0,0,0-.21,3v3.6h4.65a18.032,18.032,0,0,0,3.08-.18v2.07a26.8,26.8,0,0,0-3.05-.18h-4.68v6.18h4.07a20.064,20.064,0,0,0,3-.18v2a21.294,21.294,0,0,0-3.06-.18h-4.01v7.89h5.1a23.828,23.828,0,0,0,3.27-.18v2.13a21.805,21.805,0,0,0-3.27-.21h-12.3a21.674,21.674,0,0,0-3.27.21V159a23.828,23.828,0,0,0,3.27.18h5.34v-7.89h-3.34a21.439,21.439,0,0,0-3.06.18v-2a18.637,18.637,0,0,0,2.91.18h3.45v-6.2Z"/><path class="cls-1" d="M485.12,136.1a52.147,52.147,0,0,0,2.25,9.93c1.77-.72,2.61-1,7.26-2.67a16.213,16.213,0,0,0,1.92-.78l.9,2.28a68.966,68.966,0,0,0-9,2.91c-5.13,2-7.35,4-7.35,6.51,0,2.73,2.31,3.78,8.19,3.78a29.815,29.815,0,0,0,8.58-1l.24,2.49a15.576,15.576,0,0,0-2.22.18,60.191,60.191,0,0,1-6.63.39,20.4,20.4,0,0,1-6.66-.81c-2.46-.9-3.72-2.55-3.72-4.92a6.492,6.492,0,0,1,2.67-5.1,18.721,18.721,0,0,1,3.93-2.43,61.139,61.139,0,0,1-2.19-8.4,10.055,10.055,0,0,0-.51-1.89Z"/><path class="cls-1" d="M518.7,152.12c-1.74,4-3.51,5.76-5.67,5.76-2.85,0-5-3.12-5-7.32A12.179,12.179,0,0,1,520.1,138.273q.384,0,.768.017a11.611,11.611,0,0,1,8.25,3,10,10,0,0,1,2.91,7.32,10.921,10.921,0,0,1-6.87,10.35,23.212,23.212,0,0,1-4.56,1.38,4.774,4.774,0,0,0-1.05-2,18.022,18.022,0,0,0,5-1.41,9.058,9.058,0,0,0,5.31-8.4,7.91,7.91,0,0,0-4.77-7.53,8.622,8.622,0,0,0-3.48-.75A45.02,45.02,0,0,1,518.7,152.12Zm-3.69-10.47a10.367,10.367,0,0,0-4.89,8.94c0,2.88,1.26,5.1,2.88,5.1,1.26,0,2.46-1.41,3.75-4.35a41.217,41.217,0,0,0,2.73-11.1A9.469,9.469,0,0,0,515.01,141.65Z"/><path class="cls-1" d="M541.38,158.87a21.085,21.085,0,0,0,.18,3.36h-2.22a22.464,22.464,0,0,0,.18-3.36V139.22a25.934,25.934,0,0,0-.12-3.3,27.546,27.546,0,0,0,3.12.12h4.5a26.5,26.5,0,0,0,3.06-.12c-.06.84-.09,1.74-.09,2.85v3.27a24.323,24.323,0,0,0,.09,2.76c-.84-.06-1.77-.09-3-.09h-5.67Zm0-19.23h6.9v-2.19h-6.9Zm0,3.66h6.9v-2.28h-6.9Zm11.19,10.86a11.3,11.3,0,0,0,6.66,4.2,7.008,7.008,0,0,0-.9,1.68,18.1,18.1,0,0,0,2.61.21c.81,0,1.05-.18,1.05-.87V144.71h-6.21a29.626,29.626,0,0,0-3.06.09c.06-.78.09-1.68.09-2.76v-3.27c0-1,0-2-.09-2.85a26.49,26.49,0,0,0,3.06.12h5.07a27.61,27.61,0,0,0,3.15-.12,28.411,28.411,0,0,0-.15,3.3v20.25c0,2-.51,2.49-2.91,2.49-.84,0-1.83-.06-2.82-.12a5.656,5.656,0,0,0-.45-1.89,5.628,5.628,0,0,0,.66.09,13.157,13.157,0,0,1-6.9-5c-1.14,2.88-3,4.41-7.32,6a4.49,4.49,0,0,0-1.11-1.56,12.672,12.672,0,0,0,5.31-2.55,6,6,0,0,0,1.68-2.73h-3.78a17.3,17.3,0,0,0-2.73.15v-1.77a15.285,15.285,0,0,0,2.67.15h4.2a18.931,18.931,0,0,0,.18-2.67h-3.81a19.389,19.389,0,0,0-2.55.12v-1.71a13.943,13.943,0,0,0,2.55.15h1.53a15.147,15.147,0,0,0-1.83-2.52l1.53-.63a22.885,22.885,0,0,1,2.1,3.15h3.06a15.37,15.37,0,0,0,1.8-3.18l1.68.51a23.842,23.842,0,0,1-1.68,2.67h1.73a14.407,14.407,0,0,0,2.55-.15v1.71a19.571,19.571,0,0,0-2.55-.12h-4.35a18.1,18.1,0,0,1-.24,2.67h5.1a15.684,15.684,0,0,0,2.67-.15v1.77a16.249,16.249,0,0,0-2.7-.15Zm2-14.52h7.44v-2.19h-7.44Zm0,3.66h7.44v-2.28h-7.44Z"/><path class="cls-1" d="M572.64,149.65c0-1.47,0-2.7.12-4.44a18.855,18.855,0,0,1-2.64,4.14,18.332,18.332,0,0,0-1.17-1.68,25.719,25.719,0,0,0,5-8.49,19.971,19.971,0,0,0,1.14-4.2l2.1.54a8.97,8.97,0,0,0-.51,1.47,45.976,45.976,0,0,1-2.16,5.4v16.32a30.546,30.546,0,0,0,.12,3.72h-2.16a29.918,29.918,0,0,0,.18-3.69Zm9.72,3.54a21.1,21.1,0,0,1-4.65,7.5,6.3,6.3,0,0,0-1.59-1.17,14.208,14.208,0,0,0,2.61-3,15.835,15.835,0,0,0,1.91-4.07Zm-6.18-3.75a22.7,22.7,0,0,0,2.88.12h2.55a27.041,27.041,0,0,0,2.52-2.19,40.734,40.734,0,0,0-6.3-4.44l1.08-1.38c1.14.69,1.47.9,2.31,1.47a17.4,17.4,0,0,0,3.09-3.72c-2.16.27-3.87.45-6.09.57a4.589,4.589,0,0,0-.69-1.74c6.33-.15,14.43-1.44,16.35-2.55l1.26,1.65-1.68.42a67.3,67.3,0,0,1-6.69,1.32,33.964,33.964,0,0,1-4.2,5c1.14.81,1.71,1.23,2.85,2.19a28.559,28.559,0,0,0,5.1-6.3l1.89,1a26.683,26.683,0,0,0-1.71,2.1,58.351,58.351,0,0,1-6.51,6.54c5.16-.18,5.7-.21,8.64-.51a38.887,38.887,0,0,0-2.64-3.12l1.44-.78a36.138,36.138,0,0,1,5,6.57l-1.62,1c-.57-1.08-.78-1.44-1.2-2.16-2.22.21-2.22.21-6.93.51v8.31a22.532,22.532,0,0,0,.18,3.18h-2.25a23.035,23.035,0,0,0,.18-3.15V151.1c-2.49.15-4.89.24-7.2.3a8.962,8.962,0,0,0-1.35.09Zm15.18,2.91a22.492,22.492,0,0,0,2.61,4.35,18.837,18.837,0,0,0,2.52,2.73c-.54.39-1,.78-1.56,1.23a28.307,28.307,0,0,1-5.16-7.47Z"/><path class="cls-1" d="M610.64,139.91a12.705,12.705,0,0,0,1.44-4.11l2.4.42a6.372,6.372,0,0,0-.78,1.62,14.053,14.053,0,0,1-.93,2,5.093,5.093,0,0,1,.63,0c4.8-.24,7.8-.6,9.45-1.14l.18,2a9.3,9.3,0,0,0-1.2.15,97.012,97.012,0,0,1-9.9.78,22.157,22.157,0,0,1-2.7,4.26c-.3.36-.9,1.05-1,1.14s-.36.27-.39.3h0a.237.237,0,0,0,.06.09,8.3,8.3,0,0,1,1.38-1,8.007,8.007,0,0,1,4.53-1.47A3.641,3.641,0,0,1,617.8,148.2c0,.027,0,.054.007.081,2.19-.87,3.9-1.5,5.22-2a6.6,6.6,0,0,0,2-.87l1,2.1a49.9,49.9,0,0,0-8,2.64c.06.78.06,1.08.06,1.83v3a6.5,6.5,0,0,0,.06,1.08h-2q.2-2.154.18-4.32a7.948,7.948,0,0,0,0-.9c-4.08,1.92-5.64,3.33-5.64,5.13,0,2,1.86,2.85,6.09,2.85a25.147,25.147,0,0,0,8-1.17l.27,2.31c-.4.03-.8.08-1.2.15a46.486,46.486,0,0,1-7.29.6c-5.37,0-8-1.53-8-4.62,0-1.65,1-3.21,3.06-4.74a23.314,23.314,0,0,1,4.47-2.4c-.24-1.65-1-2.37-2.37-2.37-1.89,0-4.26,1.11-6.69,3.18a9.936,9.936,0,0,0-2.31,2.49l-1.92-1.6a29.848,29.848,0,0,0,6.72-8.58l.27-.45a3.413,3.413,0,0,1-.57.06l-4.41-.09h-.48a5.191,5.191,0,0,0-.66,0v-2.07a42,42,0,0,0,6.42.33Z"/><path class="cls-1" d="M647.78,147.02c-.36,7.77-2.88,11.43-9.66,14.07a5.252,5.252,0,0,0-1.41-2c6.21-2.07,8.55-5.28,8.79-12.12h-8.13a23.672,23.672,0,0,0-3.45.15v-2.17a19.856,19.856,0,0,0,3.48.18h17.55a19.659,19.659,0,0,0,3.48-.18v2.22a23.672,23.672,0,0,0-3.45-.15Zm-10.83-9.51a15.577,15.577,0,0,0,3.45.21h9.06a27.231,27.231,0,0,0,3.45-.15v2.16q-.589,0-3.42-.09h-9.12a20.905,20.905,0,0,0-3.42.15Zm17.58-2.52a23.339,23.339,0,0,1,2.94,4.74l-1.53.84a22.866,22.866,0,0,0-2.91-4.86Zm3.69-1.14a24.96,24.96,0,0,1,2.94,4.74l-1.53.84a23.521,23.521,0,0,0-2.91-4.83Z"/><path class="cls-1" d="M682.13,142.7v-2.94a21.123,21.123,0,0,0-.09-3.06h2.34a22.987,22.987,0,0,0-.12,2.85v3.15h2.58a20.5,20.5,0,0,0,3.51-.18v2.28a24.084,24.084,0,0,0-3.48-.15h-2.64c0,5.79-.36,8-1.47,10.17-1.62,3-4.32,5.1-8.37,6.48a5.367,5.367,0,0,0-1.35-1.89c3.93-1,7-3.33,8.16-6.36.66-1.8.84-3.6.9-8.4h-9.12v5a15.665,15.665,0,0,0,.12,2.43h-2.46a14.347,14.347,0,0,0,.12-2.52v-4.91h-2.52a24.084,24.084,0,0,0-3.48.15v-2.28a20.5,20.5,0,0,0,3.51.18h2.49v-3.48a14.642,14.642,0,0,0-.12-2.52h2.43a15.917,15.917,0,0,0-.12,2.43v3.57Zm5-7.89a23.843,23.843,0,0,1,2.13,4.92l-1.59.54a23.116,23.116,0,0,0-2.13-5Zm3.45-1a23.269,23.269,0,0,1,2.13,4.89l-1.56.54a24,24,0,0,0-2.1-4.92Z"/><path class="cls-1" d="M719.97,137.75a6.8,6.8,0,0,0-1.32,1.26,52.809,52.809,0,0,1-7,6v12.78a19.882,19.882,0,0,0,.15,3.18h-2.61a15.665,15.665,0,0,0,.18-3.12v-11.4a46.884,46.884,0,0,1-11.58,5.25,7,7,0,0,0-1.17-2,42.225,42.225,0,0,0,15.57-7.77,25.189,25.189,0,0,0,5.73-5.67Z"/><path class="cls-1" d="M730.2,157.49a26.114,26.114,0,0,0,8.73-2.31c5.79-2.58,9.81-7,12.24-13.35A5.989,5.989,0,0,0,753,143.6c-2.4,5.22-5.19,8.73-9.15,11.46-3.09,2.1-6.18,3.33-11.19,4.47a15.753,15.753,0,0,0-1.8.48Zm1.92-18.6a39.087,39.087,0,0,1,7.23,5.64l-1.56,1.86a33.149,33.149,0,0,0-7.14-5.88Z"/><path class="cls-1" d="M6.96,195.89c-1.56.33-2.28.45-4,.72a6.237,6.237,0,0,0-.87-1.65,28.606,28.606,0,0,0,8.55-1.95,8.08,8.08,0,0,0,1.38-.72l1.17,1.59a24.525,24.525,0,0,1-4.38,1.59v4.56h2.1a9.988,9.988,0,0,0,2.1-.15v2a11.1,11.1,0,0,0-2.13-.15h-2a12.644,12.644,0,0,0,4.29,5.25,7,7,0,0,0-1.14,1.67,14.068,14.068,0,0,1-3.39-4.78c0,.42.06,1.95.15,4.62v7.5a28.092,28.092,0,0,0,.18,3.48H6.78a29.1,29.1,0,0,0,.18-3.48v-6.93c0-1.14.06-2.85.15-4.8a22.1,22.1,0,0,1-4.56,8.82,5.618,5.618,0,0,0-1.17-1.68,24.835,24.835,0,0,0,5.31-9.66H4.74a17.287,17.287,0,0,0-2.67.18v-2.07a16.828,16.828,0,0,0,2.7.18H6.96Zm8.31,17.52c-1.11.27-2.1.57-2.82.81l-.27-2.13a15.036,15.036,0,0,0,2.85-.48l8.25-2V195.47a19.072,19.072,0,0,0-.18-3.15h2.28a21.693,21.693,0,0,0-.18,3.12v13.74l.48-.12a16.679,16.679,0,0,0,2.82-.84l.24,2.1a21.89,21.89,0,0,0-2.85.54l-.69.18v5.1a22.339,22.339,0,0,0,.18,3.27H23.1a17.6,17.6,0,0,0,.18-3.3v-4.62Zm-.21-11.46a28.6,28.6,0,0,1,5.52,4.7l-1.2,1.53a23.561,23.561,0,0,0-5.55-4.8Zm1-7.5a28.169,28.169,0,0,1,5.58,4.8l-1.2,1.56a22.906,22.906,0,0,0-5.61-4.92Z"/><path class="cls-1" d="M46.77,216.83c0,1.86-.57,2.22-3.36,2.22-.84,0-2.4-.06-3.45-.18a9,9,0,0,0-.63-1.92,31.153,31.153,0,0,0,3.93.33c1.38,0,1.59-.09,1.59-.72v-6h-9a23.035,23.035,0,0,0-3.15.18v-2.09a22.293,22.293,0,0,0,3.12.18h9v-.51a11.863,11.863,0,0,0-.09-1.77h1.26a25.193,25.193,0,0,0,5.37-3.39h-11a26.605,26.605,0,0,0-2.85.15v-1.96a27.2,27.2,0,0,0,2.91.15H51.3a12.977,12.977,0,0,0,2.22-.12l1.14,1.2a9.515,9.515,0,0,0-1,.87,34.115,34.115,0,0,1-6.84,4.44v.93h8.82a21.965,21.965,0,0,0,3.15-.18v2.07a22.835,22.835,0,0,0-3.18-.18H46.77ZM38.64,197a20.071,20.071,0,0,0-2.82-3.9l1.8-.57a28.565,28.565,0,0,1,3.06,4.44h4.38a17.771,17.771,0,0,0-2.16-4.32l1.86-.51a25.68,25.68,0,0,1,2.28,4.83h3.3a17.888,17.888,0,0,0,3.09-4.83l1.89.81a28.031,28.031,0,0,1-2.88,4h2.34a34.245,34.245,0,0,0,3.45-.12,19.541,19.541,0,0,0-.12,2.49v2.22a16.4,16.4,0,0,0,.15,2.1h-2v-5H35.1v5h-2a15.692,15.692,0,0,0,.15-2.1v-2.22a19.541,19.541,0,0,0-.12-2.49,26.76,26.76,0,0,0,3.42.15Z"/><path class="cls-1" d="M75.15,209.12c-1.74,4-3.51,5.76-5.67,5.76-2.85,0-5-3.12-5-7.32a12.179,12.179,0,0,1,12.072-12.287q.384,0,.768.017a11.611,11.611,0,0,1,8.25,3,10,10,0,0,1,2.91,7.32,10.92,10.92,0,0,1-6.84,10.32,23.212,23.212,0,0,1-4.56,1.38,4.774,4.774,0,0,0-1.05-2,18.022,18.022,0,0,0,5-1.41,9.058,9.058,0,0,0,5.31-8.4,7.91,7.91,0,0,0-4.77-7.53,8.622,8.622,0,0,0-3.48-.75A45.024,45.024,0,0,1,75.15,209.12Zm-3.69-10.47a10.367,10.367,0,0,0-4.89,8.94c0,2.88,1.26,5.1,2.88,5.1,1.26,0,2.46-1.41,3.75-4.35a41.217,41.217,0,0,0,2.73-11.1A9.469,9.469,0,0,0,71.46,198.65Z"/><path class="cls-1" d="M99.84,216.14a18.857,18.857,0,0,0,.18,3.15H97.86c.09-.93.15-1.95.15-3.15v-9.15a35.762,35.762,0,0,1-4.05,3.81,7.311,7.311,0,0,0-1-1.71,24.533,24.533,0,0,0,4.95-4.41,23.806,23.806,0,0,0,3.81-5.82H96.35a20.72,20.72,0,0,0-2.31.12v-2a18.385,18.385,0,0,0,2.25.12h1.74v-2.79a20.407,20.407,0,0,0-.15-2.37h2.22a12.866,12.866,0,0,0-.18,2.4v2.76h1.83a6.661,6.661,0,0,0,1.41-.09l.87,1.08a9.348,9.348,0,0,0-.57,1.08,28.987,28.987,0,0,1-3.27,5.25,24.6,24.6,0,0,0,4.38,3.66,7.366,7.366,0,0,0-.9,1.74,32,32,0,0,1-3.78-3.45Zm8.43-6.66a25.167,25.167,0,0,0-2.91.09c.06-.72.09-1.77.09-3V196.28a27.914,27.914,0,0,0-.12-3.06,22.2,22.2,0,0,0,2.94.12h8a21.638,21.638,0,0,0,2.88-.12,26.5,26.5,0,0,0-.12,3.06v10.26a27.914,27.914,0,0,0,.12,3.06,26.676,26.676,0,0,0-2.91-.12h-1.1v7c0,.51.33.6,1.92.6s1.92-.12,2.07-.63a16.416,16.416,0,0,0,.33-3.6,5.9,5.9,0,0,0,1.77.81c-.15,2.61-.42,3.93-.93,4.5s-1.41.69-3.57.69c-2.85,0-3.42-.3-3.42-1.74v-7.59H110.7a10.913,10.913,0,0,1-1.14,4.38c-1.2,2.4-3.09,4-6.27,5.4a7.544,7.544,0,0,0-1.35-1.68c4.29-1.41,6.72-4.23,6.93-8.1Zm-1-11.28h10v-3.24h-10Zm0,4.71h10v-3.15h-10Zm0,5h10v-3.39h-10Z"/><path class="cls-1" d="M124.47,218.12a12.57,12.57,0,0,0,2.34-2.82,13.339,13.339,0,0,0,1.62-3.54l1.77.78a20.879,20.879,0,0,1-4,6.66Zm13.92-16.47h5.79a23.7,23.7,0,0,0,3.39-.15,16.265,16.265,0,0,0-.12,2.25v4.8a15.591,15.591,0,0,0,.12,2.16,30.646,30.646,0,0,0-3.09-.12H131.55a30.646,30.646,0,0,0-3.09.12,16.59,16.59,0,0,0,.12-2.16v-4.8a18.188,18.188,0,0,0-.12-2.25c.9.09,2,.15,3.39.15h4.59v-6.51a17.931,17.931,0,0,0-.21-3h2.41a16.005,16.005,0,0,0-.21,2.85v1h8.46a20.61,20.61,0,0,0,3-.18v2.07a24.649,24.649,0,0,0-3-.18h-8.46Zm-7.89,1.74v5.43h15v-5.43Zm3.48,15.84a29.873,29.873,0,0,0-.66-6.6l1.71-.3a36.992,36.992,0,0,1,.93,6.48Zm7.47,0a27.853,27.853,0,0,0-2.37-6.6l1.65-.54a45.726,45.726,0,0,1,2.64,6.33Zm7.65-.06a34.194,34.194,0,0,0-4-6.78l1.65-.75a50.206,50.206,0,0,1,4.11,6.45Z"/><path class="cls-1" d="M161.91,194.06a42.5,42.5,0,0,0-1.26,4.8,44.326,44.326,0,0,0-.9,9.39c0,2.34.06,4.11.18,5.7a27.872,27.872,0,0,1,2-5.85l1.44.69c-1.35,3-2.43,6.57-2.43,8.25v.45l-2.16.18c-.06-.48-.09-.63-.18-1.2a42.96,42.96,0,0,1-.78-8.49,49.654,49.654,0,0,1,1.35-11.88,16.693,16.693,0,0,0,.42-2.4Zm7.65,12.06c-1.5,1.65-2.25,3.09-2.25,4.41,0,2.22,1.89,3.3,5.76,3.3a19.734,19.734,0,0,0,6.9-1l.3,2.31a5.15,5.15,0,0,0-1,.15,31.048,31.048,0,0,1-6.15.6c-3.42,0-5.58-.72-6.87-2.28a4.244,4.244,0,0,1-.9-2.76c0-1.83.75-3.45,2.61-5.58Zm-3.81-8.88a20.368,20.368,0,0,0,5.1.45,32.224,32.224,0,0,0,8-.81l.15,2.13-2.07.27a50.762,50.762,0,0,1-6.45.39,40.114,40.114,0,0,1-4.8-.3Z"/><path class="cls-1" d="M200.49,215.48c2.31-4.83,4.59-11.52,5-14.88l2.31.78a33.305,33.305,0,0,0-1.2,3.63,79.938,79.938,0,0,1-4,10.47h6.93a24.592,24.592,0,0,0,3.3-.18v2.28a19.8,19.8,0,0,0-3.3-.21h-20a21.638,21.638,0,0,0-3.45.21V215.3a26.869,26.869,0,0,0,3.45.18Zm-2.25-20.61a14.081,14.081,0,0,0-.21-2.46h2.37a13.742,13.742,0,0,0-.21,2.43v2.46h8a21.287,21.287,0,0,0,3.45-.21v2.25a27.612,27.612,0,0,0-3.45-.18H190.64a25.731,25.731,0,0,0-3.33.18v-2.25a18.935,18.935,0,0,0,3.33.21h7.62Zm-4.95,6.06a69.468,69.468,0,0,1,3.24,11.85l-1.95.75a58.4,58.4,0,0,0-3.27-11.88Z"/><path class="cls-1" d="M219.64,209.42c-.3,5-.81,7.5-2.16,10.17a6.831,6.831,0,0,0-1.47-1.47c1.68-3.24,2.16-7.5,2.16-19a48.066,48.066,0,0,0-.18-6,18.15,18.15,0,0,0,2.4.12h2.16a13.872,13.872,0,0,0,2.25-.12c-.06.51-.06,1.17-.06,3v20.4c0,2-.57,2.58-2.49,2.58a17.046,17.046,0,0,1-2.07-.12,5.344,5.344,0,0,0-.36-1.92,10.822,10.822,0,0,0,2.28.3c.81,0,1-.15,1-1.08v-6.81Zm3.42-1.65v-5.52h-3.27v2.13a33.744,33.744,0,0,1-.09,3.39Zm0-7.17v-5.67h-3.21v5.67Zm5.55-1.5a13.651,13.651,0,0,0-2.49.15v-2a13.651,13.651,0,0,0,2.49.15h1v-2a20.752,20.752,0,0,0-.18-3h2a18.859,18.859,0,0,0-.15,2.85v2.16h1a12.355,12.355,0,0,0,2.43-.15v2a12.2,12.2,0,0,0-2.43-.15h-1v4.74h1.47a11.906,11.906,0,0,0,2.4-.15v2a12.2,12.2,0,0,0-2.43-.15h-2.08a63.2,63.2,0,0,1-2.34,8.46,41.539,41.539,0,0,0,4.71-1.32,26.2,26.2,0,0,0-1.5-4.32l1.47-.54a39.992,39.992,0,0,1,2.43,8.22l-1.59.72c-.18-1.29-.24-1.71-.42-2.58a64.3,64.3,0,0,1-6.21,1.89c-.24.06-1.08.3-1.53.48l-.63-2a12.158,12.158,0,0,0,1.41-.18,49.21,49.21,0,0,0,2.4-8.85h-.87a13.683,13.683,0,0,0-2.46.15v-2a13.149,13.149,0,0,0,2.46.15h1.59v-4.74Zm14.49,13.71c0,1.71-.51,2.19-2.31,2.19a15.025,15.025,0,0,1-2-.09,6.116,6.116,0,0,0-.33-1.89,9.914,9.914,0,0,0,2.19.27c.57,0,.72-.15.72-.87V195.29h-3.53v21.42a22.507,22.507,0,0,0,.12,2.82h-2a23.308,23.308,0,0,0,.15-2.82V196.1a25.836,25.836,0,0,0-.09-2.61,11.014,11.014,0,0,0,1.92.12h3.3a9.215,9.215,0,0,0,1.92-.12c-.06.75-.09,1.41-.09,2.64Z"/><path class="cls-1" d="M255.54,193.7a46.206,46.206,0,0,0-.39,6.33c-.12,3.6-.21,7.68-.21,9,0,.36,0,1.11.06,1.8a4.721,4.721,0,0,0,1.41,3.6,5.661,5.661,0,0,0,3.75,1.17,8.619,8.619,0,0,0,8-5.22,17.805,17.805,0,0,0,1.47-4.71,8.469,8.469,0,0,0,2.16,1.44c-1.14,3.51-2,5.28-3.33,6.81a10.5,10.5,0,0,1-8.46,3.75c-2.55,0-4.44-.72-5.64-2.1s-1.65-3-1.65-6.15c0-2,0-2.76.27-12.21v-2a9.2,9.2,0,0,0-.12-1.59Z"/><path class="cls-1" d="M279.64,197.3h1.08a14.725,14.725,0,0,0,1.71-.09c3.57-.27,13.17-.81,17-1a20.17,20.17,0,0,0,3.57-.33l.18,2.25a13.927,13.927,0,0,0-3.36.39,15.222,15.222,0,0,0-5.76,3,9.17,9.17,0,0,0-3.69,6.93c0,2.52,1.53,4.53,4.2,5.55a15.381,15.381,0,0,0,4.5,1h.3l-.39,2.43-.93-.18a15.131,15.131,0,0,1-6.48-2.31,7.3,7.3,0,0,1-3.33-6.12c0-3.48,2-6.81,5.61-9.21a19.664,19.664,0,0,1,2.85-1.59,58.187,58.187,0,0,1-6.6.66,87.991,87.991,0,0,0-10.35,1Z"/><path class="cls-1" d="M311.88,195.14a12.816,12.816,0,0,0-2.58.18v-2a16.052,16.052,0,0,0,2.7.18h4.89a11.7,11.7,0,0,0,2.52-.18v2a19.725,19.725,0,0,0-2.43-.12h-1.86a29.363,29.363,0,0,1-2.07,7.62h3.75a13.68,13.68,0,0,0,1.84-.17,22.36,22.36,0,0,0-.09,2.4v9.27a19.635,19.635,0,0,0,.12,2.52h-1.89v-1.5h-3.72v3.18h-2a18.163,18.163,0,0,0,.18-2.91v-6.66c0-1.08,0-2,.09-3.36a13.719,13.719,0,0,1-2.25,3.66,5.009,5.009,0,0,0-1.08-1.8,20.4,20.4,0,0,0,4.14-7.62,21.006,21.006,0,0,0,1-4.71Zm1.2,18.6h3.72v-9.39h-3.72Zm10.41-18.6a19.531,19.531,0,0,0-2.91.18v-2.07a18.355,18.355,0,0,0,3,.18h9.48a20.064,20.064,0,0,0,3-.18v2.07a15.746,15.746,0,0,0-2.91-.18h-.72v8.31h1a15.856,15.856,0,0,0,3-.18v2.13a19.546,19.546,0,0,0-3-.18h-1v10.77a22.673,22.673,0,0,0,.21,3.21h-2.31a22.381,22.381,0,0,0,.21-3.21V205.22h-4.9c-.3,6.69-1.59,10.32-5,14.28a5.445,5.445,0,0,0-1.74-1.35c3.15-3,4.56-6.75,4.83-12.93h-.84a16.735,16.735,0,0,0-3,.18v-2.1a19.538,19.538,0,0,0,3,.15h.9v-8.31Zm2.19,7.29v1h4.89v-8.31h-4.93Z"/><path class="cls-1" d="M355.98,207.11a26.557,26.557,0,0,0,3.36-.15c-.06.66-.09,1.29-.12,2.64l-.12,6.09c0,.9.33,1,2.67,1,2.1,0,2.7-.15,2.91-.69a17.522,17.522,0,0,0,.48-4.5,7.379,7.379,0,0,0,2,.78c-.48,6-.66,6.18-5.49,6.18-3.66,0-4.44-.39-4.44-2.4v-.15l.12-7h-5.58a11.5,11.5,0,0,1-2.34,4.95,13.234,13.234,0,0,1-3.21,2.88,20.2,20.2,0,0,1-5,2.46,4.628,4.628,0,0,0-1.32-1.71,18.726,18.726,0,0,0,5.76-2.7,9.8,9.8,0,0,0,4.17-5.88h-4.74a21.4,21.4,0,0,0-3.24.18v-2.13a20.251,20.251,0,0,0,3.18.18h5.16a21.266,21.266,0,0,0,.21-2.52,9.989,9.989,0,0,0-.12-1.62h2.28a9.116,9.116,0,0,0-.24,1.89c-.06.72-.12,1.47-.24,2.22Zm-4-12.69a9.221,9.221,0,0,0-.21-2.16h2.34a8.765,8.765,0,0,0-.21,2.16v.93h8.91a25.477,25.477,0,0,0,3-.15,13.518,13.518,0,0,0-.12,2.07v1.53a13.911,13.911,0,0,0,.12,2.1h-2v-3.84h-7.47v4.35c0,.36.06.51.21.6a5.9,5.9,0,0,0,1.92.21,5.539,5.539,0,0,0,2.43-.33c.33-.24.48-1,.51-2.43a6.266,6.266,0,0,0,1.8.57c-.15,1.89-.39,2.73-.9,3.18s-1.74.66-3.87.66c-3.15,0-3.9-.33-3.9-1.65v-5.16h-3.69a8.216,8.216,0,0,1-1,3.33,8.451,8.451,0,0,1-4.74,3.81,27.718,27.718,0,0,1-2.79.87,8.181,8.181,0,0,0-1.14-1.65c3.21-.6,4.71-1.2,6-2.4a5.673,5.673,0,0,0,1.83-4h-6.37v3.81h-2a14.453,14.453,0,0,0,.12-2.1v-1.5a13.518,13.518,0,0,0-.12-2.07,25.477,25.477,0,0,0,3,.15h8.31Z"/><path class="cls-1" d="M378.54,193.7a46.206,46.206,0,0,0-.39,6.33c-.12,3.6-.21,7.68-.21,9,0,.36,0,1.11.06,1.8a4.721,4.721,0,0,0,1.41,3.6,5.661,5.661,0,0,0,3.75,1.17,8.619,8.619,0,0,0,8-5.22,17.805,17.805,0,0,0,1.47-4.71,8.469,8.469,0,0,0,2.16,1.44c-1.14,3.51-2,5.28-3.33,6.81a10.5,10.5,0,0,1-8.46,3.75c-2.55,0-4.44-.72-5.64-2.1s-1.65-3-1.65-6.15c0-2,0-2.76.27-12.21v-2a9.2,9.2,0,0,0-.12-1.59Z"/><path class="cls-1" d="M402.64,211.13a30.583,30.583,0,0,1,6,6.36l-1.68,1.59a29.952,29.952,0,0,0-5.91-6.54Z"/><path class="cls-1" d="M427.71,199.73a14.488,14.488,0,0,0,4.41,6.24,5.9,5.9,0,0,0-1.14,1.68,15.884,15.884,0,0,1-3.6-5.52c.15,1.95.21,3.69.21,5.85v8.28a21.95,21.95,0,0,0,.18,3.18h-2.25a21.95,21.95,0,0,0,.18-3.18v-7.89c0-1.65.06-4.14.15-5.64a27.693,27.693,0,0,1-4.86,9.93,5.38,5.38,0,0,0-1.23-1.74c2.58-3,4.23-6.24,5.64-11.19h-2.16a16.489,16.489,0,0,0-2.55.18v-2a12.016,12.016,0,0,0,2.61.18h2.4v-3.12a19,19,0,0,0-.18-2.82h2.25a13.717,13.717,0,0,0-.18,2.79v3.15h1.89a17.282,17.282,0,0,0,2.25-.15v2a17.282,17.282,0,0,0-2.25-.15Zm8.07,0a21.559,21.559,0,0,0-3.09.15v-2a20.864,20.864,0,0,0,3.06.15h5.34v-2.58a26.364,26.364,0,0,0-.18-3.3h2.25a21.672,21.672,0,0,0-.18,3.3v2.58h1.47a17.46,17.46,0,0,0,2.76-.18v2a17.46,17.46,0,0,0-2.76-.18h-1.47l.12,16.65c0,1.92-.6,2.37-3.3,2.37a33.081,33.081,0,0,1-3.36-.18,6.656,6.656,0,0,0-.51-2,21.875,21.875,0,0,0,3.63.33c1.35,0,1.59-.12,1.59-.75V201.75a29.055,29.055,0,0,1-3.66,5.91,29.4,29.4,0,0,1-6.36,6,5.645,5.645,0,0,0-1.38-1.53,27.466,27.466,0,0,0,7.41-6.93,34.914,34.914,0,0,0,3.18-5.55Z"/><path class="cls-1" d="M454.11,204.2a14.8,14.8,0,0,0-2.61.15v-2a13.568,13.568,0,0,0,2.61.15h2.37v-7.08a21.266,21.266,0,0,0-.18-3.21h2.19a20.013,20.013,0,0,0-.18,3.18v7.11h1.8a14.454,14.454,0,0,0,2.22-.12v1.89a15.96,15.96,0,0,0-2.25-.12h-1.65a17.942,17.942,0,0,0,4.29,5.55,10.486,10.486,0,0,0-1.05,1.62,17.768,17.768,0,0,1-3.51-5.28c.06,1.2.15,3.87.15,4.44v5.61a24.592,24.592,0,0,0,.18,3.3H456.3a26.463,26.463,0,0,0,.18-3.33v-5.1c0-1.38.06-3.06.15-4.65a22.78,22.78,0,0,1-4.62,8.58,6.32,6.32,0,0,0-1.14-1.68,19.017,19.017,0,0,0,3.57-5,24.144,24.144,0,0,0,1.68-4Zm-.9-10a35.172,35.172,0,0,1,2,6.42l-1.59.69a26.566,26.566,0,0,0-2-6.42Zm9.84.57a33.894,33.894,0,0,1-2.43,6.54l-1.47-.69a22.4,22.4,0,0,0,2.19-6.51Zm9.72.72a19.072,19.072,0,0,0-.18-3.15h2.28a21.55,21.55,0,0,0-.18,3.12v13.8l.45-.09a18.848,18.848,0,0,0,2.76-.84l.36,2.1a20.972,20.972,0,0,0-2.88.51l-.69.18v5a23.213,23.213,0,0,0,.18,3.27h-2.23a17.6,17.6,0,0,0,.18-3.3v-4.53l-7.89,1.92a20.652,20.652,0,0,0-2.79.81l-.39-2.13a16.339,16.339,0,0,0,2.88-.48l8.19-2Zm-8,6.54a26.583,26.583,0,0,1,5.37,4.56l-1.26,1.5a22.089,22.089,0,0,0-5.43-4.68Zm.9-7.5a30.729,30.729,0,0,1,5.4,4.68l-1.23,1.56a25.378,25.378,0,0,0-5.46-4.86Z"/><path class="cls-1" d="M481.8,197.45a16.524,16.524,0,0,0,2.61.18h7.23a14.618,14.618,0,0,0,2.61-.18v2a16.045,16.045,0,0,0-2.61-.15h-7.26a17.383,17.383,0,0,0-2.58.15Zm1.41-4.08a13.721,13.721,0,0,0,2.43.15h4.89a13.238,13.238,0,0,0,2.37-.15v1.89a18.4,18.4,0,0,0-2.37-.12h-4.89a18.262,18.262,0,0,0-2.43.12Zm0,8.31a13.452,13.452,0,0,0,2.16.12h5.34a13.547,13.547,0,0,0,2.13-.12v1.83a15.163,15.163,0,0,0-2.13-.12h-5.34a14.442,14.442,0,0,0-2.16.12Zm0,4.14a13,13,0,0,0,2.16.12h5.34a13.547,13.547,0,0,0,2.13-.12v1.83a14.046,14.046,0,0,0-2.13-.12h-5.34a14.181,14.181,0,0,0-2.16.12Zm2.13,13.5h-2a20.4,20.4,0,0,0,.18-2.88v-4a15.335,15.335,0,0,0-.15-2.46,13.655,13.655,0,0,0,2.1.12h5.49a19.082,19.082,0,0,0,2-.09,16.882,16.882,0,0,0-.12,2.4v4a15.554,15.554,0,0,0,.18,2.55h-2v-1.17h-5.7Zm0-3.15h5.76v-4.44h-5.76Zm15-20.49a21.689,21.689,0,0,0-.21-3.33h2.37a21.318,21.318,0,0,0-.21,3.33v6.06h2.85a28.122,28.122,0,0,0,3.6-.18v2.16a30.933,30.933,0,0,0-3.6-.18h-2.85V215a27.108,27.108,0,0,0,.24,4.29h-2.4a30.746,30.746,0,0,0,.21-4.29V203.54h-2.7a29.228,29.228,0,0,0-3.45.18v-2.16a26.165,26.165,0,0,0,3.45.18h2.64Z"/><path class="cls-1" d="M530.7,198.53a19.541,19.541,0,0,0,2.49-.12,15.47,15.47,0,0,0-.12,2.13v10.68a15.351,15.351,0,0,0,.12,2.1,21.793,21.793,0,0,0-2.58-.12h-9.84a21.793,21.793,0,0,0-2.58.12,15.351,15.351,0,0,0,.12-2.1V200.54a15.47,15.47,0,0,0-.12-2.13,19.915,19.915,0,0,0,2.49.12h4v-3.66h-9.04a25.5,25.5,0,0,0-3.15.18v-2.07a22.568,22.568,0,0,0,3.15.18h20.22a23.69,23.69,0,0,0,3.15-.18v2.07a24.745,24.745,0,0,0-3.15-.18H526.5v3.66Zm7.74.69a23.128,23.128,0,0,0-.18,3.09v13.53a26.723,26.723,0,0,0,.18,3.6h-2.1v-1.71H515.22v1.71h-2.1a27.177,27.177,0,0,0,.18-3.63v-13.5a22.481,22.481,0,0,0-.18-3.09h2.25a17.344,17.344,0,0,0-.18,2.88v13.92h21.18v-14a18.361,18.361,0,0,0-.18-2.85Zm-18.39.93v4.56h4.65v-4.56Zm0,6.15v5.35h4.65v-5.31Zm6.45-1.59h4.83v-4.56H526.5Zm0,6.9h4.83V206.3H526.5Z"/><path class="cls-1" d="M555.15,209.12c-1.74,4-3.51,5.76-5.67,5.76-2.85,0-5-3.12-5-7.32a12.179,12.179,0,0,1,12.072-12.287q.384,0,.768.017a11.611,11.611,0,0,1,8.25,3,10,10,0,0,1,2.91,7.32,10.92,10.92,0,0,1-6.84,10.32,23.212,23.212,0,0,1-4.56,1.38,4.772,4.772,0,0,0-1-2,18.022,18.022,0,0,0,5-1.41,9.06,9.06,0,0,0,5.31-8.4,7.91,7.91,0,0,0-4.77-7.53,8.622,8.622,0,0,0-3.48-.75A45.025,45.025,0,0,1,555.15,209.12Zm-3.69-10.47a10.369,10.369,0,0,0-4.89,8.94c0,2.88,1.26,5.1,2.88,5.1,1.26,0,2.46-1.41,3.75-4.35a41.217,41.217,0,0,0,2.73-11.1A9.469,9.469,0,0,0,551.46,198.65Z"/><path class="cls-1" d="M592.11,209.65a12.285,12.285,0,0,1-1.77,6.09,10.158,10.158,0,0,1-3.81,3.75,4.663,4.663,0,0,0-1.41-1.38,7.48,7.48,0,0,0,1.2-.72c-.6-.06-1.41-.09-2.52-.09h-6.16v1.8h-1.89a16.913,16.913,0,0,0,.21-3.09v-7.26c0-.81,0-1.56.06-2.46a19.722,19.722,0,0,1-2.37,2.55,4.5,4.5,0,0,0-1.08-1.38,18.928,18.928,0,0,0,5.4-6.66h-1.86a13.373,13.373,0,0,0-2.52.18v-1.83a13.5,13.5,0,0,0,2.46.15h2.59a27.762,27.762,0,0,0,1-3h-2.61a16.789,16.789,0,0,1-2.07,2.7,5.3,5.3,0,0,0-1.47-.93,12.424,12.424,0,0,0,3.66-5.85l1.8.54c-.42.9-.6,1.29-1,2h5.67a15.889,15.889,0,0,0,2.79-.18v1.83a18.19,18.19,0,0,0-2.73-.15h-2.25a29.032,29.032,0,0,1-1,3h4.14a12.582,12.582,0,0,0,2.46-.15v1.8a15.689,15.689,0,0,0-2.46-.15h-4.8a22.976,22.976,0,0,1-1.8,3.15h3.15a14.336,14.336,0,0,0,1.26-2.64l1.62.51c-.42.75-.72,1.29-1.26,2.13h1.65a14.451,14.451,0,0,0,2.46-.12v1.68a18.049,18.049,0,0,0-2.46-.12h-1.75v2.4h1.2a14.73,14.73,0,0,0,2.43-.12v1.65a17.009,17.009,0,0,0-2.43-.12h-1.2v2.52h1.17a14.659,14.659,0,0,0,2.46-.12v1.65a16.053,16.053,0,0,0-2.46-.12h-1.17v2.73h1.29a14.009,14.009,0,0,0,2.49-.12v1.62a8.714,8.714,0,0,0,2.73-2.94,9.381,9.381,0,0,0,1.19-4.73h-.39a20.437,20.437,0,0,0-2.07.09,21.226,21.226,0,0,0,.12-2.94V196.16a19.04,19.04,0,0,0-.15-3,19.123,19.123,0,0,0,2.85.15h5.82a18.876,18.876,0,0,0,2.91-.15,30.955,30.955,0,0,0-.12,3.15V206.9a21.764,21.764,0,0,0,.12,2.82,20.073,20.073,0,0,0-2.73-.12h-.63v6.75c0,.54.24.69,1.29.69,1.32,0,1.89-.12,2.07-.45a12.145,12.145,0,0,0,.42-3.9,5.83,5.83,0,0,0,1.62.81c-.33,4.92-.57,5.25-4.14,5.25-2.37,0-3-.42-3-2.07v-7.03Zm-11-1.86v-2.4h-3.47v2.4Zm-3.47,3.91h3.48v-2.52h-3.48Zm0,4.14h3.48v-2.73h-3.48Zm12.12-17.61h7.86v-3.3h-7.86Zm0,4.83h7.86v-3.27h-7.86Zm0,5.07h7.86v-3.48h-7.86Z"/><path class="cls-1" d="M604.47,218.12a12.57,12.57,0,0,0,2.34-2.82,13.339,13.339,0,0,0,1.62-3.54l1.77.78a20.879,20.879,0,0,1-4,6.66Zm13.92-16.47h5.79a23.7,23.7,0,0,0,3.39-.15,16.265,16.265,0,0,0-.12,2.25v4.8a15.591,15.591,0,0,0,.12,2.16,30.646,30.646,0,0,0-3.09-.12H611.55a30.646,30.646,0,0,0-3.09.12,16.767,16.767,0,0,0,.12-2.16v-4.8a18.385,18.385,0,0,0-.12-2.25c.9.09,2,.15,3.39.15h4.59v-6.51a17.931,17.931,0,0,0-.21-3h2.41a16.005,16.005,0,0,0-.21,2.85v1h8.46a20.61,20.61,0,0,0,3-.18v2.07a24.649,24.649,0,0,0-3-.18h-8.46Zm-7.89,1.74v5.43h15v-5.43Zm3.48,15.84a29.873,29.873,0,0,0-.66-6.6l1.71-.3a36.992,36.992,0,0,1,.93,6.48Zm7.47,0a27.853,27.853,0,0,0-2.37-6.6l1.65-.54a45.726,45.726,0,0,1,2.64,6.33Zm7.65-.06a34.194,34.194,0,0,0-4-6.78l1.65-.75a50.206,50.206,0,0,1,4.11,6.45Z"/><path class="cls-1" d="M636.39,200.51a63.178,63.178,0,0,0,6.63-.78,36.685,36.685,0,0,0,.9-6.36v-.39l2.4.27a18.434,18.434,0,0,0-.57,2.88c-.15.87-.36,2-.63,3.42a17.439,17.439,0,0,1,1.77-.09c2.13,0,3.39.36,4.32,1.26s1.47,2.37,1.47,4.83c0,4.59-.78,8.58-2,10.32a3.128,3.128,0,0,1-2.94,1.41,11.285,11.285,0,0,1-4.53-1.17,6.585,6.585,0,0,0,.06-1.05,5.816,5.816,0,0,0-.09-1.2,11.222,11.222,0,0,0,4.47,1.38q1.13,0,1.71-1.44a23.2,23.2,0,0,0,1.26-8.34c0-3.18-.9-4.2-3.69-4.2a17.342,17.342,0,0,0-2.16.15,56.6,56.6,0,0,1-4.53,12.72c-.39.72-1,1.92-2,3.6l-2-1.2a28.781,28.781,0,0,0,3.12-5.43,49.529,49.529,0,0,0,3.3-9.51c-2.58.39-4,.63-4.29.69a17.005,17.005,0,0,0-1.73.37Zm19.71-2.76a27.129,27.129,0,0,1,6.27,10.62l-1.92,1.11a24.554,24.554,0,0,0-6.12-10.77Z"/><path class="cls-1" d="M673.8,198.74a25.084,25.084,0,0,0-.69,3.3c-.72,4.35-.78,4.56-.87,5.25a3.678,3.678,0,0,1-.12.69h.06a8.413,8.413,0,0,1,.93-.9,14.844,14.844,0,0,1,8.67-2.58c4.89,0,8,2.28,8,5.79a6.412,6.412,0,0,1-2.7,5.16,12.45,12.45,0,0,1-7.47,2,24.966,24.966,0,0,1-5.25-.54l-2.4-.6a4.927,4.927,0,0,0,0-.57,6.939,6.939,0,0,0-.21-1.86,21.3,21.3,0,0,0,7.65,1.5c4.95,0,8.1-2,8.1-5,0-2.46-2.16-3.9-5.82-3.9a14.527,14.527,0,0,0-8.4,2.61,5.21,5.21,0,0,0-1.2,1.23l-2.34-.06c.09-.54.12-.81.24-1.77.3-2.28.84-5.76,1.26-8.28a10.137,10.137,0,0,0,.21-1.59Zm1.32-5.22a36.189,36.189,0,0,0,10.17,3.33l-.84,2.1a46.252,46.252,0,0,1-5.85-1.71,33.351,33.351,0,0,1-4.59-1.89Z"/><path class="cls-1" d="M716.01,191.87h7.83v1.86h-5.79v23.92h5.79v1.86h-7.83Z"/><path class="cls-1" d="M732.18,205.55a27.231,27.231,0,0,0-3.45.15v-2.25a20.98,20.98,0,0,0,3.48.18h6.12v-6.3h-4.44a24.121,24.121,0,0,0-3.42.15V195.2a16.605,16.605,0,0,0,3.45.21h13.8a16.759,16.759,0,0,0,3.48-.21v2.28a24.247,24.247,0,0,0-3.45-.15h-7.26v6.32h9.15a21.2,21.2,0,0,0,3.48-.18v2.25a27.231,27.231,0,0,0-3.45-.15h-9.15v5.91c0,1.89.12,2.4.75,2.79a8.308,8.308,0,0,0,3.9.6c1.14,0,2.79-.09,4.47-.24a11.273,11.273,0,0,0,2.61-.45v2.34a1.666,1.666,0,0,0-.36,0c-.3,0-.36,0-2.25.18-1.11.09-3.27.18-4.65.18-5.31,0-6.63-.93-6.63-4.68v-6.6Z"/><path class="cls-1" d="M24.57,251.99a12.384,12.384,0,0,0-.75,1.74,37.78,37.78,0,0,1-6.84,11.82,34.733,34.733,0,0,1-11.34,8.31,7.091,7.091,0,0,0-1.53-2.1A28.769,28.769,0,0,0,18.9,258.83a28.3,28.3,0,0,0,3.15-7.68Z"/><path class="cls-1" d="M38.01,263.93a17.3,17.3,0,0,0,2.73.15h3.57a17.444,17.444,0,0,0,2.76-.15v2.52a17.685,17.685,0,0,0-2.76-.15H40.74a17.8,17.8,0,0,0-2.73.15Z"/><path class="cls-1" d="M63.64,260.65c5-.87,11.94-3.69,14.22-5.79l1.53,2a10.515,10.515,0,0,0-1.29.66,45.639,45.639,0,0,1-14.46,5.13v4.38a.544.544,0,0,1,0,.18v.36c0,2.1.12,2.79.63,3.3a3.79,3.79,0,0,0,2.28.78,31.248,31.248,0,0,0,3.54.18,59.347,59.347,0,0,0,6.87-.48,20.015,20.015,0,0,0,3-.6l.18,2.37-2.82.3c-1.92.21-5.88.42-8,.42-3.54,0-5.52-.36-6.57-1.23a4,4,0,0,1-1.23-2.88c0-.51-.06-1.11-.06-2.34V253.52a18.01,18.01,0,0,0-.12-2.49H63.8a13.8,13.8,0,0,0-.15,2.52Z"/><path class="cls-1" d="M94.73,275.03a19.292,19.292,0,0,0,.18-3.15V253.25a17.8,17.8,0,0,0-.18-3.06h2.58a18.921,18.921,0,0,0-.15,3.12v5.61a74.394,74.394,0,0,1,13.35,6.33l-1.29,2.22a61.119,61.119,0,0,0-11.19-5.94,3.321,3.321,0,0,1-.93-.51h-.06a10.491,10.491,0,0,1,.12,1.77v9a20.359,20.359,0,0,0,.15,3.18Z"/><path class="cls-1" d="M123.88,263.93a17.3,17.3,0,0,0,2.73.15h3.57a17.444,17.444,0,0,0,2.76-.15v2.52a17.685,17.685,0,0,0-2.76-.15h-3.54a17.8,17.8,0,0,0-2.73.15Z"/><path class="cls-1" d="M144.75,252.41a13.2,13.2,0,0,0-2.4.15v-2a11.385,11.385,0,0,0,2.52.18h3a11.7,11.7,0,0,0,2.52-.18v2a12.794,12.794,0,0,0-2.28-.15h-.47v7.08h.42a9.311,9.311,0,0,0,2-.15v1.89a13.115,13.115,0,0,0-2-.12h-.42v7.11a38.063,38.063,0,0,0,3.5-1.57v1.86a72.988,72.988,0,0,1-7,2.85c-.63.24-1.17.48-1.59.66l-.6-2.13a15.858,15.858,0,0,0,3.78-1v-7.8h-.93a10.468,10.468,0,0,0-2,.15v-1.92a10.154,10.154,0,0,0,2,.15h.93v-7.08Zm24,15.87a1.752,1.752,0,0,0-.39.27l-.57.45a32.753,32.753,0,0,1-3.09,2.28,20.264,20.264,0,0,0,5.61,2.55,7.7,7.7,0,0,0-1,1.74,21.79,21.79,0,0,1-5.88-3.36,13.244,13.244,0,0,1-3.33-3.69c.06.69.12,1.89.12,2.94v2.28a16.721,16.721,0,0,0,.18,2.88h-2.1a17.488,17.488,0,0,0,.18-2.91v-2.19c0-.84.06-2.07.12-2.85a17.982,17.982,0,0,1-4.14,3.75,31.422,31.422,0,0,1-4.8,2.7,5.912,5.912,0,0,0-1.29-1.59,21.835,21.835,0,0,0,9.9-6.42h-3.72a22.848,22.848,0,0,0-2.34.09,16.054,16.054,0,0,0,.09-1.86v-2a17,17,0,0,0-.09-1.86c.72.06,1.38.09,2.4.09h10.53a19.4,19.4,0,0,0,2.49-.09,16.511,16.511,0,0,0-.09,1.86v2a15.532,15.532,0,0,0,.09,1.83,1.7,1.7,0,0,0-.39,0Zm-18.06-10.32a18.611,18.611,0,0,0,2.85.18h13.1a25.058,25.058,0,0,0,2.82-.15v1.86a25.454,25.454,0,0,0-2.76-.15H153.54a25.8,25.8,0,0,0-2.82.15Zm.72-6.09a12.385,12.385,0,0,0-.12-2,16.593,16.593,0,0,0,2.4.12h12.45a17.493,17.493,0,0,0,2.4-.12,12.989,12.989,0,0,0-.12,2v2.58a12.736,12.736,0,0,0,.12,2c-.66-.06-1.38-.09-2.31-.09H153.72a19.75,19.75,0,0,0-2.37.09,15.535,15.535,0,0,0,.09-2Zm5.22-.42h-3.51v3.42h3.52Zm-2.58,14.2h11.59v-2.61H154.05Zm7.5-14.19h-3.3v3.42h3.3Zm-1.11,15.66a16.968,16.968,0,0,0,3,3.18,13.426,13.426,0,0,0,3.75-3.12c-.48,0-1.17-.06-1.8-.06Zm6.33-15.66h-3.63v3.42h3.63Z"/><path class="cls-1" d="M176.73,252.71a24.927,24.927,0,0,0-.18-3.3h2.19a23.948,23.948,0,0,0-.18,3.3v4.38h.42a16.757,16.757,0,0,0,2.37-.12v1.92a17.653,17.653,0,0,0-2.4-.12h-.39v8.61c1.26-.57,1.8-.81,3.3-1.59l.15,1.83c-2.37,1.2-4,1.92-7.38,3.3-.39.18-.87.39-1.23.57l-.54-2.07a18.272,18.272,0,0,0,3.87-1.29v-9.36h-1a18.367,18.367,0,0,0-2.61.15v-2a17.271,17.271,0,0,0,2.67.15h.93Zm8.88,16a19.691,19.691,0,0,0-2.55.12,12.292,12.292,0,0,0,.12-2.1V261.9a16.052,16.052,0,0,0-.12-2.34,24.293,24.293,0,0,0,2.88.12h9.45a24.138,24.138,0,0,0,2.82-.12,15.283,15.283,0,0,0-.12,2.4v4.59a14.485,14.485,0,0,0,.12,2.28,20.624,20.624,0,0,0-2.46-.12h-2.37v4.68c0,.57.33.66,2.64.66,1.62,0,2.16-.12,2.4-.48a8.391,8.391,0,0,0,.42-3.18,5.709,5.709,0,0,0,1.77.75c-.18,2.55-.45,3.54-1.14,4s-1.38.57-3.84.57c-2,0-2.7-.09-3.39-.42-.48-.24-.69-.66-.69-1.44v-5.19h-3.06a8.08,8.08,0,0,1-.42,2.22,7.278,7.278,0,0,1-3.3,3.84,13.565,13.565,0,0,1-4.68,1.71,4.872,4.872,0,0,0-1.2-1.77c3.36-.54,5.1-1.23,6.33-2.49a5.1,5.1,0,0,0,1.44-3.51Zm10.65-17a20.888,20.888,0,0,0,3-.15v1.8a28.347,28.347,0,0,0-3-.12h-.3a26.351,26.351,0,0,1-1.47,3h2.61a19.04,19.04,0,0,0,3-.15v1.89a20.6,20.6,0,0,0-3-.15H184.74a25.59,25.59,0,0,0-2.85.12v-1.86a18.725,18.725,0,0,0,2.82.15h1.93a15.454,15.454,0,0,0-1.26-3h-.27a23.476,23.476,0,0,0-2.73.12v-1.8a20.19,20.19,0,0,0,3,.15h4.26v-.84a9.376,9.376,0,0,0-.15-2h2.15a9.311,9.311,0,0,0-.15,2v.81Zm-11.37,11.64h11.43v-2.13H184.89Zm0,3.87h11.43v-2.37H184.89Zm7.77-11a18.541,18.541,0,0,0,1.44-3h-6.87a29.077,29.077,0,0,1,1.2,3Z"/><path class="cls-1" d="M203.88,276.53v-1.88h5.76V250.73h-5.79v-1.86h7.83v27.66Z"/><path class="cls-1" d="M228.64,267.98a25.183,25.183,0,0,1-7.11,7.14,6.381,6.381,0,0,0-1.44-1.62,19.6,19.6,0,0,0,6.93-6.54Zm-7.9-4.33a27.628,27.628,0,0,0,3.15.18h3.66c.45,0,1.32,0,2.22-.06.3-.3.78-.72,1.38-1.32a56.679,56.679,0,0,0-7.29-5.64l1.38-1.23c1.47,1,1.86,1.32,2.52,1.83a34.744,34.744,0,0,0,3.78-4.76c-4.17.39-5.22.45-9.21.63a6.414,6.414,0,0,0-.81-1.8,101.505,101.505,0,0,0,13.29-.9,40.979,40.979,0,0,0,6.21-1.29,6.887,6.887,0,0,0,1.14-.45l1.38,1.8q-1.011.176-2,.45c-1.68.39-5.16,1-7.5,1.26a43.806,43.806,0,0,1-4.92,6,39.852,39.852,0,0,1,3.27,2.76c1.62-1.68,3.21-3.42,4.14-4.53a11.87,11.87,0,0,0,1.77-2.43l1.89,1.11a21.545,21.545,0,0,0-2.25,2.55c-1.17,1.38-4.05,4.32-5.64,5.79,6.24-.24,6.24-.24,9.75-.57a35.947,35.947,0,0,0-2.55-2.73l1.44-1a58.517,58.517,0,0,1,5.94,6.9l-1.56,1.23c-.93-1.35-1.23-1.8-2-2.85-4.23.39-4.77.45-9.27.66v8a14.175,14.175,0,0,0,.18,2.91h-2.31a14.175,14.175,0,0,0,.18-2.91v-7.92l-3.09.12c-3.24.15-3.24.15-4.44.18-.72,0-1.41,0-2,.06a6.83,6.83,0,0,0-1.44.15Zm18.33,3a25.919,25.919,0,0,0,7.17,6.75,7.924,7.924,0,0,0-1.41,1.62,29.382,29.382,0,0,1-7.32-7.47Z"/><path class="cls-1" d="M257.16,251.06a42.5,42.5,0,0,0-1.26,4.8,44.326,44.326,0,0,0-.9,9.39c0,2.34.06,4.11.18,5.7a27.92,27.92,0,0,1,1.95-5.85l1.44.69c-1.35,3-2.43,6.57-2.43,8.25v.45l-2.16.18c-.06-.48-.09-.63-.18-1.2a42.96,42.96,0,0,1-.78-8.49,49.654,49.654,0,0,1,1.35-11.88,16.693,16.693,0,0,0,.42-2.4Zm7.65,12.06c-1.5,1.65-2.25,3.09-2.25,4.41,0,2.22,1.89,3.3,5.76,3.3a19.734,19.734,0,0,0,6.9-1l.3,2.31a6.172,6.172,0,0,0-1.05.15,31.048,31.048,0,0,1-6.15.6c-3.42,0-5.58-.72-6.87-2.28a4.244,4.244,0,0,1-.9-2.76c0-1.83.75-3.45,2.61-5.58ZM261,254.24a20.368,20.368,0,0,0,5.1.45,32.224,32.224,0,0,0,8-.81l.15,2.13-2.07.27a50.762,50.762,0,0,1-6.45.39,40.114,40.114,0,0,1-4.8-.3Z"/><path class="cls-1" d="M297.42,256.34c-.36.06-.48.09-.9.18a52.686,52.686,0,0,1-5.31.9v5.23a21.236,21.236,0,0,1,6.45-1.08,10.165,10.165,0,0,1,5.31,1.26,6.17,6.17,0,0,1-3,11.52,4.42,4.42,0,0,1-4.62-3.39,11.008,11.008,0,0,1-.36-3.39,6.5,6.5,0,0,0,2-.78,8.793,8.793,0,0,0-.06,1.17c0,3.12.9,4.41,3.09,4.41a4,4,0,0,0,4.007-3.993c0-.079,0-.158-.007-.237,0-2.94-2.49-4.77-6.42-4.77a20.263,20.263,0,0,0-6.36,1.17v7.5c0,1.62-.72,2.4-2.19,2.4a7.92,7.92,0,0,1-4.95-1.92,3.619,3.619,0,0,1-1.38-2.82c0-1.32.75-2.61,2.37-4a16,16,0,0,1,4.23-2.46v-5.67l-1.2.09h-4.74v-2a17.041,17.041,0,0,0,3.06.21c.81,0,2,0,2.88-.09v-3a19.962,19.962,0,0,0-.15-2.85h2.22a17.119,17.119,0,0,0-.15,2.79v2.93a30.315,30.315,0,0,0,6.12-1.29Zm-8.13,8.85c-3,1.44-4.65,3.06-4.65,4.5,0,.63.42,1.23,1.29,1.8a5.609,5.609,0,0,0,2.67.87c.6,0,.69-.18.69-1.47Zm16.47-5.64a24.588,24.588,0,0,0-6.06-5.88l1.56-1.17a25.2,25.2,0,0,1,6.06,5.7Z"/><path class="cls-1" d="M318.64,250.97a51.856,51.856,0,0,0-1.83,13.08c0,1.65.12,3.87.24,4.89a10.5,10.5,0,0,1,.18,1.62,32.816,32.816,0,0,1,2.52-6.36l1.53.72q-1.24,2.568-2.22,5.25a11.713,11.713,0,0,0-.84,3.81l-2.07.18a7.994,7.994,0,0,0-.24-1,34.148,34.148,0,0,1-1.11-8.88,61.72,61.72,0,0,1,1.2-11.55,15.347,15.347,0,0,0,.27-2.07Zm3.06,6.06a24.291,24.291,0,0,0,5.1.39c1.2,0,2.31-.06,3.81-.18a57.85,57.85,0,0,0-.36-7h2.31a6.986,6.986,0,0,0-.09,1v.9c0,.54,0,.69.18,4.86a15.816,15.816,0,0,0,4.77-1.26l.15,2.16a15.164,15.164,0,0,0-1.59.36,28.53,28.53,0,0,1-3.27.6v2.16c0,5.7-.54,8.16-2.31,10.56a14.511,14.511,0,0,1-4.71,3.87,6.921,6.921,0,0,0-1.62-1.62,12.3,12.3,0,0,0,4.59-3.45c1.53-2,2-4.14,2-8.94,0-.84,0-1.5-.06-2.37-1.32.12-3.06.18-4.38.18-.84,0-2.55-.06-3.63-.12a4.422,4.422,0,0,0-.54,0,3.072,3.072,0,0,0-.45,0Z"/><path class="cls-1" d="M348.33,251.75a13.867,13.867,0,0,0,2.82.18c2.49,0,6.48-.18,9.18-.39a3.062,3.062,0,0,0,1.44-.33l1.26,1.65a5.532,5.532,0,0,0-1.53,1.26,76.981,76.981,0,0,1-9.86,8.53l.06.09a15.2,15.2,0,0,1,7.35-1.86c5,0,8.22,2.46,8.22,6.3,0,4.68-4.35,7.77-11,7.77-4.23,0-6.66-1.56-6.66-4.32,0-2,1.86-3.51,4.35-3.51a6,6,0,0,1,4.95,2.46,8.586,8.586,0,0,1,1.38,2.88c3.15-.87,4.8-2.7,4.8-5.25,0-2.88-2.4-4.59-6.45-4.59a19.25,19.25,0,0,0-12.63,5.13l-1.37-1.93a33.41,33.41,0,0,0,4.2-3.06c3.21-2.55,7.95-6.72,10-8.76l.42-.42.12-.12.12-.12-.06-.06h-.27c-1,.18-4.56.39-9.12.54a14.666,14.666,0,0,0-1.62.15Zm5.64,17.07c-1.5,0-2.43.72-2.43,1.86a2,2,0,0,0,1.2,1.83,7.661,7.661,0,0,0,3.36.69,10.809,10.809,0,0,0,2.19-.21c-.65-2.73-2.16-4.17-4.32-4.17Z"/><path class="cls-1" d="M376.02,265.52a11.029,11.029,0,0,0-2.46.18v-2a11.088,11.088,0,0,0,2.52.18h3.66v-1.59a5.541,5.541,0,0,0-.15-1.23h2a5.525,5.525,0,0,0-.12,1.23v1.59h3.3a11.64,11.64,0,0,0,2.43-.18v1.95a13.177,13.177,0,0,0-2.43-.15h-2.85a12.688,12.688,0,0,0,4.23,3.81,7.484,7.484,0,0,0-1,1.62,15.4,15.4,0,0,1-3.75-4.14c.06.66.09,1.53.12,2.64v4.35a16.61,16.61,0,0,0,.15,2.58H379.6a16.627,16.627,0,0,0,.18-2.58v-4.26c0-.72,0-1.5.09-2.49a17.776,17.776,0,0,1-5.67,6.66,6.136,6.136,0,0,0-1.14-1.68,20.049,20.049,0,0,0,3.9-3.3,14.222,14.222,0,0,0,2.19-3.21Zm5.34-6.69a15.953,15.953,0,0,0,2-4.92l1.8.57a31.783,31.783,0,0,1-2,4.35h1.77a13.177,13.177,0,0,0,2.43-.15v2a14.011,14.011,0,0,0-2.43-.15h-8.91a13.651,13.651,0,0,0-2.49.15v-2a13.3,13.3,0,0,0,2.49.15Zm3.06-6.9a13.889,13.889,0,0,0,2.52-.15v2a15.313,15.313,0,0,0-2.55-.15h-7.68a15.189,15.189,0,0,0-2.61.15v-2a14.574,14.574,0,0,0,2.64.15h3v-.81a10.406,10.406,0,0,0-.15-2.1h2.19a9.988,9.988,0,0,0-.15,2.1v.81Zm-6.87,6.63a16.694,16.694,0,0,0-1.71-4l1.59-.6a17.837,17.837,0,0,1,1.71,4.05Zm20.55.06a15.178,15.178,0,0,0,2.76-.18v2.07a15.538,15.538,0,0,0-2.64-.15h-1.11v13.08a14.99,14.99,0,0,0,.18,3h-2.31a18.136,18.136,0,0,0,.18-3V260.36h-4.71v1.17a32.96,32.96,0,0,1-1.71,10.77,15.585,15.585,0,0,1-2.22,4.11,6.3,6.3,0,0,0-1.71-1.26c2.88-3.54,3.78-7.74,3.78-17.76,0-3.39-.06-4.68-.15-5.55h.36a29.014,29.014,0,0,0,7.11-1.38,9.509,9.509,0,0,0,2.76-1.29l1.53,1.68a9.968,9.968,0,0,0-1.08.42,36.519,36.519,0,0,1-8.64,2.22v5.16Z"/><path class="cls-1" d="M406.05,255.26a20.652,20.652,0,0,0,3.75.27c.6,0,.93,0,1.8-.06a29.373,29.373,0,0,0,.66-5.52l2.37.24a28.394,28.394,0,0,0-.54,2.85c-.15,1-.24,1.38-.39,2.28a24.72,24.72,0,0,0,5.4-1l.15,2.07a2.574,2.574,0,0,0-.84.15,43.75,43.75,0,0,1-5.07.72c-.45,2.37-1.29,5.76-2.1,8.49a79.015,79.015,0,0,1-3.45,9.15l-2.15-.95c2.22-3.87,4.53-10.71,5.64-16.59h-2.07c-1.07,0-1.32,0-2.49-.06h-.12a4.339,4.339,0,0,0-.51,0Zm13.41,10.89a10.086,10.086,0,0,0-.9,1.14,3.615,3.615,0,0,0-.75,2.13c0,1.8,1.83,2.76,5.25,2.76a22.276,22.276,0,0,0,6.63-1l.21,2.25-1.32.21a29.988,29.988,0,0,1-5.34.51c-4.92,0-7.47-1.53-7.47-4.5,0-1.35.42-2.28,2-4.32Zm9.27-5.19a30.134,30.134,0,0,0-3.54-.21,26.087,26.087,0,0,0-7.5,1l-.21-2a34.032,34.032,0,0,1,8-1c.57,0,1,0,3.27.09Z"/><path class="cls-1" d="M445.74,250.1a9.4,9.4,0,0,0-.48,1.92c-.21,1-.39,1.74-.81,3.27a25.017,25.017,0,0,0,5.37-1l.09,2.07-1,.18a36.213,36.213,0,0,1-4.92.63,55.955,55.955,0,0,1-3.33,8.76c-.72,1.44-1,2-2.13,3.93-.27.42-.45.78-.6,1l-2-1.2a26.448,26.448,0,0,0,2.88-4.68,44.968,44.968,0,0,0,3.12-7.74c-.75,0-1.77.06-2.22.06h-3.07v-2.07a18.967,18.967,0,0,0,3.57.24h2.16a30.92,30.92,0,0,0,1-5.64Zm14.25,23.28a17.169,17.169,0,0,0-5.25-4.08,6.2,6.2,0,0,1,.06,1c0,3.09-2,4.8-5.7,4.8s-5.85-1.68-5.85-4.35a4.25,4.25,0,0,1,2.79-3.81,8.783,8.783,0,0,1,3.54-.66,9.909,9.909,0,0,1,3,.45c-.15-1.95-.21-3.36-.21-4.11a12.121,12.121,0,0,1,.3-2.91l2,.21a9.219,9.219,0,0,0-.39,2.79,35.845,35.845,0,0,0,.33,4.56,21.572,21.572,0,0,1,5.88,3.63,3.008,3.008,0,0,0,.54.48Zm-10.56-5.37c-2.55,0-4.17,1-4.17,2.7s1.44,2.46,3.81,2.46c2.58,0,3.75-1,3.75-3.27,0-.36-.06-1.29-.06-1.29a8.9,8.9,0,0,0-3.33-.6Zm10.53-8.16a32.551,32.551,0,0,0-7.95-4.08l1.11-1.68a41.355,41.355,0,0,1,7.92,4Z"/><path class="cls-1" d="M468.54,262.82c0-1.5,0-2.25.09-3.6a24.82,24.82,0,0,1-2.64,4.29,7.239,7.239,0,0,0-1.2-1.65,26.428,26.428,0,0,0,5-8.79,19.133,19.133,0,0,0,1.14-4.23l2,.72c-.21.54-.3.75-.57,1.62a41.4,41.4,0,0,1-2,5.25v16.5a28.573,28.573,0,0,0,.15,3.51h-2.16a29.85,29.85,0,0,0,.18-3.6Zm20.85-4.74a18.776,18.776,0,0,0,2.64-.12,18.652,18.652,0,0,0-.12,2.61v12.3a22.62,22.62,0,0,0,.18,3.27h-2v-2H475.26v2h-2a25.03,25.03,0,0,0,.18-3.18V260.65a23.713,23.713,0,0,0-.15-2.73,20.88,20.88,0,0,0,2.67.12h3v-5.22h-2.64a22.917,22.917,0,0,0-3.12.18v-2.1a21.985,21.985,0,0,0,3.12.18c2.88.06,5.85.09,9,.09a66.019,66.019,0,0,0,7.83-.27V253a22.446,22.446,0,0,0-3.12-.18h-3.79v5.22Zm-14.13,1.68v12.72h3.66V259.76Zm9.18-6.9h-3.72v5.22h3.72Zm-3.72,19.62h3.72V259.76h-3.72Zm5.52,0h3.81V259.76h-3.81Z"/><path class="cls-1" d="M499.38,262.65c0-1.53,0-2.07.12-3.63a23.364,23.364,0,0,1-2.76,4.35,8.349,8.349,0,0,0-1.2-1.65,25.26,25.26,0,0,0,5-8.4,17.662,17.662,0,0,0,1.14-4.23l2.07.54c-.21.57-.3.84-.57,1.62a36.846,36.846,0,0,1-1.95,5v16.5c0,1.44.06,2.49.15,3.51h-2.16a29.86,29.86,0,0,0,.18-3.6Zm4.8,13.74a29.15,29.15,0,0,0,.15-3.69V259.46a22.722,22.722,0,0,0-.18-3.15h2.13a29.669,29.669,0,0,0-.15,3.21v13.44h14.16a20.065,20.065,0,0,0,3.06-.15v2a23.128,23.128,0,0,0-3.09-.18H506.13v1.71Zm3.06-22.44a24.064,24.064,0,0,0-2.79.12v-1.92a18.007,18.007,0,0,0,2.88.15h6.06c.18-1.2.21-1.65.33-3l1.95.12c-.24,1.47-.3,1.89-.48,2.88h5.7a13.866,13.866,0,0,0,2.79-.18v2a18.914,18.914,0,0,0-2.67-.15h-6.15c-.27,1.2-.27,1.2-.66,2.85h4.62a20.052,20.052,0,0,0,2.61-.09c-.06.78-.09,1.23-.09,2.85v8.73a20.931,20.931,0,0,0,.09,2.55c-1-.06-1.68-.09-2.64-.09h-7a24.908,24.908,0,0,0-2.61.09c.06-.69.09-1.47.09-2.43V257.65a6.456,6.456,0,0,0-.09-.9c.75.06,1.41.09,2.52.09h.72c.33-1.26.48-1.89.69-2.85Zm3.75,6.93h8.65v-2.55H511Zm0,4.11h8.65v-2.58H511Zm0,4.23h8.65v-2.7H511Z"/><path class="cls-1" d="M539.4,266.12c-1.74,4-3.51,5.76-5.67,5.76-2.85,0-5-3.12-5-7.32A12.179,12.179,0,0,1,540.8,252.269q.421,0,.842.021a11.611,11.611,0,0,1,8.25,3,10,10,0,0,1,2.91,7.32,10.92,10.92,0,0,1-6.87,10.35,23.212,23.212,0,0,1-4.56,1.38,4.772,4.772,0,0,0-1-2,18.022,18.022,0,0,0,5-1.41,9.06,9.06,0,0,0,5.31-8.4,7.91,7.91,0,0,0-4.77-7.53,8.622,8.622,0,0,0-3.48-.75A45.01,45.01,0,0,1,539.4,266.12Zm-3.69-10.47a10.369,10.369,0,0,0-4.89,8.94c0,2.88,1.26,5.1,2.88,5.1,1.26,0,2.46-1.41,3.75-4.35a41.217,41.217,0,0,0,2.73-11.1A9.469,9.469,0,0,0,535.71,255.65Z"/><path class="cls-1" d="M567.24,249.35a12.3,12.3,0,0,0,2.19,2.34,21.521,21.521,0,0,0,4.35,3,7.017,7.017,0,0,0-1,1.65,23.58,23.58,0,0,1-6.48-5.49,19.836,19.836,0,0,1-3.06,3.75,30.22,30.22,0,0,1-4.56,3.69,5.408,5.408,0,0,0-1.26-1.5,25.641,25.641,0,0,0,5.82-4.74,13.978,13.978,0,0,0,2-2.7Zm-5.31,16.95a21.739,21.739,0,0,1-2.94,8.88,7.009,7.009,0,0,0-1.53-1.35c2.19-3.39,3-7,3-13.14a23.717,23.717,0,0,0-.12-2.82,27.707,27.707,0,0,0,2.91.12h6.72a19.458,19.458,0,0,0,2.34-.12,16.386,16.386,0,0,0-.12,2.28v4a15.382,15.382,0,0,0,.12,2.25c-.72-.06-1.2-.09-2.16-.09Zm1.86,8.46v1.47H561.9a20.319,20.319,0,0,0,.15-2.49v-3.3a17.193,17.193,0,0,0-.09-2.37,20.125,20.125,0,0,0,2.25.09h6.3a15.965,15.965,0,0,0,2.13-.12,15.666,15.666,0,0,0-.12,2.25v3a14.773,14.773,0,0,0,.15,2.46h-1.89v-1Zm-1.59-12a16.813,16.813,0,0,1-.15,2.07h8.49v-2.07Zm8.34-1.44v-1.86h-8.31v1.86Zm-7.26-6.67a9.519,9.519,0,0,0,1.8.12h3.09a9.207,9.207,0,0,0,1.77-.12v1.68a8.292,8.292,0,0,0-1.65-.12h-3.27a8.894,8.894,0,0,0-1.74.12Zm.54,18.63h6.93v-3.63h-6.93Zm13.82-21.95a17.04,17.04,0,0,0-.18,3.27v11.46a20.289,20.289,0,0,0,.15,3.36h-2.19a21.2,21.2,0,0,0,.15-3.36V254.65a21.281,21.281,0,0,0-.18-3.27Zm6.36-1.95a21.4,21.4,0,0,0-.21,3.63v19.92c0,2.19-.6,2.64-3.54,2.64a27,27,0,0,1-2.76-.12,5.8,5.8,0,0,0-.54-1.92,22.189,22.189,0,0,0,3.63.3c1.05,0,1.29-.18,1.29-.9V253.04a21.961,21.961,0,0,0-.21-3.66Z"/><path class="cls-1" d="M588.87,261.2a12.151,12.151,0,0,0,2.31.15h1.56a13.732,13.732,0,0,0,2.31-.15,22.829,22.829,0,0,0-.15,3.18v5.88a4.529,4.529,0,0,0,2.67,2.73c1.5.66,3.24.87,6.75.87a87.25,87.25,0,0,0,12.06-.6,7.563,7.563,0,0,0-.69,2.19c-3.15.15-6.6.21-10.14.21-5.1,0-6.78-.21-8.58-1a6.933,6.933,0,0,1-3.09-2.82,26.56,26.56,0,0,1-3.6,3.15c-.27.21-.6.48-1.08.93l-1-2a20.089,20.089,0,0,0,4.83-3.63v-7.23h-2a11.389,11.389,0,0,0-2.19.15Zm1.92-11.37a37.006,37.006,0,0,1,4.86,5.34l-1.53,1.35a27.184,27.184,0,0,0-4.74-5.49Zm9.48,5.22a20.41,20.41,0,0,1-2,3,4.553,4.553,0,0,0-1.59-1,16.673,16.673,0,0,0,3.51-5.76,8.235,8.235,0,0,0,.39-1.53l1.92.57a1.209,1.209,0,0,1-.12.27c-.18.36-.18.36-.54,1.23a15.867,15.867,0,0,1-.69,1.59h4v-1a18.461,18.461,0,0,0-.18-3.09h2.16a14.94,14.94,0,0,0-.18,3.09v1h4.32a13.668,13.668,0,0,0,2.85-.18v1.95a24.147,24.147,0,0,0-2.82-.12h-4.35v4h5.61a15.294,15.294,0,0,0,2.73-.15v2a27.062,27.062,0,0,0-2.73-.15H599.19a24.816,24.816,0,0,0-2.67.15v-2a15.483,15.483,0,0,0,2.73.15h5.82v-4Zm1.65,16a21.482,21.482,0,0,0-3,.15,18.981,18.981,0,0,0,.12-2.88V265.8a17.911,17.911,0,0,0-.12-2.7,22.377,22.377,0,0,0,3.18.15h7.86a23.26,23.26,0,0,0,3.21-.15,16.266,16.266,0,0,0-.12,2.91v2.28a16.27,16.27,0,0,0,.12,2.91,23.351,23.351,0,0,0-3.15-.15Zm-1.08-1.68h10.35v-4.42H600.84Z"/><path class="cls-1" d="M628.86,253.91a12.729,12.729,0,0,0,1.44-4.11l2.4.42a6.372,6.372,0,0,0-.78,1.62,14.053,14.053,0,0,1-.93,2,5.093,5.093,0,0,1,.63,0c4.8-.24,7.8-.6,9.45-1.14l.18,2a9.3,9.3,0,0,0-1.2.15,97.034,97.034,0,0,1-9.9.78,22.157,22.157,0,0,1-2.7,4.26c-.3.36-.9,1.05-1,1.14s-.36.27-.39.3h0a.226.226,0,0,0,.06.09,8.3,8.3,0,0,1,1.38-1,8.007,8.007,0,0,1,4.53-1.47,3.641,3.641,0,0,1,3.993,3.249c0,.027,0,.054.007.081,2.19-.87,3.9-1.5,5.22-2a6.6,6.6,0,0,0,2-.87l1,2.1a49.862,49.862,0,0,0-8,2.64c.06.78.06,1.08.06,1.83v3a6.5,6.5,0,0,0,.06,1.08h-2q.2-2.154.18-4.32a7.948,7.948,0,0,0,0-.9c-4.08,1.92-5.64,3.33-5.64,5.13,0,2,1.86,2.85,6.09,2.85a25.147,25.147,0,0,0,8-1.17l.27,2.31c-.4.03-.8.08-1.2.15a46.486,46.486,0,0,1-7.29.6c-5.37,0-8-1.53-8-4.62,0-1.65,1-3.21,3.06-4.74a23.314,23.314,0,0,1,4.47-2.4c-.24-1.65-1-2.37-2.37-2.37-1.89,0-4.26,1.11-6.69,3.18a9.936,9.936,0,0,0-2.31,2.49l-1.88-1.6a29.848,29.848,0,0,0,6.72-8.58l.27-.45a3.413,3.413,0,0,1-.57.06l-4.41-.09h-.43a5.191,5.191,0,0,0-.66,0v-2.07a42,42,0,0,0,6.42.33Z"/><path class="cls-1" d="M670.44,250.7a21.978,21.978,0,0,0,3.12-.15,19,19,0,0,0-.15,2.76V272.9a22.532,22.532,0,0,0,.18,3.18H671.4v-2H655.95v2h-2.19a21.151,21.151,0,0,0,.18-3.06v-19.5a21.181,21.181,0,0,0-.15-3,24.591,24.591,0,0,0,3.21.15Zm1,7v-5.16H655.95v5.16Zm-15.45,7.17h15.45V259.5H655.95Zm0,7.38h15.45v-5.6H655.95Z"/><path class="cls-1" d="M685.64,252.14a18.881,18.881,0,0,0-.21-3.06h2.31a18.145,18.145,0,0,0-.21,3v3h1.08a15.311,15.311,0,0,0,2.43-.15v2a16.318,16.318,0,0,0-2.46-.15h-1v6.12c1.11-.33,1.77-.57,3.54-1.26v1.74c-1.5.63-2,.81-3.57,1.38v9.18c0,1.62-.72,2.07-3.27,2.07a19.587,19.587,0,0,1-2.22-.09,5.191,5.191,0,0,0-.42-2,15.9,15.9,0,0,0,3,.3c.81,0,1-.18,1-.81v-8l-2.1.69a14.365,14.365,0,0,0-1.92.63l-.48-2.1a22.77,22.77,0,0,0,4.5-1.11V256.8h-1.8a16.318,16.318,0,0,0-2.46.15v-2a14.864,14.864,0,0,0,2.43.18h1.83Zm8.61,1c4.89-.69,9.15-1.89,10.86-3.06l1.5,1.68a51.074,51.074,0,0,1-12.36,3v2c0,1.17.51,1.29,5.4,1.29,5.79,0,5.85,0,6.12-3.81a6.465,6.465,0,0,0,1.83.81c-.3,2.43-.69,3.45-1.59,4.05s-2.19.69-6.81.69c-5.82,0-6.81-.39-6.81-2.61v-5.16a16.922,16.922,0,0,0-.18-3h2.22a18.5,18.5,0,0,0-.18,2.88Zm-1.83,11.55a16.632,16.632,0,0,0-.12-2.34,20.064,20.064,0,0,0,2.64.12h8.46a19.726,19.726,0,0,0,2.64-.12,16.182,16.182,0,0,0-.12,2.37v8.46a17.4,17.4,0,0,0,.15,3h-2v-1.65h-9.81v1.68h-2a18.573,18.573,0,0,0,.15-3Zm1.83,2.82h9.81v-3.39h-9.81Zm0,5.37h9.81v-3.75h-9.81Z"/><path class="cls-1" d="M726.75,251.75a10.134,10.134,0,0,0-.12-1.74h2.25a24.724,24.724,0,0,0-.15,3.75v.33c5.67,0,8-.09,9-.21v2.13a53.187,53.187,0,0,0-5.73-.15c-.45,0-.78,0-3.21.06v5.94a8.6,8.6,0,0,1,.72,3.54,9.658,9.658,0,0,1-4,7.83,19.059,19.059,0,0,1-4.74,2.43,6.594,6.594,0,0,0-1.32-1.89,15.392,15.392,0,0,0,4.86-2.25,7.772,7.772,0,0,0,3.36-6.33,4.206,4.206,0,0,1-.81,1.47,4.923,4.923,0,1,1-3.66-8.08c.09,0,.18,0,.27.01a4.608,4.608,0,0,1,3.48,1.35v-3.99c-6,.12-12.09.42-14.1.75l-.09-2.19h1.2c.87,0,.87,0,5.7-.18,2.88-.12,5.22-.18,7.26-.24Zm-1.29,9a3.838,3.838,0,0,0-2-.48,3.169,3.169,0,0,0-3.326,3.006c0,.048,0,.1,0,.144a2.9,2.9,0,0,0,2.792,3,2.694,2.694,0,0,0,.3,0,3.359,3.359,0,0,0,3.511-3.2,3.2,3.2,0,0,0,0-.339,2.169,2.169,0,0,0-1.27-2.1Z"/><path class="cls-1" d="M751.64,271.55a4.5,4.5,0,1,1-4.5-4.5h0a4.49,4.49,0,0,1,4.5,4.48Zm-7.29,0a2.79,2.79,0,1,0,2.79-2.79h0a2.8,2.8,0,0,0-2.81,2.79h.02Z"/></g></g></svg>